<?xml version="1.0" encoding="utf-8" ?>
<svg baseProfile="full" height="1000px" version="1.1" width="600px" xmlns="http://www.w3.org/2000/svg" xmlns:ev="http://www.w3.org/2001/xml-events" xmlns:xlink="http://www.w3.org/1999/xlink"><defs /><rect fill="white" height="100%" width="100%" x="0" y="0" /><text font-family="Arial" font-size="24" text-anchor="middle" x="300" y="40">Visual Figure Ground Test</text><text font-family="Arial" font-size="18" text-anchor="middle" x="300" y="80">Target Pattern</text><g transform="translate(200,100)"><rect fill="none" height="36" stroke="black" stroke-width="2" transform="rotate(57,59.0,135.0)" width="36" x="41" y="117" /><circle cx="22" cy="130" fill="none" r="18.0" stroke="black" stroke-width="2" /></g><text font-family="Arial" font-size="18" text-anchor="middle" x="300" y="350">Options</text><circle cx="176" cy="75" fill="black" r="3" stroke="none" transform="translate(100,400)" /><circle cx="140" cy="141" fill="black" r="3" stroke="none" transform="translate(100,400)" /><rect fill="none" height="4" stroke="black" stroke-width="1" transform="translate(100,400)" width="14" x="88" y="148" /><circle cx="96" cy="122" fill="black" r="3" stroke="none" transform="translate(100,400)" /><circle cx="168" cy="20" fill="black" r="2" stroke="none" transform="translate(100,400)" /><circle cx="134" cy="179" fill="black" r="1" stroke="none" transform="translate(100,400)" /><line stroke="black" stroke-width="1" transform="translate(100,400)" x1="52" x2="71.85765604365291" y1="139" y2="140.63405869743391" /><circle cx="48" cy="100" fill="black" r="1" stroke="none" transform="translate(100,400)" /><line stroke="black" stroke-width="1" transform="translate(100,400)" x1="142" x2="152.98781886412416" y1="21" y2="22.58309039933401" /><circle cx="96" cy="135" fill="black" r="1" stroke="none" transform="translate(100,400)" /><circle cx="60" cy="153" fill="black" r="3" stroke="none" transform="translate(100,400)" /><line stroke="black" stroke-width="1" transform="translate(100,400)" x1="81" x2="106.46173911077813" y1="179" y2="199.93967697847768" /><rect fill="none" height="7" stroke="black" stroke-width="1" transform="translate(100,400)" width="15" x="164" y="178" /><rect fill="none" height="3" stroke="black" stroke-width="1" transform="translate(100,400)" width="8" x="163" y="112" /><rect fill="none" height="13" stroke="black" stroke-width="1" transform="translate(100,400)" width="8" x="35" y="165" /><line stroke="black" stroke-width="1" transform="translate(100,400)" x1="119" x2="139.7732224949181" y1="143" y2="152.46861613900091" /><line stroke="black" stroke-width="1" transform="translate(100,400)" x1="27" x2="29.643080361613272" y1="39" y2="46.24993272706861" /><rect fill="none" height="12" stroke="black" stroke-width="1" transform="translate(100,400)" width="11" x="10" y="121" /><line stroke="black" stroke-width="1" transform="translate(100,400)" x1="167" x2="167.28852201478003" y1="70" y2="73.01906956883245" /><line stroke="black" stroke-width="1" transform="translate(100,400)" x1="142" x2="151.2697524204197" y1="164" y2="175.99263948466185" /><circle cx="59" cy="68" fill="black" r="1" stroke="none" transform="translate(100,400)" /><circle cx="119" cy="113" fill="black" r="3" stroke="none" transform="translate(100,400)" /><line stroke="black" stroke-width="1" transform="translate(100,400)" x1="99" x2="106.94904901995838" y1="35" y2="38.485008097749926" /><circle cx="165" cy="94" fill="black" r="2" stroke="none" transform="translate(100,400)" /><circle cx="48" cy="32" fill="black" r="3" stroke="none" transform="translate(100,400)" /><circle cx="51" cy="106" fill="black" r="2" stroke="none" transform="translate(100,400)" /><circle cx="18" cy="148" fill="black" r="1" stroke="none" transform="translate(100,400)" /><line stroke="black" stroke-width="1" transform="translate(100,400)" x1="87" x2="88.37565758641621" y1="24" y2="27.775911690934194" /><rect fill="none" height="7" stroke="black" stroke-width="1" transform="translate(100,400)" width="7" x="86" y="12" /><circle cx="90" cy="165" fill="black" r="2" stroke="none" transform="translate(100,400)" /><circle cx="164" cy="10" fill="black" r="2" stroke="none" transform="translate(100,400)" /><rect fill="none" height="11" stroke="black" stroke-width="1" transform="translate(100,400)" width="14" x="101" y="168" /><line stroke="black" stroke-width="1" transform="translate(100,400)" x1="172" x2="178.92490684627523" y1="88" y2="106.170269499161" /><line stroke="black" stroke-width="1" transform="translate(100,400)" x1="133" x2="133.63871466106474" y1="56" y2="58.07680560014254" /><rect fill="none" height="8" stroke="black" stroke-width="1" transform="translate(100,400)" width="5" x="88" y="91" /><circle cx="70" cy="51" fill="black" r="3" stroke="none" transform="translate(100,400)" /><line stroke="black" stroke-width="1" transform="translate(100,400)" x1="146" x2="149.5458586343388" y1="47" y2="59.77707777253561" /><line stroke="black" stroke-width="1" transform="translate(100,400)" x1="99" x2="105.7466627725375" y1="98" y2="99.9703170432908" /><rect fill="none" height="6" stroke="black" stroke-width="1" transform="translate(100,400)" width="6" x="154" y="127" /><circle cx="23" cy="122" fill="black" r="2" stroke="none" transform="translate(100,400)" /><text font-family="Arial" font-size="14" text-anchor="middle" x="175" y="380">Option 1</text><g transform="translate(100,400)"><rect fill="none" height="36" stroke="black" stroke-width="2" transform="rotate(57,162.0,53.0)" width="36" x="144" y="35" /><circle cx="35" cy="64" fill="none" r="18.0" stroke="black" stroke-width="2" /></g><line stroke="black" stroke-width="1" transform="translate(350,400)" x1="62" x2="89.87168648051494" y1="30" y2="52.12544521263791" /><circle cx="128" cy="69" fill="black" r="1" stroke="none" transform="translate(350,400)" /><rect fill="none" height="7" stroke="black" stroke-width="1" transform="translate(350,400)" width="10" x="75" y="82" /><line stroke="black" stroke-width="1" transform="translate(350,400)" x1="77" x2="97.1093151907223" y1="131" y2="137.70392063745186" /><rect fill="none" height="6" stroke="black" stroke-width="1" transform="translate(350,400)" width="7" x="127" y="77" /><rect fill="none" height="5" stroke="black" stroke-width="1" transform="translate(350,400)" width="9" x="107" y="87" /><line stroke="black" stroke-width="1" transform="translate(350,400)" x1="92" x2="107.35870586867912" y1="54" y2="56.6666032116048" /><circle cx="58" cy="32" fill="black" r="1" stroke="none" transform="translate(350,400)" /><circle cx="52" cy="68" fill="black" r="1" stroke="none" transform="translate(350,400)" /><line stroke="black" stroke-width="1" transform="translate(350,400)" x1="99" x2="106.40560434145004" y1="114" y2="122.41468691739185" /><circle cx="36" cy="122" fill="black" r="1" stroke="none" transform="translate(350,400)" /><rect fill="none" height="7" stroke="black" stroke-width="1" transform="translate(350,400)" width="7" x="123" y="94" /><line stroke="black" stroke-width="1" transform="translate(350,400)" x1="91" x2="93.71981898944543" y1="175" y2="177.19248451668827" /><line stroke="black" stroke-width="1" transform="translate(350,400)" x1="33" x2="41.41079411813181" y1="113" y2="116.69743174741826" /><circle cx="11" cy="99" fill="black" r="1" stroke="none" transform="translate(350,400)" /><rect fill="none" height="12" stroke="black" stroke-width="1" transform="translate(350,400)" width="14" x="34" y="59" /><rect fill="none" height="8" stroke="black" stroke-width="1" transform="translate(350,400)" width="7" x="142" y="25" /><line stroke="black" stroke-width="1" transform="translate(350,400)" x1="111" x2="117.98834063080578" y1="160" y2="170.17629737146248" /><rect fill="none" height="7" stroke="black" stroke-width="1" transform="translate(350,400)" width="10" x="26" y="164" /><line stroke="black" stroke-width="1" transform="translate(350,400)" x1="81" x2="85.40597763977392" y1="104" y2="106.57557376266422" /><line stroke="black" stroke-width="1" transform="translate(350,400)" x1="174" x2="182.78330660488643" y1="54" y2="57.46893706323141" /><line stroke="black" stroke-width="1" transform="translate(350,400)" x1="156" x2="168.6648664460677" y1="48" y2="52.2447701959445" /><line stroke="black" stroke-width="1" transform="translate(350,400)" x1="28" x2="37.07935685645187" y1="94" y2="95.92852172069215" /><circle cx="94" cy="76" fill="black" r="1" stroke="none" transform="translate(350,400)" /><rect fill="none" height="6" stroke="black" stroke-width="1" transform="translate(350,400)" width="13" x="151" y="38" /><line stroke="black" stroke-width="1" transform="translate(350,400)" x1="102" x2="116.64553531079403" y1="174" y2="197.85730268016812" /><rect fill="none" height="4" stroke="black" stroke-width="1" transform="translate(350,400)" width="9" x="18" y="91" /><line stroke="black" stroke-width="1" transform="translate(350,400)" x1="133" x2="136.2071935849937" y1="58" y2="60.142538725731484" /><line stroke="black" stroke-width="1" transform="translate(350,400)" x1="29" x2="44.97289103178656" y1="172" y2="184.66895045865752" /><circle cx="94" cy="89" fill="black" r="1" stroke="none" transform="translate(350,400)" /><circle cx="121" cy="163" fill="black" r="1" stroke="none" transform="translate(350,400)" /><line stroke="black" stroke-width="1" transform="translate(350,400)" x1="11" x2="32.68068900476654" y1="92" y2="109.82200477688559" /><line stroke="black" stroke-width="1" transform="translate(350,400)" x1="140" x2="145.05494825243355" y1="151" y2="154.7553252552155" /><line stroke="black" stroke-width="1" transform="translate(350,400)" x1="75" x2="75.7283101200998" y1="58" y2="59.025612192558576" /><rect fill="none" height="9" stroke="black" stroke-width="1" transform="translate(350,400)" width="4" x="123" y="20" /><rect fill="none" height="15" stroke="black" stroke-width="1" transform="translate(350,400)" width="12" x="29" y="168" /><line stroke="black" stroke-width="1" transform="translate(350,400)" x1="107" x2="108.03630131963065" y1="111" y2="114.11878004223415" /><line stroke="black" stroke-width="1" transform="translate(350,400)" x1="32" x2="32.016316053932584" y1="94" y2="94.44267406317216" /><line stroke="black" stroke-width="1" transform="translate(350,400)" x1="123" x2="130.29467800724524" y1="97" y2="98.06565716674697" /><circle cx="10" cy="135" fill="black" r="3" stroke="none" transform="translate(350,400)" /><text font-family="Arial" font-size="14" text-anchor="middle" x="425" y="380">Option 2</text><g transform="translate(350,400)"><rect fill="none" height="36" stroke="black" stroke-width="2" transform="rotate(40.50974468070637,59.0,135.0)" width="36" x="41" y="117" /><circle cx="22" cy="130" fill="none" r="18.0" stroke="black" stroke-width="2" /></g><line stroke="black" stroke-width="1" transform="translate(100,650)" x1="169" x2="175.94544451799476" y1="114" y2="119.55467501826796" /><rect fill="none" height="13" stroke="black" stroke-width="1" transform="translate(100,650)" width="15" x="64" y="72" /><circle cx="23" cy="117" fill="black" r="2" stroke="none" transform="translate(100,650)" /><line stroke="black" stroke-width="1" transform="translate(100,650)" x1="81" x2="101.04355648365063" y1="94" y2="116.6090410584178" /><line stroke="black" stroke-width="1" transform="translate(100,650)" x1="132" x2="138.69734424575122" y1="115" y2="127.91400543578499" /><rect fill="none" height="3" stroke="black" stroke-width="1" transform="translate(100,650)" width="9" x="53" y="60" /><circle cx="119" cy="72" fill="black" r="2" stroke="none" transform="translate(100,650)" /><circle cx="91" cy="29" fill="black" r="1" stroke="none" transform="translate(100,650)" /><circle cx="16" cy="60" fill="black" r="1" stroke="none" transform="translate(100,650)" /><circle cx="49" cy="176" fill="black" r="3" stroke="none" transform="translate(100,650)" /><rect fill="none" height="11" stroke="black" stroke-width="1" transform="translate(100,650)" width="7" x="96" y="17" /><circle cx="48" cy="80" fill="black" r="1" stroke="none" transform="translate(100,650)" /><line stroke="black" stroke-width="1" transform="translate(100,650)" x1="137" x2="140.5895175500203" y1="74" y2="80.72420889235538" /><rect fill="none" height="6" stroke="black" stroke-width="1" transform="translate(100,650)" width="7" x="141" y="40" /><line stroke="black" stroke-width="1" transform="translate(100,650)" x1="98" x2="117.27552118569417" y1="133" y2="136.69897975918929" /><rect fill="none" height="3" stroke="black" stroke-width="1" transform="translate(100,650)" width="8" x="117" y="50" /><rect fill="none" height="9" stroke="black" stroke-width="1" transform="translate(100,650)" width="10" x="179" y="144" /><line stroke="black" stroke-width="1" transform="translate(100,650)" x1="158" x2="160.861230321195" y1="20" y2="41.616216969103334" /><rect fill="none" height="15" stroke="black" stroke-width="1" transform="translate(100,650)" width="14" x="176" y="95" /><rect fill="none" height="3" stroke="black" stroke-width="1" transform="translate(100,650)" width="14" x="98" y="95" /><line stroke="black" stroke-width="1" transform="translate(100,650)" x1="117" x2="136.12133176222216" y1="140" y2="143.07954008063635" /><rect fill="none" height="10" stroke="black" stroke-width="1" transform="translate(100,650)" width="12" x="163" y="104" /><line stroke="black" stroke-width="1" transform="translate(100,650)" x1="124" x2="124.09250860613773" y1="151" y2="152.9576625238581" /><rect fill="none" height="9" stroke="black" stroke-width="1" transform="translate(100,650)" width="11" x="69" y="104" /><line stroke="black" stroke-width="1" transform="translate(100,650)" x1="143" x2="150.6870761155749" y1="45" y2="45.245959521674905" /><circle cx="139" cy="50" fill="black" r="3" stroke="none" transform="translate(100,650)" /><line stroke="black" stroke-width="1" transform="translate(100,650)" x1="113" x2="116.90642146470054" y1="61" y2="63.6235504765876" /><line stroke="black" stroke-width="1" transform="translate(100,650)" x1="76" x2="89.40306947097251" y1="83" y2="99.28533047079235" /><circle cx="136" cy="68" fill="black" r="1" stroke="none" transform="translate(100,650)" /><rect fill="none" height="8" stroke="black" stroke-width="1" transform="translate(100,650)" width="8" x="70" y="25" /><circle cx="76" cy="38" fill="black" r="2" stroke="none" transform="translate(100,650)" /><line stroke="black" stroke-width="1" transform="translate(100,650)" x1="58" x2="67.4477660456931" y1="149" y2="161.245791564374" /><circle cx="109" cy="58" fill="black" r="2" stroke="none" transform="translate(100,650)" /><circle cx="81" cy="138" fill="black" r="3" stroke="none" transform="translate(100,650)" /><circle cx="124" cy="113" fill="black" r="2" stroke="none" transform="translate(100,650)" /><rect fill="none" height="14" stroke="black" stroke-width="1" transform="translate(100,650)" width="9" x="105" y="134" /><line stroke="black" stroke-width="1" transform="translate(100,650)" x1="49" x2="58.991128790874406" y1="152" y2="152.5726766548047" /><circle cx="12" cy="156" fill="black" r="3" stroke="none" transform="translate(100,650)" /><line stroke="black" stroke-width="1" transform="translate(100,650)" x1="113" x2="119.40561257531589" y1="153" y2="163.8094963070007" /><rect fill="none" height="14" stroke="black" stroke-width="1" transform="translate(100,650)" width="14" x="15" y="101" /><text font-family="Arial" font-size="14" text-anchor="middle" x="175" y="630">Option 3</text><g transform="translate(100,650)"><rect fill="none" height="36" stroke="black" stroke-width="2" transform="rotate(41.363790717629,59.0,135.0)" width="36" x="41" y="117" /><circle cx="22" cy="130" fill="none" r="18.0" stroke="black" stroke-width="2" /></g><rect fill="none" height="7" stroke="black" stroke-width="1" transform="translate(350,650)" width="7" x="96" y="91" /><line stroke="black" stroke-width="1" transform="translate(350,650)" x1="61" x2="70.70857930343792" y1="151" y2="164.33065740152438" /><rect fill="none" height="12" stroke="black" stroke-width="1" transform="translate(350,650)" width="5" x="120" y="59" /><rect fill="none" height="6" stroke="black" stroke-width="1" transform="translate(350,650)" width="7" x="17" y="67" /><line stroke="black" stroke-width="1" transform="translate(350,650)" x1="66" x2="75.71064309443554" y1="71" y2="78.9532275460169" /><rect fill="none" height="12" stroke="black" stroke-width="1" transform="translate(350,650)" width="5" x="110" y="110" /><rect fill="none" height="8" stroke="black" stroke-width="1" transform="translate(350,650)" width="5" x="48" y="25" /><line stroke="black" stroke-width="1" transform="translate(350,650)" x1="115" x2="126.23008172376024" y1="57" y2="64.52426755868886" /><line stroke="black" stroke-width="1" transform="translate(350,650)" x1="44" x2="53.72534788094442" y1="173" y2="194.42233757589176" /><rect fill="none" height="6" stroke="black" stroke-width="1" transform="translate(350,650)" width="5" x="95" y="64" /><line stroke="black" stroke-width="1" transform="translate(350,650)" x1="30" x2="32.72948013765043" y1="154" y2="156.59038053403023" /><circle cx="37" cy="42" fill="black" r="3" stroke="none" transform="translate(350,650)" /><circle cx="69" cy="13" fill="black" r="1" stroke="none" transform="translate(350,650)" /><line stroke="black" stroke-width="1" transform="translate(350,650)" x1="97" x2="107.64842924441201" y1="13" y2="30.854097597782477" /><rect fill="none" height="11" stroke="black" stroke-width="1" transform="translate(350,650)" width="13" x="89" y="177" /><line stroke="black" stroke-width="1" transform="translate(350,650)" x1="71" x2="74.31266955299982" y1="11" y2="17.27366065953935" /><circle cx="131" cy="37" fill="black" r="2" stroke="none" transform="translate(350,650)" /><line stroke="black" stroke-width="1" transform="translate(350,650)" x1="100" x2="112.7456638243789" y1="27" y2="45.203828987890084" /><line stroke="black" stroke-width="1" transform="translate(350,650)" x1="164" x2="168.80017755890464" y1="95" y2="100.36744559451336" /><circle cx="103" cy="129" fill="black" r="3" stroke="none" transform="translate(350,650)" /><line stroke="black" stroke-width="1" transform="translate(350,650)" x1="154" x2="155.168185157568" y1="146" y2="147.88601192762283" /><line stroke="black" stroke-width="1" transform="translate(350,650)" x1="180" x2="194.27570387731072" y1="127" y2="129.71587914368047" /><rect fill="none" height="14" stroke="black" stroke-width="1" transform="translate(350,650)" width="12" x="36" y="110" /><line stroke="black" stroke-width="1" transform="translate(350,650)" x1="177" x2="177.25019982019217" y1="132" y2="137.7062765739731" /><line stroke="black" stroke-width="1" transform="translate(350,650)" x1="20" x2="22.47585995395562" y1="94" y2="96.43109963967825" /><rect fill="none" height="15" stroke="black" stroke-width="1" transform="translate(350,650)" width="13" x="29" y="68" /><rect fill="none" height="5" stroke="black" stroke-width="1" transform="translate(350,650)" width="12" x="146" y="173" /><rect fill="none" height="4" stroke="black" stroke-width="1" transform="translate(350,650)" width="7" x="21" y="125" /><rect fill="none" height="5" stroke="black" stroke-width="1" transform="translate(350,650)" width="10" x="147" y="124" /><rect fill="none" height="5" stroke="black" stroke-width="1" transform="translate(350,650)" width="10" x="84" y="29" /><rect fill="none" height="10" stroke="black" stroke-width="1" transform="translate(350,650)" width="9" x="104" y="165" /><rect fill="none" height="4" stroke="black" stroke-width="1" transform="translate(350,650)" width="14" x="30" y="111" /><circle cx="140" cy="110" fill="black" r="1" stroke="none" transform="translate(350,650)" /><rect fill="none" height="15" stroke="black" stroke-width="1" transform="translate(350,650)" width="5" x="61" y="143" /><line stroke="black" stroke-width="1" transform="translate(350,650)" x1="63" x2="65.00616793251089" y1="11" y2="25.600771598859623" /><rect fill="none" height="12" stroke="black" stroke-width="1" transform="translate(350,650)" width="12" x="49" y="97" /><circle cx="79" cy="76" fill="black" r="1" stroke="none" transform="translate(350,650)" /><rect fill="none" height="10" stroke="black" stroke-width="1" transform="translate(350,650)" width="4" x="89" y="75" /><line stroke="black" stroke-width="1" transform="translate(350,650)" x1="138" x2="139.30259000043222" y1="99" y2="104.84767883522106" /><rect fill="none" height="12" stroke="black" stroke-width="1" transform="translate(350,650)" width="9" x="133" y="107" /><text font-family="Arial" font-size="14" text-anchor="middle" x="425" y="630">Option 4</text><g transform="translate(350,650)"><rect fill="none" height="36" stroke="black" stroke-width="2" transform="rotate(57,59.0,135.0)" width="36" x="41" y="117" /><circle cx="22" cy="130" fill="none" r="18.0" stroke="black" stroke-width="2" /></g></svg>