<?xml version="1.0" encoding="utf-8" ?>
<svg baseProfile="full" height="1000px" version="1.1" width="600px" xmlns="http://www.w3.org/2000/svg" xmlns:ev="http://www.w3.org/2001/xml-events" xmlns:xlink="http://www.w3.org/1999/xlink"><defs /><rect fill="white" height="100%" width="100%" x="0" y="0" /><text font-family="Arial" font-size="24" text-anchor="middle" x="300" y="40">Visual Figure Ground Test</text><text font-family="Arial" font-size="18" text-anchor="middle" x="300" y="80">Target Pattern</text><g transform="translate(200,100)"><polygon fill="none" points="148,89 185,89 166.5,52" stroke="black" stroke-width="2" transform="rotate(339,166.5,70.5)" /><rect fill="none" height="35" stroke="black" stroke-width="2" transform="rotate(12,80.5,120.5)" width="35" x="63" y="103" /></g><text font-family="Arial" font-size="18" text-anchor="middle" x="300" y="350">Options</text><circle cx="122" cy="135" fill="black" r="1" stroke="none" transform="translate(100,400)" /><line stroke="black" stroke-width="1" transform="translate(100,400)" x1="160" x2="169.8124250025528" y1="127" y2="133.96737516157378" /><circle cx="71" cy="13" fill="black" r="1" stroke="none" transform="translate(100,400)" /><line stroke="black" stroke-width="1" transform="translate(100,400)" x1="144" x2="158.4595746817735" y1="85" y2="94.09696164499688" /><circle cx="91" cy="149" fill="black" r="3" stroke="none" transform="translate(100,400)" /><line stroke="black" stroke-width="1" transform="translate(100,400)" x1="41" x2="47.3113440184796" y1="45" y2="51.039235997638976" /><rect fill="none" height="7" stroke="black" stroke-width="1" transform="translate(100,400)" width="7" x="26" y="53" /><circle cx="73" cy="94" fill="black" r="3" stroke="none" transform="translate(100,400)" /><circle cx="122" cy="29" fill="black" r="1" stroke="none" transform="translate(100,400)" /><line stroke="black" stroke-width="1" transform="translate(100,400)" x1="68" x2="78.60923156703532" y1="127" y2="140.74601049250666" /><circle cx="140" cy="108" fill="black" r="3" stroke="none" transform="translate(100,400)" /><line stroke="black" stroke-width="1" transform="translate(100,400)" x1="25" x2="34.40414645321926" y1="84" y2="96.85939867952243" /><line stroke="black" stroke-width="1" transform="translate(100,400)" x1="91" x2="113.6433385596053" y1="81" y2="97.79997148204222" /><rect fill="none" height="7" stroke="black" stroke-width="1" transform="translate(100,400)" width="5" x="35" y="22" /><line stroke="black" stroke-width="1" transform="translate(100,400)" x1="52" x2="59.91411867053641" y1="134" y2="149.21758424699058" /><circle cx="114" cy="116" fill="black" r="3" stroke="none" transform="translate(100,400)" /><line stroke="black" stroke-width="1" transform="translate(100,400)" x1="84" x2="89.83124374253877" y1="130" y2="131.53425307233212" /><rect fill="none" height="10" stroke="black" stroke-width="1" transform="translate(100,400)" width="4" x="150" y="146" /><rect fill="none" height="11" stroke="black" stroke-width="1" transform="translate(100,400)" width="3" x="40" y="138" /><circle cx="34" cy="117" fill="black" r="3" stroke="none" transform="translate(100,400)" /><line stroke="black" stroke-width="1" transform="translate(100,400)" x1="39" x2="61.101095856777775" y1="41" y2="54.60950000289514" /><circle cx="164" cy="134" fill="black" r="2" stroke="none" transform="translate(100,400)" /><rect fill="none" height="13" stroke="black" stroke-width="1" transform="translate(100,400)" width="8" x="98" y="103" /><line stroke="black" stroke-width="1" transform="translate(100,400)" x1="27" x2="53.714109968283566" y1="150" y2="158.92914952387395" /><rect fill="none" height="12" stroke="black" stroke-width="1" transform="translate(100,400)" width="7" x="80" y="13" /><circle cx="92" cy="135" fill="black" r="3" stroke="none" transform="translate(100,400)" /><line stroke="black" stroke-width="1" transform="translate(100,400)" x1="122" x2="123.08476020908152" y1="144" y2="150.66998255324404" /><line stroke="black" stroke-width="1" transform="translate(100,400)" x1="104" x2="105.65128881741379" y1="104" y2="106.41495579425334" /><circle cx="165" cy="112" fill="black" r="1" stroke="none" transform="translate(100,400)" /><rect fill="none" height="5" stroke="black" stroke-width="1" transform="translate(100,400)" width="5" x="177" y="63" /><circle cx="11" cy="33" fill="black" r="1" stroke="none" transform="translate(100,400)" /><circle cx="79" cy="117" fill="black" r="3" stroke="none" transform="translate(100,400)" /><line stroke="black" stroke-width="1" transform="translate(100,400)" x1="152" x2="164.55073981777778" y1="141" y2="148.34646358651236" /><rect fill="none" height="7" stroke="black" stroke-width="1" transform="translate(100,400)" width="11" x="152" y="156" /><rect fill="none" height="6" stroke="black" stroke-width="1" transform="translate(100,400)" width="4" x="36" y="76" /><rect fill="none" height="15" stroke="black" stroke-width="1" transform="translate(100,400)" width="12" x="52" y="40" /><circle cx="29" cy="99" fill="black" r="2" stroke="none" transform="translate(100,400)" /><line stroke="black" stroke-width="1" transform="translate(100,400)" x1="83" x2="106.38793321122583" y1="81" y2="96.45380062980121" /><rect fill="none" height="8" stroke="black" stroke-width="1" transform="translate(100,400)" width="3" x="44" y="168" /><circle cx="138" cy="58" fill="black" r="3" stroke="none" transform="translate(100,400)" /><text font-family="Arial" font-size="14" text-anchor="middle" x="175" y="380">Option 1</text><g transform="translate(100,400)"><polygon fill="none" points="148,89 185,89 166.5,52" stroke="black" stroke-width="2" transform="rotate(339,166.5,70.5)" /><rect fill="none" height="35" stroke="black" stroke-width="2" transform="rotate(12,80.5,120.5)" width="35" x="63" y="103" /></g><circle cx="155" cy="129" fill="black" r="2" stroke="none" transform="translate(350,400)" /><line stroke="black" stroke-width="1" transform="translate(350,400)" x1="42" x2="63.01547235469452" y1="96" y2="103.80492438326921" /><line stroke="black" stroke-width="1" transform="translate(350,400)" x1="74" x2="81.83623822754376" y1="97" y2="100.30415108954381" /><rect fill="none" height="3" stroke="black" stroke-width="1" transform="translate(350,400)" width="8" x="58" y="110" /><rect fill="none" height="6" stroke="black" stroke-width="1" transform="translate(350,400)" width="14" x="144" y="115" /><circle cx="109" cy="97" fill="black" r="1" stroke="none" transform="translate(350,400)" /><rect fill="none" height="15" stroke="black" stroke-width="1" transform="translate(350,400)" width="4" x="64" y="32" /><rect fill="none" height="3" stroke="black" stroke-width="1" transform="translate(350,400)" width="8" x="175" y="101" /><rect fill="none" height="3" stroke="black" stroke-width="1" transform="translate(350,400)" width="4" x="179" y="90" /><circle cx="137" cy="170" fill="black" r="1" stroke="none" transform="translate(350,400)" /><rect fill="none" height="12" stroke="black" stroke-width="1" transform="translate(350,400)" width="5" x="38" y="103" /><line stroke="black" stroke-width="1" transform="translate(350,400)" x1="70" x2="73.97051499922269" y1="46" y2="58.94984215110922" /><line stroke="black" stroke-width="1" transform="translate(350,400)" x1="111" x2="113.77058222014712" y1="44" y2="50.3454042428014" /><circle cx="148" cy="22" fill="black" r="3" stroke="none" transform="translate(350,400)" /><line stroke="black" stroke-width="1" transform="translate(350,400)" x1="23" x2="28.637237974226498" y1="19" y2="19.007176616869305" /><rect fill="none" height="11" stroke="black" stroke-width="1" transform="translate(350,400)" width="6" x="125" y="115" /><line stroke="black" stroke-width="1" transform="translate(350,400)" x1="105" x2="127.40779273990509" y1="93" y2="100.86926648914499" /><rect fill="none" height="7" stroke="black" stroke-width="1" transform="translate(350,400)" width="11" x="115" y="127" /><circle cx="115" cy="31" fill="black" r="1" stroke="none" transform="translate(350,400)" /><line stroke="black" stroke-width="1" transform="translate(350,400)" x1="76" x2="82.215847027466" y1="61" y2="61.866264321675914" /><line stroke="black" stroke-width="1" transform="translate(350,400)" x1="150" x2="153.11006755114877" y1="133" y2="145.85279274373704" /><circle cx="136" cy="35" fill="black" r="1" stroke="none" transform="translate(350,400)" /><rect fill="none" height="11" stroke="black" stroke-width="1" transform="translate(350,400)" width="11" x="116" y="127" /><line stroke="black" stroke-width="1" transform="translate(350,400)" x1="127" x2="129.3789768855598" y1="18" y2="25.956848893507825" /><rect fill="none" height="3" stroke="black" stroke-width="1" transform="translate(350,400)" width="5" x="158" y="72" /><rect fill="none" height="6" stroke="black" stroke-width="1" transform="translate(350,400)" width="12" x="167" y="147" /><rect fill="none" height="3" stroke="black" stroke-width="1" transform="translate(350,400)" width="12" x="101" y="41" /><rect fill="none" height="14" stroke="black" stroke-width="1" transform="translate(350,400)" width="10" x="105" y="111" /><circle cx="102" cy="97" fill="black" r="2" stroke="none" transform="translate(350,400)" /><circle cx="53" cy="78" fill="black" r="3" stroke="none" transform="translate(350,400)" /><rect fill="none" height="9" stroke="black" stroke-width="1" transform="translate(350,400)" width="7" x="165" y="69" /><line stroke="black" stroke-width="1" transform="translate(350,400)" x1="160" x2="171.44365158331237" y1="75" y2="85.64157380757919" /><rect fill="none" height="5" stroke="black" stroke-width="1" transform="translate(350,400)" width="10" x="152" y="150" /><line stroke="black" stroke-width="1" transform="translate(350,400)" x1="138" x2="141.2134505926344" y1="146" y2="146.09320273827035" /><rect fill="none" height="14" stroke="black" stroke-width="1" transform="translate(350,400)" width="6" x="67" y="59" /><line stroke="black" stroke-width="1" transform="translate(350,400)" x1="163" x2="165.04831147559398" y1="88" y2="91.68994961002205" /><circle cx="131" cy="67" fill="black" r="1" stroke="none" transform="translate(350,400)" /><circle cx="171" cy="112" fill="black" r="1" stroke="none" transform="translate(350,400)" /><line stroke="black" stroke-width="1" transform="translate(350,400)" x1="40" x2="55.802717159051674" y1="93" y2="95.03364073319011" /><rect fill="none" height="11" stroke="black" stroke-width="1" transform="translate(350,400)" width="8" x="118" y="156" /><text font-family="Arial" font-size="14" text-anchor="middle" x="425" y="380">Option 2</text><g transform="translate(350,400)"><polygon fill="none" points="148,89 185,89 166.5,52" stroke="black" stroke-width="2" transform="rotate(321.111532978971,166.5,70.5)" /><rect fill="none" height="35" stroke="black" stroke-width="2" transform="rotate(-5.888467021028966,80.5,120.5)" width="35" x="63" y="103" /></g><circle cx="129" cy="120" fill="black" r="2" stroke="none" transform="translate(100,650)" /><rect fill="none" height="5" stroke="black" stroke-width="1" transform="translate(100,650)" width="15" x="91" y="21" /><circle cx="112" cy="168" fill="black" r="1" stroke="none" transform="translate(100,650)" /><line stroke="black" stroke-width="1" transform="translate(100,650)" x1="72" x2="80.70974720417681" y1="107" y2="110.21425421006234" /><line stroke="black" stroke-width="1" transform="translate(100,650)" x1="129" x2="132.45318667478315" y1="119" y2="121.58307587979904" /><line stroke="black" stroke-width="1" transform="translate(100,650)" x1="163" x2="169.92110100850425" y1="57" y2="65.8383591724854" /><line stroke="black" stroke-width="1" transform="translate(100,650)" x1="37" x2="46.59441232024753" y1="45" y2="55.757800887535296" /><circle cx="91" cy="96" fill="black" r="3" stroke="none" transform="translate(100,650)" /><circle cx="40" cy="164" fill="black" r="2" stroke="none" transform="translate(100,650)" /><circle cx="72" cy="140" fill="black" r="3" stroke="none" transform="translate(100,650)" /><rect fill="none" height="14" stroke="black" stroke-width="1" transform="translate(100,650)" width="11" x="152" y="47" /><circle cx="139" cy="127" fill="black" r="1" stroke="none" transform="translate(100,650)" /><line stroke="black" stroke-width="1" transform="translate(100,650)" x1="14" x2="19.383990177271475" y1="13" y2="21.019583643694702" /><line stroke="black" stroke-width="1" transform="translate(100,650)" x1="56" x2="60.611939445828355" y1="171" y2="176.6531570917599" /><circle cx="113" cy="20" fill="black" r="2" stroke="none" transform="translate(100,650)" /><rect fill="none" height="12" stroke="black" stroke-width="1" transform="translate(100,650)" width="7" x="21" y="20" /><circle cx="133" cy="159" fill="black" r="3" stroke="none" transform="translate(100,650)" /><circle cx="139" cy="69" fill="black" r="3" stroke="none" transform="translate(100,650)" /><rect fill="none" height="9" stroke="black" stroke-width="1" transform="translate(100,650)" width="10" x="100" y="126" /><line stroke="black" stroke-width="1" transform="translate(100,650)" x1="175" x2="187.21888876740863" y1="31" y2="42.96080221627937" /><line stroke="black" stroke-width="1" transform="translate(100,650)" x1="140" x2="151.59311040801603" y1="84" y2="101.37246277201479" /><line stroke="black" stroke-width="1" transform="translate(100,650)" x1="41" x2="42.3882421142258" y1="121" y2="121.3649625508919" /><circle cx="20" cy="119" fill="black" r="3" stroke="none" transform="translate(100,650)" /><line stroke="black" stroke-width="1" transform="translate(100,650)" x1="173" x2="175.53350798147036" y1="95" y2="99.43682858113043" /><circle cx="72" cy="129" fill="black" r="3" stroke="none" transform="translate(100,650)" /><rect fill="none" height="15" stroke="black" stroke-width="1" transform="translate(100,650)" width="6" x="91" y="111" /><rect fill="none" height="4" stroke="black" stroke-width="1" transform="translate(100,650)" width="11" x="136" y="34" /><circle cx="134" cy="36" fill="black" r="3" stroke="none" transform="translate(100,650)" /><rect fill="none" height="15" stroke="black" stroke-width="1" transform="translate(100,650)" width="9" x="85" y="100" /><circle cx="116" cy="51" fill="black" r="2" stroke="none" transform="translate(100,650)" /><circle cx="42" cy="43" fill="black" r="3" stroke="none" transform="translate(100,650)" /><rect fill="none" height="3" stroke="black" stroke-width="1" transform="translate(100,650)" width="7" x="132" y="77" /><line stroke="black" stroke-width="1" transform="translate(100,650)" x1="33" x2="35.96916276472299" y1="22" y2="22.55859592961328" /><line stroke="black" stroke-width="1" transform="translate(100,650)" x1="100" x2="103.62761314274212" y1="48" y2="54.021106916857285" /><circle cx="163" cy="152" fill="black" r="2" stroke="none" transform="translate(100,650)" /><circle cx="14" cy="120" fill="black" r="3" stroke="none" transform="translate(100,650)" /><circle cx="76" cy="87" fill="black" r="2" stroke="none" transform="translate(100,650)" /><circle cx="113" cy="133" fill="black" r="2" stroke="none" transform="translate(100,650)" /><circle cx="103" cy="81" fill="black" r="1" stroke="none" transform="translate(100,650)" /><line stroke="black" stroke-width="1" transform="translate(100,650)" x1="170" x2="172.5433428542517" y1="14" y2="20.169846554975216" /><text font-family="Arial" font-size="14" text-anchor="middle" x="175" y="630">Option 3</text><g transform="translate(100,650)"><polygon fill="none" points="148,89 185,89 166.5,52" stroke="black" stroke-width="2" transform="rotate(321.6099039113378,166.5,70.5)" /><rect fill="none" height="35" stroke="black" stroke-width="2" transform="rotate(-5.390096088662155,80.5,120.5)" width="35" x="63" y="103" /></g><rect fill="none" height="9" stroke="black" stroke-width="1" transform="translate(350,650)" width="10" x="70" y="112" /><rect fill="none" height="12" stroke="black" stroke-width="1" transform="translate(350,650)" width="7" x="69" y="123" /><rect fill="none" height="15" stroke="black" stroke-width="1" transform="translate(350,650)" width="15" x="15" y="61" /><circle cx="153" cy="74" fill="black" r="2" stroke="none" transform="translate(350,650)" /><circle cx="124" cy="29" fill="black" r="1" stroke="none" transform="translate(350,650)" /><line stroke="black" stroke-width="1" transform="translate(350,650)" x1="167" x2="167.1548088387055" y1="157" y2="157.72925138068584" /><rect fill="none" height="13" stroke="black" stroke-width="1" transform="translate(350,650)" width="6" x="145" y="177" /><circle cx="12" cy="92" fill="black" r="1" stroke="none" transform="translate(350,650)" /><rect fill="none" height="14" stroke="black" stroke-width="1" transform="translate(350,650)" width="4" x="41" y="130" /><rect fill="none" height="3" stroke="black" stroke-width="1" transform="translate(350,650)" width="15" x="152" y="31" /><line stroke="black" stroke-width="1" transform="translate(350,650)" x1="167" x2="174.35834837000468" y1="120" y2="132.36786253492167" /><rect fill="none" height="7" stroke="black" stroke-width="1" transform="translate(350,650)" width="12" x="120" y="83" /><rect fill="none" height="8" stroke="black" stroke-width="1" transform="translate(350,650)" width="4" x="16" y="11" /><circle cx="46" cy="80" fill="black" r="3" stroke="none" transform="translate(350,650)" /><circle cx="152" cy="27" fill="black" r="1" stroke="none" transform="translate(350,650)" /><line stroke="black" stroke-width="1" transform="translate(350,650)" x1="132" x2="135.5271734719348" y1="20" y2="22.040911691511397" /><rect fill="none" height="6" stroke="black" stroke-width="1" transform="translate(350,650)" width="3" x="52" y="26" /><line stroke="black" stroke-width="1" transform="translate(350,650)" x1="161" x2="173.20714500390235" y1="61" y2="66.09359938783871" /><circle cx="92" cy="23" fill="black" r="2" stroke="none" transform="translate(350,650)" /><circle cx="168" cy="64" fill="black" r="2" stroke="none" transform="translate(350,650)" /><line stroke="black" stroke-width="1" transform="translate(350,650)" x1="19" x2="26.57655844262067" y1="122" y2="131.50723380581456" /><circle cx="176" cy="161" fill="black" r="2" stroke="none" transform="translate(350,650)" /><rect fill="none" height="6" stroke="black" stroke-width="1" transform="translate(350,650)" width="10" x="168" y="121" /><rect fill="none" height="7" stroke="black" stroke-width="1" transform="translate(350,650)" width="11" x="159" y="110" /><circle cx="25" cy="28" fill="black" r="1" stroke="none" transform="translate(350,650)" /><line stroke="black" stroke-width="1" transform="translate(350,650)" x1="103" x2="107.29225592829236" y1="145" y2="151.51358029260902" /><line stroke="black" stroke-width="1" transform="translate(350,650)" x1="137" x2="140.72533574723627" y1="130" y2="137.77362097799485" /><rect fill="none" height="15" stroke="black" stroke-width="1" transform="translate(350,650)" width="14" x="92" y="173" /><rect fill="none" height="10" stroke="black" stroke-width="1" transform="translate(350,650)" width="6" x="111" y="21" /><circle cx="82" cy="86" fill="black" r="3" stroke="none" transform="translate(350,650)" /><circle cx="109" cy="30" fill="black" r="1" stroke="none" transform="translate(350,650)" /><line stroke="black" stroke-width="1" transform="translate(350,650)" x1="32" x2="39.052450627474784" y1="139" y2="141.25659356612798" /><rect fill="none" height="8" stroke="black" stroke-width="1" transform="translate(350,650)" width="10" x="159" y="129" /><circle cx="135" cy="106" fill="black" r="2" stroke="none" transform="translate(350,650)" /><rect fill="none" height="13" stroke="black" stroke-width="1" transform="translate(350,650)" width="15" x="83" y="125" /><rect fill="none" height="13" stroke="black" stroke-width="1" transform="translate(350,650)" width="9" x="63" y="47" /><rect fill="none" height="5" stroke="black" stroke-width="1" transform="translate(350,650)" width="8" x="18" y="69" /><line stroke="black" stroke-width="1" transform="translate(350,650)" x1="42" x2="60.47451204172964" y1="48" y2="56.81151748878881" /><circle cx="45" cy="53" fill="black" r="2" stroke="none" transform="translate(350,650)" /><line stroke="black" stroke-width="1" transform="translate(350,650)" x1="165" x2="166.49246115292877" y1="77" y2="81.4197296935593" /><text font-family="Arial" font-size="14" text-anchor="middle" x="425" y="630">Option 4</text><g transform="translate(350,650)"><polygon fill="none" points="148,89 185,89 166.5,52" stroke="black" stroke-width="2" transform="rotate(322.8176479185732,166.5,70.5)" /><rect fill="none" height="35" stroke="black" stroke-width="2" transform="rotate(-4.182352081426789,83.5,145.5)" width="35" x="66" y="128" /></g></svg>