<?xml version="1.0" encoding="utf-8" ?>
<svg baseProfile="full" height="1000px" version="1.1" width="600px" xmlns="http://www.w3.org/2000/svg" xmlns:ev="http://www.w3.org/2001/xml-events" xmlns:xlink="http://www.w3.org/1999/xlink"><defs /><rect fill="white" height="100%" width="100%" x="0" y="0" /><text font-family="Arial" font-size="24" text-anchor="middle" x="300" y="40">Visual Figure Ground Test</text><text font-family="Arial" font-size="18" text-anchor="middle" x="300" y="80">Target Pattern</text><g transform="translate(200,100)"><line stroke="black" stroke-width="2" transform="rotate(140,99.5,127.5)" x1="78" x2="121" y1="106" y2="149" /><rect fill="none" height="42" stroke="black" stroke-width="2" transform="rotate(244,119.0,129.0)" width="42" x="98" y="108" /></g><text font-family="Arial" font-size="18" text-anchor="middle" x="300" y="350">Options</text><rect fill="none" height="13" stroke="black" stroke-width="1" transform="translate(100,400)" width="14" x="179" y="70" /><line stroke="black" stroke-width="1" transform="translate(100,400)" x1="67" x2="93.16416570385601" y1="180" y2="189.59674635463156" /><line stroke="black" stroke-width="1" transform="translate(100,400)" x1="80" x2="82.43433364538049" y1="43" y2="43.15230177003068" /><circle cx="73" cy="80" fill="black" r="3" stroke="none" transform="translate(100,400)" /><circle cx="87" cy="25" fill="black" r="3" stroke="none" transform="translate(100,400)" /><rect fill="none" height="9" stroke="black" stroke-width="1" transform="translate(100,400)" width="3" x="167" y="175" /><circle cx="96" cy="114" fill="black" r="3" stroke="none" transform="translate(100,400)" /><rect fill="none" height="4" stroke="black" stroke-width="1" transform="translate(100,400)" width="7" x="58" y="71" /><line stroke="black" stroke-width="1" transform="translate(100,400)" x1="67" x2="70.29536173411955" y1="155" y2="156.53339374105002" /><line stroke="black" stroke-width="1" transform="translate(100,400)" x1="48" x2="55.019370456398526" y1="172" y2="176.08091068984703" /><circle cx="159" cy="47" fill="black" r="1" stroke="none" transform="translate(100,400)" /><rect fill="none" height="11" stroke="black" stroke-width="1" transform="translate(100,400)" width="6" x="160" y="56" /><circle cx="63" cy="161" fill="black" r="2" stroke="none" transform="translate(100,400)" /><circle cx="13" cy="28" fill="black" r="3" stroke="none" transform="translate(100,400)" /><line stroke="black" stroke-width="1" transform="translate(100,400)" x1="96" x2="114.92404118303631" y1="122" y2="134.23136906213534" /><rect fill="none" height="7" stroke="black" stroke-width="1" transform="translate(100,400)" width="15" x="133" y="87" /><rect fill="none" height="6" stroke="black" stroke-width="1" transform="translate(100,400)" width="12" x="129" y="151" /><rect fill="none" height="15" stroke="black" stroke-width="1" transform="translate(100,400)" width="4" x="120" y="157" /><rect fill="none" height="8" stroke="black" stroke-width="1" transform="translate(100,400)" width="5" x="76" y="107" /><line stroke="black" stroke-width="1" transform="translate(100,400)" x1="78" x2="85.70363236432196" y1="54" y2="70.15835776798482" /><rect fill="none" height="15" stroke="black" stroke-width="1" transform="translate(100,400)" width="8" x="18" y="166" /><line stroke="black" stroke-width="1" transform="translate(100,400)" x1="152" x2="157.51734949147786" y1="71" y2="75.56760783919889" /><line stroke="black" stroke-width="1" transform="translate(100,400)" x1="139" x2="139.05686340242292" y1="59" y2="76.21287116328449" /><circle cx="163" cy="89" fill="black" r="3" stroke="none" transform="translate(100,400)" /><line stroke="black" stroke-width="1" transform="translate(100,400)" x1="64" x2="80.48477220494657" y1="73" y2="77.09145961733421" /><rect fill="none" height="10" stroke="black" stroke-width="1" transform="translate(100,400)" width="7" x="144" y="40" /><line stroke="black" stroke-width="1" transform="translate(100,400)" x1="26" x2="30.025732251136006" y1="134" y2="136.78175587167436" /><line stroke="black" stroke-width="1" transform="translate(100,400)" x1="11" x2="34.885967386318725" y1="75" y2="77.49255735879257" /><line stroke="black" stroke-width="1" transform="translate(100,400)" x1="57" x2="83.81855198528935" y1="99" y2="117.77093604612142" /><circle cx="38" cy="98" fill="black" r="3" stroke="none" transform="translate(100,400)" /><circle cx="128" cy="142" fill="black" r="3" stroke="none" transform="translate(100,400)" /><rect fill="none" height="15" stroke="black" stroke-width="1" transform="translate(100,400)" width="7" x="116" y="40" /><rect fill="none" height="10" stroke="black" stroke-width="1" transform="translate(100,400)" width="9" x="93" y="147" /><circle cx="97" cy="49" fill="black" r="2" stroke="none" transform="translate(100,400)" /><circle cx="22" cy="105" fill="black" r="2" stroke="none" transform="translate(100,400)" /><rect fill="none" height="13" stroke="black" stroke-width="1" transform="translate(100,400)" width="6" x="166" y="26" /><line stroke="black" stroke-width="1" transform="translate(100,400)" x1="56" x2="81.26613945831718" y1="89" y2="91.08027997408517" /><line stroke="black" stroke-width="1" transform="translate(100,400)" x1="156" x2="160.39950618701778" y1="35" y2="38.149432022064005" /><line stroke="black" stroke-width="1" transform="translate(100,400)" x1="47" x2="48.02019031972231" y1="49" y2="56.41359769773019" /><circle cx="44" cy="68" fill="black" r="1" stroke="none" transform="translate(100,400)" /><text font-family="Arial" font-size="14" text-anchor="middle" x="175" y="380">Option 1</text><g transform="translate(100,400)"><line stroke="black" stroke-width="2" transform="rotate(123.81562639789382,99.5,127.5)" x1="78" x2="121" y1="106" y2="149" /><rect fill="none" height="42" stroke="black" stroke-width="2" transform="rotate(227.81562639789382,119.0,129.0)" width="42" x="98" y="108" /></g><rect fill="none" height="11" stroke="black" stroke-width="1" transform="translate(350,400)" width="8" x="49" y="84" /><line stroke="black" stroke-width="1" transform="translate(350,400)" x1="31" x2="43.88102350430292" y1="81" y2="86.96908276465487" /><rect fill="none" height="6" stroke="black" stroke-width="1" transform="translate(350,400)" width="9" x="100" y="13" /><rect fill="none" height="6" stroke="black" stroke-width="1" transform="translate(350,400)" width="10" x="147" y="86" /><circle cx="110" cy="92" fill="black" r="2" stroke="none" transform="translate(350,400)" /><circle cx="113" cy="80" fill="black" r="1" stroke="none" transform="translate(350,400)" /><rect fill="none" height="3" stroke="black" stroke-width="1" transform="translate(350,400)" width="9" x="113" y="125" /><line stroke="black" stroke-width="1" transform="translate(350,400)" x1="38" x2="44.15886033182321" y1="163" y2="164.8726847764052" /><line stroke="black" stroke-width="1" transform="translate(350,400)" x1="113" x2="118.46548793082508" y1="112" y2="116.54590672640869" /><rect fill="none" height="3" stroke="black" stroke-width="1" transform="translate(350,400)" width="5" x="79" y="110" /><circle cx="81" cy="130" fill="black" r="2" stroke="none" transform="translate(350,400)" /><line stroke="black" stroke-width="1" transform="translate(350,400)" x1="80" x2="86.72184793127155" y1="50" y2="53.74889415728843" /><rect fill="none" height="9" stroke="black" stroke-width="1" transform="translate(350,400)" width="12" x="133" y="96" /><line stroke="black" stroke-width="1" transform="translate(350,400)" x1="71" x2="71.43958333123715" y1="55" y2="65.49351531321969" /><circle cx="71" cy="134" fill="black" r="3" stroke="none" transform="translate(350,400)" /><rect fill="none" height="6" stroke="black" stroke-width="1" transform="translate(350,400)" width="10" x="164" y="94" /><line stroke="black" stroke-width="1" transform="translate(350,400)" x1="156" x2="165.41406946290385" y1="39" y2="40.04637907225003" /><rect fill="none" height="5" stroke="black" stroke-width="1" transform="translate(350,400)" width="11" x="22" y="151" /><line stroke="black" stroke-width="1" transform="translate(350,400)" x1="76" x2="96.39995717075736" y1="57" y2="74.8397297927468" /><circle cx="58" cy="54" fill="black" r="1" stroke="none" transform="translate(350,400)" /><circle cx="157" cy="154" fill="black" r="2" stroke="none" transform="translate(350,400)" /><line stroke="black" stroke-width="1" transform="translate(350,400)" x1="105" x2="117.09358474123783" y1="126" y2="129.16026276731102" /><rect fill="none" height="8" stroke="black" stroke-width="1" transform="translate(350,400)" width="10" x="73" y="42" /><rect fill="none" height="15" stroke="black" stroke-width="1" transform="translate(350,400)" width="9" x="22" y="42" /><circle cx="136" cy="10" fill="black" r="2" stroke="none" transform="translate(350,400)" /><line stroke="black" stroke-width="1" transform="translate(350,400)" x1="58" x2="64.10429926833153" y1="58" y2="73.0396838907519" /><rect fill="none" height="7" stroke="black" stroke-width="1" transform="translate(350,400)" width="11" x="71" y="109" /><line stroke="black" stroke-width="1" transform="translate(350,400)" x1="26" x2="26.20463358201977" y1="151" y2="158.4982287698066" /><line stroke="black" stroke-width="1" transform="translate(350,400)" x1="126" x2="140.418538190428" y1="70" y2="80.15517544319691" /><rect fill="none" height="15" stroke="black" stroke-width="1" transform="translate(350,400)" width="13" x="91" y="133" /><rect fill="none" height="3" stroke="black" stroke-width="1" transform="translate(350,400)" width="4" x="105" y="10" /><rect fill="none" height="4" stroke="black" stroke-width="1" transform="translate(350,400)" width="12" x="172" y="108" /><rect fill="none" height="3" stroke="black" stroke-width="1" transform="translate(350,400)" width="10" x="95" y="51" /><circle cx="43" cy="32" fill="black" r="2" stroke="none" transform="translate(350,400)" /><circle cx="13" cy="109" fill="black" r="1" stroke="none" transform="translate(350,400)" /><rect fill="none" height="11" stroke="black" stroke-width="1" transform="translate(350,400)" width="7" x="100" y="144" /><rect fill="none" height="10" stroke="black" stroke-width="1" transform="translate(350,400)" width="8" x="50" y="77" /><line stroke="black" stroke-width="1" transform="translate(350,400)" x1="108" x2="111.64854474962645" y1="45" y2="51.53502534630009" /><line stroke="black" stroke-width="1" transform="translate(350,400)" x1="36" x2="36.7325380702144" y1="99" y2="99.35112038981441" /><rect fill="none" height="5" stroke="black" stroke-width="1" transform="translate(350,400)" width="15" x="169" y="55" /><text font-family="Arial" font-size="14" text-anchor="middle" x="425" y="380">Option 2</text><g transform="translate(350,400)"><line stroke="black" stroke-width="2" transform="rotate(120.74050497652611,99.5,127.5)" x1="78" x2="121" y1="106" y2="149" /><rect fill="none" height="42" stroke="black" stroke-width="2" transform="rotate(224.7405049765261,104.0,64.0)" width="42" x="83" y="43" /></g><line stroke="black" stroke-width="1" transform="translate(100,650)" x1="116" x2="118.20700566347534" y1="92" y2="94.29226528683027" /><rect fill="none" height="12" stroke="black" stroke-width="1" transform="translate(100,650)" width="3" x="25" y="125" /><rect fill="none" height="15" stroke="black" stroke-width="1" transform="translate(100,650)" width="6" x="76" y="47" /><line stroke="black" stroke-width="1" transform="translate(100,650)" x1="142" x2="155.14669556818305" y1="110" y2="130.4176919702785" /><line stroke="black" stroke-width="1" transform="translate(100,650)" x1="20" x2="24.36848705588563" y1="176" y2="182.91503480737836" /><circle cx="112" cy="84" fill="black" r="2" stroke="none" transform="translate(100,650)" /><circle cx="29" cy="170" fill="black" r="2" stroke="none" transform="translate(100,650)" /><circle cx="132" cy="129" fill="black" r="3" stroke="none" transform="translate(100,650)" /><line stroke="black" stroke-width="1" transform="translate(100,650)" x1="104" x2="124.32129713837145" y1="31" y2="47.22784566114239" /><circle cx="126" cy="171" fill="black" r="3" stroke="none" transform="translate(100,650)" /><line stroke="black" stroke-width="1" transform="translate(100,650)" x1="164" x2="167.39525975548736" y1="54" y2="65.95274120813292" /><circle cx="155" cy="126" fill="black" r="2" stroke="none" transform="translate(100,650)" /><rect fill="none" height="15" stroke="black" stroke-width="1" transform="translate(100,650)" width="10" x="67" y="95" /><line stroke="black" stroke-width="1" transform="translate(100,650)" x1="148" x2="158.6199933613654" y1="162" y2="165.2846514846235" /><line stroke="black" stroke-width="1" transform="translate(100,650)" x1="96" x2="124.07143090754587" y1="137" y2="144.98058892249463" /><circle cx="136" cy="159" fill="black" r="1" stroke="none" transform="translate(100,650)" /><rect fill="none" height="3" stroke="black" stroke-width="1" transform="translate(100,650)" width="7" x="110" y="44" /><line stroke="black" stroke-width="1" transform="translate(100,650)" x1="156" x2="163.09426795854213" y1="14" y2="19.689185572277978" /><line stroke="black" stroke-width="1" transform="translate(100,650)" x1="62" x2="77.13043992555211" y1="129" y2="149.19096598128232" /><circle cx="28" cy="105" fill="black" r="2" stroke="none" transform="translate(100,650)" /><rect fill="none" height="3" stroke="black" stroke-width="1" transform="translate(100,650)" width="9" x="180" y="173" /><circle cx="46" cy="162" fill="black" r="2" stroke="none" transform="translate(100,650)" /><rect fill="none" height="11" stroke="black" stroke-width="1" transform="translate(100,650)" width="6" x="26" y="172" /><rect fill="none" height="15" stroke="black" stroke-width="1" transform="translate(100,650)" width="10" x="81" y="102" /><line stroke="black" stroke-width="1" transform="translate(100,650)" x1="29" x2="38.941997705020015" y1="112" y2="118.73490584288362" /><line stroke="black" stroke-width="1" transform="translate(100,650)" x1="15" x2="21.445601594754162" y1="113" y2="115.97445174070437" /><circle cx="175" cy="64" fill="black" r="2" stroke="none" transform="translate(100,650)" /><rect fill="none" height="14" stroke="black" stroke-width="1" transform="translate(100,650)" width="6" x="164" y="39" /><rect fill="none" height="11" stroke="black" stroke-width="1" transform="translate(100,650)" width="4" x="142" y="149" /><rect fill="none" height="4" stroke="black" stroke-width="1" transform="translate(100,650)" width="15" x="133" y="78" /><rect fill="none" height="15" stroke="black" stroke-width="1" transform="translate(100,650)" width="7" x="12" y="43" /><circle cx="102" cy="89" fill="black" r="3" stroke="none" transform="translate(100,650)" /><rect fill="none" height="13" stroke="black" stroke-width="1" transform="translate(100,650)" width="8" x="56" y="30" /><circle cx="178" cy="103" fill="black" r="3" stroke="none" transform="translate(100,650)" /><circle cx="151" cy="46" fill="black" r="3" stroke="none" transform="translate(100,650)" /><rect fill="none" height="11" stroke="black" stroke-width="1" transform="translate(100,650)" width="15" x="139" y="167" /><rect fill="none" height="8" stroke="black" stroke-width="1" transform="translate(100,650)" width="13" x="21" y="31" /><rect fill="none" height="9" stroke="black" stroke-width="1" transform="translate(100,650)" width="6" x="86" y="43" /><rect fill="none" height="5" stroke="black" stroke-width="1" transform="translate(100,650)" width="12" x="94" y="87" /><circle cx="49" cy="164" fill="black" r="2" stroke="none" transform="translate(100,650)" /><text font-family="Arial" font-size="14" text-anchor="middle" x="175" y="630">Option 3</text><g transform="translate(100,650)"><line stroke="black" stroke-width="2" transform="rotate(140,99.5,127.5)" x1="78" x2="121" y1="106" y2="149" /><rect fill="none" height="42" stroke="black" stroke-width="2" transform="rotate(244,119.0,129.0)" width="42" x="98" y="108" /></g><circle cx="130" cy="14" fill="black" r="1" stroke="none" transform="translate(350,650)" /><line stroke="black" stroke-width="1" transform="translate(350,650)" x1="141" x2="142.73308039840617" y1="117" y2="137.441742250153" /><rect fill="none" height="4" stroke="black" stroke-width="1" transform="translate(350,650)" width="13" x="28" y="169" /><line stroke="black" stroke-width="1" transform="translate(350,650)" x1="142" x2="163.61503953168202" y1="106" y2="112.3809421546767" /><rect fill="none" height="14" stroke="black" stroke-width="1" transform="translate(350,650)" width="14" x="79" y="146" /><rect fill="none" height="8" stroke="black" stroke-width="1" transform="translate(350,650)" width="4" x="160" y="92" /><circle cx="59" cy="164" fill="black" r="1" stroke="none" transform="translate(350,650)" /><rect fill="none" height="11" stroke="black" stroke-width="1" transform="translate(350,650)" width="8" x="85" y="46" /><circle cx="46" cy="45" fill="black" r="1" stroke="none" transform="translate(350,650)" /><line stroke="black" stroke-width="1" transform="translate(350,650)" x1="143" x2="149.9088049280943" y1="84" y2="90.96507630204174" /><rect fill="none" height="3" stroke="black" stroke-width="1" transform="translate(350,650)" width="10" x="113" y="160" /><line stroke="black" stroke-width="1" transform="translate(350,650)" x1="101" x2="114.72452215414957" y1="128" y2="141.30249719968654" /><circle cx="149" cy="99" fill="black" r="3" stroke="none" transform="translate(350,650)" /><rect fill="none" height="15" stroke="black" stroke-width="1" transform="translate(350,650)" width="9" x="67" y="77" /><rect fill="none" height="3" stroke="black" stroke-width="1" transform="translate(350,650)" width="9" x="86" y="136" /><circle cx="147" cy="111" fill="black" r="3" stroke="none" transform="translate(350,650)" /><line stroke="black" stroke-width="1" transform="translate(350,650)" x1="24" x2="27.69426235492393" y1="162" y2="165.6664666158065" /><rect fill="none" height="12" stroke="black" stroke-width="1" transform="translate(350,650)" width="5" x="177" y="62" /><rect fill="none" height="9" stroke="black" stroke-width="1" transform="translate(350,650)" width="6" x="74" y="83" /><circle cx="31" cy="18" fill="black" r="2" stroke="none" transform="translate(350,650)" /><circle cx="160" cy="19" fill="black" r="1" stroke="none" transform="translate(350,650)" /><circle cx="75" cy="172" fill="black" r="2" stroke="none" transform="translate(350,650)" /><rect fill="none" height="13" stroke="black" stroke-width="1" transform="translate(350,650)" width="3" x="40" y="56" /><rect fill="none" height="8" stroke="black" stroke-width="1" transform="translate(350,650)" width="8" x="13" y="116" /><rect fill="none" height="12" stroke="black" stroke-width="1" transform="translate(350,650)" width="3" x="133" y="148" /><line stroke="black" stroke-width="1" transform="translate(350,650)" x1="121" x2="125.68060725803976" y1="105" y2="112.05582824488471" /><rect fill="none" height="9" stroke="black" stroke-width="1" transform="translate(350,650)" width="3" x="177" y="136" /><line stroke="black" stroke-width="1" transform="translate(350,650)" x1="107" x2="109.75918294399705" y1="67" y2="68.22443978114488" /><line stroke="black" stroke-width="1" transform="translate(350,650)" x1="21" x2="27.379459754896345" y1="154" y2="157.16829849772253" /><rect fill="none" height="12" stroke="black" stroke-width="1" transform="translate(350,650)" width="11" x="94" y="145" /><line stroke="black" stroke-width="1" transform="translate(350,650)" x1="90" x2="90.97803870052492" y1="129" y2="129.28357629397846" /><line stroke="black" stroke-width="1" transform="translate(350,650)" x1="18" x2="29.93304487579009" y1="96" y2="104.71308873377313" /><line stroke="black" stroke-width="1" transform="translate(350,650)" x1="81" x2="86.63066358441225" y1="39" y2="55.443257558306556" /><line stroke="black" stroke-width="1" transform="translate(350,650)" x1="122" x2="124.51818858711212" y1="167" y2="173.506662563699" /><circle cx="135" cy="105" fill="black" r="1" stroke="none" transform="translate(350,650)" /><line stroke="black" stroke-width="1" transform="translate(350,650)" x1="133" x2="142.26494991312413" y1="107" y2="120.65264964485701" /><circle cx="21" cy="143" fill="black" r="3" stroke="none" transform="translate(350,650)" /><circle cx="39" cy="44" fill="black" r="3" stroke="none" transform="translate(350,650)" /><line stroke="black" stroke-width="1" transform="translate(350,650)" x1="92" x2="92.77485619554957" y1="17" y2="18.580661046885993" /><line stroke="black" stroke-width="1" transform="translate(350,650)" x1="173" x2="182.0147900377807" y1="71" y2="77.64597626820321" /><text font-family="Arial" font-size="14" text-anchor="middle" x="425" y="630">Option 4</text><g transform="translate(350,650)"><line stroke="black" stroke-width="2" transform="rotate(124.03954032634684,99.5,127.5)" x1="78" x2="121" y1="106" y2="149" /><rect fill="none" height="42" stroke="black" stroke-width="2" transform="rotate(228.03954032634684,119.0,129.0)" width="42" x="98" y="108" /></g></svg>