<?xml version="1.0" encoding="utf-8" ?>
<svg baseProfile="full" height="1000px" version="1.1" width="600px" xmlns="http://www.w3.org/2000/svg" xmlns:ev="http://www.w3.org/2001/xml-events" xmlns:xlink="http://www.w3.org/1999/xlink"><defs /><rect fill="white" height="100%" width="100%" x="0" y="0" /><text font-family="Arial" font-size="24" text-anchor="middle" x="300" y="40">Visual Figure Ground Test</text><text font-family="Arial" font-size="18" text-anchor="middle" x="300" y="80">Target Pattern</text><g transform="translate(200,100)"><circle cx="31" cy="112" fill="none" r="23.0" stroke="black" stroke-width="2" /><polygon fill="none" points="123,119 162,119 142.5,80" stroke="black" stroke-width="2" transform="rotate(290,142.5,99.5)" /></g><text font-family="Arial" font-size="18" text-anchor="middle" x="300" y="350">Options</text><circle cx="84" cy="45" fill="black" r="3" stroke="none" transform="translate(100,400)" /><rect fill="none" height="3" stroke="black" stroke-width="1" transform="translate(100,400)" width="9" x="100" y="171" /><line stroke="black" stroke-width="1" transform="translate(100,400)" x1="11" x2="17.057054388716733" y1="159" y2="174.48152167030258" /><line stroke="black" stroke-width="1" transform="translate(100,400)" x1="69" x2="95.21802362895643" y1="15" y2="40.50641704022597" /><circle cx="70" cy="59" fill="black" r="2" stroke="none" transform="translate(100,400)" /><circle cx="65" cy="123" fill="black" r="3" stroke="none" transform="translate(100,400)" /><circle cx="31" cy="83" fill="black" r="3" stroke="none" transform="translate(100,400)" /><circle cx="115" cy="86" fill="black" r="1" stroke="none" transform="translate(100,400)" /><circle cx="47" cy="103" fill="black" r="2" stroke="none" transform="translate(100,400)" /><line stroke="black" stroke-width="1" transform="translate(100,400)" x1="36" x2="50.45499782393503" y1="134" y2="137.6081406947549" /><line stroke="black" stroke-width="1" transform="translate(100,400)" x1="166" x2="186.9260340926386" y1="55" y2="73.57342535575211" /><rect fill="none" height="9" stroke="black" stroke-width="1" transform="translate(100,400)" width="13" x="81" y="70" /><rect fill="none" height="7" stroke="black" stroke-width="1" transform="translate(100,400)" width="6" x="92" y="18" /><rect fill="none" height="12" stroke="black" stroke-width="1" transform="translate(100,400)" width="13" x="115" y="25" /><circle cx="56" cy="16" fill="black" r="1" stroke="none" transform="translate(100,400)" /><rect fill="none" height="9" stroke="black" stroke-width="1" transform="translate(100,400)" width="13" x="153" y="114" /><circle cx="61" cy="110" fill="black" r="2" stroke="none" transform="translate(100,400)" /><circle cx="121" cy="118" fill="black" r="3" stroke="none" transform="translate(100,400)" /><rect fill="none" height="11" stroke="black" stroke-width="1" transform="translate(100,400)" width="5" x="17" y="93" /><circle cx="104" cy="22" fill="black" r="3" stroke="none" transform="translate(100,400)" /><circle cx="174" cy="85" fill="black" r="1" stroke="none" transform="translate(100,400)" /><circle cx="24" cy="168" fill="black" r="3" stroke="none" transform="translate(100,400)" /><line stroke="black" stroke-width="1" transform="translate(100,400)" x1="54" x2="55.87320740735154" y1="100" y2="100.66359735273552" /><circle cx="165" cy="102" fill="black" r="1" stroke="none" transform="translate(100,400)" /><circle cx="23" cy="166" fill="black" r="2" stroke="none" transform="translate(100,400)" /><line stroke="black" stroke-width="1" transform="translate(100,400)" x1="35" x2="50.5746007310939" y1="23" y2="45.92461254991599" /><line stroke="black" stroke-width="1" transform="translate(100,400)" x1="78" x2="85.42611998028215" y1="132" y2="138.008581818111" /><circle cx="81" cy="108" fill="black" r="3" stroke="none" transform="translate(100,400)" /><circle cx="17" cy="48" fill="black" r="3" stroke="none" transform="translate(100,400)" /><rect fill="none" height="3" stroke="black" stroke-width="1" transform="translate(100,400)" width="12" x="40" y="137" /><rect fill="none" height="13" stroke="black" stroke-width="1" transform="translate(100,400)" width="8" x="108" y="129" /><circle cx="20" cy="40" fill="black" r="2" stroke="none" transform="translate(100,400)" /><line stroke="black" stroke-width="1" transform="translate(100,400)" x1="92" x2="95.168078767022" y1="104" y2="113.18901255359964" /><line stroke="black" stroke-width="1" transform="translate(100,400)" x1="54" x2="55.37525376915133" y1="24" y2="30.618470932567707" /><circle cx="180" cy="126" fill="black" r="2" stroke="none" transform="translate(100,400)" /><rect fill="none" height="6" stroke="black" stroke-width="1" transform="translate(100,400)" width="15" x="107" y="131" /><line stroke="black" stroke-width="1" transform="translate(100,400)" x1="15" x2="21.646469441922434" y1="98" y2="113.70404195987946" /><rect fill="none" height="8" stroke="black" stroke-width="1" transform="translate(100,400)" width="10" x="88" y="163" /><rect fill="none" height="14" stroke="black" stroke-width="1" transform="translate(100,400)" width="14" x="34" y="32" /><circle cx="98" cy="55" fill="black" r="2" stroke="none" transform="translate(100,400)" /><text font-family="Arial" font-size="14" text-anchor="middle" x="175" y="380">Option 1</text><g transform="translate(100,400)"><circle cx="31" cy="112" fill="none" r="23.0" stroke="black" stroke-width="2" /><polygon fill="none" points="123,119 162,119 142.5,80" stroke="black" stroke-width="2" transform="rotate(274.7176948217355,142.5,99.5)" /></g><circle cx="30" cy="47" fill="black" r="1" stroke="none" transform="translate(350,400)" /><line stroke="black" stroke-width="1" transform="translate(350,400)" x1="109" x2="123.35151779178767" y1="138" y2="144.99955865878422" /><rect fill="none" height="7" stroke="black" stroke-width="1" transform="translate(350,400)" width="6" x="155" y="159" /><rect fill="none" height="6" stroke="black" stroke-width="1" transform="translate(350,400)" width="10" x="87" y="69" /><circle cx="44" cy="56" fill="black" r="2" stroke="none" transform="translate(350,400)" /><circle cx="20" cy="79" fill="black" r="2" stroke="none" transform="translate(350,400)" /><circle cx="115" cy="140" fill="black" r="1" stroke="none" transform="translate(350,400)" /><rect fill="none" height="13" stroke="black" stroke-width="1" transform="translate(350,400)" width="15" x="12" y="53" /><circle cx="154" cy="117" fill="black" r="3" stroke="none" transform="translate(350,400)" /><circle cx="146" cy="35" fill="black" r="2" stroke="none" transform="translate(350,400)" /><circle cx="98" cy="62" fill="black" r="2" stroke="none" transform="translate(350,400)" /><rect fill="none" height="8" stroke="black" stroke-width="1" transform="translate(350,400)" width="14" x="147" y="75" /><circle cx="95" cy="124" fill="black" r="2" stroke="none" transform="translate(350,400)" /><line stroke="black" stroke-width="1" transform="translate(350,400)" x1="94" x2="119.50342099298764" y1="130" y2="135.73367197263624" /><rect fill="none" height="8" stroke="black" stroke-width="1" transform="translate(350,400)" width="9" x="144" y="144" /><rect fill="none" height="3" stroke="black" stroke-width="1" transform="translate(350,400)" width="9" x="117" y="121" /><line stroke="black" stroke-width="1" transform="translate(350,400)" x1="12" x2="20.266801948339694" y1="129" y2="135.42592070069878" /><circle cx="50" cy="112" fill="black" r="3" stroke="none" transform="translate(350,400)" /><circle cx="151" cy="137" fill="black" r="3" stroke="none" transform="translate(350,400)" /><circle cx="70" cy="125" fill="black" r="2" stroke="none" transform="translate(350,400)" /><line stroke="black" stroke-width="1" transform="translate(350,400)" x1="46" x2="72.37767830008865" y1="161" y2="181.96036383532496" /><line stroke="black" stroke-width="1" transform="translate(350,400)" x1="55" x2="70.74763585280746" y1="39" y2="43.781154487344295" /><circle cx="58" cy="58" fill="black" r="3" stroke="none" transform="translate(350,400)" /><circle cx="94" cy="32" fill="black" r="3" stroke="none" transform="translate(350,400)" /><line stroke="black" stroke-width="1" transform="translate(350,400)" x1="143" x2="145.211877258672" y1="171" y2="173.38527188232996" /><rect fill="none" height="12" stroke="black" stroke-width="1" transform="translate(350,400)" width="5" x="77" y="71" /><circle cx="46" cy="139" fill="black" r="3" stroke="none" transform="translate(350,400)" /><rect fill="none" height="8" stroke="black" stroke-width="1" transform="translate(350,400)" width="9" x="73" y="145" /><rect fill="none" height="4" stroke="black" stroke-width="1" transform="translate(350,400)" width="15" x="20" y="162" /><line stroke="black" stroke-width="1" transform="translate(350,400)" x1="99" x2="104.82362807556919" y1="66" y2="77.64261880535986" /><line stroke="black" stroke-width="1" transform="translate(350,400)" x1="29" x2="30.695225829475593" y1="107" y2="113.08294477495879" /><line stroke="black" stroke-width="1" transform="translate(350,400)" x1="101" x2="104.79308614476663" y1="173" y2="177.78974360548898" /><circle cx="107" cy="111" fill="black" r="3" stroke="none" transform="translate(350,400)" /><line stroke="black" stroke-width="1" transform="translate(350,400)" x1="63" x2="68.59662484580628" y1="77" y2="86.67591714510965" /><rect fill="none" height="15" stroke="black" stroke-width="1" transform="translate(350,400)" width="4" x="43" y="73" /><rect fill="none" height="5" stroke="black" stroke-width="1" transform="translate(350,400)" width="6" x="84" y="176" /><circle cx="169" cy="70" fill="black" r="3" stroke="none" transform="translate(350,400)" /><circle cx="29" cy="50" fill="black" r="3" stroke="none" transform="translate(350,400)" /><circle cx="119" cy="48" fill="black" r="2" stroke="none" transform="translate(350,400)" /><circle cx="136" cy="167" fill="black" r="1" stroke="none" transform="translate(350,400)" /><text font-family="Arial" font-size="14" text-anchor="middle" x="425" y="380">Option 2</text><g transform="translate(350,400)"><circle cx="31" cy="112" fill="none" r="23.0" stroke="black" stroke-width="2" /><polygon fill="none" points="123,119 162,119 142.5,80" stroke="black" stroke-width="2" transform="rotate(306.8996642208428,142.5,99.5)" /></g><line stroke="black" stroke-width="1" transform="translate(100,650)" x1="162" x2="173.8600551801009" y1="111" y2="128.403231082099" /><circle cx="52" cy="38" fill="black" r="2" stroke="none" transform="translate(100,650)" /><rect fill="none" height="3" stroke="black" stroke-width="1" transform="translate(100,650)" width="10" x="89" y="32" /><line stroke="black" stroke-width="1" transform="translate(100,650)" x1="88" x2="88.88320916087078" y1="162" y2="167.69354369509406" /><rect fill="none" height="9" stroke="black" stroke-width="1" transform="translate(100,650)" width="12" x="24" y="113" /><line stroke="black" stroke-width="1" transform="translate(100,650)" x1="42" x2="47.891798587153346" y1="127" y2="137.552235982206" /><line stroke="black" stroke-width="1" transform="translate(100,650)" x1="133" x2="138.5456252404771" y1="167" y2="168.223398145963" /><rect fill="none" height="15" stroke="black" stroke-width="1" transform="translate(100,650)" width="9" x="55" y="168" /><rect fill="none" height="14" stroke="black" stroke-width="1" transform="translate(100,650)" width="9" x="45" y="84" /><line stroke="black" stroke-width="1" transform="translate(100,650)" x1="94" x2="106.09570179926149" y1="135" y2="145.1355491161042" /><circle cx="21" cy="61" fill="black" r="3" stroke="none" transform="translate(100,650)" /><circle cx="112" cy="142" fill="black" r="1" stroke="none" transform="translate(100,650)" /><line stroke="black" stroke-width="1" transform="translate(100,650)" x1="104" x2="117.04132502825196" y1="140" y2="144.94751376190936" /><rect fill="none" height="9" stroke="black" stroke-width="1" transform="translate(100,650)" width="12" x="14" y="37" /><rect fill="none" height="9" stroke="black" stroke-width="1" transform="translate(100,650)" width="10" x="76" y="79" /><circle cx="135" cy="67" fill="black" r="1" stroke="none" transform="translate(100,650)" /><rect fill="none" height="15" stroke="black" stroke-width="1" transform="translate(100,650)" width="5" x="68" y="10" /><rect fill="none" height="13" stroke="black" stroke-width="1" transform="translate(100,650)" width="5" x="145" y="69" /><line stroke="black" stroke-width="1" transform="translate(100,650)" x1="73" x2="77.9052912800839" y1="48" y2="51.69059696173067" /><circle cx="139" cy="170" fill="black" r="2" stroke="none" transform="translate(100,650)" /><circle cx="113" cy="100" fill="black" r="1" stroke="none" transform="translate(100,650)" /><line stroke="black" stroke-width="1" transform="translate(100,650)" x1="17" x2="28.046807153561424" y1="12" y2="20.639820699526968" /><line stroke="black" stroke-width="1" transform="translate(100,650)" x1="95" x2="95.98723848933776" y1="53" y2="53.57422836059119" /><rect fill="none" height="13" stroke="black" stroke-width="1" transform="translate(100,650)" width="9" x="163" y="95" /><circle cx="38" cy="157" fill="black" r="1" stroke="none" transform="translate(100,650)" /><line stroke="black" stroke-width="1" transform="translate(100,650)" x1="111" x2="129.21024584405015" y1="170" y2="173.077143220688" /><circle cx="81" cy="69" fill="black" r="2" stroke="none" transform="translate(100,650)" /><circle cx="87" cy="155" fill="black" r="3" stroke="none" transform="translate(100,650)" /><line stroke="black" stroke-width="1" transform="translate(100,650)" x1="156" x2="164.1095884712107" y1="170" y2="175.351092284829" /><rect fill="none" height="13" stroke="black" stroke-width="1" transform="translate(100,650)" width="14" x="133" y="99" /><line stroke="black" stroke-width="1" transform="translate(100,650)" x1="144" x2="150.7044404421078" y1="93" y2="98.35185182844694" /><circle cx="153" cy="54" fill="black" r="3" stroke="none" transform="translate(100,650)" /><line stroke="black" stroke-width="1" transform="translate(100,650)" x1="138" x2="143.54792056366756" y1="74" y2="76.66559886906018" /><circle cx="171" cy="106" fill="black" r="2" stroke="none" transform="translate(100,650)" /><circle cx="176" cy="89" fill="black" r="2" stroke="none" transform="translate(100,650)" /><line stroke="black" stroke-width="1" transform="translate(100,650)" x1="91" x2="103.24666881047474" y1="20" y2="34.4541624252598" /><rect fill="none" height="11" stroke="black" stroke-width="1" transform="translate(100,650)" width="6" x="92" y="51" /><rect fill="none" height="4" stroke="black" stroke-width="1" transform="translate(100,650)" width="8" x="33" y="43" /><line stroke="black" stroke-width="1" transform="translate(100,650)" x1="177" x2="190.44103587457042" y1="14" y2="33.374950033951876" /><line stroke="black" stroke-width="1" transform="translate(100,650)" x1="120" x2="122.02075726073527" y1="170" y2="171.8111522703447" /><text font-family="Arial" font-size="14" text-anchor="middle" x="175" y="630">Option 3</text><g transform="translate(100,650)"><circle cx="31" cy="112" fill="none" r="23.0" stroke="black" stroke-width="2" /><polygon fill="none" points="123,119 162,119 142.5,80" stroke="black" stroke-width="2" transform="rotate(290,142.5,99.5)" /></g><line stroke="black" stroke-width="1" transform="translate(350,650)" x1="10" x2="14.421041182392106" y1="114" y2="114.64460283596938" /><circle cx="158" cy="125" fill="black" r="2" stroke="none" transform="translate(350,650)" /><rect fill="none" height="7" stroke="black" stroke-width="1" transform="translate(350,650)" width="9" x="105" y="106" /><circle cx="66" cy="76" fill="black" r="1" stroke="none" transform="translate(350,650)" /><circle cx="85" cy="112" fill="black" r="1" stroke="none" transform="translate(350,650)" /><line stroke="black" stroke-width="1" transform="translate(350,650)" x1="165" x2="171.73618897448176" y1="81" y2="90.16880762302301" /><rect fill="none" height="9" stroke="black" stroke-width="1" transform="translate(350,650)" width="7" x="57" y="135" /><circle cx="155" cy="42" fill="black" r="2" stroke="none" transform="translate(350,650)" /><circle cx="153" cy="178" fill="black" r="3" stroke="none" transform="translate(350,650)" /><line stroke="black" stroke-width="1" transform="translate(350,650)" x1="137" x2="152.01263790670316" y1="112" y2="116.61419869671094" /><circle cx="58" cy="172" fill="black" r="3" stroke="none" transform="translate(350,650)" /><line stroke="black" stroke-width="1" transform="translate(350,650)" x1="180" x2="187.9318483259922" y1="52" y2="59.06845589891056" /><line stroke="black" stroke-width="1" transform="translate(350,650)" x1="37" x2="39.91430914192835" y1="83" y2="88.10773441175287" /><circle cx="151" cy="55" fill="black" r="1" stroke="none" transform="translate(350,650)" /><rect fill="none" height="6" stroke="black" stroke-width="1" transform="translate(350,650)" width="9" x="105" y="93" /><rect fill="none" height="13" stroke="black" stroke-width="1" transform="translate(350,650)" width="9" x="54" y="127" /><circle cx="22" cy="83" fill="black" r="2" stroke="none" transform="translate(350,650)" /><line stroke="black" stroke-width="1" transform="translate(350,650)" x1="97" x2="105.52671147093106" y1="43" y2="58.04870916078281" /><line stroke="black" stroke-width="1" transform="translate(350,650)" x1="124" x2="125.9657740508762" y1="111" y2="114.12244714855987" /><circle cx="101" cy="55" fill="black" r="2" stroke="none" transform="translate(350,650)" /><line stroke="black" stroke-width="1" transform="translate(350,650)" x1="55" x2="78.16869808739727" y1="19" y2="22.474324076202496" /><circle cx="147" cy="74" fill="black" r="2" stroke="none" transform="translate(350,650)" /><rect fill="none" height="3" stroke="black" stroke-width="1" transform="translate(350,650)" width="12" x="168" y="162" /><circle cx="94" cy="43" fill="black" r="2" stroke="none" transform="translate(350,650)" /><rect fill="none" height="11" stroke="black" stroke-width="1" transform="translate(350,650)" width="15" x="178" y="39" /><line stroke="black" stroke-width="1" transform="translate(350,650)" x1="138" x2="139.7710056561608" y1="178" y2="181.96623991405232" /><line stroke="black" stroke-width="1" transform="translate(350,650)" x1="62" x2="64.3744845051575" y1="112" y2="114.0076583336226" /><circle cx="111" cy="122" fill="black" r="1" stroke="none" transform="translate(350,650)" /><rect fill="none" height="8" stroke="black" stroke-width="1" transform="translate(350,650)" width="15" x="99" y="79" /><line stroke="black" stroke-width="1" transform="translate(350,650)" x1="53" x2="57.17576848979311" y1="116" y2="120.8913149130947" /><line stroke="black" stroke-width="1" transform="translate(350,650)" x1="167" x2="172.24714914327308" y1="103" y2="103.53027431062588" /><line stroke="black" stroke-width="1" transform="translate(350,650)" x1="119" x2="146.4624886474528" y1="11" y2="36.75430584057398" /><line stroke="black" stroke-width="1" transform="translate(350,650)" x1="90" x2="93.23511494328471" y1="110" y2="114.40396044506466" /><circle cx="25" cy="118" fill="black" r="3" stroke="none" transform="translate(350,650)" /><rect fill="none" height="15" stroke="black" stroke-width="1" transform="translate(350,650)" width="8" x="163" y="97" /><line stroke="black" stroke-width="1" transform="translate(350,650)" x1="110" x2="120.64948084737637" y1="69" y2="76.04944978067053" /><rect fill="none" height="9" stroke="black" stroke-width="1" transform="translate(350,650)" width="11" x="130" y="150" /><circle cx="68" cy="110" fill="black" r="3" stroke="none" transform="translate(350,650)" /><rect fill="none" height="10" stroke="black" stroke-width="1" transform="translate(350,650)" width="15" x="166" y="85" /><rect fill="none" height="13" stroke="black" stroke-width="1" transform="translate(350,650)" width="15" x="21" y="37" /><text font-family="Arial" font-size="14" text-anchor="middle" x="425" y="630">Option 4</text><g transform="translate(350,650)"><circle cx="15" cy="48" fill="none" r="23.0" stroke="black" stroke-width="2" /><polygon fill="none" points="123,119 162,119 142.5,80" stroke="black" stroke-width="2" transform="rotate(270.79398451609063,142.5,99.5)" /></g></svg>