<?xml version="1.0" encoding="utf-8" ?>
<svg baseProfile="full" height="1000px" version="1.1" width="600px" xmlns="http://www.w3.org/2000/svg" xmlns:ev="http://www.w3.org/2001/xml-events" xmlns:xlink="http://www.w3.org/1999/xlink"><defs /><rect fill="white" height="100%" width="100%" x="0" y="0" /><text font-family="Arial" font-size="24" text-anchor="middle" x="300" y="40">Visual Figure Ground Test</text><text font-family="Arial" font-size="18" text-anchor="middle" x="300" y="80">Target Pattern</text><g transform="translate(200,100)"><polygon fill="none" points="17,165 65,165 41.0,117" stroke="black" stroke-width="2" transform="rotate(315,41.0,141.0)" /><circle cx="47" cy="67" fill="none" r="17.5" stroke="black" stroke-width="2" /><polygon fill="none" points="128,148 162,148 145.0,114" stroke="black" stroke-width="2" transform="rotate(278,145.0,131.0)" /><polygon fill="none" points="21,130 57,130 39.0,94" stroke="black" stroke-width="2" transform="rotate(10,39.0,112.0)" /><circle cx="142" cy="40" fill="none" r="22.0" stroke="black" stroke-width="2" /><polygon fill="none" points="27,86 72,86 49.5,41" stroke="black" stroke-width="2" transform="rotate(65,49.5,63.5)" /></g><text font-family="Arial" font-size="18" text-anchor="middle" x="300" y="350">Options</text><rect fill="none" height="9" stroke="black" stroke-width="1" transform="translate(100,400)" width="7" x="139" y="143" /><rect fill="none" height="8" stroke="black" stroke-width="1" transform="translate(100,400)" width="6" x="99" y="82" /><circle cx="117" cy="57" fill="black" r="2" stroke="none" transform="translate(100,400)" /><rect fill="none" height="10" stroke="black" stroke-width="1" transform="translate(100,400)" width="7" x="135" y="176" /><line stroke="black" stroke-width="1" transform="translate(100,400)" x1="102" x2="112.26090965692597" y1="107" y2="119.44543023667164" /><rect fill="none" height="12" stroke="black" stroke-width="1" transform="translate(100,400)" width="15" x="121" y="54" /><circle cx="58" cy="100" fill="black" r="3" stroke="none" transform="translate(100,400)" /><rect fill="none" height="9" stroke="black" stroke-width="1" transform="translate(100,400)" width="7" x="27" y="27" /><rect fill="none" height="13" stroke="black" stroke-width="1" transform="translate(100,400)" width="7" x="173" y="39" /><line stroke="black" stroke-width="1" transform="translate(100,400)" x1="143" x2="145.05842404594176" y1="31" y2="51.50554486511443" /><circle cx="126" cy="62" fill="black" r="1" stroke="none" transform="translate(100,400)" /><line stroke="black" stroke-width="1" transform="translate(100,400)" x1="158" x2="172.88905222455628" y1="76" y2="83.45698731567214" /><line stroke="black" stroke-width="1" transform="translate(100,400)" x1="110" x2="112.29849360808524" y1="54" y2="66.76019616837402" /><circle cx="12" cy="173" fill="black" r="2" stroke="none" transform="translate(100,400)" /><circle cx="178" cy="108" fill="black" r="1" stroke="none" transform="translate(100,400)" /><rect fill="none" height="10" stroke="black" stroke-width="1" transform="translate(100,400)" width="9" x="127" y="19" /><circle cx="101" cy="47" fill="black" r="2" stroke="none" transform="translate(100,400)" /><rect fill="none" height="4" stroke="black" stroke-width="1" transform="translate(100,400)" width="14" x="109" y="15" /><line stroke="black" stroke-width="1" transform="translate(100,400)" x1="171" x2="173.98049202666817" y1="14" y2="15.723933983041242" /><circle cx="52" cy="26" fill="black" r="1" stroke="none" transform="translate(100,400)" /><rect fill="none" height="15" stroke="black" stroke-width="1" transform="translate(100,400)" width="4" x="69" y="178" /><circle cx="140" cy="10" fill="black" r="2" stroke="none" transform="translate(100,400)" /><line stroke="black" stroke-width="1" transform="translate(100,400)" x1="172" x2="181.3454005420606" y1="149" y2="162.4868171409581" /><circle cx="10" cy="90" fill="black" r="2" stroke="none" transform="translate(100,400)" /><circle cx="167" cy="67" fill="black" r="1" stroke="none" transform="translate(100,400)" /><rect fill="none" height="10" stroke="black" stroke-width="1" transform="translate(100,400)" width="9" x="70" y="60" /><line stroke="black" stroke-width="1" transform="translate(100,400)" x1="109" x2="112.73040883042448" y1="154" y2="161.46374020298094" /><circle cx="52" cy="127" fill="black" r="1" stroke="none" transform="translate(100,400)" /><line stroke="black" stroke-width="1" transform="translate(100,400)" x1="43" x2="51.29258855700823" y1="158" y2="165.68079064940164" /><rect fill="none" height="5" stroke="black" stroke-width="1" transform="translate(100,400)" width="3" x="94" y="70" /><line stroke="black" stroke-width="1" transform="translate(100,400)" x1="11" x2="32.02263629984772" y1="129" y2="140.10874859763146" /><rect fill="none" height="11" stroke="black" stroke-width="1" transform="translate(100,400)" width="11" x="49" y="71" /><rect fill="none" height="9" stroke="black" stroke-width="1" transform="translate(100,400)" width="6" x="104" y="111" /><circle cx="125" cy="70" fill="black" r="3" stroke="none" transform="translate(100,400)" /><circle cx="165" cy="172" fill="black" r="1" stroke="none" transform="translate(100,400)" /><line stroke="black" stroke-width="1" transform="translate(100,400)" x1="120" x2="139.52550104011624" y1="42" y2="47.012322707692974" /><circle cx="130" cy="67" fill="black" r="3" stroke="none" transform="translate(100,400)" /><line stroke="black" stroke-width="1" transform="translate(100,400)" x1="86" x2="90.35856506849368" y1="112" y2="129.08000223656725" /><line stroke="black" stroke-width="1" transform="translate(100,400)" x1="12" x2="24.331477621480396" y1="34" y2="39.38440205059238" /><rect fill="none" height="11" stroke="black" stroke-width="1" transform="translate(100,400)" width="10" x="57" y="112" /><text font-family="Arial" font-size="14" text-anchor="middle" x="175" y="380">Option 1</text><g transform="translate(100,400)"><polygon fill="none" points="17,165 65,165 41.0,117" stroke="black" stroke-width="2" transform="rotate(315,41.0,141.0)" /><circle cx="47" cy="67" fill="none" r="17.5" stroke="black" stroke-width="2" /><polygon fill="none" points="128,148 162,148 145.0,114" stroke="black" stroke-width="2" transform="rotate(278,145.0,131.0)" /><polygon fill="none" points="21,130 57,130 39.0,94" stroke="black" stroke-width="2" transform="rotate(10,39.0,112.0)" /><circle cx="142" cy="40" fill="none" r="22.0" stroke="black" stroke-width="2" /><polygon fill="none" points="27,86 72,86 49.5,41" stroke="black" stroke-width="2" transform="rotate(65,49.5,63.5)" /></g><rect fill="none" height="11" stroke="black" stroke-width="1" transform="translate(350,400)" width="11" x="131" y="52" /><line stroke="black" stroke-width="1" transform="translate(350,400)" x1="54" x2="58.14593555802804" y1="138" y2="139.5096873338082" /><rect fill="none" height="13" stroke="black" stroke-width="1" transform="translate(350,400)" width="8" x="161" y="89" /><rect fill="none" height="3" stroke="black" stroke-width="1" transform="translate(350,400)" width="13" x="16" y="161" /><rect fill="none" height="14" stroke="black" stroke-width="1" transform="translate(350,400)" width="3" x="36" y="67" /><circle cx="57" cy="56" fill="black" r="2" stroke="none" transform="translate(350,400)" /><line stroke="black" stroke-width="1" transform="translate(350,400)" x1="172" x2="177.15724875273924" y1="166" y2="172.17643032839317" /><line stroke="black" stroke-width="1" transform="translate(350,400)" x1="41" x2="42.926964739130995" y1="12" y2="19.4594475008465" /><rect fill="none" height="10" stroke="black" stroke-width="1" transform="translate(350,400)" width="10" x="139" y="30" /><line stroke="black" stroke-width="1" transform="translate(350,400)" x1="122" x2="126.61683168773087" y1="124" y2="127.51392332536258" /><circle cx="113" cy="125" fill="black" r="3" stroke="none" transform="translate(350,400)" /><circle cx="170" cy="178" fill="black" r="3" stroke="none" transform="translate(350,400)" /><circle cx="117" cy="145" fill="black" r="1" stroke="none" transform="translate(350,400)" /><circle cx="95" cy="36" fill="black" r="3" stroke="none" transform="translate(350,400)" /><line stroke="black" stroke-width="1" transform="translate(350,400)" x1="65" x2="91.63900884883641" y1="53" y2="78.94106384455364" /><circle cx="71" cy="123" fill="black" r="1" stroke="none" transform="translate(350,400)" /><circle cx="76" cy="157" fill="black" r="2" stroke="none" transform="translate(350,400)" /><line stroke="black" stroke-width="1" transform="translate(350,400)" x1="160" x2="168.71044007389878" y1="104" y2="106.52791781098382" /><line stroke="black" stroke-width="1" transform="translate(350,400)" x1="164" x2="165.23918616301438" y1="54" y2="55.961496116131016" /><line stroke="black" stroke-width="1" transform="translate(350,400)" x1="143" x2="159.92089370146076" y1="100" y2="118.99040235799839" /><line stroke="black" stroke-width="1" transform="translate(350,400)" x1="143" x2="143.08346406780583" y1="179" y2="182.91437221686584" /><rect fill="none" height="5" stroke="black" stroke-width="1" transform="translate(350,400)" width="14" x="150" y="157" /><rect fill="none" height="9" stroke="black" stroke-width="1" transform="translate(350,400)" width="6" x="32" y="165" /><circle cx="121" cy="169" fill="black" r="2" stroke="none" transform="translate(350,400)" /><circle cx="125" cy="162" fill="black" r="1" stroke="none" transform="translate(350,400)" /><line stroke="black" stroke-width="1" transform="translate(350,400)" x1="99" x2="112.27347988684376" y1="91" y2="102.40347041778551" /><circle cx="26" cy="77" fill="black" r="2" stroke="none" transform="translate(350,400)" /><line stroke="black" stroke-width="1" transform="translate(350,400)" x1="147" x2="160.75702585098168" y1="55" y2="62.01151103623564" /><rect fill="none" height="14" stroke="black" stroke-width="1" transform="translate(350,400)" width="13" x="143" y="55" /><line stroke="black" stroke-width="1" transform="translate(350,400)" x1="101" x2="120.16158483482776" y1="12" y2="24.503412556075293" /><line stroke="black" stroke-width="1" transform="translate(350,400)" x1="80" x2="89.42091398836078" y1="136" y2="139.1384508691975" /><line stroke="black" stroke-width="1" transform="translate(350,400)" x1="168" x2="176.4420582290688" y1="176" y2="190.38808922303838" /><rect fill="none" height="11" stroke="black" stroke-width="1" transform="translate(350,400)" width="5" x="157" y="50" /><line stroke="black" stroke-width="1" transform="translate(350,400)" x1="53" x2="61.46655746596164" y1="79" y2="87.83751128787921" /><line stroke="black" stroke-width="1" transform="translate(350,400)" x1="64" x2="67.47035160340111" y1="19" y2="21.68499965457162" /><rect fill="none" height="14" stroke="black" stroke-width="1" transform="translate(350,400)" width="3" x="89" y="77" /><circle cx="179" cy="116" fill="black" r="1" stroke="none" transform="translate(350,400)" /><rect fill="none" height="15" stroke="black" stroke-width="1" transform="translate(350,400)" width="5" x="35" y="171" /><rect fill="none" height="4" stroke="black" stroke-width="1" transform="translate(350,400)" width="15" x="29" y="60" /><line stroke="black" stroke-width="1" transform="translate(350,400)" x1="10" x2="24.34624904468676" y1="36" y2="48.97586131533636" /><text font-family="Arial" font-size="14" text-anchor="middle" x="425" y="380">Option 2</text><g transform="translate(350,400)"><polygon fill="none" points="17,165 65,165 41.0,117" stroke="black" stroke-width="2" transform="rotate(333.81021829482535,41.0,141.0)" /><circle cx="47" cy="67" fill="none" r="17.5" stroke="black" stroke-width="2" /><polygon fill="none" points="128,148 162,148 145.0,114" stroke="black" stroke-width="2" transform="rotate(296.81021829482535,145.0,131.0)" /><polygon fill="none" points="21,130 57,130 39.0,94" stroke="black" stroke-width="2" transform="rotate(28.81021829482534,39.0,112.0)" /><circle cx="142" cy="40" fill="none" r="22.0" stroke="black" stroke-width="2" /><polygon fill="none" points="27,86 72,86 49.5,41" stroke="black" stroke-width="2" transform="rotate(83.81021829482535,49.5,63.5)" /></g><rect fill="none" height="6" stroke="black" stroke-width="1" transform="translate(100,650)" width="8" x="176" y="77" /><line stroke="black" stroke-width="1" transform="translate(100,650)" x1="103" x2="103.01525719570009" y1="62" y2="67.8024590471261" /><line stroke="black" stroke-width="1" transform="translate(100,650)" x1="36" x2="42.50214739754611" y1="25" y2="27.161070992897496" /><circle cx="128" cy="55" fill="black" r="3" stroke="none" transform="translate(100,650)" /><circle cx="79" cy="114" fill="black" r="1" stroke="none" transform="translate(100,650)" /><circle cx="167" cy="103" fill="black" r="3" stroke="none" transform="translate(100,650)" /><line stroke="black" stroke-width="1" transform="translate(100,650)" x1="80" x2="80.46425856257049" y1="172" y2="177.7146557111328" /><circle cx="41" cy="133" fill="black" r="1" stroke="none" transform="translate(100,650)" /><circle cx="126" cy="104" fill="black" r="2" stroke="none" transform="translate(100,650)" /><line stroke="black" stroke-width="1" transform="translate(100,650)" x1="152" x2="160.21922947379733" y1="91" y2="101.30182661626696" /><rect fill="none" height="5" stroke="black" stroke-width="1" transform="translate(100,650)" width="13" x="44" y="140" /><line stroke="black" stroke-width="1" transform="translate(100,650)" x1="80" x2="81.85753106527496" y1="170" y2="176.93861971544857" /><rect fill="none" height="11" stroke="black" stroke-width="1" transform="translate(100,650)" width="12" x="155" y="78" /><rect fill="none" height="13" stroke="black" stroke-width="1" transform="translate(100,650)" width="9" x="12" y="97" /><line stroke="black" stroke-width="1" transform="translate(100,650)" x1="159" x2="165.8267668998941" y1="96" y2="101.83143389598871" /><line stroke="black" stroke-width="1" transform="translate(100,650)" x1="122" x2="135.2850416211441" y1="81" y2="101.14439308957527" /><line stroke="black" stroke-width="1" transform="translate(100,650)" x1="44" x2="60.76307584845928" y1="34" y2="43.09462419938865" /><circle cx="175" cy="127" fill="black" r="1" stroke="none" transform="translate(100,650)" /><line stroke="black" stroke-width="1" transform="translate(100,650)" x1="18" x2="40.485483592085075" y1="138" y2="138.67563745305765" /><circle cx="35" cy="31" fill="black" r="1" stroke="none" transform="translate(100,650)" /><circle cx="139" cy="128" fill="black" r="3" stroke="none" transform="translate(100,650)" /><rect fill="none" height="11" stroke="black" stroke-width="1" transform="translate(100,650)" width="11" x="136" y="64" /><line stroke="black" stroke-width="1" transform="translate(100,650)" x1="168" x2="170.30961552670192" y1="16" y2="21.415707074940002" /><rect fill="none" height="9" stroke="black" stroke-width="1" transform="translate(100,650)" width="10" x="171" y="152" /><circle cx="124" cy="75" fill="black" r="3" stroke="none" transform="translate(100,650)" /><rect fill="none" height="3" stroke="black" stroke-width="1" transform="translate(100,650)" width="9" x="70" y="131" /><line stroke="black" stroke-width="1" transform="translate(100,650)" x1="43" x2="60.06148892163218" y1="146" y2="165.18589167675123" /><rect fill="none" height="13" stroke="black" stroke-width="1" transform="translate(100,650)" width="9" x="138" y="88" /><circle cx="98" cy="151" fill="black" r="2" stroke="none" transform="translate(100,650)" /><rect fill="none" height="11" stroke="black" stroke-width="1" transform="translate(100,650)" width="8" x="99" y="53" /><rect fill="none" height="15" stroke="black" stroke-width="1" transform="translate(100,650)" width="5" x="92" y="113" /><rect fill="none" height="3" stroke="black" stroke-width="1" transform="translate(100,650)" width="3" x="59" y="87" /><line stroke="black" stroke-width="1" transform="translate(100,650)" x1="51" x2="54.47669964933912" y1="24" y2="25.26357730557804" /><line stroke="black" stroke-width="1" transform="translate(100,650)" x1="16" x2="21.889870686646017" y1="23" y2="34.13193067630908" /><rect fill="none" height="5" stroke="black" stroke-width="1" transform="translate(100,650)" width="11" x="156" y="162" /><circle cx="122" cy="139" fill="black" r="3" stroke="none" transform="translate(100,650)" /><line stroke="black" stroke-width="1" transform="translate(100,650)" x1="142" x2="149.14620406190772" y1="13" y2="17.135738579211736" /><line stroke="black" stroke-width="1" transform="translate(100,650)" x1="122" x2="122.17133698008828" y1="120" y2="121.90822072115621" /><rect fill="none" height="6" stroke="black" stroke-width="1" transform="translate(100,650)" width="8" x="20" y="107" /><circle cx="38" cy="41" fill="black" r="1" stroke="none" transform="translate(100,650)" /><text font-family="Arial" font-size="14" text-anchor="middle" x="175" y="630">Option 3</text><g transform="translate(100,650)"><polygon fill="none" points="17,165 65,165 41.0,117" stroke="black" stroke-width="2" transform="rotate(331.2305612199325,41.0,141.0)" /><circle cx="47" cy="67" fill="none" r="17.5" stroke="black" stroke-width="2" /><polygon fill="none" points="128,148 162,148 145.0,114" stroke="black" stroke-width="2" transform="rotate(294.2305612199325,145.0,131.0)" /><polygon fill="none" points="21,130 57,130 39.0,94" stroke="black" stroke-width="2" transform="rotate(26.230561219932515,39.0,112.0)" /><circle cx="142" cy="40" fill="none" r="22.0" stroke="black" stroke-width="2" /><polygon fill="none" points="27,86 72,86 49.5,41" stroke="black" stroke-width="2" transform="rotate(81.23056121993251,49.5,63.5)" /></g><circle cx="84" cy="65" fill="black" r="3" stroke="none" transform="translate(350,650)" /><circle cx="39" cy="57" fill="black" r="1" stroke="none" transform="translate(350,650)" /><rect fill="none" height="8" stroke="black" stroke-width="1" transform="translate(350,650)" width="14" x="16" y="33" /><rect fill="none" height="12" stroke="black" stroke-width="1" transform="translate(350,650)" width="14" x="67" y="178" /><circle cx="68" cy="22" fill="black" r="1" stroke="none" transform="translate(350,650)" /><circle cx="38" cy="106" fill="black" r="2" stroke="none" transform="translate(350,650)" /><rect fill="none" height="15" stroke="black" stroke-width="1" transform="translate(350,650)" width="12" x="44" y="89" /><line stroke="black" stroke-width="1" transform="translate(350,650)" x1="16" x2="23.737894019996368" y1="83" y2="98.45194869628412" /><rect fill="none" height="4" stroke="black" stroke-width="1" transform="translate(350,650)" width="3" x="125" y="86" /><line stroke="black" stroke-width="1" transform="translate(350,650)" x1="26" x2="28.45053782858156" y1="126" y2="128.66720213014244" /><line stroke="black" stroke-width="1" transform="translate(350,650)" x1="31" x2="47.1630174713346" y1="19" y2="24.729278964812067" /><line stroke="black" stroke-width="1" transform="translate(350,650)" x1="82" x2="86.16099590044374" y1="118" y2="124.11495227658376" /><rect fill="none" height="8" stroke="black" stroke-width="1" transform="translate(350,650)" width="6" x="170" y="31" /><circle cx="67" cy="168" fill="black" r="2" stroke="none" transform="translate(350,650)" /><rect fill="none" height="13" stroke="black" stroke-width="1" transform="translate(350,650)" width="8" x="29" y="41" /><line stroke="black" stroke-width="1" transform="translate(350,650)" x1="96" x2="99.84159923572356" y1="150" y2="152.2191189574108" /><circle cx="178" cy="162" fill="black" r="2" stroke="none" transform="translate(350,650)" /><line stroke="black" stroke-width="1" transform="translate(350,650)" x1="126" x2="135.4859031366016" y1="75" y2="85.97661839148984" /><rect fill="none" height="11" stroke="black" stroke-width="1" transform="translate(350,650)" width="14" x="23" y="61" /><line stroke="black" stroke-width="1" transform="translate(350,650)" x1="55" x2="83.10430267416811" y1="96" y2="108.07160903020005" /><circle cx="149" cy="141" fill="black" r="2" stroke="none" transform="translate(350,650)" /><rect fill="none" height="13" stroke="black" stroke-width="1" transform="translate(350,650)" width="8" x="101" y="86" /><line stroke="black" stroke-width="1" transform="translate(350,650)" x1="52" x2="56.61372978322105" y1="90" y2="97.95646164790446" /><line stroke="black" stroke-width="1" transform="translate(350,650)" x1="55" x2="60.685991931708635" y1="85" y2="89.20051030856615" /><line stroke="black" stroke-width="1" transform="translate(350,650)" x1="157" x2="164.4711954437407" y1="71" y2="81.31287915023744" /><circle cx="44" cy="146" fill="black" r="2" stroke="none" transform="translate(350,650)" /><line stroke="black" stroke-width="1" transform="translate(350,650)" x1="143" x2="150.68393572039105" y1="65" y2="69.0638095529125" /><line stroke="black" stroke-width="1" transform="translate(350,650)" x1="114" x2="122.09047682236076" y1="133" y2="136.0837694313136" /><line stroke="black" stroke-width="1" transform="translate(350,650)" x1="78" x2="86.89470653809097" y1="126" y2="134.60623204971648" /><line stroke="black" stroke-width="1" transform="translate(350,650)" x1="166" x2="184.9270075126691" y1="145" y2="148.55484553650598" /><line stroke="black" stroke-width="1" transform="translate(350,650)" x1="27" x2="29.02799194809807" y1="177" y2="187.93521397703296" /><line stroke="black" stroke-width="1" transform="translate(350,650)" x1="165" x2="167.49175159690142" y1="104" y2="106.89089864078476" /><rect fill="none" height="6" stroke="black" stroke-width="1" transform="translate(350,650)" width="5" x="38" y="103" /><line stroke="black" stroke-width="1" transform="translate(350,650)" x1="137" x2="152.53423290740972" y1="138" y2="155.01519443129055" /><circle cx="154" cy="56" fill="black" r="1" stroke="none" transform="translate(350,650)" /><circle cx="30" cy="15" fill="black" r="3" stroke="none" transform="translate(350,650)" /><circle cx="133" cy="93" fill="black" r="2" stroke="none" transform="translate(350,650)" /><circle cx="106" cy="24" fill="black" r="2" stroke="none" transform="translate(350,650)" /><rect fill="none" height="15" stroke="black" stroke-width="1" transform="translate(350,650)" width="10" x="14" y="100" /><rect fill="none" height="13" stroke="black" stroke-width="1" transform="translate(350,650)" width="9" x="96" y="127" /><text font-family="Arial" font-size="14" text-anchor="middle" x="425" y="630">Option 4</text><g transform="translate(350,650)"><polygon fill="none" points="17,165 65,165 41.0,117" stroke="black" stroke-width="2" transform="rotate(295.11075968163715,41.0,141.0)" /><circle cx="47" cy="67" fill="none" r="17.5" stroke="black" stroke-width="2" /><polygon fill="none" points="29,161 63,161 46.0,127" stroke="black" stroke-width="2" transform="rotate(258.11075968163715,46.0,144.0)" /><polygon fill="none" points="21,130 57,130 39.0,94" stroke="black" stroke-width="2" transform="rotate(-9.889240318362841,39.0,112.0)" /><circle cx="102" cy="52" fill="none" r="22.0" stroke="black" stroke-width="2" /><polygon fill="none" points="27,86 72,86 49.5,41" stroke="black" stroke-width="2" transform="rotate(45.11075968163716,49.5,63.5)" /></g></svg>