<?xml version="1.0" encoding="utf-8" ?>
<svg baseProfile="full" height="1000px" version="1.1" width="600px" xmlns="http://www.w3.org/2000/svg" xmlns:ev="http://www.w3.org/2001/xml-events" xmlns:xlink="http://www.w3.org/1999/xlink"><defs /><rect fill="white" height="100%" width="100%" x="0" y="0" /><text font-family="Arial" font-size="24" text-anchor="middle" x="300" y="40">Visual Figure Ground Test</text><text font-family="Arial" font-size="18" text-anchor="middle" x="300" y="80">Target Pattern</text><g transform="translate(200,100)"><polygon fill="none" points="46,132 80,132 63.0,98" stroke="black" stroke-width="2" transform="rotate(105,63.0,115.0)" /><circle cx="101" cy="98" fill="none" r="19.0" stroke="black" stroke-width="2" /><line stroke="black" stroke-width="2" transform="rotate(29,54.5,123.5)" x1="34" x2="75" y1="103" y2="144" /><line stroke="black" stroke-width="2" transform="rotate(74,96.5,119.5)" x1="80" x2="113" y1="103" y2="136" /><rect fill="none" height="32" stroke="black" stroke-width="2" transform="rotate(37,95.0,65.0)" width="32" x="79" y="49" /><line stroke="black" stroke-width="2" transform="rotate(148,34.0,124.0)" x1="17" x2="51" y1="107" y2="141" /></g><text font-family="Arial" font-size="18" text-anchor="middle" x="300" y="350">Options</text><line stroke="black" stroke-width="1" transform="translate(100,400)" x1="171" x2="180.7060952366994" y1="128" y2="144.0409266826147" /><circle cx="104" cy="59" fill="black" r="1" stroke="none" transform="translate(100,400)" /><circle cx="19" cy="16" fill="black" r="1" stroke="none" transform="translate(100,400)" /><line stroke="black" stroke-width="1" transform="translate(100,400)" x1="86" x2="101.24596603419204" y1="31" y2="42.02686494194861" /><rect fill="none" height="15" stroke="black" stroke-width="1" transform="translate(100,400)" width="14" x="84" y="176" /><circle cx="174" cy="106" fill="black" r="1" stroke="none" transform="translate(100,400)" /><rect fill="none" height="3" stroke="black" stroke-width="1" transform="translate(100,400)" width="5" x="126" y="31" /><line stroke="black" stroke-width="1" transform="translate(100,400)" x1="180" x2="184.86142971916917" y1="93" y2="95.75050172434612" /><rect fill="none" height="10" stroke="black" stroke-width="1" transform="translate(100,400)" width="3" x="28" y="119" /><line stroke="black" stroke-width="1" transform="translate(100,400)" x1="99" x2="101.64228727591295" y1="109" y2="110.81233224017735" /><rect fill="none" height="10" stroke="black" stroke-width="1" transform="translate(100,400)" width="11" x="161" y="16" /><line stroke="black" stroke-width="1" transform="translate(100,400)" x1="120" x2="129.3822387015756" y1="149" y2="154.21267711272384" /><line stroke="black" stroke-width="1" transform="translate(100,400)" x1="77" x2="94.55633592089198" y1="174" y2="183.7985888823013" /><rect fill="none" height="8" stroke="black" stroke-width="1" transform="translate(100,400)" width="8" x="162" y="129" /><circle cx="28" cy="70" fill="black" r="3" stroke="none" transform="translate(100,400)" /><rect fill="none" height="9" stroke="black" stroke-width="1" transform="translate(100,400)" width="4" x="10" y="20" /><circle cx="84" cy="33" fill="black" r="2" stroke="none" transform="translate(100,400)" /><line stroke="black" stroke-width="1" transform="translate(100,400)" x1="101" x2="106.76273884331222" y1="118" y2="131.78051709421013" /><line stroke="black" stroke-width="1" transform="translate(100,400)" x1="84" x2="95.80577373788854" y1="15" y2="15.164641512040513" /><rect fill="none" height="7" stroke="black" stroke-width="1" transform="translate(100,400)" width="6" x="27" y="13" /><rect fill="none" height="7" stroke="black" stroke-width="1" transform="translate(100,400)" width="8" x="49" y="146" /><rect fill="none" height="10" stroke="black" stroke-width="1" transform="translate(100,400)" width="11" x="136" y="150" /><circle cx="172" cy="173" fill="black" r="3" stroke="none" transform="translate(100,400)" /><circle cx="125" cy="65" fill="black" r="2" stroke="none" transform="translate(100,400)" /><circle cx="84" cy="71" fill="black" r="3" stroke="none" transform="translate(100,400)" /><circle cx="114" cy="84" fill="black" r="2" stroke="none" transform="translate(100,400)" /><rect fill="none" height="4" stroke="black" stroke-width="1" transform="translate(100,400)" width="13" x="155" y="151" /><circle cx="173" cy="81" fill="black" r="2" stroke="none" transform="translate(100,400)" /><line stroke="black" stroke-width="1" transform="translate(100,400)" x1="123" x2="131.57384549229852" y1="114" y2="117.77597701914681" /><circle cx="170" cy="166" fill="black" r="1" stroke="none" transform="translate(100,400)" /><line stroke="black" stroke-width="1" transform="translate(100,400)" x1="138" x2="145.75747125115768" y1="153" y2="169.79246821144832" /><line stroke="black" stroke-width="1" transform="translate(100,400)" x1="83" x2="105.44347086020048" y1="56" y2="75.1032554442766" /><rect fill="none" height="11" stroke="black" stroke-width="1" transform="translate(100,400)" width="12" x="89" y="94" /><rect fill="none" height="14" stroke="black" stroke-width="1" transform="translate(100,400)" width="3" x="120" y="115" /><rect fill="none" height="5" stroke="black" stroke-width="1" transform="translate(100,400)" width="8" x="95" y="75" /><line stroke="black" stroke-width="1" transform="translate(100,400)" x1="105" x2="106.35901242658214" y1="161" y2="163.95884970883594" /><line stroke="black" stroke-width="1" transform="translate(100,400)" x1="141" x2="141.95932560757313" y1="180" y2="184.70852270587386" /><rect fill="none" height="4" stroke="black" stroke-width="1" transform="translate(100,400)" width="8" x="154" y="154" /><line stroke="black" stroke-width="1" transform="translate(100,400)" x1="24" x2="43.12230211242803" y1="38" y2="44.72415244805323" /><line stroke="black" stroke-width="1" transform="translate(100,400)" x1="30" x2="41.31112965133309" y1="108" y2="119.2630833871519" /><text font-family="Arial" font-size="14" text-anchor="middle" x="175" y="380">Option 1</text><g transform="translate(100,400)"><polygon fill="none" points="46,132 80,132 63.0,98" stroke="black" stroke-width="2" transform="rotate(124.2074855285705,63.0,115.0)" /><circle cx="101" cy="98" fill="none" r="19.0" stroke="black" stroke-width="2" /><line stroke="black" stroke-width="2" transform="rotate(48.2074855285705,54.5,123.5)" x1="34" x2="75" y1="103" y2="144" /><line stroke="black" stroke-width="2" transform="rotate(93.2074855285705,96.5,119.5)" x1="80" x2="113" y1="103" y2="136" /><rect fill="none" height="32" stroke="black" stroke-width="2" transform="rotate(56.2074855285705,95.0,65.0)" width="32" x="79" y="49" /><line stroke="black" stroke-width="2" transform="rotate(167.2074855285705,34.0,124.0)" x1="17" x2="51" y1="107" y2="141" /></g><rect fill="none" height="8" stroke="black" stroke-width="1" transform="translate(350,400)" width="14" x="153" y="179" /><line stroke="black" stroke-width="1" transform="translate(350,400)" x1="14" x2="19.453196942054483" y1="11" y2="13.656712353620383" /><rect fill="none" height="7" stroke="black" stroke-width="1" transform="translate(350,400)" width="8" x="94" y="96" /><line stroke="black" stroke-width="1" transform="translate(350,400)" x1="171" x2="188.03268089334313" y1="116" y2="127.37888487658374" /><line stroke="black" stroke-width="1" transform="translate(350,400)" x1="19" x2="20.73039424070577" y1="77" y2="80.79991788345205" /><line stroke="black" stroke-width="1" transform="translate(350,400)" x1="90" x2="97.16092836425872" y1="163" y2="166.32338157535452" /><rect fill="none" height="8" stroke="black" stroke-width="1" transform="translate(350,400)" width="12" x="62" y="91" /><rect fill="none" height="10" stroke="black" stroke-width="1" transform="translate(350,400)" width="8" x="20" y="38" /><line stroke="black" stroke-width="1" transform="translate(350,400)" x1="29" x2="40.4612705471029" y1="91" y2="91.09740279148552" /><rect fill="none" height="9" stroke="black" stroke-width="1" transform="translate(350,400)" width="8" x="83" y="152" /><circle cx="10" cy="111" fill="black" r="3" stroke="none" transform="translate(350,400)" /><line stroke="black" stroke-width="1" transform="translate(350,400)" x1="130" x2="132.81120518352532" y1="131" y2="131.87978988527635" /><circle cx="102" cy="128" fill="black" r="3" stroke="none" transform="translate(350,400)" /><line stroke="black" stroke-width="1" transform="translate(350,400)" x1="37" x2="38.427404945370256" y1="158" y2="162.3036335485487" /><circle cx="100" cy="16" fill="black" r="2" stroke="none" transform="translate(350,400)" /><rect fill="none" height="7" stroke="black" stroke-width="1" transform="translate(350,400)" width="3" x="38" y="61" /><circle cx="158" cy="144" fill="black" r="2" stroke="none" transform="translate(350,400)" /><circle cx="42" cy="14" fill="black" r="2" stroke="none" transform="translate(350,400)" /><rect fill="none" height="12" stroke="black" stroke-width="1" transform="translate(350,400)" width="3" x="117" y="71" /><line stroke="black" stroke-width="1" transform="translate(350,400)" x1="72" x2="94.14276401379774" y1="51" y2="54.39685578909566" /><circle cx="130" cy="144" fill="black" r="3" stroke="none" transform="translate(350,400)" /><line stroke="black" stroke-width="1" transform="translate(350,400)" x1="142" x2="153.78482566670425" y1="130" y2="142.30289421330502" /><rect fill="none" height="10" stroke="black" stroke-width="1" transform="translate(350,400)" width="10" x="131" y="66" /><line stroke="black" stroke-width="1" transform="translate(350,400)" x1="163" x2="169.448517695468" y1="51" y2="56.18280916421058" /><rect fill="none" height="4" stroke="black" stroke-width="1" transform="translate(350,400)" width="7" x="75" y="11" /><line stroke="black" stroke-width="1" transform="translate(350,400)" x1="147" x2="165.93546292122272" y1="30" y2="52.09426979470891" /><line stroke="black" stroke-width="1" transform="translate(350,400)" x1="132" x2="132.94900380456525" y1="22" y2="31.25517139996866" /><line stroke="black" stroke-width="1" transform="translate(350,400)" x1="51" x2="69.51845859879047" y1="46" y2="62.40089304441523" /><line stroke="black" stroke-width="1" transform="translate(350,400)" x1="13" x2="23.85828985827586" y1="41" y2="44.91986440550815" /><rect fill="none" height="10" stroke="black" stroke-width="1" transform="translate(350,400)" width="4" x="166" y="136" /><rect fill="none" height="12" stroke="black" stroke-width="1" transform="translate(350,400)" width="5" x="121" y="117" /><rect fill="none" height="6" stroke="black" stroke-width="1" transform="translate(350,400)" width="15" x="39" y="47" /><rect fill="none" height="5" stroke="black" stroke-width="1" transform="translate(350,400)" width="8" x="13" y="25" /><rect fill="none" height="14" stroke="black" stroke-width="1" transform="translate(350,400)" width="12" x="173" y="117" /><rect fill="none" height="13" stroke="black" stroke-width="1" transform="translate(350,400)" width="3" x="65" y="79" /><circle cx="143" cy="34" fill="black" r="3" stroke="none" transform="translate(350,400)" /><line stroke="black" stroke-width="1" transform="translate(350,400)" x1="17" x2="24.916983484689403" y1="171" y2="177.10378771127375" /><line stroke="black" stroke-width="1" transform="translate(350,400)" x1="116" x2="117.83160155796688" y1="24" y2="28.336926314408075" /><circle cx="128" cy="102" fill="black" r="3" stroke="none" transform="translate(350,400)" /><line stroke="black" stroke-width="1" transform="translate(350,400)" x1="27" x2="47.29413858290565" y1="86" y2="111.29264720028748" /><text font-family="Arial" font-size="14" text-anchor="middle" x="425" y="380">Option 2</text><g transform="translate(350,400)"><polygon fill="none" points="46,132 80,132 63.0,98" stroke="black" stroke-width="2" transform="rotate(86.70658853042224,63.0,115.0)" /><circle cx="101" cy="98" fill="none" r="19.0" stroke="black" stroke-width="2" /><line stroke="black" stroke-width="2" transform="rotate(10.706588530422234,54.5,123.5)" x1="34" x2="75" y1="103" y2="144" /><line stroke="black" stroke-width="2" transform="rotate(55.70658853042224,96.5,119.5)" x1="80" x2="113" y1="103" y2="136" /><rect fill="none" height="32" stroke="black" stroke-width="2" transform="rotate(18.706588530422234,95.0,65.0)" width="32" x="79" y="49" /><line stroke="black" stroke-width="2" transform="rotate(129.70658853042224,34.0,124.0)" x1="17" x2="51" y1="107" y2="141" /></g><rect fill="none" height="8" stroke="black" stroke-width="1" transform="translate(100,650)" width="5" x="40" y="19" /><circle cx="98" cy="82" fill="black" r="1" stroke="none" transform="translate(100,650)" /><line stroke="black" stroke-width="1" transform="translate(100,650)" x1="60" x2="70.33683817946299" y1="23" y2="29.741753077768305" /><rect fill="none" height="7" stroke="black" stroke-width="1" transform="translate(100,650)" width="13" x="134" y="176" /><circle cx="95" cy="31" fill="black" r="3" stroke="none" transform="translate(100,650)" /><circle cx="10" cy="23" fill="black" r="3" stroke="none" transform="translate(100,650)" /><circle cx="117" cy="21" fill="black" r="2" stroke="none" transform="translate(100,650)" /><line stroke="black" stroke-width="1" transform="translate(100,650)" x1="139" x2="143.38631599904036" y1="33" y2="33.31417058005507" /><circle cx="149" cy="127" fill="black" r="3" stroke="none" transform="translate(100,650)" /><circle cx="159" cy="144" fill="black" r="2" stroke="none" transform="translate(100,650)" /><line stroke="black" stroke-width="1" transform="translate(100,650)" x1="33" x2="44.05531380536139" y1="34" y2="42.341974653434725" /><rect fill="none" height="13" stroke="black" stroke-width="1" transform="translate(100,650)" width="11" x="76" y="26" /><circle cx="118" cy="141" fill="black" r="3" stroke="none" transform="translate(100,650)" /><circle cx="104" cy="156" fill="black" r="2" stroke="none" transform="translate(100,650)" /><line stroke="black" stroke-width="1" transform="translate(100,650)" x1="163" x2="171.5700436768828" y1="127" y2="145.44816264030783" /><rect fill="none" height="9" stroke="black" stroke-width="1" transform="translate(100,650)" width="9" x="108" y="169" /><circle cx="137" cy="133" fill="black" r="1" stroke="none" transform="translate(100,650)" /><line stroke="black" stroke-width="1" transform="translate(100,650)" x1="178" x2="180.0222167054889" y1="177" y2="177.4682033676226" /><rect fill="none" height="14" stroke="black" stroke-width="1" transform="translate(100,650)" width="5" x="69" y="167" /><line stroke="black" stroke-width="1" transform="translate(100,650)" x1="148" x2="149.76295846732714" y1="101" y2="106.1724484707014" /><line stroke="black" stroke-width="1" transform="translate(100,650)" x1="137" x2="142.77145777291864" y1="24" y2="28.057882670716047" /><line stroke="black" stroke-width="1" transform="translate(100,650)" x1="122" x2="126.61437952018802" y1="158" y2="158.8226514260713" /><rect fill="none" height="15" stroke="black" stroke-width="1" transform="translate(100,650)" width="11" x="76" y="83" /><circle cx="158" cy="97" fill="black" r="1" stroke="none" transform="translate(100,650)" /><rect fill="none" height="4" stroke="black" stroke-width="1" transform="translate(100,650)" width="9" x="23" y="163" /><rect fill="none" height="11" stroke="black" stroke-width="1" transform="translate(100,650)" width="12" x="67" y="44" /><circle cx="170" cy="131" fill="black" r="3" stroke="none" transform="translate(100,650)" /><line stroke="black" stroke-width="1" transform="translate(100,650)" x1="120" x2="135.490068214709" y1="18" y2="27.915748048851803" /><line stroke="black" stroke-width="1" transform="translate(100,650)" x1="100" x2="107.62203845860788" y1="108" y2="120.17314301585893" /><rect fill="none" height="15" stroke="black" stroke-width="1" transform="translate(100,650)" width="14" x="102" y="23" /><rect fill="none" height="15" stroke="black" stroke-width="1" transform="translate(100,650)" width="8" x="58" y="90" /><line stroke="black" stroke-width="1" transform="translate(100,650)" x1="82" x2="94.05596327793273" y1="63" y2="69.95812632437949" /><circle cx="73" cy="170" fill="black" r="1" stroke="none" transform="translate(100,650)" /><line stroke="black" stroke-width="1" transform="translate(100,650)" x1="61" x2="63.76532456020896" y1="147" y2="148.37064130678164" /><line stroke="black" stroke-width="1" transform="translate(100,650)" x1="138" x2="141.03933866982265" y1="66" y2="69.79640965156923" /><line stroke="black" stroke-width="1" transform="translate(100,650)" x1="27" x2="43.0177805232273" y1="127" y2="148.76224993858582" /><circle cx="90" cy="129" fill="black" r="3" stroke="none" transform="translate(100,650)" /><rect fill="none" height="6" stroke="black" stroke-width="1" transform="translate(100,650)" width="8" x="126" y="173" /><circle cx="162" cy="23" fill="black" r="3" stroke="none" transform="translate(100,650)" /><circle cx="58" cy="19" fill="black" r="3" stroke="none" transform="translate(100,650)" /><text font-family="Arial" font-size="14" text-anchor="middle" x="175" y="630">Option 3</text><g transform="translate(100,650)"><polygon fill="none" points="46,132 80,132 63.0,98" stroke="black" stroke-width="2" transform="rotate(105,63.0,115.0)" /><circle cx="101" cy="98" fill="none" r="19.0" stroke="black" stroke-width="2" /><line stroke="black" stroke-width="2" transform="rotate(29,54.5,123.5)" x1="34" x2="75" y1="103" y2="144" /><line stroke="black" stroke-width="2" transform="rotate(74,96.5,119.5)" x1="80" x2="113" y1="103" y2="136" /><rect fill="none" height="32" stroke="black" stroke-width="2" transform="rotate(37,95.0,65.0)" width="32" x="79" y="49" /><line stroke="black" stroke-width="2" transform="rotate(148,34.0,124.0)" x1="17" x2="51" y1="107" y2="141" /></g><rect fill="none" height="14" stroke="black" stroke-width="1" transform="translate(350,650)" width="3" x="63" y="133" /><rect fill="none" height="7" stroke="black" stroke-width="1" transform="translate(350,650)" width="5" x="109" y="13" /><rect fill="none" height="15" stroke="black" stroke-width="1" transform="translate(350,650)" width="6" x="178" y="129" /><line stroke="black" stroke-width="1" transform="translate(350,650)" x1="27" x2="31.635653024571795" y1="89" y2="93.20923191472085" /><line stroke="black" stroke-width="1" transform="translate(350,650)" x1="97" x2="111.95458501592746" y1="161" y2="174.9002702554841" /><line stroke="black" stroke-width="1" transform="translate(350,650)" x1="13" x2="15.422773992187885" y1="22" y2="28.152014306357085" /><rect fill="none" height="15" stroke="black" stroke-width="1" transform="translate(350,650)" width="8" x="94" y="72" /><line stroke="black" stroke-width="1" transform="translate(350,650)" x1="87" x2="91.09829285841474" y1="159" y2="160.9235825163804" /><circle cx="53" cy="24" fill="black" r="2" stroke="none" transform="translate(350,650)" /><circle cx="55" cy="103" fill="black" r="1" stroke="none" transform="translate(350,650)" /><rect fill="none" height="6" stroke="black" stroke-width="1" transform="translate(350,650)" width="12" x="33" y="63" /><line stroke="black" stroke-width="1" transform="translate(350,650)" x1="147" x2="153.2551687364294" y1="95" y2="97.1391730928934" /><line stroke="black" stroke-width="1" transform="translate(350,650)" x1="112" x2="113.20217980556241" y1="68" y2="68.87110556580896" /><circle cx="133" cy="176" fill="black" r="1" stroke="none" transform="translate(350,650)" /><line stroke="black" stroke-width="1" transform="translate(350,650)" x1="50" x2="59.68266639205001" y1="102" y2="102.15343359929456" /><line stroke="black" stroke-width="1" transform="translate(350,650)" x1="64" x2="73.0632856348998" y1="12" y2="16.619288513129774" /><line stroke="black" stroke-width="1" transform="translate(350,650)" x1="35" x2="38.26147381040899" y1="147" y2="165.13426074031966" /><rect fill="none" height="9" stroke="black" stroke-width="1" transform="translate(350,650)" width="13" x="134" y="156" /><circle cx="114" cy="126" fill="black" r="3" stroke="none" transform="translate(350,650)" /><circle cx="44" cy="146" fill="black" r="2" stroke="none" transform="translate(350,650)" /><rect fill="none" height="13" stroke="black" stroke-width="1" transform="translate(350,650)" width="13" x="95" y="46" /><rect fill="none" height="14" stroke="black" stroke-width="1" transform="translate(350,650)" width="7" x="28" y="55" /><line stroke="black" stroke-width="1" transform="translate(350,650)" x1="43" x2="50.15737137890621" y1="119" y2="121.6380218539632" /><circle cx="96" cy="140" fill="black" r="2" stroke="none" transform="translate(350,650)" /><circle cx="30" cy="75" fill="black" r="1" stroke="none" transform="translate(350,650)" /><circle cx="91" cy="131" fill="black" r="1" stroke="none" transform="translate(350,650)" /><line stroke="black" stroke-width="1" transform="translate(350,650)" x1="180" x2="193.4933474911211" y1="120" y2="120.73027193455106" /><line stroke="black" stroke-width="1" transform="translate(350,650)" x1="41" x2="52.1284992676982" y1="40" y2="58.353344945504645" /><circle cx="118" cy="153" fill="black" r="2" stroke="none" transform="translate(350,650)" /><line stroke="black" stroke-width="1" transform="translate(350,650)" x1="46" x2="52.690854754827285" y1="59" y2="70.60337914733198" /><circle cx="44" cy="67" fill="black" r="3" stroke="none" transform="translate(350,650)" /><rect fill="none" height="9" stroke="black" stroke-width="1" transform="translate(350,650)" width="13" x="95" y="48" /><rect fill="none" height="5" stroke="black" stroke-width="1" transform="translate(350,650)" width="12" x="161" y="96" /><line stroke="black" stroke-width="1" transform="translate(350,650)" x1="148" x2="156.19321188704686" y1="76" y2="83.13596012290141" /><rect fill="none" height="7" stroke="black" stroke-width="1" transform="translate(350,650)" width="3" x="14" y="44" /><circle cx="53" cy="71" fill="black" r="2" stroke="none" transform="translate(350,650)" /><circle cx="129" cy="114" fill="black" r="2" stroke="none" transform="translate(350,650)" /><circle cx="19" cy="33" fill="black" r="2" stroke="none" transform="translate(350,650)" /><circle cx="60" cy="172" fill="black" r="3" stroke="none" transform="translate(350,650)" /><circle cx="18" cy="68" fill="black" r="2" stroke="none" transform="translate(350,650)" /><text font-family="Arial" font-size="14" text-anchor="middle" x="425" y="630">Option 4</text><g transform="translate(350,650)"><polygon fill="none" points="32,50 66,50 49.0,16" stroke="black" stroke-width="2" transform="rotate(88.1208162026432,49.0,33.0)" /><circle cx="101" cy="98" fill="none" r="19.0" stroke="black" stroke-width="2" /><line stroke="black" stroke-width="2" transform="rotate(12.120816202643198,54.5,123.5)" x1="34" x2="75" y1="103" y2="144" /><line stroke="black" stroke-width="2" transform="rotate(57.1208162026432,96.5,119.5)" x1="80" x2="113" y1="103" y2="136" /><rect fill="none" height="32" stroke="black" stroke-width="2" transform="rotate(20.120816202643198,95.0,65.0)" width="32" x="79" y="49" /><line stroke="black" stroke-width="2" transform="rotate(131.1208162026432,34.0,124.0)" x1="17" x2="51" y1="107" y2="141" /></g></svg>