<?xml version="1.0" encoding="utf-8" ?>
<svg baseProfile="full" height="1000px" version="1.1" width="600px" xmlns="http://www.w3.org/2000/svg" xmlns:ev="http://www.w3.org/2001/xml-events" xmlns:xlink="http://www.w3.org/1999/xlink"><defs /><rect fill="white" height="100%" width="100%" x="0" y="0" /><text font-family="Arial" font-size="24" text-anchor="middle" x="300" y="40">Visual Figure Ground Test</text><text font-family="Arial" font-size="18" text-anchor="middle" x="300" y="80">Target Pattern</text><g transform="translate(200,100)"><rect fill="none" height="48" stroke="black" stroke-width="2" transform="rotate(146,135.0,84.0)" width="48" x="111" y="60" /><polygon fill="none" points="35,154 78,154 56.5,111" stroke="black" stroke-width="2" transform="rotate(328,56.5,132.5)" /><polygon fill="none" points="60,74 90,74 75.0,44" stroke="black" stroke-width="2" transform="rotate(97,75.0,59.0)" /><rect fill="none" height="30" stroke="black" stroke-width="2" transform="rotate(196,118.0,115.0)" width="30" x="103" y="100" /><rect fill="none" height="30" stroke="black" stroke-width="2" transform="rotate(288,80.0,156.0)" width="30" x="65" y="141" /><rect fill="none" height="39" stroke="black" stroke-width="2" transform="rotate(306,131.5,92.5)" width="39" x="112" y="73" /></g><text font-family="Arial" font-size="18" text-anchor="middle" x="300" y="350">Options</text><circle cx="43" cy="140" fill="black" r="2" stroke="none" transform="translate(100,400)" /><circle cx="52" cy="128" fill="black" r="1" stroke="none" transform="translate(100,400)" /><rect fill="none" height="4" stroke="black" stroke-width="1" transform="translate(100,400)" width="9" x="51" y="58" /><circle cx="152" cy="114" fill="black" r="1" stroke="none" transform="translate(100,400)" /><circle cx="115" cy="131" fill="black" r="3" stroke="none" transform="translate(100,400)" /><rect fill="none" height="6" stroke="black" stroke-width="1" transform="translate(100,400)" width="8" x="56" y="25" /><circle cx="57" cy="14" fill="black" r="2" stroke="none" transform="translate(100,400)" /><circle cx="143" cy="70" fill="black" r="2" stroke="none" transform="translate(100,400)" /><circle cx="168" cy="139" fill="black" r="3" stroke="none" transform="translate(100,400)" /><line stroke="black" stroke-width="1" transform="translate(100,400)" x1="68" x2="68.11270875051117" y1="161" y2="162.80027569086133" /><line stroke="black" stroke-width="1" transform="translate(100,400)" x1="53" x2="54.62127305728921" y1="130" y2="135.8682839494367" /><rect fill="none" height="8" stroke="black" stroke-width="1" transform="translate(100,400)" width="6" x="160" y="148" /><line stroke="black" stroke-width="1" transform="translate(100,400)" x1="87" x2="94.0720899013548" y1="117" y2="118.46628748998329" /><circle cx="82" cy="77" fill="black" r="2" stroke="none" transform="translate(100,400)" /><line stroke="black" stroke-width="1" transform="translate(100,400)" x1="84" x2="88.49354956782204" y1="111" y2="127.32194087183152" /><line stroke="black" stroke-width="1" transform="translate(100,400)" x1="131" x2="132.9364739233516" y1="136" y2="139.1809950611054" /><circle cx="58" cy="13" fill="black" r="3" stroke="none" transform="translate(100,400)" /><circle cx="84" cy="34" fill="black" r="2" stroke="none" transform="translate(100,400)" /><rect fill="none" height="10" stroke="black" stroke-width="1" transform="translate(100,400)" width="7" x="47" y="172" /><rect fill="none" height="8" stroke="black" stroke-width="1" transform="translate(100,400)" width="5" x="70" y="166" /><line stroke="black" stroke-width="1" transform="translate(100,400)" x1="100" x2="112.78433637376918" y1="49" y2="55.98715309371107" /><rect fill="none" height="5" stroke="black" stroke-width="1" transform="translate(100,400)" width="7" x="161" y="86" /><line stroke="black" stroke-width="1" transform="translate(100,400)" x1="92" x2="104.72440425653028" y1="76" y2="91.13844753893558" /><rect fill="none" height="3" stroke="black" stroke-width="1" transform="translate(100,400)" width="15" x="11" y="13" /><rect fill="none" height="12" stroke="black" stroke-width="1" transform="translate(100,400)" width="11" x="26" y="32" /><rect fill="none" height="11" stroke="black" stroke-width="1" transform="translate(100,400)" width="3" x="120" y="151" /><line stroke="black" stroke-width="1" transform="translate(100,400)" x1="89" x2="109.9122743421809" y1="135" y2="142.47691256899813" /><line stroke="black" stroke-width="1" transform="translate(100,400)" x1="81" x2="85.20296615248165" y1="65" y2="66.66602721159737" /><line stroke="black" stroke-width="1" transform="translate(100,400)" x1="178" x2="185.85196225889672" y1="127" y2="130.94938433888822" /><rect fill="none" height="6" stroke="black" stroke-width="1" transform="translate(100,400)" width="11" x="42" y="11" /><circle cx="179" cy="130" fill="black" r="3" stroke="none" transform="translate(100,400)" /><circle cx="83" cy="90" fill="black" r="1" stroke="none" transform="translate(100,400)" /><circle cx="127" cy="150" fill="black" r="2" stroke="none" transform="translate(100,400)" /><circle cx="149" cy="114" fill="black" r="3" stroke="none" transform="translate(100,400)" /><rect fill="none" height="13" stroke="black" stroke-width="1" transform="translate(100,400)" width="9" x="116" y="128" /><rect fill="none" height="13" stroke="black" stroke-width="1" transform="translate(100,400)" width="4" x="177" y="116" /><line stroke="black" stroke-width="1" transform="translate(100,400)" x1="107" x2="109.2002554484378" y1="142" y2="148.38121586175603" /><circle cx="80" cy="115" fill="black" r="3" stroke="none" transform="translate(100,400)" /><rect fill="none" height="10" stroke="black" stroke-width="1" transform="translate(100,400)" width="7" x="136" y="138" /><rect fill="none" height="12" stroke="black" stroke-width="1" transform="translate(100,400)" width="9" x="95" y="157" /><text font-family="Arial" font-size="14" text-anchor="middle" x="175" y="380">Option 1</text><g transform="translate(100,400)"><rect fill="none" height="48" stroke="black" stroke-width="2" transform="rotate(127.75103526247919,135.0,84.0)" width="48" x="111" y="60" /><polygon fill="none" points="35,154 78,154 56.5,111" stroke="black" stroke-width="2" transform="rotate(309.7510352624792,56.5,132.5)" /><polygon fill="none" points="60,74 90,74 75.0,44" stroke="black" stroke-width="2" transform="rotate(78.75103526247919,75.0,59.0)" /><rect fill="none" height="30" stroke="black" stroke-width="2" transform="rotate(177.75103526247918,67.0,97.0)" width="30" x="52" y="82" /><rect fill="none" height="30" stroke="black" stroke-width="2" transform="rotate(269.7510352624792,80.0,156.0)" width="30" x="65" y="141" /><rect fill="none" height="39" stroke="black" stroke-width="2" transform="rotate(287.7510352624792,131.5,92.5)" width="39" x="112" y="73" /></g><circle cx="175" cy="23" fill="black" r="2" stroke="none" transform="translate(350,400)" /><circle cx="112" cy="49" fill="black" r="3" stroke="none" transform="translate(350,400)" /><circle cx="125" cy="35" fill="black" r="2" stroke="none" transform="translate(350,400)" /><line stroke="black" stroke-width="1" transform="translate(350,400)" x1="19" x2="29.707166759192212" y1="23" y2="30.27335661889288" /><line stroke="black" stroke-width="1" transform="translate(350,400)" x1="98" x2="119.87122534265865" y1="126" y2="142.44209400913766" /><circle cx="54" cy="128" fill="black" r="1" stroke="none" transform="translate(350,400)" /><circle cx="124" cy="29" fill="black" r="3" stroke="none" transform="translate(350,400)" /><circle cx="56" cy="66" fill="black" r="2" stroke="none" transform="translate(350,400)" /><line stroke="black" stroke-width="1" transform="translate(350,400)" x1="148" x2="167.93395191620098" y1="76" y2="101.0757387762039" /><circle cx="91" cy="55" fill="black" r="2" stroke="none" transform="translate(350,400)" /><rect fill="none" height="11" stroke="black" stroke-width="1" transform="translate(350,400)" width="14" x="150" y="144" /><line stroke="black" stroke-width="1" transform="translate(350,400)" x1="97" x2="97.48623698817342" y1="156" y2="159.31936818307588" /><rect fill="none" height="14" stroke="black" stroke-width="1" transform="translate(350,400)" width="10" x="58" y="20" /><rect fill="none" height="15" stroke="black" stroke-width="1" transform="translate(350,400)" width="4" x="175" y="94" /><circle cx="176" cy="29" fill="black" r="1" stroke="none" transform="translate(350,400)" /><rect fill="none" height="12" stroke="black" stroke-width="1" transform="translate(350,400)" width="4" x="112" y="25" /><rect fill="none" height="10" stroke="black" stroke-width="1" transform="translate(350,400)" width="7" x="20" y="33" /><line stroke="black" stroke-width="1" transform="translate(350,400)" x1="89" x2="89.93799970065115" y1="108" y2="113.11825964419594" /><circle cx="52" cy="26" fill="black" r="1" stroke="none" transform="translate(350,400)" /><line stroke="black" stroke-width="1" transform="translate(350,400)" x1="15" x2="24.776094542164305" y1="26" y2="45.99240208211458" /><rect fill="none" height="5" stroke="black" stroke-width="1" transform="translate(350,400)" width="4" x="118" y="133" /><line stroke="black" stroke-width="1" transform="translate(350,400)" x1="78" x2="89.27393241003539" y1="154" y2="162.89110681475617" /><circle cx="106" cy="72" fill="black" r="3" stroke="none" transform="translate(350,400)" /><line stroke="black" stroke-width="1" transform="translate(350,400)" x1="149" x2="154.1083004491366" y1="34" y2="48.28610438193067" /><line stroke="black" stroke-width="1" transform="translate(350,400)" x1="99" x2="114.55268502715381" y1="136" y2="138.12129367784726" /><rect fill="none" height="9" stroke="black" stroke-width="1" transform="translate(350,400)" width="3" x="164" y="44" /><rect fill="none" height="6" stroke="black" stroke-width="1" transform="translate(350,400)" width="6" x="101" y="126" /><rect fill="none" height="4" stroke="black" stroke-width="1" transform="translate(350,400)" width="6" x="57" y="44" /><line stroke="black" stroke-width="1" transform="translate(350,400)" x1="10" x2="13.625328674623356" y1="87" y2="91.79252870585583" /><rect fill="none" height="10" stroke="black" stroke-width="1" transform="translate(350,400)" width="3" x="30" y="23" /><circle cx="49" cy="68" fill="black" r="1" stroke="none" transform="translate(350,400)" /><circle cx="176" cy="52" fill="black" r="2" stroke="none" transform="translate(350,400)" /><rect fill="none" height="4" stroke="black" stroke-width="1" transform="translate(350,400)" width="7" x="170" y="156" /><rect fill="none" height="4" stroke="black" stroke-width="1" transform="translate(350,400)" width="7" x="137" y="80" /><line stroke="black" stroke-width="1" transform="translate(350,400)" x1="23" x2="25.657381536778416" y1="12" y2="18.88784307973267" /><circle cx="140" cy="85" fill="black" r="3" stroke="none" transform="translate(350,400)" /><line stroke="black" stroke-width="1" transform="translate(350,400)" x1="176" x2="201.0286973530496" y1="101" y2="125.19019994929592" /><line stroke="black" stroke-width="1" transform="translate(350,400)" x1="107" x2="110.70017506787443" y1="20" y2="22.585938469846887" /><circle cx="70" cy="151" fill="black" r="3" stroke="none" transform="translate(350,400)" /><rect fill="none" height="5" stroke="black" stroke-width="1" transform="translate(350,400)" width="9" x="150" y="91" /><text font-family="Arial" font-size="14" text-anchor="middle" x="425" y="380">Option 2</text><g transform="translate(350,400)"><rect fill="none" height="48" stroke="black" stroke-width="2" transform="rotate(128.19777550306534,135.0,84.0)" width="48" x="111" y="60" /><polygon fill="none" points="35,154 78,154 56.5,111" stroke="black" stroke-width="2" transform="rotate(310.1977755030653,56.5,132.5)" /><polygon fill="none" points="60,74 90,74 75.0,44" stroke="black" stroke-width="2" transform="rotate(79.19777550306534,75.0,59.0)" /><rect fill="none" height="30" stroke="black" stroke-width="2" transform="rotate(178.19777550306534,118.0,115.0)" width="30" x="103" y="100" /><rect fill="none" height="30" stroke="black" stroke-width="2" transform="rotate(270.1977755030653,80.0,156.0)" width="30" x="65" y="141" /><rect fill="none" height="39" stroke="black" stroke-width="2" transform="rotate(288.1977755030653,131.5,92.5)" width="39" x="112" y="73" /></g><line stroke="black" stroke-width="1" transform="translate(100,650)" x1="132" x2="135.36519326164492" y1="84" y2="86.3410639562909" /><circle cx="161" cy="114" fill="black" r="1" stroke="none" transform="translate(100,650)" /><line stroke="black" stroke-width="1" transform="translate(100,650)" x1="118" x2="128.18620412503566" y1="53" y2="61.80497605221731" /><circle cx="75" cy="82" fill="black" r="3" stroke="none" transform="translate(100,650)" /><rect fill="none" height="3" stroke="black" stroke-width="1" transform="translate(100,650)" width="6" x="10" y="24" /><circle cx="69" cy="111" fill="black" r="2" stroke="none" transform="translate(100,650)" /><line stroke="black" stroke-width="1" transform="translate(100,650)" x1="17" x2="25.683775562833084" y1="153" y2="154.11066789202403" /><circle cx="70" cy="104" fill="black" r="1" stroke="none" transform="translate(100,650)" /><circle cx="131" cy="112" fill="black" r="3" stroke="none" transform="translate(100,650)" /><circle cx="111" cy="174" fill="black" r="1" stroke="none" transform="translate(100,650)" /><circle cx="76" cy="158" fill="black" r="3" stroke="none" transform="translate(100,650)" /><circle cx="32" cy="123" fill="black" r="2" stroke="none" transform="translate(100,650)" /><rect fill="none" height="9" stroke="black" stroke-width="1" transform="translate(100,650)" width="4" x="109" y="96" /><circle cx="102" cy="135" fill="black" r="3" stroke="none" transform="translate(100,650)" /><line stroke="black" stroke-width="1" transform="translate(100,650)" x1="105" x2="116.2500484554848" y1="22" y2="26.593848124198512" /><line stroke="black" stroke-width="1" transform="translate(100,650)" x1="82" x2="83.81323174965803" y1="117" y2="123.77993324952472" /><circle cx="35" cy="13" fill="black" r="2" stroke="none" transform="translate(100,650)" /><rect fill="none" height="11" stroke="black" stroke-width="1" transform="translate(100,650)" width="7" x="178" y="140" /><line stroke="black" stroke-width="1" transform="translate(100,650)" x1="117" x2="119.02703022129877" y1="168" y2="173.59448490712737" /><rect fill="none" height="7" stroke="black" stroke-width="1" transform="translate(100,650)" width="13" x="96" y="14" /><rect fill="none" height="7" stroke="black" stroke-width="1" transform="translate(100,650)" width="9" x="147" y="180" /><rect fill="none" height="3" stroke="black" stroke-width="1" transform="translate(100,650)" width="7" x="102" y="168" /><rect fill="none" height="8" stroke="black" stroke-width="1" transform="translate(100,650)" width="5" x="109" y="112" /><rect fill="none" height="11" stroke="black" stroke-width="1" transform="translate(100,650)" width="3" x="15" y="174" /><circle cx="54" cy="98" fill="black" r="1" stroke="none" transform="translate(100,650)" /><rect fill="none" height="14" stroke="black" stroke-width="1" transform="translate(100,650)" width="5" x="71" y="110" /><rect fill="none" height="10" stroke="black" stroke-width="1" transform="translate(100,650)" width="9" x="54" y="88" /><circle cx="105" cy="79" fill="black" r="1" stroke="none" transform="translate(100,650)" /><circle cx="49" cy="122" fill="black" r="1" stroke="none" transform="translate(100,650)" /><circle cx="116" cy="84" fill="black" r="3" stroke="none" transform="translate(100,650)" /><circle cx="163" cy="99" fill="black" r="3" stroke="none" transform="translate(100,650)" /><circle cx="99" cy="119" fill="black" r="3" stroke="none" transform="translate(100,650)" /><rect fill="none" height="5" stroke="black" stroke-width="1" transform="translate(100,650)" width="15" x="127" y="146" /><rect fill="none" height="10" stroke="black" stroke-width="1" transform="translate(100,650)" width="9" x="177" y="52" /><circle cx="19" cy="147" fill="black" r="2" stroke="none" transform="translate(100,650)" /><line stroke="black" stroke-width="1" transform="translate(100,650)" x1="162" x2="170.5093661808869" y1="162" y2="168.65264088231274" /><circle cx="83" cy="130" fill="black" r="3" stroke="none" transform="translate(100,650)" /><circle cx="177" cy="131" fill="black" r="2" stroke="none" transform="translate(100,650)" /><line stroke="black" stroke-width="1" transform="translate(100,650)" x1="174" x2="186.59667348545025" y1="111" y2="121.10363785589428" /><line stroke="black" stroke-width="1" transform="translate(100,650)" x1="38" x2="47.73100125029836" y1="139" y2="155.7692704684023" /><text font-family="Arial" font-size="14" text-anchor="middle" x="175" y="630">Option 3</text><g transform="translate(100,650)"><rect fill="none" height="48" stroke="black" stroke-width="2" transform="rotate(146,135.0,84.0)" width="48" x="111" y="60" /><polygon fill="none" points="35,154 78,154 56.5,111" stroke="black" stroke-width="2" transform="rotate(328,56.5,132.5)" /><polygon fill="none" points="60,74 90,74 75.0,44" stroke="black" stroke-width="2" transform="rotate(97,75.0,59.0)" /><rect fill="none" height="30" stroke="black" stroke-width="2" transform="rotate(196,118.0,115.0)" width="30" x="103" y="100" /><rect fill="none" height="30" stroke="black" stroke-width="2" transform="rotate(288,80.0,156.0)" width="30" x="65" y="141" /><rect fill="none" height="39" stroke="black" stroke-width="2" transform="rotate(306,131.5,92.5)" width="39" x="112" y="73" /></g><rect fill="none" height="9" stroke="black" stroke-width="1" transform="translate(350,650)" width="13" x="53" y="38" /><line stroke="black" stroke-width="1" transform="translate(350,650)" x1="82" x2="89.3592028703963" y1="10" y2="12.905034958180728" /><rect fill="none" height="10" stroke="black" stroke-width="1" transform="translate(350,650)" width="10" x="147" y="159" /><circle cx="160" cy="174" fill="black" r="1" stroke="none" transform="translate(350,650)" /><rect fill="none" height="3" stroke="black" stroke-width="1" transform="translate(350,650)" width="15" x="19" y="156" /><circle cx="61" cy="20" fill="black" r="2" stroke="none" transform="translate(350,650)" /><line stroke="black" stroke-width="1" transform="translate(350,650)" x1="144" x2="146.34496629337383" y1="76" y2="76.43955552663117" /><circle cx="66" cy="156" fill="black" r="2" stroke="none" transform="translate(350,650)" /><circle cx="125" cy="66" fill="black" r="2" stroke="none" transform="translate(350,650)" /><line stroke="black" stroke-width="1" transform="translate(350,650)" x1="118" x2="129.5313465794198" y1="164" y2="173.76576614802428" /><circle cx="18" cy="30" fill="black" r="2" stroke="none" transform="translate(350,650)" /><rect fill="none" height="12" stroke="black" stroke-width="1" transform="translate(350,650)" width="14" x="93" y="54" /><circle cx="56" cy="100" fill="black" r="3" stroke="none" transform="translate(350,650)" /><circle cx="101" cy="156" fill="black" r="1" stroke="none" transform="translate(350,650)" /><rect fill="none" height="12" stroke="black" stroke-width="1" transform="translate(350,650)" width="4" x="64" y="115" /><line stroke="black" stroke-width="1" transform="translate(350,650)" x1="97" x2="111.65256099502464" y1="96" y2="105.28895698448042" /><line stroke="black" stroke-width="1" transform="translate(350,650)" x1="177" x2="180.0669206341768" y1="10" y2="11.809203332832148" /><circle cx="45" cy="44" fill="black" r="3" stroke="none" transform="translate(350,650)" /><circle cx="74" cy="92" fill="black" r="1" stroke="none" transform="translate(350,650)" /><circle cx="93" cy="121" fill="black" r="1" stroke="none" transform="translate(350,650)" /><rect fill="none" height="7" stroke="black" stroke-width="1" transform="translate(350,650)" width="7" x="153" y="85" /><line stroke="black" stroke-width="1" transform="translate(350,650)" x1="125" x2="131.36987150592" y1="112" y2="117.99099656440742" /><rect fill="none" height="14" stroke="black" stroke-width="1" transform="translate(350,650)" width="6" x="25" y="94" /><circle cx="94" cy="145" fill="black" r="1" stroke="none" transform="translate(350,650)" /><line stroke="black" stroke-width="1" transform="translate(350,650)" x1="102" x2="116.56251247142006" y1="157" y2="159.04563746753755" /><line stroke="black" stroke-width="1" transform="translate(350,650)" x1="165" x2="181.87500634090168" y1="152" y2="168.44522115634763" /><rect fill="none" height="3" stroke="black" stroke-width="1" transform="translate(350,650)" width="7" x="53" y="73" /><rect fill="none" height="11" stroke="black" stroke-width="1" transform="translate(350,650)" width="6" x="141" y="47" /><rect fill="none" height="4" stroke="black" stroke-width="1" transform="translate(350,650)" width="11" x="77" y="133" /><line stroke="black" stroke-width="1" transform="translate(350,650)" x1="38" x2="45.376370640545616" y1="129" y2="136.47600798885725" /><line stroke="black" stroke-width="1" transform="translate(350,650)" x1="94" x2="94.62404555833882" y1="16" y2="22.29912949166291" /><circle cx="138" cy="90" fill="black" r="3" stroke="none" transform="translate(350,650)" /><circle cx="105" cy="117" fill="black" r="2" stroke="none" transform="translate(350,650)" /><circle cx="141" cy="143" fill="black" r="2" stroke="none" transform="translate(350,650)" /><rect fill="none" height="12" stroke="black" stroke-width="1" transform="translate(350,650)" width="12" x="109" y="77" /><circle cx="79" cy="132" fill="black" r="1" stroke="none" transform="translate(350,650)" /><line stroke="black" stroke-width="1" transform="translate(350,650)" x1="160" x2="164.03476675751327" y1="11" y2="11.27221422436704" /><circle cx="96" cy="121" fill="black" r="1" stroke="none" transform="translate(350,650)" /><rect fill="none" height="12" stroke="black" stroke-width="1" transform="translate(350,650)" width="5" x="69" y="18" /><line stroke="black" stroke-width="1" transform="translate(350,650)" x1="73" x2="86.68984105674971" y1="50" y2="68.95820479429037" /><text font-family="Arial" font-size="14" text-anchor="middle" x="425" y="630">Option 4</text><g transform="translate(350,650)"><rect fill="none" height="48" stroke="black" stroke-width="2" transform="rotate(130.22179359265692,135.0,84.0)" width="48" x="111" y="60" /><polygon fill="none" points="35,154 78,154 56.5,111" stroke="black" stroke-width="2" transform="rotate(312.2217935926569,56.5,132.5)" /><polygon fill="none" points="60,74 90,74 75.0,44" stroke="black" stroke-width="2" transform="rotate(81.22179359265692,75.0,59.0)" /><rect fill="none" height="30" stroke="black" stroke-width="2" transform="rotate(180.22179359265692,118.0,115.0)" width="30" x="103" y="100" /><rect fill="none" height="30" stroke="black" stroke-width="2" transform="rotate(272.2217935926569,80.0,156.0)" width="30" x="65" y="141" /><rect fill="none" height="39" stroke="black" stroke-width="2" transform="rotate(290.2217935926569,131.5,92.5)" width="39" x="112" y="73" /></g></svg>