<?xml version="1.0" encoding="utf-8" ?>
<svg baseProfile="full" height="1000px" version="1.1" width="600px" xmlns="http://www.w3.org/2000/svg" xmlns:ev="http://www.w3.org/2001/xml-events" xmlns:xlink="http://www.w3.org/1999/xlink"><defs /><rect fill="white" height="100%" width="100%" x="0" y="0" /><text font-family="Arial" font-size="24" text-anchor="middle" x="300" y="40">Visual Figure Ground Test</text><text font-family="Arial" font-size="18" text-anchor="middle" x="300" y="80">Target Pattern</text><g transform="translate(200,100)"><circle cx="149" cy="49" fill="none" r="25.0" stroke="black" stroke-width="2" /><polygon fill="none" points="92,168 140,168 116.0,120" stroke="black" stroke-width="2" transform="rotate(336,116.0,144.0)" /><rect fill="none" height="46" stroke="black" stroke-width="2" transform="rotate(261,171.0,123.0)" width="46" x="148" y="100" /><circle cx="37" cy="43" fill="none" r="15.0" stroke="black" stroke-width="2" /><polygon fill="none" points="12,80 58,80 35.0,34" stroke="black" stroke-width="2" transform="rotate(243,35.0,57.0)" /><rect fill="none" height="33" stroke="black" stroke-width="2" transform="rotate(170,35.5,50.5)" width="33" x="19" y="34" /></g><text font-family="Arial" font-size="18" text-anchor="middle" x="300" y="350">Options</text><circle cx="38" cy="175" fill="black" r="2" stroke="none" transform="translate(100,400)" /><line stroke="black" stroke-width="1" transform="translate(100,400)" x1="137" x2="139.7731807293972" y1="163" y2="169.8629173868723" /><circle cx="154" cy="56" fill="black" r="2" stroke="none" transform="translate(100,400)" /><line stroke="black" stroke-width="1" transform="translate(100,400)" x1="151" x2="154.6823235590749" y1="31" y2="34.120611709119025" /><circle cx="180" cy="45" fill="black" r="3" stroke="none" transform="translate(100,400)" /><rect fill="none" height="8" stroke="black" stroke-width="1" transform="translate(100,400)" width="9" x="143" y="126" /><line stroke="black" stroke-width="1" transform="translate(100,400)" x1="175" x2="176.3490946019365" y1="157" y2="167.23125427195777" /><line stroke="black" stroke-width="1" transform="translate(100,400)" x1="18" x2="29.932893098281113" y1="95" y2="97.59069029868043" /><line stroke="black" stroke-width="1" transform="translate(100,400)" x1="93" x2="111.95929445583106" y1="39" y2="52.727998833772595" /><rect fill="none" height="4" stroke="black" stroke-width="1" transform="translate(100,400)" width="9" x="99" y="149" /><rect fill="none" height="4" stroke="black" stroke-width="1" transform="translate(100,400)" width="10" x="116" y="30" /><line stroke="black" stroke-width="1" transform="translate(100,400)" x1="98" x2="98.86644660051037" y1="75" y2="78.8100702711054" /><rect fill="none" height="6" stroke="black" stroke-width="1" transform="translate(100,400)" width="11" x="128" y="128" /><circle cx="158" cy="149" fill="black" r="2" stroke="none" transform="translate(100,400)" /><line stroke="black" stroke-width="1" transform="translate(100,400)" x1="21" x2="24.63177731747187" y1="113" y2="114.72786216907627" /><line stroke="black" stroke-width="1" transform="translate(100,400)" x1="140" x2="149.36442494159706" y1="129" y2="129.02841126694543" /><line stroke="black" stroke-width="1" transform="translate(100,400)" x1="66" x2="76.56851450079641" y1="156" y2="157.6233555084076" /><circle cx="176" cy="68" fill="black" r="2" stroke="none" transform="translate(100,400)" /><circle cx="75" cy="44" fill="black" r="3" stroke="none" transform="translate(100,400)" /><circle cx="67" cy="32" fill="black" r="2" stroke="none" transform="translate(100,400)" /><circle cx="133" cy="83" fill="black" r="1" stroke="none" transform="translate(100,400)" /><circle cx="19" cy="92" fill="black" r="3" stroke="none" transform="translate(100,400)" /><line stroke="black" stroke-width="1" transform="translate(100,400)" x1="142" x2="149.18744484251064" y1="25" y2="26.581904862857957" /><rect fill="none" height="5" stroke="black" stroke-width="1" transform="translate(100,400)" width="8" x="148" y="127" /><line stroke="black" stroke-width="1" transform="translate(100,400)" x1="57" x2="58.832055548247986" y1="107" y2="109.66651067104466" /><rect fill="none" height="4" stroke="black" stroke-width="1" transform="translate(100,400)" width="13" x="134" y="39" /><line stroke="black" stroke-width="1" transform="translate(100,400)" x1="35" x2="39.094581860315564" y1="71" y2="74.91571723688666" /><line stroke="black" stroke-width="1" transform="translate(100,400)" x1="152" x2="164.5280288921192" y1="20" y2="30.725792105556977" /><line stroke="black" stroke-width="1" transform="translate(100,400)" x1="66" x2="83.49153387066539" y1="144" y2="144.04464850839003" /><line stroke="black" stroke-width="1" transform="translate(100,400)" x1="150" x2="152.4713377040719" y1="156" y2="162.35566903566226" /><rect fill="none" height="10" stroke="black" stroke-width="1" transform="translate(100,400)" width="11" x="161" y="128" /><circle cx="166" cy="67" fill="black" r="3" stroke="none" transform="translate(100,400)" /><rect fill="none" height="12" stroke="black" stroke-width="1" transform="translate(100,400)" width="9" x="152" y="160" /><circle cx="120" cy="162" fill="black" r="2" stroke="none" transform="translate(100,400)" /><line stroke="black" stroke-width="1" transform="translate(100,400)" x1="60" x2="65.96206777530296" y1="88" y2="95.65884115948793" /><line stroke="black" stroke-width="1" transform="translate(100,400)" x1="37" x2="43.91438372596451" y1="47" y2="52.96360803433047" /><rect fill="none" height="13" stroke="black" stroke-width="1" transform="translate(100,400)" width="8" x="48" y="130" /><line stroke="black" stroke-width="1" transform="translate(100,400)" x1="78" x2="81.29563814788388" y1="145" y2="153.7377993799184" /><rect fill="none" height="6" stroke="black" stroke-width="1" transform="translate(100,400)" width="4" x="76" y="91" /><rect fill="none" height="3" stroke="black" stroke-width="1" transform="translate(100,400)" width="13" x="179" y="164" /><text font-family="Arial" font-size="14" text-anchor="middle" x="175" y="380">Option 1</text><g transform="translate(100,400)"><circle cx="149" cy="49" fill="none" r="25.0" stroke="black" stroke-width="2" /><polygon fill="none" points="92,168 140,168 116.0,120" stroke="black" stroke-width="2" transform="rotate(353.76778340800433,116.0,144.0)" /><rect fill="none" height="46" stroke="black" stroke-width="2" transform="rotate(278.76778340800433,171.0,123.0)" width="46" x="148" y="100" /><circle cx="37" cy="43" fill="none" r="15.0" stroke="black" stroke-width="2" /><polygon fill="none" points="12,80 58,80 35.0,34" stroke="black" stroke-width="2" transform="rotate(260.76778340800433,35.0,57.0)" /><rect fill="none" height="33" stroke="black" stroke-width="2" transform="rotate(187.76778340800436,35.5,50.5)" width="33" x="19" y="34" /></g><circle cx="81" cy="117" fill="black" r="1" stroke="none" transform="translate(350,400)" /><line stroke="black" stroke-width="1" transform="translate(350,400)" x1="52" x2="77.7527896443836" y1="168" y2="175.46191709072738" /><circle cx="165" cy="166" fill="black" r="2" stroke="none" transform="translate(350,400)" /><line stroke="black" stroke-width="1" transform="translate(350,400)" x1="33" x2="33.580743297812916" y1="59" y2="59.29187874813824" /><line stroke="black" stroke-width="1" transform="translate(350,400)" x1="10" x2="20.2989123725209" y1="86" y2="98.46407144233129" /><rect fill="none" height="6" stroke="black" stroke-width="1" transform="translate(350,400)" width="3" x="88" y="95" /><line stroke="black" stroke-width="1" transform="translate(350,400)" x1="137" x2="140.51911364273207" y1="101" y2="103.03618525874678" /><rect fill="none" height="8" stroke="black" stroke-width="1" transform="translate(350,400)" width="9" x="47" y="164" /><circle cx="17" cy="52" fill="black" r="3" stroke="none" transform="translate(350,400)" /><circle cx="109" cy="35" fill="black" r="2" stroke="none" transform="translate(350,400)" /><circle cx="159" cy="135" fill="black" r="3" stroke="none" transform="translate(350,400)" /><rect fill="none" height="4" stroke="black" stroke-width="1" transform="translate(350,400)" width="14" x="172" y="121" /><rect fill="none" height="12" stroke="black" stroke-width="1" transform="translate(350,400)" width="10" x="36" y="177" /><line stroke="black" stroke-width="1" transform="translate(350,400)" x1="46" x2="49.63607184898606" y1="139" y2="142.91069069780877" /><line stroke="black" stroke-width="1" transform="translate(350,400)" x1="73" x2="74.8391977811234" y1="32" y2="33.424379958380804" /><line stroke="black" stroke-width="1" transform="translate(350,400)" x1="150" x2="157.13230242557356" y1="95" y2="95.34331332266059" /><line stroke="black" stroke-width="1" transform="translate(350,400)" x1="17" x2="22.05623752996356" y1="125" y2="126.52840431571518" /><rect fill="none" height="4" stroke="black" stroke-width="1" transform="translate(350,400)" width="12" x="50" y="164" /><rect fill="none" height="4" stroke="black" stroke-width="1" transform="translate(350,400)" width="3" x="159" y="40" /><line stroke="black" stroke-width="1" transform="translate(350,400)" x1="19" x2="29.918063836220227" y1="51" y2="53.16044144471604" /><line stroke="black" stroke-width="1" transform="translate(350,400)" x1="121" x2="136.40645223596383" y1="170" y2="174.8696089948453" /><circle cx="178" cy="31" fill="black" r="2" stroke="none" transform="translate(350,400)" /><rect fill="none" height="3" stroke="black" stroke-width="1" transform="translate(350,400)" width="5" x="53" y="66" /><circle cx="160" cy="71" fill="black" r="2" stroke="none" transform="translate(350,400)" /><rect fill="none" height="14" stroke="black" stroke-width="1" transform="translate(350,400)" width="15" x="33" y="138" /><line stroke="black" stroke-width="1" transform="translate(350,400)" x1="63" x2="90.86705195290041" y1="37" y2="59.81160059937644" /><circle cx="10" cy="26" fill="black" r="1" stroke="none" transform="translate(350,400)" /><line stroke="black" stroke-width="1" transform="translate(350,400)" x1="94" x2="111.57727464206926" y1="46" y2="66.43276725553132" /><circle cx="58" cy="103" fill="black" r="3" stroke="none" transform="translate(350,400)" /><rect fill="none" height="10" stroke="black" stroke-width="1" transform="translate(350,400)" width="13" x="145" y="122" /><rect fill="none" height="10" stroke="black" stroke-width="1" transform="translate(350,400)" width="12" x="167" y="163" /><line stroke="black" stroke-width="1" transform="translate(350,400)" x1="17" x2="25.04539659082971" y1="121" y2="126.54316345449665" /><line stroke="black" stroke-width="1" transform="translate(350,400)" x1="77" x2="80.20438984373293" y1="109" y2="118.88932115645977" /><rect fill="none" height="13" stroke="black" stroke-width="1" transform="translate(350,400)" width="6" x="166" y="137" /><line stroke="black" stroke-width="1" transform="translate(350,400)" x1="128" x2="133.45871686904377" y1="42" y2="46.8596338947502" /><line stroke="black" stroke-width="1" transform="translate(350,400)" x1="160" x2="161.60881530281824" y1="174" y2="178.07477178773843" /><circle cx="12" cy="43" fill="black" r="1" stroke="none" transform="translate(350,400)" /><rect fill="none" height="5" stroke="black" stroke-width="1" transform="translate(350,400)" width="3" x="50" y="156" /><circle cx="178" cy="86" fill="black" r="1" stroke="none" transform="translate(350,400)" /><line stroke="black" stroke-width="1" transform="translate(350,400)" x1="153" x2="154.6381534658278" y1="115" y2="116.09535327662331" /><text font-family="Arial" font-size="14" text-anchor="middle" x="425" y="380">Option 2</text><g transform="translate(350,400)"><circle cx="149" cy="49" fill="none" r="25.0" stroke="black" stroke-width="2" /><polygon fill="none" points="92,168 140,168 116.0,120" stroke="black" stroke-width="2" transform="rotate(336,116.0,144.0)" /><rect fill="none" height="46" stroke="black" stroke-width="2" transform="rotate(261,171.0,123.0)" width="46" x="148" y="100" /><circle cx="37" cy="43" fill="none" r="15.0" stroke="black" stroke-width="2" /><polygon fill="none" points="12,80 58,80 35.0,34" stroke="black" stroke-width="2" transform="rotate(243,35.0,57.0)" /><rect fill="none" height="33" stroke="black" stroke-width="2" transform="rotate(170,35.5,50.5)" width="33" x="19" y="34" /></g><circle cx="44" cy="160" fill="black" r="3" stroke="none" transform="translate(100,650)" /><line stroke="black" stroke-width="1" transform="translate(100,650)" x1="58" x2="63.6598995071369" y1="101" y2="117.06480752321207" /><rect fill="none" height="9" stroke="black" stroke-width="1" transform="translate(100,650)" width="9" x="133" y="123" /><circle cx="75" cy="128" fill="black" r="3" stroke="none" transform="translate(100,650)" /><rect fill="none" height="8" stroke="black" stroke-width="1" transform="translate(100,650)" width="13" x="115" y="70" /><rect fill="none" height="14" stroke="black" stroke-width="1" transform="translate(100,650)" width="4" x="128" y="72" /><line stroke="black" stroke-width="1" transform="translate(100,650)" x1="103" x2="111.47283771329592" y1="137" y2="154.60303737644205" /><line stroke="black" stroke-width="1" transform="translate(100,650)" x1="174" x2="184.09612548201417" y1="169" y2="178.03245044176376" /><line stroke="black" stroke-width="1" transform="translate(100,650)" x1="69" x2="76.82571916505934" y1="126" y2="141.83533012251064" /><circle cx="89" cy="74" fill="black" r="1" stroke="none" transform="translate(100,650)" /><rect fill="none" height="15" stroke="black" stroke-width="1" transform="translate(100,650)" width="10" x="165" y="156" /><rect fill="none" height="9" stroke="black" stroke-width="1" transform="translate(100,650)" width="13" x="141" y="112" /><rect fill="none" height="3" stroke="black" stroke-width="1" transform="translate(100,650)" width="9" x="122" y="109" /><circle cx="20" cy="77" fill="black" r="3" stroke="none" transform="translate(100,650)" /><line stroke="black" stroke-width="1" transform="translate(100,650)" x1="72" x2="94.62892823067702" y1="154" y2="172.14082771212168" /><circle cx="38" cy="149" fill="black" r="2" stroke="none" transform="translate(100,650)" /><rect fill="none" height="3" stroke="black" stroke-width="1" transform="translate(100,650)" width="8" x="180" y="120" /><rect fill="none" height="15" stroke="black" stroke-width="1" transform="translate(100,650)" width="12" x="23" y="119" /><circle cx="97" cy="94" fill="black" r="1" stroke="none" transform="translate(100,650)" /><line stroke="black" stroke-width="1" transform="translate(100,650)" x1="41" x2="60.02370807635562" y1="72" y2="79.9581807261101" /><line stroke="black" stroke-width="1" transform="translate(100,650)" x1="62" x2="85.62938309930801" y1="54" y2="61.223501881162846" /><line stroke="black" stroke-width="1" transform="translate(100,650)" x1="111" x2="111.32024649902321" y1="106" y2="106.76214000511033" /><circle cx="101" cy="74" fill="black" r="2" stroke="none" transform="translate(100,650)" /><circle cx="35" cy="38" fill="black" r="1" stroke="none" transform="translate(100,650)" /><rect fill="none" height="3" stroke="black" stroke-width="1" transform="translate(100,650)" width="10" x="65" y="102" /><circle cx="179" cy="55" fill="black" r="3" stroke="none" transform="translate(100,650)" /><rect fill="none" height="6" stroke="black" stroke-width="1" transform="translate(100,650)" width="9" x="47" y="139" /><line stroke="black" stroke-width="1" transform="translate(100,650)" x1="66" x2="70.65358174097679" y1="142" y2="142.31651400603238" /><circle cx="22" cy="153" fill="black" r="2" stroke="none" transform="translate(100,650)" /><line stroke="black" stroke-width="1" transform="translate(100,650)" x1="84" x2="109.23168814888437" y1="127" y2="151.7302929147466" /><rect fill="none" height="10" stroke="black" stroke-width="1" transform="translate(100,650)" width="5" x="22" y="87" /><line stroke="black" stroke-width="1" transform="translate(100,650)" x1="122" x2="148.21322152196518" y1="52" y2="74.9416833544557" /><rect fill="none" height="8" stroke="black" stroke-width="1" transform="translate(100,650)" width="6" x="110" y="30" /><line stroke="black" stroke-width="1" transform="translate(100,650)" x1="129" x2="135.4380491859667" y1="143" y2="162.93310595586692" /><circle cx="135" cy="125" fill="black" r="1" stroke="none" transform="translate(100,650)" /><rect fill="none" height="7" stroke="black" stroke-width="1" transform="translate(100,650)" width="9" x="61" y="70" /><line stroke="black" stroke-width="1" transform="translate(100,650)" x1="64" x2="67.47136558182994" y1="135" y2="144.8956198879468" /><line stroke="black" stroke-width="1" transform="translate(100,650)" x1="170" x2="180.7998884068418" y1="19" y2="34.852452502692834" /><line stroke="black" stroke-width="1" transform="translate(100,650)" x1="37" x2="53.281082021375454" y1="55" y2="64.4614765768583" /><circle cx="23" cy="52" fill="black" r="1" stroke="none" transform="translate(100,650)" /><text font-family="Arial" font-size="14" text-anchor="middle" x="175" y="630">Option 3</text><g transform="translate(100,650)"><circle cx="149" cy="49" fill="none" r="25.0" stroke="black" stroke-width="2" /><polygon fill="none" points="92,168 140,168 116.0,120" stroke="black" stroke-width="2" transform="rotate(316.68536446477583,116.0,144.0)" /><rect fill="none" height="46" stroke="black" stroke-width="2" transform="rotate(241.68536446477583,171.0,123.0)" width="46" x="148" y="100" /><circle cx="15" cy="148" fill="none" r="15.0" stroke="black" stroke-width="2" /><polygon fill="none" points="12,80 58,80 35.0,34" stroke="black" stroke-width="2" transform="rotate(223.68536446477583,35.0,57.0)" /><rect fill="none" height="33" stroke="black" stroke-width="2" transform="rotate(150.68536446477583,35.5,50.5)" width="33" x="19" y="34" /></g><circle cx="108" cy="38" fill="black" r="3" stroke="none" transform="translate(350,650)" /><rect fill="none" height="11" stroke="black" stroke-width="1" transform="translate(350,650)" width="8" x="137" y="41" /><line stroke="black" stroke-width="1" transform="translate(350,650)" x1="20" x2="35.330938764124525" y1="82" y2="94.65622596975368" /><rect fill="none" height="9" stroke="black" stroke-width="1" transform="translate(350,650)" width="10" x="67" y="154" /><circle cx="162" cy="170" fill="black" r="2" stroke="none" transform="translate(350,650)" /><line stroke="black" stroke-width="1" transform="translate(350,650)" x1="119" x2="119.2848136626255" y1="180" y2="202.87702970138974" /><line stroke="black" stroke-width="1" transform="translate(350,650)" x1="30" x2="35.122792360362794" y1="26" y2="27.510007291910277" /><rect fill="none" height="6" stroke="black" stroke-width="1" transform="translate(350,650)" width="4" x="169" y="165" /><circle cx="25" cy="69" fill="black" r="2" stroke="none" transform="translate(350,650)" /><line stroke="black" stroke-width="1" transform="translate(350,650)" x1="142" x2="152.9678794806993" y1="121" y2="125.46750957053315" /><rect fill="none" height="6" stroke="black" stroke-width="1" transform="translate(350,650)" width="12" x="112" y="63" /><rect fill="none" height="9" stroke="black" stroke-width="1" transform="translate(350,650)" width="7" x="163" y="29" /><circle cx="60" cy="161" fill="black" r="1" stroke="none" transform="translate(350,650)" /><rect fill="none" height="4" stroke="black" stroke-width="1" transform="translate(350,650)" width="12" x="17" y="35" /><rect fill="none" height="14" stroke="black" stroke-width="1" transform="translate(350,650)" width="13" x="132" y="128" /><line stroke="black" stroke-width="1" transform="translate(350,650)" x1="162" x2="182.28035109948098" y1="100" y2="121.86253932811528" /><circle cx="129" cy="109" fill="black" r="3" stroke="none" transform="translate(350,650)" /><line stroke="black" stroke-width="1" transform="translate(350,650)" x1="33" x2="55.137325678516106" y1="34" y2="51.61263998268308" /><line stroke="black" stroke-width="1" transform="translate(350,650)" x1="13" x2="17.65963137430335" y1="35" y2="47.43624269413636" /><rect fill="none" height="9" stroke="black" stroke-width="1" transform="translate(350,650)" width="10" x="109" y="30" /><line stroke="black" stroke-width="1" transform="translate(350,650)" x1="158" x2="161.1688927486374" y1="33" y2="35.25727700635058" /><circle cx="45" cy="140" fill="black" r="1" stroke="none" transform="translate(350,650)" /><rect fill="none" height="3" stroke="black" stroke-width="1" transform="translate(350,650)" width="10" x="172" y="78" /><circle cx="170" cy="40" fill="black" r="3" stroke="none" transform="translate(350,650)" /><rect fill="none" height="5" stroke="black" stroke-width="1" transform="translate(350,650)" width="12" x="134" y="26" /><line stroke="black" stroke-width="1" transform="translate(350,650)" x1="16" x2="22.89200515052219" y1="36" y2="44.75786788920274" /><line stroke="black" stroke-width="1" transform="translate(350,650)" x1="50" x2="72.26545644450658" y1="21" y2="43.34311403036976" /><line stroke="black" stroke-width="1" transform="translate(350,650)" x1="54" x2="59.79670371610538" y1="163" y2="170.08613983645662" /><rect fill="none" height="7" stroke="black" stroke-width="1" transform="translate(350,650)" width="15" x="70" y="95" /><line stroke="black" stroke-width="1" transform="translate(350,650)" x1="128" x2="132.59295862094314" y1="17" y2="23.79990044114457" /><line stroke="black" stroke-width="1" transform="translate(350,650)" x1="63" x2="66.34041857537576" y1="22" y2="30.014650631890657" /><line stroke="black" stroke-width="1" transform="translate(350,650)" x1="141" x2="143.61020900842735" y1="26" y2="30.214905298918797" /><circle cx="103" cy="14" fill="black" r="3" stroke="none" transform="translate(350,650)" /><circle cx="147" cy="160" fill="black" r="2" stroke="none" transform="translate(350,650)" /><rect fill="none" height="14" stroke="black" stroke-width="1" transform="translate(350,650)" width="11" x="158" y="84" /><line stroke="black" stroke-width="1" transform="translate(350,650)" x1="27" x2="31.4176293176892" y1="153" y2="159.85042225081895" /><circle cx="159" cy="166" fill="black" r="2" stroke="none" transform="translate(350,650)" /><line stroke="black" stroke-width="1" transform="translate(350,650)" x1="138" x2="146.42691466714334" y1="156" y2="169.35275785125205" /><circle cx="59" cy="22" fill="black" r="1" stroke="none" transform="translate(350,650)" /><rect fill="none" height="7" stroke="black" stroke-width="1" transform="translate(350,650)" width="11" x="77" y="171" /><text font-family="Arial" font-size="14" text-anchor="middle" x="425" y="630">Option 4</text><g transform="translate(350,650)"><circle cx="149" cy="49" fill="none" r="25.0" stroke="black" stroke-width="2" /><polygon fill="none" points="92,168 140,168 116.0,120" stroke="black" stroke-width="2" transform="rotate(319.9013723779626,116.0,144.0)" /><rect fill="none" height="46" stroke="black" stroke-width="2" transform="rotate(244.9013723779626,171.0,123.0)" width="46" x="148" y="100" /><circle cx="37" cy="43" fill="none" r="15.0" stroke="black" stroke-width="2" /><polygon fill="none" points="12,80 58,80 35.0,34" stroke="black" stroke-width="2" transform="rotate(226.9013723779626,35.0,57.0)" /><rect fill="none" height="33" stroke="black" stroke-width="2" transform="rotate(153.9013723779626,35.5,50.5)" width="33" x="19" y="34" /></g></svg>