<?xml version="1.0" encoding="utf-8" ?>
<svg baseProfile="full" height="1000px" version="1.1" width="600px" xmlns="http://www.w3.org/2000/svg" xmlns:ev="http://www.w3.org/2001/xml-events" xmlns:xlink="http://www.w3.org/1999/xlink"><defs /><rect fill="white" height="100%" width="100%" x="0" y="0" /><text font-family="Arial" font-size="24" text-anchor="middle" x="300" y="40">Visual Figure Ground Test</text><text font-family="Arial" font-size="18" text-anchor="middle" x="300" y="80">Target Pattern</text><g transform="translate(200,100)"><circle cx="39" cy="99" fill="none" r="25.0" stroke="black" stroke-width="2" /><line stroke="black" stroke-width="2" transform="rotate(88,89.0,89.0)" x1="71" x2="107" y1="71" y2="107" /><rect fill="none" height="39" stroke="black" stroke-width="2" transform="rotate(172,31.5,43.5)" width="39" x="12" y="24" /><rect fill="none" height="46" stroke="black" stroke-width="2" transform="rotate(112,107.0,57.0)" width="46" x="84" y="34" /><circle cx="29" cy="141" fill="none" r="22.5" stroke="black" stroke-width="2" /><rect fill="none" height="33" stroke="black" stroke-width="2" transform="rotate(46,70.5,131.5)" width="33" x="54" y="115" /></g><text font-family="Arial" font-size="18" text-anchor="middle" x="300" y="350">Options</text><line stroke="black" stroke-width="1" transform="translate(100,400)" x1="60" x2="70.53674968161089" y1="38" y2="48.1203652332801" /><rect fill="none" height="9" stroke="black" stroke-width="1" transform="translate(100,400)" width="15" x="65" y="61" /><circle cx="51" cy="138" fill="black" r="2" stroke="none" transform="translate(100,400)" /><circle cx="180" cy="131" fill="black" r="1" stroke="none" transform="translate(100,400)" /><line stroke="black" stroke-width="1" transform="translate(100,400)" x1="158" x2="167.2940380936511" y1="122" y2="125.33033957425101" /><rect fill="none" height="5" stroke="black" stroke-width="1" transform="translate(100,400)" width="8" x="77" y="135" /><line stroke="black" stroke-width="1" transform="translate(100,400)" x1="161" x2="168.91236705176354" y1="176" y2="193.3477959418346" /><line stroke="black" stroke-width="1" transform="translate(100,400)" x1="101" x2="102.62047412505133" y1="76" y2="81.35012624750689" /><line stroke="black" stroke-width="1" transform="translate(100,400)" x1="17" x2="20.443689155583584" y1="150" y2="151.38241691984254" /><rect fill="none" height="8" stroke="black" stroke-width="1" transform="translate(100,400)" width="9" x="108" y="16" /><line stroke="black" stroke-width="1" transform="translate(100,400)" x1="42" x2="47.412047301129064" y1="77" y2="93.716945769306" /><line stroke="black" stroke-width="1" transform="translate(100,400)" x1="31" x2="32.8955735077588" y1="173" y2="177.21744441648124" /><circle cx="71" cy="53" fill="black" r="1" stroke="none" transform="translate(100,400)" /><rect fill="none" height="4" stroke="black" stroke-width="1" transform="translate(100,400)" width="10" x="75" y="91" /><line stroke="black" stroke-width="1" transform="translate(100,400)" x1="34" x2="46.49985062989121" y1="173" y2="186.24958887499963" /><circle cx="120" cy="92" fill="black" r="2" stroke="none" transform="translate(100,400)" /><rect fill="none" height="5" stroke="black" stroke-width="1" transform="translate(100,400)" width="10" x="143" y="162" /><line stroke="black" stroke-width="1" transform="translate(100,400)" x1="51" x2="58.53600462316529" y1="142" y2="156.1476296515797" /><circle cx="173" cy="67" fill="black" r="2" stroke="none" transform="translate(100,400)" /><circle cx="16" cy="83" fill="black" r="2" stroke="none" transform="translate(100,400)" /><line stroke="black" stroke-width="1" transform="translate(100,400)" x1="167" x2="175.24486685479445" y1="71" y2="76.46824764577528" /><rect fill="none" height="7" stroke="black" stroke-width="1" transform="translate(100,400)" width="9" x="177" y="168" /><circle cx="144" cy="53" fill="black" r="1" stroke="none" transform="translate(100,400)" /><line stroke="black" stroke-width="1" transform="translate(100,400)" x1="160" x2="169.0239074263817" y1="63" y2="71.4417948198417" /><circle cx="110" cy="13" fill="black" r="1" stroke="none" transform="translate(100,400)" /><circle cx="13" cy="161" fill="black" r="2" stroke="none" transform="translate(100,400)" /><circle cx="70" cy="72" fill="black" r="3" stroke="none" transform="translate(100,400)" /><circle cx="152" cy="117" fill="black" r="2" stroke="none" transform="translate(100,400)" /><line stroke="black" stroke-width="1" transform="translate(100,400)" x1="147" x2="154.92851927979225" y1="68" y2="71.37625623395925" /><line stroke="black" stroke-width="1" transform="translate(100,400)" x1="17" x2="33.638185740665634" y1="105" y2="107.60578385504145" /><line stroke="black" stroke-width="1" transform="translate(100,400)" x1="31" x2="31.69334068233882" y1="170" y2="177.05387313061533" /><rect fill="none" height="6" stroke="black" stroke-width="1" transform="translate(100,400)" width="7" x="176" y="167" /><rect fill="none" height="13" stroke="black" stroke-width="1" transform="translate(100,400)" width="6" x="21" y="121" /><line stroke="black" stroke-width="1" transform="translate(100,400)" x1="128" x2="143.03124333676095" y1="172" y2="176.73402841488473" /><circle cx="166" cy="177" fill="black" r="1" stroke="none" transform="translate(100,400)" /><circle cx="26" cy="75" fill="black" r="1" stroke="none" transform="translate(100,400)" /><circle cx="67" cy="140" fill="black" r="1" stroke="none" transform="translate(100,400)" /><circle cx="74" cy="178" fill="black" r="1" stroke="none" transform="translate(100,400)" /><rect fill="none" height="11" stroke="black" stroke-width="1" transform="translate(100,400)" width="4" x="163" y="37" /><line stroke="black" stroke-width="1" transform="translate(100,400)" x1="100" x2="101.42105930656165" y1="81" y2="95.89461231436586" /><text font-family="Arial" font-size="14" text-anchor="middle" x="175" y="380">Option 1</text><g transform="translate(100,400)"><circle cx="39" cy="99" fill="none" r="25.0" stroke="black" stroke-width="2" /><line stroke="black" stroke-width="2" transform="rotate(105.1521638139022,89.0,89.0)" x1="71" x2="107" y1="71" y2="107" /><rect fill="none" height="39" stroke="black" stroke-width="2" transform="rotate(189.1521638139022,31.5,43.5)" width="39" x="12" y="24" /><rect fill="none" height="46" stroke="black" stroke-width="2" transform="rotate(129.1521638139022,107.0,57.0)" width="46" x="84" y="34" /><circle cx="29" cy="141" fill="none" r="22.5" stroke="black" stroke-width="2" /><rect fill="none" height="33" stroke="black" stroke-width="2" transform="rotate(63.152163813902206,70.5,131.5)" width="33" x="54" y="115" /></g><rect fill="none" height="3" stroke="black" stroke-width="1" transform="translate(350,400)" width="4" x="123" y="125" /><line stroke="black" stroke-width="1" transform="translate(350,400)" x1="93" x2="97.33294388569882" y1="65" y2="69.78542601383342" /><line stroke="black" stroke-width="1" transform="translate(350,400)" x1="40" x2="45.983222846536584" y1="143" y2="147.68256834910719" /><rect fill="none" height="14" stroke="black" stroke-width="1" transform="translate(350,400)" width="12" x="49" y="160" /><line stroke="black" stroke-width="1" transform="translate(350,400)" x1="90" x2="91.7202847207291" y1="116" y2="128.5021700578091" /><line stroke="black" stroke-width="1" transform="translate(350,400)" x1="33" x2="41.92809854761405" y1="105" y2="126.77604071389126" /><circle cx="92" cy="175" fill="black" r="3" stroke="none" transform="translate(350,400)" /><rect fill="none" height="9" stroke="black" stroke-width="1" transform="translate(350,400)" width="3" x="180" y="149" /><line stroke="black" stroke-width="1" transform="translate(350,400)" x1="116" x2="138.94380732872514" y1="109" y2="119.67961672157864" /><circle cx="29" cy="138" fill="black" r="2" stroke="none" transform="translate(350,400)" /><circle cx="40" cy="171" fill="black" r="3" stroke="none" transform="translate(350,400)" /><line stroke="black" stroke-width="1" transform="translate(350,400)" x1="174" x2="196.45190095037418" y1="45" y2="62.611997092763545" /><line stroke="black" stroke-width="1" transform="translate(350,400)" x1="76" x2="79.41289607413184" y1="141" y2="162.46825129435655" /><rect fill="none" height="15" stroke="black" stroke-width="1" transform="translate(350,400)" width="5" x="32" y="25" /><rect fill="none" height="9" stroke="black" stroke-width="1" transform="translate(350,400)" width="5" x="59" y="80" /><circle cx="146" cy="35" fill="black" r="3" stroke="none" transform="translate(350,400)" /><circle cx="26" cy="18" fill="black" r="3" stroke="none" transform="translate(350,400)" /><line stroke="black" stroke-width="1" transform="translate(350,400)" x1="21" x2="28.09496438924136" y1="35" y2="37.313292459550404" /><line stroke="black" stroke-width="1" transform="translate(350,400)" x1="85" x2="97.95456081250211" y1="154" y2="164.88658762131482" /><rect fill="none" height="13" stroke="black" stroke-width="1" transform="translate(350,400)" width="10" x="156" y="99" /><line stroke="black" stroke-width="1" transform="translate(350,400)" x1="12" x2="22.48416949198761" y1="96" y2="110.42932630613859" /><circle cx="91" cy="27" fill="black" r="1" stroke="none" transform="translate(350,400)" /><line stroke="black" stroke-width="1" transform="translate(350,400)" x1="39" x2="40.09906344274893" y1="45" y2="55.203025376352784" /><line stroke="black" stroke-width="1" transform="translate(350,400)" x1="86" x2="96.72308471516435" y1="140" y2="149.06901479862728" /><rect fill="none" height="12" stroke="black" stroke-width="1" transform="translate(350,400)" width="5" x="57" y="151" /><line stroke="black" stroke-width="1" transform="translate(350,400)" x1="136" x2="152.07452371404335" y1="145" y2="162.10504954746094" /><line stroke="black" stroke-width="1" transform="translate(350,400)" x1="21" x2="32.69071724055589" y1="137" y2="147.9654780137546" /><circle cx="71" cy="169" fill="black" r="1" stroke="none" transform="translate(350,400)" /><rect fill="none" height="7" stroke="black" stroke-width="1" transform="translate(350,400)" width="15" x="96" y="121" /><rect fill="none" height="15" stroke="black" stroke-width="1" transform="translate(350,400)" width="9" x="26" y="52" /><rect fill="none" height="13" stroke="black" stroke-width="1" transform="translate(350,400)" width="8" x="42" y="168" /><line stroke="black" stroke-width="1" transform="translate(350,400)" x1="148" x2="150.42980416595495" y1="179" y2="193.54940891708605" /><circle cx="151" cy="81" fill="black" r="3" stroke="none" transform="translate(350,400)" /><rect fill="none" height="15" stroke="black" stroke-width="1" transform="translate(350,400)" width="15" x="54" y="98" /><line stroke="black" stroke-width="1" transform="translate(350,400)" x1="26" x2="32.25330639860415" y1="153" y2="167.7816968631443" /><rect fill="none" height="7" stroke="black" stroke-width="1" transform="translate(350,400)" width="3" x="51" y="20" /><line stroke="black" stroke-width="1" transform="translate(350,400)" x1="20" x2="30.541910845407354" y1="108" y2="117.38007884883703" /><line stroke="black" stroke-width="1" transform="translate(350,400)" x1="171" x2="172.30284302470844" y1="36" y2="38.213438300478366" /><rect fill="none" height="9" stroke="black" stroke-width="1" transform="translate(350,400)" width="3" x="109" y="126" /><circle cx="56" cy="58" fill="black" r="3" stroke="none" transform="translate(350,400)" /><text font-family="Arial" font-size="14" text-anchor="middle" x="425" y="380">Option 2</text><g transform="translate(350,400)"><circle cx="39" cy="99" fill="none" r="25.0" stroke="black" stroke-width="2" /><line stroke="black" stroke-width="2" transform="rotate(71.05109165025,89.0,89.0)" x1="71" x2="107" y1="71" y2="107" /><rect fill="none" height="39" stroke="black" stroke-width="2" transform="rotate(155.05109165025,31.5,43.5)" width="39" x="12" y="24" /><rect fill="none" height="46" stroke="black" stroke-width="2" transform="rotate(95.05109165025,107.0,57.0)" width="46" x="84" y="34" /><circle cx="29" cy="141" fill="none" r="22.5" stroke="black" stroke-width="2" /><rect fill="none" height="33" stroke="black" stroke-width="2" transform="rotate(29.05109165025,70.5,131.5)" width="33" x="54" y="115" /></g><circle cx="150" cy="24" fill="black" r="1" stroke="none" transform="translate(100,650)" /><circle cx="145" cy="60" fill="black" r="3" stroke="none" transform="translate(100,650)" /><line stroke="black" stroke-width="1" transform="translate(100,650)" x1="171" x2="183.12600425700427" y1="179" y2="192.2354565463952" /><circle cx="161" cy="114" fill="black" r="2" stroke="none" transform="translate(100,650)" /><rect fill="none" height="11" stroke="black" stroke-width="1" transform="translate(100,650)" width="10" x="180" y="134" /><line stroke="black" stroke-width="1" transform="translate(100,650)" x1="85" x2="100.76983662746335" y1="22" y2="27.829876114544955" /><line stroke="black" stroke-width="1" transform="translate(100,650)" x1="179" x2="200.4406756272959" y1="74" y2="86.49550707789572" /><rect fill="none" height="15" stroke="black" stroke-width="1" transform="translate(100,650)" width="9" x="170" y="171" /><line stroke="black" stroke-width="1" transform="translate(100,650)" x1="71" x2="86.32966801139712" y1="122" y2="133.3151095905334" /><rect fill="none" height="4" stroke="black" stroke-width="1" transform="translate(100,650)" width="11" x="91" y="104" /><line stroke="black" stroke-width="1" transform="translate(100,650)" x1="142" x2="145.97446814257896" y1="122" y2="124.93410298842248" /><circle cx="19" cy="86" fill="black" r="1" stroke="none" transform="translate(100,650)" /><line stroke="black" stroke-width="1" transform="translate(100,650)" x1="83" x2="95.74342055125042" y1="82" y2="91.61384943920683" /><line stroke="black" stroke-width="1" transform="translate(100,650)" x1="58" x2="65.8639927108191" y1="84" y2="85.90323666261612" /><circle cx="43" cy="111" fill="black" r="3" stroke="none" transform="translate(100,650)" /><circle cx="153" cy="34" fill="black" r="1" stroke="none" transform="translate(100,650)" /><rect fill="none" height="4" stroke="black" stroke-width="1" transform="translate(100,650)" width="6" x="120" y="17" /><rect fill="none" height="15" stroke="black" stroke-width="1" transform="translate(100,650)" width="5" x="30" y="50" /><rect fill="none" height="10" stroke="black" stroke-width="1" transform="translate(100,650)" width="10" x="36" y="49" /><circle cx="28" cy="65" fill="black" r="2" stroke="none" transform="translate(100,650)" /><circle cx="56" cy="125" fill="black" r="1" stroke="none" transform="translate(100,650)" /><line stroke="black" stroke-width="1" transform="translate(100,650)" x1="93" x2="101.625555616405" y1="174" y2="175.7916738488354" /><rect fill="none" height="5" stroke="black" stroke-width="1" transform="translate(100,650)" width="13" x="20" y="178" /><line stroke="black" stroke-width="1" transform="translate(100,650)" x1="89" x2="107.27124525710178" y1="161" y2="185.34054896975067" /><circle cx="108" cy="133" fill="black" r="3" stroke="none" transform="translate(100,650)" /><circle cx="170" cy="129" fill="black" r="3" stroke="none" transform="translate(100,650)" /><circle cx="153" cy="74" fill="black" r="1" stroke="none" transform="translate(100,650)" /><line stroke="black" stroke-width="1" transform="translate(100,650)" x1="131" x2="151.0713599757138" y1="165" y2="191.5023087658707" /><line stroke="black" stroke-width="1" transform="translate(100,650)" x1="87" x2="103.92506063846987" y1="49" y2="51.414689121219" /><circle cx="145" cy="108" fill="black" r="1" stroke="none" transform="translate(100,650)" /><line stroke="black" stroke-width="1" transform="translate(100,650)" x1="178" x2="190.95550586447746" y1="109" y2="119.41333130963677" /><rect fill="none" height="4" stroke="black" stroke-width="1" transform="translate(100,650)" width="15" x="76" y="166" /><line stroke="black" stroke-width="1" transform="translate(100,650)" x1="78" x2="97.90174837092728" y1="100" y2="103.48208140952298" /><line stroke="black" stroke-width="1" transform="translate(100,650)" x1="164" x2="167.79956472151594" y1="59" y2="71.43604390663344" /><line stroke="black" stroke-width="1" transform="translate(100,650)" x1="180" x2="185.06537567496906" y1="156" y2="159.81820320866393" /><circle cx="76" cy="173" fill="black" r="1" stroke="none" transform="translate(100,650)" /><line stroke="black" stroke-width="1" transform="translate(100,650)" x1="156" x2="171.78947882458078" y1="15" y2="25.925314085616527" /><rect fill="none" height="10" stroke="black" stroke-width="1" transform="translate(100,650)" width="4" x="173" y="35" /><rect fill="none" height="9" stroke="black" stroke-width="1" transform="translate(100,650)" width="3" x="174" y="171" /><line stroke="black" stroke-width="1" transform="translate(100,650)" x1="99" x2="100.22320114410272" y1="73" y2="76.70704481948025" /><text font-family="Arial" font-size="14" text-anchor="middle" x="175" y="630">Option 3</text><g transform="translate(100,650)"><circle cx="39" cy="99" fill="none" r="25.0" stroke="black" stroke-width="2" /><line stroke="black" stroke-width="2" transform="rotate(88,89.0,89.0)" x1="71" x2="107" y1="71" y2="107" /><rect fill="none" height="39" stroke="black" stroke-width="2" transform="rotate(172,31.5,43.5)" width="39" x="12" y="24" /><rect fill="none" height="46" stroke="black" stroke-width="2" transform="rotate(112,107.0,57.0)" width="46" x="84" y="34" /><circle cx="29" cy="141" fill="none" r="22.5" stroke="black" stroke-width="2" /><rect fill="none" height="33" stroke="black" stroke-width="2" transform="rotate(46,70.5,131.5)" width="33" x="54" y="115" /></g><line stroke="black" stroke-width="1" transform="translate(350,650)" x1="36" x2="38.99899398738853" y1="51" y2="56.04501273003744" /><circle cx="65" cy="178" fill="black" r="2" stroke="none" transform="translate(350,650)" /><circle cx="95" cy="119" fill="black" r="3" stroke="none" transform="translate(350,650)" /><line stroke="black" stroke-width="1" transform="translate(350,650)" x1="158" x2="166.54823523147525" y1="35" y2="47.17338147786346" /><line stroke="black" stroke-width="1" transform="translate(350,650)" x1="127" x2="154.08103590794434" y1="66" y2="67.35441229693751" /><rect fill="none" height="10" stroke="black" stroke-width="1" transform="translate(350,650)" width="10" x="43" y="126" /><line stroke="black" stroke-width="1" transform="translate(350,650)" x1="53" x2="74.228411179446" y1="85" y2="105.94571307474827" /><line stroke="black" stroke-width="1" transform="translate(350,650)" x1="170" x2="176.2910669802216" y1="24" y2="42.161715009333776" /><rect fill="none" height="7" stroke="black" stroke-width="1" transform="translate(350,650)" width="4" x="153" y="57" /><circle cx="135" cy="154" fill="black" r="1" stroke="none" transform="translate(350,650)" /><line stroke="black" stroke-width="1" transform="translate(350,650)" x1="128" x2="128.3970935753172" y1="153" y2="157.35375229113797" /><rect fill="none" height="8" stroke="black" stroke-width="1" transform="translate(350,650)" width="15" x="76" y="170" /><circle cx="129" cy="138" fill="black" r="2" stroke="none" transform="translate(350,650)" /><rect fill="none" height="3" stroke="black" stroke-width="1" transform="translate(350,650)" width="4" x="112" y="35" /><rect fill="none" height="14" stroke="black" stroke-width="1" transform="translate(350,650)" width="12" x="28" y="138" /><circle cx="152" cy="36" fill="black" r="1" stroke="none" transform="translate(350,650)" /><line stroke="black" stroke-width="1" transform="translate(350,650)" x1="37" x2="37.35577946133432" y1="180" y2="181.954091667711" /><rect fill="none" height="12" stroke="black" stroke-width="1" transform="translate(350,650)" width="8" x="88" y="169" /><rect fill="none" height="13" stroke="black" stroke-width="1" transform="translate(350,650)" width="8" x="74" y="17" /><circle cx="11" cy="15" fill="black" r="3" stroke="none" transform="translate(350,650)" /><line stroke="black" stroke-width="1" transform="translate(350,650)" x1="74" x2="86.91815834022651" y1="10" y2="16.907944243076653" /><circle cx="132" cy="91" fill="black" r="1" stroke="none" transform="translate(350,650)" /><circle cx="105" cy="60" fill="black" r="3" stroke="none" transform="translate(350,650)" /><rect fill="none" height="15" stroke="black" stroke-width="1" transform="translate(350,650)" width="9" x="151" y="44" /><line stroke="black" stroke-width="1" transform="translate(350,650)" x1="150" x2="154.3631614455824" y1="41" y2="48.10000760152808" /><rect fill="none" height="4" stroke="black" stroke-width="1" transform="translate(350,650)" width="4" x="114" y="170" /><rect fill="none" height="14" stroke="black" stroke-width="1" transform="translate(350,650)" width="11" x="78" y="32" /><circle cx="27" cy="90" fill="black" r="2" stroke="none" transform="translate(350,650)" /><circle cx="52" cy="14" fill="black" r="1" stroke="none" transform="translate(350,650)" /><circle cx="143" cy="84" fill="black" r="3" stroke="none" transform="translate(350,650)" /><rect fill="none" height="8" stroke="black" stroke-width="1" transform="translate(350,650)" width="4" x="160" y="165" /><line stroke="black" stroke-width="1" transform="translate(350,650)" x1="86" x2="92.50403340548685" y1="143" y2="148.1845578303775" /><rect fill="none" height="15" stroke="black" stroke-width="1" transform="translate(350,650)" width="8" x="45" y="41" /><circle cx="124" cy="69" fill="black" r="1" stroke="none" transform="translate(350,650)" /><line stroke="black" stroke-width="1" transform="translate(350,650)" x1="49" x2="50.58444642989013" y1="77" y2="78.78370927073013" /><circle cx="48" cy="118" fill="black" r="1" stroke="none" transform="translate(350,650)" /><circle cx="84" cy="111" fill="black" r="2" stroke="none" transform="translate(350,650)" /><line stroke="black" stroke-width="1" transform="translate(350,650)" x1="24" x2="29.71625326001571" y1="177" y2="180.9032935697936" /><rect fill="none" height="9" stroke="black" stroke-width="1" transform="translate(350,650)" width="13" x="89" y="115" /><line stroke="black" stroke-width="1" transform="translate(350,650)" x1="103" x2="103.35196881209382" y1="179" y2="181.03319718003254" /><text font-family="Arial" font-size="14" text-anchor="middle" x="425" y="630">Option 4</text><g transform="translate(350,650)"><circle cx="39" cy="99" fill="none" r="25.0" stroke="black" stroke-width="2" /><line stroke="black" stroke-width="2" transform="rotate(88,89.0,89.0)" x1="71" x2="107" y1="71" y2="107" /><rect fill="none" height="39" stroke="black" stroke-width="2" transform="rotate(172,31.5,43.5)" width="39" x="12" y="24" /><rect fill="none" height="46" stroke="black" stroke-width="2" transform="rotate(112,107.0,57.0)" width="46" x="84" y="34" /><circle cx="29" cy="141" fill="none" r="22.5" stroke="black" stroke-width="2" /><rect fill="none" height="33" stroke="black" stroke-width="2" transform="rotate(46,149.5,130.5)" width="33" x="133" y="114" /></g></svg>