<?xml version="1.0" encoding="utf-8" ?>
<svg baseProfile="full" height="1000px" version="1.1" width="600px" xmlns="http://www.w3.org/2000/svg" xmlns:ev="http://www.w3.org/2001/xml-events" xmlns:xlink="http://www.w3.org/1999/xlink"><defs /><rect fill="white" height="100%" width="100%" x="0" y="0" /><text font-family="Arial" font-size="24" text-anchor="middle" x="300" y="40">Visual Figure Ground Test</text><text font-family="Arial" font-size="18" text-anchor="middle" x="300" y="80">Target Pattern</text><g transform="translate(200,100)"><circle cx="145" cy="148" fill="none" r="21.5" stroke="black" stroke-width="2" /><circle cx="88" cy="23" fill="none" r="24.0" stroke="black" stroke-width="2" /><polygon fill="none" points="33,91 76,91 54.5,48" stroke="black" stroke-width="2" transform="rotate(295,54.5,69.5)" /><polygon fill="none" points="47,177 81,177 64.0,143" stroke="black" stroke-width="2" transform="rotate(191,64.0,160.0)" /><line stroke="black" stroke-width="2" transform="rotate(19,158.5,104.5)" x1="137" x2="180" y1="83" y2="126" /><rect fill="none" height="48" stroke="black" stroke-width="2" transform="rotate(230,92.0,49.0)" width="48" x="68" y="25" /></g><text font-family="Arial" font-size="18" text-anchor="middle" x="300" y="350">Options</text><line stroke="black" stroke-width="1" transform="translate(100,400)" x1="153" x2="156.3338155174783" y1="73" y2="75.50755777117622" /><circle cx="85" cy="98" fill="black" r="2" stroke="none" transform="translate(100,400)" /><rect fill="none" height="3" stroke="black" stroke-width="1" transform="translate(100,400)" width="10" x="100" y="13" /><rect fill="none" height="3" stroke="black" stroke-width="1" transform="translate(100,400)" width="6" x="141" y="119" /><circle cx="36" cy="100" fill="black" r="1" stroke="none" transform="translate(100,400)" /><circle cx="35" cy="97" fill="black" r="1" stroke="none" transform="translate(100,400)" /><circle cx="114" cy="74" fill="black" r="2" stroke="none" transform="translate(100,400)" /><rect fill="none" height="10" stroke="black" stroke-width="1" transform="translate(100,400)" width="4" x="140" y="165" /><line stroke="black" stroke-width="1" transform="translate(100,400)" x1="50" x2="55.8443883189952" y1="84" y2="89.01596458433185" /><circle cx="127" cy="94" fill="black" r="1" stroke="none" transform="translate(100,400)" /><line stroke="black" stroke-width="1" transform="translate(100,400)" x1="116" x2="128.992729256919" y1="105" y2="121.81303930358648" /><line stroke="black" stroke-width="1" transform="translate(100,400)" x1="13" x2="32.05013832069089" y1="179" y2="185.71537752339987" /><line stroke="black" stroke-width="1" transform="translate(100,400)" x1="37" x2="58.95712988867182" y1="21" y2="38.05580800637233" /><rect fill="none" height="4" stroke="black" stroke-width="1" transform="translate(100,400)" width="11" x="161" y="171" /><circle cx="112" cy="137" fill="black" r="2" stroke="none" transform="translate(100,400)" /><circle cx="100" cy="15" fill="black" r="1" stroke="none" transform="translate(100,400)" /><circle cx="68" cy="13" fill="black" r="2" stroke="none" transform="translate(100,400)" /><line stroke="black" stroke-width="1" transform="translate(100,400)" x1="100" x2="103.38405647909705" y1="60" y2="76.17677966723922" /><circle cx="85" cy="97" fill="black" r="2" stroke="none" transform="translate(100,400)" /><line stroke="black" stroke-width="1" transform="translate(100,400)" x1="10" x2="33.93470497325296" y1="34" y2="47.02450194826844" /><line stroke="black" stroke-width="1" transform="translate(100,400)" x1="91" x2="95.35949370355016" y1="69" y2="77.7937230735721" /><line stroke="black" stroke-width="1" transform="translate(100,400)" x1="74" x2="76.24455206685978" y1="158" y2="167.4117349968323" /><circle cx="62" cy="128" fill="black" r="2" stroke="none" transform="translate(100,400)" /><circle cx="52" cy="87" fill="black" r="3" stroke="none" transform="translate(100,400)" /><line stroke="black" stroke-width="1" transform="translate(100,400)" x1="110" x2="133.9951603766363" y1="126" y2="131.9922827052206" /><circle cx="79" cy="100" fill="black" r="3" stroke="none" transform="translate(100,400)" /><line stroke="black" stroke-width="1" transform="translate(100,400)" x1="13" x2="15.368327656828466" y1="29" y2="42.47119950559956" /><line stroke="black" stroke-width="1" transform="translate(100,400)" x1="160" x2="162.5325206717159" y1="128" y2="138.5518997130802" /><rect fill="none" height="13" stroke="black" stroke-width="1" transform="translate(100,400)" width="14" x="116" y="142" /><circle cx="31" cy="105" fill="black" r="2" stroke="none" transform="translate(100,400)" /><circle cx="179" cy="113" fill="black" r="3" stroke="none" transform="translate(100,400)" /><line stroke="black" stroke-width="1" transform="translate(100,400)" x1="19" x2="37.92970679292007" y1="132" y2="149.95695792948862" /><circle cx="67" cy="135" fill="black" r="3" stroke="none" transform="translate(100,400)" /><line stroke="black" stroke-width="1" transform="translate(100,400)" x1="53" x2="56.220510667992805" y1="61" y2="63.43601228031284" /><rect fill="none" height="9" stroke="black" stroke-width="1" transform="translate(100,400)" width="4" x="178" y="174" /><rect fill="none" height="8" stroke="black" stroke-width="1" transform="translate(100,400)" width="9" x="113" y="47" /><circle cx="103" cy="61" fill="black" r="3" stroke="none" transform="translate(100,400)" /><circle cx="66" cy="162" fill="black" r="2" stroke="none" transform="translate(100,400)" /><line stroke="black" stroke-width="1" transform="translate(100,400)" x1="124" x2="151.61577321651401" y1="143" y2="159.18308847478724" /><line stroke="black" stroke-width="1" transform="translate(100,400)" x1="154" x2="163.2091419243753" y1="163" y2="163.2421513359654" /><text font-family="Arial" font-size="14" text-anchor="middle" x="175" y="380">Option 1</text><g transform="translate(100,400)"><circle cx="145" cy="148" fill="none" r="21.5" stroke="black" stroke-width="2" /><circle cx="88" cy="23" fill="none" r="24.0" stroke="black" stroke-width="2" /><polygon fill="none" points="33,91 76,91 54.5,48" stroke="black" stroke-width="2" transform="rotate(295,54.5,69.5)" /><polygon fill="none" points="47,177 81,177 64.0,143" stroke="black" stroke-width="2" transform="rotate(191,64.0,160.0)" /><line stroke="black" stroke-width="2" transform="rotate(19,158.5,104.5)" x1="137" x2="180" y1="83" y2="126" /><rect fill="none" height="48" stroke="black" stroke-width="2" transform="rotate(230,92.0,49.0)" width="48" x="68" y="25" /></g><line stroke="black" stroke-width="1" transform="translate(350,400)" x1="92" x2="100.54127255161974" y1="125" y2="128.82271305376455" /><rect fill="none" height="5" stroke="black" stroke-width="1" transform="translate(350,400)" width="4" x="60" y="21" /><line stroke="black" stroke-width="1" transform="translate(350,400)" x1="92" x2="110.64723902731484" y1="113" y2="119.26658176034866" /><line stroke="black" stroke-width="1" transform="translate(350,400)" x1="144" x2="145.52966150341754" y1="48" y2="61.18465693843898" /><circle cx="69" cy="170" fill="black" r="1" stroke="none" transform="translate(350,400)" /><rect fill="none" height="11" stroke="black" stroke-width="1" transform="translate(350,400)" width="5" x="153" y="46" /><circle cx="148" cy="156" fill="black" r="1" stroke="none" transform="translate(350,400)" /><rect fill="none" height="6" stroke="black" stroke-width="1" transform="translate(350,400)" width="10" x="68" y="45" /><circle cx="114" cy="98" fill="black" r="3" stroke="none" transform="translate(350,400)" /><circle cx="122" cy="87" fill="black" r="2" stroke="none" transform="translate(350,400)" /><line stroke="black" stroke-width="1" transform="translate(350,400)" x1="144" x2="146.76055755423522" y1="171" y2="171.67596041668767" /><rect fill="none" height="11" stroke="black" stroke-width="1" transform="translate(350,400)" width="11" x="150" y="44" /><circle cx="41" cy="135" fill="black" r="3" stroke="none" transform="translate(350,400)" /><line stroke="black" stroke-width="1" transform="translate(350,400)" x1="79" x2="83.018926159038" y1="99" y2="99.38581530846739" /><rect fill="none" height="12" stroke="black" stroke-width="1" transform="translate(350,400)" width="14" x="67" y="50" /><line stroke="black" stroke-width="1" transform="translate(350,400)" x1="159" x2="174.87585203571513" y1="166" y2="177.1178303163009" /><rect fill="none" height="9" stroke="black" stroke-width="1" transform="translate(350,400)" width="14" x="63" y="173" /><line stroke="black" stroke-width="1" transform="translate(350,400)" x1="93" x2="94.43814860782132" y1="128" y2="150.40314751438237" /><circle cx="79" cy="47" fill="black" r="3" stroke="none" transform="translate(350,400)" /><rect fill="none" height="10" stroke="black" stroke-width="1" transform="translate(350,400)" width="4" x="119" y="44" /><circle cx="168" cy="148" fill="black" r="3" stroke="none" transform="translate(350,400)" /><rect fill="none" height="6" stroke="black" stroke-width="1" transform="translate(350,400)" width="9" x="59" y="35" /><line stroke="black" stroke-width="1" transform="translate(350,400)" x1="176" x2="187.4560274798449" y1="143" y2="158.18526793037546" /><line stroke="black" stroke-width="1" transform="translate(350,400)" x1="63" x2="69.72042247218526" y1="105" y2="107.33596032710251" /><rect fill="none" height="8" stroke="black" stroke-width="1" transform="translate(350,400)" width="12" x="180" y="27" /><circle cx="96" cy="36" fill="black" r="1" stroke="none" transform="translate(350,400)" /><rect fill="none" height="9" stroke="black" stroke-width="1" transform="translate(350,400)" width="7" x="11" y="111" /><rect fill="none" height="5" stroke="black" stroke-width="1" transform="translate(350,400)" width="4" x="89" y="165" /><rect fill="none" height="9" stroke="black" stroke-width="1" transform="translate(350,400)" width="13" x="136" y="49" /><circle cx="158" cy="119" fill="black" r="2" stroke="none" transform="translate(350,400)" /><line stroke="black" stroke-width="1" transform="translate(350,400)" x1="42" x2="43.492404618107955" y1="15" y2="19.05634141823737" /><rect fill="none" height="13" stroke="black" stroke-width="1" transform="translate(350,400)" width="12" x="77" y="161" /><circle cx="84" cy="153" fill="black" r="1" stroke="none" transform="translate(350,400)" /><rect fill="none" height="7" stroke="black" stroke-width="1" transform="translate(350,400)" width="14" x="52" y="24" /><rect fill="none" height="9" stroke="black" stroke-width="1" transform="translate(350,400)" width="14" x="42" y="159" /><rect fill="none" height="14" stroke="black" stroke-width="1" transform="translate(350,400)" width="4" x="84" y="124" /><rect fill="none" height="13" stroke="black" stroke-width="1" transform="translate(350,400)" width="3" x="31" y="132" /><rect fill="none" height="12" stroke="black" stroke-width="1" transform="translate(350,400)" width="9" x="166" y="121" /><circle cx="32" cy="166" fill="black" r="1" stroke="none" transform="translate(350,400)" /><circle cx="25" cy="135" fill="black" r="1" stroke="none" transform="translate(350,400)" /><text font-family="Arial" font-size="14" text-anchor="middle" x="425" y="380">Option 2</text><g transform="translate(350,400)"><circle cx="145" cy="148" fill="none" r="21.5" stroke="black" stroke-width="2" /><circle cx="148" cy="11" fill="none" r="24.0" stroke="black" stroke-width="2" /><polygon fill="none" points="33,91 76,91 54.5,48" stroke="black" stroke-width="2" transform="rotate(295,54.5,69.5)" /><polygon fill="none" points="47,177 81,177 64.0,143" stroke="black" stroke-width="2" transform="rotate(191,64.0,160.0)" /><line stroke="black" stroke-width="2" transform="rotate(19,158.5,104.5)" x1="137" x2="180" y1="83" y2="126" /><rect fill="none" height="48" stroke="black" stroke-width="2" transform="rotate(230,92.0,49.0)" width="48" x="68" y="25" /></g><line stroke="black" stroke-width="1" transform="translate(100,650)" x1="133" x2="148.2775417007286" y1="98" y2="112.37890676147839" /><rect fill="none" height="7" stroke="black" stroke-width="1" transform="translate(100,650)" width="6" x="86" y="89" /><line stroke="black" stroke-width="1" transform="translate(100,650)" x1="27" x2="35.8224715699701" y1="177" y2="193.67686462346055" /><line stroke="black" stroke-width="1" transform="translate(100,650)" x1="114" x2="123.03225429772179" y1="59" y2="64.65266551859935" /><rect fill="none" height="7" stroke="black" stroke-width="1" transform="translate(100,650)" width="14" x="164" y="30" /><line stroke="black" stroke-width="1" transform="translate(100,650)" x1="129" x2="141.00883583210097" y1="97" y2="104.40067019048753" /><rect fill="none" height="14" stroke="black" stroke-width="1" transform="translate(100,650)" width="14" x="54" y="144" /><line stroke="black" stroke-width="1" transform="translate(100,650)" x1="152" x2="152.40385121230017" y1="180" y2="186.36210484304587" /><circle cx="129" cy="55" fill="black" r="3" stroke="none" transform="translate(100,650)" /><line stroke="black" stroke-width="1" transform="translate(100,650)" x1="101" x2="106.4482971130705" y1="67" y2="75.64010214256679" /><circle cx="124" cy="100" fill="black" r="1" stroke="none" transform="translate(100,650)" /><line stroke="black" stroke-width="1" transform="translate(100,650)" x1="142" x2="147.43968873078475" y1="88" y2="93.42906792536738" /><circle cx="159" cy="12" fill="black" r="2" stroke="none" transform="translate(100,650)" /><circle cx="114" cy="48" fill="black" r="2" stroke="none" transform="translate(100,650)" /><rect fill="none" height="8" stroke="black" stroke-width="1" transform="translate(100,650)" width="8" x="105" y="115" /><circle cx="174" cy="133" fill="black" r="2" stroke="none" transform="translate(100,650)" /><rect fill="none" height="10" stroke="black" stroke-width="1" transform="translate(100,650)" width="13" x="129" y="37" /><circle cx="41" cy="168" fill="black" r="3" stroke="none" transform="translate(100,650)" /><line stroke="black" stroke-width="1" transform="translate(100,650)" x1="144" x2="152.97655810689872" y1="74" y2="91.03047401537532" /><circle cx="111" cy="135" fill="black" r="3" stroke="none" transform="translate(100,650)" /><rect fill="none" height="11" stroke="black" stroke-width="1" transform="translate(100,650)" width="12" x="54" y="60" /><rect fill="none" height="3" stroke="black" stroke-width="1" transform="translate(100,650)" width="10" x="145" y="32" /><rect fill="none" height="7" stroke="black" stroke-width="1" transform="translate(100,650)" width="15" x="20" y="130" /><rect fill="none" height="8" stroke="black" stroke-width="1" transform="translate(100,650)" width="10" x="139" y="122" /><circle cx="55" cy="172" fill="black" r="2" stroke="none" transform="translate(100,650)" /><line stroke="black" stroke-width="1" transform="translate(100,650)" x1="70" x2="96.32223815583207" y1="150" y2="162.01172583061063" /><rect fill="none" height="7" stroke="black" stroke-width="1" transform="translate(100,650)" width="5" x="137" y="140" /><line stroke="black" stroke-width="1" transform="translate(100,650)" x1="15" x2="15.58554537604106" y1="34" y2="35.60771622639339" /><line stroke="black" stroke-width="1" transform="translate(100,650)" x1="174" x2="194.50976002762152" y1="75" y2="92.59485775055654" /><rect fill="none" height="8" stroke="black" stroke-width="1" transform="translate(100,650)" width="4" x="177" y="134" /><rect fill="none" height="6" stroke="black" stroke-width="1" transform="translate(100,650)" width="3" x="90" y="168" /><rect fill="none" height="5" stroke="black" stroke-width="1" transform="translate(100,650)" width="10" x="154" y="56" /><circle cx="149" cy="63" fill="black" r="3" stroke="none" transform="translate(100,650)" /><circle cx="137" cy="141" fill="black" r="1" stroke="none" transform="translate(100,650)" /><line stroke="black" stroke-width="1" transform="translate(100,650)" x1="115" x2="117.15382896065763" y1="116" y2="131.5844567763042" /><rect fill="none" height="9" stroke="black" stroke-width="1" transform="translate(100,650)" width="9" x="141" y="138" /><rect fill="none" height="3" stroke="black" stroke-width="1" transform="translate(100,650)" width="9" x="115" y="50" /><line stroke="black" stroke-width="1" transform="translate(100,650)" x1="15" x2="21.216086527579304" y1="158" y2="166.97093395247464" /><circle cx="103" cy="41" fill="black" r="2" stroke="none" transform="translate(100,650)" /><circle cx="35" cy="21" fill="black" r="2" stroke="none" transform="translate(100,650)" /><text font-family="Arial" font-size="14" text-anchor="middle" x="175" y="630">Option 3</text><g transform="translate(100,650)"><circle cx="145" cy="148" fill="none" r="21.5" stroke="black" stroke-width="2" /><circle cx="88" cy="23" fill="none" r="24.0" stroke="black" stroke-width="2" /><polygon fill="none" points="33,91 76,91 54.5,48" stroke="black" stroke-width="2" transform="rotate(311.1142293853796,54.5,69.5)" /><polygon fill="none" points="47,177 81,177 64.0,143" stroke="black" stroke-width="2" transform="rotate(207.11422938537962,64.0,160.0)" /><line stroke="black" stroke-width="2" transform="rotate(35.11422938537961,158.5,104.5)" x1="137" x2="180" y1="83" y2="126" /><rect fill="none" height="48" stroke="black" stroke-width="2" transform="rotate(246.11422938537962,92.0,49.0)" width="48" x="68" y="25" /></g><line stroke="black" stroke-width="1" transform="translate(350,650)" x1="53" x2="62.838611107763725" y1="95" y2="96.2231893746967" /><line stroke="black" stroke-width="1" transform="translate(350,650)" x1="20" x2="36.585217969027426" y1="118" y2="129.64952028011797" /><circle cx="118" cy="148" fill="black" r="1" stroke="none" transform="translate(350,650)" /><circle cx="49" cy="89" fill="black" r="2" stroke="none" transform="translate(350,650)" /><circle cx="161" cy="66" fill="black" r="3" stroke="none" transform="translate(350,650)" /><circle cx="15" cy="78" fill="black" r="3" stroke="none" transform="translate(350,650)" /><line stroke="black" stroke-width="1" transform="translate(350,650)" x1="51" x2="57.66206879018515" y1="40" y2="42.53566236902866" /><rect fill="none" height="15" stroke="black" stroke-width="1" transform="translate(350,650)" width="11" x="31" y="13" /><circle cx="24" cy="37" fill="black" r="3" stroke="none" transform="translate(350,650)" /><circle cx="81" cy="173" fill="black" r="3" stroke="none" transform="translate(350,650)" /><circle cx="136" cy="167" fill="black" r="3" stroke="none" transform="translate(350,650)" /><rect fill="none" height="8" stroke="black" stroke-width="1" transform="translate(350,650)" width="4" x="10" y="98" /><rect fill="none" height="5" stroke="black" stroke-width="1" transform="translate(350,650)" width="14" x="174" y="55" /><rect fill="none" height="5" stroke="black" stroke-width="1" transform="translate(350,650)" width="15" x="49" y="149" /><line stroke="black" stroke-width="1" transform="translate(350,650)" x1="12" x2="29.654696710310386" y1="20" y2="38.716179323774256" /><line stroke="black" stroke-width="1" transform="translate(350,650)" x1="79" x2="91.57073637951497" y1="44" y2="59.55363200638864" /><line stroke="black" stroke-width="1" transform="translate(350,650)" x1="102" x2="112.5932615968128" y1="127" y2="139.96863014451858" /><line stroke="black" stroke-width="1" transform="translate(350,650)" x1="158" x2="174.31588334447403" y1="125" y2="145.8055265444561" /><circle cx="97" cy="153" fill="black" r="2" stroke="none" transform="translate(350,650)" /><line stroke="black" stroke-width="1" transform="translate(350,650)" x1="57" x2="57.45848927614071" y1="94" y2="100.52589246530655" /><circle cx="169" cy="141" fill="black" r="3" stroke="none" transform="translate(350,650)" /><rect fill="none" height="11" stroke="black" stroke-width="1" transform="translate(350,650)" width="8" x="98" y="88" /><line stroke="black" stroke-width="1" transform="translate(350,650)" x1="136" x2="144.34220326015785" y1="19" y2="19.254959313737338" /><circle cx="97" cy="118" fill="black" r="1" stroke="none" transform="translate(350,650)" /><line stroke="black" stroke-width="1" transform="translate(350,650)" x1="25" x2="35.19448706521523" y1="155" y2="160.65143554492187" /><circle cx="82" cy="117" fill="black" r="2" stroke="none" transform="translate(350,650)" /><circle cx="40" cy="139" fill="black" r="1" stroke="none" transform="translate(350,650)" /><rect fill="none" height="8" stroke="black" stroke-width="1" transform="translate(350,650)" width="7" x="33" y="48" /><line stroke="black" stroke-width="1" transform="translate(350,650)" x1="110" x2="120.18168705700882" y1="81" y2="87.72552966866877" /><line stroke="black" stroke-width="1" transform="translate(350,650)" x1="41" x2="61.59484214233811" y1="59" y2="61.73034788576591" /><rect fill="none" height="7" stroke="black" stroke-width="1" transform="translate(350,650)" width="6" x="41" y="143" /><circle cx="167" cy="36" fill="black" r="1" stroke="none" transform="translate(350,650)" /><circle cx="59" cy="124" fill="black" r="3" stroke="none" transform="translate(350,650)" /><rect fill="none" height="4" stroke="black" stroke-width="1" transform="translate(350,650)" width="10" x="78" y="102" /><line stroke="black" stroke-width="1" transform="translate(350,650)" x1="62" x2="66.92341518892361" y1="107" y2="110.44849326959616" /><line stroke="black" stroke-width="1" transform="translate(350,650)" x1="132" x2="139.78065539360801" y1="12" y2="15.822395748939533" /><rect fill="none" height="6" stroke="black" stroke-width="1" transform="translate(350,650)" width="3" x="83" y="143" /><circle cx="13" cy="17" fill="black" r="1" stroke="none" transform="translate(350,650)" /><rect fill="none" height="7" stroke="black" stroke-width="1" transform="translate(350,650)" width="7" x="165" y="93" /><circle cx="37" cy="64" fill="black" r="1" stroke="none" transform="translate(350,650)" /><text font-family="Arial" font-size="14" text-anchor="middle" x="425" y="630">Option 4</text><g transform="translate(350,650)"><circle cx="145" cy="148" fill="none" r="21.5" stroke="black" stroke-width="2" /><circle cx="88" cy="23" fill="none" r="24.0" stroke="black" stroke-width="2" /><polygon fill="none" points="33,91 76,91 54.5,48" stroke="black" stroke-width="2" transform="rotate(310.6936057118225,54.5,69.5)" /><polygon fill="none" points="47,177 81,177 64.0,143" stroke="black" stroke-width="2" transform="rotate(206.6936057118225,64.0,160.0)" /><line stroke="black" stroke-width="2" transform="rotate(34.6936057118225,158.5,104.5)" x1="137" x2="180" y1="83" y2="126" /><rect fill="none" height="48" stroke="black" stroke-width="2" transform="rotate(245.6936057118225,92.0,49.0)" width="48" x="68" y="25" /></g></svg>