<?xml version="1.0" encoding="utf-8" ?>
<svg baseProfile="full" height="1000px" version="1.1" width="600px" xmlns="http://www.w3.org/2000/svg" xmlns:ev="http://www.w3.org/2001/xml-events" xmlns:xlink="http://www.w3.org/1999/xlink"><defs /><rect fill="white" height="100%" width="100%" x="0" y="0" /><text font-family="Arial" font-size="24" text-anchor="middle" x="300" y="40">Visual Figure Ground Test</text><text font-family="Arial" font-size="18" text-anchor="middle" x="300" y="80">Target Pattern</text><g transform="translate(200,100)"><polygon fill="none" points="52,120 92,120 72.0,80" stroke="black" stroke-width="2" transform="rotate(192,72.0,100.0)" /><polygon fill="none" points="124,112 157,112 140.5,79" stroke="black" stroke-width="2" transform="rotate(24,140.5,95.5)" /><circle cx="11" cy="134" fill="none" r="21.0" stroke="black" stroke-width="2" /><rect fill="none" height="43" stroke="black" stroke-width="2" transform="rotate(259,56.5,65.5)" width="43" x="35" y="44" /><line stroke="black" stroke-width="2" transform="rotate(305,53.5,123.5)" x1="36" x2="71" y1="106" y2="141" /><line stroke="black" stroke-width="2" transform="rotate(250,137.0,98.0)" x1="120" x2="154" y1="81" y2="115" /></g><text font-family="Arial" font-size="18" text-anchor="middle" x="300" y="350">Options</text><circle cx="122" cy="49" fill="black" r="2" stroke="none" transform="translate(100,400)" /><line stroke="black" stroke-width="1" transform="translate(100,400)" x1="94" x2="100.986434005371" y1="64" y2="81.50009725206027" /><line stroke="black" stroke-width="1" transform="translate(100,400)" x1="98" x2="118.16705544337228" y1="144" y2="144.33372393395845" /><rect fill="none" height="11" stroke="black" stroke-width="1" transform="translate(100,400)" width="10" x="13" y="124" /><rect fill="none" height="15" stroke="black" stroke-width="1" transform="translate(100,400)" width="5" x="110" y="46" /><rect fill="none" height="11" stroke="black" stroke-width="1" transform="translate(100,400)" width="15" x="169" y="65" /><circle cx="88" cy="38" fill="black" r="1" stroke="none" transform="translate(100,400)" /><line stroke="black" stroke-width="1" transform="translate(100,400)" x1="106" x2="120.11900714360925" y1="12" y2="29.940250788104656" /><rect fill="none" height="13" stroke="black" stroke-width="1" transform="translate(100,400)" width="6" x="88" y="73" /><rect fill="none" height="7" stroke="black" stroke-width="1" transform="translate(100,400)" width="6" x="119" y="101" /><circle cx="120" cy="176" fill="black" r="1" stroke="none" transform="translate(100,400)" /><rect fill="none" height="6" stroke="black" stroke-width="1" transform="translate(100,400)" width="6" x="134" y="26" /><circle cx="78" cy="89" fill="black" r="1" stroke="none" transform="translate(100,400)" /><line stroke="black" stroke-width="1" transform="translate(100,400)" x1="12" x2="20.03780291163315" y1="73" y2="82.40906952069423" /><circle cx="144" cy="58" fill="black" r="3" stroke="none" transform="translate(100,400)" /><rect fill="none" height="15" stroke="black" stroke-width="1" transform="translate(100,400)" width="7" x="49" y="38" /><rect fill="none" height="13" stroke="black" stroke-width="1" transform="translate(100,400)" width="5" x="18" y="76" /><rect fill="none" height="6" stroke="black" stroke-width="1" transform="translate(100,400)" width="14" x="77" y="33" /><rect fill="none" height="5" stroke="black" stroke-width="1" transform="translate(100,400)" width="10" x="136" y="61" /><line stroke="black" stroke-width="1" transform="translate(100,400)" x1="163" x2="172.11371169003885" y1="171" y2="175.2005637260247" /><rect fill="none" height="15" stroke="black" stroke-width="1" transform="translate(100,400)" width="8" x="99" y="82" /><rect fill="none" height="11" stroke="black" stroke-width="1" transform="translate(100,400)" width="6" x="91" y="101" /><circle cx="159" cy="152" fill="black" r="1" stroke="none" transform="translate(100,400)" /><rect fill="none" height="7" stroke="black" stroke-width="1" transform="translate(100,400)" width="12" x="170" y="54" /><rect fill="none" height="13" stroke="black" stroke-width="1" transform="translate(100,400)" width="14" x="59" y="173" /><rect fill="none" height="3" stroke="black" stroke-width="1" transform="translate(100,400)" width="4" x="161" y="11" /><rect fill="none" height="9" stroke="black" stroke-width="1" transform="translate(100,400)" width="7" x="140" y="173" /><rect fill="none" height="11" stroke="black" stroke-width="1" transform="translate(100,400)" width="5" x="133" y="54" /><line stroke="black" stroke-width="1" transform="translate(100,400)" x1="26" x2="29.400878399730423" y1="58" y2="80.93027764604528" /><line stroke="black" stroke-width="1" transform="translate(100,400)" x1="117" x2="125.05398098129594" y1="170" y2="182.59120941604883" /><line stroke="black" stroke-width="1" transform="translate(100,400)" x1="156" x2="156.53921848942434" y1="24" y2="25.87342111272149" /><circle cx="70" cy="31" fill="black" r="3" stroke="none" transform="translate(100,400)" /><circle cx="21" cy="45" fill="black" r="1" stroke="none" transform="translate(100,400)" /><circle cx="89" cy="143" fill="black" r="1" stroke="none" transform="translate(100,400)" /><line stroke="black" stroke-width="1" transform="translate(100,400)" x1="161" x2="169.11126665175587" y1="43" y2="47.81623563733952" /><rect fill="none" height="10" stroke="black" stroke-width="1" transform="translate(100,400)" width="11" x="42" y="44" /><line stroke="black" stroke-width="1" transform="translate(100,400)" x1="131" x2="136.87239615533582" y1="51" y2="54.10405301669753" /><circle cx="61" cy="19" fill="black" r="1" stroke="none" transform="translate(100,400)" /><circle cx="170" cy="103" fill="black" r="2" stroke="none" transform="translate(100,400)" /><circle cx="44" cy="34" fill="black" r="3" stroke="none" transform="translate(100,400)" /><text font-family="Arial" font-size="14" text-anchor="middle" x="175" y="380">Option 1</text><g transform="translate(100,400)"><polygon fill="none" points="52,120 92,120 72.0,80" stroke="black" stroke-width="2" transform="rotate(192,72.0,100.0)" /><polygon fill="none" points="124,112 157,112 140.5,79" stroke="black" stroke-width="2" transform="rotate(24,140.5,95.5)" /><circle cx="11" cy="134" fill="none" r="21.0" stroke="black" stroke-width="2" /><rect fill="none" height="43" stroke="black" stroke-width="2" transform="rotate(259,56.5,65.5)" width="43" x="35" y="44" /><line stroke="black" stroke-width="2" transform="rotate(305,53.5,123.5)" x1="36" x2="71" y1="106" y2="141" /><line stroke="black" stroke-width="2" transform="rotate(250,137.0,98.0)" x1="120" x2="154" y1="81" y2="115" /></g><line stroke="black" stroke-width="1" transform="translate(350,400)" x1="24" x2="29.55292602561464" y1="141" y2="141.7384128505312" /><line stroke="black" stroke-width="1" transform="translate(350,400)" x1="159" x2="162.092999620783" y1="35" y2="42.73934195320815" /><line stroke="black" stroke-width="1" transform="translate(350,400)" x1="101" x2="108.62283099859654" y1="15" y2="23.84451071110114" /><rect fill="none" height="3" stroke="black" stroke-width="1" transform="translate(350,400)" width="11" x="59" y="70" /><circle cx="83" cy="82" fill="black" r="2" stroke="none" transform="translate(350,400)" /><line stroke="black" stroke-width="1" transform="translate(350,400)" x1="78" x2="87.43717766459967" y1="149" y2="154.05701145681505" /><line stroke="black" stroke-width="1" transform="translate(350,400)" x1="125" x2="126.7444627256986" y1="144" y2="149.57651150691868" /><circle cx="151" cy="120" fill="black" r="2" stroke="none" transform="translate(350,400)" /><circle cx="44" cy="19" fill="black" r="2" stroke="none" transform="translate(350,400)" /><rect fill="none" height="3" stroke="black" stroke-width="1" transform="translate(350,400)" width="7" x="45" y="80" /><circle cx="21" cy="162" fill="black" r="1" stroke="none" transform="translate(350,400)" /><rect fill="none" height="4" stroke="black" stroke-width="1" transform="translate(350,400)" width="10" x="17" y="38" /><circle cx="164" cy="100" fill="black" r="3" stroke="none" transform="translate(350,400)" /><rect fill="none" height="8" stroke="black" stroke-width="1" transform="translate(350,400)" width="13" x="144" y="179" /><rect fill="none" height="8" stroke="black" stroke-width="1" transform="translate(350,400)" width="8" x="109" y="150" /><circle cx="166" cy="152" fill="black" r="2" stroke="none" transform="translate(350,400)" /><rect fill="none" height="10" stroke="black" stroke-width="1" transform="translate(350,400)" width="10" x="54" y="28" /><circle cx="72" cy="89" fill="black" r="1" stroke="none" transform="translate(350,400)" /><circle cx="126" cy="90" fill="black" r="2" stroke="none" transform="translate(350,400)" /><circle cx="39" cy="179" fill="black" r="1" stroke="none" transform="translate(350,400)" /><rect fill="none" height="5" stroke="black" stroke-width="1" transform="translate(350,400)" width="14" x="111" y="93" /><circle cx="157" cy="74" fill="black" r="3" stroke="none" transform="translate(350,400)" /><rect fill="none" height="8" stroke="black" stroke-width="1" transform="translate(350,400)" width="14" x="149" y="177" /><rect fill="none" height="12" stroke="black" stroke-width="1" transform="translate(350,400)" width="7" x="64" y="110" /><rect fill="none" height="11" stroke="black" stroke-width="1" transform="translate(350,400)" width="13" x="97" y="45" /><line stroke="black" stroke-width="1" transform="translate(350,400)" x1="22" x2="44.376683847238866" y1="78" y2="88.20319240652638" /><circle cx="67" cy="60" fill="black" r="1" stroke="none" transform="translate(350,400)" /><line stroke="black" stroke-width="1" transform="translate(350,400)" x1="46" x2="50.98552532678453" y1="51" y2="53.734839669222154" /><line stroke="black" stroke-width="1" transform="translate(350,400)" x1="113" x2="122.98937264651664" y1="133" y2="142.72384375027625" /><line stroke="black" stroke-width="1" transform="translate(350,400)" x1="178" x2="196.31091577316266" y1="43" y2="52.36976184866272" /><line stroke="black" stroke-width="1" transform="translate(350,400)" x1="149" x2="157.00871337247946" y1="133" y2="139.82701462726175" /><rect fill="none" height="12" stroke="black" stroke-width="1" transform="translate(350,400)" width="10" x="169" y="134" /><line stroke="black" stroke-width="1" transform="translate(350,400)" x1="45" x2="60.264579140104615" y1="171" y2="171.23989200533046" /><circle cx="29" cy="81" fill="black" r="3" stroke="none" transform="translate(350,400)" /><rect fill="none" height="10" stroke="black" stroke-width="1" transform="translate(350,400)" width="6" x="107" y="148" /><circle cx="82" cy="24" fill="black" r="1" stroke="none" transform="translate(350,400)" /><circle cx="43" cy="126" fill="black" r="3" stroke="none" transform="translate(350,400)" /><line stroke="black" stroke-width="1" transform="translate(350,400)" x1="121" x2="140.6745938420392" y1="145" y2="156.5756219599742" /><circle cx="133" cy="152" fill="black" r="1" stroke="none" transform="translate(350,400)" /><circle cx="40" cy="34" fill="black" r="1" stroke="none" transform="translate(350,400)" /><text font-family="Arial" font-size="14" text-anchor="middle" x="425" y="380">Option 2</text><g transform="translate(350,400)"><polygon fill="none" points="52,120 92,120 72.0,80" stroke="black" stroke-width="2" transform="rotate(192,72.0,100.0)" /><polygon fill="none" points="124,112 157,112 140.5,79" stroke="black" stroke-width="2" transform="rotate(24,140.5,95.5)" /><circle cx="11" cy="134" fill="none" r="21.0" stroke="black" stroke-width="2" /><rect fill="none" height="43" stroke="black" stroke-width="2" transform="rotate(259,54.5,87.5)" width="43" x="33" y="66" /><line stroke="black" stroke-width="2" transform="rotate(305,53.5,123.5)" x1="36" x2="71" y1="106" y2="141" /><line stroke="black" stroke-width="2" transform="rotate(250,137.0,98.0)" x1="120" x2="154" y1="81" y2="115" /></g><circle cx="177" cy="160" fill="black" r="3" stroke="none" transform="translate(100,650)" /><circle cx="60" cy="177" fill="black" r="1" stroke="none" transform="translate(100,650)" /><line stroke="black" stroke-width="1" transform="translate(100,650)" x1="33" x2="38.44651482188439" y1="101" y2="105.84206538016413" /><rect fill="none" height="5" stroke="black" stroke-width="1" transform="translate(100,650)" width="6" x="55" y="104" /><line stroke="black" stroke-width="1" transform="translate(100,650)" x1="56" x2="56.92109875709428" y1="50" y2="69.20857730599414" /><line stroke="black" stroke-width="1" transform="translate(100,650)" x1="165" x2="165.8227751346577" y1="126" y2="129.71941745193035" /><rect fill="none" height="14" stroke="black" stroke-width="1" transform="translate(100,650)" width="4" x="79" y="138" /><line stroke="black" stroke-width="1" transform="translate(100,650)" x1="44" x2="49.985540246816214" y1="159" y2="161.8404154245022" /><line stroke="black" stroke-width="1" transform="translate(100,650)" x1="40" x2="43.26932899268283" y1="104" y2="117.7107661651712" /><circle cx="32" cy="33" fill="black" r="2" stroke="none" transform="translate(100,650)" /><circle cx="76" cy="33" fill="black" r="2" stroke="none" transform="translate(100,650)" /><rect fill="none" height="15" stroke="black" stroke-width="1" transform="translate(100,650)" width="9" x="100" y="171" /><rect fill="none" height="11" stroke="black" stroke-width="1" transform="translate(100,650)" width="3" x="97" y="44" /><circle cx="110" cy="58" fill="black" r="1" stroke="none" transform="translate(100,650)" /><line stroke="black" stroke-width="1" transform="translate(100,650)" x1="129" x2="135.6885521909978" y1="164" y2="180.52667627521987" /><circle cx="109" cy="145" fill="black" r="3" stroke="none" transform="translate(100,650)" /><circle cx="107" cy="68" fill="black" r="1" stroke="none" transform="translate(100,650)" /><line stroke="black" stroke-width="1" transform="translate(100,650)" x1="124" x2="124.07136313174757" y1="131" y2="139.01704226498043" /><circle cx="51" cy="171" fill="black" r="2" stroke="none" transform="translate(100,650)" /><rect fill="none" height="14" stroke="black" stroke-width="1" transform="translate(100,650)" width="14" x="158" y="155" /><rect fill="none" height="11" stroke="black" stroke-width="1" transform="translate(100,650)" width="11" x="50" y="103" /><circle cx="143" cy="137" fill="black" r="2" stroke="none" transform="translate(100,650)" /><circle cx="151" cy="85" fill="black" r="3" stroke="none" transform="translate(100,650)" /><line stroke="black" stroke-width="1" transform="translate(100,650)" x1="46" x2="46.520947452930486" y1="120" y2="127.01496253712838" /><circle cx="45" cy="137" fill="black" r="1" stroke="none" transform="translate(100,650)" /><circle cx="56" cy="122" fill="black" r="2" stroke="none" transform="translate(100,650)" /><line stroke="black" stroke-width="1" transform="translate(100,650)" x1="152" x2="161.20212943421538" y1="47" y2="56.4415227281841" /><rect fill="none" height="14" stroke="black" stroke-width="1" transform="translate(100,650)" width="13" x="138" y="176" /><line stroke="black" stroke-width="1" transform="translate(100,650)" x1="17" x2="19.92018916309348" y1="18" y2="33.02621843853284" /><line stroke="black" stroke-width="1" transform="translate(100,650)" x1="152" x2="155.82962820921833" y1="79" y2="84.02996298873946" /><line stroke="black" stroke-width="1" transform="translate(100,650)" x1="157" x2="161.09432302290952" y1="64" y2="65.82778732087773" /><circle cx="133" cy="96" fill="black" r="1" stroke="none" transform="translate(100,650)" /><rect fill="none" height="6" stroke="black" stroke-width="1" transform="translate(100,650)" width="14" x="34" y="106" /><rect fill="none" height="14" stroke="black" stroke-width="1" transform="translate(100,650)" width="11" x="112" y="40" /><rect fill="none" height="9" stroke="black" stroke-width="1" transform="translate(100,650)" width="7" x="141" y="39" /><circle cx="94" cy="87" fill="black" r="1" stroke="none" transform="translate(100,650)" /><rect fill="none" height="7" stroke="black" stroke-width="1" transform="translate(100,650)" width="13" x="32" y="30" /><rect fill="none" height="12" stroke="black" stroke-width="1" transform="translate(100,650)" width="8" x="84" y="61" /><rect fill="none" height="11" stroke="black" stroke-width="1" transform="translate(100,650)" width="6" x="31" y="32" /><rect fill="none" height="13" stroke="black" stroke-width="1" transform="translate(100,650)" width="15" x="136" y="114" /><text font-family="Arial" font-size="14" text-anchor="middle" x="175" y="630">Option 3</text><g transform="translate(100,650)"><polygon fill="none" points="52,120 92,120 72.0,80" stroke="black" stroke-width="2" transform="rotate(173.29732243380616,72.0,100.0)" /><polygon fill="none" points="124,112 157,112 140.5,79" stroke="black" stroke-width="2" transform="rotate(5.297322433806151,140.5,95.5)" /><circle cx="11" cy="134" fill="none" r="21.0" stroke="black" stroke-width="2" /><rect fill="none" height="43" stroke="black" stroke-width="2" transform="rotate(240.29732243380616,56.5,65.5)" width="43" x="35" y="44" /><line stroke="black" stroke-width="2" transform="rotate(286.29732243380613,53.5,123.5)" x1="36" x2="71" y1="106" y2="141" /><line stroke="black" stroke-width="2" transform="rotate(231.29732243380616,137.0,98.0)" x1="120" x2="154" y1="81" y2="115" /></g><rect fill="none" height="8" stroke="black" stroke-width="1" transform="translate(350,650)" width="3" x="153" y="55" /><circle cx="43" cy="31" fill="black" r="1" stroke="none" transform="translate(350,650)" /><circle cx="62" cy="65" fill="black" r="2" stroke="none" transform="translate(350,650)" /><circle cx="102" cy="160" fill="black" r="1" stroke="none" transform="translate(350,650)" /><circle cx="163" cy="119" fill="black" r="3" stroke="none" transform="translate(350,650)" /><line stroke="black" stroke-width="1" transform="translate(350,650)" x1="144" x2="154.21528108870132" y1="41" y2="50.09931194754067" /><circle cx="66" cy="120" fill="black" r="2" stroke="none" transform="translate(350,650)" /><circle cx="108" cy="147" fill="black" r="2" stroke="none" transform="translate(350,650)" /><circle cx="135" cy="96" fill="black" r="2" stroke="none" transform="translate(350,650)" /><circle cx="110" cy="62" fill="black" r="3" stroke="none" transform="translate(350,650)" /><line stroke="black" stroke-width="1" transform="translate(350,650)" x1="150" x2="175.70012339816628" y1="34" y2="62.19150596453781" /><line stroke="black" stroke-width="1" transform="translate(350,650)" x1="21" x2="36.50062514907421" y1="179" y2="189.44318969908574" /><circle cx="164" cy="110" fill="black" r="3" stroke="none" transform="translate(350,650)" /><line stroke="black" stroke-width="1" transform="translate(350,650)" x1="59" x2="69.27551516799718" y1="31" y2="35.91778827769656" /><rect fill="none" height="5" stroke="black" stroke-width="1" transform="translate(350,650)" width="9" x="85" y="156" /><circle cx="60" cy="122" fill="black" r="1" stroke="none" transform="translate(350,650)" /><circle cx="41" cy="141" fill="black" r="2" stroke="none" transform="translate(350,650)" /><line stroke="black" stroke-width="1" transform="translate(350,650)" x1="15" x2="18.18314643328898" y1="118" y2="118.56016482384166" /><rect fill="none" height="5" stroke="black" stroke-width="1" transform="translate(350,650)" width="3" x="13" y="126" /><line stroke="black" stroke-width="1" transform="translate(350,650)" x1="123" x2="124.83902709346704" y1="98" y2="110.96251155109219" /><circle cx="134" cy="15" fill="black" r="3" stroke="none" transform="translate(350,650)" /><rect fill="none" height="8" stroke="black" stroke-width="1" transform="translate(350,650)" width="9" x="62" y="94" /><circle cx="99" cy="82" fill="black" r="1" stroke="none" transform="translate(350,650)" /><rect fill="none" height="10" stroke="black" stroke-width="1" transform="translate(350,650)" width="14" x="32" y="109" /><line stroke="black" stroke-width="1" transform="translate(350,650)" x1="175" x2="181.4914906478903" y1="40" y2="43.038918719442464" /><circle cx="124" cy="55" fill="black" r="2" stroke="none" transform="translate(350,650)" /><rect fill="none" height="9" stroke="black" stroke-width="1" transform="translate(350,650)" width="13" x="123" y="157" /><line stroke="black" stroke-width="1" transform="translate(350,650)" x1="33" x2="33.36563007226659" y1="143" y2="162.29860908437055" /><circle cx="78" cy="149" fill="black" r="3" stroke="none" transform="translate(350,650)" /><circle cx="17" cy="20" fill="black" r="3" stroke="none" transform="translate(350,650)" /><line stroke="black" stroke-width="1" transform="translate(350,650)" x1="46" x2="47.08630384025244" y1="87" y2="107.44383490466082" /><circle cx="29" cy="141" fill="black" r="3" stroke="none" transform="translate(350,650)" /><line stroke="black" stroke-width="1" transform="translate(350,650)" x1="68" x2="74.67490295598469" y1="86" y2="88.59339774563497" /><rect fill="none" height="11" stroke="black" stroke-width="1" transform="translate(350,650)" width="6" x="10" y="97" /><circle cx="51" cy="127" fill="black" r="1" stroke="none" transform="translate(350,650)" /><rect fill="none" height="12" stroke="black" stroke-width="1" transform="translate(350,650)" width="9" x="133" y="79" /><rect fill="none" height="13" stroke="black" stroke-width="1" transform="translate(350,650)" width="9" x="73" y="72" /><circle cx="43" cy="138" fill="black" r="3" stroke="none" transform="translate(350,650)" /><line stroke="black" stroke-width="1" transform="translate(350,650)" x1="89" x2="89.46004986054457" y1="132" y2="136.95546670993795" /><line stroke="black" stroke-width="1" transform="translate(350,650)" x1="26" x2="53.81474574289416" y1="20" y2="34.0601964745411" /><text font-family="Arial" font-size="14" text-anchor="middle" x="425" y="630">Option 4</text><g transform="translate(350,650)"><polygon fill="none" points="52,120 92,120 72.0,80" stroke="black" stroke-width="2" transform="rotate(172.65388792130832,72.0,100.0)" /><polygon fill="none" points="124,112 157,112 140.5,79" stroke="black" stroke-width="2" transform="rotate(4.653887921308325,140.5,95.5)" /><circle cx="11" cy="134" fill="none" r="21.0" stroke="black" stroke-width="2" /><rect fill="none" height="43" stroke="black" stroke-width="2" transform="rotate(239.65388792130832,56.5,65.5)" width="43" x="35" y="44" /><line stroke="black" stroke-width="2" transform="rotate(285.6538879213083,53.5,123.5)" x1="36" x2="71" y1="106" y2="141" /><line stroke="black" stroke-width="2" transform="rotate(230.65388792130832,137.0,98.0)" x1="120" x2="154" y1="81" y2="115" /></g></svg>