<?xml version="1.0" encoding="utf-8" ?>
<svg baseProfile="full" height="1000px" version="1.1" width="600px" xmlns="http://www.w3.org/2000/svg" xmlns:ev="http://www.w3.org/2001/xml-events" xmlns:xlink="http://www.w3.org/1999/xlink"><defs /><rect fill="white" height="100%" width="100%" x="0" y="0" /><text font-family="Arial" font-size="24" text-anchor="middle" x="300" y="40">Visual Figure Ground Test</text><text font-family="Arial" font-size="18" text-anchor="middle" x="300" y="80">Target Pattern</text><g transform="translate(200,100)"><circle cx="38" cy="59" fill="none" r="24.5" stroke="black" stroke-width="2" /><polygon fill="none" points="24,176 61,176 42.5,139" stroke="black" stroke-width="2" transform="rotate(165,42.5,157.5)" /><circle cx="65" cy="94" fill="none" r="21.5" stroke="black" stroke-width="2" /><rect fill="none" height="35" stroke="black" stroke-width="2" transform="rotate(220,46.5,33.5)" width="35" x="29" y="16" /><polygon fill="none" points="15,80 53,80 34.0,42" stroke="black" stroke-width="2" transform="rotate(98,34.0,61.0)" /><line stroke="black" stroke-width="2" transform="rotate(333,149.0,165.0)" x1="130" x2="168" y1="146" y2="184" /></g><text font-family="Arial" font-size="18" text-anchor="middle" x="300" y="350">Options</text><line stroke="black" stroke-width="1" transform="translate(100,400)" x1="97" x2="113.17119452723082" y1="52" y2="67.13868195436751" /><line stroke="black" stroke-width="1" transform="translate(100,400)" x1="165" x2="169.5649008029515" y1="21" y2="31.004305024075798" /><rect fill="none" height="10" stroke="black" stroke-width="1" transform="translate(100,400)" width="12" x="144" y="17" /><circle cx="63" cy="104" fill="black" r="3" stroke="none" transform="translate(100,400)" /><circle cx="88" cy="33" fill="black" r="1" stroke="none" transform="translate(100,400)" /><line stroke="black" stroke-width="1" transform="translate(100,400)" x1="13" x2="16.691750938682876" y1="125" y2="138.35351451711807" /><rect fill="none" height="7" stroke="black" stroke-width="1" transform="translate(100,400)" width="14" x="151" y="156" /><circle cx="131" cy="72" fill="black" r="2" stroke="none" transform="translate(100,400)" /><rect fill="none" height="8" stroke="black" stroke-width="1" transform="translate(100,400)" width="3" x="61" y="28" /><circle cx="129" cy="118" fill="black" r="1" stroke="none" transform="translate(100,400)" /><line stroke="black" stroke-width="1" transform="translate(100,400)" x1="168" x2="172.3498677833166" y1="133" y2="140.8426907604869" /><circle cx="175" cy="81" fill="black" r="2" stroke="none" transform="translate(100,400)" /><rect fill="none" height="8" stroke="black" stroke-width="1" transform="translate(100,400)" width="8" x="93" y="42" /><circle cx="178" cy="74" fill="black" r="1" stroke="none" transform="translate(100,400)" /><line stroke="black" stroke-width="1" transform="translate(100,400)" x1="139" x2="146.26816997330218" y1="165" y2="168.9275085234784" /><rect fill="none" height="15" stroke="black" stroke-width="1" transform="translate(100,400)" width="9" x="133" y="126" /><line stroke="black" stroke-width="1" transform="translate(100,400)" x1="53" x2="53.52775321795483" y1="115" y2="127.73621030776405" /><circle cx="101" cy="80" fill="black" r="1" stroke="none" transform="translate(100,400)" /><line stroke="black" stroke-width="1" transform="translate(100,400)" x1="167" x2="171.837980865865" y1="60" y2="80.35920088246014" /><line stroke="black" stroke-width="1" transform="translate(100,400)" x1="133" x2="146.09550577587802" y1="158" y2="165.43421301675366" /><line stroke="black" stroke-width="1" transform="translate(100,400)" x1="103" x2="116.60466243801356" y1="147" y2="156.72847611535036" /><line stroke="black" stroke-width="1" transform="translate(100,400)" x1="106" x2="110.62476229399785" y1="58" y2="64.12755271821628" /><line stroke="black" stroke-width="1" transform="translate(100,400)" x1="68" x2="74.40166788516831" y1="109" y2="114.42313681360304" /><line stroke="black" stroke-width="1" transform="translate(100,400)" x1="45" x2="53.687013455948254" y1="75" y2="76.07637964751041" /><line stroke="black" stroke-width="1" transform="translate(100,400)" x1="164" x2="181.24325942407245" y1="180" y2="203.81642823886995" /><circle cx="40" cy="135" fill="black" r="2" stroke="none" transform="translate(100,400)" /><rect fill="none" height="13" stroke="black" stroke-width="1" transform="translate(100,400)" width="10" x="58" y="70" /><line stroke="black" stroke-width="1" transform="translate(100,400)" x1="68" x2="87.98620398610807" y1="88" y2="103.07208695145502" /><rect fill="none" height="4" stroke="black" stroke-width="1" transform="translate(100,400)" width="11" x="46" y="108" /><rect fill="none" height="7" stroke="black" stroke-width="1" transform="translate(100,400)" width="13" x="121" y="14" /><circle cx="116" cy="41" fill="black" r="2" stroke="none" transform="translate(100,400)" /><circle cx="119" cy="14" fill="black" r="1" stroke="none" transform="translate(100,400)" /><circle cx="162" cy="136" fill="black" r="3" stroke="none" transform="translate(100,400)" /><rect fill="none" height="9" stroke="black" stroke-width="1" transform="translate(100,400)" width="13" x="124" y="91" /><circle cx="176" cy="95" fill="black" r="2" stroke="none" transform="translate(100,400)" /><circle cx="127" cy="28" fill="black" r="1" stroke="none" transform="translate(100,400)" /><circle cx="54" cy="130" fill="black" r="1" stroke="none" transform="translate(100,400)" /><circle cx="147" cy="19" fill="black" r="3" stroke="none" transform="translate(100,400)" /><circle cx="116" cy="15" fill="black" r="1" stroke="none" transform="translate(100,400)" /><line stroke="black" stroke-width="1" transform="translate(100,400)" x1="29" x2="38.02107877248651" y1="175" y2="195.6772627701247" /><text font-family="Arial" font-size="14" text-anchor="middle" x="175" y="380">Option 1</text><g transform="translate(100,400)"><circle cx="38" cy="59" fill="none" r="24.5" stroke="black" stroke-width="2" /><polygon fill="none" points="24,176 61,176 42.5,139" stroke="black" stroke-width="2" transform="rotate(149.62000473202895,42.5,157.5)" /><circle cx="65" cy="94" fill="none" r="21.5" stroke="black" stroke-width="2" /><rect fill="none" height="35" stroke="black" stroke-width="2" transform="rotate(204.62000473202895,46.5,33.5)" width="35" x="29" y="16" /><polygon fill="none" points="15,80 53,80 34.0,42" stroke="black" stroke-width="2" transform="rotate(82.62000473202895,34.0,61.0)" /><line stroke="black" stroke-width="2" transform="rotate(317.6200047320289,149.0,165.0)" x1="130" x2="168" y1="146" y2="184" /></g><line stroke="black" stroke-width="1" transform="translate(350,400)" x1="155" x2="160.5830258116829" y1="45" y2="52.24025485672275" /><line stroke="black" stroke-width="1" transform="translate(350,400)" x1="78" x2="81.78964722433078" y1="113" y2="114.67583978859749" /><rect fill="none" height="4" stroke="black" stroke-width="1" transform="translate(350,400)" width="9" x="131" y="52" /><line stroke="black" stroke-width="1" transform="translate(350,400)" x1="119" x2="137.2059613294543" y1="130" y2="142.59518445428927" /><rect fill="none" height="9" stroke="black" stroke-width="1" transform="translate(350,400)" width="9" x="97" y="87" /><line stroke="black" stroke-width="1" transform="translate(350,400)" x1="111" x2="112.50313587597113" y1="136" y2="150.30066955463093" /><rect fill="none" height="7" stroke="black" stroke-width="1" transform="translate(350,400)" width="12" x="22" y="147" /><rect fill="none" height="15" stroke="black" stroke-width="1" transform="translate(350,400)" width="6" x="134" y="141" /><line stroke="black" stroke-width="1" transform="translate(350,400)" x1="41" x2="49.30014291456932" y1="34" y2="35.43411448005761" /><line stroke="black" stroke-width="1" transform="translate(350,400)" x1="106" x2="107.53151343098291" y1="136" y2="137.849785080631" /><rect fill="none" height="8" stroke="black" stroke-width="1" transform="translate(350,400)" width="12" x="65" y="54" /><line stroke="black" stroke-width="1" transform="translate(350,400)" x1="87" x2="88.96862841832511" y1="58" y2="64.96078670368368" /><rect fill="none" height="12" stroke="black" stroke-width="1" transform="translate(350,400)" width="8" x="76" y="10" /><rect fill="none" height="14" stroke="black" stroke-width="1" transform="translate(350,400)" width="6" x="66" y="64" /><line stroke="black" stroke-width="1" transform="translate(350,400)" x1="123" x2="144.08539303625034" y1="166" y2="174.9439489795069" /><circle cx="170" cy="42" fill="black" r="2" stroke="none" transform="translate(350,400)" /><rect fill="none" height="5" stroke="black" stroke-width="1" transform="translate(350,400)" width="5" x="112" y="164" /><rect fill="none" height="9" stroke="black" stroke-width="1" transform="translate(350,400)" width="8" x="178" y="115" /><rect fill="none" height="9" stroke="black" stroke-width="1" transform="translate(350,400)" width="11" x="151" y="179" /><line stroke="black" stroke-width="1" transform="translate(350,400)" x1="97" x2="117.30008428144993" y1="64" y2="85.18045234339684" /><circle cx="100" cy="48" fill="black" r="2" stroke="none" transform="translate(350,400)" /><rect fill="none" height="9" stroke="black" stroke-width="1" transform="translate(350,400)" width="11" x="32" y="40" /><line stroke="black" stroke-width="1" transform="translate(350,400)" x1="30" x2="39.956364338971504" y1="146" y2="158.9014773200849" /><line stroke="black" stroke-width="1" transform="translate(350,400)" x1="41" x2="48.41856885577225" y1="165" y2="166.13067772573405" /><circle cx="160" cy="157" fill="black" r="1" stroke="none" transform="translate(350,400)" /><circle cx="86" cy="43" fill="black" r="2" stroke="none" transform="translate(350,400)" /><rect fill="none" height="7" stroke="black" stroke-width="1" transform="translate(350,400)" width="6" x="91" y="169" /><circle cx="19" cy="142" fill="black" r="2" stroke="none" transform="translate(350,400)" /><line stroke="black" stroke-width="1" transform="translate(350,400)" x1="107" x2="116.09631331104242" y1="117" y2="133.73122585434095" /><circle cx="70" cy="44" fill="black" r="1" stroke="none" transform="translate(350,400)" /><line stroke="black" stroke-width="1" transform="translate(350,400)" x1="64" x2="69.4069279936363" y1="39" y2="45.47337729296235" /><circle cx="52" cy="34" fill="black" r="1" stroke="none" transform="translate(350,400)" /><line stroke="black" stroke-width="1" transform="translate(350,400)" x1="120" x2="129.64669852967526" y1="54" y2="57.27806543742119" /><circle cx="140" cy="109" fill="black" r="1" stroke="none" transform="translate(350,400)" /><circle cx="100" cy="105" fill="black" r="2" stroke="none" transform="translate(350,400)" /><rect fill="none" height="9" stroke="black" stroke-width="1" transform="translate(350,400)" width="15" x="42" y="153" /><line stroke="black" stroke-width="1" transform="translate(350,400)" x1="140" x2="163.04133154905833" y1="127" y2="131.14613375678863" /><circle cx="53" cy="138" fill="black" r="3" stroke="none" transform="translate(350,400)" /><rect fill="none" height="13" stroke="black" stroke-width="1" transform="translate(350,400)" width="10" x="20" y="63" /><circle cx="112" cy="81" fill="black" r="1" stroke="none" transform="translate(350,400)" /><text font-family="Arial" font-size="14" text-anchor="middle" x="425" y="380">Option 2</text><g transform="translate(350,400)"><circle cx="38" cy="59" fill="none" r="24.5" stroke="black" stroke-width="2" /><polygon fill="none" points="24,176 61,176 42.5,139" stroke="black" stroke-width="2" transform="rotate(165,42.5,157.5)" /><circle cx="65" cy="94" fill="none" r="21.5" stroke="black" stroke-width="2" /><rect fill="none" height="35" stroke="black" stroke-width="2" transform="rotate(220,46.5,33.5)" width="35" x="29" y="16" /><polygon fill="none" points="15,80 53,80 34.0,42" stroke="black" stroke-width="2" transform="rotate(98,34.0,61.0)" /><line stroke="black" stroke-width="2" transform="rotate(333,149.0,165.0)" x1="130" x2="168" y1="146" y2="184" /></g><rect fill="none" height="7" stroke="black" stroke-width="1" transform="translate(100,650)" width="12" x="21" y="81" /><line stroke="black" stroke-width="1" transform="translate(100,650)" x1="19" x2="22.70602358462911" y1="43" y2="51.32592166888694" /><line stroke="black" stroke-width="1" transform="translate(100,650)" x1="19" x2="20.202378209868204" y1="56" y2="61.6570983940838" /><line stroke="black" stroke-width="1" transform="translate(100,650)" x1="163" x2="166.65668705419807" y1="22" y2="27.788553211497153" /><rect fill="none" height="12" stroke="black" stroke-width="1" transform="translate(100,650)" width="6" x="112" y="169" /><circle cx="162" cy="25" fill="black" r="1" stroke="none" transform="translate(100,650)" /><line stroke="black" stroke-width="1" transform="translate(100,650)" x1="82" x2="86.00685010726164" y1="167" y2="171.967237423397" /><circle cx="151" cy="64" fill="black" r="3" stroke="none" transform="translate(100,650)" /><rect fill="none" height="5" stroke="black" stroke-width="1" transform="translate(100,650)" width="5" x="109" y="73" /><line stroke="black" stroke-width="1" transform="translate(100,650)" x1="54" x2="55.970898120922016" y1="130" y2="143.35172486179562" /><line stroke="black" stroke-width="1" transform="translate(100,650)" x1="99" x2="111.87025352618501" y1="27" y2="38.59706543519996" /><circle cx="171" cy="15" fill="black" r="2" stroke="none" transform="translate(100,650)" /><rect fill="none" height="3" stroke="black" stroke-width="1" transform="translate(100,650)" width="3" x="101" y="25" /><circle cx="172" cy="124" fill="black" r="3" stroke="none" transform="translate(100,650)" /><line stroke="black" stroke-width="1" transform="translate(100,650)" x1="140" x2="160.26588189016343" y1="156" y2="162.34878672590827" /><line stroke="black" stroke-width="1" transform="translate(100,650)" x1="157" x2="171.69749933998267" y1="98" y2="105.62880153503417" /><rect fill="none" height="13" stroke="black" stroke-width="1" transform="translate(100,650)" width="6" x="96" y="17" /><line stroke="black" stroke-width="1" transform="translate(100,650)" x1="101" x2="101.60131891183269" y1="35" y2="35.71152210752066" /><circle cx="84" cy="127" fill="black" r="1" stroke="none" transform="translate(100,650)" /><line stroke="black" stroke-width="1" transform="translate(100,650)" x1="141" x2="144.44624130764882" y1="173" y2="178.1159304547599" /><circle cx="23" cy="15" fill="black" r="2" stroke="none" transform="translate(100,650)" /><circle cx="41" cy="137" fill="black" r="3" stroke="none" transform="translate(100,650)" /><line stroke="black" stroke-width="1" transform="translate(100,650)" x1="177" x2="178.88444211369614" y1="133" y2="138.0282074376585" /><line stroke="black" stroke-width="1" transform="translate(100,650)" x1="160" x2="165.52025703712852" y1="85" y2="98.66484650538239" /><line stroke="black" stroke-width="1" transform="translate(100,650)" x1="127" x2="130.6529300360962" y1="72" y2="73.48186457711708" /><circle cx="66" cy="147" fill="black" r="3" stroke="none" transform="translate(100,650)" /><rect fill="none" height="15" stroke="black" stroke-width="1" transform="translate(100,650)" width="4" x="106" y="60" /><line stroke="black" stroke-width="1" transform="translate(100,650)" x1="142" x2="163.87431837044105" y1="170" y2="187.51996595062172" /><rect fill="none" height="12" stroke="black" stroke-width="1" transform="translate(100,650)" width="15" x="150" y="140" /><rect fill="none" height="6" stroke="black" stroke-width="1" transform="translate(100,650)" width="8" x="124" y="92" /><rect fill="none" height="5" stroke="black" stroke-width="1" transform="translate(100,650)" width="8" x="122" y="79" /><rect fill="none" height="13" stroke="black" stroke-width="1" transform="translate(100,650)" width="9" x="81" y="33" /><rect fill="none" height="12" stroke="black" stroke-width="1" transform="translate(100,650)" width="9" x="110" y="132" /><line stroke="black" stroke-width="1" transform="translate(100,650)" x1="14" x2="28.663974956288" y1="34" y2="37.78510295011249" /><circle cx="95" cy="80" fill="black" r="3" stroke="none" transform="translate(100,650)" /><line stroke="black" stroke-width="1" transform="translate(100,650)" x1="133" x2="138.89959143476233" y1="116" y2="127.47855955680552" /><line stroke="black" stroke-width="1" transform="translate(100,650)" x1="85" x2="98.81831987690313" y1="175" y2="183.47554817658127" /><circle cx="79" cy="52" fill="black" r="2" stroke="none" transform="translate(100,650)" /><rect fill="none" height="14" stroke="black" stroke-width="1" transform="translate(100,650)" width="6" x="93" y="78" /><circle cx="53" cy="33" fill="black" r="2" stroke="none" transform="translate(100,650)" /><text font-family="Arial" font-size="14" text-anchor="middle" x="175" y="630">Option 3</text><g transform="translate(100,650)"><circle cx="38" cy="59" fill="none" r="24.5" stroke="black" stroke-width="2" /><polygon fill="none" points="141,57 178,57 159.5,20" stroke="black" stroke-width="2" transform="rotate(180.71645358388784,159.5,38.5)" /><circle cx="65" cy="94" fill="none" r="21.5" stroke="black" stroke-width="2" /><rect fill="none" height="35" stroke="black" stroke-width="2" transform="rotate(235.71645358388784,46.5,33.5)" width="35" x="29" y="16" /><polygon fill="none" points="15,80 53,80 34.0,42" stroke="black" stroke-width="2" transform="rotate(113.71645358388784,34.0,61.0)" /><line stroke="black" stroke-width="2" transform="rotate(348.7164535838878,87.0,38.0)" x1="68" x2="106" y1="19" y2="57" /></g><line stroke="black" stroke-width="1" transform="translate(350,650)" x1="170" x2="184.37776883736132" y1="65" y2="76.65453771085691" /><line stroke="black" stroke-width="1" transform="translate(350,650)" x1="40" x2="43.92358696327476" y1="23" y2="33.8628746267093" /><line stroke="black" stroke-width="1" transform="translate(350,650)" x1="90" x2="91.5263160092713" y1="105" y2="106.64846886127891" /><line stroke="black" stroke-width="1" transform="translate(350,650)" x1="28" x2="33.37063817198501" y1="85" y2="85.29096611664517" /><line stroke="black" stroke-width="1" transform="translate(350,650)" x1="173" x2="175.0689292742284" y1="38" y2="43.50707784867326" /><circle cx="132" cy="79" fill="black" r="1" stroke="none" transform="translate(350,650)" /><line stroke="black" stroke-width="1" transform="translate(350,650)" x1="122" x2="135.95588599934266" y1="46" y2="61.55593279758565" /><rect fill="none" height="5" stroke="black" stroke-width="1" transform="translate(350,650)" width="10" x="93" y="14" /><circle cx="107" cy="78" fill="black" r="3" stroke="none" transform="translate(350,650)" /><line stroke="black" stroke-width="1" transform="translate(350,650)" x1="16" x2="23.622184199593644" y1="137" y2="149.2843829971726" /><line stroke="black" stroke-width="1" transform="translate(350,650)" x1="117" x2="127.53845274436682" y1="74" y2="85.64574858574993" /><circle cx="67" cy="71" fill="black" r="1" stroke="none" transform="translate(350,650)" /><circle cx="91" cy="152" fill="black" r="1" stroke="none" transform="translate(350,650)" /><rect fill="none" height="7" stroke="black" stroke-width="1" transform="translate(350,650)" width="14" x="174" y="110" /><rect fill="none" height="10" stroke="black" stroke-width="1" transform="translate(350,650)" width="11" x="24" y="54" /><line stroke="black" stroke-width="1" transform="translate(350,650)" x1="30" x2="31.933259600078813" y1="25" y2="39.11941579164473" /><circle cx="85" cy="121" fill="black" r="1" stroke="none" transform="translate(350,650)" /><line stroke="black" stroke-width="1" transform="translate(350,650)" x1="93" x2="100.98860286586996" y1="180" y2="192.18197443560564" /><circle cx="160" cy="12" fill="black" r="2" stroke="none" transform="translate(350,650)" /><circle cx="25" cy="36" fill="black" r="1" stroke="none" transform="translate(350,650)" /><circle cx="37" cy="104" fill="black" r="2" stroke="none" transform="translate(350,650)" /><line stroke="black" stroke-width="1" transform="translate(350,650)" x1="161" x2="162.11862759334792" y1="141" y2="147.0989960208883" /><line stroke="black" stroke-width="1" transform="translate(350,650)" x1="96" x2="104.64679628753464" y1="35" y2="45.27446082916183" /><line stroke="black" stroke-width="1" transform="translate(350,650)" x1="88" x2="93.64038338780193" y1="73" y2="84.62334620264181" /><rect fill="none" height="15" stroke="black" stroke-width="1" transform="translate(350,650)" width="13" x="155" y="47" /><circle cx="127" cy="72" fill="black" r="1" stroke="none" transform="translate(350,650)" /><circle cx="12" cy="175" fill="black" r="1" stroke="none" transform="translate(350,650)" /><circle cx="130" cy="122" fill="black" r="3" stroke="none" transform="translate(350,650)" /><rect fill="none" height="11" stroke="black" stroke-width="1" transform="translate(350,650)" width="15" x="111" y="76" /><rect fill="none" height="3" stroke="black" stroke-width="1" transform="translate(350,650)" width="9" x="80" y="179" /><circle cx="150" cy="179" fill="black" r="1" stroke="none" transform="translate(350,650)" /><line stroke="black" stroke-width="1" transform="translate(350,650)" x1="10" x2="17.10256526169894" y1="155" y2="163.91963985380494" /><rect fill="none" height="13" stroke="black" stroke-width="1" transform="translate(350,650)" width="8" x="83" y="14" /><line stroke="black" stroke-width="1" transform="translate(350,650)" x1="156" x2="166.48679636013702" y1="92" y2="92.64817986535279" /><line stroke="black" stroke-width="1" transform="translate(350,650)" x1="67" x2="68.10617009390288" y1="127" y2="131.25221742022336" /><circle cx="80" cy="155" fill="black" r="3" stroke="none" transform="translate(350,650)" /><circle cx="104" cy="105" fill="black" r="1" stroke="none" transform="translate(350,650)" /><circle cx="155" cy="21" fill="black" r="1" stroke="none" transform="translate(350,650)" /><circle cx="129" cy="103" fill="black" r="2" stroke="none" transform="translate(350,650)" /><circle cx="94" cy="160" fill="black" r="2" stroke="none" transform="translate(350,650)" /><text font-family="Arial" font-size="14" text-anchor="middle" x="425" y="630">Option 4</text><g transform="translate(350,650)"><circle cx="38" cy="59" fill="none" r="24.5" stroke="black" stroke-width="2" /><polygon fill="none" points="24,176 61,176 42.5,139" stroke="black" stroke-width="2" transform="rotate(180.95272207183902,42.5,157.5)" /><circle cx="65" cy="94" fill="none" r="21.5" stroke="black" stroke-width="2" /><rect fill="none" height="35" stroke="black" stroke-width="2" transform="rotate(235.95272207183902,46.5,33.5)" width="35" x="29" y="16" /><polygon fill="none" points="15,80 53,80 34.0,42" stroke="black" stroke-width="2" transform="rotate(113.95272207183902,34.0,61.0)" /><line stroke="black" stroke-width="2" transform="rotate(348.952722071839,149.0,165.0)" x1="130" x2="168" y1="146" y2="184" /></g></svg>