<?xml version="1.0" encoding="utf-8" ?>
<svg baseProfile="full" height="1000px" version="1.1" width="600px" xmlns="http://www.w3.org/2000/svg" xmlns:ev="http://www.w3.org/2001/xml-events" xmlns:xlink="http://www.w3.org/1999/xlink"><defs /><rect fill="white" height="100%" width="100%" x="0" y="0" /><text font-family="Arial" font-size="24" text-anchor="middle" x="300" y="40">Visual Figure Ground Test</text><text font-family="Arial" font-size="18" text-anchor="middle" x="300" y="80">Target Pattern</text><g transform="translate(200,100)"><polygon fill="none" points="62,193 112,193 87.0,143" stroke="black" stroke-width="2" transform="rotate(90,87.0,168.0)" /><rect fill="none" height="39" stroke="black" stroke-width="2" transform="rotate(102,47.5,151.5)" width="39" x="28" y="132" /><rect fill="none" height="37" stroke="black" stroke-width="2" transform="rotate(306,39.5,164.5)" width="37" x="21" y="146" /><polygon fill="none" points="143,105 174,105 158.5,74" stroke="black" stroke-width="2" transform="rotate(264,158.5,89.5)" /><polygon fill="none" points="20,83 55,83 37.5,48" stroke="black" stroke-width="2" transform="rotate(46,37.5,65.5)" /><circle cx="65" cy="80" fill="none" r="17.5" stroke="black" stroke-width="2" /></g><text font-family="Arial" font-size="18" text-anchor="middle" x="300" y="350">Options</text><circle cx="56" cy="85" fill="black" r="2" stroke="none" transform="translate(100,400)" /><line stroke="black" stroke-width="1" transform="translate(100,400)" x1="56" x2="64.38434884992112" y1="53" y2="68.6596971820678" /><line stroke="black" stroke-width="1" transform="translate(100,400)" x1="112" x2="117.78395309962907" y1="30" y2="41.29532204003064" /><rect fill="none" height="10" stroke="black" stroke-width="1" transform="translate(100,400)" width="4" x="55" y="147" /><line stroke="black" stroke-width="1" transform="translate(100,400)" x1="37" x2="39.588274502637645" y1="21" y2="25.414763068787902" /><circle cx="108" cy="118" fill="black" r="3" stroke="none" transform="translate(100,400)" /><rect fill="none" height="13" stroke="black" stroke-width="1" transform="translate(100,400)" width="15" x="47" y="15" /><line stroke="black" stroke-width="1" transform="translate(100,400)" x1="116" x2="122.14354120299274" y1="66" y2="68.05193503332197" /><circle cx="31" cy="74" fill="black" r="2" stroke="none" transform="translate(100,400)" /><line stroke="black" stroke-width="1" transform="translate(100,400)" x1="169" x2="189.93212965792475" y1="25" y2="30.066626424947575" /><circle cx="86" cy="43" fill="black" r="2" stroke="none" transform="translate(100,400)" /><rect fill="none" height="6" stroke="black" stroke-width="1" transform="translate(100,400)" width="7" x="122" y="157" /><circle cx="135" cy="56" fill="black" r="3" stroke="none" transform="translate(100,400)" /><rect fill="none" height="13" stroke="black" stroke-width="1" transform="translate(100,400)" width="8" x="84" y="38" /><rect fill="none" height="3" stroke="black" stroke-width="1" transform="translate(100,400)" width="6" x="82" y="99" /><circle cx="172" cy="28" fill="black" r="1" stroke="none" transform="translate(100,400)" /><rect fill="none" height="8" stroke="black" stroke-width="1" transform="translate(100,400)" width="11" x="157" y="99" /><line stroke="black" stroke-width="1" transform="translate(100,400)" x1="149" x2="150.7277388129371" y1="36" y2="36.00572165626387" /><rect fill="none" height="9" stroke="black" stroke-width="1" transform="translate(100,400)" width="12" x="102" y="102" /><line stroke="black" stroke-width="1" transform="translate(100,400)" x1="34" x2="39.40960083520545" y1="65" y2="69.4006226828548" /><rect fill="none" height="15" stroke="black" stroke-width="1" transform="translate(100,400)" width="10" x="117" y="178" /><rect fill="none" height="9" stroke="black" stroke-width="1" transform="translate(100,400)" width="7" x="146" y="178" /><circle cx="89" cy="150" fill="black" r="3" stroke="none" transform="translate(100,400)" /><circle cx="165" cy="165" fill="black" r="3" stroke="none" transform="translate(100,400)" /><circle cx="66" cy="150" fill="black" r="2" stroke="none" transform="translate(100,400)" /><line stroke="black" stroke-width="1" transform="translate(100,400)" x1="146" x2="150.7726185469534" y1="107" y2="111.03620474910714" /><circle cx="41" cy="59" fill="black" r="1" stroke="none" transform="translate(100,400)" /><line stroke="black" stroke-width="1" transform="translate(100,400)" x1="41" x2="56.66712787944702" y1="68" y2="87.34872054952838" /><rect fill="none" height="10" stroke="black" stroke-width="1" transform="translate(100,400)" width="4" x="152" y="50" /><circle cx="160" cy="52" fill="black" r="1" stroke="none" transform="translate(100,400)" /><circle cx="47" cy="167" fill="black" r="1" stroke="none" transform="translate(100,400)" /><circle cx="17" cy="107" fill="black" r="2" stroke="none" transform="translate(100,400)" /><rect fill="none" height="7" stroke="black" stroke-width="1" transform="translate(100,400)" width="9" x="145" y="10" /><line stroke="black" stroke-width="1" transform="translate(100,400)" x1="77" x2="90.7633477101904" y1="58" y2="71.02747466203336" /><line stroke="black" stroke-width="1" transform="translate(100,400)" x1="52" x2="59.591559372883516" y1="177" y2="184.39298317033354" /><line stroke="black" stroke-width="1" transform="translate(100,400)" x1="156" x2="160.62077126785863" y1="140" y2="140.74889835517376" /><circle cx="23" cy="170" fill="black" r="3" stroke="none" transform="translate(100,400)" /><rect fill="none" height="12" stroke="black" stroke-width="1" transform="translate(100,400)" width="13" x="39" y="19" /><circle cx="174" cy="100" fill="black" r="3" stroke="none" transform="translate(100,400)" /><line stroke="black" stroke-width="1" transform="translate(100,400)" x1="170" x2="177.91444783659256" y1="35" y2="60.21374917396878" /><text font-family="Arial" font-size="14" text-anchor="middle" x="175" y="380">Option 1</text><g transform="translate(100,400)"><polygon fill="none" points="62,193 112,193 87.0,143" stroke="black" stroke-width="2" transform="rotate(70.25929952177131,87.0,168.0)" /><rect fill="none" height="39" stroke="black" stroke-width="2" transform="rotate(82.25929952177131,47.5,151.5)" width="39" x="28" y="132" /><rect fill="none" height="37" stroke="black" stroke-width="2" transform="rotate(286.2592995217713,39.5,164.5)" width="37" x="21" y="146" /><polygon fill="none" points="143,105 174,105 158.5,74" stroke="black" stroke-width="2" transform="rotate(244.2592995217713,158.5,89.5)" /><polygon fill="none" points="20,83 55,83 37.5,48" stroke="black" stroke-width="2" transform="rotate(26.25929952177131,37.5,65.5)" /><circle cx="65" cy="80" fill="none" r="17.5" stroke="black" stroke-width="2" /></g><line stroke="black" stroke-width="1" transform="translate(350,400)" x1="139" x2="157.1735889585672" y1="160" y2="167.00937377378347" /><circle cx="68" cy="132" fill="black" r="3" stroke="none" transform="translate(350,400)" /><line stroke="black" stroke-width="1" transform="translate(350,400)" x1="117" x2="119.94687987433763" y1="123" y2="140.33677265869397" /><rect fill="none" height="8" stroke="black" stroke-width="1" transform="translate(350,400)" width="13" x="11" y="63" /><rect fill="none" height="4" stroke="black" stroke-width="1" transform="translate(350,400)" width="8" x="133" y="71" /><rect fill="none" height="10" stroke="black" stroke-width="1" transform="translate(350,400)" width="13" x="86" y="147" /><circle cx="132" cy="69" fill="black" r="1" stroke="none" transform="translate(350,400)" /><line stroke="black" stroke-width="1" transform="translate(350,400)" x1="34" x2="37.00954989883913" y1="93" y2="95.18351251313382" /><line stroke="black" stroke-width="1" transform="translate(350,400)" x1="35" x2="38.67696477695893" y1="173" y2="182.53759030609876" /><rect fill="none" height="13" stroke="black" stroke-width="1" transform="translate(350,400)" width="15" x="166" y="64" /><line stroke="black" stroke-width="1" transform="translate(350,400)" x1="83" x2="106.13488042966287" y1="31" y2="58.08374924123604" /><line stroke="black" stroke-width="1" transform="translate(350,400)" x1="56" x2="65.34874959023023" y1="144" y2="144.7798497692832" /><rect fill="none" height="3" stroke="black" stroke-width="1" transform="translate(350,400)" width="4" x="174" y="118" /><line stroke="black" stroke-width="1" transform="translate(350,400)" x1="73" x2="84.67602499955665" y1="175" y2="191.43669003055496" /><circle cx="113" cy="43" fill="black" r="2" stroke="none" transform="translate(350,400)" /><circle cx="113" cy="146" fill="black" r="3" stroke="none" transform="translate(350,400)" /><circle cx="21" cy="120" fill="black" r="3" stroke="none" transform="translate(350,400)" /><rect fill="none" height="6" stroke="black" stroke-width="1" transform="translate(350,400)" width="3" x="171" y="29" /><circle cx="73" cy="10" fill="black" r="3" stroke="none" transform="translate(350,400)" /><circle cx="74" cy="130" fill="black" r="3" stroke="none" transform="translate(350,400)" /><line stroke="black" stroke-width="1" transform="translate(350,400)" x1="36" x2="38.20283371770518" y1="171" y2="198.40928543687335" /><rect fill="none" height="10" stroke="black" stroke-width="1" transform="translate(350,400)" width="8" x="67" y="66" /><circle cx="157" cy="177" fill="black" r="1" stroke="none" transform="translate(350,400)" /><line stroke="black" stroke-width="1" transform="translate(350,400)" x1="179" x2="187.59115988762565" y1="24" y2="37.08895872547276" /><line stroke="black" stroke-width="1" transform="translate(350,400)" x1="32" x2="33.048331349339904" y1="34" y2="37.486889880554784" /><circle cx="40" cy="139" fill="black" r="3" stroke="none" transform="translate(350,400)" /><rect fill="none" height="13" stroke="black" stroke-width="1" transform="translate(350,400)" width="15" x="121" y="85" /><line stroke="black" stroke-width="1" transform="translate(350,400)" x1="29" x2="37.56205236308409" y1="64" y2="80.5084361782703" /><rect fill="none" height="14" stroke="black" stroke-width="1" transform="translate(350,400)" width="8" x="38" y="134" /><circle cx="81" cy="39" fill="black" r="2" stroke="none" transform="translate(350,400)" /><circle cx="157" cy="67" fill="black" r="3" stroke="none" transform="translate(350,400)" /><line stroke="black" stroke-width="1" transform="translate(350,400)" x1="86" x2="91.80712376003979" y1="14" y2="14.736655355099781" /><circle cx="76" cy="37" fill="black" r="1" stroke="none" transform="translate(350,400)" /><circle cx="160" cy="158" fill="black" r="3" stroke="none" transform="translate(350,400)" /><rect fill="none" height="15" stroke="black" stroke-width="1" transform="translate(350,400)" width="10" x="17" y="116" /><line stroke="black" stroke-width="1" transform="translate(350,400)" x1="166" x2="166.38641828105918" y1="113" y2="116.70646302953796" /><line stroke="black" stroke-width="1" transform="translate(350,400)" x1="104" x2="106.45070799039563" y1="160" y2="172.31867950472525" /><line stroke="black" stroke-width="1" transform="translate(350,400)" x1="15" x2="15.0057856956555" y1="154" y2="154.82572853007022" /><circle cx="85" cy="166" fill="black" r="3" stroke="none" transform="translate(350,400)" /><rect fill="none" height="9" stroke="black" stroke-width="1" transform="translate(350,400)" width="13" x="13" y="164" /><text font-family="Arial" font-size="14" text-anchor="middle" x="425" y="380">Option 2</text><g transform="translate(350,400)"><polygon fill="none" points="62,193 112,193 87.0,143" stroke="black" stroke-width="2" transform="rotate(73.58372183085348,87.0,168.0)" /><rect fill="none" height="39" stroke="black" stroke-width="2" transform="rotate(85.58372183085348,47.5,151.5)" width="39" x="28" y="132" /><rect fill="none" height="37" stroke="black" stroke-width="2" transform="rotate(289.5837218308535,39.5,164.5)" width="37" x="21" y="146" /><polygon fill="none" points="143,105 174,105 158.5,74" stroke="black" stroke-width="2" transform="rotate(247.58372183085348,158.5,89.5)" /><polygon fill="none" points="20,83 55,83 37.5,48" stroke="black" stroke-width="2" transform="rotate(29.583721830853484,37.5,65.5)" /><circle cx="65" cy="80" fill="none" r="17.5" stroke="black" stroke-width="2" /></g><line stroke="black" stroke-width="1" transform="translate(100,650)" x1="150" x2="156.90384730609486" y1="159" y2="169.50415312627732" /><rect fill="none" height="3" stroke="black" stroke-width="1" transform="translate(100,650)" width="14" x="140" y="160" /><circle cx="15" cy="30" fill="black" r="1" stroke="none" transform="translate(100,650)" /><line stroke="black" stroke-width="1" transform="translate(100,650)" x1="134" x2="140.1517875729382" y1="38" y2="48.10476735026472" /><line stroke="black" stroke-width="1" transform="translate(100,650)" x1="117" x2="117.94415062926018" y1="168" y2="175.60776165238894" /><line stroke="black" stroke-width="1" transform="translate(100,650)" x1="180" x2="184.41680203995884" y1="15" y2="23.590113136766767" /><circle cx="98" cy="71" fill="black" r="3" stroke="none" transform="translate(100,650)" /><line stroke="black" stroke-width="1" transform="translate(100,650)" x1="51" x2="57.364447090010714" y1="115" y2="121.31660802263866" /><line stroke="black" stroke-width="1" transform="translate(100,650)" x1="65" x2="75.59317305043879" y1="128" y2="139.95838231799615" /><rect fill="none" height="14" stroke="black" stroke-width="1" transform="translate(100,650)" width="4" x="60" y="92" /><line stroke="black" stroke-width="1" transform="translate(100,650)" x1="122" x2="129.42442462622694" y1="162" y2="166.53567352080734" /><rect fill="none" height="12" stroke="black" stroke-width="1" transform="translate(100,650)" width="15" x="163" y="129" /><line stroke="black" stroke-width="1" transform="translate(100,650)" x1="96" x2="118.61313377565122" y1="107" y2="122.97733703912434" /><circle cx="139" cy="33" fill="black" r="2" stroke="none" transform="translate(100,650)" /><circle cx="66" cy="105" fill="black" r="1" stroke="none" transform="translate(100,650)" /><line stroke="black" stroke-width="1" transform="translate(100,650)" x1="138" x2="141.92150609496122" y1="27" y2="32.233439433519685" /><rect fill="none" height="11" stroke="black" stroke-width="1" transform="translate(100,650)" width="6" x="118" y="105" /><rect fill="none" height="3" stroke="black" stroke-width="1" transform="translate(100,650)" width="4" x="160" y="162" /><line stroke="black" stroke-width="1" transform="translate(100,650)" x1="168" x2="171.39118536336156" y1="67" y2="67.98498036849324" /><circle cx="109" cy="92" fill="black" r="3" stroke="none" transform="translate(100,650)" /><line stroke="black" stroke-width="1" transform="translate(100,650)" x1="81" x2="102.01101952384539" y1="34" y2="39.054397112557716" /><line stroke="black" stroke-width="1" transform="translate(100,650)" x1="36" x2="55.12811381484018" y1="172" y2="197.27880486299142" /><line stroke="black" stroke-width="1" transform="translate(100,650)" x1="36" x2="41.815589887558446" y1="24" y2="35.353720838773484" /><line stroke="black" stroke-width="1" transform="translate(100,650)" x1="39" x2="41.171305347966154" y1="68" y2="69.16573335447141" /><rect fill="none" height="8" stroke="black" stroke-width="1" transform="translate(100,650)" width="11" x="138" y="134" /><line stroke="black" stroke-width="1" transform="translate(100,650)" x1="33" x2="39.5881320364344" y1="106" y2="110.07208615128131" /><rect fill="none" height="8" stroke="black" stroke-width="1" transform="translate(100,650)" width="7" x="143" y="50" /><rect fill="none" height="10" stroke="black" stroke-width="1" transform="translate(100,650)" width="14" x="143" y="14" /><rect fill="none" height="10" stroke="black" stroke-width="1" transform="translate(100,650)" width="4" x="75" y="123" /><rect fill="none" height="11" stroke="black" stroke-width="1" transform="translate(100,650)" width="13" x="173" y="66" /><rect fill="none" height="9" stroke="black" stroke-width="1" transform="translate(100,650)" width="8" x="36" y="105" /><line stroke="black" stroke-width="1" transform="translate(100,650)" x1="167" x2="171.92057106153635" y1="161" y2="167.52739352949015" /><circle cx="51" cy="13" fill="black" r="3" stroke="none" transform="translate(100,650)" /><line stroke="black" stroke-width="1" transform="translate(100,650)" x1="143" x2="144.15330831227408" y1="11" y2="24.722661787503647" /><line stroke="black" stroke-width="1" transform="translate(100,650)" x1="152" x2="155.9034327196276" y1="93" y2="106.17879883279107" /><line stroke="black" stroke-width="1" transform="translate(100,650)" x1="29" x2="33.14468408472245" y1="160" y2="162.5569877283358" /><line stroke="black" stroke-width="1" transform="translate(100,650)" x1="26" x2="31.67976257581818" y1="108" y2="115.49730609709046" /><circle cx="35" cy="161" fill="black" r="1" stroke="none" transform="translate(100,650)" /><rect fill="none" height="10" stroke="black" stroke-width="1" transform="translate(100,650)" width="15" x="62" y="42" /><rect fill="none" height="6" stroke="black" stroke-width="1" transform="translate(100,650)" width="8" x="23" y="48" /><text font-family="Arial" font-size="14" text-anchor="middle" x="175" y="630">Option 3</text><g transform="translate(100,650)"><polygon fill="none" points="62,193 112,193 87.0,143" stroke="black" stroke-width="2" transform="rotate(90,87.0,168.0)" /><rect fill="none" height="39" stroke="black" stroke-width="2" transform="rotate(102,47.5,151.5)" width="39" x="28" y="132" /><rect fill="none" height="37" stroke="black" stroke-width="2" transform="rotate(306,39.5,164.5)" width="37" x="21" y="146" /><polygon fill="none" points="143,105 174,105 158.5,74" stroke="black" stroke-width="2" transform="rotate(264,158.5,89.5)" /><polygon fill="none" points="20,83 55,83 37.5,48" stroke="black" stroke-width="2" transform="rotate(46,37.5,65.5)" /><circle cx="65" cy="80" fill="none" r="17.5" stroke="black" stroke-width="2" /></g><rect fill="none" height="12" stroke="black" stroke-width="1" transform="translate(350,650)" width="10" x="95" y="159" /><circle cx="47" cy="114" fill="black" r="2" stroke="none" transform="translate(350,650)" /><line stroke="black" stroke-width="1" transform="translate(350,650)" x1="80" x2="84.05735792401671" y1="80" y2="80.6151542475126" /><line stroke="black" stroke-width="1" transform="translate(350,650)" x1="22" x2="26.850936861600374" y1="94" y2="94.12174680216783" /><rect fill="none" height="7" stroke="black" stroke-width="1" transform="translate(350,650)" width="15" x="19" y="137" /><circle cx="39" cy="115" fill="black" r="1" stroke="none" transform="translate(350,650)" /><circle cx="71" cy="177" fill="black" r="2" stroke="none" transform="translate(350,650)" /><rect fill="none" height="6" stroke="black" stroke-width="1" transform="translate(350,650)" width="10" x="132" y="58" /><circle cx="36" cy="147" fill="black" r="1" stroke="none" transform="translate(350,650)" /><line stroke="black" stroke-width="1" transform="translate(350,650)" x1="34" x2="36.705977403382825" y1="180" y2="187.01918309931827" /><rect fill="none" height="7" stroke="black" stroke-width="1" transform="translate(350,650)" width="5" x="133" y="37" /><rect fill="none" height="3" stroke="black" stroke-width="1" transform="translate(350,650)" width="11" x="108" y="32" /><rect fill="none" height="6" stroke="black" stroke-width="1" transform="translate(350,650)" width="11" x="20" y="63" /><rect fill="none" height="9" stroke="black" stroke-width="1" transform="translate(350,650)" width="14" x="141" y="77" /><rect fill="none" height="14" stroke="black" stroke-width="1" transform="translate(350,650)" width="10" x="148" y="35" /><circle cx="67" cy="38" fill="black" r="1" stroke="none" transform="translate(350,650)" /><line stroke="black" stroke-width="1" transform="translate(350,650)" x1="179" x2="185.9383448060353" y1="156" y2="157.37626570028326" /><rect fill="none" height="12" stroke="black" stroke-width="1" transform="translate(350,650)" width="4" x="113" y="46" /><line stroke="black" stroke-width="1" transform="translate(350,650)" x1="38" x2="44.74628827390858" y1="90" y2="98.50176695319166" /><line stroke="black" stroke-width="1" transform="translate(350,650)" x1="169" x2="191.43872421631025" y1="33" y2="36.73363006448221" /><rect fill="none" height="14" stroke="black" stroke-width="1" transform="translate(350,650)" width="5" x="133" y="123" /><circle cx="170" cy="106" fill="black" r="2" stroke="none" transform="translate(350,650)" /><rect fill="none" height="15" stroke="black" stroke-width="1" transform="translate(350,650)" width="8" x="152" y="68" /><rect fill="none" height="12" stroke="black" stroke-width="1" transform="translate(350,650)" width="12" x="156" y="132" /><circle cx="30" cy="77" fill="black" r="3" stroke="none" transform="translate(350,650)" /><rect fill="none" height="12" stroke="black" stroke-width="1" transform="translate(350,650)" width="9" x="29" y="91" /><circle cx="150" cy="161" fill="black" r="3" stroke="none" transform="translate(350,650)" /><circle cx="49" cy="55" fill="black" r="1" stroke="none" transform="translate(350,650)" /><line stroke="black" stroke-width="1" transform="translate(350,650)" x1="121" x2="137.74551618215045" y1="49" y2="55.52922298585977" /><line stroke="black" stroke-width="1" transform="translate(350,650)" x1="168" x2="174.93378523217692" y1="166" y2="173.78443823427617" /><line stroke="black" stroke-width="1" transform="translate(350,650)" x1="175" x2="190.6450129024732" y1="58" y2="67.61374673346863" /><rect fill="none" height="9" stroke="black" stroke-width="1" transform="translate(350,650)" width="13" x="61" y="76" /><line stroke="black" stroke-width="1" transform="translate(350,650)" x1="25" x2="25.783465303237577" y1="55" y2="58.81702271591725" /><circle cx="113" cy="150" fill="black" r="1" stroke="none" transform="translate(350,650)" /><line stroke="black" stroke-width="1" transform="translate(350,650)" x1="39" x2="63.31111705016963" y1="55" y2="57.582323242193205" /><line stroke="black" stroke-width="1" transform="translate(350,650)" x1="99" x2="104.32771588128222" y1="119" y2="126.08031844613" /><line stroke="black" stroke-width="1" transform="translate(350,650)" x1="60" x2="79.71093411348363" y1="152" y2="155.14189036860023" /><line stroke="black" stroke-width="1" transform="translate(350,650)" x1="112" x2="118.53314162521107" y1="138" y2="141.15613036700324" /><circle cx="48" cy="80" fill="black" r="1" stroke="none" transform="translate(350,650)" /><line stroke="black" stroke-width="1" transform="translate(350,650)" x1="94" x2="116.89083277127975" y1="14" y2="20.060346978377694" /><text font-family="Arial" font-size="14" text-anchor="middle" x="425" y="630">Option 4</text><g transform="translate(350,650)"><polygon fill="none" points="62,193 112,193 87.0,143" stroke="black" stroke-width="2" transform="rotate(90,87.0,168.0)" /><rect fill="none" height="39" stroke="black" stroke-width="2" transform="rotate(102,47.5,151.5)" width="39" x="28" y="132" /><rect fill="none" height="37" stroke="black" stroke-width="2" transform="rotate(306,39.5,164.5)" width="37" x="21" y="146" /><polygon fill="none" points="143,105 174,105 158.5,74" stroke="black" stroke-width="2" transform="rotate(264,158.5,89.5)" /><polygon fill="none" points="20,83 55,83 37.5,48" stroke="black" stroke-width="2" transform="rotate(46,37.5,65.5)" /><circle cx="135" cy="90" fill="none" r="17.5" stroke="black" stroke-width="2" /></g></svg>