<?xml version="1.0" encoding="utf-8" ?>
<svg baseProfile="full" height="1000px" version="1.1" width="600px" xmlns="http://www.w3.org/2000/svg" xmlns:ev="http://www.w3.org/2001/xml-events" xmlns:xlink="http://www.w3.org/1999/xlink"><defs /><rect fill="white" height="100%" width="100%" x="0" y="0" /><text font-family="Arial" font-size="24" text-anchor="middle" x="300" y="40">Visual Figure Ground Test</text><text font-family="Arial" font-size="18" text-anchor="middle" x="300" y="80">Target Pattern</text><g transform="translate(200,100)"><line stroke="black" stroke-width="2" transform="rotate(251,56.5,34.5)" x1="38" x2="75" y1="16" y2="53" /><circle cx="68" cy="84" fill="none" r="17.0" stroke="black" stroke-width="2" /><polygon fill="none" points="98,191 141,191 119.5,148" stroke="black" stroke-width="2" transform="rotate(13,119.5,169.5)" /><rect fill="none" height="42" stroke="black" stroke-width="2" transform="rotate(296,109.0,90.0)" width="42" x="88" y="69" /><rect fill="none" height="44" stroke="black" stroke-width="2" transform="rotate(218,107.0,41.0)" width="44" x="85" y="19" /><circle cx="46" cy="102" fill="none" r="15.0" stroke="black" stroke-width="2" /></g><text font-family="Arial" font-size="18" text-anchor="middle" x="300" y="350">Options</text><line stroke="black" stroke-width="1" transform="translate(100,400)" x1="155" x2="164.77472694588783" y1="64" y2="64.03614085537342" /><circle cx="98" cy="93" fill="black" r="1" stroke="none" transform="translate(100,400)" /><circle cx="47" cy="65" fill="black" r="2" stroke="none" transform="translate(100,400)" /><line stroke="black" stroke-width="1" transform="translate(100,400)" x1="51" x2="58.13023561922589" y1="39" y2="42.16168736912001" /><line stroke="black" stroke-width="1" transform="translate(100,400)" x1="74" x2="84.08433055648385" y1="73" y2="73.4959639381073" /><line stroke="black" stroke-width="1" transform="translate(100,400)" x1="132" x2="138.4480776984191" y1="15" y2="18.518770443916697" /><rect fill="none" height="10" stroke="black" stroke-width="1" transform="translate(100,400)" width="8" x="164" y="170" /><line stroke="black" stroke-width="1" transform="translate(100,400)" x1="165" x2="192.80261993080632" y1="10" y2="25.39519500225036" /><rect fill="none" height="12" stroke="black" stroke-width="1" transform="translate(100,400)" width="13" x="140" y="42" /><circle cx="139" cy="148" fill="black" r="1" stroke="none" transform="translate(100,400)" /><line stroke="black" stroke-width="1" transform="translate(100,400)" x1="97" x2="98.58101832408798" y1="118" y2="125.1052557759663" /><circle cx="161" cy="142" fill="black" r="3" stroke="none" transform="translate(100,400)" /><circle cx="18" cy="114" fill="black" r="3" stroke="none" transform="translate(100,400)" /><rect fill="none" height="10" stroke="black" stroke-width="1" transform="translate(100,400)" width="10" x="120" y="98" /><line stroke="black" stroke-width="1" transform="translate(100,400)" x1="150" x2="152.54234946097122" y1="98" y2="101.24660484860978" /><circle cx="63" cy="118" fill="black" r="3" stroke="none" transform="translate(100,400)" /><line stroke="black" stroke-width="1" transform="translate(100,400)" x1="168" x2="174.16976365823282" y1="110" y2="116.06517968758658" /><rect fill="none" height="15" stroke="black" stroke-width="1" transform="translate(100,400)" width="7" x="92" y="19" /><rect fill="none" height="13" stroke="black" stroke-width="1" transform="translate(100,400)" width="14" x="147" y="167" /><circle cx="119" cy="12" fill="black" r="3" stroke="none" transform="translate(100,400)" /><circle cx="28" cy="84" fill="black" r="2" stroke="none" transform="translate(100,400)" /><rect fill="none" height="8" stroke="black" stroke-width="1" transform="translate(100,400)" width="12" x="75" y="142" /><rect fill="none" height="11" stroke="black" stroke-width="1" transform="translate(100,400)" width="4" x="99" y="89" /><rect fill="none" height="7" stroke="black" stroke-width="1" transform="translate(100,400)" width="6" x="13" y="54" /><rect fill="none" height="15" stroke="black" stroke-width="1" transform="translate(100,400)" width="5" x="116" y="157" /><circle cx="95" cy="150" fill="black" r="2" stroke="none" transform="translate(100,400)" /><line stroke="black" stroke-width="1" transform="translate(100,400)" x1="142" x2="152.6806718315708" y1="28" y2="31.289058587452224" /><circle cx="84" cy="156" fill="black" r="1" stroke="none" transform="translate(100,400)" /><line stroke="black" stroke-width="1" transform="translate(100,400)" x1="116" x2="118.41739616266834" y1="53" y2="80.61534301942343" /><circle cx="110" cy="138" fill="black" r="3" stroke="none" transform="translate(100,400)" /><rect fill="none" height="5" stroke="black" stroke-width="1" transform="translate(100,400)" width="6" x="99" y="13" /><circle cx="24" cy="107" fill="black" r="3" stroke="none" transform="translate(100,400)" /><circle cx="142" cy="149" fill="black" r="1" stroke="none" transform="translate(100,400)" /><rect fill="none" height="10" stroke="black" stroke-width="1" transform="translate(100,400)" width="15" x="158" y="50" /><line stroke="black" stroke-width="1" transform="translate(100,400)" x1="88" x2="91.9986738487017" y1="35" y2="40.25828245898448" /><circle cx="109" cy="92" fill="black" r="1" stroke="none" transform="translate(100,400)" /><line stroke="black" stroke-width="1" transform="translate(100,400)" x1="145" x2="148.35223143612438" y1="48" y2="57.44812263202733" /><circle cx="46" cy="75" fill="black" r="3" stroke="none" transform="translate(100,400)" /><rect fill="none" height="7" stroke="black" stroke-width="1" transform="translate(100,400)" width="15" x="120" y="117" /><rect fill="none" height="13" stroke="black" stroke-width="1" transform="translate(100,400)" width="10" x="156" y="67" /><text font-family="Arial" font-size="14" text-anchor="middle" x="175" y="380">Option 1</text><g transform="translate(100,400)"><line stroke="black" stroke-width="2" transform="rotate(270.14049318143185,56.5,34.5)" x1="38" x2="75" y1="16" y2="53" /><circle cx="68" cy="84" fill="none" r="17.0" stroke="black" stroke-width="2" /><polygon fill="none" points="98,191 141,191 119.5,148" stroke="black" stroke-width="2" transform="rotate(32.140493181431864,119.5,169.5)" /><rect fill="none" height="42" stroke="black" stroke-width="2" transform="rotate(315.14049318143185,109.0,90.0)" width="42" x="88" y="69" /><rect fill="none" height="44" stroke="black" stroke-width="2" transform="rotate(237.14049318143185,107.0,41.0)" width="44" x="85" y="19" /><circle cx="46" cy="102" fill="none" r="15.0" stroke="black" stroke-width="2" /></g><circle cx="54" cy="164" fill="black" r="2" stroke="none" transform="translate(350,400)" /><rect fill="none" height="14" stroke="black" stroke-width="1" transform="translate(350,400)" width="4" x="83" y="57" /><circle cx="44" cy="91" fill="black" r="1" stroke="none" transform="translate(350,400)" /><circle cx="157" cy="91" fill="black" r="3" stroke="none" transform="translate(350,400)" /><rect fill="none" height="3" stroke="black" stroke-width="1" transform="translate(350,400)" width="10" x="70" y="25" /><rect fill="none" height="6" stroke="black" stroke-width="1" transform="translate(350,400)" width="12" x="162" y="64" /><circle cx="140" cy="98" fill="black" r="3" stroke="none" transform="translate(350,400)" /><circle cx="58" cy="130" fill="black" r="3" stroke="none" transform="translate(350,400)" /><line stroke="black" stroke-width="1" transform="translate(350,400)" x1="171" x2="184.40299708942143" y1="102" y2="107.16323684872405" /><line stroke="black" stroke-width="1" transform="translate(350,400)" x1="10" x2="19.45702930250315" y1="39" y2="39.48294542185518" /><line stroke="black" stroke-width="1" transform="translate(350,400)" x1="134" x2="137.89169022183762" y1="75" y2="77.16598464800182" /><rect fill="none" height="3" stroke="black" stroke-width="1" transform="translate(350,400)" width="13" x="67" y="106" /><circle cx="98" cy="16" fill="black" r="1" stroke="none" transform="translate(350,400)" /><rect fill="none" height="5" stroke="black" stroke-width="1" transform="translate(350,400)" width="11" x="36" y="25" /><line stroke="black" stroke-width="1" transform="translate(350,400)" x1="154" x2="166.11610740924604" y1="107" y2="126.80814122815512" /><rect fill="none" height="3" stroke="black" stroke-width="1" transform="translate(350,400)" width="6" x="35" y="63" /><line stroke="black" stroke-width="1" transform="translate(350,400)" x1="70" x2="73.36538506203343" y1="105" y2="106.48687989748966" /><circle cx="130" cy="55" fill="black" r="1" stroke="none" transform="translate(350,400)" /><line stroke="black" stroke-width="1" transform="translate(350,400)" x1="114" x2="133.2676056713927" y1="76" y2="78.27681830439273" /><line stroke="black" stroke-width="1" transform="translate(350,400)" x1="73" x2="73.39944957593585" y1="52" y2="63.04634400003589" /><circle cx="44" cy="23" fill="black" r="3" stroke="none" transform="translate(350,400)" /><circle cx="162" cy="180" fill="black" r="1" stroke="none" transform="translate(350,400)" /><line stroke="black" stroke-width="1" transform="translate(350,400)" x1="81" x2="87.06547989665707" y1="173" y2="178.22411616705122" /><line stroke="black" stroke-width="1" transform="translate(350,400)" x1="149" x2="156.52301731733976" y1="106" y2="114.59533077347447" /><line stroke="black" stroke-width="1" transform="translate(350,400)" x1="10" x2="13.47539429486454" y1="74" y2="103.63971892793836" /><rect fill="none" height="10" stroke="black" stroke-width="1" transform="translate(350,400)" width="11" x="55" y="105" /><circle cx="79" cy="24" fill="black" r="3" stroke="none" transform="translate(350,400)" /><line stroke="black" stroke-width="1" transform="translate(350,400)" x1="104" x2="109.05092257373688" y1="53" y2="54.379357780637406" /><rect fill="none" height="13" stroke="black" stroke-width="1" transform="translate(350,400)" width="13" x="13" y="144" /><circle cx="20" cy="128" fill="black" r="3" stroke="none" transform="translate(350,400)" /><line stroke="black" stroke-width="1" transform="translate(350,400)" x1="25" x2="48.259989843889734" y1="175" y2="197.45119627941818" /><rect fill="none" height="10" stroke="black" stroke-width="1" transform="translate(350,400)" width="9" x="29" y="46" /><line stroke="black" stroke-width="1" transform="translate(350,400)" x1="18" x2="37.700312937071416" y1="33" y2="47.74928541886384" /><circle cx="150" cy="176" fill="black" r="1" stroke="none" transform="translate(350,400)" /><line stroke="black" stroke-width="1" transform="translate(350,400)" x1="48" x2="50.49610422424649" y1="46" y2="57.25347159440557" /><rect fill="none" height="14" stroke="black" stroke-width="1" transform="translate(350,400)" width="5" x="52" y="116" /><circle cx="110" cy="169" fill="black" r="3" stroke="none" transform="translate(350,400)" /><line stroke="black" stroke-width="1" transform="translate(350,400)" x1="109" x2="126.13294527252224" y1="57" y2="71.25583086965688" /><rect fill="none" height="15" stroke="black" stroke-width="1" transform="translate(350,400)" width="11" x="25" y="161" /><rect fill="none" height="9" stroke="black" stroke-width="1" transform="translate(350,400)" width="9" x="41" y="137" /><text font-family="Arial" font-size="14" text-anchor="middle" x="425" y="380">Option 2</text><g transform="translate(350,400)"><line stroke="black" stroke-width="2" transform="rotate(251,56.5,34.5)" x1="38" x2="75" y1="16" y2="53" /><circle cx="68" cy="84" fill="none" r="17.0" stroke="black" stroke-width="2" /><polygon fill="none" points="92,65 135,65 113.5,22" stroke="black" stroke-width="2" transform="rotate(13,113.5,43.5)" /><rect fill="none" height="42" stroke="black" stroke-width="2" transform="rotate(296,109.0,90.0)" width="42" x="88" y="69" /><rect fill="none" height="44" stroke="black" stroke-width="2" transform="rotate(218,41.0,103.0)" width="44" x="19" y="81" /><circle cx="46" cy="102" fill="none" r="15.0" stroke="black" stroke-width="2" /></g><circle cx="86" cy="14" fill="black" r="3" stroke="none" transform="translate(100,650)" /><line stroke="black" stroke-width="1" transform="translate(100,650)" x1="39" x2="43.07533514158364" y1="177" y2="182.91097187412475" /><rect fill="none" height="3" stroke="black" stroke-width="1" transform="translate(100,650)" width="14" x="78" y="41" /><circle cx="70" cy="32" fill="black" r="2" stroke="none" transform="translate(100,650)" /><rect fill="none" height="10" stroke="black" stroke-width="1" transform="translate(100,650)" width="5" x="141" y="177" /><line stroke="black" stroke-width="1" transform="translate(100,650)" x1="74" x2="75.79506605516846" y1="30" y2="33.10393842101809" /><circle cx="66" cy="16" fill="black" r="2" stroke="none" transform="translate(100,650)" /><rect fill="none" height="12" stroke="black" stroke-width="1" transform="translate(100,650)" width="4" x="147" y="101" /><circle cx="67" cy="51" fill="black" r="2" stroke="none" transform="translate(100,650)" /><rect fill="none" height="15" stroke="black" stroke-width="1" transform="translate(100,650)" width="3" x="150" y="50" /><circle cx="91" cy="14" fill="black" r="2" stroke="none" transform="translate(100,650)" /><circle cx="77" cy="62" fill="black" r="3" stroke="none" transform="translate(100,650)" /><circle cx="72" cy="45" fill="black" r="3" stroke="none" transform="translate(100,650)" /><line stroke="black" stroke-width="1" transform="translate(100,650)" x1="137" x2="146.31268294460384" y1="143" y2="149.99406308529797" /><rect fill="none" height="6" stroke="black" stroke-width="1" transform="translate(100,650)" width="11" x="23" y="167" /><line stroke="black" stroke-width="1" transform="translate(100,650)" x1="24" x2="26.281337669347607" y1="131" y2="135.63092377818242" /><circle cx="28" cy="53" fill="black" r="3" stroke="none" transform="translate(100,650)" /><circle cx="79" cy="75" fill="black" r="3" stroke="none" transform="translate(100,650)" /><line stroke="black" stroke-width="1" transform="translate(100,650)" x1="90" x2="97.40529364591063" y1="41" y2="54.79498479912775" /><line stroke="black" stroke-width="1" transform="translate(100,650)" x1="167" x2="167.3049118753243" y1="58" y2="70.65488032403677" /><circle cx="99" cy="158" fill="black" r="1" stroke="none" transform="translate(100,650)" /><circle cx="122" cy="159" fill="black" r="1" stroke="none" transform="translate(100,650)" /><line stroke="black" stroke-width="1" transform="translate(100,650)" x1="72" x2="72.89811960463624" y1="122" y2="133.6809945036312" /><line stroke="black" stroke-width="1" transform="translate(100,650)" x1="56" x2="59.66502484730168" y1="175" y2="191.133748535312" /><line stroke="black" stroke-width="1" transform="translate(100,650)" x1="151" x2="156.4481684911247" y1="164" y2="170.16863577939213" /><rect fill="none" height="9" stroke="black" stroke-width="1" transform="translate(100,650)" width="14" x="156" y="37" /><circle cx="110" cy="100" fill="black" r="2" stroke="none" transform="translate(100,650)" /><rect fill="none" height="7" stroke="black" stroke-width="1" transform="translate(100,650)" width="6" x="109" y="31" /><circle cx="64" cy="84" fill="black" r="2" stroke="none" transform="translate(100,650)" /><rect fill="none" height="14" stroke="black" stroke-width="1" transform="translate(100,650)" width="10" x="128" y="30" /><circle cx="102" cy="115" fill="black" r="3" stroke="none" transform="translate(100,650)" /><rect fill="none" height="15" stroke="black" stroke-width="1" transform="translate(100,650)" width="3" x="44" y="131" /><line stroke="black" stroke-width="1" transform="translate(100,650)" x1="25" x2="52.4988655364536" y1="102" y2="107.6327968789573" /><line stroke="black" stroke-width="1" transform="translate(100,650)" x1="83" x2="107.98402095692619" y1="81" y2="95.6709866656791" /><rect fill="none" height="13" stroke="black" stroke-width="1" transform="translate(100,650)" width="7" x="32" y="101" /><line stroke="black" stroke-width="1" transform="translate(100,650)" x1="110" x2="114.07962354550226" y1="164" y2="164.187766209618" /><rect fill="none" height="12" stroke="black" stroke-width="1" transform="translate(100,650)" width="13" x="149" y="151" /><line stroke="black" stroke-width="1" transform="translate(100,650)" x1="105" x2="107.30650568936704" y1="85" y2="88.90045313331095" /><rect fill="none" height="3" stroke="black" stroke-width="1" transform="translate(100,650)" width="13" x="71" y="104" /><circle cx="24" cy="80" fill="black" r="3" stroke="none" transform="translate(100,650)" /><text font-family="Arial" font-size="14" text-anchor="middle" x="175" y="630">Option 3</text><g transform="translate(100,650)"><line stroke="black" stroke-width="2" transform="rotate(251,56.5,34.5)" x1="38" x2="75" y1="16" y2="53" /><circle cx="68" cy="84" fill="none" r="17.0" stroke="black" stroke-width="2" /><polygon fill="none" points="98,191 141,191 119.5,148" stroke="black" stroke-width="2" transform="rotate(13,119.5,169.5)" /><rect fill="none" height="42" stroke="black" stroke-width="2" transform="rotate(296,109.0,90.0)" width="42" x="88" y="69" /><rect fill="none" height="44" stroke="black" stroke-width="2" transform="rotate(218,107.0,41.0)" width="44" x="85" y="19" /><circle cx="46" cy="102" fill="none" r="15.0" stroke="black" stroke-width="2" /></g><rect fill="none" height="6" stroke="black" stroke-width="1" transform="translate(350,650)" width="3" x="136" y="103" /><rect fill="none" height="15" stroke="black" stroke-width="1" transform="translate(350,650)" width="11" x="61" y="129" /><rect fill="none" height="4" stroke="black" stroke-width="1" transform="translate(350,650)" width="11" x="42" y="50" /><line stroke="black" stroke-width="1" transform="translate(350,650)" x1="52" x2="56.40696820557143" y1="49" y2="52.84938760735304" /><circle cx="57" cy="20" fill="black" r="2" stroke="none" transform="translate(350,650)" /><circle cx="117" cy="32" fill="black" r="2" stroke="none" transform="translate(350,650)" /><circle cx="104" cy="100" fill="black" r="1" stroke="none" transform="translate(350,650)" /><rect fill="none" height="4" stroke="black" stroke-width="1" transform="translate(350,650)" width="12" x="34" y="58" /><line stroke="black" stroke-width="1" transform="translate(350,650)" x1="99" x2="108.35673969178589" y1="114" y2="122.1157588266337" /><line stroke="black" stroke-width="1" transform="translate(350,650)" x1="59" x2="65.66193089949662" y1="60" y2="61.50129289845636" /><rect fill="none" height="4" stroke="black" stroke-width="1" transform="translate(350,650)" width="5" x="110" y="102" /><rect fill="none" height="10" stroke="black" stroke-width="1" transform="translate(350,650)" width="8" x="38" y="26" /><rect fill="none" height="13" stroke="black" stroke-width="1" transform="translate(350,650)" width="12" x="118" y="29" /><circle cx="144" cy="43" fill="black" r="1" stroke="none" transform="translate(350,650)" /><rect fill="none" height="15" stroke="black" stroke-width="1" transform="translate(350,650)" width="8" x="59" y="53" /><line stroke="black" stroke-width="1" transform="translate(350,650)" x1="108" x2="111.3026251830211" y1="53" y2="60.96656322308547" /><line stroke="black" stroke-width="1" transform="translate(350,650)" x1="34" x2="38.892407034619" y1="107" y2="110.01080174048943" /><line stroke="black" stroke-width="1" transform="translate(350,650)" x1="121" x2="142.6037577844382" y1="73" y2="82.78851708487622" /><rect fill="none" height="5" stroke="black" stroke-width="1" transform="translate(350,650)" width="3" x="85" y="85" /><rect fill="none" height="6" stroke="black" stroke-width="1" transform="translate(350,650)" width="9" x="68" y="154" /><line stroke="black" stroke-width="1" transform="translate(350,650)" x1="82" x2="85.92785350026773" y1="141" y2="147.70818273401545" /><line stroke="black" stroke-width="1" transform="translate(350,650)" x1="118" x2="129.29757763325205" y1="122" y2="130.7807949052958" /><rect fill="none" height="14" stroke="black" stroke-width="1" transform="translate(350,650)" width="11" x="128" y="72" /><rect fill="none" height="7" stroke="black" stroke-width="1" transform="translate(350,650)" width="3" x="125" y="105" /><rect fill="none" height="15" stroke="black" stroke-width="1" transform="translate(350,650)" width="13" x="88" y="146" /><circle cx="69" cy="117" fill="black" r="1" stroke="none" transform="translate(350,650)" /><circle cx="93" cy="172" fill="black" r="2" stroke="none" transform="translate(350,650)" /><line stroke="black" stroke-width="1" transform="translate(350,650)" x1="53" x2="61.412420999823254" y1="168" y2="170.47017979893204" /><circle cx="59" cy="75" fill="black" r="2" stroke="none" transform="translate(350,650)" /><circle cx="131" cy="170" fill="black" r="1" stroke="none" transform="translate(350,650)" /><rect fill="none" height="7" stroke="black" stroke-width="1" transform="translate(350,650)" width="9" x="99" y="70" /><circle cx="17" cy="180" fill="black" r="2" stroke="none" transform="translate(350,650)" /><rect fill="none" height="13" stroke="black" stroke-width="1" transform="translate(350,650)" width="6" x="172" y="76" /><rect fill="none" height="8" stroke="black" stroke-width="1" transform="translate(350,650)" width="8" x="30" y="102" /><rect fill="none" height="3" stroke="black" stroke-width="1" transform="translate(350,650)" width="4" x="129" y="139" /><circle cx="80" cy="125" fill="black" r="1" stroke="none" transform="translate(350,650)" /><rect fill="none" height="5" stroke="black" stroke-width="1" transform="translate(350,650)" width="15" x="168" y="41" /><line stroke="black" stroke-width="1" transform="translate(350,650)" x1="63" x2="64.07457494715516" y1="94" y2="97.51227973687622" /><circle cx="68" cy="92" fill="black" r="2" stroke="none" transform="translate(350,650)" /><rect fill="none" height="4" stroke="black" stroke-width="1" transform="translate(350,650)" width="3" x="157" y="133" /><text font-family="Arial" font-size="14" text-anchor="middle" x="425" y="630">Option 4</text><g transform="translate(350,650)"><line stroke="black" stroke-width="2" transform="rotate(234.74890381495385,56.5,34.5)" x1="38" x2="75" y1="16" y2="53" /><circle cx="68" cy="84" fill="none" r="17.0" stroke="black" stroke-width="2" /><polygon fill="none" points="98,191 141,191 119.5,148" stroke="black" stroke-width="2" transform="rotate(-3.2510961850461513,119.5,169.5)" /><rect fill="none" height="42" stroke="black" stroke-width="2" transform="rotate(279.74890381495385,109.0,90.0)" width="42" x="88" y="69" /><rect fill="none" height="44" stroke="black" stroke-width="2" transform="rotate(201.74890381495385,107.0,41.0)" width="44" x="85" y="19" /><circle cx="46" cy="102" fill="none" r="15.0" stroke="black" stroke-width="2" /></g></svg>