<?xml version="1.0" encoding="utf-8" ?>
<svg baseProfile="full" height="1000px" version="1.1" width="600px" xmlns="http://www.w3.org/2000/svg" xmlns:ev="http://www.w3.org/2001/xml-events" xmlns:xlink="http://www.w3.org/1999/xlink"><defs /><rect fill="white" height="100%" width="100%" x="0" y="0" /><text font-family="Arial" font-size="24" text-anchor="middle" x="300" y="40">Visual Figure Ground Test</text><text font-family="Arial" font-size="18" text-anchor="middle" x="300" y="80">Target Pattern</text><g transform="translate(200,100)"><rect fill="none" height="38" stroke="black" stroke-width="2" transform="rotate(105,128.0,154.0)" width="38" x="109" y="135" /><circle cx="120" cy="67" fill="none" r="23.0" stroke="black" stroke-width="2" /></g><text font-family="Arial" font-size="18" text-anchor="middle" x="300" y="350">Options</text><circle cx="153" cy="154" fill="black" r="3" stroke="none" transform="translate(100,400)" /><line stroke="black" stroke-width="1" transform="translate(100,400)" x1="32" x2="60.279290533762705" y1="18" y2="28.247192844699505" /><rect fill="none" height="4" stroke="black" stroke-width="1" transform="translate(100,400)" width="11" x="111" y="170" /><rect fill="none" height="9" stroke="black" stroke-width="1" transform="translate(100,400)" width="5" x="134" y="44" /><circle cx="22" cy="10" fill="black" r="2" stroke="none" transform="translate(100,400)" /><rect fill="none" height="5" stroke="black" stroke-width="1" transform="translate(100,400)" width="15" x="127" y="110" /><circle cx="19" cy="89" fill="black" r="1" stroke="none" transform="translate(100,400)" /><rect fill="none" height="12" stroke="black" stroke-width="1" transform="translate(100,400)" width="15" x="76" y="139" /><circle cx="16" cy="26" fill="black" r="2" stroke="none" transform="translate(100,400)" /><rect fill="none" height="7" stroke="black" stroke-width="1" transform="translate(100,400)" width="6" x="72" y="46" /><circle cx="15" cy="153" fill="black" r="2" stroke="none" transform="translate(100,400)" /><rect fill="none" height="10" stroke="black" stroke-width="1" transform="translate(100,400)" width="14" x="49" y="170" /><rect fill="none" height="5" stroke="black" stroke-width="1" transform="translate(100,400)" width="11" x="41" y="45" /><rect fill="none" height="3" stroke="black" stroke-width="1" transform="translate(100,400)" width="9" x="176" y="12" /><circle cx="117" cy="163" fill="black" r="2" stroke="none" transform="translate(100,400)" /><line stroke="black" stroke-width="1" transform="translate(100,400)" x1="100" x2="111.74388387176569" y1="124" y2="132.4656581439058" /><circle cx="14" cy="79" fill="black" r="2" stroke="none" transform="translate(100,400)" /><circle cx="171" cy="102" fill="black" r="3" stroke="none" transform="translate(100,400)" /><rect fill="none" height="5" stroke="black" stroke-width="1" transform="translate(100,400)" width="5" x="173" y="92" /><rect fill="none" height="11" stroke="black" stroke-width="1" transform="translate(100,400)" width="4" x="10" y="138" /><rect fill="none" height="5" stroke="black" stroke-width="1" transform="translate(100,400)" width="12" x="122" y="100" /><line stroke="black" stroke-width="1" transform="translate(100,400)" x1="154" x2="161.92507974648618" y1="131" y2="144.0811218926293" /><circle cx="48" cy="172" fill="black" r="2" stroke="none" transform="translate(100,400)" /><line stroke="black" stroke-width="1" transform="translate(100,400)" x1="142" x2="144.17135478469254" y1="136" y2="138.3434929872461" /><line stroke="black" stroke-width="1" transform="translate(100,400)" x1="24" x2="37.16429208900036" y1="111" y2="116.88428441708717" /><circle cx="16" cy="20" fill="black" r="3" stroke="none" transform="translate(100,400)" /><line stroke="black" stroke-width="1" transform="translate(100,400)" x1="149" x2="159.46422920296152" y1="100" y2="111.60177717574174" /><circle cx="114" cy="145" fill="black" r="2" stroke="none" transform="translate(100,400)" /><rect fill="none" height="15" stroke="black" stroke-width="1" transform="translate(100,400)" width="4" x="48" y="153" /><circle cx="107" cy="15" fill="black" r="3" stroke="none" transform="translate(100,400)" /><line stroke="black" stroke-width="1" transform="translate(100,400)" x1="154" x2="175.54404394901795" y1="60" y2="62.88481955571173" /><circle cx="129" cy="38" fill="black" r="3" stroke="none" transform="translate(100,400)" /><circle cx="85" cy="56" fill="black" r="2" stroke="none" transform="translate(100,400)" /><rect fill="none" height="13" stroke="black" stroke-width="1" transform="translate(100,400)" width="12" x="46" y="148" /><rect fill="none" height="10" stroke="black" stroke-width="1" transform="translate(100,400)" width="9" x="59" y="113" /><circle cx="19" cy="122" fill="black" r="2" stroke="none" transform="translate(100,400)" /><rect fill="none" height="8" stroke="black" stroke-width="1" transform="translate(100,400)" width="5" x="59" y="39" /><line stroke="black" stroke-width="1" transform="translate(100,400)" x1="101" x2="103.55367412353753" y1="63" y2="65.5610176466601" /><circle cx="72" cy="175" fill="black" r="3" stroke="none" transform="translate(100,400)" /><line stroke="black" stroke-width="1" transform="translate(100,400)" x1="60" x2="67.79376985236792" y1="66" y2="79.16920914537471" /><text font-family="Arial" font-size="14" text-anchor="middle" x="175" y="380">Option 1</text><g transform="translate(100,400)"><rect fill="none" height="38" stroke="black" stroke-width="2" transform="rotate(87.80524635260966,128.0,154.0)" width="38" x="109" y="135" /><circle cx="120" cy="67" fill="none" r="23.0" stroke="black" stroke-width="2" /></g><line stroke="black" stroke-width="1" transform="translate(350,400)" x1="153" x2="171.96489253896266" y1="95" y2="120.64785615420557" /><circle cx="14" cy="100" fill="black" r="2" stroke="none" transform="translate(350,400)" /><circle cx="174" cy="39" fill="black" r="1" stroke="none" transform="translate(350,400)" /><circle cx="90" cy="102" fill="black" r="2" stroke="none" transform="translate(350,400)" /><rect fill="none" height="4" stroke="black" stroke-width="1" transform="translate(350,400)" width="10" x="44" y="18" /><circle cx="143" cy="62" fill="black" r="2" stroke="none" transform="translate(350,400)" /><rect fill="none" height="11" stroke="black" stroke-width="1" transform="translate(350,400)" width="5" x="65" y="13" /><rect fill="none" height="6" stroke="black" stroke-width="1" transform="translate(350,400)" width="9" x="36" y="135" /><circle cx="137" cy="114" fill="black" r="2" stroke="none" transform="translate(350,400)" /><line stroke="black" stroke-width="1" transform="translate(350,400)" x1="48" x2="51.08678786756147" y1="131" y2="133.99364933207264" /><line stroke="black" stroke-width="1" transform="translate(350,400)" x1="53" x2="54.228467818715416" y1="32" y2="34.48808707572413" /><circle cx="22" cy="131" fill="black" r="1" stroke="none" transform="translate(350,400)" /><rect fill="none" height="9" stroke="black" stroke-width="1" transform="translate(350,400)" width="11" x="101" y="61" /><circle cx="27" cy="180" fill="black" r="3" stroke="none" transform="translate(350,400)" /><line stroke="black" stroke-width="1" transform="translate(350,400)" x1="151" x2="157.5001866330803" y1="30" y2="43.68171141355736" /><line stroke="black" stroke-width="1" transform="translate(350,400)" x1="95" x2="108.30411560934142" y1="54" y2="66.4711136573454" /><circle cx="142" cy="114" fill="black" r="3" stroke="none" transform="translate(350,400)" /><circle cx="60" cy="110" fill="black" r="2" stroke="none" transform="translate(350,400)" /><rect fill="none" height="11" stroke="black" stroke-width="1" transform="translate(350,400)" width="6" x="90" y="39" /><line stroke="black" stroke-width="1" transform="translate(350,400)" x1="172" x2="173.96932674731002" y1="131" y2="132.42889753004042" /><line stroke="black" stroke-width="1" transform="translate(350,400)" x1="176" x2="177.9237109814814" y1="99" y2="113.01187607516017" /><rect fill="none" height="6" stroke="black" stroke-width="1" transform="translate(350,400)" width="10" x="154" y="173" /><line stroke="black" stroke-width="1" transform="translate(350,400)" x1="118" x2="121.37734781905152" y1="53" y2="60.098039739693576" /><line stroke="black" stroke-width="1" transform="translate(350,400)" x1="31" x2="38.5803793924129" y1="126" y2="131.89836074895655" /><circle cx="155" cy="161" fill="black" r="3" stroke="none" transform="translate(350,400)" /><circle cx="83" cy="161" fill="black" r="3" stroke="none" transform="translate(350,400)" /><circle cx="89" cy="117" fill="black" r="1" stroke="none" transform="translate(350,400)" /><rect fill="none" height="11" stroke="black" stroke-width="1" transform="translate(350,400)" width="9" x="135" y="55" /><line stroke="black" stroke-width="1" transform="translate(350,400)" x1="93" x2="101.47513854440346" y1="135" y2="137.63489182082714" /><circle cx="134" cy="28" fill="black" r="1" stroke="none" transform="translate(350,400)" /><rect fill="none" height="11" stroke="black" stroke-width="1" transform="translate(350,400)" width="3" x="162" y="157" /><circle cx="27" cy="125" fill="black" r="1" stroke="none" transform="translate(350,400)" /><line stroke="black" stroke-width="1" transform="translate(350,400)" x1="54" x2="59.8796553639233" y1="180" y2="181.20956807344453" /><rect fill="none" height="3" stroke="black" stroke-width="1" transform="translate(350,400)" width="8" x="86" y="61" /><line stroke="black" stroke-width="1" transform="translate(350,400)" x1="148" x2="153.48252243688572" y1="69" y2="81.2044080505642" /><circle cx="128" cy="146" fill="black" r="3" stroke="none" transform="translate(350,400)" /><line stroke="black" stroke-width="1" transform="translate(350,400)" x1="172" x2="190.7671662342124" y1="149" y2="150.33660560908874" /><circle cx="111" cy="59" fill="black" r="1" stroke="none" transform="translate(350,400)" /><rect fill="none" height="3" stroke="black" stroke-width="1" transform="translate(350,400)" width="7" x="167" y="102" /><line stroke="black" stroke-width="1" transform="translate(350,400)" x1="70" x2="84.75595467700967" y1="108" y2="121.6428781632379" /><text font-family="Arial" font-size="14" text-anchor="middle" x="425" y="380">Option 2</text><g transform="translate(350,400)"><rect fill="none" height="38" stroke="black" stroke-width="2" transform="rotate(105,144.0,131.0)" width="38" x="125" y="112" /><circle cx="83" cy="76" fill="none" r="23.0" stroke="black" stroke-width="2" /></g><circle cx="80" cy="123" fill="black" r="2" stroke="none" transform="translate(100,650)" /><line stroke="black" stroke-width="1" transform="translate(100,650)" x1="55" x2="62.90928729056225" y1="135" y2="135.48876264492085" /><line stroke="black" stroke-width="1" transform="translate(100,650)" x1="142" x2="144.16468512406198" y1="63" y2="67.13548860070452" /><circle cx="119" cy="126" fill="black" r="1" stroke="none" transform="translate(100,650)" /><circle cx="165" cy="87" fill="black" r="3" stroke="none" transform="translate(100,650)" /><rect fill="none" height="14" stroke="black" stroke-width="1" transform="translate(100,650)" width="10" x="48" y="139" /><line stroke="black" stroke-width="1" transform="translate(100,650)" x1="79" x2="89.78119191342523" y1="50" y2="71.99548541276522" /><rect fill="none" height="8" stroke="black" stroke-width="1" transform="translate(100,650)" width="8" x="88" y="147" /><circle cx="71" cy="102" fill="black" r="1" stroke="none" transform="translate(100,650)" /><line stroke="black" stroke-width="1" transform="translate(100,650)" x1="180" x2="186.60400041623873" y1="147" y2="166.37012596237213" /><line stroke="black" stroke-width="1" transform="translate(100,650)" x1="49" x2="72.51299260654059" y1="156" y2="178.52182198153818" /><rect fill="none" height="10" stroke="black" stroke-width="1" transform="translate(100,650)" width="14" x="28" y="59" /><line stroke="black" stroke-width="1" transform="translate(100,650)" x1="65" x2="69.31901272839178" y1="86" y2="91.80199159241238" /><line stroke="black" stroke-width="1" transform="translate(100,650)" x1="144" x2="159.93041955512805" y1="30" y2="33.04868982819438" /><line stroke="black" stroke-width="1" transform="translate(100,650)" x1="117" x2="125.53139454980361" y1="132" y2="153.712376377114" /><line stroke="black" stroke-width="1" transform="translate(100,650)" x1="40" x2="40.23578847574839" y1="67" y2="67.11925873623423" /><line stroke="black" stroke-width="1" transform="translate(100,650)" x1="144" x2="152.87279658432195" y1="146" y2="146.76417615741616" /><line stroke="black" stroke-width="1" transform="translate(100,650)" x1="119" x2="124.28272469547643" y1="161" y2="161.52822812439373" /><rect fill="none" height="3" stroke="black" stroke-width="1" transform="translate(100,650)" width="5" x="132" y="144" /><rect fill="none" height="3" stroke="black" stroke-width="1" transform="translate(100,650)" width="7" x="116" y="152" /><line stroke="black" stroke-width="1" transform="translate(100,650)" x1="131" x2="139.99541776991833" y1="31" y2="34.970369496320785" /><line stroke="black" stroke-width="1" transform="translate(100,650)" x1="128" x2="128.02437769318453" y1="127" y2="128.1442168413247" /><rect fill="none" height="3" stroke="black" stroke-width="1" transform="translate(100,650)" width="15" x="55" y="147" /><line stroke="black" stroke-width="1" transform="translate(100,650)" x1="140" x2="152.28329828800932" y1="64" y2="89.32849129082281" /><rect fill="none" height="4" stroke="black" stroke-width="1" transform="translate(100,650)" width="15" x="68" y="116" /><line stroke="black" stroke-width="1" transform="translate(100,650)" x1="163" x2="181.89990939518444" y1="64" y2="68.15423019313639" /><circle cx="144" cy="118" fill="black" r="2" stroke="none" transform="translate(100,650)" /><circle cx="153" cy="152" fill="black" r="2" stroke="none" transform="translate(100,650)" /><circle cx="123" cy="172" fill="black" r="2" stroke="none" transform="translate(100,650)" /><rect fill="none" height="12" stroke="black" stroke-width="1" transform="translate(100,650)" width="9" x="168" y="138" /><line stroke="black" stroke-width="1" transform="translate(100,650)" x1="24" x2="35.87269623638866" y1="84" y2="100.46010613016843" /><line stroke="black" stroke-width="1" transform="translate(100,650)" x1="83" x2="99.48031680623023" y1="34" y2="48.909096711926956" /><line stroke="black" stroke-width="1" transform="translate(100,650)" x1="159" x2="162.47716985102068" y1="112" y2="133.5437932855006" /><circle cx="129" cy="167" fill="black" r="1" stroke="none" transform="translate(100,650)" /><line stroke="black" stroke-width="1" transform="translate(100,650)" x1="137" x2="155.273721703361" y1="27" y2="32.862836407003726" /><rect fill="none" height="6" stroke="black" stroke-width="1" transform="translate(100,650)" width="7" x="24" y="175" /><rect fill="none" height="11" stroke="black" stroke-width="1" transform="translate(100,650)" width="15" x="171" y="58" /><rect fill="none" height="12" stroke="black" stroke-width="1" transform="translate(100,650)" width="3" x="21" y="67" /><line stroke="black" stroke-width="1" transform="translate(100,650)" x1="105" x2="115.58732105793993" y1="153" y2="163.93718115047673" /><line stroke="black" stroke-width="1" transform="translate(100,650)" x1="78" x2="82.1110857865366" y1="44" y2="48.387661228758624" /><text font-family="Arial" font-size="14" text-anchor="middle" x="175" y="630">Option 3</text><g transform="translate(100,650)"><rect fill="none" height="38" stroke="black" stroke-width="2" transform="rotate(105,128.0,154.0)" width="38" x="109" y="135" /><circle cx="120" cy="67" fill="none" r="23.0" stroke="black" stroke-width="2" /></g><line stroke="black" stroke-width="1" transform="translate(350,650)" x1="35" x2="38.11297961594531" y1="43" y2="46.372024307593755" /><circle cx="122" cy="63" fill="black" r="1" stroke="none" transform="translate(350,650)" /><rect fill="none" height="12" stroke="black" stroke-width="1" transform="translate(350,650)" width="12" x="14" y="14" /><line stroke="black" stroke-width="1" transform="translate(350,650)" x1="78" x2="78.3504506801165" y1="137" y2="144.04790057876716" /><rect fill="none" height="5" stroke="black" stroke-width="1" transform="translate(350,650)" width="12" x="24" y="113" /><rect fill="none" height="3" stroke="black" stroke-width="1" transform="translate(350,650)" width="11" x="17" y="95" /><circle cx="103" cy="11" fill="black" r="3" stroke="none" transform="translate(350,650)" /><line stroke="black" stroke-width="1" transform="translate(350,650)" x1="175" x2="180.43771705746144" y1="96" y2="101.04540392566946" /><circle cx="34" cy="29" fill="black" r="1" stroke="none" transform="translate(350,650)" /><rect fill="none" height="14" stroke="black" stroke-width="1" transform="translate(350,650)" width="3" x="176" y="176" /><circle cx="61" cy="51" fill="black" r="1" stroke="none" transform="translate(350,650)" /><circle cx="33" cy="164" fill="black" r="2" stroke="none" transform="translate(350,650)" /><rect fill="none" height="5" stroke="black" stroke-width="1" transform="translate(350,650)" width="3" x="150" y="95" /><line stroke="black" stroke-width="1" transform="translate(350,650)" x1="62" x2="76.81479258487283" y1="45" y2="55.99941450849615" /><rect fill="none" height="15" stroke="black" stroke-width="1" transform="translate(350,650)" width="8" x="84" y="86" /><rect fill="none" height="9" stroke="black" stroke-width="1" transform="translate(350,650)" width="10" x="20" y="87" /><circle cx="115" cy="136" fill="black" r="3" stroke="none" transform="translate(350,650)" /><line stroke="black" stroke-width="1" transform="translate(350,650)" x1="33" x2="38.08348555658877" y1="37" y2="48.5988771782712" /><rect fill="none" height="8" stroke="black" stroke-width="1" transform="translate(350,650)" width="9" x="83" y="43" /><line stroke="black" stroke-width="1" transform="translate(350,650)" x1="173" x2="178.71865639252795" y1="39" y2="45.56034917078742" /><rect fill="none" height="4" stroke="black" stroke-width="1" transform="translate(350,650)" width="3" x="32" y="141" /><circle cx="161" cy="30" fill="black" r="2" stroke="none" transform="translate(350,650)" /><rect fill="none" height="15" stroke="black" stroke-width="1" transform="translate(350,650)" width="4" x="138" y="82" /><line stroke="black" stroke-width="1" transform="translate(350,650)" x1="78" x2="84.6404596006118" y1="155" y2="167.08030657750973" /><line stroke="black" stroke-width="1" transform="translate(350,650)" x1="62" x2="81.17734169197207" y1="111" y2="115.06177468832053" /><rect fill="none" height="10" stroke="black" stroke-width="1" transform="translate(350,650)" width="13" x="36" y="141" /><circle cx="132" cy="82" fill="black" r="3" stroke="none" transform="translate(350,650)" /><circle cx="63" cy="97" fill="black" r="2" stroke="none" transform="translate(350,650)" /><line stroke="black" stroke-width="1" transform="translate(350,650)" x1="81" x2="98.7381074508303" y1="107" y2="112.59679061053092" /><line stroke="black" stroke-width="1" transform="translate(350,650)" x1="42" x2="47.30522522648214" y1="60" y2="66.15478652321873" /><rect fill="none" height="8" stroke="black" stroke-width="1" transform="translate(350,650)" width="12" x="121" y="152" /><rect fill="none" height="7" stroke="black" stroke-width="1" transform="translate(350,650)" width="11" x="118" y="98" /><line stroke="black" stroke-width="1" transform="translate(350,650)" x1="135" x2="136.17656939035132" y1="123" y2="128.5969675331148" /><rect fill="none" height="11" stroke="black" stroke-width="1" transform="translate(350,650)" width="3" x="118" y="62" /><circle cx="52" cy="140" fill="black" r="2" stroke="none" transform="translate(350,650)" /><line stroke="black" stroke-width="1" transform="translate(350,650)" x1="13" x2="23.996002049816468" y1="124" y2="130.8144273438095" /><circle cx="147" cy="124" fill="black" r="1" stroke="none" transform="translate(350,650)" /><rect fill="none" height="7" stroke="black" stroke-width="1" transform="translate(350,650)" width="9" x="42" y="113" /><circle cx="99" cy="176" fill="black" r="2" stroke="none" transform="translate(350,650)" /><line stroke="black" stroke-width="1" transform="translate(350,650)" x1="68" x2="72.8106407950513" y1="157" y2="163.41268287530727" /><text font-family="Arial" font-size="14" text-anchor="middle" x="425" y="630">Option 4</text><g transform="translate(350,650)"><rect fill="none" height="38" stroke="black" stroke-width="2" transform="rotate(121.82267031777798,128.0,154.0)" width="38" x="109" y="135" /><circle cx="120" cy="67" fill="none" r="23.0" stroke="black" stroke-width="2" /></g></svg>