<?xml version="1.0" encoding="utf-8" ?>
<svg baseProfile="full" height="1000px" version="1.1" width="600px" xmlns="http://www.w3.org/2000/svg" xmlns:ev="http://www.w3.org/2001/xml-events" xmlns:xlink="http://www.w3.org/1999/xlink"><defs /><rect fill="white" height="100%" width="100%" x="0" y="0" /><text font-family="Arial" font-size="24" text-anchor="middle" x="300" y="40">Visual Figure Ground Test</text><text font-family="Arial" font-size="18" text-anchor="middle" x="300" y="80">Target Pattern</text><g transform="translate(200,100)"><polygon fill="none" points="31,98 65,98 48.0,64" stroke="black" stroke-width="2" transform="rotate(322,48.0,81.0)" /><polygon fill="none" points="33,104 70,104 51.5,67" stroke="black" stroke-width="2" transform="rotate(118,51.5,85.5)" /></g><text font-family="Arial" font-size="18" text-anchor="middle" x="300" y="350">Options</text><rect fill="none" height="15" stroke="black" stroke-width="1" transform="translate(100,400)" width="3" x="124" y="162" /><rect fill="none" height="12" stroke="black" stroke-width="1" transform="translate(100,400)" width="15" x="152" y="149" /><rect fill="none" height="15" stroke="black" stroke-width="1" transform="translate(100,400)" width="11" x="36" y="132" /><circle cx="127" cy="116" fill="black" r="1" stroke="none" transform="translate(100,400)" /><rect fill="none" height="4" stroke="black" stroke-width="1" transform="translate(100,400)" width="15" x="71" y="132" /><rect fill="none" height="14" stroke="black" stroke-width="1" transform="translate(100,400)" width="14" x="127" y="176" /><circle cx="157" cy="129" fill="black" r="2" stroke="none" transform="translate(100,400)" /><line stroke="black" stroke-width="1" transform="translate(100,400)" x1="94" x2="96.4339332502496" y1="44" y2="44.39424074347752" /><line stroke="black" stroke-width="1" transform="translate(100,400)" x1="169" x2="195.6420026037788" y1="55" y2="76.60483539578098" /><line stroke="black" stroke-width="1" transform="translate(100,400)" x1="68" x2="90.54925061532745" y1="70" y2="84.89122879274859" /><circle cx="22" cy="86" fill="black" r="1" stroke="none" transform="translate(100,400)" /><circle cx="67" cy="51" fill="black" r="1" stroke="none" transform="translate(100,400)" /><circle cx="64" cy="71" fill="black" r="2" stroke="none" transform="translate(100,400)" /><circle cx="66" cy="177" fill="black" r="3" stroke="none" transform="translate(100,400)" /><rect fill="none" height="4" stroke="black" stroke-width="1" transform="translate(100,400)" width="7" x="32" y="78" /><rect fill="none" height="6" stroke="black" stroke-width="1" transform="translate(100,400)" width="13" x="168" y="13" /><rect fill="none" height="10" stroke="black" stroke-width="1" transform="translate(100,400)" width="5" x="18" y="178" /><line stroke="black" stroke-width="1" transform="translate(100,400)" x1="145" x2="158.94314666791877" y1="156" y2="164.69105422525394" /><rect fill="none" height="3" stroke="black" stroke-width="1" transform="translate(100,400)" width="9" x="81" y="115" /><line stroke="black" stroke-width="1" transform="translate(100,400)" x1="11" x2="21.680776999159548" y1="20" y2="33.88497821073775" /><rect fill="none" height="5" stroke="black" stroke-width="1" transform="translate(100,400)" width="4" x="85" y="110" /><rect fill="none" height="10" stroke="black" stroke-width="1" transform="translate(100,400)" width="3" x="23" y="178" /><rect fill="none" height="6" stroke="black" stroke-width="1" transform="translate(100,400)" width="9" x="17" y="143" /><line stroke="black" stroke-width="1" transform="translate(100,400)" x1="171" x2="173.4915304941611" y1="36" y2="39.09662466076353" /><line stroke="black" stroke-width="1" transform="translate(100,400)" x1="16" x2="16.04100447912483" y1="80" y2="86.76803313154798" /><circle cx="140" cy="50" fill="black" r="1" stroke="none" transform="translate(100,400)" /><line stroke="black" stroke-width="1" transform="translate(100,400)" x1="108" x2="120.7378451119509" y1="103" y2="120.5749977393933" /><rect fill="none" height="7" stroke="black" stroke-width="1" transform="translate(100,400)" width="13" x="53" y="128" /><line stroke="black" stroke-width="1" transform="translate(100,400)" x1="69" x2="74.32309331744905" y1="154" y2="157.11168716018733" /><circle cx="10" cy="148" fill="black" r="3" stroke="none" transform="translate(100,400)" /><line stroke="black" stroke-width="1" transform="translate(100,400)" x1="155" x2="176.73652694269168" y1="165" y2="182.27414520073748" /><circle cx="36" cy="13" fill="black" r="1" stroke="none" transform="translate(100,400)" /><rect fill="none" height="5" stroke="black" stroke-width="1" transform="translate(100,400)" width="9" x="50" y="74" /><rect fill="none" height="11" stroke="black" stroke-width="1" transform="translate(100,400)" width="3" x="123" y="47" /><circle cx="164" cy="149" fill="black" r="3" stroke="none" transform="translate(100,400)" /><rect fill="none" height="3" stroke="black" stroke-width="1" transform="translate(100,400)" width="14" x="102" y="160" /><line stroke="black" stroke-width="1" transform="translate(100,400)" x1="39" x2="44.82190171053736" y1="96" y2="103.11690455475845" /><rect fill="none" height="5" stroke="black" stroke-width="1" transform="translate(100,400)" width="11" x="160" y="111" /><rect fill="none" height="4" stroke="black" stroke-width="1" transform="translate(100,400)" width="13" x="180" y="172" /><rect fill="none" height="5" stroke="black" stroke-width="1" transform="translate(100,400)" width="13" x="32" y="111" /><text font-family="Arial" font-size="14" text-anchor="middle" x="175" y="380">Option 1</text><g transform="translate(100,400)"><polygon fill="none" points="31,98 65,98 48.0,64" stroke="black" stroke-width="2" transform="rotate(322,48.0,81.0)" /><polygon fill="none" points="33,104 70,104 51.5,67" stroke="black" stroke-width="2" transform="rotate(118,51.5,85.5)" /></g><circle cx="21" cy="11" fill="black" r="2" stroke="none" transform="translate(350,400)" /><line stroke="black" stroke-width="1" transform="translate(350,400)" x1="17" x2="30.34469405738629" y1="10" y2="23.542238121468223" /><circle cx="100" cy="114" fill="black" r="2" stroke="none" transform="translate(350,400)" /><rect fill="none" height="11" stroke="black" stroke-width="1" transform="translate(350,400)" width="11" x="178" y="179" /><circle cx="85" cy="40" fill="black" r="2" stroke="none" transform="translate(350,400)" /><line stroke="black" stroke-width="1" transform="translate(350,400)" x1="135" x2="145.0888132264554" y1="177" y2="186.9695612735274" /><rect fill="none" height="6" stroke="black" stroke-width="1" transform="translate(350,400)" width="11" x="22" y="160" /><circle cx="160" cy="36" fill="black" r="2" stroke="none" transform="translate(350,400)" /><line stroke="black" stroke-width="1" transform="translate(350,400)" x1="118" x2="129.88666330410217" y1="146" y2="163.6091297133714" /><rect fill="none" height="3" stroke="black" stroke-width="1" transform="translate(350,400)" width="13" x="123" y="96" /><rect fill="none" height="5" stroke="black" stroke-width="1" transform="translate(350,400)" width="13" x="40" y="171" /><circle cx="76" cy="31" fill="black" r="1" stroke="none" transform="translate(350,400)" /><circle cx="31" cy="22" fill="black" r="3" stroke="none" transform="translate(350,400)" /><line stroke="black" stroke-width="1" transform="translate(350,400)" x1="23" x2="39.68757302546851" y1="164" y2="177.03061633690686" /><circle cx="82" cy="53" fill="black" r="1" stroke="none" transform="translate(350,400)" /><rect fill="none" height="9" stroke="black" stroke-width="1" transform="translate(350,400)" width="15" x="98" y="118" /><rect fill="none" height="12" stroke="black" stroke-width="1" transform="translate(350,400)" width="4" x="56" y="139" /><rect fill="none" height="6" stroke="black" stroke-width="1" transform="translate(350,400)" width="11" x="83" y="125" /><rect fill="none" height="9" stroke="black" stroke-width="1" transform="translate(350,400)" width="8" x="47" y="116" /><circle cx="66" cy="20" fill="black" r="3" stroke="none" transform="translate(350,400)" /><rect fill="none" height="4" stroke="black" stroke-width="1" transform="translate(350,400)" width="6" x="68" y="19" /><circle cx="120" cy="82" fill="black" r="3" stroke="none" transform="translate(350,400)" /><circle cx="22" cy="112" fill="black" r="1" stroke="none" transform="translate(350,400)" /><circle cx="46" cy="120" fill="black" r="2" stroke="none" transform="translate(350,400)" /><line stroke="black" stroke-width="1" transform="translate(350,400)" x1="68" x2="77.51263591085164" y1="60" y2="61.5323296876902" /><rect fill="none" height="5" stroke="black" stroke-width="1" transform="translate(350,400)" width="8" x="136" y="61" /><line stroke="black" stroke-width="1" transform="translate(350,400)" x1="15" x2="20.987277219451716" y1="37" y2="55.14900089070295" /><rect fill="none" height="15" stroke="black" stroke-width="1" transform="translate(350,400)" width="5" x="101" y="153" /><circle cx="91" cy="69" fill="black" r="2" stroke="none" transform="translate(350,400)" /><line stroke="black" stroke-width="1" transform="translate(350,400)" x1="34" x2="36.41373723335203" y1="82" y2="98.65261200740413" /><circle cx="116" cy="12" fill="black" r="2" stroke="none" transform="translate(350,400)" /><circle cx="21" cy="130" fill="black" r="3" stroke="none" transform="translate(350,400)" /><circle cx="58" cy="105" fill="black" r="3" stroke="none" transform="translate(350,400)" /><line stroke="black" stroke-width="1" transform="translate(350,400)" x1="34" x2="39.7793992296001" y1="23" y2="31.09182480554483" /><line stroke="black" stroke-width="1" transform="translate(350,400)" x1="14" x2="22.522160532413515" y1="154" y2="161.49336561080253" /><rect fill="none" height="5" stroke="black" stroke-width="1" transform="translate(350,400)" width="15" x="52" y="12" /><line stroke="black" stroke-width="1" transform="translate(350,400)" x1="49" x2="58.97814761928268" y1="42" y2="55.07107290651168" /><line stroke="black" stroke-width="1" transform="translate(350,400)" x1="12" x2="33.26506876089201" y1="161" y2="182.92631868237103" /><circle cx="34" cy="55" fill="black" r="1" stroke="none" transform="translate(350,400)" /><line stroke="black" stroke-width="1" transform="translate(350,400)" x1="155" x2="177.8237786401826" y1="179" y2="179.9585601522387" /><text font-family="Arial" font-size="14" text-anchor="middle" x="425" y="380">Option 2</text><g transform="translate(350,400)"><polygon fill="none" points="58,150 92,150 75.0,116" stroke="black" stroke-width="2" transform="rotate(322,75.0,133.0)" /><polygon fill="none" points="69,72 106,72 87.5,35" stroke="black" stroke-width="2" transform="rotate(118,87.5,53.5)" /></g><circle cx="103" cy="105" fill="black" r="1" stroke="none" transform="translate(100,650)" /><rect fill="none" height="10" stroke="black" stroke-width="1" transform="translate(100,650)" width="13" x="13" y="43" /><line stroke="black" stroke-width="1" transform="translate(100,650)" x1="121" x2="144.60507295313712" y1="179" y2="200.5095338297407" /><circle cx="43" cy="62" fill="black" r="3" stroke="none" transform="translate(100,650)" /><circle cx="88" cy="89" fill="black" r="2" stroke="none" transform="translate(100,650)" /><circle cx="134" cy="136" fill="black" r="1" stroke="none" transform="translate(100,650)" /><rect fill="none" height="3" stroke="black" stroke-width="1" transform="translate(100,650)" width="5" x="146" y="86" /><line stroke="black" stroke-width="1" transform="translate(100,650)" x1="39" x2="41.95210399371896" y1="60" y2="64.77167440919172" /><line stroke="black" stroke-width="1" transform="translate(100,650)" x1="28" x2="33.41443144686245" y1="52" y2="58.69004334795266" /><circle cx="166" cy="102" fill="black" r="1" stroke="none" transform="translate(100,650)" /><rect fill="none" height="7" stroke="black" stroke-width="1" transform="translate(100,650)" width="9" x="134" y="74" /><line stroke="black" stroke-width="1" transform="translate(100,650)" x1="111" x2="115.95158401377445" y1="64" y2="70.56598105054611" /><circle cx="66" cy="129" fill="black" r="1" stroke="none" transform="translate(100,650)" /><line stroke="black" stroke-width="1" transform="translate(100,650)" x1="176" x2="187.0917216201381" y1="31" y2="39.15270992063833" /><line stroke="black" stroke-width="1" transform="translate(100,650)" x1="49" x2="61.71436008063909" y1="82" y2="89.1848741952122" /><circle cx="174" cy="20" fill="black" r="2" stroke="none" transform="translate(100,650)" /><line stroke="black" stroke-width="1" transform="translate(100,650)" x1="91" x2="106.64040656363383" y1="131" y2="141.49694028340423" /><rect fill="none" height="13" stroke="black" stroke-width="1" transform="translate(100,650)" width="4" x="99" y="110" /><circle cx="24" cy="46" fill="black" r="2" stroke="none" transform="translate(100,650)" /><circle cx="21" cy="49" fill="black" r="3" stroke="none" transform="translate(100,650)" /><line stroke="black" stroke-width="1" transform="translate(100,650)" x1="177" x2="193.10534522159006" y1="57" y2="70.9366216388225" /><rect fill="none" height="11" stroke="black" stroke-width="1" transform="translate(100,650)" width="4" x="173" y="126" /><circle cx="72" cy="169" fill="black" r="1" stroke="none" transform="translate(100,650)" /><circle cx="162" cy="65" fill="black" r="2" stroke="none" transform="translate(100,650)" /><line stroke="black" stroke-width="1" transform="translate(100,650)" x1="46" x2="51.95106027813449" y1="57" y2="61.42612351276981" /><rect fill="none" height="5" stroke="black" stroke-width="1" transform="translate(100,650)" width="3" x="38" y="33" /><line stroke="black" stroke-width="1" transform="translate(100,650)" x1="43" x2="63.564082130782836" y1="31" y2="36.57789928397134" /><rect fill="none" height="8" stroke="black" stroke-width="1" transform="translate(100,650)" width="15" x="73" y="103" /><line stroke="black" stroke-width="1" transform="translate(100,650)" x1="80" x2="85.85164891359452" y1="144" y2="146.15040162685946" /><rect fill="none" height="8" stroke="black" stroke-width="1" transform="translate(100,650)" width="4" x="47" y="88" /><circle cx="144" cy="115" fill="black" r="1" stroke="none" transform="translate(100,650)" /><line stroke="black" stroke-width="1" transform="translate(100,650)" x1="133" x2="135.5068829864467" y1="43" y2="53.106877263810524" /><line stroke="black" stroke-width="1" transform="translate(100,650)" x1="172" x2="179.4218089275782" y1="84" y2="95.79058164309095" /><line stroke="black" stroke-width="1" transform="translate(100,650)" x1="24" x2="40.0792167045117" y1="152" y2="160.01386932742975" /><rect fill="none" height="9" stroke="black" stroke-width="1" transform="translate(100,650)" width="13" x="34" y="177" /><circle cx="171" cy="59" fill="black" r="1" stroke="none" transform="translate(100,650)" /><rect fill="none" height="10" stroke="black" stroke-width="1" transform="translate(100,650)" width="9" x="71" y="17" /><rect fill="none" height="15" stroke="black" stroke-width="1" transform="translate(100,650)" width="7" x="160" y="175" /><circle cx="159" cy="171" fill="black" r="1" stroke="none" transform="translate(100,650)" /><rect fill="none" height="4" stroke="black" stroke-width="1" transform="translate(100,650)" width="6" x="159" y="153" /><text font-family="Arial" font-size="14" text-anchor="middle" x="175" y="630">Option 3</text><g transform="translate(100,650)"><polygon fill="none" points="31,98 65,98 48.0,64" stroke="black" stroke-width="2" transform="rotate(306.9230629079669,48.0,81.0)" /><polygon fill="none" points="33,104 70,104 51.5,67" stroke="black" stroke-width="2" transform="rotate(102.9230629079669,51.5,85.5)" /></g><rect fill="none" height="5" stroke="black" stroke-width="1" transform="translate(350,650)" width="3" x="141" y="132" /><rect fill="none" height="13" stroke="black" stroke-width="1" transform="translate(350,650)" width="8" x="72" y="109" /><circle cx="59" cy="11" fill="black" r="1" stroke="none" transform="translate(350,650)" /><rect fill="none" height="15" stroke="black" stroke-width="1" transform="translate(350,650)" width="9" x="35" y="32" /><rect fill="none" height="12" stroke="black" stroke-width="1" transform="translate(350,650)" width="3" x="178" y="77" /><line stroke="black" stroke-width="1" transform="translate(350,650)" x1="115" x2="115.9739117251597" y1="27" y2="27.357472715796458" /><rect fill="none" height="4" stroke="black" stroke-width="1" transform="translate(350,650)" width="6" x="178" y="76" /><rect fill="none" height="15" stroke="black" stroke-width="1" transform="translate(350,650)" width="7" x="156" y="30" /><rect fill="none" height="11" stroke="black" stroke-width="1" transform="translate(350,650)" width="8" x="119" y="150" /><rect fill="none" height="11" stroke="black" stroke-width="1" transform="translate(350,650)" width="3" x="89" y="121" /><rect fill="none" height="9" stroke="black" stroke-width="1" transform="translate(350,650)" width="3" x="97" y="23" /><line stroke="black" stroke-width="1" transform="translate(350,650)" x1="140" x2="147.91132783265894" y1="154" y2="162.71722249496077" /><rect fill="none" height="4" stroke="black" stroke-width="1" transform="translate(350,650)" width="8" x="35" y="26" /><rect fill="none" height="7" stroke="black" stroke-width="1" transform="translate(350,650)" width="5" x="112" y="45" /><circle cx="127" cy="83" fill="black" r="3" stroke="none" transform="translate(350,650)" /><circle cx="107" cy="73" fill="black" r="3" stroke="none" transform="translate(350,650)" /><line stroke="black" stroke-width="1" transform="translate(350,650)" x1="127" x2="133.48418667980943" y1="63" y2="64.99753245659707" /><circle cx="47" cy="115" fill="black" r="2" stroke="none" transform="translate(350,650)" /><circle cx="41" cy="65" fill="black" r="2" stroke="none" transform="translate(350,650)" /><rect fill="none" height="13" stroke="black" stroke-width="1" transform="translate(350,650)" width="7" x="159" y="80" /><rect fill="none" height="9" stroke="black" stroke-width="1" transform="translate(350,650)" width="12" x="63" y="73" /><line stroke="black" stroke-width="1" transform="translate(350,650)" x1="120" x2="121.81955762408067" y1="93" y2="93.30889719915719" /><rect fill="none" height="3" stroke="black" stroke-width="1" transform="translate(350,650)" width="4" x="61" y="102" /><rect fill="none" height="9" stroke="black" stroke-width="1" transform="translate(350,650)" width="12" x="85" y="91" /><rect fill="none" height="7" stroke="black" stroke-width="1" transform="translate(350,650)" width="9" x="145" y="71" /><line stroke="black" stroke-width="1" transform="translate(350,650)" x1="90" x2="93.08186235953659" y1="69" y2="82.28938154810002" /><rect fill="none" height="14" stroke="black" stroke-width="1" transform="translate(350,650)" width="7" x="123" y="44" /><line stroke="black" stroke-width="1" transform="translate(350,650)" x1="130" x2="130.39516705786505" y1="44" y2="47.723908914200415" /><rect fill="none" height="13" stroke="black" stroke-width="1" transform="translate(350,650)" width="10" x="103" y="67" /><rect fill="none" height="15" stroke="black" stroke-width="1" transform="translate(350,650)" width="12" x="104" y="24" /><rect fill="none" height="3" stroke="black" stroke-width="1" transform="translate(350,650)" width="8" x="78" y="109" /><rect fill="none" height="13" stroke="black" stroke-width="1" transform="translate(350,650)" width="5" x="123" y="17" /><line stroke="black" stroke-width="1" transform="translate(350,650)" x1="167" x2="172.70498094345103" y1="21" y2="25.391211560759725" /><circle cx="87" cy="54" fill="black" r="1" stroke="none" transform="translate(350,650)" /><rect fill="none" height="3" stroke="black" stroke-width="1" transform="translate(350,650)" width="5" x="103" y="119" /><line stroke="black" stroke-width="1" transform="translate(350,650)" x1="21" x2="30.56450617490797" y1="148" y2="158.07675477783891" /><rect fill="none" height="15" stroke="black" stroke-width="1" transform="translate(350,650)" width="11" x="159" y="160" /><line stroke="black" stroke-width="1" transform="translate(350,650)" x1="149" x2="153.6148947882784" y1="26" y2="27.678123625479444" /><line stroke="black" stroke-width="1" transform="translate(350,650)" x1="85" x2="87.44478989202509" y1="149" y2="154.24350948288105" /><circle cx="94" cy="92" fill="black" r="2" stroke="none" transform="translate(350,650)" /><text font-family="Arial" font-size="14" text-anchor="middle" x="425" y="630">Option 4</text><g transform="translate(350,650)"><polygon fill="none" points="31,98 65,98 48.0,64" stroke="black" stroke-width="2" transform="rotate(305.13442214743156,48.0,81.0)" /><polygon fill="none" points="33,104 70,104 51.5,67" stroke="black" stroke-width="2" transform="rotate(101.13442214743158,51.5,85.5)" /></g></svg>