<?xml version="1.0" encoding="utf-8" ?>
<svg baseProfile="full" height="1000px" version="1.1" width="600px" xmlns="http://www.w3.org/2000/svg" xmlns:ev="http://www.w3.org/2001/xml-events" xmlns:xlink="http://www.w3.org/1999/xlink"><defs /><rect fill="white" height="100%" width="100%" x="0" y="0" /><text font-family="Arial" font-size="24" text-anchor="middle" x="300" y="40">Visual Figure Ground Test</text><text font-family="Arial" font-size="18" text-anchor="middle" x="300" y="80">Target Pattern</text><g transform="translate(200,100)"><line stroke="black" stroke-width="2" transform="rotate(290,34.5,96.5)" x1="16" x2="53" y1="78" y2="115" /><polygon fill="none" points="20,67 65,67 42.5,22" stroke="black" stroke-width="2" transform="rotate(65,42.5,44.5)" /></g><text font-family="Arial" font-size="18" text-anchor="middle" x="300" y="350">Options</text><rect fill="none" height="15" stroke="black" stroke-width="1" transform="translate(100,400)" width="12" x="84" y="157" /><rect fill="none" height="9" stroke="black" stroke-width="1" transform="translate(100,400)" width="6" x="97" y="68" /><line stroke="black" stroke-width="1" transform="translate(100,400)" x1="109" x2="118.82310380794848" y1="57" y2="59.56214862527677" /><line stroke="black" stroke-width="1" transform="translate(100,400)" x1="153" x2="157.8960682549314" y1="177" y2="180.22457656839913" /><circle cx="71" cy="77" fill="black" r="2" stroke="none" transform="translate(100,400)" /><rect fill="none" height="7" stroke="black" stroke-width="1" transform="translate(100,400)" width="5" x="156" y="77" /><rect fill="none" height="4" stroke="black" stroke-width="1" transform="translate(100,400)" width="5" x="53" y="147" /><rect fill="none" height="10" stroke="black" stroke-width="1" transform="translate(100,400)" width="14" x="111" y="140" /><rect fill="none" height="4" stroke="black" stroke-width="1" transform="translate(100,400)" width="15" x="128" y="100" /><circle cx="32" cy="146" fill="black" r="1" stroke="none" transform="translate(100,400)" /><circle cx="56" cy="89" fill="black" r="3" stroke="none" transform="translate(100,400)" /><rect fill="none" height="5" stroke="black" stroke-width="1" transform="translate(100,400)" width="4" x="179" y="76" /><circle cx="40" cy="103" fill="black" r="3" stroke="none" transform="translate(100,400)" /><rect fill="none" height="4" stroke="black" stroke-width="1" transform="translate(100,400)" width="10" x="123" y="29" /><line stroke="black" stroke-width="1" transform="translate(100,400)" x1="102" x2="117.43682937290453" y1="30" y2="34.17616912020109" /><line stroke="black" stroke-width="1" transform="translate(100,400)" x1="19" x2="47.88592109243672" y1="146" y2="173.3363956069258" /><rect fill="none" height="15" stroke="black" stroke-width="1" transform="translate(100,400)" width="14" x="61" y="126" /><circle cx="107" cy="35" fill="black" r="2" stroke="none" transform="translate(100,400)" /><rect fill="none" height="5" stroke="black" stroke-width="1" transform="translate(100,400)" width="4" x="149" y="72" /><rect fill="none" height="9" stroke="black" stroke-width="1" transform="translate(100,400)" width="13" x="90" y="44" /><line stroke="black" stroke-width="1" transform="translate(100,400)" x1="151" x2="152.16454351110244" y1="108" y2="122.72094138795292" /><line stroke="black" stroke-width="1" transform="translate(100,400)" x1="77" x2="86.6926425007972" y1="27" y2="31.687087628489625" /><circle cx="78" cy="97" fill="black" r="1" stroke="none" transform="translate(100,400)" /><rect fill="none" height="12" stroke="black" stroke-width="1" transform="translate(100,400)" width="9" x="176" y="18" /><circle cx="57" cy="60" fill="black" r="1" stroke="none" transform="translate(100,400)" /><circle cx="35" cy="125" fill="black" r="2" stroke="none" transform="translate(100,400)" /><line stroke="black" stroke-width="1" transform="translate(100,400)" x1="34" x2="35.28867226345315" y1="86" y2="112.8617486541429" /><rect fill="none" height="8" stroke="black" stroke-width="1" transform="translate(100,400)" width="5" x="90" y="65" /><circle cx="118" cy="138" fill="black" r="2" stroke="none" transform="translate(100,400)" /><line stroke="black" stroke-width="1" transform="translate(100,400)" x1="121" x2="143.08860217900906" y1="31" y2="40.2239076392657" /><line stroke="black" stroke-width="1" transform="translate(100,400)" x1="146" x2="153.9828898040635" y1="26" y2="39.601736876719244" /><rect fill="none" height="10" stroke="black" stroke-width="1" transform="translate(100,400)" width="5" x="162" y="36" /><circle cx="176" cy="96" fill="black" r="1" stroke="none" transform="translate(100,400)" /><rect fill="none" height="13" stroke="black" stroke-width="1" transform="translate(100,400)" width="7" x="124" y="125" /><line stroke="black" stroke-width="1" transform="translate(100,400)" x1="165" x2="168.10255141415757" y1="169" y2="175.0767595318161" /><circle cx="162" cy="71" fill="black" r="1" stroke="none" transform="translate(100,400)" /><line stroke="black" stroke-width="1" transform="translate(100,400)" x1="143" x2="160.65010769163948" y1="135" y2="135.95152762186058" /><line stroke="black" stroke-width="1" transform="translate(100,400)" x1="150" x2="154.47373110395185" y1="58" y2="60.78409333530451" /><line stroke="black" stroke-width="1" transform="translate(100,400)" x1="40" x2="40.88003821886161" y1="30" y2="31.077066088400326" /><rect fill="none" height="4" stroke="black" stroke-width="1" transform="translate(100,400)" width="4" x="97" y="85" /><text font-family="Arial" font-size="14" text-anchor="middle" x="175" y="380">Option 1</text><g transform="translate(100,400)"><line stroke="black" stroke-width="2" transform="rotate(307.85644647437226,34.5,96.5)" x1="16" x2="53" y1="78" y2="115" /><polygon fill="none" points="20,67 65,67 42.5,22" stroke="black" stroke-width="2" transform="rotate(82.85644647437225,42.5,44.5)" /></g><rect fill="none" height="11" stroke="black" stroke-width="1" transform="translate(350,400)" width="8" x="131" y="108" /><rect fill="none" height="11" stroke="black" stroke-width="1" transform="translate(350,400)" width="4" x="144" y="123" /><rect fill="none" height="15" stroke="black" stroke-width="1" transform="translate(350,400)" width="8" x="111" y="115" /><line stroke="black" stroke-width="1" transform="translate(350,400)" x1="15" x2="26.600860502552035" y1="67" y2="72.65875344927116" /><line stroke="black" stroke-width="1" transform="translate(350,400)" x1="65" x2="67.44230208298129" y1="103" y2="114.05428795967126" /><line stroke="black" stroke-width="1" transform="translate(350,400)" x1="130" x2="155.65958058438784" y1="173" y2="199.4530505917797" /><rect fill="none" height="14" stroke="black" stroke-width="1" transform="translate(350,400)" width="10" x="99" y="171" /><rect fill="none" height="6" stroke="black" stroke-width="1" transform="translate(350,400)" width="6" x="68" y="131" /><line stroke="black" stroke-width="1" transform="translate(350,400)" x1="33" x2="41.26040353842804" y1="121" y2="122.97245505429802" /><line stroke="black" stroke-width="1" transform="translate(350,400)" x1="29" x2="30.905743163992366" y1="57" y2="59.82099175764806" /><circle cx="155" cy="163" fill="black" r="2" stroke="none" transform="translate(350,400)" /><line stroke="black" stroke-width="1" transform="translate(350,400)" x1="13" x2="17.476873517618543" y1="150" y2="150.7933869193473" /><rect fill="none" height="7" stroke="black" stroke-width="1" transform="translate(350,400)" width="4" x="126" y="174" /><rect fill="none" height="5" stroke="black" stroke-width="1" transform="translate(350,400)" width="11" x="11" y="43" /><circle cx="132" cy="123" fill="black" r="2" stroke="none" transform="translate(350,400)" /><rect fill="none" height="9" stroke="black" stroke-width="1" transform="translate(350,400)" width="13" x="22" y="25" /><circle cx="170" cy="126" fill="black" r="2" stroke="none" transform="translate(350,400)" /><circle cx="130" cy="114" fill="black" r="3" stroke="none" transform="translate(350,400)" /><line stroke="black" stroke-width="1" transform="translate(350,400)" x1="43" x2="44.481388462746985" y1="62" y2="66.24102579259825" /><circle cx="26" cy="51" fill="black" r="3" stroke="none" transform="translate(350,400)" /><circle cx="132" cy="62" fill="black" r="1" stroke="none" transform="translate(350,400)" /><line stroke="black" stroke-width="1" transform="translate(350,400)" x1="88" x2="89.46898667206823" y1="45" y2="45.17287170914411" /><rect fill="none" height="10" stroke="black" stroke-width="1" transform="translate(350,400)" width="4" x="75" y="120" /><line stroke="black" stroke-width="1" transform="translate(350,400)" x1="121" x2="128.70991388584665" y1="136" y2="151.2795776056252" /><rect fill="none" height="3" stroke="black" stroke-width="1" transform="translate(350,400)" width="11" x="50" y="114" /><circle cx="90" cy="70" fill="black" r="1" stroke="none" transform="translate(350,400)" /><circle cx="64" cy="163" fill="black" r="1" stroke="none" transform="translate(350,400)" /><line stroke="black" stroke-width="1" transform="translate(350,400)" x1="59" x2="69.55157679004547" y1="86" y2="101.86723109011557" /><line stroke="black" stroke-width="1" transform="translate(350,400)" x1="117" x2="117.06531189303455" y1="141" y2="149.85284030842956" /><circle cx="73" cy="179" fill="black" r="2" stroke="none" transform="translate(350,400)" /><rect fill="none" height="3" stroke="black" stroke-width="1" transform="translate(350,400)" width="15" x="50" y="169" /><line stroke="black" stroke-width="1" transform="translate(350,400)" x1="139" x2="147.72480177078" y1="134" y2="137.78406723540905" /><line stroke="black" stroke-width="1" transform="translate(350,400)" x1="13" x2="17.317873645780168" y1="156" y2="162.41816354180855" /><line stroke="black" stroke-width="1" transform="translate(350,400)" x1="130" x2="133.30442077976005" y1="103" y2="120.07007912654583" /><rect fill="none" height="12" stroke="black" stroke-width="1" transform="translate(350,400)" width="15" x="15" y="25" /><rect fill="none" height="13" stroke="black" stroke-width="1" transform="translate(350,400)" width="3" x="138" y="74" /><circle cx="105" cy="22" fill="black" r="1" stroke="none" transform="translate(350,400)" /><circle cx="89" cy="147" fill="black" r="1" stroke="none" transform="translate(350,400)" /><circle cx="14" cy="10" fill="black" r="1" stroke="none" transform="translate(350,400)" /><rect fill="none" height="9" stroke="black" stroke-width="1" transform="translate(350,400)" width="14" x="93" y="52" /><text font-family="Arial" font-size="14" text-anchor="middle" x="425" y="380">Option 2</text><g transform="translate(350,400)"><line stroke="black" stroke-width="2" transform="rotate(272.82032179589123,133.5,107.5)" x1="115" x2="152" y1="89" y2="126" /><polygon fill="none" points="20,67 65,67 42.5,22" stroke="black" stroke-width="2" transform="rotate(47.82032179589126,42.5,44.5)" /></g><rect fill="none" height="15" stroke="black" stroke-width="1" transform="translate(100,650)" width="7" x="171" y="122" /><line stroke="black" stroke-width="1" transform="translate(100,650)" x1="77" x2="88.99581308522313" y1="21" y2="27.150629376293903" /><rect fill="none" height="6" stroke="black" stroke-width="1" transform="translate(100,650)" width="4" x="144" y="159" /><line stroke="black" stroke-width="1" transform="translate(100,650)" x1="51" x2="70.36863735011539" y1="42" y2="42.45519886763964" /><circle cx="166" cy="171" fill="black" r="3" stroke="none" transform="translate(100,650)" /><rect fill="none" height="15" stroke="black" stroke-width="1" transform="translate(100,650)" width="15" x="26" y="79" /><rect fill="none" height="3" stroke="black" stroke-width="1" transform="translate(100,650)" width="3" x="75" y="14" /><rect fill="none" height="12" stroke="black" stroke-width="1" transform="translate(100,650)" width="10" x="179" y="39" /><line stroke="black" stroke-width="1" transform="translate(100,650)" x1="66" x2="71.0753197319363" y1="179" y2="191.55603631087573" /><line stroke="black" stroke-width="1" transform="translate(100,650)" x1="172" x2="184.22690114441224" y1="115" y2="126.48830166410781" /><circle cx="115" cy="44" fill="black" r="3" stroke="none" transform="translate(100,650)" /><rect fill="none" height="11" stroke="black" stroke-width="1" transform="translate(100,650)" width="7" x="63" y="28" /><line stroke="black" stroke-width="1" transform="translate(100,650)" x1="164" x2="167.42825003061952" y1="114" y2="128.6643112577234" /><rect fill="none" height="10" stroke="black" stroke-width="1" transform="translate(100,650)" width="9" x="84" y="75" /><line stroke="black" stroke-width="1" transform="translate(100,650)" x1="103" x2="107.3401375507654" y1="167" y2="167.92238069137375" /><line stroke="black" stroke-width="1" transform="translate(100,650)" x1="15" x2="21.172322257527224" y1="151" y2="153.84020275971662" /><circle cx="176" cy="39" fill="black" r="2" stroke="none" transform="translate(100,650)" /><line stroke="black" stroke-width="1" transform="translate(100,650)" x1="179" x2="185.84017633559384" y1="61" y2="67.83193629734104" /><circle cx="13" cy="18" fill="black" r="1" stroke="none" transform="translate(100,650)" /><circle cx="135" cy="109" fill="black" r="3" stroke="none" transform="translate(100,650)" /><rect fill="none" height="7" stroke="black" stroke-width="1" transform="translate(100,650)" width="4" x="117" y="16" /><rect fill="none" height="7" stroke="black" stroke-width="1" transform="translate(100,650)" width="9" x="59" y="54" /><circle cx="40" cy="145" fill="black" r="3" stroke="none" transform="translate(100,650)" /><rect fill="none" height="6" stroke="black" stroke-width="1" transform="translate(100,650)" width="4" x="127" y="125" /><line stroke="black" stroke-width="1" transform="translate(100,650)" x1="104" x2="111.56224486967496" y1="66" y2="85.86715702662755" /><rect fill="none" height="12" stroke="black" stroke-width="1" transform="translate(100,650)" width="14" x="136" y="129" /><rect fill="none" height="3" stroke="black" stroke-width="1" transform="translate(100,650)" width="14" x="117" y="155" /><rect fill="none" height="15" stroke="black" stroke-width="1" transform="translate(100,650)" width="11" x="141" y="161" /><rect fill="none" height="6" stroke="black" stroke-width="1" transform="translate(100,650)" width="12" x="22" y="32" /><rect fill="none" height="9" stroke="black" stroke-width="1" transform="translate(100,650)" width="4" x="125" y="94" /><line stroke="black" stroke-width="1" transform="translate(100,650)" x1="133" x2="133.2168337864141" y1="95" y2="99.97867830155394" /><rect fill="none" height="14" stroke="black" stroke-width="1" transform="translate(100,650)" width="7" x="150" y="131" /><line stroke="black" stroke-width="1" transform="translate(100,650)" x1="24" x2="49.91443964215314" y1="148" y2="175.64830350773028" /><circle cx="151" cy="161" fill="black" r="2" stroke="none" transform="translate(100,650)" /><line stroke="black" stroke-width="1" transform="translate(100,650)" x1="77" x2="84.51879789075389" y1="146" y2="157.70136406433534" /><circle cx="167" cy="173" fill="black" r="3" stroke="none" transform="translate(100,650)" /><rect fill="none" height="13" stroke="black" stroke-width="1" transform="translate(100,650)" width="11" x="176" y="30" /><rect fill="none" height="7" stroke="black" stroke-width="1" transform="translate(100,650)" width="5" x="47" y="165" /><line stroke="black" stroke-width="1" transform="translate(100,650)" x1="178" x2="179.64600425976414" y1="93" y2="95.91014100885572" /><circle cx="35" cy="63" fill="black" r="1" stroke="none" transform="translate(100,650)" /><text font-family="Arial" font-size="14" text-anchor="middle" x="175" y="630">Option 3</text><g transform="translate(100,650)"><line stroke="black" stroke-width="2" transform="rotate(307.98157943550405,34.5,96.5)" x1="16" x2="53" y1="78" y2="115" /><polygon fill="none" points="20,67 65,67 42.5,22" stroke="black" stroke-width="2" transform="rotate(82.98157943550402,42.5,44.5)" /></g><rect fill="none" height="12" stroke="black" stroke-width="1" transform="translate(350,650)" width="7" x="104" y="114" /><circle cx="136" cy="126" fill="black" r="1" stroke="none" transform="translate(350,650)" /><rect fill="none" height="11" stroke="black" stroke-width="1" transform="translate(350,650)" width="4" x="46" y="178" /><line stroke="black" stroke-width="1" transform="translate(350,650)" x1="149" x2="153.3105522152519" y1="179" y2="191.4811670575056" /><circle cx="180" cy="44" fill="black" r="1" stroke="none" transform="translate(350,650)" /><rect fill="none" height="12" stroke="black" stroke-width="1" transform="translate(350,650)" width="10" x="122" y="155" /><line stroke="black" stroke-width="1" transform="translate(350,650)" x1="139" x2="156.53959413826152" y1="172" y2="188.60270471029847" /><line stroke="black" stroke-width="1" transform="translate(350,650)" x1="125" x2="126.07413770647642" y1="148" y2="151.20876656618535" /><rect fill="none" height="3" stroke="black" stroke-width="1" transform="translate(350,650)" width="10" x="83" y="109" /><circle cx="86" cy="112" fill="black" r="1" stroke="none" transform="translate(350,650)" /><rect fill="none" height="9" stroke="black" stroke-width="1" transform="translate(350,650)" width="12" x="172" y="94" /><circle cx="65" cy="58" fill="black" r="3" stroke="none" transform="translate(350,650)" /><circle cx="142" cy="127" fill="black" r="2" stroke="none" transform="translate(350,650)" /><rect fill="none" height="10" stroke="black" stroke-width="1" transform="translate(350,650)" width="5" x="180" y="124" /><line stroke="black" stroke-width="1" transform="translate(350,650)" x1="88" x2="108.35523009093687" y1="163" y2="181.5037103889645" /><line stroke="black" stroke-width="1" transform="translate(350,650)" x1="49" x2="52.406530787478275" y1="150" y2="160.85901333201986" /><circle cx="34" cy="91" fill="black" r="2" stroke="none" transform="translate(350,650)" /><rect fill="none" height="12" stroke="black" stroke-width="1" transform="translate(350,650)" width="4" x="113" y="37" /><circle cx="41" cy="16" fill="black" r="1" stroke="none" transform="translate(350,650)" /><line stroke="black" stroke-width="1" transform="translate(350,650)" x1="119" x2="136.25230944756348" y1="86" y2="106.9919021310385" /><circle cx="141" cy="92" fill="black" r="1" stroke="none" transform="translate(350,650)" /><rect fill="none" height="13" stroke="black" stroke-width="1" transform="translate(350,650)" width="8" x="149" y="172" /><rect fill="none" height="11" stroke="black" stroke-width="1" transform="translate(350,650)" width="7" x="38" y="109" /><rect fill="none" height="14" stroke="black" stroke-width="1" transform="translate(350,650)" width="5" x="104" y="61" /><rect fill="none" height="5" stroke="black" stroke-width="1" transform="translate(350,650)" width="15" x="130" y="154" /><line stroke="black" stroke-width="1" transform="translate(350,650)" x1="157" x2="163.45072510291286" y1="97" y2="99.29381308623765" /><line stroke="black" stroke-width="1" transform="translate(350,650)" x1="74" x2="82.28330153154056" y1="71" y2="84.90702479533117" /><rect fill="none" height="5" stroke="black" stroke-width="1" transform="translate(350,650)" width="12" x="105" y="128" /><circle cx="44" cy="65" fill="black" r="3" stroke="none" transform="translate(350,650)" /><line stroke="black" stroke-width="1" transform="translate(350,650)" x1="42" x2="44.417080013271544" y1="107" y2="109.91842114033527" /><circle cx="165" cy="18" fill="black" r="3" stroke="none" transform="translate(350,650)" /><circle cx="109" cy="122" fill="black" r="1" stroke="none" transform="translate(350,650)" /><rect fill="none" height="13" stroke="black" stroke-width="1" transform="translate(350,650)" width="8" x="61" y="12" /><rect fill="none" height="12" stroke="black" stroke-width="1" transform="translate(350,650)" width="11" x="33" y="170" /><line stroke="black" stroke-width="1" transform="translate(350,650)" x1="108" x2="126.60235468602295" y1="32" y2="56.1577536700485" /><rect fill="none" height="4" stroke="black" stroke-width="1" transform="translate(350,650)" width="14" x="52" y="106" /><rect fill="none" height="12" stroke="black" stroke-width="1" transform="translate(350,650)" width="4" x="40" y="74" /><circle cx="50" cy="40" fill="black" r="3" stroke="none" transform="translate(350,650)" /><circle cx="57" cy="65" fill="black" r="2" stroke="none" transform="translate(350,650)" /><circle cx="24" cy="34" fill="black" r="1" stroke="none" transform="translate(350,650)" /><text font-family="Arial" font-size="14" text-anchor="middle" x="425" y="630">Option 4</text><g transform="translate(350,650)"><line stroke="black" stroke-width="2" transform="rotate(290,34.5,96.5)" x1="16" x2="53" y1="78" y2="115" /><polygon fill="none" points="20,67 65,67 42.5,22" stroke="black" stroke-width="2" transform="rotate(65,42.5,44.5)" /></g></svg>