<?xml version="1.0" encoding="utf-8" ?>
<svg baseProfile="full" height="1000px" version="1.1" width="600px" xmlns="http://www.w3.org/2000/svg" xmlns:ev="http://www.w3.org/2001/xml-events" xmlns:xlink="http://www.w3.org/1999/xlink"><defs /><rect fill="white" height="100%" width="100%" x="0" y="0" /><text font-family="Arial" font-size="24" text-anchor="middle" x="300" y="40">Visual Figure Ground Test</text><text font-family="Arial" font-size="18" text-anchor="middle" x="300" y="80">Target Pattern</text><g transform="translate(200,100)"><circle cx="21" cy="129" fill="none" r="20.5" stroke="black" stroke-width="2" /><polygon fill="none" points="111,162 157,162 134.0,116" stroke="black" stroke-width="2" transform="rotate(289,134.0,139.0)" /><line stroke="black" stroke-width="2" transform="rotate(213,68.0,105.0)" x1="44" x2="92" y1="81" y2="129" /><line stroke="black" stroke-width="2" transform="rotate(236,66.0,152.0)" x1="42" x2="90" y1="128" y2="176" /><circle cx="107" cy="137" fill="none" r="15.5" stroke="black" stroke-width="2" /><line stroke="black" stroke-width="2" transform="rotate(101,122.0,133.0)" x1="100" x2="144" y1="111" y2="155" /><circle cx="56" cy="113" fill="none" r="15.5" stroke="black" stroke-width="2" /><circle cx="137" cy="40" fill="none" r="21.0" stroke="black" stroke-width="2" /><line stroke="black" stroke-width="2" transform="rotate(145,78.5,113.5)" x1="55" x2="102" y1="90" y2="137" /><circle cx="20" cy="11" fill="none" r="15.5" stroke="black" stroke-width="2" /></g><text font-family="Arial" font-size="18" text-anchor="middle" x="300" y="350">Options</text><rect fill="none" height="4" stroke="black" stroke-width="1" transform="translate(100,400)" width="6" x="155" y="161" /><line stroke="black" stroke-width="1" transform="translate(100,400)" x1="62" x2="71.80968316583886" y1="125" y2="149.63416664847227" /><line stroke="black" stroke-width="1" transform="translate(100,400)" x1="87" x2="99.35835944328468" y1="73" y2="85.50479210845074" /><circle cx="91" cy="94" fill="black" r="2" stroke="none" transform="translate(100,400)" /><circle cx="106" cy="66" fill="black" r="2" stroke="none" transform="translate(100,400)" /><rect fill="none" height="5" stroke="black" stroke-width="1" transform="translate(100,400)" width="8" x="93" y="73" /><rect fill="none" height="7" stroke="black" stroke-width="1" transform="translate(100,400)" width="12" x="19" y="80" /><rect fill="none" height="9" stroke="black" stroke-width="1" transform="translate(100,400)" width="8" x="112" y="32" /><rect fill="none" height="9" stroke="black" stroke-width="1" transform="translate(100,400)" width="9" x="31" y="93" /><line stroke="black" stroke-width="1" transform="translate(100,400)" x1="174" x2="192.8714888474868" y1="22" y2="31.28743752126016" /><line stroke="black" stroke-width="1" transform="translate(100,400)" x1="74" x2="74.60961369623527" y1="132" y2="138.44059887381337" /><rect fill="none" height="14" stroke="black" stroke-width="1" transform="translate(100,400)" width="3" x="20" y="59" /><circle cx="101" cy="109" fill="black" r="3" stroke="none" transform="translate(100,400)" /><circle cx="129" cy="116" fill="black" r="1" stroke="none" transform="translate(100,400)" /><circle cx="88" cy="74" fill="black" r="2" stroke="none" transform="translate(100,400)" /><rect fill="none" height="4" stroke="black" stroke-width="1" transform="translate(100,400)" width="10" x="145" y="94" /><rect fill="none" height="3" stroke="black" stroke-width="1" transform="translate(100,400)" width="10" x="45" y="120" /><line stroke="black" stroke-width="1" transform="translate(100,400)" x1="93" x2="105.90443415241143" y1="78" y2="81.17022794072206" /><rect fill="none" height="6" stroke="black" stroke-width="1" transform="translate(100,400)" width="10" x="53" y="121" /><circle cx="161" cy="123" fill="black" r="3" stroke="none" transform="translate(100,400)" /><line stroke="black" stroke-width="1" transform="translate(100,400)" x1="71" x2="81.38925177151269" y1="96" y2="104.88322613528973" /><circle cx="78" cy="53" fill="black" r="1" stroke="none" transform="translate(100,400)" /><circle cx="82" cy="59" fill="black" r="1" stroke="none" transform="translate(100,400)" /><rect fill="none" height="3" stroke="black" stroke-width="1" transform="translate(100,400)" width="10" x="10" y="90" /><circle cx="121" cy="84" fill="black" r="3" stroke="none" transform="translate(100,400)" /><line stroke="black" stroke-width="1" transform="translate(100,400)" x1="53" x2="53.77176924602718" y1="18" y2="18.444350836869837" /><rect fill="none" height="3" stroke="black" stroke-width="1" transform="translate(100,400)" width="9" x="109" y="168" /><rect fill="none" height="14" stroke="black" stroke-width="1" transform="translate(100,400)" width="5" x="128" y="114" /><rect fill="none" height="7" stroke="black" stroke-width="1" transform="translate(100,400)" width="15" x="40" y="105" /><line stroke="black" stroke-width="1" transform="translate(100,400)" x1="130" x2="135.01730177802972" y1="145" y2="153.04233779344196" /><line stroke="black" stroke-width="1" transform="translate(100,400)" x1="16" x2="21.033281956592425" y1="86" y2="89.38645016610812" /><circle cx="167" cy="61" fill="black" r="1" stroke="none" transform="translate(100,400)" /><circle cx="164" cy="112" fill="black" r="3" stroke="none" transform="translate(100,400)" /><line stroke="black" stroke-width="1" transform="translate(100,400)" x1="122" x2="130.58990066767853" y1="11" y2="30.824088837125274" /><rect fill="none" height="12" stroke="black" stroke-width="1" transform="translate(100,400)" width="6" x="108" y="80" /><circle cx="144" cy="87" fill="black" r="1" stroke="none" transform="translate(100,400)" /><line stroke="black" stroke-width="1" transform="translate(100,400)" x1="43" x2="52.67683357485137" y1="65" y2="81.1227976263677" /><rect fill="none" height="12" stroke="black" stroke-width="1" transform="translate(100,400)" width="11" x="92" y="63" /><circle cx="86" cy="145" fill="black" r="1" stroke="none" transform="translate(100,400)" /><line stroke="black" stroke-width="1" transform="translate(100,400)" x1="152" x2="155.68012569429456" y1="98" y2="100.30111432423523" /><text font-family="Arial" font-size="14" text-anchor="middle" x="175" y="380">Option 1</text><g transform="translate(100,400)"><circle cx="21" cy="129" fill="none" r="20.5" stroke="black" stroke-width="2" /><polygon fill="none" points="111,162 157,162 134.0,116" stroke="black" stroke-width="2" transform="rotate(269.58747069084313,134.0,139.0)" /><line stroke="black" stroke-width="2" transform="rotate(193.5874706908431,68.0,105.0)" x1="44" x2="92" y1="81" y2="129" /><line stroke="black" stroke-width="2" transform="rotate(216.5874706908431,143.0,100.0)" x1="119" x2="167" y1="76" y2="124" /><circle cx="107" cy="137" fill="none" r="15.5" stroke="black" stroke-width="2" /><line stroke="black" stroke-width="2" transform="rotate(81.58747069084312,122.0,133.0)" x1="100" x2="144" y1="111" y2="155" /><circle cx="56" cy="113" fill="none" r="15.5" stroke="black" stroke-width="2" /><circle cx="137" cy="40" fill="none" r="21.0" stroke="black" stroke-width="2" /><line stroke="black" stroke-width="2" transform="rotate(125.58747069084312,78.5,113.5)" x1="55" x2="102" y1="90" y2="137" /><circle cx="20" cy="11" fill="none" r="15.5" stroke="black" stroke-width="2" /></g><line stroke="black" stroke-width="1" transform="translate(350,400)" x1="52" x2="55.53706827485053" y1="73" y2="79.10532756770994" /><rect fill="none" height="15" stroke="black" stroke-width="1" transform="translate(350,400)" width="6" x="46" y="52" /><line stroke="black" stroke-width="1" transform="translate(350,400)" x1="97" x2="102.23976764046273" y1="147" y2="155.13390645384084" /><circle cx="114" cy="35" fill="black" r="3" stroke="none" transform="translate(350,400)" /><rect fill="none" height="12" stroke="black" stroke-width="1" transform="translate(350,400)" width="5" x="120" y="130" /><line stroke="black" stroke-width="1" transform="translate(350,400)" x1="43" x2="49.26166706897599" y1="172" y2="175.36557147349473" /><line stroke="black" stroke-width="1" transform="translate(350,400)" x1="47" x2="53.86762536966607" y1="46" y2="54.240830367821836" /><line stroke="black" stroke-width="1" transform="translate(350,400)" x1="171" x2="172.6468633515509" y1="106" y2="112.78606001390915" /><circle cx="139" cy="146" fill="black" r="1" stroke="none" transform="translate(350,400)" /><rect fill="none" height="4" stroke="black" stroke-width="1" transform="translate(350,400)" width="12" x="148" y="180" /><circle cx="50" cy="50" fill="black" r="3" stroke="none" transform="translate(350,400)" /><circle cx="86" cy="25" fill="black" r="2" stroke="none" transform="translate(350,400)" /><line stroke="black" stroke-width="1" transform="translate(350,400)" x1="77" x2="89.66535482205175" y1="71" y2="74.69442453492255" /><rect fill="none" height="14" stroke="black" stroke-width="1" transform="translate(350,400)" width="5" x="158" y="85" /><rect fill="none" height="5" stroke="black" stroke-width="1" transform="translate(350,400)" width="8" x="21" y="72" /><rect fill="none" height="4" stroke="black" stroke-width="1" transform="translate(350,400)" width="11" x="155" y="35" /><rect fill="none" height="3" stroke="black" stroke-width="1" transform="translate(350,400)" width="13" x="133" y="134" /><line stroke="black" stroke-width="1" transform="translate(350,400)" x1="118" x2="142.15744497477615" y1="33" y2="48.36716569965734" /><rect fill="none" height="3" stroke="black" stroke-width="1" transform="translate(350,400)" width="9" x="128" y="171" /><line stroke="black" stroke-width="1" transform="translate(350,400)" x1="11" x2="25.899582505238545" y1="96" y2="98.47104570006958" /><rect fill="none" height="7" stroke="black" stroke-width="1" transform="translate(350,400)" width="6" x="117" y="31" /><rect fill="none" height="8" stroke="black" stroke-width="1" transform="translate(350,400)" width="4" x="44" y="136" /><circle cx="26" cy="135" fill="black" r="2" stroke="none" transform="translate(350,400)" /><circle cx="114" cy="107" fill="black" r="3" stroke="none" transform="translate(350,400)" /><rect fill="none" height="13" stroke="black" stroke-width="1" transform="translate(350,400)" width="9" x="85" y="150" /><rect fill="none" height="12" stroke="black" stroke-width="1" transform="translate(350,400)" width="12" x="175" y="28" /><rect fill="none" height="12" stroke="black" stroke-width="1" transform="translate(350,400)" width="15" x="91" y="73" /><line stroke="black" stroke-width="1" transform="translate(350,400)" x1="150" x2="150.2656172441234" y1="163" y2="166.5804164018104" /><line stroke="black" stroke-width="1" transform="translate(350,400)" x1="130" x2="143.8984524480726" y1="171" y2="185.37338543958106" /><circle cx="68" cy="97" fill="black" r="1" stroke="none" transform="translate(350,400)" /><line stroke="black" stroke-width="1" transform="translate(350,400)" x1="180" x2="192.8424983266094" y1="82" y2="95.92722484457093" /><rect fill="none" height="8" stroke="black" stroke-width="1" transform="translate(350,400)" width="6" x="163" y="55" /><line stroke="black" stroke-width="1" transform="translate(350,400)" x1="75" x2="75.798080980271" y1="135" y2="136.7352437577739" /><rect fill="none" height="10" stroke="black" stroke-width="1" transform="translate(350,400)" width="10" x="143" y="145" /><rect fill="none" height="13" stroke="black" stroke-width="1" transform="translate(350,400)" width="4" x="123" y="43" /><line stroke="black" stroke-width="1" transform="translate(350,400)" x1="112" x2="119.23162988077821" y1="59" y2="71.43881197561107" /><line stroke="black" stroke-width="1" transform="translate(350,400)" x1="59" x2="65.67799029888741" y1="173" y2="174.822681934603" /><line stroke="black" stroke-width="1" transform="translate(350,400)" x1="40" x2="62.1146589031145" y1="148" y2="159.01186164205942" /><line stroke="black" stroke-width="1" transform="translate(350,400)" x1="78" x2="91.37638292809822" y1="80" y2="92.27109887342543" /><rect fill="none" height="5" stroke="black" stroke-width="1" transform="translate(350,400)" width="15" x="143" y="64" /><text font-family="Arial" font-size="14" text-anchor="middle" x="425" y="380">Option 2</text><g transform="translate(350,400)"><circle cx="21" cy="129" fill="none" r="20.5" stroke="black" stroke-width="2" /><polygon fill="none" points="111,162 157,162 134.0,116" stroke="black" stroke-width="2" transform="rotate(270.47083918550953,134.0,139.0)" /><line stroke="black" stroke-width="2" transform="rotate(194.47083918550956,68.0,105.0)" x1="44" x2="92" y1="81" y2="129" /><line stroke="black" stroke-width="2" transform="rotate(217.47083918550956,66.0,152.0)" x1="42" x2="90" y1="128" y2="176" /><circle cx="107" cy="137" fill="none" r="15.5" stroke="black" stroke-width="2" /><line stroke="black" stroke-width="2" transform="rotate(82.47083918550955,122.0,133.0)" x1="100" x2="144" y1="111" y2="155" /><circle cx="56" cy="113" fill="none" r="15.5" stroke="black" stroke-width="2" /><circle cx="137" cy="40" fill="none" r="21.0" stroke="black" stroke-width="2" /><line stroke="black" stroke-width="2" transform="rotate(126.47083918550955,78.5,113.5)" x1="55" x2="102" y1="90" y2="137" /><circle cx="20" cy="11" fill="none" r="15.5" stroke="black" stroke-width="2" /></g><line stroke="black" stroke-width="1" transform="translate(100,650)" x1="141" x2="148.73217502496468" y1="26" y2="29.407817984356154" /><line stroke="black" stroke-width="1" transform="translate(100,650)" x1="35" x2="39.58206278555426" y1="133" y2="157.53108733619078" /><circle cx="65" cy="57" fill="black" r="3" stroke="none" transform="translate(100,650)" /><line stroke="black" stroke-width="1" transform="translate(100,650)" x1="20" x2="22.540684002297322" y1="69" y2="71.77983751674338" /><rect fill="none" height="3" stroke="black" stroke-width="1" transform="translate(100,650)" width="15" x="101" y="101" /><line stroke="black" stroke-width="1" transform="translate(100,650)" x1="66" x2="76.70235396209642" y1="71" y2="71.64002388635993" /><circle cx="125" cy="163" fill="black" r="2" stroke="none" transform="translate(100,650)" /><circle cx="36" cy="66" fill="black" r="2" stroke="none" transform="translate(100,650)" /><circle cx="121" cy="145" fill="black" r="3" stroke="none" transform="translate(100,650)" /><circle cx="101" cy="162" fill="black" r="1" stroke="none" transform="translate(100,650)" /><circle cx="148" cy="88" fill="black" r="3" stroke="none" transform="translate(100,650)" /><rect fill="none" height="3" stroke="black" stroke-width="1" transform="translate(100,650)" width="13" x="153" y="148" /><circle cx="110" cy="77" fill="black" r="2" stroke="none" transform="translate(100,650)" /><line stroke="black" stroke-width="1" transform="translate(100,650)" x1="155" x2="174.662904312186" y1="18" y2="31.086706273707556" /><rect fill="none" height="3" stroke="black" stroke-width="1" transform="translate(100,650)" width="14" x="66" y="30" /><circle cx="16" cy="160" fill="black" r="3" stroke="none" transform="translate(100,650)" /><circle cx="53" cy="61" fill="black" r="3" stroke="none" transform="translate(100,650)" /><rect fill="none" height="13" stroke="black" stroke-width="1" transform="translate(100,650)" width="7" x="137" y="156" /><line stroke="black" stroke-width="1" transform="translate(100,650)" x1="172" x2="185.98996740000732" y1="27" y2="41.604915512559884" /><line stroke="black" stroke-width="1" transform="translate(100,650)" x1="105" x2="120.13666397336745" y1="17" y2="43.189834357387355" /><line stroke="black" stroke-width="1" transform="translate(100,650)" x1="168" x2="169.9691522332541" y1="143" y2="143.19101837499332" /><circle cx="11" cy="120" fill="black" r="3" stroke="none" transform="translate(100,650)" /><circle cx="49" cy="112" fill="black" r="1" stroke="none" transform="translate(100,650)" /><circle cx="55" cy="179" fill="black" r="2" stroke="none" transform="translate(100,650)" /><line stroke="black" stroke-width="1" transform="translate(100,650)" x1="160" x2="175.8096586312913" y1="64" y2="89.92153851490994" /><line stroke="black" stroke-width="1" transform="translate(100,650)" x1="178" x2="180.4996486713089" y1="174" y2="177.17035393275154" /><circle cx="90" cy="102" fill="black" r="2" stroke="none" transform="translate(100,650)" /><rect fill="none" height="14" stroke="black" stroke-width="1" transform="translate(100,650)" width="8" x="106" y="166" /><rect fill="none" height="13" stroke="black" stroke-width="1" transform="translate(100,650)" width="10" x="41" y="22" /><rect fill="none" height="5" stroke="black" stroke-width="1" transform="translate(100,650)" width="14" x="72" y="63" /><line stroke="black" stroke-width="1" transform="translate(100,650)" x1="175" x2="178.35793123425674" y1="54" y2="60.130623033679576" /><circle cx="135" cy="116" fill="black" r="2" stroke="none" transform="translate(100,650)" /><line stroke="black" stroke-width="1" transform="translate(100,650)" x1="16" x2="38.93909214928773" y1="74" y2="100.34499242121628" /><line stroke="black" stroke-width="1" transform="translate(100,650)" x1="23" x2="32.93420446677996" y1="17" y2="38.53781559201434" /><line stroke="black" stroke-width="1" transform="translate(100,650)" x1="164" x2="169.4027005341603" y1="138" y2="143.38894065761755" /><circle cx="74" cy="92" fill="black" r="3" stroke="none" transform="translate(100,650)" /><rect fill="none" height="14" stroke="black" stroke-width="1" transform="translate(100,650)" width="9" x="99" y="178" /><line stroke="black" stroke-width="1" transform="translate(100,650)" x1="120" x2="124.138819513043" y1="50" y2="57.31521093132852" /><circle cx="87" cy="179" fill="black" r="3" stroke="none" transform="translate(100,650)" /><rect fill="none" height="4" stroke="black" stroke-width="1" transform="translate(100,650)" width="14" x="166" y="85" /><text font-family="Arial" font-size="14" text-anchor="middle" x="175" y="630">Option 3</text><g transform="translate(100,650)"><circle cx="21" cy="129" fill="none" r="20.5" stroke="black" stroke-width="2" /><polygon fill="none" points="111,162 157,162 134.0,116" stroke="black" stroke-width="2" transform="rotate(271.0644662420739,134.0,139.0)" /><line stroke="black" stroke-width="2" transform="rotate(195.06446624207385,68.0,105.0)" x1="44" x2="92" y1="81" y2="129" /><line stroke="black" stroke-width="2" transform="rotate(218.06446624207385,66.0,152.0)" x1="42" x2="90" y1="128" y2="176" /><circle cx="107" cy="137" fill="none" r="15.5" stroke="black" stroke-width="2" /><line stroke="black" stroke-width="2" transform="rotate(83.06446624207385,122.0,133.0)" x1="100" x2="144" y1="111" y2="155" /><circle cx="56" cy="113" fill="none" r="15.5" stroke="black" stroke-width="2" /><circle cx="137" cy="40" fill="none" r="21.0" stroke="black" stroke-width="2" /><line stroke="black" stroke-width="2" transform="rotate(127.06446624207385,78.5,113.5)" x1="55" x2="102" y1="90" y2="137" /><circle cx="20" cy="11" fill="none" r="15.5" stroke="black" stroke-width="2" /></g><circle cx="64" cy="33" fill="black" r="1" stroke="none" transform="translate(350,650)" /><circle cx="14" cy="117" fill="black" r="2" stroke="none" transform="translate(350,650)" /><circle cx="52" cy="160" fill="black" r="1" stroke="none" transform="translate(350,650)" /><rect fill="none" height="11" stroke="black" stroke-width="1" transform="translate(350,650)" width="13" x="121" y="65" /><line stroke="black" stroke-width="1" transform="translate(350,650)" x1="134" x2="135.23188750068473" y1="71" y2="79.89110049128072" /><line stroke="black" stroke-width="1" transform="translate(350,650)" x1="62" x2="66.25344852914529" y1="37" y2="61.88946767042222" /><rect fill="none" height="12" stroke="black" stroke-width="1" transform="translate(350,650)" width="13" x="78" y="169" /><line stroke="black" stroke-width="1" transform="translate(350,650)" x1="63" x2="64.19382546591494" y1="98" y2="105.1243200017715" /><line stroke="black" stroke-width="1" transform="translate(350,650)" x1="55" x2="65.13398024072407" y1="43" y2="49.84302569045085" /><rect fill="none" height="11" stroke="black" stroke-width="1" transform="translate(350,650)" width="7" x="134" y="75" /><rect fill="none" height="11" stroke="black" stroke-width="1" transform="translate(350,650)" width="14" x="172" y="39" /><rect fill="none" height="12" stroke="black" stroke-width="1" transform="translate(350,650)" width="4" x="73" y="55" /><line stroke="black" stroke-width="1" transform="translate(350,650)" x1="82" x2="83.2136049114643" y1="30" y2="40.2285789840022" /><circle cx="118" cy="101" fill="black" r="3" stroke="none" transform="translate(350,650)" /><rect fill="none" height="3" stroke="black" stroke-width="1" transform="translate(350,650)" width="8" x="117" y="22" /><line stroke="black" stroke-width="1" transform="translate(350,650)" x1="166" x2="169.95459831684508" y1="140" y2="144.9302818838646" /><rect fill="none" height="5" stroke="black" stroke-width="1" transform="translate(350,650)" width="9" x="80" y="173" /><rect fill="none" height="15" stroke="black" stroke-width="1" transform="translate(350,650)" width="13" x="64" y="95" /><line stroke="black" stroke-width="1" transform="translate(350,650)" x1="20" x2="31.9222014468858" y1="127" y2="131.14442238419156" /><circle cx="11" cy="66" fill="black" r="3" stroke="none" transform="translate(350,650)" /><line stroke="black" stroke-width="1" transform="translate(350,650)" x1="57" x2="74.88785072851681" y1="99" y2="103.81633974516329" /><rect fill="none" height="13" stroke="black" stroke-width="1" transform="translate(350,650)" width="8" x="174" y="137" /><circle cx="14" cy="168" fill="black" r="3" stroke="none" transform="translate(350,650)" /><line stroke="black" stroke-width="1" transform="translate(350,650)" x1="169" x2="169.9519908659933" y1="107" y2="110.60681301199531" /><circle cx="12" cy="28" fill="black" r="2" stroke="none" transform="translate(350,650)" /><line stroke="black" stroke-width="1" transform="translate(350,650)" x1="159" x2="163.03062396702006" y1="171" y2="186.17651762629905" /><line stroke="black" stroke-width="1" transform="translate(350,650)" x1="103" x2="122.93046555469313" y1="54" y2="64.1832221813796" /><rect fill="none" height="13" stroke="black" stroke-width="1" transform="translate(350,650)" width="11" x="98" y="97" /><rect fill="none" height="14" stroke="black" stroke-width="1" transform="translate(350,650)" width="6" x="53" y="105" /><circle cx="48" cy="174" fill="black" r="2" stroke="none" transform="translate(350,650)" /><rect fill="none" height="5" stroke="black" stroke-width="1" transform="translate(350,650)" width="6" x="53" y="64" /><line stroke="black" stroke-width="1" transform="translate(350,650)" x1="35" x2="45.52589535101701" y1="179" y2="190.77189357832492" /><line stroke="black" stroke-width="1" transform="translate(350,650)" x1="15" x2="28.237565515729557" y1="165" y2="187.0453940909514" /><line stroke="black" stroke-width="1" transform="translate(350,650)" x1="135" x2="144.0943112180663" y1="143" y2="167.5514670612643" /><rect fill="none" height="7" stroke="black" stroke-width="1" transform="translate(350,650)" width="13" x="163" y="39" /><rect fill="none" height="9" stroke="black" stroke-width="1" transform="translate(350,650)" width="3" x="31" y="112" /><rect fill="none" height="14" stroke="black" stroke-width="1" transform="translate(350,650)" width="12" x="31" y="151" /><circle cx="59" cy="41" fill="black" r="2" stroke="none" transform="translate(350,650)" /><line stroke="black" stroke-width="1" transform="translate(350,650)" x1="144" x2="145.28328720455062" y1="28" y2="36.91669836895906" /><rect fill="none" height="11" stroke="black" stroke-width="1" transform="translate(350,650)" width="7" x="104" y="122" /><text font-family="Arial" font-size="14" text-anchor="middle" x="425" y="630">Option 4</text><g transform="translate(350,650)"><circle cx="21" cy="129" fill="none" r="20.5" stroke="black" stroke-width="2" /><polygon fill="none" points="111,162 157,162 134.0,116" stroke="black" stroke-width="2" transform="rotate(289,134.0,139.0)" /><line stroke="black" stroke-width="2" transform="rotate(213,68.0,105.0)" x1="44" x2="92" y1="81" y2="129" /><line stroke="black" stroke-width="2" transform="rotate(236,66.0,152.0)" x1="42" x2="90" y1="128" y2="176" /><circle cx="107" cy="137" fill="none" r="15.5" stroke="black" stroke-width="2" /><line stroke="black" stroke-width="2" transform="rotate(101,122.0,133.0)" x1="100" x2="144" y1="111" y2="155" /><circle cx="56" cy="113" fill="none" r="15.5" stroke="black" stroke-width="2" /><circle cx="137" cy="40" fill="none" r="21.0" stroke="black" stroke-width="2" /><line stroke="black" stroke-width="2" transform="rotate(145,78.5,113.5)" x1="55" x2="102" y1="90" y2="137" /><circle cx="20" cy="11" fill="none" r="15.5" stroke="black" stroke-width="2" /></g></svg>