<?xml version="1.0" encoding="utf-8" ?>
<svg baseProfile="full" height="1000px" version="1.1" width="600px" xmlns="http://www.w3.org/2000/svg" xmlns:ev="http://www.w3.org/2001/xml-events" xmlns:xlink="http://www.w3.org/1999/xlink"><defs /><rect fill="white" height="100%" width="100%" x="0" y="0" /><text font-family="Arial" font-size="24" text-anchor="middle" x="300" y="40">Visual Figure Ground Test</text><text font-family="Arial" font-size="18" text-anchor="middle" x="300" y="80">Target Pattern</text><g transform="translate(200,100)"><rect fill="none" height="50" stroke="black" stroke-width="2" transform="rotate(98,108.0,112.0)" width="50" x="83" y="87" /><polygon fill="none" points="57,158 96,158 76.5,119" stroke="black" stroke-width="2" transform="rotate(198,76.5,138.5)" /><polygon fill="none" points="75,189 116,189 95.5,148" stroke="black" stroke-width="2" transform="rotate(23,95.5,168.5)" /><circle cx="139" cy="70" fill="none" r="23.0" stroke="black" stroke-width="2" /><circle cx="144" cy="74" fill="none" r="16.5" stroke="black" stroke-width="2" /><polygon fill="none" points="91,96 134,96 112.5,53" stroke="black" stroke-width="2" transform="rotate(135,112.5,74.5)" /><rect fill="none" height="33" stroke="black" stroke-width="2" transform="rotate(299,47.5,89.5)" width="33" x="31" y="73" /><polygon fill="none" points="138,60 179,60 158.5,19" stroke="black" stroke-width="2" transform="rotate(244,158.5,39.5)" /><circle cx="60" cy="125" fill="none" r="21.0" stroke="black" stroke-width="2" /><polygon fill="none" points="105,79 137,79 121.0,47" stroke="black" stroke-width="2" transform="rotate(24,121.0,63.0)" /></g><text font-family="Arial" font-size="18" text-anchor="middle" x="300" y="350">Options</text><rect fill="none" height="11" stroke="black" stroke-width="1" transform="translate(100,400)" width="11" x="170" y="32" /><circle cx="152" cy="119" fill="black" r="1" stroke="none" transform="translate(100,400)" /><circle cx="126" cy="142" fill="black" r="1" stroke="none" transform="translate(100,400)" /><rect fill="none" height="6" stroke="black" stroke-width="1" transform="translate(100,400)" width="10" x="147" y="54" /><rect fill="none" height="5" stroke="black" stroke-width="1" transform="translate(100,400)" width="13" x="155" y="74" /><circle cx="51" cy="68" fill="black" r="3" stroke="none" transform="translate(100,400)" /><line stroke="black" stroke-width="1" transform="translate(100,400)" x1="10" x2="12.70267092943884" y1="135" y2="140.79071371972995" /><rect fill="none" height="4" stroke="black" stroke-width="1" transform="translate(100,400)" width="15" x="81" y="76" /><line stroke="black" stroke-width="1" transform="translate(100,400)" x1="72" x2="79.4728302975048" y1="150" y2="150.24267219543057" /><line stroke="black" stroke-width="1" transform="translate(100,400)" x1="69" x2="72.58423127789642" y1="134" y2="142.86399569209675" /><circle cx="45" cy="168" fill="black" r="2" stroke="none" transform="translate(100,400)" /><circle cx="70" cy="146" fill="black" r="2" stroke="none" transform="translate(100,400)" /><circle cx="55" cy="28" fill="black" r="3" stroke="none" transform="translate(100,400)" /><rect fill="none" height="15" stroke="black" stroke-width="1" transform="translate(100,400)" width="12" x="105" y="97" /><circle cx="75" cy="122" fill="black" r="2" stroke="none" transform="translate(100,400)" /><rect fill="none" height="9" stroke="black" stroke-width="1" transform="translate(100,400)" width="11" x="73" y="37" /><line stroke="black" stroke-width="1" transform="translate(100,400)" x1="67" x2="73.46147313524085" y1="147" y2="168.27496834251986" /><circle cx="120" cy="39" fill="black" r="3" stroke="none" transform="translate(100,400)" /><line stroke="black" stroke-width="1" transform="translate(100,400)" x1="153" x2="153.95909893134387" y1="98" y2="114.39861018419333" /><line stroke="black" stroke-width="1" transform="translate(100,400)" x1="119" x2="141.04149653151262" y1="124" y2="135.83331116073003" /><circle cx="119" cy="16" fill="black" r="2" stroke="none" transform="translate(100,400)" /><rect fill="none" height="4" stroke="black" stroke-width="1" transform="translate(100,400)" width="9" x="120" y="179" /><circle cx="136" cy="90" fill="black" r="3" stroke="none" transform="translate(100,400)" /><rect fill="none" height="13" stroke="black" stroke-width="1" transform="translate(100,400)" width="5" x="36" y="151" /><rect fill="none" height="9" stroke="black" stroke-width="1" transform="translate(100,400)" width="15" x="72" y="18" /><line stroke="black" stroke-width="1" transform="translate(100,400)" x1="105" x2="107.86984320151312" y1="163" y2="176.11773161929003" /><rect fill="none" height="11" stroke="black" stroke-width="1" transform="translate(100,400)" width="8" x="13" y="26" /><line stroke="black" stroke-width="1" transform="translate(100,400)" x1="125" x2="134.30689626228914" y1="90" y2="94.77249799842969" /><rect fill="none" height="9" stroke="black" stroke-width="1" transform="translate(100,400)" width="3" x="176" y="66" /><circle cx="88" cy="155" fill="black" r="3" stroke="none" transform="translate(100,400)" /><circle cx="55" cy="141" fill="black" r="2" stroke="none" transform="translate(100,400)" /><circle cx="94" cy="44" fill="black" r="2" stroke="none" transform="translate(100,400)" /><line stroke="black" stroke-width="1" transform="translate(100,400)" x1="108" x2="112.83993213033594" y1="155" y2="168.5163955180461" /><circle cx="124" cy="161" fill="black" r="2" stroke="none" transform="translate(100,400)" /><line stroke="black" stroke-width="1" transform="translate(100,400)" x1="104" x2="121.48841827037529" y1="155" y2="161.46413563351518" /><circle cx="75" cy="136" fill="black" r="1" stroke="none" transform="translate(100,400)" /><circle cx="115" cy="11" fill="black" r="1" stroke="none" transform="translate(100,400)" /><rect fill="none" height="7" stroke="black" stroke-width="1" transform="translate(100,400)" width="9" x="59" y="144" /><line stroke="black" stroke-width="1" transform="translate(100,400)" x1="131" x2="151.66968176272593" y1="174" y2="188.45539542995704" /><line stroke="black" stroke-width="1" transform="translate(100,400)" x1="125" x2="126.37677356787138" y1="116" y2="117.13040435860503" /><text font-family="Arial" font-size="14" text-anchor="middle" x="175" y="380">Option 1</text><g transform="translate(100,400)"><rect fill="none" height="50" stroke="black" stroke-width="2" transform="rotate(98,108.0,112.0)" width="50" x="83" y="87" /><polygon fill="none" points="57,158 96,158 76.5,119" stroke="black" stroke-width="2" transform="rotate(198,76.5,138.5)" /><polygon fill="none" points="75,189 116,189 95.5,148" stroke="black" stroke-width="2" transform="rotate(23,95.5,168.5)" /><circle cx="139" cy="70" fill="none" r="23.0" stroke="black" stroke-width="2" /><circle cx="144" cy="74" fill="none" r="16.5" stroke="black" stroke-width="2" /><polygon fill="none" points="91,96 134,96 112.5,53" stroke="black" stroke-width="2" transform="rotate(135,112.5,74.5)" /><rect fill="none" height="33" stroke="black" stroke-width="2" transform="rotate(299,47.5,89.5)" width="33" x="31" y="73" /><polygon fill="none" points="138,60 179,60 158.5,19" stroke="black" stroke-width="2" transform="rotate(244,158.5,39.5)" /><circle cx="60" cy="125" fill="none" r="21.0" stroke="black" stroke-width="2" /><polygon fill="none" points="105,79 137,79 121.0,47" stroke="black" stroke-width="2" transform="rotate(24,121.0,63.0)" /></g><rect fill="none" height="12" stroke="black" stroke-width="1" transform="translate(350,400)" width="13" x="41" y="44" /><rect fill="none" height="9" stroke="black" stroke-width="1" transform="translate(350,400)" width="12" x="132" y="63" /><circle cx="74" cy="104" fill="black" r="1" stroke="none" transform="translate(350,400)" /><circle cx="88" cy="62" fill="black" r="1" stroke="none" transform="translate(350,400)" /><line stroke="black" stroke-width="1" transform="translate(350,400)" x1="29" x2="30.403147148697993" y1="179" y2="190.56447258253363" /><circle cx="121" cy="144" fill="black" r="3" stroke="none" transform="translate(350,400)" /><line stroke="black" stroke-width="1" transform="translate(350,400)" x1="140" x2="161.5585513543439" y1="23" y2="37.110480773316205" /><line stroke="black" stroke-width="1" transform="translate(350,400)" x1="126" x2="126.12243752741233" y1="142" y2="158.35794957726958" /><rect fill="none" height="12" stroke="black" stroke-width="1" transform="translate(350,400)" width="8" x="56" y="138" /><rect fill="none" height="5" stroke="black" stroke-width="1" transform="translate(350,400)" width="3" x="26" y="61" /><line stroke="black" stroke-width="1" transform="translate(350,400)" x1="33" x2="34.33329374708276" y1="28" y2="30.554991388598243" /><rect fill="none" height="9" stroke="black" stroke-width="1" transform="translate(350,400)" width="8" x="175" y="110" /><rect fill="none" height="8" stroke="black" stroke-width="1" transform="translate(350,400)" width="7" x="47" y="133" /><circle cx="166" cy="100" fill="black" r="3" stroke="none" transform="translate(350,400)" /><rect fill="none" height="9" stroke="black" stroke-width="1" transform="translate(350,400)" width="8" x="76" y="110" /><rect fill="none" height="6" stroke="black" stroke-width="1" transform="translate(350,400)" width="12" x="116" y="64" /><line stroke="black" stroke-width="1" transform="translate(350,400)" x1="23" x2="27.446878008726728" y1="56" y2="59.80821921856656" /><line stroke="black" stroke-width="1" transform="translate(350,400)" x1="77" x2="95.53416886387895" y1="22" y2="37.96734565459331" /><line stroke="black" stroke-width="1" transform="translate(350,400)" x1="57" x2="70.63119503392487" y1="46" y2="53.299552191606054" /><line stroke="black" stroke-width="1" transform="translate(350,400)" x1="87" x2="113.4872543637792" y1="76" y2="96.37720965584474" /><rect fill="none" height="10" stroke="black" stroke-width="1" transform="translate(350,400)" width="5" x="112" y="20" /><rect fill="none" height="10" stroke="black" stroke-width="1" transform="translate(350,400)" width="11" x="151" y="78" /><line stroke="black" stroke-width="1" transform="translate(350,400)" x1="98" x2="106.72751595565168" y1="107" y2="127.52103517030908" /><circle cx="19" cy="98" fill="black" r="1" stroke="none" transform="translate(350,400)" /><line stroke="black" stroke-width="1" transform="translate(350,400)" x1="145" x2="152.63871447089417" y1="177" y2="185.68914016018007" /><line stroke="black" stroke-width="1" transform="translate(350,400)" x1="49" x2="50.818211419587335" y1="111" y2="115.92702622062973" /><circle cx="35" cy="68" fill="black" r="2" stroke="none" transform="translate(350,400)" /><circle cx="79" cy="128" fill="black" r="1" stroke="none" transform="translate(350,400)" /><circle cx="142" cy="74" fill="black" r="3" stroke="none" transform="translate(350,400)" /><line stroke="black" stroke-width="1" transform="translate(350,400)" x1="19" x2="45.794633776280975" y1="151" y2="168.2799806343014" /><line stroke="black" stroke-width="1" transform="translate(350,400)" x1="111" x2="123.25279823338539" y1="34" y2="45.63554626610482" /><line stroke="black" stroke-width="1" transform="translate(350,400)" x1="24" x2="43.4998557376806" y1="64" y2="75.90250667899188" /><line stroke="black" stroke-width="1" transform="translate(350,400)" x1="31" x2="46.983662612930885" y1="89" y2="101.88164434846679" /><circle cx="106" cy="120" fill="black" r="1" stroke="none" transform="translate(350,400)" /><circle cx="136" cy="34" fill="black" r="1" stroke="none" transform="translate(350,400)" /><rect fill="none" height="3" stroke="black" stroke-width="1" transform="translate(350,400)" width="12" x="105" y="10" /><circle cx="56" cy="131" fill="black" r="2" stroke="none" transform="translate(350,400)" /><circle cx="115" cy="159" fill="black" r="3" stroke="none" transform="translate(350,400)" /><rect fill="none" height="12" stroke="black" stroke-width="1" transform="translate(350,400)" width="14" x="69" y="39" /><rect fill="none" height="10" stroke="black" stroke-width="1" transform="translate(350,400)" width="5" x="131" y="167" /><text font-family="Arial" font-size="14" text-anchor="middle" x="425" y="380">Option 2</text><g transform="translate(350,400)"><rect fill="none" height="50" stroke="black" stroke-width="2" transform="rotate(80.84162732628782,108.0,112.0)" width="50" x="83" y="87" /><polygon fill="none" points="57,158 96,158 76.5,119" stroke="black" stroke-width="2" transform="rotate(180.84162732628783,76.5,138.5)" /><polygon fill="none" points="75,189 116,189 95.5,148" stroke="black" stroke-width="2" transform="rotate(5.841627326287824,95.5,168.5)" /><circle cx="139" cy="70" fill="none" r="23.0" stroke="black" stroke-width="2" /><circle cx="144" cy="74" fill="none" r="16.5" stroke="black" stroke-width="2" /><polygon fill="none" points="91,96 134,96 112.5,53" stroke="black" stroke-width="2" transform="rotate(117.84162732628782,112.5,74.5)" /><rect fill="none" height="33" stroke="black" stroke-width="2" transform="rotate(281.84162732628783,47.5,89.5)" width="33" x="31" y="73" /><polygon fill="none" points="138,60 179,60 158.5,19" stroke="black" stroke-width="2" transform="rotate(226.84162732628783,158.5,39.5)" /><circle cx="60" cy="125" fill="none" r="21.0" stroke="black" stroke-width="2" /><polygon fill="none" points="105,79 137,79 121.0,47" stroke="black" stroke-width="2" transform="rotate(6.841627326287824,121.0,63.0)" /></g><line stroke="black" stroke-width="1" transform="translate(100,650)" x1="165" x2="188.52155953445094" y1="47" y2="52.436611349527915" /><rect fill="none" height="15" stroke="black" stroke-width="1" transform="translate(100,650)" width="5" x="125" y="122" /><circle cx="160" cy="15" fill="black" r="2" stroke="none" transform="translate(100,650)" /><line stroke="black" stroke-width="1" transform="translate(100,650)" x1="57" x2="76.57132882963776" y1="94" y2="95.7207789596491" /><rect fill="none" height="6" stroke="black" stroke-width="1" transform="translate(100,650)" width="9" x="19" y="163" /><rect fill="none" height="11" stroke="black" stroke-width="1" transform="translate(100,650)" width="11" x="153" y="88" /><circle cx="168" cy="83" fill="black" r="1" stroke="none" transform="translate(100,650)" /><circle cx="57" cy="146" fill="black" r="2" stroke="none" transform="translate(100,650)" /><line stroke="black" stroke-width="1" transform="translate(100,650)" x1="70" x2="80.94294076567803" y1="68" y2="82.32779766576886" /><rect fill="none" height="9" stroke="black" stroke-width="1" transform="translate(100,650)" width="9" x="20" y="151" /><rect fill="none" height="15" stroke="black" stroke-width="1" transform="translate(100,650)" width="11" x="45" y="101" /><line stroke="black" stroke-width="1" transform="translate(100,650)" x1="26" x2="43.687110686774375" y1="155" y2="155.59297757846264" /><line stroke="black" stroke-width="1" transform="translate(100,650)" x1="134" x2="156.60930123143484" y1="45" y2="73.90043698842369" /><rect fill="none" height="8" stroke="black" stroke-width="1" transform="translate(100,650)" width="3" x="108" y="157" /><rect fill="none" height="10" stroke="black" stroke-width="1" transform="translate(100,650)" width="4" x="176" y="127" /><rect fill="none" height="10" stroke="black" stroke-width="1" transform="translate(100,650)" width="4" x="74" y="134" /><line stroke="black" stroke-width="1" transform="translate(100,650)" x1="58" x2="76.56021874881813" y1="24" y2="43.48508663059748" /><rect fill="none" height="5" stroke="black" stroke-width="1" transform="translate(100,650)" width="7" x="113" y="137" /><circle cx="162" cy="56" fill="black" r="1" stroke="none" transform="translate(100,650)" /><line stroke="black" stroke-width="1" transform="translate(100,650)" x1="95" x2="96.86164733504248" y1="12" y2="25.335531100338642" /><circle cx="68" cy="102" fill="black" r="3" stroke="none" transform="translate(100,650)" /><rect fill="none" height="3" stroke="black" stroke-width="1" transform="translate(100,650)" width="11" x="29" y="31" /><circle cx="115" cy="21" fill="black" r="3" stroke="none" transform="translate(100,650)" /><line stroke="black" stroke-width="1" transform="translate(100,650)" x1="91" x2="97.5840022921913" y1="71" y2="74.09670674552615" /><circle cx="152" cy="141" fill="black" r="3" stroke="none" transform="translate(100,650)" /><circle cx="110" cy="169" fill="black" r="2" stroke="none" transform="translate(100,650)" /><rect fill="none" height="9" stroke="black" stroke-width="1" transform="translate(100,650)" width="5" x="130" y="72" /><rect fill="none" height="6" stroke="black" stroke-width="1" transform="translate(100,650)" width="7" x="83" y="113" /><circle cx="75" cy="43" fill="black" r="3" stroke="none" transform="translate(100,650)" /><rect fill="none" height="12" stroke="black" stroke-width="1" transform="translate(100,650)" width="10" x="31" y="142" /><line stroke="black" stroke-width="1" transform="translate(100,650)" x1="118" x2="122.02930351746897" y1="174" y2="182.08768602009607" /><line stroke="black" stroke-width="1" transform="translate(100,650)" x1="151" x2="164.7409845065582" y1="66" y2="74.71453663191697" /><line stroke="black" stroke-width="1" transform="translate(100,650)" x1="156" x2="158.11647445401778" y1="133" y2="133.7176338120942" /><circle cx="160" cy="152" fill="black" r="3" stroke="none" transform="translate(100,650)" /><rect fill="none" height="5" stroke="black" stroke-width="1" transform="translate(100,650)" width="5" x="111" y="43" /><circle cx="150" cy="55" fill="black" r="3" stroke="none" transform="translate(100,650)" /><circle cx="88" cy="90" fill="black" r="3" stroke="none" transform="translate(100,650)" /><circle cx="33" cy="22" fill="black" r="3" stroke="none" transform="translate(100,650)" /><line stroke="black" stroke-width="1" transform="translate(100,650)" x1="170" x2="174.13246473643494" y1="92" y2="97.95241216679173" /><line stroke="black" stroke-width="1" transform="translate(100,650)" x1="55" x2="70.80888418322162" y1="88" y2="90.57844450906364" /><text font-family="Arial" font-size="14" text-anchor="middle" x="175" y="630">Option 3</text><g transform="translate(100,650)"><rect fill="none" height="50" stroke="black" stroke-width="2" transform="rotate(116.42942574885822,61.0,81.0)" width="50" x="36" y="56" /><polygon fill="none" points="57,158 96,158 76.5,119" stroke="black" stroke-width="2" transform="rotate(216.42942574885822,76.5,138.5)" /><polygon fill="none" points="75,189 116,189 95.5,148" stroke="black" stroke-width="2" transform="rotate(41.42942574885822,95.5,168.5)" /><circle cx="139" cy="70" fill="none" r="23.0" stroke="black" stroke-width="2" /><circle cx="144" cy="74" fill="none" r="16.5" stroke="black" stroke-width="2" /><polygon fill="none" points="91,96 134,96 112.5,53" stroke="black" stroke-width="2" transform="rotate(153.42942574885822,112.5,74.5)" /><rect fill="none" height="33" stroke="black" stroke-width="2" transform="rotate(317.4294257488582,47.5,89.5)" width="33" x="31" y="73" /><polygon fill="none" points="138,60 179,60 158.5,19" stroke="black" stroke-width="2" transform="rotate(262.4294257488582,158.5,39.5)" /><circle cx="60" cy="125" fill="none" r="21.0" stroke="black" stroke-width="2" /><polygon fill="none" points="105,79 137,79 121.0,47" stroke="black" stroke-width="2" transform="rotate(42.42942574885822,121.0,63.0)" /></g><circle cx="117" cy="109" fill="black" r="3" stroke="none" transform="translate(350,650)" /><rect fill="none" height="9" stroke="black" stroke-width="1" transform="translate(350,650)" width="6" x="49" y="168" /><line stroke="black" stroke-width="1" transform="translate(350,650)" x1="56" x2="66.64921737684267" y1="134" y2="138.9326789779173" /><rect fill="none" height="5" stroke="black" stroke-width="1" transform="translate(350,650)" width="13" x="100" y="12" /><circle cx="37" cy="101" fill="black" r="3" stroke="none" transform="translate(350,650)" /><line stroke="black" stroke-width="1" transform="translate(350,650)" x1="106" x2="119.92832251068688" y1="54" y2="60.80356272250283" /><rect fill="none" height="15" stroke="black" stroke-width="1" transform="translate(350,650)" width="9" x="105" y="26" /><line stroke="black" stroke-width="1" transform="translate(350,650)" x1="147" x2="156.58278794904075" y1="169" y2="175.151788227517" /><line stroke="black" stroke-width="1" transform="translate(350,650)" x1="155" x2="158.23584309139838" y1="64" y2="66.89179213641614" /><rect fill="none" height="3" stroke="black" stroke-width="1" transform="translate(350,650)" width="9" x="86" y="120" /><circle cx="172" cy="105" fill="black" r="2" stroke="none" transform="translate(350,650)" /><line stroke="black" stroke-width="1" transform="translate(350,650)" x1="118" x2="123.82778771528652" y1="131" y2="141.00215067728544" /><line stroke="black" stroke-width="1" transform="translate(350,650)" x1="98" x2="98.78903694016236" y1="133" y2="133.89151841661877" /><line stroke="black" stroke-width="1" transform="translate(350,650)" x1="33" x2="47.258245967246275" y1="24" y2="25.075328307532992" /><rect fill="none" height="9" stroke="black" stroke-width="1" transform="translate(350,650)" width="8" x="113" y="79" /><circle cx="97" cy="95" fill="black" r="2" stroke="none" transform="translate(350,650)" /><rect fill="none" height="14" stroke="black" stroke-width="1" transform="translate(350,650)" width="14" x="116" y="120" /><circle cx="124" cy="54" fill="black" r="3" stroke="none" transform="translate(350,650)" /><circle cx="130" cy="81" fill="black" r="2" stroke="none" transform="translate(350,650)" /><rect fill="none" height="3" stroke="black" stroke-width="1" transform="translate(350,650)" width="3" x="12" y="29" /><circle cx="79" cy="81" fill="black" r="3" stroke="none" transform="translate(350,650)" /><line stroke="black" stroke-width="1" transform="translate(350,650)" x1="62" x2="78.36863912026101" y1="161" y2="169.3822691058944" /><line stroke="black" stroke-width="1" transform="translate(350,650)" x1="172" x2="187.11388626691183" y1="43" y2="50.90924243245979" /><rect fill="none" height="15" stroke="black" stroke-width="1" transform="translate(350,650)" width="6" x="162" y="122" /><rect fill="none" height="9" stroke="black" stroke-width="1" transform="translate(350,650)" width="13" x="18" y="168" /><circle cx="69" cy="78" fill="black" r="1" stroke="none" transform="translate(350,650)" /><circle cx="44" cy="75" fill="black" r="1" stroke="none" transform="translate(350,650)" /><circle cx="153" cy="43" fill="black" r="1" stroke="none" transform="translate(350,650)" /><circle cx="84" cy="105" fill="black" r="1" stroke="none" transform="translate(350,650)" /><line stroke="black" stroke-width="1" transform="translate(350,650)" x1="27" x2="45.189924721188156" y1="12" y2="23.952074322212788" /><circle cx="112" cy="104" fill="black" r="1" stroke="none" transform="translate(350,650)" /><circle cx="143" cy="127" fill="black" r="3" stroke="none" transform="translate(350,650)" /><line stroke="black" stroke-width="1" transform="translate(350,650)" x1="50" x2="51.16319434615723" y1="39" y2="44.009626243713754" /><rect fill="none" height="10" stroke="black" stroke-width="1" transform="translate(350,650)" width="9" x="18" y="51" /><rect fill="none" height="13" stroke="black" stroke-width="1" transform="translate(350,650)" width="6" x="55" y="22" /><circle cx="99" cy="76" fill="black" r="1" stroke="none" transform="translate(350,650)" /><rect fill="none" height="5" stroke="black" stroke-width="1" transform="translate(350,650)" width="3" x="171" y="100" /><rect fill="none" height="3" stroke="black" stroke-width="1" transform="translate(350,650)" width="10" x="47" y="102" /><rect fill="none" height="15" stroke="black" stroke-width="1" transform="translate(350,650)" width="8" x="11" y="77" /><rect fill="none" height="12" stroke="black" stroke-width="1" transform="translate(350,650)" width="3" x="77" y="54" /><text font-family="Arial" font-size="14" text-anchor="middle" x="425" y="630">Option 4</text><g transform="translate(350,650)"><rect fill="none" height="50" stroke="black" stroke-width="2" transform="rotate(116.61710044231526,108.0,112.0)" width="50" x="83" y="87" /><polygon fill="none" points="57,158 96,158 76.5,119" stroke="black" stroke-width="2" transform="rotate(216.61710044231526,76.5,138.5)" /><polygon fill="none" points="75,189 116,189 95.5,148" stroke="black" stroke-width="2" transform="rotate(41.61710044231526,95.5,168.5)" /><circle cx="139" cy="70" fill="none" r="23.0" stroke="black" stroke-width="2" /><circle cx="144" cy="74" fill="none" r="16.5" stroke="black" stroke-width="2" /><polygon fill="none" points="91,96 134,96 112.5,53" stroke="black" stroke-width="2" transform="rotate(153.61710044231526,112.5,74.5)" /><rect fill="none" height="33" stroke="black" stroke-width="2" transform="rotate(317.6171004423153,47.5,89.5)" width="33" x="31" y="73" /><polygon fill="none" points="138,60 179,60 158.5,19" stroke="black" stroke-width="2" transform="rotate(262.6171004423153,158.5,39.5)" /><circle cx="60" cy="125" fill="none" r="21.0" stroke="black" stroke-width="2" /><polygon fill="none" points="105,79 137,79 121.0,47" stroke="black" stroke-width="2" transform="rotate(42.61710044231526,121.0,63.0)" /></g></svg>