<?xml version="1.0" encoding="utf-8" ?>
<svg baseProfile="full" height="1000px" version="1.1" width="600px" xmlns="http://www.w3.org/2000/svg" xmlns:ev="http://www.w3.org/2001/xml-events" xmlns:xlink="http://www.w3.org/1999/xlink"><defs /><rect fill="white" height="100%" width="100%" x="0" y="0" /><text font-family="Arial" font-size="24" text-anchor="middle" x="300" y="40">Visual Figure Ground Test</text><text font-family="Arial" font-size="18" text-anchor="middle" x="300" y="80">Target Pattern</text><g transform="translate(200,100)"><circle cx="23" cy="105" fill="none" r="23.5" stroke="black" stroke-width="2" /><rect fill="none" height="47" stroke="black" stroke-width="2" transform="rotate(116,161.5,100.5)" width="47" x="138" y="77" /><rect fill="none" height="34" stroke="black" stroke-width="2" transform="rotate(201,117.0,135.0)" width="34" x="100" y="118" /><circle cx="132" cy="50" fill="none" r="23.5" stroke="black" stroke-width="2" /><rect fill="none" height="49" stroke="black" stroke-width="2" transform="rotate(200,108.5,101.5)" width="49" x="84" y="77" /><circle cx="74" cy="130" fill="none" r="23.5" stroke="black" stroke-width="2" /><circle cx="48" cy="138" fill="none" r="18.0" stroke="black" stroke-width="2" /><line stroke="black" stroke-width="2" transform="rotate(13,83.5,96.5)" x1="60" x2="107" y1="73" y2="120" /><polygon fill="none" points="38,67 87,67 62.5,18" stroke="black" stroke-width="2" transform="rotate(323,62.5,42.5)" /><circle cx="54" cy="113" fill="none" r="19.0" stroke="black" stroke-width="2" /></g><text font-family="Arial" font-size="18" text-anchor="middle" x="300" y="350">Options</text><circle cx="138" cy="73" fill="black" r="2" stroke="none" transform="translate(100,400)" /><rect fill="none" height="13" stroke="black" stroke-width="1" transform="translate(100,400)" width="8" x="126" y="104" /><rect fill="none" height="15" stroke="black" stroke-width="1" transform="translate(100,400)" width="14" x="33" y="149" /><rect fill="none" height="10" stroke="black" stroke-width="1" transform="translate(100,400)" width="5" x="49" y="179" /><line stroke="black" stroke-width="1" transform="translate(100,400)" x1="28" x2="37.584432910905534" y1="160" y2="160.0369037560186" /><circle cx="32" cy="70" fill="black" r="2" stroke="none" transform="translate(100,400)" /><circle cx="61" cy="143" fill="black" r="3" stroke="none" transform="translate(100,400)" /><line stroke="black" stroke-width="1" transform="translate(100,400)" x1="35" x2="54.20573766584193" y1="18" y2="32.263201057379575" /><line stroke="black" stroke-width="1" transform="translate(100,400)" x1="63" x2="68.22363359885843" y1="131" y2="150.93442347957833" /><line stroke="black" stroke-width="1" transform="translate(100,400)" x1="120" x2="123.3216970327198" y1="11" y2="18.949754867320443" /><line stroke="black" stroke-width="1" transform="translate(100,400)" x1="165" x2="170.8104960146751" y1="171" y2="174.15827039393145" /><circle cx="99" cy="33" fill="black" r="3" stroke="none" transform="translate(100,400)" /><circle cx="20" cy="141" fill="black" r="3" stroke="none" transform="translate(100,400)" /><circle cx="109" cy="17" fill="black" r="3" stroke="none" transform="translate(100,400)" /><circle cx="21" cy="91" fill="black" r="3" stroke="none" transform="translate(100,400)" /><rect fill="none" height="12" stroke="black" stroke-width="1" transform="translate(100,400)" width="8" x="26" y="95" /><circle cx="104" cy="154" fill="black" r="1" stroke="none" transform="translate(100,400)" /><rect fill="none" height="13" stroke="black" stroke-width="1" transform="translate(100,400)" width="15" x="133" y="54" /><rect fill="none" height="7" stroke="black" stroke-width="1" transform="translate(100,400)" width="4" x="74" y="22" /><line stroke="black" stroke-width="1" transform="translate(100,400)" x1="58" x2="84.28964626204814" y1="177" y2="194.84648350573872" /><rect fill="none" height="15" stroke="black" stroke-width="1" transform="translate(100,400)" width="3" x="65" y="36" /><rect fill="none" height="5" stroke="black" stroke-width="1" transform="translate(100,400)" width="5" x="33" y="78" /><line stroke="black" stroke-width="1" transform="translate(100,400)" x1="143" x2="149.67911695663366" y1="121" y2="128.85179635606667" /><rect fill="none" height="3" stroke="black" stroke-width="1" transform="translate(100,400)" width="7" x="18" y="166" /><line stroke="black" stroke-width="1" transform="translate(100,400)" x1="132" x2="145.33114059088214" y1="140" y2="143.02435673491547" /><circle cx="167" cy="30" fill="black" r="2" stroke="none" transform="translate(100,400)" /><rect fill="none" height="11" stroke="black" stroke-width="1" transform="translate(100,400)" width="10" x="105" y="55" /><rect fill="none" height="5" stroke="black" stroke-width="1" transform="translate(100,400)" width="9" x="89" y="177" /><rect fill="none" height="9" stroke="black" stroke-width="1" transform="translate(100,400)" width="10" x="97" y="113" /><rect fill="none" height="9" stroke="black" stroke-width="1" transform="translate(100,400)" width="6" x="113" y="167" /><circle cx="173" cy="171" fill="black" r="3" stroke="none" transform="translate(100,400)" /><line stroke="black" stroke-width="1" transform="translate(100,400)" x1="114" x2="133.1256574311855" y1="66" y2="69.4263492815265" /><line stroke="black" stroke-width="1" transform="translate(100,400)" x1="152" x2="158.64314012590845" y1="155" y2="158.63207559615046" /><line stroke="black" stroke-width="1" transform="translate(100,400)" x1="170" x2="174.68019190788718" y1="91" y2="93.39569473828355" /><circle cx="65" cy="76" fill="black" r="3" stroke="none" transform="translate(100,400)" /><circle cx="139" cy="150" fill="black" r="1" stroke="none" transform="translate(100,400)" /><circle cx="68" cy="129" fill="black" r="3" stroke="none" transform="translate(100,400)" /><circle cx="70" cy="31" fill="black" r="3" stroke="none" transform="translate(100,400)" /><circle cx="166" cy="163" fill="black" r="3" stroke="none" transform="translate(100,400)" /><rect fill="none" height="10" stroke="black" stroke-width="1" transform="translate(100,400)" width="10" x="38" y="15" /><text font-family="Arial" font-size="14" text-anchor="middle" x="175" y="380">Option 1</text><g transform="translate(100,400)"><circle cx="23" cy="105" fill="none" r="23.5" stroke="black" stroke-width="2" /><rect fill="none" height="47" stroke="black" stroke-width="2" transform="rotate(116,161.5,100.5)" width="47" x="138" y="77" /><rect fill="none" height="34" stroke="black" stroke-width="2" transform="rotate(201,117.0,135.0)" width="34" x="100" y="118" /><circle cx="132" cy="50" fill="none" r="23.5" stroke="black" stroke-width="2" /><rect fill="none" height="49" stroke="black" stroke-width="2" transform="rotate(200,108.5,101.5)" width="49" x="84" y="77" /><circle cx="74" cy="130" fill="none" r="23.5" stroke="black" stroke-width="2" /><circle cx="48" cy="138" fill="none" r="18.0" stroke="black" stroke-width="2" /><line stroke="black" stroke-width="2" transform="rotate(13,83.5,96.5)" x1="60" x2="107" y1="73" y2="120" /><polygon fill="none" points="38,67 87,67 62.5,18" stroke="black" stroke-width="2" transform="rotate(323,62.5,42.5)" /><circle cx="54" cy="113" fill="none" r="19.0" stroke="black" stroke-width="2" /></g><circle cx="64" cy="171" fill="black" r="3" stroke="none" transform="translate(350,400)" /><circle cx="19" cy="10" fill="black" r="1" stroke="none" transform="translate(350,400)" /><circle cx="17" cy="58" fill="black" r="2" stroke="none" transform="translate(350,400)" /><rect fill="none" height="5" stroke="black" stroke-width="1" transform="translate(350,400)" width="13" x="45" y="151" /><circle cx="25" cy="163" fill="black" r="1" stroke="none" transform="translate(350,400)" /><rect fill="none" height="14" stroke="black" stroke-width="1" transform="translate(350,400)" width="13" x="57" y="112" /><line stroke="black" stroke-width="1" transform="translate(350,400)" x1="56" x2="59.854668752372774" y1="117" y2="122.53787924574966" /><line stroke="black" stroke-width="1" transform="translate(350,400)" x1="75" x2="81.66762209682274" y1="38" y2="43.38325243457607" /><circle cx="178" cy="163" fill="black" r="2" stroke="none" transform="translate(350,400)" /><circle cx="16" cy="101" fill="black" r="2" stroke="none" transform="translate(350,400)" /><line stroke="black" stroke-width="1" transform="translate(350,400)" x1="129" x2="148.9985818940301" y1="159" y2="175.69185604760153" /><circle cx="77" cy="53" fill="black" r="3" stroke="none" transform="translate(350,400)" /><rect fill="none" height="14" stroke="black" stroke-width="1" transform="translate(350,400)" width="3" x="127" y="165" /><circle cx="57" cy="20" fill="black" r="2" stroke="none" transform="translate(350,400)" /><line stroke="black" stroke-width="1" transform="translate(350,400)" x1="136" x2="153.7276564661947" y1="111" y2="128.34819497492902" /><line stroke="black" stroke-width="1" transform="translate(350,400)" x1="90" x2="101.63569556730131" y1="151" y2="151.45040572642083" /><rect fill="none" height="5" stroke="black" stroke-width="1" transform="translate(350,400)" width="9" x="101" y="152" /><line stroke="black" stroke-width="1" transform="translate(350,400)" x1="53" x2="57.30230296367313" y1="105" y2="110.35156236030339" /><circle cx="144" cy="26" fill="black" r="1" stroke="none" transform="translate(350,400)" /><line stroke="black" stroke-width="1" transform="translate(350,400)" x1="72" x2="77.32556019137445" y1="160" y2="160.64857049208382" /><rect fill="none" height="11" stroke="black" stroke-width="1" transform="translate(350,400)" width="4" x="12" y="121" /><line stroke="black" stroke-width="1" transform="translate(350,400)" x1="82" x2="96.50121357073627" y1="96" y2="97.60949644587798" /><rect fill="none" height="10" stroke="black" stroke-width="1" transform="translate(350,400)" width="6" x="123" y="26" /><rect fill="none" height="10" stroke="black" stroke-width="1" transform="translate(350,400)" width="5" x="65" y="124" /><circle cx="172" cy="110" fill="black" r="2" stroke="none" transform="translate(350,400)" /><line stroke="black" stroke-width="1" transform="translate(350,400)" x1="41" x2="41.09072737395353" y1="122" y2="126.29349829474495" /><circle cx="173" cy="118" fill="black" r="2" stroke="none" transform="translate(350,400)" /><line stroke="black" stroke-width="1" transform="translate(350,400)" x1="126" x2="130.7234307843351" y1="168" y2="173.1490614756701" /><rect fill="none" height="12" stroke="black" stroke-width="1" transform="translate(350,400)" width="8" x="145" y="128" /><circle cx="23" cy="166" fill="black" r="2" stroke="none" transform="translate(350,400)" /><rect fill="none" height="7" stroke="black" stroke-width="1" transform="translate(350,400)" width="9" x="87" y="124" /><rect fill="none" height="3" stroke="black" stroke-width="1" transform="translate(350,400)" width="6" x="28" y="75" /><circle cx="108" cy="31" fill="black" r="1" stroke="none" transform="translate(350,400)" /><circle cx="120" cy="111" fill="black" r="1" stroke="none" transform="translate(350,400)" /><rect fill="none" height="11" stroke="black" stroke-width="1" transform="translate(350,400)" width="5" x="40" y="36" /><line stroke="black" stroke-width="1" transform="translate(350,400)" x1="120" x2="128.33838645085365" y1="168" y2="175.6654804050813" /><circle cx="164" cy="131" fill="black" r="2" stroke="none" transform="translate(350,400)" /><rect fill="none" height="8" stroke="black" stroke-width="1" transform="translate(350,400)" width="14" x="12" y="41" /><line stroke="black" stroke-width="1" transform="translate(350,400)" x1="69" x2="84.50609113309801" y1="39" y2="56.27075560801167" /><rect fill="none" height="10" stroke="black" stroke-width="1" transform="translate(350,400)" width="15" x="149" y="116" /><text font-family="Arial" font-size="14" text-anchor="middle" x="425" y="380">Option 2</text><g transform="translate(350,400)"><circle cx="23" cy="105" fill="none" r="23.5" stroke="black" stroke-width="2" /><rect fill="none" height="47" stroke="black" stroke-width="2" transform="rotate(97.80871694466097,161.5,100.5)" width="47" x="138" y="77" /><rect fill="none" height="34" stroke="black" stroke-width="2" transform="rotate(182.80871694466097,117.0,135.0)" width="34" x="100" y="118" /><circle cx="132" cy="50" fill="none" r="23.5" stroke="black" stroke-width="2" /><rect fill="none" height="49" stroke="black" stroke-width="2" transform="rotate(181.80871694466097,108.5,101.5)" width="49" x="84" y="77" /><circle cx="74" cy="130" fill="none" r="23.5" stroke="black" stroke-width="2" /><circle cx="48" cy="138" fill="none" r="18.0" stroke="black" stroke-width="2" /><line stroke="black" stroke-width="2" transform="rotate(-5.191283055339024,83.5,96.5)" x1="60" x2="107" y1="73" y2="120" /><polygon fill="none" points="38,67 87,67 62.5,18" stroke="black" stroke-width="2" transform="rotate(304.808716944661,62.5,42.5)" /><circle cx="54" cy="113" fill="none" r="19.0" stroke="black" stroke-width="2" /></g><circle cx="100" cy="10" fill="black" r="2" stroke="none" transform="translate(100,650)" /><rect fill="none" height="4" stroke="black" stroke-width="1" transform="translate(100,650)" width="7" x="76" y="127" /><circle cx="180" cy="129" fill="black" r="3" stroke="none" transform="translate(100,650)" /><rect fill="none" height="13" stroke="black" stroke-width="1" transform="translate(100,650)" width="10" x="123" y="38" /><line stroke="black" stroke-width="1" transform="translate(100,650)" x1="167" x2="168.6045065755065" y1="128" y2="129.8130887503922" /><circle cx="170" cy="112" fill="black" r="2" stroke="none" transform="translate(100,650)" /><circle cx="34" cy="11" fill="black" r="3" stroke="none" transform="translate(100,650)" /><circle cx="13" cy="164" fill="black" r="2" stroke="none" transform="translate(100,650)" /><line stroke="black" stroke-width="1" transform="translate(100,650)" x1="78" x2="89.71495361994954" y1="71" y2="84.73414600843904" /><circle cx="66" cy="156" fill="black" r="1" stroke="none" transform="translate(100,650)" /><rect fill="none" height="7" stroke="black" stroke-width="1" transform="translate(100,650)" width="3" x="70" y="62" /><rect fill="none" height="8" stroke="black" stroke-width="1" transform="translate(100,650)" width="9" x="122" y="103" /><line stroke="black" stroke-width="1" transform="translate(100,650)" x1="156" x2="157.5513685006973" y1="120" y2="145.48357192347254" /><circle cx="17" cy="23" fill="black" r="3" stroke="none" transform="translate(100,650)" /><line stroke="black" stroke-width="1" transform="translate(100,650)" x1="76" x2="86.2497700477045" y1="53" y2="75.95531378780728" /><rect fill="none" height="13" stroke="black" stroke-width="1" transform="translate(100,650)" width="7" x="53" y="34" /><circle cx="174" cy="102" fill="black" r="2" stroke="none" transform="translate(100,650)" /><line stroke="black" stroke-width="1" transform="translate(100,650)" x1="134" x2="137.71016507074455" y1="176" y2="180.8535527865316" /><line stroke="black" stroke-width="1" transform="translate(100,650)" x1="38" x2="40.110442920915716" y1="83" y2="85.91763816080949" /><line stroke="black" stroke-width="1" transform="translate(100,650)" x1="110" x2="123.33435332299692" y1="175" y2="189.6594301775126" /><circle cx="172" cy="123" fill="black" r="2" stroke="none" transform="translate(100,650)" /><circle cx="76" cy="139" fill="black" r="3" stroke="none" transform="translate(100,650)" /><rect fill="none" height="14" stroke="black" stroke-width="1" transform="translate(100,650)" width="8" x="155" y="130" /><line stroke="black" stroke-width="1" transform="translate(100,650)" x1="144" x2="163.78096821212165" y1="160" y2="165.46052767729927" /><rect fill="none" height="7" stroke="black" stroke-width="1" transform="translate(100,650)" width="9" x="72" y="51" /><rect fill="none" height="15" stroke="black" stroke-width="1" transform="translate(100,650)" width="10" x="76" y="99" /><circle cx="151" cy="91" fill="black" r="1" stroke="none" transform="translate(100,650)" /><circle cx="151" cy="66" fill="black" r="1" stroke="none" transform="translate(100,650)" /><line stroke="black" stroke-width="1" transform="translate(100,650)" x1="105" x2="113.73491096763979" y1="99" y2="99.33097723372792" /><rect fill="none" height="9" stroke="black" stroke-width="1" transform="translate(100,650)" width="8" x="170" y="129" /><circle cx="161" cy="82" fill="black" r="2" stroke="none" transform="translate(100,650)" /><line stroke="black" stroke-width="1" transform="translate(100,650)" x1="145" x2="155.68963485845381" y1="127" y2="137.99742857801147" /><circle cx="48" cy="161" fill="black" r="1" stroke="none" transform="translate(100,650)" /><rect fill="none" height="8" stroke="black" stroke-width="1" transform="translate(100,650)" width="8" x="89" y="149" /><rect fill="none" height="8" stroke="black" stroke-width="1" transform="translate(100,650)" width="7" x="45" y="60" /><rect fill="none" height="15" stroke="black" stroke-width="1" transform="translate(100,650)" width="7" x="55" y="10" /><rect fill="none" height="13" stroke="black" stroke-width="1" transform="translate(100,650)" width="8" x="113" y="27" /><circle cx="80" cy="138" fill="black" r="1" stroke="none" transform="translate(100,650)" /><line stroke="black" stroke-width="1" transform="translate(100,650)" x1="176" x2="182.39841909723614" y1="165" y2="175.75101941991701" /><line stroke="black" stroke-width="1" transform="translate(100,650)" x1="120" x2="142.31264462228148" y1="99" y2="102.58566821830095" /><text font-family="Arial" font-size="14" text-anchor="middle" x="175" y="630">Option 3</text><g transform="translate(100,650)"><circle cx="23" cy="105" fill="none" r="23.5" stroke="black" stroke-width="2" /><rect fill="none" height="47" stroke="black" stroke-width="2" transform="rotate(98.45676568574873,161.5,100.5)" width="47" x="138" y="77" /><rect fill="none" height="34" stroke="black" stroke-width="2" transform="rotate(183.45676568574873,117.0,135.0)" width="34" x="100" y="118" /><circle cx="132" cy="50" fill="none" r="23.5" stroke="black" stroke-width="2" /><rect fill="none" height="49" stroke="black" stroke-width="2" transform="rotate(182.45676568574873,108.5,101.5)" width="49" x="84" y="77" /><circle cx="74" cy="130" fill="none" r="23.5" stroke="black" stroke-width="2" /><circle cx="48" cy="138" fill="none" r="18.0" stroke="black" stroke-width="2" /><line stroke="black" stroke-width="2" transform="rotate(-4.543234314251258,83.5,96.5)" x1="60" x2="107" y1="73" y2="120" /><polygon fill="none" points="38,67 87,67 62.5,18" stroke="black" stroke-width="2" transform="rotate(305.45676568574873,62.5,42.5)" /><circle cx="54" cy="113" fill="none" r="19.0" stroke="black" stroke-width="2" /></g><line stroke="black" stroke-width="1" transform="translate(350,650)" x1="39" x2="63.15968425276927" y1="111" y2="123.36587405770588" /><rect fill="none" height="7" stroke="black" stroke-width="1" transform="translate(350,650)" width="5" x="52" y="60" /><rect fill="none" height="3" stroke="black" stroke-width="1" transform="translate(350,650)" width="15" x="151" y="55" /><circle cx="119" cy="173" fill="black" r="1" stroke="none" transform="translate(350,650)" /><rect fill="none" height="8" stroke="black" stroke-width="1" transform="translate(350,650)" width="15" x="115" y="164" /><rect fill="none" height="11" stroke="black" stroke-width="1" transform="translate(350,650)" width="15" x="142" y="48" /><circle cx="104" cy="144" fill="black" r="2" stroke="none" transform="translate(350,650)" /><line stroke="black" stroke-width="1" transform="translate(350,650)" x1="38" x2="38.78340388563673" y1="105" y2="107.91059741130739" /><rect fill="none" height="9" stroke="black" stroke-width="1" transform="translate(350,650)" width="6" x="171" y="171" /><circle cx="34" cy="87" fill="black" r="2" stroke="none" transform="translate(350,650)" /><circle cx="75" cy="18" fill="black" r="1" stroke="none" transform="translate(350,650)" /><rect fill="none" height="12" stroke="black" stroke-width="1" transform="translate(350,650)" width="7" x="131" y="19" /><line stroke="black" stroke-width="1" transform="translate(350,650)" x1="171" x2="197.4653340586476" y1="56" y2="60.14048081018787" /><rect fill="none" height="12" stroke="black" stroke-width="1" transform="translate(350,650)" width="13" x="37" y="163" /><rect fill="none" height="11" stroke="black" stroke-width="1" transform="translate(350,650)" width="13" x="168" y="41" /><line stroke="black" stroke-width="1" transform="translate(350,650)" x1="115" x2="133.39803489254354" y1="167" y2="179.94772753827223" /><rect fill="none" height="9" stroke="black" stroke-width="1" transform="translate(350,650)" width="11" x="119" y="61" /><rect fill="none" height="12" stroke="black" stroke-width="1" transform="translate(350,650)" width="10" x="124" y="43" /><line stroke="black" stroke-width="1" transform="translate(350,650)" x1="126" x2="130.23384291869385" y1="169" y2="172.6034234177437" /><line stroke="black" stroke-width="1" transform="translate(350,650)" x1="160" x2="181.1527725296617" y1="56" y2="68.14055740471328" /><circle cx="57" cy="102" fill="black" r="2" stroke="none" transform="translate(350,650)" /><rect fill="none" height="7" stroke="black" stroke-width="1" transform="translate(350,650)" width="11" x="75" y="90" /><rect fill="none" height="14" stroke="black" stroke-width="1" transform="translate(350,650)" width="9" x="165" y="135" /><rect fill="none" height="7" stroke="black" stroke-width="1" transform="translate(350,650)" width="14" x="115" y="30" /><rect fill="none" height="15" stroke="black" stroke-width="1" transform="translate(350,650)" width="12" x="128" y="58" /><circle cx="153" cy="131" fill="black" r="1" stroke="none" transform="translate(350,650)" /><rect fill="none" height="8" stroke="black" stroke-width="1" transform="translate(350,650)" width="15" x="115" y="109" /><rect fill="none" height="12" stroke="black" stroke-width="1" transform="translate(350,650)" width="14" x="14" y="105" /><rect fill="none" height="11" stroke="black" stroke-width="1" transform="translate(350,650)" width="12" x="169" y="98" /><rect fill="none" height="6" stroke="black" stroke-width="1" transform="translate(350,650)" width="3" x="153" y="104" /><line stroke="black" stroke-width="1" transform="translate(350,650)" x1="80" x2="82.06384766393889" y1="33" y2="33.80517417071894" /><rect fill="none" height="13" stroke="black" stroke-width="1" transform="translate(350,650)" width="11" x="129" y="111" /><line stroke="black" stroke-width="1" transform="translate(350,650)" x1="93" x2="102.15515814645464" y1="89" y2="98.5307522799467" /><circle cx="27" cy="88" fill="black" r="3" stroke="none" transform="translate(350,650)" /><line stroke="black" stroke-width="1" transform="translate(350,650)" x1="53" x2="54.720446707852936" y1="105" y2="108.77789078588813" /><circle cx="177" cy="36" fill="black" r="1" stroke="none" transform="translate(350,650)" /><circle cx="91" cy="76" fill="black" r="3" stroke="none" transform="translate(350,650)" /><rect fill="none" height="10" stroke="black" stroke-width="1" transform="translate(350,650)" width="13" x="12" y="28" /><rect fill="none" height="6" stroke="black" stroke-width="1" transform="translate(350,650)" width="7" x="175" y="178" /><rect fill="none" height="4" stroke="black" stroke-width="1" transform="translate(350,650)" width="15" x="33" y="11" /><text font-family="Arial" font-size="14" text-anchor="middle" x="425" y="630">Option 4</text><g transform="translate(350,650)"><circle cx="23" cy="105" fill="none" r="23.5" stroke="black" stroke-width="2" /><rect fill="none" height="47" stroke="black" stroke-width="2" transform="rotate(99.53810099706914,161.5,100.5)" width="47" x="138" y="77" /><rect fill="none" height="34" stroke="black" stroke-width="2" transform="rotate(184.53810099706914,117.0,135.0)" width="34" x="100" y="118" /><circle cx="132" cy="50" fill="none" r="23.5" stroke="black" stroke-width="2" /><rect fill="none" height="49" stroke="black" stroke-width="2" transform="rotate(183.53810099706914,108.5,101.5)" width="49" x="84" y="77" /><circle cx="87" cy="72" fill="none" r="23.5" stroke="black" stroke-width="2" /><circle cx="48" cy="138" fill="none" r="18.0" stroke="black" stroke-width="2" /><line stroke="black" stroke-width="2" transform="rotate(-3.461899002930867,83.5,96.5)" x1="60" x2="107" y1="73" y2="120" /><polygon fill="none" points="134,168 183,168 158.5,119" stroke="black" stroke-width="2" transform="rotate(306.53810099706914,158.5,143.5)" /><circle cx="54" cy="113" fill="none" r="19.0" stroke="black" stroke-width="2" /></g></svg>