<?xml version="1.0" encoding="utf-8" ?>
<svg baseProfile="full" height="1000px" version="1.1" width="600px" xmlns="http://www.w3.org/2000/svg" xmlns:ev="http://www.w3.org/2001/xml-events" xmlns:xlink="http://www.w3.org/1999/xlink"><defs /><rect fill="white" height="100%" width="100%" x="0" y="0" /><text font-family="Arial" font-size="24" text-anchor="middle" x="300" y="40">Visual Figure Ground Test</text><text font-family="Arial" font-size="18" text-anchor="middle" x="300" y="80">Target Pattern</text><g transform="translate(200,100)"><polygon fill="none" points="74,165 113,165 93.5,126" stroke="black" stroke-width="2" transform="rotate(16,93.5,145.5)" /><line stroke="black" stroke-width="2" transform="rotate(138,166.0,64.0)" x1="141" x2="191" y1="39" y2="89" /><circle cx="106" cy="139" fill="none" r="23.0" stroke="black" stroke-width="2" /><rect fill="none" height="40" stroke="black" stroke-width="2" transform="rotate(275,58.0,164.0)" width="40" x="38" y="144" /><line stroke="black" stroke-width="2" transform="rotate(179,92.5,149.5)" x1="71" x2="114" y1="128" y2="171" /><circle cx="102" cy="34" fill="none" r="18.0" stroke="black" stroke-width="2" /><rect fill="none" height="32" stroke="black" stroke-width="2" transform="rotate(133,91.0,160.0)" width="32" x="75" y="144" /><rect fill="none" height="31" stroke="black" stroke-width="2" transform="rotate(120,80.5,130.5)" width="31" x="65" y="115" /><circle cx="65" cy="104" fill="none" r="24.0" stroke="black" stroke-width="2" /><circle cx="58" cy="150" fill="none" r="20.0" stroke="black" stroke-width="2" /></g><text font-family="Arial" font-size="18" text-anchor="middle" x="300" y="350">Options</text><line stroke="black" stroke-width="1" transform="translate(100,400)" x1="78" x2="104.14567398853802" y1="40" y2="54.98153239231475" /><rect fill="none" height="13" stroke="black" stroke-width="1" transform="translate(100,400)" width="4" x="26" y="128" /><line stroke="black" stroke-width="1" transform="translate(100,400)" x1="35" x2="39.02234544992773" y1="73" y2="89.88034830220901" /><rect fill="none" height="3" stroke="black" stroke-width="1" transform="translate(100,400)" width="8" x="103" y="179" /><circle cx="100" cy="19" fill="black" r="3" stroke="none" transform="translate(100,400)" /><rect fill="none" height="14" stroke="black" stroke-width="1" transform="translate(100,400)" width="10" x="58" y="121" /><circle cx="118" cy="113" fill="black" r="3" stroke="none" transform="translate(100,400)" /><line stroke="black" stroke-width="1" transform="translate(100,400)" x1="118" x2="126.41043882652436" y1="142" y2="156.65080906778246" /><rect fill="none" height="6" stroke="black" stroke-width="1" transform="translate(100,400)" width="5" x="119" y="132" /><circle cx="20" cy="83" fill="black" r="3" stroke="none" transform="translate(100,400)" /><circle cx="26" cy="162" fill="black" r="3" stroke="none" transform="translate(100,400)" /><line stroke="black" stroke-width="1" transform="translate(100,400)" x1="49" x2="69.70558884782923" y1="147" y2="173.15808584984137" /><circle cx="127" cy="32" fill="black" r="3" stroke="none" transform="translate(100,400)" /><rect fill="none" height="3" stroke="black" stroke-width="1" transform="translate(100,400)" width="5" x="148" y="68" /><rect fill="none" height="15" stroke="black" stroke-width="1" transform="translate(100,400)" width="7" x="77" y="131" /><rect fill="none" height="12" stroke="black" stroke-width="1" transform="translate(100,400)" width="9" x="102" y="50" /><rect fill="none" height="9" stroke="black" stroke-width="1" transform="translate(100,400)" width="12" x="93" y="106" /><line stroke="black" stroke-width="1" transform="translate(100,400)" x1="10" x2="18.948312219897048" y1="21" y2="26.111659940085584" /><line stroke="black" stroke-width="1" transform="translate(100,400)" x1="20" x2="41.7866126753937" y1="93" y2="118.10684744299483" /><rect fill="none" height="9" stroke="black" stroke-width="1" transform="translate(100,400)" width="15" x="173" y="123" /><rect fill="none" height="6" stroke="black" stroke-width="1" transform="translate(100,400)" width="15" x="174" y="63" /><circle cx="172" cy="135" fill="black" r="2" stroke="none" transform="translate(100,400)" /><circle cx="110" cy="79" fill="black" r="2" stroke="none" transform="translate(100,400)" /><line stroke="black" stroke-width="1" transform="translate(100,400)" x1="144" x2="154.95337498393707" y1="165" y2="180.48397788436057" /><line stroke="black" stroke-width="1" transform="translate(100,400)" x1="129" x2="129.06572264232275" y1="154" y2="156.2563492188079" /><rect fill="none" height="3" stroke="black" stroke-width="1" transform="translate(100,400)" width="12" x="126" y="101" /><line stroke="black" stroke-width="1" transform="translate(100,400)" x1="34" x2="37.32296847612352" y1="148" y2="155.88954966026074" /><circle cx="48" cy="142" fill="black" r="2" stroke="none" transform="translate(100,400)" /><rect fill="none" height="3" stroke="black" stroke-width="1" transform="translate(100,400)" width="11" x="134" y="47" /><rect fill="none" height="13" stroke="black" stroke-width="1" transform="translate(100,400)" width="8" x="23" y="170" /><line stroke="black" stroke-width="1" transform="translate(100,400)" x1="126" x2="141.2321832456639" y1="81" y2="91.23235673128883" /><circle cx="113" cy="122" fill="black" r="3" stroke="none" transform="translate(100,400)" /><rect fill="none" height="14" stroke="black" stroke-width="1" transform="translate(100,400)" width="14" x="179" y="98" /><rect fill="none" height="10" stroke="black" stroke-width="1" transform="translate(100,400)" width="5" x="89" y="15" /><rect fill="none" height="9" stroke="black" stroke-width="1" transform="translate(100,400)" width="4" x="47" y="96" /><circle cx="127" cy="156" fill="black" r="3" stroke="none" transform="translate(100,400)" /><line stroke="black" stroke-width="1" transform="translate(100,400)" x1="149" x2="178.70737828039535" y1="29" y2="58.09447439995917" /><rect fill="none" height="15" stroke="black" stroke-width="1" transform="translate(100,400)" width="8" x="16" y="52" /><circle cx="40" cy="151" fill="black" r="3" stroke="none" transform="translate(100,400)" /><circle cx="132" cy="90" fill="black" r="2" stroke="none" transform="translate(100,400)" /><text font-family="Arial" font-size="14" text-anchor="middle" x="175" y="380">Option 1</text><g transform="translate(100,400)"><polygon fill="none" points="74,165 113,165 93.5,126" stroke="black" stroke-width="2" transform="rotate(33.08860297156221,93.5,145.5)" /><line stroke="black" stroke-width="2" transform="rotate(155.0886029715622,166.0,64.0)" x1="141" x2="191" y1="39" y2="89" /><circle cx="106" cy="139" fill="none" r="23.0" stroke="black" stroke-width="2" /><rect fill="none" height="40" stroke="black" stroke-width="2" transform="rotate(292.0886029715622,58.0,164.0)" width="40" x="38" y="144" /><line stroke="black" stroke-width="2" transform="rotate(196.0886029715622,92.5,149.5)" x1="71" x2="114" y1="128" y2="171" /><circle cx="102" cy="34" fill="none" r="18.0" stroke="black" stroke-width="2" /><rect fill="none" height="32" stroke="black" stroke-width="2" transform="rotate(150.0886029715622,91.0,160.0)" width="32" x="75" y="144" /><rect fill="none" height="31" stroke="black" stroke-width="2" transform="rotate(137.0886029715622,80.5,130.5)" width="31" x="65" y="115" /><circle cx="65" cy="104" fill="none" r="24.0" stroke="black" stroke-width="2" /><circle cx="58" cy="150" fill="none" r="20.0" stroke="black" stroke-width="2" /></g><rect fill="none" height="10" stroke="black" stroke-width="1" transform="translate(350,400)" width="14" x="54" y="159" /><rect fill="none" height="6" stroke="black" stroke-width="1" transform="translate(350,400)" width="14" x="103" y="153" /><circle cx="68" cy="100" fill="black" r="3" stroke="none" transform="translate(350,400)" /><circle cx="12" cy="54" fill="black" r="2" stroke="none" transform="translate(350,400)" /><rect fill="none" height="14" stroke="black" stroke-width="1" transform="translate(350,400)" width="14" x="114" y="35" /><line stroke="black" stroke-width="1" transform="translate(350,400)" x1="73" x2="77.18461820497271" y1="143" y2="144.8613280154832" /><circle cx="133" cy="33" fill="black" r="2" stroke="none" transform="translate(350,400)" /><circle cx="11" cy="145" fill="black" r="2" stroke="none" transform="translate(350,400)" /><circle cx="161" cy="46" fill="black" r="2" stroke="none" transform="translate(350,400)" /><rect fill="none" height="3" stroke="black" stroke-width="1" transform="translate(350,400)" width="12" x="10" y="168" /><rect fill="none" height="4" stroke="black" stroke-width="1" transform="translate(350,400)" width="9" x="105" y="60" /><circle cx="158" cy="139" fill="black" r="1" stroke="none" transform="translate(350,400)" /><line stroke="black" stroke-width="1" transform="translate(350,400)" x1="108" x2="113.96371660972372" y1="93" y2="110.783043588826" /><rect fill="none" height="9" stroke="black" stroke-width="1" transform="translate(350,400)" width="10" x="74" y="127" /><line stroke="black" stroke-width="1" transform="translate(350,400)" x1="93" x2="104.28350549911549" y1="47" y2="54.43228896952823" /><circle cx="61" cy="172" fill="black" r="3" stroke="none" transform="translate(350,400)" /><rect fill="none" height="6" stroke="black" stroke-width="1" transform="translate(350,400)" width="15" x="27" y="29" /><line stroke="black" stroke-width="1" transform="translate(350,400)" x1="135" x2="139.9117015233382" y1="134" y2="149.50915196305718" /><rect fill="none" height="3" stroke="black" stroke-width="1" transform="translate(350,400)" width="9" x="175" y="154" /><circle cx="21" cy="170" fill="black" r="1" stroke="none" transform="translate(350,400)" /><rect fill="none" height="14" stroke="black" stroke-width="1" transform="translate(350,400)" width="9" x="56" y="66" /><rect fill="none" height="5" stroke="black" stroke-width="1" transform="translate(350,400)" width="5" x="76" y="40" /><line stroke="black" stroke-width="1" transform="translate(350,400)" x1="108" x2="119.06719263236468" y1="79" y2="87.49739455233697" /><line stroke="black" stroke-width="1" transform="translate(350,400)" x1="162" x2="164.17084807448575" y1="113" y2="120.4629171409092" /><circle cx="45" cy="162" fill="black" r="2" stroke="none" transform="translate(350,400)" /><circle cx="139" cy="34" fill="black" r="3" stroke="none" transform="translate(350,400)" /><line stroke="black" stroke-width="1" transform="translate(350,400)" x1="167" x2="174.41227797416016" y1="64" y2="73.54869657746949" /><rect fill="none" height="15" stroke="black" stroke-width="1" transform="translate(350,400)" width="3" x="166" y="162" /><circle cx="49" cy="15" fill="black" r="3" stroke="none" transform="translate(350,400)" /><line stroke="black" stroke-width="1" transform="translate(350,400)" x1="111" x2="131.69929603349078" y1="53" y2="70.09984283835983" /><line stroke="black" stroke-width="1" transform="translate(350,400)" x1="173" x2="180.27025084920487" y1="53" y2="56.8363739616486" /><circle cx="81" cy="67" fill="black" r="2" stroke="none" transform="translate(350,400)" /><rect fill="none" height="7" stroke="black" stroke-width="1" transform="translate(350,400)" width="8" x="106" y="84" /><rect fill="none" height="3" stroke="black" stroke-width="1" transform="translate(350,400)" width="7" x="177" y="136" /><line stroke="black" stroke-width="1" transform="translate(350,400)" x1="89" x2="110.14480194094318" y1="70" y2="71.16180542987954" /><line stroke="black" stroke-width="1" transform="translate(350,400)" x1="68" x2="73.87545688237569" y1="90" y2="97.52244897510332" /><circle cx="65" cy="154" fill="black" r="3" stroke="none" transform="translate(350,400)" /><rect fill="none" height="14" stroke="black" stroke-width="1" transform="translate(350,400)" width="7" x="79" y="59" /><line stroke="black" stroke-width="1" transform="translate(350,400)" x1="137" x2="148.19329019565802" y1="33" y2="37.05766834995677" /><rect fill="none" height="12" stroke="black" stroke-width="1" transform="translate(350,400)" width="5" x="14" y="132" /><text font-family="Arial" font-size="14" text-anchor="middle" x="425" y="380">Option 2</text><g transform="translate(350,400)"><polygon fill="none" points="74,165 113,165 93.5,126" stroke="black" stroke-width="2" transform="rotate(34.16945093230806,93.5,145.5)" /><line stroke="black" stroke-width="2" transform="rotate(156.16945093230805,166.0,64.0)" x1="141" x2="191" y1="39" y2="89" /><circle cx="106" cy="139" fill="none" r="23.0" stroke="black" stroke-width="2" /><rect fill="none" height="40" stroke="black" stroke-width="2" transform="rotate(293.16945093230805,58.0,164.0)" width="40" x="38" y="144" /><line stroke="black" stroke-width="2" transform="rotate(197.16945093230805,92.5,149.5)" x1="71" x2="114" y1="128" y2="171" /><circle cx="102" cy="34" fill="none" r="18.0" stroke="black" stroke-width="2" /><rect fill="none" height="32" stroke="black" stroke-width="2" transform="rotate(151.16945093230805,91.0,160.0)" width="32" x="75" y="144" /><rect fill="none" height="31" stroke="black" stroke-width="2" transform="rotate(138.16945093230805,80.5,130.5)" width="31" x="65" y="115" /><circle cx="65" cy="104" fill="none" r="24.0" stroke="black" stroke-width="2" /><circle cx="58" cy="150" fill="none" r="20.0" stroke="black" stroke-width="2" /></g><line stroke="black" stroke-width="1" transform="translate(100,650)" x1="131" x2="146.35402231199703" y1="149" y2="157.74751943675994" /><line stroke="black" stroke-width="1" transform="translate(100,650)" x1="53" x2="54.75367804836305" y1="110" y2="116.10357109149777" /><line stroke="black" stroke-width="1" transform="translate(100,650)" x1="10" x2="14.349503167487178" y1="158" y2="160.51461500752953" /><line stroke="black" stroke-width="1" transform="translate(100,650)" x1="129" x2="145.06497545315383" y1="47" y2="52.97586358185968" /><rect fill="none" height="7" stroke="black" stroke-width="1" transform="translate(100,650)" width="3" x="176" y="44" /><line stroke="black" stroke-width="1" transform="translate(100,650)" x1="45" x2="58.12028626463148" y1="158" y2="160.48055686857123" /><rect fill="none" height="6" stroke="black" stroke-width="1" transform="translate(100,650)" width="15" x="165" y="94" /><circle cx="48" cy="123" fill="black" r="1" stroke="none" transform="translate(100,650)" /><line stroke="black" stroke-width="1" transform="translate(100,650)" x1="130" x2="136.38448171261325" y1="32" y2="41.79432248616503" /><circle cx="11" cy="167" fill="black" r="2" stroke="none" transform="translate(100,650)" /><rect fill="none" height="12" stroke="black" stroke-width="1" transform="translate(100,650)" width="5" x="54" y="168" /><circle cx="101" cy="57" fill="black" r="1" stroke="none" transform="translate(100,650)" /><rect fill="none" height="15" stroke="black" stroke-width="1" transform="translate(100,650)" width="9" x="101" y="138" /><circle cx="99" cy="64" fill="black" r="2" stroke="none" transform="translate(100,650)" /><line stroke="black" stroke-width="1" transform="translate(100,650)" x1="155" x2="155.80906916760276" y1="108" y2="118.01610016501596" /><circle cx="56" cy="62" fill="black" r="2" stroke="none" transform="translate(100,650)" /><line stroke="black" stroke-width="1" transform="translate(100,650)" x1="159" x2="159.09088101909697" y1="118" y2="125.56623730460484" /><circle cx="22" cy="49" fill="black" r="3" stroke="none" transform="translate(100,650)" /><line stroke="black" stroke-width="1" transform="translate(100,650)" x1="15" x2="29.32855582467929" y1="38" y2="60.33171631318251" /><line stroke="black" stroke-width="1" transform="translate(100,650)" x1="63" x2="81.64254683838787" y1="28" y2="42.482936309541756" /><line stroke="black" stroke-width="1" transform="translate(100,650)" x1="64" x2="69.22202309962373" y1="104" y2="114.94976010553951" /><circle cx="117" cy="40" fill="black" r="3" stroke="none" transform="translate(100,650)" /><line stroke="black" stroke-width="1" transform="translate(100,650)" x1="34" x2="49.76699377273794" y1="106" y2="122.13659248991584" /><circle cx="46" cy="127" fill="black" r="2" stroke="none" transform="translate(100,650)" /><circle cx="152" cy="71" fill="black" r="2" stroke="none" transform="translate(100,650)" /><circle cx="42" cy="43" fill="black" r="3" stroke="none" transform="translate(100,650)" /><rect fill="none" height="15" stroke="black" stroke-width="1" transform="translate(100,650)" width="9" x="52" y="53" /><rect fill="none" height="5" stroke="black" stroke-width="1" transform="translate(100,650)" width="5" x="29" y="147" /><rect fill="none" height="8" stroke="black" stroke-width="1" transform="translate(100,650)" width="6" x="59" y="35" /><rect fill="none" height="4" stroke="black" stroke-width="1" transform="translate(100,650)" width="13" x="21" y="64" /><line stroke="black" stroke-width="1" transform="translate(100,650)" x1="155" x2="155.77024899945002" y1="112" y2="113.28592360296923" /><circle cx="23" cy="53" fill="black" r="3" stroke="none" transform="translate(100,650)" /><circle cx="95" cy="178" fill="black" r="2" stroke="none" transform="translate(100,650)" /><rect fill="none" height="8" stroke="black" stroke-width="1" transform="translate(100,650)" width="11" x="120" y="175" /><line stroke="black" stroke-width="1" transform="translate(100,650)" x1="132" x2="137.87283221913214" y1="146" y2="149.4717649197602" /><line stroke="black" stroke-width="1" transform="translate(100,650)" x1="23" x2="26.322925666699543" y1="61" y2="80.93340450250535" /><line stroke="black" stroke-width="1" transform="translate(100,650)" x1="49" x2="70.86114530952689" y1="20" y2="43.90967808415647" /><rect fill="none" height="9" stroke="black" stroke-width="1" transform="translate(100,650)" width="6" x="108" y="106" /><rect fill="none" height="6" stroke="black" stroke-width="1" transform="translate(100,650)" width="13" x="121" y="155" /><rect fill="none" height="14" stroke="black" stroke-width="1" transform="translate(100,650)" width="14" x="22" y="172" /><text font-family="Arial" font-size="14" text-anchor="middle" x="175" y="630">Option 3</text><g transform="translate(100,650)"><polygon fill="none" points="74,165 113,165 93.5,126" stroke="black" stroke-width="2" transform="rotate(16,93.5,145.5)" /><line stroke="black" stroke-width="2" transform="rotate(138,166.0,64.0)" x1="141" x2="191" y1="39" y2="89" /><circle cx="106" cy="139" fill="none" r="23.0" stroke="black" stroke-width="2" /><rect fill="none" height="40" stroke="black" stroke-width="2" transform="rotate(275,58.0,164.0)" width="40" x="38" y="144" /><line stroke="black" stroke-width="2" transform="rotate(179,92.5,149.5)" x1="71" x2="114" y1="128" y2="171" /><circle cx="102" cy="34" fill="none" r="18.0" stroke="black" stroke-width="2" /><rect fill="none" height="32" stroke="black" stroke-width="2" transform="rotate(133,91.0,160.0)" width="32" x="75" y="144" /><rect fill="none" height="31" stroke="black" stroke-width="2" transform="rotate(120,80.5,130.5)" width="31" x="65" y="115" /><circle cx="65" cy="104" fill="none" r="24.0" stroke="black" stroke-width="2" /><circle cx="58" cy="150" fill="none" r="20.0" stroke="black" stroke-width="2" /></g><circle cx="116" cy="177" fill="black" r="1" stroke="none" transform="translate(350,650)" /><rect fill="none" height="13" stroke="black" stroke-width="1" transform="translate(350,650)" width="10" x="32" y="173" /><rect fill="none" height="12" stroke="black" stroke-width="1" transform="translate(350,650)" width="8" x="62" y="143" /><circle cx="40" cy="63" fill="black" r="1" stroke="none" transform="translate(350,650)" /><line stroke="black" stroke-width="1" transform="translate(350,650)" x1="177" x2="194.716557162955" y1="35" y2="46.087761665591074" /><line stroke="black" stroke-width="1" transform="translate(350,650)" x1="114" x2="117.0362064401585" y1="55" y2="61.865867469981815" /><circle cx="148" cy="92" fill="black" r="2" stroke="none" transform="translate(350,650)" /><circle cx="166" cy="40" fill="black" r="3" stroke="none" transform="translate(350,650)" /><circle cx="161" cy="23" fill="black" r="1" stroke="none" transform="translate(350,650)" /><circle cx="108" cy="54" fill="black" r="3" stroke="none" transform="translate(350,650)" /><rect fill="none" height="10" stroke="black" stroke-width="1" transform="translate(350,650)" width="10" x="16" y="78" /><line stroke="black" stroke-width="1" transform="translate(350,650)" x1="49" x2="54.77749137707483" y1="168" y2="175.30010413896474" /><circle cx="179" cy="122" fill="black" r="3" stroke="none" transform="translate(350,650)" /><circle cx="84" cy="106" fill="black" r="1" stroke="none" transform="translate(350,650)" /><rect fill="none" height="10" stroke="black" stroke-width="1" transform="translate(350,650)" width="11" x="104" y="29" /><line stroke="black" stroke-width="1" transform="translate(350,650)" x1="16" x2="16.763846031749257" y1="67" y2="77.62948572797397" /><line stroke="black" stroke-width="1" transform="translate(350,650)" x1="175" x2="181.70712183947197" y1="74" y2="76.33198869349509" /><line stroke="black" stroke-width="1" transform="translate(350,650)" x1="175" x2="186.4398997816022" y1="76" y2="88.91223345356515" /><line stroke="black" stroke-width="1" transform="translate(350,650)" x1="139" x2="146.20193114888104" y1="70" y2="79.80022017648227" /><rect fill="none" height="5" stroke="black" stroke-width="1" transform="translate(350,650)" width="12" x="91" y="148" /><circle cx="59" cy="108" fill="black" r="2" stroke="none" transform="translate(350,650)" /><line stroke="black" stroke-width="1" transform="translate(350,650)" x1="114" x2="123.94604376195268" y1="46" y2="49.85068443116448" /><line stroke="black" stroke-width="1" transform="translate(350,650)" x1="80" x2="93.83937689948779" y1="50" y2="54.16451622073536" /><rect fill="none" height="4" stroke="black" stroke-width="1" transform="translate(350,650)" width="14" x="35" y="49" /><line stroke="black" stroke-width="1" transform="translate(350,650)" x1="12" x2="12.681601060966976" y1="43" y2="50.38627869846021" /><line stroke="black" stroke-width="1" transform="translate(350,650)" x1="62" x2="64.19050097044871" y1="29" y2="30.464064026422207" /><line stroke="black" stroke-width="1" transform="translate(350,650)" x1="137" x2="145.53983726367966" y1="91" y2="95.19548700488481" /><line stroke="black" stroke-width="1" transform="translate(350,650)" x1="14" x2="31.23291435148179" y1="33" y2="33.024915400430324" /><line stroke="black" stroke-width="1" transform="translate(350,650)" x1="170" x2="174.2831647128401" y1="59" y2="71.50766623486463" /><rect fill="none" height="6" stroke="black" stroke-width="1" transform="translate(350,650)" width="7" x="126" y="22" /><rect fill="none" height="6" stroke="black" stroke-width="1" transform="translate(350,650)" width="11" x="80" y="23" /><circle cx="23" cy="85" fill="black" r="2" stroke="none" transform="translate(350,650)" /><line stroke="black" stroke-width="1" transform="translate(350,650)" x1="113" x2="119.1139494461963" y1="11" y2="15.631140058385864" /><line stroke="black" stroke-width="1" transform="translate(350,650)" x1="171" x2="182.99004341844594" y1="98" y2="102.3729983798562" /><line stroke="black" stroke-width="1" transform="translate(350,650)" x1="96" x2="102.30388584056371" y1="128" y2="140.86725767248458" /><rect fill="none" height="9" stroke="black" stroke-width="1" transform="translate(350,650)" width="13" x="145" y="155" /><circle cx="152" cy="176" fill="black" r="2" stroke="none" transform="translate(350,650)" /><circle cx="54" cy="126" fill="black" r="1" stroke="none" transform="translate(350,650)" /><line stroke="black" stroke-width="1" transform="translate(350,650)" x1="130" x2="138.97604553960764" y1="132" y2="137.73699696513077" /><line stroke="black" stroke-width="1" transform="translate(350,650)" x1="163" x2="175.07001164360852" y1="65" y2="65.95053118218426" /><text font-family="Arial" font-size="14" text-anchor="middle" x="425" y="630">Option 4</text><g transform="translate(350,650)"><polygon fill="none" points="74,165 113,165 93.5,126" stroke="black" stroke-width="2" transform="rotate(16,93.5,145.5)" /><line stroke="black" stroke-width="2" transform="rotate(138,159.0,64.0)" x1="134" x2="184" y1="39" y2="89" /><circle cx="106" cy="139" fill="none" r="23.0" stroke="black" stroke-width="2" /><rect fill="none" height="40" stroke="black" stroke-width="2" transform="rotate(275,58.0,164.0)" width="40" x="38" y="144" /><line stroke="black" stroke-width="2" transform="rotate(179,92.5,149.5)" x1="71" x2="114" y1="128" y2="171" /><circle cx="102" cy="34" fill="none" r="18.0" stroke="black" stroke-width="2" /><rect fill="none" height="32" stroke="black" stroke-width="2" transform="rotate(133,91.0,160.0)" width="32" x="75" y="144" /><rect fill="none" height="31" stroke="black" stroke-width="2" transform="rotate(120,80.5,130.5)" width="31" x="65" y="115" /><circle cx="19" cy="99" fill="none" r="24.0" stroke="black" stroke-width="2" /><circle cx="58" cy="150" fill="none" r="20.0" stroke="black" stroke-width="2" /></g></svg>