<?xml version="1.0" encoding="utf-8" ?>
<svg baseProfile="full" height="1000px" version="1.1" width="600px" xmlns="http://www.w3.org/2000/svg" xmlns:ev="http://www.w3.org/2001/xml-events" xmlns:xlink="http://www.w3.org/1999/xlink"><defs /><rect fill="white" height="100%" width="100%" x="0" y="0" /><text font-family="Arial" font-size="24" text-anchor="middle" x="300" y="40">Visual Figure Ground Test</text><text font-family="Arial" font-size="18" text-anchor="middle" x="300" y="80">Target Pattern</text><g transform="translate(200,100)"><polygon fill="none" points="25,54 59,54 42.0,20" stroke="black" stroke-width="2" transform="rotate(134,42.0,37.0)" /><polygon fill="none" points="40,104 76,104 58.0,68" stroke="black" stroke-width="2" transform="rotate(21,58.0,86.0)" /><line stroke="black" stroke-width="2" transform="rotate(278,90.0,53.0)" x1="66" x2="114" y1="29" y2="77" /><polygon fill="none" points="105,112 141,112 123.0,76" stroke="black" stroke-width="2" transform="rotate(101,123.0,94.0)" /><rect fill="none" height="49" stroke="black" stroke-width="2" transform="rotate(205,153.5,62.5)" width="49" x="129" y="38" /><polygon fill="none" points="128,56 170,56 149.0,14" stroke="black" stroke-width="2" transform="rotate(343,149.0,35.0)" /><rect fill="none" height="49" stroke="black" stroke-width="2" transform="rotate(206,45.5,36.5)" width="49" x="21" y="12" /><line stroke="black" stroke-width="2" transform="rotate(130,84.5,139.5)" x1="66" x2="103" y1="121" y2="158" /><circle cx="38" cy="130" fill="none" r="16.0" stroke="black" stroke-width="2" /><circle cx="14" cy="105" fill="none" r="19.0" stroke="black" stroke-width="2" /></g><text font-family="Arial" font-size="18" text-anchor="middle" x="300" y="350">Options</text><rect fill="none" height="15" stroke="black" stroke-width="1" transform="translate(100,400)" width="11" x="61" y="158" /><circle cx="133" cy="108" fill="black" r="1" stroke="none" transform="translate(100,400)" /><circle cx="108" cy="99" fill="black" r="1" stroke="none" transform="translate(100,400)" /><circle cx="30" cy="153" fill="black" r="1" stroke="none" transform="translate(100,400)" /><line stroke="black" stroke-width="1" transform="translate(100,400)" x1="106" x2="107.33357099604112" y1="41" y2="56.49730618756093" /><rect fill="none" height="6" stroke="black" stroke-width="1" transform="translate(100,400)" width="11" x="172" y="98" /><line stroke="black" stroke-width="1" transform="translate(100,400)" x1="59" x2="61.07835524584839" y1="179" y2="183.37542275104292" /><circle cx="163" cy="89" fill="black" r="1" stroke="none" transform="translate(100,400)" /><circle cx="77" cy="40" fill="black" r="1" stroke="none" transform="translate(100,400)" /><circle cx="27" cy="54" fill="black" r="1" stroke="none" transform="translate(100,400)" /><line stroke="black" stroke-width="1" transform="translate(100,400)" x1="62" x2="71.70111850653456" y1="87" y2="96.31453057302751" /><rect fill="none" height="12" stroke="black" stroke-width="1" transform="translate(100,400)" width="14" x="96" y="137" /><rect fill="none" height="15" stroke="black" stroke-width="1" transform="translate(100,400)" width="15" x="124" y="145" /><line stroke="black" stroke-width="1" transform="translate(100,400)" x1="141" x2="146.32616600265033" y1="84" y2="90.16441396058002" /><rect fill="none" height="12" stroke="black" stroke-width="1" transform="translate(100,400)" width="9" x="32" y="106" /><rect fill="none" height="10" stroke="black" stroke-width="1" transform="translate(100,400)" width="11" x="147" y="173" /><line stroke="black" stroke-width="1" transform="translate(100,400)" x1="154" x2="168.04110984297222" y1="128" y2="134.7299673363361" /><line stroke="black" stroke-width="1" transform="translate(100,400)" x1="139" x2="147.21960033444134" y1="35" y2="43.920659526561046" /><rect fill="none" height="7" stroke="black" stroke-width="1" transform="translate(100,400)" width="4" x="44" y="99" /><rect fill="none" height="11" stroke="black" stroke-width="1" transform="translate(100,400)" width="15" x="20" y="168" /><rect fill="none" height="14" stroke="black" stroke-width="1" transform="translate(100,400)" width="3" x="140" y="97" /><circle cx="111" cy="151" fill="black" r="1" stroke="none" transform="translate(100,400)" /><line stroke="black" stroke-width="1" transform="translate(100,400)" x1="25" x2="29.585202215052178" y1="58" y2="67.85913519006736" /><circle cx="117" cy="138" fill="black" r="2" stroke="none" transform="translate(100,400)" /><line stroke="black" stroke-width="1" transform="translate(100,400)" x1="171" x2="176.53887085046588" y1="40" y2="47.81790441661422" /><line stroke="black" stroke-width="1" transform="translate(100,400)" x1="165" x2="169.8233260535921" y1="144" y2="147.5889714213934" /><line stroke="black" stroke-width="1" transform="translate(100,400)" x1="55" x2="62.90660042947274" y1="37" y2="53.985048315673396" /><circle cx="20" cy="135" fill="black" r="2" stroke="none" transform="translate(100,400)" /><rect fill="none" height="4" stroke="black" stroke-width="1" transform="translate(100,400)" width="10" x="154" y="75" /><rect fill="none" height="5" stroke="black" stroke-width="1" transform="translate(100,400)" width="7" x="70" y="119" /><line stroke="black" stroke-width="1" transform="translate(100,400)" x1="88" x2="89.73389190538968" y1="113" y2="115.89782865957196" /><circle cx="11" cy="77" fill="black" r="1" stroke="none" transform="translate(100,400)" /><circle cx="58" cy="155" fill="black" r="3" stroke="none" transform="translate(100,400)" /><rect fill="none" height="14" stroke="black" stroke-width="1" transform="translate(100,400)" width="11" x="171" y="99" /><line stroke="black" stroke-width="1" transform="translate(100,400)" x1="152" x2="156.4702279316174" y1="24" y2="26.78666727307476" /><line stroke="black" stroke-width="1" transform="translate(100,400)" x1="17" x2="19.184090669084235" y1="132" y2="137.93596937762194" /><circle cx="68" cy="161" fill="black" r="2" stroke="none" transform="translate(100,400)" /><line stroke="black" stroke-width="1" transform="translate(100,400)" x1="53" x2="56.05031040857393" y1="141" y2="147.05880855034698" /><rect fill="none" height="10" stroke="black" stroke-width="1" transform="translate(100,400)" width="15" x="22" y="10" /><line stroke="black" stroke-width="1" transform="translate(100,400)" x1="90" x2="111.22259558527405" y1="167" y2="173.94981094335512" /><text font-family="Arial" font-size="14" text-anchor="middle" x="175" y="380">Option 1</text><g transform="translate(100,400)"><polygon fill="none" points="25,54 59,54 42.0,20" stroke="black" stroke-width="2" transform="rotate(134,42.0,37.0)" /><polygon fill="none" points="40,104 76,104 58.0,68" stroke="black" stroke-width="2" transform="rotate(21,58.0,86.0)" /><line stroke="black" stroke-width="2" transform="rotate(278,70.0,106.0)" x1="46" x2="94" y1="82" y2="130" /><polygon fill="none" points="105,112 141,112 123.0,76" stroke="black" stroke-width="2" transform="rotate(101,123.0,94.0)" /><rect fill="none" height="49" stroke="black" stroke-width="2" transform="rotate(205,153.5,62.5)" width="49" x="129" y="38" /><polygon fill="none" points="128,56 170,56 149.0,14" stroke="black" stroke-width="2" transform="rotate(343,149.0,35.0)" /><rect fill="none" height="49" stroke="black" stroke-width="2" transform="rotate(206,45.5,36.5)" width="49" x="21" y="12" /><line stroke="black" stroke-width="2" transform="rotate(130,84.5,139.5)" x1="66" x2="103" y1="121" y2="158" /><circle cx="38" cy="130" fill="none" r="16.0" stroke="black" stroke-width="2" /><circle cx="14" cy="105" fill="none" r="19.0" stroke="black" stroke-width="2" /></g><circle cx="162" cy="76" fill="black" r="1" stroke="none" transform="translate(350,400)" /><line stroke="black" stroke-width="1" transform="translate(350,400)" x1="52" x2="52.33301009501447" y1="110" y2="110.09344150549988" /><rect fill="none" height="15" stroke="black" stroke-width="1" transform="translate(350,400)" width="15" x="154" y="23" /><line stroke="black" stroke-width="1" transform="translate(350,400)" x1="176" x2="184.38142285164355" y1="37" y2="41.98354222868664" /><rect fill="none" height="11" stroke="black" stroke-width="1" transform="translate(350,400)" width="6" x="174" y="45" /><circle cx="60" cy="161" fill="black" r="1" stroke="none" transform="translate(350,400)" /><circle cx="28" cy="81" fill="black" r="2" stroke="none" transform="translate(350,400)" /><rect fill="none" height="6" stroke="black" stroke-width="1" transform="translate(350,400)" width="8" x="89" y="117" /><line stroke="black" stroke-width="1" transform="translate(350,400)" x1="87" x2="95.70436453967416" y1="125" y2="131.08944273554673" /><circle cx="162" cy="137" fill="black" r="3" stroke="none" transform="translate(350,400)" /><rect fill="none" height="11" stroke="black" stroke-width="1" transform="translate(350,400)" width="3" x="164" y="123" /><line stroke="black" stroke-width="1" transform="translate(350,400)" x1="98" x2="102.46608158202245" y1="42" y2="46.401411421285424" /><rect fill="none" height="9" stroke="black" stroke-width="1" transform="translate(350,400)" width="8" x="159" y="94" /><line stroke="black" stroke-width="1" transform="translate(350,400)" x1="82" x2="96.78096709454907" y1="84" y2="94.24252718014168" /><circle cx="59" cy="135" fill="black" r="3" stroke="none" transform="translate(350,400)" /><line stroke="black" stroke-width="1" transform="translate(350,400)" x1="163" x2="169.79396107556423" y1="115" y2="117.88929320324807" /><circle cx="24" cy="52" fill="black" r="2" stroke="none" transform="translate(350,400)" /><line stroke="black" stroke-width="1" transform="translate(350,400)" x1="101" x2="105.86214680710694" y1="77" y2="79.84543065165781" /><rect fill="none" height="9" stroke="black" stroke-width="1" transform="translate(350,400)" width="13" x="115" y="152" /><rect fill="none" height="13" stroke="black" stroke-width="1" transform="translate(350,400)" width="4" x="87" y="17" /><rect fill="none" height="9" stroke="black" stroke-width="1" transform="translate(350,400)" width="11" x="31" y="136" /><circle cx="106" cy="121" fill="black" r="3" stroke="none" transform="translate(350,400)" /><line stroke="black" stroke-width="1" transform="translate(350,400)" x1="147" x2="155.55289798492478" y1="155" y2="170.17771120996872" /><rect fill="none" height="4" stroke="black" stroke-width="1" transform="translate(350,400)" width="5" x="135" y="121" /><circle cx="61" cy="170" fill="black" r="3" stroke="none" transform="translate(350,400)" /><circle cx="13" cy="28" fill="black" r="1" stroke="none" transform="translate(350,400)" /><rect fill="none" height="9" stroke="black" stroke-width="1" transform="translate(350,400)" width="14" x="155" y="159" /><circle cx="146" cy="176" fill="black" r="1" stroke="none" transform="translate(350,400)" /><circle cx="170" cy="57" fill="black" r="1" stroke="none" transform="translate(350,400)" /><circle cx="24" cy="108" fill="black" r="3" stroke="none" transform="translate(350,400)" /><line stroke="black" stroke-width="1" transform="translate(350,400)" x1="93" x2="107.26008842801319" y1="101" y2="106.52358041268633" /><line stroke="black" stroke-width="1" transform="translate(350,400)" x1="80" x2="87.29524334390271" y1="72" y2="82.14638231745215" /><rect fill="none" height="10" stroke="black" stroke-width="1" transform="translate(350,400)" width="3" x="113" y="17" /><rect fill="none" height="8" stroke="black" stroke-width="1" transform="translate(350,400)" width="14" x="70" y="29" /><rect fill="none" height="14" stroke="black" stroke-width="1" transform="translate(350,400)" width="11" x="52" y="156" /><circle cx="47" cy="50" fill="black" r="3" stroke="none" transform="translate(350,400)" /><rect fill="none" height="14" stroke="black" stroke-width="1" transform="translate(350,400)" width="10" x="73" y="30" /><line stroke="black" stroke-width="1" transform="translate(350,400)" x1="66" x2="68.8993591433767" y1="162" y2="162.98716843364664" /><line stroke="black" stroke-width="1" transform="translate(350,400)" x1="67" x2="68.33876012863898" y1="162" y2="162.36850748499128" /><rect fill="none" height="6" stroke="black" stroke-width="1" transform="translate(350,400)" width="3" x="86" y="70" /><text font-family="Arial" font-size="14" text-anchor="middle" x="425" y="380">Option 2</text><g transform="translate(350,400)"><polygon fill="none" points="25,54 59,54 42.0,20" stroke="black" stroke-width="2" transform="rotate(115.88611774517149,42.0,37.0)" /><polygon fill="none" points="40,104 76,104 58.0,68" stroke="black" stroke-width="2" transform="rotate(2.886117745171493,58.0,86.0)" /><line stroke="black" stroke-width="2" transform="rotate(259.8861177451715,90.0,53.0)" x1="66" x2="114" y1="29" y2="77" /><polygon fill="none" points="105,112 141,112 123.0,76" stroke="black" stroke-width="2" transform="rotate(82.88611774517149,123.0,94.0)" /><rect fill="none" height="49" stroke="black" stroke-width="2" transform="rotate(186.8861177451715,153.5,62.5)" width="49" x="129" y="38" /><polygon fill="none" points="128,56 170,56 149.0,14" stroke="black" stroke-width="2" transform="rotate(324.8861177451715,149.0,35.0)" /><rect fill="none" height="49" stroke="black" stroke-width="2" transform="rotate(187.8861177451715,45.5,36.5)" width="49" x="21" y="12" /><line stroke="black" stroke-width="2" transform="rotate(111.88611774517149,84.5,139.5)" x1="66" x2="103" y1="121" y2="158" /><circle cx="38" cy="130" fill="none" r="16.0" stroke="black" stroke-width="2" /><circle cx="14" cy="105" fill="none" r="19.0" stroke="black" stroke-width="2" /></g><line stroke="black" stroke-width="1" transform="translate(100,650)" x1="52" x2="65.19936119453331" y1="92" y2="98.5616906796107" /><line stroke="black" stroke-width="1" transform="translate(100,650)" x1="104" x2="113.99585961416285" y1="160" y2="164.6042760349937" /><circle cx="84" cy="135" fill="black" r="3" stroke="none" transform="translate(100,650)" /><circle cx="54" cy="64" fill="black" r="3" stroke="none" transform="translate(100,650)" /><circle cx="176" cy="169" fill="black" r="3" stroke="none" transform="translate(100,650)" /><line stroke="black" stroke-width="1" transform="translate(100,650)" x1="16" x2="20.74482547100915" y1="169" y2="173.94230854979264" /><line stroke="black" stroke-width="1" transform="translate(100,650)" x1="180" x2="190.45276858140878" y1="85" y2="95.81694740564373" /><circle cx="145" cy="116" fill="black" r="3" stroke="none" transform="translate(100,650)" /><circle cx="172" cy="28" fill="black" r="3" stroke="none" transform="translate(100,650)" /><circle cx="53" cy="169" fill="black" r="2" stroke="none" transform="translate(100,650)" /><circle cx="28" cy="25" fill="black" r="2" stroke="none" transform="translate(100,650)" /><line stroke="black" stroke-width="1" transform="translate(100,650)" x1="60" x2="85.03736202838304" y1="109" y2="123.80475668493287" /><circle cx="153" cy="171" fill="black" r="2" stroke="none" transform="translate(100,650)" /><line stroke="black" stroke-width="1" transform="translate(100,650)" x1="128" x2="143.61705406776386" y1="118" y2="128.11021836996613" /><line stroke="black" stroke-width="1" transform="translate(100,650)" x1="23" x2="26.2658153486211" y1="124" y2="127.09108989663186" /><rect fill="none" height="3" stroke="black" stroke-width="1" transform="translate(100,650)" width="13" x="93" y="131" /><line stroke="black" stroke-width="1" transform="translate(100,650)" x1="14" x2="31.77323506600427" y1="159" y2="164.66330447379733" /><rect fill="none" height="11" stroke="black" stroke-width="1" transform="translate(100,650)" width="14" x="26" y="32" /><rect fill="none" height="5" stroke="black" stroke-width="1" transform="translate(100,650)" width="3" x="111" y="112" /><rect fill="none" height="10" stroke="black" stroke-width="1" transform="translate(100,650)" width="4" x="101" y="66" /><circle cx="32" cy="65" fill="black" r="2" stroke="none" transform="translate(100,650)" /><line stroke="black" stroke-width="1" transform="translate(100,650)" x1="151" x2="172.11409162771355" y1="136" y2="146.41586403626346" /><line stroke="black" stroke-width="1" transform="translate(100,650)" x1="107" x2="109.06644917988471" y1="175" y2="194.21293172961833" /><line stroke="black" stroke-width="1" transform="translate(100,650)" x1="137" x2="164.7633156910814" y1="56" y2="75.88803056608631" /><line stroke="black" stroke-width="1" transform="translate(100,650)" x1="90" x2="91.3743591530652" y1="43" y2="43.46401263309225" /><rect fill="none" height="5" stroke="black" stroke-width="1" transform="translate(100,650)" width="9" x="97" y="55" /><line stroke="black" stroke-width="1" transform="translate(100,650)" x1="143" x2="149.2572543330719" y1="43" y2="62.34066078940123" /><rect fill="none" height="14" stroke="black" stroke-width="1" transform="translate(100,650)" width="6" x="123" y="141" /><line stroke="black" stroke-width="1" transform="translate(100,650)" x1="128" x2="128.1937245862092" y1="51" y2="52.313932717623466" /><circle cx="133" cy="32" fill="black" r="2" stroke="none" transform="translate(100,650)" /><rect fill="none" height="7" stroke="black" stroke-width="1" transform="translate(100,650)" width="13" x="14" y="161" /><circle cx="75" cy="50" fill="black" r="3" stroke="none" transform="translate(100,650)" /><line stroke="black" stroke-width="1" transform="translate(100,650)" x1="167" x2="174.5134743983759" y1="82" y2="82.39308727708652" /><line stroke="black" stroke-width="1" transform="translate(100,650)" x1="80" x2="99.25878666264353" y1="29" y2="51.33899091388422" /><circle cx="176" cy="176" fill="black" r="1" stroke="none" transform="translate(100,650)" /><rect fill="none" height="7" stroke="black" stroke-width="1" transform="translate(100,650)" width="11" x="17" y="139" /><rect fill="none" height="4" stroke="black" stroke-width="1" transform="translate(100,650)" width="4" x="33" y="37" /><circle cx="69" cy="69" fill="black" r="1" stroke="none" transform="translate(100,650)" /><line stroke="black" stroke-width="1" transform="translate(100,650)" x1="49" x2="60.938485016208915" y1="60" y2="68.21273347933847" /><rect fill="none" height="8" stroke="black" stroke-width="1" transform="translate(100,650)" width="5" x="120" y="71" /><text font-family="Arial" font-size="14" text-anchor="middle" x="175" y="630">Option 3</text><g transform="translate(100,650)"><polygon fill="none" points="25,54 59,54 42.0,20" stroke="black" stroke-width="2" transform="rotate(150.32864882710965,42.0,37.0)" /><polygon fill="none" points="40,104 76,104 58.0,68" stroke="black" stroke-width="2" transform="rotate(37.32864882710963,58.0,86.0)" /><line stroke="black" stroke-width="2" transform="rotate(294.32864882710965,90.0,53.0)" x1="66" x2="114" y1="29" y2="77" /><polygon fill="none" points="105,112 141,112 123.0,76" stroke="black" stroke-width="2" transform="rotate(117.32864882710963,123.0,94.0)" /><rect fill="none" height="49" stroke="black" stroke-width="2" transform="rotate(221.32864882710965,153.5,62.5)" width="49" x="129" y="38" /><polygon fill="none" points="128,56 170,56 149.0,14" stroke="black" stroke-width="2" transform="rotate(359.32864882710965,149.0,35.0)" /><rect fill="none" height="49" stroke="black" stroke-width="2" transform="rotate(222.32864882710965,45.5,36.5)" width="49" x="21" y="12" /><line stroke="black" stroke-width="2" transform="rotate(146.32864882710965,84.5,139.5)" x1="66" x2="103" y1="121" y2="158" /><circle cx="38" cy="130" fill="none" r="16.0" stroke="black" stroke-width="2" /><circle cx="14" cy="105" fill="none" r="19.0" stroke="black" stroke-width="2" /></g><line stroke="black" stroke-width="1" transform="translate(350,650)" x1="37" x2="43.06578668917459" y1="10" y2="11.153541630067204" /><circle cx="102" cy="139" fill="black" r="3" stroke="none" transform="translate(350,650)" /><line stroke="black" stroke-width="1" transform="translate(350,650)" x1="22" x2="25.304952660772695" y1="64" y2="69.3243056402057" /><circle cx="35" cy="142" fill="black" r="2" stroke="none" transform="translate(350,650)" /><line stroke="black" stroke-width="1" transform="translate(350,650)" x1="118" x2="120.60105663890995" y1="16" y2="20.934179180656734" /><line stroke="black" stroke-width="1" transform="translate(350,650)" x1="178" x2="182.4790366180378" y1="56" y2="60.08088719846678" /><rect fill="none" height="4" stroke="black" stroke-width="1" transform="translate(350,650)" width="7" x="112" y="147" /><circle cx="79" cy="175" fill="black" r="1" stroke="none" transform="translate(350,650)" /><rect fill="none" height="6" stroke="black" stroke-width="1" transform="translate(350,650)" width="6" x="154" y="71" /><rect fill="none" height="14" stroke="black" stroke-width="1" transform="translate(350,650)" width="4" x="117" y="155" /><line stroke="black" stroke-width="1" transform="translate(350,650)" x1="112" x2="139.60162319636936" y1="16" y2="30.003518828419132" /><circle cx="99" cy="120" fill="black" r="2" stroke="none" transform="translate(350,650)" /><line stroke="black" stroke-width="1" transform="translate(350,650)" x1="58" x2="64.04520257836576" y1="112" y2="132.49173607090256" /><rect fill="none" height="11" stroke="black" stroke-width="1" transform="translate(350,650)" width="3" x="21" y="74" /><line stroke="black" stroke-width="1" transform="translate(350,650)" x1="68" x2="84.92703746943246" y1="74" y2="85.37442225645661" /><circle cx="147" cy="57" fill="black" r="2" stroke="none" transform="translate(350,650)" /><line stroke="black" stroke-width="1" transform="translate(350,650)" x1="96" x2="99.2282085061064" y1="165" y2="169.88498340493527" /><circle cx="93" cy="105" fill="black" r="1" stroke="none" transform="translate(350,650)" /><circle cx="178" cy="34" fill="black" r="3" stroke="none" transform="translate(350,650)" /><circle cx="55" cy="148" fill="black" r="1" stroke="none" transform="translate(350,650)" /><rect fill="none" height="11" stroke="black" stroke-width="1" transform="translate(350,650)" width="6" x="15" y="44" /><circle cx="141" cy="114" fill="black" r="1" stroke="none" transform="translate(350,650)" /><circle cx="146" cy="21" fill="black" r="3" stroke="none" transform="translate(350,650)" /><circle cx="179" cy="57" fill="black" r="3" stroke="none" transform="translate(350,650)" /><rect fill="none" height="5" stroke="black" stroke-width="1" transform="translate(350,650)" width="8" x="166" y="68" /><circle cx="111" cy="124" fill="black" r="1" stroke="none" transform="translate(350,650)" /><circle cx="38" cy="140" fill="black" r="2" stroke="none" transform="translate(350,650)" /><circle cx="22" cy="131" fill="black" r="2" stroke="none" transform="translate(350,650)" /><rect fill="none" height="12" stroke="black" stroke-width="1" transform="translate(350,650)" width="5" x="56" y="58" /><rect fill="none" height="8" stroke="black" stroke-width="1" transform="translate(350,650)" width="11" x="92" y="18" /><rect fill="none" height="12" stroke="black" stroke-width="1" transform="translate(350,650)" width="14" x="137" y="175" /><circle cx="69" cy="66" fill="black" r="2" stroke="none" transform="translate(350,650)" /><line stroke="black" stroke-width="1" transform="translate(350,650)" x1="50" x2="52.87379926496549" y1="141" y2="141.94674984197232" /><rect fill="none" height="15" stroke="black" stroke-width="1" transform="translate(350,650)" width="3" x="59" y="57" /><circle cx="178" cy="15" fill="black" r="2" stroke="none" transform="translate(350,650)" /><line stroke="black" stroke-width="1" transform="translate(350,650)" x1="131" x2="135.58706239248025" y1="21" y2="22.469363695977318" /><line stroke="black" stroke-width="1" transform="translate(350,650)" x1="119" x2="122.81357070573326" y1="92" y2="107.77174195885267" /><line stroke="black" stroke-width="1" transform="translate(350,650)" x1="30" x2="54.85641564848702" y1="151" y2="160.87097183993188" /><line stroke="black" stroke-width="1" transform="translate(350,650)" x1="77" x2="82.54298484133179" y1="174" y2="177.01982006335714" /><line stroke="black" stroke-width="1" transform="translate(350,650)" x1="46" x2="47.29799289840352" y1="157" y2="161.48737010265768" /><text font-family="Arial" font-size="14" text-anchor="middle" x="425" y="630">Option 4</text><g transform="translate(350,650)"><polygon fill="none" points="25,54 59,54 42.0,20" stroke="black" stroke-width="2" transform="rotate(134,42.0,37.0)" /><polygon fill="none" points="40,104 76,104 58.0,68" stroke="black" stroke-width="2" transform="rotate(21,58.0,86.0)" /><line stroke="black" stroke-width="2" transform="rotate(278,90.0,53.0)" x1="66" x2="114" y1="29" y2="77" /><polygon fill="none" points="105,112 141,112 123.0,76" stroke="black" stroke-width="2" transform="rotate(101,123.0,94.0)" /><rect fill="none" height="49" stroke="black" stroke-width="2" transform="rotate(205,153.5,62.5)" width="49" x="129" y="38" /><polygon fill="none" points="128,56 170,56 149.0,14" stroke="black" stroke-width="2" transform="rotate(343,149.0,35.0)" /><rect fill="none" height="49" stroke="black" stroke-width="2" transform="rotate(206,45.5,36.5)" width="49" x="21" y="12" /><line stroke="black" stroke-width="2" transform="rotate(130,84.5,139.5)" x1="66" x2="103" y1="121" y2="158" /><circle cx="38" cy="130" fill="none" r="16.0" stroke="black" stroke-width="2" /><circle cx="14" cy="105" fill="none" r="19.0" stroke="black" stroke-width="2" /></g></svg>