<?xml version="1.0" encoding="utf-8" ?>
<svg baseProfile="full" height="1000px" version="1.1" width="600px" xmlns="http://www.w3.org/2000/svg" xmlns:ev="http://www.w3.org/2001/xml-events" xmlns:xlink="http://www.w3.org/1999/xlink"><defs /><rect fill="white" height="100%" width="100%" x="0" y="0" /><text font-family="Arial" font-size="24" text-anchor="middle" x="300" y="40">Visual Figure Ground Test</text><text font-family="Arial" font-size="18" text-anchor="middle" x="300" y="80">Target Pattern</text><g transform="translate(200,100)"><rect fill="none" height="50" stroke="black" stroke-width="2" transform="rotate(222,158.0,70.0)" width="50" x="133" y="45" /><line stroke="black" stroke-width="2" transform="rotate(164,148.5,87.5)" x1="132" x2="165" y1="71" y2="104" /><circle cx="116" cy="44" fill="none" r="17.0" stroke="black" stroke-width="2" /><circle cx="147" cy="49" fill="none" r="24.0" stroke="black" stroke-width="2" /><polygon fill="none" points="81,152 111,152 96.0,122" stroke="black" stroke-width="2" transform="rotate(86,96.0,137.0)" /><polygon fill="none" points="24,159 69,159 46.5,114" stroke="black" stroke-width="2" transform="rotate(87,46.5,136.5)" /><polygon fill="none" points="112,56 155,56 133.5,13" stroke="black" stroke-width="2" transform="rotate(29,133.5,34.5)" /><polygon fill="none" points="94,162 127,162 110.5,129" stroke="black" stroke-width="2" transform="rotate(140,110.5,145.5)" /><rect fill="none" height="37" stroke="black" stroke-width="2" transform="rotate(281,162.5,145.5)" width="37" x="144" y="127" /><polygon fill="none" points="21,121 66,121 43.5,76" stroke="black" stroke-width="2" transform="rotate(159,43.5,98.5)" /></g><text font-family="Arial" font-size="18" text-anchor="middle" x="300" y="350">Options</text><line stroke="black" stroke-width="1" transform="translate(100,400)" x1="92" x2="116.1619332860737" y1="158" y2="178.8319661833161" /><circle cx="171" cy="55" fill="black" r="1" stroke="none" transform="translate(100,400)" /><line stroke="black" stroke-width="1" transform="translate(100,400)" x1="19" x2="21.11278246730402" y1="166" y2="167.68599118141952" /><rect fill="none" height="7" stroke="black" stroke-width="1" transform="translate(100,400)" width="8" x="154" y="83" /><line stroke="black" stroke-width="1" transform="translate(100,400)" x1="73" x2="75.53022143435453" y1="113" y2="113.49276900491863" /><line stroke="black" stroke-width="1" transform="translate(100,400)" x1="171" x2="179.17215423420177" y1="27" y2="33.54599279453612" /><line stroke="black" stroke-width="1" transform="translate(100,400)" x1="102" x2="125.17922765577126" y1="155" y2="171.60174206362015" /><circle cx="145" cy="151" fill="black" r="2" stroke="none" transform="translate(100,400)" /><rect fill="none" height="7" stroke="black" stroke-width="1" transform="translate(100,400)" width="3" x="131" y="136" /><line stroke="black" stroke-width="1" transform="translate(100,400)" x1="175" x2="176.68002485111631" y1="111" y2="114.66250558768283" /><rect fill="none" height="13" stroke="black" stroke-width="1" transform="translate(100,400)" width="15" x="57" y="92" /><rect fill="none" height="4" stroke="black" stroke-width="1" transform="translate(100,400)" width="11" x="42" y="51" /><line stroke="black" stroke-width="1" transform="translate(100,400)" x1="131" x2="134.52051441641188" y1="151" y2="151.71310919174329" /><line stroke="black" stroke-width="1" transform="translate(100,400)" x1="46" x2="71.66882479065625" y1="28" y2="34.57898816256568" /><circle cx="89" cy="146" fill="black" r="3" stroke="none" transform="translate(100,400)" /><circle cx="13" cy="175" fill="black" r="3" stroke="none" transform="translate(100,400)" /><rect fill="none" height="12" stroke="black" stroke-width="1" transform="translate(100,400)" width="9" x="41" y="149" /><circle cx="137" cy="119" fill="black" r="1" stroke="none" transform="translate(100,400)" /><rect fill="none" height="13" stroke="black" stroke-width="1" transform="translate(100,400)" width="6" x="13" y="49" /><circle cx="10" cy="33" fill="black" r="2" stroke="none" transform="translate(100,400)" /><circle cx="123" cy="10" fill="black" r="3" stroke="none" transform="translate(100,400)" /><circle cx="56" cy="16" fill="black" r="2" stroke="none" transform="translate(100,400)" /><line stroke="black" stroke-width="1" transform="translate(100,400)" x1="133" x2="142.4285745100123" y1="37" y2="37.474048749779016" /><circle cx="117" cy="33" fill="black" r="1" stroke="none" transform="translate(100,400)" /><line stroke="black" stroke-width="1" transform="translate(100,400)" x1="99" x2="108.68692413204676" y1="37" y2="49.745476634739376" /><rect fill="none" height="13" stroke="black" stroke-width="1" transform="translate(100,400)" width="4" x="143" y="24" /><circle cx="74" cy="129" fill="black" r="3" stroke="none" transform="translate(100,400)" /><rect fill="none" height="15" stroke="black" stroke-width="1" transform="translate(100,400)" width="14" x="153" y="83" /><circle cx="114" cy="142" fill="black" r="1" stroke="none" transform="translate(100,400)" /><circle cx="52" cy="135" fill="black" r="1" stroke="none" transform="translate(100,400)" /><line stroke="black" stroke-width="1" transform="translate(100,400)" x1="42" x2="42.39831985961534" y1="77" y2="83.35148925904386" /><line stroke="black" stroke-width="1" transform="translate(100,400)" x1="104" x2="104.6787132281651" y1="54" y2="56.607944528658535" /><line stroke="black" stroke-width="1" transform="translate(100,400)" x1="20" x2="44.81955740952354" y1="81" y2="102.5693449719533" /><rect fill="none" height="8" stroke="black" stroke-width="1" transform="translate(100,400)" width="8" x="111" y="40" /><line stroke="black" stroke-width="1" transform="translate(100,400)" x1="162" x2="169.91348684606942" y1="129" y2="134.41474918023394" /><circle cx="80" cy="158" fill="black" r="1" stroke="none" transform="translate(100,400)" /><rect fill="none" height="8" stroke="black" stroke-width="1" transform="translate(100,400)" width="11" x="24" y="158" /><rect fill="none" height="15" stroke="black" stroke-width="1" transform="translate(100,400)" width="3" x="51" y="67" /><line stroke="black" stroke-width="1" transform="translate(100,400)" x1="120" x2="138.59211148496016" y1="55" y2="71.7030269711111" /><circle cx="122" cy="14" fill="black" r="2" stroke="none" transform="translate(100,400)" /><text font-family="Arial" font-size="14" text-anchor="middle" x="175" y="380">Option 1</text><g transform="translate(100,400)"><rect fill="none" height="50" stroke="black" stroke-width="2" transform="rotate(222,158.0,70.0)" width="50" x="133" y="45" /><line stroke="black" stroke-width="2" transform="rotate(164,148.5,87.5)" x1="132" x2="165" y1="71" y2="104" /><circle cx="116" cy="44" fill="none" r="17.0" stroke="black" stroke-width="2" /><circle cx="147" cy="49" fill="none" r="24.0" stroke="black" stroke-width="2" /><polygon fill="none" points="81,152 111,152 96.0,122" stroke="black" stroke-width="2" transform="rotate(86,96.0,137.0)" /><polygon fill="none" points="24,159 69,159 46.5,114" stroke="black" stroke-width="2" transform="rotate(87,46.5,136.5)" /><polygon fill="none" points="112,56 155,56 133.5,13" stroke="black" stroke-width="2" transform="rotate(29,133.5,34.5)" /><polygon fill="none" points="94,162 127,162 110.5,129" stroke="black" stroke-width="2" transform="rotate(140,110.5,145.5)" /><rect fill="none" height="37" stroke="black" stroke-width="2" transform="rotate(281,162.5,145.5)" width="37" x="144" y="127" /><polygon fill="none" points="21,121 66,121 43.5,76" stroke="black" stroke-width="2" transform="rotate(159,43.5,98.5)" /></g><circle cx="30" cy="146" fill="black" r="3" stroke="none" transform="translate(350,400)" /><line stroke="black" stroke-width="1" transform="translate(350,400)" x1="28" x2="32.68307447553652" y1="81" y2="94.48924157625646" /><circle cx="113" cy="12" fill="black" r="3" stroke="none" transform="translate(350,400)" /><line stroke="black" stroke-width="1" transform="translate(350,400)" x1="108" x2="113.55637127497215" y1="131" y2="144.56062799118027" /><circle cx="138" cy="99" fill="black" r="2" stroke="none" transform="translate(350,400)" /><circle cx="131" cy="171" fill="black" r="3" stroke="none" transform="translate(350,400)" /><line stroke="black" stroke-width="1" transform="translate(350,400)" x1="117" x2="127.9596076468231" y1="46" y2="57.965149439770464" /><rect fill="none" height="11" stroke="black" stroke-width="1" transform="translate(350,400)" width="11" x="174" y="13" /><line stroke="black" stroke-width="1" transform="translate(350,400)" x1="112" x2="118.27731801000034" y1="162" y2="170.2865237812432" /><circle cx="100" cy="42" fill="black" r="1" stroke="none" transform="translate(350,400)" /><circle cx="100" cy="147" fill="black" r="2" stroke="none" transform="translate(350,400)" /><rect fill="none" height="6" stroke="black" stroke-width="1" transform="translate(350,400)" width="4" x="152" y="112" /><circle cx="119" cy="151" fill="black" r="3" stroke="none" transform="translate(350,400)" /><circle cx="91" cy="34" fill="black" r="1" stroke="none" transform="translate(350,400)" /><rect fill="none" height="3" stroke="black" stroke-width="1" transform="translate(350,400)" width="6" x="33" y="105" /><line stroke="black" stroke-width="1" transform="translate(350,400)" x1="103" x2="105.98242849042923" y1="101" y2="103.27465245464154" /><line stroke="black" stroke-width="1" transform="translate(350,400)" x1="73" x2="82.60987566658395" y1="154" y2="170.63477103848916" /><rect fill="none" height="13" stroke="black" stroke-width="1" transform="translate(350,400)" width="13" x="114" y="99" /><circle cx="99" cy="52" fill="black" r="2" stroke="none" transform="translate(350,400)" /><rect fill="none" height="4" stroke="black" stroke-width="1" transform="translate(350,400)" width="3" x="168" y="98" /><circle cx="81" cy="44" fill="black" r="2" stroke="none" transform="translate(350,400)" /><rect fill="none" height="6" stroke="black" stroke-width="1" transform="translate(350,400)" width="5" x="120" y="85" /><rect fill="none" height="13" stroke="black" stroke-width="1" transform="translate(350,400)" width="9" x="159" y="63" /><circle cx="12" cy="83" fill="black" r="1" stroke="none" transform="translate(350,400)" /><circle cx="112" cy="12" fill="black" r="2" stroke="none" transform="translate(350,400)" /><line stroke="black" stroke-width="1" transform="translate(350,400)" x1="151" x2="156.88321243673323" y1="26" y2="37.6959125094875" /><circle cx="22" cy="37" fill="black" r="1" stroke="none" transform="translate(350,400)" /><circle cx="23" cy="82" fill="black" r="2" stroke="none" transform="translate(350,400)" /><line stroke="black" stroke-width="1" transform="translate(350,400)" x1="123" x2="127.5010151731783" y1="148" y2="158.81994420055472" /><rect fill="none" height="12" stroke="black" stroke-width="1" transform="translate(350,400)" width="5" x="70" y="133" /><rect fill="none" height="13" stroke="black" stroke-width="1" transform="translate(350,400)" width="13" x="155" y="168" /><line stroke="black" stroke-width="1" transform="translate(350,400)" x1="74" x2="89.76519049804351" y1="105" y2="111.99882767957338" /><line stroke="black" stroke-width="1" transform="translate(350,400)" x1="144" x2="153.35184356397886" y1="158" y2="158.95646411238872" /><circle cx="63" cy="14" fill="black" r="1" stroke="none" transform="translate(350,400)" /><rect fill="none" height="14" stroke="black" stroke-width="1" transform="translate(350,400)" width="11" x="165" y="47" /><line stroke="black" stroke-width="1" transform="translate(350,400)" x1="46" x2="57.70226066033152" y1="150" y2="151.97821754079655" /><rect fill="none" height="7" stroke="black" stroke-width="1" transform="translate(350,400)" width="13" x="108" y="39" /><line stroke="black" stroke-width="1" transform="translate(350,400)" x1="165" x2="175.5522043206757" y1="158" y2="172.3081430112013" /><rect fill="none" height="12" stroke="black" stroke-width="1" transform="translate(350,400)" width="14" x="34" y="28" /><line stroke="black" stroke-width="1" transform="translate(350,400)" x1="15" x2="40.068423627894546" y1="110" y2="118.30045216617971" /><text font-family="Arial" font-size="14" text-anchor="middle" x="425" y="380">Option 2</text><g transform="translate(350,400)"><rect fill="none" height="50" stroke="black" stroke-width="2" transform="rotate(206.81827285183758,158.0,70.0)" width="50" x="133" y="45" /><line stroke="black" stroke-width="2" transform="rotate(148.81827285183758,148.5,87.5)" x1="132" x2="165" y1="71" y2="104" /><circle cx="116" cy="44" fill="none" r="17.0" stroke="black" stroke-width="2" /><circle cx="147" cy="49" fill="none" r="24.0" stroke="black" stroke-width="2" /><polygon fill="none" points="81,152 111,152 96.0,122" stroke="black" stroke-width="2" transform="rotate(70.81827285183758,96.0,137.0)" /><polygon fill="none" points="24,159 69,159 46.5,114" stroke="black" stroke-width="2" transform="rotate(71.81827285183758,46.5,136.5)" /><polygon fill="none" points="112,56 155,56 133.5,13" stroke="black" stroke-width="2" transform="rotate(13.818272851837573,133.5,34.5)" /><polygon fill="none" points="94,162 127,162 110.5,129" stroke="black" stroke-width="2" transform="rotate(124.81827285183758,110.5,145.5)" /><rect fill="none" height="37" stroke="black" stroke-width="2" transform="rotate(265.81827285183755,162.5,145.5)" width="37" x="144" y="127" /><polygon fill="none" points="21,121 66,121 43.5,76" stroke="black" stroke-width="2" transform="rotate(143.81827285183758,43.5,98.5)" /></g><circle cx="10" cy="108" fill="black" r="2" stroke="none" transform="translate(100,650)" /><circle cx="141" cy="109" fill="black" r="2" stroke="none" transform="translate(100,650)" /><rect fill="none" height="9" stroke="black" stroke-width="1" transform="translate(100,650)" width="7" x="34" y="12" /><line stroke="black" stroke-width="1" transform="translate(100,650)" x1="157" x2="158.454423463177" y1="18" y2="23.284714195131066" /><rect fill="none" height="5" stroke="black" stroke-width="1" transform="translate(100,650)" width="8" x="107" y="79" /><rect fill="none" height="10" stroke="black" stroke-width="1" transform="translate(100,650)" width="15" x="175" y="139" /><circle cx="86" cy="157" fill="black" r="2" stroke="none" transform="translate(100,650)" /><line stroke="black" stroke-width="1" transform="translate(100,650)" x1="20" x2="21.16951194918189" y1="100" y2="115.5059601909787" /><rect fill="none" height="14" stroke="black" stroke-width="1" transform="translate(100,650)" width="14" x="88" y="138" /><line stroke="black" stroke-width="1" transform="translate(100,650)" x1="86" x2="92.84977998445339" y1="14" y2="25.16922833280115" /><circle cx="42" cy="178" fill="black" r="1" stroke="none" transform="translate(100,650)" /><circle cx="53" cy="40" fill="black" r="3" stroke="none" transform="translate(100,650)" /><rect fill="none" height="3" stroke="black" stroke-width="1" transform="translate(100,650)" width="10" x="59" y="17" /><rect fill="none" height="11" stroke="black" stroke-width="1" transform="translate(100,650)" width="11" x="50" y="47" /><rect fill="none" height="5" stroke="black" stroke-width="1" transform="translate(100,650)" width="7" x="180" y="145" /><line stroke="black" stroke-width="1" transform="translate(100,650)" x1="150" x2="174.30951957821495" y1="113" y2="124.67202362840072" /><rect fill="none" height="4" stroke="black" stroke-width="1" transform="translate(100,650)" width="8" x="172" y="106" /><circle cx="77" cy="34" fill="black" r="3" stroke="none" transform="translate(100,650)" /><circle cx="170" cy="159" fill="black" r="3" stroke="none" transform="translate(100,650)" /><line stroke="black" stroke-width="1" transform="translate(100,650)" x1="113" x2="126.22312825853929" y1="114" y2="124.99036030201547" /><rect fill="none" height="3" stroke="black" stroke-width="1" transform="translate(100,650)" width="7" x="10" y="174" /><circle cx="138" cy="47" fill="black" r="3" stroke="none" transform="translate(100,650)" /><circle cx="104" cy="71" fill="black" r="3" stroke="none" transform="translate(100,650)" /><circle cx="26" cy="28" fill="black" r="1" stroke="none" transform="translate(100,650)" /><circle cx="158" cy="120" fill="black" r="1" stroke="none" transform="translate(100,650)" /><circle cx="35" cy="92" fill="black" r="2" stroke="none" transform="translate(100,650)" /><rect fill="none" height="8" stroke="black" stroke-width="1" transform="translate(100,650)" width="14" x="63" y="67" /><line stroke="black" stroke-width="1" transform="translate(100,650)" x1="76" x2="90.64679825495716" y1="62" y2="68.2262590386111" /><line stroke="black" stroke-width="1" transform="translate(100,650)" x1="38" x2="40.064749804732095" y1="53" y2="60.184824446865015" /><circle cx="179" cy="160" fill="black" r="2" stroke="none" transform="translate(100,650)" /><circle cx="28" cy="97" fill="black" r="3" stroke="none" transform="translate(100,650)" /><line stroke="black" stroke-width="1" transform="translate(100,650)" x1="112" x2="129.36923519350668" y1="54" y2="68.25659109499276" /><rect fill="none" height="6" stroke="black" stroke-width="1" transform="translate(100,650)" width="9" x="88" y="88" /><line stroke="black" stroke-width="1" transform="translate(100,650)" x1="52" x2="56.26666838271088" y1="156" y2="171.6076547309455" /><line stroke="black" stroke-width="1" transform="translate(100,650)" x1="101" x2="112.04723571688355" y1="165" y2="167.05202744110983" /><rect fill="none" height="12" stroke="black" stroke-width="1" transform="translate(100,650)" width="4" x="37" y="161" /><circle cx="161" cy="106" fill="black" r="2" stroke="none" transform="translate(100,650)" /><circle cx="13" cy="10" fill="black" r="2" stroke="none" transform="translate(100,650)" /><line stroke="black" stroke-width="1" transform="translate(100,650)" x1="16" x2="17.029399684113198" y1="122" y2="127.86693816557126" /><line stroke="black" stroke-width="1" transform="translate(100,650)" x1="79" x2="98.55108004164619" y1="58" y2="77.86505102701062" /><text font-family="Arial" font-size="14" text-anchor="middle" x="175" y="630">Option 3</text><g transform="translate(100,650)"><rect fill="none" height="50" stroke="black" stroke-width="2" transform="rotate(237.180444191659,158.0,70.0)" width="50" x="133" y="45" /><line stroke="black" stroke-width="2" transform="rotate(179.180444191659,148.5,87.5)" x1="132" x2="165" y1="71" y2="104" /><circle cx="116" cy="44" fill="none" r="17.0" stroke="black" stroke-width="2" /><circle cx="147" cy="49" fill="none" r="24.0" stroke="black" stroke-width="2" /><polygon fill="none" points="81,152 111,152 96.0,122" stroke="black" stroke-width="2" transform="rotate(101.180444191659,96.0,137.0)" /><polygon fill="none" points="24,159 69,159 46.5,114" stroke="black" stroke-width="2" transform="rotate(102.180444191659,46.5,136.5)" /><polygon fill="none" points="112,56 155,56 133.5,13" stroke="black" stroke-width="2" transform="rotate(44.18044419165901,133.5,34.5)" /><polygon fill="none" points="94,162 127,162 110.5,129" stroke="black" stroke-width="2" transform="rotate(155.180444191659,110.5,145.5)" /><rect fill="none" height="37" stroke="black" stroke-width="2" transform="rotate(296.180444191659,162.5,145.5)" width="37" x="144" y="127" /><polygon fill="none" points="21,121 66,121 43.5,76" stroke="black" stroke-width="2" transform="rotate(174.180444191659,43.5,98.5)" /></g><rect fill="none" height="11" stroke="black" stroke-width="1" transform="translate(350,650)" width="13" x="163" y="180" /><circle cx="47" cy="109" fill="black" r="2" stroke="none" transform="translate(350,650)" /><line stroke="black" stroke-width="1" transform="translate(350,650)" x1="61" x2="65.60716087994035" y1="16" y2="26.188895281827975" /><rect fill="none" height="4" stroke="black" stroke-width="1" transform="translate(350,650)" width="14" x="54" y="19" /><rect fill="none" height="6" stroke="black" stroke-width="1" transform="translate(350,650)" width="8" x="180" y="129" /><circle cx="31" cy="155" fill="black" r="3" stroke="none" transform="translate(350,650)" /><line stroke="black" stroke-width="1" transform="translate(350,650)" x1="96" x2="100.31140511982221" y1="71" y2="75.660809999984" /><rect fill="none" height="11" stroke="black" stroke-width="1" transform="translate(350,650)" width="4" x="14" y="165" /><circle cx="28" cy="179" fill="black" r="3" stroke="none" transform="translate(350,650)" /><line stroke="black" stroke-width="1" transform="translate(350,650)" x1="135" x2="135.345147298138" y1="106" y2="113.29961262797079" /><line stroke="black" stroke-width="1" transform="translate(350,650)" x1="47" x2="51.321466036824475" y1="111" y2="123.36658650955275" /><circle cx="88" cy="157" fill="black" r="1" stroke="none" transform="translate(350,650)" /><rect fill="none" height="4" stroke="black" stroke-width="1" transform="translate(350,650)" width="3" x="115" y="51" /><line stroke="black" stroke-width="1" transform="translate(350,650)" x1="43" x2="44.32249047070306" y1="157" y2="175.80620834467032" /><rect fill="none" height="3" stroke="black" stroke-width="1" transform="translate(350,650)" width="12" x="173" y="66" /><line stroke="black" stroke-width="1" transform="translate(350,650)" x1="163" x2="164.90656448545906" y1="103" y2="109.17766540401293" /><line stroke="black" stroke-width="1" transform="translate(350,650)" x1="108" x2="127.44971993054526" y1="129" y2="145.44086703065736" /><line stroke="black" stroke-width="1" transform="translate(350,650)" x1="117" x2="121.97726861061675" y1="121" y2="126.23043644753066" /><line stroke="black" stroke-width="1" transform="translate(350,650)" x1="57" x2="64.05088275037238" y1="164" y2="178.57751745237172" /><circle cx="36" cy="143" fill="black" r="1" stroke="none" transform="translate(350,650)" /><rect fill="none" height="11" stroke="black" stroke-width="1" transform="translate(350,650)" width="6" x="11" y="127" /><rect fill="none" height="11" stroke="black" stroke-width="1" transform="translate(350,650)" width="12" x="153" y="13" /><rect fill="none" height="7" stroke="black" stroke-width="1" transform="translate(350,650)" width="12" x="22" y="114" /><rect fill="none" height="9" stroke="black" stroke-width="1" transform="translate(350,650)" width="11" x="150" y="102" /><circle cx="179" cy="132" fill="black" r="1" stroke="none" transform="translate(350,650)" /><circle cx="153" cy="54" fill="black" r="2" stroke="none" transform="translate(350,650)" /><line stroke="black" stroke-width="1" transform="translate(350,650)" x1="70" x2="76.93128108044249" y1="106" y2="112.7575077493935" /><line stroke="black" stroke-width="1" transform="translate(350,650)" x1="45" x2="57.85949329401827" y1="154" y2="170.11042949949825" /><circle cx="94" cy="129" fill="black" r="2" stroke="none" transform="translate(350,650)" /><line stroke="black" stroke-width="1" transform="translate(350,650)" x1="18" x2="36.79917436761138" y1="52" y2="65.52554860328055" /><line stroke="black" stroke-width="1" transform="translate(350,650)" x1="169" x2="169.87524992211362" y1="172" y2="173.63880248299938" /><rect fill="none" height="3" stroke="black" stroke-width="1" transform="translate(350,650)" width="10" x="90" y="162" /><rect fill="none" height="6" stroke="black" stroke-width="1" transform="translate(350,650)" width="9" x="123" y="66" /><rect fill="none" height="13" stroke="black" stroke-width="1" transform="translate(350,650)" width="13" x="145" y="55" /><circle cx="177" cy="118" fill="black" r="3" stroke="none" transform="translate(350,650)" /><rect fill="none" height="10" stroke="black" stroke-width="1" transform="translate(350,650)" width="4" x="132" y="131" /><line stroke="black" stroke-width="1" transform="translate(350,650)" x1="157" x2="160.16669650435352" y1="41" y2="60.39164047215124" /><circle cx="147" cy="21" fill="black" r="2" stroke="none" transform="translate(350,650)" /><circle cx="66" cy="163" fill="black" r="2" stroke="none" transform="translate(350,650)" /><line stroke="black" stroke-width="1" transform="translate(350,650)" x1="85" x2="96.68414415656599" y1="141" y2="143.8147591818672" /><text font-family="Arial" font-size="14" text-anchor="middle" x="425" y="630">Option 4</text><g transform="translate(350,650)"><rect fill="none" height="50" stroke="black" stroke-width="2" transform="rotate(204.42376225758372,158.0,70.0)" width="50" x="133" y="45" /><line stroke="black" stroke-width="2" transform="rotate(146.42376225758372,77.5,47.5)" x1="61" x2="94" y1="31" y2="64" /><circle cx="116" cy="44" fill="none" r="17.0" stroke="black" stroke-width="2" /><circle cx="147" cy="49" fill="none" r="24.0" stroke="black" stroke-width="2" /><polygon fill="none" points="81,152 111,152 96.0,122" stroke="black" stroke-width="2" transform="rotate(68.42376225758372,96.0,137.0)" /><polygon fill="none" points="24,159 69,159 46.5,114" stroke="black" stroke-width="2" transform="rotate(69.42376225758372,46.5,136.5)" /><polygon fill="none" points="112,56 155,56 133.5,13" stroke="black" stroke-width="2" transform="rotate(11.423762257583718,133.5,34.5)" /><polygon fill="none" points="131,116 164,116 147.5,83" stroke="black" stroke-width="2" transform="rotate(122.42376225758372,147.5,99.5)" /><rect fill="none" height="37" stroke="black" stroke-width="2" transform="rotate(263.4237622575837,162.5,145.5)" width="37" x="144" y="127" /><polygon fill="none" points="21,121 66,121 43.5,76" stroke="black" stroke-width="2" transform="rotate(141.42376225758372,43.5,98.5)" /></g></svg>