<?xml version="1.0" encoding="utf-8" ?>
<svg baseProfile="full" height="1000px" version="1.1" width="600px" xmlns="http://www.w3.org/2000/svg" xmlns:ev="http://www.w3.org/2001/xml-events" xmlns:xlink="http://www.w3.org/1999/xlink"><defs /><rect fill="white" height="100%" width="100%" x="0" y="0" /><text font-family="Arial" font-size="24" text-anchor="middle" x="300" y="40">Visual Figure Ground Test</text><text font-family="Arial" font-size="18" text-anchor="middle" x="300" y="80">Target Pattern</text><g transform="translate(200,100)"><polygon fill="none" points="36,64 79,64 57.5,21" stroke="black" stroke-width="2" transform="rotate(199,57.5,42.5)" /><rect fill="none" height="30" stroke="black" stroke-width="2" transform="rotate(338,109.0,62.0)" width="30" x="94" y="47" /><rect fill="none" height="33" stroke="black" stroke-width="2" transform="rotate(275,36.5,140.5)" width="33" x="20" y="124" /><circle cx="72" cy="21" fill="none" r="24.0" stroke="black" stroke-width="2" /><circle cx="94" cy="88" fill="none" r="19.5" stroke="black" stroke-width="2" /><polygon fill="none" points="66,153 115,153 90.5,104" stroke="black" stroke-width="2" transform="rotate(254,90.5,128.5)" /><polygon fill="none" points="61,101 100,101 80.5,62" stroke="black" stroke-width="2" transform="rotate(299,80.5,81.5)" /><rect fill="none" height="48" stroke="black" stroke-width="2" transform="rotate(231,42.0,46.0)" width="48" x="18" y="22" /><circle cx="101" cy="72" fill="none" r="25.0" stroke="black" stroke-width="2" /><polygon fill="none" points="97,164 139,164 118.0,122" stroke="black" stroke-width="2" transform="rotate(141,118.0,143.0)" /></g><text font-family="Arial" font-size="18" text-anchor="middle" x="300" y="350">Options</text><line stroke="black" stroke-width="1" transform="translate(100,400)" x1="111" x2="119.6862333578059" y1="157" y2="157.83561559950053" /><line stroke="black" stroke-width="1" transform="translate(100,400)" x1="171" x2="176.37312172250765" y1="92" y2="114.93445302258027" /><rect fill="none" height="9" stroke="black" stroke-width="1" transform="translate(100,400)" width="12" x="177" y="30" /><circle cx="22" cy="124" fill="black" r="2" stroke="none" transform="translate(100,400)" /><line stroke="black" stroke-width="1" transform="translate(100,400)" x1="180" x2="183.5505322718432" y1="177" y2="183.36573812470226" /><circle cx="176" cy="154" fill="black" r="3" stroke="none" transform="translate(100,400)" /><rect fill="none" height="7" stroke="black" stroke-width="1" transform="translate(100,400)" width="15" x="162" y="51" /><circle cx="44" cy="132" fill="black" r="1" stroke="none" transform="translate(100,400)" /><rect fill="none" height="3" stroke="black" stroke-width="1" transform="translate(100,400)" width="5" x="41" y="34" /><rect fill="none" height="15" stroke="black" stroke-width="1" transform="translate(100,400)" width="9" x="179" y="33" /><rect fill="none" height="7" stroke="black" stroke-width="1" transform="translate(100,400)" width="3" x="27" y="145" /><line stroke="black" stroke-width="1" transform="translate(100,400)" x1="25" x2="28.88569037902461" y1="111" y2="116.47400077258095" /><circle cx="82" cy="32" fill="black" r="3" stroke="none" transform="translate(100,400)" /><circle cx="36" cy="40" fill="black" r="1" stroke="none" transform="translate(100,400)" /><rect fill="none" height="14" stroke="black" stroke-width="1" transform="translate(100,400)" width="4" x="96" y="27" /><rect fill="none" height="4" stroke="black" stroke-width="1" transform="translate(100,400)" width="10" x="54" y="75" /><circle cx="77" cy="172" fill="black" r="3" stroke="none" transform="translate(100,400)" /><rect fill="none" height="11" stroke="black" stroke-width="1" transform="translate(100,400)" width="10" x="63" y="150" /><circle cx="179" cy="52" fill="black" r="3" stroke="none" transform="translate(100,400)" /><rect fill="none" height="15" stroke="black" stroke-width="1" transform="translate(100,400)" width="5" x="43" y="39" /><line stroke="black" stroke-width="1" transform="translate(100,400)" x1="108" x2="110.20830727144221" y1="89" y2="102.07262429898861" /><rect fill="none" height="13" stroke="black" stroke-width="1" transform="translate(100,400)" width="12" x="70" y="129" /><line stroke="black" stroke-width="1" transform="translate(100,400)" x1="16" x2="20.9276613476082" y1="113" y2="113.5690380083611" /><rect fill="none" height="4" stroke="black" stroke-width="1" transform="translate(100,400)" width="13" x="15" y="116" /><line stroke="black" stroke-width="1" transform="translate(100,400)" x1="139" x2="139.7120321098291" y1="11" y2="31.03452627968528" /><line stroke="black" stroke-width="1" transform="translate(100,400)" x1="29" x2="39.50656623728507" y1="88" y2="92.48640422568937" /><line stroke="black" stroke-width="1" transform="translate(100,400)" x1="58" x2="67.36061643362635" y1="20" y2="38.868590993383506" /><line stroke="black" stroke-width="1" transform="translate(100,400)" x1="85" x2="87.92351281066588" y1="82" y2="91.18371303357365" /><circle cx="62" cy="59" fill="black" r="2" stroke="none" transform="translate(100,400)" /><circle cx="78" cy="117" fill="black" r="1" stroke="none" transform="translate(100,400)" /><rect fill="none" height="8" stroke="black" stroke-width="1" transform="translate(100,400)" width="15" x="80" y="126" /><line stroke="black" stroke-width="1" transform="translate(100,400)" x1="26" x2="37.159334683715265" y1="141" y2="159.13328555449152" /><line stroke="black" stroke-width="1" transform="translate(100,400)" x1="19" x2="36.20738499108499" y1="108" y2="116.54725135115923" /><circle cx="134" cy="39" fill="black" r="2" stroke="none" transform="translate(100,400)" /><line stroke="black" stroke-width="1" transform="translate(100,400)" x1="141" x2="148.66794581310762" y1="90" y2="94.95340149908348" /><line stroke="black" stroke-width="1" transform="translate(100,400)" x1="129" x2="153.8901211268394" y1="31" y2="34.91607159102155" /><circle cx="178" cy="123" fill="black" r="3" stroke="none" transform="translate(100,400)" /><rect fill="none" height="4" stroke="black" stroke-width="1" transform="translate(100,400)" width="13" x="19" y="72" /><rect fill="none" height="5" stroke="black" stroke-width="1" transform="translate(100,400)" width="12" x="57" y="141" /><rect fill="none" height="15" stroke="black" stroke-width="1" transform="translate(100,400)" width="12" x="146" y="136" /><text font-family="Arial" font-size="14" text-anchor="middle" x="175" y="380">Option 1</text><g transform="translate(100,400)"><polygon fill="none" points="36,64 79,64 57.5,21" stroke="black" stroke-width="2" transform="rotate(199,57.5,42.5)" /><rect fill="none" height="30" stroke="black" stroke-width="2" transform="rotate(338,109.0,62.0)" width="30" x="94" y="47" /><rect fill="none" height="33" stroke="black" stroke-width="2" transform="rotate(275,36.5,140.5)" width="33" x="20" y="124" /><circle cx="33" cy="92" fill="none" r="24.0" stroke="black" stroke-width="2" /><circle cx="94" cy="88" fill="none" r="19.5" stroke="black" stroke-width="2" /><polygon fill="none" points="66,153 115,153 90.5,104" stroke="black" stroke-width="2" transform="rotate(254,90.5,128.5)" /><polygon fill="none" points="61,101 100,101 80.5,62" stroke="black" stroke-width="2" transform="rotate(299,80.5,81.5)" /><rect fill="none" height="48" stroke="black" stroke-width="2" transform="rotate(231,79.0,84.0)" width="48" x="55" y="60" /><circle cx="101" cy="72" fill="none" r="25.0" stroke="black" stroke-width="2" /><polygon fill="none" points="97,164 139,164 118.0,122" stroke="black" stroke-width="2" transform="rotate(141,118.0,143.0)" /></g><circle cx="85" cy="20" fill="black" r="3" stroke="none" transform="translate(350,400)" /><rect fill="none" height="7" stroke="black" stroke-width="1" transform="translate(350,400)" width="7" x="12" y="35" /><rect fill="none" height="3" stroke="black" stroke-width="1" transform="translate(350,400)" width="4" x="150" y="145" /><rect fill="none" height="4" stroke="black" stroke-width="1" transform="translate(350,400)" width="9" x="105" y="138" /><circle cx="128" cy="179" fill="black" r="2" stroke="none" transform="translate(350,400)" /><line stroke="black" stroke-width="1" transform="translate(350,400)" x1="143" x2="146.57788458933035" y1="162" y2="166.2041579856591" /><circle cx="159" cy="172" fill="black" r="1" stroke="none" transform="translate(350,400)" /><rect fill="none" height="6" stroke="black" stroke-width="1" transform="translate(350,400)" width="5" x="149" y="28" /><circle cx="142" cy="45" fill="black" r="1" stroke="none" transform="translate(350,400)" /><circle cx="145" cy="105" fill="black" r="3" stroke="none" transform="translate(350,400)" /><circle cx="58" cy="98" fill="black" r="2" stroke="none" transform="translate(350,400)" /><rect fill="none" height="14" stroke="black" stroke-width="1" transform="translate(350,400)" width="4" x="97" y="19" /><line stroke="black" stroke-width="1" transform="translate(350,400)" x1="106" x2="109.84494538867371" y1="36" y2="43.06683571148671" /><circle cx="49" cy="157" fill="black" r="2" stroke="none" transform="translate(350,400)" /><rect fill="none" height="11" stroke="black" stroke-width="1" transform="translate(350,400)" width="10" x="163" y="61" /><circle cx="67" cy="153" fill="black" r="2" stroke="none" transform="translate(350,400)" /><circle cx="150" cy="132" fill="black" r="2" stroke="none" transform="translate(350,400)" /><line stroke="black" stroke-width="1" transform="translate(350,400)" x1="97" x2="105.21333741761164" y1="111" y2="115.85457362391438" /><rect fill="none" height="13" stroke="black" stroke-width="1" transform="translate(350,400)" width="13" x="95" y="178" /><circle cx="169" cy="59" fill="black" r="1" stroke="none" transform="translate(350,400)" /><line stroke="black" stroke-width="1" transform="translate(350,400)" x1="120" x2="129.70337432884673" y1="43" y2="58.87433981760007" /><circle cx="180" cy="115" fill="black" r="1" stroke="none" transform="translate(350,400)" /><circle cx="59" cy="104" fill="black" r="1" stroke="none" transform="translate(350,400)" /><line stroke="black" stroke-width="1" transform="translate(350,400)" x1="39" x2="44.25662812650698" y1="62" y2="62.255080186452744" /><circle cx="108" cy="108" fill="black" r="3" stroke="none" transform="translate(350,400)" /><circle cx="116" cy="142" fill="black" r="3" stroke="none" transform="translate(350,400)" /><line stroke="black" stroke-width="1" transform="translate(350,400)" x1="176" x2="184.024103505986" y1="168" y2="176.0627627971708" /><rect fill="none" height="11" stroke="black" stroke-width="1" transform="translate(350,400)" width="8" x="109" y="37" /><rect fill="none" height="9" stroke="black" stroke-width="1" transform="translate(350,400)" width="13" x="17" y="158" /><line stroke="black" stroke-width="1" transform="translate(350,400)" x1="38" x2="52.783982191855344" y1="135" y2="149.5010252860891" /><rect fill="none" height="14" stroke="black" stroke-width="1" transform="translate(350,400)" width="15" x="34" y="162" /><line stroke="black" stroke-width="1" transform="translate(350,400)" x1="73" x2="86.66375533330589" y1="159" y2="182.0460277086188" /><circle cx="38" cy="39" fill="black" r="3" stroke="none" transform="translate(350,400)" /><line stroke="black" stroke-width="1" transform="translate(350,400)" x1="159" x2="169.8774355777747" y1="30" y2="38.0649298773986" /><rect fill="none" height="12" stroke="black" stroke-width="1" transform="translate(350,400)" width="13" x="97" y="12" /><circle cx="83" cy="128" fill="black" r="3" stroke="none" transform="translate(350,400)" /><line stroke="black" stroke-width="1" transform="translate(350,400)" x1="17" x2="28.322313122525944" y1="62" y2="69.51334454778565" /><circle cx="99" cy="176" fill="black" r="3" stroke="none" transform="translate(350,400)" /><rect fill="none" height="9" stroke="black" stroke-width="1" transform="translate(350,400)" width="13" x="66" y="47" /><line stroke="black" stroke-width="1" transform="translate(350,400)" x1="107" x2="120.97801971693687" y1="180" y2="191.58401857724874" /><text font-family="Arial" font-size="14" text-anchor="middle" x="425" y="380">Option 2</text><g transform="translate(350,400)"><polygon fill="none" points="36,64 79,64 57.5,21" stroke="black" stroke-width="2" transform="rotate(217.13726323273985,57.5,42.5)" /><rect fill="none" height="30" stroke="black" stroke-width="2" transform="rotate(356.1372632327399,109.0,62.0)" width="30" x="94" y="47" /><rect fill="none" height="33" stroke="black" stroke-width="2" transform="rotate(293.1372632327399,36.5,140.5)" width="33" x="20" y="124" /><circle cx="72" cy="21" fill="none" r="24.0" stroke="black" stroke-width="2" /><circle cx="94" cy="88" fill="none" r="19.5" stroke="black" stroke-width="2" /><polygon fill="none" points="66,153 115,153 90.5,104" stroke="black" stroke-width="2" transform="rotate(272.1372632327399,90.5,128.5)" /><polygon fill="none" points="61,101 100,101 80.5,62" stroke="black" stroke-width="2" transform="rotate(317.1372632327399,80.5,81.5)" /><rect fill="none" height="48" stroke="black" stroke-width="2" transform="rotate(249.13726323273985,42.0,46.0)" width="48" x="18" y="22" /><circle cx="101" cy="72" fill="none" r="25.0" stroke="black" stroke-width="2" /><polygon fill="none" points="97,164 139,164 118.0,122" stroke="black" stroke-width="2" transform="rotate(159.13726323273985,118.0,143.0)" /></g><rect fill="none" height="5" stroke="black" stroke-width="1" transform="translate(100,650)" width="9" x="172" y="53" /><line stroke="black" stroke-width="1" transform="translate(100,650)" x1="137" x2="143.3544908038251" y1="60" y2="65.85595271950315" /><line stroke="black" stroke-width="1" transform="translate(100,650)" x1="72" x2="83.27731361747617" y1="84" y2="97.13797780998453" /><line stroke="black" stroke-width="1" transform="translate(100,650)" x1="31" x2="43.27431127359927" y1="103" y2="112.88944488633521" /><line stroke="black" stroke-width="1" transform="translate(100,650)" x1="35" x2="38.5368881710845" y1="98" y2="101.14273497473074" /><line stroke="black" stroke-width="1" transform="translate(100,650)" x1="132" x2="132.6888123511328" y1="176" y2="181.88237682707512" /><circle cx="40" cy="94" fill="black" r="2" stroke="none" transform="translate(100,650)" /><circle cx="54" cy="80" fill="black" r="3" stroke="none" transform="translate(100,650)" /><circle cx="157" cy="15" fill="black" r="2" stroke="none" transform="translate(100,650)" /><circle cx="47" cy="34" fill="black" r="2" stroke="none" transform="translate(100,650)" /><circle cx="53" cy="120" fill="black" r="1" stroke="none" transform="translate(100,650)" /><rect fill="none" height="9" stroke="black" stroke-width="1" transform="translate(100,650)" width="4" x="121" y="67" /><rect fill="none" height="12" stroke="black" stroke-width="1" transform="translate(100,650)" width="5" x="37" y="162" /><rect fill="none" height="3" stroke="black" stroke-width="1" transform="translate(100,650)" width="14" x="13" y="109" /><line stroke="black" stroke-width="1" transform="translate(100,650)" x1="94" x2="101.63450845364055" y1="120" y2="135.1097464985737" /><circle cx="180" cy="49" fill="black" r="1" stroke="none" transform="translate(100,650)" /><line stroke="black" stroke-width="1" transform="translate(100,650)" x1="85" x2="100.2701965584953" y1="34" y2="44.60694488052816" /><circle cx="125" cy="63" fill="black" r="3" stroke="none" transform="translate(100,650)" /><circle cx="142" cy="132" fill="black" r="3" stroke="none" transform="translate(100,650)" /><line stroke="black" stroke-width="1" transform="translate(100,650)" x1="169" x2="169.0968993590791" y1="128" y2="148.83297343662048" /><rect fill="none" height="9" stroke="black" stroke-width="1" transform="translate(100,650)" width="7" x="98" y="23" /><line stroke="black" stroke-width="1" transform="translate(100,650)" x1="78" x2="88.05142698158973" y1="103" y2="123.13037118737181" /><circle cx="121" cy="72" fill="black" r="3" stroke="none" transform="translate(100,650)" /><line stroke="black" stroke-width="1" transform="translate(100,650)" x1="70" x2="72.11990835504606" y1="52" y2="54.0248953139675" /><rect fill="none" height="9" stroke="black" stroke-width="1" transform="translate(100,650)" width="4" x="16" y="137" /><rect fill="none" height="8" stroke="black" stroke-width="1" transform="translate(100,650)" width="9" x="172" y="100" /><circle cx="42" cy="82" fill="black" r="3" stroke="none" transform="translate(100,650)" /><circle cx="34" cy="125" fill="black" r="1" stroke="none" transform="translate(100,650)" /><line stroke="black" stroke-width="1" transform="translate(100,650)" x1="155" x2="162.38518952105045" y1="103" y2="113.99216273228836" /><circle cx="150" cy="161" fill="black" r="2" stroke="none" transform="translate(100,650)" /><circle cx="20" cy="94" fill="black" r="3" stroke="none" transform="translate(100,650)" /><rect fill="none" height="12" stroke="black" stroke-width="1" transform="translate(100,650)" width="14" x="179" y="15" /><rect fill="none" height="15" stroke="black" stroke-width="1" transform="translate(100,650)" width="10" x="123" y="30" /><line stroke="black" stroke-width="1" transform="translate(100,650)" x1="34" x2="52.62512384785258" y1="158" y2="172.12992949388024" /><rect fill="none" height="14" stroke="black" stroke-width="1" transform="translate(100,650)" width="6" x="50" y="117" /><rect fill="none" height="12" stroke="black" stroke-width="1" transform="translate(100,650)" width="7" x="18" y="13" /><rect fill="none" height="9" stroke="black" stroke-width="1" transform="translate(100,650)" width="11" x="72" y="136" /><circle cx="75" cy="18" fill="black" r="3" stroke="none" transform="translate(100,650)" /><circle cx="121" cy="15" fill="black" r="1" stroke="none" transform="translate(100,650)" /><circle cx="117" cy="12" fill="black" r="3" stroke="none" transform="translate(100,650)" /><text font-family="Arial" font-size="14" text-anchor="middle" x="175" y="630">Option 3</text><g transform="translate(100,650)"><polygon fill="none" points="36,64 79,64 57.5,21" stroke="black" stroke-width="2" transform="rotate(179.1220377302944,57.5,42.5)" /><rect fill="none" height="30" stroke="black" stroke-width="2" transform="rotate(318.1220377302944,109.0,62.0)" width="30" x="94" y="47" /><rect fill="none" height="33" stroke="black" stroke-width="2" transform="rotate(255.1220377302944,36.5,140.5)" width="33" x="20" y="124" /><circle cx="72" cy="21" fill="none" r="24.0" stroke="black" stroke-width="2" /><circle cx="94" cy="88" fill="none" r="19.5" stroke="black" stroke-width="2" /><polygon fill="none" points="66,153 115,153 90.5,104" stroke="black" stroke-width="2" transform="rotate(234.1220377302944,90.5,128.5)" /><polygon fill="none" points="61,101 100,101 80.5,62" stroke="black" stroke-width="2" transform="rotate(279.1220377302944,80.5,81.5)" /><rect fill="none" height="48" stroke="black" stroke-width="2" transform="rotate(211.1220377302944,42.0,46.0)" width="48" x="18" y="22" /><circle cx="101" cy="72" fill="none" r="25.0" stroke="black" stroke-width="2" /><polygon fill="none" points="97,164 139,164 118.0,122" stroke="black" stroke-width="2" transform="rotate(121.1220377302944,118.0,143.0)" /></g><line stroke="black" stroke-width="1" transform="translate(350,650)" x1="145" x2="163.1893910476746" y1="75" y2="80.8570639761603" /><line stroke="black" stroke-width="1" transform="translate(350,650)" x1="162" x2="171.30526846147873" y1="17" y2="28.981991661718677" /><rect fill="none" height="12" stroke="black" stroke-width="1" transform="translate(350,650)" width="6" x="126" y="88" /><rect fill="none" height="7" stroke="black" stroke-width="1" transform="translate(350,650)" width="8" x="10" y="157" /><circle cx="163" cy="174" fill="black" r="1" stroke="none" transform="translate(350,650)" /><rect fill="none" height="8" stroke="black" stroke-width="1" transform="translate(350,650)" width="12" x="154" y="106" /><line stroke="black" stroke-width="1" transform="translate(350,650)" x1="169" x2="177.65842784983556" y1="139" y2="147.93781142941992" /><line stroke="black" stroke-width="1" transform="translate(350,650)" x1="166" x2="166.77032039940062" y1="15" y2="18.04194157609891" /><line stroke="black" stroke-width="1" transform="translate(350,650)" x1="165" x2="167.51116713949318" y1="97" y2="123.9122376022365" /><rect fill="none" height="10" stroke="black" stroke-width="1" transform="translate(350,650)" width="15" x="46" y="106" /><rect fill="none" height="10" stroke="black" stroke-width="1" transform="translate(350,650)" width="14" x="95" y="53" /><line stroke="black" stroke-width="1" transform="translate(350,650)" x1="12" x2="14.66165721640389" y1="53" y2="53.38590986327686" /><circle cx="113" cy="172" fill="black" r="2" stroke="none" transform="translate(350,650)" /><line stroke="black" stroke-width="1" transform="translate(350,650)" x1="65" x2="78.82476773301792" y1="170" y2="182.37120526643665" /><rect fill="none" height="3" stroke="black" stroke-width="1" transform="translate(350,650)" width="5" x="22" y="16" /><circle cx="108" cy="153" fill="black" r="3" stroke="none" transform="translate(350,650)" /><line stroke="black" stroke-width="1" transform="translate(350,650)" x1="56" x2="71.18269823745243" y1="20" y2="31.85947615409342" /><line stroke="black" stroke-width="1" transform="translate(350,650)" x1="96" x2="111.75587759988936" y1="15" y2="25.488892813929315" /><circle cx="148" cy="35" fill="black" r="2" stroke="none" transform="translate(350,650)" /><line stroke="black" stroke-width="1" transform="translate(350,650)" x1="58" x2="61.09672909136039" y1="12" y2="13.997677240860874" /><rect fill="none" height="8" stroke="black" stroke-width="1" transform="translate(350,650)" width="13" x="68" y="158" /><rect fill="none" height="15" stroke="black" stroke-width="1" transform="translate(350,650)" width="12" x="78" y="165" /><circle cx="29" cy="156" fill="black" r="1" stroke="none" transform="translate(350,650)" /><circle cx="138" cy="122" fill="black" r="3" stroke="none" transform="translate(350,650)" /><circle cx="93" cy="159" fill="black" r="1" stroke="none" transform="translate(350,650)" /><circle cx="122" cy="102" fill="black" r="3" stroke="none" transform="translate(350,650)" /><line stroke="black" stroke-width="1" transform="translate(350,650)" x1="164" x2="172.43007840702876" y1="142" y2="160.629245057958" /><rect fill="none" height="13" stroke="black" stroke-width="1" transform="translate(350,650)" width="9" x="91" y="41" /><line stroke="black" stroke-width="1" transform="translate(350,650)" x1="12" x2="23.101984601152594" y1="35" y2="44.53656570420374" /><circle cx="124" cy="70" fill="black" r="1" stroke="none" transform="translate(350,650)" /><line stroke="black" stroke-width="1" transform="translate(350,650)" x1="175" x2="189.50428809536257" y1="11" y2="12.922057845327018" /><rect fill="none" height="8" stroke="black" stroke-width="1" transform="translate(350,650)" width="5" x="132" y="103" /><circle cx="127" cy="152" fill="black" r="2" stroke="none" transform="translate(350,650)" /><line stroke="black" stroke-width="1" transform="translate(350,650)" x1="104" x2="120.56211024013571" y1="14" y2="27.977224244605566" /><rect fill="none" height="11" stroke="black" stroke-width="1" transform="translate(350,650)" width="4" x="147" y="10" /><circle cx="132" cy="160" fill="black" r="3" stroke="none" transform="translate(350,650)" /><rect fill="none" height="10" stroke="black" stroke-width="1" transform="translate(350,650)" width="6" x="31" y="49" /><line stroke="black" stroke-width="1" transform="translate(350,650)" x1="144" x2="168.8969969145503" y1="131" y2="135.98613337912695" /><circle cx="98" cy="154" fill="black" r="2" stroke="none" transform="translate(350,650)" /><line stroke="black" stroke-width="1" transform="translate(350,650)" x1="46" x2="50.09540885223122" y1="49" y2="49.82639497798476" /><text font-family="Arial" font-size="14" text-anchor="middle" x="425" y="630">Option 4</text><g transform="translate(350,650)"><polygon fill="none" points="36,64 79,64 57.5,21" stroke="black" stroke-width="2" transform="rotate(199,57.5,42.5)" /><rect fill="none" height="30" stroke="black" stroke-width="2" transform="rotate(338,109.0,62.0)" width="30" x="94" y="47" /><rect fill="none" height="33" stroke="black" stroke-width="2" transform="rotate(275,36.5,140.5)" width="33" x="20" y="124" /><circle cx="72" cy="21" fill="none" r="24.0" stroke="black" stroke-width="2" /><circle cx="94" cy="88" fill="none" r="19.5" stroke="black" stroke-width="2" /><polygon fill="none" points="66,153 115,153 90.5,104" stroke="black" stroke-width="2" transform="rotate(254,90.5,128.5)" /><polygon fill="none" points="61,101 100,101 80.5,62" stroke="black" stroke-width="2" transform="rotate(299,80.5,81.5)" /><rect fill="none" height="48" stroke="black" stroke-width="2" transform="rotate(231,42.0,46.0)" width="48" x="18" y="22" /><circle cx="101" cy="72" fill="none" r="25.0" stroke="black" stroke-width="2" /><polygon fill="none" points="97,164 139,164 118.0,122" stroke="black" stroke-width="2" transform="rotate(141,118.0,143.0)" /></g></svg>