<?xml version="1.0" encoding="utf-8" ?>
<svg baseProfile="full" height="1000px" version="1.1" width="600px" xmlns="http://www.w3.org/2000/svg" xmlns:ev="http://www.w3.org/2001/xml-events" xmlns:xlink="http://www.w3.org/1999/xlink"><defs /><rect fill="white" height="100%" width="100%" x="0" y="0" /><text font-family="Arial" font-size="24" text-anchor="middle" x="300" y="40">Visual Figure Ground Test</text><text font-family="Arial" font-size="18" text-anchor="middle" x="300" y="80">Target Pattern</text><g transform="translate(200,100)"><rect fill="none" height="35" stroke="black" stroke-width="2" transform="rotate(80,156.5,157.5)" width="35" x="139" y="140" /><line stroke="black" stroke-width="2" transform="rotate(200,106.5,143.5)" x1="87" x2="126" y1="124" y2="163" /><circle cx="146" cy="30" fill="none" r="15.0" stroke="black" stroke-width="2" /><circle cx="74" cy="94" fill="none" r="20.0" stroke="black" stroke-width="2" /><rect fill="none" height="34" stroke="black" stroke-width="2" transform="rotate(360,167.0,144.0)" width="34" x="150" y="127" /><line stroke="black" stroke-width="2" transform="rotate(18,108.0,139.0)" x1="89" x2="127" y1="120" y2="158" /><line stroke="black" stroke-width="2" transform="rotate(235,68.0,155.0)" x1="50" x2="86" y1="137" y2="173" /><polygon fill="none" points="100,96 135,96 117.5,61" stroke="black" stroke-width="2" transform="rotate(73,117.5,78.5)" /><polygon fill="none" points="124,166 172,166 148.0,118" stroke="black" stroke-width="2" transform="rotate(303,148.0,142.0)" /><rect fill="none" height="34" stroke="black" stroke-width="2" transform="rotate(241,148.0,28.0)" width="34" x="131" y="11" /></g><text font-family="Arial" font-size="18" text-anchor="middle" x="300" y="350">Options</text><line stroke="black" stroke-width="1" transform="translate(100,400)" x1="148" x2="149.27464760635542" y1="89" y2="93.60140086745815" /><rect fill="none" height="9" stroke="black" stroke-width="1" transform="translate(100,400)" width="14" x="97" y="11" /><circle cx="16" cy="10" fill="black" r="2" stroke="none" transform="translate(100,400)" /><line stroke="black" stroke-width="1" transform="translate(100,400)" x1="10" x2="13.537845018562605" y1="89" y2="91.1850638925764" /><circle cx="179" cy="166" fill="black" r="2" stroke="none" transform="translate(100,400)" /><line stroke="black" stroke-width="1" transform="translate(100,400)" x1="106" x2="109.45570867223977" y1="179" y2="184.25032234503036" /><circle cx="65" cy="42" fill="black" r="1" stroke="none" transform="translate(100,400)" /><rect fill="none" height="12" stroke="black" stroke-width="1" transform="translate(100,400)" width="11" x="165" y="54" /><circle cx="91" cy="46" fill="black" r="3" stroke="none" transform="translate(100,400)" /><line stroke="black" stroke-width="1" transform="translate(100,400)" x1="42" x2="49.90935992130921" y1="67" y2="67.44501820497706" /><rect fill="none" height="9" stroke="black" stroke-width="1" transform="translate(100,400)" width="5" x="86" y="93" /><line stroke="black" stroke-width="1" transform="translate(100,400)" x1="48" x2="50.52705384450338" y1="94" y2="107.88125924028483" /><circle cx="101" cy="114" fill="black" r="3" stroke="none" transform="translate(100,400)" /><rect fill="none" height="15" stroke="black" stroke-width="1" transform="translate(100,400)" width="14" x="80" y="79" /><line stroke="black" stroke-width="1" transform="translate(100,400)" x1="138" x2="138.76320389131118" y1="54" y2="59.72331330575983" /><line stroke="black" stroke-width="1" transform="translate(100,400)" x1="47" x2="49.9682160571936" y1="107" y2="117.31912995596248" /><circle cx="154" cy="98" fill="black" r="1" stroke="none" transform="translate(100,400)" /><rect fill="none" height="7" stroke="black" stroke-width="1" transform="translate(100,400)" width="4" x="157" y="63" /><circle cx="77" cy="144" fill="black" r="1" stroke="none" transform="translate(100,400)" /><rect fill="none" height="12" stroke="black" stroke-width="1" transform="translate(100,400)" width="15" x="47" y="105" /><rect fill="none" height="14" stroke="black" stroke-width="1" transform="translate(100,400)" width="8" x="163" y="74" /><line stroke="black" stroke-width="1" transform="translate(100,400)" x1="173" x2="197.8793221086394" y1="42" y2="58.88375284816952" /><circle cx="157" cy="100" fill="black" r="1" stroke="none" transform="translate(100,400)" /><circle cx="119" cy="180" fill="black" r="2" stroke="none" transform="translate(100,400)" /><line stroke="black" stroke-width="1" transform="translate(100,400)" x1="144" x2="164.14300559978787" y1="92" y2="104.7260507048573" /><rect fill="none" height="6" stroke="black" stroke-width="1" transform="translate(100,400)" width="9" x="58" y="121" /><circle cx="123" cy="19" fill="black" r="1" stroke="none" transform="translate(100,400)" /><rect fill="none" height="10" stroke="black" stroke-width="1" transform="translate(100,400)" width="8" x="167" y="164" /><rect fill="none" height="11" stroke="black" stroke-width="1" transform="translate(100,400)" width="12" x="62" y="151" /><rect fill="none" height="14" stroke="black" stroke-width="1" transform="translate(100,400)" width="3" x="165" y="117" /><line stroke="black" stroke-width="1" transform="translate(100,400)" x1="173" x2="176.38631744127247" y1="99" y2="103.43328838916277" /><line stroke="black" stroke-width="1" transform="translate(100,400)" x1="157" x2="162.44102647612013" y1="171" y2="175.82767928968772" /><rect fill="none" height="9" stroke="black" stroke-width="1" transform="translate(100,400)" width="5" x="169" y="148" /><rect fill="none" height="3" stroke="black" stroke-width="1" transform="translate(100,400)" width="5" x="178" y="21" /><circle cx="102" cy="150" fill="black" r="2" stroke="none" transform="translate(100,400)" /><rect fill="none" height="6" stroke="black" stroke-width="1" transform="translate(100,400)" width="15" x="49" y="123" /><circle cx="124" cy="115" fill="black" r="2" stroke="none" transform="translate(100,400)" /><rect fill="none" height="14" stroke="black" stroke-width="1" transform="translate(100,400)" width="7" x="156" y="128" /><circle cx="133" cy="83" fill="black" r="2" stroke="none" transform="translate(100,400)" /><rect fill="none" height="12" stroke="black" stroke-width="1" transform="translate(100,400)" width="11" x="69" y="145" /><text font-family="Arial" font-size="14" text-anchor="middle" x="175" y="380">Option 1</text><g transform="translate(100,400)"><rect fill="none" height="35" stroke="black" stroke-width="2" transform="rotate(99.87258335968261,156.5,157.5)" width="35" x="139" y="140" /><line stroke="black" stroke-width="2" transform="rotate(219.8725833596826,106.5,143.5)" x1="87" x2="126" y1="124" y2="163" /><circle cx="40" cy="137" fill="none" r="15.0" stroke="black" stroke-width="2" /><circle cx="74" cy="94" fill="none" r="20.0" stroke="black" stroke-width="2" /><rect fill="none" height="34" stroke="black" stroke-width="2" transform="rotate(379.8725833596826,167.0,144.0)" width="34" x="150" y="127" /><line stroke="black" stroke-width="2" transform="rotate(37.87258335968261,108.0,139.0)" x1="89" x2="127" y1="120" y2="158" /><line stroke="black" stroke-width="2" transform="rotate(254.8725833596826,68.0,155.0)" x1="50" x2="86" y1="137" y2="173" /><polygon fill="none" points="100,96 135,96 117.5,61" stroke="black" stroke-width="2" transform="rotate(92.87258335968261,117.5,78.5)" /><polygon fill="none" points="124,166 172,166 148.0,118" stroke="black" stroke-width="2" transform="rotate(322.8725833596826,148.0,142.0)" /><rect fill="none" height="34" stroke="black" stroke-width="2" transform="rotate(260.8725833596826,148.0,28.0)" width="34" x="131" y="11" /></g><line stroke="black" stroke-width="1" transform="translate(350,400)" x1="113" x2="121.07469779464576" y1="137" y2="149.56019033479996" /><circle cx="14" cy="31" fill="black" r="3" stroke="none" transform="translate(350,400)" /><rect fill="none" height="4" stroke="black" stroke-width="1" transform="translate(350,400)" width="9" x="43" y="179" /><circle cx="119" cy="153" fill="black" r="2" stroke="none" transform="translate(350,400)" /><rect fill="none" height="5" stroke="black" stroke-width="1" transform="translate(350,400)" width="8" x="177" y="158" /><line stroke="black" stroke-width="1" transform="translate(350,400)" x1="119" x2="120.07057047001504" y1="66" y2="68.95995351763645" /><rect fill="none" height="3" stroke="black" stroke-width="1" transform="translate(350,400)" width="9" x="144" y="75" /><rect fill="none" height="4" stroke="black" stroke-width="1" transform="translate(350,400)" width="5" x="26" y="160" /><line stroke="black" stroke-width="1" transform="translate(350,400)" x1="57" x2="59.56280296001741" y1="89" y2="91.37943489976794" /><circle cx="178" cy="147" fill="black" r="1" stroke="none" transform="translate(350,400)" /><rect fill="none" height="6" stroke="black" stroke-width="1" transform="translate(350,400)" width="14" x="96" y="45" /><rect fill="none" height="15" stroke="black" stroke-width="1" transform="translate(350,400)" width="7" x="175" y="140" /><line stroke="black" stroke-width="1" transform="translate(350,400)" x1="108" x2="110.95591777862161" y1="175" y2="184.04777297203782" /><line stroke="black" stroke-width="1" transform="translate(350,400)" x1="58" x2="67.53328065506986" y1="105" y2="128.3269428169755" /><rect fill="none" height="3" stroke="black" stroke-width="1" transform="translate(350,400)" width="10" x="151" y="79" /><line stroke="black" stroke-width="1" transform="translate(350,400)" x1="158" x2="168.6653993756611" y1="70" y2="84.07899692800396" /><rect fill="none" height="14" stroke="black" stroke-width="1" transform="translate(350,400)" width="7" x="60" y="74" /><line stroke="black" stroke-width="1" transform="translate(350,400)" x1="99" x2="109.35352349534028" y1="132" y2="133.32199783955554" /><line stroke="black" stroke-width="1" transform="translate(350,400)" x1="75" x2="79.37325678538241" y1="167" y2="172.86464046884373" /><rect fill="none" height="12" stroke="black" stroke-width="1" transform="translate(350,400)" width="15" x="84" y="101" /><line stroke="black" stroke-width="1" transform="translate(350,400)" x1="163" x2="165.663761236544" y1="17" y2="17.377610140683572" /><rect fill="none" height="15" stroke="black" stroke-width="1" transform="translate(350,400)" width="6" x="38" y="26" /><line stroke="black" stroke-width="1" transform="translate(350,400)" x1="56" x2="58.29013586061001" y1="61" y2="61.11669518800902" /><line stroke="black" stroke-width="1" transform="translate(350,400)" x1="62" x2="82.9124531793489" y1="38" y2="54.009001561208265" /><circle cx="25" cy="135" fill="black" r="2" stroke="none" transform="translate(350,400)" /><line stroke="black" stroke-width="1" transform="translate(350,400)" x1="52" x2="53.69385670826308" y1="111" y2="118.84634391166644" /><rect fill="none" height="15" stroke="black" stroke-width="1" transform="translate(350,400)" width="13" x="169" y="90" /><rect fill="none" height="12" stroke="black" stroke-width="1" transform="translate(350,400)" width="6" x="151" y="172" /><rect fill="none" height="5" stroke="black" stroke-width="1" transform="translate(350,400)" width="6" x="149" y="61" /><line stroke="black" stroke-width="1" transform="translate(350,400)" x1="136" x2="140.55936431991043" y1="175" y2="175.32410188817582" /><line stroke="black" stroke-width="1" transform="translate(350,400)" x1="66" x2="88.3382454185004" y1="167" y2="167.01778039525973" /><circle cx="22" cy="165" fill="black" r="3" stroke="none" transform="translate(350,400)" /><line stroke="black" stroke-width="1" transform="translate(350,400)" x1="98" x2="118.42436403148466" y1="74" y2="91.54483149836206" /><rect fill="none" height="12" stroke="black" stroke-width="1" transform="translate(350,400)" width="14" x="135" y="110" /><circle cx="142" cy="35" fill="black" r="3" stroke="none" transform="translate(350,400)" /><circle cx="126" cy="154" fill="black" r="2" stroke="none" transform="translate(350,400)" /><circle cx="31" cy="119" fill="black" r="2" stroke="none" transform="translate(350,400)" /><rect fill="none" height="5" stroke="black" stroke-width="1" transform="translate(350,400)" width="4" x="76" y="20" /><line stroke="black" stroke-width="1" transform="translate(350,400)" x1="68" x2="81.5905909928918" y1="89" y2="95.41145932823939" /><line stroke="black" stroke-width="1" transform="translate(350,400)" x1="144" x2="148.88347969179972" y1="85" y2="99.40629330097383" /><text font-family="Arial" font-size="14" text-anchor="middle" x="425" y="380">Option 2</text><g transform="translate(350,400)"><rect fill="none" height="35" stroke="black" stroke-width="2" transform="rotate(97.10241559401459,156.5,157.5)" width="35" x="139" y="140" /><line stroke="black" stroke-width="2" transform="rotate(217.1024155940146,106.5,143.5)" x1="87" x2="126" y1="124" y2="163" /><circle cx="146" cy="30" fill="none" r="15.0" stroke="black" stroke-width="2" /><circle cx="74" cy="94" fill="none" r="20.0" stroke="black" stroke-width="2" /><rect fill="none" height="34" stroke="black" stroke-width="2" transform="rotate(377.1024155940146,167.0,144.0)" width="34" x="150" y="127" /><line stroke="black" stroke-width="2" transform="rotate(35.10241559401458,108.0,139.0)" x1="89" x2="127" y1="120" y2="158" /><line stroke="black" stroke-width="2" transform="rotate(252.1024155940146,68.0,155.0)" x1="50" x2="86" y1="137" y2="173" /><polygon fill="none" points="100,96 135,96 117.5,61" stroke="black" stroke-width="2" transform="rotate(90.10241559401459,117.5,78.5)" /><polygon fill="none" points="124,166 172,166 148.0,118" stroke="black" stroke-width="2" transform="rotate(320.1024155940146,148.0,142.0)" /><rect fill="none" height="34" stroke="black" stroke-width="2" transform="rotate(258.1024155940146,148.0,28.0)" width="34" x="131" y="11" /></g><circle cx="34" cy="49" fill="black" r="2" stroke="none" transform="translate(100,650)" /><line stroke="black" stroke-width="1" transform="translate(100,650)" x1="157" x2="159.06277721091362" y1="106" y2="109.21381892792931" /><line stroke="black" stroke-width="1" transform="translate(100,650)" x1="125" x2="140.87610706560872" y1="43" y2="55.736955428556236" /><line stroke="black" stroke-width="1" transform="translate(100,650)" x1="152" x2="155.29096550409105" y1="55" y2="60.694293739090824" /><rect fill="none" height="7" stroke="black" stroke-width="1" transform="translate(100,650)" width="5" x="158" y="142" /><line stroke="black" stroke-width="1" transform="translate(100,650)" x1="28" x2="33.04149934062486" y1="147" y2="167.00497118021468" /><rect fill="none" height="10" stroke="black" stroke-width="1" transform="translate(100,650)" width="9" x="159" y="65" /><circle cx="57" cy="66" fill="black" r="2" stroke="none" transform="translate(100,650)" /><rect fill="none" height="14" stroke="black" stroke-width="1" transform="translate(100,650)" width="14" x="125" y="141" /><circle cx="135" cy="158" fill="black" r="2" stroke="none" transform="translate(100,650)" /><rect fill="none" height="7" stroke="black" stroke-width="1" transform="translate(100,650)" width="15" x="141" y="46" /><line stroke="black" stroke-width="1" transform="translate(100,650)" x1="169" x2="176.52951907959394" y1="45" y2="71.10893348398636" /><circle cx="177" cy="40" fill="black" r="2" stroke="none" transform="translate(100,650)" /><circle cx="41" cy="65" fill="black" r="3" stroke="none" transform="translate(100,650)" /><line stroke="black" stroke-width="1" transform="translate(100,650)" x1="55" x2="59.46810220466275" y1="164" y2="169.43182634408913" /><circle cx="46" cy="120" fill="black" r="2" stroke="none" transform="translate(100,650)" /><rect fill="none" height="10" stroke="black" stroke-width="1" transform="translate(100,650)" width="8" x="90" y="70" /><line stroke="black" stroke-width="1" transform="translate(100,650)" x1="160" x2="169.03136207863028" y1="174" y2="180.7200871255898" /><rect fill="none" height="10" stroke="black" stroke-width="1" transform="translate(100,650)" width="5" x="54" y="15" /><circle cx="72" cy="36" fill="black" r="2" stroke="none" transform="translate(100,650)" /><circle cx="47" cy="51" fill="black" r="3" stroke="none" transform="translate(100,650)" /><line stroke="black" stroke-width="1" transform="translate(100,650)" x1="47" x2="61.177249361961" y1="48" y2="51.549916720955814" /><line stroke="black" stroke-width="1" transform="translate(100,650)" x1="55" x2="58.56231891392254" y1="38" y2="39.02909791364554" /><rect fill="none" height="15" stroke="black" stroke-width="1" transform="translate(100,650)" width="5" x="34" y="123" /><rect fill="none" height="5" stroke="black" stroke-width="1" transform="translate(100,650)" width="10" x="100" y="72" /><circle cx="142" cy="51" fill="black" r="1" stroke="none" transform="translate(100,650)" /><circle cx="66" cy="76" fill="black" r="1" stroke="none" transform="translate(100,650)" /><circle cx="130" cy="50" fill="black" r="1" stroke="none" transform="translate(100,650)" /><rect fill="none" height="13" stroke="black" stroke-width="1" transform="translate(100,650)" width="11" x="108" y="59" /><circle cx="31" cy="41" fill="black" r="3" stroke="none" transform="translate(100,650)" /><line stroke="black" stroke-width="1" transform="translate(100,650)" x1="156" x2="156.53673523456666" y1="169" y2="173.24895585374318" /><line stroke="black" stroke-width="1" transform="translate(100,650)" x1="139" x2="162.30956481765963" y1="152" y2="154.80486493381972" /><line stroke="black" stroke-width="1" transform="translate(100,650)" x1="34" x2="48.3794595311394" y1="123" y2="130.3497548153895" /><rect fill="none" height="11" stroke="black" stroke-width="1" transform="translate(100,650)" width="8" x="13" y="122" /><line stroke="black" stroke-width="1" transform="translate(100,650)" x1="175" x2="187.189018257705" y1="146" y2="149.29151353005707" /><rect fill="none" height="6" stroke="black" stroke-width="1" transform="translate(100,650)" width="8" x="45" y="14" /><rect fill="none" height="13" stroke="black" stroke-width="1" transform="translate(100,650)" width="14" x="32" y="85" /><rect fill="none" height="8" stroke="black" stroke-width="1" transform="translate(100,650)" width="8" x="96" y="44" /><line stroke="black" stroke-width="1" transform="translate(100,650)" x1="151" x2="152.13529149738972" y1="151" y2="153.39754751344964" /><line stroke="black" stroke-width="1" transform="translate(100,650)" x1="131" x2="151.19987245868742" y1="51" y2="71.22365181163605" /><text font-family="Arial" font-size="14" text-anchor="middle" x="175" y="630">Option 3</text><g transform="translate(100,650)"><rect fill="none" height="35" stroke="black" stroke-width="2" transform="rotate(80,156.5,157.5)" width="35" x="139" y="140" /><line stroke="black" stroke-width="2" transform="rotate(200,106.5,143.5)" x1="87" x2="126" y1="124" y2="163" /><circle cx="146" cy="30" fill="none" r="15.0" stroke="black" stroke-width="2" /><circle cx="74" cy="94" fill="none" r="20.0" stroke="black" stroke-width="2" /><rect fill="none" height="34" stroke="black" stroke-width="2" transform="rotate(360,167.0,144.0)" width="34" x="150" y="127" /><line stroke="black" stroke-width="2" transform="rotate(18,108.0,139.0)" x1="89" x2="127" y1="120" y2="158" /><line stroke="black" stroke-width="2" transform="rotate(235,68.0,155.0)" x1="50" x2="86" y1="137" y2="173" /><polygon fill="none" points="100,96 135,96 117.5,61" stroke="black" stroke-width="2" transform="rotate(73,117.5,78.5)" /><polygon fill="none" points="124,166 172,166 148.0,118" stroke="black" stroke-width="2" transform="rotate(303,148.0,142.0)" /><rect fill="none" height="34" stroke="black" stroke-width="2" transform="rotate(241,148.0,28.0)" width="34" x="131" y="11" /></g><line stroke="black" stroke-width="1" transform="translate(350,650)" x1="159" x2="162.86568418945924" y1="132" y2="133.16402952058135" /><line stroke="black" stroke-width="1" transform="translate(350,650)" x1="92" x2="99.96124000438235" y1="166" y2="169.06604638012624" /><line stroke="black" stroke-width="1" transform="translate(350,650)" x1="66" x2="74.46525461303415" y1="175" y2="192.32410929690658" /><rect fill="none" height="3" stroke="black" stroke-width="1" transform="translate(350,650)" width="15" x="76" y="95" /><line stroke="black" stroke-width="1" transform="translate(350,650)" x1="157" x2="174.17015762017752" y1="85" y2="98.586991881512" /><line stroke="black" stroke-width="1" transform="translate(350,650)" x1="47" x2="59.205157238040755" y1="172" y2="176.70585568136" /><circle cx="141" cy="109" fill="black" r="3" stroke="none" transform="translate(350,650)" /><line stroke="black" stroke-width="1" transform="translate(350,650)" x1="13" x2="13.889847631332577" y1="65" y2="73.62264030348848" /><line stroke="black" stroke-width="1" transform="translate(350,650)" x1="86" x2="105.03432650123966" y1="173" y2="184.2068048529781" /><rect fill="none" height="5" stroke="black" stroke-width="1" transform="translate(350,650)" width="13" x="66" y="123" /><line stroke="black" stroke-width="1" transform="translate(350,650)" x1="23" x2="37.50060804363343" y1="35" y2="45.526389761338464" /><line stroke="black" stroke-width="1" transform="translate(350,650)" x1="147" x2="147.81243661406302" y1="122" y2="142.96504309717466" /><line stroke="black" stroke-width="1" transform="translate(350,650)" x1="155" x2="172.0377856729744" y1="180" y2="200.2030707851766" /><circle cx="34" cy="88" fill="black" r="2" stroke="none" transform="translate(350,650)" /><circle cx="120" cy="37" fill="black" r="3" stroke="none" transform="translate(350,650)" /><circle cx="18" cy="34" fill="black" r="3" stroke="none" transform="translate(350,650)" /><line stroke="black" stroke-width="1" transform="translate(350,650)" x1="68" x2="90.00943286479614" y1="100" y2="113.91468030453922" /><rect fill="none" height="11" stroke="black" stroke-width="1" transform="translate(350,650)" width="3" x="166" y="22" /><rect fill="none" height="13" stroke="black" stroke-width="1" transform="translate(350,650)" width="11" x="122" y="160" /><line stroke="black" stroke-width="1" transform="translate(350,650)" x1="159" x2="174.1577097280814" y1="147" y2="170.83880112335558" /><rect fill="none" height="4" stroke="black" stroke-width="1" transform="translate(350,650)" width="15" x="65" y="67" /><circle cx="88" cy="101" fill="black" r="1" stroke="none" transform="translate(350,650)" /><circle cx="171" cy="102" fill="black" r="1" stroke="none" transform="translate(350,650)" /><circle cx="115" cy="135" fill="black" r="3" stroke="none" transform="translate(350,650)" /><circle cx="94" cy="171" fill="black" r="3" stroke="none" transform="translate(350,650)" /><line stroke="black" stroke-width="1" transform="translate(350,650)" x1="179" x2="180.4868649334846" y1="15" y2="16.04673103789981" /><line stroke="black" stroke-width="1" transform="translate(350,650)" x1="70" x2="82.2903476636868" y1="70" y2="74.5611579375547" /><rect fill="none" height="13" stroke="black" stroke-width="1" transform="translate(350,650)" width="14" x="41" y="108" /><line stroke="black" stroke-width="1" transform="translate(350,650)" x1="154" x2="165.09707042604944" y1="49" y2="61.52887931570339" /><line stroke="black" stroke-width="1" transform="translate(350,650)" x1="34" x2="48.48558464990545" y1="140" y2="143.91535010781132" /><circle cx="125" cy="152" fill="black" r="2" stroke="none" transform="translate(350,650)" /><line stroke="black" stroke-width="1" transform="translate(350,650)" x1="52" x2="55.03593449941509" y1="180" y2="181.30061127271955" /><line stroke="black" stroke-width="1" transform="translate(350,650)" x1="114" x2="118.40548863639347" y1="171" y2="182.53208327130113" /><rect fill="none" height="6" stroke="black" stroke-width="1" transform="translate(350,650)" width="5" x="69" y="35" /><line stroke="black" stroke-width="1" transform="translate(350,650)" x1="23" x2="33.888748972162496" y1="94" y2="101.71372642478136" /><rect fill="none" height="8" stroke="black" stroke-width="1" transform="translate(350,650)" width="3" x="129" y="27" /><circle cx="29" cy="104" fill="black" r="2" stroke="none" transform="translate(350,650)" /><rect fill="none" height="7" stroke="black" stroke-width="1" transform="translate(350,650)" width="4" x="95" y="89" /><line stroke="black" stroke-width="1" transform="translate(350,650)" x1="93" x2="93.34771627997645" y1="98" y2="103.4232321877191" /><line stroke="black" stroke-width="1" transform="translate(350,650)" x1="147" x2="151.26977148335604" y1="29" y2="31.951633129554768" /><text font-family="Arial" font-size="14" text-anchor="middle" x="425" y="630">Option 4</text><g transform="translate(350,650)"><rect fill="none" height="35" stroke="black" stroke-width="2" transform="rotate(96.09114748350575,156.5,157.5)" width="35" x="139" y="140" /><line stroke="black" stroke-width="2" transform="rotate(216.09114748350575,106.5,143.5)" x1="87" x2="126" y1="124" y2="163" /><circle cx="146" cy="30" fill="none" r="15.0" stroke="black" stroke-width="2" /><circle cx="74" cy="94" fill="none" r="20.0" stroke="black" stroke-width="2" /><rect fill="none" height="34" stroke="black" stroke-width="2" transform="rotate(376.0911474835057,167.0,144.0)" width="34" x="150" y="127" /><line stroke="black" stroke-width="2" transform="rotate(34.09114748350574,108.0,139.0)" x1="89" x2="127" y1="120" y2="158" /><line stroke="black" stroke-width="2" transform="rotate(251.09114748350575,68.0,155.0)" x1="50" x2="86" y1="137" y2="173" /><polygon fill="none" points="100,96 135,96 117.5,61" stroke="black" stroke-width="2" transform="rotate(89.09114748350575,117.5,78.5)" /><polygon fill="none" points="124,166 172,166 148.0,118" stroke="black" stroke-width="2" transform="rotate(319.0911474835057,148.0,142.0)" /><rect fill="none" height="34" stroke="black" stroke-width="2" transform="rotate(257.0911474835057,148.0,28.0)" width="34" x="131" y="11" /></g></svg>