<?xml version="1.0" encoding="utf-8" ?>
<svg baseProfile="full" height="1000px" version="1.1" width="600px" xmlns="http://www.w3.org/2000/svg" xmlns:ev="http://www.w3.org/2001/xml-events" xmlns:xlink="http://www.w3.org/1999/xlink"><defs /><rect fill="white" height="100%" width="100%" x="0" y="0" /><text font-family="Arial" font-size="24" text-anchor="middle" x="300" y="40">Visual Figure Ground Test</text><text font-family="Arial" font-size="18" text-anchor="middle" x="300" y="80">Target Pattern</text><g transform="translate(200,100)"><circle cx="100" cy="62" fill="none" r="20.0" stroke="black" stroke-width="2" /><rect fill="none" height="42" stroke="black" stroke-width="2" transform="rotate(26,44.0,64.0)" width="42" x="23" y="43" /><line stroke="black" stroke-width="2" transform="rotate(27,75.0,139.0)" x1="53" x2="97" y1="117" y2="161" /><polygon fill="none" points="17,133 56,133 36.5,94" stroke="black" stroke-width="2" transform="rotate(144,36.5,113.5)" /><polygon fill="none" points="93,99 127,99 110.0,65" stroke="black" stroke-width="2" transform="rotate(194,110.0,82.0)" /><circle cx="70" cy="16" fill="none" r="17.0" stroke="black" stroke-width="2" /><line stroke="black" stroke-width="2" transform="rotate(241,58.5,52.5)" x1="34" x2="83" y1="28" y2="77" /><circle cx="97" cy="15" fill="none" r="25.0" stroke="black" stroke-width="2" /><rect fill="none" height="42" stroke="black" stroke-width="2" transform="rotate(241,145.0,161.0)" width="42" x="124" y="140" /><rect fill="none" height="37" stroke="black" stroke-width="2" transform="rotate(44,51.5,161.5)" width="37" x="33" y="143" /></g><text font-family="Arial" font-size="18" text-anchor="middle" x="300" y="350">Options</text><circle cx="22" cy="169" fill="black" r="2" stroke="none" transform="translate(100,400)" /><rect fill="none" height="13" stroke="black" stroke-width="1" transform="translate(100,400)" width="8" x="94" y="177" /><rect fill="none" height="12" stroke="black" stroke-width="1" transform="translate(100,400)" width="5" x="170" y="167" /><circle cx="40" cy="29" fill="black" r="1" stroke="none" transform="translate(100,400)" /><rect fill="none" height="7" stroke="black" stroke-width="1" transform="translate(100,400)" width="8" x="130" y="19" /><circle cx="167" cy="137" fill="black" r="1" stroke="none" transform="translate(100,400)" /><circle cx="48" cy="77" fill="black" r="2" stroke="none" transform="translate(100,400)" /><rect fill="none" height="9" stroke="black" stroke-width="1" transform="translate(100,400)" width="4" x="38" y="25" /><rect fill="none" height="3" stroke="black" stroke-width="1" transform="translate(100,400)" width="11" x="60" y="81" /><circle cx="56" cy="123" fill="black" r="2" stroke="none" transform="translate(100,400)" /><rect fill="none" height="3" stroke="black" stroke-width="1" transform="translate(100,400)" width="10" x="98" y="163" /><circle cx="82" cy="66" fill="black" r="3" stroke="none" transform="translate(100,400)" /><circle cx="157" cy="96" fill="black" r="3" stroke="none" transform="translate(100,400)" /><rect fill="none" height="6" stroke="black" stroke-width="1" transform="translate(100,400)" width="7" x="116" y="177" /><rect fill="none" height="15" stroke="black" stroke-width="1" transform="translate(100,400)" width="6" x="105" y="177" /><rect fill="none" height="6" stroke="black" stroke-width="1" transform="translate(100,400)" width="13" x="79" y="148" /><line stroke="black" stroke-width="1" transform="translate(100,400)" x1="153" x2="161.4314692783796" y1="147" y2="151.0269874148904" /><circle cx="84" cy="128" fill="black" r="3" stroke="none" transform="translate(100,400)" /><circle cx="91" cy="33" fill="black" r="2" stroke="none" transform="translate(100,400)" /><line stroke="black" stroke-width="1" transform="translate(100,400)" x1="30" x2="30.902812336125717" y1="121" y2="122.91748567140692" /><circle cx="17" cy="69" fill="black" r="3" stroke="none" transform="translate(100,400)" /><circle cx="21" cy="171" fill="black" r="2" stroke="none" transform="translate(100,400)" /><rect fill="none" height="13" stroke="black" stroke-width="1" transform="translate(100,400)" width="3" x="144" y="119" /><circle cx="55" cy="129" fill="black" r="1" stroke="none" transform="translate(100,400)" /><rect fill="none" height="5" stroke="black" stroke-width="1" transform="translate(100,400)" width="5" x="61" y="127" /><circle cx="113" cy="55" fill="black" r="2" stroke="none" transform="translate(100,400)" /><circle cx="178" cy="88" fill="black" r="1" stroke="none" transform="translate(100,400)" /><circle cx="117" cy="178" fill="black" r="1" stroke="none" transform="translate(100,400)" /><circle cx="42" cy="54" fill="black" r="3" stroke="none" transform="translate(100,400)" /><circle cx="48" cy="79" fill="black" r="3" stroke="none" transform="translate(100,400)" /><circle cx="101" cy="154" fill="black" r="2" stroke="none" transform="translate(100,400)" /><rect fill="none" height="3" stroke="black" stroke-width="1" transform="translate(100,400)" width="13" x="128" y="161" /><line stroke="black" stroke-width="1" transform="translate(100,400)" x1="48" x2="59.528768116623866" y1="70" y2="90.11452320509737" /><circle cx="23" cy="44" fill="black" r="3" stroke="none" transform="translate(100,400)" /><circle cx="161" cy="125" fill="black" r="2" stroke="none" transform="translate(100,400)" /><line stroke="black" stroke-width="1" transform="translate(100,400)" x1="84" x2="90.93078624955348" y1="70" y2="76.33351345010796" /><line stroke="black" stroke-width="1" transform="translate(100,400)" x1="175" x2="184.15039123929867" y1="24" y2="42.92066475192813" /><line stroke="black" stroke-width="1" transform="translate(100,400)" x1="20" x2="33.725750215584846" y1="150" y2="157.0841864970007" /><rect fill="none" height="6" stroke="black" stroke-width="1" transform="translate(100,400)" width="10" x="167" y="159" /><line stroke="black" stroke-width="1" transform="translate(100,400)" x1="35" x2="39.86726590862287" y1="96" y2="109.32471910999097" /><text font-family="Arial" font-size="14" text-anchor="middle" x="175" y="380">Option 1</text><g transform="translate(100,400)"><circle cx="100" cy="62" fill="none" r="20.0" stroke="black" stroke-width="2" /><rect fill="none" height="42" stroke="black" stroke-width="2" transform="rotate(43.86852045037124,44.0,64.0)" width="42" x="23" y="43" /><line stroke="black" stroke-width="2" transform="rotate(44.86852045037124,75.0,139.0)" x1="53" x2="97" y1="117" y2="161" /><polygon fill="none" points="17,133 56,133 36.5,94" stroke="black" stroke-width="2" transform="rotate(161.86852045037125,36.5,113.5)" /><polygon fill="none" points="93,99 127,99 110.0,65" stroke="black" stroke-width="2" transform="rotate(211.86852045037125,110.0,82.0)" /><circle cx="70" cy="16" fill="none" r="17.0" stroke="black" stroke-width="2" /><line stroke="black" stroke-width="2" transform="rotate(258.86852045037125,58.5,52.5)" x1="34" x2="83" y1="28" y2="77" /><circle cx="97" cy="15" fill="none" r="25.0" stroke="black" stroke-width="2" /><rect fill="none" height="42" stroke="black" stroke-width="2" transform="rotate(258.86852045037125,145.0,161.0)" width="42" x="124" y="140" /><rect fill="none" height="37" stroke="black" stroke-width="2" transform="rotate(61.86852045037124,51.5,161.5)" width="37" x="33" y="143" /></g><circle cx="17" cy="55" fill="black" r="3" stroke="none" transform="translate(350,400)" /><rect fill="none" height="8" stroke="black" stroke-width="1" transform="translate(350,400)" width="12" x="177" y="177" /><rect fill="none" height="14" stroke="black" stroke-width="1" transform="translate(350,400)" width="14" x="103" y="77" /><rect fill="none" height="9" stroke="black" stroke-width="1" transform="translate(350,400)" width="8" x="75" y="13" /><line stroke="black" stroke-width="1" transform="translate(350,400)" x1="146" x2="160.61636679124476" y1="53" y2="68.60123036729284" /><circle cx="61" cy="84" fill="black" r="2" stroke="none" transform="translate(350,400)" /><rect fill="none" height="3" stroke="black" stroke-width="1" transform="translate(350,400)" width="4" x="81" y="39" /><circle cx="98" cy="98" fill="black" r="3" stroke="none" transform="translate(350,400)" /><circle cx="101" cy="89" fill="black" r="3" stroke="none" transform="translate(350,400)" /><circle cx="98" cy="128" fill="black" r="3" stroke="none" transform="translate(350,400)" /><circle cx="11" cy="52" fill="black" r="1" stroke="none" transform="translate(350,400)" /><rect fill="none" height="3" stroke="black" stroke-width="1" transform="translate(350,400)" width="15" x="77" y="109" /><circle cx="59" cy="34" fill="black" r="3" stroke="none" transform="translate(350,400)" /><circle cx="105" cy="114" fill="black" r="2" stroke="none" transform="translate(350,400)" /><line stroke="black" stroke-width="1" transform="translate(350,400)" x1="124" x2="141.66523112108987" y1="101" y2="117.83171472609973" /><circle cx="20" cy="86" fill="black" r="2" stroke="none" transform="translate(350,400)" /><line stroke="black" stroke-width="1" transform="translate(350,400)" x1="41" x2="47.83542653212248" y1="145" y2="148.2037642023993" /><circle cx="91" cy="40" fill="black" r="2" stroke="none" transform="translate(350,400)" /><rect fill="none" height="3" stroke="black" stroke-width="1" transform="translate(350,400)" width="6" x="29" y="36" /><circle cx="157" cy="69" fill="black" r="3" stroke="none" transform="translate(350,400)" /><rect fill="none" height="10" stroke="black" stroke-width="1" transform="translate(350,400)" width="3" x="64" y="34" /><line stroke="black" stroke-width="1" transform="translate(350,400)" x1="124" x2="140.46757470254929" y1="152" y2="168.22336549048543" /><circle cx="173" cy="57" fill="black" r="2" stroke="none" transform="translate(350,400)" /><line stroke="black" stroke-width="1" transform="translate(350,400)" x1="67" x2="73.67153969446127" y1="86" y2="96.17190708213933" /><line stroke="black" stroke-width="1" transform="translate(350,400)" x1="143" x2="171.12638657258032" y1="62" y2="79.09369178030884" /><rect fill="none" height="10" stroke="black" stroke-width="1" transform="translate(350,400)" width="9" x="151" y="93" /><circle cx="138" cy="56" fill="black" r="3" stroke="none" transform="translate(350,400)" /><circle cx="79" cy="92" fill="black" r="2" stroke="none" transform="translate(350,400)" /><line stroke="black" stroke-width="1" transform="translate(350,400)" x1="180" x2="184.6119189327556" y1="105" y2="118.31135685600795" /><line stroke="black" stroke-width="1" transform="translate(350,400)" x1="13" x2="24.55576308755232" y1="106" y2="114.56437918020248" /><line stroke="black" stroke-width="1" transform="translate(350,400)" x1="116" x2="125.99356856340741" y1="112" y2="120.08068878371907" /><rect fill="none" height="10" stroke="black" stroke-width="1" transform="translate(350,400)" width="6" x="144" y="48" /><line stroke="black" stroke-width="1" transform="translate(350,400)" x1="73" x2="78.20554883239751" y1="107" y2="114.61950549288876" /><rect fill="none" height="11" stroke="black" stroke-width="1" transform="translate(350,400)" width="15" x="50" y="72" /><line stroke="black" stroke-width="1" transform="translate(350,400)" x1="134" x2="134.77109859394227" y1="62" y2="76.56689260507282" /><circle cx="71" cy="120" fill="black" r="3" stroke="none" transform="translate(350,400)" /><circle cx="177" cy="32" fill="black" r="3" stroke="none" transform="translate(350,400)" /><circle cx="14" cy="83" fill="black" r="1" stroke="none" transform="translate(350,400)" /><line stroke="black" stroke-width="1" transform="translate(350,400)" x1="103" x2="109.59679748427749" y1="132" y2="138.25573715819556" /><rect fill="none" height="3" stroke="black" stroke-width="1" transform="translate(350,400)" width="9" x="51" y="98" /><text font-family="Arial" font-size="14" text-anchor="middle" x="425" y="380">Option 2</text><g transform="translate(350,400)"><circle cx="100" cy="62" fill="none" r="20.0" stroke="black" stroke-width="2" /><rect fill="none" height="42" stroke="black" stroke-width="2" transform="rotate(45.48609509571864,44.0,64.0)" width="42" x="23" y="43" /><line stroke="black" stroke-width="2" transform="rotate(46.48609509571864,75.0,139.0)" x1="53" x2="97" y1="117" y2="161" /><polygon fill="none" points="17,133 56,133 36.5,94" stroke="black" stroke-width="2" transform="rotate(163.48609509571864,36.5,113.5)" /><polygon fill="none" points="93,99 127,99 110.0,65" stroke="black" stroke-width="2" transform="rotate(213.48609509571864,110.0,82.0)" /><circle cx="70" cy="16" fill="none" r="17.0" stroke="black" stroke-width="2" /><line stroke="black" stroke-width="2" transform="rotate(260.4860950957186,58.5,52.5)" x1="34" x2="83" y1="28" y2="77" /><circle cx="97" cy="15" fill="none" r="25.0" stroke="black" stroke-width="2" /><rect fill="none" height="42" stroke="black" stroke-width="2" transform="rotate(260.4860950957186,145.0,161.0)" width="42" x="124" y="140" /><rect fill="none" height="37" stroke="black" stroke-width="2" transform="rotate(63.48609509571864,51.5,161.5)" width="37" x="33" y="143" /></g><rect fill="none" height="9" stroke="black" stroke-width="1" transform="translate(100,650)" width="4" x="142" y="121" /><line stroke="black" stroke-width="1" transform="translate(100,650)" x1="137" x2="152.44594229175624" y1="111" y2="112.51960182435035" /><circle cx="33" cy="177" fill="black" r="2" stroke="none" transform="translate(100,650)" /><circle cx="19" cy="30" fill="black" r="1" stroke="none" transform="translate(100,650)" /><circle cx="56" cy="125" fill="black" r="2" stroke="none" transform="translate(100,650)" /><rect fill="none" height="7" stroke="black" stroke-width="1" transform="translate(100,650)" width="3" x="51" y="98" /><circle cx="162" cy="58" fill="black" r="2" stroke="none" transform="translate(100,650)" /><circle cx="134" cy="62" fill="black" r="1" stroke="none" transform="translate(100,650)" /><rect fill="none" height="7" stroke="black" stroke-width="1" transform="translate(100,650)" width="9" x="50" y="152" /><circle cx="70" cy="145" fill="black" r="2" stroke="none" transform="translate(100,650)" /><circle cx="151" cy="48" fill="black" r="1" stroke="none" transform="translate(100,650)" /><rect fill="none" height="15" stroke="black" stroke-width="1" transform="translate(100,650)" width="9" x="116" y="123" /><rect fill="none" height="14" stroke="black" stroke-width="1" transform="translate(100,650)" width="12" x="28" y="47" /><line stroke="black" stroke-width="1" transform="translate(100,650)" x1="12" x2="24.567568516620796" y1="118" y2="118.51071424911063" /><rect fill="none" height="4" stroke="black" stroke-width="1" transform="translate(100,650)" width="6" x="54" y="169" /><line stroke="black" stroke-width="1" transform="translate(100,650)" x1="77" x2="84.2207933816978" y1="33" y2="38.082891314860134" /><line stroke="black" stroke-width="1" transform="translate(100,650)" x1="63" x2="65.30226471576272" y1="126" y2="128.22425491230265" /><rect fill="none" height="3" stroke="black" stroke-width="1" transform="translate(100,650)" width="11" x="64" y="98" /><rect fill="none" height="12" stroke="black" stroke-width="1" transform="translate(100,650)" width="12" x="32" y="11" /><circle cx="128" cy="79" fill="black" r="1" stroke="none" transform="translate(100,650)" /><line stroke="black" stroke-width="1" transform="translate(100,650)" x1="93" x2="96.74591886600851" y1="137" y2="137.2751880171629" /><circle cx="85" cy="90" fill="black" r="2" stroke="none" transform="translate(100,650)" /><rect fill="none" height="14" stroke="black" stroke-width="1" transform="translate(100,650)" width="3" x="39" y="145" /><rect fill="none" height="10" stroke="black" stroke-width="1" transform="translate(100,650)" width="14" x="23" y="178" /><line stroke="black" stroke-width="1" transform="translate(100,650)" x1="23" x2="35.40234742890778" y1="146" y2="146.38116782492136" /><circle cx="85" cy="94" fill="black" r="1" stroke="none" transform="translate(100,650)" /><circle cx="166" cy="119" fill="black" r="2" stroke="none" transform="translate(100,650)" /><line stroke="black" stroke-width="1" transform="translate(100,650)" x1="143" x2="151.392239853073" y1="27" y2="32.74406958334623" /><rect fill="none" height="14" stroke="black" stroke-width="1" transform="translate(100,650)" width="14" x="122" y="168" /><line stroke="black" stroke-width="1" transform="translate(100,650)" x1="134" x2="150.0431175230225" y1="36" y2="46.464934285033095" /><circle cx="139" cy="32" fill="black" r="3" stroke="none" transform="translate(100,650)" /><circle cx="99" cy="127" fill="black" r="1" stroke="none" transform="translate(100,650)" /><rect fill="none" height="8" stroke="black" stroke-width="1" transform="translate(100,650)" width="10" x="51" y="27" /><rect fill="none" height="10" stroke="black" stroke-width="1" transform="translate(100,650)" width="9" x="22" y="63" /><circle cx="34" cy="52" fill="black" r="2" stroke="none" transform="translate(100,650)" /><rect fill="none" height="8" stroke="black" stroke-width="1" transform="translate(100,650)" width="15" x="27" y="122" /><circle cx="29" cy="137" fill="black" r="2" stroke="none" transform="translate(100,650)" /><line stroke="black" stroke-width="1" transform="translate(100,650)" x1="45" x2="52.7636723521781" y1="65" y2="69.46106014187194" /><line stroke="black" stroke-width="1" transform="translate(100,650)" x1="65" x2="65.83775885580333" y1="110" y2="114.43039669401274" /><rect fill="none" height="14" stroke="black" stroke-width="1" transform="translate(100,650)" width="9" x="172" y="54" /><text font-family="Arial" font-size="14" text-anchor="middle" x="175" y="630">Option 3</text><g transform="translate(100,650)"><circle cx="100" cy="62" fill="none" r="20.0" stroke="black" stroke-width="2" /><rect fill="none" height="42" stroke="black" stroke-width="2" transform="rotate(26,44.0,64.0)" width="42" x="23" y="43" /><line stroke="black" stroke-width="2" transform="rotate(27,75.0,139.0)" x1="53" x2="97" y1="117" y2="161" /><polygon fill="none" points="17,133 56,133 36.5,94" stroke="black" stroke-width="2" transform="rotate(144,36.5,113.5)" /><polygon fill="none" points="93,99 127,99 110.0,65" stroke="black" stroke-width="2" transform="rotate(194,110.0,82.0)" /><circle cx="70" cy="16" fill="none" r="17.0" stroke="black" stroke-width="2" /><line stroke="black" stroke-width="2" transform="rotate(241,58.5,52.5)" x1="34" x2="83" y1="28" y2="77" /><circle cx="97" cy="15" fill="none" r="25.0" stroke="black" stroke-width="2" /><rect fill="none" height="42" stroke="black" stroke-width="2" transform="rotate(241,145.0,161.0)" width="42" x="124" y="140" /><rect fill="none" height="37" stroke="black" stroke-width="2" transform="rotate(44,51.5,161.5)" width="37" x="33" y="143" /></g><line stroke="black" stroke-width="1" transform="translate(350,650)" x1="24" x2="34.04023364237364" y1="66" y2="73.01726194279074" /><rect fill="none" height="3" stroke="black" stroke-width="1" transform="translate(350,650)" width="11" x="30" y="158" /><circle cx="84" cy="61" fill="black" r="3" stroke="none" transform="translate(350,650)" /><line stroke="black" stroke-width="1" transform="translate(350,650)" x1="164" x2="182.56460211694247" y1="70" y2="81.90779016014807" /><circle cx="59" cy="18" fill="black" r="1" stroke="none" transform="translate(350,650)" /><circle cx="51" cy="50" fill="black" r="3" stroke="none" transform="translate(350,650)" /><line stroke="black" stroke-width="1" transform="translate(350,650)" x1="16" x2="35.85168804845296" y1="32" y2="37.28701742021189" /><circle cx="68" cy="12" fill="black" r="1" stroke="none" transform="translate(350,650)" /><line stroke="black" stroke-width="1" transform="translate(350,650)" x1="94" x2="94.05945766162357" y1="59" y2="65.15765310487923" /><line stroke="black" stroke-width="1" transform="translate(350,650)" x1="63" x2="79.29481165209637" y1="39" y2="55.53415716990479" /><circle cx="167" cy="93" fill="black" r="2" stroke="none" transform="translate(350,650)" /><circle cx="93" cy="123" fill="black" r="2" stroke="none" transform="translate(350,650)" /><circle cx="140" cy="40" fill="black" r="1" stroke="none" transform="translate(350,650)" /><line stroke="black" stroke-width="1" transform="translate(350,650)" x1="107" x2="110.59247457081841" y1="44" y2="50.1240094316654" /><line stroke="black" stroke-width="1" transform="translate(350,650)" x1="13" x2="13.255721877933999" y1="171" y2="182.98513619712068" /><rect fill="none" height="4" stroke="black" stroke-width="1" transform="translate(350,650)" width="5" x="69" y="165" /><rect fill="none" height="10" stroke="black" stroke-width="1" transform="translate(350,650)" width="3" x="176" y="75" /><line stroke="black" stroke-width="1" transform="translate(350,650)" x1="85" x2="91.9163444730111" y1="154" y2="165.13267702210968" /><circle cx="72" cy="23" fill="black" r="2" stroke="none" transform="translate(350,650)" /><circle cx="76" cy="73" fill="black" r="3" stroke="none" transform="translate(350,650)" /><rect fill="none" height="13" stroke="black" stroke-width="1" transform="translate(350,650)" width="8" x="32" y="12" /><line stroke="black" stroke-width="1" transform="translate(350,650)" x1="99" x2="101.69143377123679" y1="44" y2="50.250412215075684" /><rect fill="none" height="12" stroke="black" stroke-width="1" transform="translate(350,650)" width="8" x="68" y="20" /><circle cx="83" cy="129" fill="black" r="2" stroke="none" transform="translate(350,650)" /><circle cx="117" cy="160" fill="black" r="1" stroke="none" transform="translate(350,650)" /><line stroke="black" stroke-width="1" transform="translate(350,650)" x1="109" x2="116.8500566085819" y1="44" y2="60.7591483078926" /><circle cx="168" cy="30" fill="black" r="1" stroke="none" transform="translate(350,650)" /><line stroke="black" stroke-width="1" transform="translate(350,650)" x1="129" x2="134.75120823572794" y1="108" y2="113.2555717276725" /><circle cx="87" cy="74" fill="black" r="2" stroke="none" transform="translate(350,650)" /><rect fill="none" height="7" stroke="black" stroke-width="1" transform="translate(350,650)" width="15" x="56" y="71" /><circle cx="45" cy="29" fill="black" r="2" stroke="none" transform="translate(350,650)" /><line stroke="black" stroke-width="1" transform="translate(350,650)" x1="105" x2="131.9283505862339" y1="140" y2="148.40596700735472" /><rect fill="none" height="10" stroke="black" stroke-width="1" transform="translate(350,650)" width="7" x="63" y="52" /><circle cx="105" cy="61" fill="black" r="1" stroke="none" transform="translate(350,650)" /><rect fill="none" height="7" stroke="black" stroke-width="1" transform="translate(350,650)" width="7" x="102" y="109" /><line stroke="black" stroke-width="1" transform="translate(350,650)" x1="172" x2="179.32320839424904" y1="36" y2="41.290683005013456" /><rect fill="none" height="3" stroke="black" stroke-width="1" transform="translate(350,650)" width="13" x="170" y="126" /><line stroke="black" stroke-width="1" transform="translate(350,650)" x1="26" x2="33.160630953506185" y1="172" y2="180.38157110331787" /><line stroke="black" stroke-width="1" transform="translate(350,650)" x1="120" x2="141.32506798771038" y1="142" y2="160.58356229916208" /><line stroke="black" stroke-width="1" transform="translate(350,650)" x1="15" x2="26.910331634665116" y1="59" y2="66.33315651886947" /><text font-family="Arial" font-size="14" text-anchor="middle" x="425" y="630">Option 4</text><g transform="translate(350,650)"><circle cx="100" cy="88" fill="none" r="20.0" stroke="black" stroke-width="2" /><rect fill="none" height="42" stroke="black" stroke-width="2" transform="rotate(26,44.0,64.0)" width="42" x="23" y="43" /><line stroke="black" stroke-width="2" transform="rotate(27,73.0,113.0)" x1="51" x2="95" y1="91" y2="135" /><polygon fill="none" points="17,133 56,133 36.5,94" stroke="black" stroke-width="2" transform="rotate(144,36.5,113.5)" /><polygon fill="none" points="93,99 127,99 110.0,65" stroke="black" stroke-width="2" transform="rotate(194,110.0,82.0)" /><circle cx="70" cy="16" fill="none" r="17.0" stroke="black" stroke-width="2" /><line stroke="black" stroke-width="2" transform="rotate(241,58.5,52.5)" x1="34" x2="83" y1="28" y2="77" /><circle cx="97" cy="15" fill="none" r="25.0" stroke="black" stroke-width="2" /><rect fill="none" height="42" stroke="black" stroke-width="2" transform="rotate(241,145.0,161.0)" width="42" x="124" y="140" /><rect fill="none" height="37" stroke="black" stroke-width="2" transform="rotate(44,51.5,161.5)" width="37" x="33" y="143" /></g></svg>