<?xml version="1.0" encoding="utf-8" ?>
<svg baseProfile="full" height="1000px" version="1.1" width="600px" xmlns="http://www.w3.org/2000/svg" xmlns:ev="http://www.w3.org/2001/xml-events" xmlns:xlink="http://www.w3.org/1999/xlink"><defs /><rect fill="white" height="100%" width="100%" x="0" y="0" /><text font-family="Arial" font-size="24" text-anchor="middle" x="300" y="40">Visual Figure Ground Test</text><text font-family="Arial" font-size="18" text-anchor="middle" x="300" y="80">Target Pattern</text><g transform="translate(200,100)"><polygon fill="none" points="56,166 88,166 72.0,134" stroke="black" stroke-width="2" transform="rotate(70,72.0,150.0)" /><line stroke="black" stroke-width="2" transform="rotate(72,102.0,98.0)" x1="80" x2="124" y1="76" y2="120" /><rect fill="none" height="33" stroke="black" stroke-width="2" transform="rotate(37,88.5,114.5)" width="33" x="72" y="98" /><rect fill="none" height="48" stroke="black" stroke-width="2" transform="rotate(318,84.0,82.0)" width="48" x="60" y="58" /><line stroke="black" stroke-width="2" transform="rotate(197,81.0,110.0)" x1="64" x2="98" y1="93" y2="127" /><polygon fill="none" points="95,167 126,167 110.5,136" stroke="black" stroke-width="2" transform="rotate(60,110.5,151.5)" /><line stroke="black" stroke-width="2" transform="rotate(267,146.0,95.0)" x1="126" x2="166" y1="75" y2="115" /><polygon fill="none" points="12,94 52,94 32.0,54" stroke="black" stroke-width="2" transform="rotate(51,32.0,74.0)" /><rect fill="none" height="39" stroke="black" stroke-width="2" transform="rotate(334,128.5,64.5)" width="39" x="109" y="45" /><rect fill="none" height="33" stroke="black" stroke-width="2" transform="rotate(321,106.5,71.5)" width="33" x="90" y="55" /></g><text font-family="Arial" font-size="18" text-anchor="middle" x="300" y="350">Options</text><rect fill="none" height="10" stroke="black" stroke-width="1" transform="translate(100,400)" width="11" x="127" y="38" /><circle cx="17" cy="10" fill="black" r="2" stroke="none" transform="translate(100,400)" /><line stroke="black" stroke-width="1" transform="translate(100,400)" x1="130" x2="140.299301243949" y1="43" y2="53.106853639357055" /><circle cx="71" cy="32" fill="black" r="3" stroke="none" transform="translate(100,400)" /><line stroke="black" stroke-width="1" transform="translate(100,400)" x1="147" x2="149.74922962810126" y1="29" y2="42.0940701058213" /><rect fill="none" height="12" stroke="black" stroke-width="1" transform="translate(100,400)" width="11" x="85" y="35" /><circle cx="87" cy="118" fill="black" r="3" stroke="none" transform="translate(100,400)" /><circle cx="168" cy="124" fill="black" r="1" stroke="none" transform="translate(100,400)" /><rect fill="none" height="7" stroke="black" stroke-width="1" transform="translate(100,400)" width="12" x="34" y="158" /><line stroke="black" stroke-width="1" transform="translate(100,400)" x1="86" x2="92.19876311615799" y1="72" y2="92.85754714800717" /><rect fill="none" height="12" stroke="black" stroke-width="1" transform="translate(100,400)" width="5" x="130" y="135" /><circle cx="169" cy="51" fill="black" r="2" stroke="none" transform="translate(100,400)" /><circle cx="83" cy="102" fill="black" r="1" stroke="none" transform="translate(100,400)" /><circle cx="18" cy="85" fill="black" r="1" stroke="none" transform="translate(100,400)" /><circle cx="69" cy="169" fill="black" r="2" stroke="none" transform="translate(100,400)" /><line stroke="black" stroke-width="1" transform="translate(100,400)" x1="139" x2="148.9962874392877" y1="28" y2="32.292717458289545" /><rect fill="none" height="9" stroke="black" stroke-width="1" transform="translate(100,400)" width="7" x="86" y="125" /><line stroke="black" stroke-width="1" transform="translate(100,400)" x1="26" x2="27.90044851478652" y1="55" y2="56.27235532981674" /><circle cx="10" cy="142" fill="black" r="3" stroke="none" transform="translate(100,400)" /><circle cx="145" cy="62" fill="black" r="3" stroke="none" transform="translate(100,400)" /><line stroke="black" stroke-width="1" transform="translate(100,400)" x1="53" x2="65.66606060357435" y1="154" y2="166.7406818855953" /><circle cx="144" cy="49" fill="black" r="2" stroke="none" transform="translate(100,400)" /><rect fill="none" height="8" stroke="black" stroke-width="1" transform="translate(100,400)" width="10" x="143" y="74" /><rect fill="none" height="15" stroke="black" stroke-width="1" transform="translate(100,400)" width="6" x="175" y="21" /><rect fill="none" height="13" stroke="black" stroke-width="1" transform="translate(100,400)" width="7" x="89" y="91" /><line stroke="black" stroke-width="1" transform="translate(100,400)" x1="62" x2="74.55675006239233" y1="132" y2="150.40144185625735" /><rect fill="none" height="4" stroke="black" stroke-width="1" transform="translate(100,400)" width="3" x="118" y="60" /><circle cx="23" cy="150" fill="black" r="1" stroke="none" transform="translate(100,400)" /><rect fill="none" height="6" stroke="black" stroke-width="1" transform="translate(100,400)" width="6" x="78" y="53" /><rect fill="none" height="13" stroke="black" stroke-width="1" transform="translate(100,400)" width="15" x="42" y="39" /><line stroke="black" stroke-width="1" transform="translate(100,400)" x1="19" x2="21.006334542431276" y1="100" y2="103.70749798391255" /><rect fill="none" height="3" stroke="black" stroke-width="1" transform="translate(100,400)" width="5" x="47" y="83" /><rect fill="none" height="10" stroke="black" stroke-width="1" transform="translate(100,400)" width="12" x="16" y="53" /><rect fill="none" height="15" stroke="black" stroke-width="1" transform="translate(100,400)" width="14" x="169" y="51" /><line stroke="black" stroke-width="1" transform="translate(100,400)" x1="88" x2="97.71062069477354" y1="140" y2="143.17349542747772" /><line stroke="black" stroke-width="1" transform="translate(100,400)" x1="173" x2="173.11295418750782" y1="90" y2="90.80157945910803" /><rect fill="none" height="6" stroke="black" stroke-width="1" transform="translate(100,400)" width="12" x="60" y="125" /><rect fill="none" height="15" stroke="black" stroke-width="1" transform="translate(100,400)" width="6" x="79" y="63" /><rect fill="none" height="3" stroke="black" stroke-width="1" transform="translate(100,400)" width="7" x="25" y="16" /><line stroke="black" stroke-width="1" transform="translate(100,400)" x1="96" x2="105.85347375381103" y1="95" y2="97.07333782514189" /><text font-family="Arial" font-size="14" text-anchor="middle" x="175" y="380">Option 1</text><g transform="translate(100,400)"><polygon fill="none" points="56,166 88,166 72.0,134" stroke="black" stroke-width="2" transform="rotate(70,72.0,150.0)" /><line stroke="black" stroke-width="2" transform="rotate(72,102.0,98.0)" x1="80" x2="124" y1="76" y2="120" /><rect fill="none" height="33" stroke="black" stroke-width="2" transform="rotate(37,88.5,114.5)" width="33" x="72" y="98" /><rect fill="none" height="48" stroke="black" stroke-width="2" transform="rotate(318,84.0,82.0)" width="48" x="60" y="58" /><line stroke="black" stroke-width="2" transform="rotate(197,81.0,110.0)" x1="64" x2="98" y1="93" y2="127" /><polygon fill="none" points="95,167 126,167 110.5,136" stroke="black" stroke-width="2" transform="rotate(60,110.5,151.5)" /><line stroke="black" stroke-width="2" transform="rotate(267,146.0,95.0)" x1="126" x2="166" y1="75" y2="115" /><polygon fill="none" points="12,94 52,94 32.0,54" stroke="black" stroke-width="2" transform="rotate(51,32.0,74.0)" /><rect fill="none" height="39" stroke="black" stroke-width="2" transform="rotate(334,128.5,64.5)" width="39" x="109" y="45" /><rect fill="none" height="33" stroke="black" stroke-width="2" transform="rotate(321,106.5,71.5)" width="33" x="90" y="55" /></g><line stroke="black" stroke-width="1" transform="translate(350,400)" x1="172" x2="178.82017831976108" y1="102" y2="106.85913516402015" /><rect fill="none" height="12" stroke="black" stroke-width="1" transform="translate(350,400)" width="4" x="21" y="88" /><circle cx="21" cy="165" fill="black" r="2" stroke="none" transform="translate(350,400)" /><line stroke="black" stroke-width="1" transform="translate(350,400)" x1="127" x2="138.28898124459917" y1="106" y2="117.59496882915171" /><rect fill="none" height="13" stroke="black" stroke-width="1" transform="translate(350,400)" width="7" x="79" y="40" /><line stroke="black" stroke-width="1" transform="translate(350,400)" x1="97" x2="98.9264405583409" y1="153" y2="158.4509544673427" /><line stroke="black" stroke-width="1" transform="translate(350,400)" x1="92" x2="93.88373076038633" y1="40" y2="44.46520846593544" /><rect fill="none" height="15" stroke="black" stroke-width="1" transform="translate(350,400)" width="3" x="173" y="122" /><rect fill="none" height="3" stroke="black" stroke-width="1" transform="translate(350,400)" width="4" x="158" y="30" /><circle cx="155" cy="158" fill="black" r="3" stroke="none" transform="translate(350,400)" /><circle cx="157" cy="162" fill="black" r="2" stroke="none" transform="translate(350,400)" /><line stroke="black" stroke-width="1" transform="translate(350,400)" x1="72" x2="78.26184617614547" y1="134" y2="159.18382408684556" /><line stroke="black" stroke-width="1" transform="translate(350,400)" x1="11" x2="13.502021822258389" y1="149" y2="159.4918871978242" /><line stroke="black" stroke-width="1" transform="translate(350,400)" x1="31" x2="34.86052981384263" y1="102" y2="102.97401508365658" /><circle cx="104" cy="109" fill="black" r="2" stroke="none" transform="translate(350,400)" /><rect fill="none" height="9" stroke="black" stroke-width="1" transform="translate(350,400)" width="12" x="38" y="170" /><circle cx="37" cy="39" fill="black" r="3" stroke="none" transform="translate(350,400)" /><line stroke="black" stroke-width="1" transform="translate(350,400)" x1="67" x2="68.28097059990647" y1="11" y2="16.373197718811518" /><line stroke="black" stroke-width="1" transform="translate(350,400)" x1="165" x2="167.2484845068347" y1="66" y2="75.94153177600624" /><rect fill="none" height="12" stroke="black" stroke-width="1" transform="translate(350,400)" width="4" x="155" y="156" /><line stroke="black" stroke-width="1" transform="translate(350,400)" x1="165" x2="168.53395962286996" y1="89" y2="94.21811413753545" /><circle cx="100" cy="13" fill="black" r="3" stroke="none" transform="translate(350,400)" /><line stroke="black" stroke-width="1" transform="translate(350,400)" x1="19" x2="35.7552847847862" y1="101" y2="111.49861918625378" /><rect fill="none" height="13" stroke="black" stroke-width="1" transform="translate(350,400)" width="14" x="11" y="20" /><line stroke="black" stroke-width="1" transform="translate(350,400)" x1="151" x2="156.8592245769043" y1="32" y2="40.11061506993112" /><rect fill="none" height="11" stroke="black" stroke-width="1" transform="translate(350,400)" width="11" x="77" y="33" /><circle cx="84" cy="157" fill="black" r="3" stroke="none" transform="translate(350,400)" /><line stroke="black" stroke-width="1" transform="translate(350,400)" x1="135" x2="160.18866318056683" y1="117" y2="128.34165501740952" /><rect fill="none" height="10" stroke="black" stroke-width="1" transform="translate(350,400)" width="3" x="52" y="42" /><circle cx="69" cy="176" fill="black" r="1" stroke="none" transform="translate(350,400)" /><circle cx="66" cy="65" fill="black" r="3" stroke="none" transform="translate(350,400)" /><rect fill="none" height="7" stroke="black" stroke-width="1" transform="translate(350,400)" width="11" x="12" y="77" /><circle cx="141" cy="46" fill="black" r="3" stroke="none" transform="translate(350,400)" /><line stroke="black" stroke-width="1" transform="translate(350,400)" x1="15" x2="38.7660109497836" y1="174" y2="185.79717233858293" /><rect fill="none" height="5" stroke="black" stroke-width="1" transform="translate(350,400)" width="15" x="106" y="10" /><line stroke="black" stroke-width="1" transform="translate(350,400)" x1="113" x2="134.41134955087776" y1="146" y2="156.009307336246" /><rect fill="none" height="12" stroke="black" stroke-width="1" transform="translate(350,400)" width="3" x="169" y="23" /><circle cx="76" cy="119" fill="black" r="3" stroke="none" transform="translate(350,400)" /><line stroke="black" stroke-width="1" transform="translate(350,400)" x1="70" x2="79.9289407437893" y1="93" y2="97.37972367181602" /><circle cx="133" cy="96" fill="black" r="1" stroke="none" transform="translate(350,400)" /><text font-family="Arial" font-size="14" text-anchor="middle" x="425" y="380">Option 2</text><g transform="translate(350,400)"><polygon fill="none" points="56,166 88,166 72.0,134" stroke="black" stroke-width="2" transform="rotate(51.66057370610029,72.0,150.0)" /><line stroke="black" stroke-width="2" transform="rotate(53.66057370610029,102.0,98.0)" x1="80" x2="124" y1="76" y2="120" /><rect fill="none" height="33" stroke="black" stroke-width="2" transform="rotate(18.660573706100287,88.5,114.5)" width="33" x="72" y="98" /><rect fill="none" height="48" stroke="black" stroke-width="2" transform="rotate(299.6605737061003,84.0,82.0)" width="48" x="60" y="58" /><line stroke="black" stroke-width="2" transform="rotate(178.66057370610028,81.0,110.0)" x1="64" x2="98" y1="93" y2="127" /><polygon fill="none" points="95,167 126,167 110.5,136" stroke="black" stroke-width="2" transform="rotate(41.66057370610029,110.5,151.5)" /><line stroke="black" stroke-width="2" transform="rotate(248.66057370610028,146.0,95.0)" x1="126" x2="166" y1="75" y2="115" /><polygon fill="none" points="12,94 52,94 32.0,54" stroke="black" stroke-width="2" transform="rotate(32.66057370610029,32.0,74.0)" /><rect fill="none" height="39" stroke="black" stroke-width="2" transform="rotate(315.6605737061003,128.5,64.5)" width="39" x="109" y="45" /><rect fill="none" height="33" stroke="black" stroke-width="2" transform="rotate(302.6605737061003,106.5,71.5)" width="33" x="90" y="55" /></g><circle cx="80" cy="35" fill="black" r="3" stroke="none" transform="translate(100,650)" /><rect fill="none" height="15" stroke="black" stroke-width="1" transform="translate(100,650)" width="12" x="57" y="110" /><rect fill="none" height="5" stroke="black" stroke-width="1" transform="translate(100,650)" width="8" x="93" y="43" /><rect fill="none" height="5" stroke="black" stroke-width="1" transform="translate(100,650)" width="7" x="81" y="59" /><line stroke="black" stroke-width="1" transform="translate(100,650)" x1="58" x2="62.50740410270009" y1="44" y2="55.22084374027442" /><line stroke="black" stroke-width="1" transform="translate(100,650)" x1="109" x2="121.37112196411029" y1="91" y2="93.21751102089709" /><rect fill="none" height="11" stroke="black" stroke-width="1" transform="translate(100,650)" width="13" x="88" y="139" /><line stroke="black" stroke-width="1" transform="translate(100,650)" x1="100" x2="107.40434069815709" y1="21" y2="22.22841485157213" /><circle cx="29" cy="165" fill="black" r="1" stroke="none" transform="translate(100,650)" /><line stroke="black" stroke-width="1" transform="translate(100,650)" x1="85" x2="99.1705688911529" y1="52" y2="71.31208388185016" /><rect fill="none" height="3" stroke="black" stroke-width="1" transform="translate(100,650)" width="10" x="172" y="149" /><circle cx="116" cy="110" fill="black" r="2" stroke="none" transform="translate(100,650)" /><line stroke="black" stroke-width="1" transform="translate(100,650)" x1="17" x2="24.94237851963534" y1="138" y2="144.24190640993356" /><rect fill="none" height="6" stroke="black" stroke-width="1" transform="translate(100,650)" width="9" x="141" y="118" /><rect fill="none" height="3" stroke="black" stroke-width="1" transform="translate(100,650)" width="8" x="30" y="143" /><rect fill="none" height="3" stroke="black" stroke-width="1" transform="translate(100,650)" width="15" x="12" y="128" /><circle cx="176" cy="168" fill="black" r="1" stroke="none" transform="translate(100,650)" /><circle cx="88" cy="124" fill="black" r="3" stroke="none" transform="translate(100,650)" /><circle cx="147" cy="23" fill="black" r="2" stroke="none" transform="translate(100,650)" /><rect fill="none" height="6" stroke="black" stroke-width="1" transform="translate(100,650)" width="3" x="21" y="124" /><line stroke="black" stroke-width="1" transform="translate(100,650)" x1="166" x2="169.95307328474323" y1="165" y2="169.86676799082463" /><rect fill="none" height="6" stroke="black" stroke-width="1" transform="translate(100,650)" width="7" x="123" y="170" /><rect fill="none" height="7" stroke="black" stroke-width="1" transform="translate(100,650)" width="9" x="128" y="66" /><circle cx="159" cy="150" fill="black" r="1" stroke="none" transform="translate(100,650)" /><circle cx="82" cy="161" fill="black" r="3" stroke="none" transform="translate(100,650)" /><rect fill="none" height="9" stroke="black" stroke-width="1" transform="translate(100,650)" width="14" x="135" y="32" /><rect fill="none" height="8" stroke="black" stroke-width="1" transform="translate(100,650)" width="4" x="46" y="98" /><line stroke="black" stroke-width="1" transform="translate(100,650)" x1="154" x2="154.4434506843609" y1="120" y2="129.50131953012044" /><circle cx="95" cy="100" fill="black" r="1" stroke="none" transform="translate(100,650)" /><rect fill="none" height="9" stroke="black" stroke-width="1" transform="translate(100,650)" width="8" x="40" y="102" /><line stroke="black" stroke-width="1" transform="translate(100,650)" x1="83" x2="86.61863547687894" y1="45" y2="45.500369944718734" /><rect fill="none" height="4" stroke="black" stroke-width="1" transform="translate(100,650)" width="6" x="100" y="166" /><line stroke="black" stroke-width="1" transform="translate(100,650)" x1="50" x2="51.63703978031527" y1="44" y2="44.2836183163301" /><line stroke="black" stroke-width="1" transform="translate(100,650)" x1="166" x2="170.32815352565402" y1="101" y2="101.04372805505417" /><rect fill="none" height="4" stroke="black" stroke-width="1" transform="translate(100,650)" width="13" x="99" y="127" /><line stroke="black" stroke-width="1" transform="translate(100,650)" x1="46" x2="54.452742367722195" y1="56" y2="62.95489317144225" /><line stroke="black" stroke-width="1" transform="translate(100,650)" x1="172" x2="174.47476818537353" y1="98" y2="102.69337640085682" /><line stroke="black" stroke-width="1" transform="translate(100,650)" x1="27" x2="27.979492490549767" y1="110" y2="128.86466204435146" /><rect fill="none" height="6" stroke="black" stroke-width="1" transform="translate(100,650)" width="10" x="128" y="52" /><circle cx="12" cy="116" fill="black" r="3" stroke="none" transform="translate(100,650)" /><text font-family="Arial" font-size="14" text-anchor="middle" x="175" y="630">Option 3</text><g transform="translate(100,650)"><polygon fill="none" points="56,166 88,166 72.0,134" stroke="black" stroke-width="2" transform="rotate(51.02520214936557,72.0,150.0)" /><line stroke="black" stroke-width="2" transform="rotate(53.02520214936557,102.0,98.0)" x1="80" x2="124" y1="76" y2="120" /><rect fill="none" height="33" stroke="black" stroke-width="2" transform="rotate(18.025202149365573,88.5,114.5)" width="33" x="72" y="98" /><rect fill="none" height="48" stroke="black" stroke-width="2" transform="rotate(299.02520214936555,84.0,82.0)" width="48" x="60" y="58" /><line stroke="black" stroke-width="2" transform="rotate(178.02520214936558,81.0,110.0)" x1="64" x2="98" y1="93" y2="127" /><polygon fill="none" points="95,167 126,167 110.5,136" stroke="black" stroke-width="2" transform="rotate(41.02520214936557,110.5,151.5)" /><line stroke="black" stroke-width="2" transform="rotate(248.02520214936558,146.0,95.0)" x1="126" x2="166" y1="75" y2="115" /><polygon fill="none" points="94,155 134,155 114.0,115" stroke="black" stroke-width="2" transform="rotate(32.02520214936557,114.0,135.0)" /><rect fill="none" height="39" stroke="black" stroke-width="2" transform="rotate(315.02520214936555,87.5,40.5)" width="39" x="68" y="21" /><rect fill="none" height="33" stroke="black" stroke-width="2" transform="rotate(302.02520214936555,106.5,71.5)" width="33" x="90" y="55" /></g><circle cx="132" cy="104" fill="black" r="2" stroke="none" transform="translate(350,650)" /><line stroke="black" stroke-width="1" transform="translate(350,650)" x1="41" x2="41.949022891114645" y1="78" y2="79.52518083613217" /><circle cx="175" cy="153" fill="black" r="2" stroke="none" transform="translate(350,650)" /><rect fill="none" height="5" stroke="black" stroke-width="1" transform="translate(350,650)" width="8" x="94" y="32" /><line stroke="black" stroke-width="1" transform="translate(350,650)" x1="81" x2="102.41193622712747" y1="62" y2="86.58819952111757" /><rect fill="none" height="3" stroke="black" stroke-width="1" transform="translate(350,650)" width="10" x="131" y="78" /><circle cx="28" cy="115" fill="black" r="3" stroke="none" transform="translate(350,650)" /><circle cx="34" cy="10" fill="black" r="2" stroke="none" transform="translate(350,650)" /><rect fill="none" height="10" stroke="black" stroke-width="1" transform="translate(350,650)" width="12" x="77" y="15" /><line stroke="black" stroke-width="1" transform="translate(350,650)" x1="17" x2="32.7483777396161" y1="50" y2="51.012694231775" /><circle cx="164" cy="143" fill="black" r="3" stroke="none" transform="translate(350,650)" /><circle cx="143" cy="105" fill="black" r="1" stroke="none" transform="translate(350,650)" /><circle cx="145" cy="141" fill="black" r="3" stroke="none" transform="translate(350,650)" /><rect fill="none" height="10" stroke="black" stroke-width="1" transform="translate(350,650)" width="15" x="44" y="79" /><rect fill="none" height="8" stroke="black" stroke-width="1" transform="translate(350,650)" width="15" x="78" y="31" /><rect fill="none" height="6" stroke="black" stroke-width="1" transform="translate(350,650)" width="10" x="102" y="123" /><rect fill="none" height="10" stroke="black" stroke-width="1" transform="translate(350,650)" width="6" x="42" y="42" /><circle cx="24" cy="137" fill="black" r="3" stroke="none" transform="translate(350,650)" /><circle cx="92" cy="79" fill="black" r="1" stroke="none" transform="translate(350,650)" /><circle cx="54" cy="14" fill="black" r="2" stroke="none" transform="translate(350,650)" /><rect fill="none" height="3" stroke="black" stroke-width="1" transform="translate(350,650)" width="11" x="108" y="129" /><rect fill="none" height="14" stroke="black" stroke-width="1" transform="translate(350,650)" width="6" x="52" y="102" /><line stroke="black" stroke-width="1" transform="translate(350,650)" x1="129" x2="134.0571724998494" y1="61" y2="65.11845026670416" /><circle cx="162" cy="92" fill="black" r="2" stroke="none" transform="translate(350,650)" /><line stroke="black" stroke-width="1" transform="translate(350,650)" x1="52" x2="56.80528121603183" y1="12" y2="13.24425499192933" /><rect fill="none" height="15" stroke="black" stroke-width="1" transform="translate(350,650)" width="8" x="21" y="42" /><line stroke="black" stroke-width="1" transform="translate(350,650)" x1="154" x2="169.90258340580118" y1="77" y2="84.37774239162046" /><line stroke="black" stroke-width="1" transform="translate(350,650)" x1="139" x2="147.91336701627213" y1="85" y2="92.45141230589428" /><line stroke="black" stroke-width="1" transform="translate(350,650)" x1="147" x2="156.09367049401965" y1="93" y2="106.64825639088191" /><circle cx="28" cy="125" fill="black" r="3" stroke="none" transform="translate(350,650)" /><line stroke="black" stroke-width="1" transform="translate(350,650)" x1="49" x2="49.14650310207181" y1="156" y2="161.0449447044825" /><line stroke="black" stroke-width="1" transform="translate(350,650)" x1="154" x2="166.8674885559781" y1="92" y2="99.74069417700503" /><line stroke="black" stroke-width="1" transform="translate(350,650)" x1="21" x2="35.87937245711325" y1="63" y2="63.82782871701592" /><circle cx="103" cy="117" fill="black" r="2" stroke="none" transform="translate(350,650)" /><line stroke="black" stroke-width="1" transform="translate(350,650)" x1="132" x2="134.7217269833188" y1="133" y2="133.16655334277783" /><circle cx="62" cy="140" fill="black" r="2" stroke="none" transform="translate(350,650)" /><rect fill="none" height="13" stroke="black" stroke-width="1" transform="translate(350,650)" width="7" x="23" y="63" /><line stroke="black" stroke-width="1" transform="translate(350,650)" x1="151" x2="162.54516783706123" y1="137" y2="147.79366431768574" /><rect fill="none" height="11" stroke="black" stroke-width="1" transform="translate(350,650)" width="4" x="54" y="78" /><circle cx="81" cy="42" fill="black" r="1" stroke="none" transform="translate(350,650)" /><text font-family="Arial" font-size="14" text-anchor="middle" x="425" y="630">Option 4</text><g transform="translate(350,650)"><polygon fill="none" points="56,166 88,166 72.0,134" stroke="black" stroke-width="2" transform="rotate(50.90987631488407,72.0,150.0)" /><line stroke="black" stroke-width="2" transform="rotate(52.90987631488407,102.0,98.0)" x1="80" x2="124" y1="76" y2="120" /><rect fill="none" height="33" stroke="black" stroke-width="2" transform="rotate(17.90987631488407,88.5,114.5)" width="33" x="72" y="98" /><rect fill="none" height="48" stroke="black" stroke-width="2" transform="rotate(298.90987631488406,84.0,82.0)" width="48" x="60" y="58" /><line stroke="black" stroke-width="2" transform="rotate(177.90987631488406,81.0,110.0)" x1="64" x2="98" y1="93" y2="127" /><polygon fill="none" points="95,167 126,167 110.5,136" stroke="black" stroke-width="2" transform="rotate(40.90987631488407,110.5,151.5)" /><line stroke="black" stroke-width="2" transform="rotate(247.90987631488406,146.0,95.0)" x1="126" x2="166" y1="75" y2="115" /><polygon fill="none" points="12,94 52,94 32.0,54" stroke="black" stroke-width="2" transform="rotate(31.90987631488407,32.0,74.0)" /><rect fill="none" height="39" stroke="black" stroke-width="2" transform="rotate(314.90987631488406,128.5,64.5)" width="39" x="109" y="45" /><rect fill="none" height="33" stroke="black" stroke-width="2" transform="rotate(301.90987631488406,106.5,71.5)" width="33" x="90" y="55" /></g></svg>