<?xml version="1.0" encoding="utf-8" ?>
<svg baseProfile="full" height="1000px" version="1.1" width="600px" xmlns="http://www.w3.org/2000/svg" xmlns:ev="http://www.w3.org/2001/xml-events" xmlns:xlink="http://www.w3.org/1999/xlink"><defs /><rect fill="white" height="100%" width="100%" x="0" y="0" /><text font-family="Arial" font-size="24" text-anchor="middle" x="300" y="40">Visual Figure Ground Test</text><text font-family="Arial" font-size="18" text-anchor="middle" x="300" y="80">Target Pattern</text><g transform="translate(200,100)"><circle cx="37" cy="110" fill="none" r="23.0" stroke="black" stroke-width="2" /><polygon fill="none" points="47,103 89,103 68.0,61" stroke="black" stroke-width="2" transform="rotate(240,68.0,82.0)" /></g><text font-family="Arial" font-size="18" text-anchor="middle" x="300" y="350">Options</text><rect fill="none" height="4" stroke="black" stroke-width="1" transform="translate(100,400)" width="8" x="87" y="111" /><circle cx="118" cy="69" fill="black" r="2" stroke="none" transform="translate(100,400)" /><rect fill="none" height="4" stroke="black" stroke-width="1" transform="translate(100,400)" width="3" x="83" y="83" /><circle cx="117" cy="143" fill="black" r="2" stroke="none" transform="translate(100,400)" /><circle cx="163" cy="94" fill="black" r="1" stroke="none" transform="translate(100,400)" /><circle cx="155" cy="130" fill="black" r="1" stroke="none" transform="translate(100,400)" /><line stroke="black" stroke-width="1" transform="translate(100,400)" x1="166" x2="170.0239525027447" y1="124" y2="129.63575456208136" /><circle cx="58" cy="89" fill="black" r="2" stroke="none" transform="translate(100,400)" /><line stroke="black" stroke-width="1" transform="translate(100,400)" x1="21" x2="28.08972685190569" y1="141" y2="148.6231753419248" /><line stroke="black" stroke-width="1" transform="translate(100,400)" x1="146" x2="153.47377095460826" y1="24" y2="46.43989327554691" /><circle cx="157" cy="138" fill="black" r="3" stroke="none" transform="translate(100,400)" /><rect fill="none" height="5" stroke="black" stroke-width="1" transform="translate(100,400)" width="10" x="76" y="61" /><circle cx="43" cy="166" fill="black" r="3" stroke="none" transform="translate(100,400)" /><circle cx="74" cy="153" fill="black" r="2" stroke="none" transform="translate(100,400)" /><rect fill="none" height="14" stroke="black" stroke-width="1" transform="translate(100,400)" width="4" x="166" y="50" /><rect fill="none" height="12" stroke="black" stroke-width="1" transform="translate(100,400)" width="10" x="72" y="58" /><line stroke="black" stroke-width="1" transform="translate(100,400)" x1="72" x2="79.25222916221057" y1="99" y2="118.0591511464801" /><rect fill="none" height="9" stroke="black" stroke-width="1" transform="translate(100,400)" width="3" x="61" y="11" /><line stroke="black" stroke-width="1" transform="translate(100,400)" x1="68" x2="85.16578819297067" y1="34" y2="54.49991666026844" /><rect fill="none" height="4" stroke="black" stroke-width="1" transform="translate(100,400)" width="5" x="177" y="131" /><circle cx="127" cy="144" fill="black" r="1" stroke="none" transform="translate(100,400)" /><line stroke="black" stroke-width="1" transform="translate(100,400)" x1="95" x2="103.05896001126145" y1="65" y2="66.53880045588886" /><circle cx="78" cy="64" fill="black" r="3" stroke="none" transform="translate(100,400)" /><rect fill="none" height="15" stroke="black" stroke-width="1" transform="translate(100,400)" width="8" x="161" y="137" /><rect fill="none" height="12" stroke="black" stroke-width="1" transform="translate(100,400)" width="5" x="112" y="154" /><rect fill="none" height="4" stroke="black" stroke-width="1" transform="translate(100,400)" width="9" x="176" y="96" /><rect fill="none" height="13" stroke="black" stroke-width="1" transform="translate(100,400)" width="5" x="65" y="65" /><line stroke="black" stroke-width="1" transform="translate(100,400)" x1="47" x2="57.27252004210924" y1="153" y2="161.1993814354671" /><line stroke="black" stroke-width="1" transform="translate(100,400)" x1="89" x2="93.95161772591041" y1="150" y2="159.37605154498925" /><line stroke="black" stroke-width="1" transform="translate(100,400)" x1="109" x2="123.96083277696539" y1="129" y2="142.77877365763212" /><rect fill="none" height="3" stroke="black" stroke-width="1" transform="translate(100,400)" width="8" x="168" y="142" /><line stroke="black" stroke-width="1" transform="translate(100,400)" x1="75" x2="81.54482760402979" y1="26" y2="47.40525982877912" /><line stroke="black" stroke-width="1" transform="translate(100,400)" x1="86" x2="106.36570827593472" y1="22" y2="39.29263462672276" /><circle cx="85" cy="125" fill="black" r="1" stroke="none" transform="translate(100,400)" /><line stroke="black" stroke-width="1" transform="translate(100,400)" x1="172" x2="196.3394489499766" y1="47" y2="67.64073553345395" /><line stroke="black" stroke-width="1" transform="translate(100,400)" x1="129" x2="131.93027964094657" y1="20" y2="36.53290590243612" /><circle cx="18" cy="75" fill="black" r="1" stroke="none" transform="translate(100,400)" /><circle cx="110" cy="39" fill="black" r="2" stroke="none" transform="translate(100,400)" /><circle cx="53" cy="122" fill="black" r="1" stroke="none" transform="translate(100,400)" /><rect fill="none" height="5" stroke="black" stroke-width="1" transform="translate(100,400)" width="10" x="14" y="41" /><text font-family="Arial" font-size="14" text-anchor="middle" x="175" y="380">Option 1</text><g transform="translate(100,400)"><circle cx="37" cy="110" fill="none" r="23.0" stroke="black" stroke-width="2" /><polygon fill="none" points="47,103 89,103 68.0,61" stroke="black" stroke-width="2" transform="rotate(259.021214885417,68.0,82.0)" /></g><rect fill="none" height="12" stroke="black" stroke-width="1" transform="translate(350,400)" width="12" x="110" y="88" /><rect fill="none" height="4" stroke="black" stroke-width="1" transform="translate(350,400)" width="6" x="34" y="92" /><line stroke="black" stroke-width="1" transform="translate(350,400)" x1="172" x2="200.39889765416535" y1="25" y2="42.55813119963619" /><line stroke="black" stroke-width="1" transform="translate(350,400)" x1="130" x2="134.92353802715456" y1="81" y2="86.72009806637837" /><line stroke="black" stroke-width="1" transform="translate(350,400)" x1="157" x2="179.29831769311699" y1="84" y2="102.5756075539174" /><circle cx="30" cy="66" fill="black" r="3" stroke="none" transform="translate(350,400)" /><rect fill="none" height="15" stroke="black" stroke-width="1" transform="translate(350,400)" width="8" x="179" y="142" /><line stroke="black" stroke-width="1" transform="translate(350,400)" x1="156" x2="158.01679147069885" y1="105" y2="108.43462877228849" /><circle cx="118" cy="114" fill="black" r="2" stroke="none" transform="translate(350,400)" /><rect fill="none" height="14" stroke="black" stroke-width="1" transform="translate(350,400)" width="4" x="118" y="180" /><rect fill="none" height="11" stroke="black" stroke-width="1" transform="translate(350,400)" width="12" x="156" y="175" /><circle cx="11" cy="125" fill="black" r="2" stroke="none" transform="translate(350,400)" /><line stroke="black" stroke-width="1" transform="translate(350,400)" x1="168" x2="183.44542791156923" y1="87" y2="89.16848504519578" /><rect fill="none" height="14" stroke="black" stroke-width="1" transform="translate(350,400)" width="6" x="167" y="148" /><circle cx="116" cy="159" fill="black" r="1" stroke="none" transform="translate(350,400)" /><circle cx="138" cy="141" fill="black" r="1" stroke="none" transform="translate(350,400)" /><rect fill="none" height="9" stroke="black" stroke-width="1" transform="translate(350,400)" width="3" x="132" y="31" /><rect fill="none" height="9" stroke="black" stroke-width="1" transform="translate(350,400)" width="9" x="163" y="103" /><line stroke="black" stroke-width="1" transform="translate(350,400)" x1="117" x2="122.69444139602423" y1="43" y2="50.54068145900236" /><rect fill="none" height="5" stroke="black" stroke-width="1" transform="translate(350,400)" width="8" x="43" y="149" /><circle cx="164" cy="51" fill="black" r="3" stroke="none" transform="translate(350,400)" /><line stroke="black" stroke-width="1" transform="translate(350,400)" x1="48" x2="65.66192828857206" y1="179" y2="195.94206091112721" /><rect fill="none" height="7" stroke="black" stroke-width="1" transform="translate(350,400)" width="12" x="95" y="31" /><rect fill="none" height="5" stroke="black" stroke-width="1" transform="translate(350,400)" width="14" x="78" y="38" /><line stroke="black" stroke-width="1" transform="translate(350,400)" x1="48" x2="48.30514944430375" y1="104" y2="123.22314591686278" /><line stroke="black" stroke-width="1" transform="translate(350,400)" x1="85" x2="86.96148725668415" y1="88" y2="88.23632694101816" /><line stroke="black" stroke-width="1" transform="translate(350,400)" x1="129" x2="141.5917607362296" y1="162" y2="168.54801734395616" /><line stroke="black" stroke-width="1" transform="translate(350,400)" x1="87" x2="94.63984120682952" y1="64" y2="72.49430798367284" /><rect fill="none" height="10" stroke="black" stroke-width="1" transform="translate(350,400)" width="7" x="38" y="28" /><circle cx="62" cy="40" fill="black" r="3" stroke="none" transform="translate(350,400)" /><circle cx="46" cy="70" fill="black" r="2" stroke="none" transform="translate(350,400)" /><rect fill="none" height="7" stroke="black" stroke-width="1" transform="translate(350,400)" width="4" x="144" y="34" /><rect fill="none" height="8" stroke="black" stroke-width="1" transform="translate(350,400)" width="6" x="178" y="134" /><rect fill="none" height="12" stroke="black" stroke-width="1" transform="translate(350,400)" width="13" x="58" y="47" /><line stroke="black" stroke-width="1" transform="translate(350,400)" x1="19" x2="26.822526161923488" y1="139" y2="147.8343220584883" /><rect fill="none" height="11" stroke="black" stroke-width="1" transform="translate(350,400)" width="14" x="144" y="107" /><circle cx="15" cy="127" fill="black" r="3" stroke="none" transform="translate(350,400)" /><rect fill="none" height="6" stroke="black" stroke-width="1" transform="translate(350,400)" width="8" x="149" y="51" /><circle cx="125" cy="110" fill="black" r="3" stroke="none" transform="translate(350,400)" /><rect fill="none" height="9" stroke="black" stroke-width="1" transform="translate(350,400)" width="6" x="122" y="139" /><text font-family="Arial" font-size="14" text-anchor="middle" x="425" y="380">Option 2</text><g transform="translate(350,400)"><circle cx="115" cy="20" fill="none" r="23.0" stroke="black" stroke-width="2" /><polygon fill="none" points="47,103 89,103 68.0,61" stroke="black" stroke-width="2" transform="rotate(240,68.0,82.0)" /></g><circle cx="69" cy="159" fill="black" r="3" stroke="none" transform="translate(100,650)" /><line stroke="black" stroke-width="1" transform="translate(100,650)" x1="45" x2="58.34439354876976" y1="40" y2="52.057607663456935" /><rect fill="none" height="13" stroke="black" stroke-width="1" transform="translate(100,650)" width="6" x="121" y="70" /><circle cx="160" cy="60" fill="black" r="3" stroke="none" transform="translate(100,650)" /><line stroke="black" stroke-width="1" transform="translate(100,650)" x1="152" x2="153.80478271903544" y1="179" y2="184.38342427627273" /><rect fill="none" height="11" stroke="black" stroke-width="1" transform="translate(100,650)" width="3" x="154" y="90" /><circle cx="180" cy="44" fill="black" r="2" stroke="none" transform="translate(100,650)" /><line stroke="black" stroke-width="1" transform="translate(100,650)" x1="93" x2="93.93262165358804" y1="50" y2="70.53992205937607" /><line stroke="black" stroke-width="1" transform="translate(100,650)" x1="83" x2="85.25242267054544" y1="59" y2="62.1130210988103" /><circle cx="88" cy="10" fill="black" r="1" stroke="none" transform="translate(100,650)" /><line stroke="black" stroke-width="1" transform="translate(100,650)" x1="109" x2="122.28726386442823" y1="165" y2="168.73477914867811" /><rect fill="none" height="9" stroke="black" stroke-width="1" transform="translate(100,650)" width="4" x="111" y="30" /><line stroke="black" stroke-width="1" transform="translate(100,650)" x1="125" x2="135.74738142628135" y1="131" y2="133.80619042464716" /><line stroke="black" stroke-width="1" transform="translate(100,650)" x1="106" x2="109.21117766801838" y1="92" y2="94.7360530347477" /><line stroke="black" stroke-width="1" transform="translate(100,650)" x1="132" x2="136.3877124704977" y1="23" y2="26.677593918741636" /><circle cx="31" cy="34" fill="black" r="2" stroke="none" transform="translate(100,650)" /><line stroke="black" stroke-width="1" transform="translate(100,650)" x1="19" x2="21.201007431310714" y1="82" y2="87.07854409539334" /><circle cx="108" cy="27" fill="black" r="3" stroke="none" transform="translate(100,650)" /><circle cx="10" cy="92" fill="black" r="2" stroke="none" transform="translate(100,650)" /><circle cx="155" cy="96" fill="black" r="1" stroke="none" transform="translate(100,650)" /><line stroke="black" stroke-width="1" transform="translate(100,650)" x1="65" x2="65.12179712429165" y1="155" y2="175.21601208273358" /><circle cx="19" cy="13" fill="black" r="2" stroke="none" transform="translate(100,650)" /><line stroke="black" stroke-width="1" transform="translate(100,650)" x1="50" x2="54.265158989383" y1="101" y2="105.20083108132803" /><rect fill="none" height="6" stroke="black" stroke-width="1" transform="translate(100,650)" width="15" x="130" y="113" /><line stroke="black" stroke-width="1" transform="translate(100,650)" x1="110" x2="123.40209294948515" y1="157" y2="170.34166371838262" /><circle cx="81" cy="90" fill="black" r="3" stroke="none" transform="translate(100,650)" /><circle cx="112" cy="94" fill="black" r="1" stroke="none" transform="translate(100,650)" /><line stroke="black" stroke-width="1" transform="translate(100,650)" x1="78" x2="84.08160056251546" y1="137" y2="137.6207236747722" /><circle cx="173" cy="45" fill="black" r="1" stroke="none" transform="translate(100,650)" /><line stroke="black" stroke-width="1" transform="translate(100,650)" x1="60" x2="65.79877109473819" y1="129" y2="130.34527317298412" /><circle cx="82" cy="34" fill="black" r="2" stroke="none" transform="translate(100,650)" /><line stroke="black" stroke-width="1" transform="translate(100,650)" x1="63" x2="66.09179574408206" y1="87" y2="91.93545744125966" /><line stroke="black" stroke-width="1" transform="translate(100,650)" x1="108" x2="121.27862671835581" y1="140" y2="152.8757552056545" /><rect fill="none" height="14" stroke="black" stroke-width="1" transform="translate(100,650)" width="8" x="36" y="158" /><circle cx="106" cy="36" fill="black" r="2" stroke="none" transform="translate(100,650)" /><circle cx="134" cy="22" fill="black" r="1" stroke="none" transform="translate(100,650)" /><rect fill="none" height="5" stroke="black" stroke-width="1" transform="translate(100,650)" width="8" x="94" y="118" /><circle cx="125" cy="128" fill="black" r="3" stroke="none" transform="translate(100,650)" /><circle cx="158" cy="48" fill="black" r="1" stroke="none" transform="translate(100,650)" /><rect fill="none" height="9" stroke="black" stroke-width="1" transform="translate(100,650)" width="11" x="137" y="118" /><text font-family="Arial" font-size="14" text-anchor="middle" x="175" y="630">Option 3</text><g transform="translate(100,650)"><circle cx="37" cy="110" fill="none" r="23.0" stroke="black" stroke-width="2" /><polygon fill="none" points="47,103 89,103 68.0,61" stroke="black" stroke-width="2" transform="rotate(240,68.0,82.0)" /></g><circle cx="51" cy="36" fill="black" r="2" stroke="none" transform="translate(350,650)" /><line stroke="black" stroke-width="1" transform="translate(350,650)" x1="128" x2="129.0079362186844" y1="159" y2="163.22680337492548" /><rect fill="none" height="11" stroke="black" stroke-width="1" transform="translate(350,650)" width="13" x="69" y="93" /><circle cx="112" cy="49" fill="black" r="2" stroke="none" transform="translate(350,650)" /><rect fill="none" height="11" stroke="black" stroke-width="1" transform="translate(350,650)" width="13" x="91" y="28" /><rect fill="none" height="10" stroke="black" stroke-width="1" transform="translate(350,650)" width="7" x="122" y="53" /><line stroke="black" stroke-width="1" transform="translate(350,650)" x1="142" x2="163.8370674177575" y1="65" y2="76.75449276604128" /><line stroke="black" stroke-width="1" transform="translate(350,650)" x1="37" x2="41.9188281052934" y1="150" y2="171.2168358550444" /><rect fill="none" height="12" stroke="black" stroke-width="1" transform="translate(350,650)" width="10" x="64" y="84" /><circle cx="29" cy="163" fill="black" r="3" stroke="none" transform="translate(350,650)" /><circle cx="94" cy="27" fill="black" r="2" stroke="none" transform="translate(350,650)" /><line stroke="black" stroke-width="1" transform="translate(350,650)" x1="126" x2="126.69083038360922" y1="119" y2="119.94533103852855" /><line stroke="black" stroke-width="1" transform="translate(350,650)" x1="109" x2="120.05892601078968" y1="145" y2="167.4558249025768" /><circle cx="164" cy="168" fill="black" r="3" stroke="none" transform="translate(350,650)" /><rect fill="none" height="7" stroke="black" stroke-width="1" transform="translate(350,650)" width="14" x="147" y="124" /><circle cx="148" cy="53" fill="black" r="1" stroke="none" transform="translate(350,650)" /><rect fill="none" height="4" stroke="black" stroke-width="1" transform="translate(350,650)" width="10" x="44" y="146" /><rect fill="none" height="11" stroke="black" stroke-width="1" transform="translate(350,650)" width="13" x="116" y="19" /><circle cx="133" cy="33" fill="black" r="3" stroke="none" transform="translate(350,650)" /><circle cx="80" cy="74" fill="black" r="2" stroke="none" transform="translate(350,650)" /><circle cx="110" cy="80" fill="black" r="2" stroke="none" transform="translate(350,650)" /><circle cx="112" cy="180" fill="black" r="3" stroke="none" transform="translate(350,650)" /><rect fill="none" height="12" stroke="black" stroke-width="1" transform="translate(350,650)" width="15" x="26" y="54" /><circle cx="74" cy="56" fill="black" r="2" stroke="none" transform="translate(350,650)" /><rect fill="none" height="10" stroke="black" stroke-width="1" transform="translate(350,650)" width="15" x="140" y="178" /><circle cx="144" cy="103" fill="black" r="2" stroke="none" transform="translate(350,650)" /><line stroke="black" stroke-width="1" transform="translate(350,650)" x1="176" x2="176.64710621448745" y1="166" y2="176.37949692995164" /><rect fill="none" height="9" stroke="black" stroke-width="1" transform="translate(350,650)" width="8" x="30" y="23" /><rect fill="none" height="4" stroke="black" stroke-width="1" transform="translate(350,650)" width="13" x="70" y="147" /><rect fill="none" height="14" stroke="black" stroke-width="1" transform="translate(350,650)" width="3" x="76" y="133" /><circle cx="84" cy="40" fill="black" r="2" stroke="none" transform="translate(350,650)" /><circle cx="60" cy="92" fill="black" r="1" stroke="none" transform="translate(350,650)" /><circle cx="175" cy="79" fill="black" r="2" stroke="none" transform="translate(350,650)" /><rect fill="none" height="10" stroke="black" stroke-width="1" transform="translate(350,650)" width="9" x="78" y="93" /><circle cx="72" cy="39" fill="black" r="1" stroke="none" transform="translate(350,650)" /><circle cx="104" cy="72" fill="black" r="2" stroke="none" transform="translate(350,650)" /><line stroke="black" stroke-width="1" transform="translate(350,650)" x1="77" x2="85.32805890512101" y1="41" y2="42.636951606562775" /><rect fill="none" height="7" stroke="black" stroke-width="1" transform="translate(350,650)" width="5" x="77" y="134" /><rect fill="none" height="15" stroke="black" stroke-width="1" transform="translate(350,650)" width="8" x="11" y="94" /><rect fill="none" height="5" stroke="black" stroke-width="1" transform="translate(350,650)" width="3" x="69" y="147" /><text font-family="Arial" font-size="14" text-anchor="middle" x="425" y="630">Option 4</text><g transform="translate(350,650)"><circle cx="37" cy="110" fill="none" r="23.0" stroke="black" stroke-width="2" /><polygon fill="none" points="47,103 89,103 68.0,61" stroke="black" stroke-width="2" transform="rotate(223.6627377755408,68.0,82.0)" /></g></svg>