<?xml version="1.0" encoding="utf-8" ?>
<svg baseProfile="full" height="1000px" version="1.1" width="600px" xmlns="http://www.w3.org/2000/svg" xmlns:ev="http://www.w3.org/2001/xml-events" xmlns:xlink="http://www.w3.org/1999/xlink"><defs /><rect fill="white" height="100%" width="100%" x="0" y="0" /><text font-family="Arial" font-size="24" text-anchor="middle" x="300" y="40">Visual Figure Ground Test</text><text font-family="Arial" font-size="18" text-anchor="middle" x="300" y="80">Target Pattern</text><g transform="translate(200,100)"><circle cx="61" cy="53" fill="none" r="19.5" stroke="black" stroke-width="2" /><rect fill="none" height="49" stroke="black" stroke-width="2" transform="rotate(287,82.5,79.5)" width="49" x="58" y="55" /></g><text font-family="Arial" font-size="18" text-anchor="middle" x="300" y="350">Options</text><circle cx="112" cy="61" fill="black" r="2" stroke="none" transform="translate(100,400)" /><line stroke="black" stroke-width="1" transform="translate(100,400)" x1="139" x2="142.7808566706714" y1="58" y2="65.73319331598887" /><circle cx="72" cy="114" fill="black" r="3" stroke="none" transform="translate(100,400)" /><rect fill="none" height="6" stroke="black" stroke-width="1" transform="translate(100,400)" width="9" x="22" y="18" /><circle cx="57" cy="114" fill="black" r="2" stroke="none" transform="translate(100,400)" /><rect fill="none" height="13" stroke="black" stroke-width="1" transform="translate(100,400)" width="7" x="30" y="115" /><circle cx="114" cy="76" fill="black" r="3" stroke="none" transform="translate(100,400)" /><circle cx="54" cy="28" fill="black" r="3" stroke="none" transform="translate(100,400)" /><circle cx="31" cy="142" fill="black" r="2" stroke="none" transform="translate(100,400)" /><rect fill="none" height="9" stroke="black" stroke-width="1" transform="translate(100,400)" width="13" x="161" y="117" /><rect fill="none" height="5" stroke="black" stroke-width="1" transform="translate(100,400)" width="5" x="50" y="178" /><line stroke="black" stroke-width="1" transform="translate(100,400)" x1="65" x2="74.84599537254711" y1="115" y2="120.68464068599214" /><rect fill="none" height="9" stroke="black" stroke-width="1" transform="translate(100,400)" width="14" x="61" y="40" /><line stroke="black" stroke-width="1" transform="translate(100,400)" x1="133" x2="137.5824705658453" y1="91" y2="92.74204788585627" /><rect fill="none" height="8" stroke="black" stroke-width="1" transform="translate(100,400)" width="13" x="50" y="146" /><circle cx="61" cy="10" fill="black" r="3" stroke="none" transform="translate(100,400)" /><line stroke="black" stroke-width="1" transform="translate(100,400)" x1="64" x2="75.60625691170344" y1="145" y2="159.08481889768694" /><rect fill="none" height="6" stroke="black" stroke-width="1" transform="translate(100,400)" width="12" x="145" y="163" /><circle cx="43" cy="125" fill="black" r="2" stroke="none" transform="translate(100,400)" /><rect fill="none" height="4" stroke="black" stroke-width="1" transform="translate(100,400)" width="14" x="63" y="154" /><line stroke="black" stroke-width="1" transform="translate(100,400)" x1="75" x2="80.06628946048492" y1="94" y2="96.80629086625558" /><circle cx="24" cy="175" fill="black" r="1" stroke="none" transform="translate(100,400)" /><rect fill="none" height="3" stroke="black" stroke-width="1" transform="translate(100,400)" width="4" x="77" y="12" /><circle cx="71" cy="55" fill="black" r="2" stroke="none" transform="translate(100,400)" /><circle cx="66" cy="91" fill="black" r="2" stroke="none" transform="translate(100,400)" /><rect fill="none" height="9" stroke="black" stroke-width="1" transform="translate(100,400)" width="5" x="19" y="76" /><circle cx="106" cy="56" fill="black" r="2" stroke="none" transform="translate(100,400)" /><rect fill="none" height="14" stroke="black" stroke-width="1" transform="translate(100,400)" width="6" x="168" y="150" /><circle cx="116" cy="120" fill="black" r="2" stroke="none" transform="translate(100,400)" /><line stroke="black" stroke-width="1" transform="translate(100,400)" x1="141" x2="152.5712428992585" y1="43" y2="54.38721189429887" /><rect fill="none" height="8" stroke="black" stroke-width="1" transform="translate(100,400)" width="4" x="14" y="138" /><circle cx="48" cy="98" fill="black" r="3" stroke="none" transform="translate(100,400)" /><rect fill="none" height="10" stroke="black" stroke-width="1" transform="translate(100,400)" width="10" x="96" y="52" /><line stroke="black" stroke-width="1" transform="translate(100,400)" x1="84" x2="98.4443649119495" y1="76" y2="80.12160549854802" /><circle cx="133" cy="88" fill="black" r="2" stroke="none" transform="translate(100,400)" /><rect fill="none" height="5" stroke="black" stroke-width="1" transform="translate(100,400)" width="8" x="108" y="90" /><circle cx="118" cy="93" fill="black" r="2" stroke="none" transform="translate(100,400)" /><circle cx="70" cy="106" fill="black" r="1" stroke="none" transform="translate(100,400)" /><circle cx="159" cy="86" fill="black" r="3" stroke="none" transform="translate(100,400)" /><circle cx="44" cy="67" fill="black" r="3" stroke="none" transform="translate(100,400)" /><text font-family="Arial" font-size="14" text-anchor="middle" x="175" y="380">Option 1</text><g transform="translate(100,400)"><circle cx="61" cy="53" fill="none" r="19.5" stroke="black" stroke-width="2" /><rect fill="none" height="49" stroke="black" stroke-width="2" transform="rotate(306.5425058401839,47.5,69.5)" width="49" x="23" y="45" /></g><rect fill="none" height="15" stroke="black" stroke-width="1" transform="translate(350,400)" width="9" x="117" y="23" /><rect fill="none" height="10" stroke="black" stroke-width="1" transform="translate(350,400)" width="7" x="169" y="140" /><circle cx="32" cy="66" fill="black" r="1" stroke="none" transform="translate(350,400)" /><line stroke="black" stroke-width="1" transform="translate(350,400)" x1="143" x2="147.3656287171594" y1="95" y2="100.44923918058866" /><circle cx="111" cy="65" fill="black" r="1" stroke="none" transform="translate(350,400)" /><circle cx="74" cy="175" fill="black" r="3" stroke="none" transform="translate(350,400)" /><line stroke="black" stroke-width="1" transform="translate(350,400)" x1="52" x2="52.610245058777224" y1="72" y2="79.59136031163887" /><line stroke="black" stroke-width="1" transform="translate(350,400)" x1="154" x2="168.15970293232135" y1="142" y2="142.36736287659798" /><circle cx="138" cy="54" fill="black" r="3" stroke="none" transform="translate(350,400)" /><circle cx="130" cy="162" fill="black" r="3" stroke="none" transform="translate(350,400)" /><line stroke="black" stroke-width="1" transform="translate(350,400)" x1="121" x2="129.79016090463384" y1="81" y2="81.19965417526011" /><circle cx="69" cy="15" fill="black" r="2" stroke="none" transform="translate(350,400)" /><circle cx="27" cy="132" fill="black" r="3" stroke="none" transform="translate(350,400)" /><line stroke="black" stroke-width="1" transform="translate(350,400)" x1="37" x2="41.01017768001649" y1="171" y2="178.08911686902138" /><circle cx="70" cy="143" fill="black" r="3" stroke="none" transform="translate(350,400)" /><line stroke="black" stroke-width="1" transform="translate(350,400)" x1="77" x2="82.2974833165055" y1="166" y2="168.59982421889765" /><line stroke="black" stroke-width="1" transform="translate(350,400)" x1="80" x2="80.57336986717084" y1="50" y2="53.08156399069331" /><rect fill="none" height="4" stroke="black" stroke-width="1" transform="translate(350,400)" width="10" x="64" y="165" /><line stroke="black" stroke-width="1" transform="translate(350,400)" x1="98" x2="113.84371530267752" y1="101" y2="109.64401359574862" /><line stroke="black" stroke-width="1" transform="translate(350,400)" x1="74" x2="75.42857290095104" y1="18" y2="37.950672027705096" /><rect fill="none" height="4" stroke="black" stroke-width="1" transform="translate(350,400)" width="15" x="157" y="142" /><rect fill="none" height="9" stroke="black" stroke-width="1" transform="translate(350,400)" width="10" x="117" y="49" /><rect fill="none" height="3" stroke="black" stroke-width="1" transform="translate(350,400)" width="10" x="48" y="179" /><circle cx="97" cy="58" fill="black" r="2" stroke="none" transform="translate(350,400)" /><line stroke="black" stroke-width="1" transform="translate(350,400)" x1="80" x2="81.16210502612638" y1="126" y2="132.07994834250258" /><circle cx="167" cy="33" fill="black" r="3" stroke="none" transform="translate(350,400)" /><rect fill="none" height="3" stroke="black" stroke-width="1" transform="translate(350,400)" width="6" x="103" y="142" /><rect fill="none" height="13" stroke="black" stroke-width="1" transform="translate(350,400)" width="12" x="38" y="34" /><circle cx="140" cy="135" fill="black" r="1" stroke="none" transform="translate(350,400)" /><rect fill="none" height="11" stroke="black" stroke-width="1" transform="translate(350,400)" width="5" x="107" y="133" /><line stroke="black" stroke-width="1" transform="translate(350,400)" x1="87" x2="107.23061496979798" y1="14" y2="38.87764531926824" /><circle cx="32" cy="55" fill="black" r="3" stroke="none" transform="translate(350,400)" /><rect fill="none" height="8" stroke="black" stroke-width="1" transform="translate(350,400)" width="4" x="27" y="150" /><line stroke="black" stroke-width="1" transform="translate(350,400)" x1="125" x2="125.93681155089826" y1="58" y2="70.90910291336982" /><circle cx="103" cy="145" fill="black" r="2" stroke="none" transform="translate(350,400)" /><rect fill="none" height="11" stroke="black" stroke-width="1" transform="translate(350,400)" width="15" x="52" y="71" /><circle cx="73" cy="97" fill="black" r="2" stroke="none" transform="translate(350,400)" /><rect fill="none" height="15" stroke="black" stroke-width="1" transform="translate(350,400)" width="8" x="33" y="64" /><circle cx="177" cy="127" fill="black" r="2" stroke="none" transform="translate(350,400)" /><line stroke="black" stroke-width="1" transform="translate(350,400)" x1="157" x2="171.44842134581967" y1="122" y2="126.13473005462377" /><text font-family="Arial" font-size="14" text-anchor="middle" x="425" y="380">Option 2</text><g transform="translate(350,400)"><circle cx="61" cy="53" fill="none" r="19.5" stroke="black" stroke-width="2" /><rect fill="none" height="49" stroke="black" stroke-width="2" transform="rotate(306.96374167491734,82.5,79.5)" width="49" x="58" y="55" /></g><rect fill="none" height="11" stroke="black" stroke-width="1" transform="translate(100,650)" width="6" x="18" y="98" /><circle cx="85" cy="41" fill="black" r="2" stroke="none" transform="translate(100,650)" /><circle cx="66" cy="154" fill="black" r="2" stroke="none" transform="translate(100,650)" /><rect fill="none" height="9" stroke="black" stroke-width="1" transform="translate(100,650)" width="15" x="47" y="59" /><rect fill="none" height="7" stroke="black" stroke-width="1" transform="translate(100,650)" width="15" x="23" y="50" /><circle cx="173" cy="20" fill="black" r="3" stroke="none" transform="translate(100,650)" /><rect fill="none" height="10" stroke="black" stroke-width="1" transform="translate(100,650)" width="6" x="98" y="112" /><rect fill="none" height="10" stroke="black" stroke-width="1" transform="translate(100,650)" width="7" x="158" y="64" /><circle cx="29" cy="128" fill="black" r="2" stroke="none" transform="translate(100,650)" /><circle cx="163" cy="21" fill="black" r="1" stroke="none" transform="translate(100,650)" /><line stroke="black" stroke-width="1" transform="translate(100,650)" x1="128" x2="129.10669774517976" y1="178" y2="183.0865465414609" /><line stroke="black" stroke-width="1" transform="translate(100,650)" x1="91" x2="96.28479710315625" y1="158" y2="164.24842488926808" /><circle cx="37" cy="120" fill="black" r="2" stroke="none" transform="translate(100,650)" /><line stroke="black" stroke-width="1" transform="translate(100,650)" x1="38" x2="38.73828470132286" y1="176" y2="182.62777217381046" /><line stroke="black" stroke-width="1" transform="translate(100,650)" x1="71" x2="80.895288685854" y1="25" y2="39.73082822680375" /><circle cx="169" cy="106" fill="black" r="3" stroke="none" transform="translate(100,650)" /><circle cx="160" cy="97" fill="black" r="1" stroke="none" transform="translate(100,650)" /><line stroke="black" stroke-width="1" transform="translate(100,650)" x1="133" x2="148.54817724376522" y1="72" y2="83.66840136331497" /><line stroke="black" stroke-width="1" transform="translate(100,650)" x1="153" x2="170.63839372743575" y1="43" y2="55.53211167013265" /><line stroke="black" stroke-width="1" transform="translate(100,650)" x1="87" x2="104.13933856248624" y1="48" y2="61.47126261229493" /><rect fill="none" height="13" stroke="black" stroke-width="1" transform="translate(100,650)" width="7" x="153" y="119" /><circle cx="128" cy="80" fill="black" r="2" stroke="none" transform="translate(100,650)" /><circle cx="136" cy="166" fill="black" r="2" stroke="none" transform="translate(100,650)" /><circle cx="158" cy="67" fill="black" r="2" stroke="none" transform="translate(100,650)" /><circle cx="124" cy="103" fill="black" r="3" stroke="none" transform="translate(100,650)" /><rect fill="none" height="12" stroke="black" stroke-width="1" transform="translate(100,650)" width="6" x="60" y="42" /><line stroke="black" stroke-width="1" transform="translate(100,650)" x1="24" x2="28.836974026373632" y1="91" y2="93.38079023971635" /><line stroke="black" stroke-width="1" transform="translate(100,650)" x1="20" x2="38.60939227551498" y1="111" y2="127.95947561441133" /><rect fill="none" height="6" stroke="black" stroke-width="1" transform="translate(100,650)" width="10" x="174" y="27" /><line stroke="black" stroke-width="1" transform="translate(100,650)" x1="70" x2="75.28800936042317" y1="94" y2="99.38025777381772" /><circle cx="135" cy="10" fill="black" r="2" stroke="none" transform="translate(100,650)" /><circle cx="97" cy="116" fill="black" r="1" stroke="none" transform="translate(100,650)" /><line stroke="black" stroke-width="1" transform="translate(100,650)" x1="152" x2="158.11877198546048" y1="70" y2="73.34941146493145" /><line stroke="black" stroke-width="1" transform="translate(100,650)" x1="133" x2="136.86028400057054" y1="67" y2="76.32599845172537" /><circle cx="16" cy="113" fill="black" r="1" stroke="none" transform="translate(100,650)" /><line stroke="black" stroke-width="1" transform="translate(100,650)" x1="74" x2="89.73966139739962" y1="127" y2="142.87163031540436" /><circle cx="104" cy="122" fill="black" r="2" stroke="none" transform="translate(100,650)" /><rect fill="none" height="8" stroke="black" stroke-width="1" transform="translate(100,650)" width="13" x="118" y="114" /><circle cx="95" cy="56" fill="black" r="2" stroke="none" transform="translate(100,650)" /><circle cx="87" cy="140" fill="black" r="3" stroke="none" transform="translate(100,650)" /><text font-family="Arial" font-size="14" text-anchor="middle" x="175" y="630">Option 3</text><g transform="translate(100,650)"><circle cx="61" cy="53" fill="none" r="19.5" stroke="black" stroke-width="2" /><rect fill="none" height="49" stroke="black" stroke-width="2" transform="rotate(287,82.5,79.5)" width="49" x="58" y="55" /></g><rect fill="none" height="12" stroke="black" stroke-width="1" transform="translate(350,650)" width="12" x="178" y="135" /><rect fill="none" height="3" stroke="black" stroke-width="1" transform="translate(350,650)" width="9" x="127" y="41" /><circle cx="83" cy="140" fill="black" r="3" stroke="none" transform="translate(350,650)" /><rect fill="none" height="9" stroke="black" stroke-width="1" transform="translate(350,650)" width="9" x="100" y="20" /><rect fill="none" height="14" stroke="black" stroke-width="1" transform="translate(350,650)" width="10" x="41" y="172" /><line stroke="black" stroke-width="1" transform="translate(350,650)" x1="112" x2="114.85595526471313" y1="66" y2="66.72550551721484" /><rect fill="none" height="11" stroke="black" stroke-width="1" transform="translate(350,650)" width="14" x="144" y="32" /><rect fill="none" height="12" stroke="black" stroke-width="1" transform="translate(350,650)" width="9" x="49" y="157" /><rect fill="none" height="8" stroke="black" stroke-width="1" transform="translate(350,650)" width="10" x="123" y="26" /><circle cx="72" cy="62" fill="black" r="1" stroke="none" transform="translate(350,650)" /><rect fill="none" height="13" stroke="black" stroke-width="1" transform="translate(350,650)" width="7" x="93" y="100" /><circle cx="116" cy="124" fill="black" r="2" stroke="none" transform="translate(350,650)" /><rect fill="none" height="4" stroke="black" stroke-width="1" transform="translate(350,650)" width="7" x="19" y="141" /><rect fill="none" height="14" stroke="black" stroke-width="1" transform="translate(350,650)" width="13" x="23" y="25" /><rect fill="none" height="11" stroke="black" stroke-width="1" transform="translate(350,650)" width="8" x="170" y="85" /><rect fill="none" height="11" stroke="black" stroke-width="1" transform="translate(350,650)" width="6" x="138" y="123" /><line stroke="black" stroke-width="1" transform="translate(350,650)" x1="110" x2="124.76276686853186" y1="11" y2="26.372510946212913" /><rect fill="none" height="13" stroke="black" stroke-width="1" transform="translate(350,650)" width="9" x="172" y="94" /><rect fill="none" height="5" stroke="black" stroke-width="1" transform="translate(350,650)" width="13" x="123" y="34" /><circle cx="55" cy="140" fill="black" r="2" stroke="none" transform="translate(350,650)" /><rect fill="none" height="7" stroke="black" stroke-width="1" transform="translate(350,650)" width="11" x="40" y="162" /><circle cx="86" cy="59" fill="black" r="1" stroke="none" transform="translate(350,650)" /><circle cx="54" cy="170" fill="black" r="3" stroke="none" transform="translate(350,650)" /><circle cx="156" cy="18" fill="black" r="2" stroke="none" transform="translate(350,650)" /><rect fill="none" height="14" stroke="black" stroke-width="1" transform="translate(350,650)" width="6" x="99" y="161" /><circle cx="27" cy="152" fill="black" r="1" stroke="none" transform="translate(350,650)" /><line stroke="black" stroke-width="1" transform="translate(350,650)" x1="105" x2="120.3040219322539" y1="15" y2="16.05881002989552" /><line stroke="black" stroke-width="1" transform="translate(350,650)" x1="119" x2="121.40574293281622" y1="146" y2="153.33501795691677" /><line stroke="black" stroke-width="1" transform="translate(350,650)" x1="61" x2="63.790893022874194" y1="37" y2="39.1103632622424" /><line stroke="black" stroke-width="1" transform="translate(350,650)" x1="91" x2="105.79151897716974" y1="81" y2="82.66986343823626" /><line stroke="black" stroke-width="1" transform="translate(350,650)" x1="152" x2="160.05561606930243" y1="87" y2="92.21486410529975" /><rect fill="none" height="3" stroke="black" stroke-width="1" transform="translate(350,650)" width="3" x="164" y="85" /><line stroke="black" stroke-width="1" transform="translate(350,650)" x1="61" x2="66.70182547577848" y1="24" y2="26.405280741183077" /><line stroke="black" stroke-width="1" transform="translate(350,650)" x1="109" x2="111.85258661474704" y1="35" y2="40.48972488261977" /><line stroke="black" stroke-width="1" transform="translate(350,650)" x1="99" x2="99.19398930384173" y1="94" y2="98.583348153036" /><circle cx="41" cy="89" fill="black" r="1" stroke="none" transform="translate(350,650)" /><circle cx="134" cy="102" fill="black" r="2" stroke="none" transform="translate(350,650)" /><line stroke="black" stroke-width="1" transform="translate(350,650)" x1="99" x2="100.80360299373702" y1="164" y2="173.73939220523587" /><circle cx="81" cy="55" fill="black" r="3" stroke="none" transform="translate(350,650)" /><line stroke="black" stroke-width="1" transform="translate(350,650)" x1="168" x2="178.92928888323988" y1="37" y2="50.89208486599751" /><text font-family="Arial" font-size="14" text-anchor="middle" x="425" y="630">Option 4</text><g transform="translate(350,650)"><circle cx="61" cy="53" fill="none" r="19.5" stroke="black" stroke-width="2" /><rect fill="none" height="49" stroke="black" stroke-width="2" transform="rotate(267.7987057220744,82.5,79.5)" width="49" x="58" y="55" /></g></svg>