<?xml version="1.0" encoding="utf-8" ?>
<svg baseProfile="full" height="1000px" version="1.1" width="600px" xmlns="http://www.w3.org/2000/svg" xmlns:ev="http://www.w3.org/2001/xml-events" xmlns:xlink="http://www.w3.org/1999/xlink"><defs /><rect fill="white" height="100%" width="100%" x="0" y="0" /><text font-family="Arial" font-size="24" text-anchor="middle" x="300" y="40">Visual Figure Ground Test</text><text font-family="Arial" font-size="18" text-anchor="middle" x="300" y="80">Target Pattern</text><g transform="translate(200,100)"><line stroke="black" stroke-width="2" transform="rotate(60,50.0,46.0)" x1="28" x2="72" y1="24" y2="68" /><rect fill="none" height="47" stroke="black" stroke-width="2" transform="rotate(56,120.5,128.5)" width="47" x="97" y="105" /></g><text font-family="Arial" font-size="18" text-anchor="middle" x="300" y="350">Options</text><circle cx="117" cy="154" fill="black" r="2" stroke="none" transform="translate(100,400)" /><line stroke="black" stroke-width="1" transform="translate(100,400)" x1="67" x2="89.9574313635886" y1="138" y2="147.50179009630764" /><circle cx="58" cy="50" fill="black" r="3" stroke="none" transform="translate(100,400)" /><rect fill="none" height="10" stroke="black" stroke-width="1" transform="translate(100,400)" width="8" x="94" y="39" /><rect fill="none" height="13" stroke="black" stroke-width="1" transform="translate(100,400)" width="3" x="155" y="48" /><rect fill="none" height="14" stroke="black" stroke-width="1" transform="translate(100,400)" width="8" x="167" y="165" /><line stroke="black" stroke-width="1" transform="translate(100,400)" x1="143" x2="152.65693573783236" y1="116" y2="117.82940869035833" /><circle cx="82" cy="170" fill="black" r="2" stroke="none" transform="translate(100,400)" /><rect fill="none" height="15" stroke="black" stroke-width="1" transform="translate(100,400)" width="6" x="104" y="147" /><circle cx="77" cy="15" fill="black" r="2" stroke="none" transform="translate(100,400)" /><circle cx="84" cy="90" fill="black" r="2" stroke="none" transform="translate(100,400)" /><circle cx="156" cy="152" fill="black" r="3" stroke="none" transform="translate(100,400)" /><rect fill="none" height="14" stroke="black" stroke-width="1" transform="translate(100,400)" width="6" x="155" y="155" /><line stroke="black" stroke-width="1" transform="translate(100,400)" x1="53" x2="61.81879221756803" y1="126" y2="134.53018845313375" /><rect fill="none" height="5" stroke="black" stroke-width="1" transform="translate(100,400)" width="5" x="31" y="86" /><circle cx="151" cy="87" fill="black" r="1" stroke="none" transform="translate(100,400)" /><line stroke="black" stroke-width="1" transform="translate(100,400)" x1="28" x2="42.08370080645808" y1="61" y2="69.98144753145473" /><rect fill="none" height="11" stroke="black" stroke-width="1" transform="translate(100,400)" width="9" x="27" y="152" /><rect fill="none" height="7" stroke="black" stroke-width="1" transform="translate(100,400)" width="5" x="114" y="178" /><rect fill="none" height="11" stroke="black" stroke-width="1" transform="translate(100,400)" width="15" x="136" y="159" /><rect fill="none" height="13" stroke="black" stroke-width="1" transform="translate(100,400)" width="7" x="161" y="158" /><circle cx="130" cy="111" fill="black" r="3" stroke="none" transform="translate(100,400)" /><circle cx="171" cy="58" fill="black" r="2" stroke="none" transform="translate(100,400)" /><line stroke="black" stroke-width="1" transform="translate(100,400)" x1="61" x2="76.67221246418018" y1="161" y2="168.37574966333176" /><circle cx="16" cy="31" fill="black" r="2" stroke="none" transform="translate(100,400)" /><rect fill="none" height="11" stroke="black" stroke-width="1" transform="translate(100,400)" width="15" x="64" y="125" /><line stroke="black" stroke-width="1" transform="translate(100,400)" x1="121" x2="123.15106903427105" y1="159" y2="165.01756523587954" /><line stroke="black" stroke-width="1" transform="translate(100,400)" x1="124" x2="127.3421035464032" y1="110" y2="110.63946931254718" /><rect fill="none" height="9" stroke="black" stroke-width="1" transform="translate(100,400)" width="8" x="110" y="95" /><rect fill="none" height="11" stroke="black" stroke-width="1" transform="translate(100,400)" width="6" x="116" y="146" /><line stroke="black" stroke-width="1" transform="translate(100,400)" x1="157" x2="165.5523618431986" y1="81" y2="98.35581497900296" /><rect fill="none" height="10" stroke="black" stroke-width="1" transform="translate(100,400)" width="11" x="10" y="52" /><rect fill="none" height="6" stroke="black" stroke-width="1" transform="translate(100,400)" width="13" x="151" y="93" /><circle cx="75" cy="17" fill="black" r="3" stroke="none" transform="translate(100,400)" /><circle cx="29" cy="46" fill="black" r="2" stroke="none" transform="translate(100,400)" /><rect fill="none" height="6" stroke="black" stroke-width="1" transform="translate(100,400)" width="10" x="175" y="168" /><rect fill="none" height="14" stroke="black" stroke-width="1" transform="translate(100,400)" width="5" x="49" y="17" /><line stroke="black" stroke-width="1" transform="translate(100,400)" x1="55" x2="56.62295350827692" y1="128" y2="129.8075472414779" /><circle cx="94" cy="125" fill="black" r="2" stroke="none" transform="translate(100,400)" /><circle cx="67" cy="45" fill="black" r="2" stroke="none" transform="translate(100,400)" /><text font-family="Arial" font-size="14" text-anchor="middle" x="175" y="380">Option 1</text><g transform="translate(100,400)"><line stroke="black" stroke-width="2" transform="rotate(60,50.0,46.0)" x1="28" x2="72" y1="24" y2="68" /><rect fill="none" height="47" stroke="black" stroke-width="2" transform="rotate(56,60.5,70.5)" width="47" x="37" y="47" /></g><line stroke="black" stroke-width="1" transform="translate(350,400)" x1="37" x2="48.979416930885975" y1="68" y2="88.6479248849182" /><circle cx="92" cy="172" fill="black" r="3" stroke="none" transform="translate(350,400)" /><line stroke="black" stroke-width="1" transform="translate(350,400)" x1="39" x2="58.09125086989927" y1="53" y2="64.79421236669812" /><rect fill="none" height="13" stroke="black" stroke-width="1" transform="translate(350,400)" width="13" x="86" y="20" /><line stroke="black" stroke-width="1" transform="translate(350,400)" x1="128" x2="130.9414138195036" y1="29" y2="42.82091623147381" /><rect fill="none" height="15" stroke="black" stroke-width="1" transform="translate(350,400)" width="14" x="47" y="50" /><circle cx="23" cy="114" fill="black" r="3" stroke="none" transform="translate(350,400)" /><line stroke="black" stroke-width="1" transform="translate(350,400)" x1="96" x2="104.2634339473276" y1="34" y2="42.95454959143436" /><rect fill="none" height="6" stroke="black" stroke-width="1" transform="translate(350,400)" width="13" x="113" y="46" /><line stroke="black" stroke-width="1" transform="translate(350,400)" x1="180" x2="182.47519678926676" y1="25" y2="29.285655349968124" /><line stroke="black" stroke-width="1" transform="translate(350,400)" x1="11" x2="11.088898308112633" y1="109" y2="111.59448473477617" /><line stroke="black" stroke-width="1" transform="translate(350,400)" x1="91" x2="93.86486403618811" y1="99" y2="102.68020817011251" /><line stroke="black" stroke-width="1" transform="translate(350,400)" x1="146" x2="156.00460773613534" y1="83" y2="86.38597322991245" /><line stroke="black" stroke-width="1" transform="translate(350,400)" x1="98" x2="98.3295020971113" y1="114" y2="116.52474467063779" /><line stroke="black" stroke-width="1" transform="translate(350,400)" x1="143" x2="144.42766102465927" y1="72" y2="75.40384758410167" /><rect fill="none" height="10" stroke="black" stroke-width="1" transform="translate(350,400)" width="5" x="105" y="163" /><line stroke="black" stroke-width="1" transform="translate(350,400)" x1="78" x2="81.19839262178036" y1="171" y2="178.10888924722556" /><circle cx="172" cy="152" fill="black" r="1" stroke="none" transform="translate(350,400)" /><circle cx="78" cy="116" fill="black" r="2" stroke="none" transform="translate(350,400)" /><rect fill="none" height="4" stroke="black" stroke-width="1" transform="translate(350,400)" width="15" x="48" y="173" /><line stroke="black" stroke-width="1" transform="translate(350,400)" x1="101" x2="128.81944299770484" y1="71" y2="85.87883422796216" /><rect fill="none" height="15" stroke="black" stroke-width="1" transform="translate(350,400)" width="3" x="60" y="58" /><line stroke="black" stroke-width="1" transform="translate(350,400)" x1="75" x2="83.683621398052" y1="176" y2="183.48616535911822" /><circle cx="157" cy="74" fill="black" r="1" stroke="none" transform="translate(350,400)" /><circle cx="113" cy="44" fill="black" r="2" stroke="none" transform="translate(350,400)" /><circle cx="129" cy="113" fill="black" r="2" stroke="none" transform="translate(350,400)" /><line stroke="black" stroke-width="1" transform="translate(350,400)" x1="151" x2="158.63756606647635" y1="138" y2="150.30328754966598" /><line stroke="black" stroke-width="1" transform="translate(350,400)" x1="82" x2="83.48034581703125" y1="21" y2="28.50721176581322" /><rect fill="none" height="3" stroke="black" stroke-width="1" transform="translate(350,400)" width="15" x="166" y="131" /><line stroke="black" stroke-width="1" transform="translate(350,400)" x1="112" x2="120.01052884083853" y1="18" y2="19.730821140118227" /><line stroke="black" stroke-width="1" transform="translate(350,400)" x1="50" x2="55.20830381012949" y1="127" y2="134.1794348145875" /><circle cx="61" cy="168" fill="black" r="1" stroke="none" transform="translate(350,400)" /><circle cx="73" cy="160" fill="black" r="3" stroke="none" transform="translate(350,400)" /><rect fill="none" height="13" stroke="black" stroke-width="1" transform="translate(350,400)" width="14" x="88" y="88" /><circle cx="175" cy="113" fill="black" r="2" stroke="none" transform="translate(350,400)" /><rect fill="none" height="13" stroke="black" stroke-width="1" transform="translate(350,400)" width="14" x="67" y="54" /><circle cx="135" cy="89" fill="black" r="3" stroke="none" transform="translate(350,400)" /><circle cx="40" cy="127" fill="black" r="3" stroke="none" transform="translate(350,400)" /><circle cx="118" cy="131" fill="black" r="3" stroke="none" transform="translate(350,400)" /><line stroke="black" stroke-width="1" transform="translate(350,400)" x1="97" x2="103.46873203568003" y1="78" y2="80.96720019729226" /><text font-family="Arial" font-size="14" text-anchor="middle" x="425" y="380">Option 2</text><g transform="translate(350,400)"><line stroke="black" stroke-width="2" transform="rotate(78.92969963321377,50.0,46.0)" x1="28" x2="72" y1="24" y2="68" /><rect fill="none" height="47" stroke="black" stroke-width="2" transform="rotate(74.92969963321377,120.5,128.5)" width="47" x="97" y="105" /></g><circle cx="24" cy="136" fill="black" r="1" stroke="none" transform="translate(100,650)" /><rect fill="none" height="15" stroke="black" stroke-width="1" transform="translate(100,650)" width="3" x="38" y="15" /><rect fill="none" height="9" stroke="black" stroke-width="1" transform="translate(100,650)" width="14" x="101" y="146" /><circle cx="111" cy="100" fill="black" r="2" stroke="none" transform="translate(100,650)" /><circle cx="112" cy="31" fill="black" r="2" stroke="none" transform="translate(100,650)" /><circle cx="131" cy="159" fill="black" r="1" stroke="none" transform="translate(100,650)" /><rect fill="none" height="7" stroke="black" stroke-width="1" transform="translate(100,650)" width="10" x="87" y="71" /><circle cx="43" cy="88" fill="black" r="2" stroke="none" transform="translate(100,650)" /><rect fill="none" height="4" stroke="black" stroke-width="1" transform="translate(100,650)" width="14" x="79" y="62" /><circle cx="51" cy="42" fill="black" r="2" stroke="none" transform="translate(100,650)" /><line stroke="black" stroke-width="1" transform="translate(100,650)" x1="92" x2="92.6514097594026" y1="42" y2="47.16645885253787" /><circle cx="109" cy="44" fill="black" r="1" stroke="none" transform="translate(100,650)" /><line stroke="black" stroke-width="1" transform="translate(100,650)" x1="40" x2="41.10902720515386" y1="133" y2="134.53273504262972" /><rect fill="none" height="7" stroke="black" stroke-width="1" transform="translate(100,650)" width="14" x="42" y="88" /><line stroke="black" stroke-width="1" transform="translate(100,650)" x1="84" x2="95.41348155877819" y1="168" y2="170.52862185769627" /><line stroke="black" stroke-width="1" transform="translate(100,650)" x1="81" x2="86.04562574305919" y1="65" y2="73.61329905854154" /><circle cx="118" cy="144" fill="black" r="1" stroke="none" transform="translate(100,650)" /><circle cx="99" cy="149" fill="black" r="2" stroke="none" transform="translate(100,650)" /><circle cx="13" cy="78" fill="black" r="1" stroke="none" transform="translate(100,650)" /><line stroke="black" stroke-width="1" transform="translate(100,650)" x1="130" x2="140.44574104979105" y1="136" y2="143.34233106689237" /><rect fill="none" height="4" stroke="black" stroke-width="1" transform="translate(100,650)" width="4" x="175" y="29" /><line stroke="black" stroke-width="1" transform="translate(100,650)" x1="176" x2="182.09226949177312" y1="13" y2="23.05794514208333" /><circle cx="88" cy="156" fill="black" r="1" stroke="none" transform="translate(100,650)" /><circle cx="146" cy="123" fill="black" r="1" stroke="none" transform="translate(100,650)" /><circle cx="20" cy="47" fill="black" r="1" stroke="none" transform="translate(100,650)" /><circle cx="176" cy="84" fill="black" r="1" stroke="none" transform="translate(100,650)" /><circle cx="77" cy="167" fill="black" r="3" stroke="none" transform="translate(100,650)" /><rect fill="none" height="7" stroke="black" stroke-width="1" transform="translate(100,650)" width="15" x="47" y="174" /><circle cx="90" cy="135" fill="black" r="2" stroke="none" transform="translate(100,650)" /><circle cx="32" cy="113" fill="black" r="2" stroke="none" transform="translate(100,650)" /><circle cx="44" cy="32" fill="black" r="2" stroke="none" transform="translate(100,650)" /><line stroke="black" stroke-width="1" transform="translate(100,650)" x1="74" x2="76.7428061520989" y1="118" y2="126.41815409037248" /><line stroke="black" stroke-width="1" transform="translate(100,650)" x1="104" x2="106.34215957797402" y1="57" y2="58.033927729808944" /><rect fill="none" height="13" stroke="black" stroke-width="1" transform="translate(100,650)" width="14" x="68" y="42" /><circle cx="177" cy="29" fill="black" r="2" stroke="none" transform="translate(100,650)" /><rect fill="none" height="7" stroke="black" stroke-width="1" transform="translate(100,650)" width="15" x="37" y="117" /><rect fill="none" height="11" stroke="black" stroke-width="1" transform="translate(100,650)" width="14" x="158" y="126" /><line stroke="black" stroke-width="1" transform="translate(100,650)" x1="144" x2="146.55274014463416" y1="56" y2="59.15400253075969" /><circle cx="13" cy="32" fill="black" r="2" stroke="none" transform="translate(100,650)" /><circle cx="109" cy="31" fill="black" r="3" stroke="none" transform="translate(100,650)" /><text font-family="Arial" font-size="14" text-anchor="middle" x="175" y="630">Option 3</text><g transform="translate(100,650)"><line stroke="black" stroke-width="2" transform="rotate(60,50.0,46.0)" x1="28" x2="72" y1="24" y2="68" /><rect fill="none" height="47" stroke="black" stroke-width="2" transform="rotate(56,120.5,128.5)" width="47" x="97" y="105" /></g><line stroke="black" stroke-width="1" transform="translate(350,650)" x1="71" x2="80.92254848769092" y1="168" y2="173.5126017459196" /><line stroke="black" stroke-width="1" transform="translate(350,650)" x1="139" x2="160.21688357595895" y1="25" y2="40.10786067341937" /><line stroke="black" stroke-width="1" transform="translate(350,650)" x1="35" x2="40.10970958571746" y1="72" y2="94.83738434260033" /><circle cx="77" cy="71" fill="black" r="3" stroke="none" transform="translate(350,650)" /><rect fill="none" height="8" stroke="black" stroke-width="1" transform="translate(350,650)" width="6" x="151" y="16" /><circle cx="58" cy="109" fill="black" r="3" stroke="none" transform="translate(350,650)" /><line stroke="black" stroke-width="1" transform="translate(350,650)" x1="117" x2="128.78109398480046" y1="119" y2="119.05988429443404" /><circle cx="21" cy="83" fill="black" r="1" stroke="none" transform="translate(350,650)" /><circle cx="51" cy="85" fill="black" r="1" stroke="none" transform="translate(350,650)" /><line stroke="black" stroke-width="1" transform="translate(350,650)" x1="68" x2="71.7603746738676" y1="41" y2="50.272055399984566" /><line stroke="black" stroke-width="1" transform="translate(350,650)" x1="172" x2="178.41284536920318" y1="148" y2="148.44870974868354" /><rect fill="none" height="13" stroke="black" stroke-width="1" transform="translate(350,650)" width="10" x="98" y="51" /><rect fill="none" height="4" stroke="black" stroke-width="1" transform="translate(350,650)" width="7" x="52" y="35" /><line stroke="black" stroke-width="1" transform="translate(350,650)" x1="36" x2="38.11161145973412" y1="147" y2="172.3999324403872" /><line stroke="black" stroke-width="1" transform="translate(350,650)" x1="63" x2="67.09646500757198" y1="14" y2="17.233385566868424" /><circle cx="176" cy="120" fill="black" r="3" stroke="none" transform="translate(350,650)" /><circle cx="21" cy="96" fill="black" r="3" stroke="none" transform="translate(350,650)" /><rect fill="none" height="9" stroke="black" stroke-width="1" transform="translate(350,650)" width="13" x="142" y="63" /><circle cx="39" cy="32" fill="black" r="2" stroke="none" transform="translate(350,650)" /><circle cx="55" cy="130" fill="black" r="1" stroke="none" transform="translate(350,650)" /><line stroke="black" stroke-width="1" transform="translate(350,650)" x1="133" x2="157.4615540294456" y1="19" y2="21.26395204564714" /><circle cx="60" cy="114" fill="black" r="2" stroke="none" transform="translate(350,650)" /><circle cx="70" cy="164" fill="black" r="2" stroke="none" transform="translate(350,650)" /><circle cx="167" cy="135" fill="black" r="1" stroke="none" transform="translate(350,650)" /><circle cx="164" cy="153" fill="black" r="1" stroke="none" transform="translate(350,650)" /><line stroke="black" stroke-width="1" transform="translate(350,650)" x1="36" x2="52.795192945773906" y1="150" y2="153.21057137284612" /><line stroke="black" stroke-width="1" transform="translate(350,650)" x1="64" x2="79.04325917131824" y1="102" y2="117.86521742036327" /><line stroke="black" stroke-width="1" transform="translate(350,650)" x1="112" x2="114.42537245375145" y1="111" y2="111.6708600488167" /><line stroke="black" stroke-width="1" transform="translate(350,650)" x1="27" x2="35.321864908724976" y1="69" y2="76.30860484700206" /><circle cx="110" cy="17" fill="black" r="3" stroke="none" transform="translate(350,650)" /><line stroke="black" stroke-width="1" transform="translate(350,650)" x1="108" x2="114.15090751234412" y1="177" y2="182.64074802567788" /><rect fill="none" height="11" stroke="black" stroke-width="1" transform="translate(350,650)" width="11" x="177" y="157" /><line stroke="black" stroke-width="1" transform="translate(350,650)" x1="136" x2="137.57600133567988" y1="111" y2="114.55246732570134" /><circle cx="101" cy="141" fill="black" r="1" stroke="none" transform="translate(350,650)" /><line stroke="black" stroke-width="1" transform="translate(350,650)" x1="161" x2="164.87540285148276" y1="108" y2="108.29152782175616" /><line stroke="black" stroke-width="1" transform="translate(350,650)" x1="56" x2="65.29180463531709" y1="134" y2="138.70177459326584" /><line stroke="black" stroke-width="1" transform="translate(350,650)" x1="165" x2="169.288263711949" y1="145" y2="154.92822349831258" /><line stroke="black" stroke-width="1" transform="translate(350,650)" x1="138" x2="148.93831956633622" y1="92" y2="98.99922862707594" /><line stroke="black" stroke-width="1" transform="translate(350,650)" x1="180" x2="188.58055988852897" y1="129" y2="145.549967512341" /><line stroke="black" stroke-width="1" transform="translate(350,650)" x1="60" x2="60.98417301280649" y1="144" y2="145.42589380669648" /><text font-family="Arial" font-size="14" text-anchor="middle" x="425" y="630">Option 4</text><g transform="translate(350,650)"><line stroke="black" stroke-width="2" transform="rotate(77.98794675022452,50.0,46.0)" x1="28" x2="72" y1="24" y2="68" /><rect fill="none" height="47" stroke="black" stroke-width="2" transform="rotate(73.98794675022452,120.5,128.5)" width="47" x="97" y="105" /></g></svg>