<?xml version="1.0" encoding="utf-8" ?>
<svg baseProfile="full" height="1000px" version="1.1" width="600px" xmlns="http://www.w3.org/2000/svg" xmlns:ev="http://www.w3.org/2001/xml-events" xmlns:xlink="http://www.w3.org/1999/xlink"><defs /><rect fill="white" height="100%" width="100%" x="0" y="0" /><text font-family="Arial" font-size="24" text-anchor="middle" x="300" y="40">Visual Discrimination Test</text><text font-family="Arial" font-size="18" text-anchor="middle" x="300" y="80">Target Pattern</text><g transform="translate(200,100)"><polygon fill="none" points="55,85 86,85 70.5,54" stroke="black" stroke-width="2" transform="rotate(46,70.5,69.5)" /><line stroke="black" stroke-width="2" transform="rotate(106,135.5,54.5)" x1="120" x2="151" y1="39" y2="70" /><rect fill="none" height="32" stroke="black" stroke-width="2" transform="rotate(61,157.0,165.0)" width="32" x="141" y="149" /><rect fill="none" height="38" stroke="black" stroke-width="2" transform="rotate(41,162.0,147.0)" width="38" x="143" y="128" /><polygon fill="none" points="145,99 185,99 165.0,59" stroke="black" stroke-width="2" transform="rotate(191,165.0,79.0)" /><circle cx="139" cy="49" fill="none" r="18.0" stroke="black" stroke-width="2" /><line stroke="black" stroke-width="2" transform="rotate(148,143.5,62.5)" x1="119" x2="168" y1="38" y2="87" /><polygon fill="none" points="143,52 175,52 159.0,20" stroke="black" stroke-width="2" transform="rotate(177,159.0,36.0)" /><line stroke="black" stroke-width="2" transform="rotate(233,66.5,80.5)" x1="45" x2="88" y1="59" y2="102" /></g><text font-family="Arial" font-size="18" text-anchor="middle" x="300" y="350">Options</text><text font-family="Arial" font-size="14" text-anchor="middle" x="175" y="380">Option 1</text><g transform="translate(100,400)"><polygon fill="none" points="55,73.84 79.8,73.84 67.4,54" stroke="black" stroke-width="2" transform="rotate(52,67.4,63.92)" /><line stroke="black" stroke-width="2" transform="rotate(109,132.4,51.4)" x1="120" x2="144.8" y1="39" y2="63.8" /><rect fill="none" height="20.480000000000004" stroke="black" stroke-width="2" transform="rotate(67,153.8,159.24)" width="25.6" x="141" y="149" /><rect fill="none" height="24.320000000000004" stroke="black" stroke-width="2" transform="rotate(46,158.2,140.16)" width="30.400000000000002" x="143" y="128" /><polygon fill="none" points="145,84.6 177.0,84.6 161.0,59" stroke="black" stroke-width="2" transform="rotate(198,161.0,71.8)" /><circle cx="139" cy="49" fill="none" r="14.4" stroke="black" stroke-width="2" /><line stroke="black" stroke-width="2" transform="rotate(151,138.6,57.6)" x1="119" x2="158.2" y1="38" y2="77.2" /><polygon fill="none" points="143,40.480000000000004 168.6,40.480000000000004 155.8,20" stroke="black" stroke-width="2" transform="rotate(181,155.8,30.240000000000002)" /><line stroke="black" stroke-width="2" transform="rotate(237,62.2,76.2)" x1="45" x2="79.4" y1="59" y2="93.4" /></g><text font-family="Arial" font-size="14" text-anchor="middle" x="425" y="380">Option 2</text><g transform="translate(350,400)"><polygon fill="none" points="55,73.84 79.8,73.84 67.4,54" stroke="black" stroke-width="2" transform="rotate(53,67.4,63.92)" /><line stroke="black" stroke-width="2" transform="rotate(112,132.4,51.4)" x1="120" x2="144.8" y1="39" y2="63.8" /><rect fill="none" height="20.480000000000004" stroke="black" stroke-width="2" transform="rotate(66,153.8,159.24)" width="25.6" x="141" y="149" /><rect fill="none" height="24.320000000000004" stroke="black" stroke-width="2" transform="rotate(46,158.2,140.16)" width="30.400000000000002" x="143" y="128" /><polygon fill="none" points="145,84.6 177.0,84.6 161.0,59" stroke="black" stroke-width="2" transform="rotate(194,161.0,71.8)" /><circle cx="139" cy="49" fill="none" r="14.4" stroke="black" stroke-width="2" /><line stroke="black" stroke-width="2" transform="rotate(153,138.6,57.6)" x1="119" x2="158.2" y1="38" y2="77.2" /><polygon fill="none" points="143,40.480000000000004 168.6,40.480000000000004 155.8,20" stroke="black" stroke-width="2" transform="rotate(180,155.8,30.240000000000002)" /><line stroke="black" stroke-width="2" transform="rotate(240,62.2,76.2)" x1="45" x2="79.4" y1="59" y2="93.4" /></g><text font-family="Arial" font-size="14" text-anchor="middle" x="175" y="630">Option 3</text><g transform="translate(100,650)"><polygon fill="none" points="55,85 86,85 70.5,54" stroke="black" stroke-width="2" transform="rotate(46,70.5,69.5)" /><line stroke="black" stroke-width="2" transform="rotate(106,135.5,54.5)" x1="120" x2="151" y1="39" y2="70" /><rect fill="none" height="32" stroke="black" stroke-width="2" transform="rotate(61,157.0,165.0)" width="32" x="141" y="149" /><rect fill="none" height="38" stroke="black" stroke-width="2" transform="rotate(41,162.0,147.0)" width="38" x="143" y="128" /><polygon fill="none" points="145,99 185,99 165.0,59" stroke="black" stroke-width="2" transform="rotate(191,165.0,79.0)" /><circle cx="139" cy="49" fill="none" r="18.0" stroke="black" stroke-width="2" /><line stroke="black" stroke-width="2" transform="rotate(148,143.5,62.5)" x1="119" x2="168" y1="38" y2="87" /><polygon fill="none" points="143,52 175,52 159.0,20" stroke="black" stroke-width="2" transform="rotate(177,159.0,36.0)" /><line stroke="black" stroke-width="2" transform="rotate(233,66.5,80.5)" x1="45" x2="88" y1="59" y2="102" /></g><text font-family="Arial" font-size="14" text-anchor="middle" x="425" y="630">Option 4</text><g transform="translate(350,650)"><polygon fill="none" points="55,73.84 79.8,73.84 67.4,54" stroke="black" stroke-width="2" transform="rotate(50,67.4,63.92)" /><line stroke="black" stroke-width="2" transform="rotate(113,132.4,51.4)" x1="120" x2="144.8" y1="39" y2="63.8" /><rect fill="none" height="20.480000000000004" stroke="black" stroke-width="2" transform="rotate(67,153.8,159.24)" width="25.6" x="141" y="149" /><rect fill="none" height="24.320000000000004" stroke="black" stroke-width="2" transform="rotate(47,158.2,140.16)" width="30.400000000000002" x="143" y="128" /><polygon fill="none" points="145,84.6 177.0,84.6 161.0,59" stroke="black" stroke-width="2" transform="rotate(198,161.0,71.8)" /><circle cx="139" cy="49" fill="none" r="14.4" stroke="black" stroke-width="2" /><line stroke="black" stroke-width="2" transform="rotate(152,138.6,57.6)" x1="119" x2="158.2" y1="38" y2="77.2" /><polygon fill="none" points="143,40.480000000000004 168.6,40.480000000000004 155.8,20" stroke="black" stroke-width="2" transform="rotate(181,155.8,30.240000000000002)" /><line stroke="black" stroke-width="2" transform="rotate(238,62.2,76.2)" x1="45" x2="79.4" y1="59" y2="93.4" /></g></svg>