<?xml version="1.0" encoding="utf-8" ?>
<svg baseProfile="full" height="1000px" version="1.1" width="600px" xmlns="http://www.w3.org/2000/svg" xmlns:ev="http://www.w3.org/2001/xml-events" xmlns:xlink="http://www.w3.org/1999/xlink"><defs /><rect fill="white" height="100%" width="100%" x="0" y="0" /><text font-family="Arial" font-size="24" text-anchor="middle" x="300" y="40">Visual Discrimination Test</text><text font-family="Arial" font-size="18" text-anchor="middle" x="300" y="80">Target Pattern</text><g transform="translate(200,100)"><line stroke="black" stroke-width="2" transform="rotate(268,121.5,100.5)" x1="104" x2="139" y1="83" y2="118" /><polygon fill="none" points="11,78 45,78 28.0,44" stroke="black" stroke-width="2" transform="rotate(318,28.0,61.0)" /><line stroke="black" stroke-width="2" transform="rotate(352,98.0,124.0)" x1="78" x2="118" y1="104" y2="144" /><circle cx="59" cy="61" fill="none" r="17.0" stroke="black" stroke-width="2" /><circle cx="121" cy="79" fill="none" r="22.0" stroke="black" stroke-width="2" /><circle cx="13" cy="128" fill="none" r="17.0" stroke="black" stroke-width="2" /><line stroke="black" stroke-width="2" transform="rotate(44,149.5,72.5)" x1="131" x2="168" y1="54" y2="91" /><circle cx="64" cy="105" fill="none" r="15.5" stroke="black" stroke-width="2" /><circle cx="144" cy="55" fill="none" r="20.5" stroke="black" stroke-width="2" /><circle cx="16" cy="46" fill="none" r="22.0" stroke="black" stroke-width="2" /></g><text font-family="Arial" font-size="18" text-anchor="middle" x="300" y="350">Options</text><text font-family="Arial" font-size="14" text-anchor="middle" x="175" y="380">Option 1</text><g transform="translate(100,400)"><line stroke="black" stroke-width="2" transform="rotate(275,118.0,97.0)" x1="104" x2="132.0" y1="83" y2="111.0" /><polygon fill="none" points="11,65.76 38.2,65.76 24.6,44" stroke="black" stroke-width="2" transform="rotate(323,24.6,54.88)" /><line stroke="black" stroke-width="2" transform="rotate(357,94.0,120.0)" x1="78" x2="110.0" y1="104" y2="136.0" /><circle cx="59" cy="61" fill="none" r="13.600000000000001" stroke="black" stroke-width="2" /><circle cx="121" cy="79" fill="none" r="17.6" stroke="black" stroke-width="2" /><circle cx="13" cy="128" fill="none" r="13.600000000000001" stroke="black" stroke-width="2" /><line stroke="black" stroke-width="2" transform="rotate(49,145.8,68.8)" x1="131" x2="160.6" y1="54" y2="83.6" /><circle cx="64" cy="105" fill="none" r="12.4" stroke="black" stroke-width="2" /><circle cx="144" cy="55" fill="none" r="16.400000000000002" stroke="black" stroke-width="2" /><circle cx="16" cy="46" fill="none" r="17.6" stroke="black" stroke-width="2" /></g><text font-family="Arial" font-size="14" text-anchor="middle" x="425" y="380">Option 2</text><g transform="translate(350,400)"><line stroke="black" stroke-width="2" transform="rotate(273,118.0,97.0)" x1="104" x2="132.0" y1="83" y2="111.0" /><polygon fill="none" points="11,65.76 38.2,65.76 24.6,44" stroke="black" stroke-width="2" transform="rotate(323,24.6,54.88)" /><line stroke="black" stroke-width="2" transform="rotate(356,94.0,120.0)" x1="78" x2="110.0" y1="104" y2="136.0" /><circle cx="59" cy="61" fill="none" r="13.600000000000001" stroke="black" stroke-width="2" /><circle cx="121" cy="79" fill="none" r="17.6" stroke="black" stroke-width="2" /><circle cx="13" cy="128" fill="none" r="13.600000000000001" stroke="black" stroke-width="2" /><line stroke="black" stroke-width="2" transform="rotate(48,145.8,68.8)" x1="131" x2="160.6" y1="54" y2="83.6" /><circle cx="64" cy="105" fill="none" r="12.4" stroke="black" stroke-width="2" /><circle cx="144" cy="55" fill="none" r="16.400000000000002" stroke="black" stroke-width="2" /><circle cx="16" cy="46" fill="none" r="17.6" stroke="black" stroke-width="2" /></g><text font-family="Arial" font-size="14" text-anchor="middle" x="175" y="630">Option 3</text><g transform="translate(100,650)"><line stroke="black" stroke-width="2" transform="rotate(274,118.0,97.0)" x1="104" x2="132.0" y1="83" y2="111.0" /><polygon fill="none" points="11,65.76 38.2,65.76 24.6,44" stroke="black" stroke-width="2" transform="rotate(321,24.6,54.88)" /><line stroke="black" stroke-width="2" transform="rotate(359,94.0,120.0)" x1="78" x2="110.0" y1="104" y2="136.0" /><circle cx="59" cy="61" fill="none" r="13.600000000000001" stroke="black" stroke-width="2" /><circle cx="121" cy="79" fill="none" r="17.6" stroke="black" stroke-width="2" /><circle cx="13" cy="128" fill="none" r="13.600000000000001" stroke="black" stroke-width="2" /><line stroke="black" stroke-width="2" transform="rotate(49,145.8,68.8)" x1="131" x2="160.6" y1="54" y2="83.6" /><circle cx="64" cy="105" fill="none" r="12.4" stroke="black" stroke-width="2" /><circle cx="144" cy="55" fill="none" r="16.400000000000002" stroke="black" stroke-width="2" /><circle cx="16" cy="46" fill="none" r="17.6" stroke="black" stroke-width="2" /></g><text font-family="Arial" font-size="14" text-anchor="middle" x="425" y="630">Option 4</text><g transform="translate(350,650)"><line stroke="black" stroke-width="2" transform="rotate(268,121.5,100.5)" x1="104" x2="139" y1="83" y2="118" /><polygon fill="none" points="11,78 45,78 28.0,44" stroke="black" stroke-width="2" transform="rotate(318,28.0,61.0)" /><line stroke="black" stroke-width="2" transform="rotate(352,98.0,124.0)" x1="78" x2="118" y1="104" y2="144" /><circle cx="59" cy="61" fill="none" r="17.0" stroke="black" stroke-width="2" /><circle cx="121" cy="79" fill="none" r="22.0" stroke="black" stroke-width="2" /><circle cx="13" cy="128" fill="none" r="17.0" stroke="black" stroke-width="2" /><line stroke="black" stroke-width="2" transform="rotate(44,149.5,72.5)" x1="131" x2="168" y1="54" y2="91" /><circle cx="64" cy="105" fill="none" r="15.5" stroke="black" stroke-width="2" /><circle cx="144" cy="55" fill="none" r="20.5" stroke="black" stroke-width="2" /><circle cx="16" cy="46" fill="none" r="22.0" stroke="black" stroke-width="2" /></g></svg>