<?xml version="1.0" encoding="utf-8" ?>
<svg baseProfile="full" height="1000px" version="1.1" width="600px" xmlns="http://www.w3.org/2000/svg" xmlns:ev="http://www.w3.org/2001/xml-events" xmlns:xlink="http://www.w3.org/1999/xlink"><defs /><rect fill="white" height="100%" width="100%" x="0" y="0" /><text font-family="Arial" font-size="24" text-anchor="middle" x="300" y="40">Visual Discrimination Test</text><text font-family="Arial" font-size="18" text-anchor="middle" x="300" y="80">Target Pattern</text><g transform="translate(200,100)"><polygon fill="none" points="61,190 107,190 84.0,144" stroke="black" stroke-width="2" transform="rotate(317,84.0,167.0)" /><line stroke="black" stroke-width="2" transform="rotate(277,100.5,119.5)" x1="77" x2="124" y1="96" y2="143" /><rect fill="none" height="46" stroke="black" stroke-width="2" transform="rotate(196,43.0,136.0)" width="46" x="20" y="113" /><rect fill="none" height="30" stroke="black" stroke-width="2" transform="rotate(11,89.0,125.0)" width="30" x="74" y="110" /><circle cx="73" cy="30" fill="none" r="19.5" stroke="black" stroke-width="2" /><line stroke="black" stroke-width="2" transform="rotate(143,70.5,99.5)" x1="52" x2="89" y1="81" y2="118" /><polygon fill="none" points="31,87 63,87 47.0,55" stroke="black" stroke-width="2" transform="rotate(277,47.0,71.0)" /><circle cx="37" cy="33" fill="none" r="22.5" stroke="black" stroke-width="2" /></g><text font-family="Arial" font-size="18" text-anchor="middle" x="300" y="350">Options</text><text font-family="Arial" font-size="14" text-anchor="middle" x="175" y="380">Option 1</text><g transform="translate(100,400)"><polygon fill="none" points="61,184.48000000000002 111.6,184.48000000000002 86.3,144" stroke="black" stroke-width="2" transform="rotate(321,86.3,164.24)" /><line stroke="black" stroke-width="2" transform="rotate(280,102.85,121.85)" x1="77" x2="128.7" y1="96" y2="147.7" /><rect fill="none" height="40.480000000000004" stroke="black" stroke-width="2" transform="rotate(201,45.3,133.24)" width="50.6" x="20" y="113" /><rect fill="none" height="26.400000000000002" stroke="black" stroke-width="2" transform="rotate(18,90.5,123.2)" width="33.0" x="74" y="110" /><circle cx="73" cy="30" fill="none" r="21.450000000000003" stroke="black" stroke-width="2" /><line stroke="black" stroke-width="2" transform="rotate(150,72.35,101.35)" x1="52" x2="92.7" y1="81" y2="121.7" /><polygon fill="none" points="31,83.16 66.2,83.16 48.6,55" stroke="black" stroke-width="2" transform="rotate(280,48.6,69.08)" /><circle cx="37" cy="33" fill="none" r="24.750000000000004" stroke="black" stroke-width="2" /></g><text font-family="Arial" font-size="14" text-anchor="middle" x="425" y="380">Option 2</text><g transform="translate(350,400)"><polygon fill="none" points="61,184.48000000000002 111.6,184.48000000000002 86.3,144" stroke="black" stroke-width="2" transform="rotate(324,86.3,164.24)" /><line stroke="black" stroke-width="2" transform="rotate(280,102.85,121.85)" x1="77" x2="128.7" y1="96" y2="147.7" /><rect fill="none" height="40.480000000000004" stroke="black" stroke-width="2" transform="rotate(201,45.3,133.24)" width="50.6" x="20" y="113" /><rect fill="none" height="26.400000000000002" stroke="black" stroke-width="2" transform="rotate(14,90.5,123.2)" width="33.0" x="74" y="110" /><circle cx="73" cy="30" fill="none" r="21.450000000000003" stroke="black" stroke-width="2" /><line stroke="black" stroke-width="2" transform="rotate(149,72.35,101.35)" x1="52" x2="92.7" y1="81" y2="121.7" /><polygon fill="none" points="31,83.16 66.2,83.16 48.6,55" stroke="black" stroke-width="2" transform="rotate(281,48.6,69.08)" /><circle cx="37" cy="33" fill="none" r="24.750000000000004" stroke="black" stroke-width="2" /></g><text font-family="Arial" font-size="14" text-anchor="middle" x="175" y="630">Option 3</text><g transform="translate(100,650)"><polygon fill="none" points="61,184.48000000000002 111.6,184.48000000000002 86.3,144" stroke="black" stroke-width="2" transform="rotate(324,86.3,164.24)" /><line stroke="black" stroke-width="2" transform="rotate(284,102.85,121.85)" x1="77" x2="128.7" y1="96" y2="147.7" /><rect fill="none" height="40.480000000000004" stroke="black" stroke-width="2" transform="rotate(202,45.3,133.24)" width="50.6" x="20" y="113" /><rect fill="none" height="26.400000000000002" stroke="black" stroke-width="2" transform="rotate(16,90.5,123.2)" width="33.0" x="74" y="110" /><circle cx="73" cy="30" fill="none" r="21.450000000000003" stroke="black" stroke-width="2" /><line stroke="black" stroke-width="2" transform="rotate(147,72.35,101.35)" x1="52" x2="92.7" y1="81" y2="121.7" /><polygon fill="none" points="31,83.16 66.2,83.16 48.6,55" stroke="black" stroke-width="2" transform="rotate(284,48.6,69.08)" /><circle cx="37" cy="33" fill="none" r="24.750000000000004" stroke="black" stroke-width="2" /></g><text font-family="Arial" font-size="14" text-anchor="middle" x="425" y="630">Option 4</text><g transform="translate(350,650)"><polygon fill="none" points="61,190 107,190 84.0,144" stroke="black" stroke-width="2" transform="rotate(317,84.0,167.0)" /><line stroke="black" stroke-width="2" transform="rotate(277,100.5,119.5)" x1="77" x2="124" y1="96" y2="143" /><rect fill="none" height="46" stroke="black" stroke-width="2" transform="rotate(196,43.0,136.0)" width="46" x="20" y="113" /><rect fill="none" height="30" stroke="black" stroke-width="2" transform="rotate(11,89.0,125.0)" width="30" x="74" y="110" /><circle cx="73" cy="30" fill="none" r="19.5" stroke="black" stroke-width="2" /><line stroke="black" stroke-width="2" transform="rotate(143,70.5,99.5)" x1="52" x2="89" y1="81" y2="118" /><polygon fill="none" points="31,87 63,87 47.0,55" stroke="black" stroke-width="2" transform="rotate(277,47.0,71.0)" /><circle cx="37" cy="33" fill="none" r="22.5" stroke="black" stroke-width="2" /></g></svg>