<?xml version="1.0" encoding="utf-8" ?>
<svg baseProfile="full" height="1000px" version="1.1" width="600px" xmlns="http://www.w3.org/2000/svg" xmlns:ev="http://www.w3.org/2001/xml-events" xmlns:xlink="http://www.w3.org/1999/xlink"><defs /><rect fill="white" height="100%" width="100%" x="0" y="0" /><text font-family="Arial" font-size="24" text-anchor="middle" x="300" y="40">Visual Discrimination Test</text><text font-family="Arial" font-size="18" text-anchor="middle" x="300" y="80">Target Pattern</text><g transform="translate(200,100)"><polygon fill="none" points="93,114 138,114 115.5,69" stroke="black" stroke-width="2" transform="rotate(314,115.5,91.5)" /><circle cx="99" cy="98" fill="none" r="17.5" stroke="black" stroke-width="2" /></g><text font-family="Arial" font-size="18" text-anchor="middle" x="300" y="350">Options</text><text font-family="Arial" font-size="14" text-anchor="middle" x="175" y="380">Option 1</text><g transform="translate(100,400)"><polygon fill="none" points="93,108.60000000000001 142.5,108.60000000000001 117.75,69" stroke="black" stroke-width="2" transform="rotate(337,117.75,88.80000000000001)" /><circle cx="99" cy="98" fill="none" r="19.25" stroke="black" stroke-width="2" /></g><text font-family="Arial" font-size="14" text-anchor="middle" x="425" y="380">Option 2</text><g transform="translate(350,400)"><polygon fill="none" points="93,108.60000000000001 142.5,108.60000000000001 117.75,69" stroke="black" stroke-width="2" transform="rotate(339,117.75,88.80000000000001)" /><circle cx="99" cy="98" fill="none" r="19.25" stroke="black" stroke-width="2" /></g><text font-family="Arial" font-size="14" text-anchor="middle" x="175" y="630">Option 3</text><g transform="translate(100,650)"><polygon fill="none" points="93,108.60000000000001 142.5,108.60000000000001 117.75,69" stroke="black" stroke-width="2" transform="rotate(341,117.75,88.80000000000001)" /><circle cx="99" cy="98" fill="none" r="19.25" stroke="black" stroke-width="2" /></g><text font-family="Arial" font-size="14" text-anchor="middle" x="425" y="630">Option 4</text><g transform="translate(350,650)"><polygon fill="none" points="93,114 138,114 115.5,69" stroke="black" stroke-width="2" transform="rotate(314,115.5,91.5)" /><circle cx="99" cy="98" fill="none" r="17.5" stroke="black" stroke-width="2" /></g></svg>