<?xml version="1.0" encoding="utf-8" ?>
<svg baseProfile="full" height="1000px" version="1.1" width="600px" xmlns="http://www.w3.org/2000/svg" xmlns:ev="http://www.w3.org/2001/xml-events" xmlns:xlink="http://www.w3.org/1999/xlink"><defs /><rect fill="white" height="100%" width="100%" x="0" y="0" /><text font-family="Arial" font-size="24" text-anchor="middle" x="300" y="40">Visual Discrimination Test</text><text font-family="Arial" font-size="18" text-anchor="middle" x="300" y="80">Target Pattern</text><g transform="translate(200,100)"><circle cx="140" cy="64" fill="none" r="20.5" stroke="black" stroke-width="2" /><polygon fill="none" points="58,189 105,189 81.5,142" stroke="black" stroke-width="2" transform="rotate(245,81.5,165.5)" /><polygon fill="none" points="141,62 188,62 164.5,15" stroke="black" stroke-width="2" transform="rotate(152,164.5,38.5)" /><rect fill="none" height="38" stroke="black" stroke-width="2" transform="rotate(57,95.0,107.0)" width="38" x="76" y="88" /><rect fill="none" height="35" stroke="black" stroke-width="2" transform="rotate(123,88.5,153.5)" width="35" x="71" y="136" /><circle cx="143" cy="69" fill="none" r="16.0" stroke="black" stroke-width="2" /></g><text font-family="Arial" font-size="18" text-anchor="middle" x="300" y="350">Options</text><text font-family="Arial" font-size="14" text-anchor="middle" x="175" y="380">Option 1</text><g transform="translate(100,400)"><circle cx="140" cy="64" fill="none" r="22.55" stroke="black" stroke-width="2" /><polygon fill="none" points="58,183.36 109.7,183.36 83.85,142" stroke="black" stroke-width="2" transform="rotate(270,83.85,162.68)" /><polygon fill="none" points="141,56.36000000000001 192.7,56.36000000000001 166.85,15" stroke="black" stroke-width="2" transform="rotate(176,166.85,35.68000000000001)" /><rect fill="none" height="33.440000000000005" stroke="black" stroke-width="2" transform="rotate(81,96.9,104.72)" width="41.800000000000004" x="76" y="88" /><rect fill="none" height="30.8" stroke="black" stroke-width="2" transform="rotate(146,90.25,151.4)" width="38.5" x="71" y="136" /><circle cx="143" cy="69" fill="none" r="17.6" stroke="black" stroke-width="2" /></g><text font-family="Arial" font-size="14" text-anchor="middle" x="425" y="380">Option 2</text><g transform="translate(350,400)"><circle cx="140" cy="64" fill="none" r="22.55" stroke="black" stroke-width="2" /><polygon fill="none" points="58,183.36 109.7,183.36 83.85,142" stroke="black" stroke-width="2" transform="rotate(271,83.85,162.68)" /><polygon fill="none" points="141,56.36000000000001 192.7,56.36000000000001 166.85,15" stroke="black" stroke-width="2" transform="rotate(176,166.85,35.68000000000001)" /><rect fill="none" height="33.440000000000005" stroke="black" stroke-width="2" transform="rotate(80,96.9,104.72)" width="41.800000000000004" x="76" y="88" /><rect fill="none" height="30.8" stroke="black" stroke-width="2" transform="rotate(147,90.25,151.4)" width="38.5" x="71" y="136" /><circle cx="143" cy="69" fill="none" r="17.6" stroke="black" stroke-width="2" /></g><text font-family="Arial" font-size="14" text-anchor="middle" x="175" y="630">Option 3</text><g transform="translate(100,650)"><circle cx="140" cy="64" fill="none" r="20.5" stroke="black" stroke-width="2" /><polygon fill="none" points="58,189 105,189 81.5,142" stroke="black" stroke-width="2" transform="rotate(245,81.5,165.5)" /><polygon fill="none" points="141,62 188,62 164.5,15" stroke="black" stroke-width="2" transform="rotate(152,164.5,38.5)" /><rect fill="none" height="38" stroke="black" stroke-width="2" transform="rotate(57,95.0,107.0)" width="38" x="76" y="88" /><rect fill="none" height="35" stroke="black" stroke-width="2" transform="rotate(123,88.5,153.5)" width="35" x="71" y="136" /><circle cx="143" cy="69" fill="none" r="16.0" stroke="black" stroke-width="2" /></g><text font-family="Arial" font-size="14" text-anchor="middle" x="425" y="630">Option 4</text><g transform="translate(350,650)"><circle cx="140" cy="64" fill="none" r="22.55" stroke="black" stroke-width="2" /><polygon fill="none" points="58,183.36 109.7,183.36 83.85,142" stroke="black" stroke-width="2" transform="rotate(270,83.85,162.68)" /><polygon fill="none" points="141,56.36000000000001 192.7,56.36000000000001 166.85,15" stroke="black" stroke-width="2" transform="rotate(177,166.85,35.68000000000001)" /><rect fill="none" height="33.440000000000005" stroke="black" stroke-width="2" transform="rotate(83,96.9,104.72)" width="41.800000000000004" x="76" y="88" /><rect fill="none" height="30.8" stroke="black" stroke-width="2" transform="rotate(149,90.25,151.4)" width="38.5" x="71" y="136" /><circle cx="143" cy="69" fill="none" r="17.6" stroke="black" stroke-width="2" /></g></svg>