<?xml version="1.0" encoding="utf-8" ?>
<svg baseProfile="full" height="1000px" version="1.1" width="600px" xmlns="http://www.w3.org/2000/svg" xmlns:ev="http://www.w3.org/2001/xml-events" xmlns:xlink="http://www.w3.org/1999/xlink"><defs /><rect fill="white" height="100%" width="100%" x="0" y="0" /><text font-family="Arial" font-size="24" text-anchor="middle" x="300" y="40">Visual Discrimination Test</text><text font-family="Arial" font-size="18" text-anchor="middle" x="300" y="80">Target Pattern</text><g transform="translate(200,100)"><polygon fill="none" points="34,75 70,75 52.0,39" stroke="black" stroke-width="2" transform="rotate(338,52.0,57.0)" /><circle cx="32" cy="126" fill="none" r="24.5" stroke="black" stroke-width="2" /></g><text font-family="Arial" font-size="18" text-anchor="middle" x="300" y="350">Options</text><text font-family="Arial" font-size="14" text-anchor="middle" x="175" y="380">Option 1</text><g transform="translate(100,400)"><polygon fill="none" points="34,70.68 73.6,70.68 53.8,39" stroke="black" stroke-width="2" transform="rotate(361,53.8,54.84)" /><circle cx="32" cy="126" fill="none" r="26.950000000000003" stroke="black" stroke-width="2" /></g><text font-family="Arial" font-size="14" text-anchor="middle" x="425" y="380">Option 2</text><g transform="translate(350,400)"><polygon fill="none" points="34,70.68 73.6,70.68 53.8,39" stroke="black" stroke-width="2" transform="rotate(364,53.8,54.84)" /><circle cx="32" cy="126" fill="none" r="26.950000000000003" stroke="black" stroke-width="2" /></g><text font-family="Arial" font-size="14" text-anchor="middle" x="175" y="630">Option 3</text><g transform="translate(100,650)"><polygon fill="none" points="34,75 70,75 52.0,39" stroke="black" stroke-width="2" transform="rotate(338,52.0,57.0)" /><circle cx="32" cy="126" fill="none" r="24.5" stroke="black" stroke-width="2" /></g><text font-family="Arial" font-size="14" text-anchor="middle" x="425" y="630">Option 4</text><g transform="translate(350,650)"><polygon fill="none" points="34,70.68 73.6,70.68 53.8,39" stroke="black" stroke-width="2" transform="rotate(362,53.8,54.84)" /><circle cx="32" cy="126" fill="none" r="26.950000000000003" stroke="black" stroke-width="2" /></g></svg>