<?xml version="1.0" encoding="utf-8" ?>
<svg baseProfile="full" height="1000px" version="1.1" width="600px" xmlns="http://www.w3.org/2000/svg" xmlns:ev="http://www.w3.org/2001/xml-events" xmlns:xlink="http://www.w3.org/1999/xlink"><defs /><rect fill="white" height="100%" width="100%" x="0" y="0" /><text font-family="Arial" font-size="24" text-anchor="middle" x="300" y="40">Visual Discrimination Test</text><text font-family="Arial" font-size="18" text-anchor="middle" x="300" y="80">Target Pattern</text><g transform="translate(200,100)"><line stroke="black" stroke-width="2" transform="rotate(146,106.5,111.5)" x1="84" x2="129" y1="89" y2="134" /><rect fill="none" height="49" stroke="black" stroke-width="2" transform="rotate(82,68.5,47.5)" width="49" x="44" y="23" /><line stroke="black" stroke-width="2" transform="rotate(66,154.0,116.0)" x1="133" x2="175" y1="95" y2="137" /><polygon fill="none" points="128,164 163,164 145.5,129" stroke="black" stroke-width="2" transform="rotate(95,145.5,146.5)" /></g><text font-family="Arial" font-size="18" text-anchor="middle" x="300" y="350">Options</text><text font-family="Arial" font-size="14" text-anchor="middle" x="175" y="380">Option 1</text><g transform="translate(100,400)"><line stroke="black" stroke-width="2" transform="rotate(173,108.75,113.75)" x1="84" x2="133.5" y1="89" y2="138.5" /><rect fill="none" height="43.120000000000005" stroke="black" stroke-width="2" transform="rotate(106,70.95,44.56)" width="53.900000000000006" x="44" y="23" /><line stroke="black" stroke-width="2" transform="rotate(89,156.1,118.1)" x1="133" x2="179.2" y1="95" y2="141.2" /><polygon fill="none" points="128,159.8 166.5,159.8 147.25,129" stroke="black" stroke-width="2" transform="rotate(121,147.25,144.4)" /></g><text font-family="Arial" font-size="14" text-anchor="middle" x="425" y="380">Option 2</text><g transform="translate(350,400)"><line stroke="black" stroke-width="2" transform="rotate(172,108.75,113.75)" x1="84" x2="133.5" y1="89" y2="138.5" /><rect fill="none" height="43.120000000000005" stroke="black" stroke-width="2" transform="rotate(109,70.95,44.56)" width="53.900000000000006" x="44" y="23" /><line stroke="black" stroke-width="2" transform="rotate(92,156.1,118.1)" x1="133" x2="179.2" y1="95" y2="141.2" /><polygon fill="none" points="128,159.8 166.5,159.8 147.25,129" stroke="black" stroke-width="2" transform="rotate(118,147.25,144.4)" /></g><text font-family="Arial" font-size="14" text-anchor="middle" x="175" y="630">Option 3</text><g transform="translate(100,650)"><line stroke="black" stroke-width="2" transform="rotate(146,106.5,111.5)" x1="84" x2="129" y1="89" y2="134" /><rect fill="none" height="49" stroke="black" stroke-width="2" transform="rotate(82,68.5,47.5)" width="49" x="44" y="23" /><line stroke="black" stroke-width="2" transform="rotate(66,154.0,116.0)" x1="133" x2="175" y1="95" y2="137" /><polygon fill="none" points="128,164 163,164 145.5,129" stroke="black" stroke-width="2" transform="rotate(95,145.5,146.5)" /></g><text font-family="Arial" font-size="14" text-anchor="middle" x="425" y="630">Option 4</text><g transform="translate(350,650)"><line stroke="black" stroke-width="2" transform="rotate(173,108.75,113.75)" x1="84" x2="133.5" y1="89" y2="138.5" /><rect fill="none" height="43.120000000000005" stroke="black" stroke-width="2" transform="rotate(108,70.95,44.56)" width="53.900000000000006" x="44" y="23" /><line stroke="black" stroke-width="2" transform="rotate(91,156.1,118.1)" x1="133" x2="179.2" y1="95" y2="141.2" /><polygon fill="none" points="128,159.8 166.5,159.8 147.25,129" stroke="black" stroke-width="2" transform="rotate(121,147.25,144.4)" /></g></svg>