<?xml version="1.0" encoding="utf-8" ?>
<svg baseProfile="full" height="1000px" version="1.1" width="600px" xmlns="http://www.w3.org/2000/svg" xmlns:ev="http://www.w3.org/2001/xml-events" xmlns:xlink="http://www.w3.org/1999/xlink"><defs /><rect fill="white" height="100%" width="100%" x="0" y="0" /><text font-family="Arial" font-size="24" text-anchor="middle" x="300" y="40">Visual Discrimination Test</text><text font-family="Arial" font-size="18" text-anchor="middle" x="300" y="80">Target Pattern</text><g transform="translate(200,100)"><rect fill="none" height="33" stroke="black" stroke-width="2" transform="rotate(339,59.5,146.5)" width="33" x="43" y="130" /><polygon fill="none" points="140,80 178,80 159.0,42" stroke="black" stroke-width="2" transform="rotate(29,159.0,61.0)" /><rect fill="none" height="50" stroke="black" stroke-width="2" transform="rotate(133,37.0,62.0)" width="50" x="12" y="37" /><rect fill="none" height="32" stroke="black" stroke-width="2" transform="rotate(10,154.0,157.0)" width="32" x="138" y="141" /><line stroke="black" stroke-width="2" transform="rotate(58,118.0,55.0)" x1="94" x2="142" y1="31" y2="79" /><circle cx="113" cy="115" fill="none" r="16.5" stroke="black" stroke-width="2" /><polygon fill="none" points="59,169 97,169 78.0,131" stroke="black" stroke-width="2" transform="rotate(83,78.0,150.0)" /><polygon fill="none" points="37,114 76,114 56.5,75" stroke="black" stroke-width="2" transform="rotate(64,56.5,94.5)" /><circle cx="69" cy="89" fill="none" r="15.5" stroke="black" stroke-width="2" /></g><text font-family="Arial" font-size="18" text-anchor="middle" x="300" y="350">Options</text><text font-family="Arial" font-size="14" text-anchor="middle" x="175" y="380">Option 1</text><g transform="translate(100,400)"><rect fill="none" height="29.040000000000006" stroke="black" stroke-width="2" transform="rotate(364,61.150000000000006,144.52)" width="36.300000000000004" x="43" y="130" /><polygon fill="none" points="140,75.44 181.8,75.44 160.9,42" stroke="black" stroke-width="2" transform="rotate(55,160.9,58.72)" /><polygon fill="none" points="12,81.0 67.0,81.0 39.5,37" stroke="black" stroke-width="2" transform="rotate(159,39.5,59.0)" /><rect fill="none" height="28.160000000000004" stroke="black" stroke-width="2" transform="rotate(34,155.6,155.08)" width="35.2" x="138" y="141" /><rect fill="none" height="42.24000000000001" stroke="black" stroke-width="2" transform="rotate(81,120.4,52.120000000000005)" width="52.800000000000004" x="94" y="31" /><line stroke="black" stroke-width="2" transform="rotate(146,131.15,133.15)" x1="113" x2="149.3" y1="115" y2="151.3" /><rect fill="none" height="33.440000000000005" stroke="black" stroke-width="2" transform="rotate(106,79.9,147.72)" width="41.800000000000004" x="59" y="131" /><polygon fill="none" points="37,109.32000000000001 79.9,109.32000000000001 58.45,75" stroke="black" stroke-width="2" transform="rotate(87,58.45,92.16)" /><rect fill="none" height="27.28" stroke="black" stroke-width="2" transform="rotate(296,86.05,102.64)" width="34.1" x="69" y="89" /></g><text font-family="Arial" font-size="14" text-anchor="middle" x="425" y="380">Option 2</text><g transform="translate(350,400)"><rect fill="none" height="33" stroke="black" stroke-width="2" transform="rotate(339,59.5,146.5)" width="33" x="43" y="130" /><polygon fill="none" points="140,80 178,80 159.0,42" stroke="black" stroke-width="2" transform="rotate(29,159.0,61.0)" /><rect fill="none" height="50" stroke="black" stroke-width="2" transform="rotate(133,37.0,62.0)" width="50" x="12" y="37" /><rect fill="none" height="32" stroke="black" stroke-width="2" transform="rotate(10,154.0,157.0)" width="32" x="138" y="141" /><line stroke="black" stroke-width="2" transform="rotate(58,118.0,55.0)" x1="94" x2="142" y1="31" y2="79" /><circle cx="113" cy="115" fill="none" r="16.5" stroke="black" stroke-width="2" /><polygon fill="none" points="59,169 97,169 78.0,131" stroke="black" stroke-width="2" transform="rotate(83,78.0,150.0)" /><polygon fill="none" points="37,114 76,114 56.5,75" stroke="black" stroke-width="2" transform="rotate(64,56.5,94.5)" /><circle cx="69" cy="89" fill="none" r="15.5" stroke="black" stroke-width="2" /></g><text font-family="Arial" font-size="14" text-anchor="middle" x="175" y="630">Option 3</text><g transform="translate(100,650)"><rect fill="none" height="29.040000000000006" stroke="black" stroke-width="2" transform="rotate(366,61.150000000000006,144.52)" width="36.300000000000004" x="43" y="130" /><polygon fill="none" points="140,75.44 181.8,75.44 160.9,42" stroke="black" stroke-width="2" transform="rotate(52,160.9,58.72)" /><polygon fill="none" points="12,81.0 67.0,81.0 39.5,37" stroke="black" stroke-width="2" transform="rotate(158,39.5,59.0)" /><polygon fill="none" points="138,169.16 173.2,169.16 155.6,141" stroke="black" stroke-width="2" transform="rotate(37,155.6,155.08)" /><line stroke="black" stroke-width="2" transform="rotate(81,120.4,57.400000000000006)" x1="94" x2="146.8" y1="31" y2="83.80000000000001" /><rect fill="none" height="29.040000000000006" stroke="black" stroke-width="2" transform="rotate(146,131.15,129.52)" width="36.300000000000004" x="113" y="115" /><rect fill="none" height="33.440000000000005" stroke="black" stroke-width="2" transform="rotate(109,79.9,147.72)" width="41.800000000000004" x="59" y="131" /><polygon fill="none" points="37,109.32000000000001 79.9,109.32000000000001 58.45,75" stroke="black" stroke-width="2" transform="rotate(87,58.45,92.16)" /><rect fill="none" height="27.28" stroke="black" stroke-width="2" transform="rotate(296,86.05,102.64)" width="34.1" x="69" y="89" /></g><text font-family="Arial" font-size="14" text-anchor="middle" x="425" y="630">Option 4</text><g transform="translate(350,650)"><rect fill="none" height="29.040000000000006" stroke="black" stroke-width="2" transform="rotate(362,61.150000000000006,144.52)" width="36.300000000000004" x="43" y="130" /><rect fill="none" height="33.440000000000005" stroke="black" stroke-width="2" transform="rotate(52,160.9,58.72)" width="41.800000000000004" x="140" y="42" /><line stroke="black" stroke-width="2" transform="rotate(157,39.5,64.5)" x1="12" x2="67.0" y1="37" y2="92.0" /><rect fill="none" height="28.160000000000004" stroke="black" stroke-width="2" transform="rotate(36,155.6,155.08)" width="35.2" x="138" y="141" /><rect fill="none" height="42.24000000000001" stroke="black" stroke-width="2" transform="rotate(82,120.4,52.120000000000005)" width="52.800000000000004" x="94" y="31" /><rect fill="none" height="29.040000000000006" stroke="black" stroke-width="2" transform="rotate(149,131.15,129.52)" width="36.300000000000004" x="113" y="115" /><rect fill="none" height="33.440000000000005" stroke="black" stroke-width="2" transform="rotate(106,79.9,147.72)" width="41.800000000000004" x="59" y="131" /><rect fill="none" height="34.32000000000001" stroke="black" stroke-width="2" transform="rotate(89,58.45,92.16)" width="42.900000000000006" x="37" y="75" /><rect fill="none" height="27.28" stroke="black" stroke-width="2" transform="rotate(294,86.05,102.64)" width="34.1" x="69" y="89" /></g></svg>