<?xml version="1.0" encoding="utf-8" ?>
<svg baseProfile="full" height="1000px" version="1.1" width="600px" xmlns="http://www.w3.org/2000/svg" xmlns:ev="http://www.w3.org/2001/xml-events" xmlns:xlink="http://www.w3.org/1999/xlink"><defs /><rect fill="white" height="100%" width="100%" x="0" y="0" /><text font-family="Arial" font-size="24" text-anchor="middle" x="300" y="40">Visual Discrimination Test</text><text font-family="Arial" font-size="18" text-anchor="middle" x="300" y="80">Target Pattern</text><g transform="translate(200,100)"><line stroke="black" stroke-width="2" transform="rotate(12,31.5,116.5)" x1="12" x2="51" y1="97" y2="136" /><line stroke="black" stroke-width="2" transform="rotate(323,71.0,75.0)" x1="52" x2="90" y1="56" y2="94" /><polygon fill="none" points="144,179 190,179 167.0,133" stroke="black" stroke-width="2" transform="rotate(216,167.0,156.0)" /><rect fill="none" height="34" stroke="black" stroke-width="2" transform="rotate(282,89.0,142.0)" width="34" x="72" y="125" /><polygon fill="none" points="75,68 116,68 95.5,27" stroke="black" stroke-width="2" transform="rotate(218,95.5,47.5)" /><line stroke="black" stroke-width="2" transform="rotate(357,150.5,160.5)" x1="130" x2="171" y1="140" y2="181" /><line stroke="black" stroke-width="2" transform="rotate(185,79.0,93.0)" x1="59" x2="99" y1="73" y2="113" /><line stroke="black" stroke-width="2" transform="rotate(155,42.5,173.5)" x1="19" x2="66" y1="150" y2="197" /><rect fill="none" height="37" stroke="black" stroke-width="2" transform="rotate(233,43.5,40.5)" width="37" x="25" y="22" /></g><text font-family="Arial" font-size="18" text-anchor="middle" x="300" y="350">Options</text><text font-family="Arial" font-size="14" text-anchor="middle" x="175" y="380">Option 1</text><g transform="translate(100,400)"><polygon fill="none" points="12,131.32 54.900000000000006,131.32 33.45,97" stroke="black" stroke-width="2" transform="rotate(39,33.45,114.16)" /><line stroke="black" stroke-width="2" transform="rotate(348,72.9,76.9)" x1="52" x2="93.80000000000001" y1="56" y2="97.80000000000001" /><rect fill="none" height="40.480000000000004" stroke="black" stroke-width="2" transform="rotate(239,169.3,153.24)" width="50.6" x="144" y="133" /><polygon fill="none" points="72,154.92000000000002 109.4,154.92000000000002 90.7,125" stroke="black" stroke-width="2" transform="rotate(305,90.7,139.96)" /><rect fill="none" height="36.080000000000005" stroke="black" stroke-width="2" transform="rotate(245,97.55,45.040000000000006)" width="45.1" x="75" y="27" /><rect fill="none" height="36.080000000000005" stroke="black" stroke-width="2" transform="rotate(380,152.55,158.04)" width="45.1" x="130" y="140" /><polygon fill="none" points="59,108.2 103.0,108.2 81.0,73" stroke="black" stroke-width="2" transform="rotate(208,81.0,90.6)" /><polygon fill="none" points="19,191.36 70.7,191.36 44.85,150" stroke="black" stroke-width="2" transform="rotate(178,44.85,170.68)" /><rect fill="none" height="32.56" stroke="black" stroke-width="2" transform="rotate(258,45.35,38.28)" width="40.7" x="25" y="22" /></g><text font-family="Arial" font-size="14" text-anchor="middle" x="425" y="380">Option 2</text><g transform="translate(350,400)"><rect fill="none" height="34.32000000000001" stroke="black" stroke-width="2" transform="rotate(37,33.45,114.16)" width="42.900000000000006" x="12" y="97" /><rect fill="none" height="33.440000000000005" stroke="black" stroke-width="2" transform="rotate(349,72.9,72.72)" width="41.800000000000004" x="52" y="56" /><polygon fill="none" points="144,173.48000000000002 194.6,173.48000000000002 169.3,133" stroke="black" stroke-width="2" transform="rotate(242,169.3,153.24)" /><rect fill="none" height="29.920000000000005" stroke="black" stroke-width="2" transform="rotate(305,90.7,139.96)" width="37.400000000000006" x="72" y="125" /><line stroke="black" stroke-width="2" transform="rotate(241,97.55,49.55)" x1="75" x2="120.1" y1="27" y2="72.1" /><polygon fill="none" points="130,176.08 175.1,176.08 152.55,140" stroke="black" stroke-width="2" transform="rotate(383,152.55,158.04)" /><polygon fill="none" points="59,108.2 103.0,108.2 81.0,73" stroke="black" stroke-width="2" transform="rotate(212,81.0,90.6)" /><rect fill="none" height="41.36000000000001" stroke="black" stroke-width="2" transform="rotate(182,44.85,170.68)" width="51.7" x="19" y="150" /><line stroke="black" stroke-width="2" transform="rotate(257,45.35,42.35)" x1="25" x2="65.7" y1="22" y2="62.7" /></g><text font-family="Arial" font-size="14" text-anchor="middle" x="175" y="630">Option 3</text><g transform="translate(100,650)"><line stroke="black" stroke-width="2" transform="rotate(12,31.5,116.5)" x1="12" x2="51" y1="97" y2="136" /><line stroke="black" stroke-width="2" transform="rotate(323,71.0,75.0)" x1="52" x2="90" y1="56" y2="94" /><polygon fill="none" points="144,179 190,179 167.0,133" stroke="black" stroke-width="2" transform="rotate(216,167.0,156.0)" /><rect fill="none" height="34" stroke="black" stroke-width="2" transform="rotate(282,89.0,142.0)" width="34" x="72" y="125" /><polygon fill="none" points="75,68 116,68 95.5,27" stroke="black" stroke-width="2" transform="rotate(218,95.5,47.5)" /><line stroke="black" stroke-width="2" transform="rotate(357,150.5,160.5)" x1="130" x2="171" y1="140" y2="181" /><line stroke="black" stroke-width="2" transform="rotate(185,79.0,93.0)" x1="59" x2="99" y1="73" y2="113" /><line stroke="black" stroke-width="2" transform="rotate(155,42.5,173.5)" x1="19" x2="66" y1="150" y2="197" /><rect fill="none" height="37" stroke="black" stroke-width="2" transform="rotate(233,43.5,40.5)" width="37" x="25" y="22" /></g><text font-family="Arial" font-size="14" text-anchor="middle" x="425" y="630">Option 4</text><g transform="translate(350,650)"><rect fill="none" height="34.32000000000001" stroke="black" stroke-width="2" transform="rotate(36,33.45,114.16)" width="42.900000000000006" x="12" y="97" /><rect fill="none" height="33.440000000000005" stroke="black" stroke-width="2" transform="rotate(348,72.9,72.72)" width="41.800000000000004" x="52" y="56" /><polygon fill="none" points="144,173.48000000000002 194.6,173.48000000000002 169.3,133" stroke="black" stroke-width="2" transform="rotate(241,169.3,153.24)" /><rect fill="none" height="29.920000000000005" stroke="black" stroke-width="2" transform="rotate(309,90.7,139.96)" width="37.400000000000006" x="72" y="125" /><line stroke="black" stroke-width="2" transform="rotate(242,97.55,49.55)" x1="75" x2="120.1" y1="27" y2="72.1" /><polygon fill="none" points="130,176.08 175.1,176.08 152.55,140" stroke="black" stroke-width="2" transform="rotate(384,152.55,158.04)" /><line stroke="black" stroke-width="2" transform="rotate(211,81.0,95.0)" x1="59" x2="103.0" y1="73" y2="117.0" /><line stroke="black" stroke-width="2" transform="rotate(178,44.85,175.85)" x1="19" x2="70.7" y1="150" y2="201.7" /><line stroke="black" stroke-width="2" transform="rotate(257,45.35,42.35)" x1="25" x2="65.7" y1="22" y2="62.7" /></g></svg>