<?xml version="1.0" encoding="utf-8" ?>
<svg baseProfile="full" height="1000px" version="1.1" width="600px" xmlns="http://www.w3.org/2000/svg" xmlns:ev="http://www.w3.org/2001/xml-events" xmlns:xlink="http://www.w3.org/1999/xlink"><defs /><rect fill="white" height="100%" width="100%" x="0" y="0" /><text font-family="Arial" font-size="24" text-anchor="middle" x="300" y="40">Visual Discrimination Test</text><text font-family="Arial" font-size="18" text-anchor="middle" x="300" y="80">Target Pattern</text><g transform="translate(200,100)"><polygon fill="none" points="57,122 105,122 81.0,74" stroke="black" stroke-width="2" transform="rotate(221,81.0,98.0)" /><line stroke="black" stroke-width="2" transform="rotate(232,97.5,130.5)" x1="78" x2="117" y1="111" y2="150" /></g><text font-family="Arial" font-size="18" text-anchor="middle" x="300" y="350">Options</text><text font-family="Arial" font-size="14" text-anchor="middle" x="175" y="380">Option 1</text><g transform="translate(100,400)"><polygon fill="none" points="57,116.24000000000001 109.80000000000001,116.24000000000001 83.4,74" stroke="black" stroke-width="2" transform="rotate(245,83.4,95.12)" /><polygon fill="none" points="78,145.32 120.9,145.32 99.45,111" stroke="black" stroke-width="2" transform="rotate(257,99.45,128.16)" /></g><text font-family="Arial" font-size="14" text-anchor="middle" x="425" y="380">Option 2</text><g transform="translate(350,400)"><polygon fill="none" points="57,122 105,122 81.0,74" stroke="black" stroke-width="2" transform="rotate(221,81.0,98.0)" /><line stroke="black" stroke-width="2" transform="rotate(232,97.5,130.5)" x1="78" x2="117" y1="111" y2="150" /></g><text font-family="Arial" font-size="14" text-anchor="middle" x="175" y="630">Option 3</text><g transform="translate(100,650)"><rect fill="none" height="42.24000000000001" stroke="black" stroke-width="2" transform="rotate(245,83.4,95.12)" width="52.800000000000004" x="57" y="74" /><polygon fill="none" points="78,145.32 120.9,145.32 99.45,111" stroke="black" stroke-width="2" transform="rotate(258,99.45,128.16)" /></g><text font-family="Arial" font-size="14" text-anchor="middle" x="425" y="630">Option 4</text><g transform="translate(350,650)"><polygon fill="none" points="57,116.24000000000001 109.80000000000001,116.24000000000001 83.4,74" stroke="black" stroke-width="2" transform="rotate(244,83.4,95.12)" /><polygon fill="none" points="78,145.32 120.9,145.32 99.45,111" stroke="black" stroke-width="2" transform="rotate(257,99.45,128.16)" /></g></svg>