<?xml version="1.0" encoding="utf-8" ?>
<svg baseProfile="full" height="1000px" version="1.1" width="600px" xmlns="http://www.w3.org/2000/svg" xmlns:ev="http://www.w3.org/2001/xml-events" xmlns:xlink="http://www.w3.org/1999/xlink"><defs /><rect fill="white" height="100%" width="100%" x="0" y="0" /><text font-family="Arial" font-size="24" text-anchor="middle" x="300" y="40">Visual Discrimination Test</text><text font-family="Arial" font-size="18" text-anchor="middle" x="300" y="80">Target Pattern</text><g transform="translate(200,100)"><line stroke="black" stroke-width="2" transform="rotate(303,29.5,163.5)" x1="11" x2="48" y1="145" y2="182" /><line stroke="black" stroke-width="2" transform="rotate(96,48.5,94.5)" x1="31" x2="66" y1="77" y2="112" /><polygon fill="none" points="72,108 120,108 96.0,60" stroke="black" stroke-width="2" transform="rotate(336,96.0,84.0)" /></g><text font-family="Arial" font-size="18" text-anchor="middle" x="300" y="350">Options</text><text font-family="Arial" font-size="14" text-anchor="middle" x="175" y="380">Option 1</text><g transform="translate(100,400)"><line stroke="black" stroke-width="2" transform="rotate(303,29.5,163.5)" x1="11" x2="48" y1="145" y2="182" /><line stroke="black" stroke-width="2" transform="rotate(96,48.5,94.5)" x1="31" x2="66" y1="77" y2="112" /><polygon fill="none" points="72,108 120,108 96.0,60" stroke="black" stroke-width="2" transform="rotate(336,96.0,84.0)" /></g><text font-family="Arial" font-size="14" text-anchor="middle" x="425" y="380">Option 2</text><g transform="translate(350,400)"><polygon fill="none" points="11,177.56 51.7,177.56 31.35,145" stroke="black" stroke-width="2" transform="rotate(328,31.35,161.28)" /><line stroke="black" stroke-width="2" transform="rotate(122,50.25,96.25)" x1="31" x2="69.5" y1="77" y2="115.5" /><rect fill="none" height="42.24000000000001" stroke="black" stroke-width="2" transform="rotate(363,98.4,81.12)" width="52.800000000000004" x="72" y="60" /></g><text font-family="Arial" font-size="14" text-anchor="middle" x="175" y="630">Option 3</text><g transform="translate(100,650)"><line stroke="black" stroke-width="2" transform="rotate(327,31.35,165.35)" x1="11" x2="51.7" y1="145" y2="185.7" /><rect fill="none" height="30.8" stroke="black" stroke-width="2" transform="rotate(121,50.25,92.4)" width="38.5" x="31" y="77" /><polygon fill="none" points="72,102.24000000000001 124.80000000000001,102.24000000000001 98.4,60" stroke="black" stroke-width="2" transform="rotate(360,98.4,81.12)" /></g><text font-family="Arial" font-size="14" text-anchor="middle" x="425" y="630">Option 4</text><g transform="translate(350,650)"><polygon fill="none" points="11,177.56 51.7,177.56 31.35,145" stroke="black" stroke-width="2" transform="rotate(327,31.35,161.28)" /><polygon fill="none" points="31,107.8 69.5,107.8 50.25,77" stroke="black" stroke-width="2" transform="rotate(120,50.25,92.4)" /><rect fill="none" height="42.24000000000001" stroke="black" stroke-width="2" transform="rotate(361,98.4,81.12)" width="52.800000000000004" x="72" y="60" /></g></svg>