<?xml version="1.0" encoding="utf-8" ?>
<svg baseProfile="full" height="1000px" version="1.1" width="600px" xmlns="http://www.w3.org/2000/svg" xmlns:ev="http://www.w3.org/2001/xml-events" xmlns:xlink="http://www.w3.org/1999/xlink"><defs /><rect fill="white" height="100%" width="100%" x="0" y="0" /><text font-family="Arial" font-size="24" text-anchor="middle" x="300" y="40">Visual Discrimination Test</text><text font-family="Arial" font-size="18" text-anchor="middle" x="300" y="80">Target Pattern</text><g transform="translate(200,100)"><line stroke="black" stroke-width="2" transform="rotate(115,73.0,125.0)" x1="55" x2="91" y1="107" y2="143" /><rect fill="none" height="43" stroke="black" stroke-width="2" transform="rotate(137,51.5,107.5)" width="43" x="30" y="86" /></g><text font-family="Arial" font-size="18" text-anchor="middle" x="300" y="350">Options</text><text font-family="Arial" font-size="14" text-anchor="middle" x="175" y="380">Option 1</text><g transform="translate(100,400)"><line stroke="black" stroke-width="2" transform="rotate(115,73.0,125.0)" x1="55" x2="91" y1="107" y2="143" /><rect fill="none" height="43" stroke="black" stroke-width="2" transform="rotate(137,51.5,107.5)" width="43" x="30" y="86" /></g><text font-family="Arial" font-size="14" text-anchor="middle" x="425" y="380">Option 2</text><g transform="translate(350,400)"><polygon fill="none" points="55,138.68 94.6,138.68 74.8,107" stroke="black" stroke-width="2" transform="rotate(141,74.8,122.84)" /><rect fill="none" height="37.84" stroke="black" stroke-width="2" transform="rotate(163,53.650000000000006,104.92)" width="47.300000000000004" x="30" y="86" /></g><text font-family="Arial" font-size="14" text-anchor="middle" x="175" y="630">Option 3</text><g transform="translate(100,650)"><rect fill="none" height="31.680000000000003" stroke="black" stroke-width="2" transform="rotate(140,74.8,122.84)" width="39.6" x="55" y="107" /><polygon fill="none" points="30,123.84 77.30000000000001,123.84 53.650000000000006,86" stroke="black" stroke-width="2" transform="rotate(161,53.650000000000006,104.92)" /></g><text font-family="Arial" font-size="14" text-anchor="middle" x="425" y="630">Option 4</text><g transform="translate(350,650)"><rect fill="none" height="31.680000000000003" stroke="black" stroke-width="2" transform="rotate(139,74.8,122.84)" width="39.6" x="55" y="107" /><rect fill="none" height="37.84" stroke="black" stroke-width="2" transform="rotate(162,53.650000000000006,104.92)" width="47.300000000000004" x="30" y="86" /></g></svg>