<?xml version="1.0" encoding="utf-8" ?>
<svg baseProfile="full" height="1000px" version="1.1" width="600px" xmlns="http://www.w3.org/2000/svg" xmlns:ev="http://www.w3.org/2001/xml-events" xmlns:xlink="http://www.w3.org/1999/xlink"><defs /><rect fill="white" height="100%" width="100%" x="0" y="0" /><text font-family="Arial" font-size="24" text-anchor="middle" x="300" y="40">Visual Discrimination Test</text><text font-family="Arial" font-size="18" text-anchor="middle" x="300" y="80">Target Pattern</text><g transform="translate(200,100)"><line stroke="black" stroke-width="2" transform="rotate(182,98.5,34.5)" x1="77" x2="120" y1="13" y2="56" /><rect fill="none" height="38" stroke="black" stroke-width="2" transform="rotate(36,58.0,155.0)" width="38" x="39" y="136" /><circle cx="147" cy="86" fill="none" r="22.5" stroke="black" stroke-width="2" /><circle cx="75" cy="125" fill="none" r="20.5" stroke="black" stroke-width="2" /><polygon fill="none" points="139,101 185,101 162.0,55" stroke="black" stroke-width="2" transform="rotate(287,162.0,78.0)" /></g><text font-family="Arial" font-size="18" text-anchor="middle" x="300" y="350">Options</text><text font-family="Arial" font-size="14" text-anchor="middle" x="175" y="380">Option 1</text><g transform="translate(100,400)"><line stroke="black" stroke-width="2" transform="rotate(189,100.65,36.650000000000006)" x1="77" x2="124.30000000000001" y1="13" y2="60.300000000000004" /><rect fill="none" height="33.440000000000005" stroke="black" stroke-width="2" transform="rotate(41,59.900000000000006,152.72)" width="41.800000000000004" x="39" y="136" /><circle cx="147" cy="86" fill="none" r="24.750000000000004" stroke="black" stroke-width="2" /><circle cx="75" cy="125" fill="none" r="22.55" stroke="black" stroke-width="2" /><polygon fill="none" points="139,95.48 189.6,95.48 164.3,55" stroke="black" stroke-width="2" transform="rotate(290,164.3,75.24000000000001)" /></g><text font-family="Arial" font-size="14" text-anchor="middle" x="425" y="380">Option 2</text><g transform="translate(350,400)"><line stroke="black" stroke-width="2" transform="rotate(186,100.65,36.650000000000006)" x1="77" x2="124.30000000000001" y1="13" y2="60.300000000000004" /><rect fill="none" height="33.440000000000005" stroke="black" stroke-width="2" transform="rotate(39,59.900000000000006,152.72)" width="41.800000000000004" x="39" y="136" /><circle cx="147" cy="86" fill="none" r="24.750000000000004" stroke="black" stroke-width="2" /><circle cx="75" cy="125" fill="none" r="22.55" stroke="black" stroke-width="2" /><polygon fill="none" points="139,95.48 189.6,95.48 164.3,55" stroke="black" stroke-width="2" transform="rotate(292,164.3,75.24000000000001)" /></g><text font-family="Arial" font-size="14" text-anchor="middle" x="175" y="630">Option 3</text><g transform="translate(100,650)"><line stroke="black" stroke-width="2" transform="rotate(189,100.65,36.650000000000006)" x1="77" x2="124.30000000000001" y1="13" y2="60.300000000000004" /><rect fill="none" height="33.440000000000005" stroke="black" stroke-width="2" transform="rotate(41,59.900000000000006,152.72)" width="41.800000000000004" x="39" y="136" /><circle cx="147" cy="86" fill="none" r="24.750000000000004" stroke="black" stroke-width="2" /><circle cx="75" cy="125" fill="none" r="22.55" stroke="black" stroke-width="2" /><polygon fill="none" points="139,95.48 189.6,95.48 164.3,55" stroke="black" stroke-width="2" transform="rotate(290,164.3,75.24000000000001)" /></g><text font-family="Arial" font-size="14" text-anchor="middle" x="425" y="630">Option 4</text><g transform="translate(350,650)"><line stroke="black" stroke-width="2" transform="rotate(182,98.5,34.5)" x1="77" x2="120" y1="13" y2="56" /><rect fill="none" height="38" stroke="black" stroke-width="2" transform="rotate(36,58.0,155.0)" width="38" x="39" y="136" /><circle cx="147" cy="86" fill="none" r="22.5" stroke="black" stroke-width="2" /><circle cx="75" cy="125" fill="none" r="20.5" stroke="black" stroke-width="2" /><polygon fill="none" points="139,101 185,101 162.0,55" stroke="black" stroke-width="2" transform="rotate(287,162.0,78.0)" /></g></svg>