<?xml version="1.0" encoding="utf-8" ?>
<svg baseProfile="full" height="1000px" version="1.1" width="600px" xmlns="http://www.w3.org/2000/svg" xmlns:ev="http://www.w3.org/2001/xml-events" xmlns:xlink="http://www.w3.org/1999/xlink"><defs /><rect fill="white" height="100%" width="100%" x="0" y="0" /><text font-family="Arial" font-size="24" text-anchor="middle" x="300" y="40">Visual Discrimination Test</text><text font-family="Arial" font-size="18" text-anchor="middle" x="300" y="80">Target Pattern</text><g transform="translate(200,100)"><rect fill="none" height="44" stroke="black" stroke-width="2" transform="rotate(342,117.0,114.0)" width="44" x="95" y="92" /><circle cx="134" cy="58" fill="none" r="19.0" stroke="black" stroke-width="2" /></g><text font-family="Arial" font-size="18" text-anchor="middle" x="300" y="350">Options</text><text font-family="Arial" font-size="14" text-anchor="middle" x="175" y="380">Option 1</text><g transform="translate(100,400)"><rect fill="none" height="49.28" stroke="black" stroke-width="2" transform="rotate(369,125.8,116.64)" width="61.599999999999994" x="95" y="92" /><circle cx="134" cy="58" fill="none" r="26.599999999999998" stroke="black" stroke-width="2" /></g><text font-family="Arial" font-size="14" text-anchor="middle" x="425" y="380">Option 2</text><g transform="translate(350,400)"><rect fill="none" height="49.28" stroke="black" stroke-width="2" transform="rotate(367,125.8,116.64)" width="61.599999999999994" x="95" y="92" /><circle cx="134" cy="58" fill="none" r="26.599999999999998" stroke="black" stroke-width="2" /></g><text font-family="Arial" font-size="14" text-anchor="middle" x="175" y="630">Option 3</text><g transform="translate(100,650)"><rect fill="none" height="49.28" stroke="black" stroke-width="2" transform="rotate(369,125.8,116.64)" width="61.599999999999994" x="95" y="92" /><circle cx="134" cy="58" fill="none" r="26.599999999999998" stroke="black" stroke-width="2" /></g><text font-family="Arial" font-size="14" text-anchor="middle" x="425" y="630">Option 4</text><g transform="translate(350,650)"><rect fill="none" height="44" stroke="black" stroke-width="2" transform="rotate(342,117.0,114.0)" width="44" x="95" y="92" /><circle cx="134" cy="58" fill="none" r="19.0" stroke="black" stroke-width="2" /></g></svg>