<?xml version="1.0" encoding="utf-8" ?>
<svg baseProfile="full" height="1000px" version="1.1" width="600px" xmlns="http://www.w3.org/2000/svg" xmlns:ev="http://www.w3.org/2001/xml-events" xmlns:xlink="http://www.w3.org/1999/xlink"><defs /><rect fill="white" height="100%" width="100%" x="0" y="0" /><text font-family="Arial" font-size="24" text-anchor="middle" x="300" y="40">Visual Discrimination Test</text><text font-family="Arial" font-size="18" text-anchor="middle" x="300" y="80">Target Pattern</text><g transform="translate(200,100)"><polygon fill="none" points="15,52 54,52 34.5,13" stroke="black" stroke-width="2" transform="rotate(20,34.5,32.5)" /><polygon fill="none" points="60,42 92,42 76.0,10" stroke="black" stroke-width="2" transform="rotate(81,76.0,26.0)" /><line stroke="black" stroke-width="2" transform="rotate(182,72.0,125.0)" x1="53" x2="91" y1="106" y2="144" /><circle cx="60" cy="125" fill="none" r="24.0" stroke="black" stroke-width="2" /><line stroke="black" stroke-width="2" transform="rotate(45,96.5,129.5)" x1="78" x2="115" y1="111" y2="148" /><circle cx="119" cy="94" fill="none" r="23.0" stroke="black" stroke-width="2" /><rect fill="none" height="37" stroke="black" stroke-width="2" transform="rotate(101,138.5,96.5)" width="37" x="120" y="78" /><rect fill="none" height="42" stroke="black" stroke-width="2" transform="rotate(331,71.0,38.0)" width="42" x="50" y="17" /></g><text font-family="Arial" font-size="18" text-anchor="middle" x="300" y="350">Options</text><text font-family="Arial" font-size="14" text-anchor="middle" x="175" y="380">Option 1</text><g transform="translate(100,400)"><polygon fill="none" points="15,52 54,52 34.5,13" stroke="black" stroke-width="2" transform="rotate(20,34.5,32.5)" /><polygon fill="none" points="60,42 92,42 76.0,10" stroke="black" stroke-width="2" transform="rotate(81,76.0,26.0)" /><line stroke="black" stroke-width="2" transform="rotate(182,72.0,125.0)" x1="53" x2="91" y1="106" y2="144" /><circle cx="60" cy="125" fill="none" r="24.0" stroke="black" stroke-width="2" /><line stroke="black" stroke-width="2" transform="rotate(45,96.5,129.5)" x1="78" x2="115" y1="111" y2="148" /><circle cx="119" cy="94" fill="none" r="23.0" stroke="black" stroke-width="2" /><rect fill="none" height="37" stroke="black" stroke-width="2" transform="rotate(101,138.5,96.5)" width="37" x="120" y="78" /><rect fill="none" height="42" stroke="black" stroke-width="2" transform="rotate(331,71.0,38.0)" width="42" x="50" y="17" /></g><text font-family="Arial" font-size="14" text-anchor="middle" x="425" y="380">Option 2</text><g transform="translate(350,400)"><polygon fill="none" points="15,56.68 69.6,56.68 42.3,13" stroke="black" stroke-width="2" transform="rotate(43,42.3,34.84)" /><polygon fill="none" points="60,45.839999999999996 104.8,45.839999999999996 82.4,10" stroke="black" stroke-width="2" transform="rotate(106,82.4,27.919999999999998)" /><line stroke="black" stroke-width="2" transform="rotate(208,79.6,132.6)" x1="53" x2="106.19999999999999" y1="106" y2="159.2" /><circle cx="60" cy="125" fill="none" r="33.599999999999994" stroke="black" stroke-width="2" /><line stroke="black" stroke-width="2" transform="rotate(70,103.9,136.9)" x1="78" x2="129.8" y1="111" y2="162.8" /><circle cx="119" cy="94" fill="none" r="32.199999999999996" stroke="black" stroke-width="2" /><rect fill="none" height="41.44" stroke="black" stroke-width="2" transform="rotate(126,145.9,98.72)" width="51.8" x="120" y="78" /><rect fill="none" height="47.04" stroke="black" stroke-width="2" transform="rotate(356,79.4,40.519999999999996)" width="58.8" x="50" y="17" /></g><text font-family="Arial" font-size="14" text-anchor="middle" x="175" y="630">Option 3</text><g transform="translate(100,650)"><polygon fill="none" points="15,56.68 69.6,56.68 42.3,13" stroke="black" stroke-width="2" transform="rotate(47,42.3,34.84)" /><polygon fill="none" points="60,45.839999999999996 104.8,45.839999999999996 82.4,10" stroke="black" stroke-width="2" transform="rotate(105,82.4,27.919999999999998)" /><line stroke="black" stroke-width="2" transform="rotate(209,79.6,132.6)" x1="53" x2="106.19999999999999" y1="106" y2="159.2" /><circle cx="60" cy="125" fill="none" r="33.599999999999994" stroke="black" stroke-width="2" /><line stroke="black" stroke-width="2" transform="rotate(72,103.9,136.9)" x1="78" x2="129.8" y1="111" y2="162.8" /><circle cx="119" cy="94" fill="none" r="32.199999999999996" stroke="black" stroke-width="2" /><rect fill="none" height="41.44" stroke="black" stroke-width="2" transform="rotate(126,145.9,98.72)" width="51.8" x="120" y="78" /><rect fill="none" height="47.04" stroke="black" stroke-width="2" transform="rotate(355,79.4,40.519999999999996)" width="58.8" x="50" y="17" /></g><text font-family="Arial" font-size="14" text-anchor="middle" x="425" y="630">Option 4</text><g transform="translate(350,650)"><polygon fill="none" points="15,56.68 69.6,56.68 42.3,13" stroke="black" stroke-width="2" transform="rotate(46,42.3,34.84)" /><polygon fill="none" points="60,45.839999999999996 104.8,45.839999999999996 82.4,10" stroke="black" stroke-width="2" transform="rotate(104,82.4,27.919999999999998)" /><line stroke="black" stroke-width="2" transform="rotate(206,79.6,132.6)" x1="53" x2="106.19999999999999" y1="106" y2="159.2" /><circle cx="60" cy="125" fill="none" r="33.599999999999994" stroke="black" stroke-width="2" /><line stroke="black" stroke-width="2" transform="rotate(68,103.9,136.9)" x1="78" x2="129.8" y1="111" y2="162.8" /><circle cx="119" cy="94" fill="none" r="32.199999999999996" stroke="black" stroke-width="2" /><rect fill="none" height="41.44" stroke="black" stroke-width="2" transform="rotate(125,145.9,98.72)" width="51.8" x="120" y="78" /><rect fill="none" height="47.04" stroke="black" stroke-width="2" transform="rotate(358,79.4,40.519999999999996)" width="58.8" x="50" y="17" /></g></svg>