<?xml version="1.0" encoding="utf-8" ?>
<svg baseProfile="full" height="1000px" version="1.1" width="600px" xmlns="http://www.w3.org/2000/svg" xmlns:ev="http://www.w3.org/2001/xml-events" xmlns:xlink="http://www.w3.org/1999/xlink"><defs /><rect fill="white" height="100%" width="100%" x="0" y="0" /><text font-family="Arial" font-size="24" text-anchor="middle" x="300" y="40">Visual Discrimination Test</text><text font-family="Arial" font-size="18" text-anchor="middle" x="300" y="80">Target Pattern</text><g transform="translate(200,100)"><line stroke="black" stroke-width="2" transform="rotate(203,59.0,139.0)" x1="41" x2="77" y1="121" y2="157" /><circle cx="134" cy="132" fill="none" r="15.0" stroke="black" stroke-width="2" /><circle cx="94" cy="64" fill="none" r="21.5" stroke="black" stroke-width="2" /><rect fill="none" height="45" stroke="black" stroke-width="2" transform="rotate(46,89.5,149.5)" width="45" x="67" y="127" /><rect fill="none" height="31" stroke="black" stroke-width="2" transform="rotate(318,133.5,142.5)" width="31" x="118" y="127" /></g><text font-family="Arial" font-size="18" text-anchor="middle" x="300" y="350">Options</text><text font-family="Arial" font-size="14" text-anchor="middle" x="175" y="380">Option 1</text><g transform="translate(100,400)"><line stroke="black" stroke-width="2" transform="rotate(229,66.2,146.2)" x1="41" x2="91.4" y1="121" y2="171.4" /><circle cx="134" cy="132" fill="none" r="21.0" stroke="black" stroke-width="2" /><circle cx="94" cy="64" fill="none" r="30.099999999999998" stroke="black" stroke-width="2" /><rect fill="none" height="50.4" stroke="black" stroke-width="2" transform="rotate(72,98.5,152.2)" width="62.99999999999999" x="67" y="127" /><rect fill="none" height="34.72" stroke="black" stroke-width="2" transform="rotate(343,139.7,144.36)" width="43.4" x="118" y="127" /></g><text font-family="Arial" font-size="14" text-anchor="middle" x="425" y="380">Option 2</text><g transform="translate(350,400)"><line stroke="black" stroke-width="2" transform="rotate(230,66.2,146.2)" x1="41" x2="91.4" y1="121" y2="171.4" /><circle cx="134" cy="132" fill="none" r="21.0" stroke="black" stroke-width="2" /><circle cx="94" cy="64" fill="none" r="30.099999999999998" stroke="black" stroke-width="2" /><rect fill="none" height="50.4" stroke="black" stroke-width="2" transform="rotate(72,98.5,152.2)" width="62.99999999999999" x="67" y="127" /><rect fill="none" height="34.72" stroke="black" stroke-width="2" transform="rotate(345,139.7,144.36)" width="43.4" x="118" y="127" /></g><text font-family="Arial" font-size="14" text-anchor="middle" x="175" y="630">Option 3</text><g transform="translate(100,650)"><line stroke="black" stroke-width="2" transform="rotate(203,59.0,139.0)" x1="41" x2="77" y1="121" y2="157" /><circle cx="134" cy="132" fill="none" r="15.0" stroke="black" stroke-width="2" /><circle cx="94" cy="64" fill="none" r="21.5" stroke="black" stroke-width="2" /><rect fill="none" height="45" stroke="black" stroke-width="2" transform="rotate(46,89.5,149.5)" width="45" x="67" y="127" /><rect fill="none" height="31" stroke="black" stroke-width="2" transform="rotate(318,133.5,142.5)" width="31" x="118" y="127" /></g><text font-family="Arial" font-size="14" text-anchor="middle" x="425" y="630">Option 4</text><g transform="translate(350,650)"><line stroke="black" stroke-width="2" transform="rotate(227,66.2,146.2)" x1="41" x2="91.4" y1="121" y2="171.4" /><circle cx="134" cy="132" fill="none" r="21.0" stroke="black" stroke-width="2" /><circle cx="94" cy="64" fill="none" r="30.099999999999998" stroke="black" stroke-width="2" /><rect fill="none" height="50.4" stroke="black" stroke-width="2" transform="rotate(73,98.5,152.2)" width="62.99999999999999" x="67" y="127" /><rect fill="none" height="34.72" stroke="black" stroke-width="2" transform="rotate(344,139.7,144.36)" width="43.4" x="118" y="127" /></g></svg>