<?xml version="1.0" encoding="utf-8" ?>
<svg baseProfile="full" height="1000px" version="1.1" width="600px" xmlns="http://www.w3.org/2000/svg" xmlns:ev="http://www.w3.org/2001/xml-events" xmlns:xlink="http://www.w3.org/1999/xlink"><defs /><rect fill="white" height="100%" width="100%" x="0" y="0" /><text font-family="Arial" font-size="24" text-anchor="middle" x="300" y="40">Visual Discrimination Test</text><text font-family="Arial" font-size="18" text-anchor="middle" x="300" y="80">Target Pattern</text><g transform="translate(200,100)"><rect fill="none" height="44" stroke="black" stroke-width="2" transform="rotate(192,34.0,49.0)" width="44" x="12" y="27" /><rect fill="none" height="45" stroke="black" stroke-width="2" transform="rotate(40,113.5,150.5)" width="45" x="91" y="128" /><line stroke="black" stroke-width="2" transform="rotate(319,77.5,120.5)" x1="58" x2="97" y1="101" y2="140" /><line stroke="black" stroke-width="2" transform="rotate(140,139.5,52.5)" x1="116" x2="163" y1="29" y2="76" /></g><text font-family="Arial" font-size="18" text-anchor="middle" x="300" y="350">Options</text><text font-family="Arial" font-size="14" text-anchor="middle" x="175" y="380">Option 1</text><g transform="translate(100,400)"><rect fill="none" height="49.28" stroke="black" stroke-width="2" transform="rotate(218,42.8,51.64)" width="61.599999999999994" x="12" y="27" /><rect fill="none" height="50.4" stroke="black" stroke-width="2" transform="rotate(67,122.5,153.2)" width="62.99999999999999" x="91" y="128" /><line stroke="black" stroke-width="2" transform="rotate(342,85.3,128.3)" x1="58" x2="112.6" y1="101" y2="155.6" /><line stroke="black" stroke-width="2" transform="rotate(167,148.9,61.9)" x1="116" x2="181.8" y1="29" y2="94.8" /></g><text font-family="Arial" font-size="14" text-anchor="middle" x="425" y="380">Option 2</text><g transform="translate(350,400)"><rect fill="none" height="44" stroke="black" stroke-width="2" transform="rotate(192,34.0,49.0)" width="44" x="12" y="27" /><rect fill="none" height="45" stroke="black" stroke-width="2" transform="rotate(40,113.5,150.5)" width="45" x="91" y="128" /><line stroke="black" stroke-width="2" transform="rotate(319,77.5,120.5)" x1="58" x2="97" y1="101" y2="140" /><line stroke="black" stroke-width="2" transform="rotate(140,139.5,52.5)" x1="116" x2="163" y1="29" y2="76" /></g><text font-family="Arial" font-size="14" text-anchor="middle" x="175" y="630">Option 3</text><g transform="translate(100,650)"><rect fill="none" height="49.28" stroke="black" stroke-width="2" transform="rotate(218,42.8,51.64)" width="61.599999999999994" x="12" y="27" /><rect fill="none" height="50.4" stroke="black" stroke-width="2" transform="rotate(66,122.5,153.2)" width="62.99999999999999" x="91" y="128" /><line stroke="black" stroke-width="2" transform="rotate(345,85.3,128.3)" x1="58" x2="112.6" y1="101" y2="155.6" /><line stroke="black" stroke-width="2" transform="rotate(165,148.9,61.9)" x1="116" x2="181.8" y1="29" y2="94.8" /></g><text font-family="Arial" font-size="14" text-anchor="middle" x="425" y="630">Option 4</text><g transform="translate(350,650)"><rect fill="none" height="49.28" stroke="black" stroke-width="2" transform="rotate(215,42.8,51.64)" width="61.599999999999994" x="12" y="27" /><rect fill="none" height="50.4" stroke="black" stroke-width="2" transform="rotate(63,122.5,153.2)" width="62.99999999999999" x="91" y="128" /><line stroke="black" stroke-width="2" transform="rotate(344,85.3,128.3)" x1="58" x2="112.6" y1="101" y2="155.6" /><line stroke="black" stroke-width="2" transform="rotate(166,148.9,61.9)" x1="116" x2="181.8" y1="29" y2="94.8" /></g></svg>