<?xml version="1.0" encoding="utf-8" ?>
<svg baseProfile="full" height="1000px" version="1.1" width="600px" xmlns="http://www.w3.org/2000/svg" xmlns:ev="http://www.w3.org/2001/xml-events" xmlns:xlink="http://www.w3.org/1999/xlink"><defs /><rect fill="white" height="100%" width="100%" x="0" y="0" /><text font-family="Arial" font-size="24" text-anchor="middle" x="300" y="40">Visual Discrimination Test</text><text font-family="Arial" font-size="18" text-anchor="middle" x="300" y="80">Target Pattern</text><g transform="translate(200,100)"><rect fill="none" height="48" stroke="black" stroke-width="2" transform="rotate(139,39.0,93.0)" width="48" x="15" y="69" /><circle cx="93" cy="72" fill="none" r="19.5" stroke="black" stroke-width="2" /><circle cx="122" cy="41" fill="none" r="16.5" stroke="black" stroke-width="2" /><rect fill="none" height="34" stroke="black" stroke-width="2" transform="rotate(174,63.0,130.0)" width="34" x="46" y="113" /><circle cx="129" cy="113" fill="none" r="19.5" stroke="black" stroke-width="2" /><circle cx="118" cy="147" fill="none" r="15.0" stroke="black" stroke-width="2" /><rect fill="none" height="45" stroke="black" stroke-width="2" transform="rotate(316,98.5,84.5)" width="45" x="76" y="62" /><polygon fill="none" points="100,176 139,176 119.5,137" stroke="black" stroke-width="2" transform="rotate(123,119.5,156.5)" /><circle cx="37" cy="37" fill="none" r="23.0" stroke="black" stroke-width="2" /></g><text font-family="Arial" font-size="18" text-anchor="middle" x="300" y="350">Options</text><text font-family="Arial" font-size="14" text-anchor="middle" x="175" y="380">Option 1</text><g transform="translate(100,400)"><rect fill="none" height="53.75999999999999" stroke="black" stroke-width="2" transform="rotate(163,48.599999999999994,95.88)" width="67.19999999999999" x="15" y="69" /><circle cx="93" cy="72" fill="none" r="27.299999999999997" stroke="black" stroke-width="2" /><circle cx="122" cy="41" fill="none" r="23.099999999999998" stroke="black" stroke-width="2" /><rect fill="none" height="38.08" stroke="black" stroke-width="2" transform="rotate(200,69.8,132.04)" width="47.599999999999994" x="46" y="113" /><circle cx="129" cy="113" fill="none" r="27.299999999999997" stroke="black" stroke-width="2" /><circle cx="118" cy="147" fill="none" r="21.0" stroke="black" stroke-width="2" /><rect fill="none" height="50.4" stroke="black" stroke-width="2" transform="rotate(343,107.5,87.2)" width="62.99999999999999" x="76" y="62" /><polygon fill="none" points="100,180.68 154.6,180.68 127.3,137" stroke="black" stroke-width="2" transform="rotate(148,127.3,158.84)" /><circle cx="37" cy="37" fill="none" r="32.199999999999996" stroke="black" stroke-width="2" /></g><text font-family="Arial" font-size="14" text-anchor="middle" x="425" y="380">Option 2</text><g transform="translate(350,400)"><rect fill="none" height="53.75999999999999" stroke="black" stroke-width="2" transform="rotate(165,48.599999999999994,95.88)" width="67.19999999999999" x="15" y="69" /><circle cx="93" cy="72" fill="none" r="27.299999999999997" stroke="black" stroke-width="2" /><circle cx="122" cy="41" fill="none" r="23.099999999999998" stroke="black" stroke-width="2" /><rect fill="none" height="38.08" stroke="black" stroke-width="2" transform="rotate(199,69.8,132.04)" width="47.599999999999994" x="46" y="113" /><circle cx="129" cy="113" fill="none" r="27.299999999999997" stroke="black" stroke-width="2" /><circle cx="118" cy="147" fill="none" r="21.0" stroke="black" stroke-width="2" /><rect fill="none" height="50.4" stroke="black" stroke-width="2" transform="rotate(339,107.5,87.2)" width="62.99999999999999" x="76" y="62" /><polygon fill="none" points="100,180.68 154.6,180.68 127.3,137" stroke="black" stroke-width="2" transform="rotate(150,127.3,158.84)" /><circle cx="37" cy="37" fill="none" r="32.199999999999996" stroke="black" stroke-width="2" /></g><text font-family="Arial" font-size="14" text-anchor="middle" x="175" y="630">Option 3</text><g transform="translate(100,650)"><rect fill="none" height="48" stroke="black" stroke-width="2" transform="rotate(139,39.0,93.0)" width="48" x="15" y="69" /><circle cx="93" cy="72" fill="none" r="19.5" stroke="black" stroke-width="2" /><circle cx="122" cy="41" fill="none" r="16.5" stroke="black" stroke-width="2" /><rect fill="none" height="34" stroke="black" stroke-width="2" transform="rotate(174,63.0,130.0)" width="34" x="46" y="113" /><circle cx="129" cy="113" fill="none" r="19.5" stroke="black" stroke-width="2" /><circle cx="118" cy="147" fill="none" r="15.0" stroke="black" stroke-width="2" /><rect fill="none" height="45" stroke="black" stroke-width="2" transform="rotate(316,98.5,84.5)" width="45" x="76" y="62" /><polygon fill="none" points="100,176 139,176 119.5,137" stroke="black" stroke-width="2" transform="rotate(123,119.5,156.5)" /><circle cx="37" cy="37" fill="none" r="23.0" stroke="black" stroke-width="2" /></g><text font-family="Arial" font-size="14" text-anchor="middle" x="425" y="630">Option 4</text><g transform="translate(350,650)"><rect fill="none" height="53.75999999999999" stroke="black" stroke-width="2" transform="rotate(166,48.599999999999994,95.88)" width="67.19999999999999" x="15" y="69" /><circle cx="93" cy="72" fill="none" r="27.299999999999997" stroke="black" stroke-width="2" /><circle cx="122" cy="41" fill="none" r="23.099999999999998" stroke="black" stroke-width="2" /><rect fill="none" height="38.08" stroke="black" stroke-width="2" transform="rotate(201,69.8,132.04)" width="47.599999999999994" x="46" y="113" /><circle cx="129" cy="113" fill="none" r="27.299999999999997" stroke="black" stroke-width="2" /><circle cx="118" cy="147" fill="none" r="21.0" stroke="black" stroke-width="2" /><rect fill="none" height="50.4" stroke="black" stroke-width="2" transform="rotate(340,107.5,87.2)" width="62.99999999999999" x="76" y="62" /><polygon fill="none" points="100,180.68 154.6,180.68 127.3,137" stroke="black" stroke-width="2" transform="rotate(148,127.3,158.84)" /><circle cx="37" cy="37" fill="none" r="32.199999999999996" stroke="black" stroke-width="2" /></g></svg>