<?xml version="1.0" encoding="utf-8" ?>
<svg baseProfile="full" height="1000px" version="1.1" width="600px" xmlns="http://www.w3.org/2000/svg" xmlns:ev="http://www.w3.org/2001/xml-events" xmlns:xlink="http://www.w3.org/1999/xlink"><defs /><rect fill="white" height="100%" width="100%" x="0" y="0" /><text font-family="Arial" font-size="24" text-anchor="middle" x="300" y="40">Visual Discrimination Test</text><text font-family="Arial" font-size="18" text-anchor="middle" x="300" y="80">Target Pattern</text><g transform="translate(200,100)"><line stroke="black" stroke-width="2" transform="rotate(176,167.0,41.0)" x1="145" x2="189" y1="19" y2="63" /><circle cx="131" cy="22" fill="none" r="16.5" stroke="black" stroke-width="2" /><rect fill="none" height="39" stroke="black" stroke-width="2" transform="rotate(177,59.5,148.5)" width="39" x="40" y="129" /></g><text font-family="Arial" font-size="18" text-anchor="middle" x="300" y="350">Options</text><text font-family="Arial" font-size="14" text-anchor="middle" x="175" y="380">Option 1</text><g transform="translate(100,400)"><line stroke="black" stroke-width="2" transform="rotate(176,167.0,41.0)" x1="145" x2="189" y1="19" y2="63" /><circle cx="131" cy="22" fill="none" r="16.5" stroke="black" stroke-width="2" /><rect fill="none" height="39" stroke="black" stroke-width="2" transform="rotate(177,59.5,148.5)" width="39" x="40" y="129" /></g><text font-family="Arial" font-size="14" text-anchor="middle" x="425" y="380">Option 2</text><g transform="translate(350,400)"><polygon fill="none" points="145,68.28 206.6,68.28 175.8,19" stroke="black" stroke-width="2" transform="rotate(199,175.8,43.64)" /><polygon fill="none" points="131,58.96 177.2,58.96 154.1,22" stroke="black" stroke-width="2" transform="rotate(125,154.1,40.480000000000004)" /><line stroke="black" stroke-width="2" transform="rotate(203,67.3,156.3)" x1="40" x2="94.6" y1="129" y2="183.6" /></g><text font-family="Arial" font-size="14" text-anchor="middle" x="175" y="630">Option 3</text><g transform="translate(100,650)"><polygon fill="none" points="145,68.28 206.6,68.28 175.8,19" stroke="black" stroke-width="2" transform="rotate(202,175.8,43.64)" /><line stroke="black" stroke-width="2" transform="rotate(123,154.1,45.099999999999994)" x1="131" x2="177.2" y1="22" y2="68.19999999999999" /><line stroke="black" stroke-width="2" transform="rotate(203,67.3,156.3)" x1="40" x2="94.6" y1="129" y2="183.6" /></g><text font-family="Arial" font-size="14" text-anchor="middle" x="425" y="630">Option 4</text><g transform="translate(350,650)"><rect fill="none" height="49.28" stroke="black" stroke-width="2" transform="rotate(202,175.8,43.64)" width="61.599999999999994" x="145" y="19" /><polygon fill="none" points="131,58.96 177.2,58.96 154.1,22" stroke="black" stroke-width="2" transform="rotate(122,154.1,40.480000000000004)" /><polygon fill="none" points="40,172.68 94.6,172.68 67.3,129" stroke="black" stroke-width="2" transform="rotate(202,67.3,150.84)" /></g></svg>