<?xml version="1.0" encoding="utf-8" ?>
<svg baseProfile="full" height="1000px" version="1.1" width="600px" xmlns="http://www.w3.org/2000/svg" xmlns:ev="http://www.w3.org/2001/xml-events" xmlns:xlink="http://www.w3.org/1999/xlink"><defs /><rect fill="white" height="100%" width="100%" x="0" y="0" /><text font-family="Arial" font-size="24" text-anchor="middle" x="300" y="40">Visual Discrimination Test</text><text font-family="Arial" font-size="18" text-anchor="middle" x="300" y="80">Target Pattern</text><g transform="translate(200,100)"><polygon fill="none" points="50,72 95,72 72.5,27" stroke="black" stroke-width="2" transform="rotate(196,72.5,49.5)" /><line stroke="black" stroke-width="2" transform="rotate(223,43.5,170.5)" x1="23" x2="64" y1="150" y2="191" /><rect fill="none" height="30" stroke="black" stroke-width="2" transform="rotate(204,56.0,66.0)" width="30" x="41" y="51" /><polygon fill="none" points="44,166 82,166 63.0,128" stroke="black" stroke-width="2" transform="rotate(263,63.0,147.0)" /></g><text font-family="Arial" font-size="18" text-anchor="middle" x="300" y="350">Options</text><text font-family="Arial" font-size="14" text-anchor="middle" x="175" y="380">Option 1</text><g transform="translate(100,400)"><rect fill="none" height="50.4" stroke="black" stroke-width="2" transform="rotate(220,81.5,52.2)" width="62.99999999999999" x="50" y="27" /><rect fill="none" height="45.92" stroke="black" stroke-width="2" transform="rotate(246,51.7,172.96)" width="57.4" x="23" y="150" /><line stroke="black" stroke-width="2" transform="rotate(228,62.0,72.0)" x1="41" x2="83.0" y1="51" y2="93.0" /><line stroke="black" stroke-width="2" transform="rotate(290,70.6,154.6)" x1="44" x2="97.19999999999999" y1="128" y2="181.2" /></g><text font-family="Arial" font-size="14" text-anchor="middle" x="425" y="380">Option 2</text><g transform="translate(350,400)"><line stroke="black" stroke-width="2" transform="rotate(221,81.5,58.5)" x1="50" x2="113.0" y1="27" y2="90.0" /><line stroke="black" stroke-width="2" transform="rotate(249,51.7,178.7)" x1="23" x2="80.4" y1="150" y2="207.4" /><line stroke="black" stroke-width="2" transform="rotate(229,62.0,72.0)" x1="41" x2="83.0" y1="51" y2="93.0" /><line stroke="black" stroke-width="2" transform="rotate(287,70.6,154.6)" x1="44" x2="97.19999999999999" y1="128" y2="181.2" /></g><text font-family="Arial" font-size="14" text-anchor="middle" x="175" y="630">Option 3</text><g transform="translate(100,650)"><polygon fill="none" points="50,72 95,72 72.5,27" stroke="black" stroke-width="2" transform="rotate(196,72.5,49.5)" /><line stroke="black" stroke-width="2" transform="rotate(223,43.5,170.5)" x1="23" x2="64" y1="150" y2="191" /><rect fill="none" height="30" stroke="black" stroke-width="2" transform="rotate(204,56.0,66.0)" width="30" x="41" y="51" /><polygon fill="none" points="44,166 82,166 63.0,128" stroke="black" stroke-width="2" transform="rotate(263,63.0,147.0)" /></g><text font-family="Arial" font-size="14" text-anchor="middle" x="425" y="630">Option 4</text><g transform="translate(350,650)"><polygon fill="none" points="50,77.4 113.0,77.4 81.5,27" stroke="black" stroke-width="2" transform="rotate(222,81.5,52.2)" /><line stroke="black" stroke-width="2" transform="rotate(248,51.7,178.7)" x1="23" x2="80.4" y1="150" y2="207.4" /><line stroke="black" stroke-width="2" transform="rotate(227,62.0,72.0)" x1="41" x2="83.0" y1="51" y2="93.0" /><rect fill="none" height="42.56" stroke="black" stroke-width="2" transform="rotate(287,70.6,149.28)" width="53.199999999999996" x="44" y="128" /></g></svg>