<?xml version="1.0" encoding="utf-8" ?>
<svg baseProfile="full" height="1000px" version="1.1" width="600px" xmlns="http://www.w3.org/2000/svg" xmlns:ev="http://www.w3.org/2001/xml-events" xmlns:xlink="http://www.w3.org/1999/xlink"><defs /><rect fill="white" height="100%" width="100%" x="0" y="0" /><text font-family="Arial" font-size="24" text-anchor="middle" x="300" y="40">Visual Discrimination Test</text><text font-family="Arial" font-size="18" text-anchor="middle" x="300" y="80">Target Pattern</text><g transform="translate(200,100)"><line stroke="black" stroke-width="2" transform="rotate(77,116.0,61.0)" x1="96" x2="136" y1="41" y2="81" /><line stroke="black" stroke-width="2" transform="rotate(99,116.5,65.5)" x1="98" x2="135" y1="47" y2="84" /><rect fill="none" height="47" stroke="black" stroke-width="2" transform="rotate(285,151.5,95.5)" width="47" x="128" y="72" /><rect fill="none" height="31" stroke="black" stroke-width="2" transform="rotate(25,46.5,131.5)" width="31" x="31" y="116" /><rect fill="none" height="44" stroke="black" stroke-width="2" transform="rotate(339,149.0,109.0)" width="44" x="127" y="87" /><rect fill="none" height="39" stroke="black" stroke-width="2" transform="rotate(268,62.5,45.5)" width="39" x="43" y="26" /><line stroke="black" stroke-width="2" transform="rotate(33,141.0,149.0)" x1="123" x2="159" y1="131" y2="167" /><circle cx="119" cy="126" fill="none" r="16.5" stroke="black" stroke-width="2" /><line stroke="black" stroke-width="2" transform="rotate(192,94.5,50.5)" x1="75" x2="114" y1="31" y2="70" /></g><text font-family="Arial" font-size="18" text-anchor="middle" x="300" y="350">Options</text><text font-family="Arial" font-size="14" text-anchor="middle" x="175" y="380">Option 1</text><g transform="translate(100,400)"><polygon fill="none" points="96,85.80000000000001 152.0,85.80000000000001 124.0,41" stroke="black" stroke-width="2" transform="rotate(104,124.0,63.400000000000006)" /><rect fill="none" height="41.44" stroke="black" stroke-width="2" transform="rotate(123,123.9,67.72)" width="51.8" x="98" y="47" /><polygon fill="none" points="128,124.64 193.8,124.64 160.9,72" stroke="black" stroke-width="2" transform="rotate(310,160.9,98.32)" /><rect fill="none" height="34.72" stroke="black" stroke-width="2" transform="rotate(50,52.7,133.36)" width="43.4" x="31" y="116" /><line stroke="black" stroke-width="2" transform="rotate(362,157.8,117.8)" x1="127" x2="188.6" y1="87" y2="148.6" /><polygon fill="none" points="43,69.68 97.6,69.68 70.3,26" stroke="black" stroke-width="2" transform="rotate(291,70.3,47.84)" /><rect fill="none" height="40.32" stroke="black" stroke-width="2" transform="rotate(59,148.2,151.16)" width="50.4" x="123" y="131" /><rect fill="none" height="36.96" stroke="black" stroke-width="2" transform="rotate(76,142.1,144.48)" width="46.199999999999996" x="119" y="126" /><rect fill="none" height="43.68" stroke="black" stroke-width="2" transform="rotate(216,102.3,52.84)" width="54.599999999999994" x="75" y="31" /></g><text font-family="Arial" font-size="14" text-anchor="middle" x="425" y="380">Option 2</text><g transform="translate(350,400)"><line stroke="black" stroke-width="2" transform="rotate(103,124.0,69.0)" x1="96" x2="152.0" y1="41" y2="97.0" /><line stroke="black" stroke-width="2" transform="rotate(124,123.9,72.9)" x1="98" x2="149.8" y1="47" y2="98.8" /><rect fill="none" height="52.64" stroke="black" stroke-width="2" transform="rotate(312,160.9,98.32)" width="65.8" x="128" y="72" /><polygon fill="none" points="31,150.72 74.4,150.72 52.7,116" stroke="black" stroke-width="2" transform="rotate(49,52.7,133.36)" /><line stroke="black" stroke-width="2" transform="rotate(362,157.8,117.8)" x1="127" x2="188.6" y1="87" y2="148.6" /><line stroke="black" stroke-width="2" transform="rotate(291,70.3,53.3)" x1="43" x2="97.6" y1="26" y2="80.6" /><line stroke="black" stroke-width="2" transform="rotate(57,148.2,156.2)" x1="123" x2="173.4" y1="131" y2="181.4" /><rect fill="none" height="36.96" stroke="black" stroke-width="2" transform="rotate(77,142.1,144.48)" width="46.199999999999996" x="119" y="126" /><polygon fill="none" points="75,74.68 129.6,74.68 102.3,31" stroke="black" stroke-width="2" transform="rotate(215,102.3,52.84)" /></g><text font-family="Arial" font-size="14" text-anchor="middle" x="175" y="630">Option 3</text><g transform="translate(100,650)"><rect fill="none" height="44.800000000000004" stroke="black" stroke-width="2" transform="rotate(102,124.0,63.400000000000006)" width="56.0" x="96" y="41" /><line stroke="black" stroke-width="2" transform="rotate(125,123.9,72.9)" x1="98" x2="149.8" y1="47" y2="98.8" /><rect fill="none" height="52.64" stroke="black" stroke-width="2" transform="rotate(310,160.9,98.32)" width="65.8" x="128" y="72" /><line stroke="black" stroke-width="2" transform="rotate(52,52.7,137.7)" x1="31" x2="74.4" y1="116" y2="159.4" /><polygon fill="none" points="127,136.28 188.6,136.28 157.8,87" stroke="black" stroke-width="2" transform="rotate(363,157.8,111.64)" /><line stroke="black" stroke-width="2" transform="rotate(295,70.3,53.3)" x1="43" x2="97.6" y1="26" y2="80.6" /><polygon fill="none" points="123,171.32 173.4,171.32 148.2,131" stroke="black" stroke-width="2" transform="rotate(59,148.2,151.16)" /><rect fill="none" height="36.96" stroke="black" stroke-width="2" transform="rotate(77,142.1,144.48)" width="46.199999999999996" x="119" y="126" /><line stroke="black" stroke-width="2" transform="rotate(219,102.3,58.3)" x1="75" x2="129.6" y1="31" y2="85.6" /></g><text font-family="Arial" font-size="14" text-anchor="middle" x="425" y="630">Option 4</text><g transform="translate(350,650)"><line stroke="black" stroke-width="2" transform="rotate(77,116.0,61.0)" x1="96" x2="136" y1="41" y2="81" /><line stroke="black" stroke-width="2" transform="rotate(99,116.5,65.5)" x1="98" x2="135" y1="47" y2="84" /><rect fill="none" height="47" stroke="black" stroke-width="2" transform="rotate(285,151.5,95.5)" width="47" x="128" y="72" /><rect fill="none" height="31" stroke="black" stroke-width="2" transform="rotate(25,46.5,131.5)" width="31" x="31" y="116" /><rect fill="none" height="44" stroke="black" stroke-width="2" transform="rotate(339,149.0,109.0)" width="44" x="127" y="87" /><rect fill="none" height="39" stroke="black" stroke-width="2" transform="rotate(268,62.5,45.5)" width="39" x="43" y="26" /><line stroke="black" stroke-width="2" transform="rotate(33,141.0,149.0)" x1="123" x2="159" y1="131" y2="167" /><circle cx="119" cy="126" fill="none" r="16.5" stroke="black" stroke-width="2" /><line stroke="black" stroke-width="2" transform="rotate(192,94.5,50.5)" x1="75" x2="114" y1="31" y2="70" /></g></svg>