<?xml version="1.0" encoding="utf-8" ?>
<svg baseProfile="full" height="1000px" version="1.1" width="600px" xmlns="http://www.w3.org/2000/svg" xmlns:ev="http://www.w3.org/2001/xml-events" xmlns:xlink="http://www.w3.org/1999/xlink"><defs /><rect fill="white" height="100%" width="100%" x="0" y="0" /><text font-family="Arial" font-size="24" text-anchor="middle" x="300" y="40">Visual Discrimination Test</text><text font-family="Arial" font-size="18" text-anchor="middle" x="300" y="80">Target Pattern</text><g transform="translate(200,100)"><rect fill="none" height="40" stroke="black" stroke-width="2" transform="rotate(285,132.0,65.0)" width="40" x="112" y="45" /><rect fill="none" height="49" stroke="black" stroke-width="2" transform="rotate(221,88.5,110.5)" width="49" x="64" y="86" /><line stroke="black" stroke-width="2" transform="rotate(28,127.5,82.5)" x1="106" x2="149" y1="61" y2="104" /><line stroke="black" stroke-width="2" transform="rotate(201,98.0,77.0)" x1="77" x2="119" y1="56" y2="98" /><circle cx="108" cy="112" fill="none" r="25.0" stroke="black" stroke-width="2" /><line stroke="black" stroke-width="2" transform="rotate(85,86.5,32.5)" x1="68" x2="105" y1="14" y2="51" /><circle cx="124" cy="140" fill="none" r="21.0" stroke="black" stroke-width="2" /><line stroke="black" stroke-width="2" transform="rotate(53,146.5,39.5)" x1="130" x2="163" y1="23" y2="56" /></g><text font-family="Arial" font-size="18" text-anchor="middle" x="300" y="350">Options</text><text font-family="Arial" font-size="14" text-anchor="middle" x="175" y="380">Option 1</text><g transform="translate(100,400)"><rect fill="none" height="40" stroke="black" stroke-width="2" transform="rotate(285,132.0,65.0)" width="40" x="112" y="45" /><rect fill="none" height="49" stroke="black" stroke-width="2" transform="rotate(221,88.5,110.5)" width="49" x="64" y="86" /><line stroke="black" stroke-width="2" transform="rotate(28,127.5,82.5)" x1="106" x2="149" y1="61" y2="104" /><line stroke="black" stroke-width="2" transform="rotate(201,98.0,77.0)" x1="77" x2="119" y1="56" y2="98" /><circle cx="108" cy="112" fill="none" r="25.0" stroke="black" stroke-width="2" /><line stroke="black" stroke-width="2" transform="rotate(85,86.5,32.5)" x1="68" x2="105" y1="14" y2="51" /><circle cx="124" cy="140" fill="none" r="21.0" stroke="black" stroke-width="2" /><line stroke="black" stroke-width="2" transform="rotate(53,146.5,39.5)" x1="130" x2="163" y1="23" y2="56" /></g><text font-family="Arial" font-size="14" text-anchor="middle" x="425" y="380">Option 2</text><g transform="translate(350,400)"><polygon fill="none" points="112,89.80000000000001 168.0,89.80000000000001 140.0,45" stroke="black" stroke-width="2" transform="rotate(309,140.0,67.4)" /><polygon fill="none" points="64,140.88 132.6,140.88 98.3,86" stroke="black" stroke-width="2" transform="rotate(248,98.3,113.44)" /><line stroke="black" stroke-width="2" transform="rotate(53,136.1,91.1)" x1="106" x2="166.2" y1="61" y2="121.19999999999999" /><rect fill="none" height="47.04" stroke="black" stroke-width="2" transform="rotate(228,106.4,79.52)" width="58.8" x="77" y="56" /><rect fill="none" height="56.0" stroke="black" stroke-width="2" transform="rotate(101,143.0,140.0)" width="70.0" x="108" y="112" /><line stroke="black" stroke-width="2" transform="rotate(108,93.9,39.9)" x1="68" x2="119.8" y1="14" y2="65.8" /><rect fill="none" height="47.04" stroke="black" stroke-width="2" transform="rotate(116,153.4,163.52)" width="58.8" x="124" y="140" /><polygon fill="none" points="130,59.96 176.2,59.96 153.1,23" stroke="black" stroke-width="2" transform="rotate(78,153.1,41.480000000000004)" /></g><text font-family="Arial" font-size="14" text-anchor="middle" x="175" y="630">Option 3</text><g transform="translate(100,650)"><line stroke="black" stroke-width="2" transform="rotate(308,140.0,73.0)" x1="112" x2="168.0" y1="45" y2="101.0" /><line stroke="black" stroke-width="2" transform="rotate(246,98.3,120.3)" x1="64" x2="132.6" y1="86" y2="154.6" /><rect fill="none" height="48.16" stroke="black" stroke-width="2" transform="rotate(54,136.1,85.08)" width="60.199999999999996" x="106" y="61" /><rect fill="none" height="47.04" stroke="black" stroke-width="2" transform="rotate(226,106.4,79.52)" width="58.8" x="77" y="56" /><line stroke="black" stroke-width="2" transform="rotate(104,143.0,147.0)" x1="108" x2="178.0" y1="112" y2="182.0" /><polygon fill="none" points="68,55.44 119.8,55.44 93.9,14" stroke="black" stroke-width="2" transform="rotate(112,93.9,34.72)" /><polygon fill="none" points="124,187.04 182.8,187.04 153.4,140" stroke="black" stroke-width="2" transform="rotate(118,153.4,163.52)" /><line stroke="black" stroke-width="2" transform="rotate(79,153.1,46.099999999999994)" x1="130" x2="176.2" y1="23" y2="69.19999999999999" /></g><text font-family="Arial" font-size="14" text-anchor="middle" x="425" y="630">Option 4</text><g transform="translate(350,650)"><rect fill="none" height="44.800000000000004" stroke="black" stroke-width="2" transform="rotate(311,140.0,67.4)" width="56.0" x="112" y="45" /><line stroke="black" stroke-width="2" transform="rotate(245,98.3,120.3)" x1="64" x2="132.6" y1="86" y2="154.6" /><polygon fill="none" points="106,109.16 166.2,109.16 136.1,61" stroke="black" stroke-width="2" transform="rotate(53,136.1,85.08)" /><rect fill="none" height="47.04" stroke="black" stroke-width="2" transform="rotate(225,106.4,79.52)" width="58.8" x="77" y="56" /><line stroke="black" stroke-width="2" transform="rotate(102,143.0,147.0)" x1="108" x2="178.0" y1="112" y2="182.0" /><rect fill="none" height="41.44" stroke="black" stroke-width="2" transform="rotate(109,93.9,34.72)" width="51.8" x="68" y="14" /><polygon fill="none" points="124,187.04 182.8,187.04 153.4,140" stroke="black" stroke-width="2" transform="rotate(116,153.4,163.52)" /><rect fill="none" height="36.96" stroke="black" stroke-width="2" transform="rotate(77,153.1,41.480000000000004)" width="46.199999999999996" x="130" y="23" /></g></svg>