<?xml version="1.0" encoding="utf-8" ?>
<svg baseProfile="full" height="1000px" version="1.1" width="600px" xmlns="http://www.w3.org/2000/svg" xmlns:ev="http://www.w3.org/2001/xml-events" xmlns:xlink="http://www.w3.org/1999/xlink"><defs /><rect fill="white" height="100%" width="100%" x="0" y="0" /><text font-family="Arial" font-size="24" text-anchor="middle" x="300" y="40">Visual Discrimination Test</text><text font-family="Arial" font-size="18" text-anchor="middle" x="300" y="80">Target Pattern</text><g transform="translate(200,100)"><rect fill="none" height="32" stroke="black" stroke-width="2" transform="rotate(227,71.0,152.0)" width="32" x="55" y="136" /><polygon fill="none" points="123,124 167,124 145.0,80" stroke="black" stroke-width="2" transform="rotate(170,145.0,102.0)" /><polygon fill="none" points="150,161 187,161 168.5,124" stroke="black" stroke-width="2" transform="rotate(296,168.5,142.5)" /><circle cx="126" cy="69" fill="none" r="16.0" stroke="black" stroke-width="2" /></g><text font-family="Arial" font-size="18" text-anchor="middle" x="300" y="350">Options</text><text font-family="Arial" font-size="14" text-anchor="middle" x="175" y="380">Option 1</text><g transform="translate(100,400)"><polygon fill="none" points="55,171.84 99.8,171.84 77.4,136" stroke="black" stroke-width="2" transform="rotate(254,77.4,153.92)" /><polygon fill="none" points="123,129.28 184.6,129.28 153.8,80" stroke="black" stroke-width="2" transform="rotate(195,153.8,104.64)" /><rect fill="none" height="41.44" stroke="black" stroke-width="2" transform="rotate(321,175.9,144.72)" width="51.8" x="150" y="124" /><line stroke="black" stroke-width="2" transform="rotate(337,148.4,91.4)" x1="126" x2="170.8" y1="69" y2="113.8" /></g><text font-family="Arial" font-size="14" text-anchor="middle" x="425" y="380">Option 2</text><g transform="translate(350,400)"><polygon fill="none" points="55,171.84 99.8,171.84 77.4,136" stroke="black" stroke-width="2" transform="rotate(252,77.4,153.92)" /><rect fill="none" height="49.28" stroke="black" stroke-width="2" transform="rotate(197,153.8,104.64)" width="61.599999999999994" x="123" y="80" /><polygon fill="none" points="150,165.44 201.8,165.44 175.9,124" stroke="black" stroke-width="2" transform="rotate(319,175.9,144.72)" /><polygon fill="none" points="126,104.84 170.8,104.84 148.4,69" stroke="black" stroke-width="2" transform="rotate(334,148.4,86.92)" /></g><text font-family="Arial" font-size="14" text-anchor="middle" x="175" y="630">Option 3</text><g transform="translate(100,650)"><rect fill="none" height="32" stroke="black" stroke-width="2" transform="rotate(227,71.0,152.0)" width="32" x="55" y="136" /><polygon fill="none" points="123,124 167,124 145.0,80" stroke="black" stroke-width="2" transform="rotate(170,145.0,102.0)" /><polygon fill="none" points="150,161 187,161 168.5,124" stroke="black" stroke-width="2" transform="rotate(296,168.5,142.5)" /><circle cx="126" cy="69" fill="none" r="16.0" stroke="black" stroke-width="2" /></g><text font-family="Arial" font-size="14" text-anchor="middle" x="425" y="630">Option 4</text><g transform="translate(350,650)"><polygon fill="none" points="55,171.84 99.8,171.84 77.4,136" stroke="black" stroke-width="2" transform="rotate(251,77.4,153.92)" /><line stroke="black" stroke-width="2" transform="rotate(195,153.8,110.8)" x1="123" x2="184.6" y1="80" y2="141.6" /><rect fill="none" height="41.44" stroke="black" stroke-width="2" transform="rotate(323,175.9,144.72)" width="51.8" x="150" y="124" /><polygon fill="none" points="126,104.84 170.8,104.84 148.4,69" stroke="black" stroke-width="2" transform="rotate(334,148.4,86.92)" /></g></svg>