<?xml version="1.0" encoding="utf-8" ?>
<svg baseProfile="full" height="1000px" version="1.1" width="600px" xmlns="http://www.w3.org/2000/svg" xmlns:ev="http://www.w3.org/2001/xml-events" xmlns:xlink="http://www.w3.org/1999/xlink"><defs /><rect fill="white" height="100%" width="100%" x="0" y="0" /><text font-family="Arial" font-size="24" text-anchor="middle" x="300" y="40">Visual Discrimination Test</text><text font-family="Arial" font-size="18" text-anchor="middle" x="300" y="80">Target Pattern</text><g transform="translate(200,100)"><rect fill="none" height="33" stroke="black" stroke-width="2" transform="rotate(340,89.5,133.5)" width="33" x="73" y="117" /><circle cx="132" cy="10" fill="none" r="21.5" stroke="black" stroke-width="2" /><line stroke="black" stroke-width="2" transform="rotate(230,133.0,143.0)" x1="112" x2="154" y1="122" y2="164" /><rect fill="none" height="35" stroke="black" stroke-width="2" transform="rotate(117,147.5,166.5)" width="35" x="130" y="149" /><rect fill="none" height="30" stroke="black" stroke-width="2" transform="rotate(339,113.0,75.0)" width="30" x="98" y="60" /><rect fill="none" height="50" stroke="black" stroke-width="2" transform="rotate(352,138.0,89.0)" width="50" x="113" y="64" /><rect fill="none" height="43" stroke="black" stroke-width="2" transform="rotate(190,76.5,141.5)" width="43" x="55" y="120" /><circle cx="77" cy="109" fill="none" r="16.5" stroke="black" stroke-width="2" /></g><text font-family="Arial" font-size="18" text-anchor="middle" x="300" y="350">Options</text><text font-family="Arial" font-size="14" text-anchor="middle" x="175" y="380">Option 1</text><g transform="translate(100,400)"><rect fill="none" height="33" stroke="black" stroke-width="2" transform="rotate(340,89.5,133.5)" width="33" x="73" y="117" /><circle cx="132" cy="10" fill="none" r="21.5" stroke="black" stroke-width="2" /><line stroke="black" stroke-width="2" transform="rotate(230,133.0,143.0)" x1="112" x2="154" y1="122" y2="164" /><rect fill="none" height="35" stroke="black" stroke-width="2" transform="rotate(117,147.5,166.5)" width="35" x="130" y="149" /><rect fill="none" height="30" stroke="black" stroke-width="2" transform="rotate(339,113.0,75.0)" width="30" x="98" y="60" /><rect fill="none" height="50" stroke="black" stroke-width="2" transform="rotate(352,138.0,89.0)" width="50" x="113" y="64" /><rect fill="none" height="43" stroke="black" stroke-width="2" transform="rotate(190,76.5,141.5)" width="43" x="55" y="120" /><circle cx="77" cy="109" fill="none" r="16.5" stroke="black" stroke-width="2" /></g><text font-family="Arial" font-size="14" text-anchor="middle" x="425" y="380">Option 2</text><g transform="translate(350,400)"><rect fill="none" height="29.040000000000006" stroke="black" stroke-width="2" transform="rotate(345,91.15,131.52)" width="36.300000000000004" x="73" y="117" /><circle cx="132" cy="10" fill="none" r="23.650000000000002" stroke="black" stroke-width="2" /><line stroke="black" stroke-width="2" transform="rotate(235,135.1,145.1)" x1="112" x2="158.2" y1="122" y2="168.2" /><rect fill="none" height="30.8" stroke="black" stroke-width="2" transform="rotate(124,149.25,164.4)" width="38.5" x="130" y="149" /><rect fill="none" height="26.400000000000002" stroke="black" stroke-width="2" transform="rotate(344,114.5,73.2)" width="33.0" x="98" y="60" /><rect fill="none" height="44.00000000000001" stroke="black" stroke-width="2" transform="rotate(359,140.5,86.0)" width="55.00000000000001" x="113" y="64" /><rect fill="none" height="37.84" stroke="black" stroke-width="2" transform="rotate(194,78.65,138.92000000000002)" width="47.300000000000004" x="55" y="120" /><circle cx="77" cy="109" fill="none" r="18.150000000000002" stroke="black" stroke-width="2" /></g><text font-family="Arial" font-size="14" text-anchor="middle" x="175" y="630">Option 3</text><g transform="translate(100,650)"><rect fill="none" height="29.040000000000006" stroke="black" stroke-width="2" transform="rotate(347,91.15,131.52)" width="36.300000000000004" x="73" y="117" /><circle cx="132" cy="10" fill="none" r="23.650000000000002" stroke="black" stroke-width="2" /><line stroke="black" stroke-width="2" transform="rotate(234,135.1,145.1)" x1="112" x2="158.2" y1="122" y2="168.2" /><rect fill="none" height="30.8" stroke="black" stroke-width="2" transform="rotate(121,149.25,164.4)" width="38.5" x="130" y="149" /><rect fill="none" height="26.400000000000002" stroke="black" stroke-width="2" transform="rotate(346,114.5,73.2)" width="33.0" x="98" y="60" /><rect fill="none" height="44.00000000000001" stroke="black" stroke-width="2" transform="rotate(356,140.5,86.0)" width="55.00000000000001" x="113" y="64" /><rect fill="none" height="37.84" stroke="black" stroke-width="2" transform="rotate(197,78.65,138.92000000000002)" width="47.300000000000004" x="55" y="120" /><circle cx="77" cy="109" fill="none" r="18.150000000000002" stroke="black" stroke-width="2" /></g><text font-family="Arial" font-size="14" text-anchor="middle" x="425" y="630">Option 4</text><g transform="translate(350,650)"><rect fill="none" height="29.040000000000006" stroke="black" stroke-width="2" transform="rotate(344,91.15,131.52)" width="36.300000000000004" x="73" y="117" /><circle cx="132" cy="10" fill="none" r="23.650000000000002" stroke="black" stroke-width="2" /><line stroke="black" stroke-width="2" transform="rotate(237,135.1,145.1)" x1="112" x2="158.2" y1="122" y2="168.2" /><rect fill="none" height="30.8" stroke="black" stroke-width="2" transform="rotate(121,149.25,164.4)" width="38.5" x="130" y="149" /><rect fill="none" height="26.400000000000002" stroke="black" stroke-width="2" transform="rotate(345,114.5,73.2)" width="33.0" x="98" y="60" /><rect fill="none" height="44.00000000000001" stroke="black" stroke-width="2" transform="rotate(358,140.5,86.0)" width="55.00000000000001" x="113" y="64" /><rect fill="none" height="37.84" stroke="black" stroke-width="2" transform="rotate(193,78.65,138.92000000000002)" width="47.300000000000004" x="55" y="120" /><circle cx="77" cy="109" fill="none" r="18.150000000000002" stroke="black" stroke-width="2" /></g></svg>