<?xml version="1.0" encoding="utf-8" ?>
<svg baseProfile="full" height="1000px" version="1.1" width="600px" xmlns="http://www.w3.org/2000/svg" xmlns:ev="http://www.w3.org/2001/xml-events" xmlns:xlink="http://www.w3.org/1999/xlink"><defs /><rect fill="white" height="100%" width="100%" x="0" y="0" /><text font-family="Arial" font-size="24" text-anchor="middle" x="300" y="40">Visual Discrimination Test</text><text font-family="Arial" font-size="18" text-anchor="middle" x="300" y="80">Target Pattern</text><g transform="translate(200,100)"><polygon fill="none" points="95,171 130,171 112.5,136" stroke="black" stroke-width="2" transform="rotate(263,112.5,153.5)" /><circle cx="33" cy="147" fill="none" r="18.0" stroke="black" stroke-width="2" /><rect fill="none" height="35" stroke="black" stroke-width="2" transform="rotate(234,69.5,146.5)" width="35" x="52" y="129" /><polygon fill="none" points="22,155 71,155 46.5,106" stroke="black" stroke-width="2" transform="rotate(165,46.5,130.5)" /><line stroke="black" stroke-width="2" transform="rotate(209,96.5,39.5)" x1="78" x2="115" y1="21" y2="58" /><polygon fill="none" points="117,143 153,143 135.0,107" stroke="black" stroke-width="2" transform="rotate(346,135.0,125.0)" /><polygon fill="none" points="104,180 149,180 126.5,135" stroke="black" stroke-width="2" transform="rotate(348,126.5,157.5)" /><rect fill="none" height="32" stroke="black" stroke-width="2" transform="rotate(244,52.0,29.0)" width="32" x="36" y="13" /><line stroke="black" stroke-width="2" transform="rotate(270,124.0,98.0)" x1="101" x2="147" y1="75" y2="121" /><polygon fill="none" points="131,171 180,171 155.5,122" stroke="black" stroke-width="2" transform="rotate(234,155.5,146.5)" /></g><text font-family="Arial" font-size="18" text-anchor="middle" x="300" y="350">Options</text><text font-family="Arial" font-size="14" text-anchor="middle" x="175" y="380">Option 1</text><g transform="translate(100,400)"><polygon fill="none" points="95,166.8 123.0,166.8 109.0,136" stroke="black" stroke-width="2" transform="rotate(290,109.0,151.4)" /><circle cx="33" cy="147" fill="none" r="14.4" stroke="black" stroke-width="2" /><rect fill="none" height="30.800000000000004" stroke="black" stroke-width="2" transform="rotate(259,66.0,144.4)" width="28.0" x="52" y="129" /><polygon fill="none" points="22,149.12 61.2,149.12 41.6,106" stroke="black" stroke-width="2" transform="rotate(192,41.6,127.56)" /><line stroke="black" stroke-width="2" transform="rotate(236,92.8,35.8)" x1="78" x2="107.6" y1="21" y2="50.6" /><polygon fill="none" points="117,138.68 145.8,138.68 131.4,107" stroke="black" stroke-width="2" transform="rotate(372,131.4,122.84)" /><polygon fill="none" points="104,174.6 140.0,174.6 122.0,135" stroke="black" stroke-width="2" transform="rotate(375,122.0,154.8)" /><rect fill="none" height="28.160000000000004" stroke="black" stroke-width="2" transform="rotate(270,48.8,27.080000000000002)" width="25.6" x="36" y="13" /><line stroke="black" stroke-width="2" transform="rotate(295,119.4,93.4)" x1="101" x2="137.8" y1="75" y2="111.80000000000001" /><polygon fill="none" points="131,165.12 170.2,165.12 150.6,122" stroke="black" stroke-width="2" transform="rotate(261,150.6,143.56)" /></g><text font-family="Arial" font-size="14" text-anchor="middle" x="425" y="380">Option 2</text><g transform="translate(350,400)"><polygon fill="none" points="95,166.8 123.0,166.8 109.0,136" stroke="black" stroke-width="2" transform="rotate(288,109.0,151.4)" /><circle cx="33" cy="147" fill="none" r="14.4" stroke="black" stroke-width="2" /><rect fill="none" height="30.800000000000004" stroke="black" stroke-width="2" transform="rotate(261,66.0,144.4)" width="28.0" x="52" y="129" /><polygon fill="none" points="22,149.12 61.2,149.12 41.6,106" stroke="black" stroke-width="2" transform="rotate(190,41.6,127.56)" /><line stroke="black" stroke-width="2" transform="rotate(234,92.8,35.8)" x1="78" x2="107.6" y1="21" y2="50.6" /><polygon fill="none" points="117,138.68 145.8,138.68 131.4,107" stroke="black" stroke-width="2" transform="rotate(371,131.4,122.84)" /><polygon fill="none" points="104,174.6 140.0,174.6 122.0,135" stroke="black" stroke-width="2" transform="rotate(374,122.0,154.8)" /><rect fill="none" height="28.160000000000004" stroke="black" stroke-width="2" transform="rotate(270,48.8,27.080000000000002)" width="25.6" x="36" y="13" /><line stroke="black" stroke-width="2" transform="rotate(295,119.4,93.4)" x1="101" x2="137.8" y1="75" y2="111.80000000000001" /><polygon fill="none" points="131,165.12 170.2,165.12 150.6,122" stroke="black" stroke-width="2" transform="rotate(260,150.6,143.56)" /></g><text font-family="Arial" font-size="14" text-anchor="middle" x="175" y="630">Option 3</text><g transform="translate(100,650)"><polygon fill="none" points="95,166.8 123.0,166.8 109.0,136" stroke="black" stroke-width="2" transform="rotate(288,109.0,151.4)" /><circle cx="33" cy="147" fill="none" r="14.4" stroke="black" stroke-width="2" /><rect fill="none" height="30.800000000000004" stroke="black" stroke-width="2" transform="rotate(258,66.0,144.4)" width="28.0" x="52" y="129" /><polygon fill="none" points="22,149.12 61.2,149.12 41.6,106" stroke="black" stroke-width="2" transform="rotate(191,41.6,127.56)" /><line stroke="black" stroke-width="2" transform="rotate(236,92.8,35.8)" x1="78" x2="107.6" y1="21" y2="50.6" /><polygon fill="none" points="117,138.68 145.8,138.68 131.4,107" stroke="black" stroke-width="2" transform="rotate(371,131.4,122.84)" /><polygon fill="none" points="104,174.6 140.0,174.6 122.0,135" stroke="black" stroke-width="2" transform="rotate(371,122.0,154.8)" /><rect fill="none" height="28.160000000000004" stroke="black" stroke-width="2" transform="rotate(270,48.8,27.080000000000002)" width="25.6" x="36" y="13" /><line stroke="black" stroke-width="2" transform="rotate(294,119.4,93.4)" x1="101" x2="137.8" y1="75" y2="111.80000000000001" /><polygon fill="none" points="131,165.12 170.2,165.12 150.6,122" stroke="black" stroke-width="2" transform="rotate(261,150.6,143.56)" /></g><text font-family="Arial" font-size="14" text-anchor="middle" x="425" y="630">Option 4</text><g transform="translate(350,650)"><polygon fill="none" points="95,171 130,171 112.5,136" stroke="black" stroke-width="2" transform="rotate(263,112.5,153.5)" /><circle cx="33" cy="147" fill="none" r="18.0" stroke="black" stroke-width="2" /><rect fill="none" height="35" stroke="black" stroke-width="2" transform="rotate(234,69.5,146.5)" width="35" x="52" y="129" /><polygon fill="none" points="22,155 71,155 46.5,106" stroke="black" stroke-width="2" transform="rotate(165,46.5,130.5)" /><line stroke="black" stroke-width="2" transform="rotate(209,96.5,39.5)" x1="78" x2="115" y1="21" y2="58" /><polygon fill="none" points="117,143 153,143 135.0,107" stroke="black" stroke-width="2" transform="rotate(346,135.0,125.0)" /><polygon fill="none" points="104,180 149,180 126.5,135" stroke="black" stroke-width="2" transform="rotate(348,126.5,157.5)" /><rect fill="none" height="32" stroke="black" stroke-width="2" transform="rotate(244,52.0,29.0)" width="32" x="36" y="13" /><line stroke="black" stroke-width="2" transform="rotate(270,124.0,98.0)" x1="101" x2="147" y1="75" y2="121" /><polygon fill="none" points="131,171 180,171 155.5,122" stroke="black" stroke-width="2" transform="rotate(234,155.5,146.5)" /></g></svg>