<?xml version="1.0" encoding="utf-8" ?>
<svg baseProfile="full" height="1000px" version="1.1" width="600px" xmlns="http://www.w3.org/2000/svg" xmlns:ev="http://www.w3.org/2001/xml-events" xmlns:xlink="http://www.w3.org/1999/xlink"><defs /><rect fill="white" height="100%" width="100%" x="0" y="0" /><text font-family="Arial" font-size="24" text-anchor="middle" x="300" y="40">Visual Discrimination Test</text><text font-family="Arial" font-size="18" text-anchor="middle" x="300" y="80">Target Pattern</text><g transform="translate(200,100)"><circle cx="28" cy="45" fill="none" r="18.0" stroke="black" stroke-width="2" /><line stroke="black" stroke-width="2" transform="rotate(159,166.5,41.5)" x1="145" x2="188" y1="20" y2="63" /><rect fill="none" height="32" stroke="black" stroke-width="2" transform="rotate(356,132.0,153.0)" width="32" x="116" y="137" /></g><text font-family="Arial" font-size="18" text-anchor="middle" x="300" y="350">Options</text><text font-family="Arial" font-size="14" text-anchor="middle" x="175" y="380">Option 1</text><g transform="translate(100,400)"><circle cx="28" cy="45" fill="none" r="14.4" stroke="black" stroke-width="2" /><line stroke="black" stroke-width="2" transform="rotate(185,162.2,37.2)" x1="145" x2="179.4" y1="20" y2="54.4" /><rect fill="none" height="28.160000000000004" stroke="black" stroke-width="2" transform="rotate(383,128.8,151.08)" width="25.6" x="116" y="137" /></g><text font-family="Arial" font-size="14" text-anchor="middle" x="425" y="380">Option 2</text><g transform="translate(350,400)"><circle cx="28" cy="45" fill="none" r="14.4" stroke="black" stroke-width="2" /><line stroke="black" stroke-width="2" transform="rotate(182,162.2,37.2)" x1="145" x2="179.4" y1="20" y2="54.4" /><rect fill="none" height="28.160000000000004" stroke="black" stroke-width="2" transform="rotate(379,128.8,151.08)" width="25.6" x="116" y="137" /></g><text font-family="Arial" font-size="14" text-anchor="middle" x="175" y="630">Option 3</text><g transform="translate(100,650)"><circle cx="28" cy="45" fill="none" r="14.4" stroke="black" stroke-width="2" /><line stroke="black" stroke-width="2" transform="rotate(182,162.2,37.2)" x1="145" x2="179.4" y1="20" y2="54.4" /><rect fill="none" height="28.160000000000004" stroke="black" stroke-width="2" transform="rotate(383,128.8,151.08)" width="25.6" x="116" y="137" /></g><text font-family="Arial" font-size="14" text-anchor="middle" x="425" y="630">Option 4</text><g transform="translate(350,650)"><circle cx="28" cy="45" fill="none" r="18.0" stroke="black" stroke-width="2" /><line stroke="black" stroke-width="2" transform="rotate(159,166.5,41.5)" x1="145" x2="188" y1="20" y2="63" /><rect fill="none" height="32" stroke="black" stroke-width="2" transform="rotate(356,132.0,153.0)" width="32" x="116" y="137" /></g></svg>