<?xml version="1.0" encoding="utf-8" ?>
<svg baseProfile="full" height="1000px" version="1.1" width="600px" xmlns="http://www.w3.org/2000/svg" xmlns:ev="http://www.w3.org/2001/xml-events" xmlns:xlink="http://www.w3.org/1999/xlink"><defs /><rect fill="white" height="100%" width="100%" x="0" y="0" /><text font-family="Arial" font-size="24" text-anchor="middle" x="300" y="40">Visual Discrimination Test</text><text font-family="Arial" font-size="18" text-anchor="middle" x="300" y="80">Target Pattern</text><g transform="translate(200,100)"><polygon fill="none" points="124,178 159,178 141.5,143" stroke="black" stroke-width="2" transform="rotate(242,141.5,160.5)" /><polygon fill="none" points="57,79 101,79 79.0,35" stroke="black" stroke-width="2" transform="rotate(200,79.0,57.0)" /><rect fill="none" height="32" stroke="black" stroke-width="2" transform="rotate(276,136.0,99.0)" width="32" x="120" y="83" /><rect fill="none" height="30" stroke="black" stroke-width="2" transform="rotate(62,87.0,104.0)" width="30" x="72" y="89" /><line stroke="black" stroke-width="2" transform="rotate(17,122.0,135.0)" x1="97" x2="147" y1="110" y2="160" /><circle cx="144" cy="125" fill="none" r="15.0" stroke="black" stroke-width="2" /><rect fill="none" height="44" stroke="black" stroke-width="2" transform="rotate(352,133.0,102.0)" width="44" x="111" y="80" /><rect fill="none" height="34" stroke="black" stroke-width="2" transform="rotate(193,68.0,28.0)" width="34" x="51" y="11" /><polygon fill="none" points="135,146 174,146 154.5,107" stroke="black" stroke-width="2" transform="rotate(102,154.5,126.5)" /><polygon fill="none" points="111,164 145,164 128.0,130" stroke="black" stroke-width="2" transform="rotate(259,128.0,147.0)" /></g><text font-family="Arial" font-size="18" text-anchor="middle" x="300" y="350">Options</text><text font-family="Arial" font-size="14" text-anchor="middle" x="175" y="380">Option 1</text><g transform="translate(100,400)"><polygon fill="none" points="124,173.8 152.0,173.8 138.0,143" stroke="black" stroke-width="2" transform="rotate(268,138.0,158.4)" /><polygon fill="none" points="57,73.72 92.2,73.72 74.6,35" stroke="black" stroke-width="2" transform="rotate(226,74.6,54.36)" /><rect fill="none" height="28.160000000000004" stroke="black" stroke-width="2" transform="rotate(301,132.8,97.08)" width="25.6" x="120" y="83" /><rect fill="none" height="26.400000000000002" stroke="black" stroke-width="2" transform="rotate(89,84.0,102.2)" width="24.0" x="72" y="89" /><line stroke="black" stroke-width="2" transform="rotate(41,117.0,130.0)" x1="97" x2="137.0" y1="110" y2="150.0" /><circle cx="144" cy="125" fill="none" r="12.0" stroke="black" stroke-width="2" /><rect fill="none" height="38.720000000000006" stroke="black" stroke-width="2" transform="rotate(376,128.6,99.36)" width="35.2" x="111" y="80" /><rect fill="none" height="29.920000000000005" stroke="black" stroke-width="2" transform="rotate(218,64.6,25.96)" width="27.200000000000003" x="51" y="11" /><polygon fill="none" points="135,141.32 166.2,141.32 150.6,107" stroke="black" stroke-width="2" transform="rotate(129,150.6,124.16)" /><polygon fill="none" points="111,159.92000000000002 138.2,159.92000000000002 124.6,130" stroke="black" stroke-width="2" transform="rotate(282,124.6,144.96)" /></g><text font-family="Arial" font-size="14" text-anchor="middle" x="425" y="380">Option 2</text><g transform="translate(350,400)"><polygon fill="none" points="124,173.8 152.0,173.8 138.0,143" stroke="black" stroke-width="2" transform="rotate(266,138.0,158.4)" /><polygon fill="none" points="57,73.72 92.2,73.72 74.6,35" stroke="black" stroke-width="2" transform="rotate(224,74.6,54.36)" /><rect fill="none" height="28.160000000000004" stroke="black" stroke-width="2" transform="rotate(301,132.8,97.08)" width="25.6" x="120" y="83" /><rect fill="none" height="26.400000000000002" stroke="black" stroke-width="2" transform="rotate(88,84.0,102.2)" width="24.0" x="72" y="89" /><line stroke="black" stroke-width="2" transform="rotate(41,117.0,130.0)" x1="97" x2="137.0" y1="110" y2="150.0" /><circle cx="144" cy="125" fill="none" r="12.0" stroke="black" stroke-width="2" /><rect fill="none" height="38.720000000000006" stroke="black" stroke-width="2" transform="rotate(377,128.6,99.36)" width="35.2" x="111" y="80" /><rect fill="none" height="29.920000000000005" stroke="black" stroke-width="2" transform="rotate(219,64.6,25.96)" width="27.200000000000003" x="51" y="11" /><polygon fill="none" points="135,141.32 166.2,141.32 150.6,107" stroke="black" stroke-width="2" transform="rotate(129,150.6,124.16)" /><polygon fill="none" points="111,159.92000000000002 138.2,159.92000000000002 124.6,130" stroke="black" stroke-width="2" transform="rotate(282,124.6,144.96)" /></g><text font-family="Arial" font-size="14" text-anchor="middle" x="175" y="630">Option 3</text><g transform="translate(100,650)"><polygon fill="none" points="124,178 159,178 141.5,143" stroke="black" stroke-width="2" transform="rotate(242,141.5,160.5)" /><polygon fill="none" points="57,79 101,79 79.0,35" stroke="black" stroke-width="2" transform="rotate(200,79.0,57.0)" /><rect fill="none" height="32" stroke="black" stroke-width="2" transform="rotate(276,136.0,99.0)" width="32" x="120" y="83" /><rect fill="none" height="30" stroke="black" stroke-width="2" transform="rotate(62,87.0,104.0)" width="30" x="72" y="89" /><line stroke="black" stroke-width="2" transform="rotate(17,122.0,135.0)" x1="97" x2="147" y1="110" y2="160" /><circle cx="144" cy="125" fill="none" r="15.0" stroke="black" stroke-width="2" /><rect fill="none" height="44" stroke="black" stroke-width="2" transform="rotate(352,133.0,102.0)" width="44" x="111" y="80" /><rect fill="none" height="34" stroke="black" stroke-width="2" transform="rotate(193,68.0,28.0)" width="34" x="51" y="11" /><polygon fill="none" points="135,146 174,146 154.5,107" stroke="black" stroke-width="2" transform="rotate(102,154.5,126.5)" /><polygon fill="none" points="111,164 145,164 128.0,130" stroke="black" stroke-width="2" transform="rotate(259,128.0,147.0)" /></g><text font-family="Arial" font-size="14" text-anchor="middle" x="425" y="630">Option 4</text><g transform="translate(350,650)"><polygon fill="none" points="124,173.8 152.0,173.8 138.0,143" stroke="black" stroke-width="2" transform="rotate(265,138.0,158.4)" /><polygon fill="none" points="57,73.72 92.2,73.72 74.6,35" stroke="black" stroke-width="2" transform="rotate(225,74.6,54.36)" /><rect fill="none" height="28.160000000000004" stroke="black" stroke-width="2" transform="rotate(302,132.8,97.08)" width="25.6" x="120" y="83" /><rect fill="none" height="26.400000000000002" stroke="black" stroke-width="2" transform="rotate(85,84.0,102.2)" width="24.0" x="72" y="89" /><line stroke="black" stroke-width="2" transform="rotate(40,117.0,130.0)" x1="97" x2="137.0" y1="110" y2="150.0" /><circle cx="144" cy="125" fill="none" r="12.0" stroke="black" stroke-width="2" /><rect fill="none" height="38.720000000000006" stroke="black" stroke-width="2" transform="rotate(379,128.6,99.36)" width="35.2" x="111" y="80" /><rect fill="none" height="29.920000000000005" stroke="black" stroke-width="2" transform="rotate(218,64.6,25.96)" width="27.200000000000003" x="51" y="11" /><polygon fill="none" points="135,141.32 166.2,141.32 150.6,107" stroke="black" stroke-width="2" transform="rotate(129,150.6,124.16)" /><polygon fill="none" points="111,159.92000000000002 138.2,159.92000000000002 124.6,130" stroke="black" stroke-width="2" transform="rotate(285,124.6,144.96)" /></g></svg>