<?xml version="1.0" encoding="utf-8" ?>
<svg baseProfile="full" height="1000px" version="1.1" width="600px" xmlns="http://www.w3.org/2000/svg" xmlns:ev="http://www.w3.org/2001/xml-events" xmlns:xlink="http://www.w3.org/1999/xlink"><defs /><rect fill="white" height="100%" width="100%" x="0" y="0" /><text font-family="Arial" font-size="24" text-anchor="middle" x="300" y="40">Visual Discrimination Test</text><text font-family="Arial" font-size="18" text-anchor="middle" x="300" y="80">Target Pattern</text><g transform="translate(200,100)"><polygon fill="none" points="46,146 80,146 63.0,112" stroke="black" stroke-width="2" transform="rotate(317,63.0,129.0)" /><rect fill="none" height="35" stroke="black" stroke-width="2" transform="rotate(308,33.5,108.5)" width="35" x="16" y="91" /><circle cx="119" cy="19" fill="none" r="23.5" stroke="black" stroke-width="2" /><rect fill="none" height="38" stroke="black" stroke-width="2" transform="rotate(66,103.0,136.0)" width="38" x="84" y="117" /><rect fill="none" height="48" stroke="black" stroke-width="2" transform="rotate(254,121.0,164.0)" width="48" x="97" y="140" /><circle cx="133" cy="106" fill="none" r="22.5" stroke="black" stroke-width="2" /></g><text font-family="Arial" font-size="18" text-anchor="middle" x="300" y="350">Options</text><text font-family="Arial" font-size="14" text-anchor="middle" x="175" y="380">Option 1</text><g transform="translate(100,400)"><polygon fill="none" points="46,141.92000000000002 73.2,141.92000000000002 59.6,112" stroke="black" stroke-width="2" transform="rotate(343,59.6,126.96000000000001)" /><rect fill="none" height="30.800000000000004" stroke="black" stroke-width="2" transform="rotate(334,30.0,106.4)" width="28.0" x="16" y="91" /><circle cx="119" cy="19" fill="none" r="18.8" stroke="black" stroke-width="2" /><rect fill="none" height="33.440000000000005" stroke="black" stroke-width="2" transform="rotate(92,99.2,133.72)" width="30.400000000000002" x="84" y="117" /><rect fill="none" height="42.24000000000001" stroke="black" stroke-width="2" transform="rotate(280,116.2,161.12)" width="38.400000000000006" x="97" y="140" /><circle cx="133" cy="106" fill="none" r="18.0" stroke="black" stroke-width="2" /></g><text font-family="Arial" font-size="14" text-anchor="middle" x="425" y="380">Option 2</text><g transform="translate(350,400)"><polygon fill="none" points="46,146 80,146 63.0,112" stroke="black" stroke-width="2" transform="rotate(317,63.0,129.0)" /><rect fill="none" height="35" stroke="black" stroke-width="2" transform="rotate(308,33.5,108.5)" width="35" x="16" y="91" /><circle cx="119" cy="19" fill="none" r="23.5" stroke="black" stroke-width="2" /><rect fill="none" height="38" stroke="black" stroke-width="2" transform="rotate(66,103.0,136.0)" width="38" x="84" y="117" /><rect fill="none" height="48" stroke="black" stroke-width="2" transform="rotate(254,121.0,164.0)" width="48" x="97" y="140" /><circle cx="133" cy="106" fill="none" r="22.5" stroke="black" stroke-width="2" /></g><text font-family="Arial" font-size="14" text-anchor="middle" x="175" y="630">Option 3</text><g transform="translate(100,650)"><polygon fill="none" points="46,141.92000000000002 73.2,141.92000000000002 59.6,112" stroke="black" stroke-width="2" transform="rotate(342,59.6,126.96000000000001)" /><rect fill="none" height="30.800000000000004" stroke="black" stroke-width="2" transform="rotate(332,30.0,106.4)" width="28.0" x="16" y="91" /><circle cx="119" cy="19" fill="none" r="18.8" stroke="black" stroke-width="2" /><rect fill="none" height="33.440000000000005" stroke="black" stroke-width="2" transform="rotate(90,99.2,133.72)" width="30.400000000000002" x="84" y="117" /><rect fill="none" height="42.24000000000001" stroke="black" stroke-width="2" transform="rotate(277,116.2,161.12)" width="38.400000000000006" x="97" y="140" /><circle cx="133" cy="106" fill="none" r="18.0" stroke="black" stroke-width="2" /></g><text font-family="Arial" font-size="14" text-anchor="middle" x="425" y="630">Option 4</text><g transform="translate(350,650)"><polygon fill="none" points="46,141.92000000000002 73.2,141.92000000000002 59.6,112" stroke="black" stroke-width="2" transform="rotate(343,59.6,126.96000000000001)" /><rect fill="none" height="30.800000000000004" stroke="black" stroke-width="2" transform="rotate(333,30.0,106.4)" width="28.0" x="16" y="91" /><circle cx="119" cy="19" fill="none" r="18.8" stroke="black" stroke-width="2" /><rect fill="none" height="33.440000000000005" stroke="black" stroke-width="2" transform="rotate(92,99.2,133.72)" width="30.400000000000002" x="84" y="117" /><rect fill="none" height="42.24000000000001" stroke="black" stroke-width="2" transform="rotate(277,116.2,161.12)" width="38.400000000000006" x="97" y="140" /><circle cx="133" cy="106" fill="none" r="18.0" stroke="black" stroke-width="2" /></g></svg>