<?xml version="1.0" encoding="utf-8" ?>
<svg baseProfile="full" height="1000px" version="1.1" width="600px" xmlns="http://www.w3.org/2000/svg" xmlns:ev="http://www.w3.org/2001/xml-events" xmlns:xlink="http://www.w3.org/1999/xlink"><defs /><rect fill="white" height="100%" width="100%" x="0" y="0" /><text font-family="Arial" font-size="24" text-anchor="middle" x="300" y="40">Visual Discrimination Test</text><text font-family="Arial" font-size="18" text-anchor="middle" x="300" y="80">Target Pattern</text><g transform="translate(200,100)"><line stroke="black" stroke-width="2" transform="rotate(350,63.5,32.5)" x1="48" x2="79" y1="17" y2="48" /><circle cx="26" cy="26" fill="none" r="22.5" stroke="black" stroke-width="2" /><circle cx="123" cy="32" fill="none" r="25.0" stroke="black" stroke-width="2" /><polygon fill="none" points="18,89 65,89 41.5,42" stroke="black" stroke-width="2" transform="rotate(21,41.5,65.5)" /><circle cx="79" cy="22" fill="none" r="17.0" stroke="black" stroke-width="2" /><rect fill="none" height="33" stroke="black" stroke-width="2" transform="rotate(215,65.5,34.5)" width="33" x="49" y="18" /><polygon fill="none" points="109,110 139,110 124.0,80" stroke="black" stroke-width="2" transform="rotate(172,124.0,95.0)" /><rect fill="none" height="36" stroke="black" stroke-width="2" transform="rotate(214,68.0,87.0)" width="36" x="50" y="69" /><line stroke="black" stroke-width="2" transform="rotate(330,31.5,120.5)" x1="16" x2="47" y1="105" y2="136" /></g><text font-family="Arial" font-size="18" text-anchor="middle" x="300" y="350">Options</text><text font-family="Arial" font-size="14" text-anchor="middle" x="175" y="380">Option 1</text><g transform="translate(100,400)"><line stroke="black" stroke-width="2" transform="rotate(377,60.4,29.4)" x1="48" x2="72.8" y1="17" y2="41.8" /><circle cx="26" cy="26" fill="none" r="18.0" stroke="black" stroke-width="2" /><circle cx="123" cy="32" fill="none" r="20.0" stroke="black" stroke-width="2" /><polygon fill="none" points="18,83.36000000000001 55.6,83.36000000000001 36.8,42" stroke="black" stroke-width="2" transform="rotate(45,36.8,62.68000000000001)" /><circle cx="79" cy="22" fill="none" r="13.600000000000001" stroke="black" stroke-width="2" /><rect fill="none" height="29.040000000000006" stroke="black" stroke-width="2" transform="rotate(242,62.2,32.52)" width="26.400000000000002" x="49" y="18" /><polygon fill="none" points="109,106.4 133.0,106.4 121.0,80" stroke="black" stroke-width="2" transform="rotate(199,121.0,93.2)" /><rect fill="none" height="31.680000000000003" stroke="black" stroke-width="2" transform="rotate(238,64.4,84.84)" width="28.8" x="50" y="69" /><line stroke="black" stroke-width="2" transform="rotate(357,28.4,117.4)" x1="16" x2="40.8" y1="105" y2="129.8" /></g><text font-family="Arial" font-size="14" text-anchor="middle" x="425" y="380">Option 2</text><g transform="translate(350,400)"><line stroke="black" stroke-width="2" transform="rotate(377,60.4,29.4)" x1="48" x2="72.8" y1="17" y2="41.8" /><circle cx="26" cy="26" fill="none" r="18.0" stroke="black" stroke-width="2" /><circle cx="123" cy="32" fill="none" r="20.0" stroke="black" stroke-width="2" /><polygon fill="none" points="18,83.36000000000001 55.6,83.36000000000001 36.8,42" stroke="black" stroke-width="2" transform="rotate(47,36.8,62.68000000000001)" /><circle cx="79" cy="22" fill="none" r="13.600000000000001" stroke="black" stroke-width="2" /><rect fill="none" height="29.040000000000006" stroke="black" stroke-width="2" transform="rotate(242,62.2,32.52)" width="26.400000000000002" x="49" y="18" /><polygon fill="none" points="109,106.4 133.0,106.4 121.0,80" stroke="black" stroke-width="2" transform="rotate(195,121.0,93.2)" /><rect fill="none" height="31.680000000000003" stroke="black" stroke-width="2" transform="rotate(238,64.4,84.84)" width="28.8" x="50" y="69" /><line stroke="black" stroke-width="2" transform="rotate(353,28.4,117.4)" x1="16" x2="40.8" y1="105" y2="129.8" /></g><text font-family="Arial" font-size="14" text-anchor="middle" x="175" y="630">Option 3</text><g transform="translate(100,650)"><line stroke="black" stroke-width="2" transform="rotate(376,60.4,29.4)" x1="48" x2="72.8" y1="17" y2="41.8" /><circle cx="26" cy="26" fill="none" r="18.0" stroke="black" stroke-width="2" /><circle cx="123" cy="32" fill="none" r="20.0" stroke="black" stroke-width="2" /><polygon fill="none" points="18,83.36000000000001 55.6,83.36000000000001 36.8,42" stroke="black" stroke-width="2" transform="rotate(46,36.8,62.68000000000001)" /><circle cx="79" cy="22" fill="none" r="13.600000000000001" stroke="black" stroke-width="2" /><rect fill="none" height="29.040000000000006" stroke="black" stroke-width="2" transform="rotate(241,62.2,32.52)" width="26.400000000000002" x="49" y="18" /><polygon fill="none" points="109,106.4 133.0,106.4 121.0,80" stroke="black" stroke-width="2" transform="rotate(196,121.0,93.2)" /><rect fill="none" height="31.680000000000003" stroke="black" stroke-width="2" transform="rotate(237,64.4,84.84)" width="28.8" x="50" y="69" /><line stroke="black" stroke-width="2" transform="rotate(357,28.4,117.4)" x1="16" x2="40.8" y1="105" y2="129.8" /></g><text font-family="Arial" font-size="14" text-anchor="middle" x="425" y="630">Option 4</text><g transform="translate(350,650)"><line stroke="black" stroke-width="2" transform="rotate(350,63.5,32.5)" x1="48" x2="79" y1="17" y2="48" /><circle cx="26" cy="26" fill="none" r="22.5" stroke="black" stroke-width="2" /><circle cx="123" cy="32" fill="none" r="25.0" stroke="black" stroke-width="2" /><polygon fill="none" points="18,89 65,89 41.5,42" stroke="black" stroke-width="2" transform="rotate(21,41.5,65.5)" /><circle cx="79" cy="22" fill="none" r="17.0" stroke="black" stroke-width="2" /><rect fill="none" height="33" stroke="black" stroke-width="2" transform="rotate(215,65.5,34.5)" width="33" x="49" y="18" /><polygon fill="none" points="109,110 139,110 124.0,80" stroke="black" stroke-width="2" transform="rotate(172,124.0,95.0)" /><rect fill="none" height="36" stroke="black" stroke-width="2" transform="rotate(214,68.0,87.0)" width="36" x="50" y="69" /><line stroke="black" stroke-width="2" transform="rotate(330,31.5,120.5)" x1="16" x2="47" y1="105" y2="136" /></g></svg>