<?xml version="1.0" encoding="utf-8" ?>
<svg baseProfile="full" height="1000px" version="1.1" width="600px" xmlns="http://www.w3.org/2000/svg" xmlns:ev="http://www.w3.org/2001/xml-events" xmlns:xlink="http://www.w3.org/1999/xlink"><defs /><rect fill="white" height="100%" width="100%" x="0" y="0" /><text font-family="Arial" font-size="24" text-anchor="middle" x="300" y="40">Visual Discrimination Test</text><text font-family="Arial" font-size="18" text-anchor="middle" x="300" y="80">Target Pattern</text><g transform="translate(200,100)"><circle cx="86" cy="117" fill="none" r="22.0" stroke="black" stroke-width="2" /><line stroke="black" stroke-width="2" transform="rotate(309,33.0,121.0)" x1="11" x2="55" y1="99" y2="143" /><polygon fill="none" points="60,105 100,105 80.0,65" stroke="black" stroke-width="2" transform="rotate(118,80.0,85.0)" /><polygon fill="none" points="130,92 176,92 153.0,46" stroke="black" stroke-width="2" transform="rotate(97,153.0,69.0)" /><line stroke="black" stroke-width="2" transform="rotate(242,96.5,117.5)" x1="73" x2="120" y1="94" y2="141" /><rect fill="none" height="35" stroke="black" stroke-width="2" transform="rotate(47,51.5,27.5)" width="35" x="34" y="10" /></g><text font-family="Arial" font-size="18" text-anchor="middle" x="300" y="350">Options</text><text font-family="Arial" font-size="14" text-anchor="middle" x="175" y="380">Option 1</text><g transform="translate(100,400)"><circle cx="86" cy="117" fill="none" r="22.0" stroke="black" stroke-width="2" /><line stroke="black" stroke-width="2" transform="rotate(309,33.0,121.0)" x1="11" x2="55" y1="99" y2="143" /><polygon fill="none" points="60,105 100,105 80.0,65" stroke="black" stroke-width="2" transform="rotate(118,80.0,85.0)" /><polygon fill="none" points="130,92 176,92 153.0,46" stroke="black" stroke-width="2" transform="rotate(97,153.0,69.0)" /><line stroke="black" stroke-width="2" transform="rotate(242,96.5,117.5)" x1="73" x2="120" y1="94" y2="141" /><rect fill="none" height="35" stroke="black" stroke-width="2" transform="rotate(47,51.5,27.5)" width="35" x="34" y="10" /></g><text font-family="Arial" font-size="14" text-anchor="middle" x="425" y="380">Option 2</text><g transform="translate(350,400)"><polygon fill="none" points="86,155.72 121.2,155.72 103.6,117" stroke="black" stroke-width="2" transform="rotate(176,103.6,136.36)" /><polygon fill="none" points="11,137.72 46.2,137.72 28.6,99" stroke="black" stroke-width="2" transform="rotate(336,28.6,118.36)" /><rect fill="none" height="35.2" stroke="black" stroke-width="2" transform="rotate(143,76.0,82.6)" width="32.0" x="60" y="65" /><polygon fill="none" points="130,86.48000000000002 166.8,86.48000000000002 148.4,46" stroke="black" stroke-width="2" transform="rotate(120,148.4,66.24000000000001)" /><polygon fill="none" points="73,135.36 110.6,135.36 91.8,94" stroke="black" stroke-width="2" transform="rotate(267,91.8,114.68)" /><polygon fill="none" points="34,40.800000000000004 62.0,40.800000000000004 48.0,10" stroke="black" stroke-width="2" transform="rotate(74,48.0,25.400000000000002)" /></g><text font-family="Arial" font-size="14" text-anchor="middle" x="175" y="630">Option 3</text><g transform="translate(100,650)"><polygon fill="none" points="86,155.72 121.2,155.72 103.6,117" stroke="black" stroke-width="2" transform="rotate(172,103.6,136.36)" /><rect fill="none" height="38.720000000000006" stroke="black" stroke-width="2" transform="rotate(336,28.6,118.36)" width="35.2" x="11" y="99" /><line stroke="black" stroke-width="2" transform="rotate(143,76.0,81.0)" x1="60" x2="92.0" y1="65" y2="97.0" /><rect fill="none" height="40.48000000000001" stroke="black" stroke-width="2" transform="rotate(120,148.4,66.24000000000001)" width="36.800000000000004" x="130" y="46" /><polygon fill="none" points="73,135.36 110.6,135.36 91.8,94" stroke="black" stroke-width="2" transform="rotate(266,91.8,114.68)" /><line stroke="black" stroke-width="2" transform="rotate(74,48.0,24.0)" x1="34" x2="62.0" y1="10" y2="38.0" /></g><text font-family="Arial" font-size="14" text-anchor="middle" x="425" y="630">Option 4</text><g transform="translate(350,650)"><rect fill="none" height="38.720000000000006" stroke="black" stroke-width="2" transform="rotate(175,103.6,136.36)" width="35.2" x="86" y="117" /><line stroke="black" stroke-width="2" transform="rotate(336,28.6,116.6)" x1="11" x2="46.2" y1="99" y2="134.2" /><polygon fill="none" points="60,100.2 92.0,100.2 76.0,65" stroke="black" stroke-width="2" transform="rotate(144,76.0,82.6)" /><line stroke="black" stroke-width="2" transform="rotate(123,148.4,64.4)" x1="130" x2="166.8" y1="46" y2="82.80000000000001" /><rect fill="none" height="41.36000000000001" stroke="black" stroke-width="2" transform="rotate(268,91.8,114.68)" width="37.6" x="73" y="94" /><polygon fill="none" points="34,40.800000000000004 62.0,40.800000000000004 48.0,10" stroke="black" stroke-width="2" transform="rotate(70,48.0,25.400000000000002)" /></g></svg>