<?xml version="1.0" encoding="utf-8" ?>
<svg baseProfile="full" height="1000px" version="1.1" width="600px" xmlns="http://www.w3.org/2000/svg" xmlns:ev="http://www.w3.org/2001/xml-events" xmlns:xlink="http://www.w3.org/1999/xlink"><defs /><rect fill="white" height="100%" width="100%" x="0" y="0" /><text font-family="Arial" font-size="24" text-anchor="middle" x="300" y="40">Visual Discrimination Test</text><text font-family="Arial" font-size="18" text-anchor="middle" x="300" y="80">Target Pattern</text><g transform="translate(200,100)"><rect fill="none" height="47" stroke="black" stroke-width="2" transform="rotate(301,145.5,173.5)" width="47" x="122" y="150" /><polygon fill="none" points="31,109 68,109 49.5,72" stroke="black" stroke-width="2" transform="rotate(63,49.5,90.5)" /><circle cx="88" cy="104" fill="none" r="15.5" stroke="black" stroke-width="2" /><polygon fill="none" points="90,68 129,68 109.5,29" stroke="black" stroke-width="2" transform="rotate(104,109.5,48.5)" /><polygon fill="none" points="113,121 163,121 138.0,71" stroke="black" stroke-width="2" transform="rotate(289,138.0,96.0)" /><rect fill="none" height="33" stroke="black" stroke-width="2" transform="rotate(101,150.5,41.5)" width="33" x="134" y="25" /><line stroke="black" stroke-width="2" transform="rotate(350,117.5,99.5)" x1="102" x2="133" y1="84" y2="115" /><rect fill="none" height="46" stroke="black" stroke-width="2" transform="rotate(291,134.0,81.0)" width="46" x="111" y="58" /><rect fill="none" height="34" stroke="black" stroke-width="2" transform="rotate(320,44.0,37.0)" width="34" x="27" y="20" /></g><text font-family="Arial" font-size="18" text-anchor="middle" x="300" y="350">Options</text><text font-family="Arial" font-size="14" text-anchor="middle" x="175" y="380">Option 1</text><g transform="translate(100,400)"><line stroke="black" stroke-width="2" transform="rotate(328,140.8,168.8)" x1="122" x2="159.6" y1="150" y2="187.6" /><rect fill="none" height="32.56" stroke="black" stroke-width="2" transform="rotate(86,45.8,88.28)" width="29.6" x="31" y="72" /><polygon fill="none" points="88,131.28 112.8,131.28 100.4,104" stroke="black" stroke-width="2" transform="rotate(362,100.4,117.64)" /><line stroke="black" stroke-width="2" transform="rotate(131,105.6,44.6)" x1="90" x2="121.2" y1="29" y2="60.2" /><polygon fill="none" points="113,115.0 153.0,115.0 133.0,71" stroke="black" stroke-width="2" transform="rotate(312,133.0,93.0)" /><rect fill="none" height="29.040000000000006" stroke="black" stroke-width="2" transform="rotate(127,147.2,39.52)" width="26.400000000000002" x="134" y="25" /><line stroke="black" stroke-width="2" transform="rotate(377,114.4,96.4)" x1="102" x2="126.8" y1="84" y2="108.8" /><line stroke="black" stroke-width="2" transform="rotate(315,129.4,76.4)" x1="111" x2="147.8" y1="58" y2="94.80000000000001" /><rect fill="none" height="29.920000000000005" stroke="black" stroke-width="2" transform="rotate(347,40.6,34.96)" width="27.200000000000003" x="27" y="20" /></g><text font-family="Arial" font-size="14" text-anchor="middle" x="425" y="380">Option 2</text><g transform="translate(350,400)"><rect fill="none" height="47" stroke="black" stroke-width="2" transform="rotate(301,145.5,173.5)" width="47" x="122" y="150" /><polygon fill="none" points="31,109 68,109 49.5,72" stroke="black" stroke-width="2" transform="rotate(63,49.5,90.5)" /><circle cx="88" cy="104" fill="none" r="15.5" stroke="black" stroke-width="2" /><polygon fill="none" points="90,68 129,68 109.5,29" stroke="black" stroke-width="2" transform="rotate(104,109.5,48.5)" /><polygon fill="none" points="113,121 163,121 138.0,71" stroke="black" stroke-width="2" transform="rotate(289,138.0,96.0)" /><rect fill="none" height="33" stroke="black" stroke-width="2" transform="rotate(101,150.5,41.5)" width="33" x="134" y="25" /><line stroke="black" stroke-width="2" transform="rotate(350,117.5,99.5)" x1="102" x2="133" y1="84" y2="115" /><rect fill="none" height="46" stroke="black" stroke-width="2" transform="rotate(291,134.0,81.0)" width="46" x="111" y="58" /><rect fill="none" height="34" stroke="black" stroke-width="2" transform="rotate(320,44.0,37.0)" width="34" x="27" y="20" /></g><text font-family="Arial" font-size="14" text-anchor="middle" x="175" y="630">Option 3</text><g transform="translate(100,650)"><polygon fill="none" points="122,191.36 159.6,191.36 140.8,150" stroke="black" stroke-width="2" transform="rotate(324,140.8,170.68)" /><polygon fill="none" points="31,104.56 60.6,104.56 45.8,72" stroke="black" stroke-width="2" transform="rotate(89,45.8,88.28)" /><rect fill="none" height="27.280000000000005" stroke="black" stroke-width="2" transform="rotate(360,100.4,117.64)" width="24.8" x="88" y="104" /><rect fill="none" height="34.32000000000001" stroke="black" stroke-width="2" transform="rotate(129,105.6,46.160000000000004)" width="31.200000000000003" x="90" y="29" /><polygon fill="none" points="113,115.0 153.0,115.0 133.0,71" stroke="black" stroke-width="2" transform="rotate(312,133.0,93.0)" /><polygon fill="none" points="134,54.040000000000006 160.4,54.040000000000006 147.2,25" stroke="black" stroke-width="2" transform="rotate(128,147.2,39.52)" /><polygon fill="none" points="102,111.28 126.8,111.28 114.4,84" stroke="black" stroke-width="2" transform="rotate(376,114.4,97.64)" /><line stroke="black" stroke-width="2" transform="rotate(316,129.4,76.4)" x1="111" x2="147.8" y1="58" y2="94.80000000000001" /><polygon fill="none" points="27,49.92 54.2,49.92 40.6,20" stroke="black" stroke-width="2" transform="rotate(345,40.6,34.96)" /></g><text font-family="Arial" font-size="14" text-anchor="middle" x="425" y="630">Option 4</text><g transform="translate(350,650)"><polygon fill="none" points="122,191.36 159.6,191.36 140.8,150" stroke="black" stroke-width="2" transform="rotate(324,140.8,170.68)" /><polygon fill="none" points="31,104.56 60.6,104.56 45.8,72" stroke="black" stroke-width="2" transform="rotate(90,45.8,88.28)" /><line stroke="black" stroke-width="2" transform="rotate(360,100.4,116.4)" x1="88" x2="112.8" y1="104" y2="128.8" /><polygon fill="none" points="90,63.32000000000001 121.2,63.32000000000001 105.6,29" stroke="black" stroke-width="2" transform="rotate(128,105.6,46.160000000000004)" /><line stroke="black" stroke-width="2" transform="rotate(315,133.0,91.0)" x1="113" x2="153.0" y1="71" y2="111.0" /><rect fill="none" height="29.040000000000006" stroke="black" stroke-width="2" transform="rotate(128,147.2,39.52)" width="26.400000000000002" x="134" y="25" /><line stroke="black" stroke-width="2" transform="rotate(375,114.4,96.4)" x1="102" x2="126.8" y1="84" y2="108.8" /><rect fill="none" height="40.48000000000001" stroke="black" stroke-width="2" transform="rotate(318,129.4,78.24000000000001)" width="36.800000000000004" x="111" y="58" /><polygon fill="none" points="27,49.92 54.2,49.92 40.6,20" stroke="black" stroke-width="2" transform="rotate(344,40.6,34.96)" /></g></svg>