<?xml version="1.0" encoding="utf-8" ?>
<svg baseProfile="full" height="1000px" version="1.1" width="600px" xmlns="http://www.w3.org/2000/svg" xmlns:ev="http://www.w3.org/2001/xml-events" xmlns:xlink="http://www.w3.org/1999/xlink"><defs /><rect fill="white" height="100%" width="100%" x="0" y="0" /><text font-family="Arial" font-size="24" text-anchor="middle" x="300" y="40">Visual Discrimination Test</text><text font-family="Arial" font-size="18" text-anchor="middle" x="300" y="80">Target Pattern</text><g transform="translate(200,100)"><line stroke="black" stroke-width="2" transform="rotate(275,94.0,36.0)" x1="75" x2="113" y1="17" y2="55" /><circle cx="74" cy="90" fill="none" r="22.5" stroke="black" stroke-width="2" /><polygon fill="none" points="48,94 97,94 72.5,45" stroke="black" stroke-width="2" transform="rotate(218,72.5,69.5)" /><polygon fill="none" points="108,154 149,154 128.5,113" stroke="black" stroke-width="2" transform="rotate(116,128.5,133.5)" /><line stroke="black" stroke-width="2" transform="rotate(312,135.0,93.0)" x1="112" x2="158" y1="70" y2="116" /></g><text font-family="Arial" font-size="18" text-anchor="middle" x="300" y="350">Options</text><text font-family="Arial" font-size="14" text-anchor="middle" x="175" y="380">Option 1</text><g transform="translate(100,400)"><polygon fill="none" points="75,50.440000000000005 105.4,50.440000000000005 90.2,17" stroke="black" stroke-width="2" transform="rotate(302,90.2,33.72)" /><rect fill="none" height="39.6" stroke="black" stroke-width="2" transform="rotate(241,92.0,109.8)" width="36.0" x="74" y="90" /><polygon fill="none" points="48,88.12 87.2,88.12 67.6,45" stroke="black" stroke-width="2" transform="rotate(245,67.6,66.56)" /><rect fill="none" height="36.080000000000005" stroke="black" stroke-width="2" transform="rotate(141,124.4,131.04)" width="32.800000000000004" x="108" y="113" /><polygon fill="none" points="112,110.48000000000002 148.8,110.48000000000002 130.4,70" stroke="black" stroke-width="2" transform="rotate(336,130.4,90.24000000000001)" /></g><text font-family="Arial" font-size="14" text-anchor="middle" x="425" y="380">Option 2</text><g transform="translate(350,400)"><line stroke="black" stroke-width="2" transform="rotate(275,94.0,36.0)" x1="75" x2="113" y1="17" y2="55" /><circle cx="74" cy="90" fill="none" r="22.5" stroke="black" stroke-width="2" /><polygon fill="none" points="48,94 97,94 72.5,45" stroke="black" stroke-width="2" transform="rotate(218,72.5,69.5)" /><polygon fill="none" points="108,154 149,154 128.5,113" stroke="black" stroke-width="2" transform="rotate(116,128.5,133.5)" /><line stroke="black" stroke-width="2" transform="rotate(312,135.0,93.0)" x1="112" x2="158" y1="70" y2="116" /></g><text font-family="Arial" font-size="14" text-anchor="middle" x="175" y="630">Option 3</text><g transform="translate(100,650)"><rect fill="none" height="33.440000000000005" stroke="black" stroke-width="2" transform="rotate(301,90.2,33.72)" width="30.400000000000002" x="75" y="17" /><rect fill="none" height="39.6" stroke="black" stroke-width="2" transform="rotate(240,92.0,109.8)" width="36.0" x="74" y="90" /><rect fill="none" height="43.120000000000005" stroke="black" stroke-width="2" transform="rotate(242,67.6,66.56)" width="39.2" x="48" y="45" /><line stroke="black" stroke-width="2" transform="rotate(139,124.4,129.4)" x1="108" x2="140.8" y1="113" y2="145.8" /><line stroke="black" stroke-width="2" transform="rotate(338,130.4,88.4)" x1="112" x2="148.8" y1="70" y2="106.80000000000001" /></g><text font-family="Arial" font-size="14" text-anchor="middle" x="425" y="630">Option 4</text><g transform="translate(350,650)"><line stroke="black" stroke-width="2" transform="rotate(298,90.2,32.2)" x1="75" x2="105.4" y1="17" y2="47.400000000000006" /><rect fill="none" height="39.6" stroke="black" stroke-width="2" transform="rotate(238,92.0,109.8)" width="36.0" x="74" y="90" /><line stroke="black" stroke-width="2" transform="rotate(243,67.6,64.6)" x1="48" x2="87.2" y1="45" y2="84.2" /><rect fill="none" height="36.080000000000005" stroke="black" stroke-width="2" transform="rotate(142,124.4,131.04)" width="32.800000000000004" x="108" y="113" /><line stroke="black" stroke-width="2" transform="rotate(338,130.4,88.4)" x1="112" x2="148.8" y1="70" y2="106.80000000000001" /></g></svg>