<?xml version="1.0" encoding="utf-8" ?>
<svg baseProfile="full" height="1000px" version="1.1" width="600px" xmlns="http://www.w3.org/2000/svg" xmlns:ev="http://www.w3.org/2001/xml-events" xmlns:xlink="http://www.w3.org/1999/xlink"><defs /><rect fill="white" height="100%" width="100%" x="0" y="0" /><text font-family="Arial" font-size="24" text-anchor="middle" x="300" y="40">Visual Discrimination Test</text><text font-family="Arial" font-size="18" text-anchor="middle" x="300" y="80">Target Pattern</text><g transform="translate(200,100)"><line stroke="black" stroke-width="2" transform="rotate(356,56.5,117.5)" x1="34" x2="79" y1="95" y2="140" /><line stroke="black" stroke-width="2" transform="rotate(32,95.5,48.5)" x1="78" x2="113" y1="31" y2="66" /><circle cx="55" cy="77" fill="none" r="18.0" stroke="black" stroke-width="2" /><rect fill="none" height="42" stroke="black" stroke-width="2" transform="rotate(304,146.0,95.0)" width="42" x="125" y="74" /><rect fill="none" height="50" stroke="black" stroke-width="2" transform="rotate(115,35.0,141.0)" width="50" x="10" y="116" /><line stroke="black" stroke-width="2" transform="rotate(10,154.0,30.0)" x1="138" x2="170" y1="14" y2="46" /></g><text font-family="Arial" font-size="18" text-anchor="middle" x="300" y="350">Options</text><text font-family="Arial" font-size="14" text-anchor="middle" x="175" y="380">Option 1</text><g transform="translate(100,400)"><line stroke="black" stroke-width="2" transform="rotate(381,52.0,113.0)" x1="34" x2="70.0" y1="95" y2="131.0" /><rect fill="none" height="30.800000000000004" stroke="black" stroke-width="2" transform="rotate(57,92.0,46.400000000000006)" width="28.0" x="78" y="31" /><rect fill="none" height="31.680000000000003" stroke="black" stroke-width="2" transform="rotate(299,69.4,92.84)" width="28.8" x="55" y="77" /><polygon fill="none" points="125,110.96000000000001 158.6,110.96000000000001 141.8,74" stroke="black" stroke-width="2" transform="rotate(328,141.8,92.48)" /><rect fill="none" height="44.0" stroke="black" stroke-width="2" transform="rotate(140,30.0,138.0)" width="40.0" x="10" y="116" /><rect fill="none" height="28.160000000000004" stroke="black" stroke-width="2" transform="rotate(34,150.8,28.080000000000002)" width="25.6" x="138" y="14" /></g><text font-family="Arial" font-size="14" text-anchor="middle" x="425" y="380">Option 2</text><g transform="translate(350,400)"><line stroke="black" stroke-width="2" transform="rotate(356,56.5,117.5)" x1="34" x2="79" y1="95" y2="140" /><line stroke="black" stroke-width="2" transform="rotate(32,95.5,48.5)" x1="78" x2="113" y1="31" y2="66" /><circle cx="55" cy="77" fill="none" r="18.0" stroke="black" stroke-width="2" /><rect fill="none" height="42" stroke="black" stroke-width="2" transform="rotate(304,146.0,95.0)" width="42" x="125" y="74" /><rect fill="none" height="50" stroke="black" stroke-width="2" transform="rotate(115,35.0,141.0)" width="50" x="10" y="116" /><line stroke="black" stroke-width="2" transform="rotate(10,154.0,30.0)" x1="138" x2="170" y1="14" y2="46" /></g><text font-family="Arial" font-size="14" text-anchor="middle" x="175" y="630">Option 3</text><g transform="translate(100,650)"><line stroke="black" stroke-width="2" transform="rotate(379,52.0,113.0)" x1="34" x2="70.0" y1="95" y2="131.0" /><polygon fill="none" points="78,61.800000000000004 106.0,61.800000000000004 92.0,31" stroke="black" stroke-width="2" transform="rotate(58,92.0,46.400000000000006)" /><polygon fill="none" points="55,108.68 83.8,108.68 69.4,77" stroke="black" stroke-width="2" transform="rotate(298,69.4,92.84)" /><line stroke="black" stroke-width="2" transform="rotate(328,141.8,90.8)" x1="125" x2="158.6" y1="74" y2="107.6" /><rect fill="none" height="44.0" stroke="black" stroke-width="2" transform="rotate(141,30.0,138.0)" width="40.0" x="10" y="116" /><line stroke="black" stroke-width="2" transform="rotate(33,150.8,26.8)" x1="138" x2="163.6" y1="14" y2="39.6" /></g><text font-family="Arial" font-size="14" text-anchor="middle" x="425" y="630">Option 4</text><g transform="translate(350,650)"><line stroke="black" stroke-width="2" transform="rotate(383,52.0,113.0)" x1="34" x2="70.0" y1="95" y2="131.0" /><rect fill="none" height="30.800000000000004" stroke="black" stroke-width="2" transform="rotate(59,92.0,46.400000000000006)" width="28.0" x="78" y="31" /><line stroke="black" stroke-width="2" transform="rotate(298,69.4,91.4)" x1="55" x2="83.8" y1="77" y2="105.8" /><rect fill="none" height="36.96000000000001" stroke="black" stroke-width="2" transform="rotate(330,141.8,92.48)" width="33.6" x="125" y="74" /><rect fill="none" height="44.0" stroke="black" stroke-width="2" transform="rotate(140,30.0,138.0)" width="40.0" x="10" y="116" /><polygon fill="none" points="138,42.160000000000004 163.6,42.160000000000004 150.8,14" stroke="black" stroke-width="2" transform="rotate(37,150.8,28.080000000000002)" /></g></svg>