<?xml version="1.0" encoding="utf-8" ?>
<svg baseProfile="full" height="1000px" version="1.1" width="600px" xmlns="http://www.w3.org/2000/svg" xmlns:ev="http://www.w3.org/2001/xml-events" xmlns:xlink="http://www.w3.org/1999/xlink"><defs /><rect fill="white" height="100%" width="100%" x="0" y="0" /><text font-family="Arial" font-size="24" text-anchor="middle" x="300" y="40">Visual Discrimination Test</text><text font-family="Arial" font-size="18" text-anchor="middle" x="300" y="80">Target Pattern</text><g transform="translate(200,100)"><polygon fill="none" points="85,137 132,137 108.5,90" stroke="black" stroke-width="2" transform="rotate(250,108.5,113.5)" /><polygon fill="none" points="81,121 111,121 96.0,91" stroke="black" stroke-width="2" transform="rotate(298,96.0,106.0)" /><rect fill="none" height="40" stroke="black" stroke-width="2" transform="rotate(180,86.0,125.0)" width="40" x="66" y="105" /><circle cx="111" cy="100" fill="none" r="19.0" stroke="black" stroke-width="2" /><circle cx="36" cy="13" fill="none" r="18.0" stroke="black" stroke-width="2" /></g><text font-family="Arial" font-size="18" text-anchor="middle" x="300" y="350">Options</text><text font-family="Arial" font-size="14" text-anchor="middle" x="175" y="380">Option 1</text><g transform="translate(100,400)"><line stroke="black" stroke-width="2" transform="rotate(275,103.8,108.8)" x1="85" x2="122.6" y1="90" y2="127.6" /><line stroke="black" stroke-width="2" transform="rotate(321,93.0,103.0)" x1="81" x2="105.0" y1="91" y2="115.0" /><rect fill="none" height="35.2" stroke="black" stroke-width="2" transform="rotate(205,82.0,122.6)" width="32.0" x="66" y="105" /><polygon fill="none" points="111,133.44 141.4,133.44 126.2,100" stroke="black" stroke-width="2" transform="rotate(140,126.2,116.72)" /><line stroke="black" stroke-width="2" transform="rotate(196,50.4,27.4)" x1="36" x2="64.8" y1="13" y2="41.8" /></g><text font-family="Arial" font-size="14" text-anchor="middle" x="425" y="380">Option 2</text><g transform="translate(350,400)"><polygon fill="none" points="85,137 132,137 108.5,90" stroke="black" stroke-width="2" transform="rotate(250,108.5,113.5)" /><polygon fill="none" points="81,121 111,121 96.0,91" stroke="black" stroke-width="2" transform="rotate(298,96.0,106.0)" /><rect fill="none" height="40" stroke="black" stroke-width="2" transform="rotate(180,86.0,125.0)" width="40" x="66" y="105" /><circle cx="111" cy="100" fill="none" r="19.0" stroke="black" stroke-width="2" /><circle cx="36" cy="13" fill="none" r="18.0" stroke="black" stroke-width="2" /></g><text font-family="Arial" font-size="14" text-anchor="middle" x="175" y="630">Option 3</text><g transform="translate(100,650)"><line stroke="black" stroke-width="2" transform="rotate(276,103.8,108.8)" x1="85" x2="122.6" y1="90" y2="127.6" /><polygon fill="none" points="81,117.4 105.0,117.4 93.0,91" stroke="black" stroke-width="2" transform="rotate(324,93.0,104.2)" /><line stroke="black" stroke-width="2" transform="rotate(203,82.0,121.0)" x1="66" x2="98.0" y1="105" y2="137.0" /><line stroke="black" stroke-width="2" transform="rotate(140,126.2,115.2)" x1="111" x2="141.4" y1="100" y2="130.4" /><line stroke="black" stroke-width="2" transform="rotate(195,50.4,27.4)" x1="36" x2="64.8" y1="13" y2="41.8" /></g><text font-family="Arial" font-size="14" text-anchor="middle" x="425" y="630">Option 4</text><g transform="translate(350,650)"><line stroke="black" stroke-width="2" transform="rotate(273,103.8,108.8)" x1="85" x2="122.6" y1="90" y2="127.6" /><line stroke="black" stroke-width="2" transform="rotate(323,93.0,103.0)" x1="81" x2="105.0" y1="91" y2="115.0" /><rect fill="none" height="35.2" stroke="black" stroke-width="2" transform="rotate(204,82.0,122.6)" width="32.0" x="66" y="105" /><rect fill="none" height="33.440000000000005" stroke="black" stroke-width="2" transform="rotate(139,126.2,116.72)" width="30.400000000000002" x="111" y="100" /><line stroke="black" stroke-width="2" transform="rotate(197,50.4,27.4)" x1="36" x2="64.8" y1="13" y2="41.8" /></g></svg>