<?xml version="1.0" encoding="utf-8" ?>
<svg baseProfile="full" height="1000px" version="1.1" width="600px" xmlns="http://www.w3.org/2000/svg" xmlns:ev="http://www.w3.org/2001/xml-events" xmlns:xlink="http://www.w3.org/1999/xlink"><defs /><rect fill="white" height="100%" width="100%" x="0" y="0" /><text font-family="Arial" font-size="24" text-anchor="middle" x="300" y="40">Visual Discrimination Test</text><text font-family="Arial" font-size="18" text-anchor="middle" x="300" y="80">Target Pattern</text><g transform="translate(200,100)"><line stroke="black" stroke-width="2" transform="rotate(353,65.5,52.5)" x1="43" x2="88" y1="30" y2="75" /><rect fill="none" height="32" stroke="black" stroke-width="2" transform="rotate(346,163.0,159.0)" width="32" x="147" y="143" /><polygon fill="none" points="80,151 111,151 95.5,120" stroke="black" stroke-width="2" transform="rotate(210,95.5,135.5)" /><circle cx="39" cy="117" fill="none" r="16.0" stroke="black" stroke-width="2" /><line stroke="black" stroke-width="2" transform="rotate(202,35.5,49.5)" x1="20" x2="51" y1="34" y2="65" /><rect fill="none" height="35" stroke="black" stroke-width="2" transform="rotate(72,65.5,109.5)" width="35" x="48" y="92" /></g><text font-family="Arial" font-size="18" text-anchor="middle" x="300" y="350">Options</text><text font-family="Arial" font-size="14" text-anchor="middle" x="175" y="380">Option 1</text><g transform="translate(100,400)"><line stroke="black" stroke-width="2" transform="rotate(356,67.75,54.75)" x1="43" x2="92.5" y1="30" y2="79.5" /><rect fill="none" height="28.160000000000004" stroke="black" stroke-width="2" transform="rotate(349,164.6,157.08)" width="35.2" x="147" y="143" /><polygon fill="none" points="80,147.28 114.1,147.28 97.05,120" stroke="black" stroke-width="2" transform="rotate(213,97.05,133.64)" /><circle cx="39" cy="117" fill="none" r="17.6" stroke="black" stroke-width="2" /><line stroke="black" stroke-width="2" transform="rotate(207,37.05,51.05)" x1="20" x2="54.1" y1="34" y2="68.1" /><rect fill="none" height="30.8" stroke="black" stroke-width="2" transform="rotate(79,67.25,107.4)" width="38.5" x="48" y="92" /></g><text font-family="Arial" font-size="14" text-anchor="middle" x="425" y="380">Option 2</text><g transform="translate(350,400)"><line stroke="black" stroke-width="2" transform="rotate(353,65.5,52.5)" x1="43" x2="88" y1="30" y2="75" /><rect fill="none" height="32" stroke="black" stroke-width="2" transform="rotate(346,163.0,159.0)" width="32" x="147" y="143" /><polygon fill="none" points="80,151 111,151 95.5,120" stroke="black" stroke-width="2" transform="rotate(210,95.5,135.5)" /><circle cx="39" cy="117" fill="none" r="16.0" stroke="black" stroke-width="2" /><line stroke="black" stroke-width="2" transform="rotate(202,35.5,49.5)" x1="20" x2="51" y1="34" y2="65" /><rect fill="none" height="35" stroke="black" stroke-width="2" transform="rotate(72,65.5,109.5)" width="35" x="48" y="92" /></g><text font-family="Arial" font-size="14" text-anchor="middle" x="175" y="630">Option 3</text><g transform="translate(100,650)"><line stroke="black" stroke-width="2" transform="rotate(360,67.75,54.75)" x1="43" x2="92.5" y1="30" y2="79.5" /><rect fill="none" height="28.160000000000004" stroke="black" stroke-width="2" transform="rotate(351,164.6,157.08)" width="35.2" x="147" y="143" /><polygon fill="none" points="80,147.28 114.1,147.28 97.05,120" stroke="black" stroke-width="2" transform="rotate(215,97.05,133.64)" /><circle cx="39" cy="117" fill="none" r="17.6" stroke="black" stroke-width="2" /><line stroke="black" stroke-width="2" transform="rotate(205,37.05,51.05)" x1="20" x2="54.1" y1="34" y2="68.1" /><rect fill="none" height="30.8" stroke="black" stroke-width="2" transform="rotate(77,67.25,107.4)" width="38.5" x="48" y="92" /></g><text font-family="Arial" font-size="14" text-anchor="middle" x="425" y="630">Option 4</text><g transform="translate(350,650)"><line stroke="black" stroke-width="2" transform="rotate(358,67.75,54.75)" x1="43" x2="92.5" y1="30" y2="79.5" /><rect fill="none" height="28.160000000000004" stroke="black" stroke-width="2" transform="rotate(352,164.6,157.08)" width="35.2" x="147" y="143" /><polygon fill="none" points="80,147.28 114.1,147.28 97.05,120" stroke="black" stroke-width="2" transform="rotate(215,97.05,133.64)" /><circle cx="39" cy="117" fill="none" r="17.6" stroke="black" stroke-width="2" /><line stroke="black" stroke-width="2" transform="rotate(207,37.05,51.05)" x1="20" x2="54.1" y1="34" y2="68.1" /><rect fill="none" height="30.8" stroke="black" stroke-width="2" transform="rotate(77,67.25,107.4)" width="38.5" x="48" y="92" /></g></svg>