<?xml version="1.0" encoding="utf-8" ?>
<svg baseProfile="full" height="1000px" version="1.1" width="600px" xmlns="http://www.w3.org/2000/svg" xmlns:ev="http://www.w3.org/2001/xml-events" xmlns:xlink="http://www.w3.org/1999/xlink"><defs /><rect fill="white" height="100%" width="100%" x="0" y="0" /><text font-family="Arial" font-size="24" text-anchor="middle" x="300" y="40">Visual Discrimination Test</text><text font-family="Arial" font-size="18" text-anchor="middle" x="300" y="80">Target Pattern</text><g transform="translate(200,100)"><line stroke="black" stroke-width="2" transform="rotate(97,155.5,76.5)" x1="136" x2="175" y1="57" y2="96" /><line stroke="black" stroke-width="2" transform="rotate(58,112.5,60.5)" x1="95" x2="130" y1="43" y2="78" /><line stroke="black" stroke-width="2" transform="rotate(241,111.0,98.0)" x1="94" x2="128" y1="81" y2="115" /><line stroke="black" stroke-width="2" transform="rotate(115,32.5,108.5)" x1="14" x2="51" y1="90" y2="127" /><circle cx="110" cy="78" fill="none" r="19.5" stroke="black" stroke-width="2" /><rect fill="none" height="31" stroke="black" stroke-width="2" transform="rotate(113,57.5,127.5)" width="31" x="42" y="112" /></g><text font-family="Arial" font-size="18" text-anchor="middle" x="300" y="350">Options</text><text font-family="Arial" font-size="14" text-anchor="middle" x="175" y="380">Option 1</text><g transform="translate(100,400)"><line stroke="black" stroke-width="2" transform="rotate(124,157.45,78.45)" x1="136" x2="178.9" y1="57" y2="99.9" /><line stroke="black" stroke-width="2" transform="rotate(83,114.25,62.25)" x1="95" x2="133.5" y1="43" y2="81.5" /><line stroke="black" stroke-width="2" transform="rotate(266,112.7,99.7)" x1="94" x2="131.4" y1="81" y2="118.4" /><line stroke="black" stroke-width="2" transform="rotate(142,34.35,110.35)" x1="14" x2="54.7" y1="90" y2="130.7" /><circle cx="110" cy="78" fill="none" r="21.450000000000003" stroke="black" stroke-width="2" /><rect fill="none" height="37.510000000000005" stroke="black" stroke-width="2" transform="rotate(140,59.05,130.755)" width="34.1" x="42" y="112" /></g><text font-family="Arial" font-size="14" text-anchor="middle" x="425" y="380">Option 2</text><g transform="translate(350,400)"><line stroke="black" stroke-width="2" transform="rotate(120,157.45,78.45)" x1="136" x2="178.9" y1="57" y2="99.9" /><line stroke="black" stroke-width="2" transform="rotate(82,114.25,62.25)" x1="95" x2="133.5" y1="43" y2="81.5" /><line stroke="black" stroke-width="2" transform="rotate(266,112.7,99.7)" x1="94" x2="131.4" y1="81" y2="118.4" /><line stroke="black" stroke-width="2" transform="rotate(142,34.35,110.35)" x1="14" x2="54.7" y1="90" y2="130.7" /><circle cx="110" cy="78" fill="none" r="21.450000000000003" stroke="black" stroke-width="2" /><rect fill="none" height="37.510000000000005" stroke="black" stroke-width="2" transform="rotate(136,59.05,130.755)" width="34.1" x="42" y="112" /></g><text font-family="Arial" font-size="14" text-anchor="middle" x="175" y="630">Option 3</text><g transform="translate(100,650)"><line stroke="black" stroke-width="2" transform="rotate(122,157.45,78.45)" x1="136" x2="178.9" y1="57" y2="99.9" /><line stroke="black" stroke-width="2" transform="rotate(81,114.25,62.25)" x1="95" x2="133.5" y1="43" y2="81.5" /><line stroke="black" stroke-width="2" transform="rotate(265,112.7,99.7)" x1="94" x2="131.4" y1="81" y2="118.4" /><line stroke="black" stroke-width="2" transform="rotate(141,34.35,110.35)" x1="14" x2="54.7" y1="90" y2="130.7" /><circle cx="110" cy="78" fill="none" r="21.450000000000003" stroke="black" stroke-width="2" /><rect fill="none" height="37.510000000000005" stroke="black" stroke-width="2" transform="rotate(140,59.05,130.755)" width="34.1" x="42" y="112" /></g><text font-family="Arial" font-size="14" text-anchor="middle" x="425" y="630">Option 4</text><g transform="translate(350,650)"><line stroke="black" stroke-width="2" transform="rotate(97,155.5,76.5)" x1="136" x2="175" y1="57" y2="96" /><line stroke="black" stroke-width="2" transform="rotate(58,112.5,60.5)" x1="95" x2="130" y1="43" y2="78" /><line stroke="black" stroke-width="2" transform="rotate(241,111.0,98.0)" x1="94" x2="128" y1="81" y2="115" /><line stroke="black" stroke-width="2" transform="rotate(115,32.5,108.5)" x1="14" x2="51" y1="90" y2="127" /><circle cx="110" cy="78" fill="none" r="19.5" stroke="black" stroke-width="2" /><rect fill="none" height="31" stroke="black" stroke-width="2" transform="rotate(113,57.5,127.5)" width="31" x="42" y="112" /></g></svg>