<?xml version="1.0" encoding="utf-8" ?>
<svg baseProfile="full" height="1000px" version="1.1" width="600px" xmlns="http://www.w3.org/2000/svg" xmlns:ev="http://www.w3.org/2001/xml-events" xmlns:xlink="http://www.w3.org/1999/xlink"><defs /><rect fill="white" height="100%" width="100%" x="0" y="0" /><text font-family="Arial" font-size="24" text-anchor="middle" x="300" y="40">Visual Discrimination Test</text><text font-family="Arial" font-size="18" text-anchor="middle" x="300" y="80">Target Pattern</text><g transform="translate(200,100)"><circle cx="150" cy="30" fill="none" r="20.5" stroke="black" stroke-width="2" /><polygon fill="none" points="15,158 56,158 35.5,117" stroke="black" stroke-width="2" transform="rotate(74,35.5,137.5)" /><polygon fill="none" points="17,129 57,129 37.0,89" stroke="black" stroke-width="2" transform="rotate(151,37.0,109.0)" /><polygon fill="none" points="57,99 100,99 78.5,56" stroke="black" stroke-width="2" transform="rotate(168,78.5,77.5)" /></g><text font-family="Arial" font-size="18" text-anchor="middle" x="300" y="350">Options</text><text font-family="Arial" font-size="14" text-anchor="middle" x="175" y="380">Option 1</text><g transform="translate(100,400)"><circle cx="150" cy="30" fill="none" r="22.55" stroke="black" stroke-width="2" /><polygon fill="none" points="15,166.61 60.1,166.61 37.55,117" stroke="black" stroke-width="2" transform="rotate(100,37.55,141.805)" /><polygon fill="none" points="17,137.4 61.0,137.4 39.0,89" stroke="black" stroke-width="2" transform="rotate(175,39.0,113.2)" /><polygon fill="none" points="57,108.03 104.30000000000001,108.03 80.65,56" stroke="black" stroke-width="2" transform="rotate(194,80.65,82.015)" /></g><text font-family="Arial" font-size="14" text-anchor="middle" x="425" y="380">Option 2</text><g transform="translate(350,400)"><circle cx="150" cy="30" fill="none" r="22.55" stroke="black" stroke-width="2" /><polygon fill="none" points="15,166.61 60.1,166.61 37.55,117" stroke="black" stroke-width="2" transform="rotate(101,37.55,141.805)" /><polygon fill="none" points="17,137.4 61.0,137.4 39.0,89" stroke="black" stroke-width="2" transform="rotate(175,39.0,113.2)" /><polygon fill="none" points="57,108.03 104.30000000000001,108.03 80.65,56" stroke="black" stroke-width="2" transform="rotate(193,80.65,82.015)" /></g><text font-family="Arial" font-size="14" text-anchor="middle" x="175" y="630">Option 3</text><g transform="translate(100,650)"><circle cx="150" cy="30" fill="none" r="22.55" stroke="black" stroke-width="2" /><polygon fill="none" points="15,166.61 60.1,166.61 37.55,117" stroke="black" stroke-width="2" transform="rotate(100,37.55,141.805)" /><polygon fill="none" points="17,137.4 61.0,137.4 39.0,89" stroke="black" stroke-width="2" transform="rotate(174,39.0,113.2)" /><polygon fill="none" points="57,108.03 104.30000000000001,108.03 80.65,56" stroke="black" stroke-width="2" transform="rotate(195,80.65,82.015)" /></g><text font-family="Arial" font-size="14" text-anchor="middle" x="425" y="630">Option 4</text><g transform="translate(350,650)"><circle cx="150" cy="30" fill="none" r="20.5" stroke="black" stroke-width="2" /><polygon fill="none" points="15,158 56,158 35.5,117" stroke="black" stroke-width="2" transform="rotate(74,35.5,137.5)" /><polygon fill="none" points="17,129 57,129 37.0,89" stroke="black" stroke-width="2" transform="rotate(151,37.0,109.0)" /><polygon fill="none" points="57,99 100,99 78.5,56" stroke="black" stroke-width="2" transform="rotate(168,78.5,77.5)" /></g></svg>