<?xml version="1.0" encoding="utf-8" ?>
<svg baseProfile="full" height="1000px" version="1.1" width="600px" xmlns="http://www.w3.org/2000/svg" xmlns:ev="http://www.w3.org/2001/xml-events" xmlns:xlink="http://www.w3.org/1999/xlink"><defs /><rect fill="white" height="100%" width="100%" x="0" y="0" /><text font-family="Arial" font-size="24" text-anchor="middle" x="300" y="40">Visual Discrimination Test</text><text font-family="Arial" font-size="18" text-anchor="middle" x="300" y="80">Target Pattern</text><g transform="translate(200,100)"><polygon fill="none" points="79,54 118,54 98.5,15" stroke="black" stroke-width="2" transform="rotate(36,98.5,34.5)" /><rect fill="none" height="47" stroke="black" stroke-width="2" transform="rotate(258,133.5,47.5)" width="47" x="110" y="24" /><line stroke="black" stroke-width="2" transform="rotate(196,151.0,166.0)" x1="132" x2="170" y1="147" y2="185" /><circle cx="139" cy="150" fill="none" r="22.5" stroke="black" stroke-width="2" /><polygon fill="none" points="115,172 158,172 136.5,129" stroke="black" stroke-width="2" transform="rotate(58,136.5,150.5)" /><circle cx="79" cy="94" fill="none" r="15.0" stroke="black" stroke-width="2" /><line stroke="black" stroke-width="2" transform="rotate(246,76.5,102.5)" x1="59" x2="94" y1="85" y2="120" /></g><text font-family="Arial" font-size="18" text-anchor="middle" x="300" y="350">Options</text><text font-family="Arial" font-size="14" text-anchor="middle" x="175" y="380">Option 1</text><g transform="translate(100,400)"><polygon fill="none" points="79,62.19000000000001 121.9,62.19000000000001 100.45,15" stroke="black" stroke-width="2" transform="rotate(59,100.45,38.595000000000006)" /><rect fill="none" height="56.870000000000005" stroke="black" stroke-width="2" transform="rotate(284,135.85,52.435)" width="51.7" x="110" y="24" /><line stroke="black" stroke-width="2" transform="rotate(223,152.9,167.9)" x1="132" x2="173.8" y1="147" y2="188.8" /><circle cx="139" cy="150" fill="none" r="24.750000000000004" stroke="black" stroke-width="2" /><polygon fill="none" points="115,181.03 162.3,181.03 138.65,129" stroke="black" stroke-width="2" transform="rotate(85,138.65,155.01500000000001)" /><circle cx="79" cy="94" fill="none" r="16.5" stroke="black" stroke-width="2" /><line stroke="black" stroke-width="2" transform="rotate(271,78.25,104.25)" x1="59" x2="97.5" y1="85" y2="123.5" /></g><text font-family="Arial" font-size="14" text-anchor="middle" x="425" y="380">Option 2</text><g transform="translate(350,400)"><polygon fill="none" points="79,62.19000000000001 121.9,62.19000000000001 100.45,15" stroke="black" stroke-width="2" transform="rotate(60,100.45,38.595000000000006)" /><rect fill="none" height="56.870000000000005" stroke="black" stroke-width="2" transform="rotate(282,135.85,52.435)" width="51.7" x="110" y="24" /><line stroke="black" stroke-width="2" transform="rotate(222,152.9,167.9)" x1="132" x2="173.8" y1="147" y2="188.8" /><circle cx="139" cy="150" fill="none" r="24.750000000000004" stroke="black" stroke-width="2" /><polygon fill="none" points="115,181.03 162.3,181.03 138.65,129" stroke="black" stroke-width="2" transform="rotate(84,138.65,155.01500000000001)" /><circle cx="79" cy="94" fill="none" r="16.5" stroke="black" stroke-width="2" /><line stroke="black" stroke-width="2" transform="rotate(273,78.25,104.25)" x1="59" x2="97.5" y1="85" y2="123.5" /></g><text font-family="Arial" font-size="14" text-anchor="middle" x="175" y="630">Option 3</text><g transform="translate(100,650)"><polygon fill="none" points="79,54 118,54 98.5,15" stroke="black" stroke-width="2" transform="rotate(36,98.5,34.5)" /><rect fill="none" height="47" stroke="black" stroke-width="2" transform="rotate(258,133.5,47.5)" width="47" x="110" y="24" /><line stroke="black" stroke-width="2" transform="rotate(196,151.0,166.0)" x1="132" x2="170" y1="147" y2="185" /><circle cx="139" cy="150" fill="none" r="22.5" stroke="black" stroke-width="2" /><polygon fill="none" points="115,172 158,172 136.5,129" stroke="black" stroke-width="2" transform="rotate(58,136.5,150.5)" /><circle cx="79" cy="94" fill="none" r="15.0" stroke="black" stroke-width="2" /><line stroke="black" stroke-width="2" transform="rotate(246,76.5,102.5)" x1="59" x2="94" y1="85" y2="120" /></g><text font-family="Arial" font-size="14" text-anchor="middle" x="425" y="630">Option 4</text><g transform="translate(350,650)"><polygon fill="none" points="79,62.19000000000001 121.9,62.19000000000001 100.45,15" stroke="black" stroke-width="2" transform="rotate(59,100.45,38.595000000000006)" /><rect fill="none" height="56.870000000000005" stroke="black" stroke-width="2" transform="rotate(285,135.85,52.435)" width="51.7" x="110" y="24" /><line stroke="black" stroke-width="2" transform="rotate(223,152.9,167.9)" x1="132" x2="173.8" y1="147" y2="188.8" /><circle cx="139" cy="150" fill="none" r="24.750000000000004" stroke="black" stroke-width="2" /><polygon fill="none" points="115,181.03 162.3,181.03 138.65,129" stroke="black" stroke-width="2" transform="rotate(82,138.65,155.01500000000001)" /><circle cx="79" cy="94" fill="none" r="16.5" stroke="black" stroke-width="2" /><line stroke="black" stroke-width="2" transform="rotate(273,78.25,104.25)" x1="59" x2="97.5" y1="85" y2="123.5" /></g></svg>