<?xml version="1.0" encoding="utf-8" ?>
<svg baseProfile="full" height="1000px" version="1.1" width="600px" xmlns="http://www.w3.org/2000/svg" xmlns:ev="http://www.w3.org/2001/xml-events" xmlns:xlink="http://www.w3.org/1999/xlink"><defs /><rect fill="white" height="100%" width="100%" x="0" y="0" /><text font-family="Arial" font-size="24" text-anchor="middle" x="300" y="40">Visual Discrimination Test</text><text font-family="Arial" font-size="18" text-anchor="middle" x="300" y="80">Target Pattern</text><g transform="translate(200,100)"><polygon fill="none" points="132,190 178,190 155.0,144" stroke="black" stroke-width="2" transform="rotate(280,155.0,167.0)" /><circle cx="67" cy="144" fill="none" r="17.5" stroke="black" stroke-width="2" /><polygon fill="none" points="69,51 106,51 87.5,14" stroke="black" stroke-width="2" transform="rotate(183,87.5,32.5)" /><circle cx="147" cy="15" fill="none" r="22.0" stroke="black" stroke-width="2" /><rect fill="none" height="46" stroke="black" stroke-width="2" transform="rotate(163,131.0,54.0)" width="46" x="108" y="31" /><polygon fill="none" points="143,143 184,143 163.5,102" stroke="black" stroke-width="2" transform="rotate(346,163.5,122.5)" /></g><text font-family="Arial" font-size="18" text-anchor="middle" x="300" y="350">Options</text><text font-family="Arial" font-size="14" text-anchor="middle" x="175" y="380">Option 1</text><g transform="translate(100,400)"><polygon fill="none" points="132,199.66 182.6,199.66 157.3,144" stroke="black" stroke-width="2" transform="rotate(304,157.3,171.83)" /><circle cx="67" cy="144" fill="none" r="19.25" stroke="black" stroke-width="2" /><polygon fill="none" points="69,58.77000000000001 109.7,58.77000000000001 89.35,14" stroke="black" stroke-width="2" transform="rotate(207,89.35,36.385000000000005)" /><circle cx="147" cy="15" fill="none" r="24.200000000000003" stroke="black" stroke-width="2" /><rect fill="none" height="55.660000000000004" stroke="black" stroke-width="2" transform="rotate(190,133.3,58.83)" width="50.6" x="108" y="31" /><polygon fill="none" points="143,151.61 188.1,151.61 165.55,102" stroke="black" stroke-width="2" transform="rotate(372,165.55,126.805)" /></g><text font-family="Arial" font-size="14" text-anchor="middle" x="425" y="380">Option 2</text><g transform="translate(350,400)"><polygon fill="none" points="132,190 178,190 155.0,144" stroke="black" stroke-width="2" transform="rotate(280,155.0,167.0)" /><circle cx="67" cy="144" fill="none" r="17.5" stroke="black" stroke-width="2" /><polygon fill="none" points="69,51 106,51 87.5,14" stroke="black" stroke-width="2" transform="rotate(183,87.5,32.5)" /><circle cx="147" cy="15" fill="none" r="22.0" stroke="black" stroke-width="2" /><rect fill="none" height="46" stroke="black" stroke-width="2" transform="rotate(163,131.0,54.0)" width="46" x="108" y="31" /><polygon fill="none" points="143,143 184,143 163.5,102" stroke="black" stroke-width="2" transform="rotate(346,163.5,122.5)" /></g><text font-family="Arial" font-size="14" text-anchor="middle" x="175" y="630">Option 3</text><g transform="translate(100,650)"><polygon fill="none" points="132,199.66 182.6,199.66 157.3,144" stroke="black" stroke-width="2" transform="rotate(303,157.3,171.83)" /><circle cx="67" cy="144" fill="none" r="19.25" stroke="black" stroke-width="2" /><polygon fill="none" points="69,58.77000000000001 109.7,58.77000000000001 89.35,14" stroke="black" stroke-width="2" transform="rotate(207,89.35,36.385000000000005)" /><circle cx="147" cy="15" fill="none" r="24.200000000000003" stroke="black" stroke-width="2" /><rect fill="none" height="55.660000000000004" stroke="black" stroke-width="2" transform="rotate(187,133.3,58.83)" width="50.6" x="108" y="31" /><polygon fill="none" points="143,151.61 188.1,151.61 165.55,102" stroke="black" stroke-width="2" transform="rotate(372,165.55,126.805)" /></g><text font-family="Arial" font-size="14" text-anchor="middle" x="425" y="630">Option 4</text><g transform="translate(350,650)"><polygon fill="none" points="132,199.66 182.6,199.66 157.3,144" stroke="black" stroke-width="2" transform="rotate(306,157.3,171.83)" /><circle cx="67" cy="144" fill="none" r="19.25" stroke="black" stroke-width="2" /><polygon fill="none" points="69,58.77000000000001 109.7,58.77000000000001 89.35,14" stroke="black" stroke-width="2" transform="rotate(206,89.35,36.385000000000005)" /><circle cx="147" cy="15" fill="none" r="24.200000000000003" stroke="black" stroke-width="2" /><rect fill="none" height="55.660000000000004" stroke="black" stroke-width="2" transform="rotate(187,133.3,58.83)" width="50.6" x="108" y="31" /><polygon fill="none" points="143,151.61 188.1,151.61 165.55,102" stroke="black" stroke-width="2" transform="rotate(372,165.55,126.805)" /></g></svg>