<?xml version="1.0" encoding="utf-8" ?>
<svg baseProfile="full" height="1000px" version="1.1" width="600px" xmlns="http://www.w3.org/2000/svg" xmlns:ev="http://www.w3.org/2001/xml-events" xmlns:xlink="http://www.w3.org/1999/xlink"><defs /><rect fill="white" height="100%" width="100%" x="0" y="0" /><text font-family="Arial" font-size="24" text-anchor="middle" x="300" y="40">Visual Discrimination Test</text><text font-family="Arial" font-size="18" text-anchor="middle" x="300" y="80">Target Pattern</text><g transform="translate(200,100)"><rect fill="none" height="47" stroke="black" stroke-width="2" transform="rotate(38,121.5,140.5)" width="47" x="98" y="117" /><polygon fill="none" points="99,58 133,58 116.0,24" stroke="black" stroke-width="2" transform="rotate(211,116.0,41.0)" /><polygon fill="none" points="24,71 58,71 41.0,37" stroke="black" stroke-width="2" transform="rotate(110,41.0,54.0)" /><line stroke="black" stroke-width="2" transform="rotate(329,155.5,49.5)" x1="133" x2="178" y1="27" y2="72" /><polygon fill="none" points="122,67 169,67 145.5,20" stroke="black" stroke-width="2" transform="rotate(192,145.5,43.5)" /></g><text font-family="Arial" font-size="18" text-anchor="middle" x="300" y="350">Options</text><text font-family="Arial" font-size="14" text-anchor="middle" x="175" y="380">Option 1</text><g transform="translate(100,400)"><rect fill="none" height="56.870000000000005" stroke="black" stroke-width="2" transform="rotate(63,123.85,145.435)" width="51.7" x="98" y="117" /><polygon fill="none" points="99,65.14000000000001 136.4,65.14000000000001 117.7,24" stroke="black" stroke-width="2" transform="rotate(235,117.7,44.57000000000001)" /><polygon fill="none" points="24,78.14000000000001 61.400000000000006,78.14000000000001 42.7,37" stroke="black" stroke-width="2" transform="rotate(136,42.7,57.57000000000001)" /><line stroke="black" stroke-width="2" transform="rotate(356,157.75,51.75)" x1="133" x2="182.5" y1="27" y2="76.5" /><polygon fill="none" points="122,76.87 173.7,76.87 147.85,20" stroke="black" stroke-width="2" transform="rotate(215,147.85,48.435)" /></g><text font-family="Arial" font-size="14" text-anchor="middle" x="425" y="380">Option 2</text><g transform="translate(350,400)"><rect fill="none" height="56.870000000000005" stroke="black" stroke-width="2" transform="rotate(63,123.85,145.435)" width="51.7" x="98" y="117" /><polygon fill="none" points="99,65.14000000000001 136.4,65.14000000000001 117.7,24" stroke="black" stroke-width="2" transform="rotate(236,117.7,44.57000000000001)" /><polygon fill="none" points="24,78.14000000000001 61.400000000000006,78.14000000000001 42.7,37" stroke="black" stroke-width="2" transform="rotate(135,42.7,57.57000000000001)" /><line stroke="black" stroke-width="2" transform="rotate(353,157.75,51.75)" x1="133" x2="182.5" y1="27" y2="76.5" /><polygon fill="none" points="122,76.87 173.7,76.87 147.85,20" stroke="black" stroke-width="2" transform="rotate(216,147.85,48.435)" /></g><text font-family="Arial" font-size="14" text-anchor="middle" x="175" y="630">Option 3</text><g transform="translate(100,650)"><rect fill="none" height="56.870000000000005" stroke="black" stroke-width="2" transform="rotate(64,123.85,145.435)" width="51.7" x="98" y="117" /><polygon fill="none" points="99,65.14000000000001 136.4,65.14000000000001 117.7,24" stroke="black" stroke-width="2" transform="rotate(236,117.7,44.57000000000001)" /><polygon fill="none" points="24,78.14000000000001 61.400000000000006,78.14000000000001 42.7,37" stroke="black" stroke-width="2" transform="rotate(135,42.7,57.57000000000001)" /><line stroke="black" stroke-width="2" transform="rotate(353,157.75,51.75)" x1="133" x2="182.5" y1="27" y2="76.5" /><polygon fill="none" points="122,76.87 173.7,76.87 147.85,20" stroke="black" stroke-width="2" transform="rotate(215,147.85,48.435)" /></g><text font-family="Arial" font-size="14" text-anchor="middle" x="425" y="630">Option 4</text><g transform="translate(350,650)"><rect fill="none" height="47" stroke="black" stroke-width="2" transform="rotate(38,121.5,140.5)" width="47" x="98" y="117" /><polygon fill="none" points="99,58 133,58 116.0,24" stroke="black" stroke-width="2" transform="rotate(211,116.0,41.0)" /><polygon fill="none" points="24,71 58,71 41.0,37" stroke="black" stroke-width="2" transform="rotate(110,41.0,54.0)" /><line stroke="black" stroke-width="2" transform="rotate(329,155.5,49.5)" x1="133" x2="178" y1="27" y2="72" /><polygon fill="none" points="122,67 169,67 145.5,20" stroke="black" stroke-width="2" transform="rotate(192,145.5,43.5)" /></g></svg>