<?xml version="1.0" encoding="utf-8" ?>
<svg baseProfile="full" height="1000px" version="1.1" width="600px" xmlns="http://www.w3.org/2000/svg" xmlns:ev="http://www.w3.org/2001/xml-events" xmlns:xlink="http://www.w3.org/1999/xlink"><defs /><rect fill="white" height="100%" width="100%" x="0" y="0" /><text font-family="Arial" font-size="24" text-anchor="middle" x="300" y="40">Visual Discrimination Test</text><text font-family="Arial" font-size="18" text-anchor="middle" x="300" y="80">Target Pattern</text><g transform="translate(200,100)"><circle cx="138" cy="124" fill="none" r="17.0" stroke="black" stroke-width="2" /><circle cx="57" cy="50" fill="none" r="17.5" stroke="black" stroke-width="2" /><rect fill="none" height="46" stroke="black" stroke-width="2" transform="rotate(163,55.0,88.0)" width="46" x="32" y="65" /></g><text font-family="Arial" font-size="18" text-anchor="middle" x="300" y="350">Options</text><text font-family="Arial" font-size="14" text-anchor="middle" x="175" y="380">Option 1</text><g transform="translate(100,400)"><polygon fill="none" points="138,165.14000000000001 175.4,165.14000000000001 156.7,124" stroke="black" stroke-width="2" transform="rotate(346,156.7,144.57)" /><rect fill="none" height="42.35" stroke="black" stroke-width="2" transform="rotate(214,76.25,71.175)" width="38.5" x="57" y="50" /><polygon fill="none" points="32,120.66 82.6,120.66 57.3,65" stroke="black" stroke-width="2" transform="rotate(188,57.3,92.83)" /></g><text font-family="Arial" font-size="14" text-anchor="middle" x="425" y="380">Option 2</text><g transform="translate(350,400)"><rect fill="none" height="41.14000000000001" stroke="black" stroke-width="2" transform="rotate(346,156.7,144.57)" width="37.400000000000006" x="138" y="124" /><rect fill="none" height="42.35" stroke="black" stroke-width="2" transform="rotate(211,76.25,71.175)" width="38.5" x="57" y="50" /><line stroke="black" stroke-width="2" transform="rotate(189,57.3,90.3)" x1="32" x2="82.6" y1="65" y2="115.6" /></g><text font-family="Arial" font-size="14" text-anchor="middle" x="175" y="630">Option 3</text><g transform="translate(100,650)"><circle cx="138" cy="124" fill="none" r="17.0" stroke="black" stroke-width="2" /><circle cx="57" cy="50" fill="none" r="17.5" stroke="black" stroke-width="2" /><rect fill="none" height="46" stroke="black" stroke-width="2" transform="rotate(163,55.0,88.0)" width="46" x="32" y="65" /></g><text font-family="Arial" font-size="14" text-anchor="middle" x="425" y="630">Option 4</text><g transform="translate(350,650)"><rect fill="none" height="41.14000000000001" stroke="black" stroke-width="2" transform="rotate(346,156.7,144.57)" width="37.400000000000006" x="138" y="124" /><rect fill="none" height="42.35" stroke="black" stroke-width="2" transform="rotate(212,76.25,71.175)" width="38.5" x="57" y="50" /><polygon fill="none" points="32,120.66 82.6,120.66 57.3,65" stroke="black" stroke-width="2" transform="rotate(187,57.3,92.83)" /></g></svg>