<?xml version="1.0" encoding="utf-8" ?>
<svg baseProfile="full" height="1000px" version="1.1" width="600px" xmlns="http://www.w3.org/2000/svg" xmlns:ev="http://www.w3.org/2001/xml-events" xmlns:xlink="http://www.w3.org/1999/xlink"><defs /><rect fill="white" height="100%" width="100%" x="0" y="0" /><text font-family="Arial" font-size="24" text-anchor="middle" x="300" y="40">Visual Discrimination Test</text><text font-family="Arial" font-size="18" text-anchor="middle" x="300" y="80">Target Pattern</text><g transform="translate(200,100)"><circle cx="67" cy="109" fill="none" r="19.0" stroke="black" stroke-width="2" /><rect fill="none" height="44" stroke="black" stroke-width="2" transform="rotate(317,54.0,88.0)" width="44" x="32" y="66" /><rect fill="none" height="49" stroke="black" stroke-width="2" transform="rotate(323,99.5,128.5)" width="49" x="75" y="104" /><line stroke="black" stroke-width="2" transform="rotate(356,129.0,146.0)" x1="106" x2="152" y1="123" y2="169" /><line stroke="black" stroke-width="2" transform="rotate(110,74.5,54.5)" x1="57" x2="92" y1="37" y2="72" /><circle cx="125" cy="70" fill="none" r="23.5" stroke="black" stroke-width="2" /><rect fill="none" height="41" stroke="black" stroke-width="2" transform="rotate(126,54.5,35.5)" width="41" x="34" y="15" /><rect fill="none" height="46" stroke="black" stroke-width="2" transform="rotate(216,166.0,143.0)" width="46" x="143" y="120" /><polygon fill="none" points="144,77 179,77 161.5,42" stroke="black" stroke-width="2" transform="rotate(35,161.5,59.5)" /></g><text font-family="Arial" font-size="18" text-anchor="middle" x="300" y="350">Options</text><text font-family="Arial" font-size="14" text-anchor="middle" x="175" y="380">Option 1</text><g transform="translate(100,400)"><line stroke="black" stroke-width="2" transform="rotate(77,87.9,129.9)" x1="67" x2="108.80000000000001" y1="109" y2="150.8" /><rect fill="none" height="53.24000000000001" stroke="black" stroke-width="2" transform="rotate(344,56.2,92.62)" width="48.400000000000006" x="32" y="66" /><line stroke="black" stroke-width="2" transform="rotate(350,101.95,130.95)" x1="75" x2="128.9" y1="104" y2="157.9" /><polygon fill="none" points="106,178.66 156.6,178.66 131.3,123" stroke="black" stroke-width="2" transform="rotate(380,131.3,150.83)" /><rect fill="none" height="42.35" stroke="black" stroke-width="2" transform="rotate(137,76.25,58.175)" width="38.5" x="57" y="37" /><polygon fill="none" points="125,126.87 176.7,126.87 150.85,70" stroke="black" stroke-width="2" transform="rotate(190,150.85,98.435)" /><rect fill="none" height="49.61000000000001" stroke="black" stroke-width="2" transform="rotate(149,56.55,39.80500000000001)" width="45.1" x="34" y="15" /><polygon fill="none" points="143,175.66 193.6,175.66 168.3,120" stroke="black" stroke-width="2" transform="rotate(243,168.3,147.83)" /><polygon fill="none" points="144,84.35 182.5,84.35 163.25,42" stroke="black" stroke-width="2" transform="rotate(62,163.25,63.175)" /></g><text font-family="Arial" font-size="14" text-anchor="middle" x="425" y="380">Option 2</text><g transform="translate(350,400)"><line stroke="black" stroke-width="2" transform="rotate(80,87.9,129.9)" x1="67" x2="108.80000000000001" y1="109" y2="150.8" /><rect fill="none" height="53.24000000000001" stroke="black" stroke-width="2" transform="rotate(344,56.2,92.62)" width="48.400000000000006" x="32" y="66" /><line stroke="black" stroke-width="2" transform="rotate(348,101.95,130.95)" x1="75" x2="128.9" y1="104" y2="157.9" /><polygon fill="none" points="106,178.66 156.6,178.66 131.3,123" stroke="black" stroke-width="2" transform="rotate(383,131.3,150.83)" /><rect fill="none" height="42.35" stroke="black" stroke-width="2" transform="rotate(137,76.25,58.175)" width="38.5" x="57" y="37" /><polygon fill="none" points="125,126.87 176.7,126.87 150.85,70" stroke="black" stroke-width="2" transform="rotate(188,150.85,98.435)" /><polygon fill="none" points="34,64.61000000000001 79.1,64.61000000000001 56.55,15" stroke="black" stroke-width="2" transform="rotate(153,56.55,39.80500000000001)" /><rect fill="none" height="55.660000000000004" stroke="black" stroke-width="2" transform="rotate(239,168.3,147.83)" width="50.6" x="143" y="120" /><polygon fill="none" points="144,84.35 182.5,84.35 163.25,42" stroke="black" stroke-width="2" transform="rotate(58,163.25,63.175)" /></g><text font-family="Arial" font-size="14" text-anchor="middle" x="175" y="630">Option 3</text><g transform="translate(100,650)"><polygon fill="none" points="67,154.98000000000002 108.80000000000001,154.98000000000002 87.9,109" stroke="black" stroke-width="2" transform="rotate(76,87.9,131.99)" /><polygon fill="none" points="32,119.24000000000001 80.4,119.24000000000001 56.2,66" stroke="black" stroke-width="2" transform="rotate(341,56.2,92.62)" /><line stroke="black" stroke-width="2" transform="rotate(347,101.95,130.95)" x1="75" x2="128.9" y1="104" y2="157.9" /><polygon fill="none" points="106,178.66 156.6,178.66 131.3,123" stroke="black" stroke-width="2" transform="rotate(383,131.3,150.83)" /><polygon fill="none" points="57,79.35 95.5,79.35 76.25,37" stroke="black" stroke-width="2" transform="rotate(133,76.25,58.175)" /><polygon fill="none" points="125,126.87 176.7,126.87 150.85,70" stroke="black" stroke-width="2" transform="rotate(191,150.85,98.435)" /><line stroke="black" stroke-width="2" transform="rotate(150,56.55,37.55)" x1="34" x2="79.1" y1="15" y2="60.1" /><line stroke="black" stroke-width="2" transform="rotate(241,168.3,145.3)" x1="143" x2="193.6" y1="120" y2="170.6" /><rect fill="none" height="42.35" stroke="black" stroke-width="2" transform="rotate(58,163.25,63.175)" width="38.5" x="144" y="42" /></g><text font-family="Arial" font-size="14" text-anchor="middle" x="425" y="630">Option 4</text><g transform="translate(350,650)"><circle cx="67" cy="109" fill="none" r="19.0" stroke="black" stroke-width="2" /><rect fill="none" height="44" stroke="black" stroke-width="2" transform="rotate(317,54.0,88.0)" width="44" x="32" y="66" /><rect fill="none" height="49" stroke="black" stroke-width="2" transform="rotate(323,99.5,128.5)" width="49" x="75" y="104" /><line stroke="black" stroke-width="2" transform="rotate(356,129.0,146.0)" x1="106" x2="152" y1="123" y2="169" /><line stroke="black" stroke-width="2" transform="rotate(110,74.5,54.5)" x1="57" x2="92" y1="37" y2="72" /><circle cx="125" cy="70" fill="none" r="23.5" stroke="black" stroke-width="2" /><rect fill="none" height="41" stroke="black" stroke-width="2" transform="rotate(126,54.5,35.5)" width="41" x="34" y="15" /><rect fill="none" height="46" stroke="black" stroke-width="2" transform="rotate(216,166.0,143.0)" width="46" x="143" y="120" /><polygon fill="none" points="144,77 179,77 161.5,42" stroke="black" stroke-width="2" transform="rotate(35,161.5,59.5)" /></g></svg>