<?xml version="1.0" encoding="utf-8" ?>
<svg baseProfile="full" height="1000px" version="1.1" width="600px" xmlns="http://www.w3.org/2000/svg" xmlns:ev="http://www.w3.org/2001/xml-events" xmlns:xlink="http://www.w3.org/1999/xlink"><defs /><rect fill="white" height="100%" width="100%" x="0" y="0" /><text font-family="Arial" font-size="24" text-anchor="middle" x="300" y="40">Visual Discrimination Test</text><text font-family="Arial" font-size="18" text-anchor="middle" x="300" y="80">Target Pattern</text><g transform="translate(200,100)"><rect fill="none" height="40" stroke="black" stroke-width="2" transform="rotate(175,147.0,47.0)" width="40" x="127" y="27" /><line stroke="black" stroke-width="2" transform="rotate(26,122.0,96.0)" x1="99" x2="145" y1="73" y2="119" /><circle cx="91" cy="45" fill="none" r="21.5" stroke="black" stroke-width="2" /><line stroke="black" stroke-width="2" transform="rotate(47,40.0,157.0)" x1="19" x2="61" y1="136" y2="178" /></g><text font-family="Arial" font-size="18" text-anchor="middle" x="300" y="350">Options</text><text font-family="Arial" font-size="14" text-anchor="middle" x="175" y="380">Option 1</text><g transform="translate(100,400)"><rect fill="none" height="48.400000000000006" stroke="black" stroke-width="2" transform="rotate(200,149.0,51.2)" width="44.0" x="127" y="27" /><line stroke="black" stroke-width="2" transform="rotate(52,124.3,98.3)" x1="99" x2="149.6" y1="73" y2="123.6" /><line stroke="black" stroke-width="2" transform="rotate(113,114.65,68.65)" x1="91" x2="138.3" y1="45" y2="92.30000000000001" /><line stroke="black" stroke-width="2" transform="rotate(70,42.1,159.1)" x1="19" x2="65.2" y1="136" y2="182.2" /></g><text font-family="Arial" font-size="14" text-anchor="middle" x="425" y="380">Option 2</text><g transform="translate(350,400)"><rect fill="none" height="48.400000000000006" stroke="black" stroke-width="2" transform="rotate(199,149.0,51.2)" width="44.0" x="127" y="27" /><line stroke="black" stroke-width="2" transform="rotate(51,124.3,98.3)" x1="99" x2="149.6" y1="73" y2="123.6" /><rect fill="none" height="52.03000000000001" stroke="black" stroke-width="2" transform="rotate(117,114.65,71.015)" width="47.300000000000004" x="91" y="45" /><line stroke="black" stroke-width="2" transform="rotate(74,42.1,159.1)" x1="19" x2="65.2" y1="136" y2="182.2" /></g><text font-family="Arial" font-size="14" text-anchor="middle" x="175" y="630">Option 3</text><g transform="translate(100,650)"><polygon fill="none" points="127,75.4 171.0,75.4 149.0,27" stroke="black" stroke-width="2" transform="rotate(201,149.0,51.2)" /><polygon fill="none" points="99,128.66 149.6,128.66 124.3,73" stroke="black" stroke-width="2" transform="rotate(52,124.3,100.83)" /><polygon fill="none" points="91,97.03 138.3,97.03 114.65,45" stroke="black" stroke-width="2" transform="rotate(114,114.65,71.015)" /><rect fill="none" height="50.82000000000001" stroke="black" stroke-width="2" transform="rotate(74,42.1,161.41)" width="46.2" x="19" y="136" /></g><text font-family="Arial" font-size="14" text-anchor="middle" x="425" y="630">Option 4</text><g transform="translate(350,650)"><rect fill="none" height="40" stroke="black" stroke-width="2" transform="rotate(175,147.0,47.0)" width="40" x="127" y="27" /><line stroke="black" stroke-width="2" transform="rotate(26,122.0,96.0)" x1="99" x2="145" y1="73" y2="119" /><circle cx="91" cy="45" fill="none" r="21.5" stroke="black" stroke-width="2" /><line stroke="black" stroke-width="2" transform="rotate(47,40.0,157.0)" x1="19" x2="61" y1="136" y2="178" /></g></svg>