<?xml version="1.0" encoding="utf-8" ?>
<svg baseProfile="full" height="1000px" version="1.1" width="600px" xmlns="http://www.w3.org/2000/svg" xmlns:ev="http://www.w3.org/2001/xml-events" xmlns:xlink="http://www.w3.org/1999/xlink"><defs /><rect fill="white" height="100%" width="100%" x="0" y="0" /><text font-family="Arial" font-size="24" text-anchor="middle" x="300" y="40">Visual Discrimination Test</text><text font-family="Arial" font-size="18" text-anchor="middle" x="300" y="80">Target Pattern</text><g transform="translate(200,100)"><circle cx="130" cy="37" fill="none" r="16.5" stroke="black" stroke-width="2" /><circle cx="111" cy="32" fill="none" r="23.5" stroke="black" stroke-width="2" /><polygon fill="none" points="139,61 182,61 160.5,18" stroke="black" stroke-width="2" transform="rotate(146,160.5,39.5)" /><circle cx="113" cy="114" fill="none" r="22.5" stroke="black" stroke-width="2" /><rect fill="none" height="30" stroke="black" stroke-width="2" transform="rotate(291,140.0,163.0)" width="30" x="125" y="148" /></g><text font-family="Arial" font-size="18" text-anchor="middle" x="300" y="350">Options</text><text font-family="Arial" font-size="14" text-anchor="middle" x="175" y="380">Option 1</text><g transform="translate(100,400)"><line stroke="black" stroke-width="2" transform="rotate(63,148.15,55.150000000000006)" x1="130" x2="166.3" y1="37" y2="73.30000000000001" /><rect fill="none" height="56.870000000000005" stroke="black" stroke-width="2" transform="rotate(204,136.85,60.435)" width="51.7" x="111" y="32" /><line stroke="black" stroke-width="2" transform="rotate(171,162.65,41.650000000000006)" x1="139" x2="186.3" y1="18" y2="65.30000000000001" /><polygon fill="none" points="113,168.45000000000002 162.5,168.45000000000002 137.75,114" stroke="black" stroke-width="2" transform="rotate(247,137.75,141.225)" /><rect fill="none" height="36.300000000000004" stroke="black" stroke-width="2" transform="rotate(315,141.5,166.15)" width="33.0" x="125" y="148" /></g><text font-family="Arial" font-size="14" text-anchor="middle" x="425" y="380">Option 2</text><g transform="translate(350,400)"><circle cx="130" cy="37" fill="none" r="16.5" stroke="black" stroke-width="2" /><circle cx="111" cy="32" fill="none" r="23.5" stroke="black" stroke-width="2" /><polygon fill="none" points="139,61 182,61 160.5,18" stroke="black" stroke-width="2" transform="rotate(146,160.5,39.5)" /><circle cx="113" cy="114" fill="none" r="22.5" stroke="black" stroke-width="2" /><rect fill="none" height="30" stroke="black" stroke-width="2" transform="rotate(291,140.0,163.0)" width="30" x="125" y="148" /></g><text font-family="Arial" font-size="14" text-anchor="middle" x="175" y="630">Option 3</text><g transform="translate(100,650)"><polygon fill="none" points="130,76.93 166.3,76.93 148.15,37" stroke="black" stroke-width="2" transform="rotate(64,148.15,56.965)" /><line stroke="black" stroke-width="2" transform="rotate(204,136.85,57.85)" x1="111" x2="162.7" y1="32" y2="83.7" /><line stroke="black" stroke-width="2" transform="rotate(172,162.65,41.650000000000006)" x1="139" x2="186.3" y1="18" y2="65.30000000000001" /><polygon fill="none" points="113,168.45000000000002 162.5,168.45000000000002 137.75,114" stroke="black" stroke-width="2" transform="rotate(248,137.75,141.225)" /><rect fill="none" height="36.300000000000004" stroke="black" stroke-width="2" transform="rotate(314,141.5,166.15)" width="33.0" x="125" y="148" /></g><text font-family="Arial" font-size="14" text-anchor="middle" x="425" y="630">Option 4</text><g transform="translate(350,650)"><polygon fill="none" points="130,76.93 166.3,76.93 148.15,37" stroke="black" stroke-width="2" transform="rotate(62,148.15,56.965)" /><rect fill="none" height="56.870000000000005" stroke="black" stroke-width="2" transform="rotate(203,136.85,60.435)" width="51.7" x="111" y="32" /><polygon fill="none" points="139,70.03 186.3,70.03 162.65,18" stroke="black" stroke-width="2" transform="rotate(173,162.65,44.015)" /><rect fill="none" height="54.45000000000001" stroke="black" stroke-width="2" transform="rotate(247,137.75,141.225)" width="49.50000000000001" x="113" y="114" /><polygon fill="none" points="125,184.3 158.0,184.3 141.5,148" stroke="black" stroke-width="2" transform="rotate(314,141.5,166.15)" /></g></svg>