<?xml version="1.0" encoding="utf-8" ?>
<svg baseProfile="full" height="1000px" version="1.1" width="600px" xmlns="http://www.w3.org/2000/svg" xmlns:ev="http://www.w3.org/2001/xml-events" xmlns:xlink="http://www.w3.org/1999/xlink"><defs /><rect fill="white" height="100%" width="100%" x="0" y="0" /><text font-family="Arial" font-size="24" text-anchor="middle" x="300" y="40">Visual Discrimination Test</text><text font-family="Arial" font-size="18" text-anchor="middle" x="300" y="80">Target Pattern</text><g transform="translate(200,100)"><rect fill="none" height="50" stroke="black" stroke-width="2" transform="rotate(28,93.0,146.0)" width="50" x="68" y="121" /><rect fill="none" height="41" stroke="black" stroke-width="2" transform="rotate(10,36.5,115.5)" width="41" x="16" y="95" /><polygon fill="none" points="147,58 186,58 166.5,19" stroke="black" stroke-width="2" transform="rotate(115,166.5,38.5)" /><line stroke="black" stroke-width="2" transform="rotate(272,76.0,87.0)" x1="56" x2="96" y1="67" y2="107" /><rect fill="none" height="39" stroke="black" stroke-width="2" transform="rotate(164,147.5,99.5)" width="39" x="128" y="80" /><polygon fill="none" points="46,125 94,125 70.0,77" stroke="black" stroke-width="2" transform="rotate(225,70.0,101.0)" /><rect fill="none" height="32" stroke="black" stroke-width="2" transform="rotate(214,141.0,100.0)" width="32" x="125" y="84" /></g><text font-family="Arial" font-size="18" text-anchor="middle" x="300" y="350">Options</text><text font-family="Arial" font-size="14" text-anchor="middle" x="175" y="380">Option 1</text><g transform="translate(100,400)"><rect fill="none" height="60.500000000000014" stroke="black" stroke-width="2" transform="rotate(53,95.5,151.25)" width="55.00000000000001" x="68" y="121" /><line stroke="black" stroke-width="2" transform="rotate(37,38.55,117.55)" x1="16" x2="61.1" y1="95" y2="140.1" /><line stroke="black" stroke-width="2" transform="rotate(139,168.45,40.45)" x1="147" x2="189.9" y1="19" y2="61.900000000000006" /><polygon fill="none" points="56,115.4 100.0,115.4 78.0,67" stroke="black" stroke-width="2" transform="rotate(295,78.0,91.2)" /><rect fill="none" height="47.19000000000001" stroke="black" stroke-width="2" transform="rotate(187,149.45,103.595)" width="42.900000000000006" x="128" y="80" /><line stroke="black" stroke-width="2" transform="rotate(248,72.4,103.4)" x1="46" x2="98.80000000000001" y1="77" y2="129.8" /><line stroke="black" stroke-width="2" transform="rotate(237,142.6,101.6)" x1="125" x2="160.2" y1="84" y2="119.2" /></g><text font-family="Arial" font-size="14" text-anchor="middle" x="425" y="380">Option 2</text><g transform="translate(350,400)"><polygon fill="none" points="68,181.5 123.0,181.5 95.5,121" stroke="black" stroke-width="2" transform="rotate(52,95.5,151.25)" /><polygon fill="none" points="16,144.61 61.1,144.61 38.55,95" stroke="black" stroke-width="2" transform="rotate(34,38.55,119.805)" /><rect fill="none" height="47.19000000000001" stroke="black" stroke-width="2" transform="rotate(140,168.45,42.595000000000006)" width="42.900000000000006" x="147" y="19" /><rect fill="none" height="48.400000000000006" stroke="black" stroke-width="2" transform="rotate(299,78.0,91.2)" width="44.0" x="56" y="67" /><polygon fill="none" points="128,127.19000000000001 170.9,127.19000000000001 149.45,80" stroke="black" stroke-width="2" transform="rotate(188,149.45,103.595)" /><line stroke="black" stroke-width="2" transform="rotate(250,72.4,103.4)" x1="46" x2="98.80000000000001" y1="77" y2="129.8" /><polygon fill="none" points="125,122.72 160.2,122.72 142.6,84" stroke="black" stroke-width="2" transform="rotate(237,142.6,103.36)" /></g><text font-family="Arial" font-size="14" text-anchor="middle" x="175" y="630">Option 3</text><g transform="translate(100,650)"><rect fill="none" height="50" stroke="black" stroke-width="2" transform="rotate(28,93.0,146.0)" width="50" x="68" y="121" /><rect fill="none" height="41" stroke="black" stroke-width="2" transform="rotate(10,36.5,115.5)" width="41" x="16" y="95" /><polygon fill="none" points="147,58 186,58 166.5,19" stroke="black" stroke-width="2" transform="rotate(115,166.5,38.5)" /><line stroke="black" stroke-width="2" transform="rotate(272,76.0,87.0)" x1="56" x2="96" y1="67" y2="107" /><rect fill="none" height="39" stroke="black" stroke-width="2" transform="rotate(164,147.5,99.5)" width="39" x="128" y="80" /><polygon fill="none" points="46,125 94,125 70.0,77" stroke="black" stroke-width="2" transform="rotate(225,70.0,101.0)" /><rect fill="none" height="32" stroke="black" stroke-width="2" transform="rotate(214,141.0,100.0)" width="32" x="125" y="84" /></g><text font-family="Arial" font-size="14" text-anchor="middle" x="425" y="630">Option 4</text><g transform="translate(350,650)"><rect fill="none" height="60.500000000000014" stroke="black" stroke-width="2" transform="rotate(54,95.5,151.25)" width="55.00000000000001" x="68" y="121" /><line stroke="black" stroke-width="2" transform="rotate(33,38.55,117.55)" x1="16" x2="61.1" y1="95" y2="140.1" /><polygon fill="none" points="147,66.19000000000001 189.9,66.19000000000001 168.45,19" stroke="black" stroke-width="2" transform="rotate(139,168.45,42.595000000000006)" /><rect fill="none" height="48.400000000000006" stroke="black" stroke-width="2" transform="rotate(295,78.0,91.2)" width="44.0" x="56" y="67" /><line stroke="black" stroke-width="2" transform="rotate(191,149.45,101.45)" x1="128" x2="170.9" y1="80" y2="122.9" /><line stroke="black" stroke-width="2" transform="rotate(251,72.4,103.4)" x1="46" x2="98.80000000000001" y1="77" y2="129.8" /><polygon fill="none" points="125,122.72 160.2,122.72 142.6,84" stroke="black" stroke-width="2" transform="rotate(239,142.6,103.36)" /></g></svg>