<?xml version="1.0" encoding="utf-8" ?>
<svg baseProfile="full" height="1000px" version="1.1" width="600px" xmlns="http://www.w3.org/2000/svg" xmlns:ev="http://www.w3.org/2001/xml-events" xmlns:xlink="http://www.w3.org/1999/xlink"><defs /><rect fill="white" height="100%" width="100%" x="0" y="0" /><text font-family="Arial" font-size="24" text-anchor="middle" x="300" y="40">Visual Discrimination Test</text><text font-family="Arial" font-size="18" text-anchor="middle" x="300" y="80">Target Pattern</text><g transform="translate(200,100)"><rect fill="none" height="43" stroke="black" stroke-width="2" transform="rotate(216,108.5,114.5)" width="43" x="87" y="93" /><line stroke="black" stroke-width="2" transform="rotate(47,96.0,46.0)" x1="75" x2="117" y1="25" y2="67" /><circle cx="48" cy="124" fill="none" r="15.5" stroke="black" stroke-width="2" /><line stroke="black" stroke-width="2" transform="rotate(171,132.0,37.0)" x1="116" x2="148" y1="21" y2="53" /><rect fill="none" height="42" stroke="black" stroke-width="2" transform="rotate(349,97.0,59.0)" width="42" x="76" y="38" /><circle cx="15" cy="30" fill="none" r="22.0" stroke="black" stroke-width="2" /></g><text font-family="Arial" font-size="18" text-anchor="middle" x="300" y="350">Options</text><text font-family="Arial" font-size="14" text-anchor="middle" x="175" y="380">Option 1</text><g transform="translate(100,400)"><rect fill="none" height="66.22" stroke="black" stroke-width="2" transform="rotate(241,117.1,126.11)" width="60.199999999999996" x="87" y="93" /><line stroke="black" stroke-width="2" transform="rotate(70,104.4,54.4)" x1="75" x2="133.8" y1="25" y2="83.8" /><circle cx="48" cy="124" fill="none" r="21.7" stroke="black" stroke-width="2" /><line stroke="black" stroke-width="2" transform="rotate(195,138.4,43.4)" x1="116" x2="160.8" y1="21" y2="65.8" /><rect fill="none" height="64.68" stroke="black" stroke-width="2" transform="rotate(372,105.4,70.34)" width="58.8" x="76" y="38" /><circle cx="15" cy="30" fill="none" r="30.799999999999997" stroke="black" stroke-width="2" /></g><text font-family="Arial" font-size="14" text-anchor="middle" x="425" y="380">Option 2</text><g transform="translate(350,400)"><rect fill="none" height="66.22" stroke="black" stroke-width="2" transform="rotate(239,117.1,126.11)" width="60.199999999999996" x="87" y="93" /><line stroke="black" stroke-width="2" transform="rotate(72,104.4,54.4)" x1="75" x2="133.8" y1="25" y2="83.8" /><circle cx="48" cy="124" fill="none" r="21.7" stroke="black" stroke-width="2" /><line stroke="black" stroke-width="2" transform="rotate(197,138.4,43.4)" x1="116" x2="160.8" y1="21" y2="65.8" /><rect fill="none" height="64.68" stroke="black" stroke-width="2" transform="rotate(374,105.4,70.34)" width="58.8" x="76" y="38" /><circle cx="15" cy="30" fill="none" r="30.799999999999997" stroke="black" stroke-width="2" /></g><text font-family="Arial" font-size="14" text-anchor="middle" x="175" y="630">Option 3</text><g transform="translate(100,650)"><rect fill="none" height="43" stroke="black" stroke-width="2" transform="rotate(216,108.5,114.5)" width="43" x="87" y="93" /><line stroke="black" stroke-width="2" transform="rotate(47,96.0,46.0)" x1="75" x2="117" y1="25" y2="67" /><circle cx="48" cy="124" fill="none" r="15.5" stroke="black" stroke-width="2" /><line stroke="black" stroke-width="2" transform="rotate(171,132.0,37.0)" x1="116" x2="148" y1="21" y2="53" /><rect fill="none" height="42" stroke="black" stroke-width="2" transform="rotate(349,97.0,59.0)" width="42" x="76" y="38" /><circle cx="15" cy="30" fill="none" r="22.0" stroke="black" stroke-width="2" /></g><text font-family="Arial" font-size="14" text-anchor="middle" x="425" y="630">Option 4</text><g transform="translate(350,650)"><rect fill="none" height="66.22" stroke="black" stroke-width="2" transform="rotate(241,117.1,126.11)" width="60.199999999999996" x="87" y="93" /><line stroke="black" stroke-width="2" transform="rotate(73,104.4,54.4)" x1="75" x2="133.8" y1="25" y2="83.8" /><circle cx="48" cy="124" fill="none" r="21.7" stroke="black" stroke-width="2" /><line stroke="black" stroke-width="2" transform="rotate(198,138.4,43.4)" x1="116" x2="160.8" y1="21" y2="65.8" /><rect fill="none" height="64.68" stroke="black" stroke-width="2" transform="rotate(375,105.4,70.34)" width="58.8" x="76" y="38" /><circle cx="15" cy="30" fill="none" r="30.799999999999997" stroke="black" stroke-width="2" /></g></svg>