<?xml version="1.0" encoding="utf-8" ?>
<svg baseProfile="full" height="1000px" version="1.1" width="600px" xmlns="http://www.w3.org/2000/svg" xmlns:ev="http://www.w3.org/2001/xml-events" xmlns:xlink="http://www.w3.org/1999/xlink"><defs /><rect fill="white" height="100%" width="100%" x="0" y="0" /><text font-family="Arial" font-size="24" text-anchor="middle" x="300" y="40">Visual Discrimination Test</text><text font-family="Arial" font-size="18" text-anchor="middle" x="300" y="80">Target Pattern</text><g transform="translate(200,100)"><circle cx="14" cy="88" fill="none" r="19.5" stroke="black" stroke-width="2" /><polygon fill="none" points="32,104 71,104 51.5,65" stroke="black" stroke-width="2" transform="rotate(220,51.5,84.5)" /><circle cx="149" cy="34" fill="none" r="20.5" stroke="black" stroke-width="2" /><polygon fill="none" points="82,115 128,115 105.0,69" stroke="black" stroke-width="2" transform="rotate(345,105.0,92.0)" /></g><text font-family="Arial" font-size="18" text-anchor="middle" x="300" y="350">Options</text><text font-family="Arial" font-size="14" text-anchor="middle" x="175" y="380">Option 1</text><g transform="translate(100,400)"><circle cx="14" cy="88" fill="none" r="27.299999999999997" stroke="black" stroke-width="2" /><polygon fill="none" points="32,125.06 86.6,125.06 59.3,65" stroke="black" stroke-width="2" transform="rotate(245,59.3,95.03)" /><circle cx="149" cy="34" fill="none" r="28.7" stroke="black" stroke-width="2" /><polygon fill="none" points="82,139.84 146.39999999999998,139.84 114.19999999999999,69" stroke="black" stroke-width="2" transform="rotate(368,114.19999999999999,104.42)" /></g><text font-family="Arial" font-size="14" text-anchor="middle" x="425" y="380">Option 2</text><g transform="translate(350,400)"><circle cx="14" cy="88" fill="none" r="19.5" stroke="black" stroke-width="2" /><polygon fill="none" points="32,104 71,104 51.5,65" stroke="black" stroke-width="2" transform="rotate(220,51.5,84.5)" /><circle cx="149" cy="34" fill="none" r="20.5" stroke="black" stroke-width="2" /><polygon fill="none" points="82,115 128,115 105.0,69" stroke="black" stroke-width="2" transform="rotate(345,105.0,92.0)" /></g><text font-family="Arial" font-size="14" text-anchor="middle" x="175" y="630">Option 3</text><g transform="translate(100,650)"><circle cx="14" cy="88" fill="none" r="27.299999999999997" stroke="black" stroke-width="2" /><polygon fill="none" points="32,125.06 86.6,125.06 59.3,65" stroke="black" stroke-width="2" transform="rotate(246,59.3,95.03)" /><circle cx="149" cy="34" fill="none" r="28.7" stroke="black" stroke-width="2" /><polygon fill="none" points="82,139.84 146.39999999999998,139.84 114.19999999999999,69" stroke="black" stroke-width="2" transform="rotate(369,114.19999999999999,104.42)" /></g><text font-family="Arial" font-size="14" text-anchor="middle" x="425" y="630">Option 4</text><g transform="translate(350,650)"><circle cx="14" cy="88" fill="none" r="27.299999999999997" stroke="black" stroke-width="2" /><polygon fill="none" points="32,125.06 86.6,125.06 59.3,65" stroke="black" stroke-width="2" transform="rotate(243,59.3,95.03)" /><circle cx="149" cy="34" fill="none" r="28.7" stroke="black" stroke-width="2" /><polygon fill="none" points="82,139.84 146.39999999999998,139.84 114.19999999999999,69" stroke="black" stroke-width="2" transform="rotate(372,114.19999999999999,104.42)" /></g></svg>