<?xml version="1.0" encoding="utf-8" ?>
<svg baseProfile="full" height="1000px" version="1.1" width="600px" xmlns="http://www.w3.org/2000/svg" xmlns:ev="http://www.w3.org/2001/xml-events" xmlns:xlink="http://www.w3.org/1999/xlink"><defs /><rect fill="white" height="100%" width="100%" x="0" y="0" /><text font-family="Arial" font-size="24" text-anchor="middle" x="300" y="40">Visual Discrimination Test</text><text font-family="Arial" font-size="18" text-anchor="middle" x="300" y="80">Target Pattern</text><g transform="translate(200,100)"><rect fill="none" height="33" stroke="black" stroke-width="2" transform="rotate(130,57.5,113.5)" width="33" x="41" y="97" /><rect fill="none" height="48" stroke="black" stroke-width="2" transform="rotate(56,88.0,42.0)" width="48" x="64" y="18" /><rect fill="none" height="31" stroke="black" stroke-width="2" transform="rotate(76,122.5,138.5)" width="31" x="107" y="123" /><line stroke="black" stroke-width="2" transform="rotate(26,33.5,152.5)" x1="15" x2="52" y1="134" y2="171" /><line stroke="black" stroke-width="2" transform="rotate(96,158.0,72.0)" x1="133" x2="183" y1="47" y2="97" /><circle cx="117" cy="41" fill="none" r="18.5" stroke="black" stroke-width="2" /><circle cx="126" cy="84" fill="none" r="23.0" stroke="black" stroke-width="2" /><line stroke="black" stroke-width="2" transform="rotate(264,132.5,37.5)" x1="111" x2="154" y1="16" y2="59" /><circle cx="94" cy="88" fill="none" r="24.5" stroke="black" stroke-width="2" /></g><text font-family="Arial" font-size="18" text-anchor="middle" x="300" y="350">Options</text><text font-family="Arial" font-size="14" text-anchor="middle" x="175" y="380">Option 1</text><g transform="translate(100,400)"><rect fill="none" height="50.82" stroke="black" stroke-width="2" transform="rotate(155,64.1,122.41)" width="46.199999999999996" x="41" y="97" /><rect fill="none" height="73.91999999999999" stroke="black" stroke-width="2" transform="rotate(81,97.6,54.959999999999994)" width="67.19999999999999" x="64" y="18" /><rect fill="none" height="47.74" stroke="black" stroke-width="2" transform="rotate(102,128.7,146.87)" width="43.4" x="107" y="123" /><line stroke="black" stroke-width="2" transform="rotate(52,40.9,159.9)" x1="15" x2="66.8" y1="134" y2="185.8" /><line stroke="black" stroke-width="2" transform="rotate(120,168.0,82.0)" x1="133" x2="203.0" y1="47" y2="117.0" /><circle cx="117" cy="41" fill="none" r="25.9" stroke="black" stroke-width="2" /><circle cx="126" cy="84" fill="none" r="32.199999999999996" stroke="black" stroke-width="2" /><line stroke="black" stroke-width="2" transform="rotate(291,141.1,46.099999999999994)" x1="111" x2="171.2" y1="16" y2="76.19999999999999" /><circle cx="94" cy="88" fill="none" r="34.3" stroke="black" stroke-width="2" /></g><text font-family="Arial" font-size="14" text-anchor="middle" x="425" y="380">Option 2</text><g transform="translate(350,400)"><rect fill="none" height="33" stroke="black" stroke-width="2" transform="rotate(130,57.5,113.5)" width="33" x="41" y="97" /><rect fill="none" height="48" stroke="black" stroke-width="2" transform="rotate(56,88.0,42.0)" width="48" x="64" y="18" /><rect fill="none" height="31" stroke="black" stroke-width="2" transform="rotate(76,122.5,138.5)" width="31" x="107" y="123" /><line stroke="black" stroke-width="2" transform="rotate(26,33.5,152.5)" x1="15" x2="52" y1="134" y2="171" /><line stroke="black" stroke-width="2" transform="rotate(96,158.0,72.0)" x1="133" x2="183" y1="47" y2="97" /><circle cx="117" cy="41" fill="none" r="18.5" stroke="black" stroke-width="2" /><circle cx="126" cy="84" fill="none" r="23.0" stroke="black" stroke-width="2" /><line stroke="black" stroke-width="2" transform="rotate(264,132.5,37.5)" x1="111" x2="154" y1="16" y2="59" /><circle cx="94" cy="88" fill="none" r="24.5" stroke="black" stroke-width="2" /></g><text font-family="Arial" font-size="14" text-anchor="middle" x="175" y="630">Option 3</text><g transform="translate(100,650)"><rect fill="none" height="50.82" stroke="black" stroke-width="2" transform="rotate(157,64.1,122.41)" width="46.199999999999996" x="41" y="97" /><rect fill="none" height="73.91999999999999" stroke="black" stroke-width="2" transform="rotate(81,97.6,54.959999999999994)" width="67.19999999999999" x="64" y="18" /><rect fill="none" height="47.74" stroke="black" stroke-width="2" transform="rotate(103,128.7,146.87)" width="43.4" x="107" y="123" /><line stroke="black" stroke-width="2" transform="rotate(51,40.9,159.9)" x1="15" x2="66.8" y1="134" y2="185.8" /><line stroke="black" stroke-width="2" transform="rotate(122,168.0,82.0)" x1="133" x2="203.0" y1="47" y2="117.0" /><circle cx="117" cy="41" fill="none" r="25.9" stroke="black" stroke-width="2" /><circle cx="126" cy="84" fill="none" r="32.199999999999996" stroke="black" stroke-width="2" /><line stroke="black" stroke-width="2" transform="rotate(287,141.1,46.099999999999994)" x1="111" x2="171.2" y1="16" y2="76.19999999999999" /><circle cx="94" cy="88" fill="none" r="34.3" stroke="black" stroke-width="2" /></g><text font-family="Arial" font-size="14" text-anchor="middle" x="425" y="630">Option 4</text><g transform="translate(350,650)"><rect fill="none" height="50.82" stroke="black" stroke-width="2" transform="rotate(156,64.1,122.41)" width="46.199999999999996" x="41" y="97" /><rect fill="none" height="73.91999999999999" stroke="black" stroke-width="2" transform="rotate(79,97.6,54.959999999999994)" width="67.19999999999999" x="64" y="18" /><rect fill="none" height="47.74" stroke="black" stroke-width="2" transform="rotate(103,128.7,146.87)" width="43.4" x="107" y="123" /><line stroke="black" stroke-width="2" transform="rotate(49,40.9,159.9)" x1="15" x2="66.8" y1="134" y2="185.8" /><line stroke="black" stroke-width="2" transform="rotate(119,168.0,82.0)" x1="133" x2="203.0" y1="47" y2="117.0" /><circle cx="117" cy="41" fill="none" r="25.9" stroke="black" stroke-width="2" /><circle cx="126" cy="84" fill="none" r="32.199999999999996" stroke="black" stroke-width="2" /><line stroke="black" stroke-width="2" transform="rotate(288,141.1,46.099999999999994)" x1="111" x2="171.2" y1="16" y2="76.19999999999999" /><circle cx="94" cy="88" fill="none" r="34.3" stroke="black" stroke-width="2" /></g></svg>