<?xml version="1.0" encoding="utf-8" ?>
<svg baseProfile="full" height="1000px" version="1.1" width="600px" xmlns="http://www.w3.org/2000/svg" xmlns:ev="http://www.w3.org/2001/xml-events" xmlns:xlink="http://www.w3.org/1999/xlink"><defs /><rect fill="white" height="100%" width="100%" x="0" y="0" /><text font-family="Arial" font-size="24" text-anchor="middle" x="300" y="40">Visual Discrimination Test</text><text font-family="Arial" font-size="18" text-anchor="middle" x="300" y="80">Target Pattern</text><g transform="translate(200,100)"><circle cx="63" cy="127" fill="none" r="24.5" stroke="black" stroke-width="2" /><circle cx="92" cy="98" fill="none" r="17.0" stroke="black" stroke-width="2" /><rect fill="none" height="36" stroke="black" stroke-width="2" transform="rotate(20,163.0,160.0)" width="36" x="145" y="142" /><rect fill="none" height="39" stroke="black" stroke-width="2" transform="rotate(35,109.5,147.5)" width="39" x="90" y="128" /><polygon fill="none" points="75,50 113,50 94.0,12" stroke="black" stroke-width="2" transform="rotate(69,94.0,31.0)" /></g><text font-family="Arial" font-size="18" text-anchor="middle" x="300" y="350">Options</text><text font-family="Arial" font-size="14" text-anchor="middle" x="175" y="380">Option 1</text><g transform="translate(100,400)"><circle cx="63" cy="127" fill="none" r="34.3" stroke="black" stroke-width="2" /><circle cx="92" cy="98" fill="none" r="23.799999999999997" stroke="black" stroke-width="2" /><rect fill="none" height="55.440000000000005" stroke="black" stroke-width="2" transform="rotate(44,170.2,169.72)" width="50.4" x="145" y="142" /><rect fill="none" height="60.059999999999995" stroke="black" stroke-width="2" transform="rotate(62,117.3,158.03)" width="54.599999999999994" x="90" y="128" /><polygon fill="none" points="75,70.52000000000001 128.2,70.52000000000001 101.6,12" stroke="black" stroke-width="2" transform="rotate(95,101.6,41.260000000000005)" /></g><text font-family="Arial" font-size="14" text-anchor="middle" x="425" y="380">Option 2</text><g transform="translate(350,400)"><circle cx="63" cy="127" fill="none" r="24.5" stroke="black" stroke-width="2" /><circle cx="92" cy="98" fill="none" r="17.0" stroke="black" stroke-width="2" /><rect fill="none" height="36" stroke="black" stroke-width="2" transform="rotate(20,163.0,160.0)" width="36" x="145" y="142" /><rect fill="none" height="39" stroke="black" stroke-width="2" transform="rotate(35,109.5,147.5)" width="39" x="90" y="128" /><polygon fill="none" points="75,50 113,50 94.0,12" stroke="black" stroke-width="2" transform="rotate(69,94.0,31.0)" /></g><text font-family="Arial" font-size="14" text-anchor="middle" x="175" y="630">Option 3</text><g transform="translate(100,650)"><circle cx="63" cy="127" fill="none" r="34.3" stroke="black" stroke-width="2" /><circle cx="92" cy="98" fill="none" r="23.799999999999997" stroke="black" stroke-width="2" /><rect fill="none" height="55.440000000000005" stroke="black" stroke-width="2" transform="rotate(43,170.2,169.72)" width="50.4" x="145" y="142" /><rect fill="none" height="60.059999999999995" stroke="black" stroke-width="2" transform="rotate(62,117.3,158.03)" width="54.599999999999994" x="90" y="128" /><polygon fill="none" points="75,70.52000000000001 128.2,70.52000000000001 101.6,12" stroke="black" stroke-width="2" transform="rotate(93,101.6,41.260000000000005)" /></g><text font-family="Arial" font-size="14" text-anchor="middle" x="425" y="630">Option 4</text><g transform="translate(350,650)"><circle cx="63" cy="127" fill="none" r="34.3" stroke="black" stroke-width="2" /><circle cx="92" cy="98" fill="none" r="23.799999999999997" stroke="black" stroke-width="2" /><rect fill="none" height="55.440000000000005" stroke="black" stroke-width="2" transform="rotate(43,170.2,169.72)" width="50.4" x="145" y="142" /><rect fill="none" height="60.059999999999995" stroke="black" stroke-width="2" transform="rotate(62,117.3,158.03)" width="54.599999999999994" x="90" y="128" /><polygon fill="none" points="75,70.52000000000001 128.2,70.52000000000001 101.6,12" stroke="black" stroke-width="2" transform="rotate(96,101.6,41.260000000000005)" /></g></svg>