<?xml version="1.0" encoding="utf-8" ?>
<svg baseProfile="full" height="1000px" version="1.1" width="600px" xmlns="http://www.w3.org/2000/svg" xmlns:ev="http://www.w3.org/2001/xml-events" xmlns:xlink="http://www.w3.org/1999/xlink"><defs /><rect fill="white" height="100%" width="100%" x="0" y="0" /><text font-family="Arial" font-size="24" text-anchor="middle" x="300" y="40">Visual Discrimination Test</text><text font-family="Arial" font-size="18" text-anchor="middle" x="300" y="80">Target Pattern</text><g transform="translate(200,100)"><polygon fill="none" points="105,84 141,84 123.0,48" stroke="black" stroke-width="2" transform="rotate(355,123.0,66.0)" /><rect fill="none" height="44" stroke="black" stroke-width="2" transform="rotate(160,111.0,73.0)" width="44" x="89" y="51" /><rect fill="none" height="47" stroke="black" stroke-width="2" transform="rotate(153,127.5,123.5)" width="47" x="104" y="100" /><circle cx="145" cy="18" fill="none" r="20.0" stroke="black" stroke-width="2" /><polygon fill="none" points="50,88 80,88 65.0,58" stroke="black" stroke-width="2" transform="rotate(135,65.0,73.0)" /><circle cx="102" cy="11" fill="none" r="21.0" stroke="black" stroke-width="2" /><polygon fill="none" points="54,181 99,181 76.5,136" stroke="black" stroke-width="2" transform="rotate(94,76.5,158.5)" /><line stroke="black" stroke-width="2" transform="rotate(18,128.5,63.5)" x1="113" x2="144" y1="48" y2="79" /></g><text font-family="Arial" font-size="18" text-anchor="middle" x="300" y="350">Options</text><text font-family="Arial" font-size="14" text-anchor="middle" x="175" y="380">Option 1</text><g transform="translate(100,400)"><polygon fill="none" points="105,103.44 155.4,103.44 130.2,48" stroke="black" stroke-width="2" transform="rotate(380,130.2,75.72)" /><rect fill="none" height="67.76" stroke="black" stroke-width="2" transform="rotate(187,119.8,84.88)" width="61.599999999999994" x="89" y="51" /><rect fill="none" height="72.38000000000001" stroke="black" stroke-width="2" transform="rotate(179,136.9,136.19)" width="65.8" x="104" y="100" /><circle cx="145" cy="18" fill="none" r="28.0" stroke="black" stroke-width="2" /><polygon fill="none" points="50,104.2 92.0,104.2 71.0,58" stroke="black" stroke-width="2" transform="rotate(162,71.0,81.1)" /><circle cx="102" cy="11" fill="none" r="29.4" stroke="black" stroke-width="2" /><polygon fill="none" points="54,205.3 117.0,205.3 85.5,136" stroke="black" stroke-width="2" transform="rotate(120,85.5,170.65)" /><line stroke="black" stroke-width="2" transform="rotate(43,134.7,69.7)" x1="113" x2="156.4" y1="48" y2="91.4" /></g><text font-family="Arial" font-size="14" text-anchor="middle" x="425" y="380">Option 2</text><g transform="translate(350,400)"><polygon fill="none" points="105,84 141,84 123.0,48" stroke="black" stroke-width="2" transform="rotate(355,123.0,66.0)" /><rect fill="none" height="44" stroke="black" stroke-width="2" transform="rotate(160,111.0,73.0)" width="44" x="89" y="51" /><rect fill="none" height="47" stroke="black" stroke-width="2" transform="rotate(153,127.5,123.5)" width="47" x="104" y="100" /><circle cx="145" cy="18" fill="none" r="20.0" stroke="black" stroke-width="2" /><polygon fill="none" points="50,88 80,88 65.0,58" stroke="black" stroke-width="2" transform="rotate(135,65.0,73.0)" /><circle cx="102" cy="11" fill="none" r="21.0" stroke="black" stroke-width="2" /><polygon fill="none" points="54,181 99,181 76.5,136" stroke="black" stroke-width="2" transform="rotate(94,76.5,158.5)" /><line stroke="black" stroke-width="2" transform="rotate(18,128.5,63.5)" x1="113" x2="144" y1="48" y2="79" /></g><text font-family="Arial" font-size="14" text-anchor="middle" x="175" y="630">Option 3</text><g transform="translate(100,650)"><polygon fill="none" points="105,103.44 155.4,103.44 130.2,48" stroke="black" stroke-width="2" transform="rotate(380,130.2,75.72)" /><rect fill="none" height="67.76" stroke="black" stroke-width="2" transform="rotate(183,119.8,84.88)" width="61.599999999999994" x="89" y="51" /><rect fill="none" height="72.38000000000001" stroke="black" stroke-width="2" transform="rotate(178,136.9,136.19)" width="65.8" x="104" y="100" /><circle cx="145" cy="18" fill="none" r="28.0" stroke="black" stroke-width="2" /><polygon fill="none" points="50,104.2 92.0,104.2 71.0,58" stroke="black" stroke-width="2" transform="rotate(158,71.0,81.1)" /><circle cx="102" cy="11" fill="none" r="29.4" stroke="black" stroke-width="2" /><polygon fill="none" points="54,205.3 117.0,205.3 85.5,136" stroke="black" stroke-width="2" transform="rotate(117,85.5,170.65)" /><line stroke="black" stroke-width="2" transform="rotate(44,134.7,69.7)" x1="113" x2="156.4" y1="48" y2="91.4" /></g><text font-family="Arial" font-size="14" text-anchor="middle" x="425" y="630">Option 4</text><g transform="translate(350,650)"><polygon fill="none" points="105,103.44 155.4,103.44 130.2,48" stroke="black" stroke-width="2" transform="rotate(380,130.2,75.72)" /><rect fill="none" height="67.76" stroke="black" stroke-width="2" transform="rotate(185,119.8,84.88)" width="61.599999999999994" x="89" y="51" /><rect fill="none" height="72.38000000000001" stroke="black" stroke-width="2" transform="rotate(179,136.9,136.19)" width="65.8" x="104" y="100" /><circle cx="145" cy="18" fill="none" r="28.0" stroke="black" stroke-width="2" /><polygon fill="none" points="50,104.2 92.0,104.2 71.0,58" stroke="black" stroke-width="2" transform="rotate(162,71.0,81.1)" /><circle cx="102" cy="11" fill="none" r="29.4" stroke="black" stroke-width="2" /><polygon fill="none" points="54,205.3 117.0,205.3 85.5,136" stroke="black" stroke-width="2" transform="rotate(117,85.5,170.65)" /><line stroke="black" stroke-width="2" transform="rotate(45,134.7,69.7)" x1="113" x2="156.4" y1="48" y2="91.4" /></g></svg>