<?xml version="1.0" encoding="utf-8" ?>
<svg baseProfile="full" height="1000px" version="1.1" width="600px" xmlns="http://www.w3.org/2000/svg" xmlns:ev="http://www.w3.org/2001/xml-events" xmlns:xlink="http://www.w3.org/1999/xlink"><defs /><rect fill="white" height="100%" width="100%" x="0" y="0" /><text font-family="Arial" font-size="24" text-anchor="middle" x="300" y="40">Visual Discrimination Test</text><text font-family="Arial" font-size="18" text-anchor="middle" x="300" y="80">Target Pattern</text><g transform="translate(200,100)"><line stroke="black" stroke-width="2" transform="rotate(70,132.0,157.0)" x1="107" x2="157" y1="132" y2="182" /><polygon fill="none" points="24,122 58,122 41.0,88" stroke="black" stroke-width="2" transform="rotate(85,41.0,105.0)" /><line stroke="black" stroke-width="2" transform="rotate(116,97.0,165.0)" x1="76" x2="118" y1="144" y2="186" /><line stroke="black" stroke-width="2" transform="rotate(122,99.0,73.0)" x1="78" x2="120" y1="52" y2="94" /><circle cx="35" cy="114" fill="none" r="20.5" stroke="black" stroke-width="2" /></g><text font-family="Arial" font-size="18" text-anchor="middle" x="300" y="350">Options</text><text font-family="Arial" font-size="14" text-anchor="middle" x="175" y="380">Option 1</text><g transform="translate(100,400)"><polygon fill="none" points="107,209.0 177.0,209.0 142.0,132" stroke="black" stroke-width="2" transform="rotate(94,142.0,170.5)" /><line stroke="black" stroke-width="2" transform="rotate(112,47.8,111.8)" x1="24" x2="71.6" y1="88" y2="135.6" /><rect fill="none" height="64.68" stroke="black" stroke-width="2" transform="rotate(141,105.4,176.34)" width="58.8" x="76" y="144" /><line stroke="black" stroke-width="2" transform="rotate(146,107.4,81.4)" x1="78" x2="136.8" y1="52" y2="110.8" /><line stroke="black" stroke-width="2" transform="rotate(130,63.7,142.7)" x1="35" x2="92.4" y1="114" y2="171.4" /></g><text font-family="Arial" font-size="14" text-anchor="middle" x="425" y="380">Option 2</text><g transform="translate(350,400)"><rect fill="none" height="77.0" stroke="black" stroke-width="2" transform="rotate(95,142.0,170.5)" width="70.0" x="107" y="132" /><line stroke="black" stroke-width="2" transform="rotate(111,47.8,111.8)" x1="24" x2="71.6" y1="88" y2="135.6" /><line stroke="black" stroke-width="2" transform="rotate(143,105.4,173.4)" x1="76" x2="134.8" y1="144" y2="202.8" /><rect fill="none" height="64.68" stroke="black" stroke-width="2" transform="rotate(148,107.4,84.34)" width="58.8" x="78" y="52" /><rect fill="none" height="63.14" stroke="black" stroke-width="2" transform="rotate(129,63.7,145.57)" width="57.4" x="35" y="114" /></g><text font-family="Arial" font-size="14" text-anchor="middle" x="175" y="630">Option 3</text><g transform="translate(100,650)"><line stroke="black" stroke-width="2" transform="rotate(70,132.0,157.0)" x1="107" x2="157" y1="132" y2="182" /><polygon fill="none" points="24,122 58,122 41.0,88" stroke="black" stroke-width="2" transform="rotate(85,41.0,105.0)" /><line stroke="black" stroke-width="2" transform="rotate(116,97.0,165.0)" x1="76" x2="118" y1="144" y2="186" /><line stroke="black" stroke-width="2" transform="rotate(122,99.0,73.0)" x1="78" x2="120" y1="52" y2="94" /><circle cx="35" cy="114" fill="none" r="20.5" stroke="black" stroke-width="2" /></g><text font-family="Arial" font-size="14" text-anchor="middle" x="425" y="630">Option 4</text><g transform="translate(350,650)"><rect fill="none" height="77.0" stroke="black" stroke-width="2" transform="rotate(93,142.0,170.5)" width="70.0" x="107" y="132" /><rect fill="none" height="52.36" stroke="black" stroke-width="2" transform="rotate(108,47.8,114.18)" width="47.599999999999994" x="24" y="88" /><rect fill="none" height="64.68" stroke="black" stroke-width="2" transform="rotate(142,105.4,176.34)" width="58.8" x="76" y="144" /><rect fill="none" height="64.68" stroke="black" stroke-width="2" transform="rotate(146,107.4,84.34)" width="58.8" x="78" y="52" /><polygon fill="none" points="35,177.14 92.4,177.14 63.7,114" stroke="black" stroke-width="2" transform="rotate(130,63.7,145.57)" /></g></svg>