<?xml version="1.0" encoding="utf-8" ?>
<svg baseProfile="full" height="1000px" version="1.1" width="600px" xmlns="http://www.w3.org/2000/svg" xmlns:ev="http://www.w3.org/2001/xml-events" xmlns:xlink="http://www.w3.org/1999/xlink"><defs /><rect fill="white" height="100%" width="100%" x="0" y="0" /><text font-family="Arial" font-size="24" text-anchor="middle" x="300" y="40">Visual Discrimination Test</text><text font-family="Arial" font-size="18" text-anchor="middle" x="300" y="80">Target Pattern</text><g transform="translate(200,100)"><circle cx="28" cy="108" fill="none" r="24.0" stroke="black" stroke-width="2" /><circle cx="113" cy="44" fill="none" r="17.5" stroke="black" stroke-width="2" /><line stroke="black" stroke-width="2" transform="rotate(279,148.5,124.5)" x1="132" x2="165" y1="108" y2="141" /><line stroke="black" stroke-width="2" transform="rotate(255,98.5,40.5)" x1="79" x2="118" y1="21" y2="60" /><circle cx="145" cy="113" fill="none" r="18.0" stroke="black" stroke-width="2" /></g><text font-family="Arial" font-size="18" text-anchor="middle" x="300" y="350">Options</text><text font-family="Arial" font-size="14" text-anchor="middle" x="175" y="380">Option 1</text><g transform="translate(100,400)"><line stroke="black" stroke-width="2" transform="rotate(232,61.599999999999994,141.6)" x1="28" x2="95.19999999999999" y1="108" y2="175.2" /><polygon fill="none" points="113,97.9 162.0,97.9 137.5,44" stroke="black" stroke-width="2" transform="rotate(338,137.5,70.95)" /><polygon fill="none" points="132,158.82 178.2,158.82 155.1,108" stroke="black" stroke-width="2" transform="rotate(303,155.1,133.41)" /><line stroke="black" stroke-width="2" transform="rotate(279,106.3,48.3)" x1="79" x2="133.6" y1="21" y2="75.6" /><line stroke="black" stroke-width="2" transform="rotate(94,170.2,138.2)" x1="145" x2="195.4" y1="113" y2="163.4" /></g><text font-family="Arial" font-size="14" text-anchor="middle" x="425" y="380">Option 2</text><g transform="translate(350,400)"><rect fill="none" height="73.91999999999999" stroke="black" stroke-width="2" transform="rotate(232,61.599999999999994,144.95999999999998)" width="67.19999999999999" x="28" y="108" /><rect fill="none" height="53.900000000000006" stroke="black" stroke-width="2" transform="rotate(341,137.5,70.95)" width="49.0" x="113" y="44" /><rect fill="none" height="50.82" stroke="black" stroke-width="2" transform="rotate(304,155.1,133.41)" width="46.199999999999996" x="132" y="108" /><rect fill="none" height="60.059999999999995" stroke="black" stroke-width="2" transform="rotate(281,106.3,51.03)" width="54.599999999999994" x="79" y="21" /><rect fill="none" height="55.440000000000005" stroke="black" stroke-width="2" transform="rotate(91,170.2,140.72)" width="50.4" x="145" y="113" /></g><text font-family="Arial" font-size="14" text-anchor="middle" x="175" y="630">Option 3</text><g transform="translate(100,650)"><circle cx="28" cy="108" fill="none" r="24.0" stroke="black" stroke-width="2" /><circle cx="113" cy="44" fill="none" r="17.5" stroke="black" stroke-width="2" /><line stroke="black" stroke-width="2" transform="rotate(279,148.5,124.5)" x1="132" x2="165" y1="108" y2="141" /><line stroke="black" stroke-width="2" transform="rotate(255,98.5,40.5)" x1="79" x2="118" y1="21" y2="60" /><circle cx="145" cy="113" fill="none" r="18.0" stroke="black" stroke-width="2" /></g><text font-family="Arial" font-size="14" text-anchor="middle" x="425" y="630">Option 4</text><g transform="translate(350,650)"><polygon fill="none" points="28,181.92 95.19999999999999,181.92 61.599999999999994,108" stroke="black" stroke-width="2" transform="rotate(235,61.599999999999994,144.95999999999998)" /><line stroke="black" stroke-width="2" transform="rotate(339,137.5,68.5)" x1="113" x2="162.0" y1="44" y2="93.0" /><rect fill="none" height="50.82" stroke="black" stroke-width="2" transform="rotate(303,155.1,133.41)" width="46.199999999999996" x="132" y="108" /><polygon fill="none" points="79,81.06 133.6,81.06 106.3,21" stroke="black" stroke-width="2" transform="rotate(281,106.3,51.03)" /><polygon fill="none" points="145,168.44 195.4,168.44 170.2,113" stroke="black" stroke-width="2" transform="rotate(91,170.2,140.72)" /></g></svg>