<?xml version="1.0" encoding="utf-8" ?>
<svg baseProfile="full" height="1000px" version="1.1" width="600px" xmlns="http://www.w3.org/2000/svg" xmlns:ev="http://www.w3.org/2001/xml-events" xmlns:xlink="http://www.w3.org/1999/xlink"><defs /><rect fill="white" height="100%" width="100%" x="0" y="0" /><text font-family="Arial" font-size="24" text-anchor="middle" x="300" y="40">Visual Discrimination Test</text><text font-family="Arial" font-size="18" text-anchor="middle" x="300" y="80">Target Pattern</text><g transform="translate(200,100)"><polygon fill="none" points="140,58 182,58 161.0,16" stroke="black" stroke-width="2" transform="rotate(145,161.0,37.0)" /><line stroke="black" stroke-width="2" transform="rotate(331,111.5,96.5)" x1="88" x2="135" y1="73" y2="120" /><line stroke="black" stroke-width="2" transform="rotate(311,140.0,35.0)" x1="115" x2="165" y1="10" y2="60" /><polygon fill="none" points="38,136 81,136 59.5,93" stroke="black" stroke-width="2" transform="rotate(135,59.5,114.5)" /><circle cx="45" cy="133" fill="none" r="19.0" stroke="black" stroke-width="2" /><rect fill="none" height="31" stroke="black" stroke-width="2" transform="rotate(196,145.5,38.5)" width="31" x="130" y="23" /><rect fill="none" height="42" stroke="black" stroke-width="2" transform="rotate(91,129.0,139.0)" width="42" x="108" y="118" /><circle cx="83" cy="60" fill="none" r="19.5" stroke="black" stroke-width="2" /></g><text font-family="Arial" font-size="18" text-anchor="middle" x="300" y="350">Options</text><text font-family="Arial" font-size="14" text-anchor="middle" x="175" y="380">Option 1</text><g transform="translate(100,400)"><line stroke="black" stroke-width="2" transform="rotate(168,169.4,45.4)" x1="140" x2="198.8" y1="16" y2="74.8" /><polygon fill="none" points="88,145.38 153.8,145.38 120.9,73" stroke="black" stroke-width="2" transform="rotate(355,120.9,109.19)" /><polygon fill="none" points="115,87.0 185.0,87.0 150.0,10" stroke="black" stroke-width="2" transform="rotate(335,150.0,48.5)" /><polygon fill="none" points="38,159.22 98.19999999999999,159.22 68.1,93" stroke="black" stroke-width="2" transform="rotate(160,68.1,126.11)" /><rect fill="none" height="58.52" stroke="black" stroke-width="2" transform="rotate(339,71.6,162.26)" width="53.199999999999996" x="45" y="133" /><line stroke="black" stroke-width="2" transform="rotate(221,151.7,44.7)" x1="130" x2="173.4" y1="23" y2="66.4" /><rect fill="none" height="64.68" stroke="black" stroke-width="2" transform="rotate(117,137.4,150.34)" width="58.8" x="108" y="118" /><polygon fill="none" points="83,120.06 137.6,120.06 110.3,60" stroke="black" stroke-width="2" transform="rotate(312,110.3,90.03)" /></g><text font-family="Arial" font-size="14" text-anchor="middle" x="425" y="380">Option 2</text><g transform="translate(350,400)"><polygon fill="none" points="140,58 182,58 161.0,16" stroke="black" stroke-width="2" transform="rotate(145,161.0,37.0)" /><line stroke="black" stroke-width="2" transform="rotate(331,111.5,96.5)" x1="88" x2="135" y1="73" y2="120" /><line stroke="black" stroke-width="2" transform="rotate(311,140.0,35.0)" x1="115" x2="165" y1="10" y2="60" /><polygon fill="none" points="38,136 81,136 59.5,93" stroke="black" stroke-width="2" transform="rotate(135,59.5,114.5)" /><circle cx="45" cy="133" fill="none" r="19.0" stroke="black" stroke-width="2" /><rect fill="none" height="31" stroke="black" stroke-width="2" transform="rotate(196,145.5,38.5)" width="31" x="130" y="23" /><rect fill="none" height="42" stroke="black" stroke-width="2" transform="rotate(91,129.0,139.0)" width="42" x="108" y="118" /><circle cx="83" cy="60" fill="none" r="19.5" stroke="black" stroke-width="2" /></g><text font-family="Arial" font-size="14" text-anchor="middle" x="175" y="630">Option 3</text><g transform="translate(100,650)"><line stroke="black" stroke-width="2" transform="rotate(172,169.4,45.4)" x1="140" x2="198.8" y1="16" y2="74.8" /><line stroke="black" stroke-width="2" transform="rotate(356,120.9,105.9)" x1="88" x2="153.8" y1="73" y2="138.8" /><line stroke="black" stroke-width="2" transform="rotate(337,150.0,45.0)" x1="115" x2="185.0" y1="10" y2="80.0" /><line stroke="black" stroke-width="2" transform="rotate(159,68.1,123.1)" x1="38" x2="98.19999999999999" y1="93" y2="153.2" /><line stroke="black" stroke-width="2" transform="rotate(339,71.6,159.6)" x1="45" x2="98.19999999999999" y1="133" y2="186.2" /><line stroke="black" stroke-width="2" transform="rotate(221,151.7,44.7)" x1="130" x2="173.4" y1="23" y2="66.4" /><rect fill="none" height="64.68" stroke="black" stroke-width="2" transform="rotate(118,137.4,150.34)" width="58.8" x="108" y="118" /><line stroke="black" stroke-width="2" transform="rotate(315,110.3,87.3)" x1="83" x2="137.6" y1="60" y2="114.6" /></g><text font-family="Arial" font-size="14" text-anchor="middle" x="425" y="630">Option 4</text><g transform="translate(350,650)"><polygon fill="none" points="140,80.68 198.8,80.68 169.4,16" stroke="black" stroke-width="2" transform="rotate(169,169.4,48.34)" /><rect fill="none" height="72.38000000000001" stroke="black" stroke-width="2" transform="rotate(354,120.9,109.19)" width="65.8" x="88" y="73" /><polygon fill="none" points="115,87.0 185.0,87.0 150.0,10" stroke="black" stroke-width="2" transform="rotate(335,150.0,48.5)" /><polygon fill="none" points="38,159.22 98.19999999999999,159.22 68.1,93" stroke="black" stroke-width="2" transform="rotate(161,68.1,126.11)" /><line stroke="black" stroke-width="2" transform="rotate(342,71.6,159.6)" x1="45" x2="98.19999999999999" y1="133" y2="186.2" /><rect fill="none" height="47.74" stroke="black" stroke-width="2" transform="rotate(223,151.7,46.870000000000005)" width="43.4" x="130" y="23" /><polygon fill="none" points="108,182.68 166.8,182.68 137.4,118" stroke="black" stroke-width="2" transform="rotate(115,137.4,150.34)" /><line stroke="black" stroke-width="2" transform="rotate(312,110.3,87.3)" x1="83" x2="137.6" y1="60" y2="114.6" /></g></svg>