<?xml version="1.0" encoding="utf-8" ?>
<svg baseProfile="full" height="1000px" version="1.1" width="600px" xmlns="http://www.w3.org/2000/svg" xmlns:ev="http://www.w3.org/2001/xml-events" xmlns:xlink="http://www.w3.org/1999/xlink"><defs /><rect fill="white" height="100%" width="100%" x="0" y="0" /><text font-family="Arial" font-size="24" text-anchor="middle" x="300" y="40">Visual Discrimination Test</text><text font-family="Arial" font-size="18" text-anchor="middle" x="300" y="80">Target Pattern</text><g transform="translate(200,100)"><line stroke="black" stroke-width="2" transform="rotate(274,67.0,57.0)" x1="47" x2="87" y1="37" y2="77" /><line stroke="black" stroke-width="2" transform="rotate(63,134.5,164.5)" x1="119" x2="150" y1="149" y2="180" /><circle cx="89" cy="80" fill="none" r="23.0" stroke="black" stroke-width="2" /><line stroke="black" stroke-width="2" transform="rotate(163,102.5,62.5)" x1="79" x2="126" y1="39" y2="86" /><polygon fill="none" points="124,98 160,98 142.0,62" stroke="black" stroke-width="2" transform="rotate(13,142.0,80.0)" /><circle cx="142" cy="34" fill="none" r="23.5" stroke="black" stroke-width="2" /><rect fill="none" height="43" stroke="black" stroke-width="2" transform="rotate(350,80.5,128.5)" width="43" x="59" y="107" /><polygon fill="none" points="57,67 92,67 74.5,32" stroke="black" stroke-width="2" transform="rotate(16,74.5,49.5)" /><line stroke="black" stroke-width="2" transform="rotate(357,130.0,56.0)" x1="105" x2="155" y1="31" y2="81" /></g><text font-family="Arial" font-size="18" text-anchor="middle" x="300" y="350">Options</text><text font-family="Arial" font-size="14" text-anchor="middle" x="175" y="380">Option 1</text><g transform="translate(100,400)"><line stroke="black" stroke-width="2" transform="rotate(297,75.0,65.0)" x1="47" x2="103.0" y1="37" y2="93.0" /><rect fill="none" height="47.74" stroke="black" stroke-width="2" transform="rotate(86,140.7,172.87)" width="43.4" x="119" y="149" /><line stroke="black" stroke-width="2" transform="rotate(113,121.19999999999999,112.19999999999999)" x1="89" x2="153.39999999999998" y1="80" y2="144.39999999999998" /><rect fill="none" height="72.38000000000001" stroke="black" stroke-width="2" transform="rotate(188,111.9,75.19)" width="65.8" x="79" y="39" /><line stroke="black" stroke-width="2" transform="rotate(36,149.2,87.2)" x1="124" x2="174.4" y1="62" y2="112.4" /><rect fill="none" height="72.38000000000001" stroke="black" stroke-width="2" transform="rotate(257,174.9,70.19)" width="65.8" x="142" y="34" /><rect fill="none" height="66.22" stroke="black" stroke-width="2" transform="rotate(373,89.1,140.11)" width="60.199999999999996" x="59" y="107" /><rect fill="none" height="53.900000000000006" stroke="black" stroke-width="2" transform="rotate(39,81.5,58.95)" width="49.0" x="57" y="32" /><rect fill="none" height="77.0" stroke="black" stroke-width="2" transform="rotate(383,140.0,69.5)" width="70.0" x="105" y="31" /></g><text font-family="Arial" font-size="14" text-anchor="middle" x="425" y="380">Option 2</text><g transform="translate(350,400)"><line stroke="black" stroke-width="2" transform="rotate(274,67.0,57.0)" x1="47" x2="87" y1="37" y2="77" /><line stroke="black" stroke-width="2" transform="rotate(63,134.5,164.5)" x1="119" x2="150" y1="149" y2="180" /><circle cx="89" cy="80" fill="none" r="23.0" stroke="black" stroke-width="2" /><line stroke="black" stroke-width="2" transform="rotate(163,102.5,62.5)" x1="79" x2="126" y1="39" y2="86" /><polygon fill="none" points="124,98 160,98 142.0,62" stroke="black" stroke-width="2" transform="rotate(13,142.0,80.0)" /><circle cx="142" cy="34" fill="none" r="23.5" stroke="black" stroke-width="2" /><rect fill="none" height="43" stroke="black" stroke-width="2" transform="rotate(350,80.5,128.5)" width="43" x="59" y="107" /><polygon fill="none" points="57,67 92,67 74.5,32" stroke="black" stroke-width="2" transform="rotate(16,74.5,49.5)" /><line stroke="black" stroke-width="2" transform="rotate(357,130.0,56.0)" x1="105" x2="155" y1="31" y2="81" /></g><text font-family="Arial" font-size="14" text-anchor="middle" x="175" y="630">Option 3</text><g transform="translate(100,650)"><rect fill="none" height="61.60000000000001" stroke="black" stroke-width="2" transform="rotate(301,75.0,67.80000000000001)" width="56.0" x="47" y="37" /><line stroke="black" stroke-width="2" transform="rotate(90,140.7,170.7)" x1="119" x2="162.4" y1="149" y2="192.4" /><polygon fill="none" points="89,150.84 153.39999999999998,150.84 121.19999999999999,80" stroke="black" stroke-width="2" transform="rotate(113,121.19999999999999,115.42)" /><line stroke="black" stroke-width="2" transform="rotate(190,111.9,71.9)" x1="79" x2="144.8" y1="39" y2="104.8" /><polygon fill="none" points="124,117.44 174.4,117.44 149.2,62" stroke="black" stroke-width="2" transform="rotate(40,149.2,89.72)" /><line stroke="black" stroke-width="2" transform="rotate(258,174.9,66.9)" x1="142" x2="207.8" y1="34" y2="99.8" /><rect fill="none" height="66.22" stroke="black" stroke-width="2" transform="rotate(374,89.1,140.11)" width="60.199999999999996" x="59" y="107" /><line stroke="black" stroke-width="2" transform="rotate(40,81.5,56.5)" x1="57" x2="106.0" y1="32" y2="81.0" /><rect fill="none" height="77.0" stroke="black" stroke-width="2" transform="rotate(382,140.0,69.5)" width="70.0" x="105" y="31" /></g><text font-family="Arial" font-size="14" text-anchor="middle" x="425" y="630">Option 4</text><g transform="translate(350,650)"><line stroke="black" stroke-width="2" transform="rotate(299,75.0,65.0)" x1="47" x2="103.0" y1="37" y2="93.0" /><line stroke="black" stroke-width="2" transform="rotate(87,140.7,170.7)" x1="119" x2="162.4" y1="149" y2="192.4" /><polygon fill="none" points="89,150.84 153.39999999999998,150.84 121.19999999999999,80" stroke="black" stroke-width="2" transform="rotate(110,121.19999999999999,115.42)" /><line stroke="black" stroke-width="2" transform="rotate(186,111.9,71.9)" x1="79" x2="144.8" y1="39" y2="104.8" /><polygon fill="none" points="124,117.44 174.4,117.44 149.2,62" stroke="black" stroke-width="2" transform="rotate(39,149.2,89.72)" /><rect fill="none" height="72.38000000000001" stroke="black" stroke-width="2" transform="rotate(259,174.9,70.19)" width="65.8" x="142" y="34" /><line stroke="black" stroke-width="2" transform="rotate(377,89.1,137.1)" x1="59" x2="119.19999999999999" y1="107" y2="167.2" /><rect fill="none" height="53.900000000000006" stroke="black" stroke-width="2" transform="rotate(41,81.5,58.95)" width="49.0" x="57" y="32" /><line stroke="black" stroke-width="2" transform="rotate(381,140.0,66.0)" x1="105" x2="175.0" y1="31" y2="101.0" /></g></svg>