<?xml version="1.0" encoding="utf-8" ?>
<svg baseProfile="full" height="1000px" version="1.1" width="600px" xmlns="http://www.w3.org/2000/svg" xmlns:ev="http://www.w3.org/2001/xml-events" xmlns:xlink="http://www.w3.org/1999/xlink"><defs /><rect fill="white" height="100%" width="100%" x="0" y="0" /><text font-family="Arial" font-size="24" text-anchor="middle" x="300" y="40">Visual Discrimination Test</text><text font-family="Arial" font-size="18" text-anchor="middle" x="300" y="80">Target Pattern</text><g transform="translate(200,100)"><polygon fill="none" points="88,135 123,135 105.5,100" stroke="black" stroke-width="2" transform="rotate(78,105.5,117.5)" /><line stroke="black" stroke-width="2" transform="rotate(345,128.0,43.0)" x1="109" x2="147" y1="24" y2="62" /><rect fill="none" height="50" stroke="black" stroke-width="2" transform="rotate(84,53.0,37.0)" width="50" x="28" y="12" /><polygon fill="none" points="88,97 123,97 105.5,62" stroke="black" stroke-width="2" transform="rotate(331,105.5,79.5)" /><line stroke="black" stroke-width="2" transform="rotate(277,130.0,148.0)" x1="111" x2="149" y1="129" y2="167" /></g><text font-family="Arial" font-size="18" text-anchor="middle" x="300" y="350">Options</text><text font-family="Arial" font-size="14" text-anchor="middle" x="175" y="380">Option 1</text><g transform="translate(100,400)"><polygon fill="none" points="88,153.9 137.0,153.9 112.5,100" stroke="black" stroke-width="2" transform="rotate(103,112.5,126.95)" /><line stroke="black" stroke-width="2" transform="rotate(370,135.6,50.599999999999994)" x1="109" x2="162.2" y1="24" y2="77.19999999999999" /><rect fill="none" height="77.0" stroke="black" stroke-width="2" transform="rotate(108,63.0,50.5)" width="70.0" x="28" y="12" /><polygon fill="none" points="88,115.9 137.0,115.9 112.5,62" stroke="black" stroke-width="2" transform="rotate(357,112.5,88.95)" /><rect fill="none" height="58.52" stroke="black" stroke-width="2" transform="rotate(300,137.6,158.26)" width="53.199999999999996" x="111" y="129" /></g><text font-family="Arial" font-size="14" text-anchor="middle" x="425" y="380">Option 2</text><g transform="translate(350,400)"><polygon fill="none" points="88,135 123,135 105.5,100" stroke="black" stroke-width="2" transform="rotate(78,105.5,117.5)" /><line stroke="black" stroke-width="2" transform="rotate(345,128.0,43.0)" x1="109" x2="147" y1="24" y2="62" /><rect fill="none" height="50" stroke="black" stroke-width="2" transform="rotate(84,53.0,37.0)" width="50" x="28" y="12" /><polygon fill="none" points="88,97 123,97 105.5,62" stroke="black" stroke-width="2" transform="rotate(331,105.5,79.5)" /><line stroke="black" stroke-width="2" transform="rotate(277,130.0,148.0)" x1="111" x2="149" y1="129" y2="167" /></g><text font-family="Arial" font-size="14" text-anchor="middle" x="175" y="630">Option 3</text><g transform="translate(100,650)"><line stroke="black" stroke-width="2" transform="rotate(104,112.5,124.5)" x1="88" x2="137.0" y1="100" y2="149.0" /><rect fill="none" height="58.52" stroke="black" stroke-width="2" transform="rotate(368,135.6,53.260000000000005)" width="53.199999999999996" x="109" y="24" /><line stroke="black" stroke-width="2" transform="rotate(110,63.0,47.0)" x1="28" x2="98.0" y1="12" y2="82.0" /><line stroke="black" stroke-width="2" transform="rotate(358,112.5,86.5)" x1="88" x2="137.0" y1="62" y2="111.0" /><rect fill="none" height="58.52" stroke="black" stroke-width="2" transform="rotate(300,137.6,158.26)" width="53.199999999999996" x="111" y="129" /></g><text font-family="Arial" font-size="14" text-anchor="middle" x="425" y="630">Option 4</text><g transform="translate(350,650)"><rect fill="none" height="53.900000000000006" stroke="black" stroke-width="2" transform="rotate(105,112.5,126.95)" width="49.0" x="88" y="100" /><line stroke="black" stroke-width="2" transform="rotate(371,135.6,50.599999999999994)" x1="109" x2="162.2" y1="24" y2="77.19999999999999" /><rect fill="none" height="77.0" stroke="black" stroke-width="2" transform="rotate(109,63.0,50.5)" width="70.0" x="28" y="12" /><polygon fill="none" points="88,115.9 137.0,115.9 112.5,62" stroke="black" stroke-width="2" transform="rotate(354,112.5,88.95)" /><line stroke="black" stroke-width="2" transform="rotate(304,137.6,155.6)" x1="111" x2="164.2" y1="129" y2="182.2" /></g></svg>