<?xml version="1.0" encoding="utf-8" ?>
<svg baseProfile="full" height="1000px" version="1.1" width="600px" xmlns="http://www.w3.org/2000/svg" xmlns:ev="http://www.w3.org/2001/xml-events" xmlns:xlink="http://www.w3.org/1999/xlink"><defs /><rect fill="white" height="100%" width="100%" x="0" y="0" /><text font-family="Arial" font-size="24" text-anchor="middle" x="300" y="40">Visual Discrimination Test</text><text font-family="Arial" font-size="18" text-anchor="middle" x="300" y="80">Target Pattern</text><g transform="translate(200,100)"><polygon fill="none" points="118,159 163,159 140.5,114" stroke="black" stroke-width="2" transform="rotate(142,140.5,136.5)" /><polygon fill="none" points="80,112 117,112 98.5,75" stroke="black" stroke-width="2" transform="rotate(45,98.5,93.5)" /></g><text font-family="Arial" font-size="18" text-anchor="middle" x="300" y="350">Options</text><text font-family="Arial" font-size="14" text-anchor="middle" x="175" y="380">Option 1</text><g transform="translate(100,400)"><rect fill="none" height="39.60000000000001" stroke="black" stroke-width="2" transform="rotate(146,142.75,133.8)" width="49.50000000000001" x="118" y="114" /><line stroke="black" stroke-width="2" transform="rotate(49,100.35,95.35)" x1="80" x2="120.7" y1="75" y2="115.7" /></g><text font-family="Arial" font-size="14" text-anchor="middle" x="425" y="380">Option 2</text><g transform="translate(350,400)"><line stroke="black" stroke-width="2" transform="rotate(147,142.75,138.75)" x1="118" x2="167.5" y1="114" y2="163.5" /><line stroke="black" stroke-width="2" transform="rotate(50,100.35,95.35)" x1="80" x2="120.7" y1="75" y2="115.7" /></g><text font-family="Arial" font-size="14" text-anchor="middle" x="175" y="630">Option 3</text><g transform="translate(100,650)"><polygon fill="none" points="118,159 163,159 140.5,114" stroke="black" stroke-width="2" transform="rotate(142,140.5,136.5)" /><polygon fill="none" points="80,112 117,112 98.5,75" stroke="black" stroke-width="2" transform="rotate(45,98.5,93.5)" /></g><text font-family="Arial" font-size="14" text-anchor="middle" x="425" y="630">Option 4</text><g transform="translate(350,650)"><rect fill="none" height="39.60000000000001" stroke="black" stroke-width="2" transform="rotate(148,142.75,133.8)" width="49.50000000000001" x="118" y="114" /><rect fill="none" height="32.56" stroke="black" stroke-width="2" transform="rotate(48,100.35,91.28)" width="40.7" x="80" y="75" /></g></svg>