<?xml version="1.0" encoding="utf-8" ?>
<svg baseProfile="full" height="1000px" version="1.1" width="600px" xmlns="http://www.w3.org/2000/svg" xmlns:ev="http://www.w3.org/2001/xml-events" xmlns:xlink="http://www.w3.org/1999/xlink"><defs /><rect fill="white" height="100%" width="100%" x="0" y="0" /><text font-family="Arial" font-size="24" text-anchor="middle" x="300" y="40">Visual Discrimination Test</text><text font-family="Arial" font-size="18" text-anchor="middle" x="300" y="80">Target Pattern</text><g transform="translate(200,100)"><polygon fill="none" points="49,163 90,163 69.5,122" stroke="black" stroke-width="2" transform="rotate(130,69.5,142.5)" /><line stroke="black" stroke-width="2" transform="rotate(115,126.5,96.5)" x1="106" x2="147" y1="76" y2="117" /><rect fill="none" height="32" stroke="black" stroke-width="2" transform="rotate(352,54.0,124.0)" width="32" x="38" y="108" /><polygon fill="none" points="98,66 148,66 123.0,16" stroke="black" stroke-width="2" transform="rotate(299,123.0,41.0)" /><polygon fill="none" points="129,146 168,146 148.5,107" stroke="black" stroke-width="2" transform="rotate(72,148.5,126.5)" /><line stroke="black" stroke-width="2" transform="rotate(221,168.0,65.0)" x1="149" x2="187" y1="46" y2="84" /><line stroke="black" stroke-width="2" transform="rotate(121,71.0,141.0)" x1="52" x2="90" y1="122" y2="160" /></g><text font-family="Arial" font-size="18" text-anchor="middle" x="300" y="350">Options</text><text font-family="Arial" font-size="14" text-anchor="middle" x="175" y="380">Option 1</text><g transform="translate(100,400)"><polygon fill="none" points="49,167.92000000000002 81.80000000000001,167.92000000000002 65.4,122" stroke="black" stroke-width="2" transform="rotate(153,65.4,144.96)" /><line stroke="black" stroke-width="2" transform="rotate(140,122.4,92.4)" x1="106" x2="138.8" y1="76" y2="108.80000000000001" /><rect fill="none" height="35.839999999999996" stroke="black" stroke-width="2" transform="rotate(379,50.8,125.92)" width="25.6" x="38" y="108" /><polygon fill="none" points="98,72.0 138.0,72.0 118.0,16" stroke="black" stroke-width="2" transform="rotate(323,118.0,44.0)" /><polygon fill="none" points="129,150.68 160.2,150.68 144.6,107" stroke="black" stroke-width="2" transform="rotate(98,144.6,128.84)" /><line stroke="black" stroke-width="2" transform="rotate(246,164.2,61.2)" x1="149" x2="179.4" y1="46" y2="76.4" /><line stroke="black" stroke-width="2" transform="rotate(145,67.2,137.2)" x1="52" x2="82.4" y1="122" y2="152.4" /></g><text font-family="Arial" font-size="14" text-anchor="middle" x="425" y="380">Option 2</text><g transform="translate(350,400)"><polygon fill="none" points="49,163 90,163 69.5,122" stroke="black" stroke-width="2" transform="rotate(130,69.5,142.5)" /><line stroke="black" stroke-width="2" transform="rotate(115,126.5,96.5)" x1="106" x2="147" y1="76" y2="117" /><rect fill="none" height="32" stroke="black" stroke-width="2" transform="rotate(352,54.0,124.0)" width="32" x="38" y="108" /><polygon fill="none" points="98,66 148,66 123.0,16" stroke="black" stroke-width="2" transform="rotate(299,123.0,41.0)" /><polygon fill="none" points="129,146 168,146 148.5,107" stroke="black" stroke-width="2" transform="rotate(72,148.5,126.5)" /><line stroke="black" stroke-width="2" transform="rotate(221,168.0,65.0)" x1="149" x2="187" y1="46" y2="84" /><line stroke="black" stroke-width="2" transform="rotate(121,71.0,141.0)" x1="52" x2="90" y1="122" y2="160" /></g><text font-family="Arial" font-size="14" text-anchor="middle" x="175" y="630">Option 3</text><g transform="translate(100,650)"><polygon fill="none" points="49,167.92000000000002 81.80000000000001,167.92000000000002 65.4,122" stroke="black" stroke-width="2" transform="rotate(155,65.4,144.96)" /><line stroke="black" stroke-width="2" transform="rotate(139,122.4,92.4)" x1="106" x2="138.8" y1="76" y2="108.80000000000001" /><rect fill="none" height="35.839999999999996" stroke="black" stroke-width="2" transform="rotate(378,50.8,125.92)" width="25.6" x="38" y="108" /><polygon fill="none" points="98,72.0 138.0,72.0 118.0,16" stroke="black" stroke-width="2" transform="rotate(322,118.0,44.0)" /><polygon fill="none" points="129,150.68 160.2,150.68 144.6,107" stroke="black" stroke-width="2" transform="rotate(99,144.6,128.84)" /><line stroke="black" stroke-width="2" transform="rotate(248,164.2,61.2)" x1="149" x2="179.4" y1="46" y2="76.4" /><line stroke="black" stroke-width="2" transform="rotate(146,67.2,137.2)" x1="52" x2="82.4" y1="122" y2="152.4" /></g><text font-family="Arial" font-size="14" text-anchor="middle" x="425" y="630">Option 4</text><g transform="translate(350,650)"><polygon fill="none" points="49,167.92000000000002 81.80000000000001,167.92000000000002 65.4,122" stroke="black" stroke-width="2" transform="rotate(153,65.4,144.96)" /><line stroke="black" stroke-width="2" transform="rotate(140,122.4,92.4)" x1="106" x2="138.8" y1="76" y2="108.80000000000001" /><rect fill="none" height="35.839999999999996" stroke="black" stroke-width="2" transform="rotate(377,50.8,125.92)" width="25.6" x="38" y="108" /><polygon fill="none" points="98,72.0 138.0,72.0 118.0,16" stroke="black" stroke-width="2" transform="rotate(324,118.0,44.0)" /><polygon fill="none" points="129,150.68 160.2,150.68 144.6,107" stroke="black" stroke-width="2" transform="rotate(97,144.6,128.84)" /><line stroke="black" stroke-width="2" transform="rotate(247,164.2,61.2)" x1="149" x2="179.4" y1="46" y2="76.4" /><line stroke="black" stroke-width="2" transform="rotate(147,67.2,137.2)" x1="52" x2="82.4" y1="122" y2="152.4" /></g></svg>