<?xml version="1.0" encoding="utf-8" ?>
<svg baseProfile="full" height="1000px" version="1.1" width="600px" xmlns="http://www.w3.org/2000/svg" xmlns:ev="http://www.w3.org/2001/xml-events" xmlns:xlink="http://www.w3.org/1999/xlink"><defs /><rect fill="white" height="100%" width="100%" x="0" y="0" /><text font-family="Arial" font-size="24" text-anchor="middle" x="300" y="40">Visual Discrimination Test</text><text font-family="Arial" font-size="18" text-anchor="middle" x="300" y="80">Target Pattern</text><g transform="translate(200,100)"><circle cx="47" cy="91" fill="none" r="19.5" stroke="black" stroke-width="2" /><rect fill="none" height="43" stroke="black" stroke-width="2" transform="rotate(34,120.5,71.5)" width="43" x="99" y="50" /><circle cx="34" cy="148" fill="none" r="23.0" stroke="black" stroke-width="2" /><rect fill="none" height="35" stroke="black" stroke-width="2" transform="rotate(156,62.5,30.5)" width="35" x="45" y="13" /><rect fill="none" height="43" stroke="black" stroke-width="2" transform="rotate(66,153.5,168.5)" width="43" x="132" y="147" /><line stroke="black" stroke-width="2" transform="rotate(217,105.5,165.5)" x1="84" x2="127" y1="144" y2="187" /></g><text font-family="Arial" font-size="18" text-anchor="middle" x="300" y="350">Options</text><text font-family="Arial" font-size="14" text-anchor="middle" x="175" y="380">Option 1</text><g transform="translate(100,400)"><circle cx="47" cy="91" fill="none" r="19.5" stroke="black" stroke-width="2" /><rect fill="none" height="43" stroke="black" stroke-width="2" transform="rotate(34,120.5,71.5)" width="43" x="99" y="50" /><circle cx="34" cy="148" fill="none" r="23.0" stroke="black" stroke-width="2" /><rect fill="none" height="35" stroke="black" stroke-width="2" transform="rotate(156,62.5,30.5)" width="35" x="45" y="13" /><rect fill="none" height="43" stroke="black" stroke-width="2" transform="rotate(66,153.5,168.5)" width="43" x="132" y="147" /><line stroke="black" stroke-width="2" transform="rotate(217,105.5,165.5)" x1="84" x2="127" y1="144" y2="187" /></g><text font-family="Arial" font-size="14" text-anchor="middle" x="425" y="380">Option 2</text><g transform="translate(350,400)"><circle cx="47" cy="91" fill="none" r="15.600000000000001" stroke="black" stroke-width="2" /><rect fill="none" height="48.16" stroke="black" stroke-width="2" transform="rotate(61,116.2,74.08)" width="34.4" x="99" y="50" /><circle cx="34" cy="148" fill="none" r="18.400000000000002" stroke="black" stroke-width="2" /><rect fill="none" height="39.199999999999996" stroke="black" stroke-width="2" transform="rotate(182,59.0,32.599999999999994)" width="28.0" x="45" y="13" /><rect fill="none" height="48.16" stroke="black" stroke-width="2" transform="rotate(89,149.2,171.07999999999998)" width="34.4" x="132" y="147" /><line stroke="black" stroke-width="2" transform="rotate(244,101.2,161.2)" x1="84" x2="118.4" y1="144" y2="178.4" /></g><text font-family="Arial" font-size="14" text-anchor="middle" x="175" y="630">Option 3</text><g transform="translate(100,650)"><circle cx="47" cy="91" fill="none" r="15.600000000000001" stroke="black" stroke-width="2" /><rect fill="none" height="48.16" stroke="black" stroke-width="2" transform="rotate(59,116.2,74.08)" width="34.4" x="99" y="50" /><circle cx="34" cy="148" fill="none" r="18.400000000000002" stroke="black" stroke-width="2" /><rect fill="none" height="39.199999999999996" stroke="black" stroke-width="2" transform="rotate(179,59.0,32.599999999999994)" width="28.0" x="45" y="13" /><rect fill="none" height="48.16" stroke="black" stroke-width="2" transform="rotate(90,149.2,171.07999999999998)" width="34.4" x="132" y="147" /><line stroke="black" stroke-width="2" transform="rotate(241,101.2,161.2)" x1="84" x2="118.4" y1="144" y2="178.4" /></g><text font-family="Arial" font-size="14" text-anchor="middle" x="425" y="630">Option 4</text><g transform="translate(350,650)"><circle cx="47" cy="91" fill="none" r="15.600000000000001" stroke="black" stroke-width="2" /><rect fill="none" height="48.16" stroke="black" stroke-width="2" transform="rotate(57,116.2,74.08)" width="34.4" x="99" y="50" /><circle cx="34" cy="148" fill="none" r="18.400000000000002" stroke="black" stroke-width="2" /><rect fill="none" height="39.199999999999996" stroke="black" stroke-width="2" transform="rotate(179,59.0,32.599999999999994)" width="28.0" x="45" y="13" /><rect fill="none" height="48.16" stroke="black" stroke-width="2" transform="rotate(93,149.2,171.07999999999998)" width="34.4" x="132" y="147" /><line stroke="black" stroke-width="2" transform="rotate(243,101.2,161.2)" x1="84" x2="118.4" y1="144" y2="178.4" /></g></svg>