<?xml version="1.0" encoding="utf-8" ?>
<svg baseProfile="full" height="1000px" version="1.1" width="600px" xmlns="http://www.w3.org/2000/svg" xmlns:ev="http://www.w3.org/2001/xml-events" xmlns:xlink="http://www.w3.org/1999/xlink"><defs /><rect fill="white" height="100%" width="100%" x="0" y="0" /><text font-family="Arial" font-size="24" text-anchor="middle" x="300" y="40">Visual Discrimination Test</text><text font-family="Arial" font-size="18" text-anchor="middle" x="300" y="80">Target Pattern</text><g transform="translate(200,100)"><circle cx="60" cy="38" fill="none" r="19.5" stroke="black" stroke-width="2" /><line stroke="black" stroke-width="2" transform="rotate(121,68.0,73.0)" x1="43" x2="93" y1="48" y2="98" /><line stroke="black" stroke-width="2" transform="rotate(79,119.5,88.5)" x1="102" x2="137" y1="71" y2="106" /><circle cx="32" cy="135" fill="none" r="20.5" stroke="black" stroke-width="2" /><line stroke="black" stroke-width="2" transform="rotate(179,70.0,166.0)" x1="46" x2="94" y1="142" y2="190" /><circle cx="76" cy="78" fill="none" r="18.5" stroke="black" stroke-width="2" /><circle cx="53" cy="113" fill="none" r="24.5" stroke="black" stroke-width="2" /><rect fill="none" height="37" stroke="black" stroke-width="2" transform="rotate(133,64.5,33.5)" width="37" x="46" y="15" /></g><text font-family="Arial" font-size="18" text-anchor="middle" x="300" y="350">Options</text><text font-family="Arial" font-size="14" text-anchor="middle" x="175" y="380">Option 1</text><g transform="translate(100,400)"><circle cx="60" cy="38" fill="none" r="19.5" stroke="black" stroke-width="2" /><line stroke="black" stroke-width="2" transform="rotate(121,68.0,73.0)" x1="43" x2="93" y1="48" y2="98" /><line stroke="black" stroke-width="2" transform="rotate(79,119.5,88.5)" x1="102" x2="137" y1="71" y2="106" /><circle cx="32" cy="135" fill="none" r="20.5" stroke="black" stroke-width="2" /><line stroke="black" stroke-width="2" transform="rotate(179,70.0,166.0)" x1="46" x2="94" y1="142" y2="190" /><circle cx="76" cy="78" fill="none" r="18.5" stroke="black" stroke-width="2" /><circle cx="53" cy="113" fill="none" r="24.5" stroke="black" stroke-width="2" /><rect fill="none" height="37" stroke="black" stroke-width="2" transform="rotate(133,64.5,33.5)" width="37" x="46" y="15" /></g><text font-family="Arial" font-size="14" text-anchor="middle" x="425" y="380">Option 2</text><g transform="translate(350,400)"><circle cx="60" cy="38" fill="none" r="15.600000000000001" stroke="black" stroke-width="2" /><line stroke="black" stroke-width="2" transform="rotate(148,63.0,68.0)" x1="43" x2="83.0" y1="48" y2="88.0" /><line stroke="black" stroke-width="2" transform="rotate(104,116.0,85.0)" x1="102" x2="130.0" y1="71" y2="99.0" /><circle cx="32" cy="135" fill="none" r="16.400000000000002" stroke="black" stroke-width="2" /><line stroke="black" stroke-width="2" transform="rotate(204,65.2,161.2)" x1="46" x2="84.4" y1="142" y2="180.4" /><circle cx="76" cy="78" fill="none" r="14.8" stroke="black" stroke-width="2" /><circle cx="53" cy="113" fill="none" r="19.6" stroke="black" stroke-width="2" /><rect fill="none" height="41.44" stroke="black" stroke-width="2" transform="rotate(160,60.8,35.72)" width="29.6" x="46" y="15" /></g><text font-family="Arial" font-size="14" text-anchor="middle" x="175" y="630">Option 3</text><g transform="translate(100,650)"><circle cx="60" cy="38" fill="none" r="15.600000000000001" stroke="black" stroke-width="2" /><line stroke="black" stroke-width="2" transform="rotate(148,63.0,68.0)" x1="43" x2="83.0" y1="48" y2="88.0" /><line stroke="black" stroke-width="2" transform="rotate(104,116.0,85.0)" x1="102" x2="130.0" y1="71" y2="99.0" /><circle cx="32" cy="135" fill="none" r="16.400000000000002" stroke="black" stroke-width="2" /><line stroke="black" stroke-width="2" transform="rotate(203,65.2,161.2)" x1="46" x2="84.4" y1="142" y2="180.4" /><circle cx="76" cy="78" fill="none" r="14.8" stroke="black" stroke-width="2" /><circle cx="53" cy="113" fill="none" r="19.6" stroke="black" stroke-width="2" /><rect fill="none" height="41.44" stroke="black" stroke-width="2" transform="rotate(160,60.8,35.72)" width="29.6" x="46" y="15" /></g><text font-family="Arial" font-size="14" text-anchor="middle" x="425" y="630">Option 4</text><g transform="translate(350,650)"><circle cx="60" cy="38" fill="none" r="15.600000000000001" stroke="black" stroke-width="2" /><line stroke="black" stroke-width="2" transform="rotate(148,63.0,68.0)" x1="43" x2="83.0" y1="48" y2="88.0" /><line stroke="black" stroke-width="2" transform="rotate(106,116.0,85.0)" x1="102" x2="130.0" y1="71" y2="99.0" /><circle cx="32" cy="135" fill="none" r="16.400000000000002" stroke="black" stroke-width="2" /><line stroke="black" stroke-width="2" transform="rotate(205,65.2,161.2)" x1="46" x2="84.4" y1="142" y2="180.4" /><circle cx="76" cy="78" fill="none" r="14.8" stroke="black" stroke-width="2" /><circle cx="53" cy="113" fill="none" r="19.6" stroke="black" stroke-width="2" /><rect fill="none" height="41.44" stroke="black" stroke-width="2" transform="rotate(158,60.8,35.72)" width="29.6" x="46" y="15" /></g></svg>