<?xml version="1.0" encoding="utf-8" ?>
<svg baseProfile="full" height="1000px" version="1.1" width="600px" xmlns="http://www.w3.org/2000/svg" xmlns:ev="http://www.w3.org/2001/xml-events" xmlns:xlink="http://www.w3.org/1999/xlink"><defs /><rect fill="white" height="100%" width="100%" x="0" y="0" /><text font-family="Arial" font-size="24" text-anchor="middle" x="300" y="40">Visual Discrimination Test</text><text font-family="Arial" font-size="18" text-anchor="middle" x="300" y="80">Target Pattern</text><g transform="translate(200,100)"><line stroke="black" stroke-width="2" transform="rotate(199,55.5,118.5)" x1="34" x2="77" y1="97" y2="140" /><polygon fill="none" points="140,171 182,171 161.0,129" stroke="black" stroke-width="2" transform="rotate(201,161.0,150.0)" /><line stroke="black" stroke-width="2" transform="rotate(132,32.5,101.5)" x1="15" x2="50" y1="84" y2="119" /><polygon fill="none" points="69,91 108,91 88.5,52" stroke="black" stroke-width="2" transform="rotate(345,88.5,71.5)" /><circle cx="82" cy="48" fill="none" r="18.5" stroke="black" stroke-width="2" /><polygon fill="none" points="71,89 113,89 92.0,47" stroke="black" stroke-width="2" transform="rotate(190,92.0,68.0)" /></g><text font-family="Arial" font-size="18" text-anchor="middle" x="300" y="350">Options</text><text font-family="Arial" font-size="14" text-anchor="middle" x="175" y="380">Option 1</text><g transform="translate(100,400)"><line stroke="black" stroke-width="2" transform="rotate(226,51.2,114.2)" x1="34" x2="68.4" y1="97" y2="131.4" /><polygon fill="none" points="140,176.04 173.6,176.04 156.8,129" stroke="black" stroke-width="2" transform="rotate(226,156.8,152.52)" /><line stroke="black" stroke-width="2" transform="rotate(155,29.0,98.0)" x1="15" x2="43.0" y1="84" y2="112.0" /><polygon fill="none" points="69,95.68 100.2,95.68 84.6,52" stroke="black" stroke-width="2" transform="rotate(372,84.6,73.84)" /><circle cx="82" cy="48" fill="none" r="14.8" stroke="black" stroke-width="2" /><polygon fill="none" points="71,94.03999999999999 104.6,94.03999999999999 87.8,47" stroke="black" stroke-width="2" transform="rotate(215,87.8,70.52)" /></g><text font-family="Arial" font-size="14" text-anchor="middle" x="425" y="380">Option 2</text><g transform="translate(350,400)"><line stroke="black" stroke-width="2" transform="rotate(223,51.2,114.2)" x1="34" x2="68.4" y1="97" y2="131.4" /><polygon fill="none" points="140,176.04 173.6,176.04 156.8,129" stroke="black" stroke-width="2" transform="rotate(228,156.8,152.52)" /><line stroke="black" stroke-width="2" transform="rotate(158,29.0,98.0)" x1="15" x2="43.0" y1="84" y2="112.0" /><polygon fill="none" points="69,95.68 100.2,95.68 84.6,52" stroke="black" stroke-width="2" transform="rotate(371,84.6,73.84)" /><circle cx="82" cy="48" fill="none" r="14.8" stroke="black" stroke-width="2" /><polygon fill="none" points="71,94.03999999999999 104.6,94.03999999999999 87.8,47" stroke="black" stroke-width="2" transform="rotate(213,87.8,70.52)" /></g><text font-family="Arial" font-size="14" text-anchor="middle" x="175" y="630">Option 3</text><g transform="translate(100,650)"><line stroke="black" stroke-width="2" transform="rotate(199,55.5,118.5)" x1="34" x2="77" y1="97" y2="140" /><polygon fill="none" points="140,171 182,171 161.0,129" stroke="black" stroke-width="2" transform="rotate(201,161.0,150.0)" /><line stroke="black" stroke-width="2" transform="rotate(132,32.5,101.5)" x1="15" x2="50" y1="84" y2="119" /><polygon fill="none" points="69,91 108,91 88.5,52" stroke="black" stroke-width="2" transform="rotate(345,88.5,71.5)" /><circle cx="82" cy="48" fill="none" r="18.5" stroke="black" stroke-width="2" /><polygon fill="none" points="71,89 113,89 92.0,47" stroke="black" stroke-width="2" transform="rotate(190,92.0,68.0)" /></g><text font-family="Arial" font-size="14" text-anchor="middle" x="425" y="630">Option 4</text><g transform="translate(350,650)"><line stroke="black" stroke-width="2" transform="rotate(224,51.2,114.2)" x1="34" x2="68.4" y1="97" y2="131.4" /><polygon fill="none" points="140,176.04 173.6,176.04 156.8,129" stroke="black" stroke-width="2" transform="rotate(228,156.8,152.52)" /><line stroke="black" stroke-width="2" transform="rotate(158,29.0,98.0)" x1="15" x2="43.0" y1="84" y2="112.0" /><polygon fill="none" points="69,95.68 100.2,95.68 84.6,52" stroke="black" stroke-width="2" transform="rotate(372,84.6,73.84)" /><circle cx="82" cy="48" fill="none" r="14.8" stroke="black" stroke-width="2" /><polygon fill="none" points="71,94.03999999999999 104.6,94.03999999999999 87.8,47" stroke="black" stroke-width="2" transform="rotate(214,87.8,70.52)" /></g></svg>