<?xml version="1.0" encoding="utf-8" ?>
<svg baseProfile="full" height="1000px" version="1.1" width="600px" xmlns="http://www.w3.org/2000/svg" xmlns:ev="http://www.w3.org/2001/xml-events" xmlns:xlink="http://www.w3.org/1999/xlink"><defs /><rect fill="white" height="100%" width="100%" x="0" y="0" /><text font-family="Arial" font-size="24" text-anchor="middle" x="300" y="40">Visual Discrimination Test</text><text font-family="Arial" font-size="18" text-anchor="middle" x="300" y="80">Target Pattern</text><g transform="translate(200,100)"><line stroke="black" stroke-width="2" transform="rotate(233,158.0,118.0)" x1="138" x2="178" y1="98" y2="138" /><circle cx="45" cy="14" fill="none" r="24.0" stroke="black" stroke-width="2" /><circle cx="20" cy="69" fill="none" r="22.0" stroke="black" stroke-width="2" /><circle cx="95" cy="102" fill="none" r="18.5" stroke="black" stroke-width="2" /><rect fill="none" height="42" stroke="black" stroke-width="2" transform="rotate(125,148.0,140.0)" width="42" x="127" y="119" /><line stroke="black" stroke-width="2" transform="rotate(285,112.0,46.0)" x1="97" x2="127" y1="31" y2="61" /></g><text font-family="Arial" font-size="18" text-anchor="middle" x="300" y="350">Options</text><text font-family="Arial" font-size="14" text-anchor="middle" x="175" y="380">Option 1</text><g transform="translate(100,400)"><polygon fill="none" points="138,142.8 170.0,142.8 154.0,98" stroke="black" stroke-width="2" transform="rotate(259,154.0,120.4)" /><line stroke="black" stroke-width="2" transform="rotate(343,64.2,33.2)" x1="45" x2="83.4" y1="14" y2="52.400000000000006" /><rect fill="none" height="49.28" stroke="black" stroke-width="2" transform="rotate(237,37.6,93.64)" width="35.2" x="20" y="69" /><line stroke="black" stroke-width="2" transform="rotate(362,109.8,116.8)" x1="95" x2="124.6" y1="102" y2="131.6" /><line stroke="black" stroke-width="2" transform="rotate(150,143.8,135.8)" x1="127" x2="160.6" y1="119" y2="152.6" /><rect fill="none" height="33.599999999999994" stroke="black" stroke-width="2" transform="rotate(312,109.0,47.8)" width="24.0" x="97" y="31" /></g><text font-family="Arial" font-size="14" text-anchor="middle" x="425" y="380">Option 2</text><g transform="translate(350,400)"><line stroke="black" stroke-width="2" transform="rotate(233,158.0,118.0)" x1="138" x2="178" y1="98" y2="138" /><circle cx="45" cy="14" fill="none" r="24.0" stroke="black" stroke-width="2" /><circle cx="20" cy="69" fill="none" r="22.0" stroke="black" stroke-width="2" /><circle cx="95" cy="102" fill="none" r="18.5" stroke="black" stroke-width="2" /><rect fill="none" height="42" stroke="black" stroke-width="2" transform="rotate(125,148.0,140.0)" width="42" x="127" y="119" /><line stroke="black" stroke-width="2" transform="rotate(285,112.0,46.0)" x1="97" x2="127" y1="31" y2="61" /></g><text font-family="Arial" font-size="14" text-anchor="middle" x="175" y="630">Option 3</text><g transform="translate(100,650)"><rect fill="none" height="44.8" stroke="black" stroke-width="2" transform="rotate(256,154.0,120.4)" width="32.0" x="138" y="98" /><line stroke="black" stroke-width="2" transform="rotate(344,64.2,33.2)" x1="45" x2="83.4" y1="14" y2="52.400000000000006" /><line stroke="black" stroke-width="2" transform="rotate(240,37.6,86.6)" x1="20" x2="55.2" y1="69" y2="104.2" /><rect fill="none" height="41.44" stroke="black" stroke-width="2" transform="rotate(360,109.8,122.72)" width="29.6" x="95" y="102" /><line stroke="black" stroke-width="2" transform="rotate(152,143.8,135.8)" x1="127" x2="160.6" y1="119" y2="152.6" /><line stroke="black" stroke-width="2" transform="rotate(311,109.0,43.0)" x1="97" x2="121.0" y1="31" y2="55.0" /></g><text font-family="Arial" font-size="14" text-anchor="middle" x="425" y="630">Option 4</text><g transform="translate(350,650)"><line stroke="black" stroke-width="2" transform="rotate(257,154.0,114.0)" x1="138" x2="170.0" y1="98" y2="130.0" /><line stroke="black" stroke-width="2" transform="rotate(344,64.2,33.2)" x1="45" x2="83.4" y1="14" y2="52.400000000000006" /><polygon fill="none" points="20,118.28 55.2,118.28 37.6,69" stroke="black" stroke-width="2" transform="rotate(237,37.6,93.64)" /><line stroke="black" stroke-width="2" transform="rotate(361,109.8,116.8)" x1="95" x2="124.6" y1="102" y2="131.6" /><line stroke="black" stroke-width="2" transform="rotate(149,143.8,135.8)" x1="127" x2="160.6" y1="119" y2="152.6" /><polygon fill="none" points="97,64.6 121.0,64.6 109.0,31" stroke="black" stroke-width="2" transform="rotate(309,109.0,47.8)" /></g></svg>