<?xml version="1.0" encoding="utf-8" ?>
<svg baseProfile="full" height="1000px" version="1.1" width="600px" xmlns="http://www.w3.org/2000/svg" xmlns:ev="http://www.w3.org/2001/xml-events" xmlns:xlink="http://www.w3.org/1999/xlink"><defs /><rect fill="white" height="100%" width="100%" x="0" y="0" /><text font-family="Arial" font-size="24" text-anchor="middle" x="300" y="40">Visual Discrimination Test</text><text font-family="Arial" font-size="18" text-anchor="middle" x="300" y="80">Target Pattern</text><g transform="translate(200,100)"><line stroke="black" stroke-width="2" transform="rotate(136,108.0,37.0)" x1="84" x2="132" y1="13" y2="61" /><polygon fill="none" points="116,93 154,93 135.0,55" stroke="black" stroke-width="2" transform="rotate(248,135.0,74.0)" /><rect fill="none" height="39" stroke="black" stroke-width="2" transform="rotate(186,104.5,79.5)" width="39" x="85" y="60" /><rect fill="none" height="30" stroke="black" stroke-width="2" transform="rotate(46,85.0,147.0)" width="30" x="70" y="132" /><line stroke="black" stroke-width="2" transform="rotate(334,137.0,134.0)" x1="118" x2="156" y1="115" y2="153" /><rect fill="none" height="43" stroke="black" stroke-width="2" transform="rotate(173,86.5,102.5)" width="43" x="65" y="81" /><rect fill="none" height="34" stroke="black" stroke-width="2" transform="rotate(10,43.0,46.0)" width="34" x="26" y="29" /></g><text font-family="Arial" font-size="18" text-anchor="middle" x="300" y="350">Options</text><text font-family="Arial" font-size="14" text-anchor="middle" x="175" y="380">Option 1</text><g transform="translate(100,400)"><rect fill="none" height="53.760000000000005" stroke="black" stroke-width="2" transform="rotate(163,103.2,39.88)" width="38.400000000000006" x="84" y="13" /><rect fill="none" height="42.56" stroke="black" stroke-width="2" transform="rotate(272,131.2,76.28)" width="30.400000000000002" x="116" y="55" /><rect fill="none" height="43.68" stroke="black" stroke-width="2" transform="rotate(210,100.6,81.84)" width="31.200000000000003" x="85" y="60" /><polygon fill="none" points="70,165.6 94.0,165.6 82.0,132" stroke="black" stroke-width="2" transform="rotate(71,82.0,148.8)" /><rect fill="none" height="42.56" stroke="black" stroke-width="2" transform="rotate(359,133.2,136.28)" width="30.400000000000002" x="118" y="115" /><line stroke="black" stroke-width="2" transform="rotate(200,82.2,98.2)" x1="65" x2="99.4" y1="81" y2="115.4" /><line stroke="black" stroke-width="2" transform="rotate(34,39.6,42.6)" x1="26" x2="53.2" y1="29" y2="56.2" /></g><text font-family="Arial" font-size="14" text-anchor="middle" x="425" y="380">Option 2</text><g transform="translate(350,400)"><rect fill="none" height="53.760000000000005" stroke="black" stroke-width="2" transform="rotate(159,103.2,39.88)" width="38.400000000000006" x="84" y="13" /><rect fill="none" height="42.56" stroke="black" stroke-width="2" transform="rotate(271,131.2,76.28)" width="30.400000000000002" x="116" y="55" /><line stroke="black" stroke-width="2" transform="rotate(212,100.6,75.6)" x1="85" x2="116.2" y1="60" y2="91.2" /><line stroke="black" stroke-width="2" transform="rotate(72,82.0,144.0)" x1="70" x2="94.0" y1="132" y2="156.0" /><line stroke="black" stroke-width="2" transform="rotate(357,133.2,130.2)" x1="118" x2="148.4" y1="115" y2="145.4" /><polygon fill="none" points="65,129.16 99.4,129.16 82.2,81" stroke="black" stroke-width="2" transform="rotate(200,82.2,105.08)" /><polygon fill="none" points="26,67.08 53.2,67.08 39.6,29" stroke="black" stroke-width="2" transform="rotate(36,39.6,48.04)" /></g><text font-family="Arial" font-size="14" text-anchor="middle" x="175" y="630">Option 3</text><g transform="translate(100,650)"><rect fill="none" height="53.760000000000005" stroke="black" stroke-width="2" transform="rotate(163,103.2,39.88)" width="38.400000000000006" x="84" y="13" /><line stroke="black" stroke-width="2" transform="rotate(274,131.2,70.2)" x1="116" x2="146.4" y1="55" y2="85.4" /><rect fill="none" height="43.68" stroke="black" stroke-width="2" transform="rotate(211,100.6,81.84)" width="31.200000000000003" x="85" y="60" /><rect fill="none" height="33.599999999999994" stroke="black" stroke-width="2" transform="rotate(70,82.0,148.8)" width="24.0" x="70" y="132" /><rect fill="none" height="42.56" stroke="black" stroke-width="2" transform="rotate(361,133.2,136.28)" width="30.400000000000002" x="118" y="115" /><rect fill="none" height="48.16" stroke="black" stroke-width="2" transform="rotate(200,82.2,105.08)" width="34.4" x="65" y="81" /><rect fill="none" height="38.08" stroke="black" stroke-width="2" transform="rotate(35,39.6,48.04)" width="27.200000000000003" x="26" y="29" /></g><text font-family="Arial" font-size="14" text-anchor="middle" x="425" y="630">Option 4</text><g transform="translate(350,650)"><line stroke="black" stroke-width="2" transform="rotate(136,108.0,37.0)" x1="84" x2="132" y1="13" y2="61" /><polygon fill="none" points="116,93 154,93 135.0,55" stroke="black" stroke-width="2" transform="rotate(248,135.0,74.0)" /><rect fill="none" height="39" stroke="black" stroke-width="2" transform="rotate(186,104.5,79.5)" width="39" x="85" y="60" /><rect fill="none" height="30" stroke="black" stroke-width="2" transform="rotate(46,85.0,147.0)" width="30" x="70" y="132" /><line stroke="black" stroke-width="2" transform="rotate(334,137.0,134.0)" x1="118" x2="156" y1="115" y2="153" /><rect fill="none" height="43" stroke="black" stroke-width="2" transform="rotate(173,86.5,102.5)" width="43" x="65" y="81" /><rect fill="none" height="34" stroke="black" stroke-width="2" transform="rotate(10,43.0,46.0)" width="34" x="26" y="29" /></g></svg>