<?xml version="1.0" encoding="utf-8" ?>
<svg baseProfile="full" height="1000px" version="1.1" width="600px" xmlns="http://www.w3.org/2000/svg" xmlns:ev="http://www.w3.org/2001/xml-events" xmlns:xlink="http://www.w3.org/1999/xlink"><defs /><rect fill="white" height="100%" width="100%" x="0" y="0" /><text font-family="Arial" font-size="24" text-anchor="middle" x="300" y="40">Visual Discrimination Test</text><text font-family="Arial" font-size="18" text-anchor="middle" x="300" y="80">Target Pattern</text><g transform="translate(200,100)"><polygon fill="none" points="41,139 79,139 60.0,101" stroke="black" stroke-width="2" transform="rotate(113,60.0,120.0)" /><line stroke="black" stroke-width="2" transform="rotate(174,94.0,73.0)" x1="76" x2="112" y1="55" y2="91" /><polygon fill="none" points="146,152 178,152 162.0,120" stroke="black" stroke-width="2" transform="rotate(65,162.0,136.0)" /><line stroke="black" stroke-width="2" transform="rotate(263,109.5,145.5)" x1="90" x2="129" y1="126" y2="165" /><rect fill="none" height="43" stroke="black" stroke-width="2" transform="rotate(72,119.5,145.5)" width="43" x="98" y="124" /></g><text font-family="Arial" font-size="18" text-anchor="middle" x="300" y="350">Options</text><text font-family="Arial" font-size="14" text-anchor="middle" x="175" y="380">Option 1</text><g transform="translate(100,400)"><rect fill="none" height="42.56" stroke="black" stroke-width="2" transform="rotate(137,56.2,122.28)" width="30.400000000000002" x="41" y="101" /><polygon fill="none" points="76,95.32 104.8,95.32 90.4,55" stroke="black" stroke-width="2" transform="rotate(198,90.4,75.16)" /><rect fill="none" height="35.839999999999996" stroke="black" stroke-width="2" transform="rotate(91,158.8,137.92)" width="25.6" x="146" y="120" /><rect fill="none" height="43.68" stroke="black" stroke-width="2" transform="rotate(290,105.6,147.84)" width="31.200000000000003" x="90" y="126" /><polygon fill="none" points="98,172.16 132.4,172.16 115.2,124" stroke="black" stroke-width="2" transform="rotate(96,115.2,148.07999999999998)" /></g><text font-family="Arial" font-size="14" text-anchor="middle" x="425" y="380">Option 2</text><g transform="translate(350,400)"><polygon fill="none" points="41,139 79,139 60.0,101" stroke="black" stroke-width="2" transform="rotate(113,60.0,120.0)" /><line stroke="black" stroke-width="2" transform="rotate(174,94.0,73.0)" x1="76" x2="112" y1="55" y2="91" /><polygon fill="none" points="146,152 178,152 162.0,120" stroke="black" stroke-width="2" transform="rotate(65,162.0,136.0)" /><line stroke="black" stroke-width="2" transform="rotate(263,109.5,145.5)" x1="90" x2="129" y1="126" y2="165" /><rect fill="none" height="43" stroke="black" stroke-width="2" transform="rotate(72,119.5,145.5)" width="43" x="98" y="124" /></g><text font-family="Arial" font-size="14" text-anchor="middle" x="175" y="630">Option 3</text><g transform="translate(100,650)"><line stroke="black" stroke-width="2" transform="rotate(137,56.2,116.2)" x1="41" x2="71.4" y1="101" y2="131.4" /><rect fill="none" height="40.32" stroke="black" stroke-width="2" transform="rotate(200,90.4,75.16)" width="28.8" x="76" y="55" /><polygon fill="none" points="146,155.84 171.6,155.84 158.8,120" stroke="black" stroke-width="2" transform="rotate(91,158.8,137.92)" /><polygon fill="none" points="90,169.68 121.2,169.68 105.6,126" stroke="black" stroke-width="2" transform="rotate(286,105.6,147.84)" /><polygon fill="none" points="98,172.16 132.4,172.16 115.2,124" stroke="black" stroke-width="2" transform="rotate(97,115.2,148.07999999999998)" /></g><text font-family="Arial" font-size="14" text-anchor="middle" x="425" y="630">Option 4</text><g transform="translate(350,650)"><line stroke="black" stroke-width="2" transform="rotate(136,56.2,116.2)" x1="41" x2="71.4" y1="101" y2="131.4" /><polygon fill="none" points="76,95.32 104.8,95.32 90.4,55" stroke="black" stroke-width="2" transform="rotate(199,90.4,75.16)" /><rect fill="none" height="35.839999999999996" stroke="black" stroke-width="2" transform="rotate(90,158.8,137.92)" width="25.6" x="146" y="120" /><polygon fill="none" points="90,169.68 121.2,169.68 105.6,126" stroke="black" stroke-width="2" transform="rotate(289,105.6,147.84)" /><line stroke="black" stroke-width="2" transform="rotate(96,115.2,141.2)" x1="98" x2="132.4" y1="124" y2="158.4" /></g></svg>