<?xml version="1.0" encoding="utf-8" ?>
<svg baseProfile="full" height="1000px" version="1.1" width="600px" xmlns="http://www.w3.org/2000/svg" xmlns:ev="http://www.w3.org/2001/xml-events" xmlns:xlink="http://www.w3.org/1999/xlink"><defs /><rect fill="white" height="100%" width="100%" x="0" y="0" /><text font-family="Arial" font-size="24" text-anchor="middle" x="300" y="40">Visual Discrimination Test</text><text font-family="Arial" font-size="18" text-anchor="middle" x="300" y="80">Target Pattern</text><g transform="translate(200,100)"><line stroke="black" stroke-width="2" transform="rotate(222,161.5,140.5)" x1="139" x2="184" y1="118" y2="163" /><circle cx="17" cy="27" fill="none" r="25.0" stroke="black" stroke-width="2" /><polygon fill="none" points="88,143 123,143 105.5,108" stroke="black" stroke-width="2" transform="rotate(229,105.5,125.5)" /><rect fill="none" height="44" stroke="black" stroke-width="2" transform="rotate(129,87.0,68.0)" width="44" x="65" y="46" /><polygon fill="none" points="43,158 74,158 58.5,127" stroke="black" stroke-width="2" transform="rotate(144,58.5,142.5)" /></g><text font-family="Arial" font-size="18" text-anchor="middle" x="300" y="350">Options</text><text font-family="Arial" font-size="14" text-anchor="middle" x="175" y="380">Option 1</text><g transform="translate(100,400)"><line stroke="black" stroke-width="2" transform="rotate(246,157.0,136.0)" x1="139" x2="175.0" y1="118" y2="154.0" /><polygon fill="none" points="17,83.0 57.0,83.0 37.0,27" stroke="black" stroke-width="2" transform="rotate(273,37.0,55.0)" /><polygon fill="none" points="88,147.2 116.0,147.2 102.0,108" stroke="black" stroke-width="2" transform="rotate(254,102.0,127.6)" /><line stroke="black" stroke-width="2" transform="rotate(154,82.6,63.6)" x1="65" x2="100.2" y1="46" y2="81.2" /><rect fill="none" height="34.72" stroke="black" stroke-width="2" transform="rotate(170,55.4,144.36)" width="24.8" x="43" y="127" /></g><text font-family="Arial" font-size="14" text-anchor="middle" x="425" y="380">Option 2</text><g transform="translate(350,400)"><line stroke="black" stroke-width="2" transform="rotate(222,161.5,140.5)" x1="139" x2="184" y1="118" y2="163" /><circle cx="17" cy="27" fill="none" r="25.0" stroke="black" stroke-width="2" /><polygon fill="none" points="88,143 123,143 105.5,108" stroke="black" stroke-width="2" transform="rotate(229,105.5,125.5)" /><rect fill="none" height="44" stroke="black" stroke-width="2" transform="rotate(129,87.0,68.0)" width="44" x="65" y="46" /><polygon fill="none" points="43,158 74,158 58.5,127" stroke="black" stroke-width="2" transform="rotate(144,58.5,142.5)" /></g><text font-family="Arial" font-size="14" text-anchor="middle" x="175" y="630">Option 3</text><g transform="translate(100,650)"><rect fill="none" height="50.4" stroke="black" stroke-width="2" transform="rotate(247,157.0,143.2)" width="36.0" x="139" y="118" /><line stroke="black" stroke-width="2" transform="rotate(272,37.0,47.0)" x1="17" x2="57.0" y1="27" y2="67.0" /><line stroke="black" stroke-width="2" transform="rotate(254,102.0,122.0)" x1="88" x2="116.0" y1="108" y2="136.0" /><line stroke="black" stroke-width="2" transform="rotate(153,82.6,63.6)" x1="65" x2="100.2" y1="46" y2="81.2" /><polygon fill="none" points="43,161.72 67.8,161.72 55.4,127" stroke="black" stroke-width="2" transform="rotate(167,55.4,144.36)" /></g><text font-family="Arial" font-size="14" text-anchor="middle" x="425" y="630">Option 4</text><g transform="translate(350,650)"><rect fill="none" height="50.4" stroke="black" stroke-width="2" transform="rotate(249,157.0,143.2)" width="36.0" x="139" y="118" /><rect fill="none" height="56.0" stroke="black" stroke-width="2" transform="rotate(270,37.0,55.0)" width="40.0" x="17" y="27" /><rect fill="none" height="39.199999999999996" stroke="black" stroke-width="2" transform="rotate(254,102.0,127.6)" width="28.0" x="88" y="108" /><rect fill="none" height="49.28" stroke="black" stroke-width="2" transform="rotate(156,82.6,70.64)" width="35.2" x="65" y="46" /><line stroke="black" stroke-width="2" transform="rotate(169,55.4,139.4)" x1="43" x2="67.8" y1="127" y2="151.8" /></g></svg>