<?xml version="1.0" encoding="utf-8" ?>
<svg baseProfile="full" height="1000px" version="1.1" width="600px" xmlns="http://www.w3.org/2000/svg" xmlns:ev="http://www.w3.org/2001/xml-events" xmlns:xlink="http://www.w3.org/1999/xlink"><defs /><rect fill="white" height="100%" width="100%" x="0" y="0" /><text font-family="Arial" font-size="24" text-anchor="middle" x="300" y="40">Visual Discrimination Test</text><text font-family="Arial" font-size="18" text-anchor="middle" x="300" y="80">Target Pattern</text><g transform="translate(200,100)"><line stroke="black" stroke-width="2" transform="rotate(267,48.0,151.0)" x1="31" x2="65" y1="134" y2="168" /><polygon fill="none" points="139,75 171,75 155.0,43" stroke="black" stroke-width="2" transform="rotate(142,155.0,59.0)" /><line stroke="black" stroke-width="2" transform="rotate(109,35.5,60.5)" x1="11" x2="60" y1="36" y2="85" /></g><text font-family="Arial" font-size="18" text-anchor="middle" x="300" y="350">Options</text><text font-family="Arial" font-size="14" text-anchor="middle" x="175" y="380">Option 1</text><g transform="translate(100,400)"><line stroke="black" stroke-width="2" transform="rotate(292,44.6,147.6)" x1="31" x2="58.2" y1="134" y2="161.2" /><rect fill="none" height="35.839999999999996" stroke="black" stroke-width="2" transform="rotate(166,151.8,60.92)" width="25.6" x="139" y="43" /><rect fill="none" height="54.88" stroke="black" stroke-width="2" transform="rotate(132,30.6,63.44)" width="39.2" x="11" y="36" /></g><text font-family="Arial" font-size="14" text-anchor="middle" x="425" y="380">Option 2</text><g transform="translate(350,400)"><rect fill="none" height="38.08" stroke="black" stroke-width="2" transform="rotate(292,44.6,153.04)" width="27.200000000000003" x="31" y="134" /><line stroke="black" stroke-width="2" transform="rotate(168,151.8,55.8)" x1="139" x2="164.6" y1="43" y2="68.6" /><polygon fill="none" points="11,90.88 50.2,90.88 30.6,36" stroke="black" stroke-width="2" transform="rotate(132,30.6,63.44)" /></g><text font-family="Arial" font-size="14" text-anchor="middle" x="175" y="630">Option 3</text><g transform="translate(100,650)"><rect fill="none" height="38.08" stroke="black" stroke-width="2" transform="rotate(294,44.6,153.04)" width="27.200000000000003" x="31" y="134" /><polygon fill="none" points="139,78.84 164.6,78.84 151.8,43" stroke="black" stroke-width="2" transform="rotate(165,151.8,60.92)" /><line stroke="black" stroke-width="2" transform="rotate(136,30.6,55.6)" x1="11" x2="50.2" y1="36" y2="75.2" /></g><text font-family="Arial" font-size="14" text-anchor="middle" x="425" y="630">Option 4</text><g transform="translate(350,650)"><line stroke="black" stroke-width="2" transform="rotate(267,48.0,151.0)" x1="31" x2="65" y1="134" y2="168" /><polygon fill="none" points="139,75 171,75 155.0,43" stroke="black" stroke-width="2" transform="rotate(142,155.0,59.0)" /><line stroke="black" stroke-width="2" transform="rotate(109,35.5,60.5)" x1="11" x2="60" y1="36" y2="85" /></g></svg>