<?xml version="1.0" encoding="utf-8" ?>
<svg baseProfile="full" height="1000px" version="1.1" width="600px" xmlns="http://www.w3.org/2000/svg" xmlns:ev="http://www.w3.org/2001/xml-events" xmlns:xlink="http://www.w3.org/1999/xlink"><defs /><rect fill="white" height="100%" width="100%" x="0" y="0" /><text font-family="Arial" font-size="24" text-anchor="middle" x="300" y="40">Visual Discrimination Test</text><text font-family="Arial" font-size="18" text-anchor="middle" x="300" y="80">Target Pattern</text><g transform="translate(200,100)"><circle cx="41" cy="42" fill="none" r="22.5" stroke="black" stroke-width="2" /><polygon fill="none" points="49,108 87,108 68.0,70" stroke="black" stroke-width="2" transform="rotate(95,68.0,89.0)" /><line stroke="black" stroke-width="2" transform="rotate(277,143.5,159.5)" x1="128" x2="159" y1="144" y2="175" /><rect fill="none" height="38" stroke="black" stroke-width="2" transform="rotate(108,139.0,98.0)" width="38" x="120" y="79" /></g><text font-family="Arial" font-size="18" text-anchor="middle" x="300" y="350">Options</text><text font-family="Arial" font-size="14" text-anchor="middle" x="175" y="380">Option 1</text><g transform="translate(100,400)"><circle cx="41" cy="42" fill="none" r="22.5" stroke="black" stroke-width="2" /><polygon fill="none" points="49,108 87,108 68.0,70" stroke="black" stroke-width="2" transform="rotate(95,68.0,89.0)" /><line stroke="black" stroke-width="2" transform="rotate(277,143.5,159.5)" x1="128" x2="159" y1="144" y2="175" /><rect fill="none" height="38" stroke="black" stroke-width="2" transform="rotate(108,139.0,98.0)" width="38" x="120" y="79" /></g><text font-family="Arial" font-size="14" text-anchor="middle" x="425" y="380">Option 2</text><g transform="translate(350,400)"><polygon fill="none" points="41,81.60000000000001 90.5,81.60000000000001 65.75,42" stroke="black" stroke-width="2" transform="rotate(185,65.75,61.800000000000004)" /><polygon fill="none" points="49,103.44 90.80000000000001,103.44 69.9,70" stroke="black" stroke-width="2" transform="rotate(101,69.9,86.72)" /><polygon fill="none" points="128,171.28 162.1,171.28 145.05,144" stroke="black" stroke-width="2" transform="rotate(280,145.05,157.64)" /><rect fill="none" height="33.440000000000005" stroke="black" stroke-width="2" transform="rotate(113,140.9,95.72)" width="41.800000000000004" x="120" y="79" /></g><text font-family="Arial" font-size="14" text-anchor="middle" x="175" y="630">Option 3</text><g transform="translate(100,650)"><rect fill="none" height="39.60000000000001" stroke="black" stroke-width="2" transform="rotate(183,65.75,61.800000000000004)" width="49.50000000000001" x="41" y="42" /><rect fill="none" height="33.440000000000005" stroke="black" stroke-width="2" transform="rotate(100,69.9,86.72)" width="41.800000000000004" x="49" y="70" /><rect fill="none" height="27.28" stroke="black" stroke-width="2" transform="rotate(284,145.05,157.64)" width="34.1" x="128" y="144" /><polygon fill="none" points="120,112.44 161.8,112.44 140.9,79" stroke="black" stroke-width="2" transform="rotate(115,140.9,95.72)" /></g><text font-family="Arial" font-size="14" text-anchor="middle" x="425" y="630">Option 4</text><g transform="translate(350,650)"><line stroke="black" stroke-width="2" transform="rotate(184,65.75,66.75)" x1="41" x2="90.5" y1="42" y2="91.5" /><line stroke="black" stroke-width="2" transform="rotate(99,69.9,90.9)" x1="49" x2="90.80000000000001" y1="70" y2="111.80000000000001" /><rect fill="none" height="27.28" stroke="black" stroke-width="2" transform="rotate(281,145.05,157.64)" width="34.1" x="128" y="144" /><line stroke="black" stroke-width="2" transform="rotate(113,140.9,99.9)" x1="120" x2="161.8" y1="79" y2="120.80000000000001" /></g></svg>