<?xml version="1.0" encoding="utf-8" ?>
<svg baseProfile="full" height="1000px" version="1.1" width="600px" xmlns="http://www.w3.org/2000/svg" xmlns:ev="http://www.w3.org/2001/xml-events" xmlns:xlink="http://www.w3.org/1999/xlink"><defs /><rect fill="white" height="100%" width="100%" x="0" y="0" /><text font-family="Arial" font-size="24" text-anchor="middle" x="300" y="40">Visual Discrimination Test</text><text font-family="Arial" font-size="18" text-anchor="middle" x="300" y="80">Target Pattern</text><g transform="translate(200,100)"><circle cx="88" cy="35" fill="none" r="16.0" stroke="black" stroke-width="2" /><rect fill="none" height="50" stroke="black" stroke-width="2" transform="rotate(326,37.0,71.0)" width="50" x="12" y="46" /><line stroke="black" stroke-width="2" transform="rotate(68,51.5,165.5)" x1="36" x2="67" y1="150" y2="181" /><circle cx="97" cy="126" fill="none" r="18.5" stroke="black" stroke-width="2" /><rect fill="none" height="47" stroke="black" stroke-width="2" transform="rotate(342,165.5,88.5)" width="47" x="142" y="65" /><line stroke="black" stroke-width="2" transform="rotate(193,50.0,28.0)" x1="34" x2="66" y1="12" y2="44" /><circle cx="26" cy="136" fill="none" r="20.5" stroke="black" stroke-width="2" /></g><text font-family="Arial" font-size="18" text-anchor="middle" x="300" y="350">Options</text><text font-family="Arial" font-size="14" text-anchor="middle" x="175" y="380">Option 1</text><g transform="translate(100,400)"><circle cx="88" cy="35" fill="none" r="16.0" stroke="black" stroke-width="2" /><rect fill="none" height="50" stroke="black" stroke-width="2" transform="rotate(326,37.0,71.0)" width="50" x="12" y="46" /><line stroke="black" stroke-width="2" transform="rotate(68,51.5,165.5)" x1="36" x2="67" y1="150" y2="181" /><circle cx="97" cy="126" fill="none" r="18.5" stroke="black" stroke-width="2" /><rect fill="none" height="47" stroke="black" stroke-width="2" transform="rotate(342,165.5,88.5)" width="47" x="142" y="65" /><line stroke="black" stroke-width="2" transform="rotate(193,50.0,28.0)" x1="34" x2="66" y1="12" y2="44" /><circle cx="26" cy="136" fill="none" r="20.5" stroke="black" stroke-width="2" /></g><text font-family="Arial" font-size="14" text-anchor="middle" x="425" y="380">Option 2</text><g transform="translate(350,400)"><circle cx="88" cy="35" fill="none" r="17.6" stroke="black" stroke-width="2" /><rect fill="none" height="77.0" stroke="black" stroke-width="2" transform="rotate(349,39.5,84.5)" width="55.00000000000001" x="12" y="46" /><line stroke="black" stroke-width="2" transform="rotate(91,53.05,167.05)" x1="36" x2="70.1" y1="150" y2="184.1" /><circle cx="97" cy="126" fill="none" r="20.35" stroke="black" stroke-width="2" /><rect fill="none" height="72.38" stroke="black" stroke-width="2" transform="rotate(365,167.85,101.19)" width="51.7" x="142" y="65" /><line stroke="black" stroke-width="2" transform="rotate(219,51.6,29.6)" x1="34" x2="69.2" y1="12" y2="47.2" /><circle cx="26" cy="136" fill="none" r="22.55" stroke="black" stroke-width="2" /></g><text font-family="Arial" font-size="14" text-anchor="middle" x="175" y="630">Option 3</text><g transform="translate(100,650)"><circle cx="88" cy="35" fill="none" r="17.6" stroke="black" stroke-width="2" /><rect fill="none" height="77.0" stroke="black" stroke-width="2" transform="rotate(351,39.5,84.5)" width="55.00000000000001" x="12" y="46" /><line stroke="black" stroke-width="2" transform="rotate(95,53.05,167.05)" x1="36" x2="70.1" y1="150" y2="184.1" /><circle cx="97" cy="126" fill="none" r="20.35" stroke="black" stroke-width="2" /><rect fill="none" height="72.38" stroke="black" stroke-width="2" transform="rotate(367,167.85,101.19)" width="51.7" x="142" y="65" /><line stroke="black" stroke-width="2" transform="rotate(219,51.6,29.6)" x1="34" x2="69.2" y1="12" y2="47.2" /><circle cx="26" cy="136" fill="none" r="22.55" stroke="black" stroke-width="2" /></g><text font-family="Arial" font-size="14" text-anchor="middle" x="425" y="630">Option 4</text><g transform="translate(350,650)"><circle cx="88" cy="35" fill="none" r="17.6" stroke="black" stroke-width="2" /><rect fill="none" height="77.0" stroke="black" stroke-width="2" transform="rotate(350,39.5,84.5)" width="55.00000000000001" x="12" y="46" /><line stroke="black" stroke-width="2" transform="rotate(91,53.05,167.05)" x1="36" x2="70.1" y1="150" y2="184.1" /><circle cx="97" cy="126" fill="none" r="20.35" stroke="black" stroke-width="2" /><rect fill="none" height="72.38" stroke="black" stroke-width="2" transform="rotate(367,167.85,101.19)" width="51.7" x="142" y="65" /><line stroke="black" stroke-width="2" transform="rotate(219,51.6,29.6)" x1="34" x2="69.2" y1="12" y2="47.2" /><circle cx="26" cy="136" fill="none" r="22.55" stroke="black" stroke-width="2" /></g></svg>