<?xml version="1.0" encoding="utf-8" ?>
<svg baseProfile="full" height="1000px" version="1.1" width="600px" xmlns="http://www.w3.org/2000/svg" xmlns:ev="http://www.w3.org/2001/xml-events" xmlns:xlink="http://www.w3.org/1999/xlink"><defs /><rect fill="white" height="100%" width="100%" x="0" y="0" /><text font-family="Arial" font-size="24" text-anchor="middle" x="300" y="40">Visual Discrimination Test</text><text font-family="Arial" font-size="18" text-anchor="middle" x="300" y="80">Target Pattern</text><g transform="translate(200,100)"><line stroke="black" stroke-width="2" transform="rotate(21,80.0,127.0)" x1="65" x2="95" y1="112" y2="142" /><rect fill="none" height="42" stroke="black" stroke-width="2" transform="rotate(167,90.0,159.0)" width="42" x="69" y="138" /><line stroke="black" stroke-width="2" transform="rotate(216,30.5,58.5)" x1="14" x2="47" y1="42" y2="75" /><line stroke="black" stroke-width="2" transform="rotate(202,65.0,54.0)" x1="44" x2="86" y1="33" y2="75" /><rect fill="none" height="39" stroke="black" stroke-width="2" transform="rotate(344,31.5,67.5)" width="39" x="12" y="48" /><circle cx="149" cy="84" fill="none" r="19.0" stroke="black" stroke-width="2" /></g><text font-family="Arial" font-size="18" text-anchor="middle" x="300" y="350">Options</text><text font-family="Arial" font-size="14" text-anchor="middle" x="175" y="380">Option 1</text><g transform="translate(100,400)"><line stroke="black" stroke-width="2" transform="rotate(48,81.5,128.5)" x1="65" x2="98.0" y1="112" y2="145.0" /><rect fill="none" height="64.68" stroke="black" stroke-width="2" transform="rotate(194,92.1,170.34)" width="46.2" x="69" y="138" /><line stroke="black" stroke-width="2" transform="rotate(241,32.150000000000006,60.150000000000006)" x1="14" x2="50.300000000000004" y1="42" y2="78.30000000000001" /><line stroke="black" stroke-width="2" transform="rotate(225,67.1,56.1)" x1="44" x2="90.2" y1="33" y2="79.2" /><rect fill="none" height="60.06" stroke="black" stroke-width="2" transform="rotate(371,33.45,78.03)" width="42.900000000000006" x="12" y="48" /><circle cx="149" cy="84" fill="none" r="20.900000000000002" stroke="black" stroke-width="2" /></g><text font-family="Arial" font-size="14" text-anchor="middle" x="425" y="380">Option 2</text><g transform="translate(350,400)"><line stroke="black" stroke-width="2" transform="rotate(21,80.0,127.0)" x1="65" x2="95" y1="112" y2="142" /><rect fill="none" height="42" stroke="black" stroke-width="2" transform="rotate(167,90.0,159.0)" width="42" x="69" y="138" /><line stroke="black" stroke-width="2" transform="rotate(216,30.5,58.5)" x1="14" x2="47" y1="42" y2="75" /><line stroke="black" stroke-width="2" transform="rotate(202,65.0,54.0)" x1="44" x2="86" y1="33" y2="75" /><rect fill="none" height="39" stroke="black" stroke-width="2" transform="rotate(344,31.5,67.5)" width="39" x="12" y="48" /><circle cx="149" cy="84" fill="none" r="19.0" stroke="black" stroke-width="2" /></g><text font-family="Arial" font-size="14" text-anchor="middle" x="175" y="630">Option 3</text><g transform="translate(100,650)"><line stroke="black" stroke-width="2" transform="rotate(48,81.5,128.5)" x1="65" x2="98.0" y1="112" y2="145.0" /><rect fill="none" height="64.68" stroke="black" stroke-width="2" transform="rotate(194,92.1,170.34)" width="46.2" x="69" y="138" /><line stroke="black" stroke-width="2" transform="rotate(243,32.150000000000006,60.150000000000006)" x1="14" x2="50.300000000000004" y1="42" y2="78.30000000000001" /><line stroke="black" stroke-width="2" transform="rotate(229,67.1,56.1)" x1="44" x2="90.2" y1="33" y2="79.2" /><rect fill="none" height="60.06" stroke="black" stroke-width="2" transform="rotate(371,33.45,78.03)" width="42.900000000000006" x="12" y="48" /><circle cx="149" cy="84" fill="none" r="20.900000000000002" stroke="black" stroke-width="2" /></g><text font-family="Arial" font-size="14" text-anchor="middle" x="425" y="630">Option 4</text><g transform="translate(350,650)"><line stroke="black" stroke-width="2" transform="rotate(48,81.5,128.5)" x1="65" x2="98.0" y1="112" y2="145.0" /><rect fill="none" height="64.68" stroke="black" stroke-width="2" transform="rotate(193,92.1,170.34)" width="46.2" x="69" y="138" /><line stroke="black" stroke-width="2" transform="rotate(239,32.150000000000006,60.150000000000006)" x1="14" x2="50.300000000000004" y1="42" y2="78.30000000000001" /><line stroke="black" stroke-width="2" transform="rotate(228,67.1,56.1)" x1="44" x2="90.2" y1="33" y2="79.2" /><rect fill="none" height="60.06" stroke="black" stroke-width="2" transform="rotate(367,33.45,78.03)" width="42.900000000000006" x="12" y="48" /><circle cx="149" cy="84" fill="none" r="20.900000000000002" stroke="black" stroke-width="2" /></g></svg>