<?xml version="1.0" encoding="utf-8" ?>
<svg baseProfile="full" height="1000px" version="1.1" width="600px" xmlns="http://www.w3.org/2000/svg" xmlns:ev="http://www.w3.org/2001/xml-events" xmlns:xlink="http://www.w3.org/1999/xlink"><defs /><rect fill="white" height="100%" width="100%" x="0" y="0" /><text font-family="Arial" font-size="24" text-anchor="middle" x="300" y="40">Visual Discrimination Test</text><text font-family="Arial" font-size="18" text-anchor="middle" x="300" y="80">Target Pattern</text><g transform="translate(200,100)"><line stroke="black" stroke-width="2" transform="rotate(264,162.5,95.5)" x1="139" x2="186" y1="72" y2="119" /><rect fill="none" height="35" stroke="black" stroke-width="2" transform="rotate(303,80.5,154.5)" width="35" x="63" y="137" /><line stroke="black" stroke-width="2" transform="rotate(87,57.0,59.0)" x1="42" x2="72" y1="44" y2="74" /><circle cx="23" cy="128" fill="none" r="19.0" stroke="black" stroke-width="2" /></g><text font-family="Arial" font-size="18" text-anchor="middle" x="300" y="350">Options</text><text font-family="Arial" font-size="14" text-anchor="middle" x="175" y="380">Option 1</text><g transform="translate(100,400)"><line stroke="black" stroke-width="2" transform="rotate(264,162.5,95.5)" x1="139" x2="186" y1="72" y2="119" /><rect fill="none" height="35" stroke="black" stroke-width="2" transform="rotate(303,80.5,154.5)" width="35" x="63" y="137" /><line stroke="black" stroke-width="2" transform="rotate(87,57.0,59.0)" x1="42" x2="72" y1="44" y2="74" /><circle cx="23" cy="128" fill="none" r="19.0" stroke="black" stroke-width="2" /></g><text font-family="Arial" font-size="14" text-anchor="middle" x="425" y="380">Option 2</text><g transform="translate(350,400)"><line stroke="black" stroke-width="2" transform="rotate(288,164.85,97.85)" x1="139" x2="190.7" y1="72" y2="123.7" /><rect fill="none" height="53.9" stroke="black" stroke-width="2" transform="rotate(328,82.25,163.95)" width="38.5" x="63" y="137" /><line stroke="black" stroke-width="2" transform="rotate(110,58.5,60.5)" x1="42" x2="75.0" y1="44" y2="77.0" /><circle cx="23" cy="128" fill="none" r="20.900000000000002" stroke="black" stroke-width="2" /></g><text font-family="Arial" font-size="14" text-anchor="middle" x="175" y="630">Option 3</text><g transform="translate(100,650)"><line stroke="black" stroke-width="2" transform="rotate(291,164.85,97.85)" x1="139" x2="190.7" y1="72" y2="123.7" /><rect fill="none" height="53.9" stroke="black" stroke-width="2" transform="rotate(328,82.25,163.95)" width="38.5" x="63" y="137" /><line stroke="black" stroke-width="2" transform="rotate(110,58.5,60.5)" x1="42" x2="75.0" y1="44" y2="77.0" /><circle cx="23" cy="128" fill="none" r="20.900000000000002" stroke="black" stroke-width="2" /></g><text font-family="Arial" font-size="14" text-anchor="middle" x="425" y="630">Option 4</text><g transform="translate(350,650)"><line stroke="black" stroke-width="2" transform="rotate(289,164.85,97.85)" x1="139" x2="190.7" y1="72" y2="123.7" /><rect fill="none" height="53.9" stroke="black" stroke-width="2" transform="rotate(327,82.25,163.95)" width="38.5" x="63" y="137" /><line stroke="black" stroke-width="2" transform="rotate(111,58.5,60.5)" x1="42" x2="75.0" y1="44" y2="77.0" /><circle cx="23" cy="128" fill="none" r="20.900000000000002" stroke="black" stroke-width="2" /></g></svg>