<?xml version="1.0" encoding="utf-8" ?>
<svg baseProfile="full" height="1000px" version="1.1" width="600px" xmlns="http://www.w3.org/2000/svg" xmlns:ev="http://www.w3.org/2001/xml-events" xmlns:xlink="http://www.w3.org/1999/xlink"><defs /><rect fill="white" height="100%" width="100%" x="0" y="0" /><text font-family="Arial" font-size="24" text-anchor="middle" x="300" y="40">Visual Discrimination Test</text><text font-family="Arial" font-size="18" text-anchor="middle" x="300" y="80">Target Pattern</text><g transform="translate(200,100)"><circle cx="81" cy="56" fill="none" r="24.5" stroke="black" stroke-width="2" /><rect fill="none" height="39" stroke="black" stroke-width="2" transform="rotate(186,146.5,130.5)" width="39" x="127" y="111" /><circle cx="131" cy="62" fill="none" r="17.5" stroke="black" stroke-width="2" /><rect fill="none" height="35" stroke="black" stroke-width="2" transform="rotate(131,84.5,54.5)" width="35" x="67" y="37" /><polygon fill="none" points="130,135 170,135 150.0,95" stroke="black" stroke-width="2" transform="rotate(333,150.0,115.0)" /><circle cx="57" cy="38" fill="none" r="19.5" stroke="black" stroke-width="2" /><polygon fill="none" points="76,140 117,140 96.5,99" stroke="black" stroke-width="2" transform="rotate(35,96.5,119.5)" /></g><text font-family="Arial" font-size="18" text-anchor="middle" x="300" y="350">Options</text><text font-family="Arial" font-size="14" text-anchor="middle" x="175" y="380">Option 1</text><g transform="translate(100,400)"><circle cx="81" cy="56" fill="none" r="26.950000000000003" stroke="black" stroke-width="2" /><rect fill="none" height="60.06" stroke="black" stroke-width="2" transform="rotate(209,148.45,141.03)" width="42.900000000000006" x="127" y="111" /><circle cx="131" cy="62" fill="none" r="19.25" stroke="black" stroke-width="2" /><rect fill="none" height="53.9" stroke="black" stroke-width="2" transform="rotate(154,86.25,63.95)" width="38.5" x="67" y="37" /><polygon fill="none" points="130,156.6 174.0,156.6 152.0,95" stroke="black" stroke-width="2" transform="rotate(360,152.0,125.8)" /><circle cx="57" cy="38" fill="none" r="21.450000000000003" stroke="black" stroke-width="2" /><polygon fill="none" points="76,162.14 121.1,162.14 98.55,99" stroke="black" stroke-width="2" transform="rotate(58,98.55,130.57)" /></g><text font-family="Arial" font-size="14" text-anchor="middle" x="425" y="380">Option 2</text><g transform="translate(350,400)"><circle cx="81" cy="56" fill="none" r="24.5" stroke="black" stroke-width="2" /><rect fill="none" height="39" stroke="black" stroke-width="2" transform="rotate(186,146.5,130.5)" width="39" x="127" y="111" /><circle cx="131" cy="62" fill="none" r="17.5" stroke="black" stroke-width="2" /><rect fill="none" height="35" stroke="black" stroke-width="2" transform="rotate(131,84.5,54.5)" width="35" x="67" y="37" /><polygon fill="none" points="130,135 170,135 150.0,95" stroke="black" stroke-width="2" transform="rotate(333,150.0,115.0)" /><circle cx="57" cy="38" fill="none" r="19.5" stroke="black" stroke-width="2" /><polygon fill="none" points="76,140 117,140 96.5,99" stroke="black" stroke-width="2" transform="rotate(35,96.5,119.5)" /></g><text font-family="Arial" font-size="14" text-anchor="middle" x="175" y="630">Option 3</text><g transform="translate(100,650)"><circle cx="81" cy="56" fill="none" r="26.950000000000003" stroke="black" stroke-width="2" /><rect fill="none" height="60.06" stroke="black" stroke-width="2" transform="rotate(213,148.45,141.03)" width="42.900000000000006" x="127" y="111" /><circle cx="131" cy="62" fill="none" r="19.25" stroke="black" stroke-width="2" /><rect fill="none" height="53.9" stroke="black" stroke-width="2" transform="rotate(154,86.25,63.95)" width="38.5" x="67" y="37" /><polygon fill="none" points="130,156.6 174.0,156.6 152.0,95" stroke="black" stroke-width="2" transform="rotate(359,152.0,125.8)" /><circle cx="57" cy="38" fill="none" r="21.450000000000003" stroke="black" stroke-width="2" /><polygon fill="none" points="76,162.14 121.1,162.14 98.55,99" stroke="black" stroke-width="2" transform="rotate(62,98.55,130.57)" /></g><text font-family="Arial" font-size="14" text-anchor="middle" x="425" y="630">Option 4</text><g transform="translate(350,650)"><circle cx="81" cy="56" fill="none" r="26.950000000000003" stroke="black" stroke-width="2" /><rect fill="none" height="60.06" stroke="black" stroke-width="2" transform="rotate(210,148.45,141.03)" width="42.900000000000006" x="127" y="111" /><circle cx="131" cy="62" fill="none" r="19.25" stroke="black" stroke-width="2" /><rect fill="none" height="53.9" stroke="black" stroke-width="2" transform="rotate(155,86.25,63.95)" width="38.5" x="67" y="37" /><polygon fill="none" points="130,156.6 174.0,156.6 152.0,95" stroke="black" stroke-width="2" transform="rotate(356,152.0,125.8)" /><circle cx="57" cy="38" fill="none" r="21.450000000000003" stroke="black" stroke-width="2" /><polygon fill="none" points="76,162.14 121.1,162.14 98.55,99" stroke="black" stroke-width="2" transform="rotate(62,98.55,130.57)" /></g></svg>