<?xml version="1.0" encoding="utf-8" ?>
<svg baseProfile="full" height="1000px" version="1.1" width="600px" xmlns="http://www.w3.org/2000/svg" xmlns:ev="http://www.w3.org/2001/xml-events" xmlns:xlink="http://www.w3.org/1999/xlink"><defs /><rect fill="white" height="100%" width="100%" x="0" y="0" /><text font-family="Arial" font-size="24" text-anchor="middle" x="300" y="40">Visual Discrimination Test</text><text font-family="Arial" font-size="18" text-anchor="middle" x="300" y="80">Target Pattern</text><g transform="translate(200,100)"><polygon fill="none" points="61,62 102,62 81.5,21" stroke="black" stroke-width="2" transform="rotate(226,81.5,41.5)" /><circle cx="90" cy="79" fill="none" r="21.5" stroke="black" stroke-width="2" /><polygon fill="none" points="54,193 104,193 79.0,143" stroke="black" stroke-width="2" transform="rotate(26,79.0,168.0)" /></g><text font-family="Arial" font-size="18" text-anchor="middle" x="300" y="350">Options</text><text font-family="Arial" font-size="14" text-anchor="middle" x="175" y="380">Option 1</text><g transform="translate(100,400)"><polygon fill="none" points="61,84.14 106.1,84.14 83.55,21" stroke="black" stroke-width="2" transform="rotate(253,83.55,52.57)" /><circle cx="90" cy="79" fill="none" r="23.650000000000002" stroke="black" stroke-width="2" /><polygon fill="none" points="54,220.0 109.0,220.0 81.5,143" stroke="black" stroke-width="2" transform="rotate(49,81.5,181.5)" /></g><text font-family="Arial" font-size="14" text-anchor="middle" x="425" y="380">Option 2</text><g transform="translate(350,400)"><polygon fill="none" points="61,84.14 106.1,84.14 83.55,21" stroke="black" stroke-width="2" transform="rotate(251,83.55,52.57)" /><circle cx="90" cy="79" fill="none" r="23.650000000000002" stroke="black" stroke-width="2" /><polygon fill="none" points="54,220.0 109.0,220.0 81.5,143" stroke="black" stroke-width="2" transform="rotate(49,81.5,181.5)" /></g><text font-family="Arial" font-size="14" text-anchor="middle" x="175" y="630">Option 3</text><g transform="translate(100,650)"><polygon fill="none" points="61,84.14 106.1,84.14 83.55,21" stroke="black" stroke-width="2" transform="rotate(249,83.55,52.57)" /><circle cx="90" cy="79" fill="none" r="23.650000000000002" stroke="black" stroke-width="2" /><polygon fill="none" points="54,220.0 109.0,220.0 81.5,143" stroke="black" stroke-width="2" transform="rotate(49,81.5,181.5)" /></g><text font-family="Arial" font-size="14" text-anchor="middle" x="425" y="630">Option 4</text><g transform="translate(350,650)"><polygon fill="none" points="61,62 102,62 81.5,21" stroke="black" stroke-width="2" transform="rotate(226,81.5,41.5)" /><circle cx="90" cy="79" fill="none" r="21.5" stroke="black" stroke-width="2" /><polygon fill="none" points="54,193 104,193 79.0,143" stroke="black" stroke-width="2" transform="rotate(26,79.0,168.0)" /></g></svg>