<?xml version="1.0" encoding="utf-8" ?>
<svg baseProfile="full" height="1000px" version="1.1" width="600px" xmlns="http://www.w3.org/2000/svg" xmlns:ev="http://www.w3.org/2001/xml-events" xmlns:xlink="http://www.w3.org/1999/xlink"><defs /><rect fill="white" height="100%" width="100%" x="0" y="0" /><text font-family="Arial" font-size="24" text-anchor="middle" x="300" y="40">Visual Discrimination Test</text><text font-family="Arial" font-size="18" text-anchor="middle" x="300" y="80">Target Pattern</text><g transform="translate(200,100)"><circle cx="32" cy="100" fill="none" r="20.0" stroke="black" stroke-width="2" /><rect fill="none" height="48" stroke="black" stroke-width="2" transform="rotate(337,158.0,117.0)" width="48" x="134" y="93" /></g><text font-family="Arial" font-size="18" text-anchor="middle" x="300" y="350">Options</text><text font-family="Arial" font-size="14" text-anchor="middle" x="175" y="380">Option 1</text><g transform="translate(100,400)"><circle cx="32" cy="100" fill="none" r="20.0" stroke="black" stroke-width="2" /><rect fill="none" height="48" stroke="black" stroke-width="2" transform="rotate(337,158.0,117.0)" width="48" x="134" y="93" /></g><text font-family="Arial" font-size="14" text-anchor="middle" x="425" y="380">Option 2</text><g transform="translate(350,400)"><polygon fill="none" points="32,161.6 76.0,161.6 54.0,100" stroke="black" stroke-width="2" transform="rotate(286,54.0,130.8)" /><rect fill="none" height="73.92" stroke="black" stroke-width="2" transform="rotate(364,160.4,129.96)" width="52.800000000000004" x="134" y="93" /></g><text font-family="Arial" font-size="14" text-anchor="middle" x="175" y="630">Option 3</text><g transform="translate(100,650)"><polygon fill="none" points="32,161.6 76.0,161.6 54.0,100" stroke="black" stroke-width="2" transform="rotate(287,54.0,130.8)" /><rect fill="none" height="73.92" stroke="black" stroke-width="2" transform="rotate(362,160.4,129.96)" width="52.800000000000004" x="134" y="93" /></g><text font-family="Arial" font-size="14" text-anchor="middle" x="425" y="630">Option 4</text><g transform="translate(350,650)"><polygon fill="none" points="32,161.6 76.0,161.6 54.0,100" stroke="black" stroke-width="2" transform="rotate(287,54.0,130.8)" /><polygon fill="none" points="134,166.92000000000002 186.8,166.92000000000002 160.4,93" stroke="black" stroke-width="2" transform="rotate(363,160.4,129.96)" /></g></svg>