<?xml version="1.0" encoding="utf-8" ?>
<svg baseProfile="full" height="1000px" version="1.1" width="600px" xmlns="http://www.w3.org/2000/svg" xmlns:ev="http://www.w3.org/2001/xml-events" xmlns:xlink="http://www.w3.org/1999/xlink"><defs /><rect fill="white" height="100%" width="100%" x="0" y="0" /><text font-family="Arial" font-size="24" text-anchor="middle" x="300" y="40">Visual Discrimination Test</text><text font-family="Arial" font-size="18" text-anchor="middle" x="300" y="80">Target Pattern</text><g transform="translate(200,100)"><polygon fill="none" points="142,46 174,46 158.0,14" stroke="black" stroke-width="2" transform="rotate(278,158.0,30.0)" /><rect fill="none" height="48" stroke="black" stroke-width="2" transform="rotate(247,76.0,60.0)" width="48" x="52" y="36" /><line stroke="black" stroke-width="2" transform="rotate(242,90.5,55.5)" x1="75" x2="106" y1="40" y2="71" /><circle cx="72" cy="44" fill="none" r="18.0" stroke="black" stroke-width="2" /><circle cx="128" cy="43" fill="none" r="16.0" stroke="black" stroke-width="2" /><rect fill="none" height="38" stroke="black" stroke-width="2" transform="rotate(206,30.0,132.0)" width="38" x="11" y="113" /><line stroke="black" stroke-width="2" transform="rotate(166,148.0,54.0)" x1="128" x2="168" y1="34" y2="74" /><line stroke="black" stroke-width="2" transform="rotate(102,93.5,162.5)" x1="75" x2="112" y1="144" y2="181" /></g><text font-family="Arial" font-size="18" text-anchor="middle" x="300" y="350">Options</text><text font-family="Arial" font-size="14" text-anchor="middle" x="175" y="380">Option 1</text><g transform="translate(100,400)"><polygon fill="none" points="142,46 174,46 158.0,14" stroke="black" stroke-width="2" transform="rotate(278,158.0,30.0)" /><rect fill="none" height="48" stroke="black" stroke-width="2" transform="rotate(247,76.0,60.0)" width="48" x="52" y="36" /><line stroke="black" stroke-width="2" transform="rotate(242,90.5,55.5)" x1="75" x2="106" y1="40" y2="71" /><circle cx="72" cy="44" fill="none" r="18.0" stroke="black" stroke-width="2" /><circle cx="128" cy="43" fill="none" r="16.0" stroke="black" stroke-width="2" /><rect fill="none" height="38" stroke="black" stroke-width="2" transform="rotate(206,30.0,132.0)" width="38" x="11" y="113" /><line stroke="black" stroke-width="2" transform="rotate(166,148.0,54.0)" x1="128" x2="168" y1="34" y2="74" /><line stroke="black" stroke-width="2" transform="rotate(102,93.5,162.5)" x1="75" x2="112" y1="144" y2="181" /></g><text font-family="Arial" font-size="14" text-anchor="middle" x="425" y="380">Option 2</text><g transform="translate(350,400)"><line stroke="black" stroke-width="2" transform="rotate(301,159.6,31.6)" x1="142" x2="177.2" y1="14" y2="49.2" /><line stroke="black" stroke-width="2" transform="rotate(274,78.4,62.400000000000006)" x1="52" x2="104.80000000000001" y1="36" y2="88.80000000000001" /><rect fill="none" height="47.74" stroke="black" stroke-width="2" transform="rotate(267,92.05,63.870000000000005)" width="34.1" x="75" y="40" /><polygon fill="none" points="72,99.44 111.6,99.44 91.8,44" stroke="black" stroke-width="2" transform="rotate(94,91.8,71.72)" /><polygon fill="none" points="128,92.28 163.2,92.28 145.6,43" stroke="black" stroke-width="2" transform="rotate(163,145.6,67.64)" /><line stroke="black" stroke-width="2" transform="rotate(233,31.900000000000002,133.9)" x1="11" x2="52.800000000000004" y1="113" y2="154.8" /><line stroke="black" stroke-width="2" transform="rotate(189,150.0,56.0)" x1="128" x2="172.0" y1="34" y2="78.0" /><polygon fill="none" points="75,200.98 115.7,200.98 95.35,144" stroke="black" stroke-width="2" transform="rotate(128,95.35,172.49)" /></g><text font-family="Arial" font-size="14" text-anchor="middle" x="175" y="630">Option 3</text><g transform="translate(100,650)"><rect fill="none" height="49.28" stroke="black" stroke-width="2" transform="rotate(303,159.6,38.64)" width="35.2" x="142" y="14" /><line stroke="black" stroke-width="2" transform="rotate(270,78.4,62.400000000000006)" x1="52" x2="104.80000000000001" y1="36" y2="88.80000000000001" /><rect fill="none" height="47.74" stroke="black" stroke-width="2" transform="rotate(267,92.05,63.870000000000005)" width="34.1" x="75" y="40" /><polygon fill="none" points="72,99.44 111.6,99.44 91.8,44" stroke="black" stroke-width="2" transform="rotate(95,91.8,71.72)" /><line stroke="black" stroke-width="2" transform="rotate(162,145.6,60.6)" x1="128" x2="163.2" y1="43" y2="78.2" /><rect fill="none" height="58.52" stroke="black" stroke-width="2" transform="rotate(231,31.900000000000002,142.26)" width="41.800000000000004" x="11" y="113" /><polygon fill="none" points="128,95.6 172.0,95.6 150.0,34" stroke="black" stroke-width="2" transform="rotate(193,150.0,64.8)" /><polygon fill="none" points="75,200.98 115.7,200.98 95.35,144" stroke="black" stroke-width="2" transform="rotate(126,95.35,172.49)" /></g><text font-family="Arial" font-size="14" text-anchor="middle" x="425" y="630">Option 4</text><g transform="translate(350,650)"><line stroke="black" stroke-width="2" transform="rotate(303,159.6,31.6)" x1="142" x2="177.2" y1="14" y2="49.2" /><polygon fill="none" points="52,109.92 104.80000000000001,109.92 78.4,36" stroke="black" stroke-width="2" transform="rotate(271,78.4,72.96000000000001)" /><line stroke="black" stroke-width="2" transform="rotate(266,92.05,57.05)" x1="75" x2="109.1" y1="40" y2="74.1" /><polygon fill="none" points="72,99.44 111.6,99.44 91.8,44" stroke="black" stroke-width="2" transform="rotate(94,91.8,71.72)" /><line stroke="black" stroke-width="2" transform="rotate(160,145.6,60.6)" x1="128" x2="163.2" y1="43" y2="78.2" /><polygon fill="none" points="11,171.52 52.800000000000004,171.52 31.900000000000002,113" stroke="black" stroke-width="2" transform="rotate(233,31.900000000000002,142.26)" /><line stroke="black" stroke-width="2" transform="rotate(189,150.0,56.0)" x1="128" x2="172.0" y1="34" y2="78.0" /><rect fill="none" height="56.98" stroke="black" stroke-width="2" transform="rotate(127,95.35,172.49)" width="40.7" x="75" y="144" /></g></svg>