<?xml version="1.0" encoding="utf-8" ?>
<svg baseProfile="full" height="1000px" version="1.1" width="600px" xmlns="http://www.w3.org/2000/svg" xmlns:ev="http://www.w3.org/2001/xml-events" xmlns:xlink="http://www.w3.org/1999/xlink"><defs /><rect fill="white" height="100%" width="100%" x="0" y="0" /><text font-family="Arial" font-size="24" text-anchor="middle" x="300" y="40">Visual Discrimination Test</text><text font-family="Arial" font-size="18" text-anchor="middle" x="300" y="80">Target Pattern</text><g transform="translate(200,100)"><line stroke="black" stroke-width="2" transform="rotate(118,68.5,77.5)" x1="47" x2="90" y1="56" y2="99" /><circle cx="39" cy="26" fill="none" r="18.0" stroke="black" stroke-width="2" /><polygon fill="none" points="101,62 139,62 120.0,24" stroke="black" stroke-width="2" transform="rotate(281,120.0,43.0)" /><polygon fill="none" points="62,114 101,114 81.5,75" stroke="black" stroke-width="2" transform="rotate(37,81.5,94.5)" /></g><text font-family="Arial" font-size="18" text-anchor="middle" x="300" y="350">Options</text><text font-family="Arial" font-size="14" text-anchor="middle" x="175" y="380">Option 1</text><g transform="translate(100,400)"><line stroke="black" stroke-width="2" transform="rotate(118,68.5,77.5)" x1="47" x2="90" y1="56" y2="99" /><circle cx="39" cy="26" fill="none" r="18.0" stroke="black" stroke-width="2" /><polygon fill="none" points="101,62 139,62 120.0,24" stroke="black" stroke-width="2" transform="rotate(281,120.0,43.0)" /><polygon fill="none" points="62,114 101,114 81.5,75" stroke="black" stroke-width="2" transform="rotate(37,81.5,94.5)" /></g><text font-family="Arial" font-size="14" text-anchor="middle" x="425" y="380">Option 2</text><g transform="translate(350,400)"><line stroke="black" stroke-width="2" transform="rotate(141,70.65,79.65)" x1="47" x2="94.30000000000001" y1="56" y2="103.30000000000001" /><line stroke="black" stroke-width="2" transform="rotate(201,58.8,45.8)" x1="39" x2="78.6" y1="26" y2="65.6" /><rect fill="none" height="58.52" stroke="black" stroke-width="2" transform="rotate(307,121.9,53.260000000000005)" width="41.800000000000004" x="101" y="24" /><polygon fill="none" points="62,135.06 104.9,135.06 83.45,75" stroke="black" stroke-width="2" transform="rotate(64,83.45,105.03)" /></g><text font-family="Arial" font-size="14" text-anchor="middle" x="175" y="630">Option 3</text><g transform="translate(100,650)"><rect fill="none" height="66.22" stroke="black" stroke-width="2" transform="rotate(144,70.65,89.11)" width="47.300000000000004" x="47" y="56" /><line stroke="black" stroke-width="2" transform="rotate(202,58.8,45.8)" x1="39" x2="78.6" y1="26" y2="65.6" /><line stroke="black" stroke-width="2" transform="rotate(304,121.9,44.900000000000006)" x1="101" x2="142.8" y1="24" y2="65.80000000000001" /><polygon fill="none" points="62,135.06 104.9,135.06 83.45,75" stroke="black" stroke-width="2" transform="rotate(61,83.45,105.03)" /></g><text font-family="Arial" font-size="14" text-anchor="middle" x="425" y="630">Option 4</text><g transform="translate(350,650)"><polygon fill="none" points="47,122.22 94.30000000000001,122.22 70.65,56" stroke="black" stroke-width="2" transform="rotate(142,70.65,89.11)" /><line stroke="black" stroke-width="2" transform="rotate(200,58.8,45.8)" x1="39" x2="78.6" y1="26" y2="65.6" /><line stroke="black" stroke-width="2" transform="rotate(304,121.9,44.900000000000006)" x1="101" x2="142.8" y1="24" y2="65.80000000000001" /><polygon fill="none" points="62,135.06 104.9,135.06 83.45,75" stroke="black" stroke-width="2" transform="rotate(62,83.45,105.03)" /></g></svg>