<?xml version="1.0" encoding="utf-8" ?>
<svg baseProfile="full" height="1000px" version="1.1" width="600px" xmlns="http://www.w3.org/2000/svg" xmlns:ev="http://www.w3.org/2001/xml-events" xmlns:xlink="http://www.w3.org/1999/xlink"><defs /><rect fill="white" height="100%" width="100%" x="0" y="0" /><text font-family="Arial" font-size="24" text-anchor="middle" x="300" y="40">Visual Discrimination Test</text><text font-family="Arial" font-size="18" text-anchor="middle" x="300" y="80">Target Pattern</text><g transform="translate(200,100)"><rect fill="none" height="44" stroke="black" stroke-width="2" transform="rotate(110,46.0,129.0)" width="44" x="24" y="107" /><polygon fill="none" points="13,147 54,147 33.5,106" stroke="black" stroke-width="2" transform="rotate(235,33.5,126.5)" /><polygon fill="none" points="37,174 71,174 54.0,140" stroke="black" stroke-width="2" transform="rotate(37,54.0,157.0)" /></g><text font-family="Arial" font-size="18" text-anchor="middle" x="300" y="350">Options</text><text font-family="Arial" font-size="14" text-anchor="middle" x="175" y="380">Option 1</text><g transform="translate(100,400)"><rect fill="none" height="44" stroke="black" stroke-width="2" transform="rotate(110,46.0,129.0)" width="44" x="24" y="107" /><polygon fill="none" points="13,147 54,147 33.5,106" stroke="black" stroke-width="2" transform="rotate(235,33.5,126.5)" /><polygon fill="none" points="37,174 71,174 54.0,140" stroke="black" stroke-width="2" transform="rotate(37,54.0,157.0)" /></g><text font-family="Arial" font-size="14" text-anchor="middle" x="425" y="380">Option 2</text><g transform="translate(350,400)"><rect fill="none" height="67.76" stroke="black" stroke-width="2" transform="rotate(137,48.2,140.88)" width="48.400000000000006" x="24" y="107" /><rect fill="none" height="63.14" stroke="black" stroke-width="2" transform="rotate(260,35.55,137.57)" width="45.1" x="13" y="106" /><rect fill="none" height="52.36000000000001" stroke="black" stroke-width="2" transform="rotate(60,55.7,166.18)" width="37.400000000000006" x="37" y="140" /></g><text font-family="Arial" font-size="14" text-anchor="middle" x="175" y="630">Option 3</text><g transform="translate(100,650)"><line stroke="black" stroke-width="2" transform="rotate(137,48.2,131.2)" x1="24" x2="72.4" y1="107" y2="155.4" /><polygon fill="none" points="13,169.14 58.1,169.14 35.55,106" stroke="black" stroke-width="2" transform="rotate(262,35.55,137.57)" /><polygon fill="none" points="37,192.36 74.4,192.36 55.7,140" stroke="black" stroke-width="2" transform="rotate(60,55.7,166.18)" /></g><text font-family="Arial" font-size="14" text-anchor="middle" x="425" y="630">Option 4</text><g transform="translate(350,650)"><rect fill="none" height="67.76" stroke="black" stroke-width="2" transform="rotate(135,48.2,140.88)" width="48.400000000000006" x="24" y="107" /><polygon fill="none" points="13,169.14 58.1,169.14 35.55,106" stroke="black" stroke-width="2" transform="rotate(259,35.55,137.57)" /><polygon fill="none" points="37,192.36 74.4,192.36 55.7,140" stroke="black" stroke-width="2" transform="rotate(64,55.7,166.18)" /></g></svg>