<?xml version="1.0" encoding="utf-8" ?>
<svg baseProfile="full" height="1000px" version="1.1" width="600px" xmlns="http://www.w3.org/2000/svg" xmlns:ev="http://www.w3.org/2001/xml-events" xmlns:xlink="http://www.w3.org/1999/xlink"><defs /><rect fill="white" height="100%" width="100%" x="0" y="0" /><text font-family="Arial" font-size="24" text-anchor="middle" x="300" y="40">Visual Discrimination Test</text><text font-family="Arial" font-size="18" text-anchor="middle" x="300" y="80">Target Pattern</text><g transform="translate(200,100)"><polygon fill="none" points="80,50 119,50 99.5,11" stroke="black" stroke-width="2" transform="rotate(128,99.5,30.5)" /><circle cx="121" cy="86" fill="none" r="15.0" stroke="black" stroke-width="2" /><polygon fill="none" points="19,146 54,146 36.5,111" stroke="black" stroke-width="2" transform="rotate(78,36.5,128.5)" /><rect fill="none" height="41" stroke="black" stroke-width="2" transform="rotate(63,41.5,110.5)" width="41" x="21" y="90" /></g><text font-family="Arial" font-size="18" text-anchor="middle" x="300" y="350">Options</text><text font-family="Arial" font-size="14" text-anchor="middle" x="175" y="380">Option 1</text><g transform="translate(100,400)"><polygon fill="none" points="80,71.06 122.9,71.06 101.45,11" stroke="black" stroke-width="2" transform="rotate(155,101.45,41.03)" /><line stroke="black" stroke-width="2" transform="rotate(243,137.5,102.5)" x1="121" x2="154.0" y1="86" y2="119.0" /><rect fill="none" height="53.9" stroke="black" stroke-width="2" transform="rotate(101,38.25,137.95)" width="38.5" x="19" y="111" /><rect fill="none" height="63.14" stroke="black" stroke-width="2" transform="rotate(88,43.55,121.57)" width="45.1" x="21" y="90" /></g><text font-family="Arial" font-size="14" text-anchor="middle" x="425" y="380">Option 2</text><g transform="translate(350,400)"><rect fill="none" height="60.06" stroke="black" stroke-width="2" transform="rotate(153,101.45,41.03)" width="42.900000000000006" x="80" y="11" /><polygon fill="none" points="121,132.2 154.0,132.2 137.5,86" stroke="black" stroke-width="2" transform="rotate(243,137.5,109.1)" /><polygon fill="none" points="19,164.9 57.5,164.9 38.25,111" stroke="black" stroke-width="2" transform="rotate(102,38.25,137.95)" /><line stroke="black" stroke-width="2" transform="rotate(86,43.55,112.55)" x1="21" x2="66.1" y1="90" y2="135.1" /></g><text font-family="Arial" font-size="14" text-anchor="middle" x="175" y="630">Option 3</text><g transform="translate(100,650)"><polygon fill="none" points="80,71.06 122.9,71.06 101.45,11" stroke="black" stroke-width="2" transform="rotate(152,101.45,41.03)" /><line stroke="black" stroke-width="2" transform="rotate(244,137.5,102.5)" x1="121" x2="154.0" y1="86" y2="119.0" /><polygon fill="none" points="19,164.9 57.5,164.9 38.25,111" stroke="black" stroke-width="2" transform="rotate(102,38.25,137.95)" /><line stroke="black" stroke-width="2" transform="rotate(86,43.55,112.55)" x1="21" x2="66.1" y1="90" y2="135.1" /></g><text font-family="Arial" font-size="14" text-anchor="middle" x="425" y="630">Option 4</text><g transform="translate(350,650)"><polygon fill="none" points="80,50 119,50 99.5,11" stroke="black" stroke-width="2" transform="rotate(128,99.5,30.5)" /><circle cx="121" cy="86" fill="none" r="15.0" stroke="black" stroke-width="2" /><polygon fill="none" points="19,146 54,146 36.5,111" stroke="black" stroke-width="2" transform="rotate(78,36.5,128.5)" /><rect fill="none" height="41" stroke="black" stroke-width="2" transform="rotate(63,41.5,110.5)" width="41" x="21" y="90" /></g></svg>