<?xml version="1.0" encoding="utf-8" ?>
<svg baseProfile="full" height="1000px" version="1.1" width="600px" xmlns="http://www.w3.org/2000/svg" xmlns:ev="http://www.w3.org/2001/xml-events" xmlns:xlink="http://www.w3.org/1999/xlink"><defs /><rect fill="white" height="100%" width="100%" x="0" y="0" /><text font-family="Arial" font-size="24" text-anchor="middle" x="300" y="40">Visual Discrimination Test</text><text font-family="Arial" font-size="18" text-anchor="middle" x="300" y="80">Target Pattern</text><g transform="translate(200,100)"><circle cx="107" cy="50" fill="none" r="17.5" stroke="black" stroke-width="2" /><line stroke="black" stroke-width="2" transform="rotate(298,66.0,77.0)" x1="45" x2="87" y1="56" y2="98" /><circle cx="130" cy="59" fill="none" r="16.0" stroke="black" stroke-width="2" /><polygon fill="none" points="139,59 184,59 161.5,14" stroke="black" stroke-width="2" transform="rotate(237,161.5,36.5)" /></g><text font-family="Arial" font-size="18" text-anchor="middle" x="300" y="350">Options</text><text font-family="Arial" font-size="14" text-anchor="middle" x="175" y="380">Option 1</text><g transform="translate(100,400)"><polygon fill="none" points="107,80.8 145.5,80.8 126.25,50" stroke="black" stroke-width="2" transform="rotate(83,126.25,65.4)" /><polygon fill="none" points="45,92.96000000000001 91.2,92.96000000000001 68.1,56" stroke="black" stroke-width="2" transform="rotate(304,68.1,74.48)" /><rect fill="none" height="28.160000000000004" stroke="black" stroke-width="2" transform="rotate(276,147.6,73.08)" width="35.2" x="130" y="59" /><polygon fill="none" points="139,53.60000000000001 188.5,53.60000000000001 163.75,14" stroke="black" stroke-width="2" transform="rotate(242,163.75,33.800000000000004)" /></g><text font-family="Arial" font-size="14" text-anchor="middle" x="425" y="380">Option 2</text><g transform="translate(350,400)"><circle cx="107" cy="50" fill="none" r="17.5" stroke="black" stroke-width="2" /><line stroke="black" stroke-width="2" transform="rotate(298,66.0,77.0)" x1="45" x2="87" y1="56" y2="98" /><circle cx="130" cy="59" fill="none" r="16.0" stroke="black" stroke-width="2" /><polygon fill="none" points="139,59 184,59 161.5,14" stroke="black" stroke-width="2" transform="rotate(237,161.5,36.5)" /></g><text font-family="Arial" font-size="14" text-anchor="middle" x="175" y="630">Option 3</text><g transform="translate(100,650)"><rect fill="none" height="30.8" stroke="black" stroke-width="2" transform="rotate(83,126.25,65.4)" width="38.5" x="107" y="50" /><polygon fill="none" points="45,92.96000000000001 91.2,92.96000000000001 68.1,56" stroke="black" stroke-width="2" transform="rotate(301,68.1,74.48)" /><line stroke="black" stroke-width="2" transform="rotate(277,147.6,76.6)" x1="130" x2="165.2" y1="59" y2="94.2" /><polygon fill="none" points="139,53.60000000000001 188.5,53.60000000000001 163.75,14" stroke="black" stroke-width="2" transform="rotate(240,163.75,33.800000000000004)" /></g><text font-family="Arial" font-size="14" text-anchor="middle" x="425" y="630">Option 4</text><g transform="translate(350,650)"><line stroke="black" stroke-width="2" transform="rotate(82,126.25,69.25)" x1="107" x2="145.5" y1="50" y2="88.5" /><polygon fill="none" points="45,92.96000000000001 91.2,92.96000000000001 68.1,56" stroke="black" stroke-width="2" transform="rotate(305,68.1,74.48)" /><polygon fill="none" points="130,87.16 165.2,87.16 147.6,59" stroke="black" stroke-width="2" transform="rotate(277,147.6,73.08)" /><line stroke="black" stroke-width="2" transform="rotate(243,163.75,38.75)" x1="139" x2="188.5" y1="14" y2="63.50000000000001" /></g></svg>