<?xml version="1.0" encoding="utf-8" ?>
<svg baseProfile="full" height="1000px" version="1.1" width="600px" xmlns="http://www.w3.org/2000/svg" xmlns:ev="http://www.w3.org/2001/xml-events" xmlns:xlink="http://www.w3.org/1999/xlink"><defs /><rect fill="white" height="100%" width="100%" x="0" y="0" /><text font-family="Arial" font-size="24" text-anchor="middle" x="300" y="40">Visual Discrimination Test</text><text font-family="Arial" font-size="18" text-anchor="middle" x="300" y="80">Target Pattern</text><g transform="translate(200,100)"><line stroke="black" stroke-width="2" transform="rotate(37,118.0,172.0)" x1="94" x2="142" y1="148" y2="196" /><rect fill="none" height="33" stroke="black" stroke-width="2" transform="rotate(264,124.5,46.5)" width="33" x="108" y="30" /><rect fill="none" height="47" stroke="black" stroke-width="2" transform="rotate(40,66.5,69.5)" width="47" x="43" y="46" /><line stroke="black" stroke-width="2" transform="rotate(265,145.0,145.0)" x1="127" x2="163" y1="127" y2="163" /><line stroke="black" stroke-width="2" transform="rotate(148,96.0,147.0)" x1="76" x2="116" y1="127" y2="167" /><circle cx="22" cy="83" fill="none" r="21.5" stroke="black" stroke-width="2" /><line stroke="black" stroke-width="2" transform="rotate(37,47.0,74.0)" x1="23" x2="71" y1="50" y2="98" /><line stroke="black" stroke-width="2" transform="rotate(325,158.5,139.5)" x1="136" x2="181" y1="117" y2="162" /></g><text font-family="Arial" font-size="18" text-anchor="middle" x="300" y="350">Options</text><text font-family="Arial" font-size="14" text-anchor="middle" x="175" y="380">Option 1</text><g transform="translate(100,400)"><line stroke="black" stroke-width="2" transform="rotate(62,127.6,181.6)" x1="94" x2="161.2" y1="148" y2="215.2" /><rect fill="none" height="64.67999999999999" stroke="black" stroke-width="2" transform="rotate(291,131.1,62.339999999999996)" width="46.199999999999996" x="108" y="30" /><rect fill="none" height="92.11999999999999" stroke="black" stroke-width="2" transform="rotate(64,75.9,92.06)" width="65.8" x="43" y="46" /><line stroke="black" stroke-width="2" transform="rotate(290,152.2,152.2)" x1="127" x2="177.4" y1="127" y2="177.4" /><line stroke="black" stroke-width="2" transform="rotate(174,104.0,155.0)" x1="76" x2="132.0" y1="127" y2="183.0" /><circle cx="22" cy="83" fill="none" r="30.099999999999998" stroke="black" stroke-width="2" /><line stroke="black" stroke-width="2" transform="rotate(60,56.599999999999994,83.6)" x1="23" x2="90.19999999999999" y1="50" y2="117.19999999999999" /><line stroke="black" stroke-width="2" transform="rotate(352,167.5,148.5)" x1="136" x2="199.0" y1="117" y2="180.0" /></g><text font-family="Arial" font-size="14" text-anchor="middle" x="425" y="380">Option 2</text><g transform="translate(350,400)"><line stroke="black" stroke-width="2" transform="rotate(37,118.0,172.0)" x1="94" x2="142" y1="148" y2="196" /><rect fill="none" height="33" stroke="black" stroke-width="2" transform="rotate(264,124.5,46.5)" width="33" x="108" y="30" /><rect fill="none" height="47" stroke="black" stroke-width="2" transform="rotate(40,66.5,69.5)" width="47" x="43" y="46" /><line stroke="black" stroke-width="2" transform="rotate(265,145.0,145.0)" x1="127" x2="163" y1="127" y2="163" /><line stroke="black" stroke-width="2" transform="rotate(148,96.0,147.0)" x1="76" x2="116" y1="127" y2="167" /><circle cx="22" cy="83" fill="none" r="21.5" stroke="black" stroke-width="2" /><line stroke="black" stroke-width="2" transform="rotate(37,47.0,74.0)" x1="23" x2="71" y1="50" y2="98" /><line stroke="black" stroke-width="2" transform="rotate(325,158.5,139.5)" x1="136" x2="181" y1="117" y2="162" /></g><text font-family="Arial" font-size="14" text-anchor="middle" x="175" y="630">Option 3</text><g transform="translate(100,650)"><line stroke="black" stroke-width="2" transform="rotate(63,127.6,181.6)" x1="94" x2="161.2" y1="148" y2="215.2" /><rect fill="none" height="64.67999999999999" stroke="black" stroke-width="2" transform="rotate(288,131.1,62.339999999999996)" width="46.199999999999996" x="108" y="30" /><rect fill="none" height="92.11999999999999" stroke="black" stroke-width="2" transform="rotate(67,75.9,92.06)" width="65.8" x="43" y="46" /><line stroke="black" stroke-width="2" transform="rotate(290,152.2,152.2)" x1="127" x2="177.4" y1="127" y2="177.4" /><line stroke="black" stroke-width="2" transform="rotate(174,104.0,155.0)" x1="76" x2="132.0" y1="127" y2="183.0" /><circle cx="22" cy="83" fill="none" r="30.099999999999998" stroke="black" stroke-width="2" /><line stroke="black" stroke-width="2" transform="rotate(60,56.599999999999994,83.6)" x1="23" x2="90.19999999999999" y1="50" y2="117.19999999999999" /><line stroke="black" stroke-width="2" transform="rotate(349,167.5,148.5)" x1="136" x2="199.0" y1="117" y2="180.0" /></g><text font-family="Arial" font-size="14" text-anchor="middle" x="425" y="630">Option 4</text><g transform="translate(350,650)"><line stroke="black" stroke-width="2" transform="rotate(60,127.6,181.6)" x1="94" x2="161.2" y1="148" y2="215.2" /><rect fill="none" height="64.67999999999999" stroke="black" stroke-width="2" transform="rotate(291,131.1,62.339999999999996)" width="46.199999999999996" x="108" y="30" /><rect fill="none" height="92.11999999999999" stroke="black" stroke-width="2" transform="rotate(65,75.9,92.06)" width="65.8" x="43" y="46" /><line stroke="black" stroke-width="2" transform="rotate(290,152.2,152.2)" x1="127" x2="177.4" y1="127" y2="177.4" /><line stroke="black" stroke-width="2" transform="rotate(172,104.0,155.0)" x1="76" x2="132.0" y1="127" y2="183.0" /><circle cx="22" cy="83" fill="none" r="30.099999999999998" stroke="black" stroke-width="2" /><line stroke="black" stroke-width="2" transform="rotate(60,56.599999999999994,83.6)" x1="23" x2="90.19999999999999" y1="50" y2="117.19999999999999" /><line stroke="black" stroke-width="2" transform="rotate(349,167.5,148.5)" x1="136" x2="199.0" y1="117" y2="180.0" /></g></svg>