<?xml version="1.0" encoding="utf-8" ?>
<svg baseProfile="full" height="1000px" version="1.1" width="600px" xmlns="http://www.w3.org/2000/svg" xmlns:ev="http://www.w3.org/2001/xml-events" xmlns:xlink="http://www.w3.org/1999/xlink"><defs /><rect fill="white" height="100%" width="100%" x="0" y="0" /><text font-family="Arial" font-size="24" text-anchor="middle" x="300" y="40">Visual Discrimination Test</text><text font-family="Arial" font-size="18" text-anchor="middle" x="300" y="80">Target Pattern</text><g transform="translate(200,100)"><rect fill="none" height="30" stroke="black" stroke-width="2" transform="rotate(325,98.0,38.0)" width="30" x="83" y="23" /><rect fill="none" height="43" stroke="black" stroke-width="2" transform="rotate(188,125.5,159.5)" width="43" x="104" y="138" /><circle cx="94" cy="112" fill="none" r="15.5" stroke="black" stroke-width="2" /><circle cx="119" cy="107" fill="none" r="21.0" stroke="black" stroke-width="2" /></g><text font-family="Arial" font-size="18" text-anchor="middle" x="300" y="350">Options</text><text font-family="Arial" font-size="14" text-anchor="middle" x="175" y="380">Option 1</text><g transform="translate(100,400)"><rect fill="none" height="58.8" stroke="black" stroke-width="2" transform="rotate(351,104.0,52.4)" width="42.0" x="83" y="23" /><rect fill="none" height="84.27999999999999" stroke="black" stroke-width="2" transform="rotate(213,134.1,180.14)" width="60.199999999999996" x="104" y="138" /><circle cx="94" cy="112" fill="none" r="21.7" stroke="black" stroke-width="2" /><circle cx="119" cy="107" fill="none" r="29.4" stroke="black" stroke-width="2" /></g><text font-family="Arial" font-size="14" text-anchor="middle" x="425" y="380">Option 2</text><g transform="translate(350,400)"><rect fill="none" height="58.8" stroke="black" stroke-width="2" transform="rotate(352,104.0,52.4)" width="42.0" x="83" y="23" /><rect fill="none" height="84.27999999999999" stroke="black" stroke-width="2" transform="rotate(213,134.1,180.14)" width="60.199999999999996" x="104" y="138" /><circle cx="94" cy="112" fill="none" r="21.7" stroke="black" stroke-width="2" /><circle cx="119" cy="107" fill="none" r="29.4" stroke="black" stroke-width="2" /></g><text font-family="Arial" font-size="14" text-anchor="middle" x="175" y="630">Option 3</text><g transform="translate(100,650)"><rect fill="none" height="30" stroke="black" stroke-width="2" transform="rotate(325,98.0,38.0)" width="30" x="83" y="23" /><rect fill="none" height="43" stroke="black" stroke-width="2" transform="rotate(188,125.5,159.5)" width="43" x="104" y="138" /><circle cx="94" cy="112" fill="none" r="15.5" stroke="black" stroke-width="2" /><circle cx="119" cy="107" fill="none" r="21.0" stroke="black" stroke-width="2" /></g><text font-family="Arial" font-size="14" text-anchor="middle" x="425" y="630">Option 4</text><g transform="translate(350,650)"><rect fill="none" height="58.8" stroke="black" stroke-width="2" transform="rotate(349,104.0,52.4)" width="42.0" x="83" y="23" /><rect fill="none" height="84.27999999999999" stroke="black" stroke-width="2" transform="rotate(213,134.1,180.14)" width="60.199999999999996" x="104" y="138" /><circle cx="94" cy="112" fill="none" r="21.7" stroke="black" stroke-width="2" /><circle cx="119" cy="107" fill="none" r="29.4" stroke="black" stroke-width="2" /></g></svg>