<?xml version="1.0" encoding="utf-8" ?>
<svg baseProfile="full" height="1000px" version="1.1" width="600px" xmlns="http://www.w3.org/2000/svg" xmlns:ev="http://www.w3.org/2001/xml-events" xmlns:xlink="http://www.w3.org/1999/xlink"><defs /><rect fill="white" height="100%" width="100%" x="0" y="0" /><text font-family="Arial" font-size="24" text-anchor="middle" x="300" y="40">Visual Discrimination Test</text><text font-family="Arial" font-size="18" text-anchor="middle" x="300" y="80">Target Pattern</text><g transform="translate(200,100)"><rect fill="none" height="42" stroke="black" stroke-width="2" transform="rotate(198,34.0,115.0)" width="42" x="13" y="94" /><line stroke="black" stroke-width="2" transform="rotate(346,142.0,41.0)" x1="125" x2="159" y1="24" y2="58" /><rect fill="none" height="37" stroke="black" stroke-width="2" transform="rotate(301,107.5,102.5)" width="37" x="89" y="84" /></g><text font-family="Arial" font-size="18" text-anchor="middle" x="300" y="350">Options</text><text font-family="Arial" font-size="14" text-anchor="middle" x="175" y="380">Option 1</text><g transform="translate(100,400)"><rect fill="none" height="82.32" stroke="black" stroke-width="2" transform="rotate(225,42.4,135.16)" width="58.8" x="13" y="94" /><line stroke="black" stroke-width="2" transform="rotate(369,148.8,47.8)" x1="125" x2="172.6" y1="24" y2="71.6" /><rect fill="none" height="72.52" stroke="black" stroke-width="2" transform="rotate(325,114.9,120.25999999999999)" width="51.8" x="89" y="84" /></g><text font-family="Arial" font-size="14" text-anchor="middle" x="425" y="380">Option 2</text><g transform="translate(350,400)"><rect fill="none" height="82.32" stroke="black" stroke-width="2" transform="rotate(222,42.4,135.16)" width="58.8" x="13" y="94" /><line stroke="black" stroke-width="2" transform="rotate(369,148.8,47.8)" x1="125" x2="172.6" y1="24" y2="71.6" /><rect fill="none" height="72.52" stroke="black" stroke-width="2" transform="rotate(325,114.9,120.25999999999999)" width="51.8" x="89" y="84" /></g><text font-family="Arial" font-size="14" text-anchor="middle" x="175" y="630">Option 3</text><g transform="translate(100,650)"><rect fill="none" height="82.32" stroke="black" stroke-width="2" transform="rotate(223,42.4,135.16)" width="58.8" x="13" y="94" /><line stroke="black" stroke-width="2" transform="rotate(370,148.8,47.8)" x1="125" x2="172.6" y1="24" y2="71.6" /><rect fill="none" height="72.52" stroke="black" stroke-width="2" transform="rotate(327,114.9,120.25999999999999)" width="51.8" x="89" y="84" /></g><text font-family="Arial" font-size="14" text-anchor="middle" x="425" y="630">Option 4</text><g transform="translate(350,650)"><rect fill="none" height="42" stroke="black" stroke-width="2" transform="rotate(198,34.0,115.0)" width="42" x="13" y="94" /><line stroke="black" stroke-width="2" transform="rotate(346,142.0,41.0)" x1="125" x2="159" y1="24" y2="58" /><rect fill="none" height="37" stroke="black" stroke-width="2" transform="rotate(301,107.5,102.5)" width="37" x="89" y="84" /></g></svg>