<?xml version="1.0" encoding="utf-8" ?>
<svg baseProfile="full" height="1000px" version="1.1" width="600px" xmlns="http://www.w3.org/2000/svg" xmlns:ev="http://www.w3.org/2001/xml-events" xmlns:xlink="http://www.w3.org/1999/xlink"><defs /><rect fill="white" height="100%" width="100%" x="0" y="0" /><text font-family="Arial" font-size="24" text-anchor="middle" x="300" y="40">Visual Discrimination Test</text><text font-family="Arial" font-size="18" text-anchor="middle" x="300" y="80">Target Pattern</text><g transform="translate(200,100)"><rect fill="none" height="45" stroke="black" stroke-width="2" transform="rotate(148,91.5,104.5)" width="45" x="69" y="82" /><rect fill="none" height="34" stroke="black" stroke-width="2" transform="rotate(177,142.0,43.0)" width="34" x="125" y="26" /><circle cx="47" cy="119" fill="none" r="21.5" stroke="black" stroke-width="2" /></g><text font-family="Arial" font-size="18" text-anchor="middle" x="300" y="350">Options</text><text font-family="Arial" font-size="14" text-anchor="middle" x="175" y="380">Option 1</text><g transform="translate(100,400)"><rect fill="none" height="45" stroke="black" stroke-width="2" transform="rotate(148,91.5,104.5)" width="45" x="69" y="82" /><rect fill="none" height="34" stroke="black" stroke-width="2" transform="rotate(177,142.0,43.0)" width="34" x="125" y="26" /><circle cx="47" cy="119" fill="none" r="21.5" stroke="black" stroke-width="2" /></g><text font-family="Arial" font-size="14" text-anchor="middle" x="425" y="380">Option 2</text><g transform="translate(350,400)"><rect fill="none" height="88.19999999999999" stroke="black" stroke-width="2" transform="rotate(174,100.5,126.1)" width="62.99999999999999" x="69" y="82" /><rect fill="none" height="66.63999999999999" stroke="black" stroke-width="2" transform="rotate(200,148.8,59.31999999999999)" width="47.599999999999994" x="125" y="26" /><circle cx="47" cy="119" fill="none" r="30.099999999999998" stroke="black" stroke-width="2" /></g><text font-family="Arial" font-size="14" text-anchor="middle" x="175" y="630">Option 3</text><g transform="translate(100,650)"><rect fill="none" height="88.19999999999999" stroke="black" stroke-width="2" transform="rotate(172,100.5,126.1)" width="62.99999999999999" x="69" y="82" /><rect fill="none" height="66.63999999999999" stroke="black" stroke-width="2" transform="rotate(201,148.8,59.31999999999999)" width="47.599999999999994" x="125" y="26" /><circle cx="47" cy="119" fill="none" r="30.099999999999998" stroke="black" stroke-width="2" /></g><text font-family="Arial" font-size="14" text-anchor="middle" x="425" y="630">Option 4</text><g transform="translate(350,650)"><rect fill="none" height="88.19999999999999" stroke="black" stroke-width="2" transform="rotate(172,100.5,126.1)" width="62.99999999999999" x="69" y="82" /><rect fill="none" height="66.63999999999999" stroke="black" stroke-width="2" transform="rotate(200,148.8,59.31999999999999)" width="47.599999999999994" x="125" y="26" /><circle cx="47" cy="119" fill="none" r="30.099999999999998" stroke="black" stroke-width="2" /></g></svg>