<?xml version="1.0" encoding="utf-8" ?>
<svg baseProfile="full" height="1000px" version="1.1" width="600px" xmlns="http://www.w3.org/2000/svg" xmlns:ev="http://www.w3.org/2001/xml-events" xmlns:xlink="http://www.w3.org/1999/xlink"><defs /><rect fill="white" height="100%" width="100%" x="0" y="0" /><text font-family="Arial" font-size="24" text-anchor="middle" x="300" y="40">Visual Discrimination Test</text><text font-family="Arial" font-size="18" text-anchor="middle" x="300" y="80">Target Pattern</text><g transform="translate(200,100)"><rect fill="none" height="49" stroke="black" stroke-width="2" transform="rotate(212,124.5,62.5)" width="49" x="100" y="38" /><line stroke="black" stroke-width="2" transform="rotate(50,89.0,138.0)" x1="67" x2="111" y1="116" y2="160" /><circle cx="20" cy="65" fill="none" r="21.5" stroke="black" stroke-width="2" /><rect fill="none" height="50" stroke="black" stroke-width="2" transform="rotate(114,114.0,78.0)" width="50" x="89" y="53" /><rect fill="none" height="37" stroke="black" stroke-width="2" transform="rotate(132,88.5,41.5)" width="37" x="70" y="23" /><circle cx="31" cy="120" fill="none" r="22.5" stroke="black" stroke-width="2" /><line stroke="black" stroke-width="2" transform="rotate(322,132.0,98.0)" x1="109" x2="155" y1="75" y2="121" /><rect fill="none" height="37" stroke="black" stroke-width="2" transform="rotate(155,141.5,60.5)" width="37" x="123" y="42" /><rect fill="none" height="40" stroke="black" stroke-width="2" transform="rotate(151,135.0,65.0)" width="40" x="115" y="45" /><circle cx="26" cy="93" fill="none" r="20.0" stroke="black" stroke-width="2" /></g><text font-family="Arial" font-size="18" text-anchor="middle" x="300" y="350">Options</text><text font-family="Arial" font-size="14" text-anchor="middle" x="175" y="380">Option 1</text><g transform="translate(100,400)"><rect fill="none" height="96.03999999999999" stroke="black" stroke-width="2" transform="rotate(238,134.3,86.02)" width="68.6" x="100" y="38" /><line stroke="black" stroke-width="2" transform="rotate(77,97.8,146.8)" x1="67" x2="128.6" y1="116" y2="177.6" /><circle cx="20" cy="65" fill="none" r="30.099999999999998" stroke="black" stroke-width="2" /><rect fill="none" height="98.0" stroke="black" stroke-width="2" transform="rotate(140,124.0,102.0)" width="70.0" x="89" y="53" /><rect fill="none" height="72.52" stroke="black" stroke-width="2" transform="rotate(156,95.9,59.26)" width="51.8" x="70" y="23" /><circle cx="31" cy="120" fill="none" r="31.499999999999996" stroke="black" stroke-width="2" /><line stroke="black" stroke-width="2" transform="rotate(349,141.2,107.19999999999999)" x1="109" x2="173.39999999999998" y1="75" y2="139.39999999999998" /><rect fill="none" height="72.52" stroke="black" stroke-width="2" transform="rotate(180,148.9,78.25999999999999)" width="51.8" x="123" y="42" /><rect fill="none" height="78.39999999999999" stroke="black" stroke-width="2" transform="rotate(176,143.0,84.19999999999999)" width="56.0" x="115" y="45" /><circle cx="26" cy="93" fill="none" r="28.0" stroke="black" stroke-width="2" /></g><text font-family="Arial" font-size="14" text-anchor="middle" x="425" y="380">Option 2</text><g transform="translate(350,400)"><rect fill="none" height="96.03999999999999" stroke="black" stroke-width="2" transform="rotate(235,134.3,86.02)" width="68.6" x="100" y="38" /><line stroke="black" stroke-width="2" transform="rotate(76,97.8,146.8)" x1="67" x2="128.6" y1="116" y2="177.6" /><circle cx="20" cy="65" fill="none" r="30.099999999999998" stroke="black" stroke-width="2" /><rect fill="none" height="98.0" stroke="black" stroke-width="2" transform="rotate(139,124.0,102.0)" width="70.0" x="89" y="53" /><rect fill="none" height="72.52" stroke="black" stroke-width="2" transform="rotate(158,95.9,59.26)" width="51.8" x="70" y="23" /><circle cx="31" cy="120" fill="none" r="31.499999999999996" stroke="black" stroke-width="2" /><line stroke="black" stroke-width="2" transform="rotate(349,141.2,107.19999999999999)" x1="109" x2="173.39999999999998" y1="75" y2="139.39999999999998" /><rect fill="none" height="72.52" stroke="black" stroke-width="2" transform="rotate(178,148.9,78.25999999999999)" width="51.8" x="123" y="42" /><rect fill="none" height="78.39999999999999" stroke="black" stroke-width="2" transform="rotate(176,143.0,84.19999999999999)" width="56.0" x="115" y="45" /><circle cx="26" cy="93" fill="none" r="28.0" stroke="black" stroke-width="2" /></g><text font-family="Arial" font-size="14" text-anchor="middle" x="175" y="630">Option 3</text><g transform="translate(100,650)"><rect fill="none" height="49" stroke="black" stroke-width="2" transform="rotate(212,124.5,62.5)" width="49" x="100" y="38" /><line stroke="black" stroke-width="2" transform="rotate(50,89.0,138.0)" x1="67" x2="111" y1="116" y2="160" /><circle cx="20" cy="65" fill="none" r="21.5" stroke="black" stroke-width="2" /><rect fill="none" height="50" stroke="black" stroke-width="2" transform="rotate(114,114.0,78.0)" width="50" x="89" y="53" /><rect fill="none" height="37" stroke="black" stroke-width="2" transform="rotate(132,88.5,41.5)" width="37" x="70" y="23" /><circle cx="31" cy="120" fill="none" r="22.5" stroke="black" stroke-width="2" /><line stroke="black" stroke-width="2" transform="rotate(322,132.0,98.0)" x1="109" x2="155" y1="75" y2="121" /><rect fill="none" height="37" stroke="black" stroke-width="2" transform="rotate(155,141.5,60.5)" width="37" x="123" y="42" /><rect fill="none" height="40" stroke="black" stroke-width="2" transform="rotate(151,135.0,65.0)" width="40" x="115" y="45" /><circle cx="26" cy="93" fill="none" r="20.0" stroke="black" stroke-width="2" /></g><text font-family="Arial" font-size="14" text-anchor="middle" x="425" y="630">Option 4</text><g transform="translate(350,650)"><rect fill="none" height="96.03999999999999" stroke="black" stroke-width="2" transform="rotate(239,134.3,86.02)" width="68.6" x="100" y="38" /><line stroke="black" stroke-width="2" transform="rotate(74,97.8,146.8)" x1="67" x2="128.6" y1="116" y2="177.6" /><circle cx="20" cy="65" fill="none" r="30.099999999999998" stroke="black" stroke-width="2" /><rect fill="none" height="98.0" stroke="black" stroke-width="2" transform="rotate(139,124.0,102.0)" width="70.0" x="89" y="53" /><rect fill="none" height="72.52" stroke="black" stroke-width="2" transform="rotate(156,95.9,59.26)" width="51.8" x="70" y="23" /><circle cx="31" cy="120" fill="none" r="31.499999999999996" stroke="black" stroke-width="2" /><line stroke="black" stroke-width="2" transform="rotate(345,141.2,107.19999999999999)" x1="109" x2="173.39999999999998" y1="75" y2="139.39999999999998" /><rect fill="none" height="72.52" stroke="black" stroke-width="2" transform="rotate(182,148.9,78.25999999999999)" width="51.8" x="123" y="42" /><rect fill="none" height="78.39999999999999" stroke="black" stroke-width="2" transform="rotate(178,143.0,84.19999999999999)" width="56.0" x="115" y="45" /><circle cx="26" cy="93" fill="none" r="28.0" stroke="black" stroke-width="2" /></g></svg>