<?xml version="1.0" encoding="utf-8" ?>
<svg baseProfile="full" height="1000px" version="1.1" width="600px" xmlns="http://www.w3.org/2000/svg" xmlns:ev="http://www.w3.org/2001/xml-events" xmlns:xlink="http://www.w3.org/1999/xlink"><defs /><rect fill="white" height="100%" width="100%" x="0" y="0" /><text font-family="Arial" font-size="24" text-anchor="middle" x="300" y="40">Visual Discrimination Test</text><text font-family="Arial" font-size="18" text-anchor="middle" x="300" y="80">Target Pattern</text><g transform="translate(200,100)"><rect fill="none" height="34" stroke="black" stroke-width="2" transform="rotate(226,93.0,162.0)" width="34" x="76" y="145" /><line stroke="black" stroke-width="2" transform="rotate(166,66.5,63.5)" x1="51" x2="82" y1="48" y2="79" /><line stroke="black" stroke-width="2" transform="rotate(307,67.5,169.5)" x1="43" x2="92" y1="145" y2="194" /><polygon fill="none" points="45,96 83,96 64.0,58" stroke="black" stroke-width="2" transform="rotate(284,64.0,77.0)" /><rect fill="none" height="35" stroke="black" stroke-width="2" transform="rotate(120,106.5,68.5)" width="35" x="89" y="51" /><circle cx="28" cy="30" fill="none" r="16.5" stroke="black" stroke-width="2" /><circle cx="57" cy="78" fill="none" r="17.5" stroke="black" stroke-width="2" /></g><text font-family="Arial" font-size="18" text-anchor="middle" x="300" y="350">Options</text><text font-family="Arial" font-size="14" text-anchor="middle" x="175" y="380">Option 1</text><g transform="translate(100,400)"><polygon fill="none" points="76,211.64 123.6,211.64 99.8,145" stroke="black" stroke-width="2" transform="rotate(251,99.8,178.32)" /><polygon fill="none" points="51,108.75999999999999 94.4,108.75999999999999 72.7,48" stroke="black" stroke-width="2" transform="rotate(191,72.7,78.38)" /><rect fill="none" height="96.03999999999999" stroke="black" stroke-width="2" transform="rotate(330,77.3,193.01999999999998)" width="68.6" x="43" y="145" /><rect fill="none" height="74.47999999999999" stroke="black" stroke-width="2" transform="rotate(308,71.6,95.24)" width="53.199999999999996" x="45" y="58" /><line stroke="black" stroke-width="2" transform="rotate(147,113.5,75.5)" x1="89" x2="138.0" y1="51" y2="100.0" /><polygon fill="none" points="28,94.67999999999999 74.19999999999999,94.67999999999999 51.099999999999994,30" stroke="black" stroke-width="2" transform="rotate(107,51.099999999999994,62.339999999999996)" /><polygon fill="none" points="57,146.6 106.0,146.6 81.5,78" stroke="black" stroke-width="2" transform="rotate(277,81.5,112.3)" /></g><text font-family="Arial" font-size="14" text-anchor="middle" x="425" y="380">Option 2</text><g transform="translate(350,400)"><rect fill="none" height="66.63999999999999" stroke="black" stroke-width="2" transform="rotate(253,99.8,178.32)" width="47.599999999999994" x="76" y="145" /><rect fill="none" height="60.75999999999999" stroke="black" stroke-width="2" transform="rotate(191,72.7,78.38)" width="43.4" x="51" y="48" /><rect fill="none" height="96.03999999999999" stroke="black" stroke-width="2" transform="rotate(332,77.3,193.01999999999998)" width="68.6" x="43" y="145" /><rect fill="none" height="74.47999999999999" stroke="black" stroke-width="2" transform="rotate(307,71.6,95.24)" width="53.199999999999996" x="45" y="58" /><line stroke="black" stroke-width="2" transform="rotate(144,113.5,75.5)" x1="89" x2="138.0" y1="51" y2="100.0" /><rect fill="none" height="64.67999999999999" stroke="black" stroke-width="2" transform="rotate(108,51.099999999999994,62.339999999999996)" width="46.199999999999996" x="28" y="30" /><polygon fill="none" points="57,146.6 106.0,146.6 81.5,78" stroke="black" stroke-width="2" transform="rotate(278,81.5,112.3)" /></g><text font-family="Arial" font-size="14" text-anchor="middle" x="175" y="630">Option 3</text><g transform="translate(100,650)"><rect fill="none" height="66.63999999999999" stroke="black" stroke-width="2" transform="rotate(250,99.8,178.32)" width="47.599999999999994" x="76" y="145" /><rect fill="none" height="60.75999999999999" stroke="black" stroke-width="2" transform="rotate(191,72.7,78.38)" width="43.4" x="51" y="48" /><polygon fill="none" points="43,241.04 111.6,241.04 77.3,145" stroke="black" stroke-width="2" transform="rotate(334,77.3,193.01999999999998)" /><line stroke="black" stroke-width="2" transform="rotate(310,71.6,84.6)" x1="45" x2="98.19999999999999" y1="58" y2="111.19999999999999" /><polygon fill="none" points="89,119.6 138.0,119.6 113.5,51" stroke="black" stroke-width="2" transform="rotate(144,113.5,85.3)" /><rect fill="none" height="64.67999999999999" stroke="black" stroke-width="2" transform="rotate(107,51.099999999999994,62.339999999999996)" width="46.199999999999996" x="28" y="30" /><rect fill="none" height="68.6" stroke="black" stroke-width="2" transform="rotate(279,81.5,112.3)" width="49.0" x="57" y="78" /></g><text font-family="Arial" font-size="14" text-anchor="middle" x="425" y="630">Option 4</text><g transform="translate(350,650)"><rect fill="none" height="34" stroke="black" stroke-width="2" transform="rotate(226,93.0,162.0)" width="34" x="76" y="145" /><line stroke="black" stroke-width="2" transform="rotate(166,66.5,63.5)" x1="51" x2="82" y1="48" y2="79" /><line stroke="black" stroke-width="2" transform="rotate(307,67.5,169.5)" x1="43" x2="92" y1="145" y2="194" /><polygon fill="none" points="45,96 83,96 64.0,58" stroke="black" stroke-width="2" transform="rotate(284,64.0,77.0)" /><rect fill="none" height="35" stroke="black" stroke-width="2" transform="rotate(120,106.5,68.5)" width="35" x="89" y="51" /><circle cx="28" cy="30" fill="none" r="16.5" stroke="black" stroke-width="2" /><circle cx="57" cy="78" fill="none" r="17.5" stroke="black" stroke-width="2" /></g></svg>