<?xml version="1.0" encoding="utf-8" ?>
<svg baseProfile="full" height="1000px" version="1.1" width="600px" xmlns="http://www.w3.org/2000/svg" xmlns:ev="http://www.w3.org/2001/xml-events" xmlns:xlink="http://www.w3.org/1999/xlink"><defs /><rect fill="white" height="100%" width="100%" x="0" y="0" /><text font-family="Arial" font-size="24" text-anchor="middle" x="300" y="40">Visual Discrimination Test</text><text font-family="Arial" font-size="18" text-anchor="middle" x="300" y="80">Target Pattern</text><g transform="translate(200,100)"><rect fill="none" height="42" stroke="black" stroke-width="2" transform="rotate(110,67.0,79.0)" width="42" x="46" y="58" /><circle cx="83" cy="70" fill="none" r="16.0" stroke="black" stroke-width="2" /><line stroke="black" stroke-width="2" transform="rotate(307,162.0,161.0)" x1="137" x2="187" y1="136" y2="186" /><line stroke="black" stroke-width="2" transform="rotate(326,96.0,73.0)" x1="76" x2="116" y1="53" y2="93" /><circle cx="69" cy="84" fill="none" r="18.5" stroke="black" stroke-width="2" /><polygon fill="none" points="127,91 161,91 144.0,57" stroke="black" stroke-width="2" transform="rotate(278,144.0,74.0)" /><polygon fill="none" points="120,163 152,163 136.0,131" stroke="black" stroke-width="2" transform="rotate(29,136.0,147.0)" /><polygon fill="none" points="126,153 157,153 141.5,122" stroke="black" stroke-width="2" transform="rotate(306,141.5,137.5)" /></g><text font-family="Arial" font-size="18" text-anchor="middle" x="300" y="350">Options</text><text font-family="Arial" font-size="14" text-anchor="middle" x="175" y="380">Option 1</text><g transform="translate(100,400)"><rect fill="none" height="82.32" stroke="black" stroke-width="2" transform="rotate(135,75.4,99.16)" width="58.8" x="46" y="58" /><line stroke="black" stroke-width="2" transform="rotate(58,105.4,92.4)" x1="83" x2="127.8" y1="70" y2="114.8" /><polygon fill="none" points="137,234.0 207.0,234.0 172.0,136" stroke="black" stroke-width="2" transform="rotate(334,172.0,185.0)" /><polygon fill="none" points="76,131.39999999999998 132.0,131.39999999999998 104.0,53" stroke="black" stroke-width="2" transform="rotate(352,104.0,92.19999999999999)" /><rect fill="none" height="72.52" stroke="black" stroke-width="2" transform="rotate(290,94.9,120.25999999999999)" width="51.8" x="69" y="84" /><rect fill="none" height="66.63999999999999" stroke="black" stroke-width="2" transform="rotate(305,150.8,90.32)" width="47.599999999999994" x="127" y="57" /><line stroke="black" stroke-width="2" transform="rotate(52,142.4,153.4)" x1="120" x2="164.8" y1="131" y2="175.8" /><rect fill="none" height="60.75999999999999" stroke="black" stroke-width="2" transform="rotate(333,147.7,152.38)" width="43.4" x="126" y="122" /></g><text font-family="Arial" font-size="14" text-anchor="middle" x="425" y="380">Option 2</text><g transform="translate(350,400)"><rect fill="none" height="42" stroke="black" stroke-width="2" transform="rotate(110,67.0,79.0)" width="42" x="46" y="58" /><circle cx="83" cy="70" fill="none" r="16.0" stroke="black" stroke-width="2" /><line stroke="black" stroke-width="2" transform="rotate(307,162.0,161.0)" x1="137" x2="187" y1="136" y2="186" /><line stroke="black" stroke-width="2" transform="rotate(326,96.0,73.0)" x1="76" x2="116" y1="53" y2="93" /><circle cx="69" cy="84" fill="none" r="18.5" stroke="black" stroke-width="2" /><polygon fill="none" points="127,91 161,91 144.0,57" stroke="black" stroke-width="2" transform="rotate(278,144.0,74.0)" /><polygon fill="none" points="120,163 152,163 136.0,131" stroke="black" stroke-width="2" transform="rotate(29,136.0,147.0)" /><polygon fill="none" points="126,153 157,153 141.5,122" stroke="black" stroke-width="2" transform="rotate(306,141.5,137.5)" /></g><text font-family="Arial" font-size="14" text-anchor="middle" x="175" y="630">Option 3</text><g transform="translate(100,650)"><rect fill="none" height="82.32" stroke="black" stroke-width="2" transform="rotate(133,75.4,99.16)" width="58.8" x="46" y="58" /><polygon fill="none" points="83,132.72 127.8,132.72 105.4,70" stroke="black" stroke-width="2" transform="rotate(60,105.4,101.36)" /><polygon fill="none" points="137,234.0 207.0,234.0 172.0,136" stroke="black" stroke-width="2" transform="rotate(332,172.0,185.0)" /><rect fill="none" height="78.39999999999999" stroke="black" stroke-width="2" transform="rotate(352,104.0,92.19999999999999)" width="56.0" x="76" y="53" /><polygon fill="none" points="69,156.51999999999998 120.8,156.51999999999998 94.9,84" stroke="black" stroke-width="2" transform="rotate(288,94.9,120.25999999999999)" /><rect fill="none" height="66.63999999999999" stroke="black" stroke-width="2" transform="rotate(303,150.8,90.32)" width="47.599999999999994" x="127" y="57" /><rect fill="none" height="62.71999999999999" stroke="black" stroke-width="2" transform="rotate(56,142.4,162.35999999999999)" width="44.8" x="120" y="131" /><rect fill="none" height="60.75999999999999" stroke="black" stroke-width="2" transform="rotate(330,147.7,152.38)" width="43.4" x="126" y="122" /></g><text font-family="Arial" font-size="14" text-anchor="middle" x="425" y="630">Option 4</text><g transform="translate(350,650)"><rect fill="none" height="82.32" stroke="black" stroke-width="2" transform="rotate(134,75.4,99.16)" width="58.8" x="46" y="58" /><line stroke="black" stroke-width="2" transform="rotate(61,105.4,92.4)" x1="83" x2="127.8" y1="70" y2="114.8" /><rect fill="none" height="98.0" stroke="black" stroke-width="2" transform="rotate(333,172.0,185.0)" width="70.0" x="137" y="136" /><line stroke="black" stroke-width="2" transform="rotate(352,104.0,81.0)" x1="76" x2="132.0" y1="53" y2="109.0" /><rect fill="none" height="72.52" stroke="black" stroke-width="2" transform="rotate(288,94.9,120.25999999999999)" width="51.8" x="69" y="84" /><rect fill="none" height="66.63999999999999" stroke="black" stroke-width="2" transform="rotate(301,150.8,90.32)" width="47.599999999999994" x="127" y="57" /><rect fill="none" height="62.71999999999999" stroke="black" stroke-width="2" transform="rotate(56,142.4,162.35999999999999)" width="44.8" x="120" y="131" /><line stroke="black" stroke-width="2" transform="rotate(330,147.7,143.7)" x1="126" x2="169.4" y1="122" y2="165.4" /></g></svg>