<?xml version="1.0" encoding="utf-8" ?>
<svg baseProfile="full" height="1000px" version="1.1" width="600px" xmlns="http://www.w3.org/2000/svg" xmlns:ev="http://www.w3.org/2001/xml-events" xmlns:xlink="http://www.w3.org/1999/xlink"><defs /><rect fill="white" height="100%" width="100%" x="0" y="0" /><text font-family="Arial" font-size="24" text-anchor="middle" x="300" y="40">Visual Discrimination Test</text><text font-family="Arial" font-size="18" text-anchor="middle" x="300" y="80">Target Pattern</text><g transform="translate(200,100)"><polygon fill="none" points="38,195 84,195 61.0,149" stroke="black" stroke-width="2" transform="rotate(206,61.0,172.0)" /><polygon fill="none" points="103,71 145,71 124.0,29" stroke="black" stroke-width="2" transform="rotate(58,124.0,50.0)" /><circle cx="82" cy="43" fill="none" r="24.5" stroke="black" stroke-width="2" /><circle cx="89" cy="120" fill="none" r="25.0" stroke="black" stroke-width="2" /><rect fill="none" height="37" stroke="black" stroke-width="2" transform="rotate(356,28.5,116.5)" width="37" x="10" y="98" /></g><text font-family="Arial" font-size="18" text-anchor="middle" x="300" y="350">Options</text><text font-family="Arial" font-size="14" text-anchor="middle" x="175" y="380">Option 1</text><g transform="translate(100,400)"><rect fill="none" height="90.15999999999998" stroke="black" stroke-width="2" transform="rotate(233,70.19999999999999,194.07999999999998)" width="64.39999999999999" x="38" y="149" /><line stroke="black" stroke-width="2" transform="rotate(83,132.4,58.4)" x1="103" x2="161.8" y1="29" y2="87.8" /><line stroke="black" stroke-width="2" transform="rotate(257,116.3,77.3)" x1="82" x2="150.6" y1="43" y2="111.6" /><line stroke="black" stroke-width="2" transform="rotate(111,124.0,155.0)" x1="89" x2="159.0" y1="120" y2="190.0" /><polygon fill="none" points="10,170.51999999999998 61.8,170.51999999999998 35.9,98" stroke="black" stroke-width="2" transform="rotate(380,35.9,134.26)" /></g><text font-family="Arial" font-size="14" text-anchor="middle" x="425" y="380">Option 2</text><g transform="translate(350,400)"><rect fill="none" height="90.15999999999998" stroke="black" stroke-width="2" transform="rotate(232,70.19999999999999,194.07999999999998)" width="64.39999999999999" x="38" y="149" /><polygon fill="none" points="103,111.32 161.8,111.32 132.4,29" stroke="black" stroke-width="2" transform="rotate(85,132.4,70.16)" /><line stroke="black" stroke-width="2" transform="rotate(255,116.3,77.3)" x1="82" x2="150.6" y1="43" y2="111.6" /><line stroke="black" stroke-width="2" transform="rotate(111,124.0,155.0)" x1="89" x2="159.0" y1="120" y2="190.0" /><line stroke="black" stroke-width="2" transform="rotate(381,35.9,123.9)" x1="10" x2="61.8" y1="98" y2="149.8" /></g><text font-family="Arial" font-size="14" text-anchor="middle" x="175" y="630">Option 3</text><g transform="translate(100,650)"><polygon fill="none" points="38,195 84,195 61.0,149" stroke="black" stroke-width="2" transform="rotate(206,61.0,172.0)" /><polygon fill="none" points="103,71 145,71 124.0,29" stroke="black" stroke-width="2" transform="rotate(58,124.0,50.0)" /><circle cx="82" cy="43" fill="none" r="24.5" stroke="black" stroke-width="2" /><circle cx="89" cy="120" fill="none" r="25.0" stroke="black" stroke-width="2" /><rect fill="none" height="37" stroke="black" stroke-width="2" transform="rotate(356,28.5,116.5)" width="37" x="10" y="98" /></g><text font-family="Arial" font-size="14" text-anchor="middle" x="425" y="630">Option 4</text><g transform="translate(350,650)"><rect fill="none" height="90.15999999999998" stroke="black" stroke-width="2" transform="rotate(229,70.19999999999999,194.07999999999998)" width="64.39999999999999" x="38" y="149" /><rect fill="none" height="82.32" stroke="black" stroke-width="2" transform="rotate(84,132.4,70.16)" width="58.8" x="103" y="29" /><line stroke="black" stroke-width="2" transform="rotate(257,116.3,77.3)" x1="82" x2="150.6" y1="43" y2="111.6" /><line stroke="black" stroke-width="2" transform="rotate(114,124.0,155.0)" x1="89" x2="159.0" y1="120" y2="190.0" /><line stroke="black" stroke-width="2" transform="rotate(382,35.9,123.9)" x1="10" x2="61.8" y1="98" y2="149.8" /></g></svg>