<?xml version="1.0" encoding="utf-8" ?>
<svg baseProfile="full" height="1000px" version="1.1" width="600px" xmlns="http://www.w3.org/2000/svg" xmlns:ev="http://www.w3.org/2001/xml-events" xmlns:xlink="http://www.w3.org/1999/xlink"><defs /><rect fill="white" height="100%" width="100%" x="0" y="0" /><text font-family="Arial" font-size="24" text-anchor="middle" x="300" y="40">Visual Discrimination Test</text><text font-family="Arial" font-size="18" text-anchor="middle" x="300" y="80">Target Pattern</text><g transform="translate(200,100)"><circle cx="148" cy="116" fill="none" r="19.5" stroke="black" stroke-width="2" /><rect fill="none" height="45" stroke="black" stroke-width="2" transform="rotate(360,141.5,95.5)" width="45" x="119" y="73" /><polygon fill="none" points="43,157 82,157 62.5,118" stroke="black" stroke-width="2" transform="rotate(50,62.5,137.5)" /><polygon fill="none" points="32,184 67,184 49.5,149" stroke="black" stroke-width="2" transform="rotate(266,49.5,166.5)" /><rect fill="none" height="43" stroke="black" stroke-width="2" transform="rotate(31,56.5,73.5)" width="43" x="35" y="52" /><polygon fill="none" points="87,87 137,87 112.0,37" stroke="black" stroke-width="2" transform="rotate(34,112.0,62.0)" /><line stroke="black" stroke-width="2" transform="rotate(338,48.5,68.5)" x1="33" x2="64" y1="53" y2="84" /><line stroke="black" stroke-width="2" transform="rotate(356,56.0,45.0)" x1="39" x2="73" y1="28" y2="62" /><circle cx="135" cy="21" fill="none" r="24.5" stroke="black" stroke-width="2" /></g><text font-family="Arial" font-size="18" text-anchor="middle" x="300" y="350">Options</text><text font-family="Arial" font-size="14" text-anchor="middle" x="175" y="380">Option 1</text><g transform="translate(100,400)"><rect fill="none" height="76.43999999999998" stroke="black" stroke-width="2" transform="rotate(87,175.3,154.22)" width="54.599999999999994" x="148" y="116" /><polygon fill="none" points="119,161.2 182.0,161.2 150.5,73" stroke="black" stroke-width="2" transform="rotate(383,150.5,117.1)" /><polygon fill="none" points="43,194.44 97.6,194.44 70.3,118" stroke="black" stroke-width="2" transform="rotate(77,70.3,156.22)" /><polygon fill="none" points="32,217.6 81.0,217.6 56.5,149" stroke="black" stroke-width="2" transform="rotate(293,56.5,183.3)" /><polygon fill="none" points="35,136.27999999999997 95.19999999999999,136.27999999999997 65.1,52" stroke="black" stroke-width="2" transform="rotate(57,65.1,94.13999999999999)" /><polygon fill="none" points="87,135.0 157.0,135.0 122.0,37" stroke="black" stroke-width="2" transform="rotate(58,122.0,86.0)" /><polygon fill="none" points="33,113.75999999999999 76.4,113.75999999999999 54.7,53" stroke="black" stroke-width="2" transform="rotate(361,54.7,83.38)" /><line stroke="black" stroke-width="2" transform="rotate(380,62.8,51.8)" x1="39" x2="86.6" y1="28" y2="75.6" /><polygon fill="none" points="135,117.03999999999999 203.6,117.03999999999999 169.3,21" stroke="black" stroke-width="2" transform="rotate(50,169.3,69.02)" /></g><text font-family="Arial" font-size="14" text-anchor="middle" x="425" y="380">Option 2</text><g transform="translate(350,400)"><circle cx="148" cy="116" fill="none" r="19.5" stroke="black" stroke-width="2" /><rect fill="none" height="45" stroke="black" stroke-width="2" transform="rotate(360,141.5,95.5)" width="45" x="119" y="73" /><polygon fill="none" points="43,157 82,157 62.5,118" stroke="black" stroke-width="2" transform="rotate(50,62.5,137.5)" /><polygon fill="none" points="32,184 67,184 49.5,149" stroke="black" stroke-width="2" transform="rotate(266,49.5,166.5)" /><rect fill="none" height="43" stroke="black" stroke-width="2" transform="rotate(31,56.5,73.5)" width="43" x="35" y="52" /><polygon fill="none" points="87,87 137,87 112.0,37" stroke="black" stroke-width="2" transform="rotate(34,112.0,62.0)" /><line stroke="black" stroke-width="2" transform="rotate(338,48.5,68.5)" x1="33" x2="64" y1="53" y2="84" /><line stroke="black" stroke-width="2" transform="rotate(356,56.0,45.0)" x1="39" x2="73" y1="28" y2="62" /><circle cx="135" cy="21" fill="none" r="24.5" stroke="black" stroke-width="2" /></g><text font-family="Arial" font-size="14" text-anchor="middle" x="175" y="630">Option 3</text><g transform="translate(100,650)"><polygon fill="none" points="148,192.44 202.6,192.44 175.3,116" stroke="black" stroke-width="2" transform="rotate(86,175.3,154.22)" /><line stroke="black" stroke-width="2" transform="rotate(386,150.5,104.5)" x1="119" x2="182.0" y1="73" y2="136.0" /><polygon fill="none" points="43,194.44 97.6,194.44 70.3,118" stroke="black" stroke-width="2" transform="rotate(74,70.3,156.22)" /><rect fill="none" height="68.6" stroke="black" stroke-width="2" transform="rotate(292,56.5,183.3)" width="49.0" x="32" y="149" /><rect fill="none" height="84.27999999999999" stroke="black" stroke-width="2" transform="rotate(57,65.1,94.13999999999999)" width="60.199999999999996" x="35" y="52" /><line stroke="black" stroke-width="2" transform="rotate(57,122.0,72.0)" x1="87" x2="157.0" y1="37" y2="107.0" /><polygon fill="none" points="33,113.75999999999999 76.4,113.75999999999999 54.7,53" stroke="black" stroke-width="2" transform="rotate(363,54.7,83.38)" /><rect fill="none" height="66.63999999999999" stroke="black" stroke-width="2" transform="rotate(382,62.8,61.31999999999999)" width="47.599999999999994" x="39" y="28" /><polygon fill="none" points="135,117.03999999999999 203.6,117.03999999999999 169.3,21" stroke="black" stroke-width="2" transform="rotate(52,169.3,69.02)" /></g><text font-family="Arial" font-size="14" text-anchor="middle" x="425" y="630">Option 4</text><g transform="translate(350,650)"><rect fill="none" height="76.43999999999998" stroke="black" stroke-width="2" transform="rotate(86,175.3,154.22)" width="54.599999999999994" x="148" y="116" /><rect fill="none" height="88.19999999999999" stroke="black" stroke-width="2" transform="rotate(384,150.5,117.1)" width="62.99999999999999" x="119" y="73" /><line stroke="black" stroke-width="2" transform="rotate(76,70.3,145.3)" x1="43" x2="97.6" y1="118" y2="172.6" /><rect fill="none" height="68.6" stroke="black" stroke-width="2" transform="rotate(290,56.5,183.3)" width="49.0" x="32" y="149" /><polygon fill="none" points="35,136.27999999999997 95.19999999999999,136.27999999999997 65.1,52" stroke="black" stroke-width="2" transform="rotate(54,65.1,94.13999999999999)" /><polygon fill="none" points="87,135.0 157.0,135.0 122.0,37" stroke="black" stroke-width="2" transform="rotate(57,122.0,86.0)" /><line stroke="black" stroke-width="2" transform="rotate(363,54.7,74.7)" x1="33" x2="76.4" y1="53" y2="96.4" /><line stroke="black" stroke-width="2" transform="rotate(381,62.8,51.8)" x1="39" x2="86.6" y1="28" y2="75.6" /><line stroke="black" stroke-width="2" transform="rotate(50,169.3,55.3)" x1="135" x2="203.6" y1="21" y2="89.6" /></g></svg>