<?xml version="1.0" encoding="utf-8" ?>
<svg baseProfile="full" height="1000px" version="1.1" width="600px" xmlns="http://www.w3.org/2000/svg" xmlns:ev="http://www.w3.org/2001/xml-events" xmlns:xlink="http://www.w3.org/1999/xlink"><defs /><rect fill="white" height="100%" width="100%" x="0" y="0" /><text font-family="Arial" font-size="24" text-anchor="middle" x="300" y="40">Visual Discrimination Test</text><text font-family="Arial" font-size="18" text-anchor="middle" x="300" y="80">Target Pattern</text><g transform="translate(200,100)"><polygon fill="none" points="90,91 138,91 114.0,43" stroke="black" stroke-width="2" transform="rotate(210,114.0,67.0)" /><rect fill="none" height="44" stroke="black" stroke-width="2" transform="rotate(203,64.0,76.0)" width="44" x="42" y="54" /></g><text font-family="Arial" font-size="18" text-anchor="middle" x="300" y="350">Options</text><text font-family="Arial" font-size="14" text-anchor="middle" x="175" y="380">Option 1</text><g transform="translate(100,400)"><line stroke="black" stroke-width="2" transform="rotate(233,123.6,76.6)" x1="90" x2="157.2" y1="43" y2="110.19999999999999" /><polygon fill="none" points="42,140.23999999999998 103.6,140.23999999999998 72.8,54" stroke="black" stroke-width="2" transform="rotate(228,72.8,97.11999999999999)" /></g><text font-family="Arial" font-size="14" text-anchor="middle" x="425" y="380">Option 2</text><g transform="translate(350,400)"><polygon fill="none" points="90,91 138,91 114.0,43" stroke="black" stroke-width="2" transform="rotate(210,114.0,67.0)" /><rect fill="none" height="44" stroke="black" stroke-width="2" transform="rotate(203,64.0,76.0)" width="44" x="42" y="54" /></g><text font-family="Arial" font-size="14" text-anchor="middle" x="175" y="630">Option 3</text><g transform="translate(100,650)"><polygon fill="none" points="90,137.07999999999998 157.2,137.07999999999998 123.6,43" stroke="black" stroke-width="2" transform="rotate(234,123.6,90.03999999999999)" /><polygon fill="none" points="42,140.23999999999998 103.6,140.23999999999998 72.8,54" stroke="black" stroke-width="2" transform="rotate(226,72.8,97.11999999999999)" /></g><text font-family="Arial" font-size="14" text-anchor="middle" x="425" y="630">Option 4</text><g transform="translate(350,650)"><polygon fill="none" points="90,137.07999999999998 157.2,137.07999999999998 123.6,43" stroke="black" stroke-width="2" transform="rotate(237,123.6,90.03999999999999)" /><polygon fill="none" points="42,140.23999999999998 103.6,140.23999999999998 72.8,54" stroke="black" stroke-width="2" transform="rotate(230,72.8,97.11999999999999)" /></g></svg>