<?xml version="1.0" encoding="utf-8" ?>
<svg baseProfile="full" height="1000px" version="1.1" width="600px" xmlns="http://www.w3.org/2000/svg" xmlns:ev="http://www.w3.org/2001/xml-events" xmlns:xlink="http://www.w3.org/1999/xlink"><defs /><rect fill="white" height="100%" width="100%" x="0" y="0" /><text font-family="Arial" font-size="24" text-anchor="middle" x="300" y="40">Visual Discrimination Test</text><text font-family="Arial" font-size="18" text-anchor="middle" x="300" y="80">Target Pattern</text><g transform="translate(200,100)"><polygon fill="none" points="113,143 158,143 135.5,98" stroke="black" stroke-width="2" transform="rotate(307,135.5,120.5)" /><polygon fill="none" points="51,178 101,178 76.0,128" stroke="black" stroke-width="2" transform="rotate(353,76.0,153.0)" /></g><text font-family="Arial" font-size="18" text-anchor="middle" x="300" y="350">Options</text><text font-family="Arial" font-size="14" text-anchor="middle" x="175" y="380">Option 1</text><g transform="translate(100,400)"><rect fill="none" height="39.60000000000001" stroke="black" stroke-width="2" transform="rotate(313,137.75,117.80000000000001)" width="49.50000000000001" x="113" y="98" /><rect fill="none" height="44.00000000000001" stroke="black" stroke-width="2" transform="rotate(358,78.5,150.0)" width="55.00000000000001" x="51" y="128" /></g><text font-family="Arial" font-size="14" text-anchor="middle" x="425" y="380">Option 2</text><g transform="translate(350,400)"><line stroke="black" stroke-width="2" transform="rotate(314,137.75,122.75)" x1="113" x2="162.5" y1="98" y2="147.5" /><polygon fill="none" points="51,172.0 106.0,172.0 78.5,128" stroke="black" stroke-width="2" transform="rotate(356,78.5,150.0)" /></g><text font-family="Arial" font-size="14" text-anchor="middle" x="175" y="630">Option 3</text><g transform="translate(100,650)"><line stroke="black" stroke-width="2" transform="rotate(314,137.75,122.75)" x1="113" x2="162.5" y1="98" y2="147.5" /><line stroke="black" stroke-width="2" transform="rotate(358,78.5,155.5)" x1="51" x2="106.0" y1="128" y2="183.0" /></g><text font-family="Arial" font-size="14" text-anchor="middle" x="425" y="630">Option 4</text><g transform="translate(350,650)"><polygon fill="none" points="113,143 158,143 135.5,98" stroke="black" stroke-width="2" transform="rotate(307,135.5,120.5)" /><polygon fill="none" points="51,178 101,178 76.0,128" stroke="black" stroke-width="2" transform="rotate(353,76.0,153.0)" /></g></svg>