<?xml version="1.0" encoding="utf-8" ?>
<svg baseProfile="full" height="1000px" version="1.1" width="600px" xmlns="http://www.w3.org/2000/svg" xmlns:ev="http://www.w3.org/2001/xml-events" xmlns:xlink="http://www.w3.org/1999/xlink"><defs /><rect fill="white" height="100%" width="100%" x="0" y="0" /><text font-family="Arial" font-size="24" text-anchor="middle" x="300" y="40">Visual Discrimination Test</text><text font-family="Arial" font-size="18" text-anchor="middle" x="300" y="80">Target Pattern</text><g transform="translate(200,100)"><circle cx="91" cy="100" fill="none" r="15.0" stroke="black" stroke-width="2" /><rect fill="none" height="48" stroke="black" stroke-width="2" transform="rotate(78,138.0,107.0)" width="48" x="114" y="83" /><circle cx="150" cy="129" fill="none" r="20.5" stroke="black" stroke-width="2" /><rect fill="none" height="33" stroke="black" stroke-width="2" transform="rotate(178,136.5,65.5)" width="33" x="120" y="49" /><polygon fill="none" points="42,59 72,59 57.0,29" stroke="black" stroke-width="2" transform="rotate(69,57.0,44.0)" /><circle cx="109" cy="12" fill="none" r="15.0" stroke="black" stroke-width="2" /><rect fill="none" height="49" stroke="black" stroke-width="2" transform="rotate(338,45.5,50.5)" width="49" x="21" y="26" /><rect fill="none" height="40" stroke="black" stroke-width="2" transform="rotate(174,129.0,73.0)" width="40" x="109" y="53" /><polygon fill="none" points="110,176 156,176 133.0,130" stroke="black" stroke-width="2" transform="rotate(187,133.0,153.0)" /><polygon fill="none" points="97,138 134,138 115.5,101" stroke="black" stroke-width="2" transform="rotate(334,115.5,119.5)" /></g><text font-family="Arial" font-size="18" text-anchor="middle" x="300" y="350">Options</text><text font-family="Arial" font-size="14" text-anchor="middle" x="175" y="380">Option 1</text><g transform="translate(100,400)"><circle cx="91" cy="100" fill="none" r="15.0" stroke="black" stroke-width="2" /><rect fill="none" height="48" stroke="black" stroke-width="2" transform="rotate(78,138.0,107.0)" width="48" x="114" y="83" /><circle cx="150" cy="129" fill="none" r="20.5" stroke="black" stroke-width="2" /><rect fill="none" height="33" stroke="black" stroke-width="2" transform="rotate(178,136.5,65.5)" width="33" x="120" y="49" /><polygon fill="none" points="42,59 72,59 57.0,29" stroke="black" stroke-width="2" transform="rotate(69,57.0,44.0)" /><circle cx="109" cy="12" fill="none" r="15.0" stroke="black" stroke-width="2" /><rect fill="none" height="49" stroke="black" stroke-width="2" transform="rotate(338,45.5,50.5)" width="49" x="21" y="26" /><rect fill="none" height="40" stroke="black" stroke-width="2" transform="rotate(174,129.0,73.0)" width="40" x="109" y="53" /><polygon fill="none" points="110,176 156,176 133.0,130" stroke="black" stroke-width="2" transform="rotate(187,133.0,153.0)" /><polygon fill="none" points="97,138 134,138 115.5,101" stroke="black" stroke-width="2" transform="rotate(334,115.5,119.5)" /></g><text font-family="Arial" font-size="14" text-anchor="middle" x="425" y="380">Option 2</text><g transform="translate(350,400)"><circle cx="91" cy="100" fill="none" r="12.0" stroke="black" stroke-width="2" /><rect fill="none" height="30.720000000000006" stroke="black" stroke-width="2" transform="rotate(126,133.2,98.36)" width="38.400000000000006" x="114" y="83" /><circle cx="150" cy="129" fill="none" r="16.400000000000002" stroke="black" stroke-width="2" /><rect fill="none" height="21.120000000000005" stroke="black" stroke-width="2" transform="rotate(227,133.2,59.56)" width="26.400000000000002" x="120" y="49" /><polygon fill="none" points="42,48.2 66.0,48.2 54.0,29" stroke="black" stroke-width="2" transform="rotate(120,54.0,38.6)" /><circle cx="109" cy="12" fill="none" r="12.0" stroke="black" stroke-width="2" /><rect fill="none" height="31.360000000000003" stroke="black" stroke-width="2" transform="rotate(389,40.6,41.68)" width="39.2" x="21" y="26" /><rect fill="none" height="25.6" stroke="black" stroke-width="2" transform="rotate(224,125.0,65.8)" width="32.0" x="109" y="53" /><polygon fill="none" points="110,159.44 146.8,159.44 128.4,130" stroke="black" stroke-width="2" transform="rotate(237,128.4,144.72)" /><polygon fill="none" points="97,124.68 126.6,124.68 111.8,101" stroke="black" stroke-width="2" transform="rotate(386,111.8,112.84)" /></g><text font-family="Arial" font-size="14" text-anchor="middle" x="175" y="630">Option 3</text><g transform="translate(100,650)"><circle cx="91" cy="100" fill="none" r="12.0" stroke="black" stroke-width="2" /><rect fill="none" height="30.720000000000006" stroke="black" stroke-width="2" transform="rotate(126,133.2,98.36)" width="38.400000000000006" x="114" y="83" /><circle cx="150" cy="129" fill="none" r="16.400000000000002" stroke="black" stroke-width="2" /><rect fill="none" height="21.120000000000005" stroke="black" stroke-width="2" transform="rotate(230,133.2,59.56)" width="26.400000000000002" x="120" y="49" /><polygon fill="none" points="42,48.2 66.0,48.2 54.0,29" stroke="black" stroke-width="2" transform="rotate(120,54.0,38.6)" /><circle cx="109" cy="12" fill="none" r="12.0" stroke="black" stroke-width="2" /><rect fill="none" height="31.360000000000003" stroke="black" stroke-width="2" transform="rotate(387,40.6,41.68)" width="39.2" x="21" y="26" /><rect fill="none" height="25.6" stroke="black" stroke-width="2" transform="rotate(224,125.0,65.8)" width="32.0" x="109" y="53" /><polygon fill="none" points="110,159.44 146.8,159.44 128.4,130" stroke="black" stroke-width="2" transform="rotate(238,128.4,144.72)" /><polygon fill="none" points="97,124.68 126.6,124.68 111.8,101" stroke="black" stroke-width="2" transform="rotate(386,111.8,112.84)" /></g><text font-family="Arial" font-size="14" text-anchor="middle" x="425" y="630">Option 4</text><g transform="translate(350,650)"><circle cx="91" cy="100" fill="none" r="12.0" stroke="black" stroke-width="2" /><rect fill="none" height="30.720000000000006" stroke="black" stroke-width="2" transform="rotate(130,133.2,98.36)" width="38.400000000000006" x="114" y="83" /><circle cx="150" cy="129" fill="none" r="16.400000000000002" stroke="black" stroke-width="2" /><rect fill="none" height="21.120000000000005" stroke="black" stroke-width="2" transform="rotate(226,133.2,59.56)" width="26.400000000000002" x="120" y="49" /><polygon fill="none" points="42,48.2 66.0,48.2 54.0,29" stroke="black" stroke-width="2" transform="rotate(120,54.0,38.6)" /><circle cx="109" cy="12" fill="none" r="12.0" stroke="black" stroke-width="2" /><rect fill="none" height="31.360000000000003" stroke="black" stroke-width="2" transform="rotate(388,40.6,41.68)" width="39.2" x="21" y="26" /><rect fill="none" height="25.6" stroke="black" stroke-width="2" transform="rotate(224,125.0,65.8)" width="32.0" x="109" y="53" /><polygon fill="none" points="110,159.44 146.8,159.44 128.4,130" stroke="black" stroke-width="2" transform="rotate(235,128.4,144.72)" /><polygon fill="none" points="97,124.68 126.6,124.68 111.8,101" stroke="black" stroke-width="2" transform="rotate(385,111.8,112.84)" /></g></svg>