<?xml version="1.0" encoding="utf-8" ?>
<svg baseProfile="full" height="1000px" version="1.1" width="600px" xmlns="http://www.w3.org/2000/svg" xmlns:ev="http://www.w3.org/2001/xml-events" xmlns:xlink="http://www.w3.org/1999/xlink"><defs /><rect fill="white" height="100%" width="100%" x="0" y="0" /><text font-family="Arial" font-size="24" text-anchor="middle" x="300" y="40">Visual Discrimination Test</text><text font-family="Arial" font-size="18" text-anchor="middle" x="300" y="80">Target Pattern</text><g transform="translate(200,100)"><rect fill="none" height="34" stroke="black" stroke-width="2" transform="rotate(59,124.0,107.0)" width="34" x="107" y="90" /><line stroke="black" stroke-width="2" transform="rotate(187,52.5,58.5)" x1="33" x2="72" y1="39" y2="78" /></g><text font-family="Arial" font-size="18" text-anchor="middle" x="300" y="350">Options</text><text font-family="Arial" font-size="14" text-anchor="middle" x="175" y="380">Option 1</text><g transform="translate(100,400)"><rect fill="none" height="21.760000000000005" stroke="black" stroke-width="2" transform="rotate(107,120.6,100.88)" width="27.200000000000003" x="107" y="90" /><line stroke="black" stroke-width="2" transform="rotate(239,48.6,54.6)" x1="33" x2="64.2" y1="39" y2="70.2" /></g><text font-family="Arial" font-size="14" text-anchor="middle" x="425" y="380">Option 2</text><g transform="translate(350,400)"><rect fill="none" height="21.760000000000005" stroke="black" stroke-width="2" transform="rotate(108,120.6,100.88)" width="27.200000000000003" x="107" y="90" /><line stroke="black" stroke-width="2" transform="rotate(236,48.6,54.6)" x1="33" x2="64.2" y1="39" y2="70.2" /></g><text font-family="Arial" font-size="14" text-anchor="middle" x="175" y="630">Option 3</text><g transform="translate(100,650)"><rect fill="none" height="34" stroke="black" stroke-width="2" transform="rotate(59,124.0,107.0)" width="34" x="107" y="90" /><line stroke="black" stroke-width="2" transform="rotate(187,52.5,58.5)" x1="33" x2="72" y1="39" y2="78" /></g><text font-family="Arial" font-size="14" text-anchor="middle" x="425" y="630">Option 4</text><g transform="translate(350,650)"><rect fill="none" height="21.760000000000005" stroke="black" stroke-width="2" transform="rotate(108,120.6,100.88)" width="27.200000000000003" x="107" y="90" /><line stroke="black" stroke-width="2" transform="rotate(239,48.6,54.6)" x1="33" x2="64.2" y1="39" y2="70.2" /></g></svg>