<?xml version="1.0" encoding="utf-8" ?>
<svg baseProfile="full" height="1000px" version="1.1" width="600px" xmlns="http://www.w3.org/2000/svg" xmlns:ev="http://www.w3.org/2001/xml-events" xmlns:xlink="http://www.w3.org/1999/xlink"><defs /><rect fill="white" height="100%" width="100%" x="0" y="0" /><text font-family="Arial" font-size="24" text-anchor="middle" x="300" y="40">Visual Discrimination Test</text><text font-family="Arial" font-size="18" text-anchor="middle" x="300" y="80">Target Pattern</text><g transform="translate(200,100)"><circle cx="20" cy="87" fill="none" r="20.0" stroke="black" stroke-width="2" /><circle cx="46" cy="93" fill="none" r="23.0" stroke="black" stroke-width="2" /><line stroke="black" stroke-width="2" transform="rotate(277,109.0,75.0)" x1="87" x2="131" y1="53" y2="97" /><polygon fill="none" points="117,147 163,147 140.0,101" stroke="black" stroke-width="2" transform="rotate(275,140.0,124.0)" /><rect fill="none" height="43" stroke="black" stroke-width="2" transform="rotate(89,151.5,147.5)" width="43" x="130" y="126" /><circle cx="110" cy="16" fill="none" r="16.5" stroke="black" stroke-width="2" /><line stroke="black" stroke-width="2" transform="rotate(57,60.0,76.0)" x1="36" x2="84" y1="52" y2="100" /><line stroke="black" stroke-width="2" transform="rotate(191,81.0,55.0)" x1="62" x2="100" y1="36" y2="74" /><polygon fill="none" points="111,133 145,133 128.0,99" stroke="black" stroke-width="2" transform="rotate(216,128.0,116.0)" /><circle cx="88" cy="115" fill="none" r="17.5" stroke="black" stroke-width="2" /></g><text font-family="Arial" font-size="18" text-anchor="middle" x="300" y="350">Options</text><text font-family="Arial" font-size="14" text-anchor="middle" x="175" y="380">Option 1</text><g transform="translate(100,400)"><circle cx="20" cy="87" fill="none" r="16.0" stroke="black" stroke-width="2" /><circle cx="46" cy="93" fill="none" r="18.400000000000002" stroke="black" stroke-width="2" /><line stroke="black" stroke-width="2" transform="rotate(328,104.6,70.6)" x1="87" x2="122.2" y1="53" y2="88.2" /><polygon fill="none" points="117,130.44 153.8,130.44 135.4,101" stroke="black" stroke-width="2" transform="rotate(324,135.4,115.72)" /><rect fill="none" height="27.52" stroke="black" stroke-width="2" transform="rotate(140,147.2,139.76)" width="34.4" x="130" y="126" /><circle cx="110" cy="16" fill="none" r="13.200000000000001" stroke="black" stroke-width="2" /><line stroke="black" stroke-width="2" transform="rotate(105,55.2,71.2)" x1="36" x2="74.4" y1="52" y2="90.4" /><line stroke="black" stroke-width="2" transform="rotate(239,77.2,51.2)" x1="62" x2="92.4" y1="36" y2="66.4" /><polygon fill="none" points="111,120.76 138.2,120.76 124.6,99" stroke="black" stroke-width="2" transform="rotate(265,124.6,109.88)" /><circle cx="88" cy="115" fill="none" r="14.0" stroke="black" stroke-width="2" /></g><text font-family="Arial" font-size="14" text-anchor="middle" x="425" y="380">Option 2</text><g transform="translate(350,400)"><circle cx="20" cy="87" fill="none" r="16.0" stroke="black" stroke-width="2" /><circle cx="46" cy="93" fill="none" r="18.400000000000002" stroke="black" stroke-width="2" /><line stroke="black" stroke-width="2" transform="rotate(329,104.6,70.6)" x1="87" x2="122.2" y1="53" y2="88.2" /><polygon fill="none" points="117,130.44 153.8,130.44 135.4,101" stroke="black" stroke-width="2" transform="rotate(326,135.4,115.72)" /><rect fill="none" height="27.52" stroke="black" stroke-width="2" transform="rotate(140,147.2,139.76)" width="34.4" x="130" y="126" /><circle cx="110" cy="16" fill="none" r="13.200000000000001" stroke="black" stroke-width="2" /><line stroke="black" stroke-width="2" transform="rotate(107,55.2,71.2)" x1="36" x2="74.4" y1="52" y2="90.4" /><line stroke="black" stroke-width="2" transform="rotate(239,77.2,51.2)" x1="62" x2="92.4" y1="36" y2="66.4" /><polygon fill="none" points="111,120.76 138.2,120.76 124.6,99" stroke="black" stroke-width="2" transform="rotate(268,124.6,109.88)" /><circle cx="88" cy="115" fill="none" r="14.0" stroke="black" stroke-width="2" /></g><text font-family="Arial" font-size="14" text-anchor="middle" x="175" y="630">Option 3</text><g transform="translate(100,650)"><circle cx="20" cy="87" fill="none" r="20.0" stroke="black" stroke-width="2" /><circle cx="46" cy="93" fill="none" r="23.0" stroke="black" stroke-width="2" /><line stroke="black" stroke-width="2" transform="rotate(277,109.0,75.0)" x1="87" x2="131" y1="53" y2="97" /><polygon fill="none" points="117,147 163,147 140.0,101" stroke="black" stroke-width="2" transform="rotate(275,140.0,124.0)" /><rect fill="none" height="43" stroke="black" stroke-width="2" transform="rotate(89,151.5,147.5)" width="43" x="130" y="126" /><circle cx="110" cy="16" fill="none" r="16.5" stroke="black" stroke-width="2" /><line stroke="black" stroke-width="2" transform="rotate(57,60.0,76.0)" x1="36" x2="84" y1="52" y2="100" /><line stroke="black" stroke-width="2" transform="rotate(191,81.0,55.0)" x1="62" x2="100" y1="36" y2="74" /><polygon fill="none" points="111,133 145,133 128.0,99" stroke="black" stroke-width="2" transform="rotate(216,128.0,116.0)" /><circle cx="88" cy="115" fill="none" r="17.5" stroke="black" stroke-width="2" /></g><text font-family="Arial" font-size="14" text-anchor="middle" x="425" y="630">Option 4</text><g transform="translate(350,650)"><circle cx="20" cy="87" fill="none" r="16.0" stroke="black" stroke-width="2" /><circle cx="46" cy="93" fill="none" r="18.400000000000002" stroke="black" stroke-width="2" /><line stroke="black" stroke-width="2" transform="rotate(325,104.6,70.6)" x1="87" x2="122.2" y1="53" y2="88.2" /><polygon fill="none" points="117,130.44 153.8,130.44 135.4,101" stroke="black" stroke-width="2" transform="rotate(327,135.4,115.72)" /><rect fill="none" height="27.52" stroke="black" stroke-width="2" transform="rotate(140,147.2,139.76)" width="34.4" x="130" y="126" /><circle cx="110" cy="16" fill="none" r="13.200000000000001" stroke="black" stroke-width="2" /><line stroke="black" stroke-width="2" transform="rotate(109,55.2,71.2)" x1="36" x2="74.4" y1="52" y2="90.4" /><line stroke="black" stroke-width="2" transform="rotate(239,77.2,51.2)" x1="62" x2="92.4" y1="36" y2="66.4" /><polygon fill="none" points="111,120.76 138.2,120.76 124.6,99" stroke="black" stroke-width="2" transform="rotate(265,124.6,109.88)" /><circle cx="88" cy="115" fill="none" r="14.0" stroke="black" stroke-width="2" /></g></svg>