<?xml version="1.0" encoding="utf-8" ?>
<svg baseProfile="full" height="1000px" version="1.1" width="600px" xmlns="http://www.w3.org/2000/svg" xmlns:ev="http://www.w3.org/2001/xml-events" xmlns:xlink="http://www.w3.org/1999/xlink"><defs /><rect fill="white" height="100%" width="100%" x="0" y="0" /><text font-family="Arial" font-size="24" text-anchor="middle" x="300" y="40">Visual Discrimination Test</text><text font-family="Arial" font-size="18" text-anchor="middle" x="300" y="80">Target Pattern</text><g transform="translate(200,100)"><polygon fill="none" points="91,164 137,164 114.0,118" stroke="black" stroke-width="2" transform="rotate(18,114.0,141.0)" /><polygon fill="none" points="36,159 80,159 58.0,115" stroke="black" stroke-width="2" transform="rotate(179,58.0,137.0)" /><line stroke="black" stroke-width="2" transform="rotate(286,86.0,116.0)" x1="70" x2="102" y1="100" y2="132" /><rect fill="none" height="32" stroke="black" stroke-width="2" transform="rotate(353,37.0,163.0)" width="32" x="21" y="147" /><circle cx="142" cy="19" fill="none" r="22.0" stroke="black" stroke-width="2" /><polygon fill="none" points="91,110 139,110 115.0,62" stroke="black" stroke-width="2" transform="rotate(312,115.0,86.0)" /><polygon fill="none" points="20,162 61,162 40.5,121" stroke="black" stroke-width="2" transform="rotate(226,40.5,141.5)" /><line stroke="black" stroke-width="2" transform="rotate(190,101.0,37.0)" x1="84" x2="118" y1="20" y2="54" /></g><text font-family="Arial" font-size="18" text-anchor="middle" x="300" y="350">Options</text><text font-family="Arial" font-size="14" text-anchor="middle" x="175" y="380">Option 1</text><g transform="translate(100,400)"><polygon fill="none" points="91,147.44 127.80000000000001,147.44 109.4,118" stroke="black" stroke-width="2" transform="rotate(66,109.4,132.72)" /><polygon fill="none" points="36,143.16 71.2,143.16 53.6,115" stroke="black" stroke-width="2" transform="rotate(228,53.6,129.08)" /><line stroke="black" stroke-width="2" transform="rotate(334,82.8,112.8)" x1="70" x2="95.6" y1="100" y2="125.6" /><rect fill="none" height="20.480000000000004" stroke="black" stroke-width="2" transform="rotate(402,33.8,157.24)" width="25.6" x="21" y="147" /><circle cx="142" cy="19" fill="none" r="17.6" stroke="black" stroke-width="2" /><polygon fill="none" points="91,92.72 129.4,92.72 110.2,62" stroke="black" stroke-width="2" transform="rotate(363,110.2,77.36)" /><polygon fill="none" points="20,147.24 52.800000000000004,147.24 36.400000000000006,121" stroke="black" stroke-width="2" transform="rotate(276,36.400000000000006,134.12)" /><line stroke="black" stroke-width="2" transform="rotate(239,97.6,33.6)" x1="84" x2="111.2" y1="20" y2="47.2" /></g><text font-family="Arial" font-size="14" text-anchor="middle" x="425" y="380">Option 2</text><g transform="translate(350,400)"><polygon fill="none" points="91,164 137,164 114.0,118" stroke="black" stroke-width="2" transform="rotate(18,114.0,141.0)" /><polygon fill="none" points="36,159 80,159 58.0,115" stroke="black" stroke-width="2" transform="rotate(179,58.0,137.0)" /><line stroke="black" stroke-width="2" transform="rotate(286,86.0,116.0)" x1="70" x2="102" y1="100" y2="132" /><rect fill="none" height="32" stroke="black" stroke-width="2" transform="rotate(353,37.0,163.0)" width="32" x="21" y="147" /><circle cx="142" cy="19" fill="none" r="22.0" stroke="black" stroke-width="2" /><polygon fill="none" points="91,110 139,110 115.0,62" stroke="black" stroke-width="2" transform="rotate(312,115.0,86.0)" /><polygon fill="none" points="20,162 61,162 40.5,121" stroke="black" stroke-width="2" transform="rotate(226,40.5,141.5)" /><line stroke="black" stroke-width="2" transform="rotate(190,101.0,37.0)" x1="84" x2="118" y1="20" y2="54" /></g><text font-family="Arial" font-size="14" text-anchor="middle" x="175" y="630">Option 3</text><g transform="translate(100,650)"><polygon fill="none" points="91,147.44 127.80000000000001,147.44 109.4,118" stroke="black" stroke-width="2" transform="rotate(68,109.4,132.72)" /><polygon fill="none" points="36,143.16 71.2,143.16 53.6,115" stroke="black" stroke-width="2" transform="rotate(228,53.6,129.08)" /><line stroke="black" stroke-width="2" transform="rotate(337,82.8,112.8)" x1="70" x2="95.6" y1="100" y2="125.6" /><rect fill="none" height="20.480000000000004" stroke="black" stroke-width="2" transform="rotate(403,33.8,157.24)" width="25.6" x="21" y="147" /><circle cx="142" cy="19" fill="none" r="17.6" stroke="black" stroke-width="2" /><polygon fill="none" points="91,92.72 129.4,92.72 110.2,62" stroke="black" stroke-width="2" transform="rotate(363,110.2,77.36)" /><polygon fill="none" points="20,147.24 52.800000000000004,147.24 36.400000000000006,121" stroke="black" stroke-width="2" transform="rotate(277,36.400000000000006,134.12)" /><line stroke="black" stroke-width="2" transform="rotate(238,97.6,33.6)" x1="84" x2="111.2" y1="20" y2="47.2" /></g><text font-family="Arial" font-size="14" text-anchor="middle" x="425" y="630">Option 4</text><g transform="translate(350,650)"><polygon fill="none" points="91,147.44 127.80000000000001,147.44 109.4,118" stroke="black" stroke-width="2" transform="rotate(68,109.4,132.72)" /><polygon fill="none" points="36,143.16 71.2,143.16 53.6,115" stroke="black" stroke-width="2" transform="rotate(228,53.6,129.08)" /><line stroke="black" stroke-width="2" transform="rotate(336,82.8,112.8)" x1="70" x2="95.6" y1="100" y2="125.6" /><rect fill="none" height="20.480000000000004" stroke="black" stroke-width="2" transform="rotate(401,33.8,157.24)" width="25.6" x="21" y="147" /><circle cx="142" cy="19" fill="none" r="17.6" stroke="black" stroke-width="2" /><polygon fill="none" points="91,92.72 129.4,92.72 110.2,62" stroke="black" stroke-width="2" transform="rotate(362,110.2,77.36)" /><polygon fill="none" points="20,147.24 52.800000000000004,147.24 36.400000000000006,121" stroke="black" stroke-width="2" transform="rotate(276,36.400000000000006,134.12)" /><line stroke="black" stroke-width="2" transform="rotate(242,97.6,33.6)" x1="84" x2="111.2" y1="20" y2="47.2" /></g></svg>