<?xml version="1.0" encoding="utf-8" ?>
<svg baseProfile="full" height="1000px" version="1.1" width="600px" xmlns="http://www.w3.org/2000/svg" xmlns:ev="http://www.w3.org/2001/xml-events" xmlns:xlink="http://www.w3.org/1999/xlink"><defs /><rect fill="white" height="100%" width="100%" x="0" y="0" /><text font-family="Arial" font-size="24" text-anchor="middle" x="300" y="40">Visual Discrimination Test</text><text font-family="Arial" font-size="18" text-anchor="middle" x="300" y="80">Target Pattern</text><g transform="translate(200,100)"><circle cx="53" cy="106" fill="none" r="15.0" stroke="black" stroke-width="2" /><rect fill="none" height="37" stroke="black" stroke-width="2" transform="rotate(176,158.5,39.5)" width="37" x="140" y="21" /><polygon fill="none" points="150,74 184,74 167.0,40" stroke="black" stroke-width="2" transform="rotate(110,167.0,57.0)" /><circle cx="27" cy="96" fill="none" r="16.0" stroke="black" stroke-width="2" /><line stroke="black" stroke-width="2" transform="rotate(110,36.5,144.5)" x1="20" x2="53" y1="128" y2="161" /></g><text font-family="Arial" font-size="18" text-anchor="middle" x="300" y="350">Options</text><text font-family="Arial" font-size="14" text-anchor="middle" x="175" y="380">Option 1</text><g transform="translate(100,400)"><line stroke="black" stroke-width="2" transform="rotate(408,65.0,118.0)" x1="53" x2="77.0" y1="106" y2="130.0" /><line stroke="black" stroke-width="2" transform="rotate(226,154.8,35.8)" x1="140" x2="169.6" y1="21" y2="50.6" /><polygon fill="none" points="150,61.760000000000005 177.2,61.760000000000005 163.6,40" stroke="black" stroke-width="2" transform="rotate(161,163.6,50.88)" /><polygon fill="none" points="27,116.48 52.6,116.48 39.8,96" stroke="black" stroke-width="2" transform="rotate(245,39.8,106.24000000000001)" /><rect fill="none" height="21.120000000000005" stroke="black" stroke-width="2" transform="rotate(159,33.2,138.56)" width="26.400000000000002" x="20" y="128" /></g><text font-family="Arial" font-size="14" text-anchor="middle" x="425" y="380">Option 2</text><g transform="translate(350,400)"><circle cx="53" cy="106" fill="none" r="15.0" stroke="black" stroke-width="2" /><rect fill="none" height="37" stroke="black" stroke-width="2" transform="rotate(176,158.5,39.5)" width="37" x="140" y="21" /><polygon fill="none" points="150,74 184,74 167.0,40" stroke="black" stroke-width="2" transform="rotate(110,167.0,57.0)" /><circle cx="27" cy="96" fill="none" r="16.0" stroke="black" stroke-width="2" /><line stroke="black" stroke-width="2" transform="rotate(110,36.5,144.5)" x1="20" x2="53" y1="128" y2="161" /></g><text font-family="Arial" font-size="14" text-anchor="middle" x="175" y="630">Option 3</text><g transform="translate(100,650)"><rect fill="none" height="19.200000000000003" stroke="black" stroke-width="2" transform="rotate(408,65.0,115.6)" width="24.0" x="53" y="106" /><polygon fill="none" points="140,44.68000000000001 169.6,44.68000000000001 154.8,21" stroke="black" stroke-width="2" transform="rotate(226,154.8,32.84)" /><rect fill="none" height="21.760000000000005" stroke="black" stroke-width="2" transform="rotate(161,163.6,50.88)" width="27.200000000000003" x="150" y="40" /><line stroke="black" stroke-width="2" transform="rotate(243,39.8,108.8)" x1="27" x2="52.6" y1="96" y2="121.6" /><rect fill="none" height="21.120000000000005" stroke="black" stroke-width="2" transform="rotate(159,33.2,138.56)" width="26.400000000000002" x="20" y="128" /></g><text font-family="Arial" font-size="14" text-anchor="middle" x="425" y="630">Option 4</text><g transform="translate(350,650)"><line stroke="black" stroke-width="2" transform="rotate(407,65.0,118.0)" x1="53" x2="77.0" y1="106" y2="130.0" /><rect fill="none" height="23.680000000000003" stroke="black" stroke-width="2" transform="rotate(228,154.8,32.84)" width="29.6" x="140" y="21" /><rect fill="none" height="21.760000000000005" stroke="black" stroke-width="2" transform="rotate(158,163.6,50.88)" width="27.200000000000003" x="150" y="40" /><rect fill="none" height="20.480000000000004" stroke="black" stroke-width="2" transform="rotate(243,39.8,106.24000000000001)" width="25.6" x="27" y="96" /><line stroke="black" stroke-width="2" transform="rotate(160,33.2,141.2)" x1="20" x2="46.400000000000006" y1="128" y2="154.4" /></g></svg>