<?xml version="1.0" encoding="utf-8" ?>
<svg baseProfile="full" height="1000px" version="1.1" width="600px" xmlns="http://www.w3.org/2000/svg" xmlns:ev="http://www.w3.org/2001/xml-events" xmlns:xlink="http://www.w3.org/1999/xlink"><defs /><rect fill="white" height="100%" width="100%" x="0" y="0" /><text font-family="Arial" font-size="24" text-anchor="middle" x="300" y="40">Visual Discrimination Test</text><text font-family="Arial" font-size="18" text-anchor="middle" x="300" y="80">Target Pattern</text><g transform="translate(200,100)"><rect fill="none" height="35" stroke="black" stroke-width="2" transform="rotate(281,141.5,143.5)" width="35" x="124" y="126" /><rect fill="none" height="31" stroke="black" stroke-width="2" transform="rotate(277,140.5,64.5)" width="31" x="125" y="49" /><circle cx="105" cy="75" fill="none" r="21.5" stroke="black" stroke-width="2" /></g><text font-family="Arial" font-size="18" text-anchor="middle" x="300" y="350">Options</text><text font-family="Arial" font-size="14" text-anchor="middle" x="175" y="380">Option 1</text><g transform="translate(100,400)"><rect fill="none" height="22.400000000000002" stroke="black" stroke-width="2" transform="rotate(331,138.0,137.2)" width="28.0" x="124" y="126" /><rect fill="none" height="19.840000000000003" stroke="black" stroke-width="2" transform="rotate(329,137.4,58.92)" width="24.8" x="125" y="49" /><rect fill="none" height="27.52" stroke="black" stroke-width="2" transform="rotate(368,122.2,88.76)" width="34.4" x="105" y="75" /></g><text font-family="Arial" font-size="14" text-anchor="middle" x="425" y="380">Option 2</text><g transform="translate(350,400)"><rect fill="none" height="35" stroke="black" stroke-width="2" transform="rotate(281,141.5,143.5)" width="35" x="124" y="126" /><rect fill="none" height="31" stroke="black" stroke-width="2" transform="rotate(277,140.5,64.5)" width="31" x="125" y="49" /><circle cx="105" cy="75" fill="none" r="21.5" stroke="black" stroke-width="2" /></g><text font-family="Arial" font-size="14" text-anchor="middle" x="175" y="630">Option 3</text><g transform="translate(100,650)"><polygon fill="none" points="124,148.4 152.0,148.4 138.0,126" stroke="black" stroke-width="2" transform="rotate(329,138.0,137.2)" /><line stroke="black" stroke-width="2" transform="rotate(327,137.4,61.4)" x1="125" x2="149.8" y1="49" y2="73.8" /><polygon fill="none" points="105,102.52 139.4,102.52 122.2,75" stroke="black" stroke-width="2" transform="rotate(369,122.2,88.76)" /></g><text font-family="Arial" font-size="14" text-anchor="middle" x="425" y="630">Option 4</text><g transform="translate(350,650)"><polygon fill="none" points="124,148.4 152.0,148.4 138.0,126" stroke="black" stroke-width="2" transform="rotate(329,138.0,137.2)" /><polygon fill="none" points="125,68.84 149.8,68.84 137.4,49" stroke="black" stroke-width="2" transform="rotate(328,137.4,58.92)" /><polygon fill="none" points="105,102.52 139.4,102.52 122.2,75" stroke="black" stroke-width="2" transform="rotate(372,122.2,88.76)" /></g></svg>