<?xml version="1.0" encoding="utf-8" ?>
<svg baseProfile="full" height="1000px" version="1.1" width="600px" xmlns="http://www.w3.org/2000/svg" xmlns:ev="http://www.w3.org/2001/xml-events" xmlns:xlink="http://www.w3.org/1999/xlink"><defs /><rect fill="white" height="100%" width="100%" x="0" y="0" /><text font-family="Arial" font-size="24" text-anchor="middle" x="300" y="40">Visual Discrimination Test</text><text font-family="Arial" font-size="18" text-anchor="middle" x="300" y="80">Target Pattern</text><g transform="translate(200,100)"><circle cx="82" cy="56" fill="none" r="19.0" stroke="black" stroke-width="2" /><polygon fill="none" points="18,165 59,165 38.5,124" stroke="black" stroke-width="2" transform="rotate(150,38.5,144.5)" /><polygon fill="none" points="79,94 110,94 94.5,63" stroke="black" stroke-width="2" transform="rotate(153,94.5,78.5)" /><line stroke="black" stroke-width="2" transform="rotate(287,119.0,63.0)" x1="100" x2="138" y1="44" y2="82" /></g><text font-family="Arial" font-size="18" text-anchor="middle" x="300" y="350">Options</text><text font-family="Arial" font-size="14" text-anchor="middle" x="175" y="380">Option 1</text><g transform="translate(100,400)"><rect fill="none" height="24.320000000000004" stroke="black" stroke-width="2" transform="rotate(99,97.2,68.16)" width="30.400000000000002" x="82" y="56" /><line stroke="black" stroke-width="2" transform="rotate(202,34.400000000000006,140.4)" x1="18" x2="50.800000000000004" y1="124" y2="156.8" /><rect fill="none" height="19.840000000000003" stroke="black" stroke-width="2" transform="rotate(203,91.4,72.92)" width="24.8" x="79" y="63" /><rect fill="none" height="24.320000000000004" stroke="black" stroke-width="2" transform="rotate(339,115.2,56.160000000000004)" width="30.400000000000002" x="100" y="44" /></g><text font-family="Arial" font-size="14" text-anchor="middle" x="425" y="380">Option 2</text><g transform="translate(350,400)"><line stroke="black" stroke-width="2" transform="rotate(99,97.2,71.2)" x1="82" x2="112.4" y1="56" y2="86.4" /><rect fill="none" height="26.240000000000006" stroke="black" stroke-width="2" transform="rotate(200,34.400000000000006,137.12)" width="32.800000000000004" x="18" y="124" /><rect fill="none" height="19.840000000000003" stroke="black" stroke-width="2" transform="rotate(205,91.4,72.92)" width="24.8" x="79" y="63" /><rect fill="none" height="24.320000000000004" stroke="black" stroke-width="2" transform="rotate(338,115.2,56.160000000000004)" width="30.400000000000002" x="100" y="44" /></g><text font-family="Arial" font-size="14" text-anchor="middle" x="175" y="630">Option 3</text><g transform="translate(100,650)"><circle cx="82" cy="56" fill="none" r="19.0" stroke="black" stroke-width="2" /><polygon fill="none" points="18,165 59,165 38.5,124" stroke="black" stroke-width="2" transform="rotate(150,38.5,144.5)" /><polygon fill="none" points="79,94 110,94 94.5,63" stroke="black" stroke-width="2" transform="rotate(153,94.5,78.5)" /><line stroke="black" stroke-width="2" transform="rotate(287,119.0,63.0)" x1="100" x2="138" y1="44" y2="82" /></g><text font-family="Arial" font-size="14" text-anchor="middle" x="425" y="630">Option 4</text><g transform="translate(350,650)"><polygon fill="none" points="82,80.32000000000001 112.4,80.32000000000001 97.2,56" stroke="black" stroke-width="2" transform="rotate(99,97.2,68.16)" /><rect fill="none" height="26.240000000000006" stroke="black" stroke-width="2" transform="rotate(200,34.400000000000006,137.12)" width="32.800000000000004" x="18" y="124" /><polygon fill="none" points="79,82.84 103.8,82.84 91.4,63" stroke="black" stroke-width="2" transform="rotate(203,91.4,72.92)" /><line stroke="black" stroke-width="2" transform="rotate(338,115.2,59.2)" x1="100" x2="130.4" y1="44" y2="74.4" /></g></svg>