<?xml version="1.0" encoding="utf-8" ?>
<svg baseProfile="full" height="1000px" version="1.1" width="600px" xmlns="http://www.w3.org/2000/svg" xmlns:ev="http://www.w3.org/2001/xml-events" xmlns:xlink="http://www.w3.org/1999/xlink"><defs /><rect fill="white" height="100%" width="100%" x="0" y="0" /><text font-family="Arial" font-size="24" text-anchor="middle" x="300" y="40">Visual Discrimination Test</text><text font-family="Arial" font-size="18" text-anchor="middle" x="300" y="80">Target Pattern</text><g transform="translate(200,100)"><rect fill="none" height="47" stroke="black" stroke-width="2" transform="rotate(306,160.5,105.5)" width="47" x="137" y="82" /><rect fill="none" height="44" stroke="black" stroke-width="2" transform="rotate(144,77.0,62.0)" width="44" x="55" y="40" /><circle cx="34" cy="114" fill="none" r="20.5" stroke="black" stroke-width="2" /><rect fill="none" height="44" stroke="black" stroke-width="2" transform="rotate(142,53.0,103.0)" width="44" x="31" y="81" /><rect fill="none" height="43" stroke="black" stroke-width="2" transform="rotate(249,37.5,46.5)" width="43" x="16" y="25" /><line stroke="black" stroke-width="2" transform="rotate(280,125.0,132.0)" x1="106" x2="144" y1="113" y2="151" /></g><text font-family="Arial" font-size="18" text-anchor="middle" x="300" y="350">Options</text><text font-family="Arial" font-size="14" text-anchor="middle" x="175" y="380">Option 1</text><g transform="translate(100,400)"><rect fill="none" height="47" stroke="black" stroke-width="2" transform="rotate(306,160.5,105.5)" width="47" x="137" y="82" /><rect fill="none" height="44" stroke="black" stroke-width="2" transform="rotate(144,77.0,62.0)" width="44" x="55" y="40" /><circle cx="34" cy="114" fill="none" r="20.5" stroke="black" stroke-width="2" /><rect fill="none" height="44" stroke="black" stroke-width="2" transform="rotate(142,53.0,103.0)" width="44" x="31" y="81" /><rect fill="none" height="43" stroke="black" stroke-width="2" transform="rotate(249,37.5,46.5)" width="43" x="16" y="25" /><line stroke="black" stroke-width="2" transform="rotate(280,125.0,132.0)" x1="106" x2="144" y1="113" y2="151" /></g><text font-family="Arial" font-size="14" text-anchor="middle" x="425" y="380">Option 2</text><g transform="translate(350,400)"><polygon fill="none" points="137,112.08 174.6,112.08 155.8,82" stroke="black" stroke-width="2" transform="rotate(355,155.8,97.04)" /><rect fill="none" height="28.160000000000004" stroke="black" stroke-width="2" transform="rotate(192,72.6,54.08)" width="35.2" x="55" y="40" /><rect fill="none" height="26.240000000000006" stroke="black" stroke-width="2" transform="rotate(241,50.400000000000006,127.12)" width="32.800000000000004" x="34" y="114" /><polygon fill="none" points="31,109.16 66.2,109.16 48.6,81" stroke="black" stroke-width="2" transform="rotate(190,48.6,95.08)" /><rect fill="none" height="27.52" stroke="black" stroke-width="2" transform="rotate(299,33.2,38.76)" width="34.4" x="16" y="25" /><rect fill="none" height="24.320000000000004" stroke="black" stroke-width="2" transform="rotate(328,121.2,125.16)" width="30.400000000000002" x="106" y="113" /></g><text font-family="Arial" font-size="14" text-anchor="middle" x="175" y="630">Option 3</text><g transform="translate(100,650)"><line stroke="black" stroke-width="2" transform="rotate(356,155.8,100.8)" x1="137" x2="174.6" y1="82" y2="119.6" /><polygon fill="none" points="55,68.16 90.2,68.16 72.6,40" stroke="black" stroke-width="2" transform="rotate(195,72.6,54.08)" /><rect fill="none" height="26.240000000000006" stroke="black" stroke-width="2" transform="rotate(241,50.400000000000006,127.12)" width="32.800000000000004" x="34" y="114" /><line stroke="black" stroke-width="2" transform="rotate(190,48.6,98.6)" x1="31" x2="66.2" y1="81" y2="116.2" /><polygon fill="none" points="16,52.519999999999996 50.4,52.519999999999996 33.2,25" stroke="black" stroke-width="2" transform="rotate(298,33.2,38.76)" /><polygon fill="none" points="106,137.32 136.4,137.32 121.2,113" stroke="black" stroke-width="2" transform="rotate(329,121.2,125.16)" /></g><text font-family="Arial" font-size="14" text-anchor="middle" x="425" y="630">Option 4</text><g transform="translate(350,650)"><polygon fill="none" points="137,112.08 174.6,112.08 155.8,82" stroke="black" stroke-width="2" transform="rotate(354,155.8,97.04)" /><rect fill="none" height="28.160000000000004" stroke="black" stroke-width="2" transform="rotate(194,72.6,54.08)" width="35.2" x="55" y="40" /><line stroke="black" stroke-width="2" transform="rotate(242,50.400000000000006,130.4)" x1="34" x2="66.80000000000001" y1="114" y2="146.8" /><rect fill="none" height="28.160000000000004" stroke="black" stroke-width="2" transform="rotate(194,48.6,95.08)" width="35.2" x="31" y="81" /><rect fill="none" height="27.52" stroke="black" stroke-width="2" transform="rotate(298,33.2,38.76)" width="34.4" x="16" y="25" /><line stroke="black" stroke-width="2" transform="rotate(329,121.2,128.2)" x1="106" x2="136.4" y1="113" y2="143.4" /></g></svg>