<?xml version="1.0" encoding="utf-8" ?>
<svg baseProfile="full" height="1000px" version="1.1" width="600px" xmlns="http://www.w3.org/2000/svg" xmlns:ev="http://www.w3.org/2001/xml-events" xmlns:xlink="http://www.w3.org/1999/xlink"><defs /><rect fill="white" height="100%" width="100%" x="0" y="0" /><text font-family="Arial" font-size="24" text-anchor="middle" x="300" y="40">Visual Discrimination Test</text><text font-family="Arial" font-size="18" text-anchor="middle" x="300" y="80">Target Pattern</text><g transform="translate(200,100)"><rect fill="none" height="45" stroke="black" stroke-width="2" transform="rotate(204,141.5,96.5)" width="45" x="119" y="74" /><circle cx="39" cy="22" fill="none" r="21.5" stroke="black" stroke-width="2" /><line stroke="black" stroke-width="2" transform="rotate(260,128.5,110.5)" x1="106" x2="151" y1="88" y2="133" /><rect fill="none" height="37" stroke="black" stroke-width="2" transform="rotate(120,31.5,146.5)" width="37" x="13" y="128" /><polygon fill="none" points="132,178 165,178 148.5,145" stroke="black" stroke-width="2" transform="rotate(299,148.5,161.5)" /><line stroke="black" stroke-width="2" transform="rotate(136,114.0,164.0)" x1="99" x2="129" y1="149" y2="179" /></g><text font-family="Arial" font-size="18" text-anchor="middle" x="300" y="350">Options</text><text font-family="Arial" font-size="14" text-anchor="middle" x="175" y="380">Option 1</text><g transform="translate(100,400)"><rect fill="none" height="45" stroke="black" stroke-width="2" transform="rotate(204,141.5,96.5)" width="45" x="119" y="74" /><circle cx="39" cy="22" fill="none" r="21.5" stroke="black" stroke-width="2" /><line stroke="black" stroke-width="2" transform="rotate(260,128.5,110.5)" x1="106" x2="151" y1="88" y2="133" /><rect fill="none" height="37" stroke="black" stroke-width="2" transform="rotate(120,31.5,146.5)" width="37" x="13" y="128" /><polygon fill="none" points="132,178 165,178 148.5,145" stroke="black" stroke-width="2" transform="rotate(299,148.5,161.5)" /><line stroke="black" stroke-width="2" transform="rotate(136,114.0,164.0)" x1="99" x2="129" y1="149" y2="179" /></g><text font-family="Arial" font-size="14" text-anchor="middle" x="425" y="380">Option 2</text><g transform="translate(350,400)"><polygon fill="none" points="119,102.8 155.0,102.8 137.0,74" stroke="black" stroke-width="2" transform="rotate(255,137.0,88.4)" /><line stroke="black" stroke-width="2" transform="rotate(305,56.2,39.2)" x1="39" x2="73.4" y1="22" y2="56.4" /><polygon fill="none" points="106,116.8 142.0,116.8 124.0,88" stroke="black" stroke-width="2" transform="rotate(308,124.0,102.4)" /><rect fill="none" height="23.680000000000003" stroke="black" stroke-width="2" transform="rotate(172,27.8,139.84)" width="29.6" x="13" y="128" /><line stroke="black" stroke-width="2" transform="rotate(350,145.2,158.2)" x1="132" x2="158.4" y1="145" y2="171.4" /><line stroke="black" stroke-width="2" transform="rotate(184,111.0,161.0)" x1="99" x2="123.0" y1="149" y2="173.0" /></g><text font-family="Arial" font-size="14" text-anchor="middle" x="175" y="630">Option 3</text><g transform="translate(100,650)"><rect fill="none" height="28.8" stroke="black" stroke-width="2" transform="rotate(256,137.0,88.4)" width="36.0" x="119" y="74" /><polygon fill="none" points="39,49.519999999999996 73.4,49.519999999999996 56.2,22" stroke="black" stroke-width="2" transform="rotate(305,56.2,35.76)" /><polygon fill="none" points="106,116.8 142.0,116.8 124.0,88" stroke="black" stroke-width="2" transform="rotate(308,124.0,102.4)" /><line stroke="black" stroke-width="2" transform="rotate(170,27.8,142.8)" x1="13" x2="42.6" y1="128" y2="157.6" /><rect fill="none" height="21.120000000000005" stroke="black" stroke-width="2" transform="rotate(349,145.2,155.56)" width="26.400000000000002" x="132" y="145" /><rect fill="none" height="19.200000000000003" stroke="black" stroke-width="2" transform="rotate(187,111.0,158.6)" width="24.0" x="99" y="149" /></g><text font-family="Arial" font-size="14" text-anchor="middle" x="425" y="630">Option 4</text><g transform="translate(350,650)"><rect fill="none" height="28.8" stroke="black" stroke-width="2" transform="rotate(256,137.0,88.4)" width="36.0" x="119" y="74" /><polygon fill="none" points="39,49.519999999999996 73.4,49.519999999999996 56.2,22" stroke="black" stroke-width="2" transform="rotate(306,56.2,35.76)" /><polygon fill="none" points="106,116.8 142.0,116.8 124.0,88" stroke="black" stroke-width="2" transform="rotate(309,124.0,102.4)" /><rect fill="none" height="23.680000000000003" stroke="black" stroke-width="2" transform="rotate(169,27.8,139.84)" width="29.6" x="13" y="128" /><rect fill="none" height="21.120000000000005" stroke="black" stroke-width="2" transform="rotate(348,145.2,155.56)" width="26.400000000000002" x="132" y="145" /><rect fill="none" height="19.200000000000003" stroke="black" stroke-width="2" transform="rotate(187,111.0,158.6)" width="24.0" x="99" y="149" /></g></svg>