<?xml version="1.0" encoding="utf-8" ?>
<svg baseProfile="full" height="1000px" version="1.1" width="600px" xmlns="http://www.w3.org/2000/svg" xmlns:ev="http://www.w3.org/2001/xml-events" xmlns:xlink="http://www.w3.org/1999/xlink"><defs /><rect fill="white" height="100%" width="100%" x="0" y="0" /><text font-family="Arial" font-size="24" text-anchor="middle" x="300" y="40">Visual Discrimination Test</text><text font-family="Arial" font-size="18" text-anchor="middle" x="300" y="80">Target Pattern</text><g transform="translate(200,100)"><rect fill="none" height="44" stroke="black" stroke-width="2" transform="rotate(330,86.0,159.0)" width="44" x="64" y="137" /><rect fill="none" height="40" stroke="black" stroke-width="2" transform="rotate(163,71.0,99.0)" width="40" x="51" y="79" /><polygon fill="none" points="19,91 63,91 41.0,47" stroke="black" stroke-width="2" transform="rotate(122,41.0,69.0)" /><line stroke="black" stroke-width="2" transform="rotate(233,72.0,108.0)" x1="48" x2="96" y1="84" y2="132" /><rect fill="none" height="40" stroke="black" stroke-width="2" transform="rotate(262,157.0,156.0)" width="40" x="137" y="136" /><line stroke="black" stroke-width="2" transform="rotate(108,70.5,31.5)" x1="54" x2="87" y1="15" y2="48" /></g><text font-family="Arial" font-size="18" text-anchor="middle" x="300" y="350">Options</text><text font-family="Arial" font-size="14" text-anchor="middle" x="175" y="380">Option 1</text><g transform="translate(100,400)"><polygon fill="none" points="64,175.72 112.4,175.72 88.2,137" stroke="black" stroke-width="2" transform="rotate(334,88.2,156.36)" /><line stroke="black" stroke-width="2" transform="rotate(166,73.0,101.0)" x1="51" x2="95.0" y1="79" y2="123.0" /><line stroke="black" stroke-width="2" transform="rotate(127,43.2,71.2)" x1="19" x2="67.4" y1="47" y2="95.4" /><rect fill="none" height="42.24000000000001" stroke="black" stroke-width="2" transform="rotate(240,74.4,105.12)" width="52.800000000000004" x="48" y="84" /><rect fill="none" height="35.2" stroke="black" stroke-width="2" transform="rotate(266,159.0,153.6)" width="44.0" x="137" y="136" /><line stroke="black" stroke-width="2" transform="rotate(113,72.15,33.150000000000006)" x1="54" x2="90.30000000000001" y1="15" y2="51.300000000000004" /></g><text font-family="Arial" font-size="14" text-anchor="middle" x="425" y="380">Option 2</text><g transform="translate(350,400)"><line stroke="black" stroke-width="2" transform="rotate(334,88.2,161.2)" x1="64" x2="112.4" y1="137" y2="185.4" /><rect fill="none" height="35.2" stroke="black" stroke-width="2" transform="rotate(169,73.0,96.6)" width="44.0" x="51" y="79" /><polygon fill="none" points="19,85.72 67.4,85.72 43.2,47" stroke="black" stroke-width="2" transform="rotate(127,43.2,66.36)" /><polygon fill="none" points="48,126.24000000000001 100.80000000000001,126.24000000000001 74.4,84" stroke="black" stroke-width="2" transform="rotate(236,74.4,105.12)" /><rect fill="none" height="35.2" stroke="black" stroke-width="2" transform="rotate(265,159.0,153.6)" width="44.0" x="137" y="136" /><polygon fill="none" points="54,44.040000000000006 90.30000000000001,44.040000000000006 72.15,15" stroke="black" stroke-width="2" transform="rotate(113,72.15,29.520000000000003)" /></g><text font-family="Arial" font-size="14" text-anchor="middle" x="175" y="630">Option 3</text><g transform="translate(100,650)"><rect fill="none" height="44" stroke="black" stroke-width="2" transform="rotate(330,86.0,159.0)" width="44" x="64" y="137" /><rect fill="none" height="40" stroke="black" stroke-width="2" transform="rotate(163,71.0,99.0)" width="40" x="51" y="79" /><polygon fill="none" points="19,91 63,91 41.0,47" stroke="black" stroke-width="2" transform="rotate(122,41.0,69.0)" /><line stroke="black" stroke-width="2" transform="rotate(233,72.0,108.0)" x1="48" x2="96" y1="84" y2="132" /><rect fill="none" height="40" stroke="black" stroke-width="2" transform="rotate(262,157.0,156.0)" width="40" x="137" y="136" /><line stroke="black" stroke-width="2" transform="rotate(108,70.5,31.5)" x1="54" x2="87" y1="15" y2="48" /></g><text font-family="Arial" font-size="14" text-anchor="middle" x="425" y="630">Option 4</text><g transform="translate(350,650)"><rect fill="none" height="38.720000000000006" stroke="black" stroke-width="2" transform="rotate(336,88.2,156.36)" width="48.400000000000006" x="64" y="137" /><polygon fill="none" points="51,114.2 95.0,114.2 73.0,79" stroke="black" stroke-width="2" transform="rotate(168,73.0,96.6)" /><line stroke="black" stroke-width="2" transform="rotate(125,43.2,71.2)" x1="19" x2="67.4" y1="47" y2="95.4" /><line stroke="black" stroke-width="2" transform="rotate(240,74.4,110.4)" x1="48" x2="100.80000000000001" y1="84" y2="136.8" /><line stroke="black" stroke-width="2" transform="rotate(268,159.0,158.0)" x1="137" x2="181.0" y1="136" y2="180.0" /><line stroke="black" stroke-width="2" transform="rotate(114,72.15,33.150000000000006)" x1="54" x2="90.30000000000001" y1="15" y2="51.300000000000004" /></g></svg>