<?xml version="1.0" encoding="utf-8" ?>
<svg baseProfile="full" height="1000px" version="1.1" width="600px" xmlns="http://www.w3.org/2000/svg" xmlns:ev="http://www.w3.org/2001/xml-events" xmlns:xlink="http://www.w3.org/1999/xlink"><defs /><rect fill="white" height="100%" width="100%" x="0" y="0" /><text font-family="Arial" font-size="24" text-anchor="middle" x="300" y="40">Visual Discrimination Test</text><text font-family="Arial" font-size="18" text-anchor="middle" x="300" y="80">Target Pattern</text><g transform="translate(200,100)"><polygon fill="none" points="103,164 136,164 119.5,131" stroke="black" stroke-width="2" transform="rotate(211,119.5,147.5)" /><line stroke="black" stroke-width="2" transform="rotate(289,37.0,33.0)" x1="16" x2="58" y1="12" y2="54" /></g><text font-family="Arial" font-size="18" text-anchor="middle" x="300" y="350">Options</text><text font-family="Arial" font-size="14" text-anchor="middle" x="175" y="380">Option 1</text><g transform="translate(100,400)"><polygon fill="none" points="103,164 136,164 119.5,131" stroke="black" stroke-width="2" transform="rotate(211,119.5,147.5)" /><line stroke="black" stroke-width="2" transform="rotate(289,37.0,33.0)" x1="16" x2="58" y1="12" y2="54" /></g><text font-family="Arial" font-size="14" text-anchor="middle" x="425" y="380">Option 2</text><g transform="translate(350,400)"><polygon fill="none" points="103,160.04000000000002 139.3,160.04000000000002 121.15,131" stroke="black" stroke-width="2" transform="rotate(263,121.15,145.52)" /><line stroke="black" stroke-width="2" transform="rotate(338,39.1,35.1)" x1="16" x2="62.2" y1="12" y2="58.2" /></g><text font-family="Arial" font-size="14" text-anchor="middle" x="175" y="630">Option 3</text><g transform="translate(100,650)"><polygon fill="none" points="103,160.04000000000002 139.3,160.04000000000002 121.15,131" stroke="black" stroke-width="2" transform="rotate(260,121.15,145.52)" /><line stroke="black" stroke-width="2" transform="rotate(341,39.1,35.1)" x1="16" x2="62.2" y1="12" y2="58.2" /></g><text font-family="Arial" font-size="14" text-anchor="middle" x="425" y="630">Option 4</text><g transform="translate(350,650)"><polygon fill="none" points="103,160.04000000000002 139.3,160.04000000000002 121.15,131" stroke="black" stroke-width="2" transform="rotate(261,121.15,145.52)" /><line stroke="black" stroke-width="2" transform="rotate(337,39.1,35.1)" x1="16" x2="62.2" y1="12" y2="58.2" /></g></svg>