<?xml version="1.0" encoding="utf-8" ?>
<svg baseProfile="full" height="1000px" version="1.1" width="600px" xmlns="http://www.w3.org/2000/svg" xmlns:ev="http://www.w3.org/2001/xml-events" xmlns:xlink="http://www.w3.org/1999/xlink"><defs /><rect fill="white" height="100%" width="100%" x="0" y="0" /><text font-family="Arial" font-size="24" text-anchor="middle" x="300" y="40">Visual Discrimination Test</text><text font-family="Arial" font-size="18" text-anchor="middle" x="300" y="80">Target Pattern</text><g transform="translate(200,100)"><line stroke="black" stroke-width="2" transform="rotate(64,165.0,106.0)" x1="143" x2="187" y1="84" y2="128" /><line stroke="black" stroke-width="2" transform="rotate(296,89.0,53.0)" x1="68" x2="110" y1="32" y2="74" /><circle cx="126" cy="49" fill="none" r="22.5" stroke="black" stroke-width="2" /><line stroke="black" stroke-width="2" transform="rotate(233,48.0,45.0)" x1="33" x2="63" y1="30" y2="60" /><rect fill="none" height="45" stroke="black" stroke-width="2" transform="rotate(315,159.5,118.5)" width="45" x="137" y="96" /></g><text font-family="Arial" font-size="18" text-anchor="middle" x="300" y="350">Options</text><text font-family="Arial" font-size="14" text-anchor="middle" x="175" y="380">Option 1</text><g transform="translate(100,400)"><line stroke="black" stroke-width="2" transform="rotate(112,167.2,108.2)" x1="143" x2="191.4" y1="84" y2="132.4" /><line stroke="black" stroke-width="2" transform="rotate(345,91.1,55.1)" x1="68" x2="114.2" y1="32" y2="78.2" /><circle cx="126" cy="49" fill="none" r="24.750000000000004" stroke="black" stroke-width="2" /><line stroke="black" stroke-width="2" transform="rotate(285,49.5,46.5)" x1="33" x2="66.0" y1="30" y2="63.0" /><rect fill="none" height="39.60000000000001" stroke="black" stroke-width="2" transform="rotate(366,161.75,115.80000000000001)" width="49.50000000000001" x="137" y="96" /></g><text font-family="Arial" font-size="14" text-anchor="middle" x="425" y="380">Option 2</text><g transform="translate(350,400)"><line stroke="black" stroke-width="2" transform="rotate(64,165.0,106.0)" x1="143" x2="187" y1="84" y2="128" /><line stroke="black" stroke-width="2" transform="rotate(296,89.0,53.0)" x1="68" x2="110" y1="32" y2="74" /><circle cx="126" cy="49" fill="none" r="22.5" stroke="black" stroke-width="2" /><line stroke="black" stroke-width="2" transform="rotate(233,48.0,45.0)" x1="33" x2="63" y1="30" y2="60" /><rect fill="none" height="45" stroke="black" stroke-width="2" transform="rotate(315,159.5,118.5)" width="45" x="137" y="96" /></g><text font-family="Arial" font-size="14" text-anchor="middle" x="175" y="630">Option 3</text><g transform="translate(100,650)"><line stroke="black" stroke-width="2" transform="rotate(116,167.2,108.2)" x1="143" x2="191.4" y1="84" y2="132.4" /><line stroke="black" stroke-width="2" transform="rotate(347,91.1,55.1)" x1="68" x2="114.2" y1="32" y2="78.2" /><circle cx="126" cy="49" fill="none" r="24.750000000000004" stroke="black" stroke-width="2" /><line stroke="black" stroke-width="2" transform="rotate(281,49.5,46.5)" x1="33" x2="66.0" y1="30" y2="63.0" /><rect fill="none" height="39.60000000000001" stroke="black" stroke-width="2" transform="rotate(365,161.75,115.80000000000001)" width="49.50000000000001" x="137" y="96" /></g><text font-family="Arial" font-size="14" text-anchor="middle" x="425" y="630">Option 4</text><g transform="translate(350,650)"><line stroke="black" stroke-width="2" transform="rotate(115,167.2,108.2)" x1="143" x2="191.4" y1="84" y2="132.4" /><line stroke="black" stroke-width="2" transform="rotate(344,91.1,55.1)" x1="68" x2="114.2" y1="32" y2="78.2" /><circle cx="126" cy="49" fill="none" r="24.750000000000004" stroke="black" stroke-width="2" /><line stroke="black" stroke-width="2" transform="rotate(281,49.5,46.5)" x1="33" x2="66.0" y1="30" y2="63.0" /><rect fill="none" height="39.60000000000001" stroke="black" stroke-width="2" transform="rotate(366,161.75,115.80000000000001)" width="49.50000000000001" x="137" y="96" /></g></svg>