<?xml version="1.0" encoding="utf-8" ?>
<svg baseProfile="full" height="1000px" version="1.1" width="600px" xmlns="http://www.w3.org/2000/svg" xmlns:ev="http://www.w3.org/2001/xml-events" xmlns:xlink="http://www.w3.org/1999/xlink"><defs /><rect fill="white" height="100%" width="100%" x="0" y="0" /><text font-family="Arial" font-size="24" text-anchor="middle" x="300" y="40">Visual Discrimination Test</text><text font-family="Arial" font-size="18" text-anchor="middle" x="300" y="80">Target Pattern</text><g transform="translate(200,100)"><circle cx="28" cy="138" fill="none" r="21.5" stroke="black" stroke-width="2" /><line stroke="black" stroke-width="2" transform="rotate(359,50.0,83.0)" x1="28" x2="72" y1="61" y2="105" /></g><text font-family="Arial" font-size="18" text-anchor="middle" x="300" y="350">Options</text><text font-family="Arial" font-size="14" text-anchor="middle" x="175" y="380">Option 1</text><g transform="translate(100,400)"><circle cx="28" cy="138" fill="none" r="23.650000000000002" stroke="black" stroke-width="2" /><line stroke="black" stroke-width="2" transform="rotate(408,52.2,85.2)" x1="28" x2="76.4" y1="61" y2="109.4" /></g><text font-family="Arial" font-size="14" text-anchor="middle" x="425" y="380">Option 2</text><g transform="translate(350,400)"><circle cx="28" cy="138" fill="none" r="23.650000000000002" stroke="black" stroke-width="2" /><line stroke="black" stroke-width="2" transform="rotate(408,52.2,85.2)" x1="28" x2="76.4" y1="61" y2="109.4" /></g><text font-family="Arial" font-size="14" text-anchor="middle" x="175" y="630">Option 3</text><g transform="translate(100,650)"><circle cx="28" cy="138" fill="none" r="21.5" stroke="black" stroke-width="2" /><line stroke="black" stroke-width="2" transform="rotate(359,50.0,83.0)" x1="28" x2="72" y1="61" y2="105" /></g><text font-family="Arial" font-size="14" text-anchor="middle" x="425" y="630">Option 4</text><g transform="translate(350,650)"><circle cx="28" cy="138" fill="none" r="23.650000000000002" stroke="black" stroke-width="2" /><line stroke="black" stroke-width="2" transform="rotate(410,52.2,85.2)" x1="28" x2="76.4" y1="61" y2="109.4" /></g></svg>