<?xml version="1.0" encoding="utf-8" ?>
<svg baseProfile="full" height="1000px" version="1.1" width="600px" xmlns="http://www.w3.org/2000/svg" xmlns:ev="http://www.w3.org/2001/xml-events" xmlns:xlink="http://www.w3.org/1999/xlink"><defs /><rect fill="white" height="100%" width="100%" x="0" y="0" /><text font-family="Arial" font-size="24" text-anchor="middle" x="300" y="40">Visual Discrimination Test</text><text font-family="Arial" font-size="18" text-anchor="middle" x="300" y="80">Target Pattern</text><g transform="translate(200,100)"><line stroke="black" stroke-width="2" transform="rotate(17,162.5,143.5)" x1="145" x2="180" y1="126" y2="161" /><polygon fill="none" points="75,185 120,185 97.5,140" stroke="black" stroke-width="2" transform="rotate(341,97.5,162.5)" /><polygon fill="none" points="74,91 120,91 97.0,45" stroke="black" stroke-width="2" transform="rotate(103,97.0,68.0)" /><line stroke="black" stroke-width="2" transform="rotate(254,53.0,40.0)" x1="37" x2="69" y1="24" y2="56" /></g><text font-family="Arial" font-size="18" text-anchor="middle" x="300" y="350">Options</text><text font-family="Arial" font-size="14" text-anchor="middle" x="175" y="380">Option 1</text><g transform="translate(100,400)"><line stroke="black" stroke-width="2" transform="rotate(65,164.25,145.25)" x1="145" x2="183.5" y1="126" y2="164.5" /><polygon fill="none" points="75,179.60000000000002 124.5,179.60000000000002 99.75,140" stroke="black" stroke-width="2" transform="rotate(393,99.75,159.8)" /><polygon fill="none" points="74,85.48 124.6,85.48 99.3,45" stroke="black" stroke-width="2" transform="rotate(154,99.3,65.24000000000001)" /><line stroke="black" stroke-width="2" transform="rotate(304,54.6,41.6)" x1="37" x2="72.2" y1="24" y2="59.2" /></g><text font-family="Arial" font-size="14" text-anchor="middle" x="425" y="380">Option 2</text><g transform="translate(350,400)"><line stroke="black" stroke-width="2" transform="rotate(65,164.25,145.25)" x1="145" x2="183.5" y1="126" y2="164.5" /><polygon fill="none" points="75,179.60000000000002 124.5,179.60000000000002 99.75,140" stroke="black" stroke-width="2" transform="rotate(392,99.75,159.8)" /><polygon fill="none" points="74,85.48 124.6,85.48 99.3,45" stroke="black" stroke-width="2" transform="rotate(152,99.3,65.24000000000001)" /><line stroke="black" stroke-width="2" transform="rotate(303,54.6,41.6)" x1="37" x2="72.2" y1="24" y2="59.2" /></g><text font-family="Arial" font-size="14" text-anchor="middle" x="175" y="630">Option 3</text><g transform="translate(100,650)"><line stroke="black" stroke-width="2" transform="rotate(17,162.5,143.5)" x1="145" x2="180" y1="126" y2="161" /><polygon fill="none" points="75,185 120,185 97.5,140" stroke="black" stroke-width="2" transform="rotate(341,97.5,162.5)" /><polygon fill="none" points="74,91 120,91 97.0,45" stroke="black" stroke-width="2" transform="rotate(103,97.0,68.0)" /><line stroke="black" stroke-width="2" transform="rotate(254,53.0,40.0)" x1="37" x2="69" y1="24" y2="56" /></g><text font-family="Arial" font-size="14" text-anchor="middle" x="425" y="630">Option 4</text><g transform="translate(350,650)"><line stroke="black" stroke-width="2" transform="rotate(65,164.25,145.25)" x1="145" x2="183.5" y1="126" y2="164.5" /><polygon fill="none" points="75,179.60000000000002 124.5,179.60000000000002 99.75,140" stroke="black" stroke-width="2" transform="rotate(393,99.75,159.8)" /><polygon fill="none" points="74,85.48 124.6,85.48 99.3,45" stroke="black" stroke-width="2" transform="rotate(154,99.3,65.24000000000001)" /><line stroke="black" stroke-width="2" transform="rotate(305,54.6,41.6)" x1="37" x2="72.2" y1="24" y2="59.2" /></g></svg>