<?xml version="1.0" encoding="utf-8" ?>
<svg baseProfile="full" height="1000px" version="1.1" width="600px" xmlns="http://www.w3.org/2000/svg" xmlns:ev="http://www.w3.org/2001/xml-events" xmlns:xlink="http://www.w3.org/1999/xlink"><defs /><rect fill="white" height="100%" width="100%" x="0" y="0" /><text font-family="Arial" font-size="24" text-anchor="middle" x="300" y="40">Visual Discrimination Test</text><text font-family="Arial" font-size="18" text-anchor="middle" x="300" y="80">Target Pattern</text><g transform="translate(200,100)"><circle cx="53" cy="150" fill="none" r="16.0" stroke="black" stroke-width="2" /><line stroke="black" stroke-width="2" transform="rotate(209,113.0,75.0)" x1="92" x2="134" y1="54" y2="96" /><line stroke="black" stroke-width="2" transform="rotate(204,33.0,76.0)" x1="10" x2="56" y1="53" y2="99" /></g><text font-family="Arial" font-size="18" text-anchor="middle" x="300" y="350">Options</text><text font-family="Arial" font-size="14" text-anchor="middle" x="175" y="380">Option 1</text><g transform="translate(100,400)"><circle cx="53" cy="150" fill="none" r="17.6" stroke="black" stroke-width="2" /><line stroke="black" stroke-width="2" transform="rotate(259,115.1,77.1)" x1="92" x2="138.2" y1="54" y2="100.2" /><line stroke="black" stroke-width="2" transform="rotate(255,35.3,78.3)" x1="10" x2="60.6" y1="53" y2="103.6" /></g><text font-family="Arial" font-size="14" text-anchor="middle" x="425" y="380">Option 2</text><g transform="translate(350,400)"><circle cx="53" cy="150" fill="none" r="17.6" stroke="black" stroke-width="2" /><line stroke="black" stroke-width="2" transform="rotate(259,115.1,77.1)" x1="92" x2="138.2" y1="54" y2="100.2" /><line stroke="black" stroke-width="2" transform="rotate(254,35.3,78.3)" x1="10" x2="60.6" y1="53" y2="103.6" /></g><text font-family="Arial" font-size="14" text-anchor="middle" x="175" y="630">Option 3</text><g transform="translate(100,650)"><circle cx="53" cy="150" fill="none" r="17.6" stroke="black" stroke-width="2" /><line stroke="black" stroke-width="2" transform="rotate(259,115.1,77.1)" x1="92" x2="138.2" y1="54" y2="100.2" /><line stroke="black" stroke-width="2" transform="rotate(255,35.3,78.3)" x1="10" x2="60.6" y1="53" y2="103.6" /></g><text font-family="Arial" font-size="14" text-anchor="middle" x="425" y="630">Option 4</text><g transform="translate(350,650)"><circle cx="53" cy="150" fill="none" r="16.0" stroke="black" stroke-width="2" /><line stroke="black" stroke-width="2" transform="rotate(209,113.0,75.0)" x1="92" x2="134" y1="54" y2="96" /><line stroke="black" stroke-width="2" transform="rotate(204,33.0,76.0)" x1="10" x2="56" y1="53" y2="99" /></g></svg>