<?xml version="1.0" encoding="utf-8" ?>
<svg baseProfile="full" height="1000px" version="1.1" width="600px" xmlns="http://www.w3.org/2000/svg" xmlns:ev="http://www.w3.org/2001/xml-events" xmlns:xlink="http://www.w3.org/1999/xlink"><defs /><rect fill="white" height="100%" width="100%" x="0" y="0" /><text font-family="Arial" font-size="24" text-anchor="middle" x="300" y="40">Visual Discrimination Test</text><text font-family="Arial" font-size="18" text-anchor="middle" x="300" y="80">Target Pattern</text><g transform="translate(200,100)"><rect fill="none" height="41" stroke="black" stroke-width="2" transform="rotate(165,127.5,54.5)" width="41" x="107" y="34" /><polygon fill="none" points="22,127 54,127 38.0,95" stroke="black" stroke-width="2" transform="rotate(318,38.0,111.0)" /><rect fill="none" height="30" stroke="black" stroke-width="2" transform="rotate(222,45.0,120.0)" width="30" x="30" y="105" /><polygon fill="none" points="89,84 132,84 110.5,41" stroke="black" stroke-width="2" transform="rotate(166,110.5,62.5)" /><polygon fill="none" points="16,183 50,183 33.0,149" stroke="black" stroke-width="2" transform="rotate(144,33.0,166.0)" /><circle cx="71" cy="38" fill="none" r="20.0" stroke="black" stroke-width="2" /></g><text font-family="Arial" font-size="18" text-anchor="middle" x="300" y="350">Options</text><text font-family="Arial" font-size="14" text-anchor="middle" x="175" y="380">Option 1</text><g transform="translate(100,400)"><rect fill="none" height="41" stroke="black" stroke-width="2" transform="rotate(165,127.5,54.5)" width="41" x="107" y="34" /><polygon fill="none" points="22,127 54,127 38.0,95" stroke="black" stroke-width="2" transform="rotate(318,38.0,111.0)" /><rect fill="none" height="30" stroke="black" stroke-width="2" transform="rotate(222,45.0,120.0)" width="30" x="30" y="105" /><polygon fill="none" points="89,84 132,84 110.5,41" stroke="black" stroke-width="2" transform="rotate(166,110.5,62.5)" /><polygon fill="none" points="16,183 50,183 33.0,149" stroke="black" stroke-width="2" transform="rotate(144,33.0,166.0)" /><circle cx="71" cy="38" fill="none" r="20.0" stroke="black" stroke-width="2" /></g><text font-family="Arial" font-size="14" text-anchor="middle" x="425" y="380">Option 2</text><g transform="translate(350,400)"><rect fill="none" height="36.080000000000005" stroke="black" stroke-width="2" transform="rotate(213,129.55,52.040000000000006)" width="45.1" x="107" y="34" /><polygon fill="none" points="22,123.16 57.2,123.16 39.6,95" stroke="black" stroke-width="2" transform="rotate(368,39.6,109.08)" /><polygon fill="none" points="30,131.4 63.0,131.4 46.5,105" stroke="black" stroke-width="2" transform="rotate(271,46.5,118.2)" /><polygon fill="none" points="89,78.84 136.3,78.84 112.65,41" stroke="black" stroke-width="2" transform="rotate(218,112.65,59.92)" /><polygon fill="none" points="16,178.92000000000002 53.400000000000006,178.92000000000002 34.7,149" stroke="black" stroke-width="2" transform="rotate(193,34.7,163.96)" /><rect fill="none" height="35.2" stroke="black" stroke-width="2" transform="rotate(251,93.0,55.6)" width="44.0" x="71" y="38" /></g><text font-family="Arial" font-size="14" text-anchor="middle" x="175" y="630">Option 3</text><g transform="translate(100,650)"><rect fill="none" height="36.080000000000005" stroke="black" stroke-width="2" transform="rotate(216,129.55,52.040000000000006)" width="45.1" x="107" y="34" /><line stroke="black" stroke-width="2" transform="rotate(369,39.6,112.6)" x1="22" x2="57.2" y1="95" y2="130.2" /><rect fill="none" height="26.400000000000002" stroke="black" stroke-width="2" transform="rotate(271,46.5,118.2)" width="33.0" x="30" y="105" /><line stroke="black" stroke-width="2" transform="rotate(216,112.65,64.65)" x1="89" x2="136.3" y1="41" y2="88.30000000000001" /><rect fill="none" height="29.920000000000005" stroke="black" stroke-width="2" transform="rotate(193,34.7,163.96)" width="37.400000000000006" x="16" y="149" /><rect fill="none" height="35.2" stroke="black" stroke-width="2" transform="rotate(254,93.0,55.6)" width="44.0" x="71" y="38" /></g><text font-family="Arial" font-size="14" text-anchor="middle" x="425" y="630">Option 4</text><g transform="translate(350,650)"><polygon fill="none" points="107,70.08000000000001 152.1,70.08000000000001 129.55,34" stroke="black" stroke-width="2" transform="rotate(216,129.55,52.040000000000006)" /><polygon fill="none" points="22,123.16 57.2,123.16 39.6,95" stroke="black" stroke-width="2" transform="rotate(366,39.6,109.08)" /><rect fill="none" height="26.400000000000002" stroke="black" stroke-width="2" transform="rotate(273,46.5,118.2)" width="33.0" x="30" y="105" /><line stroke="black" stroke-width="2" transform="rotate(218,112.65,64.65)" x1="89" x2="136.3" y1="41" y2="88.30000000000001" /><line stroke="black" stroke-width="2" transform="rotate(195,34.7,167.7)" x1="16" x2="53.400000000000006" y1="149" y2="186.4" /><line stroke="black" stroke-width="2" transform="rotate(251,93.0,60.0)" x1="71" x2="115.0" y1="38" y2="82.0" /></g></svg>