<?xml version="1.0" encoding="utf-8" ?>
<svg baseProfile="full" height="1000px" version="1.1" width="600px" xmlns="http://www.w3.org/2000/svg" xmlns:ev="http://www.w3.org/2001/xml-events" xmlns:xlink="http://www.w3.org/1999/xlink"><defs /><rect fill="white" height="100%" width="100%" x="0" y="0" /><text font-family="Arial" font-size="24" text-anchor="middle" x="300" y="40">Visual Discrimination Test</text><text font-family="Arial" font-size="18" text-anchor="middle" x="300" y="80">Target Pattern</text><g transform="translate(200,100)"><polygon fill="none" points="24,108 64,108 44.0,68" stroke="black" stroke-width="2" transform="rotate(302,44.0,88.0)" /><line stroke="black" stroke-width="2" transform="rotate(182,146.0,49.0)" x1="131" x2="161" y1="34" y2="64" /></g><text font-family="Arial" font-size="18" text-anchor="middle" x="300" y="350">Options</text><text font-family="Arial" font-size="14" text-anchor="middle" x="175" y="380">Option 1</text><g transform="translate(100,400)"><polygon fill="none" points="24,103.2 68.0,103.2 46.0,68" stroke="black" stroke-width="2" transform="rotate(351,46.0,85.6)" /><rect fill="none" height="26.400000000000002" stroke="black" stroke-width="2" transform="rotate(232,147.5,47.2)" width="33.0" x="131" y="34" /></g><text font-family="Arial" font-size="14" text-anchor="middle" x="425" y="380">Option 2</text><g transform="translate(350,400)"><polygon fill="none" points="24,108 64,108 44.0,68" stroke="black" stroke-width="2" transform="rotate(302,44.0,88.0)" /><line stroke="black" stroke-width="2" transform="rotate(182,146.0,49.0)" x1="131" x2="161" y1="34" y2="64" /></g><text font-family="Arial" font-size="14" text-anchor="middle" x="175" y="630">Option 3</text><g transform="translate(100,650)"><polygon fill="none" points="24,103.2 68.0,103.2 46.0,68" stroke="black" stroke-width="2" transform="rotate(354,46.0,85.6)" /><polygon fill="none" points="131,60.400000000000006 164.0,60.400000000000006 147.5,34" stroke="black" stroke-width="2" transform="rotate(233,147.5,47.2)" /></g><text font-family="Arial" font-size="14" text-anchor="middle" x="425" y="630">Option 4</text><g transform="translate(350,650)"><line stroke="black" stroke-width="2" transform="rotate(353,46.0,90.0)" x1="24" x2="68.0" y1="68" y2="112.0" /><polygon fill="none" points="131,60.400000000000006 164.0,60.400000000000006 147.5,34" stroke="black" stroke-width="2" transform="rotate(232,147.5,47.2)" /></g></svg>