<?xml version="1.0" encoding="utf-8" ?>
<svg baseProfile="full" height="1000px" version="1.1" width="600px" xmlns="http://www.w3.org/2000/svg" xmlns:ev="http://www.w3.org/2001/xml-events" xmlns:xlink="http://www.w3.org/1999/xlink"><defs /><rect fill="white" height="100%" width="100%" x="0" y="0" /><text font-family="Arial" font-size="24" text-anchor="middle" x="300" y="40">Visual Discrimination Test</text><text font-family="Arial" font-size="18" text-anchor="middle" x="300" y="80">Target Pattern</text><g transform="translate(200,100)"><rect fill="none" height="47" stroke="black" stroke-width="2" transform="rotate(217,128.5,74.5)" width="47" x="105" y="51" /><circle cx="132" cy="71" fill="none" r="21.0" stroke="black" stroke-width="2" /><line stroke="black" stroke-width="2" transform="rotate(348,37.5,131.5)" x1="14" x2="61" y1="108" y2="155" /><rect fill="none" height="32" stroke="black" stroke-width="2" transform="rotate(12,160.0,142.0)" width="32" x="144" y="126" /></g><text font-family="Arial" font-size="18" text-anchor="middle" x="300" y="350">Options</text><text font-family="Arial" font-size="14" text-anchor="middle" x="175" y="380">Option 1</text><g transform="translate(100,400)"><line stroke="black" stroke-width="2" transform="rotate(267,130.85,76.85)" x1="105" x2="156.7" y1="51" y2="102.7" /><rect fill="none" height="36.96" stroke="black" stroke-width="2" transform="rotate(213,155.1,89.48)" width="46.2" x="132" y="71" /><line stroke="black" stroke-width="2" transform="rotate(397,39.85,133.85)" x1="14" x2="65.7" y1="108" y2="159.7" /><rect fill="none" height="28.160000000000004" stroke="black" stroke-width="2" transform="rotate(60,161.6,140.08)" width="35.2" x="144" y="126" /></g><text font-family="Arial" font-size="14" text-anchor="middle" x="425" y="380">Option 2</text><g transform="translate(350,400)"><rect fill="none" height="41.36000000000001" stroke="black" stroke-width="2" transform="rotate(265,130.85,71.68)" width="51.7" x="105" y="51" /><rect fill="none" height="36.96" stroke="black" stroke-width="2" transform="rotate(214,155.1,89.48)" width="46.2" x="132" y="71" /><rect fill="none" height="41.36000000000001" stroke="black" stroke-width="2" transform="rotate(400,39.85,128.68)" width="51.7" x="14" y="108" /><polygon fill="none" points="144,154.16 179.2,154.16 161.6,126" stroke="black" stroke-width="2" transform="rotate(63,161.6,140.08)" /></g><text font-family="Arial" font-size="14" text-anchor="middle" x="175" y="630">Option 3</text><g transform="translate(100,650)"><rect fill="none" height="47" stroke="black" stroke-width="2" transform="rotate(217,128.5,74.5)" width="47" x="105" y="51" /><circle cx="132" cy="71" fill="none" r="21.0" stroke="black" stroke-width="2" /><line stroke="black" stroke-width="2" transform="rotate(348,37.5,131.5)" x1="14" x2="61" y1="108" y2="155" /><rect fill="none" height="32" stroke="black" stroke-width="2" transform="rotate(12,160.0,142.0)" width="32" x="144" y="126" /></g><text font-family="Arial" font-size="14" text-anchor="middle" x="425" y="630">Option 4</text><g transform="translate(350,650)"><line stroke="black" stroke-width="2" transform="rotate(267,130.85,76.85)" x1="105" x2="156.7" y1="51" y2="102.7" /><line stroke="black" stroke-width="2" transform="rotate(215,155.1,94.1)" x1="132" x2="178.2" y1="71" y2="117.2" /><line stroke="black" stroke-width="2" transform="rotate(397,39.85,133.85)" x1="14" x2="65.7" y1="108" y2="159.7" /><rect fill="none" height="28.160000000000004" stroke="black" stroke-width="2" transform="rotate(64,161.6,140.08)" width="35.2" x="144" y="126" /></g></svg>