<?xml version="1.0" encoding="utf-8" ?>
<svg baseProfile="full" height="1000px" version="1.1" width="600px" xmlns="http://www.w3.org/2000/svg" xmlns:ev="http://www.w3.org/2001/xml-events" xmlns:xlink="http://www.w3.org/1999/xlink"><defs /><rect fill="white" height="100%" width="100%" x="0" y="0" /><text font-family="Arial" font-size="24" text-anchor="middle" x="300" y="40">Visual Discrimination Test</text><text font-family="Arial" font-size="18" text-anchor="middle" x="300" y="80">Target Pattern</text><g transform="translate(200,100)"><rect fill="none" height="40" stroke="black" stroke-width="2" transform="rotate(106,104.0,50.0)" width="40" x="84" y="30" /><line stroke="black" stroke-width="2" transform="rotate(134,105.0,50.0)" x1="86" x2="124" y1="31" y2="69" /><line stroke="black" stroke-width="2" transform="rotate(94,114.0,154.0)" x1="95" x2="133" y1="135" y2="173" /><rect fill="none" height="45" stroke="black" stroke-width="2" transform="rotate(198,124.5,149.5)" width="45" x="102" y="127" /><polygon fill="none" points="108,148 153,148 130.5,103" stroke="black" stroke-width="2" transform="rotate(30,130.5,125.5)" /><polygon fill="none" points="146,176 185,176 165.5,137" stroke="black" stroke-width="2" transform="rotate(317,165.5,156.5)" /><polygon fill="none" points="93,113 125,113 109.0,81" stroke="black" stroke-width="2" transform="rotate(99,109.0,97.0)" /><line stroke="black" stroke-width="2" transform="rotate(297,43.0,139.0)" x1="19" x2="67" y1="115" y2="163" /><circle cx="137" cy="92" fill="none" r="19.0" stroke="black" stroke-width="2" /></g><text font-family="Arial" font-size="18" text-anchor="middle" x="300" y="350">Options</text><text font-family="Arial" font-size="14" text-anchor="middle" x="175" y="380">Option 1</text><g transform="translate(100,400)"><line stroke="black" stroke-width="2" transform="rotate(155,106.0,52.0)" x1="84" x2="128.0" y1="30" y2="74.0" /><line stroke="black" stroke-width="2" transform="rotate(182,106.9,51.900000000000006)" x1="86" x2="127.80000000000001" y1="31" y2="72.80000000000001" /><line stroke="black" stroke-width="2" transform="rotate(143,115.9,155.9)" x1="95" x2="136.8" y1="135" y2="176.8" /><rect fill="none" height="39.60000000000001" stroke="black" stroke-width="2" transform="rotate(249,126.75,146.8)" width="49.50000000000001" x="102" y="127" /><rect fill="none" height="39.60000000000001" stroke="black" stroke-width="2" transform="rotate(79,132.75,122.80000000000001)" width="49.50000000000001" x="108" y="103" /><polygon fill="none" points="146,171.32 188.9,171.32 167.45,137" stroke="black" stroke-width="2" transform="rotate(369,167.45,154.16)" /><line stroke="black" stroke-width="2" transform="rotate(148,110.6,98.6)" x1="93" x2="128.2" y1="81" y2="116.2" /><rect fill="none" height="42.24000000000001" stroke="black" stroke-width="2" transform="rotate(348,45.400000000000006,136.12)" width="52.800000000000004" x="19" y="115" /><line stroke="black" stroke-width="2" transform="rotate(336,157.9,112.9)" x1="137" x2="178.8" y1="92" y2="133.8" /></g><text font-family="Arial" font-size="14" text-anchor="middle" x="425" y="380">Option 2</text><g transform="translate(350,400)"><rect fill="none" height="40" stroke="black" stroke-width="2" transform="rotate(106,104.0,50.0)" width="40" x="84" y="30" /><line stroke="black" stroke-width="2" transform="rotate(134,105.0,50.0)" x1="86" x2="124" y1="31" y2="69" /><line stroke="black" stroke-width="2" transform="rotate(94,114.0,154.0)" x1="95" x2="133" y1="135" y2="173" /><rect fill="none" height="45" stroke="black" stroke-width="2" transform="rotate(198,124.5,149.5)" width="45" x="102" y="127" /><polygon fill="none" points="108,148 153,148 130.5,103" stroke="black" stroke-width="2" transform="rotate(30,130.5,125.5)" /><polygon fill="none" points="146,176 185,176 165.5,137" stroke="black" stroke-width="2" transform="rotate(317,165.5,156.5)" /><polygon fill="none" points="93,113 125,113 109.0,81" stroke="black" stroke-width="2" transform="rotate(99,109.0,97.0)" /><line stroke="black" stroke-width="2" transform="rotate(297,43.0,139.0)" x1="19" x2="67" y1="115" y2="163" /><circle cx="137" cy="92" fill="none" r="19.0" stroke="black" stroke-width="2" /></g><text font-family="Arial" font-size="14" text-anchor="middle" x="175" y="630">Option 3</text><g transform="translate(100,650)"><rect fill="none" height="35.2" stroke="black" stroke-width="2" transform="rotate(156,106.0,47.6)" width="44.0" x="84" y="30" /><line stroke="black" stroke-width="2" transform="rotate(182,106.9,51.900000000000006)" x1="86" x2="127.80000000000001" y1="31" y2="72.80000000000001" /><rect fill="none" height="33.440000000000005" stroke="black" stroke-width="2" transform="rotate(144,115.9,151.72)" width="41.800000000000004" x="95" y="135" /><polygon fill="none" points="102,166.60000000000002 151.5,166.60000000000002 126.75,127" stroke="black" stroke-width="2" transform="rotate(246,126.75,146.8)" /><rect fill="none" height="39.60000000000001" stroke="black" stroke-width="2" transform="rotate(81,132.75,122.80000000000001)" width="49.50000000000001" x="108" y="103" /><polygon fill="none" points="146,171.32 188.9,171.32 167.45,137" stroke="black" stroke-width="2" transform="rotate(367,167.45,154.16)" /><rect fill="none" height="28.160000000000004" stroke="black" stroke-width="2" transform="rotate(151,110.6,95.08)" width="35.2" x="93" y="81" /><line stroke="black" stroke-width="2" transform="rotate(346,45.400000000000006,141.4)" x1="19" x2="71.80000000000001" y1="115" y2="167.8" /><polygon fill="none" points="137,125.44 178.8,125.44 157.9,92" stroke="black" stroke-width="2" transform="rotate(339,157.9,108.72)" /></g><text font-family="Arial" font-size="14" text-anchor="middle" x="425" y="630">Option 4</text><g transform="translate(350,650)"><rect fill="none" height="35.2" stroke="black" stroke-width="2" transform="rotate(157,106.0,47.6)" width="44.0" x="84" y="30" /><polygon fill="none" points="86,64.44 127.80000000000001,64.44 106.9,31" stroke="black" stroke-width="2" transform="rotate(183,106.9,47.72)" /><polygon fill="none" points="95,168.44 136.8,168.44 115.9,135" stroke="black" stroke-width="2" transform="rotate(142,115.9,151.72)" /><rect fill="none" height="39.60000000000001" stroke="black" stroke-width="2" transform="rotate(246,126.75,146.8)" width="49.50000000000001" x="102" y="127" /><rect fill="none" height="39.60000000000001" stroke="black" stroke-width="2" transform="rotate(81,132.75,122.80000000000001)" width="49.50000000000001" x="108" y="103" /><line stroke="black" stroke-width="2" transform="rotate(366,167.45,158.45)" x1="146" x2="188.9" y1="137" y2="179.9" /><polygon fill="none" points="93,109.16 128.2,109.16 110.6,81" stroke="black" stroke-width="2" transform="rotate(149,110.6,95.08)" /><polygon fill="none" points="19,157.24 71.80000000000001,157.24 45.400000000000006,115" stroke="black" stroke-width="2" transform="rotate(345,45.400000000000006,136.12)" /><line stroke="black" stroke-width="2" transform="rotate(338,157.9,112.9)" x1="137" x2="178.8" y1="92" y2="133.8" /></g></svg>