<?xml version="1.0" encoding="utf-8" ?>
<svg baseProfile="full" height="1000px" version="1.1" width="600px" xmlns="http://www.w3.org/2000/svg" xmlns:ev="http://www.w3.org/2001/xml-events" xmlns:xlink="http://www.w3.org/1999/xlink"><defs /><rect fill="white" height="100%" width="100%" x="0" y="0" /><text font-family="Arial" font-size="24" text-anchor="middle" x="300" y="40">Visual Discrimination Test</text><text font-family="Arial" font-size="18" text-anchor="middle" x="300" y="80">Target Pattern</text><g transform="translate(200,100)"><rect fill="none" height="34" stroke="black" stroke-width="2" transform="rotate(204,92.0,64.0)" width="34" x="75" y="47" /><line stroke="black" stroke-width="2" transform="rotate(22,149.0,101.0)" x1="129" x2="169" y1="81" y2="121" /></g><text font-family="Arial" font-size="18" text-anchor="middle" x="300" y="350">Options</text><text font-family="Arial" font-size="14" text-anchor="middle" x="175" y="380">Option 1</text><g transform="translate(100,400)"><polygon fill="none" points="75,76.92 112.4,76.92 93.7,47" stroke="black" stroke-width="2" transform="rotate(256,93.7,61.96)" /><line stroke="black" stroke-width="2" transform="rotate(70,151.0,103.0)" x1="129" x2="173.0" y1="81" y2="125.0" /></g><text font-family="Arial" font-size="14" text-anchor="middle" x="425" y="380">Option 2</text><g transform="translate(350,400)"><line stroke="black" stroke-width="2" transform="rotate(253,93.7,65.7)" x1="75" x2="112.4" y1="47" y2="84.4" /><polygon fill="none" points="129,116.2 173.0,116.2 151.0,81" stroke="black" stroke-width="2" transform="rotate(74,151.0,98.6)" /></g><text font-family="Arial" font-size="14" text-anchor="middle" x="175" y="630">Option 3</text><g transform="translate(100,650)"><rect fill="none" height="34" stroke="black" stroke-width="2" transform="rotate(204,92.0,64.0)" width="34" x="75" y="47" /><line stroke="black" stroke-width="2" transform="rotate(22,149.0,101.0)" x1="129" x2="169" y1="81" y2="121" /></g><text font-family="Arial" font-size="14" text-anchor="middle" x="425" y="630">Option 4</text><g transform="translate(350,650)"><polygon fill="none" points="75,76.92 112.4,76.92 93.7,47" stroke="black" stroke-width="2" transform="rotate(253,93.7,61.96)" /><line stroke="black" stroke-width="2" transform="rotate(71,151.0,103.0)" x1="129" x2="173.0" y1="81" y2="125.0" /></g></svg>