<?xml version="1.0" encoding="utf-8" ?>
<svg baseProfile="full" height="1000px" version="1.1" width="600px" xmlns="http://www.w3.org/2000/svg" xmlns:ev="http://www.w3.org/2001/xml-events" xmlns:xlink="http://www.w3.org/1999/xlink"><defs /><rect fill="white" height="100%" width="100%" x="0" y="0" /><text font-family="Arial" font-size="24" text-anchor="middle" x="300" y="40">Visual Discrimination Test</text><text font-family="Arial" font-size="18" text-anchor="middle" x="300" y="80">Target Pattern</text><g transform="translate(200,100)"><line stroke="black" stroke-width="2" transform="rotate(76,50.0,40.0)" x1="26" x2="74" y1="16" y2="64" /><line stroke="black" stroke-width="2" transform="rotate(270,101.5,129.5)" x1="82" x2="121" y1="110" y2="149" /><circle cx="41" cy="132" fill="none" r="18.0" stroke="black" stroke-width="2" /></g><text font-family="Arial" font-size="18" text-anchor="middle" x="300" y="350">Options</text><text font-family="Arial" font-size="14" text-anchor="middle" x="175" y="380">Option 1</text><g transform="translate(100,400)"><line stroke="black" stroke-width="2" transform="rotate(76,50.0,40.0)" x1="26" x2="74" y1="16" y2="64" /><line stroke="black" stroke-width="2" transform="rotate(270,101.5,129.5)" x1="82" x2="121" y1="110" y2="149" /><circle cx="41" cy="132" fill="none" r="18.0" stroke="black" stroke-width="2" /></g><text font-family="Arial" font-size="14" text-anchor="middle" x="425" y="380">Option 2</text><g transform="translate(350,400)"><line stroke="black" stroke-width="2" transform="rotate(83,45.2,35.2)" x1="26" x2="64.4" y1="16" y2="54.400000000000006" /><line stroke="black" stroke-width="2" transform="rotate(277,97.6,125.6)" x1="82" x2="113.2" y1="110" y2="141.2" /><circle cx="41" cy="132" fill="none" r="14.4" stroke="black" stroke-width="2" /></g><text font-family="Arial" font-size="14" text-anchor="middle" x="175" y="630">Option 3</text><g transform="translate(100,650)"><line stroke="black" stroke-width="2" transform="rotate(80,45.2,35.2)" x1="26" x2="64.4" y1="16" y2="54.400000000000006" /><line stroke="black" stroke-width="2" transform="rotate(274,97.6,125.6)" x1="82" x2="113.2" y1="110" y2="141.2" /><circle cx="41" cy="132" fill="none" r="14.4" stroke="black" stroke-width="2" /></g><text font-family="Arial" font-size="14" text-anchor="middle" x="425" y="630">Option 4</text><g transform="translate(350,650)"><line stroke="black" stroke-width="2" transform="rotate(81,45.2,35.2)" x1="26" x2="64.4" y1="16" y2="54.400000000000006" /><line stroke="black" stroke-width="2" transform="rotate(273,97.6,125.6)" x1="82" x2="113.2" y1="110" y2="141.2" /><circle cx="41" cy="132" fill="none" r="14.4" stroke="black" stroke-width="2" /></g></svg>