<?xml version="1.0" encoding="utf-8" ?>
<svg baseProfile="full" height="1000px" version="1.1" width="600px" xmlns="http://www.w3.org/2000/svg" xmlns:ev="http://www.w3.org/2001/xml-events" xmlns:xlink="http://www.w3.org/1999/xlink"><defs /><rect fill="white" height="100%" width="100%" x="0" y="0" /><text font-family="Arial" font-size="24" text-anchor="middle" x="300" y="40">Visual Discrimination Test</text><text font-family="Arial" font-size="18" text-anchor="middle" x="300" y="80">Target Pattern</text><g transform="translate(200,100)"><polygon fill="none" points="148,150 195,150 171.5,103" stroke="black" stroke-width="2" transform="rotate(70,171.5,126.5)" /><rect fill="none" height="39" stroke="black" stroke-width="2" transform="rotate(238,161.5,78.5)" width="39" x="142" y="59" /></g><text font-family="Arial" font-size="18" text-anchor="middle" x="300" y="350">Options</text><text font-family="Arial" font-size="14" text-anchor="middle" x="175" y="380">Option 1</text><g transform="translate(100,400)"><polygon fill="none" points="148,155.64 213.8,155.64 180.9,103" stroke="black" stroke-width="2" transform="rotate(73,180.9,129.32)" /><rect fill="none" height="43.68" stroke="black" stroke-width="2" transform="rotate(245,169.3,80.84)" width="54.599999999999994" x="142" y="59" /></g><text font-family="Arial" font-size="14" text-anchor="middle" x="425" y="380">Option 2</text><g transform="translate(350,400)"><polygon fill="none" points="148,155.64 213.8,155.64 180.9,103" stroke="black" stroke-width="2" transform="rotate(73,180.9,129.32)" /><rect fill="none" height="43.68" stroke="black" stroke-width="2" transform="rotate(244,169.3,80.84)" width="54.599999999999994" x="142" y="59" /></g><text font-family="Arial" font-size="14" text-anchor="middle" x="175" y="630">Option 3</text><g transform="translate(100,650)"><polygon fill="none" points="148,155.64 213.8,155.64 180.9,103" stroke="black" stroke-width="2" transform="rotate(73,180.9,129.32)" /><rect fill="none" height="43.68" stroke="black" stroke-width="2" transform="rotate(241,169.3,80.84)" width="54.599999999999994" x="142" y="59" /></g><text font-family="Arial" font-size="14" text-anchor="middle" x="425" y="630">Option 4</text><g transform="translate(350,650)"><polygon fill="none" points="148,150 195,150 171.5,103" stroke="black" stroke-width="2" transform="rotate(70,171.5,126.5)" /><rect fill="none" height="39" stroke="black" stroke-width="2" transform="rotate(238,161.5,78.5)" width="39" x="142" y="59" /></g></svg>