<?xml version="1.0" encoding="utf-8" ?>
<svg baseProfile="full" height="1000px" version="1.1" width="600px" xmlns="http://www.w3.org/2000/svg" xmlns:ev="http://www.w3.org/2001/xml-events" xmlns:xlink="http://www.w3.org/1999/xlink"><defs /><rect fill="white" height="100%" width="100%" x="0" y="0" /><text font-family="Arial" font-size="24" text-anchor="middle" x="300" y="40">Visual Discrimination Test</text><text font-family="Arial" font-size="18" text-anchor="middle" x="300" y="80">Target Pattern</text><g transform="translate(200,100)"><polygon fill="none" points="71,145 106,145 88.5,110" stroke="black" stroke-width="2" transform="rotate(327,88.5,127.5)" /><line stroke="black" stroke-width="2" transform="rotate(349,51.0,30.0)" x1="35" x2="67" y1="14" y2="46" /><circle cx="18" cy="18" fill="none" r="22.5" stroke="black" stroke-width="2" /><rect fill="none" height="45" stroke="black" stroke-width="2" transform="rotate(349,90.5,146.5)" width="45" x="68" y="124" /><polygon fill="none" points="84,179 130,179 107.0,133" stroke="black" stroke-width="2" transform="rotate(118,107.0,156.0)" /><rect fill="none" height="39" stroke="black" stroke-width="2" transform="rotate(16,73.5,98.5)" width="39" x="54" y="79" /><line stroke="black" stroke-width="2" transform="rotate(346,156.5,64.5)" x1="141" x2="172" y1="49" y2="80" /></g><text font-family="Arial" font-size="18" text-anchor="middle" x="300" y="350">Options</text><text font-family="Arial" font-size="14" text-anchor="middle" x="175" y="380">Option 1</text><g transform="translate(100,400)"><polygon fill="none" points="71,149.2 120.0,149.2 95.5,110" stroke="black" stroke-width="2" transform="rotate(379,95.5,129.6)" /><line stroke="black" stroke-width="2" transform="rotate(400,57.4,36.4)" x1="35" x2="79.8" y1="14" y2="58.8" /><circle cx="18" cy="18" fill="none" r="31.499999999999996" stroke="black" stroke-width="2" /><rect fill="none" height="50.4" stroke="black" stroke-width="2" transform="rotate(398,99.5,149.2)" width="62.99999999999999" x="68" y="124" /><polygon fill="none" points="84,184.51999999999998 148.39999999999998,184.51999999999998 116.19999999999999,133" stroke="black" stroke-width="2" transform="rotate(170,116.19999999999999,158.76)" /><rect fill="none" height="43.68" stroke="black" stroke-width="2" transform="rotate(67,81.3,100.84)" width="54.599999999999994" x="54" y="79" /><line stroke="black" stroke-width="2" transform="rotate(398,162.7,70.7)" x1="141" x2="184.4" y1="49" y2="92.4" /></g><text font-family="Arial" font-size="14" text-anchor="middle" x="425" y="380">Option 2</text><g transform="translate(350,400)"><polygon fill="none" points="71,149.2 120.0,149.2 95.5,110" stroke="black" stroke-width="2" transform="rotate(378,95.5,129.6)" /><line stroke="black" stroke-width="2" transform="rotate(397,57.4,36.4)" x1="35" x2="79.8" y1="14" y2="58.8" /><circle cx="18" cy="18" fill="none" r="31.499999999999996" stroke="black" stroke-width="2" /><rect fill="none" height="50.4" stroke="black" stroke-width="2" transform="rotate(398,99.5,149.2)" width="62.99999999999999" x="68" y="124" /><polygon fill="none" points="84,184.51999999999998 148.39999999999998,184.51999999999998 116.19999999999999,133" stroke="black" stroke-width="2" transform="rotate(166,116.19999999999999,158.76)" /><rect fill="none" height="43.68" stroke="black" stroke-width="2" transform="rotate(65,81.3,100.84)" width="54.599999999999994" x="54" y="79" /><line stroke="black" stroke-width="2" transform="rotate(398,162.7,70.7)" x1="141" x2="184.4" y1="49" y2="92.4" /></g><text font-family="Arial" font-size="14" text-anchor="middle" x="175" y="630">Option 3</text><g transform="translate(100,650)"><polygon fill="none" points="71,145 106,145 88.5,110" stroke="black" stroke-width="2" transform="rotate(327,88.5,127.5)" /><line stroke="black" stroke-width="2" transform="rotate(349,51.0,30.0)" x1="35" x2="67" y1="14" y2="46" /><circle cx="18" cy="18" fill="none" r="22.5" stroke="black" stroke-width="2" /><rect fill="none" height="45" stroke="black" stroke-width="2" transform="rotate(349,90.5,146.5)" width="45" x="68" y="124" /><polygon fill="none" points="84,179 130,179 107.0,133" stroke="black" stroke-width="2" transform="rotate(118,107.0,156.0)" /><rect fill="none" height="39" stroke="black" stroke-width="2" transform="rotate(16,73.5,98.5)" width="39" x="54" y="79" /><line stroke="black" stroke-width="2" transform="rotate(346,156.5,64.5)" x1="141" x2="172" y1="49" y2="80" /></g><text font-family="Arial" font-size="14" text-anchor="middle" x="425" y="630">Option 4</text><g transform="translate(350,650)"><polygon fill="none" points="71,149.2 120.0,149.2 95.5,110" stroke="black" stroke-width="2" transform="rotate(378,95.5,129.6)" /><line stroke="black" stroke-width="2" transform="rotate(399,57.4,36.4)" x1="35" x2="79.8" y1="14" y2="58.8" /><circle cx="18" cy="18" fill="none" r="31.499999999999996" stroke="black" stroke-width="2" /><rect fill="none" height="50.4" stroke="black" stroke-width="2" transform="rotate(397,99.5,149.2)" width="62.99999999999999" x="68" y="124" /><polygon fill="none" points="84,184.51999999999998 148.39999999999998,184.51999999999998 116.19999999999999,133" stroke="black" stroke-width="2" transform="rotate(169,116.19999999999999,158.76)" /><rect fill="none" height="43.68" stroke="black" stroke-width="2" transform="rotate(64,81.3,100.84)" width="54.599999999999994" x="54" y="79" /><line stroke="black" stroke-width="2" transform="rotate(398,162.7,70.7)" x1="141" x2="184.4" y1="49" y2="92.4" /></g></svg>