<?xml version="1.0" encoding="utf-8" ?>
<svg baseProfile="full" height="1000px" version="1.1" width="600px" xmlns="http://www.w3.org/2000/svg" xmlns:ev="http://www.w3.org/2001/xml-events" xmlns:xlink="http://www.w3.org/1999/xlink"><defs /><rect fill="white" height="100%" width="100%" x="0" y="0" /><text font-family="Arial" font-size="24" text-anchor="middle" x="300" y="40">Visual Discrimination Test</text><text font-family="Arial" font-size="18" text-anchor="middle" x="300" y="80">Target Pattern</text><g transform="translate(200,100)"><polygon fill="none" points="31,154 62,154 46.5,123" stroke="black" stroke-width="2" transform="rotate(79,46.5,138.5)" /><line stroke="black" stroke-width="2" transform="rotate(87,167.0,137.0)" x1="145" x2="189" y1="115" y2="159" /><circle cx="42" cy="31" fill="none" r="20.0" stroke="black" stroke-width="2" /><line stroke="black" stroke-width="2" transform="rotate(180,96.0,75.0)" x1="80" x2="112" y1="59" y2="91" /><line stroke="black" stroke-width="2" transform="rotate(349,35.5,54.5)" x1="14" x2="57" y1="33" y2="76" /><rect fill="none" height="30" stroke="black" stroke-width="2" transform="rotate(318,110.0,60.0)" width="30" x="95" y="45" /><circle cx="44" cy="144" fill="none" r="21.0" stroke="black" stroke-width="2" /><circle cx="149" cy="116" fill="none" r="17.0" stroke="black" stroke-width="2" /><rect fill="none" height="40" stroke="black" stroke-width="2" transform="rotate(24,143.0,31.0)" width="40" x="123" y="11" /></g><text font-family="Arial" font-size="18" text-anchor="middle" x="300" y="350">Options</text><text font-family="Arial" font-size="14" text-anchor="middle" x="175" y="380">Option 1</text><g transform="translate(100,400)"><polygon fill="none" points="31,154 62,154 46.5,123" stroke="black" stroke-width="2" transform="rotate(79,46.5,138.5)" /><line stroke="black" stroke-width="2" transform="rotate(87,167.0,137.0)" x1="145" x2="189" y1="115" y2="159" /><circle cx="42" cy="31" fill="none" r="20.0" stroke="black" stroke-width="2" /><line stroke="black" stroke-width="2" transform="rotate(180,96.0,75.0)" x1="80" x2="112" y1="59" y2="91" /><line stroke="black" stroke-width="2" transform="rotate(349,35.5,54.5)" x1="14" x2="57" y1="33" y2="76" /><rect fill="none" height="30" stroke="black" stroke-width="2" transform="rotate(318,110.0,60.0)" width="30" x="95" y="45" /><circle cx="44" cy="144" fill="none" r="21.0" stroke="black" stroke-width="2" /><circle cx="149" cy="116" fill="none" r="17.0" stroke="black" stroke-width="2" /><rect fill="none" height="40" stroke="black" stroke-width="2" transform="rotate(24,143.0,31.0)" width="40" x="123" y="11" /></g><text font-family="Arial" font-size="14" text-anchor="middle" x="425" y="380">Option 2</text><g transform="translate(350,400)"><polygon fill="none" points="31,157.72 74.4,157.72 52.7,123" stroke="black" stroke-width="2" transform="rotate(129,52.7,140.36)" /><line stroke="black" stroke-width="2" transform="rotate(138,175.8,145.8)" x1="145" x2="206.6" y1="115" y2="176.6" /><circle cx="42" cy="31" fill="none" r="28.0" stroke="black" stroke-width="2" /><line stroke="black" stroke-width="2" transform="rotate(228,102.4,81.4)" x1="80" x2="124.8" y1="59" y2="103.8" /><line stroke="black" stroke-width="2" transform="rotate(400,44.099999999999994,63.099999999999994)" x1="14" x2="74.19999999999999" y1="33" y2="93.19999999999999" /><rect fill="none" height="33.6" stroke="black" stroke-width="2" transform="rotate(368,116.0,61.8)" width="42.0" x="95" y="45" /><circle cx="44" cy="144" fill="none" r="29.4" stroke="black" stroke-width="2" /><circle cx="149" cy="116" fill="none" r="23.799999999999997" stroke="black" stroke-width="2" /><rect fill="none" height="44.800000000000004" stroke="black" stroke-width="2" transform="rotate(76,151.0,33.400000000000006)" width="56.0" x="123" y="11" /></g><text font-family="Arial" font-size="14" text-anchor="middle" x="175" y="630">Option 3</text><g transform="translate(100,650)"><polygon fill="none" points="31,157.72 74.4,157.72 52.7,123" stroke="black" stroke-width="2" transform="rotate(131,52.7,140.36)" /><line stroke="black" stroke-width="2" transform="rotate(135,175.8,145.8)" x1="145" x2="206.6" y1="115" y2="176.6" /><circle cx="42" cy="31" fill="none" r="28.0" stroke="black" stroke-width="2" /><line stroke="black" stroke-width="2" transform="rotate(231,102.4,81.4)" x1="80" x2="124.8" y1="59" y2="103.8" /><line stroke="black" stroke-width="2" transform="rotate(397,44.099999999999994,63.099999999999994)" x1="14" x2="74.19999999999999" y1="33" y2="93.19999999999999" /><rect fill="none" height="33.6" stroke="black" stroke-width="2" transform="rotate(367,116.0,61.8)" width="42.0" x="95" y="45" /><circle cx="44" cy="144" fill="none" r="29.4" stroke="black" stroke-width="2" /><circle cx="149" cy="116" fill="none" r="23.799999999999997" stroke="black" stroke-width="2" /><rect fill="none" height="44.800000000000004" stroke="black" stroke-width="2" transform="rotate(76,151.0,33.400000000000006)" width="56.0" x="123" y="11" /></g><text font-family="Arial" font-size="14" text-anchor="middle" x="425" y="630">Option 4</text><g transform="translate(350,650)"><polygon fill="none" points="31,157.72 74.4,157.72 52.7,123" stroke="black" stroke-width="2" transform="rotate(129,52.7,140.36)" /><line stroke="black" stroke-width="2" transform="rotate(139,175.8,145.8)" x1="145" x2="206.6" y1="115" y2="176.6" /><circle cx="42" cy="31" fill="none" r="28.0" stroke="black" stroke-width="2" /><line stroke="black" stroke-width="2" transform="rotate(232,102.4,81.4)" x1="80" x2="124.8" y1="59" y2="103.8" /><line stroke="black" stroke-width="2" transform="rotate(401,44.099999999999994,63.099999999999994)" x1="14" x2="74.19999999999999" y1="33" y2="93.19999999999999" /><rect fill="none" height="33.6" stroke="black" stroke-width="2" transform="rotate(369,116.0,61.8)" width="42.0" x="95" y="45" /><circle cx="44" cy="144" fill="none" r="29.4" stroke="black" stroke-width="2" /><circle cx="149" cy="116" fill="none" r="23.799999999999997" stroke="black" stroke-width="2" /><rect fill="none" height="44.800000000000004" stroke="black" stroke-width="2" transform="rotate(73,151.0,33.400000000000006)" width="56.0" x="123" y="11" /></g></svg>