<?xml version="1.0" encoding="utf-8" ?>
<svg baseProfile="full" height="1000px" version="1.1" width="600px" xmlns="http://www.w3.org/2000/svg" xmlns:ev="http://www.w3.org/2001/xml-events" xmlns:xlink="http://www.w3.org/1999/xlink"><defs /><rect fill="white" height="100%" width="100%" x="0" y="0" /><text font-family="Arial" font-size="24" text-anchor="middle" x="300" y="40">Visual Discrimination Test</text><text font-family="Arial" font-size="18" text-anchor="middle" x="300" y="80">Target Pattern</text><g transform="translate(200,100)"><circle cx="61" cy="128" fill="none" r="20.5" stroke="black" stroke-width="2" /><rect fill="none" height="42" stroke="black" stroke-width="2" transform="rotate(93,126.0,147.0)" width="42" x="105" y="126" /><rect fill="none" height="33" stroke="black" stroke-width="2" transform="rotate(129,34.5,66.5)" width="33" x="18" y="50" /><circle cx="40" cy="118" fill="none" r="20.0" stroke="black" stroke-width="2" /><line stroke="black" stroke-width="2" transform="rotate(74,107.0,153.0)" x1="83" x2="131" y1="129" y2="177" /></g><text font-family="Arial" font-size="18" text-anchor="middle" x="300" y="350">Options</text><text font-family="Arial" font-size="14" text-anchor="middle" x="175" y="380">Option 1</text><g transform="translate(100,400)"><circle cx="61" cy="128" fill="none" r="20.5" stroke="black" stroke-width="2" /><rect fill="none" height="42" stroke="black" stroke-width="2" transform="rotate(93,126.0,147.0)" width="42" x="105" y="126" /><rect fill="none" height="33" stroke="black" stroke-width="2" transform="rotate(129,34.5,66.5)" width="33" x="18" y="50" /><circle cx="40" cy="118" fill="none" r="20.0" stroke="black" stroke-width="2" /><line stroke="black" stroke-width="2" transform="rotate(74,107.0,153.0)" x1="83" x2="131" y1="129" y2="177" /></g><text font-family="Arial" font-size="14" text-anchor="middle" x="425" y="380">Option 2</text><g transform="translate(350,400)"><circle cx="61" cy="128" fill="none" r="28.7" stroke="black" stroke-width="2" /><rect fill="none" height="47.04" stroke="black" stroke-width="2" transform="rotate(143,134.4,149.52)" width="58.8" x="105" y="126" /><rect fill="none" height="36.96" stroke="black" stroke-width="2" transform="rotate(177,41.099999999999994,68.48)" width="46.199999999999996" x="18" y="50" /><circle cx="40" cy="118" fill="none" r="28.0" stroke="black" stroke-width="2" /><line stroke="black" stroke-width="2" transform="rotate(124,116.6,162.6)" x1="83" x2="150.2" y1="129" y2="196.2" /></g><text font-family="Arial" font-size="14" text-anchor="middle" x="175" y="630">Option 3</text><g transform="translate(100,650)"><circle cx="61" cy="128" fill="none" r="28.7" stroke="black" stroke-width="2" /><rect fill="none" height="47.04" stroke="black" stroke-width="2" transform="rotate(143,134.4,149.52)" width="58.8" x="105" y="126" /><rect fill="none" height="36.96" stroke="black" stroke-width="2" transform="rotate(180,41.099999999999994,68.48)" width="46.199999999999996" x="18" y="50" /><circle cx="40" cy="118" fill="none" r="28.0" stroke="black" stroke-width="2" /><line stroke="black" stroke-width="2" transform="rotate(123,116.6,162.6)" x1="83" x2="150.2" y1="129" y2="196.2" /></g><text font-family="Arial" font-size="14" text-anchor="middle" x="425" y="630">Option 4</text><g transform="translate(350,650)"><circle cx="61" cy="128" fill="none" r="28.7" stroke="black" stroke-width="2" /><rect fill="none" height="47.04" stroke="black" stroke-width="2" transform="rotate(142,134.4,149.52)" width="58.8" x="105" y="126" /><rect fill="none" height="36.96" stroke="black" stroke-width="2" transform="rotate(181,41.099999999999994,68.48)" width="46.199999999999996" x="18" y="50" /><circle cx="40" cy="118" fill="none" r="28.0" stroke="black" stroke-width="2" /><line stroke="black" stroke-width="2" transform="rotate(123,116.6,162.6)" x1="83" x2="150.2" y1="129" y2="196.2" /></g></svg>