<?xml version="1.0" encoding="utf-8" ?>
<svg baseProfile="full" height="1000px" version="1.1" width="600px" xmlns="http://www.w3.org/2000/svg" xmlns:ev="http://www.w3.org/2001/xml-events" xmlns:xlink="http://www.w3.org/1999/xlink"><defs /><rect fill="white" height="100%" width="100%" x="0" y="0" /><text font-family="Arial" font-size="24" text-anchor="middle" x="300" y="40">Visual Discrimination Test</text><text font-family="Arial" font-size="18" text-anchor="middle" x="300" y="80">Target Pattern</text><g transform="translate(200,100)"><circle cx="140" cy="69" fill="none" r="21.0" stroke="black" stroke-width="2" /><line stroke="black" stroke-width="2" transform="rotate(251,159.5,149.5)" x1="140" x2="179" y1="130" y2="169" /><line stroke="black" stroke-width="2" transform="rotate(237,169.5,128.5)" x1="147" x2="192" y1="106" y2="151" /><line stroke="black" stroke-width="2" transform="rotate(254,103.5,119.5)" x1="83" x2="124" y1="99" y2="140" /><line stroke="black" stroke-width="2" transform="rotate(158,100.5,86.5)" x1="77" x2="124" y1="63" y2="110" /></g><text font-family="Arial" font-size="18" text-anchor="middle" x="300" y="350">Options</text><text font-family="Arial" font-size="14" text-anchor="middle" x="175" y="380">Option 1</text><g transform="translate(100,400)"><circle cx="140" cy="69" fill="none" r="21.0" stroke="black" stroke-width="2" /><line stroke="black" stroke-width="2" transform="rotate(251,159.5,149.5)" x1="140" x2="179" y1="130" y2="169" /><line stroke="black" stroke-width="2" transform="rotate(237,169.5,128.5)" x1="147" x2="192" y1="106" y2="151" /><line stroke="black" stroke-width="2" transform="rotate(254,103.5,119.5)" x1="83" x2="124" y1="99" y2="140" /><line stroke="black" stroke-width="2" transform="rotate(158,100.5,86.5)" x1="77" x2="124" y1="63" y2="110" /></g><text font-family="Arial" font-size="14" text-anchor="middle" x="425" y="380">Option 2</text><g transform="translate(350,400)"><circle cx="140" cy="69" fill="none" r="29.4" stroke="black" stroke-width="2" /><line stroke="black" stroke-width="2" transform="rotate(302,167.3,157.3)" x1="140" x2="194.6" y1="130" y2="184.6" /><line stroke="black" stroke-width="2" transform="rotate(289,178.5,137.5)" x1="147" x2="210.0" y1="106" y2="169.0" /><line stroke="black" stroke-width="2" transform="rotate(302,111.7,127.7)" x1="83" x2="140.4" y1="99" y2="156.4" /><line stroke="black" stroke-width="2" transform="rotate(208,109.9,95.9)" x1="77" x2="142.8" y1="63" y2="128.8" /></g><text font-family="Arial" font-size="14" text-anchor="middle" x="175" y="630">Option 3</text><g transform="translate(100,650)"><circle cx="140" cy="69" fill="none" r="29.4" stroke="black" stroke-width="2" /><line stroke="black" stroke-width="2" transform="rotate(303,167.3,157.3)" x1="140" x2="194.6" y1="130" y2="184.6" /><line stroke="black" stroke-width="2" transform="rotate(287,178.5,137.5)" x1="147" x2="210.0" y1="106" y2="169.0" /><line stroke="black" stroke-width="2" transform="rotate(303,111.7,127.7)" x1="83" x2="140.4" y1="99" y2="156.4" /><line stroke="black" stroke-width="2" transform="rotate(208,109.9,95.9)" x1="77" x2="142.8" y1="63" y2="128.8" /></g><text font-family="Arial" font-size="14" text-anchor="middle" x="425" y="630">Option 4</text><g transform="translate(350,650)"><circle cx="140" cy="69" fill="none" r="29.4" stroke="black" stroke-width="2" /><line stroke="black" stroke-width="2" transform="rotate(300,167.3,157.3)" x1="140" x2="194.6" y1="130" y2="184.6" /><line stroke="black" stroke-width="2" transform="rotate(285,178.5,137.5)" x1="147" x2="210.0" y1="106" y2="169.0" /><line stroke="black" stroke-width="2" transform="rotate(306,111.7,127.7)" x1="83" x2="140.4" y1="99" y2="156.4" /><line stroke="black" stroke-width="2" transform="rotate(209,109.9,95.9)" x1="77" x2="142.8" y1="63" y2="128.8" /></g></svg>