<?xml version="1.0" encoding="utf-8" ?>
<svg baseProfile="full" height="1000px" version="1.1" width="600px" xmlns="http://www.w3.org/2000/svg" xmlns:ev="http://www.w3.org/2001/xml-events" xmlns:xlink="http://www.w3.org/1999/xlink"><defs /><rect fill="white" height="100%" width="100%" x="0" y="0" /><text font-family="Arial" font-size="24" text-anchor="middle" x="300" y="40">Visual Discrimination Test</text><text font-family="Arial" font-size="18" text-anchor="middle" x="300" y="80">Target Pattern</text><g transform="translate(200,100)"><circle cx="111" cy="12" fill="none" r="16.0" stroke="black" stroke-width="2" /><polygon fill="none" points="71,161 111,161 91.0,121" stroke="black" stroke-width="2" transform="rotate(168,91.0,141.0)" /><rect fill="none" height="38" stroke="black" stroke-width="2" transform="rotate(325,45.0,40.0)" width="38" x="26" y="21" /><circle cx="84" cy="41" fill="none" r="18.0" stroke="black" stroke-width="2" /><rect fill="none" height="36" stroke="black" stroke-width="2" transform="rotate(71,152.0,128.0)" width="36" x="134" y="110" /><rect fill="none" height="30" stroke="black" stroke-width="2" transform="rotate(315,131.0,39.0)" width="30" x="116" y="24" /><line stroke="black" stroke-width="2" transform="rotate(245,84.5,36.5)" x1="67" x2="102" y1="19" y2="54" /></g><text font-family="Arial" font-size="18" text-anchor="middle" x="300" y="350">Options</text><text font-family="Arial" font-size="14" text-anchor="middle" x="175" y="380">Option 1</text><g transform="translate(100,400)"><circle cx="111" cy="12" fill="none" r="22.4" stroke="black" stroke-width="2" /><polygon fill="none" points="71,165.8 127.0,165.8 99.0,121" stroke="black" stroke-width="2" transform="rotate(216,99.0,143.4)" /><rect fill="none" height="42.56" stroke="black" stroke-width="2" transform="rotate(377,52.599999999999994,42.28)" width="53.199999999999996" x="26" y="21" /><circle cx="84" cy="41" fill="none" r="25.2" stroke="black" stroke-width="2" /><rect fill="none" height="40.32" stroke="black" stroke-width="2" transform="rotate(119,159.2,130.16)" width="50.4" x="134" y="110" /><rect fill="none" height="33.6" stroke="black" stroke-width="2" transform="rotate(363,137.0,40.8)" width="42.0" x="116" y="24" /><line stroke="black" stroke-width="2" transform="rotate(295,91.5,43.5)" x1="67" x2="116.0" y1="19" y2="68.0" /></g><text font-family="Arial" font-size="14" text-anchor="middle" x="425" y="380">Option 2</text><g transform="translate(350,400)"><circle cx="111" cy="12" fill="none" r="22.4" stroke="black" stroke-width="2" /><polygon fill="none" points="71,165.8 127.0,165.8 99.0,121" stroke="black" stroke-width="2" transform="rotate(217,99.0,143.4)" /><rect fill="none" height="42.56" stroke="black" stroke-width="2" transform="rotate(374,52.599999999999994,42.28)" width="53.199999999999996" x="26" y="21" /><circle cx="84" cy="41" fill="none" r="25.2" stroke="black" stroke-width="2" /><rect fill="none" height="40.32" stroke="black" stroke-width="2" transform="rotate(120,159.2,130.16)" width="50.4" x="134" y="110" /><rect fill="none" height="33.6" stroke="black" stroke-width="2" transform="rotate(366,137.0,40.8)" width="42.0" x="116" y="24" /><line stroke="black" stroke-width="2" transform="rotate(294,91.5,43.5)" x1="67" x2="116.0" y1="19" y2="68.0" /></g><text font-family="Arial" font-size="14" text-anchor="middle" x="175" y="630">Option 3</text><g transform="translate(100,650)"><circle cx="111" cy="12" fill="none" r="16.0" stroke="black" stroke-width="2" /><polygon fill="none" points="71,161 111,161 91.0,121" stroke="black" stroke-width="2" transform="rotate(168,91.0,141.0)" /><rect fill="none" height="38" stroke="black" stroke-width="2" transform="rotate(325,45.0,40.0)" width="38" x="26" y="21" /><circle cx="84" cy="41" fill="none" r="18.0" stroke="black" stroke-width="2" /><rect fill="none" height="36" stroke="black" stroke-width="2" transform="rotate(71,152.0,128.0)" width="36" x="134" y="110" /><rect fill="none" height="30" stroke="black" stroke-width="2" transform="rotate(315,131.0,39.0)" width="30" x="116" y="24" /><line stroke="black" stroke-width="2" transform="rotate(245,84.5,36.5)" x1="67" x2="102" y1="19" y2="54" /></g><text font-family="Arial" font-size="14" text-anchor="middle" x="425" y="630">Option 4</text><g transform="translate(350,650)"><circle cx="111" cy="12" fill="none" r="22.4" stroke="black" stroke-width="2" /><polygon fill="none" points="71,165.8 127.0,165.8 99.0,121" stroke="black" stroke-width="2" transform="rotate(216,99.0,143.4)" /><rect fill="none" height="42.56" stroke="black" stroke-width="2" transform="rotate(375,52.599999999999994,42.28)" width="53.199999999999996" x="26" y="21" /><circle cx="84" cy="41" fill="none" r="25.2" stroke="black" stroke-width="2" /><rect fill="none" height="40.32" stroke="black" stroke-width="2" transform="rotate(119,159.2,130.16)" width="50.4" x="134" y="110" /><rect fill="none" height="33.6" stroke="black" stroke-width="2" transform="rotate(365,137.0,40.8)" width="42.0" x="116" y="24" /><line stroke="black" stroke-width="2" transform="rotate(293,91.5,43.5)" x1="67" x2="116.0" y1="19" y2="68.0" /></g></svg>