<?xml version="1.0" encoding="utf-8" ?>
<svg baseProfile="full" height="1000px" version="1.1" width="600px" xmlns="http://www.w3.org/2000/svg" xmlns:ev="http://www.w3.org/2001/xml-events" xmlns:xlink="http://www.w3.org/1999/xlink"><defs /><rect fill="white" height="100%" width="100%" x="0" y="0" /><text font-family="Arial" font-size="24" text-anchor="middle" x="300" y="40">Visual Discrimination Test</text><text font-family="Arial" font-size="18" text-anchor="middle" x="300" y="80">Target Pattern</text><g transform="translate(200,100)"><circle cx="65" cy="92" fill="none" r="19.0" stroke="black" stroke-width="2" /><rect fill="none" height="45" stroke="black" stroke-width="2" transform="rotate(13,71.5,79.5)" width="45" x="49" y="57" /><circle cx="91" cy="108" fill="none" r="24.5" stroke="black" stroke-width="2" /><polygon fill="none" points="101,169 146,169 123.5,124" stroke="black" stroke-width="2" transform="rotate(251,123.5,146.5)" /><line stroke="black" stroke-width="2" transform="rotate(236,113.5,30.5)" x1="94" x2="133" y1="11" y2="50" /></g><text font-family="Arial" font-size="18" text-anchor="middle" x="300" y="350">Options</text><text font-family="Arial" font-size="14" text-anchor="middle" x="175" y="380">Option 1</text><g transform="translate(100,400)"><circle cx="65" cy="92" fill="none" r="19.0" stroke="black" stroke-width="2" /><rect fill="none" height="45" stroke="black" stroke-width="2" transform="rotate(13,71.5,79.5)" width="45" x="49" y="57" /><circle cx="91" cy="108" fill="none" r="24.5" stroke="black" stroke-width="2" /><polygon fill="none" points="101,169 146,169 123.5,124" stroke="black" stroke-width="2" transform="rotate(251,123.5,146.5)" /><line stroke="black" stroke-width="2" transform="rotate(236,113.5,30.5)" x1="94" x2="133" y1="11" y2="50" /></g><text font-family="Arial" font-size="14" text-anchor="middle" x="425" y="380">Option 2</text><g transform="translate(350,400)"><polygon fill="none" points="65,134.56 118.19999999999999,134.56 91.6,92" stroke="black" stroke-width="2" transform="rotate(274,91.6,113.28)" /><line stroke="black" stroke-width="2" transform="rotate(61,80.5,88.5)" x1="49" x2="112.0" y1="57" y2="120.0" /><rect fill="none" height="54.879999999999995" stroke="black" stroke-width="2" transform="rotate(215,125.3,135.44)" width="68.6" x="91" y="108" /><polygon fill="none" points="101,174.4 164.0,174.4 132.5,124" stroke="black" stroke-width="2" transform="rotate(302,132.5,149.2)" /><line stroke="black" stroke-width="2" transform="rotate(284,121.3,38.3)" x1="94" x2="148.6" y1="11" y2="65.6" /></g><text font-family="Arial" font-size="14" text-anchor="middle" x="175" y="630">Option 3</text><g transform="translate(100,650)"><rect fill="none" height="42.56" stroke="black" stroke-width="2" transform="rotate(272,91.6,113.28)" width="53.199999999999996" x="65" y="92" /><polygon fill="none" points="49,107.4 112.0,107.4 80.5,57" stroke="black" stroke-width="2" transform="rotate(62,80.5,82.2)" /><rect fill="none" height="54.879999999999995" stroke="black" stroke-width="2" transform="rotate(216,125.3,135.44)" width="68.6" x="91" y="108" /><rect fill="none" height="50.4" stroke="black" stroke-width="2" transform="rotate(302,132.5,149.2)" width="62.99999999999999" x="101" y="124" /><line stroke="black" stroke-width="2" transform="rotate(288,121.3,38.3)" x1="94" x2="148.6" y1="11" y2="65.6" /></g><text font-family="Arial" font-size="14" text-anchor="middle" x="425" y="630">Option 4</text><g transform="translate(350,650)"><rect fill="none" height="42.56" stroke="black" stroke-width="2" transform="rotate(275,91.6,113.28)" width="53.199999999999996" x="65" y="92" /><line stroke="black" stroke-width="2" transform="rotate(61,80.5,88.5)" x1="49" x2="112.0" y1="57" y2="120.0" /><line stroke="black" stroke-width="2" transform="rotate(214,125.3,142.3)" x1="91" x2="159.6" y1="108" y2="176.6" /><line stroke="black" stroke-width="2" transform="rotate(300,132.5,155.5)" x1="101" x2="164.0" y1="124" y2="187.0" /><rect fill="none" height="43.68" stroke="black" stroke-width="2" transform="rotate(287,121.3,32.84)" width="54.599999999999994" x="94" y="11" /></g></svg>