<?xml version="1.0" encoding="utf-8" ?>
<svg baseProfile="full" height="1000px" version="1.1" width="600px" xmlns="http://www.w3.org/2000/svg" xmlns:ev="http://www.w3.org/2001/xml-events" xmlns:xlink="http://www.w3.org/1999/xlink"><defs /><rect fill="white" height="100%" width="100%" x="0" y="0" /><text font-family="Arial" font-size="24" text-anchor="middle" x="300" y="40">Visual Discrimination Test</text><text font-family="Arial" font-size="18" text-anchor="middle" x="300" y="80">Target Pattern</text><g transform="translate(200,100)"><polygon fill="none" points="26,79 66,79 46.0,39" stroke="black" stroke-width="2" transform="rotate(185,46.0,59.0)" /><rect fill="none" height="35" stroke="black" stroke-width="2" transform="rotate(160,97.5,71.5)" width="35" x="80" y="54" /><line stroke="black" stroke-width="2" transform="rotate(300,64.0,78.0)" x1="42" x2="86" y1="56" y2="100" /><circle cx="107" cy="142" fill="none" r="23.0" stroke="black" stroke-width="2" /><line stroke="black" stroke-width="2" transform="rotate(175,97.0,139.0)" x1="77" x2="117" y1="119" y2="159" /><polygon fill="none" points="147,86 182,86 164.5,51" stroke="black" stroke-width="2" transform="rotate(292,164.5,68.5)" /><polygon fill="none" points="57,78 93,78 75.0,42" stroke="black" stroke-width="2" transform="rotate(144,75.0,60.0)" /><line stroke="black" stroke-width="2" transform="rotate(191,38.0,153.0)" x1="18" x2="58" y1="133" y2="173" /></g><text font-family="Arial" font-size="18" text-anchor="middle" x="300" y="350">Options</text><text font-family="Arial" font-size="14" text-anchor="middle" x="175" y="380">Option 1</text><g transform="translate(100,400)"><line stroke="black" stroke-width="2" transform="rotate(233,54.0,67.0)" x1="26" x2="82.0" y1="39" y2="95.0" /><line stroke="black" stroke-width="2" transform="rotate(210,104.5,78.5)" x1="80" x2="129.0" y1="54" y2="103.0" /><polygon fill="none" points="42,105.28 103.6,105.28 72.8,56" stroke="black" stroke-width="2" transform="rotate(351,72.8,80.64)" /><line stroke="black" stroke-width="2" transform="rotate(260,139.2,174.2)" x1="107" x2="171.39999999999998" y1="142" y2="206.39999999999998" /><line stroke="black" stroke-width="2" transform="rotate(223,105.0,147.0)" x1="77" x2="133.0" y1="119" y2="175.0" /><line stroke="black" stroke-width="2" transform="rotate(341,171.5,75.5)" x1="147" x2="196.0" y1="51" y2="100.0" /><rect fill="none" height="40.32" stroke="black" stroke-width="2" transform="rotate(192,82.2,62.16)" width="50.4" x="57" y="42" /><line stroke="black" stroke-width="2" transform="rotate(240,46.0,161.0)" x1="18" x2="74.0" y1="133" y2="189.0" /></g><text font-family="Arial" font-size="14" text-anchor="middle" x="425" y="380">Option 2</text><g transform="translate(350,400)"><rect fill="none" height="44.800000000000004" stroke="black" stroke-width="2" transform="rotate(233,54.0,61.400000000000006)" width="56.0" x="26" y="39" /><rect fill="none" height="39.2" stroke="black" stroke-width="2" transform="rotate(208,104.5,73.6)" width="49.0" x="80" y="54" /><line stroke="black" stroke-width="2" transform="rotate(351,72.8,86.8)" x1="42" x2="103.6" y1="56" y2="117.6" /><line stroke="black" stroke-width="2" transform="rotate(263,139.2,174.2)" x1="107" x2="171.39999999999998" y1="142" y2="206.39999999999998" /><line stroke="black" stroke-width="2" transform="rotate(227,105.0,147.0)" x1="77" x2="133.0" y1="119" y2="175.0" /><line stroke="black" stroke-width="2" transform="rotate(340,171.5,75.5)" x1="147" x2="196.0" y1="51" y2="100.0" /><polygon fill="none" points="57,82.32 107.4,82.32 82.2,42" stroke="black" stroke-width="2" transform="rotate(195,82.2,62.16)" /><polygon fill="none" points="18,177.8 74.0,177.8 46.0,133" stroke="black" stroke-width="2" transform="rotate(241,46.0,155.4)" /></g><text font-family="Arial" font-size="14" text-anchor="middle" x="175" y="630">Option 3</text><g transform="translate(100,650)"><polygon fill="none" points="26,79 66,79 46.0,39" stroke="black" stroke-width="2" transform="rotate(185,46.0,59.0)" /><rect fill="none" height="35" stroke="black" stroke-width="2" transform="rotate(160,97.5,71.5)" width="35" x="80" y="54" /><line stroke="black" stroke-width="2" transform="rotate(300,64.0,78.0)" x1="42" x2="86" y1="56" y2="100" /><circle cx="107" cy="142" fill="none" r="23.0" stroke="black" stroke-width="2" /><line stroke="black" stroke-width="2" transform="rotate(175,97.0,139.0)" x1="77" x2="117" y1="119" y2="159" /><polygon fill="none" points="147,86 182,86 164.5,51" stroke="black" stroke-width="2" transform="rotate(292,164.5,68.5)" /><polygon fill="none" points="57,78 93,78 75.0,42" stroke="black" stroke-width="2" transform="rotate(144,75.0,60.0)" /><line stroke="black" stroke-width="2" transform="rotate(191,38.0,153.0)" x1="18" x2="58" y1="133" y2="173" /></g><text font-family="Arial" font-size="14" text-anchor="middle" x="425" y="630">Option 4</text><g transform="translate(350,650)"><polygon fill="none" points="26,83.80000000000001 82.0,83.80000000000001 54.0,39" stroke="black" stroke-width="2" transform="rotate(234,54.0,61.400000000000006)" /><polygon fill="none" points="80,93.2 129.0,93.2 104.5,54" stroke="black" stroke-width="2" transform="rotate(211,104.5,73.6)" /><polygon fill="none" points="42,105.28 103.6,105.28 72.8,56" stroke="black" stroke-width="2" transform="rotate(351,72.8,80.64)" /><rect fill="none" height="51.519999999999996" stroke="black" stroke-width="2" transform="rotate(261,139.2,167.76)" width="64.39999999999999" x="107" y="142" /><polygon fill="none" points="77,163.8 133.0,163.8 105.0,119" stroke="black" stroke-width="2" transform="rotate(226,105.0,141.4)" /><rect fill="none" height="39.2" stroke="black" stroke-width="2" transform="rotate(343,171.5,70.6)" width="49.0" x="147" y="51" /><line stroke="black" stroke-width="2" transform="rotate(193,82.2,67.2)" x1="57" x2="107.4" y1="42" y2="92.4" /><rect fill="none" height="44.800000000000004" stroke="black" stroke-width="2" transform="rotate(243,46.0,155.4)" width="56.0" x="18" y="133" /></g></svg>