<?xml version="1.0" encoding="utf-8" ?>
<svg baseProfile="full" height="1000px" version="1.1" width="600px" xmlns="http://www.w3.org/2000/svg" xmlns:ev="http://www.w3.org/2001/xml-events" xmlns:xlink="http://www.w3.org/1999/xlink"><defs /><rect fill="white" height="100%" width="100%" x="0" y="0" /><text font-family="Arial" font-size="24" text-anchor="middle" x="300" y="40">Visual Discrimination Test</text><text font-family="Arial" font-size="18" text-anchor="middle" x="300" y="80">Target Pattern</text><g transform="translate(200,100)"><polygon fill="none" points="38,149 72,149 55.0,115" stroke="black" stroke-width="2" transform="rotate(221,55.0,132.0)" /><line stroke="black" stroke-width="2" transform="rotate(56,143.5,77.5)" x1="124" x2="163" y1="58" y2="97" /><circle cx="78" cy="128" fill="none" r="15.0" stroke="black" stroke-width="2" /><polygon fill="none" points="104,154 148,154 126.0,110" stroke="black" stroke-width="2" transform="rotate(112,126.0,132.0)" /><line stroke="black" stroke-width="2" transform="rotate(60,158.0,58.0)" x1="137" x2="179" y1="37" y2="79" /></g><text font-family="Arial" font-size="18" text-anchor="middle" x="300" y="350">Options</text><text font-family="Arial" font-size="14" text-anchor="middle" x="175" y="380">Option 1</text><g transform="translate(100,400)"><polygon fill="none" points="38,149 72,149 55.0,115" stroke="black" stroke-width="2" transform="rotate(221,55.0,132.0)" /><line stroke="black" stroke-width="2" transform="rotate(56,143.5,77.5)" x1="124" x2="163" y1="58" y2="97" /><circle cx="78" cy="128" fill="none" r="15.0" stroke="black" stroke-width="2" /><polygon fill="none" points="104,154 148,154 126.0,110" stroke="black" stroke-width="2" transform="rotate(112,126.0,132.0)" /><line stroke="black" stroke-width="2" transform="rotate(60,158.0,58.0)" x1="137" x2="179" y1="37" y2="79" /></g><text font-family="Arial" font-size="14" text-anchor="middle" x="425" y="380">Option 2</text><g transform="translate(350,400)"><line stroke="black" stroke-width="2" transform="rotate(269,61.8,138.8)" x1="38" x2="85.6" y1="115" y2="162.6" /><line stroke="black" stroke-width="2" transform="rotate(105,151.3,85.3)" x1="124" x2="178.6" y1="58" y2="112.6" /><rect fill="none" height="33.6" stroke="black" stroke-width="2" transform="rotate(324,99.0,144.8)" width="42.0" x="78" y="128" /><line stroke="black" stroke-width="2" transform="rotate(160,134.8,140.8)" x1="104" x2="165.6" y1="110" y2="171.6" /><line stroke="black" stroke-width="2" transform="rotate(112,166.4,66.4)" x1="137" x2="195.8" y1="37" y2="95.8" /></g><text font-family="Arial" font-size="14" text-anchor="middle" x="175" y="630">Option 3</text><g transform="translate(100,650)"><polygon fill="none" points="38,153.07999999999998 85.6,153.07999999999998 61.8,115" stroke="black" stroke-width="2" transform="rotate(271,61.8,134.04)" /><line stroke="black" stroke-width="2" transform="rotate(108,151.3,85.3)" x1="124" x2="178.6" y1="58" y2="112.6" /><line stroke="black" stroke-width="2" transform="rotate(328,99.0,149.0)" x1="78" x2="120.0" y1="128" y2="170.0" /><rect fill="none" height="49.28" stroke="black" stroke-width="2" transform="rotate(163,134.8,134.64)" width="61.599999999999994" x="104" y="110" /><line stroke="black" stroke-width="2" transform="rotate(112,166.4,66.4)" x1="137" x2="195.8" y1="37" y2="95.8" /></g><text font-family="Arial" font-size="14" text-anchor="middle" x="425" y="630">Option 4</text><g transform="translate(350,650)"><polygon fill="none" points="38,153.07999999999998 85.6,153.07999999999998 61.8,115" stroke="black" stroke-width="2" transform="rotate(271,61.8,134.04)" /><rect fill="none" height="43.68" stroke="black" stroke-width="2" transform="rotate(106,151.3,79.84)" width="54.599999999999994" x="124" y="58" /><polygon fill="none" points="78,161.6 120.0,161.6 99.0,128" stroke="black" stroke-width="2" transform="rotate(328,99.0,144.8)" /><line stroke="black" stroke-width="2" transform="rotate(163,134.8,140.8)" x1="104" x2="165.6" y1="110" y2="171.6" /><line stroke="black" stroke-width="2" transform="rotate(112,166.4,66.4)" x1="137" x2="195.8" y1="37" y2="95.8" /></g></svg>