<?xml version="1.0" encoding="utf-8" ?>
<svg baseProfile="full" height="1000px" version="1.1" width="600px" xmlns="http://www.w3.org/2000/svg" xmlns:ev="http://www.w3.org/2001/xml-events" xmlns:xlink="http://www.w3.org/1999/xlink"><defs /><rect fill="white" height="100%" width="100%" x="0" y="0" /><text font-family="Arial" font-size="24" text-anchor="middle" x="300" y="40">Visual Discrimination Test</text><text font-family="Arial" font-size="18" text-anchor="middle" x="300" y="80">Target Pattern</text><g transform="translate(200,100)"><circle cx="83" cy="30" fill="none" r="17.0" stroke="black" stroke-width="2" /><line stroke="black" stroke-width="2" transform="rotate(144,124.0,52.0)" x1="101" x2="147" y1="29" y2="75" /><polygon fill="none" points="95,167 130,167 112.5,132" stroke="black" stroke-width="2" transform="rotate(209,112.5,149.5)" /><circle cx="58" cy="87" fill="none" r="25.0" stroke="black" stroke-width="2" /><polygon fill="none" points="16,49 52,49 34.0,13" stroke="black" stroke-width="2" transform="rotate(292,34.0,31.0)" /><line stroke="black" stroke-width="2" transform="rotate(99,125.0,97.0)" x1="102" x2="148" y1="74" y2="120" /></g><text font-family="Arial" font-size="18" text-anchor="middle" x="300" y="350">Options</text><text font-family="Arial" font-size="14" text-anchor="middle" x="175" y="380">Option 1</text><g transform="translate(100,400)"><line stroke="black" stroke-width="2" transform="rotate(395,106.8,53.8)" x1="83" x2="130.6" y1="30" y2="77.6" /><polygon fill="none" points="101,80.52 165.39999999999998,80.52 133.2,29" stroke="black" stroke-width="2" transform="rotate(195,133.2,54.76)" /><polygon fill="none" points="95,171.2 144.0,171.2 119.5,132" stroke="black" stroke-width="2" transform="rotate(258,119.5,151.6)" /><polygon fill="none" points="58,143.0 128.0,143.0 93.0,87" stroke="black" stroke-width="2" transform="rotate(293,93.0,115.0)" /><rect fill="none" height="40.32" stroke="black" stroke-width="2" transform="rotate(342,41.2,33.16)" width="50.4" x="16" y="13" /><line stroke="black" stroke-width="2" transform="rotate(151,134.2,106.19999999999999)" x1="102" x2="166.39999999999998" y1="74" y2="138.39999999999998" /></g><text font-family="Arial" font-size="14" text-anchor="middle" x="425" y="380">Option 2</text><g transform="translate(350,400)"><rect fill="none" height="38.08" stroke="black" stroke-width="2" transform="rotate(396,106.8,49.04)" width="47.599999999999994" x="83" y="30" /><rect fill="none" height="51.519999999999996" stroke="black" stroke-width="2" transform="rotate(196,133.2,54.76)" width="64.39999999999999" x="101" y="29" /><rect fill="none" height="39.2" stroke="black" stroke-width="2" transform="rotate(258,119.5,151.6)" width="49.0" x="95" y="132" /><rect fill="none" height="56.0" stroke="black" stroke-width="2" transform="rotate(293,93.0,115.0)" width="70.0" x="58" y="87" /><rect fill="none" height="40.32" stroke="black" stroke-width="2" transform="rotate(341,41.2,33.16)" width="50.4" x="16" y="13" /><line stroke="black" stroke-width="2" transform="rotate(150,134.2,106.19999999999999)" x1="102" x2="166.39999999999998" y1="74" y2="138.39999999999998" /></g><text font-family="Arial" font-size="14" text-anchor="middle" x="175" y="630">Option 3</text><g transform="translate(100,650)"><rect fill="none" height="38.08" stroke="black" stroke-width="2" transform="rotate(395,106.8,49.04)" width="47.599999999999994" x="83" y="30" /><rect fill="none" height="51.519999999999996" stroke="black" stroke-width="2" transform="rotate(193,133.2,54.76)" width="64.39999999999999" x="101" y="29" /><rect fill="none" height="39.2" stroke="black" stroke-width="2" transform="rotate(261,119.5,151.6)" width="49.0" x="95" y="132" /><rect fill="none" height="56.0" stroke="black" stroke-width="2" transform="rotate(290,93.0,115.0)" width="70.0" x="58" y="87" /><rect fill="none" height="40.32" stroke="black" stroke-width="2" transform="rotate(343,41.2,33.16)" width="50.4" x="16" y="13" /><line stroke="black" stroke-width="2" transform="rotate(148,134.2,106.19999999999999)" x1="102" x2="166.39999999999998" y1="74" y2="138.39999999999998" /></g><text font-family="Arial" font-size="14" text-anchor="middle" x="425" y="630">Option 4</text><g transform="translate(350,650)"><circle cx="83" cy="30" fill="none" r="17.0" stroke="black" stroke-width="2" /><line stroke="black" stroke-width="2" transform="rotate(144,124.0,52.0)" x1="101" x2="147" y1="29" y2="75" /><polygon fill="none" points="95,167 130,167 112.5,132" stroke="black" stroke-width="2" transform="rotate(209,112.5,149.5)" /><circle cx="58" cy="87" fill="none" r="25.0" stroke="black" stroke-width="2" /><polygon fill="none" points="16,49 52,49 34.0,13" stroke="black" stroke-width="2" transform="rotate(292,34.0,31.0)" /><line stroke="black" stroke-width="2" transform="rotate(99,125.0,97.0)" x1="102" x2="148" y1="74" y2="120" /></g></svg>