<?xml version="1.0" encoding="utf-8" ?>
<svg baseProfile="full" height="1000px" version="1.1" width="600px" xmlns="http://www.w3.org/2000/svg" xmlns:ev="http://www.w3.org/2001/xml-events" xmlns:xlink="http://www.w3.org/1999/xlink"><defs /><rect fill="white" height="100%" width="100%" x="0" y="0" /><text font-family="Arial" font-size="24" text-anchor="middle" x="300" y="40">Visual Discrimination Test</text><text font-family="Arial" font-size="18" text-anchor="middle" x="300" y="80">Target Pattern</text><g transform="translate(200,100)"><circle cx="35" cy="31" fill="none" r="17.5" stroke="black" stroke-width="2" /><line stroke="black" stroke-width="2" transform="rotate(121,42.5,74.5)" x1="24" x2="61" y1="56" y2="93" /><polygon fill="none" points="20,145 59,145 39.5,106" stroke="black" stroke-width="2" transform="rotate(129,39.5,125.5)" /><polygon fill="none" points="50,73 98,73 74.0,25" stroke="black" stroke-width="2" transform="rotate(330,74.0,49.0)" /><rect fill="none" height="37" stroke="black" stroke-width="2" transform="rotate(50,165.5,53.5)" width="37" x="147" y="35" /><polygon fill="none" points="96,117 136,117 116.0,77" stroke="black" stroke-width="2" transform="rotate(28,116.0,97.0)" /><circle cx="111" cy="106" fill="none" r="21.0" stroke="black" stroke-width="2" /><polygon fill="none" points="137,95 177,95 157.0,55" stroke="black" stroke-width="2" transform="rotate(309,157.0,75.0)" /></g><text font-family="Arial" font-size="18" text-anchor="middle" x="300" y="350">Options</text><text font-family="Arial" font-size="14" text-anchor="middle" x="175" y="380">Option 1</text><g transform="translate(100,400)"><polygon fill="none" points="35,70.2 84.0,70.2 59.5,31" stroke="black" stroke-width="2" transform="rotate(295,59.5,50.6)" /><line stroke="black" stroke-width="2" transform="rotate(173,49.9,81.9)" x1="24" x2="75.8" y1="56" y2="107.8" /><line stroke="black" stroke-width="2" transform="rotate(178,47.3,133.3)" x1="20" x2="74.6" y1="106" y2="160.6" /><rect fill="none" height="53.75999999999999" stroke="black" stroke-width="2" transform="rotate(379,83.6,51.879999999999995)" width="67.19999999999999" x="50" y="25" /><line stroke="black" stroke-width="2" transform="rotate(98,172.9,60.9)" x1="147" x2="198.8" y1="35" y2="86.8" /><polygon fill="none" points="96,121.80000000000001 152.0,121.80000000000001 124.0,77" stroke="black" stroke-width="2" transform="rotate(77,124.0,99.4)" /><polygon fill="none" points="111,153.04 169.8,153.04 140.4,106" stroke="black" stroke-width="2" transform="rotate(336,140.4,129.52)" /><line stroke="black" stroke-width="2" transform="rotate(357,165.0,83.0)" x1="137" x2="193.0" y1="55" y2="111.0" /></g><text font-family="Arial" font-size="14" text-anchor="middle" x="425" y="380">Option 2</text><g transform="translate(350,400)"><rect fill="none" height="39.2" stroke="black" stroke-width="2" transform="rotate(296,59.5,50.6)" width="49.0" x="35" y="31" /><polygon fill="none" points="24,97.44 75.8,97.44 49.9,56" stroke="black" stroke-width="2" transform="rotate(170,49.9,76.72)" /><line stroke="black" stroke-width="2" transform="rotate(179,47.3,133.3)" x1="20" x2="74.6" y1="106" y2="160.6" /><polygon fill="none" points="50,78.75999999999999 117.19999999999999,78.75999999999999 83.6,25" stroke="black" stroke-width="2" transform="rotate(379,83.6,51.879999999999995)" /><polygon fill="none" points="147,76.44 198.8,76.44 172.9,35" stroke="black" stroke-width="2" transform="rotate(99,172.9,55.72)" /><polygon fill="none" points="96,121.80000000000001 152.0,121.80000000000001 124.0,77" stroke="black" stroke-width="2" transform="rotate(79,124.0,99.4)" /><rect fill="none" height="47.04" stroke="black" stroke-width="2" transform="rotate(336,140.4,129.52)" width="58.8" x="111" y="106" /><polygon fill="none" points="137,99.80000000000001 193.0,99.80000000000001 165.0,55" stroke="black" stroke-width="2" transform="rotate(360,165.0,77.4)" /></g><text font-family="Arial" font-size="14" text-anchor="middle" x="175" y="630">Option 3</text><g transform="translate(100,650)"><line stroke="black" stroke-width="2" transform="rotate(296,59.5,55.5)" x1="35" x2="84.0" y1="31" y2="80.0" /><line stroke="black" stroke-width="2" transform="rotate(170,49.9,81.9)" x1="24" x2="75.8" y1="56" y2="107.8" /><rect fill="none" height="43.68" stroke="black" stroke-width="2" transform="rotate(181,47.3,127.84)" width="54.599999999999994" x="20" y="106" /><rect fill="none" height="53.75999999999999" stroke="black" stroke-width="2" transform="rotate(378,83.6,51.879999999999995)" width="67.19999999999999" x="50" y="25" /><polygon fill="none" points="147,76.44 198.8,76.44 172.9,35" stroke="black" stroke-width="2" transform="rotate(100,172.9,55.72)" /><polygon fill="none" points="96,121.80000000000001 152.0,121.80000000000001 124.0,77" stroke="black" stroke-width="2" transform="rotate(77,124.0,99.4)" /><line stroke="black" stroke-width="2" transform="rotate(339,140.4,135.4)" x1="111" x2="169.8" y1="106" y2="164.8" /><polygon fill="none" points="137,99.80000000000001 193.0,99.80000000000001 165.0,55" stroke="black" stroke-width="2" transform="rotate(358,165.0,77.4)" /></g><text font-family="Arial" font-size="14" text-anchor="middle" x="425" y="630">Option 4</text><g transform="translate(350,650)"><circle cx="35" cy="31" fill="none" r="17.5" stroke="black" stroke-width="2" /><line stroke="black" stroke-width="2" transform="rotate(121,42.5,74.5)" x1="24" x2="61" y1="56" y2="93" /><polygon fill="none" points="20,145 59,145 39.5,106" stroke="black" stroke-width="2" transform="rotate(129,39.5,125.5)" /><polygon fill="none" points="50,73 98,73 74.0,25" stroke="black" stroke-width="2" transform="rotate(330,74.0,49.0)" /><rect fill="none" height="37" stroke="black" stroke-width="2" transform="rotate(50,165.5,53.5)" width="37" x="147" y="35" /><polygon fill="none" points="96,117 136,117 116.0,77" stroke="black" stroke-width="2" transform="rotate(28,116.0,97.0)" /><circle cx="111" cy="106" fill="none" r="21.0" stroke="black" stroke-width="2" /><polygon fill="none" points="137,95 177,95 157.0,55" stroke="black" stroke-width="2" transform="rotate(309,157.0,75.0)" /></g></svg>