<?xml version="1.0" encoding="utf-8" ?>
<svg baseProfile="full" height="1000px" version="1.1" width="600px" xmlns="http://www.w3.org/2000/svg" xmlns:ev="http://www.w3.org/2001/xml-events" xmlns:xlink="http://www.w3.org/1999/xlink"><defs /><rect fill="white" height="100%" width="100%" x="0" y="0" /><text font-family="Arial" font-size="24" text-anchor="middle" x="300" y="40">Visual Discrimination Test</text><text font-family="Arial" font-size="18" text-anchor="middle" x="300" y="80">Target Pattern</text><g transform="translate(200,100)"><line stroke="black" stroke-width="2" transform="rotate(177,85.5,101.5)" x1="64" x2="107" y1="80" y2="123" /><circle cx="115" cy="35" fill="none" r="21.5" stroke="black" stroke-width="2" /><rect fill="none" height="31" stroke="black" stroke-width="2" transform="rotate(257,60.5,59.5)" width="31" x="45" y="44" /></g><text font-family="Arial" font-size="18" text-anchor="middle" x="300" y="350">Options</text><text font-family="Arial" font-size="14" text-anchor="middle" x="175" y="380">Option 1</text><g transform="translate(100,400)"><line stroke="black" stroke-width="2" transform="rotate(182,94.1,110.1)" x1="64" x2="124.19999999999999" y1="80" y2="140.2" /><circle cx="115" cy="35" fill="none" r="30.099999999999998" stroke="black" stroke-width="2" /><rect fill="none" height="34.72" stroke="black" stroke-width="2" transform="rotate(262,66.7,61.36)" width="43.4" x="45" y="44" /></g><text font-family="Arial" font-size="14" text-anchor="middle" x="425" y="380">Option 2</text><g transform="translate(350,400)"><line stroke="black" stroke-width="2" transform="rotate(183,94.1,110.1)" x1="64" x2="124.19999999999999" y1="80" y2="140.2" /><circle cx="115" cy="35" fill="none" r="30.099999999999998" stroke="black" stroke-width="2" /><rect fill="none" height="34.72" stroke="black" stroke-width="2" transform="rotate(263,66.7,61.36)" width="43.4" x="45" y="44" /></g><text font-family="Arial" font-size="14" text-anchor="middle" x="175" y="630">Option 3</text><g transform="translate(100,650)"><line stroke="black" stroke-width="2" transform="rotate(180,94.1,110.1)" x1="64" x2="124.19999999999999" y1="80" y2="140.2" /><circle cx="115" cy="35" fill="none" r="30.099999999999998" stroke="black" stroke-width="2" /><rect fill="none" height="34.72" stroke="black" stroke-width="2" transform="rotate(263,66.7,61.36)" width="43.4" x="45" y="44" /></g><text font-family="Arial" font-size="14" text-anchor="middle" x="425" y="630">Option 4</text><g transform="translate(350,650)"><line stroke="black" stroke-width="2" transform="rotate(177,85.5,101.5)" x1="64" x2="107" y1="80" y2="123" /><circle cx="115" cy="35" fill="none" r="21.5" stroke="black" stroke-width="2" /><rect fill="none" height="31" stroke="black" stroke-width="2" transform="rotate(257,60.5,59.5)" width="31" x="45" y="44" /></g></svg>