<?xml version="1.0" encoding="utf-8" ?>
<svg baseProfile="full" height="1000px" version="1.1" width="600px" xmlns="http://www.w3.org/2000/svg" xmlns:ev="http://www.w3.org/2001/xml-events" xmlns:xlink="http://www.w3.org/1999/xlink"><defs /><rect fill="white" height="100%" width="100%" x="0" y="0" /><text font-family="Arial" font-size="24" text-anchor="middle" x="300" y="40">Visual Discrimination Test</text><text font-family="Arial" font-size="18" text-anchor="middle" x="300" y="80">Target Pattern</text><g transform="translate(200,100)"><rect fill="none" height="45" stroke="black" stroke-width="2" transform="rotate(300,62.5,110.5)" width="45" x="40" y="88" /><polygon fill="none" points="110,186 156,186 133.0,140" stroke="black" stroke-width="2" transform="rotate(323,133.0,163.0)" /><line stroke="black" stroke-width="2" transform="rotate(215,51.0,81.0)" x1="32" x2="70" y1="62" y2="100" /><circle cx="35" cy="128" fill="none" r="20.0" stroke="black" stroke-width="2" /><polygon fill="none" points="47,79 86,79 66.5,40" stroke="black" stroke-width="2" transform="rotate(254,66.5,59.5)" /><rect fill="none" height="47" stroke="black" stroke-width="2" transform="rotate(47,78.5,109.5)" width="47" x="55" y="86" /></g><text font-family="Arial" font-size="18" text-anchor="middle" x="300" y="350">Options</text><text font-family="Arial" font-size="14" text-anchor="middle" x="175" y="380">Option 1</text><g transform="translate(100,400)"><rect fill="none" height="39.6" stroke="black" stroke-width="2" transform="rotate(349,58.0,107.8)" width="36.0" x="40" y="88" /><polygon fill="none" points="110,180.48000000000002 146.8,180.48000000000002 128.4,140" stroke="black" stroke-width="2" transform="rotate(375,128.4,160.24)" /><line stroke="black" stroke-width="2" transform="rotate(266,47.2,77.2)" x1="32" x2="62.400000000000006" y1="62" y2="92.4" /><circle cx="35" cy="128" fill="none" r="16.0" stroke="black" stroke-width="2" /><polygon fill="none" points="47,74.32000000000001 78.2,74.32000000000001 62.6,40" stroke="black" stroke-width="2" transform="rotate(304,62.6,57.160000000000004)" /><rect fill="none" height="41.36000000000001" stroke="black" stroke-width="2" transform="rotate(97,73.8,106.68)" width="37.6" x="55" y="86" /></g><text font-family="Arial" font-size="14" text-anchor="middle" x="425" y="380">Option 2</text><g transform="translate(350,400)"><rect fill="none" height="39.6" stroke="black" stroke-width="2" transform="rotate(348,58.0,107.8)" width="36.0" x="40" y="88" /><polygon fill="none" points="110,180.48000000000002 146.8,180.48000000000002 128.4,140" stroke="black" stroke-width="2" transform="rotate(373,128.4,160.24)" /><line stroke="black" stroke-width="2" transform="rotate(264,47.2,77.2)" x1="32" x2="62.400000000000006" y1="62" y2="92.4" /><circle cx="35" cy="128" fill="none" r="16.0" stroke="black" stroke-width="2" /><polygon fill="none" points="47,74.32000000000001 78.2,74.32000000000001 62.6,40" stroke="black" stroke-width="2" transform="rotate(304,62.6,57.160000000000004)" /><rect fill="none" height="41.36000000000001" stroke="black" stroke-width="2" transform="rotate(99,73.8,106.68)" width="37.6" x="55" y="86" /></g><text font-family="Arial" font-size="14" text-anchor="middle" x="175" y="630">Option 3</text><g transform="translate(100,650)"><rect fill="none" height="45" stroke="black" stroke-width="2" transform="rotate(300,62.5,110.5)" width="45" x="40" y="88" /><polygon fill="none" points="110,186 156,186 133.0,140" stroke="black" stroke-width="2" transform="rotate(323,133.0,163.0)" /><line stroke="black" stroke-width="2" transform="rotate(215,51.0,81.0)" x1="32" x2="70" y1="62" y2="100" /><circle cx="35" cy="128" fill="none" r="20.0" stroke="black" stroke-width="2" /><polygon fill="none" points="47,79 86,79 66.5,40" stroke="black" stroke-width="2" transform="rotate(254,66.5,59.5)" /><rect fill="none" height="47" stroke="black" stroke-width="2" transform="rotate(47,78.5,109.5)" width="47" x="55" y="86" /></g><text font-family="Arial" font-size="14" text-anchor="middle" x="425" y="630">Option 4</text><g transform="translate(350,650)"><rect fill="none" height="39.6" stroke="black" stroke-width="2" transform="rotate(352,58.0,107.8)" width="36.0" x="40" y="88" /><polygon fill="none" points="110,180.48000000000002 146.8,180.48000000000002 128.4,140" stroke="black" stroke-width="2" transform="rotate(372,128.4,160.24)" /><line stroke="black" stroke-width="2" transform="rotate(263,47.2,77.2)" x1="32" x2="62.400000000000006" y1="62" y2="92.4" /><circle cx="35" cy="128" fill="none" r="16.0" stroke="black" stroke-width="2" /><polygon fill="none" points="47,74.32000000000001 78.2,74.32000000000001 62.6,40" stroke="black" stroke-width="2" transform="rotate(306,62.6,57.160000000000004)" /><rect fill="none" height="41.36000000000001" stroke="black" stroke-width="2" transform="rotate(98,73.8,106.68)" width="37.6" x="55" y="86" /></g></svg>