<?xml version="1.0" encoding="utf-8" ?>
<svg baseProfile="full" height="1000px" version="1.1" width="600px" xmlns="http://www.w3.org/2000/svg" xmlns:ev="http://www.w3.org/2001/xml-events" xmlns:xlink="http://www.w3.org/1999/xlink"><defs /><rect fill="white" height="100%" width="100%" x="0" y="0" /><text font-family="Arial" font-size="24" text-anchor="middle" x="300" y="40">Visual Discrimination Test</text><text font-family="Arial" font-size="18" text-anchor="middle" x="300" y="80">Target Pattern</text><g transform="translate(200,100)"><rect fill="none" height="32" stroke="black" stroke-width="2" transform="rotate(281,146.0,72.0)" width="32" x="130" y="56" /><rect fill="none" height="39" stroke="black" stroke-width="2" transform="rotate(275,113.5,62.5)" width="39" x="94" y="43" /><polygon fill="none" points="114,73 145,73 129.5,42" stroke="black" stroke-width="2" transform="rotate(249,129.5,57.5)" /><line stroke="black" stroke-width="2" transform="rotate(258,55.5,154.5)" x1="38" x2="73" y1="137" y2="172" /><circle cx="127" cy="100" fill="none" r="19.0" stroke="black" stroke-width="2" /><line stroke="black" stroke-width="2" transform="rotate(54,125.0,88.0)" x1="110" x2="140" y1="73" y2="103" /></g><text font-family="Arial" font-size="18" text-anchor="middle" x="300" y="350">Options</text><text font-family="Arial" font-size="14" text-anchor="middle" x="175" y="380">Option 1</text><g transform="translate(100,400)"><rect fill="none" height="28.160000000000004" stroke="black" stroke-width="2" transform="rotate(332,142.8,70.08)" width="25.6" x="130" y="56" /><rect fill="none" height="34.32000000000001" stroke="black" stroke-width="2" transform="rotate(325,109.6,60.160000000000004)" width="31.200000000000003" x="94" y="43" /><polygon fill="none" points="114,69.28 138.8,69.28 126.4,42" stroke="black" stroke-width="2" transform="rotate(300,126.4,55.64)" /><line stroke="black" stroke-width="2" transform="rotate(308,52.0,151.0)" x1="38" x2="66.0" y1="137" y2="165.0" /><circle cx="127" cy="100" fill="none" r="15.200000000000001" stroke="black" stroke-width="2" /><line stroke="black" stroke-width="2" transform="rotate(102,122.0,85.0)" x1="110" x2="134.0" y1="73" y2="97.0" /></g><text font-family="Arial" font-size="14" text-anchor="middle" x="425" y="380">Option 2</text><g transform="translate(350,400)"><rect fill="none" height="28.160000000000004" stroke="black" stroke-width="2" transform="rotate(333,142.8,70.08)" width="25.6" x="130" y="56" /><rect fill="none" height="34.32000000000001" stroke="black" stroke-width="2" transform="rotate(324,109.6,60.160000000000004)" width="31.200000000000003" x="94" y="43" /><polygon fill="none" points="114,69.28 138.8,69.28 126.4,42" stroke="black" stroke-width="2" transform="rotate(297,126.4,55.64)" /><line stroke="black" stroke-width="2" transform="rotate(307,52.0,151.0)" x1="38" x2="66.0" y1="137" y2="165.0" /><circle cx="127" cy="100" fill="none" r="15.200000000000001" stroke="black" stroke-width="2" /><line stroke="black" stroke-width="2" transform="rotate(104,122.0,85.0)" x1="110" x2="134.0" y1="73" y2="97.0" /></g><text font-family="Arial" font-size="14" text-anchor="middle" x="175" y="630">Option 3</text><g transform="translate(100,650)"><rect fill="none" height="32" stroke="black" stroke-width="2" transform="rotate(281,146.0,72.0)" width="32" x="130" y="56" /><rect fill="none" height="39" stroke="black" stroke-width="2" transform="rotate(275,113.5,62.5)" width="39" x="94" y="43" /><polygon fill="none" points="114,73 145,73 129.5,42" stroke="black" stroke-width="2" transform="rotate(249,129.5,57.5)" /><line stroke="black" stroke-width="2" transform="rotate(258,55.5,154.5)" x1="38" x2="73" y1="137" y2="172" /><circle cx="127" cy="100" fill="none" r="19.0" stroke="black" stroke-width="2" /><line stroke="black" stroke-width="2" transform="rotate(54,125.0,88.0)" x1="110" x2="140" y1="73" y2="103" /></g><text font-family="Arial" font-size="14" text-anchor="middle" x="425" y="630">Option 4</text><g transform="translate(350,650)"><rect fill="none" height="28.160000000000004" stroke="black" stroke-width="2" transform="rotate(332,142.8,70.08)" width="25.6" x="130" y="56" /><rect fill="none" height="34.32000000000001" stroke="black" stroke-width="2" transform="rotate(323,109.6,60.160000000000004)" width="31.200000000000003" x="94" y="43" /><polygon fill="none" points="114,69.28 138.8,69.28 126.4,42" stroke="black" stroke-width="2" transform="rotate(300,126.4,55.64)" /><line stroke="black" stroke-width="2" transform="rotate(306,52.0,151.0)" x1="38" x2="66.0" y1="137" y2="165.0" /><circle cx="127" cy="100" fill="none" r="15.200000000000001" stroke="black" stroke-width="2" /><line stroke="black" stroke-width="2" transform="rotate(102,122.0,85.0)" x1="110" x2="134.0" y1="73" y2="97.0" /></g></svg>