<?xml version="1.0" encoding="utf-8" ?>
<svg baseProfile="full" height="1000px" version="1.1" width="600px" xmlns="http://www.w3.org/2000/svg" xmlns:ev="http://www.w3.org/2001/xml-events" xmlns:xlink="http://www.w3.org/1999/xlink"><defs /><rect fill="white" height="100%" width="100%" x="0" y="0" /><text font-family="Arial" font-size="24" text-anchor="middle" x="300" y="40">Visual Discrimination Test</text><text font-family="Arial" font-size="18" text-anchor="middle" x="300" y="80">Target Pattern</text><g transform="translate(200,100)"><circle cx="88" cy="76" fill="none" r="20.0" stroke="black" stroke-width="2" /><line stroke="black" stroke-width="2" transform="rotate(355,38.5,124.5)" x1="21" x2="56" y1="107" y2="142" /><polygon fill="none" points="131,106 168,106 149.5,69" stroke="black" stroke-width="2" transform="rotate(250,149.5,87.5)" /><polygon fill="none" points="71,111 110,111 90.5,72" stroke="black" stroke-width="2" transform="rotate(79,90.5,91.5)" /><rect fill="none" height="34" stroke="black" stroke-width="2" transform="rotate(327,55.0,58.0)" width="34" x="38" y="41" /><circle cx="114" cy="45" fill="none" r="20.0" stroke="black" stroke-width="2" /><polygon fill="none" points="133,177 167,177 150.0,143" stroke="black" stroke-width="2" transform="rotate(245,150.0,160.0)" /><circle cx="122" cy="76" fill="none" r="20.5" stroke="black" stroke-width="2" /><polygon fill="none" points="135,116 167,116 151.0,84" stroke="black" stroke-width="2" transform="rotate(154,151.0,100.0)" /></g><text font-family="Arial" font-size="18" text-anchor="middle" x="300" y="350">Options</text><text font-family="Arial" font-size="14" text-anchor="middle" x="175" y="380">Option 1</text><g transform="translate(100,400)"><circle cx="88" cy="76" fill="none" r="20.0" stroke="black" stroke-width="2" /><line stroke="black" stroke-width="2" transform="rotate(355,38.5,124.5)" x1="21" x2="56" y1="107" y2="142" /><polygon fill="none" points="131,106 168,106 149.5,69" stroke="black" stroke-width="2" transform="rotate(250,149.5,87.5)" /><polygon fill="none" points="71,111 110,111 90.5,72" stroke="black" stroke-width="2" transform="rotate(79,90.5,91.5)" /><rect fill="none" height="34" stroke="black" stroke-width="2" transform="rotate(327,55.0,58.0)" width="34" x="38" y="41" /><circle cx="114" cy="45" fill="none" r="20.0" stroke="black" stroke-width="2" /><polygon fill="none" points="133,177 167,177 150.0,143" stroke="black" stroke-width="2" transform="rotate(245,150.0,160.0)" /><circle cx="122" cy="76" fill="none" r="20.5" stroke="black" stroke-width="2" /><polygon fill="none" points="135,116 167,116 151.0,84" stroke="black" stroke-width="2" transform="rotate(154,151.0,100.0)" /></g><text font-family="Arial" font-size="14" text-anchor="middle" x="425" y="380">Option 2</text><g transform="translate(350,400)"><circle cx="88" cy="76" fill="none" r="16.0" stroke="black" stroke-width="2" /><line stroke="black" stroke-width="2" transform="rotate(406,35.0,121.0)" x1="21" x2="49.0" y1="107" y2="135.0" /><polygon fill="none" points="131,101.56 160.6,101.56 145.8,69" stroke="black" stroke-width="2" transform="rotate(298,145.8,85.28)" /><polygon fill="none" points="71,106.32000000000001 102.2,106.32000000000001 86.6,72" stroke="black" stroke-width="2" transform="rotate(131,86.6,89.16)" /><rect fill="none" height="29.920000000000005" stroke="black" stroke-width="2" transform="rotate(379,51.6,55.96)" width="27.200000000000003" x="38" y="41" /><circle cx="114" cy="45" fill="none" r="16.0" stroke="black" stroke-width="2" /><polygon fill="none" points="133,172.92000000000002 160.2,172.92000000000002 146.6,143" stroke="black" stroke-width="2" transform="rotate(296,146.6,157.96)" /><circle cx="122" cy="76" fill="none" r="16.400000000000002" stroke="black" stroke-width="2" /><polygon fill="none" points="135,112.16 160.6,112.16 147.8,84" stroke="black" stroke-width="2" transform="rotate(206,147.8,98.08)" /></g><text font-family="Arial" font-size="14" text-anchor="middle" x="175" y="630">Option 3</text><g transform="translate(100,650)"><circle cx="88" cy="76" fill="none" r="16.0" stroke="black" stroke-width="2" /><line stroke="black" stroke-width="2" transform="rotate(405,35.0,121.0)" x1="21" x2="49.0" y1="107" y2="135.0" /><polygon fill="none" points="131,101.56 160.6,101.56 145.8,69" stroke="black" stroke-width="2" transform="rotate(301,145.8,85.28)" /><polygon fill="none" points="71,106.32000000000001 102.2,106.32000000000001 86.6,72" stroke="black" stroke-width="2" transform="rotate(130,86.6,89.16)" /><rect fill="none" height="29.920000000000005" stroke="black" stroke-width="2" transform="rotate(377,51.6,55.96)" width="27.200000000000003" x="38" y="41" /><circle cx="114" cy="45" fill="none" r="16.0" stroke="black" stroke-width="2" /><polygon fill="none" points="133,172.92000000000002 160.2,172.92000000000002 146.6,143" stroke="black" stroke-width="2" transform="rotate(297,146.6,157.96)" /><circle cx="122" cy="76" fill="none" r="16.400000000000002" stroke="black" stroke-width="2" /><polygon fill="none" points="135,112.16 160.6,112.16 147.8,84" stroke="black" stroke-width="2" transform="rotate(204,147.8,98.08)" /></g><text font-family="Arial" font-size="14" text-anchor="middle" x="425" y="630">Option 4</text><g transform="translate(350,650)"><circle cx="88" cy="76" fill="none" r="16.0" stroke="black" stroke-width="2" /><line stroke="black" stroke-width="2" transform="rotate(405,35.0,121.0)" x1="21" x2="49.0" y1="107" y2="135.0" /><polygon fill="none" points="131,101.56 160.6,101.56 145.8,69" stroke="black" stroke-width="2" transform="rotate(299,145.8,85.28)" /><polygon fill="none" points="71,106.32000000000001 102.2,106.32000000000001 86.6,72" stroke="black" stroke-width="2" transform="rotate(127,86.6,89.16)" /><rect fill="none" height="29.920000000000005" stroke="black" stroke-width="2" transform="rotate(376,51.6,55.96)" width="27.200000000000003" x="38" y="41" /><circle cx="114" cy="45" fill="none" r="16.0" stroke="black" stroke-width="2" /><polygon fill="none" points="133,172.92000000000002 160.2,172.92000000000002 146.6,143" stroke="black" stroke-width="2" transform="rotate(293,146.6,157.96)" /><circle cx="122" cy="76" fill="none" r="16.400000000000002" stroke="black" stroke-width="2" /><polygon fill="none" points="135,112.16 160.6,112.16 147.8,84" stroke="black" stroke-width="2" transform="rotate(202,147.8,98.08)" /></g></svg>