<?xml version="1.0" encoding="utf-8" ?>
<svg baseProfile="full" height="1000px" version="1.1" width="600px" xmlns="http://www.w3.org/2000/svg" xmlns:ev="http://www.w3.org/2001/xml-events" xmlns:xlink="http://www.w3.org/1999/xlink"><defs /><rect fill="white" height="100%" width="100%" x="0" y="0" /><text font-family="Arial" font-size="24" text-anchor="middle" x="300" y="40">Visual Discrimination Test</text><text font-family="Arial" font-size="18" text-anchor="middle" x="300" y="80">Target Pattern</text><g transform="translate(200,100)"><line stroke="black" stroke-width="2" transform="rotate(272,116.5,52.5)" x1="99" x2="134" y1="35" y2="70" /><circle cx="77" cy="82" fill="none" r="20.0" stroke="black" stroke-width="2" /><rect fill="none" height="35" stroke="black" stroke-width="2" transform="rotate(162,86.5,63.5)" width="35" x="69" y="46" /><circle cx="73" cy="43" fill="none" r="24.0" stroke="black" stroke-width="2" /><polygon fill="none" points="36,115 77,115 56.5,74" stroke="black" stroke-width="2" transform="rotate(58,56.5,94.5)" /><circle cx="109" cy="22" fill="none" r="23.5" stroke="black" stroke-width="2" /><polygon fill="none" points="145,108 179,108 162.0,74" stroke="black" stroke-width="2" transform="rotate(321,162.0,91.0)" /><polygon fill="none" points="77,50 117,50 97.0,10" stroke="black" stroke-width="2" transform="rotate(233,97.0,30.0)" /><rect fill="none" height="32" stroke="black" stroke-width="2" transform="rotate(142,71.0,51.0)" width="32" x="55" y="35" /><polygon fill="none" points="67,134 105,134 86.0,96" stroke="black" stroke-width="2" transform="rotate(40,86.0,115.0)" /></g><text font-family="Arial" font-size="18" text-anchor="middle" x="300" y="350">Options</text><text font-family="Arial" font-size="14" text-anchor="middle" x="175" y="380">Option 1</text><g transform="translate(100,400)"><line stroke="black" stroke-width="2" transform="rotate(272,116.5,52.5)" x1="99" x2="134" y1="35" y2="70" /><circle cx="77" cy="82" fill="none" r="20.0" stroke="black" stroke-width="2" /><rect fill="none" height="35" stroke="black" stroke-width="2" transform="rotate(162,86.5,63.5)" width="35" x="69" y="46" /><circle cx="73" cy="43" fill="none" r="24.0" stroke="black" stroke-width="2" /><polygon fill="none" points="36,115 77,115 56.5,74" stroke="black" stroke-width="2" transform="rotate(58,56.5,94.5)" /><circle cx="109" cy="22" fill="none" r="23.5" stroke="black" stroke-width="2" /><polygon fill="none" points="145,108 179,108 162.0,74" stroke="black" stroke-width="2" transform="rotate(321,162.0,91.0)" /><polygon fill="none" points="77,50 117,50 97.0,10" stroke="black" stroke-width="2" transform="rotate(233,97.0,30.0)" /><rect fill="none" height="32" stroke="black" stroke-width="2" transform="rotate(142,71.0,51.0)" width="32" x="55" y="35" /><polygon fill="none" points="67,134 105,134 86.0,96" stroke="black" stroke-width="2" transform="rotate(40,86.0,115.0)" /></g><text font-family="Arial" font-size="14" text-anchor="middle" x="425" y="380">Option 2</text><g transform="translate(350,400)"><line stroke="black" stroke-width="2" transform="rotate(323,113.0,49.0)" x1="99" x2="127.0" y1="35" y2="63.0" /><circle cx="77" cy="82" fill="none" r="16.0" stroke="black" stroke-width="2" /><rect fill="none" height="30.800000000000004" stroke="black" stroke-width="2" transform="rotate(211,83.0,61.400000000000006)" width="28.0" x="69" y="46" /><circle cx="73" cy="43" fill="none" r="19.200000000000003" stroke="black" stroke-width="2" /><polygon fill="none" points="36,110.08000000000001 68.80000000000001,110.08000000000001 52.400000000000006,74" stroke="black" stroke-width="2" transform="rotate(108,52.400000000000006,92.04)" /><circle cx="109" cy="22" fill="none" r="18.8" stroke="black" stroke-width="2" /><polygon fill="none" points="145,103.92 172.2,103.92 158.6,74" stroke="black" stroke-width="2" transform="rotate(372,158.6,88.96000000000001)" /><polygon fill="none" points="77,45.2 109.0,45.2 93.0,10" stroke="black" stroke-width="2" transform="rotate(281,93.0,27.6)" /><rect fill="none" height="28.160000000000004" stroke="black" stroke-width="2" transform="rotate(191,67.8,49.08)" width="25.6" x="55" y="35" /><polygon fill="none" points="67,129.44 97.4,129.44 82.2,96" stroke="black" stroke-width="2" transform="rotate(88,82.2,112.72)" /></g><text font-family="Arial" font-size="14" text-anchor="middle" x="175" y="630">Option 3</text><g transform="translate(100,650)"><line stroke="black" stroke-width="2" transform="rotate(322,113.0,49.0)" x1="99" x2="127.0" y1="35" y2="63.0" /><circle cx="77" cy="82" fill="none" r="16.0" stroke="black" stroke-width="2" /><rect fill="none" height="30.800000000000004" stroke="black" stroke-width="2" transform="rotate(214,83.0,61.400000000000006)" width="28.0" x="69" y="46" /><circle cx="73" cy="43" fill="none" r="19.200000000000003" stroke="black" stroke-width="2" /><polygon fill="none" points="36,110.08000000000001 68.80000000000001,110.08000000000001 52.400000000000006,74" stroke="black" stroke-width="2" transform="rotate(107,52.400000000000006,92.04)" /><circle cx="109" cy="22" fill="none" r="18.8" stroke="black" stroke-width="2" /><polygon fill="none" points="145,103.92 172.2,103.92 158.6,74" stroke="black" stroke-width="2" transform="rotate(373,158.6,88.96000000000001)" /><polygon fill="none" points="77,45.2 109.0,45.2 93.0,10" stroke="black" stroke-width="2" transform="rotate(284,93.0,27.6)" /><rect fill="none" height="28.160000000000004" stroke="black" stroke-width="2" transform="rotate(190,67.8,49.08)" width="25.6" x="55" y="35" /><polygon fill="none" points="67,129.44 97.4,129.44 82.2,96" stroke="black" stroke-width="2" transform="rotate(89,82.2,112.72)" /></g><text font-family="Arial" font-size="14" text-anchor="middle" x="425" y="630">Option 4</text><g transform="translate(350,650)"><line stroke="black" stroke-width="2" transform="rotate(323,113.0,49.0)" x1="99" x2="127.0" y1="35" y2="63.0" /><circle cx="77" cy="82" fill="none" r="16.0" stroke="black" stroke-width="2" /><rect fill="none" height="30.800000000000004" stroke="black" stroke-width="2" transform="rotate(211,83.0,61.400000000000006)" width="28.0" x="69" y="46" /><circle cx="73" cy="43" fill="none" r="19.200000000000003" stroke="black" stroke-width="2" /><polygon fill="none" points="36,110.08000000000001 68.80000000000001,110.08000000000001 52.400000000000006,74" stroke="black" stroke-width="2" transform="rotate(109,52.400000000000006,92.04)" /><circle cx="109" cy="22" fill="none" r="18.8" stroke="black" stroke-width="2" /><polygon fill="none" points="145,103.92 172.2,103.92 158.6,74" stroke="black" stroke-width="2" transform="rotate(373,158.6,88.96000000000001)" /><polygon fill="none" points="77,45.2 109.0,45.2 93.0,10" stroke="black" stroke-width="2" transform="rotate(281,93.0,27.6)" /><rect fill="none" height="28.160000000000004" stroke="black" stroke-width="2" transform="rotate(193,67.8,49.08)" width="25.6" x="55" y="35" /><polygon fill="none" points="67,129.44 97.4,129.44 82.2,96" stroke="black" stroke-width="2" transform="rotate(89,82.2,112.72)" /></g></svg>