<?xml version="1.0" encoding="utf-8" ?>
<svg baseProfile="full" height="1000px" version="1.1" width="600px" xmlns="http://www.w3.org/2000/svg" xmlns:ev="http://www.w3.org/2001/xml-events" xmlns:xlink="http://www.w3.org/1999/xlink"><defs /><rect fill="white" height="100%" width="100%" x="0" y="0" /><text font-family="Arial" font-size="24" text-anchor="middle" x="300" y="40">Visual Discrimination Test</text><text font-family="Arial" font-size="18" text-anchor="middle" x="300" y="80">Target Pattern</text><g transform="translate(200,100)"><line stroke="black" stroke-width="2" transform="rotate(108,37.5,123.5)" x1="17" x2="58" y1="103" y2="144" /><polygon fill="none" points="128,50 158,50 143.0,20" stroke="black" stroke-width="2" transform="rotate(199,143.0,35.0)" /></g><text font-family="Arial" font-size="18" text-anchor="middle" x="300" y="350">Options</text><text font-family="Arial" font-size="14" text-anchor="middle" x="175" y="380">Option 1</text><g transform="translate(100,400)"><line stroke="black" stroke-width="2" transform="rotate(157,33.400000000000006,119.4)" x1="17" x2="49.800000000000004" y1="103" y2="135.8" /><polygon fill="none" points="128,46.400000000000006 152.0,46.400000000000006 140.0,20" stroke="black" stroke-width="2" transform="rotate(247,140.0,33.2)" /></g><text font-family="Arial" font-size="14" text-anchor="middle" x="425" y="380">Option 2</text><g transform="translate(350,400)"><line stroke="black" stroke-width="2" transform="rotate(108,37.5,123.5)" x1="17" x2="58" y1="103" y2="144" /><polygon fill="none" points="128,50 158,50 143.0,20" stroke="black" stroke-width="2" transform="rotate(199,143.0,35.0)" /></g><text font-family="Arial" font-size="14" text-anchor="middle" x="175" y="630">Option 3</text><g transform="translate(100,650)"><line stroke="black" stroke-width="2" transform="rotate(156,33.400000000000006,119.4)" x1="17" x2="49.800000000000004" y1="103" y2="135.8" /><polygon fill="none" points="128,46.400000000000006 152.0,46.400000000000006 140.0,20" stroke="black" stroke-width="2" transform="rotate(248,140.0,33.2)" /></g><text font-family="Arial" font-size="14" text-anchor="middle" x="425" y="630">Option 4</text><g transform="translate(350,650)"><line stroke="black" stroke-width="2" transform="rotate(158,33.400000000000006,119.4)" x1="17" x2="49.800000000000004" y1="103" y2="135.8" /><polygon fill="none" points="128,46.400000000000006 152.0,46.400000000000006 140.0,20" stroke="black" stroke-width="2" transform="rotate(250,140.0,33.2)" /></g></svg>