<?xml version="1.0" encoding="utf-8" ?>
<svg baseProfile="full" height="1000px" version="1.1" width="600px" xmlns="http://www.w3.org/2000/svg" xmlns:ev="http://www.w3.org/2001/xml-events" xmlns:xlink="http://www.w3.org/1999/xlink"><defs /><rect fill="white" height="100%" width="100%" x="0" y="0" /><text font-family="Arial" font-size="24" text-anchor="middle" x="300" y="40">Visual Discrimination Test</text><text font-family="Arial" font-size="18" text-anchor="middle" x="300" y="80">Target Pattern</text><g transform="translate(200,100)"><line stroke="black" stroke-width="2" transform="rotate(235,127.5,31.5)" x1="106" x2="149" y1="10" y2="53" /><circle cx="35" cy="112" fill="none" r="22.0" stroke="black" stroke-width="2" /><polygon fill="none" points="80,66 112,66 96.0,34" stroke="black" stroke-width="2" transform="rotate(164,96.0,50.0)" /><polygon fill="none" points="10,148 43,148 26.5,115" stroke="black" stroke-width="2" transform="rotate(271,26.5,131.5)" /><rect fill="none" height="46" stroke="black" stroke-width="2" transform="rotate(49,121.0,37.0)" width="46" x="98" y="14" /><polygon fill="none" points="65,117 102,117 83.5,80" stroke="black" stroke-width="2" transform="rotate(18,83.5,98.5)" /><line stroke="black" stroke-width="2" transform="rotate(232,140.5,153.5)" x1="117" x2="164" y1="130" y2="177" /><line stroke="black" stroke-width="2" transform="rotate(292,29.5,122.5)" x1="14" x2="45" y1="107" y2="138" /></g><text font-family="Arial" font-size="18" text-anchor="middle" x="300" y="350">Options</text><text font-family="Arial" font-size="14" text-anchor="middle" x="175" y="380">Option 1</text><g transform="translate(100,400)"><rect fill="none" height="37.84" stroke="black" stroke-width="2" transform="rotate(287,123.2,28.92)" width="34.4" x="106" y="10" /><line stroke="black" stroke-width="2" transform="rotate(383,52.6,129.6)" x1="35" x2="70.2" y1="112" y2="147.2" /><line stroke="black" stroke-width="2" transform="rotate(216,92.8,46.8)" x1="80" x2="105.6" y1="34" y2="59.6" /><line stroke="black" stroke-width="2" transform="rotate(323,23.200000000000003,128.2)" x1="10" x2="36.400000000000006" y1="115" y2="141.4" /><polygon fill="none" points="98,54.48000000000001 134.8,54.48000000000001 116.4,14" stroke="black" stroke-width="2" transform="rotate(100,116.4,34.24000000000001)" /><rect fill="none" height="32.56" stroke="black" stroke-width="2" transform="rotate(67,79.8,96.28)" width="29.6" x="65" y="80" /><line stroke="black" stroke-width="2" transform="rotate(280,135.8,148.8)" x1="117" x2="154.6" y1="130" y2="167.6" /><line stroke="black" stroke-width="2" transform="rotate(343,26.4,119.4)" x1="14" x2="38.8" y1="107" y2="131.8" /></g><text font-family="Arial" font-size="14" text-anchor="middle" x="425" y="380">Option 2</text><g transform="translate(350,400)"><rect fill="none" height="37.84" stroke="black" stroke-width="2" transform="rotate(284,123.2,28.92)" width="34.4" x="106" y="10" /><polygon fill="none" points="35,150.72 70.2,150.72 52.6,112" stroke="black" stroke-width="2" transform="rotate(384,52.6,131.36)" /><rect fill="none" height="28.160000000000004" stroke="black" stroke-width="2" transform="rotate(213,92.8,48.08)" width="25.6" x="80" y="34" /><line stroke="black" stroke-width="2" transform="rotate(320,23.200000000000003,128.2)" x1="10" x2="36.400000000000006" y1="115" y2="141.4" /><rect fill="none" height="40.48000000000001" stroke="black" stroke-width="2" transform="rotate(100,116.4,34.24000000000001)" width="36.800000000000004" x="98" y="14" /><rect fill="none" height="32.56" stroke="black" stroke-width="2" transform="rotate(70,79.8,96.28)" width="29.6" x="65" y="80" /><rect fill="none" height="41.36000000000001" stroke="black" stroke-width="2" transform="rotate(283,135.8,150.68)" width="37.6" x="117" y="130" /><line stroke="black" stroke-width="2" transform="rotate(343,26.4,119.4)" x1="14" x2="38.8" y1="107" y2="131.8" /></g><text font-family="Arial" font-size="14" text-anchor="middle" x="175" y="630">Option 3</text><g transform="translate(100,650)"><line stroke="black" stroke-width="2" transform="rotate(235,127.5,31.5)" x1="106" x2="149" y1="10" y2="53" /><circle cx="35" cy="112" fill="none" r="22.0" stroke="black" stroke-width="2" /><polygon fill="none" points="80,66 112,66 96.0,34" stroke="black" stroke-width="2" transform="rotate(164,96.0,50.0)" /><polygon fill="none" points="10,148 43,148 26.5,115" stroke="black" stroke-width="2" transform="rotate(271,26.5,131.5)" /><rect fill="none" height="46" stroke="black" stroke-width="2" transform="rotate(49,121.0,37.0)" width="46" x="98" y="14" /><polygon fill="none" points="65,117 102,117 83.5,80" stroke="black" stroke-width="2" transform="rotate(18,83.5,98.5)" /><line stroke="black" stroke-width="2" transform="rotate(232,140.5,153.5)" x1="117" x2="164" y1="130" y2="177" /><line stroke="black" stroke-width="2" transform="rotate(292,29.5,122.5)" x1="14" x2="45" y1="107" y2="138" /></g><text font-family="Arial" font-size="14" text-anchor="middle" x="425" y="630">Option 4</text><g transform="translate(350,650)"><rect fill="none" height="37.84" stroke="black" stroke-width="2" transform="rotate(284,123.2,28.92)" width="34.4" x="106" y="10" /><rect fill="none" height="38.720000000000006" stroke="black" stroke-width="2" transform="rotate(383,52.6,131.36)" width="35.2" x="35" y="112" /><line stroke="black" stroke-width="2" transform="rotate(214,92.8,46.8)" x1="80" x2="105.6" y1="34" y2="59.6" /><rect fill="none" height="29.040000000000006" stroke="black" stroke-width="2" transform="rotate(321,23.200000000000003,129.52)" width="26.400000000000002" x="10" y="115" /><polygon fill="none" points="98,54.48000000000001 134.8,54.48000000000001 116.4,14" stroke="black" stroke-width="2" transform="rotate(97,116.4,34.24000000000001)" /><line stroke="black" stroke-width="2" transform="rotate(68,79.8,94.8)" x1="65" x2="94.6" y1="80" y2="109.6" /><line stroke="black" stroke-width="2" transform="rotate(281,135.8,148.8)" x1="117" x2="154.6" y1="130" y2="167.6" /><line stroke="black" stroke-width="2" transform="rotate(343,26.4,119.4)" x1="14" x2="38.8" y1="107" y2="131.8" /></g></svg>