<?xml version="1.0" encoding="utf-8" ?>
<svg baseProfile="full" height="1000px" version="1.1" width="600px" xmlns="http://www.w3.org/2000/svg" xmlns:ev="http://www.w3.org/2001/xml-events" xmlns:xlink="http://www.w3.org/1999/xlink"><defs /><rect fill="white" height="100%" width="100%" x="0" y="0" /><text font-family="Arial" font-size="24" text-anchor="middle" x="300" y="40">Visual Discrimination Test</text><text font-family="Arial" font-size="18" text-anchor="middle" x="300" y="80">Target Pattern</text><g transform="translate(200,100)"><line stroke="black" stroke-width="2" transform="rotate(350,55.0,116.0)" x1="34" x2="76" y1="95" y2="137" /><rect fill="none" height="37" stroke="black" stroke-width="2" transform="rotate(84,68.5,39.5)" width="37" x="50" y="21" /><circle cx="134" cy="110" fill="none" r="19.0" stroke="black" stroke-width="2" /><circle cx="76" cy="24" fill="none" r="18.5" stroke="black" stroke-width="2" /><polygon fill="none" points="24,89 61,89 42.5,52" stroke="black" stroke-width="2" transform="rotate(117,42.5,70.5)" /><line stroke="black" stroke-width="2" transform="rotate(289,157.0,40.0)" x1="132" x2="182" y1="15" y2="65" /><polygon fill="none" points="57,142 92,142 74.5,107" stroke="black" stroke-width="2" transform="rotate(269,74.5,124.5)" /><line stroke="black" stroke-width="2" transform="rotate(34,101.0,115.0)" x1="80" x2="122" y1="94" y2="136" /><circle cx="46" cy="101" fill="none" r="19.5" stroke="black" stroke-width="2" /><rect fill="none" height="38" stroke="black" stroke-width="2" transform="rotate(218,144.0,153.0)" width="38" x="125" y="134" /></g><text font-family="Arial" font-size="18" text-anchor="middle" x="300" y="350">Options</text><text font-family="Arial" font-size="14" text-anchor="middle" x="175" y="380">Option 1</text><g transform="translate(100,400)"><rect fill="none" height="36.96000000000001" stroke="black" stroke-width="2" transform="rotate(400,50.8,113.48)" width="33.6" x="34" y="95" /><line stroke="black" stroke-width="2" transform="rotate(133,64.8,35.8)" x1="50" x2="79.6" y1="21" y2="50.6" /><line stroke="black" stroke-width="2" transform="rotate(113,149.2,125.2)" x1="134" x2="164.4" y1="110" y2="140.4" /><rect fill="none" height="32.56" stroke="black" stroke-width="2" transform="rotate(76,90.8,40.28)" width="29.6" x="76" y="24" /><polygon fill="none" points="24,84.56 53.6,84.56 38.8,52" stroke="black" stroke-width="2" transform="rotate(169,38.8,68.28)" /><rect fill="none" height="44.0" stroke="black" stroke-width="2" transform="rotate(337,152.0,37.0)" width="40.0" x="132" y="15" /><rect fill="none" height="30.800000000000004" stroke="black" stroke-width="2" transform="rotate(319,71.0,122.4)" width="28.0" x="57" y="107" /><polygon fill="none" points="80,130.96 113.6,130.96 96.8,94" stroke="black" stroke-width="2" transform="rotate(82,96.8,112.48)" /><polygon fill="none" points="46,135.32 77.2,135.32 61.6,101" stroke="black" stroke-width="2" transform="rotate(172,61.6,118.16)" /><rect fill="none" height="33.440000000000005" stroke="black" stroke-width="2" transform="rotate(269,140.2,150.72)" width="30.400000000000002" x="125" y="134" /></g><text font-family="Arial" font-size="14" text-anchor="middle" x="425" y="380">Option 2</text><g transform="translate(350,400)"><line stroke="black" stroke-width="2" transform="rotate(350,55.0,116.0)" x1="34" x2="76" y1="95" y2="137" /><rect fill="none" height="37" stroke="black" stroke-width="2" transform="rotate(84,68.5,39.5)" width="37" x="50" y="21" /><circle cx="134" cy="110" fill="none" r="19.0" stroke="black" stroke-width="2" /><circle cx="76" cy="24" fill="none" r="18.5" stroke="black" stroke-width="2" /><polygon fill="none" points="24,89 61,89 42.5,52" stroke="black" stroke-width="2" transform="rotate(117,42.5,70.5)" /><line stroke="black" stroke-width="2" transform="rotate(289,157.0,40.0)" x1="132" x2="182" y1="15" y2="65" /><polygon fill="none" points="57,142 92,142 74.5,107" stroke="black" stroke-width="2" transform="rotate(269,74.5,124.5)" /><line stroke="black" stroke-width="2" transform="rotate(34,101.0,115.0)" x1="80" x2="122" y1="94" y2="136" /><circle cx="46" cy="101" fill="none" r="19.5" stroke="black" stroke-width="2" /><rect fill="none" height="38" stroke="black" stroke-width="2" transform="rotate(218,144.0,153.0)" width="38" x="125" y="134" /></g><text font-family="Arial" font-size="14" text-anchor="middle" x="175" y="630">Option 3</text><g transform="translate(100,650)"><polygon fill="none" points="34,131.96 67.6,131.96 50.8,95" stroke="black" stroke-width="2" transform="rotate(401,50.8,113.48)" /><rect fill="none" height="32.56" stroke="black" stroke-width="2" transform="rotate(135,64.8,37.28)" width="29.6" x="50" y="21" /><rect fill="none" height="33.440000000000005" stroke="black" stroke-width="2" transform="rotate(115,149.2,126.72)" width="30.400000000000002" x="134" y="110" /><rect fill="none" height="32.56" stroke="black" stroke-width="2" transform="rotate(78,90.8,40.28)" width="29.6" x="76" y="24" /><line stroke="black" stroke-width="2" transform="rotate(165,38.8,66.8)" x1="24" x2="53.6" y1="52" y2="81.6" /><rect fill="none" height="44.0" stroke="black" stroke-width="2" transform="rotate(340,152.0,37.0)" width="40.0" x="132" y="15" /><line stroke="black" stroke-width="2" transform="rotate(319,71.0,121.0)" x1="57" x2="85.0" y1="107" y2="135.0" /><line stroke="black" stroke-width="2" transform="rotate(84,96.8,110.8)" x1="80" x2="113.6" y1="94" y2="127.6" /><rect fill="none" height="34.32000000000001" stroke="black" stroke-width="2" transform="rotate(174,61.6,118.16)" width="31.200000000000003" x="46" y="101" /><polygon fill="none" points="125,167.44 155.4,167.44 140.2,134" stroke="black" stroke-width="2" transform="rotate(267,140.2,150.72)" /></g><text font-family="Arial" font-size="14" text-anchor="middle" x="425" y="630">Option 4</text><g transform="translate(350,650)"><polygon fill="none" points="34,131.96 67.6,131.96 50.8,95" stroke="black" stroke-width="2" transform="rotate(401,50.8,113.48)" /><rect fill="none" height="32.56" stroke="black" stroke-width="2" transform="rotate(134,64.8,37.28)" width="29.6" x="50" y="21" /><rect fill="none" height="33.440000000000005" stroke="black" stroke-width="2" transform="rotate(116,149.2,126.72)" width="30.400000000000002" x="134" y="110" /><line stroke="black" stroke-width="2" transform="rotate(75,90.8,38.8)" x1="76" x2="105.6" y1="24" y2="53.6" /><line stroke="black" stroke-width="2" transform="rotate(169,38.8,66.8)" x1="24" x2="53.6" y1="52" y2="81.6" /><polygon fill="none" points="132,59.0 172.0,59.0 152.0,15" stroke="black" stroke-width="2" transform="rotate(337,152.0,37.0)" /><rect fill="none" height="30.800000000000004" stroke="black" stroke-width="2" transform="rotate(317,71.0,122.4)" width="28.0" x="57" y="107" /><polygon fill="none" points="80,130.96 113.6,130.96 96.8,94" stroke="black" stroke-width="2" transform="rotate(85,96.8,112.48)" /><polygon fill="none" points="46,135.32 77.2,135.32 61.6,101" stroke="black" stroke-width="2" transform="rotate(174,61.6,118.16)" /><rect fill="none" height="33.440000000000005" stroke="black" stroke-width="2" transform="rotate(268,140.2,150.72)" width="30.400000000000002" x="125" y="134" /></g></svg>