<?xml version="1.0" encoding="utf-8" ?>
<svg baseProfile="full" height="1000px" version="1.1" width="600px" xmlns="http://www.w3.org/2000/svg" xmlns:ev="http://www.w3.org/2001/xml-events" xmlns:xlink="http://www.w3.org/1999/xlink"><defs /><rect fill="white" height="100%" width="100%" x="0" y="0" /><text font-family="Arial" font-size="24" text-anchor="middle" x="300" y="40">Visual Discrimination Test</text><text font-family="Arial" font-size="18" text-anchor="middle" x="300" y="80">Target Pattern</text><g transform="translate(200,100)"><line stroke="black" stroke-width="2" transform="rotate(188,122.0,70.0)" x1="104" x2="140" y1="52" y2="88" /><line stroke="black" stroke-width="2" transform="rotate(333,163.0,127.0)" x1="141" x2="185" y1="105" y2="149" /><line stroke="black" stroke-width="2" transform="rotate(285,128.0,119.0)" x1="107" x2="149" y1="98" y2="140" /><line stroke="black" stroke-width="2" transform="rotate(267,63.5,76.5)" x1="44" x2="83" y1="57" y2="96" /><line stroke="black" stroke-width="2" transform="rotate(239,104.0,67.0)" x1="89" x2="119" y1="52" y2="82" /><line stroke="black" stroke-width="2" transform="rotate(334,158.5,161.5)" x1="135" x2="182" y1="138" y2="185" /><rect fill="none" height="42" stroke="black" stroke-width="2" transform="rotate(23,159.0,65.0)" width="42" x="138" y="44" /><line stroke="black" stroke-width="2" transform="rotate(101,29.0,51.0)" x1="14" x2="44" y1="36" y2="66" /><rect fill="none" height="36" stroke="black" stroke-width="2" transform="rotate(12,99.0,138.0)" width="36" x="81" y="120" /><rect fill="none" height="49" stroke="black" stroke-width="2" transform="rotate(54,88.5,45.5)" width="49" x="64" y="21" /></g><text font-family="Arial" font-size="18" text-anchor="middle" x="300" y="350">Options</text><text font-family="Arial" font-size="14" text-anchor="middle" x="175" y="380">Option 1</text><g transform="translate(100,400)"><line stroke="black" stroke-width="2" transform="rotate(236,118.4,66.4)" x1="104" x2="132.8" y1="52" y2="80.8" /><rect fill="none" height="38.720000000000006" stroke="black" stroke-width="2" transform="rotate(382,158.6,124.36)" width="35.2" x="141" y="105" /><line stroke="black" stroke-width="2" transform="rotate(337,123.8,114.8)" x1="107" x2="140.6" y1="98" y2="131.6" /><polygon fill="none" points="44,91.32000000000001 75.2,91.32000000000001 59.6,57" stroke="black" stroke-width="2" transform="rotate(318,59.6,74.16)" /><line stroke="black" stroke-width="2" transform="rotate(289,101.0,64.0)" x1="89" x2="113.0" y1="52" y2="76.0" /><polygon fill="none" points="135,179.36 172.6,179.36 153.8,138" stroke="black" stroke-width="2" transform="rotate(383,153.8,158.68)" /><polygon fill="none" points="138,80.96000000000001 171.6,80.96000000000001 154.8,44" stroke="black" stroke-width="2" transform="rotate(71,154.8,62.480000000000004)" /><polygon fill="none" points="14,62.400000000000006 38.0,62.400000000000006 26.0,36" stroke="black" stroke-width="2" transform="rotate(149,26.0,49.2)" /><polygon fill="none" points="81,151.68 109.8,151.68 95.4,120" stroke="black" stroke-width="2" transform="rotate(60,95.4,135.84)" /><polygon fill="none" points="64,64.12 103.2,64.12 83.6,21" stroke="black" stroke-width="2" transform="rotate(104,83.6,42.56)" /></g><text font-family="Arial" font-size="14" text-anchor="middle" x="425" y="380">Option 2</text><g transform="translate(350,400)"><polygon fill="none" points="104,83.68 132.8,83.68 118.4,52" stroke="black" stroke-width="2" transform="rotate(237,118.4,67.84)" /><line stroke="black" stroke-width="2" transform="rotate(381,158.6,122.6)" x1="141" x2="176.2" y1="105" y2="140.2" /><rect fill="none" height="36.96000000000001" stroke="black" stroke-width="2" transform="rotate(334,123.8,116.48)" width="33.6" x="107" y="98" /><rect fill="none" height="34.32000000000001" stroke="black" stroke-width="2" transform="rotate(315,59.6,74.16)" width="31.200000000000003" x="44" y="57" /><rect fill="none" height="26.400000000000002" stroke="black" stroke-width="2" transform="rotate(291,101.0,65.2)" width="24.0" x="89" y="52" /><polygon fill="none" points="135,179.36 172.6,179.36 153.8,138" stroke="black" stroke-width="2" transform="rotate(386,153.8,158.68)" /><polygon fill="none" points="138,80.96000000000001 171.6,80.96000000000001 154.8,44" stroke="black" stroke-width="2" transform="rotate(74,154.8,62.480000000000004)" /><rect fill="none" height="26.400000000000002" stroke="black" stroke-width="2" transform="rotate(149,26.0,49.2)" width="24.0" x="14" y="36" /><line stroke="black" stroke-width="2" transform="rotate(62,95.4,134.4)" x1="81" x2="109.8" y1="120" y2="148.8" /><line stroke="black" stroke-width="2" transform="rotate(103,83.6,40.6)" x1="64" x2="103.2" y1="21" y2="60.2" /></g><text font-family="Arial" font-size="14" text-anchor="middle" x="175" y="630">Option 3</text><g transform="translate(100,650)"><line stroke="black" stroke-width="2" transform="rotate(188,122.0,70.0)" x1="104" x2="140" y1="52" y2="88" /><line stroke="black" stroke-width="2" transform="rotate(333,163.0,127.0)" x1="141" x2="185" y1="105" y2="149" /><line stroke="black" stroke-width="2" transform="rotate(285,128.0,119.0)" x1="107" x2="149" y1="98" y2="140" /><line stroke="black" stroke-width="2" transform="rotate(267,63.5,76.5)" x1="44" x2="83" y1="57" y2="96" /><line stroke="black" stroke-width="2" transform="rotate(239,104.0,67.0)" x1="89" x2="119" y1="52" y2="82" /><line stroke="black" stroke-width="2" transform="rotate(334,158.5,161.5)" x1="135" x2="182" y1="138" y2="185" /><rect fill="none" height="42" stroke="black" stroke-width="2" transform="rotate(23,159.0,65.0)" width="42" x="138" y="44" /><line stroke="black" stroke-width="2" transform="rotate(101,29.0,51.0)" x1="14" x2="44" y1="36" y2="66" /><rect fill="none" height="36" stroke="black" stroke-width="2" transform="rotate(12,99.0,138.0)" width="36" x="81" y="120" /><rect fill="none" height="49" stroke="black" stroke-width="2" transform="rotate(54,88.5,45.5)" width="49" x="64" y="21" /></g><text font-family="Arial" font-size="14" text-anchor="middle" x="425" y="630">Option 4</text><g transform="translate(350,650)"><polygon fill="none" points="104,83.68 132.8,83.68 118.4,52" stroke="black" stroke-width="2" transform="rotate(236,118.4,67.84)" /><line stroke="black" stroke-width="2" transform="rotate(382,158.6,122.6)" x1="141" x2="176.2" y1="105" y2="140.2" /><polygon fill="none" points="107,134.96 140.6,134.96 123.8,98" stroke="black" stroke-width="2" transform="rotate(335,123.8,116.48)" /><rect fill="none" height="34.32000000000001" stroke="black" stroke-width="2" transform="rotate(319,59.6,74.16)" width="31.200000000000003" x="44" y="57" /><rect fill="none" height="26.400000000000002" stroke="black" stroke-width="2" transform="rotate(287,101.0,65.2)" width="24.0" x="89" y="52" /><rect fill="none" height="41.36000000000001" stroke="black" stroke-width="2" transform="rotate(384,153.8,158.68)" width="37.6" x="135" y="138" /><rect fill="none" height="36.96000000000001" stroke="black" stroke-width="2" transform="rotate(71,154.8,62.480000000000004)" width="33.6" x="138" y="44" /><line stroke="black" stroke-width="2" transform="rotate(153,26.0,48.0)" x1="14" x2="38.0" y1="36" y2="60.0" /><polygon fill="none" points="81,151.68 109.8,151.68 95.4,120" stroke="black" stroke-width="2" transform="rotate(64,95.4,135.84)" /><line stroke="black" stroke-width="2" transform="rotate(106,83.6,40.6)" x1="64" x2="103.2" y1="21" y2="60.2" /></g></svg>