<?xml version="1.0" encoding="utf-8" ?>
<svg baseProfile="full" height="1000px" version="1.1" width="600px" xmlns="http://www.w3.org/2000/svg" xmlns:ev="http://www.w3.org/2001/xml-events" xmlns:xlink="http://www.w3.org/1999/xlink"><defs /><rect fill="white" height="100%" width="100%" x="0" y="0" /><text font-family="Arial" font-size="24" text-anchor="middle" x="300" y="40">Visual Discrimination Test</text><text font-family="Arial" font-size="18" text-anchor="middle" x="300" y="80">Target Pattern</text><g transform="translate(200,100)"><line stroke="black" stroke-width="2" transform="rotate(187,82.5,106.5)" x1="65" x2="100" y1="89" y2="124" /><circle cx="22" cy="54" fill="none" r="17.0" stroke="black" stroke-width="2" /></g><text font-family="Arial" font-size="18" text-anchor="middle" x="300" y="350">Options</text><text font-family="Arial" font-size="14" text-anchor="middle" x="175" y="380">Option 1</text><g transform="translate(100,400)"><rect fill="none" height="30.800000000000004" stroke="black" stroke-width="2" transform="rotate(237,79.0,104.4)" width="28.0" x="65" y="89" /><line stroke="black" stroke-width="2" transform="rotate(87,35.6,67.6)" x1="22" x2="49.2" y1="54" y2="81.2" /></g><text font-family="Arial" font-size="14" text-anchor="middle" x="425" y="380">Option 2</text><g transform="translate(350,400)"><line stroke="black" stroke-width="2" transform="rotate(187,82.5,106.5)" x1="65" x2="100" y1="89" y2="124" /><circle cx="22" cy="54" fill="none" r="17.0" stroke="black" stroke-width="2" /></g><text font-family="Arial" font-size="14" text-anchor="middle" x="175" y="630">Option 3</text><g transform="translate(100,650)"><rect fill="none" height="30.800000000000004" stroke="black" stroke-width="2" transform="rotate(238,79.0,104.4)" width="28.0" x="65" y="89" /><polygon fill="none" points="22,83.92 49.2,83.92 35.6,54" stroke="black" stroke-width="2" transform="rotate(88,35.6,68.96000000000001)" /></g><text font-family="Arial" font-size="14" text-anchor="middle" x="425" y="630">Option 4</text><g transform="translate(350,650)"><line stroke="black" stroke-width="2" transform="rotate(237,79.0,103.0)" x1="65" x2="93.0" y1="89" y2="117.0" /><polygon fill="none" points="22,83.92 49.2,83.92 35.6,54" stroke="black" stroke-width="2" transform="rotate(85,35.6,68.96000000000001)" /></g></svg>