<?xml version="1.0" encoding="utf-8" ?>
<svg baseProfile="full" height="1000px" version="1.1" width="600px" xmlns="http://www.w3.org/2000/svg" xmlns:ev="http://www.w3.org/2001/xml-events" xmlns:xlink="http://www.w3.org/1999/xlink"><defs /><rect fill="white" height="100%" width="100%" x="0" y="0" /><text font-family="Arial" font-size="24" text-anchor="middle" x="300" y="40">Visual Discrimination Test</text><text font-family="Arial" font-size="18" text-anchor="middle" x="300" y="80">Target Pattern</text><g transform="translate(200,100)"><line stroke="black" stroke-width="2" transform="rotate(280,91.0,53.0)" x1="75" x2="107" y1="37" y2="69" /><polygon fill="none" points="133,76 174,76 153.5,35" stroke="black" stroke-width="2" transform="rotate(165,153.5,55.5)" /><line stroke="black" stroke-width="2" transform="rotate(213,90.5,153.5)" x1="72" x2="109" y1="135" y2="172" /><line stroke="black" stroke-width="2" transform="rotate(176,96.5,140.5)" x1="79" x2="114" y1="123" y2="158" /><line stroke="black" stroke-width="2" transform="rotate(16,83.5,105.5)" x1="61" x2="106" y1="83" y2="128" /><line stroke="black" stroke-width="2" transform="rotate(250,91.5,83.5)" x1="71" x2="112" y1="63" y2="104" /><circle cx="33" cy="79" fill="none" r="22.0" stroke="black" stroke-width="2" /><circle cx="125" cy="63" fill="none" r="15.0" stroke="black" stroke-width="2" /></g><text font-family="Arial" font-size="18" text-anchor="middle" x="300" y="350">Options</text><text font-family="Arial" font-size="14" text-anchor="middle" x="175" y="380">Option 1</text><g transform="translate(100,400)"><line stroke="black" stroke-width="2" transform="rotate(280,91.0,53.0)" x1="75" x2="107" y1="37" y2="69" /><polygon fill="none" points="133,76 174,76 153.5,35" stroke="black" stroke-width="2" transform="rotate(165,153.5,55.5)" /><line stroke="black" stroke-width="2" transform="rotate(213,90.5,153.5)" x1="72" x2="109" y1="135" y2="172" /><line stroke="black" stroke-width="2" transform="rotate(176,96.5,140.5)" x1="79" x2="114" y1="123" y2="158" /><line stroke="black" stroke-width="2" transform="rotate(16,83.5,105.5)" x1="61" x2="106" y1="83" y2="128" /><line stroke="black" stroke-width="2" transform="rotate(250,91.5,83.5)" x1="71" x2="112" y1="63" y2="104" /><circle cx="33" cy="79" fill="none" r="22.0" stroke="black" stroke-width="2" /><circle cx="125" cy="63" fill="none" r="15.0" stroke="black" stroke-width="2" /></g><text font-family="Arial" font-size="14" text-anchor="middle" x="425" y="380">Option 2</text><g transform="translate(350,400)"><line stroke="black" stroke-width="2" transform="rotate(328,87.8,49.8)" x1="75" x2="100.6" y1="37" y2="62.6" /><rect fill="none" height="36.080000000000005" stroke="black" stroke-width="2" transform="rotate(217,149.4,53.040000000000006)" width="32.800000000000004" x="133" y="35" /><rect fill="none" height="32.56" stroke="black" stroke-width="2" transform="rotate(264,86.8,151.28)" width="29.6" x="72" y="135" /><line stroke="black" stroke-width="2" transform="rotate(226,93.0,137.0)" x1="79" x2="107.0" y1="123" y2="151.0" /><polygon fill="none" points="61,122.6 97.0,122.6 79.0,83" stroke="black" stroke-width="2" transform="rotate(68,79.0,102.8)" /><line stroke="black" stroke-width="2" transform="rotate(302,87.4,79.4)" x1="71" x2="103.80000000000001" y1="63" y2="95.80000000000001" /><polygon fill="none" points="33,117.72 68.2,117.72 50.6,79" stroke="black" stroke-width="2" transform="rotate(140,50.6,98.36)" /><line stroke="black" stroke-width="2" transform="rotate(74,137.0,75.0)" x1="125" x2="149.0" y1="63" y2="87.0" /></g><text font-family="Arial" font-size="14" text-anchor="middle" x="175" y="630">Option 3</text><g transform="translate(100,650)"><line stroke="black" stroke-width="2" transform="rotate(331,87.8,49.8)" x1="75" x2="100.6" y1="37" y2="62.6" /><line stroke="black" stroke-width="2" transform="rotate(213,149.4,51.400000000000006)" x1="133" x2="165.8" y1="35" y2="67.80000000000001" /><polygon fill="none" points="72,167.56 101.6,167.56 86.8,135" stroke="black" stroke-width="2" transform="rotate(264,86.8,151.28)" /><rect fill="none" height="30.800000000000004" stroke="black" stroke-width="2" transform="rotate(225,93.0,138.4)" width="28.0" x="79" y="123" /><rect fill="none" height="39.6" stroke="black" stroke-width="2" transform="rotate(67,79.0,102.8)" width="36.0" x="61" y="83" /><rect fill="none" height="36.080000000000005" stroke="black" stroke-width="2" transform="rotate(301,87.4,81.04)" width="32.800000000000004" x="71" y="63" /><rect fill="none" height="38.720000000000006" stroke="black" stroke-width="2" transform="rotate(141,50.6,98.36)" width="35.2" x="33" y="79" /><polygon fill="none" points="125,89.4 149.0,89.4 137.0,63" stroke="black" stroke-width="2" transform="rotate(74,137.0,76.2)" /></g><text font-family="Arial" font-size="14" text-anchor="middle" x="425" y="630">Option 4</text><g transform="translate(350,650)"><rect fill="none" height="28.160000000000004" stroke="black" stroke-width="2" transform="rotate(329,87.8,51.08)" width="25.6" x="75" y="37" /><line stroke="black" stroke-width="2" transform="rotate(213,149.4,51.400000000000006)" x1="133" x2="165.8" y1="35" y2="67.80000000000001" /><polygon fill="none" points="72,167.56 101.6,167.56 86.8,135" stroke="black" stroke-width="2" transform="rotate(261,86.8,151.28)" /><polygon fill="none" points="79,153.8 107.0,153.8 93.0,123" stroke="black" stroke-width="2" transform="rotate(226,93.0,138.4)" /><line stroke="black" stroke-width="2" transform="rotate(64,79.0,101.0)" x1="61" x2="97.0" y1="83" y2="119.0" /><rect fill="none" height="36.080000000000005" stroke="black" stroke-width="2" transform="rotate(300,87.4,81.04)" width="32.800000000000004" x="71" y="63" /><polygon fill="none" points="33,117.72 68.2,117.72 50.6,79" stroke="black" stroke-width="2" transform="rotate(143,50.6,98.36)" /><line stroke="black" stroke-width="2" transform="rotate(72,137.0,75.0)" x1="125" x2="149.0" y1="63" y2="87.0" /></g></svg>