<?xml version="1.0" encoding="utf-8" ?>
<svg baseProfile="full" height="1000px" version="1.1" width="600px" xmlns="http://www.w3.org/2000/svg" xmlns:ev="http://www.w3.org/2001/xml-events" xmlns:xlink="http://www.w3.org/1999/xlink"><defs /><rect fill="white" height="100%" width="100%" x="0" y="0" /><text font-family="Arial" font-size="24" text-anchor="middle" x="300" y="40">Visual Discrimination Test</text><text font-family="Arial" font-size="18" text-anchor="middle" x="300" y="80">Target Pattern</text><g transform="translate(200,100)"><line stroke="black" stroke-width="2" transform="rotate(332,111.5,161.5)" x1="90" x2="133" y1="140" y2="183" /><circle cx="13" cy="63" fill="none" r="20.0" stroke="black" stroke-width="2" /><line stroke="black" stroke-width="2" transform="rotate(109,143.0,78.0)" x1="118" x2="168" y1="53" y2="103" /><circle cx="30" cy="88" fill="none" r="24.5" stroke="black" stroke-width="2" /><rect fill="none" height="30" stroke="black" stroke-width="2" transform="rotate(105,73.0,89.0)" width="30" x="58" y="74" /><circle cx="65" cy="109" fill="none" r="16.0" stroke="black" stroke-width="2" /></g><text font-family="Arial" font-size="18" text-anchor="middle" x="300" y="350">Options</text><text font-family="Arial" font-size="14" text-anchor="middle" x="175" y="380">Option 1</text><g transform="translate(100,400)"><line stroke="black" stroke-width="2" transform="rotate(383,113.65,163.65)" x1="90" x2="137.3" y1="140" y2="187.3" /><circle cx="13" cy="63" fill="none" r="22.0" stroke="black" stroke-width="2" /><line stroke="black" stroke-width="2" transform="rotate(157,145.5,80.5)" x1="118" x2="173.0" y1="53" y2="108.0" /><circle cx="30" cy="88" fill="none" r="26.950000000000003" stroke="black" stroke-width="2" /><rect fill="none" height="36.300000000000004" stroke="black" stroke-width="2" transform="rotate(153,74.5,92.15)" width="33.0" x="58" y="74" /><circle cx="65" cy="109" fill="none" r="17.6" stroke="black" stroke-width="2" /></g><text font-family="Arial" font-size="14" text-anchor="middle" x="425" y="380">Option 2</text><g transform="translate(350,400)"><line stroke="black" stroke-width="2" transform="rotate(380,113.65,163.65)" x1="90" x2="137.3" y1="140" y2="187.3" /><circle cx="13" cy="63" fill="none" r="22.0" stroke="black" stroke-width="2" /><line stroke="black" stroke-width="2" transform="rotate(159,145.5,80.5)" x1="118" x2="173.0" y1="53" y2="108.0" /><circle cx="30" cy="88" fill="none" r="26.950000000000003" stroke="black" stroke-width="2" /><rect fill="none" height="36.300000000000004" stroke="black" stroke-width="2" transform="rotate(157,74.5,92.15)" width="33.0" x="58" y="74" /><circle cx="65" cy="109" fill="none" r="17.6" stroke="black" stroke-width="2" /></g><text font-family="Arial" font-size="14" text-anchor="middle" x="175" y="630">Option 3</text><g transform="translate(100,650)"><line stroke="black" stroke-width="2" transform="rotate(332,111.5,161.5)" x1="90" x2="133" y1="140" y2="183" /><circle cx="13" cy="63" fill="none" r="20.0" stroke="black" stroke-width="2" /><line stroke="black" stroke-width="2" transform="rotate(109,143.0,78.0)" x1="118" x2="168" y1="53" y2="103" /><circle cx="30" cy="88" fill="none" r="24.5" stroke="black" stroke-width="2" /><rect fill="none" height="30" stroke="black" stroke-width="2" transform="rotate(105,73.0,89.0)" width="30" x="58" y="74" /><circle cx="65" cy="109" fill="none" r="16.0" stroke="black" stroke-width="2" /></g><text font-family="Arial" font-size="14" text-anchor="middle" x="425" y="630">Option 4</text><g transform="translate(350,650)"><line stroke="black" stroke-width="2" transform="rotate(384,113.65,163.65)" x1="90" x2="137.3" y1="140" y2="187.3" /><circle cx="13" cy="63" fill="none" r="22.0" stroke="black" stroke-width="2" /><line stroke="black" stroke-width="2" transform="rotate(159,145.5,80.5)" x1="118" x2="173.0" y1="53" y2="108.0" /><circle cx="30" cy="88" fill="none" r="26.950000000000003" stroke="black" stroke-width="2" /><rect fill="none" height="36.300000000000004" stroke="black" stroke-width="2" transform="rotate(156,74.5,92.15)" width="33.0" x="58" y="74" /><circle cx="65" cy="109" fill="none" r="17.6" stroke="black" stroke-width="2" /></g></svg>