<?xml version="1.0" encoding="utf-8" ?>
<svg baseProfile="full" height="1000px" version="1.1" width="600px" xmlns="http://www.w3.org/2000/svg" xmlns:ev="http://www.w3.org/2001/xml-events" xmlns:xlink="http://www.w3.org/1999/xlink"><defs /><rect fill="white" height="100%" width="100%" x="0" y="0" /><text font-family="Arial" font-size="24" text-anchor="middle" x="300" y="40">Visual Discrimination Test</text><text font-family="Arial" font-size="18" text-anchor="middle" x="300" y="80">Target Pattern</text><g transform="translate(200,100)"><polygon fill="none" points="51,134 87,134 69.0,98" stroke="black" stroke-width="2" transform="rotate(75,69.0,116.0)" /><line stroke="black" stroke-width="2" transform="rotate(303,63.0,36.0)" x1="41" x2="85" y1="14" y2="58" /><polygon fill="none" points="125,43 157,43 141.0,11" stroke="black" stroke-width="2" transform="rotate(123,141.0,27.0)" /><circle cx="39" cy="147" fill="none" r="17.5" stroke="black" stroke-width="2" /><line stroke="black" stroke-width="2" transform="rotate(212,129.5,153.5)" x1="107" x2="152" y1="131" y2="176" /><rect fill="none" height="41" stroke="black" stroke-width="2" transform="rotate(88,76.5,109.5)" width="41" x="56" y="89" /><polygon fill="none" points="122,42 154,42 138.0,10" stroke="black" stroke-width="2" transform="rotate(49,138.0,26.0)" /><rect fill="none" height="46" stroke="black" stroke-width="2" transform="rotate(21,98.0,92.0)" width="46" x="75" y="69" /><line stroke="black" stroke-width="2" transform="rotate(33,117.5,52.5)" x1="99" x2="136" y1="34" y2="71" /></g><text font-family="Arial" font-size="18" text-anchor="middle" x="300" y="350">Options</text><text font-family="Arial" font-size="14" text-anchor="middle" x="175" y="380">Option 1</text><g transform="translate(100,400)"><polygon fill="none" points="51,141.56 90.6,141.56 70.8,98" stroke="black" stroke-width="2" transform="rotate(124,70.8,119.78)" /><line stroke="black" stroke-width="2" transform="rotate(355,65.2,38.2)" x1="41" x2="89.4" y1="14" y2="62.400000000000006" /><polygon fill="none" points="125,49.720000000000006 160.2,49.720000000000006 142.6,11" stroke="black" stroke-width="2" transform="rotate(172,142.6,30.360000000000003)" /><circle cx="39" cy="147" fill="none" r="19.25" stroke="black" stroke-width="2" /><line stroke="black" stroke-width="2" transform="rotate(263,131.75,155.75)" x1="107" x2="156.5" y1="131" y2="180.5" /><rect fill="none" height="49.61000000000001" stroke="black" stroke-width="2" transform="rotate(137,78.55,113.805)" width="45.1" x="56" y="89" /><polygon fill="none" points="122,48.720000000000006 157.2,48.720000000000006 139.6,10" stroke="black" stroke-width="2" transform="rotate(100,139.6,29.360000000000003)" /><rect fill="none" height="55.660000000000004" stroke="black" stroke-width="2" transform="rotate(69,100.3,96.83)" width="50.6" x="75" y="69" /><line stroke="black" stroke-width="2" transform="rotate(82,119.35,54.35)" x1="99" x2="139.7" y1="34" y2="74.7" /></g><text font-family="Arial" font-size="14" text-anchor="middle" x="425" y="380">Option 2</text><g transform="translate(350,400)"><polygon fill="none" points="51,141.56 90.6,141.56 70.8,98" stroke="black" stroke-width="2" transform="rotate(124,70.8,119.78)" /><line stroke="black" stroke-width="2" transform="rotate(354,65.2,38.2)" x1="41" x2="89.4" y1="14" y2="62.400000000000006" /><polygon fill="none" points="125,49.720000000000006 160.2,49.720000000000006 142.6,11" stroke="black" stroke-width="2" transform="rotate(175,142.6,30.360000000000003)" /><circle cx="39" cy="147" fill="none" r="19.25" stroke="black" stroke-width="2" /><line stroke="black" stroke-width="2" transform="rotate(260,131.75,155.75)" x1="107" x2="156.5" y1="131" y2="180.5" /><rect fill="none" height="49.61000000000001" stroke="black" stroke-width="2" transform="rotate(136,78.55,113.805)" width="45.1" x="56" y="89" /><polygon fill="none" points="122,48.720000000000006 157.2,48.720000000000006 139.6,10" stroke="black" stroke-width="2" transform="rotate(98,139.6,29.360000000000003)" /><rect fill="none" height="55.660000000000004" stroke="black" stroke-width="2" transform="rotate(69,100.3,96.83)" width="50.6" x="75" y="69" /><line stroke="black" stroke-width="2" transform="rotate(85,119.35,54.35)" x1="99" x2="139.7" y1="34" y2="74.7" /></g><text font-family="Arial" font-size="14" text-anchor="middle" x="175" y="630">Option 3</text><g transform="translate(100,650)"><polygon fill="none" points="51,141.56 90.6,141.56 70.8,98" stroke="black" stroke-width="2" transform="rotate(126,70.8,119.78)" /><line stroke="black" stroke-width="2" transform="rotate(353,65.2,38.2)" x1="41" x2="89.4" y1="14" y2="62.400000000000006" /><polygon fill="none" points="125,49.720000000000006 160.2,49.720000000000006 142.6,11" stroke="black" stroke-width="2" transform="rotate(172,142.6,30.360000000000003)" /><circle cx="39" cy="147" fill="none" r="19.25" stroke="black" stroke-width="2" /><line stroke="black" stroke-width="2" transform="rotate(260,131.75,155.75)" x1="107" x2="156.5" y1="131" y2="180.5" /><rect fill="none" height="49.61000000000001" stroke="black" stroke-width="2" transform="rotate(138,78.55,113.805)" width="45.1" x="56" y="89" /><polygon fill="none" points="122,48.720000000000006 157.2,48.720000000000006 139.6,10" stroke="black" stroke-width="2" transform="rotate(97,139.6,29.360000000000003)" /><rect fill="none" height="55.660000000000004" stroke="black" stroke-width="2" transform="rotate(70,100.3,96.83)" width="50.6" x="75" y="69" /><line stroke="black" stroke-width="2" transform="rotate(82,119.35,54.35)" x1="99" x2="139.7" y1="34" y2="74.7" /></g><text font-family="Arial" font-size="14" text-anchor="middle" x="425" y="630">Option 4</text><g transform="translate(350,650)"><polygon fill="none" points="51,134 87,134 69.0,98" stroke="black" stroke-width="2" transform="rotate(75,69.0,116.0)" /><line stroke="black" stroke-width="2" transform="rotate(303,63.0,36.0)" x1="41" x2="85" y1="14" y2="58" /><polygon fill="none" points="125,43 157,43 141.0,11" stroke="black" stroke-width="2" transform="rotate(123,141.0,27.0)" /><circle cx="39" cy="147" fill="none" r="17.5" stroke="black" stroke-width="2" /><line stroke="black" stroke-width="2" transform="rotate(212,129.5,153.5)" x1="107" x2="152" y1="131" y2="176" /><rect fill="none" height="41" stroke="black" stroke-width="2" transform="rotate(88,76.5,109.5)" width="41" x="56" y="89" /><polygon fill="none" points="122,42 154,42 138.0,10" stroke="black" stroke-width="2" transform="rotate(49,138.0,26.0)" /><rect fill="none" height="46" stroke="black" stroke-width="2" transform="rotate(21,98.0,92.0)" width="46" x="75" y="69" /><line stroke="black" stroke-width="2" transform="rotate(33,117.5,52.5)" x1="99" x2="136" y1="34" y2="71" /></g></svg>