<?xml version="1.0" encoding="utf-8" ?>
<svg baseProfile="full" height="1000px" version="1.1" width="600px" xmlns="http://www.w3.org/2000/svg" xmlns:ev="http://www.w3.org/2001/xml-events" xmlns:xlink="http://www.w3.org/1999/xlink"><defs /><rect fill="white" height="100%" width="100%" x="0" y="0" /><text font-family="Arial" font-size="24" text-anchor="middle" x="300" y="40">Visual Discrimination Test</text><text font-family="Arial" font-size="18" text-anchor="middle" x="300" y="80">Target Pattern</text><g transform="translate(200,100)"><rect fill="none" height="42" stroke="black" stroke-width="2" transform="rotate(323,163.0,75.0)" width="42" x="142" y="54" /><rect fill="none" height="39" stroke="black" stroke-width="2" transform="rotate(73,48.5,82.5)" width="39" x="29" y="63" /><circle cx="31" cy="78" fill="none" r="24.0" stroke="black" stroke-width="2" /><line stroke="black" stroke-width="2" transform="rotate(126,101.0,31.0)" x1="80" x2="122" y1="10" y2="52" /><line stroke="black" stroke-width="2" transform="rotate(335,66.0,126.0)" x1="47" x2="85" y1="107" y2="145" /><circle cx="136" cy="20" fill="none" r="23.0" stroke="black" stroke-width="2" /><line stroke="black" stroke-width="2" transform="rotate(202,54.0,130.0)" x1="34" x2="74" y1="110" y2="150" /><line stroke="black" stroke-width="2" transform="rotate(153,112.5,113.5)" x1="96" x2="129" y1="97" y2="130" /></g><text font-family="Arial" font-size="18" text-anchor="middle" x="300" y="350">Options</text><text font-family="Arial" font-size="14" text-anchor="middle" x="175" y="380">Option 1</text><g transform="translate(100,400)"><rect fill="none" height="50.82000000000001" stroke="black" stroke-width="2" transform="rotate(374,165.1,79.41)" width="46.2" x="142" y="54" /><rect fill="none" height="47.19000000000001" stroke="black" stroke-width="2" transform="rotate(125,50.45,86.595)" width="42.900000000000006" x="29" y="63" /><circle cx="31" cy="78" fill="none" r="26.400000000000002" stroke="black" stroke-width="2" /><line stroke="black" stroke-width="2" transform="rotate(177,103.1,33.1)" x1="80" x2="126.2" y1="10" y2="56.2" /><line stroke="black" stroke-width="2" transform="rotate(387,67.9,127.9)" x1="47" x2="88.80000000000001" y1="107" y2="148.8" /><circle cx="136" cy="20" fill="none" r="25.3" stroke="black" stroke-width="2" /><line stroke="black" stroke-width="2" transform="rotate(253,56.0,132.0)" x1="34" x2="78.0" y1="110" y2="154.0" /><line stroke="black" stroke-width="2" transform="rotate(201,114.15,115.15)" x1="96" x2="132.3" y1="97" y2="133.3" /></g><text font-family="Arial" font-size="14" text-anchor="middle" x="425" y="380">Option 2</text><g transform="translate(350,400)"><rect fill="none" height="50.82000000000001" stroke="black" stroke-width="2" transform="rotate(371,165.1,79.41)" width="46.2" x="142" y="54" /><rect fill="none" height="47.19000000000001" stroke="black" stroke-width="2" transform="rotate(124,50.45,86.595)" width="42.900000000000006" x="29" y="63" /><circle cx="31" cy="78" fill="none" r="26.400000000000002" stroke="black" stroke-width="2" /><line stroke="black" stroke-width="2" transform="rotate(177,103.1,33.1)" x1="80" x2="126.2" y1="10" y2="56.2" /><line stroke="black" stroke-width="2" transform="rotate(383,67.9,127.9)" x1="47" x2="88.80000000000001" y1="107" y2="148.8" /><circle cx="136" cy="20" fill="none" r="25.3" stroke="black" stroke-width="2" /><line stroke="black" stroke-width="2" transform="rotate(253,56.0,132.0)" x1="34" x2="78.0" y1="110" y2="154.0" /><line stroke="black" stroke-width="2" transform="rotate(205,114.15,115.15)" x1="96" x2="132.3" y1="97" y2="133.3" /></g><text font-family="Arial" font-size="14" text-anchor="middle" x="175" y="630">Option 3</text><g transform="translate(100,650)"><rect fill="none" height="42" stroke="black" stroke-width="2" transform="rotate(323,163.0,75.0)" width="42" x="142" y="54" /><rect fill="none" height="39" stroke="black" stroke-width="2" transform="rotate(73,48.5,82.5)" width="39" x="29" y="63" /><circle cx="31" cy="78" fill="none" r="24.0" stroke="black" stroke-width="2" /><line stroke="black" stroke-width="2" transform="rotate(126,101.0,31.0)" x1="80" x2="122" y1="10" y2="52" /><line stroke="black" stroke-width="2" transform="rotate(335,66.0,126.0)" x1="47" x2="85" y1="107" y2="145" /><circle cx="136" cy="20" fill="none" r="23.0" stroke="black" stroke-width="2" /><line stroke="black" stroke-width="2" transform="rotate(202,54.0,130.0)" x1="34" x2="74" y1="110" y2="150" /><line stroke="black" stroke-width="2" transform="rotate(153,112.5,113.5)" x1="96" x2="129" y1="97" y2="130" /></g><text font-family="Arial" font-size="14" text-anchor="middle" x="425" y="630">Option 4</text><g transform="translate(350,650)"><rect fill="none" height="50.82000000000001" stroke="black" stroke-width="2" transform="rotate(372,165.1,79.41)" width="46.2" x="142" y="54" /><rect fill="none" height="47.19000000000001" stroke="black" stroke-width="2" transform="rotate(124,50.45,86.595)" width="42.900000000000006" x="29" y="63" /><circle cx="31" cy="78" fill="none" r="26.400000000000002" stroke="black" stroke-width="2" /><line stroke="black" stroke-width="2" transform="rotate(177,103.1,33.1)" x1="80" x2="126.2" y1="10" y2="56.2" /><line stroke="black" stroke-width="2" transform="rotate(387,67.9,127.9)" x1="47" x2="88.80000000000001" y1="107" y2="148.8" /><circle cx="136" cy="20" fill="none" r="25.3" stroke="black" stroke-width="2" /><line stroke="black" stroke-width="2" transform="rotate(253,56.0,132.0)" x1="34" x2="78.0" y1="110" y2="154.0" /><line stroke="black" stroke-width="2" transform="rotate(204,114.15,115.15)" x1="96" x2="132.3" y1="97" y2="133.3" /></g></svg>