<?xml version="1.0" encoding="utf-8" ?>
<svg baseProfile="full" height="1000px" version="1.1" width="600px" xmlns="http://www.w3.org/2000/svg" xmlns:ev="http://www.w3.org/2001/xml-events" xmlns:xlink="http://www.w3.org/1999/xlink"><defs /><rect fill="white" height="100%" width="100%" x="0" y="0" /><text font-family="Arial" font-size="24" text-anchor="middle" x="300" y="40">Visual Discrimination Test</text><text font-family="Arial" font-size="18" text-anchor="middle" x="300" y="80">Target Pattern</text><g transform="translate(200,100)"><polygon fill="none" points="101,88 144,88 122.5,45" stroke="black" stroke-width="2" transform="rotate(316,122.5,66.5)" /><rect fill="none" height="44" stroke="black" stroke-width="2" transform="rotate(264,52.0,109.0)" width="44" x="30" y="87" /><circle cx="81" cy="11" fill="none" r="17.5" stroke="black" stroke-width="2" /><circle cx="76" cy="146" fill="none" r="23.5" stroke="black" stroke-width="2" /><polygon fill="none" points="125,95 157,95 141.0,63" stroke="black" stroke-width="2" transform="rotate(116,141.0,79.0)" /><circle cx="44" cy="86" fill="none" r="19.5" stroke="black" stroke-width="2" /></g><text font-family="Arial" font-size="18" text-anchor="middle" x="300" y="350">Options</text><text font-family="Arial" font-size="14" text-anchor="middle" x="175" y="380">Option 1</text><g transform="translate(100,400)"><polygon fill="none" points="101,97.03 148.3,97.03 124.65,45" stroke="black" stroke-width="2" transform="rotate(367,124.65,71.015)" /><rect fill="none" height="53.24000000000001" stroke="black" stroke-width="2" transform="rotate(313,54.2,113.62)" width="48.400000000000006" x="30" y="87" /><circle cx="81" cy="11" fill="none" r="19.25" stroke="black" stroke-width="2" /><circle cx="76" cy="146" fill="none" r="25.85" stroke="black" stroke-width="2" /><polygon fill="none" points="125,101.72 160.2,101.72 142.6,63" stroke="black" stroke-width="2" transform="rotate(165,142.6,82.36)" /><circle cx="44" cy="86" fill="none" r="21.450000000000003" stroke="black" stroke-width="2" /></g><text font-family="Arial" font-size="14" text-anchor="middle" x="425" y="380">Option 2</text><g transform="translate(350,400)"><polygon fill="none" points="101,88 144,88 122.5,45" stroke="black" stroke-width="2" transform="rotate(316,122.5,66.5)" /><rect fill="none" height="44" stroke="black" stroke-width="2" transform="rotate(264,52.0,109.0)" width="44" x="30" y="87" /><circle cx="81" cy="11" fill="none" r="17.5" stroke="black" stroke-width="2" /><circle cx="76" cy="146" fill="none" r="23.5" stroke="black" stroke-width="2" /><polygon fill="none" points="125,95 157,95 141.0,63" stroke="black" stroke-width="2" transform="rotate(116,141.0,79.0)" /><circle cx="44" cy="86" fill="none" r="19.5" stroke="black" stroke-width="2" /></g><text font-family="Arial" font-size="14" text-anchor="middle" x="175" y="630">Option 3</text><g transform="translate(100,650)"><polygon fill="none" points="101,97.03 148.3,97.03 124.65,45" stroke="black" stroke-width="2" transform="rotate(367,124.65,71.015)" /><rect fill="none" height="53.24000000000001" stroke="black" stroke-width="2" transform="rotate(312,54.2,113.62)" width="48.400000000000006" x="30" y="87" /><circle cx="81" cy="11" fill="none" r="19.25" stroke="black" stroke-width="2" /><circle cx="76" cy="146" fill="none" r="25.85" stroke="black" stroke-width="2" /><polygon fill="none" points="125,101.72 160.2,101.72 142.6,63" stroke="black" stroke-width="2" transform="rotate(165,142.6,82.36)" /><circle cx="44" cy="86" fill="none" r="21.450000000000003" stroke="black" stroke-width="2" /></g><text font-family="Arial" font-size="14" text-anchor="middle" x="425" y="630">Option 4</text><g transform="translate(350,650)"><polygon fill="none" points="101,97.03 148.3,97.03 124.65,45" stroke="black" stroke-width="2" transform="rotate(364,124.65,71.015)" /><rect fill="none" height="53.24000000000001" stroke="black" stroke-width="2" transform="rotate(313,54.2,113.62)" width="48.400000000000006" x="30" y="87" /><circle cx="81" cy="11" fill="none" r="19.25" stroke="black" stroke-width="2" /><circle cx="76" cy="146" fill="none" r="25.85" stroke="black" stroke-width="2" /><polygon fill="none" points="125,101.72 160.2,101.72 142.6,63" stroke="black" stroke-width="2" transform="rotate(167,142.6,82.36)" /><circle cx="44" cy="86" fill="none" r="21.450000000000003" stroke="black" stroke-width="2" /></g></svg>