<?xml version="1.0" encoding="utf-8" ?>
<svg baseProfile="full" height="1000px" version="1.1" width="600px" xmlns="http://www.w3.org/2000/svg" xmlns:ev="http://www.w3.org/2001/xml-events" xmlns:xlink="http://www.w3.org/1999/xlink"><defs /><rect fill="white" height="100%" width="100%" x="0" y="0" /><text font-family="Arial" font-size="24" text-anchor="middle" x="300" y="40">Visual Discrimination Test</text><text font-family="Arial" font-size="18" text-anchor="middle" x="300" y="80">Target Pattern</text><g transform="translate(200,100)"><rect fill="none" height="43" stroke="black" stroke-width="2" transform="rotate(168,97.5,108.5)" width="43" x="76" y="87" /><polygon fill="none" points="56,144 89,144 72.5,111" stroke="black" stroke-width="2" transform="rotate(290,72.5,127.5)" /></g><text font-family="Arial" font-size="18" text-anchor="middle" x="300" y="350">Options</text><text font-family="Arial" font-size="14" text-anchor="middle" x="175" y="380">Option 1</text><g transform="translate(100,400)"><rect fill="none" height="52.03000000000001" stroke="black" stroke-width="2" transform="rotate(219,99.65,113.015)" width="47.300000000000004" x="76" y="87" /><polygon fill="none" points="56,150.93 92.30000000000001,150.93 74.15,111" stroke="black" stroke-width="2" transform="rotate(341,74.15,130.965)" /></g><text font-family="Arial" font-size="14" text-anchor="middle" x="425" y="380">Option 2</text><g transform="translate(350,400)"><rect fill="none" height="52.03000000000001" stroke="black" stroke-width="2" transform="rotate(220,99.65,113.015)" width="47.300000000000004" x="76" y="87" /><polygon fill="none" points="56,150.93 92.30000000000001,150.93 74.15,111" stroke="black" stroke-width="2" transform="rotate(339,74.15,130.965)" /></g><text font-family="Arial" font-size="14" text-anchor="middle" x="175" y="630">Option 3</text><g transform="translate(100,650)"><rect fill="none" height="52.03000000000001" stroke="black" stroke-width="2" transform="rotate(217,99.65,113.015)" width="47.300000000000004" x="76" y="87" /><polygon fill="none" points="56,150.93 92.30000000000001,150.93 74.15,111" stroke="black" stroke-width="2" transform="rotate(338,74.15,130.965)" /></g><text font-family="Arial" font-size="14" text-anchor="middle" x="425" y="630">Option 4</text><g transform="translate(350,650)"><rect fill="none" height="43" stroke="black" stroke-width="2" transform="rotate(168,97.5,108.5)" width="43" x="76" y="87" /><polygon fill="none" points="56,144 89,144 72.5,111" stroke="black" stroke-width="2" transform="rotate(290,72.5,127.5)" /></g></svg>