<?xml version="1.0" encoding="utf-8" ?>
<svg baseProfile="full" height="1000px" version="1.1" width="600px" xmlns="http://www.w3.org/2000/svg" xmlns:ev="http://www.w3.org/2001/xml-events" xmlns:xlink="http://www.w3.org/1999/xlink"><defs /><rect fill="white" height="100%" width="100%" x="0" y="0" /><text font-family="Arial" font-size="24" text-anchor="middle" x="300" y="40">Visual Discrimination Test</text><text font-family="Arial" font-size="18" text-anchor="middle" x="300" y="80">Target Pattern</text><g transform="translate(200,100)"><polygon fill="none" points="109,108 142,108 125.5,75" stroke="black" stroke-width="2" transform="rotate(222,125.5,91.5)" /><rect fill="none" height="31" stroke="black" stroke-width="2" transform="rotate(276,76.5,80.5)" width="31" x="61" y="65" /><circle cx="101" cy="113" fill="none" r="17.0" stroke="black" stroke-width="2" /><line stroke="black" stroke-width="2" transform="rotate(80,81.0,77.0)" x1="62" x2="100" y1="58" y2="96" /><polygon fill="none" points="138,134 181,134 159.5,91" stroke="black" stroke-width="2" transform="rotate(268,159.5,112.5)" /><circle cx="71" cy="90" fill="none" r="20.5" stroke="black" stroke-width="2" /><line stroke="black" stroke-width="2" transform="rotate(310,30.0,104.0)" x1="14" x2="46" y1="88" y2="120" /><circle cx="131" cy="90" fill="none" r="19.5" stroke="black" stroke-width="2" /><circle cx="135" cy="39" fill="none" r="16.5" stroke="black" stroke-width="2" /></g><text font-family="Arial" font-size="18" text-anchor="middle" x="300" y="350">Options</text><text font-family="Arial" font-size="14" text-anchor="middle" x="175" y="380">Option 1</text><g transform="translate(100,400)"><polygon fill="none" points="109,114.93 145.3,114.93 127.15,75" stroke="black" stroke-width="2" transform="rotate(271,127.15,94.965)" /><line stroke="black" stroke-width="2" transform="rotate(325,78.05,82.05)" x1="61" x2="95.1" y1="65" y2="99.1" /><line stroke="black" stroke-width="2" transform="rotate(272,119.7,131.7)" x1="101" x2="138.4" y1="113" y2="150.4" /><line stroke="black" stroke-width="2" transform="rotate(131,82.9,78.9)" x1="62" x2="103.80000000000001" y1="58" y2="99.80000000000001" /><polygon fill="none" points="138,143.03 185.3,143.03 161.65,91" stroke="black" stroke-width="2" transform="rotate(319,161.65,117.015)" /><rect fill="none" height="49.61000000000001" stroke="black" stroke-width="2" transform="rotate(271,93.55,114.805)" width="45.1" x="71" y="90" /><polygon fill="none" points="14,126.72 49.2,126.72 31.6,88" stroke="black" stroke-width="2" transform="rotate(361,31.6,107.36)" /><line stroke="black" stroke-width="2" transform="rotate(184,152.45,111.45)" x1="131" x2="173.9" y1="90" y2="132.9" /><line stroke="black" stroke-width="2" transform="rotate(290,153.15,57.150000000000006)" x1="135" x2="171.3" y1="39" y2="75.30000000000001" /></g><text font-family="Arial" font-size="14" text-anchor="middle" x="425" y="380">Option 2</text><g transform="translate(350,400)"><rect fill="none" height="39.93000000000001" stroke="black" stroke-width="2" transform="rotate(272,127.15,94.965)" width="36.300000000000004" x="109" y="75" /><line stroke="black" stroke-width="2" transform="rotate(325,78.05,82.05)" x1="61" x2="95.1" y1="65" y2="99.1" /><line stroke="black" stroke-width="2" transform="rotate(271,119.7,131.7)" x1="101" x2="138.4" y1="113" y2="150.4" /><polygon fill="none" points="62,103.98000000000002 103.80000000000001,103.98000000000002 82.9,58" stroke="black" stroke-width="2" transform="rotate(128,82.9,80.99000000000001)" /><rect fill="none" height="52.03000000000001" stroke="black" stroke-width="2" transform="rotate(319,161.65,117.015)" width="47.300000000000004" x="138" y="91" /><line stroke="black" stroke-width="2" transform="rotate(271,93.55,112.55)" x1="71" x2="116.1" y1="90" y2="135.1" /><line stroke="black" stroke-width="2" transform="rotate(360,31.6,105.6)" x1="14" x2="49.2" y1="88" y2="123.2" /><line stroke="black" stroke-width="2" transform="rotate(182,152.45,111.45)" x1="131" x2="173.9" y1="90" y2="132.9" /><rect fill="none" height="39.93000000000001" stroke="black" stroke-width="2" transform="rotate(293,153.15,58.965)" width="36.300000000000004" x="135" y="39" /></g><text font-family="Arial" font-size="14" text-anchor="middle" x="175" y="630">Option 3</text><g transform="translate(100,650)"><polygon fill="none" points="109,108 142,108 125.5,75" stroke="black" stroke-width="2" transform="rotate(222,125.5,91.5)" /><rect fill="none" height="31" stroke="black" stroke-width="2" transform="rotate(276,76.5,80.5)" width="31" x="61" y="65" /><circle cx="101" cy="113" fill="none" r="17.0" stroke="black" stroke-width="2" /><line stroke="black" stroke-width="2" transform="rotate(80,81.0,77.0)" x1="62" x2="100" y1="58" y2="96" /><polygon fill="none" points="138,134 181,134 159.5,91" stroke="black" stroke-width="2" transform="rotate(268,159.5,112.5)" /><circle cx="71" cy="90" fill="none" r="20.5" stroke="black" stroke-width="2" /><line stroke="black" stroke-width="2" transform="rotate(310,30.0,104.0)" x1="14" x2="46" y1="88" y2="120" /><circle cx="131" cy="90" fill="none" r="19.5" stroke="black" stroke-width="2" /><circle cx="135" cy="39" fill="none" r="16.5" stroke="black" stroke-width="2" /></g><text font-family="Arial" font-size="14" text-anchor="middle" x="425" y="630">Option 4</text><g transform="translate(350,650)"><polygon fill="none" points="109,114.93 145.3,114.93 127.15,75" stroke="black" stroke-width="2" transform="rotate(273,127.15,94.965)" /><rect fill="none" height="37.510000000000005" stroke="black" stroke-width="2" transform="rotate(325,78.05,83.755)" width="34.1" x="61" y="65" /><line stroke="black" stroke-width="2" transform="rotate(273,119.7,131.7)" x1="101" x2="138.4" y1="113" y2="150.4" /><rect fill="none" height="45.98000000000001" stroke="black" stroke-width="2" transform="rotate(129,82.9,80.99000000000001)" width="41.800000000000004" x="62" y="58" /><polygon fill="none" points="138,143.03 185.3,143.03 161.65,91" stroke="black" stroke-width="2" transform="rotate(316,161.65,117.015)" /><rect fill="none" height="49.61000000000001" stroke="black" stroke-width="2" transform="rotate(273,93.55,114.805)" width="45.1" x="71" y="90" /><polygon fill="none" points="14,126.72 49.2,126.72 31.6,88" stroke="black" stroke-width="2" transform="rotate(361,31.6,107.36)" /><polygon fill="none" points="131,137.19 173.9,137.19 152.45,90" stroke="black" stroke-width="2" transform="rotate(185,152.45,113.595)" /><line stroke="black" stroke-width="2" transform="rotate(292,153.15,57.150000000000006)" x1="135" x2="171.3" y1="39" y2="75.30000000000001" /></g></svg>