<?xml version="1.0" encoding="utf-8" ?>
<svg baseProfile="full" height="1000px" version="1.1" width="600px" xmlns="http://www.w3.org/2000/svg" xmlns:ev="http://www.w3.org/2001/xml-events" xmlns:xlink="http://www.w3.org/1999/xlink"><defs /><rect fill="white" height="100%" width="100%" x="0" y="0" /><text font-family="Arial" font-size="24" text-anchor="middle" x="300" y="40">Visual Discrimination Test</text><text font-family="Arial" font-size="18" text-anchor="middle" x="300" y="80">Target Pattern</text><g transform="translate(200,100)"><polygon fill="none" points="137,102 184,102 160.5,55" stroke="black" stroke-width="2" transform="rotate(226,160.5,78.5)" /><rect fill="none" height="43" stroke="black" stroke-width="2" transform="rotate(79,156.5,163.5)" width="43" x="135" y="142" /><rect fill="none" height="48" stroke="black" stroke-width="2" transform="rotate(261,155.0,156.0)" width="48" x="131" y="132" /><rect fill="none" height="46" stroke="black" stroke-width="2" transform="rotate(186,113.0,122.0)" width="46" x="90" y="99" /></g><text font-family="Arial" font-size="18" text-anchor="middle" x="300" y="350">Options</text><text font-family="Arial" font-size="14" text-anchor="middle" x="175" y="380">Option 1</text><g transform="translate(100,400)"><polygon fill="none" points="137,111.87 188.7,111.87 162.85,55" stroke="black" stroke-width="2" transform="rotate(274,162.85,83.435)" /><line stroke="black" stroke-width="2" transform="rotate(129,158.65,165.65)" x1="135" x2="182.3" y1="142" y2="189.3" /><polygon fill="none" points="131,190.08 183.8,190.08 157.4,132" stroke="black" stroke-width="2" transform="rotate(313,157.4,161.04000000000002)" /><line stroke="black" stroke-width="2" transform="rotate(234,115.3,124.3)" x1="90" x2="140.6" y1="99" y2="149.6" /></g><text font-family="Arial" font-size="14" text-anchor="middle" x="425" y="380">Option 2</text><g transform="translate(350,400)"><line stroke="black" stroke-width="2" transform="rotate(278,162.85,80.85)" x1="137" x2="188.7" y1="55" y2="106.7" /><rect fill="none" height="52.03000000000001" stroke="black" stroke-width="2" transform="rotate(131,158.65,168.01500000000001)" width="47.300000000000004" x="135" y="142" /><polygon fill="none" points="131,190.08 183.8,190.08 157.4,132" stroke="black" stroke-width="2" transform="rotate(310,157.4,161.04000000000002)" /><polygon fill="none" points="90,154.66 140.6,154.66 115.3,99" stroke="black" stroke-width="2" transform="rotate(236,115.3,126.83)" /></g><text font-family="Arial" font-size="14" text-anchor="middle" x="175" y="630">Option 3</text><g transform="translate(100,650)"><polygon fill="none" points="137,102 184,102 160.5,55" stroke="black" stroke-width="2" transform="rotate(226,160.5,78.5)" /><rect fill="none" height="43" stroke="black" stroke-width="2" transform="rotate(79,156.5,163.5)" width="43" x="135" y="142" /><rect fill="none" height="48" stroke="black" stroke-width="2" transform="rotate(261,155.0,156.0)" width="48" x="131" y="132" /><rect fill="none" height="46" stroke="black" stroke-width="2" transform="rotate(186,113.0,122.0)" width="46" x="90" y="99" /></g><text font-family="Arial" font-size="14" text-anchor="middle" x="425" y="630">Option 4</text><g transform="translate(350,650)"><polygon fill="none" points="137,111.87 188.7,111.87 162.85,55" stroke="black" stroke-width="2" transform="rotate(275,162.85,83.435)" /><polygon fill="none" points="135,194.03 182.3,194.03 158.65,142" stroke="black" stroke-width="2" transform="rotate(130,158.65,168.01500000000001)" /><line stroke="black" stroke-width="2" transform="rotate(313,157.4,158.4)" x1="131" x2="183.8" y1="132" y2="184.8" /><line stroke="black" stroke-width="2" transform="rotate(238,115.3,124.3)" x1="90" x2="140.6" y1="99" y2="149.6" /></g></svg>