<?xml version="1.0" encoding="utf-8" ?>
<svg baseProfile="full" height="1000px" version="1.1" width="600px" xmlns="http://www.w3.org/2000/svg" xmlns:ev="http://www.w3.org/2001/xml-events" xmlns:xlink="http://www.w3.org/1999/xlink"><defs /><rect fill="white" height="100%" width="100%" x="0" y="0" /><text font-family="Arial" font-size="24" text-anchor="middle" x="300" y="40">Visual Discrimination Test</text><text font-family="Arial" font-size="18" text-anchor="middle" x="300" y="80">Target Pattern</text><g transform="translate(200,100)"><rect fill="none" height="46" stroke="black" stroke-width="2" transform="rotate(125,150.0,157.0)" width="46" x="127" y="134" /><rect fill="none" height="32" stroke="black" stroke-width="2" transform="rotate(126,71.0,129.0)" width="32" x="55" y="113" /><rect fill="none" height="41" stroke="black" stroke-width="2" transform="rotate(306,39.5,100.5)" width="41" x="19" y="80" /><circle cx="122" cy="98" fill="none" r="15.5" stroke="black" stroke-width="2" /><line stroke="black" stroke-width="2" transform="rotate(238,168.5,127.5)" x1="147" x2="190" y1="106" y2="149" /><line stroke="black" stroke-width="2" transform="rotate(219,39.0,144.0)" x1="22" x2="56" y1="127" y2="161" /><line stroke="black" stroke-width="2" transform="rotate(112,103.5,131.5)" x1="85" x2="122" y1="113" y2="150" /><rect fill="none" height="32" stroke="black" stroke-width="2" transform="rotate(15,47.0,57.0)" width="32" x="31" y="41" /><line stroke="black" stroke-width="2" transform="rotate(326,35.5,168.5)" x1="12" x2="59" y1="145" y2="192" /><line stroke="black" stroke-width="2" transform="rotate(235,120.5,110.5)" x1="100" x2="141" y1="90" y2="131" /></g><text font-family="Arial" font-size="18" text-anchor="middle" x="300" y="350">Options</text><text font-family="Arial" font-size="14" text-anchor="middle" x="175" y="380">Option 1</text><g transform="translate(100,400)"><polygon fill="none" points="127,189.66 177.6,189.66 152.3,134" stroke="black" stroke-width="2" transform="rotate(176,152.3,161.83)" /><rect fill="none" height="38.720000000000006" stroke="black" stroke-width="2" transform="rotate(177,72.6,132.36)" width="35.2" x="55" y="113" /><polygon fill="none" points="19,129.61 64.1,129.61 41.55,80" stroke="black" stroke-width="2" transform="rotate(356,41.55,104.805)" /><line stroke="black" stroke-width="2" transform="rotate(330,139.05,115.05)" x1="122" x2="156.1" y1="98" y2="132.1" /><rect fill="none" height="52.03000000000001" stroke="black" stroke-width="2" transform="rotate(287,170.65,132.01500000000001)" width="47.300000000000004" x="147" y="106" /><rect fill="none" height="41.14000000000001" stroke="black" stroke-width="2" transform="rotate(268,40.7,147.57)" width="37.400000000000006" x="22" y="127" /><rect fill="none" height="44.77000000000001" stroke="black" stroke-width="2" transform="rotate(160,105.35,135.385)" width="40.7" x="85" y="113" /><line stroke="black" stroke-width="2" transform="rotate(67,48.6,58.6)" x1="31" x2="66.2" y1="41" y2="76.2" /><line stroke="black" stroke-width="2" transform="rotate(377,37.85,170.85)" x1="12" x2="63.7" y1="145" y2="196.7" /><line stroke="black" stroke-width="2" transform="rotate(284,122.55,112.55)" x1="100" x2="145.1" y1="90" y2="135.1" /></g><text font-family="Arial" font-size="14" text-anchor="middle" x="425" y="380">Option 2</text><g transform="translate(350,400)"><polygon fill="none" points="127,189.66 177.6,189.66 152.3,134" stroke="black" stroke-width="2" transform="rotate(173,152.3,161.83)" /><line stroke="black" stroke-width="2" transform="rotate(177,72.6,130.6)" x1="55" x2="90.2" y1="113" y2="148.2" /><polygon fill="none" points="19,129.61 64.1,129.61 41.55,80" stroke="black" stroke-width="2" transform="rotate(356,41.55,104.805)" /><rect fill="none" height="37.510000000000005" stroke="black" stroke-width="2" transform="rotate(331,139.05,116.755)" width="34.1" x="122" y="98" /><polygon fill="none" points="147,158.03 194.3,158.03 170.65,106" stroke="black" stroke-width="2" transform="rotate(286,170.65,132.01500000000001)" /><line stroke="black" stroke-width="2" transform="rotate(271,40.7,145.7)" x1="22" x2="59.400000000000006" y1="127" y2="164.4" /><polygon fill="none" points="85,157.77 125.7,157.77 105.35,113" stroke="black" stroke-width="2" transform="rotate(160,105.35,135.385)" /><polygon fill="none" points="31,79.72 66.2,79.72 48.6,41" stroke="black" stroke-width="2" transform="rotate(65,48.6,60.36)" /><rect fill="none" height="56.870000000000005" stroke="black" stroke-width="2" transform="rotate(376,37.85,173.435)" width="51.7" x="12" y="145" /><rect fill="none" height="49.61000000000001" stroke="black" stroke-width="2" transform="rotate(285,122.55,114.805)" width="45.1" x="100" y="90" /></g><text font-family="Arial" font-size="14" text-anchor="middle" x="175" y="630">Option 3</text><g transform="translate(100,650)"><rect fill="none" height="55.660000000000004" stroke="black" stroke-width="2" transform="rotate(176,152.3,161.83)" width="50.6" x="127" y="134" /><polygon fill="none" points="55,151.72 90.2,151.72 72.6,113" stroke="black" stroke-width="2" transform="rotate(176,72.6,132.36)" /><rect fill="none" height="49.61000000000001" stroke="black" stroke-width="2" transform="rotate(355,41.55,104.805)" width="45.1" x="19" y="80" /><line stroke="black" stroke-width="2" transform="rotate(329,139.05,115.05)" x1="122" x2="156.1" y1="98" y2="132.1" /><rect fill="none" height="52.03000000000001" stroke="black" stroke-width="2" transform="rotate(287,170.65,132.01500000000001)" width="47.300000000000004" x="147" y="106" /><polygon fill="none" points="22,168.14000000000001 59.400000000000006,168.14000000000001 40.7,127" stroke="black" stroke-width="2" transform="rotate(268,40.7,147.57)" /><rect fill="none" height="44.77000000000001" stroke="black" stroke-width="2" transform="rotate(160,105.35,135.385)" width="40.7" x="85" y="113" /><rect fill="none" height="38.720000000000006" stroke="black" stroke-width="2" transform="rotate(65,48.6,60.36)" width="35.2" x="31" y="41" /><rect fill="none" height="56.870000000000005" stroke="black" stroke-width="2" transform="rotate(378,37.85,173.435)" width="51.7" x="12" y="145" /><polygon fill="none" points="100,139.61 145.1,139.61 122.55,90" stroke="black" stroke-width="2" transform="rotate(284,122.55,114.805)" /></g><text font-family="Arial" font-size="14" text-anchor="middle" x="425" y="630">Option 4</text><g transform="translate(350,650)"><rect fill="none" height="46" stroke="black" stroke-width="2" transform="rotate(125,150.0,157.0)" width="46" x="127" y="134" /><rect fill="none" height="32" stroke="black" stroke-width="2" transform="rotate(126,71.0,129.0)" width="32" x="55" y="113" /><rect fill="none" height="41" stroke="black" stroke-width="2" transform="rotate(306,39.5,100.5)" width="41" x="19" y="80" /><circle cx="122" cy="98" fill="none" r="15.5" stroke="black" stroke-width="2" /><line stroke="black" stroke-width="2" transform="rotate(238,168.5,127.5)" x1="147" x2="190" y1="106" y2="149" /><line stroke="black" stroke-width="2" transform="rotate(219,39.0,144.0)" x1="22" x2="56" y1="127" y2="161" /><line stroke="black" stroke-width="2" transform="rotate(112,103.5,131.5)" x1="85" x2="122" y1="113" y2="150" /><rect fill="none" height="32" stroke="black" stroke-width="2" transform="rotate(15,47.0,57.0)" width="32" x="31" y="41" /><line stroke="black" stroke-width="2" transform="rotate(326,35.5,168.5)" x1="12" x2="59" y1="145" y2="192" /><line stroke="black" stroke-width="2" transform="rotate(235,120.5,110.5)" x1="100" x2="141" y1="90" y2="131" /></g></svg>