<?xml version="1.0" encoding="utf-8" ?>
<svg baseProfile="full" height="1000px" version="1.1" width="600px" xmlns="http://www.w3.org/2000/svg" xmlns:ev="http://www.w3.org/2001/xml-events" xmlns:xlink="http://www.w3.org/1999/xlink"><defs /><rect fill="white" height="100%" width="100%" x="0" y="0" /><text font-family="Arial" font-size="24" text-anchor="middle" x="300" y="40">Visual Discrimination Test</text><text font-family="Arial" font-size="18" text-anchor="middle" x="300" y="80">Target Pattern</text><g transform="translate(200,100)"><rect fill="none" height="44" stroke="black" stroke-width="2" transform="rotate(242,128.0,116.0)" width="44" x="106" y="94" /><line stroke="black" stroke-width="2" transform="rotate(251,133.5,123.5)" x1="114" x2="153" y1="104" y2="143" /></g><text font-family="Arial" font-size="18" text-anchor="middle" x="300" y="350">Options</text><text font-family="Arial" font-size="14" text-anchor="middle" x="175" y="380">Option 1</text><g transform="translate(100,400)"><rect fill="none" height="44" stroke="black" stroke-width="2" transform="rotate(242,128.0,116.0)" width="44" x="106" y="94" /><line stroke="black" stroke-width="2" transform="rotate(251,133.5,123.5)" x1="114" x2="153" y1="104" y2="143" /></g><text font-family="Arial" font-size="14" text-anchor="middle" x="425" y="380">Option 2</text><g transform="translate(350,400)"><polygon fill="none" points="106,147.24 154.4,147.24 130.2,94" stroke="black" stroke-width="2" transform="rotate(294,130.2,120.62)" /><line stroke="black" stroke-width="2" transform="rotate(300,135.45,125.45)" x1="114" x2="156.9" y1="104" y2="146.9" /></g><text font-family="Arial" font-size="14" text-anchor="middle" x="175" y="630">Option 3</text><g transform="translate(100,650)"><rect fill="none" height="53.24000000000001" stroke="black" stroke-width="2" transform="rotate(293,130.2,120.62)" width="48.400000000000006" x="106" y="94" /><rect fill="none" height="47.19000000000001" stroke="black" stroke-width="2" transform="rotate(303,135.45,127.595)" width="42.900000000000006" x="114" y="104" /></g><text font-family="Arial" font-size="14" text-anchor="middle" x="425" y="630">Option 4</text><g transform="translate(350,650)"><rect fill="none" height="53.24000000000001" stroke="black" stroke-width="2" transform="rotate(291,130.2,120.62)" width="48.400000000000006" x="106" y="94" /><polygon fill="none" points="114,151.19 156.9,151.19 135.45,104" stroke="black" stroke-width="2" transform="rotate(301,135.45,127.595)" /></g></svg>