<?xml version="1.0" encoding="utf-8" ?>
<svg baseProfile="full" height="1000px" version="1.1" width="600px" xmlns="http://www.w3.org/2000/svg" xmlns:ev="http://www.w3.org/2001/xml-events" xmlns:xlink="http://www.w3.org/1999/xlink"><defs /><rect fill="white" height="100%" width="100%" x="0" y="0" /><text font-family="Arial" font-size="24" text-anchor="middle" x="300" y="40">Visual Discrimination Test</text><text font-family="Arial" font-size="18" text-anchor="middle" x="300" y="80">Target Pattern</text><g transform="translate(200,100)"><polygon fill="none" points="50,129 84,129 67.0,95" stroke="black" stroke-width="2" transform="rotate(41,67.0,112.0)" /><circle cx="36" cy="33" fill="none" r="15.0" stroke="black" stroke-width="2" /><rect fill="none" height="47" stroke="black" stroke-width="2" transform="rotate(314,125.5,140.5)" width="47" x="102" y="117" /><circle cx="24" cy="62" fill="none" r="24.0" stroke="black" stroke-width="2" /><polygon fill="none" points="108,137 140,137 124.0,105" stroke="black" stroke-width="2" transform="rotate(53,124.0,121.0)" /><line stroke="black" stroke-width="2" transform="rotate(306,98.0,45.0)" x1="80" x2="116" y1="27" y2="63" /><circle cx="54" cy="109" fill="none" r="23.0" stroke="black" stroke-width="2" /><polygon fill="none" points="17,43 47,43 32.0,13" stroke="black" stroke-width="2" transform="rotate(26,32.0,28.0)" /></g><text font-family="Arial" font-size="18" text-anchor="middle" x="300" y="350">Options</text><text font-family="Arial" font-size="14" text-anchor="middle" x="175" y="380">Option 1</text><g transform="translate(100,400)"><polygon fill="none" points="50,136.14000000000001 87.4,136.14000000000001 68.7,95" stroke="black" stroke-width="2" transform="rotate(89,68.7,115.57000000000001)" /><rect fill="none" height="36.300000000000004" stroke="black" stroke-width="2" transform="rotate(296,52.5,51.150000000000006)" width="33.0" x="36" y="33" /><rect fill="none" height="56.870000000000005" stroke="black" stroke-width="2" transform="rotate(363,127.85,145.435)" width="51.7" x="102" y="117" /><polygon fill="none" points="24,120.08000000000001 76.80000000000001,120.08000000000001 50.400000000000006,62" stroke="black" stroke-width="2" transform="rotate(207,50.400000000000006,91.04)" /><line stroke="black" stroke-width="2" transform="rotate(102,125.6,122.6)" x1="108" x2="143.2" y1="105" y2="140.2" /><polygon fill="none" points="80,70.56 119.6,70.56 99.8,27" stroke="black" stroke-width="2" transform="rotate(356,99.8,48.78)" /><rect fill="none" height="55.660000000000004" stroke="black" stroke-width="2" transform="rotate(105,79.3,136.83)" width="50.6" x="54" y="109" /><rect fill="none" height="36.300000000000004" stroke="black" stroke-width="2" transform="rotate(78,33.5,31.150000000000002)" width="33.0" x="17" y="13" /></g><text font-family="Arial" font-size="14" text-anchor="middle" x="425" y="380">Option 2</text><g transform="translate(350,400)"><polygon fill="none" points="50,136.14000000000001 87.4,136.14000000000001 68.7,95" stroke="black" stroke-width="2" transform="rotate(92,68.7,115.57000000000001)" /><line stroke="black" stroke-width="2" transform="rotate(297,52.5,49.5)" x1="36" x2="69.0" y1="33" y2="66.0" /><polygon fill="none" points="102,173.87 153.7,173.87 127.85,117" stroke="black" stroke-width="2" transform="rotate(365,127.85,145.435)" /><polygon fill="none" points="24,120.08000000000001 76.80000000000001,120.08000000000001 50.400000000000006,62" stroke="black" stroke-width="2" transform="rotate(209,50.400000000000006,91.04)" /><rect fill="none" height="38.720000000000006" stroke="black" stroke-width="2" transform="rotate(105,125.6,124.36)" width="35.2" x="108" y="105" /><rect fill="none" height="43.56" stroke="black" stroke-width="2" transform="rotate(354,99.8,48.78)" width="39.6" x="80" y="27" /><line stroke="black" stroke-width="2" transform="rotate(108,79.3,134.3)" x1="54" x2="104.6" y1="109" y2="159.6" /><rect fill="none" height="36.300000000000004" stroke="black" stroke-width="2" transform="rotate(76,33.5,31.150000000000002)" width="33.0" x="17" y="13" /></g><text font-family="Arial" font-size="14" text-anchor="middle" x="175" y="630">Option 3</text><g transform="translate(100,650)"><line stroke="black" stroke-width="2" transform="rotate(92,68.7,113.7)" x1="50" x2="87.4" y1="95" y2="132.4" /><polygon fill="none" points="36,69.30000000000001 69.0,69.30000000000001 52.5,33" stroke="black" stroke-width="2" transform="rotate(299,52.5,51.150000000000006)" /><rect fill="none" height="56.870000000000005" stroke="black" stroke-width="2" transform="rotate(362,127.85,145.435)" width="51.7" x="102" y="117" /><line stroke="black" stroke-width="2" transform="rotate(205,50.400000000000006,88.4)" x1="24" x2="76.80000000000001" y1="62" y2="114.80000000000001" /><line stroke="black" stroke-width="2" transform="rotate(105,125.6,122.6)" x1="108" x2="143.2" y1="105" y2="140.2" /><polygon fill="none" points="80,70.56 119.6,70.56 99.8,27" stroke="black" stroke-width="2" transform="rotate(358,99.8,48.78)" /><line stroke="black" stroke-width="2" transform="rotate(108,79.3,134.3)" x1="54" x2="104.6" y1="109" y2="159.6" /><polygon fill="none" points="17,49.300000000000004 50.0,49.300000000000004 33.5,13" stroke="black" stroke-width="2" transform="rotate(74,33.5,31.150000000000002)" /></g><text font-family="Arial" font-size="14" text-anchor="middle" x="425" y="630">Option 4</text><g transform="translate(350,650)"><polygon fill="none" points="50,129 84,129 67.0,95" stroke="black" stroke-width="2" transform="rotate(41,67.0,112.0)" /><circle cx="36" cy="33" fill="none" r="15.0" stroke="black" stroke-width="2" /><rect fill="none" height="47" stroke="black" stroke-width="2" transform="rotate(314,125.5,140.5)" width="47" x="102" y="117" /><circle cx="24" cy="62" fill="none" r="24.0" stroke="black" stroke-width="2" /><polygon fill="none" points="108,137 140,137 124.0,105" stroke="black" stroke-width="2" transform="rotate(53,124.0,121.0)" /><line stroke="black" stroke-width="2" transform="rotate(306,98.0,45.0)" x1="80" x2="116" y1="27" y2="63" /><circle cx="54" cy="109" fill="none" r="23.0" stroke="black" stroke-width="2" /><polygon fill="none" points="17,43 47,43 32.0,13" stroke="black" stroke-width="2" transform="rotate(26,32.0,28.0)" /></g></svg>