<?xml version="1.0" encoding="utf-8" ?>
<svg baseProfile="full" height="1000px" version="1.1" width="600px" xmlns="http://www.w3.org/2000/svg" xmlns:ev="http://www.w3.org/2001/xml-events" xmlns:xlink="http://www.w3.org/1999/xlink"><defs /><rect fill="white" height="100%" width="100%" x="0" y="0" /><text font-family="Arial" font-size="24" text-anchor="middle" x="300" y="40">Visual Discrimination Test</text><text font-family="Arial" font-size="18" text-anchor="middle" x="300" y="80">Target Pattern</text><g transform="translate(200,100)"><circle cx="46" cy="30" fill="none" r="15.5" stroke="black" stroke-width="2" /><circle cx="144" cy="48" fill="none" r="23.5" stroke="black" stroke-width="2" /><circle cx="118" cy="124" fill="none" r="22.0" stroke="black" stroke-width="2" /><rect fill="none" height="49" stroke="black" stroke-width="2" transform="rotate(179,48.5,173.5)" width="49" x="24" y="149" /><circle cx="107" cy="147" fill="none" r="24.5" stroke="black" stroke-width="2" /><circle cx="121" cy="114" fill="none" r="23.5" stroke="black" stroke-width="2" /><line stroke="black" stroke-width="2" transform="rotate(219,77.5,48.5)" x1="58" x2="97" y1="29" y2="68" /><polygon fill="none" points="124,60 162,60 143.0,22" stroke="black" stroke-width="2" transform="rotate(214,143.0,41.0)" /><line stroke="black" stroke-width="2" transform="rotate(249,76.0,96.0)" x1="56" x2="96" y1="76" y2="116" /></g><text font-family="Arial" font-size="18" text-anchor="middle" x="300" y="350">Options</text><text font-family="Arial" font-size="14" text-anchor="middle" x="175" y="380">Option 1</text><g transform="translate(100,400)"><circle cx="46" cy="30" fill="none" r="21.7" stroke="black" stroke-width="2" /><circle cx="144" cy="48" fill="none" r="32.9" stroke="black" stroke-width="2" /><circle cx="118" cy="124" fill="none" r="30.799999999999997" stroke="black" stroke-width="2" /><rect fill="none" height="54.879999999999995" stroke="black" stroke-width="2" transform="rotate(183,58.3,176.44)" width="68.6" x="24" y="149" /><circle cx="107" cy="147" fill="none" r="34.3" stroke="black" stroke-width="2" /><circle cx="121" cy="114" fill="none" r="32.9" stroke="black" stroke-width="2" /><line stroke="black" stroke-width="2" transform="rotate(222,85.3,56.3)" x1="58" x2="112.6" y1="29" y2="83.6" /><polygon fill="none" points="124,64.56 177.2,64.56 150.6,22" stroke="black" stroke-width="2" transform="rotate(221,150.6,43.28)" /><line stroke="black" stroke-width="2" transform="rotate(255,84.0,104.0)" x1="56" x2="112.0" y1="76" y2="132.0" /></g><text font-family="Arial" font-size="14" text-anchor="middle" x="425" y="380">Option 2</text><g transform="translate(350,400)"><circle cx="46" cy="30" fill="none" r="21.7" stroke="black" stroke-width="2" /><circle cx="144" cy="48" fill="none" r="32.9" stroke="black" stroke-width="2" /><circle cx="118" cy="124" fill="none" r="30.799999999999997" stroke="black" stroke-width="2" /><rect fill="none" height="54.879999999999995" stroke="black" stroke-width="2" transform="rotate(184,58.3,176.44)" width="68.6" x="24" y="149" /><circle cx="107" cy="147" fill="none" r="34.3" stroke="black" stroke-width="2" /><circle cx="121" cy="114" fill="none" r="32.9" stroke="black" stroke-width="2" /><line stroke="black" stroke-width="2" transform="rotate(223,85.3,56.3)" x1="58" x2="112.6" y1="29" y2="83.6" /><polygon fill="none" points="124,64.56 177.2,64.56 150.6,22" stroke="black" stroke-width="2" transform="rotate(220,150.6,43.28)" /><line stroke="black" stroke-width="2" transform="rotate(254,84.0,104.0)" x1="56" x2="112.0" y1="76" y2="132.0" /></g><text font-family="Arial" font-size="14" text-anchor="middle" x="175" y="630">Option 3</text><g transform="translate(100,650)"><circle cx="46" cy="30" fill="none" r="15.5" stroke="black" stroke-width="2" /><circle cx="144" cy="48" fill="none" r="23.5" stroke="black" stroke-width="2" /><circle cx="118" cy="124" fill="none" r="22.0" stroke="black" stroke-width="2" /><rect fill="none" height="49" stroke="black" stroke-width="2" transform="rotate(179,48.5,173.5)" width="49" x="24" y="149" /><circle cx="107" cy="147" fill="none" r="24.5" stroke="black" stroke-width="2" /><circle cx="121" cy="114" fill="none" r="23.5" stroke="black" stroke-width="2" /><line stroke="black" stroke-width="2" transform="rotate(219,77.5,48.5)" x1="58" x2="97" y1="29" y2="68" /><polygon fill="none" points="124,60 162,60 143.0,22" stroke="black" stroke-width="2" transform="rotate(214,143.0,41.0)" /><line stroke="black" stroke-width="2" transform="rotate(249,76.0,96.0)" x1="56" x2="96" y1="76" y2="116" /></g><text font-family="Arial" font-size="14" text-anchor="middle" x="425" y="630">Option 4</text><g transform="translate(350,650)"><circle cx="46" cy="30" fill="none" r="21.7" stroke="black" stroke-width="2" /><circle cx="144" cy="48" fill="none" r="32.9" stroke="black" stroke-width="2" /><circle cx="118" cy="124" fill="none" r="30.799999999999997" stroke="black" stroke-width="2" /><rect fill="none" height="54.879999999999995" stroke="black" stroke-width="2" transform="rotate(182,58.3,176.44)" width="68.6" x="24" y="149" /><circle cx="107" cy="147" fill="none" r="34.3" stroke="black" stroke-width="2" /><circle cx="121" cy="114" fill="none" r="32.9" stroke="black" stroke-width="2" /><line stroke="black" stroke-width="2" transform="rotate(223,85.3,56.3)" x1="58" x2="112.6" y1="29" y2="83.6" /><polygon fill="none" points="124,64.56 177.2,64.56 150.6,22" stroke="black" stroke-width="2" transform="rotate(219,150.6,43.28)" /><line stroke="black" stroke-width="2" transform="rotate(256,84.0,104.0)" x1="56" x2="112.0" y1="76" y2="132.0" /></g></svg>