<?xml version="1.0" encoding="utf-8" ?>
<svg baseProfile="full" height="1000px" version="1.1" width="600px" xmlns="http://www.w3.org/2000/svg" xmlns:ev="http://www.w3.org/2001/xml-events" xmlns:xlink="http://www.w3.org/1999/xlink"><defs /><rect fill="white" height="100%" width="100%" x="0" y="0" /><text font-family="Arial" font-size="24" text-anchor="middle" x="300" y="40">Visual Discrimination Test</text><text font-family="Arial" font-size="18" text-anchor="middle" x="300" y="80">Target Pattern</text><g transform="translate(200,100)"><polygon fill="none" points="116,122 156,122 136.0,82" stroke="black" stroke-width="2" transform="rotate(37,136.0,102.0)" /><circle cx="45" cy="123" fill="none" r="24.5" stroke="black" stroke-width="2" /><rect fill="none" height="47" stroke="black" stroke-width="2" transform="rotate(288,75.5,114.5)" width="47" x="52" y="91" /><polygon fill="none" points="84,178 118,178 101.0,144" stroke="black" stroke-width="2" transform="rotate(130,101.0,161.0)" /><polygon fill="none" points="10,140 42,140 26.0,108" stroke="black" stroke-width="2" transform="rotate(129,26.0,124.0)" /><polygon fill="none" points="21,86 59,86 40.0,48" stroke="black" stroke-width="2" transform="rotate(247,40.0,67.0)" /></g><text font-family="Arial" font-size="18" text-anchor="middle" x="300" y="350">Options</text><text font-family="Arial" font-size="14" text-anchor="middle" x="175" y="380">Option 1</text><g transform="translate(100,400)"><polygon fill="none" points="116,143.60000000000002 172.0,143.60000000000002 144.0,82" stroke="black" stroke-width="2" transform="rotate(88,144.0,112.80000000000001)" /><circle cx="45" cy="123" fill="none" r="34.3" stroke="black" stroke-width="2" /><rect fill="none" height="72.38000000000001" stroke="black" stroke-width="2" transform="rotate(336,84.9,127.19)" width="65.8" x="52" y="91" /><polygon fill="none" points="84,196.36 131.6,196.36 107.8,144" stroke="black" stroke-width="2" transform="rotate(180,107.8,170.18)" /><polygon fill="none" points="10,157.28 54.8,157.28 32.4,108" stroke="black" stroke-width="2" transform="rotate(177,32.4,132.64)" /><polygon fill="none" points="21,106.52000000000001 74.19999999999999,106.52000000000001 47.599999999999994,48" stroke="black" stroke-width="2" transform="rotate(299,47.599999999999994,77.26)" /></g><text font-family="Arial" font-size="14" text-anchor="middle" x="425" y="380">Option 2</text><g transform="translate(350,400)"><polygon fill="none" points="116,122 156,122 136.0,82" stroke="black" stroke-width="2" transform="rotate(37,136.0,102.0)" /><circle cx="45" cy="123" fill="none" r="24.5" stroke="black" stroke-width="2" /><rect fill="none" height="47" stroke="black" stroke-width="2" transform="rotate(288,75.5,114.5)" width="47" x="52" y="91" /><polygon fill="none" points="84,178 118,178 101.0,144" stroke="black" stroke-width="2" transform="rotate(130,101.0,161.0)" /><polygon fill="none" points="10,140 42,140 26.0,108" stroke="black" stroke-width="2" transform="rotate(129,26.0,124.0)" /><polygon fill="none" points="21,86 59,86 40.0,48" stroke="black" stroke-width="2" transform="rotate(247,40.0,67.0)" /></g><text font-family="Arial" font-size="14" text-anchor="middle" x="175" y="630">Option 3</text><g transform="translate(100,650)"><polygon fill="none" points="116,143.60000000000002 172.0,143.60000000000002 144.0,82" stroke="black" stroke-width="2" transform="rotate(87,144.0,112.80000000000001)" /><circle cx="45" cy="123" fill="none" r="34.3" stroke="black" stroke-width="2" /><rect fill="none" height="72.38000000000001" stroke="black" stroke-width="2" transform="rotate(340,84.9,127.19)" width="65.8" x="52" y="91" /><polygon fill="none" points="84,196.36 131.6,196.36 107.8,144" stroke="black" stroke-width="2" transform="rotate(178,107.8,170.18)" /><polygon fill="none" points="10,157.28 54.8,157.28 32.4,108" stroke="black" stroke-width="2" transform="rotate(181,32.4,132.64)" /><polygon fill="none" points="21,106.52000000000001 74.19999999999999,106.52000000000001 47.599999999999994,48" stroke="black" stroke-width="2" transform="rotate(299,47.599999999999994,77.26)" /></g><text font-family="Arial" font-size="14" text-anchor="middle" x="425" y="630">Option 4</text><g transform="translate(350,650)"><polygon fill="none" points="116,143.60000000000002 172.0,143.60000000000002 144.0,82" stroke="black" stroke-width="2" transform="rotate(87,144.0,112.80000000000001)" /><circle cx="45" cy="123" fill="none" r="34.3" stroke="black" stroke-width="2" /><rect fill="none" height="72.38000000000001" stroke="black" stroke-width="2" transform="rotate(337,84.9,127.19)" width="65.8" x="52" y="91" /><polygon fill="none" points="84,196.36 131.6,196.36 107.8,144" stroke="black" stroke-width="2" transform="rotate(179,107.8,170.18)" /><polygon fill="none" points="10,157.28 54.8,157.28 32.4,108" stroke="black" stroke-width="2" transform="rotate(177,32.4,132.64)" /><polygon fill="none" points="21,106.52000000000001 74.19999999999999,106.52000000000001 47.599999999999994,48" stroke="black" stroke-width="2" transform="rotate(299,47.599999999999994,77.26)" /></g></svg>