<?xml version="1.0" encoding="utf-8" ?>
<svg baseProfile="full" height="1000px" version="1.1" width="600px" xmlns="http://www.w3.org/2000/svg" xmlns:ev="http://www.w3.org/2001/xml-events" xmlns:xlink="http://www.w3.org/1999/xlink"><defs /><rect fill="white" height="100%" width="100%" x="0" y="0" /><text font-family="Arial" font-size="24" text-anchor="middle" x="300" y="40">Visual Discrimination Test</text><text font-family="Arial" font-size="18" text-anchor="middle" x="300" y="80">Target Pattern</text><g transform="translate(200,100)"><rect fill="none" height="46" stroke="black" stroke-width="2" transform="rotate(177,93.0,93.0)" width="46" x="70" y="70" /><circle cx="129" cy="97" fill="none" r="20.5" stroke="black" stroke-width="2" /><rect fill="none" height="40" stroke="black" stroke-width="2" transform="rotate(173,147.0,37.0)" width="40" x="127" y="17" /><polygon fill="none" points="107,132 143,132 125.0,96" stroke="black" stroke-width="2" transform="rotate(285,125.0,114.0)" /><line stroke="black" stroke-width="2" transform="rotate(61,58.5,88.5)" x1="42" x2="75" y1="72" y2="105" /><line stroke="black" stroke-width="2" transform="rotate(152,140.5,49.5)" x1="122" x2="159" y1="31" y2="68" /><circle cx="129" cy="24" fill="none" r="20.0" stroke="black" stroke-width="2" /><polygon fill="none" points="68,139 110,139 89.0,97" stroke="black" stroke-width="2" transform="rotate(292,89.0,118.0)" /><polygon fill="none" points="92,146 124,146 108.0,114" stroke="black" stroke-width="2" transform="rotate(124,108.0,130.0)" /><line stroke="black" stroke-width="2" transform="rotate(192,130.0,121.0)" x1="112" x2="148" y1="103" y2="139" /></g><text font-family="Arial" font-size="18" text-anchor="middle" x="300" y="350">Options</text><text font-family="Arial" font-size="14" text-anchor="middle" x="175" y="380">Option 1</text><g transform="translate(100,400)"><rect fill="none" height="70.84" stroke="black" stroke-width="2" transform="rotate(229,102.19999999999999,105.42)" width="64.39999999999999" x="70" y="70" /><circle cx="129" cy="97" fill="none" r="28.7" stroke="black" stroke-width="2" /><rect fill="none" height="61.60000000000001" stroke="black" stroke-width="2" transform="rotate(222,155.0,47.800000000000004)" width="56.0" x="127" y="17" /><polygon fill="none" points="107,151.44 157.4,151.44 132.2,96" stroke="black" stroke-width="2" transform="rotate(334,132.2,123.72)" /><line stroke="black" stroke-width="2" transform="rotate(112,65.1,95.1)" x1="42" x2="88.19999999999999" y1="72" y2="118.19999999999999" /><line stroke="black" stroke-width="2" transform="rotate(203,147.9,56.9)" x1="122" x2="173.8" y1="31" y2="82.8" /><circle cx="129" cy="24" fill="none" r="28.0" stroke="black" stroke-width="2" /><polygon fill="none" points="68,161.68 126.8,161.68 97.4,97" stroke="black" stroke-width="2" transform="rotate(342,97.4,129.34)" /><polygon fill="none" points="92,163.28 136.8,163.28 114.4,114" stroke="black" stroke-width="2" transform="rotate(172,114.4,138.64)" /><line stroke="black" stroke-width="2" transform="rotate(243,137.2,128.2)" x1="112" x2="162.4" y1="103" y2="153.4" /></g><text font-family="Arial" font-size="14" text-anchor="middle" x="425" y="380">Option 2</text><g transform="translate(350,400)"><rect fill="none" height="70.84" stroke="black" stroke-width="2" transform="rotate(227,102.19999999999999,105.42)" width="64.39999999999999" x="70" y="70" /><circle cx="129" cy="97" fill="none" r="28.7" stroke="black" stroke-width="2" /><rect fill="none" height="61.60000000000001" stroke="black" stroke-width="2" transform="rotate(223,155.0,47.800000000000004)" width="56.0" x="127" y="17" /><polygon fill="none" points="107,151.44 157.4,151.44 132.2,96" stroke="black" stroke-width="2" transform="rotate(337,132.2,123.72)" /><line stroke="black" stroke-width="2" transform="rotate(113,65.1,95.1)" x1="42" x2="88.19999999999999" y1="72" y2="118.19999999999999" /><line stroke="black" stroke-width="2" transform="rotate(200,147.9,56.9)" x1="122" x2="173.8" y1="31" y2="82.8" /><circle cx="129" cy="24" fill="none" r="28.0" stroke="black" stroke-width="2" /><polygon fill="none" points="68,161.68 126.8,161.68 97.4,97" stroke="black" stroke-width="2" transform="rotate(343,97.4,129.34)" /><polygon fill="none" points="92,163.28 136.8,163.28 114.4,114" stroke="black" stroke-width="2" transform="rotate(172,114.4,138.64)" /><line stroke="black" stroke-width="2" transform="rotate(241,137.2,128.2)" x1="112" x2="162.4" y1="103" y2="153.4" /></g><text font-family="Arial" font-size="14" text-anchor="middle" x="175" y="630">Option 3</text><g transform="translate(100,650)"><rect fill="none" height="70.84" stroke="black" stroke-width="2" transform="rotate(226,102.19999999999999,105.42)" width="64.39999999999999" x="70" y="70" /><circle cx="129" cy="97" fill="none" r="28.7" stroke="black" stroke-width="2" /><rect fill="none" height="61.60000000000001" stroke="black" stroke-width="2" transform="rotate(225,155.0,47.800000000000004)" width="56.0" x="127" y="17" /><polygon fill="none" points="107,151.44 157.4,151.44 132.2,96" stroke="black" stroke-width="2" transform="rotate(333,132.2,123.72)" /><line stroke="black" stroke-width="2" transform="rotate(113,65.1,95.1)" x1="42" x2="88.19999999999999" y1="72" y2="118.19999999999999" /><line stroke="black" stroke-width="2" transform="rotate(204,147.9,56.9)" x1="122" x2="173.8" y1="31" y2="82.8" /><circle cx="129" cy="24" fill="none" r="28.0" stroke="black" stroke-width="2" /><polygon fill="none" points="68,161.68 126.8,161.68 97.4,97" stroke="black" stroke-width="2" transform="rotate(340,97.4,129.34)" /><polygon fill="none" points="92,163.28 136.8,163.28 114.4,114" stroke="black" stroke-width="2" transform="rotate(173,114.4,138.64)" /><line stroke="black" stroke-width="2" transform="rotate(244,137.2,128.2)" x1="112" x2="162.4" y1="103" y2="153.4" /></g><text font-family="Arial" font-size="14" text-anchor="middle" x="425" y="630">Option 4</text><g transform="translate(350,650)"><rect fill="none" height="46" stroke="black" stroke-width="2" transform="rotate(177,93.0,93.0)" width="46" x="70" y="70" /><circle cx="129" cy="97" fill="none" r="20.5" stroke="black" stroke-width="2" /><rect fill="none" height="40" stroke="black" stroke-width="2" transform="rotate(173,147.0,37.0)" width="40" x="127" y="17" /><polygon fill="none" points="107,132 143,132 125.0,96" stroke="black" stroke-width="2" transform="rotate(285,125.0,114.0)" /><line stroke="black" stroke-width="2" transform="rotate(61,58.5,88.5)" x1="42" x2="75" y1="72" y2="105" /><line stroke="black" stroke-width="2" transform="rotate(152,140.5,49.5)" x1="122" x2="159" y1="31" y2="68" /><circle cx="129" cy="24" fill="none" r="20.0" stroke="black" stroke-width="2" /><polygon fill="none" points="68,139 110,139 89.0,97" stroke="black" stroke-width="2" transform="rotate(292,89.0,118.0)" /><polygon fill="none" points="92,146 124,146 108.0,114" stroke="black" stroke-width="2" transform="rotate(124,108.0,130.0)" /><line stroke="black" stroke-width="2" transform="rotate(192,130.0,121.0)" x1="112" x2="148" y1="103" y2="139" /></g></svg>