<?xml version="1.0" encoding="utf-8" ?>
<svg baseProfile="full" height="1000px" version="1.1" width="600px" xmlns="http://www.w3.org/2000/svg" xmlns:ev="http://www.w3.org/2001/xml-events" xmlns:xlink="http://www.w3.org/1999/xlink"><defs /><rect fill="white" height="100%" width="100%" x="0" y="0" /><text font-family="Arial" font-size="24" text-anchor="middle" x="300" y="40">Visual Discrimination Test</text><text font-family="Arial" font-size="18" text-anchor="middle" x="300" y="80">Target Pattern</text><g transform="translate(200,100)"><line stroke="black" stroke-width="2" transform="rotate(21,73.5,153.5)" x1="55" x2="92" y1="135" y2="172" /><rect fill="none" height="35" stroke="black" stroke-width="2" transform="rotate(76,93.5,48.5)" width="35" x="76" y="31" /><circle cx="37" cy="119" fill="none" r="24.0" stroke="black" stroke-width="2" /><circle cx="106" cy="140" fill="none" r="22.5" stroke="black" stroke-width="2" /><polygon fill="none" points="89,85 124,85 106.5,50" stroke="black" stroke-width="2" transform="rotate(125,106.5,67.5)" /><line stroke="black" stroke-width="2" transform="rotate(49,101.0,159.0)" x1="80" x2="122" y1="138" y2="180" /><rect fill="none" height="38" stroke="black" stroke-width="2" transform="rotate(12,39.0,152.0)" width="38" x="20" y="133" /></g><text font-family="Arial" font-size="18" text-anchor="middle" x="300" y="350">Options</text><text font-family="Arial" font-size="14" text-anchor="middle" x="175" y="380">Option 1</text><g transform="translate(100,400)"><line stroke="black" stroke-width="2" transform="rotate(69,80.9,160.9)" x1="55" x2="106.8" y1="135" y2="186.8" /><rect fill="none" height="53.900000000000006" stroke="black" stroke-width="2" transform="rotate(124,100.5,57.95)" width="49.0" x="76" y="31" /><circle cx="37" cy="119" fill="none" r="33.599999999999994" stroke="black" stroke-width="2" /><circle cx="106" cy="140" fill="none" r="31.499999999999996" stroke="black" stroke-width="2" /><polygon fill="none" points="89,103.9 138.0,103.9 113.5,50" stroke="black" stroke-width="2" transform="rotate(173,113.5,76.95)" /><line stroke="black" stroke-width="2" transform="rotate(97,109.4,167.4)" x1="80" x2="138.8" y1="138" y2="196.8" /><rect fill="none" height="58.52" stroke="black" stroke-width="2" transform="rotate(60,46.599999999999994,162.26)" width="53.199999999999996" x="20" y="133" /></g><text font-family="Arial" font-size="14" text-anchor="middle" x="425" y="380">Option 2</text><g transform="translate(350,400)"><line stroke="black" stroke-width="2" transform="rotate(21,73.5,153.5)" x1="55" x2="92" y1="135" y2="172" /><rect fill="none" height="35" stroke="black" stroke-width="2" transform="rotate(76,93.5,48.5)" width="35" x="76" y="31" /><circle cx="37" cy="119" fill="none" r="24.0" stroke="black" stroke-width="2" /><circle cx="106" cy="140" fill="none" r="22.5" stroke="black" stroke-width="2" /><polygon fill="none" points="89,85 124,85 106.5,50" stroke="black" stroke-width="2" transform="rotate(125,106.5,67.5)" /><line stroke="black" stroke-width="2" transform="rotate(49,101.0,159.0)" x1="80" x2="122" y1="138" y2="180" /><rect fill="none" height="38" stroke="black" stroke-width="2" transform="rotate(12,39.0,152.0)" width="38" x="20" y="133" /></g><text font-family="Arial" font-size="14" text-anchor="middle" x="175" y="630">Option 3</text><g transform="translate(100,650)"><line stroke="black" stroke-width="2" transform="rotate(71,80.9,160.9)" x1="55" x2="106.8" y1="135" y2="186.8" /><rect fill="none" height="53.900000000000006" stroke="black" stroke-width="2" transform="rotate(128,100.5,57.95)" width="49.0" x="76" y="31" /><circle cx="37" cy="119" fill="none" r="33.599999999999994" stroke="black" stroke-width="2" /><circle cx="106" cy="140" fill="none" r="31.499999999999996" stroke="black" stroke-width="2" /><polygon fill="none" points="89,103.9 138.0,103.9 113.5,50" stroke="black" stroke-width="2" transform="rotate(175,113.5,76.95)" /><line stroke="black" stroke-width="2" transform="rotate(97,109.4,167.4)" x1="80" x2="138.8" y1="138" y2="196.8" /><rect fill="none" height="58.52" stroke="black" stroke-width="2" transform="rotate(63,46.599999999999994,162.26)" width="53.199999999999996" x="20" y="133" /></g><text font-family="Arial" font-size="14" text-anchor="middle" x="425" y="630">Option 4</text><g transform="translate(350,650)"><line stroke="black" stroke-width="2" transform="rotate(71,80.9,160.9)" x1="55" x2="106.8" y1="135" y2="186.8" /><rect fill="none" height="53.900000000000006" stroke="black" stroke-width="2" transform="rotate(127,100.5,57.95)" width="49.0" x="76" y="31" /><circle cx="37" cy="119" fill="none" r="33.599999999999994" stroke="black" stroke-width="2" /><circle cx="106" cy="140" fill="none" r="31.499999999999996" stroke="black" stroke-width="2" /><polygon fill="none" points="89,103.9 138.0,103.9 113.5,50" stroke="black" stroke-width="2" transform="rotate(174,113.5,76.95)" /><line stroke="black" stroke-width="2" transform="rotate(100,109.4,167.4)" x1="80" x2="138.8" y1="138" y2="196.8" /><rect fill="none" height="58.52" stroke="black" stroke-width="2" transform="rotate(63,46.599999999999994,162.26)" width="53.199999999999996" x="20" y="133" /></g></svg>