<?xml version="1.0" encoding="utf-8" ?>
<svg baseProfile="full" height="1000px" version="1.1" width="600px" xmlns="http://www.w3.org/2000/svg" xmlns:ev="http://www.w3.org/2001/xml-events" xmlns:xlink="http://www.w3.org/1999/xlink"><defs /><rect fill="white" height="100%" width="100%" x="0" y="0" /><text font-family="Arial" font-size="24" text-anchor="middle" x="300" y="40">Visual Discrimination Test</text><text font-family="Arial" font-size="18" text-anchor="middle" x="300" y="80">Target Pattern</text><g transform="translate(200,100)"><line stroke="black" stroke-width="2" transform="rotate(45,95.5,124.5)" x1="78" x2="113" y1="107" y2="142" /><rect fill="none" height="47" stroke="black" stroke-width="2" transform="rotate(151,119.5,173.5)" width="47" x="96" y="150" /><line stroke="black" stroke-width="2" transform="rotate(58,154.0,117.0)" x1="138" x2="170" y1="101" y2="133" /><rect fill="none" height="43" stroke="black" stroke-width="2" transform="rotate(164,32.5,139.5)" width="43" x="11" y="118" /><circle cx="149" cy="33" fill="none" r="24.5" stroke="black" stroke-width="2" /><rect fill="none" height="49" stroke="black" stroke-width="2" transform="rotate(207,168.5,170.5)" width="49" x="144" y="146" /><circle cx="130" cy="150" fill="none" r="21.0" stroke="black" stroke-width="2" /></g><text font-family="Arial" font-size="18" text-anchor="middle" x="300" y="350">Options</text><text font-family="Arial" font-size="14" text-anchor="middle" x="175" y="380">Option 1</text><g transform="translate(100,400)"><line stroke="black" stroke-width="2" transform="rotate(97,102.5,131.5)" x1="78" x2="127.0" y1="107" y2="156.0" /><rect fill="none" height="72.38000000000001" stroke="black" stroke-width="2" transform="rotate(201,128.9,186.19)" width="65.8" x="96" y="150" /><line stroke="black" stroke-width="2" transform="rotate(107,160.4,123.4)" x1="138" x2="182.8" y1="101" y2="145.8" /><rect fill="none" height="66.22" stroke="black" stroke-width="2" transform="rotate(216,41.099999999999994,151.11)" width="60.199999999999996" x="11" y="118" /><circle cx="149" cy="33" fill="none" r="34.3" stroke="black" stroke-width="2" /><rect fill="none" height="75.46" stroke="black" stroke-width="2" transform="rotate(257,178.3,183.73)" width="68.6" x="144" y="146" /><circle cx="130" cy="150" fill="none" r="29.4" stroke="black" stroke-width="2" /></g><text font-family="Arial" font-size="14" text-anchor="middle" x="425" y="380">Option 2</text><g transform="translate(350,400)"><line stroke="black" stroke-width="2" transform="rotate(94,102.5,131.5)" x1="78" x2="127.0" y1="107" y2="156.0" /><rect fill="none" height="72.38000000000001" stroke="black" stroke-width="2" transform="rotate(202,128.9,186.19)" width="65.8" x="96" y="150" /><line stroke="black" stroke-width="2" transform="rotate(109,160.4,123.4)" x1="138" x2="182.8" y1="101" y2="145.8" /><rect fill="none" height="66.22" stroke="black" stroke-width="2" transform="rotate(214,41.099999999999994,151.11)" width="60.199999999999996" x="11" y="118" /><circle cx="149" cy="33" fill="none" r="34.3" stroke="black" stroke-width="2" /><rect fill="none" height="75.46" stroke="black" stroke-width="2" transform="rotate(256,178.3,183.73)" width="68.6" x="144" y="146" /><circle cx="130" cy="150" fill="none" r="29.4" stroke="black" stroke-width="2" /></g><text font-family="Arial" font-size="14" text-anchor="middle" x="175" y="630">Option 3</text><g transform="translate(100,650)"><line stroke="black" stroke-width="2" transform="rotate(45,95.5,124.5)" x1="78" x2="113" y1="107" y2="142" /><rect fill="none" height="47" stroke="black" stroke-width="2" transform="rotate(151,119.5,173.5)" width="47" x="96" y="150" /><line stroke="black" stroke-width="2" transform="rotate(58,154.0,117.0)" x1="138" x2="170" y1="101" y2="133" /><rect fill="none" height="43" stroke="black" stroke-width="2" transform="rotate(164,32.5,139.5)" width="43" x="11" y="118" /><circle cx="149" cy="33" fill="none" r="24.5" stroke="black" stroke-width="2" /><rect fill="none" height="49" stroke="black" stroke-width="2" transform="rotate(207,168.5,170.5)" width="49" x="144" y="146" /><circle cx="130" cy="150" fill="none" r="21.0" stroke="black" stroke-width="2" /></g><text font-family="Arial" font-size="14" text-anchor="middle" x="425" y="630">Option 4</text><g transform="translate(350,650)"><line stroke="black" stroke-width="2" transform="rotate(93,102.5,131.5)" x1="78" x2="127.0" y1="107" y2="156.0" /><rect fill="none" height="72.38000000000001" stroke="black" stroke-width="2" transform="rotate(201,128.9,186.19)" width="65.8" x="96" y="150" /><line stroke="black" stroke-width="2" transform="rotate(110,160.4,123.4)" x1="138" x2="182.8" y1="101" y2="145.8" /><rect fill="none" height="66.22" stroke="black" stroke-width="2" transform="rotate(215,41.099999999999994,151.11)" width="60.199999999999996" x="11" y="118" /><circle cx="149" cy="33" fill="none" r="34.3" stroke="black" stroke-width="2" /><rect fill="none" height="75.46" stroke="black" stroke-width="2" transform="rotate(255,178.3,183.73)" width="68.6" x="144" y="146" /><circle cx="130" cy="150" fill="none" r="29.4" stroke="black" stroke-width="2" /></g></svg>