<?xml version="1.0" encoding="utf-8" ?>
<svg baseProfile="full" height="1000px" version="1.1" width="600px" xmlns="http://www.w3.org/2000/svg" xmlns:ev="http://www.w3.org/2001/xml-events" xmlns:xlink="http://www.w3.org/1999/xlink"><defs /><rect fill="white" height="100%" width="100%" x="0" y="0" /><text font-family="Arial" font-size="24" text-anchor="middle" x="300" y="40">Visual Discrimination Test</text><text font-family="Arial" font-size="18" text-anchor="middle" x="300" y="80">Target Pattern</text><g transform="translate(200,100)"><circle cx="145" cy="16" fill="none" r="17.5" stroke="black" stroke-width="2" /><rect fill="none" height="47" stroke="black" stroke-width="2" transform="rotate(300,54.5,79.5)" width="47" x="31" y="56" /><polygon fill="none" points="18,132 55,132 36.5,95" stroke="black" stroke-width="2" transform="rotate(157,36.5,113.5)" /><line stroke="black" stroke-width="2" transform="rotate(78,122.5,55.5)" x1="103" x2="142" y1="36" y2="75" /><polygon fill="none" points="136,125 173,125 154.5,88" stroke="black" stroke-width="2" transform="rotate(297,154.5,106.5)" /><circle cx="62" cy="146" fill="none" r="22.0" stroke="black" stroke-width="2" /><polygon fill="none" points="123,116 153,116 138.0,86" stroke="black" stroke-width="2" transform="rotate(296,138.0,101.0)" /><line stroke="black" stroke-width="2" transform="rotate(48,73.0,140.0)" x1="56" x2="90" y1="123" y2="157" /><rect fill="none" height="37" stroke="black" stroke-width="2" transform="rotate(159,39.5,127.5)" width="37" x="21" y="109" /><rect fill="none" height="38" stroke="black" stroke-width="2" transform="rotate(16,99.0,129.0)" width="38" x="80" y="110" /></g><text font-family="Arial" font-size="18" text-anchor="middle" x="300" y="350">Options</text><text font-family="Arial" font-size="14" text-anchor="middle" x="175" y="380">Option 1</text><g transform="translate(100,400)"><circle cx="145" cy="16" fill="none" r="24.5" stroke="black" stroke-width="2" /><rect fill="none" height="72.38000000000001" stroke="black" stroke-width="2" transform="rotate(351,63.9,92.19)" width="65.8" x="31" y="56" /><polygon fill="none" points="18,151.98000000000002 69.8,151.98000000000002 43.9,95" stroke="black" stroke-width="2" transform="rotate(208,43.9,123.49000000000001)" /><line stroke="black" stroke-width="2" transform="rotate(127,130.3,63.3)" x1="103" x2="157.6" y1="36" y2="90.6" /><polygon fill="none" points="136,144.98000000000002 187.8,144.98000000000002 161.9,88" stroke="black" stroke-width="2" transform="rotate(348,161.9,116.49000000000001)" /><circle cx="62" cy="146" fill="none" r="30.799999999999997" stroke="black" stroke-width="2" /><polygon fill="none" points="123,132.2 165.0,132.2 144.0,86" stroke="black" stroke-width="2" transform="rotate(345,144.0,109.1)" /><line stroke="black" stroke-width="2" transform="rotate(97,79.8,146.8)" x1="56" x2="103.6" y1="123" y2="170.6" /><rect fill="none" height="56.980000000000004" stroke="black" stroke-width="2" transform="rotate(211,46.9,137.49)" width="51.8" x="21" y="109" /><rect fill="none" height="58.52" stroke="black" stroke-width="2" transform="rotate(64,106.6,139.26)" width="53.199999999999996" x="80" y="110" /></g><text font-family="Arial" font-size="14" text-anchor="middle" x="425" y="380">Option 2</text><g transform="translate(350,400)"><circle cx="145" cy="16" fill="none" r="24.5" stroke="black" stroke-width="2" /><rect fill="none" height="72.38000000000001" stroke="black" stroke-width="2" transform="rotate(352,63.9,92.19)" width="65.8" x="31" y="56" /><polygon fill="none" points="18,151.98000000000002 69.8,151.98000000000002 43.9,95" stroke="black" stroke-width="2" transform="rotate(208,43.9,123.49000000000001)" /><line stroke="black" stroke-width="2" transform="rotate(129,130.3,63.3)" x1="103" x2="157.6" y1="36" y2="90.6" /><polygon fill="none" points="136,144.98000000000002 187.8,144.98000000000002 161.9,88" stroke="black" stroke-width="2" transform="rotate(345,161.9,116.49000000000001)" /><circle cx="62" cy="146" fill="none" r="30.799999999999997" stroke="black" stroke-width="2" /><polygon fill="none" points="123,132.2 165.0,132.2 144.0,86" stroke="black" stroke-width="2" transform="rotate(347,144.0,109.1)" /><line stroke="black" stroke-width="2" transform="rotate(96,79.8,146.8)" x1="56" x2="103.6" y1="123" y2="170.6" /><rect fill="none" height="56.980000000000004" stroke="black" stroke-width="2" transform="rotate(209,46.9,137.49)" width="51.8" x="21" y="109" /><rect fill="none" height="58.52" stroke="black" stroke-width="2" transform="rotate(65,106.6,139.26)" width="53.199999999999996" x="80" y="110" /></g><text font-family="Arial" font-size="14" text-anchor="middle" x="175" y="630">Option 3</text><g transform="translate(100,650)"><circle cx="145" cy="16" fill="none" r="24.5" stroke="black" stroke-width="2" /><rect fill="none" height="72.38000000000001" stroke="black" stroke-width="2" transform="rotate(350,63.9,92.19)" width="65.8" x="31" y="56" /><polygon fill="none" points="18,151.98000000000002 69.8,151.98000000000002 43.9,95" stroke="black" stroke-width="2" transform="rotate(205,43.9,123.49000000000001)" /><line stroke="black" stroke-width="2" transform="rotate(129,130.3,63.3)" x1="103" x2="157.6" y1="36" y2="90.6" /><polygon fill="none" points="136,144.98000000000002 187.8,144.98000000000002 161.9,88" stroke="black" stroke-width="2" transform="rotate(347,161.9,116.49000000000001)" /><circle cx="62" cy="146" fill="none" r="30.799999999999997" stroke="black" stroke-width="2" /><polygon fill="none" points="123,132.2 165.0,132.2 144.0,86" stroke="black" stroke-width="2" transform="rotate(344,144.0,109.1)" /><line stroke="black" stroke-width="2" transform="rotate(100,79.8,146.8)" x1="56" x2="103.6" y1="123" y2="170.6" /><rect fill="none" height="56.980000000000004" stroke="black" stroke-width="2" transform="rotate(211,46.9,137.49)" width="51.8" x="21" y="109" /><rect fill="none" height="58.52" stroke="black" stroke-width="2" transform="rotate(65,106.6,139.26)" width="53.199999999999996" x="80" y="110" /></g><text font-family="Arial" font-size="14" text-anchor="middle" x="425" y="630">Option 4</text><g transform="translate(350,650)"><circle cx="145" cy="16" fill="none" r="17.5" stroke="black" stroke-width="2" /><rect fill="none" height="47" stroke="black" stroke-width="2" transform="rotate(300,54.5,79.5)" width="47" x="31" y="56" /><polygon fill="none" points="18,132 55,132 36.5,95" stroke="black" stroke-width="2" transform="rotate(157,36.5,113.5)" /><line stroke="black" stroke-width="2" transform="rotate(78,122.5,55.5)" x1="103" x2="142" y1="36" y2="75" /><polygon fill="none" points="136,125 173,125 154.5,88" stroke="black" stroke-width="2" transform="rotate(297,154.5,106.5)" /><circle cx="62" cy="146" fill="none" r="22.0" stroke="black" stroke-width="2" /><polygon fill="none" points="123,116 153,116 138.0,86" stroke="black" stroke-width="2" transform="rotate(296,138.0,101.0)" /><line stroke="black" stroke-width="2" transform="rotate(48,73.0,140.0)" x1="56" x2="90" y1="123" y2="157" /><rect fill="none" height="37" stroke="black" stroke-width="2" transform="rotate(159,39.5,127.5)" width="37" x="21" y="109" /><rect fill="none" height="38" stroke="black" stroke-width="2" transform="rotate(16,99.0,129.0)" width="38" x="80" y="110" /></g></svg>