<?xml version="1.0" encoding="utf-8" ?>
<svg baseProfile="full" height="1000px" version="1.1" width="600px" xmlns="http://www.w3.org/2000/svg" xmlns:ev="http://www.w3.org/2001/xml-events" xmlns:xlink="http://www.w3.org/1999/xlink"><defs /><rect fill="white" height="100%" width="100%" x="0" y="0" /><text font-family="Arial" font-size="24" text-anchor="middle" x="300" y="40">Visual Discrimination Test</text><text font-family="Arial" font-size="18" text-anchor="middle" x="300" y="80">Target Pattern</text><g transform="translate(200,100)"><circle cx="14" cy="108" fill="none" r="17.0" stroke="black" stroke-width="2" /><line stroke="black" stroke-width="2" transform="rotate(200,120.0,124.0)" x1="101" x2="139" y1="105" y2="143" /><rect fill="none" height="50" stroke="black" stroke-width="2" transform="rotate(112,113.0,37.0)" width="50" x="88" y="12" /><circle cx="45" cy="58" fill="none" r="21.0" stroke="black" stroke-width="2" /><circle cx="128" cy="111" fill="none" r="23.5" stroke="black" stroke-width="2" /><circle cx="142" cy="32" fill="none" r="16.0" stroke="black" stroke-width="2" /></g><text font-family="Arial" font-size="18" text-anchor="middle" x="300" y="350">Options</text><text font-family="Arial" font-size="14" text-anchor="middle" x="175" y="380">Option 1</text><g transform="translate(100,400)"><polygon fill="none" points="14,160.36 61.599999999999994,160.36 37.8,108" stroke="black" stroke-width="2" transform="rotate(229,37.8,134.18)" /><line stroke="black" stroke-width="2" transform="rotate(251,127.6,131.6)" x1="101" x2="154.2" y1="105" y2="158.2" /><polygon fill="none" points="88,89.0 158.0,89.0 123.0,12" stroke="black" stroke-width="2" transform="rotate(163,123.0,50.5)" /><rect fill="none" height="64.68" stroke="black" stroke-width="2" transform="rotate(378,74.4,90.34)" width="58.8" x="45" y="58" /><polygon fill="none" points="128,183.38 193.8,183.38 160.9,111" stroke="black" stroke-width="2" transform="rotate(84,160.9,147.19)" /><line stroke="black" stroke-width="2" transform="rotate(341,164.4,54.4)" x1="142" x2="186.8" y1="32" y2="76.8" /></g><text font-family="Arial" font-size="14" text-anchor="middle" x="425" y="380">Option 2</text><g transform="translate(350,400)"><circle cx="14" cy="108" fill="none" r="17.0" stroke="black" stroke-width="2" /><line stroke="black" stroke-width="2" transform="rotate(200,120.0,124.0)" x1="101" x2="139" y1="105" y2="143" /><rect fill="none" height="50" stroke="black" stroke-width="2" transform="rotate(112,113.0,37.0)" width="50" x="88" y="12" /><circle cx="45" cy="58" fill="none" r="21.0" stroke="black" stroke-width="2" /><circle cx="128" cy="111" fill="none" r="23.5" stroke="black" stroke-width="2" /><circle cx="142" cy="32" fill="none" r="16.0" stroke="black" stroke-width="2" /></g><text font-family="Arial" font-size="14" text-anchor="middle" x="175" y="630">Option 3</text><g transform="translate(100,650)"><line stroke="black" stroke-width="2" transform="rotate(231,37.8,131.8)" x1="14" x2="61.599999999999994" y1="108" y2="155.6" /><polygon fill="none" points="101,163.52 154.2,163.52 127.6,105" stroke="black" stroke-width="2" transform="rotate(249,127.6,134.26)" /><rect fill="none" height="77.0" stroke="black" stroke-width="2" transform="rotate(164,123.0,50.5)" width="70.0" x="88" y="12" /><rect fill="none" height="64.68" stroke="black" stroke-width="2" transform="rotate(376,74.4,90.34)" width="58.8" x="45" y="58" /><polygon fill="none" points="128,183.38 193.8,183.38 160.9,111" stroke="black" stroke-width="2" transform="rotate(83,160.9,147.19)" /><polygon fill="none" points="142,81.28 186.8,81.28 164.4,32" stroke="black" stroke-width="2" transform="rotate(340,164.4,56.64)" /></g><text font-family="Arial" font-size="14" text-anchor="middle" x="425" y="630">Option 4</text><g transform="translate(350,650)"><line stroke="black" stroke-width="2" transform="rotate(229,37.8,131.8)" x1="14" x2="61.599999999999994" y1="108" y2="155.6" /><polygon fill="none" points="101,163.52 154.2,163.52 127.6,105" stroke="black" stroke-width="2" transform="rotate(252,127.6,134.26)" /><polygon fill="none" points="88,89.0 158.0,89.0 123.0,12" stroke="black" stroke-width="2" transform="rotate(164,123.0,50.5)" /><rect fill="none" height="64.68" stroke="black" stroke-width="2" transform="rotate(376,74.4,90.34)" width="58.8" x="45" y="58" /><line stroke="black" stroke-width="2" transform="rotate(81,160.9,143.9)" x1="128" x2="193.8" y1="111" y2="176.8" /><line stroke="black" stroke-width="2" transform="rotate(339,164.4,54.4)" x1="142" x2="186.8" y1="32" y2="76.8" /></g></svg>