<?xml version="1.0" encoding="utf-8" ?>
<svg baseProfile="full" height="1000px" version="1.1" width="600px" xmlns="http://www.w3.org/2000/svg" xmlns:ev="http://www.w3.org/2001/xml-events" xmlns:xlink="http://www.w3.org/1999/xlink"><defs /><rect fill="white" height="100%" width="100%" x="0" y="0" /><text font-family="Arial" font-size="24" text-anchor="middle" x="300" y="40">Visual Discrimination Test</text><text font-family="Arial" font-size="18" text-anchor="middle" x="300" y="80">Target Pattern</text><g transform="translate(200,100)"><line stroke="black" stroke-width="2" transform="rotate(179,116.5,64.5)" x1="96" x2="137" y1="44" y2="85" /><line stroke="black" stroke-width="2" transform="rotate(157,105.0,119.0)" x1="88" x2="122" y1="102" y2="136" /><circle cx="63" cy="79" fill="none" r="18.0" stroke="black" stroke-width="2" /><polygon fill="none" points="16,166 47,166 31.5,135" stroke="black" stroke-width="2" transform="rotate(334,31.5,150.5)" /><circle cx="142" cy="98" fill="none" r="23.5" stroke="black" stroke-width="2" /><line stroke="black" stroke-width="2" transform="rotate(151,100.0,123.0)" x1="80" x2="120" y1="103" y2="143" /><line stroke="black" stroke-width="2" transform="rotate(329,169.5,123.5)" x1="147" x2="192" y1="101" y2="146" /></g><text font-family="Arial" font-size="18" text-anchor="middle" x="300" y="350">Options</text><text font-family="Arial" font-size="14" text-anchor="middle" x="175" y="380">Option 1</text><g transform="translate(100,400)"><polygon fill="none" points="96,107.14 153.4,107.14 124.7,44" stroke="black" stroke-width="2" transform="rotate(229,124.7,75.57)" /><polygon fill="none" points="88,154.36 135.6,154.36 111.8,102" stroke="black" stroke-width="2" transform="rotate(206,111.8,128.18)" /><rect fill="none" height="55.440000000000005" stroke="black" stroke-width="2" transform="rotate(83,88.2,106.72)" width="50.4" x="63" y="79" /><line stroke="black" stroke-width="2" transform="rotate(386,37.7,156.7)" x1="16" x2="59.4" y1="135" y2="178.4" /><line stroke="black" stroke-width="2" transform="rotate(248,174.9,130.9)" x1="142" x2="207.8" y1="98" y2="163.8" /><polygon fill="none" points="80,164.60000000000002 136.0,164.60000000000002 108.0,103" stroke="black" stroke-width="2" transform="rotate(199,108.0,133.8)" /><polygon fill="none" points="147,170.3 210.0,170.3 178.5,101" stroke="black" stroke-width="2" transform="rotate(380,178.5,135.65)" /></g><text font-family="Arial" font-size="14" text-anchor="middle" x="425" y="380">Option 2</text><g transform="translate(350,400)"><line stroke="black" stroke-width="2" transform="rotate(179,116.5,64.5)" x1="96" x2="137" y1="44" y2="85" /><line stroke="black" stroke-width="2" transform="rotate(157,105.0,119.0)" x1="88" x2="122" y1="102" y2="136" /><circle cx="63" cy="79" fill="none" r="18.0" stroke="black" stroke-width="2" /><polygon fill="none" points="16,166 47,166 31.5,135" stroke="black" stroke-width="2" transform="rotate(334,31.5,150.5)" /><circle cx="142" cy="98" fill="none" r="23.5" stroke="black" stroke-width="2" /><line stroke="black" stroke-width="2" transform="rotate(151,100.0,123.0)" x1="80" x2="120" y1="103" y2="143" /><line stroke="black" stroke-width="2" transform="rotate(329,169.5,123.5)" x1="147" x2="192" y1="101" y2="146" /></g><text font-family="Arial" font-size="14" text-anchor="middle" x="175" y="630">Option 3</text><g transform="translate(100,650)"><line stroke="black" stroke-width="2" transform="rotate(227,124.7,72.7)" x1="96" x2="153.4" y1="44" y2="101.4" /><line stroke="black" stroke-width="2" transform="rotate(206,111.8,125.8)" x1="88" x2="135.6" y1="102" y2="149.6" /><line stroke="black" stroke-width="2" transform="rotate(83,88.2,104.2)" x1="63" x2="113.4" y1="79" y2="129.4" /><line stroke="black" stroke-width="2" transform="rotate(382,37.7,156.7)" x1="16" x2="59.4" y1="135" y2="178.4" /><rect fill="none" height="72.38000000000001" stroke="black" stroke-width="2" transform="rotate(245,174.9,134.19)" width="65.8" x="142" y="98" /><rect fill="none" height="61.60000000000001" stroke="black" stroke-width="2" transform="rotate(202,108.0,133.8)" width="56.0" x="80" y="103" /><rect fill="none" height="69.3" stroke="black" stroke-width="2" transform="rotate(380,178.5,135.65)" width="62.99999999999999" x="147" y="101" /></g><text font-family="Arial" font-size="14" text-anchor="middle" x="425" y="630">Option 4</text><g transform="translate(350,650)"><polygon fill="none" points="96,107.14 153.4,107.14 124.7,44" stroke="black" stroke-width="2" transform="rotate(227,124.7,75.57)" /><line stroke="black" stroke-width="2" transform="rotate(207,111.8,125.8)" x1="88" x2="135.6" y1="102" y2="149.6" /><rect fill="none" height="55.440000000000005" stroke="black" stroke-width="2" transform="rotate(82,88.2,106.72)" width="50.4" x="63" y="79" /><line stroke="black" stroke-width="2" transform="rotate(384,37.7,156.7)" x1="16" x2="59.4" y1="135" y2="178.4" /><line stroke="black" stroke-width="2" transform="rotate(247,174.9,130.9)" x1="142" x2="207.8" y1="98" y2="163.8" /><polygon fill="none" points="80,164.60000000000002 136.0,164.60000000000002 108.0,103" stroke="black" stroke-width="2" transform="rotate(200,108.0,133.8)" /><rect fill="none" height="69.3" stroke="black" stroke-width="2" transform="rotate(379,178.5,135.65)" width="62.99999999999999" x="147" y="101" /></g></svg>