<?xml version="1.0" encoding="utf-8" ?>
<svg baseProfile="full" height="1000px" version="1.1" width="600px" xmlns="http://www.w3.org/2000/svg" xmlns:ev="http://www.w3.org/2001/xml-events" xmlns:xlink="http://www.w3.org/1999/xlink"><defs /><rect fill="white" height="100%" width="100%" x="0" y="0" /><text font-family="Arial" font-size="24" text-anchor="middle" x="300" y="40">Visual Discrimination Test</text><text font-family="Arial" font-size="18" text-anchor="middle" x="300" y="80">Target Pattern</text><g transform="translate(200,100)"><line stroke="black" stroke-width="2" transform="rotate(185,81.0,55.0)" x1="62" x2="100" y1="36" y2="74" /><line stroke="black" stroke-width="2" transform="rotate(287,114.0,123.0)" x1="92" x2="136" y1="101" y2="145" /><polygon fill="none" points="68,53 103,53 85.5,18" stroke="black" stroke-width="2" transform="rotate(323,85.5,35.5)" /><line stroke="black" stroke-width="2" transform="rotate(102,147.5,45.5)" x1="127" x2="168" y1="25" y2="66" /><line stroke="black" stroke-width="2" transform="rotate(82,120.0,148.0)" x1="103" x2="137" y1="131" y2="165" /><circle cx="64" cy="27" fill="none" r="22.5" stroke="black" stroke-width="2" /><rect fill="none" height="38" stroke="black" stroke-width="2" transform="rotate(59,167.0,145.0)" width="38" x="148" y="126" /><line stroke="black" stroke-width="2" transform="rotate(342,77.5,85.5)" x1="58" x2="97" y1="66" y2="105" /></g><text font-family="Arial" font-size="18" text-anchor="middle" x="300" y="350">Options</text><text font-family="Arial" font-size="14" text-anchor="middle" x="175" y="380">Option 1</text><g transform="translate(100,400)"><polygon fill="none" points="62,94.52000000000001 115.19999999999999,94.52000000000001 88.6,36" stroke="black" stroke-width="2" transform="rotate(234,88.6,65.26)" /><line stroke="black" stroke-width="2" transform="rotate(335,122.8,131.8)" x1="92" x2="153.6" y1="101" y2="162.6" /><rect fill="none" height="53.900000000000006" stroke="black" stroke-width="2" transform="rotate(375,92.5,44.95)" width="49.0" x="68" y="18" /><polygon fill="none" points="127,88.14 184.4,88.14 155.7,25" stroke="black" stroke-width="2" transform="rotate(153,155.7,56.57)" /><line stroke="black" stroke-width="2" transform="rotate(134,126.8,154.8)" x1="103" x2="150.6" y1="131" y2="178.6" /><polygon fill="none" points="64,96.3 127.0,96.3 95.5,27" stroke="black" stroke-width="2" transform="rotate(257,95.5,61.65)" /><rect fill="none" height="58.52" stroke="black" stroke-width="2" transform="rotate(108,174.6,155.26)" width="53.199999999999996" x="148" y="126" /><polygon fill="none" points="58,126.06 112.6,126.06 85.3,66" stroke="black" stroke-width="2" transform="rotate(394,85.3,96.03)" /></g><text font-family="Arial" font-size="14" text-anchor="middle" x="425" y="380">Option 2</text><g transform="translate(350,400)"><line stroke="black" stroke-width="2" transform="rotate(185,81.0,55.0)" x1="62" x2="100" y1="36" y2="74" /><line stroke="black" stroke-width="2" transform="rotate(287,114.0,123.0)" x1="92" x2="136" y1="101" y2="145" /><polygon fill="none" points="68,53 103,53 85.5,18" stroke="black" stroke-width="2" transform="rotate(323,85.5,35.5)" /><line stroke="black" stroke-width="2" transform="rotate(102,147.5,45.5)" x1="127" x2="168" y1="25" y2="66" /><line stroke="black" stroke-width="2" transform="rotate(82,120.0,148.0)" x1="103" x2="137" y1="131" y2="165" /><circle cx="64" cy="27" fill="none" r="22.5" stroke="black" stroke-width="2" /><rect fill="none" height="38" stroke="black" stroke-width="2" transform="rotate(59,167.0,145.0)" width="38" x="148" y="126" /><line stroke="black" stroke-width="2" transform="rotate(342,77.5,85.5)" x1="58" x2="97" y1="66" y2="105" /></g><text font-family="Arial" font-size="14" text-anchor="middle" x="175" y="630">Option 3</text><g transform="translate(100,650)"><line stroke="black" stroke-width="2" transform="rotate(233,88.6,62.599999999999994)" x1="62" x2="115.19999999999999" y1="36" y2="89.19999999999999" /><rect fill="none" height="67.76" stroke="black" stroke-width="2" transform="rotate(337,122.8,134.88)" width="61.599999999999994" x="92" y="101" /><rect fill="none" height="53.900000000000006" stroke="black" stroke-width="2" transform="rotate(372,92.5,44.95)" width="49.0" x="68" y="18" /><polygon fill="none" points="127,88.14 184.4,88.14 155.7,25" stroke="black" stroke-width="2" transform="rotate(153,155.7,56.57)" /><line stroke="black" stroke-width="2" transform="rotate(133,126.8,154.8)" x1="103" x2="150.6" y1="131" y2="178.6" /><polygon fill="none" points="64,96.3 127.0,96.3 95.5,27" stroke="black" stroke-width="2" transform="rotate(257,95.5,61.65)" /><line stroke="black" stroke-width="2" transform="rotate(111,174.6,152.6)" x1="148" x2="201.2" y1="126" y2="179.2" /><line stroke="black" stroke-width="2" transform="rotate(391,85.3,93.3)" x1="58" x2="112.6" y1="66" y2="120.6" /></g><text font-family="Arial" font-size="14" text-anchor="middle" x="425" y="630">Option 4</text><g transform="translate(350,650)"><polygon fill="none" points="62,94.52000000000001 115.19999999999999,94.52000000000001 88.6,36" stroke="black" stroke-width="2" transform="rotate(233,88.6,65.26)" /><line stroke="black" stroke-width="2" transform="rotate(338,122.8,131.8)" x1="92" x2="153.6" y1="101" y2="162.6" /><polygon fill="none" points="68,71.9 117.0,71.9 92.5,18" stroke="black" stroke-width="2" transform="rotate(375,92.5,44.95)" /><polygon fill="none" points="127,88.14 184.4,88.14 155.7,25" stroke="black" stroke-width="2" transform="rotate(152,155.7,56.57)" /><polygon fill="none" points="103,183.36 150.6,183.36 126.8,131" stroke="black" stroke-width="2" transform="rotate(130,126.8,157.18)" /><line stroke="black" stroke-width="2" transform="rotate(258,95.5,58.5)" x1="64" x2="127.0" y1="27" y2="90.0" /><line stroke="black" stroke-width="2" transform="rotate(111,174.6,152.6)" x1="148" x2="201.2" y1="126" y2="179.2" /><polygon fill="none" points="58,126.06 112.6,126.06 85.3,66" stroke="black" stroke-width="2" transform="rotate(392,85.3,96.03)" /></g></svg>