<?xml version="1.0" encoding="utf-8" ?>
<svg baseProfile="full" height="1000px" version="1.1" width="600px" xmlns="http://www.w3.org/2000/svg" xmlns:ev="http://www.w3.org/2001/xml-events" xmlns:xlink="http://www.w3.org/1999/xlink"><defs /><rect fill="white" height="100%" width="100%" x="0" y="0" /><text font-family="Arial" font-size="24" text-anchor="middle" x="300" y="40">Visual Discrimination Test</text><text font-family="Arial" font-size="18" text-anchor="middle" x="300" y="80">Target Pattern</text><g transform="translate(200,100)"><line stroke="black" stroke-width="2" transform="rotate(220,101.5,76.5)" x1="78" x2="125" y1="53" y2="100" /><polygon fill="none" points="93,96 140,96 116.5,49" stroke="black" stroke-width="2" transform="rotate(121,116.5,72.5)" /><rect fill="none" height="40" stroke="black" stroke-width="2" transform="rotate(100,158.0,101.0)" width="40" x="138" y="81" /><circle cx="115" cy="26" fill="none" r="25.0" stroke="black" stroke-width="2" /><line stroke="black" stroke-width="2" transform="rotate(340,35.0,116.0)" x1="11" x2="59" y1="92" y2="140" /><rect fill="none" height="31" stroke="black" stroke-width="2" transform="rotate(105,145.5,112.5)" width="31" x="130" y="97" /><circle cx="83" cy="78" fill="none" r="23.0" stroke="black" stroke-width="2" /><circle cx="67" cy="66" fill="none" r="25.0" stroke="black" stroke-width="2" /><line stroke="black" stroke-width="2" transform="rotate(110,86.0,149.0)" x1="67" x2="105" y1="130" y2="168" /><line stroke="black" stroke-width="2" transform="rotate(109,44.0,132.0)" x1="22" x2="66" y1="110" y2="154" /></g><text font-family="Arial" font-size="18" text-anchor="middle" x="300" y="350">Options</text><text font-family="Arial" font-size="14" text-anchor="middle" x="175" y="380">Option 1</text><g transform="translate(100,400)"><line stroke="black" stroke-width="2" transform="rotate(270,110.9,85.9)" x1="78" x2="143.8" y1="53" y2="118.8" /><line stroke="black" stroke-width="2" transform="rotate(171,125.9,81.9)" x1="93" x2="158.8" y1="49" y2="114.8" /><line stroke="black" stroke-width="2" transform="rotate(150,166.0,109.0)" x1="138" x2="194.0" y1="81" y2="137.0" /><polygon fill="none" points="115,103.0 185.0,103.0 150.0,26" stroke="black" stroke-width="2" transform="rotate(212,150.0,64.5)" /><rect fill="none" height="73.91999999999999" stroke="black" stroke-width="2" transform="rotate(392,44.599999999999994,128.95999999999998)" width="67.19999999999999" x="11" y="92" /><line stroke="black" stroke-width="2" transform="rotate(154,151.7,118.7)" x1="130" x2="173.4" y1="97" y2="140.4" /><rect fill="none" height="70.84" stroke="black" stroke-width="2" transform="rotate(129,115.19999999999999,113.42)" width="64.39999999999999" x="83" y="78" /><rect fill="none" height="77.0" stroke="black" stroke-width="2" transform="rotate(140,102.0,104.5)" width="70.0" x="67" y="66" /><rect fill="none" height="58.52" stroke="black" stroke-width="2" transform="rotate(161,93.6,159.26)" width="53.199999999999996" x="67" y="130" /><polygon fill="none" points="22,177.76 83.6,177.76 52.8,110" stroke="black" stroke-width="2" transform="rotate(161,52.8,143.88)" /></g><text font-family="Arial" font-size="14" text-anchor="middle" x="425" y="380">Option 2</text><g transform="translate(350,400)"><line stroke="black" stroke-width="2" transform="rotate(220,101.5,76.5)" x1="78" x2="125" y1="53" y2="100" /><polygon fill="none" points="93,96 140,96 116.5,49" stroke="black" stroke-width="2" transform="rotate(121,116.5,72.5)" /><rect fill="none" height="40" stroke="black" stroke-width="2" transform="rotate(100,158.0,101.0)" width="40" x="138" y="81" /><circle cx="115" cy="26" fill="none" r="25.0" stroke="black" stroke-width="2" /><line stroke="black" stroke-width="2" transform="rotate(340,35.0,116.0)" x1="11" x2="59" y1="92" y2="140" /><rect fill="none" height="31" stroke="black" stroke-width="2" transform="rotate(105,145.5,112.5)" width="31" x="130" y="97" /><circle cx="83" cy="78" fill="none" r="23.0" stroke="black" stroke-width="2" /><circle cx="67" cy="66" fill="none" r="25.0" stroke="black" stroke-width="2" /><line stroke="black" stroke-width="2" transform="rotate(110,86.0,149.0)" x1="67" x2="105" y1="130" y2="168" /><line stroke="black" stroke-width="2" transform="rotate(109,44.0,132.0)" x1="22" x2="66" y1="110" y2="154" /></g><text font-family="Arial" font-size="14" text-anchor="middle" x="175" y="630">Option 3</text><g transform="translate(100,650)"><line stroke="black" stroke-width="2" transform="rotate(268,110.9,85.9)" x1="78" x2="143.8" y1="53" y2="118.8" /><line stroke="black" stroke-width="2" transform="rotate(170,125.9,81.9)" x1="93" x2="158.8" y1="49" y2="114.8" /><rect fill="none" height="61.60000000000001" stroke="black" stroke-width="2" transform="rotate(150,166.0,111.80000000000001)" width="56.0" x="138" y="81" /><rect fill="none" height="77.0" stroke="black" stroke-width="2" transform="rotate(211,150.0,64.5)" width="70.0" x="115" y="26" /><rect fill="none" height="73.91999999999999" stroke="black" stroke-width="2" transform="rotate(390,44.599999999999994,128.95999999999998)" width="67.19999999999999" x="11" y="92" /><rect fill="none" height="47.74" stroke="black" stroke-width="2" transform="rotate(154,151.7,120.87)" width="43.4" x="130" y="97" /><line stroke="black" stroke-width="2" transform="rotate(126,115.19999999999999,110.19999999999999)" x1="83" x2="147.39999999999998" y1="78" y2="142.39999999999998" /><polygon fill="none" points="67,143.0 137.0,143.0 102.0,66" stroke="black" stroke-width="2" transform="rotate(138,102.0,104.5)" /><line stroke="black" stroke-width="2" transform="rotate(159,93.6,156.6)" x1="67" x2="120.19999999999999" y1="130" y2="183.2" /><line stroke="black" stroke-width="2" transform="rotate(159,52.8,140.8)" x1="22" x2="83.6" y1="110" y2="171.6" /></g><text font-family="Arial" font-size="14" text-anchor="middle" x="425" y="630">Option 4</text><g transform="translate(350,650)"><line stroke="black" stroke-width="2" transform="rotate(270,110.9,85.9)" x1="78" x2="143.8" y1="53" y2="118.8" /><line stroke="black" stroke-width="2" transform="rotate(169,125.9,81.9)" x1="93" x2="158.8" y1="49" y2="114.8" /><polygon fill="none" points="138,142.60000000000002 194.0,142.60000000000002 166.0,81" stroke="black" stroke-width="2" transform="rotate(152,166.0,111.80000000000001)" /><line stroke="black" stroke-width="2" transform="rotate(212,150.0,61.0)" x1="115" x2="185.0" y1="26" y2="96.0" /><rect fill="none" height="73.91999999999999" stroke="black" stroke-width="2" transform="rotate(390,44.599999999999994,128.95999999999998)" width="67.19999999999999" x="11" y="92" /><rect fill="none" height="47.74" stroke="black" stroke-width="2" transform="rotate(154,151.7,120.87)" width="43.4" x="130" y="97" /><polygon fill="none" points="83,148.84 147.39999999999998,148.84 115.19999999999999,78" stroke="black" stroke-width="2" transform="rotate(125,115.19999999999999,113.42)" /><rect fill="none" height="77.0" stroke="black" stroke-width="2" transform="rotate(139,102.0,104.5)" width="70.0" x="67" y="66" /><rect fill="none" height="58.52" stroke="black" stroke-width="2" transform="rotate(162,93.6,159.26)" width="53.199999999999996" x="67" y="130" /><line stroke="black" stroke-width="2" transform="rotate(159,52.8,140.8)" x1="22" x2="83.6" y1="110" y2="171.6" /></g></svg>