<?xml version="1.0" encoding="utf-8" ?>
<svg baseProfile="full" height="1000px" version="1.1" width="600px" xmlns="http://www.w3.org/2000/svg" xmlns:ev="http://www.w3.org/2001/xml-events" xmlns:xlink="http://www.w3.org/1999/xlink"><defs /><rect fill="white" height="100%" width="100%" x="0" y="0" /><text font-family="Arial" font-size="24" text-anchor="middle" x="300" y="40">Visual Discrimination Test</text><text font-family="Arial" font-size="18" text-anchor="middle" x="300" y="80">Target Pattern</text><g transform="translate(200,100)"><line stroke="black" stroke-width="2" transform="rotate(239,65.0,122.0)" x1="47" x2="83" y1="104" y2="140" /><polygon fill="none" points="134,152 166,152 150.0,120" stroke="black" stroke-width="2" transform="rotate(207,150.0,136.0)" /><circle cx="34" cy="53" fill="none" r="17.5" stroke="black" stroke-width="2" /></g><text font-family="Arial" font-size="18" text-anchor="middle" x="300" y="350">Options</text><text font-family="Arial" font-size="14" text-anchor="middle" x="175" y="380">Option 1</text><g transform="translate(100,400)"><polygon fill="none" points="47,159.44 97.4,159.44 72.2,104" stroke="black" stroke-width="2" transform="rotate(288,72.2,131.72)" /><line stroke="black" stroke-width="2" transform="rotate(258,156.4,142.4)" x1="134" x2="178.8" y1="120" y2="164.8" /><rect fill="none" height="53.900000000000006" stroke="black" stroke-width="2" transform="rotate(145,58.5,79.95)" width="49.0" x="34" y="53" /></g><text font-family="Arial" font-size="14" text-anchor="middle" x="425" y="380">Option 2</text><g transform="translate(350,400)"><line stroke="black" stroke-width="2" transform="rotate(239,65.0,122.0)" x1="47" x2="83" y1="104" y2="140" /><polygon fill="none" points="134,152 166,152 150.0,120" stroke="black" stroke-width="2" transform="rotate(207,150.0,136.0)" /><circle cx="34" cy="53" fill="none" r="17.5" stroke="black" stroke-width="2" /></g><text font-family="Arial" font-size="14" text-anchor="middle" x="175" y="630">Option 3</text><g transform="translate(100,650)"><rect fill="none" height="55.440000000000005" stroke="black" stroke-width="2" transform="rotate(291,72.2,131.72)" width="50.4" x="47" y="104" /><polygon fill="none" points="134,169.28 178.8,169.28 156.4,120" stroke="black" stroke-width="2" transform="rotate(258,156.4,144.64)" /><rect fill="none" height="53.900000000000006" stroke="black" stroke-width="2" transform="rotate(143,58.5,79.95)" width="49.0" x="34" y="53" /></g><text font-family="Arial" font-size="14" text-anchor="middle" x="425" y="630">Option 4</text><g transform="translate(350,650)"><polygon fill="none" points="47,159.44 97.4,159.44 72.2,104" stroke="black" stroke-width="2" transform="rotate(290,72.2,131.72)" /><rect fill="none" height="49.28" stroke="black" stroke-width="2" transform="rotate(257,156.4,144.64)" width="44.8" x="134" y="120" /><rect fill="none" height="53.900000000000006" stroke="black" stroke-width="2" transform="rotate(147,58.5,79.95)" width="49.0" x="34" y="53" /></g></svg>