<?xml version="1.0" encoding="utf-8" ?>
<svg baseProfile="full" height="1000px" version="1.1" width="600px" xmlns="http://www.w3.org/2000/svg" xmlns:ev="http://www.w3.org/2001/xml-events" xmlns:xlink="http://www.w3.org/1999/xlink"><defs /><rect fill="white" height="100%" width="100%" x="0" y="0" /><text font-family="Arial" font-size="24" text-anchor="middle" x="300" y="40">Visual Discrimination Test</text><text font-family="Arial" font-size="18" text-anchor="middle" x="300" y="80">Target Pattern</text><g transform="translate(200,100)"><circle cx="66" cy="52" fill="none" r="15.0" stroke="black" stroke-width="2" /><polygon fill="none" points="39,183 79,183 59.0,143" stroke="black" stroke-width="2" transform="rotate(135,59.0,163.0)" /><circle cx="11" cy="109" fill="none" r="17.0" stroke="black" stroke-width="2" /><polygon fill="none" points="13,103 54,103 33.5,62" stroke="black" stroke-width="2" transform="rotate(80,33.5,82.5)" /><rect fill="none" height="40" stroke="black" stroke-width="2" transform="rotate(144,90.0,138.0)" width="40" x="70" y="118" /><line stroke="black" stroke-width="2" transform="rotate(360,167.5,143.5)" x1="143" x2="192" y1="119" y2="168" /><line stroke="black" stroke-width="2" transform="rotate(318,95.5,49.5)" x1="73" x2="118" y1="27" y2="72" /><polygon fill="none" points="79,80 120,80 99.5,39" stroke="black" stroke-width="2" transform="rotate(105,99.5,59.5)" /><rect fill="none" height="40" stroke="black" stroke-width="2" transform="rotate(291,58.0,112.0)" width="40" x="38" y="92" /></g><text font-family="Arial" font-size="18" text-anchor="middle" x="300" y="350">Options</text><text font-family="Arial" font-size="14" text-anchor="middle" x="175" y="380">Option 1</text><g transform="translate(100,400)"><circle cx="66" cy="52" fill="none" r="15.0" stroke="black" stroke-width="2" /><polygon fill="none" points="39,183 79,183 59.0,143" stroke="black" stroke-width="2" transform="rotate(135,59.0,163.0)" /><circle cx="11" cy="109" fill="none" r="17.0" stroke="black" stroke-width="2" /><polygon fill="none" points="13,103 54,103 33.5,62" stroke="black" stroke-width="2" transform="rotate(80,33.5,82.5)" /><rect fill="none" height="40" stroke="black" stroke-width="2" transform="rotate(144,90.0,138.0)" width="40" x="70" y="118" /><line stroke="black" stroke-width="2" transform="rotate(360,167.5,143.5)" x1="143" x2="192" y1="119" y2="168" /><line stroke="black" stroke-width="2" transform="rotate(318,95.5,49.5)" x1="73" x2="118" y1="27" y2="72" /><polygon fill="none" points="79,80 120,80 99.5,39" stroke="black" stroke-width="2" transform="rotate(105,99.5,59.5)" /><rect fill="none" height="40" stroke="black" stroke-width="2" transform="rotate(291,58.0,112.0)" width="40" x="38" y="92" /></g><text font-family="Arial" font-size="14" text-anchor="middle" x="425" y="380">Option 2</text><g transform="translate(350,400)"><circle cx="66" cy="52" fill="none" r="21.0" stroke="black" stroke-width="2" /><polygon fill="none" points="39,187.8 95.0,187.8 67.0,143" stroke="black" stroke-width="2" transform="rotate(141,67.0,165.4)" /><circle cx="11" cy="109" fill="none" r="23.799999999999997" stroke="black" stroke-width="2" /><polygon fill="none" points="13,107.92 70.4,107.92 41.7,62" stroke="black" stroke-width="2" transform="rotate(84,41.7,84.96000000000001)" /><rect fill="none" height="44.800000000000004" stroke="black" stroke-width="2" transform="rotate(150,98.0,140.4)" width="56.0" x="70" y="118" /><line stroke="black" stroke-width="2" transform="rotate(366,177.3,153.3)" x1="143" x2="211.6" y1="119" y2="187.6" /><line stroke="black" stroke-width="2" transform="rotate(321,104.5,58.5)" x1="73" x2="136.0" y1="27" y2="90.0" /><polygon fill="none" points="79,84.92 136.4,84.92 107.7,39" stroke="black" stroke-width="2" transform="rotate(108,107.7,61.96)" /><rect fill="none" height="44.800000000000004" stroke="black" stroke-width="2" transform="rotate(294,66.0,114.4)" width="56.0" x="38" y="92" /></g><text font-family="Arial" font-size="14" text-anchor="middle" x="175" y="630">Option 3</text><g transform="translate(100,650)"><circle cx="66" cy="52" fill="none" r="21.0" stroke="black" stroke-width="2" /><polygon fill="none" points="39,187.8 95.0,187.8 67.0,143" stroke="black" stroke-width="2" transform="rotate(139,67.0,165.4)" /><circle cx="11" cy="109" fill="none" r="23.799999999999997" stroke="black" stroke-width="2" /><polygon fill="none" points="13,107.92 70.4,107.92 41.7,62" stroke="black" stroke-width="2" transform="rotate(87,41.7,84.96000000000001)" /><rect fill="none" height="44.800000000000004" stroke="black" stroke-width="2" transform="rotate(147,98.0,140.4)" width="56.0" x="70" y="118" /><line stroke="black" stroke-width="2" transform="rotate(367,177.3,153.3)" x1="143" x2="211.6" y1="119" y2="187.6" /><line stroke="black" stroke-width="2" transform="rotate(325,104.5,58.5)" x1="73" x2="136.0" y1="27" y2="90.0" /><polygon fill="none" points="79,84.92 136.4,84.92 107.7,39" stroke="black" stroke-width="2" transform="rotate(112,107.7,61.96)" /><rect fill="none" height="44.800000000000004" stroke="black" stroke-width="2" transform="rotate(298,66.0,114.4)" width="56.0" x="38" y="92" /></g><text font-family="Arial" font-size="14" text-anchor="middle" x="425" y="630">Option 4</text><g transform="translate(350,650)"><circle cx="66" cy="52" fill="none" r="21.0" stroke="black" stroke-width="2" /><polygon fill="none" points="39,187.8 95.0,187.8 67.0,143" stroke="black" stroke-width="2" transform="rotate(142,67.0,165.4)" /><circle cx="11" cy="109" fill="none" r="23.799999999999997" stroke="black" stroke-width="2" /><polygon fill="none" points="13,107.92 70.4,107.92 41.7,62" stroke="black" stroke-width="2" transform="rotate(85,41.7,84.96000000000001)" /><rect fill="none" height="44.800000000000004" stroke="black" stroke-width="2" transform="rotate(151,98.0,140.4)" width="56.0" x="70" y="118" /><line stroke="black" stroke-width="2" transform="rotate(364,177.3,153.3)" x1="143" x2="211.6" y1="119" y2="187.6" /><line stroke="black" stroke-width="2" transform="rotate(321,104.5,58.5)" x1="73" x2="136.0" y1="27" y2="90.0" /><polygon fill="none" points="79,84.92 136.4,84.92 107.7,39" stroke="black" stroke-width="2" transform="rotate(108,107.7,61.96)" /><rect fill="none" height="44.800000000000004" stroke="black" stroke-width="2" transform="rotate(298,66.0,114.4)" width="56.0" x="38" y="92" /></g></svg>