<?xml version="1.0" encoding="utf-8" ?>
<svg baseProfile="full" height="1000px" version="1.1" width="600px" xmlns="http://www.w3.org/2000/svg" xmlns:ev="http://www.w3.org/2001/xml-events" xmlns:xlink="http://www.w3.org/1999/xlink"><defs /><rect fill="white" height="100%" width="100%" x="0" y="0" /><text font-family="Arial" font-size="24" text-anchor="middle" x="300" y="40">Visual Discrimination Test</text><text font-family="Arial" font-size="18" text-anchor="middle" x="300" y="80">Target Pattern</text><g transform="translate(200,100)"><polygon fill="none" points="91,107 136,107 113.5,62" stroke="black" stroke-width="2" transform="rotate(279,113.5,84.5)" /><polygon fill="none" points="32,157 74,157 53.0,115" stroke="black" stroke-width="2" transform="rotate(161,53.0,136.0)" /><line stroke="black" stroke-width="2" transform="rotate(82,150.5,164.5)" x1="127" x2="174" y1="141" y2="188" /><rect fill="none" height="49" stroke="black" stroke-width="2" transform="rotate(21,112.5,79.5)" width="49" x="88" y="55" /><polygon fill="none" points="147,139 187,139 167.0,99" stroke="black" stroke-width="2" transform="rotate(309,167.0,119.0)" /><rect fill="none" height="32" stroke="black" stroke-width="2" transform="rotate(293,116.0,137.0)" width="32" x="100" y="121" /><circle cx="10" cy="56" fill="none" r="22.5" stroke="black" stroke-width="2" /></g><text font-family="Arial" font-size="18" text-anchor="middle" x="300" y="350">Options</text><text font-family="Arial" font-size="14" text-anchor="middle" x="175" y="380">Option 1</text><g transform="translate(100,400)"><polygon fill="none" points="91,112.4 127.0,112.4 109.0,62" stroke="black" stroke-width="2" transform="rotate(327,109.0,87.2)" /><polygon fill="none" points="32,162.04 65.6,162.04 48.8,115" stroke="black" stroke-width="2" transform="rotate(211,48.8,138.52)" /><line stroke="black" stroke-width="2" transform="rotate(134,145.8,159.8)" x1="127" x2="164.6" y1="141" y2="178.6" /><rect fill="none" height="54.88" stroke="black" stroke-width="2" transform="rotate(70,107.6,82.44)" width="39.2" x="88" y="55" /><polygon fill="none" points="147,143.8 179.0,143.8 163.0,99" stroke="black" stroke-width="2" transform="rotate(359,163.0,121.4)" /><rect fill="none" height="35.839999999999996" stroke="black" stroke-width="2" transform="rotate(342,112.8,138.92)" width="25.6" x="100" y="121" /><circle cx="10" cy="56" fill="none" r="18.0" stroke="black" stroke-width="2" /></g><text font-family="Arial" font-size="14" text-anchor="middle" x="425" y="380">Option 2</text><g transform="translate(350,400)"><polygon fill="none" points="91,107 136,107 113.5,62" stroke="black" stroke-width="2" transform="rotate(279,113.5,84.5)" /><polygon fill="none" points="32,157 74,157 53.0,115" stroke="black" stroke-width="2" transform="rotate(161,53.0,136.0)" /><line stroke="black" stroke-width="2" transform="rotate(82,150.5,164.5)" x1="127" x2="174" y1="141" y2="188" /><rect fill="none" height="49" stroke="black" stroke-width="2" transform="rotate(21,112.5,79.5)" width="49" x="88" y="55" /><polygon fill="none" points="147,139 187,139 167.0,99" stroke="black" stroke-width="2" transform="rotate(309,167.0,119.0)" /><rect fill="none" height="32" stroke="black" stroke-width="2" transform="rotate(293,116.0,137.0)" width="32" x="100" y="121" /><circle cx="10" cy="56" fill="none" r="22.5" stroke="black" stroke-width="2" /></g><text font-family="Arial" font-size="14" text-anchor="middle" x="175" y="630">Option 3</text><g transform="translate(100,650)"><polygon fill="none" points="91,112.4 127.0,112.4 109.0,62" stroke="black" stroke-width="2" transform="rotate(329,109.0,87.2)" /><polygon fill="none" points="32,162.04 65.6,162.04 48.8,115" stroke="black" stroke-width="2" transform="rotate(213,48.8,138.52)" /><line stroke="black" stroke-width="2" transform="rotate(133,145.8,159.8)" x1="127" x2="164.6" y1="141" y2="178.6" /><rect fill="none" height="54.88" stroke="black" stroke-width="2" transform="rotate(69,107.6,82.44)" width="39.2" x="88" y="55" /><polygon fill="none" points="147,143.8 179.0,143.8 163.0,99" stroke="black" stroke-width="2" transform="rotate(359,163.0,121.4)" /><rect fill="none" height="35.839999999999996" stroke="black" stroke-width="2" transform="rotate(341,112.8,138.92)" width="25.6" x="100" y="121" /><circle cx="10" cy="56" fill="none" r="18.0" stroke="black" stroke-width="2" /></g><text font-family="Arial" font-size="14" text-anchor="middle" x="425" y="630">Option 4</text><g transform="translate(350,650)"><polygon fill="none" points="91,112.4 127.0,112.4 109.0,62" stroke="black" stroke-width="2" transform="rotate(330,109.0,87.2)" /><polygon fill="none" points="32,162.04 65.6,162.04 48.8,115" stroke="black" stroke-width="2" transform="rotate(209,48.8,138.52)" /><line stroke="black" stroke-width="2" transform="rotate(132,145.8,159.8)" x1="127" x2="164.6" y1="141" y2="178.6" /><rect fill="none" height="54.88" stroke="black" stroke-width="2" transform="rotate(73,107.6,82.44)" width="39.2" x="88" y="55" /><polygon fill="none" points="147,143.8 179.0,143.8 163.0,99" stroke="black" stroke-width="2" transform="rotate(358,163.0,121.4)" /><rect fill="none" height="35.839999999999996" stroke="black" stroke-width="2" transform="rotate(344,112.8,138.92)" width="25.6" x="100" y="121" /><circle cx="10" cy="56" fill="none" r="18.0" stroke="black" stroke-width="2" /></g></svg>