<?xml version="1.0" encoding="utf-8" ?>
<svg baseProfile="full" height="1000px" version="1.1" width="600px" xmlns="http://www.w3.org/2000/svg" xmlns:ev="http://www.w3.org/2001/xml-events" xmlns:xlink="http://www.w3.org/1999/xlink"><defs /><rect fill="white" height="100%" width="100%" x="0" y="0" /><text font-family="Arial" font-size="24" text-anchor="middle" x="300" y="40">Visual Discrimination Test</text><text font-family="Arial" font-size="18" text-anchor="middle" x="300" y="80">Target Pattern</text><g transform="translate(200,100)"><rect fill="none" height="42" stroke="black" stroke-width="2" transform="rotate(214,142.0,120.0)" width="42" x="121" y="99" /><circle cx="118" cy="73" fill="none" r="24.0" stroke="black" stroke-width="2" /><line stroke="black" stroke-width="2" transform="rotate(251,120.5,103.5)" x1="105" x2="136" y1="88" y2="119" /><rect fill="none" height="34" stroke="black" stroke-width="2" transform="rotate(22,64.0,55.0)" width="34" x="47" y="38" /><line stroke="black" stroke-width="2" transform="rotate(291,154.5,42.5)" x1="130" x2="179" y1="18" y2="67" /><polygon fill="none" points="129,70 162,70 145.5,37" stroke="black" stroke-width="2" transform="rotate(275,145.5,53.5)" /><rect fill="none" height="50" stroke="black" stroke-width="2" transform="rotate(335,169.0,89.0)" width="50" x="144" y="64" /><rect fill="none" height="40" stroke="black" stroke-width="2" transform="rotate(85,44.0,85.0)" width="40" x="24" y="65" /></g><text font-family="Arial" font-size="18" text-anchor="middle" x="300" y="350">Options</text><text font-family="Arial" font-size="14" text-anchor="middle" x="175" y="380">Option 1</text><g transform="translate(100,400)"><rect fill="none" height="47.04" stroke="black" stroke-width="2" transform="rotate(263,137.8,122.52)" width="33.6" x="121" y="99" /><circle cx="118" cy="73" fill="none" r="19.200000000000003" stroke="black" stroke-width="2" /><line stroke="black" stroke-width="2" transform="rotate(303,117.4,100.4)" x1="105" x2="129.8" y1="88" y2="112.8" /><rect fill="none" height="38.08" stroke="black" stroke-width="2" transform="rotate(74,60.6,57.04)" width="27.200000000000003" x="47" y="38" /><line stroke="black" stroke-width="2" transform="rotate(339,149.6,37.6)" x1="130" x2="169.2" y1="18" y2="57.2" /><polygon fill="none" points="129,73.96000000000001 155.4,73.96000000000001 142.2,37" stroke="black" stroke-width="2" transform="rotate(326,142.2,55.480000000000004)" /><rect fill="none" height="56.0" stroke="black" stroke-width="2" transform="rotate(383,164.0,92.0)" width="40.0" x="144" y="64" /><rect fill="none" height="44.8" stroke="black" stroke-width="2" transform="rotate(136,40.0,87.4)" width="32.0" x="24" y="65" /></g><text font-family="Arial" font-size="14" text-anchor="middle" x="425" y="380">Option 2</text><g transform="translate(350,400)"><rect fill="none" height="47.04" stroke="black" stroke-width="2" transform="rotate(264,137.8,122.52)" width="33.6" x="121" y="99" /><circle cx="118" cy="73" fill="none" r="19.200000000000003" stroke="black" stroke-width="2" /><line stroke="black" stroke-width="2" transform="rotate(301,117.4,100.4)" x1="105" x2="129.8" y1="88" y2="112.8" /><rect fill="none" height="38.08" stroke="black" stroke-width="2" transform="rotate(70,60.6,57.04)" width="27.200000000000003" x="47" y="38" /><line stroke="black" stroke-width="2" transform="rotate(341,149.6,37.6)" x1="130" x2="169.2" y1="18" y2="57.2" /><polygon fill="none" points="129,73.96000000000001 155.4,73.96000000000001 142.2,37" stroke="black" stroke-width="2" transform="rotate(327,142.2,55.480000000000004)" /><rect fill="none" height="56.0" stroke="black" stroke-width="2" transform="rotate(386,164.0,92.0)" width="40.0" x="144" y="64" /><rect fill="none" height="44.8" stroke="black" stroke-width="2" transform="rotate(133,40.0,87.4)" width="32.0" x="24" y="65" /></g><text font-family="Arial" font-size="14" text-anchor="middle" x="175" y="630">Option 3</text><g transform="translate(100,650)"><rect fill="none" height="47.04" stroke="black" stroke-width="2" transform="rotate(262,137.8,122.52)" width="33.6" x="121" y="99" /><circle cx="118" cy="73" fill="none" r="19.200000000000003" stroke="black" stroke-width="2" /><line stroke="black" stroke-width="2" transform="rotate(299,117.4,100.4)" x1="105" x2="129.8" y1="88" y2="112.8" /><rect fill="none" height="38.08" stroke="black" stroke-width="2" transform="rotate(72,60.6,57.04)" width="27.200000000000003" x="47" y="38" /><line stroke="black" stroke-width="2" transform="rotate(341,149.6,37.6)" x1="130" x2="169.2" y1="18" y2="57.2" /><polygon fill="none" points="129,73.96000000000001 155.4,73.96000000000001 142.2,37" stroke="black" stroke-width="2" transform="rotate(326,142.2,55.480000000000004)" /><rect fill="none" height="56.0" stroke="black" stroke-width="2" transform="rotate(386,164.0,92.0)" width="40.0" x="144" y="64" /><rect fill="none" height="44.8" stroke="black" stroke-width="2" transform="rotate(136,40.0,87.4)" width="32.0" x="24" y="65" /></g><text font-family="Arial" font-size="14" text-anchor="middle" x="425" y="630">Option 4</text><g transform="translate(350,650)"><rect fill="none" height="42" stroke="black" stroke-width="2" transform="rotate(214,142.0,120.0)" width="42" x="121" y="99" /><circle cx="118" cy="73" fill="none" r="24.0" stroke="black" stroke-width="2" /><line stroke="black" stroke-width="2" transform="rotate(251,120.5,103.5)" x1="105" x2="136" y1="88" y2="119" /><rect fill="none" height="34" stroke="black" stroke-width="2" transform="rotate(22,64.0,55.0)" width="34" x="47" y="38" /><line stroke="black" stroke-width="2" transform="rotate(291,154.5,42.5)" x1="130" x2="179" y1="18" y2="67" /><polygon fill="none" points="129,70 162,70 145.5,37" stroke="black" stroke-width="2" transform="rotate(275,145.5,53.5)" /><rect fill="none" height="50" stroke="black" stroke-width="2" transform="rotate(335,169.0,89.0)" width="50" x="144" y="64" /><rect fill="none" height="40" stroke="black" stroke-width="2" transform="rotate(85,44.0,85.0)" width="40" x="24" y="65" /></g></svg>