<?xml version="1.0" encoding="utf-8" ?>
<svg baseProfile="full" height="1000px" version="1.1" width="600px" xmlns="http://www.w3.org/2000/svg" xmlns:ev="http://www.w3.org/2001/xml-events" xmlns:xlink="http://www.w3.org/1999/xlink"><defs /><rect fill="white" height="100%" width="100%" x="0" y="0" /><text font-family="Arial" font-size="24" text-anchor="middle" x="300" y="40">Visual Discrimination Test</text><text font-family="Arial" font-size="18" text-anchor="middle" x="300" y="80">Target Pattern</text><g transform="translate(200,100)"><circle cx="138" cy="94" fill="none" r="23.5" stroke="black" stroke-width="2" /><line stroke="black" stroke-width="2" transform="rotate(285,94.5,165.5)" x1="78" x2="111" y1="149" y2="182" /><circle cx="116" cy="53" fill="none" r="23.5" stroke="black" stroke-width="2" /><circle cx="105" cy="134" fill="none" r="15.5" stroke="black" stroke-width="2" /><polygon fill="none" points="90,112 124,112 107.0,78" stroke="black" stroke-width="2" transform="rotate(252,107.0,95.0)" /><line stroke="black" stroke-width="2" transform="rotate(246,44.0,49.0)" x1="20" x2="68" y1="25" y2="73" /><polygon fill="none" points="118,109 154,109 136.0,73" stroke="black" stroke-width="2" transform="rotate(155,136.0,91.0)" /><rect fill="none" height="46" stroke="black" stroke-width="2" transform="rotate(280,137.0,97.0)" width="46" x="114" y="74" /></g><text font-family="Arial" font-size="18" text-anchor="middle" x="300" y="350">Options</text><text font-family="Arial" font-size="14" text-anchor="middle" x="175" y="380">Option 1</text><g transform="translate(100,400)"><circle cx="138" cy="94" fill="none" r="18.8" stroke="black" stroke-width="2" /><line stroke="black" stroke-width="2" transform="rotate(335,91.2,162.2)" x1="78" x2="104.4" y1="149" y2="175.4" /><circle cx="116" cy="53" fill="none" r="18.8" stroke="black" stroke-width="2" /><circle cx="105" cy="134" fill="none" r="12.4" stroke="black" stroke-width="2" /><polygon fill="none" points="90,116.08 117.2,116.08 103.6,78" stroke="black" stroke-width="2" transform="rotate(304,103.6,97.03999999999999)" /><line stroke="black" stroke-width="2" transform="rotate(296,39.2,44.2)" x1="20" x2="58.400000000000006" y1="25" y2="63.400000000000006" /><polygon fill="none" points="118,113.32 146.8,113.32 132.4,73" stroke="black" stroke-width="2" transform="rotate(204,132.4,93.16)" /><rect fill="none" height="51.52" stroke="black" stroke-width="2" transform="rotate(331,132.4,99.76)" width="36.800000000000004" x="114" y="74" /></g><text font-family="Arial" font-size="14" text-anchor="middle" x="425" y="380">Option 2</text><g transform="translate(350,400)"><circle cx="138" cy="94" fill="none" r="18.8" stroke="black" stroke-width="2" /><line stroke="black" stroke-width="2" transform="rotate(334,91.2,162.2)" x1="78" x2="104.4" y1="149" y2="175.4" /><circle cx="116" cy="53" fill="none" r="18.8" stroke="black" stroke-width="2" /><circle cx="105" cy="134" fill="none" r="12.4" stroke="black" stroke-width="2" /><polygon fill="none" points="90,116.08 117.2,116.08 103.6,78" stroke="black" stroke-width="2" transform="rotate(304,103.6,97.03999999999999)" /><line stroke="black" stroke-width="2" transform="rotate(294,39.2,44.2)" x1="20" x2="58.400000000000006" y1="25" y2="63.400000000000006" /><polygon fill="none" points="118,113.32 146.8,113.32 132.4,73" stroke="black" stroke-width="2" transform="rotate(206,132.4,93.16)" /><rect fill="none" height="51.52" stroke="black" stroke-width="2" transform="rotate(328,132.4,99.76)" width="36.800000000000004" x="114" y="74" /></g><text font-family="Arial" font-size="14" text-anchor="middle" x="175" y="630">Option 3</text><g transform="translate(100,650)"><circle cx="138" cy="94" fill="none" r="23.5" stroke="black" stroke-width="2" /><line stroke="black" stroke-width="2" transform="rotate(285,94.5,165.5)" x1="78" x2="111" y1="149" y2="182" /><circle cx="116" cy="53" fill="none" r="23.5" stroke="black" stroke-width="2" /><circle cx="105" cy="134" fill="none" r="15.5" stroke="black" stroke-width="2" /><polygon fill="none" points="90,112 124,112 107.0,78" stroke="black" stroke-width="2" transform="rotate(252,107.0,95.0)" /><line stroke="black" stroke-width="2" transform="rotate(246,44.0,49.0)" x1="20" x2="68" y1="25" y2="73" /><polygon fill="none" points="118,109 154,109 136.0,73" stroke="black" stroke-width="2" transform="rotate(155,136.0,91.0)" /><rect fill="none" height="46" stroke="black" stroke-width="2" transform="rotate(280,137.0,97.0)" width="46" x="114" y="74" /></g><text font-family="Arial" font-size="14" text-anchor="middle" x="425" y="630">Option 4</text><g transform="translate(350,650)"><circle cx="138" cy="94" fill="none" r="18.8" stroke="black" stroke-width="2" /><line stroke="black" stroke-width="2" transform="rotate(337,91.2,162.2)" x1="78" x2="104.4" y1="149" y2="175.4" /><circle cx="116" cy="53" fill="none" r="18.8" stroke="black" stroke-width="2" /><circle cx="105" cy="134" fill="none" r="12.4" stroke="black" stroke-width="2" /><polygon fill="none" points="90,116.08 117.2,116.08 103.6,78" stroke="black" stroke-width="2" transform="rotate(303,103.6,97.03999999999999)" /><line stroke="black" stroke-width="2" transform="rotate(294,39.2,44.2)" x1="20" x2="58.400000000000006" y1="25" y2="63.400000000000006" /><polygon fill="none" points="118,113.32 146.8,113.32 132.4,73" stroke="black" stroke-width="2" transform="rotate(204,132.4,93.16)" /><rect fill="none" height="51.52" stroke="black" stroke-width="2" transform="rotate(329,132.4,99.76)" width="36.800000000000004" x="114" y="74" /></g></svg>