<?xml version="1.0" encoding="utf-8" ?>
<svg baseProfile="full" height="1000px" version="1.1" width="600px" xmlns="http://www.w3.org/2000/svg" xmlns:ev="http://www.w3.org/2001/xml-events" xmlns:xlink="http://www.w3.org/1999/xlink"><defs /><rect fill="white" height="100%" width="100%" x="0" y="0" /><text font-family="Arial" font-size="24" text-anchor="middle" x="300" y="40">Visual Discrimination Test</text><text font-family="Arial" font-size="18" text-anchor="middle" x="300" y="80">Target Pattern</text><g transform="translate(200,100)"><line stroke="black" stroke-width="2" transform="rotate(316,159.5,70.5)" x1="135" x2="184" y1="46" y2="95" /><polygon fill="none" points="115,173 148,173 131.5,140" stroke="black" stroke-width="2" transform="rotate(93,131.5,156.5)" /><circle cx="102" cy="10" fill="none" r="22.0" stroke="black" stroke-width="2" /><polygon fill="none" points="101,62 136,62 118.5,27" stroke="black" stroke-width="2" transform="rotate(165,118.5,44.5)" /><polygon fill="none" points="142,68 175,68 158.5,35" stroke="black" stroke-width="2" transform="rotate(324,158.5,51.5)" /></g><text font-family="Arial" font-size="18" text-anchor="middle" x="300" y="350">Options</text><text font-family="Arial" font-size="14" text-anchor="middle" x="175" y="380">Option 1</text><g transform="translate(100,400)"><line stroke="black" stroke-width="2" transform="rotate(365,154.6,65.6)" x1="135" x2="174.2" y1="46" y2="85.2" /><polygon fill="none" points="115,176.96 141.4,176.96 128.2,140" stroke="black" stroke-width="2" transform="rotate(141,128.2,158.48)" /><circle cx="102" cy="10" fill="none" r="17.6" stroke="black" stroke-width="2" /><polygon fill="none" points="101,66.19999999999999 129.0,66.19999999999999 115.0,27" stroke="black" stroke-width="2" transform="rotate(216,115.0,46.599999999999994)" /><polygon fill="none" points="142,71.96000000000001 168.4,71.96000000000001 155.2,35" stroke="black" stroke-width="2" transform="rotate(376,155.2,53.480000000000004)" /></g><text font-family="Arial" font-size="14" text-anchor="middle" x="425" y="380">Option 2</text><g transform="translate(350,400)"><line stroke="black" stroke-width="2" transform="rotate(316,159.5,70.5)" x1="135" x2="184" y1="46" y2="95" /><polygon fill="none" points="115,173 148,173 131.5,140" stroke="black" stroke-width="2" transform="rotate(93,131.5,156.5)" /><circle cx="102" cy="10" fill="none" r="22.0" stroke="black" stroke-width="2" /><polygon fill="none" points="101,62 136,62 118.5,27" stroke="black" stroke-width="2" transform="rotate(165,118.5,44.5)" /><polygon fill="none" points="142,68 175,68 158.5,35" stroke="black" stroke-width="2" transform="rotate(324,158.5,51.5)" /></g><text font-family="Arial" font-size="14" text-anchor="middle" x="175" y="630">Option 3</text><g transform="translate(100,650)"><line stroke="black" stroke-width="2" transform="rotate(365,154.6,65.6)" x1="135" x2="174.2" y1="46" y2="85.2" /><polygon fill="none" points="115,176.96 141.4,176.96 128.2,140" stroke="black" stroke-width="2" transform="rotate(141,128.2,158.48)" /><circle cx="102" cy="10" fill="none" r="17.6" stroke="black" stroke-width="2" /><polygon fill="none" points="101,66.19999999999999 129.0,66.19999999999999 115.0,27" stroke="black" stroke-width="2" transform="rotate(215,115.0,46.599999999999994)" /><polygon fill="none" points="142,71.96000000000001 168.4,71.96000000000001 155.2,35" stroke="black" stroke-width="2" transform="rotate(373,155.2,53.480000000000004)" /></g><text font-family="Arial" font-size="14" text-anchor="middle" x="425" y="630">Option 4</text><g transform="translate(350,650)"><line stroke="black" stroke-width="2" transform="rotate(366,154.6,65.6)" x1="135" x2="174.2" y1="46" y2="85.2" /><polygon fill="none" points="115,176.96 141.4,176.96 128.2,140" stroke="black" stroke-width="2" transform="rotate(143,128.2,158.48)" /><circle cx="102" cy="10" fill="none" r="17.6" stroke="black" stroke-width="2" /><polygon fill="none" points="101,66.19999999999999 129.0,66.19999999999999 115.0,27" stroke="black" stroke-width="2" transform="rotate(217,115.0,46.599999999999994)" /><polygon fill="none" points="142,71.96000000000001 168.4,71.96000000000001 155.2,35" stroke="black" stroke-width="2" transform="rotate(373,155.2,53.480000000000004)" /></g></svg>