<?xml version="1.0" encoding="utf-8" ?>
<svg baseProfile="full" height="1000px" version="1.1" width="600px" xmlns="http://www.w3.org/2000/svg" xmlns:ev="http://www.w3.org/2001/xml-events" xmlns:xlink="http://www.w3.org/1999/xlink"><defs /><rect fill="white" height="100%" width="100%" x="0" y="0" /><text font-family="Arial" font-size="24" text-anchor="middle" x="300" y="40">Visual Discrimination Test</text><text font-family="Arial" font-size="18" text-anchor="middle" x="300" y="80">Target Pattern</text><g transform="translate(200,100)"><line stroke="black" stroke-width="2" transform="rotate(281,46.0,93.0)" x1="31" x2="61" y1="78" y2="108" /><circle cx="59" cy="147" fill="none" r="24.5" stroke="black" stroke-width="2" /><circle cx="104" cy="19" fill="none" r="17.0" stroke="black" stroke-width="2" /></g><text font-family="Arial" font-size="18" text-anchor="middle" x="300" y="350">Options</text><text font-family="Arial" font-size="14" text-anchor="middle" x="175" y="380">Option 1</text><g transform="translate(100,400)"><line stroke="black" stroke-width="2" transform="rotate(331,43.0,90.0)" x1="31" x2="55.0" y1="78" y2="102.0" /><rect fill="none" height="54.88" stroke="black" stroke-width="2" transform="rotate(166,78.6,174.44)" width="39.2" x="59" y="147" /><rect fill="none" height="38.08" stroke="black" stroke-width="2" transform="rotate(278,117.6,38.04)" width="27.200000000000003" x="104" y="19" /></g><text font-family="Arial" font-size="14" text-anchor="middle" x="425" y="380">Option 2</text><g transform="translate(350,400)"><line stroke="black" stroke-width="2" transform="rotate(281,46.0,93.0)" x1="31" x2="61" y1="78" y2="108" /><circle cx="59" cy="147" fill="none" r="24.5" stroke="black" stroke-width="2" /><circle cx="104" cy="19" fill="none" r="17.0" stroke="black" stroke-width="2" /></g><text font-family="Arial" font-size="14" text-anchor="middle" x="175" y="630">Option 3</text><g transform="translate(100,650)"><rect fill="none" height="33.599999999999994" stroke="black" stroke-width="2" transform="rotate(332,43.0,94.8)" width="24.0" x="31" y="78" /><rect fill="none" height="54.88" stroke="black" stroke-width="2" transform="rotate(167,78.6,174.44)" width="39.2" x="59" y="147" /><line stroke="black" stroke-width="2" transform="rotate(276,117.6,32.6)" x1="104" x2="131.2" y1="19" y2="46.2" /></g><text font-family="Arial" font-size="14" text-anchor="middle" x="425" y="630">Option 4</text><g transform="translate(350,650)"><polygon fill="none" points="31,111.6 55.0,111.6 43.0,78" stroke="black" stroke-width="2" transform="rotate(332,43.0,94.8)" /><rect fill="none" height="54.88" stroke="black" stroke-width="2" transform="rotate(164,78.6,174.44)" width="39.2" x="59" y="147" /><polygon fill="none" points="104,57.08 131.2,57.08 117.6,19" stroke="black" stroke-width="2" transform="rotate(274,117.6,38.04)" /></g></svg>