<?xml version="1.0" encoding="utf-8" ?>
<svg baseProfile="full" height="1000px" version="1.1" width="600px" xmlns="http://www.w3.org/2000/svg" xmlns:ev="http://www.w3.org/2001/xml-events" xmlns:xlink="http://www.w3.org/1999/xlink"><defs /><rect fill="white" height="100%" width="100%" x="0" y="0" /><text font-family="Arial" font-size="24" text-anchor="middle" x="300" y="40">Visual Discrimination Test</text><text font-family="Arial" font-size="18" text-anchor="middle" x="300" y="80">Target Pattern</text><g transform="translate(200,100)"><line stroke="black" stroke-width="2" transform="rotate(300,136.0,51.0)" x1="113" x2="159" y1="28" y2="74" /><line stroke="black" stroke-width="2" transform="rotate(330,95.5,110.5)" x1="71" x2="120" y1="86" y2="135" /><circle cx="34" cy="103" fill="none" r="23.5" stroke="black" stroke-width="2" /></g><text font-family="Arial" font-size="18" text-anchor="middle" x="300" y="350">Options</text><text font-family="Arial" font-size="14" text-anchor="middle" x="175" y="380">Option 1</text><g transform="translate(100,400)"><line stroke="black" stroke-width="2" transform="rotate(351,131.4,46.400000000000006)" x1="113" x2="149.8" y1="28" y2="64.80000000000001" /><rect fill="none" height="54.88" stroke="black" stroke-width="2" transform="rotate(381,90.6,113.44)" width="39.2" x="71" y="86" /><polygon fill="none" points="34,155.64 71.6,155.64 52.8,103" stroke="black" stroke-width="2" transform="rotate(243,52.8,129.32)" /></g><text font-family="Arial" font-size="14" text-anchor="middle" x="425" y="380">Option 2</text><g transform="translate(350,400)"><polygon fill="none" points="113,79.52000000000001 149.8,79.52000000000001 131.4,28" stroke="black" stroke-width="2" transform="rotate(350,131.4,53.760000000000005)" /><polygon fill="none" points="71,140.88 110.2,140.88 90.6,86" stroke="black" stroke-width="2" transform="rotate(378,90.6,113.44)" /><line stroke="black" stroke-width="2" transform="rotate(245,52.8,121.8)" x1="34" x2="71.6" y1="103" y2="140.6" /></g><text font-family="Arial" font-size="14" text-anchor="middle" x="175" y="630">Option 3</text><g transform="translate(100,650)"><rect fill="none" height="51.52" stroke="black" stroke-width="2" transform="rotate(348,131.4,53.760000000000005)" width="36.800000000000004" x="113" y="28" /><rect fill="none" height="54.88" stroke="black" stroke-width="2" transform="rotate(381,90.6,113.44)" width="39.2" x="71" y="86" /><polygon fill="none" points="34,155.64 71.6,155.64 52.8,103" stroke="black" stroke-width="2" transform="rotate(246,52.8,129.32)" /></g><text font-family="Arial" font-size="14" text-anchor="middle" x="425" y="630">Option 4</text><g transform="translate(350,650)"><line stroke="black" stroke-width="2" transform="rotate(300,136.0,51.0)" x1="113" x2="159" y1="28" y2="74" /><line stroke="black" stroke-width="2" transform="rotate(330,95.5,110.5)" x1="71" x2="120" y1="86" y2="135" /><circle cx="34" cy="103" fill="none" r="23.5" stroke="black" stroke-width="2" /></g></svg>