<?xml version="1.0" encoding="utf-8" ?>
<svg baseProfile="full" height="1000px" version="1.1" width="600px" xmlns="http://www.w3.org/2000/svg" xmlns:ev="http://www.w3.org/2001/xml-events" xmlns:xlink="http://www.w3.org/1999/xlink"><defs /><rect fill="white" height="100%" width="100%" x="0" y="0" /><text font-family="Arial" font-size="24" text-anchor="middle" x="300" y="40">Visual Discrimination Test</text><text font-family="Arial" font-size="18" text-anchor="middle" x="300" y="80">Target Pattern</text><g transform="translate(200,100)"><circle cx="13" cy="74" fill="none" r="24.5" stroke="black" stroke-width="2" /><circle cx="150" cy="22" fill="none" r="17.5" stroke="black" stroke-width="2" /><line stroke="black" stroke-width="2" transform="rotate(79,56.0,108.0)" x1="33" x2="79" y1="85" y2="131" /><polygon fill="none" points="21,57 52,57 36.5,26" stroke="black" stroke-width="2" transform="rotate(30,36.5,41.5)" /><polygon fill="none" points="24,162 55,162 39.5,131" stroke="black" stroke-width="2" transform="rotate(277,39.5,146.5)" /><circle cx="40" cy="39" fill="none" r="17.0" stroke="black" stroke-width="2" /><rect fill="none" height="39" stroke="black" stroke-width="2" transform="rotate(57,32.5,53.5)" width="39" x="13" y="34" /><rect fill="none" height="39" stroke="black" stroke-width="2" transform="rotate(30,88.5,41.5)" width="39" x="69" y="22" /><circle cx="131" cy="119" fill="none" r="20.0" stroke="black" stroke-width="2" /><circle cx="62" cy="32" fill="none" r="18.0" stroke="black" stroke-width="2" /></g><text font-family="Arial" font-size="18" text-anchor="middle" x="300" y="350">Options</text><text font-family="Arial" font-size="14" text-anchor="middle" x="175" y="380">Option 1</text><g transform="translate(100,400)"><circle cx="13" cy="74" fill="none" r="24.5" stroke="black" stroke-width="2" /><circle cx="150" cy="22" fill="none" r="17.5" stroke="black" stroke-width="2" /><line stroke="black" stroke-width="2" transform="rotate(79,56.0,108.0)" x1="33" x2="79" y1="85" y2="131" /><polygon fill="none" points="21,57 52,57 36.5,26" stroke="black" stroke-width="2" transform="rotate(30,36.5,41.5)" /><polygon fill="none" points="24,162 55,162 39.5,131" stroke="black" stroke-width="2" transform="rotate(277,39.5,146.5)" /><circle cx="40" cy="39" fill="none" r="17.0" stroke="black" stroke-width="2" /><rect fill="none" height="39" stroke="black" stroke-width="2" transform="rotate(57,32.5,53.5)" width="39" x="13" y="34" /><rect fill="none" height="39" stroke="black" stroke-width="2" transform="rotate(30,88.5,41.5)" width="39" x="69" y="22" /><circle cx="131" cy="119" fill="none" r="20.0" stroke="black" stroke-width="2" /><circle cx="62" cy="32" fill="none" r="18.0" stroke="black" stroke-width="2" /></g><text font-family="Arial" font-size="14" text-anchor="middle" x="425" y="380">Option 2</text><g transform="translate(350,400)"><rect fill="none" height="54.88" stroke="black" stroke-width="2" transform="rotate(129,32.6,101.44)" width="39.2" x="13" y="74" /><line stroke="black" stroke-width="2" transform="rotate(92,164.0,36.0)" x1="150" x2="178.0" y1="22" y2="50.0" /><line stroke="black" stroke-width="2" transform="rotate(128,51.400000000000006,103.4)" x1="33" x2="69.80000000000001" y1="85" y2="121.80000000000001" /><line stroke="black" stroke-width="2" transform="rotate(79,33.4,38.4)" x1="21" x2="45.8" y1="26" y2="50.8" /><rect fill="none" height="34.72" stroke="black" stroke-width="2" transform="rotate(326,36.4,148.36)" width="24.8" x="24" y="131" /><line stroke="black" stroke-width="2" transform="rotate(180,53.6,52.6)" x1="40" x2="67.2" y1="39" y2="66.2" /><polygon fill="none" points="13,77.68 44.2,77.68 28.6,34" stroke="black" stroke-width="2" transform="rotate(108,28.6,55.84)" /><rect fill="none" height="43.68" stroke="black" stroke-width="2" transform="rotate(81,84.6,43.84)" width="31.200000000000003" x="69" y="22" /><polygon fill="none" points="131,163.8 163.0,163.8 147.0,119" stroke="black" stroke-width="2" transform="rotate(68,147.0,141.4)" /><line stroke="black" stroke-width="2" transform="rotate(311,76.4,46.4)" x1="62" x2="90.8" y1="32" y2="60.8" /></g><text font-family="Arial" font-size="14" text-anchor="middle" x="175" y="630">Option 3</text><g transform="translate(100,650)"><polygon fill="none" points="13,128.88 52.2,128.88 32.6,74" stroke="black" stroke-width="2" transform="rotate(128,32.6,101.44)" /><line stroke="black" stroke-width="2" transform="rotate(90,164.0,36.0)" x1="150" x2="178.0" y1="22" y2="50.0" /><rect fill="none" height="51.52" stroke="black" stroke-width="2" transform="rotate(128,51.400000000000006,110.76)" width="36.800000000000004" x="33" y="85" /><line stroke="black" stroke-width="2" transform="rotate(80,33.4,38.4)" x1="21" x2="45.8" y1="26" y2="50.8" /><line stroke="black" stroke-width="2" transform="rotate(327,36.4,143.4)" x1="24" x2="48.8" y1="131" y2="155.8" /><rect fill="none" height="38.08" stroke="black" stroke-width="2" transform="rotate(179,53.6,58.04)" width="27.200000000000003" x="40" y="39" /><rect fill="none" height="43.68" stroke="black" stroke-width="2" transform="rotate(108,28.6,55.84)" width="31.200000000000003" x="13" y="34" /><polygon fill="none" points="69,65.68 100.2,65.68 84.6,22" stroke="black" stroke-width="2" transform="rotate(82,84.6,43.84)" /><rect fill="none" height="44.8" stroke="black" stroke-width="2" transform="rotate(69,147.0,141.4)" width="32.0" x="131" y="119" /><rect fill="none" height="40.32" stroke="black" stroke-width="2" transform="rotate(311,76.4,52.16)" width="28.8" x="62" y="32" /></g><text font-family="Arial" font-size="14" text-anchor="middle" x="425" y="630">Option 4</text><g transform="translate(350,650)"><rect fill="none" height="54.88" stroke="black" stroke-width="2" transform="rotate(128,32.6,101.44)" width="39.2" x="13" y="74" /><line stroke="black" stroke-width="2" transform="rotate(91,164.0,36.0)" x1="150" x2="178.0" y1="22" y2="50.0" /><line stroke="black" stroke-width="2" transform="rotate(130,51.400000000000006,103.4)" x1="33" x2="69.80000000000001" y1="85" y2="121.80000000000001" /><line stroke="black" stroke-width="2" transform="rotate(82,33.4,38.4)" x1="21" x2="45.8" y1="26" y2="50.8" /><line stroke="black" stroke-width="2" transform="rotate(326,36.4,143.4)" x1="24" x2="48.8" y1="131" y2="155.8" /><polygon fill="none" points="40,77.08 67.2,77.08 53.6,39" stroke="black" stroke-width="2" transform="rotate(181,53.6,58.04)" /><rect fill="none" height="43.68" stroke="black" stroke-width="2" transform="rotate(109,28.6,55.84)" width="31.200000000000003" x="13" y="34" /><rect fill="none" height="43.68" stroke="black" stroke-width="2" transform="rotate(81,84.6,43.84)" width="31.200000000000003" x="69" y="22" /><line stroke="black" stroke-width="2" transform="rotate(69,147.0,135.0)" x1="131" x2="163.0" y1="119" y2="151.0" /><line stroke="black" stroke-width="2" transform="rotate(314,76.4,46.4)" x1="62" x2="90.8" y1="32" y2="60.8" /></g></svg>