<?xml version="1.0" encoding="utf-8" ?>
<svg baseProfile="full" height="1000px" version="1.1" width="600px" xmlns="http://www.w3.org/2000/svg" xmlns:ev="http://www.w3.org/2001/xml-events" xmlns:xlink="http://www.w3.org/1999/xlink"><defs /><rect fill="white" height="100%" width="100%" x="0" y="0" /><text font-family="Arial" font-size="24" text-anchor="middle" x="300" y="40">Visual Discrimination Test</text><text font-family="Arial" font-size="18" text-anchor="middle" x="300" y="80">Target Pattern</text><g transform="translate(200,100)"><line stroke="black" stroke-width="2" transform="rotate(36,146.0,83.0)" x1="129" x2="163" y1="66" y2="100" /><circle cx="11" cy="19" fill="none" r="19.0" stroke="black" stroke-width="2" /><line stroke="black" stroke-width="2" transform="rotate(151,77.0,143.0)" x1="61" x2="93" y1="127" y2="159" /><polygon fill="none" points="80,80 115,80 97.5,45" stroke="black" stroke-width="2" transform="rotate(106,97.5,62.5)" /><rect fill="none" height="38" stroke="black" stroke-width="2" transform="rotate(99,169.0,31.0)" width="38" x="150" y="12" /><polygon fill="none" points="110,77 142,77 126.0,45" stroke="black" stroke-width="2" transform="rotate(246,126.0,61.0)" /><rect fill="none" height="38" stroke="black" stroke-width="2" transform="rotate(110,165.0,88.0)" width="38" x="146" y="69" /><line stroke="black" stroke-width="2" transform="rotate(257,46.5,41.5)" x1="25" x2="68" y1="20" y2="63" /></g><text font-family="Arial" font-size="18" text-anchor="middle" x="300" y="350">Options</text><text font-family="Arial" font-size="14" text-anchor="middle" x="175" y="380">Option 1</text><g transform="translate(100,400)"><line stroke="black" stroke-width="2" transform="rotate(88,142.6,79.6)" x1="129" x2="156.2" y1="66" y2="93.2" /><rect fill="none" height="42.56" stroke="black" stroke-width="2" transform="rotate(130,26.200000000000003,40.28)" width="30.400000000000002" x="11" y="19" /><rect fill="none" height="35.839999999999996" stroke="black" stroke-width="2" transform="rotate(200,73.8,144.92)" width="25.6" x="61" y="127" /><polygon fill="none" points="80,84.19999999999999 108.0,84.19999999999999 94.0,45" stroke="black" stroke-width="2" transform="rotate(156,94.0,64.6)" /><polygon fill="none" points="150,54.56 180.4,54.56 165.2,12" stroke="black" stroke-width="2" transform="rotate(150,165.2,33.28)" /><line stroke="black" stroke-width="2" transform="rotate(295,122.8,57.8)" x1="110" x2="135.6" y1="45" y2="70.6" /><line stroke="black" stroke-width="2" transform="rotate(159,161.2,84.2)" x1="146" x2="176.4" y1="69" y2="99.4" /><rect fill="none" height="48.16" stroke="black" stroke-width="2" transform="rotate(309,42.2,44.08)" width="34.4" x="25" y="20" /></g><text font-family="Arial" font-size="14" text-anchor="middle" x="425" y="380">Option 2</text><g transform="translate(350,400)"><polygon fill="none" points="129,104.08 156.2,104.08 142.6,66" stroke="black" stroke-width="2" transform="rotate(84,142.6,85.03999999999999)" /><polygon fill="none" points="11,61.56 41.400000000000006,61.56 26.200000000000003,19" stroke="black" stroke-width="2" transform="rotate(129,26.200000000000003,40.28)" /><rect fill="none" height="35.839999999999996" stroke="black" stroke-width="2" transform="rotate(200,73.8,144.92)" width="25.6" x="61" y="127" /><line stroke="black" stroke-width="2" transform="rotate(156,94.0,59.0)" x1="80" x2="108.0" y1="45" y2="73.0" /><rect fill="none" height="42.56" stroke="black" stroke-width="2" transform="rotate(148,165.2,33.28)" width="30.400000000000002" x="150" y="12" /><rect fill="none" height="35.839999999999996" stroke="black" stroke-width="2" transform="rotate(295,122.8,62.92)" width="25.6" x="110" y="45" /><line stroke="black" stroke-width="2" transform="rotate(158,161.2,84.2)" x1="146" x2="176.4" y1="69" y2="99.4" /><rect fill="none" height="48.16" stroke="black" stroke-width="2" transform="rotate(309,42.2,44.08)" width="34.4" x="25" y="20" /></g><text font-family="Arial" font-size="14" text-anchor="middle" x="175" y="630">Option 3</text><g transform="translate(100,650)"><polygon fill="none" points="129,104.08 156.2,104.08 142.6,66" stroke="black" stroke-width="2" transform="rotate(85,142.6,85.03999999999999)" /><line stroke="black" stroke-width="2" transform="rotate(131,26.200000000000003,34.2)" x1="11" x2="41.400000000000006" y1="19" y2="49.400000000000006" /><line stroke="black" stroke-width="2" transform="rotate(202,73.8,139.8)" x1="61" x2="86.6" y1="127" y2="152.6" /><rect fill="none" height="39.199999999999996" stroke="black" stroke-width="2" transform="rotate(154,94.0,64.6)" width="28.0" x="80" y="45" /><rect fill="none" height="42.56" stroke="black" stroke-width="2" transform="rotate(147,165.2,33.28)" width="30.400000000000002" x="150" y="12" /><rect fill="none" height="35.839999999999996" stroke="black" stroke-width="2" transform="rotate(294,122.8,62.92)" width="25.6" x="110" y="45" /><line stroke="black" stroke-width="2" transform="rotate(160,161.2,84.2)" x1="146" x2="176.4" y1="69" y2="99.4" /><polygon fill="none" points="25,68.16 59.4,68.16 42.2,20" stroke="black" stroke-width="2" transform="rotate(306,42.2,44.08)" /></g><text font-family="Arial" font-size="14" text-anchor="middle" x="425" y="630">Option 4</text><g transform="translate(350,650)"><line stroke="black" stroke-width="2" transform="rotate(36,146.0,83.0)" x1="129" x2="163" y1="66" y2="100" /><circle cx="11" cy="19" fill="none" r="19.0" stroke="black" stroke-width="2" /><line stroke="black" stroke-width="2" transform="rotate(151,77.0,143.0)" x1="61" x2="93" y1="127" y2="159" /><polygon fill="none" points="80,80 115,80 97.5,45" stroke="black" stroke-width="2" transform="rotate(106,97.5,62.5)" /><rect fill="none" height="38" stroke="black" stroke-width="2" transform="rotate(99,169.0,31.0)" width="38" x="150" y="12" /><polygon fill="none" points="110,77 142,77 126.0,45" stroke="black" stroke-width="2" transform="rotate(246,126.0,61.0)" /><rect fill="none" height="38" stroke="black" stroke-width="2" transform="rotate(110,165.0,88.0)" width="38" x="146" y="69" /><line stroke="black" stroke-width="2" transform="rotate(257,46.5,41.5)" x1="25" x2="68" y1="20" y2="63" /></g></svg>