<?xml version="1.0" encoding="utf-8" ?>
<svg baseProfile="full" height="1000px" version="1.1" width="600px" xmlns="http://www.w3.org/2000/svg" xmlns:ev="http://www.w3.org/2001/xml-events" xmlns:xlink="http://www.w3.org/1999/xlink"><defs /><rect fill="white" height="100%" width="100%" x="0" y="0" /><text font-family="Arial" font-size="24" text-anchor="middle" x="300" y="40">Visual Discrimination Test</text><text font-family="Arial" font-size="18" text-anchor="middle" x="300" y="80">Target Pattern</text><g transform="translate(200,100)"><circle cx="77" cy="95" fill="none" r="24.0" stroke="black" stroke-width="2" /><polygon fill="none" points="143,125 190,125 166.5,78" stroke="black" stroke-width="2" transform="rotate(121,166.5,101.5)" /><polygon fill="none" points="82,124 122,124 102.0,84" stroke="black" stroke-width="2" transform="rotate(126,102.0,104.0)" /><rect fill="none" height="31" stroke="black" stroke-width="2" transform="rotate(196,55.5,105.5)" width="31" x="40" y="90" /><polygon fill="none" points="94,85 139,85 116.5,40" stroke="black" stroke-width="2" transform="rotate(186,116.5,62.5)" /></g><text font-family="Arial" font-size="18" text-anchor="middle" x="300" y="350">Options</text><text font-family="Arial" font-size="14" text-anchor="middle" x="175" y="380">Option 1</text><g transform="translate(100,400)"><rect fill="none" height="53.760000000000005" stroke="black" stroke-width="2" transform="rotate(212,96.2,121.88)" width="38.400000000000006" x="77" y="95" /><rect fill="none" height="52.64" stroke="black" stroke-width="2" transform="rotate(172,161.8,104.32)" width="37.6" x="143" y="78" /><line stroke="black" stroke-width="2" transform="rotate(174,98.0,100.0)" x1="82" x2="114.0" y1="84" y2="116.0" /><line stroke="black" stroke-width="2" transform="rotate(247,52.4,102.4)" x1="40" x2="64.8" y1="90" y2="114.8" /><rect fill="none" height="50.4" stroke="black" stroke-width="2" transform="rotate(237,112.0,65.2)" width="36.0" x="94" y="40" /></g><text font-family="Arial" font-size="14" text-anchor="middle" x="425" y="380">Option 2</text><g transform="translate(350,400)"><line stroke="black" stroke-width="2" transform="rotate(211,96.2,114.2)" x1="77" x2="115.4" y1="95" y2="133.4" /><line stroke="black" stroke-width="2" transform="rotate(172,161.8,96.8)" x1="143" x2="180.6" y1="78" y2="115.6" /><rect fill="none" height="44.8" stroke="black" stroke-width="2" transform="rotate(176,98.0,106.4)" width="32.0" x="82" y="84" /><line stroke="black" stroke-width="2" transform="rotate(244,52.4,102.4)" x1="40" x2="64.8" y1="90" y2="114.8" /><line stroke="black" stroke-width="2" transform="rotate(235,112.0,58.0)" x1="94" x2="130.0" y1="40" y2="76.0" /></g><text font-family="Arial" font-size="14" text-anchor="middle" x="175" y="630">Option 3</text><g transform="translate(100,650)"><polygon fill="none" points="77,148.76 115.4,148.76 96.2,95" stroke="black" stroke-width="2" transform="rotate(210,96.2,121.88)" /><polygon fill="none" points="143,130.64 180.6,130.64 161.8,78" stroke="black" stroke-width="2" transform="rotate(173,161.8,104.32)" /><line stroke="black" stroke-width="2" transform="rotate(177,98.0,100.0)" x1="82" x2="114.0" y1="84" y2="116.0" /><rect fill="none" height="34.72" stroke="black" stroke-width="2" transform="rotate(245,52.4,107.36)" width="24.8" x="40" y="90" /><rect fill="none" height="50.4" stroke="black" stroke-width="2" transform="rotate(234,112.0,65.2)" width="36.0" x="94" y="40" /></g><text font-family="Arial" font-size="14" text-anchor="middle" x="425" y="630">Option 4</text><g transform="translate(350,650)"><circle cx="77" cy="95" fill="none" r="24.0" stroke="black" stroke-width="2" /><polygon fill="none" points="143,125 190,125 166.5,78" stroke="black" stroke-width="2" transform="rotate(121,166.5,101.5)" /><polygon fill="none" points="82,124 122,124 102.0,84" stroke="black" stroke-width="2" transform="rotate(126,102.0,104.0)" /><rect fill="none" height="31" stroke="black" stroke-width="2" transform="rotate(196,55.5,105.5)" width="31" x="40" y="90" /><polygon fill="none" points="94,85 139,85 116.5,40" stroke="black" stroke-width="2" transform="rotate(186,116.5,62.5)" /></g></svg>