<?xml version="1.0" encoding="utf-8" ?>
<svg baseProfile="full" height="1000px" version="1.1" width="600px" xmlns="http://www.w3.org/2000/svg" xmlns:ev="http://www.w3.org/2001/xml-events" xmlns:xlink="http://www.w3.org/1999/xlink"><defs /><rect fill="white" height="100%" width="100%" x="0" y="0" /><text font-family="Arial" font-size="24" text-anchor="middle" x="300" y="40">Visual Discrimination Test</text><text font-family="Arial" font-size="18" text-anchor="middle" x="300" y="80">Target Pattern</text><g transform="translate(200,100)"><circle cx="117" cy="97" fill="none" r="21.0" stroke="black" stroke-width="2" /><rect fill="none" height="45" stroke="black" stroke-width="2" transform="rotate(239,118.5,78.5)" width="45" x="96" y="56" /><rect fill="none" height="43" stroke="black" stroke-width="2" transform="rotate(209,82.5,124.5)" width="43" x="61" y="103" /><rect fill="none" height="39" stroke="black" stroke-width="2" transform="rotate(57,125.5,167.5)" width="39" x="106" y="148" /><circle cx="66" cy="124" fill="none" r="23.5" stroke="black" stroke-width="2" /><circle cx="44" cy="24" fill="none" r="24.5" stroke="black" stroke-width="2" /><polygon fill="none" points="145,150 176,150 160.5,119" stroke="black" stroke-width="2" transform="rotate(64,160.5,134.5)" /><polygon fill="none" points="82,84 129,84 105.5,37" stroke="black" stroke-width="2" transform="rotate(198,105.5,60.5)" /><polygon fill="none" points="89,72 129,72 109.0,32" stroke="black" stroke-width="2" transform="rotate(42,109.0,52.0)" /></g><text font-family="Arial" font-size="18" text-anchor="middle" x="300" y="350">Options</text><text font-family="Arial" font-size="14" text-anchor="middle" x="175" y="380">Option 1</text><g transform="translate(100,400)"><line stroke="black" stroke-width="2" transform="rotate(188,146.4,126.4)" x1="117" x2="175.8" y1="97" y2="155.8" /><polygon fill="none" points="96,106.4 159.0,106.4 127.5,56" stroke="black" stroke-width="2" transform="rotate(244,127.5,81.2)" /><line stroke="black" stroke-width="2" transform="rotate(212,91.1,133.1)" x1="61" x2="121.19999999999999" y1="103" y2="163.2" /><line stroke="black" stroke-width="2" transform="rotate(64,133.3,175.3)" x1="106" x2="160.6" y1="148" y2="202.6" /><line stroke="black" stroke-width="2" transform="rotate(230,98.9,156.9)" x1="66" x2="131.8" y1="124" y2="189.8" /><polygon fill="none" points="44,78.88 112.6,78.88 78.3,24" stroke="black" stroke-width="2" transform="rotate(43,78.3,51.44)" /><rect fill="none" height="34.72" stroke="black" stroke-width="2" transform="rotate(67,166.7,136.36)" width="43.4" x="145" y="119" /><polygon fill="none" points="82,89.64 147.8,89.64 114.9,37" stroke="black" stroke-width="2" transform="rotate(202,114.9,63.32)" /><line stroke="black" stroke-width="2" transform="rotate(45,117.0,60.0)" x1="89" x2="145.0" y1="32" y2="88.0" /></g><text font-family="Arial" font-size="14" text-anchor="middle" x="425" y="380">Option 2</text><g transform="translate(350,400)"><circle cx="117" cy="97" fill="none" r="21.0" stroke="black" stroke-width="2" /><rect fill="none" height="45" stroke="black" stroke-width="2" transform="rotate(239,118.5,78.5)" width="45" x="96" y="56" /><rect fill="none" height="43" stroke="black" stroke-width="2" transform="rotate(209,82.5,124.5)" width="43" x="61" y="103" /><rect fill="none" height="39" stroke="black" stroke-width="2" transform="rotate(57,125.5,167.5)" width="39" x="106" y="148" /><circle cx="66" cy="124" fill="none" r="23.5" stroke="black" stroke-width="2" /><circle cx="44" cy="24" fill="none" r="24.5" stroke="black" stroke-width="2" /><polygon fill="none" points="145,150 176,150 160.5,119" stroke="black" stroke-width="2" transform="rotate(64,160.5,134.5)" /><polygon fill="none" points="82,84 129,84 105.5,37" stroke="black" stroke-width="2" transform="rotate(198,105.5,60.5)" /><polygon fill="none" points="89,72 129,72 109.0,32" stroke="black" stroke-width="2" transform="rotate(42,109.0,52.0)" /></g><text font-family="Arial" font-size="14" text-anchor="middle" x="175" y="630">Option 3</text><g transform="translate(100,650)"><rect fill="none" height="47.04" stroke="black" stroke-width="2" transform="rotate(184,146.4,120.52)" width="58.8" x="117" y="97" /><polygon fill="none" points="96,106.4 159.0,106.4 127.5,56" stroke="black" stroke-width="2" transform="rotate(245,127.5,81.2)" /><rect fill="none" height="48.16" stroke="black" stroke-width="2" transform="rotate(215,91.1,127.08)" width="60.199999999999996" x="61" y="103" /><line stroke="black" stroke-width="2" transform="rotate(62,133.3,175.3)" x1="106" x2="160.6" y1="148" y2="202.6" /><line stroke="black" stroke-width="2" transform="rotate(229,98.9,156.9)" x1="66" x2="131.8" y1="124" y2="189.8" /><polygon fill="none" points="44,78.88 112.6,78.88 78.3,24" stroke="black" stroke-width="2" transform="rotate(47,78.3,51.44)" /><line stroke="black" stroke-width="2" transform="rotate(69,166.7,140.7)" x1="145" x2="188.4" y1="119" y2="162.4" /><polygon fill="none" points="82,89.64 147.8,89.64 114.9,37" stroke="black" stroke-width="2" transform="rotate(204,114.9,63.32)" /><line stroke="black" stroke-width="2" transform="rotate(46,117.0,60.0)" x1="89" x2="145.0" y1="32" y2="88.0" /></g><text font-family="Arial" font-size="14" text-anchor="middle" x="425" y="630">Option 4</text><g transform="translate(350,650)"><polygon fill="none" points="117,144.04 175.8,144.04 146.4,97" stroke="black" stroke-width="2" transform="rotate(188,146.4,120.52)" /><rect fill="none" height="50.4" stroke="black" stroke-width="2" transform="rotate(246,127.5,81.2)" width="62.99999999999999" x="96" y="56" /><rect fill="none" height="48.16" stroke="black" stroke-width="2" transform="rotate(212,91.1,127.08)" width="60.199999999999996" x="61" y="103" /><rect fill="none" height="43.68" stroke="black" stroke-width="2" transform="rotate(63,133.3,169.84)" width="54.599999999999994" x="106" y="148" /><line stroke="black" stroke-width="2" transform="rotate(230,98.9,156.9)" x1="66" x2="131.8" y1="124" y2="189.8" /><rect fill="none" height="54.879999999999995" stroke="black" stroke-width="2" transform="rotate(45,78.3,51.44)" width="68.6" x="44" y="24" /><rect fill="none" height="34.72" stroke="black" stroke-width="2" transform="rotate(70,166.7,136.36)" width="43.4" x="145" y="119" /><line stroke="black" stroke-width="2" transform="rotate(203,114.9,69.9)" x1="82" x2="147.8" y1="37" y2="102.8" /><line stroke="black" stroke-width="2" transform="rotate(45,117.0,60.0)" x1="89" x2="145.0" y1="32" y2="88.0" /></g></svg>