<?xml version="1.0" encoding="utf-8" ?>
<svg baseProfile="full" height="1000px" version="1.1" width="600px" xmlns="http://www.w3.org/2000/svg" xmlns:ev="http://www.w3.org/2001/xml-events" xmlns:xlink="http://www.w3.org/1999/xlink"><defs /><rect fill="white" height="100%" width="100%" x="0" y="0" /><text font-family="Arial" font-size="24" text-anchor="middle" x="300" y="40">Visual Discrimination Test</text><text font-family="Arial" font-size="18" text-anchor="middle" x="300" y="80">Target Pattern</text><g transform="translate(200,100)"><circle cx="67" cy="135" fill="none" r="24.0" stroke="black" stroke-width="2" /><line stroke="black" stroke-width="2" transform="rotate(30,70.5,134.5)" x1="55" x2="86" y1="119" y2="150" /><rect fill="none" height="41" stroke="black" stroke-width="2" transform="rotate(161,52.5,77.5)" width="41" x="32" y="57" /><line stroke="black" stroke-width="2" transform="rotate(176,41.0,110.0)" x1="17" x2="65" y1="86" y2="134" /><circle cx="35" cy="25" fill="none" r="16.0" stroke="black" stroke-width="2" /><line stroke="black" stroke-width="2" transform="rotate(317,74.5,155.5)" x1="52" x2="97" y1="133" y2="178" /></g><text font-family="Arial" font-size="18" text-anchor="middle" x="300" y="350">Options</text><text font-family="Arial" font-size="14" text-anchor="middle" x="175" y="380">Option 1</text><g transform="translate(100,400)"><circle cx="67" cy="135" fill="none" r="24.0" stroke="black" stroke-width="2" /><line stroke="black" stroke-width="2" transform="rotate(30,70.5,134.5)" x1="55" x2="86" y1="119" y2="150" /><rect fill="none" height="41" stroke="black" stroke-width="2" transform="rotate(161,52.5,77.5)" width="41" x="32" y="57" /><line stroke="black" stroke-width="2" transform="rotate(176,41.0,110.0)" x1="17" x2="65" y1="86" y2="134" /><circle cx="35" cy="25" fill="none" r="16.0" stroke="black" stroke-width="2" /><line stroke="black" stroke-width="2" transform="rotate(317,74.5,155.5)" x1="52" x2="97" y1="133" y2="178" /></g><text font-family="Arial" font-size="14" text-anchor="middle" x="425" y="380">Option 2</text><g transform="translate(350,400)"><circle cx="67" cy="135" fill="none" r="26.400000000000002" stroke="black" stroke-width="2" /><line stroke="black" stroke-width="2" transform="rotate(82,72.05,136.05)" x1="55" x2="89.1" y1="119" y2="153.1" /><rect fill="none" height="63.14" stroke="black" stroke-width="2" transform="rotate(212,54.55,88.57)" width="45.1" x="32" y="57" /><line stroke="black" stroke-width="2" transform="rotate(225,43.400000000000006,112.4)" x1="17" x2="69.80000000000001" y1="86" y2="138.8" /><circle cx="35" cy="25" fill="none" r="17.6" stroke="black" stroke-width="2" /><line stroke="black" stroke-width="2" transform="rotate(366,76.75,157.75)" x1="52" x2="101.5" y1="133" y2="182.5" /></g><text font-family="Arial" font-size="14" text-anchor="middle" x="175" y="630">Option 3</text><g transform="translate(100,650)"><circle cx="67" cy="135" fill="none" r="26.400000000000002" stroke="black" stroke-width="2" /><line stroke="black" stroke-width="2" transform="rotate(79,72.05,136.05)" x1="55" x2="89.1" y1="119" y2="153.1" /><rect fill="none" height="63.14" stroke="black" stroke-width="2" transform="rotate(210,54.55,88.57)" width="45.1" x="32" y="57" /><line stroke="black" stroke-width="2" transform="rotate(225,43.400000000000006,112.4)" x1="17" x2="69.80000000000001" y1="86" y2="138.8" /><circle cx="35" cy="25" fill="none" r="17.6" stroke="black" stroke-width="2" /><line stroke="black" stroke-width="2" transform="rotate(365,76.75,157.75)" x1="52" x2="101.5" y1="133" y2="182.5" /></g><text font-family="Arial" font-size="14" text-anchor="middle" x="425" y="630">Option 4</text><g transform="translate(350,650)"><circle cx="67" cy="135" fill="none" r="26.400000000000002" stroke="black" stroke-width="2" /><line stroke="black" stroke-width="2" transform="rotate(78,72.05,136.05)" x1="55" x2="89.1" y1="119" y2="153.1" /><rect fill="none" height="63.14" stroke="black" stroke-width="2" transform="rotate(213,54.55,88.57)" width="45.1" x="32" y="57" /><line stroke="black" stroke-width="2" transform="rotate(225,43.400000000000006,112.4)" x1="17" x2="69.80000000000001" y1="86" y2="138.8" /><circle cx="35" cy="25" fill="none" r="17.6" stroke="black" stroke-width="2" /><line stroke="black" stroke-width="2" transform="rotate(367,76.75,157.75)" x1="52" x2="101.5" y1="133" y2="182.5" /></g></svg>