<?xml version="1.0" encoding="utf-8" ?>
<svg baseProfile="full" height="1000px" version="1.1" width="600px" xmlns="http://www.w3.org/2000/svg" xmlns:ev="http://www.w3.org/2001/xml-events" xmlns:xlink="http://www.w3.org/1999/xlink"><defs /><rect fill="white" height="100%" width="100%" x="0" y="0" /><text font-family="Arial" font-size="24" text-anchor="middle" x="300" y="40">Visual Discrimination Test</text><text font-family="Arial" font-size="18" text-anchor="middle" x="300" y="80">Target Pattern</text><g transform="translate(200,100)"><circle cx="129" cy="114" fill="none" r="21.5" stroke="black" stroke-width="2" /><circle cx="144" cy="46" fill="none" r="16.5" stroke="black" stroke-width="2" /><circle cx="96" cy="29" fill="none" r="22.5" stroke="black" stroke-width="2" /><polygon fill="none" points="126,72 160,72 143.0,38" stroke="black" stroke-width="2" transform="rotate(180,143.0,55.0)" /><polygon fill="none" points="16,79 66,79 41.0,29" stroke="black" stroke-width="2" transform="rotate(296,41.0,54.0)" /></g><text font-family="Arial" font-size="18" text-anchor="middle" x="300" y="350">Options</text><text font-family="Arial" font-size="14" text-anchor="middle" x="175" y="380">Option 1</text><g transform="translate(100,400)"><circle cx="129" cy="114" fill="none" r="23.650000000000002" stroke="black" stroke-width="2" /><circle cx="144" cy="46" fill="none" r="18.150000000000002" stroke="black" stroke-width="2" /><circle cx="96" cy="29" fill="none" r="24.750000000000004" stroke="black" stroke-width="2" /><polygon fill="none" points="126,90.36000000000001 163.4,90.36000000000001 144.7,38" stroke="black" stroke-width="2" transform="rotate(231,144.7,64.18)" /><polygon fill="none" points="16,106.0 71.0,106.0 43.5,29" stroke="black" stroke-width="2" transform="rotate(348,43.5,67.5)" /></g><text font-family="Arial" font-size="14" text-anchor="middle" x="425" y="380">Option 2</text><g transform="translate(350,400)"><circle cx="129" cy="114" fill="none" r="21.5" stroke="black" stroke-width="2" /><circle cx="144" cy="46" fill="none" r="16.5" stroke="black" stroke-width="2" /><circle cx="96" cy="29" fill="none" r="22.5" stroke="black" stroke-width="2" /><polygon fill="none" points="126,72 160,72 143.0,38" stroke="black" stroke-width="2" transform="rotate(180,143.0,55.0)" /><polygon fill="none" points="16,79 66,79 41.0,29" stroke="black" stroke-width="2" transform="rotate(296,41.0,54.0)" /></g><text font-family="Arial" font-size="14" text-anchor="middle" x="175" y="630">Option 3</text><g transform="translate(100,650)"><circle cx="129" cy="114" fill="none" r="23.650000000000002" stroke="black" stroke-width="2" /><circle cx="144" cy="46" fill="none" r="18.150000000000002" stroke="black" stroke-width="2" /><circle cx="96" cy="29" fill="none" r="24.750000000000004" stroke="black" stroke-width="2" /><polygon fill="none" points="126,90.36000000000001 163.4,90.36000000000001 144.7,38" stroke="black" stroke-width="2" transform="rotate(230,144.7,64.18)" /><polygon fill="none" points="16,106.0 71.0,106.0 43.5,29" stroke="black" stroke-width="2" transform="rotate(344,43.5,67.5)" /></g><text font-family="Arial" font-size="14" text-anchor="middle" x="425" y="630">Option 4</text><g transform="translate(350,650)"><circle cx="129" cy="114" fill="none" r="23.650000000000002" stroke="black" stroke-width="2" /><circle cx="144" cy="46" fill="none" r="18.150000000000002" stroke="black" stroke-width="2" /><circle cx="96" cy="29" fill="none" r="24.750000000000004" stroke="black" stroke-width="2" /><polygon fill="none" points="126,90.36000000000001 163.4,90.36000000000001 144.7,38" stroke="black" stroke-width="2" transform="rotate(228,144.7,64.18)" /><polygon fill="none" points="16,106.0 71.0,106.0 43.5,29" stroke="black" stroke-width="2" transform="rotate(348,43.5,67.5)" /></g></svg>