<?xml version="1.0" encoding="utf-8" ?>
<svg baseProfile="full" height="1000px" version="1.1" width="600px" xmlns="http://www.w3.org/2000/svg" xmlns:ev="http://www.w3.org/2001/xml-events" xmlns:xlink="http://www.w3.org/1999/xlink"><defs /><rect fill="white" height="100%" width="100%" x="0" y="0" /><text font-family="Arial" font-size="24" text-anchor="middle" x="300" y="40">Visual Discrimination Test</text><text font-family="Arial" font-size="18" text-anchor="middle" x="300" y="80">Target Pattern</text><g transform="translate(200,100)"><rect fill="none" height="45" stroke="black" stroke-width="2" transform="rotate(241,37.5,157.5)" width="45" x="15" y="135" /><rect fill="none" height="44" stroke="black" stroke-width="2" transform="rotate(353,119.0,36.0)" width="44" x="97" y="14" /><line stroke="black" stroke-width="2" transform="rotate(21,91.0,155.0)" x1="70" x2="112" y1="134" y2="176" /><rect fill="none" height="48" stroke="black" stroke-width="2" transform="rotate(170,172.0,45.0)" width="48" x="148" y="21" /><circle cx="92" cy="56" fill="none" r="16.5" stroke="black" stroke-width="2" /><circle cx="85" cy="102" fill="none" r="25.0" stroke="black" stroke-width="2" /><rect fill="none" height="46" stroke="black" stroke-width="2" transform="rotate(161,140.0,100.0)" width="46" x="117" y="77" /></g><text font-family="Arial" font-size="18" text-anchor="middle" x="300" y="350">Options</text><text font-family="Arial" font-size="14" text-anchor="middle" x="175" y="380">Option 1</text><g transform="translate(100,400)"><rect fill="none" height="45" stroke="black" stroke-width="2" transform="rotate(241,37.5,157.5)" width="45" x="15" y="135" /><rect fill="none" height="44" stroke="black" stroke-width="2" transform="rotate(353,119.0,36.0)" width="44" x="97" y="14" /><line stroke="black" stroke-width="2" transform="rotate(21,91.0,155.0)" x1="70" x2="112" y1="134" y2="176" /><rect fill="none" height="48" stroke="black" stroke-width="2" transform="rotate(170,172.0,45.0)" width="48" x="148" y="21" /><circle cx="92" cy="56" fill="none" r="16.5" stroke="black" stroke-width="2" /><circle cx="85" cy="102" fill="none" r="25.0" stroke="black" stroke-width="2" /><rect fill="none" height="46" stroke="black" stroke-width="2" transform="rotate(161,140.0,100.0)" width="46" x="117" y="77" /></g><text font-family="Arial" font-size="14" text-anchor="middle" x="425" y="380">Option 2</text><g transform="translate(350,400)"><rect fill="none" height="69.30000000000001" stroke="black" stroke-width="2" transform="rotate(291,39.75,169.65)" width="49.50000000000001" x="15" y="135" /><rect fill="none" height="67.76" stroke="black" stroke-width="2" transform="rotate(402,121.2,47.88)" width="48.400000000000006" x="97" y="14" /><line stroke="black" stroke-width="2" transform="rotate(70,93.1,157.1)" x1="70" x2="116.2" y1="134" y2="180.2" /><rect fill="none" height="73.92" stroke="black" stroke-width="2" transform="rotate(220,174.4,57.96)" width="52.800000000000004" x="148" y="21" /><circle cx="92" cy="56" fill="none" r="18.150000000000002" stroke="black" stroke-width="2" /><circle cx="85" cy="102" fill="none" r="27.500000000000004" stroke="black" stroke-width="2" /><rect fill="none" height="70.84" stroke="black" stroke-width="2" transform="rotate(210,142.3,112.42)" width="50.6" x="117" y="77" /></g><text font-family="Arial" font-size="14" text-anchor="middle" x="175" y="630">Option 3</text><g transform="translate(100,650)"><rect fill="none" height="69.30000000000001" stroke="black" stroke-width="2" transform="rotate(290,39.75,169.65)" width="49.50000000000001" x="15" y="135" /><rect fill="none" height="67.76" stroke="black" stroke-width="2" transform="rotate(401,121.2,47.88)" width="48.400000000000006" x="97" y="14" /><line stroke="black" stroke-width="2" transform="rotate(71,93.1,157.1)" x1="70" x2="116.2" y1="134" y2="180.2" /><rect fill="none" height="73.92" stroke="black" stroke-width="2" transform="rotate(221,174.4,57.96)" width="52.800000000000004" x="148" y="21" /><circle cx="92" cy="56" fill="none" r="18.150000000000002" stroke="black" stroke-width="2" /><circle cx="85" cy="102" fill="none" r="27.500000000000004" stroke="black" stroke-width="2" /><rect fill="none" height="70.84" stroke="black" stroke-width="2" transform="rotate(210,142.3,112.42)" width="50.6" x="117" y="77" /></g><text font-family="Arial" font-size="14" text-anchor="middle" x="425" y="630">Option 4</text><g transform="translate(350,650)"><rect fill="none" height="69.30000000000001" stroke="black" stroke-width="2" transform="rotate(292,39.75,169.65)" width="49.50000000000001" x="15" y="135" /><rect fill="none" height="67.76" stroke="black" stroke-width="2" transform="rotate(405,121.2,47.88)" width="48.400000000000006" x="97" y="14" /><line stroke="black" stroke-width="2" transform="rotate(69,93.1,157.1)" x1="70" x2="116.2" y1="134" y2="180.2" /><rect fill="none" height="73.92" stroke="black" stroke-width="2" transform="rotate(219,174.4,57.96)" width="52.800000000000004" x="148" y="21" /><circle cx="92" cy="56" fill="none" r="18.150000000000002" stroke="black" stroke-width="2" /><circle cx="85" cy="102" fill="none" r="27.500000000000004" stroke="black" stroke-width="2" /><rect fill="none" height="70.84" stroke="black" stroke-width="2" transform="rotate(212,142.3,112.42)" width="50.6" x="117" y="77" /></g></svg>