<?xml version="1.0" encoding="utf-8" ?>
<svg baseProfile="full" height="1000px" version="1.1" width="600px" xmlns="http://www.w3.org/2000/svg" xmlns:ev="http://www.w3.org/2001/xml-events" xmlns:xlink="http://www.w3.org/1999/xlink"><defs /><rect fill="white" height="100%" width="100%" x="0" y="0" /><text font-family="Arial" font-size="24" text-anchor="middle" x="300" y="40">Visual Discrimination Test</text><text font-family="Arial" font-size="18" text-anchor="middle" x="300" y="80">Target Pattern</text><g transform="translate(200,100)"><rect fill="none" height="50" stroke="black" stroke-width="2" transform="rotate(277,158.0,76.0)" width="50" x="133" y="51" /><polygon fill="none" points="59,163 95,163 77.0,127" stroke="black" stroke-width="2" transform="rotate(13,77.0,145.0)" /><circle cx="67" cy="136" fill="none" r="21.0" stroke="black" stroke-width="2" /><rect fill="none" height="49" stroke="black" stroke-width="2" transform="rotate(208,59.5,93.5)" width="49" x="35" y="69" /><rect fill="none" height="44" stroke="black" stroke-width="2" transform="rotate(234,86.0,100.0)" width="44" x="64" y="78" /><line stroke="black" stroke-width="2" transform="rotate(72,153.0,147.0)" x1="130" x2="176" y1="124" y2="170" /><rect fill="none" height="32" stroke="black" stroke-width="2" transform="rotate(101,139.0,89.0)" width="32" x="123" y="73" /><polygon fill="none" points="116,180 152,180 134.0,144" stroke="black" stroke-width="2" transform="rotate(207,134.0,162.0)" /></g><text font-family="Arial" font-size="18" text-anchor="middle" x="300" y="350">Options</text><text font-family="Arial" font-size="14" text-anchor="middle" x="175" y="380">Option 1</text><g transform="translate(100,400)"><rect fill="none" height="77.0" stroke="black" stroke-width="2" transform="rotate(326,160.5,89.5)" width="55.00000000000001" x="133" y="51" /><polygon fill="none" points="59,182.44 98.6,182.44 78.8,127" stroke="black" stroke-width="2" transform="rotate(64,78.8,154.72)" /><circle cx="67" cy="136" fill="none" r="23.1" stroke="black" stroke-width="2" /><rect fill="none" height="75.46000000000001" stroke="black" stroke-width="2" transform="rotate(260,61.95,106.73)" width="53.900000000000006" x="35" y="69" /><rect fill="none" height="67.76" stroke="black" stroke-width="2" transform="rotate(284,88.2,111.88)" width="48.400000000000006" x="64" y="78" /><line stroke="black" stroke-width="2" transform="rotate(121,155.3,149.3)" x1="130" x2="180.6" y1="124" y2="174.6" /><rect fill="none" height="49.28" stroke="black" stroke-width="2" transform="rotate(151,140.6,97.64)" width="35.2" x="123" y="73" /><polygon fill="none" points="116,199.44 155.6,199.44 135.8,144" stroke="black" stroke-width="2" transform="rotate(258,135.8,171.72)" /></g><text font-family="Arial" font-size="14" text-anchor="middle" x="425" y="380">Option 2</text><g transform="translate(350,400)"><rect fill="none" height="77.0" stroke="black" stroke-width="2" transform="rotate(328,160.5,89.5)" width="55.00000000000001" x="133" y="51" /><polygon fill="none" points="59,182.44 98.6,182.44 78.8,127" stroke="black" stroke-width="2" transform="rotate(62,78.8,154.72)" /><circle cx="67" cy="136" fill="none" r="23.1" stroke="black" stroke-width="2" /><rect fill="none" height="75.46000000000001" stroke="black" stroke-width="2" transform="rotate(259,61.95,106.73)" width="53.900000000000006" x="35" y="69" /><rect fill="none" height="67.76" stroke="black" stroke-width="2" transform="rotate(284,88.2,111.88)" width="48.400000000000006" x="64" y="78" /><line stroke="black" stroke-width="2" transform="rotate(122,155.3,149.3)" x1="130" x2="180.6" y1="124" y2="174.6" /><rect fill="none" height="49.28" stroke="black" stroke-width="2" transform="rotate(151,140.6,97.64)" width="35.2" x="123" y="73" /><polygon fill="none" points="116,199.44 155.6,199.44 135.8,144" stroke="black" stroke-width="2" transform="rotate(257,135.8,171.72)" /></g><text font-family="Arial" font-size="14" text-anchor="middle" x="175" y="630">Option 3</text><g transform="translate(100,650)"><rect fill="none" height="50" stroke="black" stroke-width="2" transform="rotate(277,158.0,76.0)" width="50" x="133" y="51" /><polygon fill="none" points="59,163 95,163 77.0,127" stroke="black" stroke-width="2" transform="rotate(13,77.0,145.0)" /><circle cx="67" cy="136" fill="none" r="21.0" stroke="black" stroke-width="2" /><rect fill="none" height="49" stroke="black" stroke-width="2" transform="rotate(208,59.5,93.5)" width="49" x="35" y="69" /><rect fill="none" height="44" stroke="black" stroke-width="2" transform="rotate(234,86.0,100.0)" width="44" x="64" y="78" /><line stroke="black" stroke-width="2" transform="rotate(72,153.0,147.0)" x1="130" x2="176" y1="124" y2="170" /><rect fill="none" height="32" stroke="black" stroke-width="2" transform="rotate(101,139.0,89.0)" width="32" x="123" y="73" /><polygon fill="none" points="116,180 152,180 134.0,144" stroke="black" stroke-width="2" transform="rotate(207,134.0,162.0)" /></g><text font-family="Arial" font-size="14" text-anchor="middle" x="425" y="630">Option 4</text><g transform="translate(350,650)"><rect fill="none" height="77.0" stroke="black" stroke-width="2" transform="rotate(325,160.5,89.5)" width="55.00000000000001" x="133" y="51" /><polygon fill="none" points="59,182.44 98.6,182.44 78.8,127" stroke="black" stroke-width="2" transform="rotate(64,78.8,154.72)" /><circle cx="67" cy="136" fill="none" r="23.1" stroke="black" stroke-width="2" /><rect fill="none" height="75.46000000000001" stroke="black" stroke-width="2" transform="rotate(256,61.95,106.73)" width="53.900000000000006" x="35" y="69" /><rect fill="none" height="67.76" stroke="black" stroke-width="2" transform="rotate(284,88.2,111.88)" width="48.400000000000006" x="64" y="78" /><line stroke="black" stroke-width="2" transform="rotate(123,155.3,149.3)" x1="130" x2="180.6" y1="124" y2="174.6" /><rect fill="none" height="49.28" stroke="black" stroke-width="2" transform="rotate(150,140.6,97.64)" width="35.2" x="123" y="73" /><polygon fill="none" points="116,199.44 155.6,199.44 135.8,144" stroke="black" stroke-width="2" transform="rotate(257,135.8,171.72)" /></g></svg>