<?xml version="1.0" encoding="utf-8" ?>
<svg baseProfile="full" height="1000px" version="1.1" width="600px" xmlns="http://www.w3.org/2000/svg" xmlns:ev="http://www.w3.org/2001/xml-events" xmlns:xlink="http://www.w3.org/1999/xlink"><defs /><rect fill="white" height="100%" width="100%" x="0" y="0" /><text font-family="Arial" font-size="24" text-anchor="middle" x="300" y="40">Visual Discrimination Test</text><text font-family="Arial" font-size="18" text-anchor="middle" x="300" y="80">Target Pattern</text><g transform="translate(200,100)"><polygon fill="none" points="125,50 157,50 141.0,18" stroke="black" stroke-width="2" transform="rotate(123,141.0,34.0)" /><rect fill="none" height="35" stroke="black" stroke-width="2" transform="rotate(322,116.5,129.5)" width="35" x="99" y="112" /><rect fill="none" height="40" stroke="black" stroke-width="2" transform="rotate(102,109.0,118.0)" width="40" x="89" y="98" /><circle cx="52" cy="101" fill="none" r="15.0" stroke="black" stroke-width="2" /><circle cx="11" cy="78" fill="none" r="16.5" stroke="black" stroke-width="2" /><polygon fill="none" points="62,72 100,72 81.0,34" stroke="black" stroke-width="2" transform="rotate(226,81.0,53.0)" /><rect fill="none" height="41" stroke="black" stroke-width="2" transform="rotate(209,69.5,71.5)" width="41" x="49" y="51" /><line stroke="black" stroke-width="2" transform="rotate(86,97.5,135.5)" x1="80" x2="115" y1="118" y2="153" /></g><text font-family="Arial" font-size="18" text-anchor="middle" x="300" y="350">Options</text><text font-family="Arial" font-size="14" text-anchor="middle" x="175" y="380">Option 1</text><g transform="translate(100,400)"><polygon fill="none" points="125,67.28 160.2,67.28 142.6,18" stroke="black" stroke-width="2" transform="rotate(172,142.6,42.64)" /><rect fill="none" height="53.9" stroke="black" stroke-width="2" transform="rotate(370,118.25,138.95)" width="38.5" x="99" y="112" /><rect fill="none" height="61.599999999999994" stroke="black" stroke-width="2" transform="rotate(150,111.0,128.8)" width="44.0" x="89" y="98" /><circle cx="52" cy="101" fill="none" r="16.5" stroke="black" stroke-width="2" /><circle cx="11" cy="78" fill="none" r="18.150000000000002" stroke="black" stroke-width="2" /><polygon fill="none" points="62,92.52000000000001 103.80000000000001,92.52000000000001 82.9,34" stroke="black" stroke-width="2" transform="rotate(278,82.9,63.260000000000005)" /><rect fill="none" height="63.14" stroke="black" stroke-width="2" transform="rotate(259,71.55,82.57)" width="45.1" x="49" y="51" /><line stroke="black" stroke-width="2" transform="rotate(137,99.25,137.25)" x1="80" x2="118.5" y1="118" y2="156.5" /></g><text font-family="Arial" font-size="14" text-anchor="middle" x="425" y="380">Option 2</text><g transform="translate(350,400)"><polygon fill="none" points="125,50 157,50 141.0,18" stroke="black" stroke-width="2" transform="rotate(123,141.0,34.0)" /><rect fill="none" height="35" stroke="black" stroke-width="2" transform="rotate(322,116.5,129.5)" width="35" x="99" y="112" /><rect fill="none" height="40" stroke="black" stroke-width="2" transform="rotate(102,109.0,118.0)" width="40" x="89" y="98" /><circle cx="52" cy="101" fill="none" r="15.0" stroke="black" stroke-width="2" /><circle cx="11" cy="78" fill="none" r="16.5" stroke="black" stroke-width="2" /><polygon fill="none" points="62,72 100,72 81.0,34" stroke="black" stroke-width="2" transform="rotate(226,81.0,53.0)" /><rect fill="none" height="41" stroke="black" stroke-width="2" transform="rotate(209,69.5,71.5)" width="41" x="49" y="51" /><line stroke="black" stroke-width="2" transform="rotate(86,97.5,135.5)" x1="80" x2="115" y1="118" y2="153" /></g><text font-family="Arial" font-size="14" text-anchor="middle" x="175" y="630">Option 3</text><g transform="translate(100,650)"><polygon fill="none" points="125,67.28 160.2,67.28 142.6,18" stroke="black" stroke-width="2" transform="rotate(173,142.6,42.64)" /><rect fill="none" height="53.9" stroke="black" stroke-width="2" transform="rotate(374,118.25,138.95)" width="38.5" x="99" y="112" /><rect fill="none" height="61.599999999999994" stroke="black" stroke-width="2" transform="rotate(154,111.0,128.8)" width="44.0" x="89" y="98" /><circle cx="52" cy="101" fill="none" r="16.5" stroke="black" stroke-width="2" /><circle cx="11" cy="78" fill="none" r="18.150000000000002" stroke="black" stroke-width="2" /><polygon fill="none" points="62,92.52000000000001 103.80000000000001,92.52000000000001 82.9,34" stroke="black" stroke-width="2" transform="rotate(276,82.9,63.260000000000005)" /><rect fill="none" height="63.14" stroke="black" stroke-width="2" transform="rotate(257,71.55,82.57)" width="45.1" x="49" y="51" /><line stroke="black" stroke-width="2" transform="rotate(138,99.25,137.25)" x1="80" x2="118.5" y1="118" y2="156.5" /></g><text font-family="Arial" font-size="14" text-anchor="middle" x="425" y="630">Option 4</text><g transform="translate(350,650)"><polygon fill="none" points="125,67.28 160.2,67.28 142.6,18" stroke="black" stroke-width="2" transform="rotate(175,142.6,42.64)" /><rect fill="none" height="53.9" stroke="black" stroke-width="2" transform="rotate(374,118.25,138.95)" width="38.5" x="99" y="112" /><rect fill="none" height="61.599999999999994" stroke="black" stroke-width="2" transform="rotate(153,111.0,128.8)" width="44.0" x="89" y="98" /><circle cx="52" cy="101" fill="none" r="16.5" stroke="black" stroke-width="2" /><circle cx="11" cy="78" fill="none" r="18.150000000000002" stroke="black" stroke-width="2" /><polygon fill="none" points="62,92.52000000000001 103.80000000000001,92.52000000000001 82.9,34" stroke="black" stroke-width="2" transform="rotate(277,82.9,63.260000000000005)" /><rect fill="none" height="63.14" stroke="black" stroke-width="2" transform="rotate(259,71.55,82.57)" width="45.1" x="49" y="51" /><line stroke="black" stroke-width="2" transform="rotate(134,99.25,137.25)" x1="80" x2="118.5" y1="118" y2="156.5" /></g></svg>