<?xml version="1.0" encoding="utf-8" ?>
<svg baseProfile="full" height="1000px" version="1.1" width="600px" xmlns="http://www.w3.org/2000/svg" xmlns:ev="http://www.w3.org/2001/xml-events" xmlns:xlink="http://www.w3.org/1999/xlink"><defs /><rect fill="white" height="100%" width="100%" x="0" y="0" /><text font-family="Arial" font-size="24" text-anchor="middle" x="300" y="40">Visual Discrimination Test</text><text font-family="Arial" font-size="18" text-anchor="middle" x="300" y="80">Target Pattern</text><g transform="translate(200,100)"><circle cx="113" cy="118" fill="none" r="17.0" stroke="black" stroke-width="2" /><line stroke="black" stroke-width="2" transform="rotate(186,62.5,114.5)" x1="39" x2="86" y1="91" y2="138" /></g><text font-family="Arial" font-size="18" text-anchor="middle" x="300" y="350">Options</text><text font-family="Arial" font-size="14" text-anchor="middle" x="175" y="380">Option 1</text><g transform="translate(100,400)"><line stroke="black" stroke-width="2" transform="rotate(121,131.7,136.7)" x1="113" x2="150.4" y1="118" y2="155.4" /><rect fill="none" height="72.38" stroke="black" stroke-width="2" transform="rotate(236,64.85,127.19)" width="51.7" x="39" y="91" /></g><text font-family="Arial" font-size="14" text-anchor="middle" x="425" y="380">Option 2</text><g transform="translate(350,400)"><line stroke="black" stroke-width="2" transform="rotate(123,131.7,136.7)" x1="113" x2="150.4" y1="118" y2="155.4" /><rect fill="none" height="72.38" stroke="black" stroke-width="2" transform="rotate(237,64.85,127.19)" width="51.7" x="39" y="91" /></g><text font-family="Arial" font-size="14" text-anchor="middle" x="175" y="630">Option 3</text><g transform="translate(100,650)"><rect fill="none" height="52.36000000000001" stroke="black" stroke-width="2" transform="rotate(120,131.7,144.18)" width="37.400000000000006" x="113" y="118" /><polygon fill="none" points="39,163.38 90.7,163.38 64.85,91" stroke="black" stroke-width="2" transform="rotate(238,64.85,127.19)" /></g><text font-family="Arial" font-size="14" text-anchor="middle" x="425" y="630">Option 4</text><g transform="translate(350,650)"><circle cx="113" cy="118" fill="none" r="17.0" stroke="black" stroke-width="2" /><line stroke="black" stroke-width="2" transform="rotate(186,62.5,114.5)" x1="39" x2="86" y1="91" y2="138" /></g></svg>