<?xml version="1.0" encoding="utf-8" ?>
<svg baseProfile="full" height="1000px" version="1.1" width="600px" xmlns="http://www.w3.org/2000/svg" xmlns:ev="http://www.w3.org/2001/xml-events" xmlns:xlink="http://www.w3.org/1999/xlink"><defs /><rect fill="white" height="100%" width="100%" x="0" y="0" /><text font-family="Arial" font-size="24" text-anchor="middle" x="300" y="40">Visual Discrimination Test</text><text font-family="Arial" font-size="18" text-anchor="middle" x="300" y="80">Target Pattern</text><g transform="translate(200,100)"><polygon fill="none" points="38,179 82,179 60.0,135" stroke="black" stroke-width="2" transform="rotate(233,60.0,157.0)" /><line stroke="black" stroke-width="2" transform="rotate(194,55.5,30.5)" x1="39" x2="72" y1="14" y2="47" /><polygon fill="none" points="38,104 83,104 60.5,59" stroke="black" stroke-width="2" transform="rotate(335,60.5,81.5)" /><line stroke="black" stroke-width="2" transform="rotate(230,45.5,61.5)" x1="24" x2="67" y1="40" y2="83" /><rect fill="none" height="47" stroke="black" stroke-width="2" transform="rotate(67,101.5,68.5)" width="47" x="78" y="45" /><line stroke="black" stroke-width="2" transform="rotate(254,146.0,108.0)" x1="124" x2="168" y1="86" y2="130" /><circle cx="113" cy="47" fill="none" r="17.0" stroke="black" stroke-width="2" /><line stroke="black" stroke-width="2" transform="rotate(293,34.0,166.0)" x1="12" x2="56" y1="144" y2="188" /><rect fill="none" height="38" stroke="black" stroke-width="2" transform="rotate(36,149.0,158.0)" width="38" x="130" y="139" /></g><text font-family="Arial" font-size="18" text-anchor="middle" x="300" y="350">Options</text><text font-family="Arial" font-size="14" text-anchor="middle" x="175" y="380">Option 1</text><g transform="translate(100,400)"><polygon fill="none" points="38,202.76 86.4,202.76 62.2,135" stroke="black" stroke-width="2" transform="rotate(285,62.2,168.88)" /><rect fill="none" height="50.82" stroke="black" stroke-width="2" transform="rotate(243,57.150000000000006,39.41)" width="36.300000000000004" x="39" y="14" /><rect fill="none" height="69.30000000000001" stroke="black" stroke-width="2" transform="rotate(384,62.75,93.65)" width="49.50000000000001" x="38" y="59" /><polygon fill="none" points="24,106.22 71.30000000000001,106.22 47.650000000000006,40" stroke="black" stroke-width="2" transform="rotate(280,47.650000000000006,73.11)" /><polygon fill="none" points="78,117.38 129.7,117.38 103.85,45" stroke="black" stroke-width="2" transform="rotate(115,103.85,81.19)" /><polygon fill="none" points="124,153.76 172.4,153.76 148.2,86" stroke="black" stroke-width="2" transform="rotate(304,148.2,119.88)" /><rect fill="none" height="52.36000000000001" stroke="black" stroke-width="2" transform="rotate(107,131.7,73.18)" width="37.400000000000006" x="113" y="47" /><rect fill="none" height="67.76" stroke="black" stroke-width="2" transform="rotate(344,36.2,177.88)" width="48.400000000000006" x="12" y="144" /><rect fill="none" height="58.52" stroke="black" stroke-width="2" transform="rotate(84,150.9,168.26)" width="41.800000000000004" x="130" y="139" /></g><text font-family="Arial" font-size="14" text-anchor="middle" x="425" y="380">Option 2</text><g transform="translate(350,400)"><rect fill="none" height="67.76" stroke="black" stroke-width="2" transform="rotate(281,62.2,168.88)" width="48.400000000000006" x="38" y="135" /><line stroke="black" stroke-width="2" transform="rotate(242,57.150000000000006,32.150000000000006)" x1="39" x2="75.30000000000001" y1="14" y2="50.300000000000004" /><polygon fill="none" points="38,128.3 87.5,128.3 62.75,59" stroke="black" stroke-width="2" transform="rotate(385,62.75,93.65)" /><rect fill="none" height="66.22" stroke="black" stroke-width="2" transform="rotate(280,47.650000000000006,73.11)" width="47.300000000000004" x="24" y="40" /><polygon fill="none" points="78,117.38 129.7,117.38 103.85,45" stroke="black" stroke-width="2" transform="rotate(117,103.85,81.19)" /><polygon fill="none" points="124,153.76 172.4,153.76 148.2,86" stroke="black" stroke-width="2" transform="rotate(303,148.2,119.88)" /><polygon fill="none" points="113,99.36000000000001 150.4,99.36000000000001 131.7,47" stroke="black" stroke-width="2" transform="rotate(104,131.7,73.18)" /><rect fill="none" height="67.76" stroke="black" stroke-width="2" transform="rotate(343,36.2,177.88)" width="48.400000000000006" x="12" y="144" /><line stroke="black" stroke-width="2" transform="rotate(86,150.9,159.9)" x1="130" x2="171.8" y1="139" y2="180.8" /></g><text font-family="Arial" font-size="14" text-anchor="middle" x="175" y="630">Option 3</text><g transform="translate(100,650)"><polygon fill="none" points="38,179 82,179 60.0,135" stroke="black" stroke-width="2" transform="rotate(233,60.0,157.0)" /><line stroke="black" stroke-width="2" transform="rotate(194,55.5,30.5)" x1="39" x2="72" y1="14" y2="47" /><polygon fill="none" points="38,104 83,104 60.5,59" stroke="black" stroke-width="2" transform="rotate(335,60.5,81.5)" /><line stroke="black" stroke-width="2" transform="rotate(230,45.5,61.5)" x1="24" x2="67" y1="40" y2="83" /><rect fill="none" height="47" stroke="black" stroke-width="2" transform="rotate(67,101.5,68.5)" width="47" x="78" y="45" /><line stroke="black" stroke-width="2" transform="rotate(254,146.0,108.0)" x1="124" x2="168" y1="86" y2="130" /><circle cx="113" cy="47" fill="none" r="17.0" stroke="black" stroke-width="2" /><line stroke="black" stroke-width="2" transform="rotate(293,34.0,166.0)" x1="12" x2="56" y1="144" y2="188" /><rect fill="none" height="38" stroke="black" stroke-width="2" transform="rotate(36,149.0,158.0)" width="38" x="130" y="139" /></g><text font-family="Arial" font-size="14" text-anchor="middle" x="425" y="630">Option 4</text><g transform="translate(350,650)"><polygon fill="none" points="38,202.76 86.4,202.76 62.2,135" stroke="black" stroke-width="2" transform="rotate(284,62.2,168.88)" /><line stroke="black" stroke-width="2" transform="rotate(243,57.150000000000006,32.150000000000006)" x1="39" x2="75.30000000000001" y1="14" y2="50.300000000000004" /><line stroke="black" stroke-width="2" transform="rotate(386,62.75,83.75)" x1="38" x2="87.5" y1="59" y2="108.5" /><rect fill="none" height="66.22" stroke="black" stroke-width="2" transform="rotate(282,47.650000000000006,73.11)" width="47.300000000000004" x="24" y="40" /><line stroke="black" stroke-width="2" transform="rotate(116,103.85,70.85)" x1="78" x2="129.7" y1="45" y2="96.7" /><polygon fill="none" points="124,153.76 172.4,153.76 148.2,86" stroke="black" stroke-width="2" transform="rotate(303,148.2,119.88)" /><rect fill="none" height="52.36000000000001" stroke="black" stroke-width="2" transform="rotate(107,131.7,73.18)" width="37.400000000000006" x="113" y="47" /><rect fill="none" height="67.76" stroke="black" stroke-width="2" transform="rotate(342,36.2,177.88)" width="48.400000000000006" x="12" y="144" /><line stroke="black" stroke-width="2" transform="rotate(88,150.9,159.9)" x1="130" x2="171.8" y1="139" y2="180.8" /></g></svg>