<?xml version="1.0" encoding="utf-8" ?>
<svg baseProfile="full" height="1000px" version="1.1" width="600px" xmlns="http://www.w3.org/2000/svg" xmlns:ev="http://www.w3.org/2001/xml-events" xmlns:xlink="http://www.w3.org/1999/xlink"><defs /><rect fill="white" height="100%" width="100%" x="0" y="0" /><text font-family="Arial" font-size="24" text-anchor="middle" x="300" y="40">Visual Discrimination Test</text><text font-family="Arial" font-size="18" text-anchor="middle" x="300" y="80">Target Pattern</text><g transform="translate(200,100)"><polygon fill="none" points="38,130 78,130 58.0,90" stroke="black" stroke-width="2" transform="rotate(278,58.0,110.0)" /><rect fill="none" height="31" stroke="black" stroke-width="2" transform="rotate(359,88.5,42.5)" width="31" x="73" y="27" /><circle cx="57" cy="148" fill="none" r="24.0" stroke="black" stroke-width="2" /><line stroke="black" stroke-width="2" transform="rotate(174,79.0,127.0)" x1="60" x2="98" y1="108" y2="146" /><rect fill="none" height="35" stroke="black" stroke-width="2" transform="rotate(216,109.5,96.5)" width="35" x="92" y="79" /><line stroke="black" stroke-width="2" transform="rotate(182,103.5,171.5)" x1="82" x2="125" y1="150" y2="193" /><circle cx="78" cy="64" fill="none" r="18.5" stroke="black" stroke-width="2" /></g><text font-family="Arial" font-size="18" text-anchor="middle" x="300" y="350">Options</text><text font-family="Arial" font-size="14" text-anchor="middle" x="175" y="380">Option 1</text><g transform="translate(100,400)"><line stroke="black" stroke-width="2" transform="rotate(330,60.0,112.0)" x1="38" x2="82.0" y1="90" y2="134.0" /><line stroke="black" stroke-width="2" transform="rotate(408,90.05,44.05)" x1="73" x2="107.1" y1="27" y2="61.1" /><polygon fill="none" points="57,221.92000000000002 109.80000000000001,221.92000000000002 83.4,148" stroke="black" stroke-width="2" transform="rotate(271,83.4,184.96)" /><line stroke="black" stroke-width="2" transform="rotate(224,80.9,128.9)" x1="60" x2="101.80000000000001" y1="108" y2="149.8" /><rect fill="none" height="53.9" stroke="black" stroke-width="2" transform="rotate(268,111.25,105.95)" width="38.5" x="92" y="79" /><rect fill="none" height="66.22" stroke="black" stroke-width="2" transform="rotate(230,105.65,183.11)" width="47.300000000000004" x="82" y="150" /><rect fill="none" height="56.98" stroke="black" stroke-width="2" transform="rotate(270,98.35,92.49)" width="40.7" x="78" y="64" /></g><text font-family="Arial" font-size="14" text-anchor="middle" x="425" y="380">Option 2</text><g transform="translate(350,400)"><polygon fill="none" points="38,151.6 82.0,151.6 60.0,90" stroke="black" stroke-width="2" transform="rotate(327,60.0,120.8)" /><line stroke="black" stroke-width="2" transform="rotate(409,90.05,44.05)" x1="73" x2="107.1" y1="27" y2="61.1" /><rect fill="none" height="73.92" stroke="black" stroke-width="2" transform="rotate(269,83.4,184.96)" width="52.800000000000004" x="57" y="148" /><polygon fill="none" points="60,166.52 101.80000000000001,166.52 80.9,108" stroke="black" stroke-width="2" transform="rotate(225,80.9,137.26)" /><line stroke="black" stroke-width="2" transform="rotate(265,111.25,98.25)" x1="92" x2="130.5" y1="79" y2="117.5" /><line stroke="black" stroke-width="2" transform="rotate(232,105.65,173.65)" x1="82" x2="129.3" y1="150" y2="197.3" /><rect fill="none" height="56.98" stroke="black" stroke-width="2" transform="rotate(268,98.35,92.49)" width="40.7" x="78" y="64" /></g><text font-family="Arial" font-size="14" text-anchor="middle" x="175" y="630">Option 3</text><g transform="translate(100,650)"><polygon fill="none" points="38,130 78,130 58.0,90" stroke="black" stroke-width="2" transform="rotate(278,58.0,110.0)" /><rect fill="none" height="31" stroke="black" stroke-width="2" transform="rotate(359,88.5,42.5)" width="31" x="73" y="27" /><circle cx="57" cy="148" fill="none" r="24.0" stroke="black" stroke-width="2" /><line stroke="black" stroke-width="2" transform="rotate(174,79.0,127.0)" x1="60" x2="98" y1="108" y2="146" /><rect fill="none" height="35" stroke="black" stroke-width="2" transform="rotate(216,109.5,96.5)" width="35" x="92" y="79" /><line stroke="black" stroke-width="2" transform="rotate(182,103.5,171.5)" x1="82" x2="125" y1="150" y2="193" /><circle cx="78" cy="64" fill="none" r="18.5" stroke="black" stroke-width="2" /></g><text font-family="Arial" font-size="14" text-anchor="middle" x="425" y="630">Option 4</text><g transform="translate(350,650)"><rect fill="none" height="61.599999999999994" stroke="black" stroke-width="2" transform="rotate(330,60.0,120.8)" width="44.0" x="38" y="90" /><polygon fill="none" points="73,74.74000000000001 107.1,74.74000000000001 90.05,27" stroke="black" stroke-width="2" transform="rotate(410,90.05,50.870000000000005)" /><line stroke="black" stroke-width="2" transform="rotate(272,83.4,174.4)" x1="57" x2="109.80000000000001" y1="148" y2="200.8" /><line stroke="black" stroke-width="2" transform="rotate(225,80.9,128.9)" x1="60" x2="101.80000000000001" y1="108" y2="149.8" /><polygon fill="none" points="92,132.9 130.5,132.9 111.25,79" stroke="black" stroke-width="2" transform="rotate(268,111.25,105.95)" /><polygon fill="none" points="82,216.22 129.3,216.22 105.65,150" stroke="black" stroke-width="2" transform="rotate(232,105.65,183.11)" /><line stroke="black" stroke-width="2" transform="rotate(269,98.35,84.35)" x1="78" x2="118.7" y1="64" y2="104.7" /></g></svg>