<?xml version="1.0" encoding="utf-8" ?>
<svg baseProfile="full" height="1000px" version="1.1" width="600px" xmlns="http://www.w3.org/2000/svg" xmlns:ev="http://www.w3.org/2001/xml-events" xmlns:xlink="http://www.w3.org/1999/xlink"><defs /><rect fill="white" height="100%" width="100%" x="0" y="0" /><text font-family="Arial" font-size="24" text-anchor="middle" x="300" y="40">Visual Discrimination Test</text><text font-family="Arial" font-size="18" text-anchor="middle" x="300" y="80">Target Pattern</text><g transform="translate(200,100)"><rect fill="none" height="35" stroke="black" stroke-width="2" transform="rotate(38,114.5,154.5)" width="35" x="97" y="137" /><polygon fill="none" points="10,124 42,124 26.0,92" stroke="black" stroke-width="2" transform="rotate(176,26.0,108.0)" /></g><text font-family="Arial" font-size="18" text-anchor="middle" x="300" y="350">Options</text><text font-family="Arial" font-size="14" text-anchor="middle" x="175" y="380">Option 1</text><g transform="translate(100,400)"><line stroke="black" stroke-width="2" transform="rotate(86,116.25,156.25)" x1="97" x2="135.5" y1="137" y2="175.5" /><polygon fill="none" points="10,141.28 45.2,141.28 27.6,92" stroke="black" stroke-width="2" transform="rotate(228,27.6,116.64)" /></g><text font-family="Arial" font-size="14" text-anchor="middle" x="425" y="380">Option 2</text><g transform="translate(350,400)"><rect fill="none" height="35" stroke="black" stroke-width="2" transform="rotate(38,114.5,154.5)" width="35" x="97" y="137" /><polygon fill="none" points="10,124 42,124 26.0,92" stroke="black" stroke-width="2" transform="rotate(176,26.0,108.0)" /></g><text font-family="Arial" font-size="14" text-anchor="middle" x="175" y="630">Option 3</text><g transform="translate(100,650)"><polygon fill="none" points="97,190.9 135.5,190.9 116.25,137" stroke="black" stroke-width="2" transform="rotate(86,116.25,163.95)" /><polygon fill="none" points="10,141.28 45.2,141.28 27.6,92" stroke="black" stroke-width="2" transform="rotate(227,27.6,116.64)" /></g><text font-family="Arial" font-size="14" text-anchor="middle" x="425" y="630">Option 4</text><g transform="translate(350,650)"><line stroke="black" stroke-width="2" transform="rotate(87,116.25,156.25)" x1="97" x2="135.5" y1="137" y2="175.5" /><rect fill="none" height="49.28" stroke="black" stroke-width="2" transform="rotate(226,27.6,116.64)" width="35.2" x="10" y="92" /></g></svg>