<?xml version="1.0" encoding="utf-8" ?>
<svg baseProfile="full" height="1000px" version="1.1" width="600px" xmlns="http://www.w3.org/2000/svg" xmlns:ev="http://www.w3.org/2001/xml-events" xmlns:xlink="http://www.w3.org/1999/xlink"><defs /><rect fill="white" height="100%" width="100%" x="0" y="0" /><text font-family="Arial" font-size="24" text-anchor="middle" x="300" y="40">Visual Discrimination Test</text><text font-family="Arial" font-size="18" text-anchor="middle" x="300" y="80">Target Pattern</text><g transform="translate(200,100)"><circle cx="123" cy="11" fill="none" r="21.5" stroke="black" stroke-width="2" /><rect fill="none" height="41" stroke="black" stroke-width="2" transform="rotate(11,80.5,78.5)" width="41" x="60" y="58" /></g><text font-family="Arial" font-size="18" text-anchor="middle" x="300" y="350">Options</text><text font-family="Arial" font-size="14" text-anchor="middle" x="175" y="380">Option 1</text><g transform="translate(100,400)"><polygon fill="none" points="123,77.22 170.3,77.22 146.65,11" stroke="black" stroke-width="2" transform="rotate(192,146.65,44.11)" /><polygon fill="none" points="60,121.14 105.1,121.14 82.55,58" stroke="black" stroke-width="2" transform="rotate(61,82.55,89.57)" /></g><text font-family="Arial" font-size="14" text-anchor="middle" x="425" y="380">Option 2</text><g transform="translate(350,400)"><line stroke="black" stroke-width="2" transform="rotate(190,146.65,34.650000000000006)" x1="123" x2="170.3" y1="11" y2="58.300000000000004" /><line stroke="black" stroke-width="2" transform="rotate(59,82.55,80.55)" x1="60" x2="105.1" y1="58" y2="103.1" /></g><text font-family="Arial" font-size="14" text-anchor="middle" x="175" y="630">Option 3</text><g transform="translate(100,650)"><circle cx="123" cy="11" fill="none" r="21.5" stroke="black" stroke-width="2" /><rect fill="none" height="41" stroke="black" stroke-width="2" transform="rotate(11,80.5,78.5)" width="41" x="60" y="58" /></g><text font-family="Arial" font-size="14" text-anchor="middle" x="425" y="630">Option 4</text><g transform="translate(350,650)"><line stroke="black" stroke-width="2" transform="rotate(188,146.65,34.650000000000006)" x1="123" x2="170.3" y1="11" y2="58.300000000000004" /><line stroke="black" stroke-width="2" transform="rotate(59,82.55,80.55)" x1="60" x2="105.1" y1="58" y2="103.1" /></g></svg>