<?xml version="1.0" encoding="utf-8" ?>
<svg baseProfile="full" height="1000px" version="1.1" width="600px" xmlns="http://www.w3.org/2000/svg" xmlns:ev="http://www.w3.org/2001/xml-events" xmlns:xlink="http://www.w3.org/1999/xlink"><defs /><rect fill="white" height="100%" width="100%" x="0" y="0" /><text font-family="Arial" font-size="24" text-anchor="middle" x="300" y="40">Visual Discrimination Test</text><text font-family="Arial" font-size="18" text-anchor="middle" x="300" y="80">Target Pattern</text><g transform="translate(200,100)"><rect fill="none" height="39" stroke="black" stroke-width="2" transform="rotate(274,143.5,29.5)" width="39" x="124" y="10" /><rect fill="none" height="43" stroke="black" stroke-width="2" transform="rotate(136,55.5,164.5)" width="43" x="34" y="143" /><rect fill="none" height="34" stroke="black" stroke-width="2" transform="rotate(161,70.0,80.0)" width="34" x="53" y="63" /><circle cx="77" cy="18" fill="none" r="21.0" stroke="black" stroke-width="2" /><circle cx="11" cy="62" fill="none" r="19.0" stroke="black" stroke-width="2" /></g><text font-family="Arial" font-size="18" text-anchor="middle" x="300" y="350">Options</text><text font-family="Arial" font-size="14" text-anchor="middle" x="175" y="380">Option 1</text><g transform="translate(100,400)"><rect fill="none" height="39" stroke="black" stroke-width="2" transform="rotate(274,143.5,29.5)" width="39" x="124" y="10" /><rect fill="none" height="43" stroke="black" stroke-width="2" transform="rotate(136,55.5,164.5)" width="43" x="34" y="143" /><rect fill="none" height="34" stroke="black" stroke-width="2" transform="rotate(161,70.0,80.0)" width="34" x="53" y="63" /><circle cx="77" cy="18" fill="none" r="21.0" stroke="black" stroke-width="2" /><circle cx="11" cy="62" fill="none" r="19.0" stroke="black" stroke-width="2" /></g><text font-family="Arial" font-size="14" text-anchor="middle" x="425" y="380">Option 2</text><g transform="translate(350,400)"><polygon fill="none" points="124,53.68 178.6,53.68 151.3,10" stroke="black" stroke-width="2" transform="rotate(277,151.3,31.84)" /><polygon fill="none" points="34,191.16 94.19999999999999,191.16 64.1,143" stroke="black" stroke-width="2" transform="rotate(140,64.1,167.07999999999998)" /><rect fill="none" height="38.08" stroke="black" stroke-width="2" transform="rotate(168,76.8,82.03999999999999)" width="47.599999999999994" x="53" y="63" /><polygon fill="none" points="77,65.03999999999999 135.8,65.03999999999999 106.4,18" stroke="black" stroke-width="2" transform="rotate(62,106.4,41.519999999999996)" /><polygon fill="none" points="11,104.56 64.19999999999999,104.56 37.599999999999994,62" stroke="black" stroke-width="2" transform="rotate(162,37.599999999999994,83.28)" /></g><text font-family="Arial" font-size="14" text-anchor="middle" x="175" y="630">Option 3</text><g transform="translate(100,650)"><rect fill="none" height="43.68" stroke="black" stroke-width="2" transform="rotate(279,151.3,31.84)" width="54.599999999999994" x="124" y="10" /><rect fill="none" height="48.16" stroke="black" stroke-width="2" transform="rotate(143,64.1,167.07999999999998)" width="60.199999999999996" x="34" y="143" /><line stroke="black" stroke-width="2" transform="rotate(166,76.8,86.8)" x1="53" x2="100.6" y1="63" y2="110.6" /><rect fill="none" height="47.04" stroke="black" stroke-width="2" transform="rotate(61,106.4,41.519999999999996)" width="58.8" x="77" y="18" /><polygon fill="none" points="11,104.56 64.19999999999999,104.56 37.599999999999994,62" stroke="black" stroke-width="2" transform="rotate(160,37.599999999999994,83.28)" /></g><text font-family="Arial" font-size="14" text-anchor="middle" x="425" y="630">Option 4</text><g transform="translate(350,650)"><polygon fill="none" points="124,53.68 178.6,53.68 151.3,10" stroke="black" stroke-width="2" transform="rotate(281,151.3,31.84)" /><line stroke="black" stroke-width="2" transform="rotate(143,64.1,173.1)" x1="34" x2="94.19999999999999" y1="143" y2="203.2" /><rect fill="none" height="38.08" stroke="black" stroke-width="2" transform="rotate(167,76.8,82.03999999999999)" width="47.599999999999994" x="53" y="63" /><polygon fill="none" points="77,65.03999999999999 135.8,65.03999999999999 106.4,18" stroke="black" stroke-width="2" transform="rotate(60,106.4,41.519999999999996)" /><line stroke="black" stroke-width="2" transform="rotate(164,37.599999999999994,88.6)" x1="11" x2="64.19999999999999" y1="62" y2="115.19999999999999" /></g></svg>