<?xml version="1.0" encoding="utf-8" ?>
<svg baseProfile="full" height="1000px" version="1.1" width="600px" xmlns="http://www.w3.org/2000/svg" xmlns:ev="http://www.w3.org/2001/xml-events" xmlns:xlink="http://www.w3.org/1999/xlink"><defs /><rect fill="white" height="100%" width="100%" x="0" y="0" /><text font-family="Arial" font-size="24" text-anchor="middle" x="300" y="40">Visual Discrimination Test</text><text font-family="Arial" font-size="18" text-anchor="middle" x="300" y="80">Target Pattern</text><g transform="translate(200,100)"><rect fill="none" height="41" stroke="black" stroke-width="2" transform="rotate(255,68.5,95.5)" width="41" x="48" y="75" /><polygon fill="none" points="115,177 165,177 140.0,127" stroke="black" stroke-width="2" transform="rotate(170,140.0,152.0)" /><rect fill="none" height="48" stroke="black" stroke-width="2" transform="rotate(264,124.0,54.0)" width="48" x="100" y="30" /><line stroke="black" stroke-width="2" transform="rotate(267,29.5,147.5)" x1="13" x2="46" y1="131" y2="164" /><polygon fill="none" points="80,157 110,157 95.0,127" stroke="black" stroke-width="2" transform="rotate(202,95.0,142.0)" /></g><text font-family="Arial" font-size="18" text-anchor="middle" x="300" y="350">Options</text><text font-family="Arial" font-size="14" text-anchor="middle" x="175" y="380">Option 1</text><g transform="translate(100,400)"><rect fill="none" height="41" stroke="black" stroke-width="2" transform="rotate(255,68.5,95.5)" width="41" x="48" y="75" /><polygon fill="none" points="115,177 165,177 140.0,127" stroke="black" stroke-width="2" transform="rotate(170,140.0,152.0)" /><rect fill="none" height="48" stroke="black" stroke-width="2" transform="rotate(264,124.0,54.0)" width="48" x="100" y="30" /><line stroke="black" stroke-width="2" transform="rotate(267,29.5,147.5)" x1="13" x2="46" y1="131" y2="164" /><polygon fill="none" points="80,157 110,157 95.0,127" stroke="black" stroke-width="2" transform="rotate(202,95.0,142.0)" /></g><text font-family="Arial" font-size="14" text-anchor="middle" x="425" y="380">Option 2</text><g transform="translate(350,400)"><rect fill="none" height="80.36" stroke="black" stroke-width="2" transform="rotate(304,76.7,115.18)" width="57.4" x="48" y="75" /><polygon fill="none" points="115,225.0 185.0,225.0 150.0,127" stroke="black" stroke-width="2" transform="rotate(221,150.0,176.0)" /><rect fill="none" height="94.07999999999998" stroke="black" stroke-width="2" transform="rotate(314,133.6,77.03999999999999)" width="67.19999999999999" x="100" y="30" /><line stroke="black" stroke-width="2" transform="rotate(315,36.099999999999994,154.1)" x1="13" x2="59.199999999999996" y1="131" y2="177.2" /><polygon fill="none" points="80,185.8 122.0,185.8 101.0,127" stroke="black" stroke-width="2" transform="rotate(252,101.0,156.4)" /></g><text font-family="Arial" font-size="14" text-anchor="middle" x="175" y="630">Option 3</text><g transform="translate(100,650)"><rect fill="none" height="80.36" stroke="black" stroke-width="2" transform="rotate(303,76.7,115.18)" width="57.4" x="48" y="75" /><polygon fill="none" points="115,225.0 185.0,225.0 150.0,127" stroke="black" stroke-width="2" transform="rotate(222,150.0,176.0)" /><rect fill="none" height="94.07999999999998" stroke="black" stroke-width="2" transform="rotate(313,133.6,77.03999999999999)" width="67.19999999999999" x="100" y="30" /><line stroke="black" stroke-width="2" transform="rotate(318,36.099999999999994,154.1)" x1="13" x2="59.199999999999996" y1="131" y2="177.2" /><polygon fill="none" points="80,185.8 122.0,185.8 101.0,127" stroke="black" stroke-width="2" transform="rotate(251,101.0,156.4)" /></g><text font-family="Arial" font-size="14" text-anchor="middle" x="425" y="630">Option 4</text><g transform="translate(350,650)"><rect fill="none" height="80.36" stroke="black" stroke-width="2" transform="rotate(307,76.7,115.18)" width="57.4" x="48" y="75" /><polygon fill="none" points="115,225.0 185.0,225.0 150.0,127" stroke="black" stroke-width="2" transform="rotate(220,150.0,176.0)" /><rect fill="none" height="94.07999999999998" stroke="black" stroke-width="2" transform="rotate(313,133.6,77.03999999999999)" width="67.19999999999999" x="100" y="30" /><line stroke="black" stroke-width="2" transform="rotate(315,36.099999999999994,154.1)" x1="13" x2="59.199999999999996" y1="131" y2="177.2" /><polygon fill="none" points="80,185.8 122.0,185.8 101.0,127" stroke="black" stroke-width="2" transform="rotate(253,101.0,156.4)" /></g></svg>