<?xml version="1.0" encoding="utf-8" ?>
<svg baseProfile="full" height="1000px" version="1.1" width="600px" xmlns="http://www.w3.org/2000/svg" xmlns:ev="http://www.w3.org/2001/xml-events" xmlns:xlink="http://www.w3.org/1999/xlink"><defs /><rect fill="white" height="100%" width="100%" x="0" y="0" /><text font-family="Arial" font-size="24" text-anchor="middle" x="300" y="40">Visual Discrimination Test</text><text font-family="Arial" font-size="18" text-anchor="middle" x="300" y="80">Target Pattern</text><g transform="translate(200,100)"><circle cx="36" cy="107" fill="none" r="24.5" stroke="black" stroke-width="2" /><rect fill="none" height="41" stroke="black" stroke-width="2" transform="rotate(110,92.5,112.5)" width="41" x="72" y="92" /><polygon fill="none" points="88,161 129,161 108.5,120" stroke="black" stroke-width="2" transform="rotate(17,108.5,140.5)" /><rect fill="none" height="48" stroke="black" stroke-width="2" transform="rotate(195,146.0,130.0)" width="48" x="122" y="106" /><rect fill="none" height="47" stroke="black" stroke-width="2" transform="rotate(38,119.5,71.5)" width="47" x="96" y="48" /><line stroke="black" stroke-width="2" transform="rotate(166,162.5,47.5)" x1="146" x2="179" y1="31" y2="64" /><line stroke="black" stroke-width="2" transform="rotate(39,89.0,138.0)" x1="64" x2="114" y1="113" y2="163" /></g><text font-family="Arial" font-size="18" text-anchor="middle" x="300" y="350">Options</text><text font-family="Arial" font-size="14" text-anchor="middle" x="175" y="380">Option 1</text><g transform="translate(100,400)"><circle cx="36" cy="107" fill="none" r="34.3" stroke="black" stroke-width="2" /><rect fill="none" height="80.36" stroke="black" stroke-width="2" transform="rotate(158,100.7,132.18)" width="57.4" x="72" y="92" /><polygon fill="none" points="88,200.36 145.4,200.36 116.7,120" stroke="black" stroke-width="2" transform="rotate(69,116.7,160.18)" /><rect fill="none" height="94.07999999999998" stroke="black" stroke-width="2" transform="rotate(244,155.6,153.04)" width="67.19999999999999" x="122" y="106" /><rect fill="none" height="92.11999999999999" stroke="black" stroke-width="2" transform="rotate(86,128.9,94.06)" width="65.8" x="96" y="48" /><line stroke="black" stroke-width="2" transform="rotate(215,169.1,54.099999999999994)" x1="146" x2="192.2" y1="31" y2="77.19999999999999" /><line stroke="black" stroke-width="2" transform="rotate(90,99.0,148.0)" x1="64" x2="134.0" y1="113" y2="183.0" /></g><text font-family="Arial" font-size="14" text-anchor="middle" x="425" y="380">Option 2</text><g transform="translate(350,400)"><circle cx="36" cy="107" fill="none" r="34.3" stroke="black" stroke-width="2" /><rect fill="none" height="80.36" stroke="black" stroke-width="2" transform="rotate(159,100.7,132.18)" width="57.4" x="72" y="92" /><polygon fill="none" points="88,200.36 145.4,200.36 116.7,120" stroke="black" stroke-width="2" transform="rotate(69,116.7,160.18)" /><rect fill="none" height="94.07999999999998" stroke="black" stroke-width="2" transform="rotate(244,155.6,153.04)" width="67.19999999999999" x="122" y="106" /><rect fill="none" height="92.11999999999999" stroke="black" stroke-width="2" transform="rotate(88,128.9,94.06)" width="65.8" x="96" y="48" /><line stroke="black" stroke-width="2" transform="rotate(215,169.1,54.099999999999994)" x1="146" x2="192.2" y1="31" y2="77.19999999999999" /><line stroke="black" stroke-width="2" transform="rotate(90,99.0,148.0)" x1="64" x2="134.0" y1="113" y2="183.0" /></g><text font-family="Arial" font-size="14" text-anchor="middle" x="175" y="630">Option 3</text><g transform="translate(100,650)"><circle cx="36" cy="107" fill="none" r="34.3" stroke="black" stroke-width="2" /><rect fill="none" height="80.36" stroke="black" stroke-width="2" transform="rotate(162,100.7,132.18)" width="57.4" x="72" y="92" /><polygon fill="none" points="88,200.36 145.4,200.36 116.7,120" stroke="black" stroke-width="2" transform="rotate(69,116.7,160.18)" /><rect fill="none" height="94.07999999999998" stroke="black" stroke-width="2" transform="rotate(244,155.6,153.04)" width="67.19999999999999" x="122" y="106" /><rect fill="none" height="92.11999999999999" stroke="black" stroke-width="2" transform="rotate(86,128.9,94.06)" width="65.8" x="96" y="48" /><line stroke="black" stroke-width="2" transform="rotate(218,169.1,54.099999999999994)" x1="146" x2="192.2" y1="31" y2="77.19999999999999" /><line stroke="black" stroke-width="2" transform="rotate(91,99.0,148.0)" x1="64" x2="134.0" y1="113" y2="183.0" /></g><text font-family="Arial" font-size="14" text-anchor="middle" x="425" y="630">Option 4</text><g transform="translate(350,650)"><circle cx="36" cy="107" fill="none" r="24.5" stroke="black" stroke-width="2" /><rect fill="none" height="41" stroke="black" stroke-width="2" transform="rotate(110,92.5,112.5)" width="41" x="72" y="92" /><polygon fill="none" points="88,161 129,161 108.5,120" stroke="black" stroke-width="2" transform="rotate(17,108.5,140.5)" /><rect fill="none" height="48" stroke="black" stroke-width="2" transform="rotate(195,146.0,130.0)" width="48" x="122" y="106" /><rect fill="none" height="47" stroke="black" stroke-width="2" transform="rotate(38,119.5,71.5)" width="47" x="96" y="48" /><line stroke="black" stroke-width="2" transform="rotate(166,162.5,47.5)" x1="146" x2="179" y1="31" y2="64" /><line stroke="black" stroke-width="2" transform="rotate(39,89.0,138.0)" x1="64" x2="114" y1="113" y2="163" /></g></svg>