<?xml version="1.0" encoding="utf-8" ?>
<svg baseProfile="full" height="1000px" version="1.1" width="600px" xmlns="http://www.w3.org/2000/svg" xmlns:ev="http://www.w3.org/2001/xml-events" xmlns:xlink="http://www.w3.org/1999/xlink"><defs /><rect fill="white" height="100%" width="100%" x="0" y="0" /><text font-family="Arial" font-size="24" text-anchor="middle" x="300" y="40">Visual Discrimination Test</text><text font-family="Arial" font-size="18" text-anchor="middle" x="300" y="80">Target Pattern</text><g transform="translate(200,100)"><polygon fill="none" points="79,82 129,82 104.0,32" stroke="black" stroke-width="2" transform="rotate(158,104.0,57.0)" /><circle cx="26" cy="68" fill="none" r="22.0" stroke="black" stroke-width="2" /></g><text font-family="Arial" font-size="18" text-anchor="middle" x="300" y="350">Options</text><text font-family="Arial" font-size="14" text-anchor="middle" x="175" y="380">Option 1</text><g transform="translate(100,400)"><polygon fill="none" points="79,130.0 149.0,130.0 114.0,32" stroke="black" stroke-width="2" transform="rotate(208,114.0,81.0)" /><circle cx="26" cy="68" fill="none" r="30.799999999999997" stroke="black" stroke-width="2" /></g><text font-family="Arial" font-size="14" text-anchor="middle" x="425" y="380">Option 2</text><g transform="translate(350,400)"><polygon fill="none" points="79,82 129,82 104.0,32" stroke="black" stroke-width="2" transform="rotate(158,104.0,57.0)" /><circle cx="26" cy="68" fill="none" r="22.0" stroke="black" stroke-width="2" /></g><text font-family="Arial" font-size="14" text-anchor="middle" x="175" y="630">Option 3</text><g transform="translate(100,650)"><polygon fill="none" points="79,130.0 149.0,130.0 114.0,32" stroke="black" stroke-width="2" transform="rotate(208,114.0,81.0)" /><circle cx="26" cy="68" fill="none" r="30.799999999999997" stroke="black" stroke-width="2" /></g><text font-family="Arial" font-size="14" text-anchor="middle" x="425" y="630">Option 4</text><g transform="translate(350,650)"><polygon fill="none" points="79,130.0 149.0,130.0 114.0,32" stroke="black" stroke-width="2" transform="rotate(206,114.0,81.0)" /><circle cx="26" cy="68" fill="none" r="30.799999999999997" stroke="black" stroke-width="2" /></g></svg>