<?xml version="1.0" encoding="utf-8" ?>
<svg baseProfile="full" height="1000px" version="1.1" width="600px" xmlns="http://www.w3.org/2000/svg" xmlns:ev="http://www.w3.org/2001/xml-events" xmlns:xlink="http://www.w3.org/1999/xlink"><defs /><rect fill="white" height="100%" width="100%" x="0" y="0" /><text font-family="Arial" font-size="24" text-anchor="middle" x="300" y="40">Visual Discrimination Test</text><text font-family="Arial" font-size="18" text-anchor="middle" x="300" y="80">Target Pattern</text><g transform="translate(200,100)"><rect fill="none" height="44" stroke="black" stroke-width="2" transform="rotate(251,125.0,157.0)" width="44" x="103" y="135" /><circle cx="73" cy="117" fill="none" r="19.5" stroke="black" stroke-width="2" /><polygon fill="none" points="136,163 177,163 156.5,122" stroke="black" stroke-width="2" transform="rotate(81,156.5,142.5)" /><circle cx="110" cy="38" fill="none" r="15.5" stroke="black" stroke-width="2" /><polygon fill="none" points="73,57 111,57 92.0,19" stroke="black" stroke-width="2" transform="rotate(115,92.0,38.0)" /></g><text font-family="Arial" font-size="18" text-anchor="middle" x="300" y="350">Options</text><text font-family="Arial" font-size="14" text-anchor="middle" x="175" y="380">Option 1</text><g transform="translate(100,400)"><rect fill="none" height="44" stroke="black" stroke-width="2" transform="rotate(251,125.0,157.0)" width="44" x="103" y="135" /><circle cx="73" cy="117" fill="none" r="19.5" stroke="black" stroke-width="2" /><polygon fill="none" points="136,163 177,163 156.5,122" stroke="black" stroke-width="2" transform="rotate(81,156.5,142.5)" /><circle cx="110" cy="38" fill="none" r="15.5" stroke="black" stroke-width="2" /><polygon fill="none" points="73,57 111,57 92.0,19" stroke="black" stroke-width="2" transform="rotate(115,92.0,38.0)" /></g><text font-family="Arial" font-size="14" text-anchor="middle" x="425" y="380">Option 2</text><g transform="translate(350,400)"><rect fill="none" height="86.23999999999998" stroke="black" stroke-width="2" transform="rotate(301,133.8,178.12)" width="61.599999999999994" x="103" y="135" /><circle cx="73" cy="117" fill="none" r="27.299999999999997" stroke="black" stroke-width="2" /><polygon fill="none" points="136,202.36 193.4,202.36 164.7,122" stroke="black" stroke-width="2" transform="rotate(129,164.7,162.18)" /><circle cx="110" cy="38" fill="none" r="21.7" stroke="black" stroke-width="2" /><polygon fill="none" points="73,93.47999999999999 126.19999999999999,93.47999999999999 99.6,19" stroke="black" stroke-width="2" transform="rotate(164,99.6,56.239999999999995)" /></g><text font-family="Arial" font-size="14" text-anchor="middle" x="175" y="630">Option 3</text><g transform="translate(100,650)"><rect fill="none" height="86.23999999999998" stroke="black" stroke-width="2" transform="rotate(303,133.8,178.12)" width="61.599999999999994" x="103" y="135" /><circle cx="73" cy="117" fill="none" r="27.299999999999997" stroke="black" stroke-width="2" /><polygon fill="none" points="136,202.36 193.4,202.36 164.7,122" stroke="black" stroke-width="2" transform="rotate(129,164.7,162.18)" /><circle cx="110" cy="38" fill="none" r="21.7" stroke="black" stroke-width="2" /><polygon fill="none" points="73,93.47999999999999 126.19999999999999,93.47999999999999 99.6,19" stroke="black" stroke-width="2" transform="rotate(165,99.6,56.239999999999995)" /></g><text font-family="Arial" font-size="14" text-anchor="middle" x="425" y="630">Option 4</text><g transform="translate(350,650)"><rect fill="none" height="86.23999999999998" stroke="black" stroke-width="2" transform="rotate(302,133.8,178.12)" width="61.599999999999994" x="103" y="135" /><circle cx="73" cy="117" fill="none" r="27.299999999999997" stroke="black" stroke-width="2" /><polygon fill="none" points="136,202.36 193.4,202.36 164.7,122" stroke="black" stroke-width="2" transform="rotate(133,164.7,162.18)" /><circle cx="110" cy="38" fill="none" r="21.7" stroke="black" stroke-width="2" /><polygon fill="none" points="73,93.47999999999999 126.19999999999999,93.47999999999999 99.6,19" stroke="black" stroke-width="2" transform="rotate(166,99.6,56.239999999999995)" /></g></svg>