<?xml version="1.0" encoding="utf-8" ?>
<svg baseProfile="full" height="1000px" version="1.1" width="600px" xmlns="http://www.w3.org/2000/svg" xmlns:ev="http://www.w3.org/2001/xml-events" xmlns:xlink="http://www.w3.org/1999/xlink"><defs /><rect fill="white" height="100%" width="100%" x="0" y="0" /><text font-family="Arial" font-size="24" text-anchor="middle" x="300" y="40">Visual Discrimination Test</text><text font-family="Arial" font-size="18" text-anchor="middle" x="300" y="80">Target Pattern</text><g transform="translate(200,100)"><circle cx="28" cy="22" fill="none" r="24.0" stroke="black" stroke-width="2" /><line stroke="black" stroke-width="2" transform="rotate(168,113.0,123.0)" x1="92" x2="134" y1="102" y2="144" /><polygon fill="none" points="145,171 195,171 170.0,121" stroke="black" stroke-width="2" transform="rotate(22,170.0,146.0)" /><rect fill="none" height="46" stroke="black" stroke-width="2" transform="rotate(214,46.0,57.0)" width="46" x="23" y="34" /><rect fill="none" height="48" stroke="black" stroke-width="2" transform="rotate(270,131.0,45.0)" width="48" x="107" y="21" /><polygon fill="none" points="32,59 76,59 54.0,15" stroke="black" stroke-width="2" transform="rotate(54,54.0,37.0)" /><line stroke="black" stroke-width="2" transform="rotate(280,58.0,122.0)" x1="42" x2="74" y1="106" y2="138" /></g><text font-family="Arial" font-size="18" text-anchor="middle" x="300" y="350">Options</text><text font-family="Arial" font-size="14" text-anchor="middle" x="175" y="380">Option 1</text><g transform="translate(100,400)"><circle cx="28" cy="22" fill="none" r="24.0" stroke="black" stroke-width="2" /><line stroke="black" stroke-width="2" transform="rotate(168,113.0,123.0)" x1="92" x2="134" y1="102" y2="144" /><polygon fill="none" points="145,171 195,171 170.0,121" stroke="black" stroke-width="2" transform="rotate(22,170.0,146.0)" /><rect fill="none" height="46" stroke="black" stroke-width="2" transform="rotate(214,46.0,57.0)" width="46" x="23" y="34" /><rect fill="none" height="48" stroke="black" stroke-width="2" transform="rotate(270,131.0,45.0)" width="48" x="107" y="21" /><polygon fill="none" points="32,59 76,59 54.0,15" stroke="black" stroke-width="2" transform="rotate(54,54.0,37.0)" /><line stroke="black" stroke-width="2" transform="rotate(280,58.0,122.0)" x1="42" x2="74" y1="106" y2="138" /></g><text font-family="Arial" font-size="14" text-anchor="middle" x="425" y="380">Option 2</text><g transform="translate(350,400)"><circle cx="28" cy="22" fill="none" r="33.599999999999994" stroke="black" stroke-width="2" /><line stroke="black" stroke-width="2" transform="rotate(216,121.4,131.4)" x1="92" x2="150.8" y1="102" y2="160.8" /><polygon fill="none" points="145,219.0 215.0,219.0 180.0,121" stroke="black" stroke-width="2" transform="rotate(74,180.0,170.0)" /><rect fill="none" height="90.15999999999998" stroke="black" stroke-width="2" transform="rotate(263,55.199999999999996,79.07999999999998)" width="64.39999999999999" x="23" y="34" /><rect fill="none" height="94.07999999999998" stroke="black" stroke-width="2" transform="rotate(318,140.6,68.03999999999999)" width="67.19999999999999" x="107" y="21" /><polygon fill="none" points="32,101.23999999999998 93.6,101.23999999999998 62.8,15" stroke="black" stroke-width="2" transform="rotate(103,62.8,58.11999999999999)" /><line stroke="black" stroke-width="2" transform="rotate(332,64.4,128.4)" x1="42" x2="86.8" y1="106" y2="150.8" /></g><text font-family="Arial" font-size="14" text-anchor="middle" x="175" y="630">Option 3</text><g transform="translate(100,650)"><circle cx="28" cy="22" fill="none" r="33.599999999999994" stroke="black" stroke-width="2" /><line stroke="black" stroke-width="2" transform="rotate(220,121.4,131.4)" x1="92" x2="150.8" y1="102" y2="160.8" /><polygon fill="none" points="145,219.0 215.0,219.0 180.0,121" stroke="black" stroke-width="2" transform="rotate(73,180.0,170.0)" /><rect fill="none" height="90.15999999999998" stroke="black" stroke-width="2" transform="rotate(266,55.199999999999996,79.07999999999998)" width="64.39999999999999" x="23" y="34" /><rect fill="none" height="94.07999999999998" stroke="black" stroke-width="2" transform="rotate(322,140.6,68.03999999999999)" width="67.19999999999999" x="107" y="21" /><polygon fill="none" points="32,101.23999999999998 93.6,101.23999999999998 62.8,15" stroke="black" stroke-width="2" transform="rotate(103,62.8,58.11999999999999)" /><line stroke="black" stroke-width="2" transform="rotate(332,64.4,128.4)" x1="42" x2="86.8" y1="106" y2="150.8" /></g><text font-family="Arial" font-size="14" text-anchor="middle" x="425" y="630">Option 4</text><g transform="translate(350,650)"><circle cx="28" cy="22" fill="none" r="33.599999999999994" stroke="black" stroke-width="2" /><line stroke="black" stroke-width="2" transform="rotate(217,121.4,131.4)" x1="92" x2="150.8" y1="102" y2="160.8" /><polygon fill="none" points="145,219.0 215.0,219.0 180.0,121" stroke="black" stroke-width="2" transform="rotate(71,180.0,170.0)" /><rect fill="none" height="90.15999999999998" stroke="black" stroke-width="2" transform="rotate(263,55.199999999999996,79.07999999999998)" width="64.39999999999999" x="23" y="34" /><rect fill="none" height="94.07999999999998" stroke="black" stroke-width="2" transform="rotate(321,140.6,68.03999999999999)" width="67.19999999999999" x="107" y="21" /><polygon fill="none" points="32,101.23999999999998 93.6,101.23999999999998 62.8,15" stroke="black" stroke-width="2" transform="rotate(103,62.8,58.11999999999999)" /><line stroke="black" stroke-width="2" transform="rotate(330,64.4,128.4)" x1="42" x2="86.8" y1="106" y2="150.8" /></g></svg>