<?xml version="1.0" encoding="utf-8" ?>
<svg baseProfile="full" height="1000px" version="1.1" width="600px" xmlns="http://www.w3.org/2000/svg" xmlns:ev="http://www.w3.org/2001/xml-events" xmlns:xlink="http://www.w3.org/1999/xlink"><defs /><rect fill="white" height="100%" width="100%" x="0" y="0" /><text font-family="Arial" font-size="24" text-anchor="middle" x="300" y="40">Visual Discrimination Test</text><text font-family="Arial" font-size="18" text-anchor="middle" x="300" y="80">Target Pattern</text><g transform="translate(200,100)"><polygon fill="none" points="78,125 118,125 98.0,85" stroke="black" stroke-width="2" transform="rotate(244,98.0,105.0)" /><polygon fill="none" points="82,156 123,156 102.5,115" stroke="black" stroke-width="2" transform="rotate(161,102.5,135.5)" /><circle cx="88" cy="26" fill="none" r="20.0" stroke="black" stroke-width="2" /><line stroke="black" stroke-width="2" transform="rotate(60,99.0,130.0)" x1="76" x2="122" y1="107" y2="153" /><rect fill="none" height="33" stroke="black" stroke-width="2" transform="rotate(174,42.5,114.5)" width="33" x="26" y="98" /><line stroke="black" stroke-width="2" transform="rotate(177,85.5,119.5)" x1="62" x2="109" y1="96" y2="143" /><line stroke="black" stroke-width="2" transform="rotate(240,34.0,92.0)" x1="12" x2="56" y1="70" y2="114" /><polygon fill="none" points="20,52 58,52 39.0,14" stroke="black" stroke-width="2" transform="rotate(356,39.0,33.0)" /><line stroke="black" stroke-width="2" transform="rotate(313,154.0,114.0)" x1="139" x2="169" y1="99" y2="129" /><line stroke="black" stroke-width="2" transform="rotate(177,163.5,65.5)" x1="147" x2="180" y1="49" y2="82" /></g><text font-family="Arial" font-size="18" text-anchor="middle" x="300" y="350">Options</text><text font-family="Arial" font-size="14" text-anchor="middle" x="175" y="380">Option 1</text><g transform="translate(100,400)"><polygon fill="none" points="78,163.39999999999998 134.0,163.39999999999998 106.0,85" stroke="black" stroke-width="2" transform="rotate(293,106.0,124.19999999999999)" /><rect fill="none" height="80.36" stroke="black" stroke-width="2" transform="rotate(213,110.7,155.18)" width="57.4" x="82" y="115" /><polygon fill="none" points="88,104.39999999999999 144.0,104.39999999999999 116.0,26" stroke="black" stroke-width="2" transform="rotate(355,116.0,65.19999999999999)" /><polygon fill="none" points="76,197.15999999999997 140.39999999999998,197.15999999999997 108.19999999999999,107" stroke="black" stroke-width="2" transform="rotate(111,108.19999999999999,152.07999999999998)" /><line stroke="black" stroke-width="2" transform="rotate(225,49.099999999999994,121.1)" x1="26" x2="72.19999999999999" y1="98" y2="144.2" /><rect fill="none" height="92.11999999999999" stroke="black" stroke-width="2" transform="rotate(228,94.9,142.06)" width="65.8" x="62" y="96" /><line stroke="black" stroke-width="2" transform="rotate(292,42.8,100.8)" x1="12" x2="73.6" y1="70" y2="131.6" /><rect fill="none" height="74.47999999999999" stroke="black" stroke-width="2" transform="rotate(408,46.599999999999994,51.239999999999995)" width="53.199999999999996" x="20" y="14" /><rect fill="none" height="58.8" stroke="black" stroke-width="2" transform="rotate(365,160.0,128.4)" width="42.0" x="139" y="99" /><line stroke="black" stroke-width="2" transform="rotate(229,170.1,72.1)" x1="147" x2="193.2" y1="49" y2="95.19999999999999" /></g><text font-family="Arial" font-size="14" text-anchor="middle" x="425" y="380">Option 2</text><g transform="translate(350,400)"><polygon fill="none" points="78,125 118,125 98.0,85" stroke="black" stroke-width="2" transform="rotate(244,98.0,105.0)" /><polygon fill="none" points="82,156 123,156 102.5,115" stroke="black" stroke-width="2" transform="rotate(161,102.5,135.5)" /><circle cx="88" cy="26" fill="none" r="20.0" stroke="black" stroke-width="2" /><line stroke="black" stroke-width="2" transform="rotate(60,99.0,130.0)" x1="76" x2="122" y1="107" y2="153" /><rect fill="none" height="33" stroke="black" stroke-width="2" transform="rotate(174,42.5,114.5)" width="33" x="26" y="98" /><line stroke="black" stroke-width="2" transform="rotate(177,85.5,119.5)" x1="62" x2="109" y1="96" y2="143" /><line stroke="black" stroke-width="2" transform="rotate(240,34.0,92.0)" x1="12" x2="56" y1="70" y2="114" /><polygon fill="none" points="20,52 58,52 39.0,14" stroke="black" stroke-width="2" transform="rotate(356,39.0,33.0)" /><line stroke="black" stroke-width="2" transform="rotate(313,154.0,114.0)" x1="139" x2="169" y1="99" y2="129" /><line stroke="black" stroke-width="2" transform="rotate(177,163.5,65.5)" x1="147" x2="180" y1="49" y2="82" /></g><text font-family="Arial" font-size="14" text-anchor="middle" x="175" y="630">Option 3</text><g transform="translate(100,650)"><line stroke="black" stroke-width="2" transform="rotate(295,106.0,113.0)" x1="78" x2="134.0" y1="85" y2="141.0" /><rect fill="none" height="80.36" stroke="black" stroke-width="2" transform="rotate(209,110.7,155.18)" width="57.4" x="82" y="115" /><polygon fill="none" points="88,104.39999999999999 144.0,104.39999999999999 116.0,26" stroke="black" stroke-width="2" transform="rotate(353,116.0,65.19999999999999)" /><rect fill="none" height="90.15999999999998" stroke="black" stroke-width="2" transform="rotate(109,108.19999999999999,152.07999999999998)" width="64.39999999999999" x="76" y="107" /><polygon fill="none" points="26,162.68 72.19999999999999,162.68 49.099999999999994,98" stroke="black" stroke-width="2" transform="rotate(226,49.099999999999994,130.34)" /><rect fill="none" height="92.11999999999999" stroke="black" stroke-width="2" transform="rotate(225,94.9,142.06)" width="65.8" x="62" y="96" /><line stroke="black" stroke-width="2" transform="rotate(289,42.8,100.8)" x1="12" x2="73.6" y1="70" y2="131.6" /><polygon fill="none" points="20,88.47999999999999 73.19999999999999,88.47999999999999 46.599999999999994,14" stroke="black" stroke-width="2" transform="rotate(404,46.599999999999994,51.239999999999995)" /><polygon fill="none" points="139,157.8 181.0,157.8 160.0,99" stroke="black" stroke-width="2" transform="rotate(362,160.0,128.4)" /><rect fill="none" height="64.67999999999999" stroke="black" stroke-width="2" transform="rotate(226,170.1,81.34)" width="46.199999999999996" x="147" y="49" /></g><text font-family="Arial" font-size="14" text-anchor="middle" x="425" y="630">Option 4</text><g transform="translate(350,650)"><polygon fill="none" points="78,163.39999999999998 134.0,163.39999999999998 106.0,85" stroke="black" stroke-width="2" transform="rotate(293,106.0,124.19999999999999)" /><polygon fill="none" points="82,195.36 139.4,195.36 110.7,115" stroke="black" stroke-width="2" transform="rotate(213,110.7,155.18)" /><polygon fill="none" points="88,104.39999999999999 144.0,104.39999999999999 116.0,26" stroke="black" stroke-width="2" transform="rotate(355,116.0,65.19999999999999)" /><polygon fill="none" points="76,197.15999999999997 140.39999999999998,197.15999999999997 108.19999999999999,107" stroke="black" stroke-width="2" transform="rotate(108,108.19999999999999,152.07999999999998)" /><polygon fill="none" points="26,162.68 72.19999999999999,162.68 49.099999999999994,98" stroke="black" stroke-width="2" transform="rotate(225,49.099999999999994,130.34)" /><rect fill="none" height="92.11999999999999" stroke="black" stroke-width="2" transform="rotate(226,94.9,142.06)" width="65.8" x="62" y="96" /><polygon fill="none" points="12,156.23999999999998 73.6,156.23999999999998 42.8,70" stroke="black" stroke-width="2" transform="rotate(289,42.8,113.11999999999999)" /><polygon fill="none" points="20,88.47999999999999 73.19999999999999,88.47999999999999 46.599999999999994,14" stroke="black" stroke-width="2" transform="rotate(408,46.599999999999994,51.239999999999995)" /><rect fill="none" height="58.8" stroke="black" stroke-width="2" transform="rotate(363,160.0,128.4)" width="42.0" x="139" y="99" /><polygon fill="none" points="147,113.67999999999999 193.2,113.67999999999999 170.1,49" stroke="black" stroke-width="2" transform="rotate(229,170.1,81.34)" /></g></svg>