<?xml version="1.0" encoding="utf-8" ?>
<svg baseProfile="full" height="1000px" version="1.1" width="600px" xmlns="http://www.w3.org/2000/svg" xmlns:ev="http://www.w3.org/2001/xml-events" xmlns:xlink="http://www.w3.org/1999/xlink"><defs /><rect fill="white" height="100%" width="100%" x="0" y="0" /><text font-family="Arial" font-size="24" text-anchor="middle" x="300" y="40">Visual Discrimination Test</text><text font-family="Arial" font-size="18" text-anchor="middle" x="300" y="80">Target Pattern</text><g transform="translate(200,100)"><line stroke="black" stroke-width="2" transform="rotate(174,120.0,121.0)" x1="97" x2="143" y1="98" y2="144" /><polygon fill="none" points="64,173 113,173 88.5,124" stroke="black" stroke-width="2" transform="rotate(141,88.5,148.5)" /><line stroke="black" stroke-width="2" transform="rotate(289,87.0,117.0)" x1="62" x2="112" y1="92" y2="142" /><polygon fill="none" points="64,186 110,186 87.0,140" stroke="black" stroke-width="2" transform="rotate(238,87.0,163.0)" /></g><text font-family="Arial" font-size="18" text-anchor="middle" x="300" y="350">Options</text><text font-family="Arial" font-size="14" text-anchor="middle" x="175" y="380">Option 1</text><g transform="translate(100,400)"><rect fill="none" height="90.15999999999998" stroke="black" stroke-width="2" transform="rotate(224,129.2,143.07999999999998)" width="64.39999999999999" x="97" y="98" /><polygon fill="none" points="64,220.04 132.6,220.04 98.3,124" stroke="black" stroke-width="2" transform="rotate(190,98.3,172.01999999999998)" /><rect fill="none" height="98.0" stroke="black" stroke-width="2" transform="rotate(339,97.0,141.0)" width="70.0" x="62" y="92" /><polygon fill="none" points="64,230.15999999999997 128.39999999999998,230.15999999999997 96.19999999999999,140" stroke="black" stroke-width="2" transform="rotate(288,96.19999999999999,185.07999999999998)" /></g><text font-family="Arial" font-size="14" text-anchor="middle" x="425" y="380">Option 2</text><g transform="translate(350,400)"><polygon fill="none" points="97,188.15999999999997 161.39999999999998,188.15999999999997 129.2,98" stroke="black" stroke-width="2" transform="rotate(222,129.2,143.07999999999998)" /><line stroke="black" stroke-width="2" transform="rotate(193,98.3,158.3)" x1="64" x2="132.6" y1="124" y2="192.6" /><line stroke="black" stroke-width="2" transform="rotate(341,97.0,127.0)" x1="62" x2="132.0" y1="92" y2="162.0" /><rect fill="none" height="90.15999999999998" stroke="black" stroke-width="2" transform="rotate(286,96.19999999999999,185.07999999999998)" width="64.39999999999999" x="64" y="140" /></g><text font-family="Arial" font-size="14" text-anchor="middle" x="175" y="630">Option 3</text><g transform="translate(100,650)"><rect fill="none" height="90.15999999999998" stroke="black" stroke-width="2" transform="rotate(222,129.2,143.07999999999998)" width="64.39999999999999" x="97" y="98" /><line stroke="black" stroke-width="2" transform="rotate(191,98.3,158.3)" x1="64" x2="132.6" y1="124" y2="192.6" /><polygon fill="none" points="62,190.0 132.0,190.0 97.0,92" stroke="black" stroke-width="2" transform="rotate(337,97.0,141.0)" /><polygon fill="none" points="64,230.15999999999997 128.39999999999998,230.15999999999997 96.19999999999999,140" stroke="black" stroke-width="2" transform="rotate(290,96.19999999999999,185.07999999999998)" /></g><text font-family="Arial" font-size="14" text-anchor="middle" x="425" y="630">Option 4</text><g transform="translate(350,650)"><line stroke="black" stroke-width="2" transform="rotate(174,120.0,121.0)" x1="97" x2="143" y1="98" y2="144" /><polygon fill="none" points="64,173 113,173 88.5,124" stroke="black" stroke-width="2" transform="rotate(141,88.5,148.5)" /><line stroke="black" stroke-width="2" transform="rotate(289,87.0,117.0)" x1="62" x2="112" y1="92" y2="142" /><polygon fill="none" points="64,186 110,186 87.0,140" stroke="black" stroke-width="2" transform="rotate(238,87.0,163.0)" /></g></svg>