<?xml version="1.0" encoding="utf-8" ?>
<svg baseProfile="full" height="1000px" version="1.1" width="600px" xmlns="http://www.w3.org/2000/svg" xmlns:ev="http://www.w3.org/2001/xml-events" xmlns:xlink="http://www.w3.org/1999/xlink"><defs /><rect fill="white" height="100%" width="100%" x="0" y="0" /><text font-family="Arial" font-size="24" text-anchor="middle" x="300" y="40">Visual Discrimination Test</text><text font-family="Arial" font-size="18" text-anchor="middle" x="300" y="80">Target Pattern</text><g transform="translate(200,100)"><polygon fill="none" points="64,113 111,113 87.5,66" stroke="black" stroke-width="2" transform="rotate(61,87.5,89.5)" /><polygon fill="none" points="88,140 119,140 103.5,109" stroke="black" stroke-width="2" transform="rotate(327,103.5,124.5)" /></g><text font-family="Arial" font-size="18" text-anchor="middle" x="300" y="350">Options</text><text font-family="Arial" font-size="14" text-anchor="middle" x="175" y="380">Option 1</text><g transform="translate(100,400)"><polygon fill="none" points="64,158.12 129.8,158.12 96.9,66" stroke="black" stroke-width="2" transform="rotate(110,96.9,112.06)" /><polygon fill="none" points="88,169.76 131.4,169.76 109.7,109" stroke="black" stroke-width="2" transform="rotate(377,109.7,139.38)" /></g><text font-family="Arial" font-size="14" text-anchor="middle" x="425" y="380">Option 2</text><g transform="translate(350,400)"><polygon fill="none" points="64,113 111,113 87.5,66" stroke="black" stroke-width="2" transform="rotate(61,87.5,89.5)" /><polygon fill="none" points="88,140 119,140 103.5,109" stroke="black" stroke-width="2" transform="rotate(327,103.5,124.5)" /></g><text font-family="Arial" font-size="14" text-anchor="middle" x="175" y="630">Option 3</text><g transform="translate(100,650)"><polygon fill="none" points="64,158.12 129.8,158.12 96.9,66" stroke="black" stroke-width="2" transform="rotate(110,96.9,112.06)" /><line stroke="black" stroke-width="2" transform="rotate(376,109.7,130.7)" x1="88" x2="131.4" y1="109" y2="152.4" /></g><text font-family="Arial" font-size="14" text-anchor="middle" x="425" y="630">Option 4</text><g transform="translate(350,650)"><polygon fill="none" points="64,158.12 129.8,158.12 96.9,66" stroke="black" stroke-width="2" transform="rotate(109,96.9,112.06)" /><line stroke="black" stroke-width="2" transform="rotate(375,109.7,130.7)" x1="88" x2="131.4" y1="109" y2="152.4" /></g></svg>