<?xml version="1.0" encoding="utf-8" ?>
<svg baseProfile="full" height="1000px" version="1.1" width="600px" xmlns="http://www.w3.org/2000/svg" xmlns:ev="http://www.w3.org/2001/xml-events" xmlns:xlink="http://www.w3.org/1999/xlink"><defs /><rect fill="white" height="100%" width="100%" x="0" y="0" /><text font-family="Arial" font-size="24" text-anchor="middle" x="300" y="40">Visual Discrimination Test</text><text font-family="Arial" font-size="18" text-anchor="middle" x="300" y="80">Target Pattern</text><g transform="translate(200,100)"><polygon fill="none" points="106,135 146,135 126.0,95" stroke="black" stroke-width="2" transform="rotate(220,126.0,115.0)" /><polygon fill="none" points="100,148 144,148 122.0,104" stroke="black" stroke-width="2" transform="rotate(142,122.0,126.0)" /><circle cx="122" cy="44" fill="none" r="21.0" stroke="black" stroke-width="2" /><line stroke="black" stroke-width="2" transform="rotate(64,115.0,85.0)" x1="100" x2="130" y1="70" y2="100" /><circle cx="76" cy="114" fill="none" r="22.0" stroke="black" stroke-width="2" /><polygon fill="none" points="147,162 186,162 166.5,123" stroke="black" stroke-width="2" transform="rotate(72,166.5,142.5)" /></g><text font-family="Arial" font-size="18" text-anchor="middle" x="300" y="350">Options</text><text font-family="Arial" font-size="14" text-anchor="middle" x="175" y="380">Option 1</text><g transform="translate(100,400)"><polygon fill="none" points="106,135 146,135 126.0,95" stroke="black" stroke-width="2" transform="rotate(220,126.0,115.0)" /><polygon fill="none" points="100,148 144,148 122.0,104" stroke="black" stroke-width="2" transform="rotate(142,122.0,126.0)" /><circle cx="122" cy="44" fill="none" r="21.0" stroke="black" stroke-width="2" /><line stroke="black" stroke-width="2" transform="rotate(64,115.0,85.0)" x1="100" x2="130" y1="70" y2="100" /><circle cx="76" cy="114" fill="none" r="22.0" stroke="black" stroke-width="2" /><polygon fill="none" points="147,162 186,162 166.5,123" stroke="black" stroke-width="2" transform="rotate(72,166.5,142.5)" /></g><text font-family="Arial" font-size="14" text-anchor="middle" x="425" y="380">Option 2</text><g transform="translate(350,400)"><line stroke="black" stroke-width="2" transform="rotate(271,134.0,123.0)" x1="106" x2="162.0" y1="95" y2="151.0" /><line stroke="black" stroke-width="2" transform="rotate(193,130.8,134.8)" x1="100" x2="161.6" y1="104" y2="165.6" /><line stroke="black" stroke-width="2" transform="rotate(411,151.4,73.4)" x1="122" x2="180.8" y1="44" y2="102.8" /><rect fill="none" height="58.8" stroke="black" stroke-width="2" transform="rotate(112,121.0,99.4)" width="42.0" x="100" y="70" /><line stroke="black" stroke-width="2" transform="rotate(122,106.8,144.8)" x1="76" x2="137.6" y1="114" y2="175.6" /><polygon fill="none" points="147,199.44 201.6,199.44 174.3,123" stroke="black" stroke-width="2" transform="rotate(123,174.3,161.22)" /></g><text font-family="Arial" font-size="14" text-anchor="middle" x="175" y="630">Option 3</text><g transform="translate(100,650)"><line stroke="black" stroke-width="2" transform="rotate(271,134.0,123.0)" x1="106" x2="162.0" y1="95" y2="151.0" /><line stroke="black" stroke-width="2" transform="rotate(194,130.8,134.8)" x1="100" x2="161.6" y1="104" y2="165.6" /><line stroke="black" stroke-width="2" transform="rotate(410,151.4,73.4)" x1="122" x2="180.8" y1="44" y2="102.8" /><line stroke="black" stroke-width="2" transform="rotate(114,121.0,91.0)" x1="100" x2="142.0" y1="70" y2="112.0" /><rect fill="none" height="86.23999999999998" stroke="black" stroke-width="2" transform="rotate(125,106.8,157.12)" width="61.599999999999994" x="76" y="114" /><line stroke="black" stroke-width="2" transform="rotate(124,174.3,150.3)" x1="147" x2="201.6" y1="123" y2="177.6" /></g><text font-family="Arial" font-size="14" text-anchor="middle" x="425" y="630">Option 4</text><g transform="translate(350,650)"><polygon fill="none" points="106,173.39999999999998 162.0,173.39999999999998 134.0,95" stroke="black" stroke-width="2" transform="rotate(271,134.0,134.2)" /><polygon fill="none" points="100,190.23999999999998 161.6,190.23999999999998 130.8,104" stroke="black" stroke-width="2" transform="rotate(191,130.8,147.12)" /><rect fill="none" height="82.32" stroke="black" stroke-width="2" transform="rotate(411,151.4,85.16)" width="58.8" x="122" y="44" /><polygon fill="none" points="100,128.8 142.0,128.8 121.0,70" stroke="black" stroke-width="2" transform="rotate(112,121.0,99.4)" /><line stroke="black" stroke-width="2" transform="rotate(123,106.8,144.8)" x1="76" x2="137.6" y1="114" y2="175.6" /><line stroke="black" stroke-width="2" transform="rotate(122,174.3,150.3)" x1="147" x2="201.6" y1="123" y2="177.6" /></g></svg>