<?xml version="1.0" encoding="utf-8" ?>
<svg baseProfile="full" height="1000px" version="1.1" width="600px" xmlns="http://www.w3.org/2000/svg" xmlns:ev="http://www.w3.org/2001/xml-events" xmlns:xlink="http://www.w3.org/1999/xlink"><defs /><rect fill="white" height="100%" width="100%" x="0" y="0" /><text font-family="Arial" font-size="24" text-anchor="middle" x="300" y="40">Visual Discrimination Test</text><text font-family="Arial" font-size="18" text-anchor="middle" x="300" y="80">Target Pattern</text><g transform="translate(200,100)"><rect fill="none" height="30" stroke="black" stroke-width="2" transform="rotate(147,97.0,111.0)" width="30" x="82" y="96" /><line stroke="black" stroke-width="2" transform="rotate(295,55.5,163.5)" x1="39" x2="72" y1="147" y2="180" /><line stroke="black" stroke-width="2" transform="rotate(285,55.5,166.5)" x1="39" x2="72" y1="150" y2="183" /><line stroke="black" stroke-width="2" transform="rotate(39,153.5,85.5)" x1="135" x2="172" y1="67" y2="104" /><line stroke="black" stroke-width="2" transform="rotate(21,124.0,170.0)" x1="104" x2="144" y1="150" y2="190" /><rect fill="none" height="47" stroke="black" stroke-width="2" transform="rotate(333,57.5,113.5)" width="47" x="34" y="90" /><rect fill="none" height="45" stroke="black" stroke-width="2" transform="rotate(168,156.5,135.5)" width="45" x="134" y="113" /></g><text font-family="Arial" font-size="18" text-anchor="middle" x="300" y="350">Options</text><text font-family="Arial" font-size="14" text-anchor="middle" x="175" y="380">Option 1</text><g transform="translate(100,400)"><rect fill="none" height="30" stroke="black" stroke-width="2" transform="rotate(147,97.0,111.0)" width="30" x="82" y="96" /><line stroke="black" stroke-width="2" transform="rotate(295,55.5,163.5)" x1="39" x2="72" y1="147" y2="180" /><line stroke="black" stroke-width="2" transform="rotate(285,55.5,166.5)" x1="39" x2="72" y1="150" y2="183" /><line stroke="black" stroke-width="2" transform="rotate(39,153.5,85.5)" x1="135" x2="172" y1="67" y2="104" /><line stroke="black" stroke-width="2" transform="rotate(21,124.0,170.0)" x1="104" x2="144" y1="150" y2="190" /><rect fill="none" height="47" stroke="black" stroke-width="2" transform="rotate(333,57.5,113.5)" width="47" x="34" y="90" /><rect fill="none" height="45" stroke="black" stroke-width="2" transform="rotate(168,156.5,135.5)" width="45" x="134" y="113" /></g><text font-family="Arial" font-size="14" text-anchor="middle" x="425" y="380">Option 2</text><g transform="translate(350,400)"><rect fill="none" height="58.8" stroke="black" stroke-width="2" transform="rotate(199,103.0,125.4)" width="42.0" x="82" y="96" /><line stroke="black" stroke-width="2" transform="rotate(347,62.099999999999994,170.1)" x1="39" x2="85.19999999999999" y1="147" y2="193.2" /><rect fill="none" height="64.67999999999999" stroke="black" stroke-width="2" transform="rotate(337,62.099999999999994,182.34)" width="46.199999999999996" x="39" y="150" /><rect fill="none" height="72.52" stroke="black" stroke-width="2" transform="rotate(87,160.9,103.25999999999999)" width="51.8" x="135" y="67" /><rect fill="none" height="78.39999999999999" stroke="black" stroke-width="2" transform="rotate(71,132.0,189.2)" width="56.0" x="104" y="150" /><rect fill="none" height="92.11999999999999" stroke="black" stroke-width="2" transform="rotate(381,66.9,136.06)" width="65.8" x="34" y="90" /><polygon fill="none" points="134,201.2 197.0,201.2 165.5,113" stroke="black" stroke-width="2" transform="rotate(217,165.5,157.1)" /></g><text font-family="Arial" font-size="14" text-anchor="middle" x="175" y="630">Option 3</text><g transform="translate(100,650)"><line stroke="black" stroke-width="2" transform="rotate(196,103.0,117.0)" x1="82" x2="124.0" y1="96" y2="138.0" /><polygon fill="none" points="39,211.68 85.19999999999999,211.68 62.099999999999994,147" stroke="black" stroke-width="2" transform="rotate(343,62.099999999999994,179.34)" /><polygon fill="none" points="39,214.68 85.19999999999999,214.68 62.099999999999994,150" stroke="black" stroke-width="2" transform="rotate(334,62.099999999999994,182.34)" /><line stroke="black" stroke-width="2" transform="rotate(90,160.9,92.9)" x1="135" x2="186.8" y1="67" y2="118.8" /><polygon fill="none" points="104,228.39999999999998 160.0,228.39999999999998 132.0,150" stroke="black" stroke-width="2" transform="rotate(69,132.0,189.2)" /><line stroke="black" stroke-width="2" transform="rotate(384,66.9,122.9)" x1="34" x2="99.8" y1="90" y2="155.8" /><polygon fill="none" points="134,201.2 197.0,201.2 165.5,113" stroke="black" stroke-width="2" transform="rotate(219,165.5,157.1)" /></g><text font-family="Arial" font-size="14" text-anchor="middle" x="425" y="630">Option 4</text><g transform="translate(350,650)"><rect fill="none" height="58.8" stroke="black" stroke-width="2" transform="rotate(197,103.0,125.4)" width="42.0" x="82" y="96" /><line stroke="black" stroke-width="2" transform="rotate(346,62.099999999999994,170.1)" x1="39" x2="85.19999999999999" y1="147" y2="193.2" /><polygon fill="none" points="39,214.68 85.19999999999999,214.68 62.099999999999994,150" stroke="black" stroke-width="2" transform="rotate(333,62.099999999999994,182.34)" /><polygon fill="none" points="135,139.51999999999998 186.8,139.51999999999998 160.9,67" stroke="black" stroke-width="2" transform="rotate(88,160.9,103.25999999999999)" /><polygon fill="none" points="104,228.39999999999998 160.0,228.39999999999998 132.0,150" stroke="black" stroke-width="2" transform="rotate(72,132.0,189.2)" /><rect fill="none" height="92.11999999999999" stroke="black" stroke-width="2" transform="rotate(385,66.9,136.06)" width="65.8" x="34" y="90" /><line stroke="black" stroke-width="2" transform="rotate(220,165.5,144.5)" x1="134" x2="197.0" y1="113" y2="176.0" /></g></svg>