<?xml version="1.0" encoding="utf-8" ?>
<svg baseProfile="full" height="1000px" version="1.1" width="600px" xmlns="http://www.w3.org/2000/svg" xmlns:ev="http://www.w3.org/2001/xml-events" xmlns:xlink="http://www.w3.org/1999/xlink"><defs /><rect fill="white" height="100%" width="100%" x="0" y="0" /><text font-family="Arial" font-size="24" text-anchor="middle" x="300" y="40">Visual Discrimination Test</text><text font-family="Arial" font-size="18" text-anchor="middle" x="300" y="80">Target Pattern</text><g transform="translate(200,100)"><circle cx="74" cy="101" fill="none" r="17.5" stroke="black" stroke-width="2" /><line stroke="black" stroke-width="2" transform="rotate(342,111.5,74.5)" x1="91" x2="132" y1="54" y2="95" /><line stroke="black" stroke-width="2" transform="rotate(344,30.5,54.5)" x1="10" x2="51" y1="34" y2="75" /><rect fill="none" height="47" stroke="black" stroke-width="2" transform="rotate(356,142.5,169.5)" width="47" x="119" y="146" /><line stroke="black" stroke-width="2" transform="rotate(152,105.5,117.5)" x1="86" x2="125" y1="98" y2="137" /></g><text font-family="Arial" font-size="18" text-anchor="middle" x="300" y="350">Options</text><text font-family="Arial" font-size="14" text-anchor="middle" x="175" y="380">Option 1</text><g transform="translate(100,400)"><rect fill="none" height="39.2" stroke="black" stroke-width="2" transform="rotate(297,98.5,120.6)" width="49.0" x="74" y="101" /><line stroke="black" stroke-width="2" transform="rotate(348,119.7,82.7)" x1="91" x2="148.4" y1="54" y2="111.4" /><polygon fill="none" points="10,79.92 67.4,79.92 38.7,34" stroke="black" stroke-width="2" transform="rotate(349,38.7,56.96)" /><rect fill="none" height="52.64" stroke="black" stroke-width="2" transform="rotate(362,151.9,172.32)" width="65.8" x="119" y="146" /><line stroke="black" stroke-width="2" transform="rotate(159,113.3,125.3)" x1="86" x2="140.6" y1="98" y2="152.6" /></g><text font-family="Arial" font-size="14" text-anchor="middle" x="425" y="380">Option 2</text><g transform="translate(350,400)"><circle cx="74" cy="101" fill="none" r="17.5" stroke="black" stroke-width="2" /><line stroke="black" stroke-width="2" transform="rotate(342,111.5,74.5)" x1="91" x2="132" y1="54" y2="95" /><line stroke="black" stroke-width="2" transform="rotate(344,30.5,54.5)" x1="10" x2="51" y1="34" y2="75" /><rect fill="none" height="47" stroke="black" stroke-width="2" transform="rotate(356,142.5,169.5)" width="47" x="119" y="146" /><line stroke="black" stroke-width="2" transform="rotate(152,105.5,117.5)" x1="86" x2="125" y1="98" y2="137" /></g><text font-family="Arial" font-size="14" text-anchor="middle" x="175" y="630">Option 3</text><g transform="translate(100,650)"><polygon fill="none" points="74,140.2 123.0,140.2 98.5,101" stroke="black" stroke-width="2" transform="rotate(294,98.5,120.6)" /><polygon fill="none" points="91,99.92 148.4,99.92 119.7,54" stroke="black" stroke-width="2" transform="rotate(346,119.7,76.96000000000001)" /><polygon fill="none" points="10,79.92 67.4,79.92 38.7,34" stroke="black" stroke-width="2" transform="rotate(348,38.7,56.96)" /><rect fill="none" height="52.64" stroke="black" stroke-width="2" transform="rotate(362,151.9,172.32)" width="65.8" x="119" y="146" /><line stroke="black" stroke-width="2" transform="rotate(157,113.3,125.3)" x1="86" x2="140.6" y1="98" y2="152.6" /></g><text font-family="Arial" font-size="14" text-anchor="middle" x="425" y="630">Option 4</text><g transform="translate(350,650)"><rect fill="none" height="39.2" stroke="black" stroke-width="2" transform="rotate(297,98.5,120.6)" width="49.0" x="74" y="101" /><polygon fill="none" points="91,99.92 148.4,99.92 119.7,54" stroke="black" stroke-width="2" transform="rotate(348,119.7,76.96000000000001)" /><rect fill="none" height="45.92" stroke="black" stroke-width="2" transform="rotate(350,38.7,56.96)" width="57.4" x="10" y="34" /><line stroke="black" stroke-width="2" transform="rotate(362,151.9,178.9)" x1="119" x2="184.8" y1="146" y2="211.8" /><line stroke="black" stroke-width="2" transform="rotate(157,113.3,125.3)" x1="86" x2="140.6" y1="98" y2="152.6" /></g></svg>