<?xml version="1.0" encoding="utf-8" ?>
<svg baseProfile="full" height="1000px" version="1.1" width="600px" xmlns="http://www.w3.org/2000/svg" xmlns:ev="http://www.w3.org/2001/xml-events" xmlns:xlink="http://www.w3.org/1999/xlink"><defs /><rect fill="white" height="100%" width="100%" x="0" y="0" /><text font-family="Arial" font-size="24" text-anchor="middle" x="300" y="40">Visual Discrimination Test</text><text font-family="Arial" font-size="18" text-anchor="middle" x="300" y="80">Target Pattern</text><g transform="translate(200,100)"><polygon fill="none" points="90,123 133,123 111.5,80" stroke="black" stroke-width="2" transform="rotate(13,111.5,101.5)" /><rect fill="none" height="40" stroke="black" stroke-width="2" transform="rotate(168,137.0,160.0)" width="40" x="117" y="140" /><polygon fill="none" points="47,89 82,89 64.5,54" stroke="black" stroke-width="2" transform="rotate(181,64.5,71.5)" /><circle cx="76" cy="110" fill="none" r="19.5" stroke="black" stroke-width="2" /><polygon fill="none" points="59,170 91,170 75.0,138" stroke="black" stroke-width="2" transform="rotate(290,75.0,154.0)" /><polygon fill="none" points="24,109 61,109 42.5,72" stroke="black" stroke-width="2" transform="rotate(104,42.5,90.5)" /><polygon fill="none" points="116,170 157,170 136.5,129" stroke="black" stroke-width="2" transform="rotate(311,136.5,149.5)" /><polygon fill="none" points="115,157 145,157 130.0,127" stroke="black" stroke-width="2" transform="rotate(118,130.0,142.0)" /></g><text font-family="Arial" font-size="18" text-anchor="middle" x="300" y="350">Options</text><text font-family="Arial" font-size="14" text-anchor="middle" x="175" y="380">Option 1</text><g transform="translate(100,400)"><line stroke="black" stroke-width="2" transform="rotate(20,120.1,110.1)" x1="90" x2="150.2" y1="80" y2="140.2" /><rect fill="none" height="44.800000000000004" stroke="black" stroke-width="2" transform="rotate(172,145.0,162.4)" width="56.0" x="117" y="140" /><rect fill="none" height="39.2" stroke="black" stroke-width="2" transform="rotate(184,71.5,73.6)" width="49.0" x="47" y="54" /><polygon fill="none" points="76,153.68 130.6,153.68 103.3,110" stroke="black" stroke-width="2" transform="rotate(57,103.3,131.84)" /><rect fill="none" height="35.839999999999996" stroke="black" stroke-width="2" transform="rotate(294,81.4,155.92)" width="44.8" x="59" y="138" /><polygon fill="none" points="24,113.44 75.8,113.44 49.9,72" stroke="black" stroke-width="2" transform="rotate(110,49.9,92.72)" /><line stroke="black" stroke-width="2" transform="rotate(314,144.7,157.7)" x1="116" x2="173.4" y1="129" y2="186.4" /><rect fill="none" height="33.6" stroke="black" stroke-width="2" transform="rotate(121,136.0,143.8)" width="42.0" x="115" y="127" /></g><text font-family="Arial" font-size="14" text-anchor="middle" x="425" y="380">Option 2</text><g transform="translate(350,400)"><polygon fill="none" points="90,123 133,123 111.5,80" stroke="black" stroke-width="2" transform="rotate(13,111.5,101.5)" /><rect fill="none" height="40" stroke="black" stroke-width="2" transform="rotate(168,137.0,160.0)" width="40" x="117" y="140" /><polygon fill="none" points="47,89 82,89 64.5,54" stroke="black" stroke-width="2" transform="rotate(181,64.5,71.5)" /><circle cx="76" cy="110" fill="none" r="19.5" stroke="black" stroke-width="2" /><polygon fill="none" points="59,170 91,170 75.0,138" stroke="black" stroke-width="2" transform="rotate(290,75.0,154.0)" /><polygon fill="none" points="24,109 61,109 42.5,72" stroke="black" stroke-width="2" transform="rotate(104,42.5,90.5)" /><polygon fill="none" points="116,170 157,170 136.5,129" stroke="black" stroke-width="2" transform="rotate(311,136.5,149.5)" /><polygon fill="none" points="115,157 145,157 130.0,127" stroke="black" stroke-width="2" transform="rotate(118,130.0,142.0)" /></g><text font-family="Arial" font-size="14" text-anchor="middle" x="175" y="630">Option 3</text><g transform="translate(100,650)"><rect fill="none" height="48.16" stroke="black" stroke-width="2" transform="rotate(17,120.1,104.08)" width="60.199999999999996" x="90" y="80" /><rect fill="none" height="44.800000000000004" stroke="black" stroke-width="2" transform="rotate(171,145.0,162.4)" width="56.0" x="117" y="140" /><rect fill="none" height="39.2" stroke="black" stroke-width="2" transform="rotate(188,71.5,73.6)" width="49.0" x="47" y="54" /><line stroke="black" stroke-width="2" transform="rotate(58,103.3,137.3)" x1="76" x2="130.6" y1="110" y2="164.6" /><rect fill="none" height="35.839999999999996" stroke="black" stroke-width="2" transform="rotate(294,81.4,155.92)" width="44.8" x="59" y="138" /><polygon fill="none" points="24,113.44 75.8,113.44 49.9,72" stroke="black" stroke-width="2" transform="rotate(109,49.9,92.72)" /><line stroke="black" stroke-width="2" transform="rotate(316,144.7,157.7)" x1="116" x2="173.4" y1="129" y2="186.4" /><rect fill="none" height="33.6" stroke="black" stroke-width="2" transform="rotate(124,136.0,143.8)" width="42.0" x="115" y="127" /></g><text font-family="Arial" font-size="14" text-anchor="middle" x="425" y="630">Option 4</text><g transform="translate(350,650)"><rect fill="none" height="48.16" stroke="black" stroke-width="2" transform="rotate(19,120.1,104.08)" width="60.199999999999996" x="90" y="80" /><polygon fill="none" points="117,184.8 173.0,184.8 145.0,140" stroke="black" stroke-width="2" transform="rotate(174,145.0,162.4)" /><polygon fill="none" points="47,93.2 96.0,93.2 71.5,54" stroke="black" stroke-width="2" transform="rotate(188,71.5,73.6)" /><polygon fill="none" points="76,153.68 130.6,153.68 103.3,110" stroke="black" stroke-width="2" transform="rotate(56,103.3,131.84)" /><polygon fill="none" points="59,173.84 103.8,173.84 81.4,138" stroke="black" stroke-width="2" transform="rotate(296,81.4,155.92)" /><polygon fill="none" points="24,113.44 75.8,113.44 49.9,72" stroke="black" stroke-width="2" transform="rotate(108,49.9,92.72)" /><polygon fill="none" points="116,174.92000000000002 173.4,174.92000000000002 144.7,129" stroke="black" stroke-width="2" transform="rotate(317,144.7,151.96)" /><rect fill="none" height="33.6" stroke="black" stroke-width="2" transform="rotate(122,136.0,143.8)" width="42.0" x="115" y="127" /></g></svg>