<?xml version="1.0" encoding="utf-8" ?>
<svg baseProfile="full" height="1000px" version="1.1" width="600px" xmlns="http://www.w3.org/2000/svg" xmlns:ev="http://www.w3.org/2001/xml-events" xmlns:xlink="http://www.w3.org/1999/xlink"><defs /><rect fill="white" height="100%" width="100%" x="0" y="0" /><text font-family="Arial" font-size="24" text-anchor="middle" x="300" y="40">Visual Discrimination Test</text><text font-family="Arial" font-size="18" text-anchor="middle" x="300" y="80">Target Pattern</text><g transform="translate(200,100)"><rect fill="none" height="37" stroke="black" stroke-width="2" transform="rotate(160,100.5,120.5)" width="37" x="82" y="102" /><rect fill="none" height="47" stroke="black" stroke-width="2" transform="rotate(140,41.5,119.5)" width="47" x="18" y="96" /><circle cx="129" cy="105" fill="none" r="19.5" stroke="black" stroke-width="2" /></g><text font-family="Arial" font-size="18" text-anchor="middle" x="300" y="350">Options</text><text font-family="Arial" font-size="14" text-anchor="middle" x="175" y="380">Option 1</text><g transform="translate(100,400)"><rect fill="none" height="37" stroke="black" stroke-width="2" transform="rotate(160,100.5,120.5)" width="37" x="82" y="102" /><rect fill="none" height="47" stroke="black" stroke-width="2" transform="rotate(140,41.5,119.5)" width="47" x="18" y="96" /><circle cx="129" cy="105" fill="none" r="19.5" stroke="black" stroke-width="2" /></g><text font-family="Arial" font-size="14" text-anchor="middle" x="425" y="380">Option 2</text><g transform="translate(350,400)"><rect fill="none" height="41.44" stroke="black" stroke-width="2" transform="rotate(164,107.9,122.72)" width="51.8" x="82" y="102" /><rect fill="none" height="52.64" stroke="black" stroke-width="2" transform="rotate(147,50.9,122.32)" width="65.8" x="18" y="96" /><polygon fill="none" points="129,148.68 183.6,148.68 156.3,105" stroke="black" stroke-width="2" transform="rotate(191,156.3,126.84)" /></g><text font-family="Arial" font-size="14" text-anchor="middle" x="175" y="630">Option 3</text><g transform="translate(100,650)"><rect fill="none" height="41.44" stroke="black" stroke-width="2" transform="rotate(167,107.9,122.72)" width="51.8" x="82" y="102" /><rect fill="none" height="52.64" stroke="black" stroke-width="2" transform="rotate(145,50.9,122.32)" width="65.8" x="18" y="96" /><rect fill="none" height="43.68" stroke="black" stroke-width="2" transform="rotate(190,156.3,126.84)" width="54.599999999999994" x="129" y="105" /></g><text font-family="Arial" font-size="14" text-anchor="middle" x="425" y="630">Option 4</text><g transform="translate(350,650)"><line stroke="black" stroke-width="2" transform="rotate(167,107.9,127.9)" x1="82" x2="133.8" y1="102" y2="153.8" /><rect fill="none" height="52.64" stroke="black" stroke-width="2" transform="rotate(145,50.9,122.32)" width="65.8" x="18" y="96" /><polygon fill="none" points="129,148.68 183.6,148.68 156.3,105" stroke="black" stroke-width="2" transform="rotate(189,156.3,126.84)" /></g></svg>