<?xml version="1.0" encoding="utf-8" ?>
<svg baseProfile="full" height="1000px" version="1.1" width="600px" xmlns="http://www.w3.org/2000/svg" xmlns:ev="http://www.w3.org/2001/xml-events" xmlns:xlink="http://www.w3.org/1999/xlink"><defs /><rect fill="white" height="100%" width="100%" x="0" y="0" /><text font-family="Arial" font-size="24" text-anchor="middle" x="300" y="40">Visual Discrimination Test</text><text font-family="Arial" font-size="18" text-anchor="middle" x="300" y="80">Target Pattern</text><g transform="translate(200,100)"><rect fill="none" height="44" stroke="black" stroke-width="2" transform="rotate(59,161.0,94.0)" width="44" x="139" y="72" /><circle cx="45" cy="140" fill="none" r="20.0" stroke="black" stroke-width="2" /><line stroke="black" stroke-width="2" transform="rotate(212,123.5,42.5)" x1="101" x2="146" y1="20" y2="65" /><polygon fill="none" points="123,83 172,83 147.5,34" stroke="black" stroke-width="2" transform="rotate(336,147.5,58.5)" /><circle cx="14" cy="92" fill="none" r="21.0" stroke="black" stroke-width="2" /></g><text font-family="Arial" font-size="18" text-anchor="middle" x="300" y="350">Options</text><text font-family="Arial" font-size="14" text-anchor="middle" x="175" y="380">Option 1</text><g transform="translate(100,400)"><rect fill="none" height="28.160000000000004" stroke="black" stroke-width="2" transform="rotate(64,156.6,86.08)" width="35.2" x="139" y="72" /><circle cx="45" cy="140" fill="none" r="16.0" stroke="black" stroke-width="2" /><line stroke="black" stroke-width="2" transform="rotate(215,119.0,38.0)" x1="101" x2="137.0" y1="20" y2="56.0" /><polygon fill="none" points="123,65.36 162.2,65.36 142.6,34" stroke="black" stroke-width="2" transform="rotate(342,142.6,49.68)" /><circle cx="14" cy="92" fill="none" r="16.8" stroke="black" stroke-width="2" /></g><text font-family="Arial" font-size="14" text-anchor="middle" x="425" y="380">Option 2</text><g transform="translate(350,400)"><rect fill="none" height="28.160000000000004" stroke="black" stroke-width="2" transform="rotate(65,156.6,86.08)" width="35.2" x="139" y="72" /><circle cx="45" cy="140" fill="none" r="16.0" stroke="black" stroke-width="2" /><line stroke="black" stroke-width="2" transform="rotate(219,119.0,38.0)" x1="101" x2="137.0" y1="20" y2="56.0" /><polygon fill="none" points="123,65.36 162.2,65.36 142.6,34" stroke="black" stroke-width="2" transform="rotate(339,142.6,49.68)" /><circle cx="14" cy="92" fill="none" r="16.8" stroke="black" stroke-width="2" /></g><text font-family="Arial" font-size="14" text-anchor="middle" x="175" y="630">Option 3</text><g transform="translate(100,650)"><rect fill="none" height="28.160000000000004" stroke="black" stroke-width="2" transform="rotate(65,156.6,86.08)" width="35.2" x="139" y="72" /><circle cx="45" cy="140" fill="none" r="16.0" stroke="black" stroke-width="2" /><line stroke="black" stroke-width="2" transform="rotate(219,119.0,38.0)" x1="101" x2="137.0" y1="20" y2="56.0" /><polygon fill="none" points="123,65.36 162.2,65.36 142.6,34" stroke="black" stroke-width="2" transform="rotate(342,142.6,49.68)" /><circle cx="14" cy="92" fill="none" r="16.8" stroke="black" stroke-width="2" /></g><text font-family="Arial" font-size="14" text-anchor="middle" x="425" y="630">Option 4</text><g transform="translate(350,650)"><rect fill="none" height="44" stroke="black" stroke-width="2" transform="rotate(59,161.0,94.0)" width="44" x="139" y="72" /><circle cx="45" cy="140" fill="none" r="20.0" stroke="black" stroke-width="2" /><line stroke="black" stroke-width="2" transform="rotate(212,123.5,42.5)" x1="101" x2="146" y1="20" y2="65" /><polygon fill="none" points="123,83 172,83 147.5,34" stroke="black" stroke-width="2" transform="rotate(336,147.5,58.5)" /><circle cx="14" cy="92" fill="none" r="21.0" stroke="black" stroke-width="2" /></g></svg>