<?xml version="1.0" encoding="utf-8" ?>
<svg baseProfile="full" height="1000px" version="1.1" width="600px" xmlns="http://www.w3.org/2000/svg" xmlns:ev="http://www.w3.org/2001/xml-events" xmlns:xlink="http://www.w3.org/1999/xlink"><defs /><rect fill="white" height="100%" width="100%" x="0" y="0" /><text font-family="Arial" font-size="24" text-anchor="middle" x="300" y="40">Visual Discrimination Test</text><text font-family="Arial" font-size="18" text-anchor="middle" x="300" y="80">Target Pattern</text><g transform="translate(200,100)"><line stroke="black" stroke-width="2" transform="rotate(189,105.5,35.5)" x1="82" x2="129" y1="12" y2="59" /><circle cx="43" cy="48" fill="none" r="25.0" stroke="black" stroke-width="2" /><circle cx="28" cy="121" fill="none" r="19.0" stroke="black" stroke-width="2" /><polygon fill="none" points="103,90 138,90 120.5,55" stroke="black" stroke-width="2" transform="rotate(254,120.5,72.5)" /><circle cx="98" cy="135" fill="none" r="21.5" stroke="black" stroke-width="2" /></g><text font-family="Arial" font-size="18" text-anchor="middle" x="300" y="350">Options</text><text font-family="Arial" font-size="14" text-anchor="middle" x="175" y="380">Option 1</text><g transform="translate(100,400)"><line stroke="black" stroke-width="2" transform="rotate(194,100.8,30.8)" x1="82" x2="119.6" y1="12" y2="49.6" /><circle cx="43" cy="48" fill="none" r="20.0" stroke="black" stroke-width="2" /><circle cx="28" cy="121" fill="none" r="15.200000000000001" stroke="black" stroke-width="2" /><polygon fill="none" points="103,85.80000000000001 131.0,85.80000000000001 117.0,55" stroke="black" stroke-width="2" transform="rotate(258,117.0,70.4)" /><circle cx="98" cy="135" fill="none" r="17.2" stroke="black" stroke-width="2" /></g><text font-family="Arial" font-size="14" text-anchor="middle" x="425" y="380">Option 2</text><g transform="translate(350,400)"><line stroke="black" stroke-width="2" transform="rotate(192,100.8,30.8)" x1="82" x2="119.6" y1="12" y2="49.6" /><circle cx="43" cy="48" fill="none" r="20.0" stroke="black" stroke-width="2" /><circle cx="28" cy="121" fill="none" r="15.200000000000001" stroke="black" stroke-width="2" /><polygon fill="none" points="103,85.80000000000001 131.0,85.80000000000001 117.0,55" stroke="black" stroke-width="2" transform="rotate(260,117.0,70.4)" /><circle cx="98" cy="135" fill="none" r="17.2" stroke="black" stroke-width="2" /></g><text font-family="Arial" font-size="14" text-anchor="middle" x="175" y="630">Option 3</text><g transform="translate(100,650)"><line stroke="black" stroke-width="2" transform="rotate(189,105.5,35.5)" x1="82" x2="129" y1="12" y2="59" /><circle cx="43" cy="48" fill="none" r="25.0" stroke="black" stroke-width="2" /><circle cx="28" cy="121" fill="none" r="19.0" stroke="black" stroke-width="2" /><polygon fill="none" points="103,90 138,90 120.5,55" stroke="black" stroke-width="2" transform="rotate(254,120.5,72.5)" /><circle cx="98" cy="135" fill="none" r="21.5" stroke="black" stroke-width="2" /></g><text font-family="Arial" font-size="14" text-anchor="middle" x="425" y="630">Option 4</text><g transform="translate(350,650)"><line stroke="black" stroke-width="2" transform="rotate(194,100.8,30.8)" x1="82" x2="119.6" y1="12" y2="49.6" /><circle cx="43" cy="48" fill="none" r="20.0" stroke="black" stroke-width="2" /><circle cx="28" cy="121" fill="none" r="15.200000000000001" stroke="black" stroke-width="2" /><polygon fill="none" points="103,85.80000000000001 131.0,85.80000000000001 117.0,55" stroke="black" stroke-width="2" transform="rotate(258,117.0,70.4)" /><circle cx="98" cy="135" fill="none" r="17.2" stroke="black" stroke-width="2" /></g></svg>