<?xml version="1.0" encoding="utf-8" ?>
<svg baseProfile="full" height="1000px" version="1.1" width="600px" xmlns="http://www.w3.org/2000/svg" xmlns:ev="http://www.w3.org/2001/xml-events" xmlns:xlink="http://www.w3.org/1999/xlink"><defs /><rect fill="white" height="100%" width="100%" x="0" y="0" /><text font-family="Arial" font-size="24" text-anchor="middle" x="300" y="40">Visual Discrimination Test</text><text font-family="Arial" font-size="18" text-anchor="middle" x="300" y="80">Target Pattern</text><g transform="translate(200,100)"><polygon fill="none" points="112,70 149,70 130.5,33" stroke="black" stroke-width="2" transform="rotate(195,130.5,51.5)" /><circle cx="13" cy="66" fill="none" r="18.5" stroke="black" stroke-width="2" /><line stroke="black" stroke-width="2" transform="rotate(29,26.0,26.0)" x1="10" x2="42" y1="10" y2="42" /><rect fill="none" height="39" stroke="black" stroke-width="2" transform="rotate(352,31.5,42.5)" width="39" x="12" y="23" /><rect fill="none" height="37" stroke="black" stroke-width="2" transform="rotate(142,59.5,106.5)" width="37" x="41" y="88" /><rect fill="none" height="33" stroke="black" stroke-width="2" transform="rotate(146,113.5,137.5)" width="33" x="97" y="121" /><rect fill="none" height="35" stroke="black" stroke-width="2" transform="rotate(298,67.5,146.5)" width="35" x="50" y="129" /><polygon fill="none" points="87,122 124,122 105.5,85" stroke="black" stroke-width="2" transform="rotate(265,105.5,103.5)" /></g><text font-family="Arial" font-size="18" text-anchor="middle" x="300" y="350">Options</text><text font-family="Arial" font-size="14" text-anchor="middle" x="175" y="380">Option 1</text><g transform="translate(100,400)"><polygon fill="none" points="112,65.56 141.6,65.56 126.8,33" stroke="black" stroke-width="2" transform="rotate(200,126.8,49.28)" /><circle cx="13" cy="66" fill="none" r="14.8" stroke="black" stroke-width="2" /><line stroke="black" stroke-width="2" transform="rotate(35,22.8,22.8)" x1="10" x2="35.6" y1="10" y2="35.6" /><rect fill="none" height="34.32000000000001" stroke="black" stroke-width="2" transform="rotate(355,27.6,40.160000000000004)" width="31.200000000000003" x="12" y="23" /><rect fill="none" height="32.56" stroke="black" stroke-width="2" transform="rotate(147,55.8,104.28)" width="29.6" x="41" y="88" /><rect fill="none" height="29.040000000000006" stroke="black" stroke-width="2" transform="rotate(153,110.2,135.52)" width="26.400000000000002" x="97" y="121" /><rect fill="none" height="30.800000000000004" stroke="black" stroke-width="2" transform="rotate(305,64.0,144.4)" width="28.0" x="50" y="129" /><polygon fill="none" points="87,117.56 116.6,117.56 101.8,85" stroke="black" stroke-width="2" transform="rotate(268,101.8,101.28)" /></g><text font-family="Arial" font-size="14" text-anchor="middle" x="425" y="380">Option 2</text><g transform="translate(350,400)"><polygon fill="none" points="112,65.56 141.6,65.56 126.8,33" stroke="black" stroke-width="2" transform="rotate(199,126.8,49.28)" /><circle cx="13" cy="66" fill="none" r="14.8" stroke="black" stroke-width="2" /><line stroke="black" stroke-width="2" transform="rotate(32,22.8,22.8)" x1="10" x2="35.6" y1="10" y2="35.6" /><rect fill="none" height="34.32000000000001" stroke="black" stroke-width="2" transform="rotate(358,27.6,40.160000000000004)" width="31.200000000000003" x="12" y="23" /><rect fill="none" height="32.56" stroke="black" stroke-width="2" transform="rotate(149,55.8,104.28)" width="29.6" x="41" y="88" /><rect fill="none" height="29.040000000000006" stroke="black" stroke-width="2" transform="rotate(151,110.2,135.52)" width="26.400000000000002" x="97" y="121" /><rect fill="none" height="30.800000000000004" stroke="black" stroke-width="2" transform="rotate(302,64.0,144.4)" width="28.0" x="50" y="129" /><polygon fill="none" points="87,117.56 116.6,117.56 101.8,85" stroke="black" stroke-width="2" transform="rotate(270,101.8,101.28)" /></g><text font-family="Arial" font-size="14" text-anchor="middle" x="175" y="630">Option 3</text><g transform="translate(100,650)"><polygon fill="none" points="112,65.56 141.6,65.56 126.8,33" stroke="black" stroke-width="2" transform="rotate(201,126.8,49.28)" /><circle cx="13" cy="66" fill="none" r="14.8" stroke="black" stroke-width="2" /><line stroke="black" stroke-width="2" transform="rotate(33,22.8,22.8)" x1="10" x2="35.6" y1="10" y2="35.6" /><rect fill="none" height="34.32000000000001" stroke="black" stroke-width="2" transform="rotate(355,27.6,40.160000000000004)" width="31.200000000000003" x="12" y="23" /><rect fill="none" height="32.56" stroke="black" stroke-width="2" transform="rotate(148,55.8,104.28)" width="29.6" x="41" y="88" /><rect fill="none" height="29.040000000000006" stroke="black" stroke-width="2" transform="rotate(153,110.2,135.52)" width="26.400000000000002" x="97" y="121" /><rect fill="none" height="30.800000000000004" stroke="black" stroke-width="2" transform="rotate(301,64.0,144.4)" width="28.0" x="50" y="129" /><polygon fill="none" points="87,117.56 116.6,117.56 101.8,85" stroke="black" stroke-width="2" transform="rotate(268,101.8,101.28)" /></g><text font-family="Arial" font-size="14" text-anchor="middle" x="425" y="630">Option 4</text><g transform="translate(350,650)"><polygon fill="none" points="112,70 149,70 130.5,33" stroke="black" stroke-width="2" transform="rotate(195,130.5,51.5)" /><circle cx="13" cy="66" fill="none" r="18.5" stroke="black" stroke-width="2" /><line stroke="black" stroke-width="2" transform="rotate(29,26.0,26.0)" x1="10" x2="42" y1="10" y2="42" /><rect fill="none" height="39" stroke="black" stroke-width="2" transform="rotate(352,31.5,42.5)" width="39" x="12" y="23" /><rect fill="none" height="37" stroke="black" stroke-width="2" transform="rotate(142,59.5,106.5)" width="37" x="41" y="88" /><rect fill="none" height="33" stroke="black" stroke-width="2" transform="rotate(146,113.5,137.5)" width="33" x="97" y="121" /><rect fill="none" height="35" stroke="black" stroke-width="2" transform="rotate(298,67.5,146.5)" width="35" x="50" y="129" /><polygon fill="none" points="87,122 124,122 105.5,85" stroke="black" stroke-width="2" transform="rotate(265,105.5,103.5)" /></g></svg>