<?xml version="1.0" encoding="utf-8" ?>
<svg baseProfile="full" height="1000px" version="1.1" width="600px" xmlns="http://www.w3.org/2000/svg" xmlns:ev="http://www.w3.org/2001/xml-events" xmlns:xlink="http://www.w3.org/1999/xlink"><defs /><rect fill="white" height="100%" width="100%" x="0" y="0" /><text font-family="Arial" font-size="24" text-anchor="middle" x="300" y="40">Visual Discrimination Test</text><text font-family="Arial" font-size="18" text-anchor="middle" x="300" y="80">Target Pattern</text><g transform="translate(200,100)"><circle cx="62" cy="150" fill="none" r="17.5" stroke="black" stroke-width="2" /><polygon fill="none" points="34,98 73,98 53.5,59" stroke="black" stroke-width="2" transform="rotate(289,53.5,78.5)" /><line stroke="black" stroke-width="2" transform="rotate(63,74.5,74.5)" x1="53" x2="96" y1="53" y2="96" /><line stroke="black" stroke-width="2" transform="rotate(162,153.0,139.0)" x1="135" x2="171" y1="121" y2="157" /><polygon fill="none" points="131,56 175,56 153.0,12" stroke="black" stroke-width="2" transform="rotate(182,153.0,34.0)" /><circle cx="129" cy="115" fill="none" r="21.5" stroke="black" stroke-width="2" /><circle cx="32" cy="49" fill="none" r="19.5" stroke="black" stroke-width="2" /><circle cx="78" cy="134" fill="none" r="17.5" stroke="black" stroke-width="2" /><line stroke="black" stroke-width="2" transform="rotate(333,122.0,92.0)" x1="107" x2="137" y1="77" y2="107" /></g><text font-family="Arial" font-size="18" text-anchor="middle" x="300" y="350">Options</text><text font-family="Arial" font-size="14" text-anchor="middle" x="175" y="380">Option 1</text><g transform="translate(100,400)"><circle cx="62" cy="150" fill="none" r="14.0" stroke="black" stroke-width="2" /><polygon fill="none" points="34,93.32000000000001 65.2,93.32000000000001 49.6,59" stroke="black" stroke-width="2" transform="rotate(295,49.6,76.16)" /><line stroke="black" stroke-width="2" transform="rotate(67,70.2,70.2)" x1="53" x2="87.4" y1="53" y2="87.4" /><line stroke="black" stroke-width="2" transform="rotate(167,149.4,135.4)" x1="135" x2="163.8" y1="121" y2="149.8" /><polygon fill="none" points="131,50.720000000000006 166.2,50.720000000000006 148.6,12" stroke="black" stroke-width="2" transform="rotate(189,148.6,31.360000000000003)" /><circle cx="129" cy="115" fill="none" r="17.2" stroke="black" stroke-width="2" /><circle cx="32" cy="49" fill="none" r="15.600000000000001" stroke="black" stroke-width="2" /><circle cx="78" cy="134" fill="none" r="14.0" stroke="black" stroke-width="2" /><line stroke="black" stroke-width="2" transform="rotate(338,119.0,89.0)" x1="107" x2="131.0" y1="77" y2="101.0" /></g><text font-family="Arial" font-size="14" text-anchor="middle" x="425" y="380">Option 2</text><g transform="translate(350,400)"><circle cx="62" cy="150" fill="none" r="14.0" stroke="black" stroke-width="2" /><polygon fill="none" points="34,93.32000000000001 65.2,93.32000000000001 49.6,59" stroke="black" stroke-width="2" transform="rotate(294,49.6,76.16)" /><line stroke="black" stroke-width="2" transform="rotate(70,70.2,70.2)" x1="53" x2="87.4" y1="53" y2="87.4" /><line stroke="black" stroke-width="2" transform="rotate(165,149.4,135.4)" x1="135" x2="163.8" y1="121" y2="149.8" /><polygon fill="none" points="131,50.720000000000006 166.2,50.720000000000006 148.6,12" stroke="black" stroke-width="2" transform="rotate(188,148.6,31.360000000000003)" /><circle cx="129" cy="115" fill="none" r="17.2" stroke="black" stroke-width="2" /><circle cx="32" cy="49" fill="none" r="15.600000000000001" stroke="black" stroke-width="2" /><circle cx="78" cy="134" fill="none" r="14.0" stroke="black" stroke-width="2" /><line stroke="black" stroke-width="2" transform="rotate(337,119.0,89.0)" x1="107" x2="131.0" y1="77" y2="101.0" /></g><text font-family="Arial" font-size="14" text-anchor="middle" x="175" y="630">Option 3</text><g transform="translate(100,650)"><circle cx="62" cy="150" fill="none" r="17.5" stroke="black" stroke-width="2" /><polygon fill="none" points="34,98 73,98 53.5,59" stroke="black" stroke-width="2" transform="rotate(289,53.5,78.5)" /><line stroke="black" stroke-width="2" transform="rotate(63,74.5,74.5)" x1="53" x2="96" y1="53" y2="96" /><line stroke="black" stroke-width="2" transform="rotate(162,153.0,139.0)" x1="135" x2="171" y1="121" y2="157" /><polygon fill="none" points="131,56 175,56 153.0,12" stroke="black" stroke-width="2" transform="rotate(182,153.0,34.0)" /><circle cx="129" cy="115" fill="none" r="21.5" stroke="black" stroke-width="2" /><circle cx="32" cy="49" fill="none" r="19.5" stroke="black" stroke-width="2" /><circle cx="78" cy="134" fill="none" r="17.5" stroke="black" stroke-width="2" /><line stroke="black" stroke-width="2" transform="rotate(333,122.0,92.0)" x1="107" x2="137" y1="77" y2="107" /></g><text font-family="Arial" font-size="14" text-anchor="middle" x="425" y="630">Option 4</text><g transform="translate(350,650)"><circle cx="62" cy="150" fill="none" r="14.0" stroke="black" stroke-width="2" /><polygon fill="none" points="34,93.32000000000001 65.2,93.32000000000001 49.6,59" stroke="black" stroke-width="2" transform="rotate(295,49.6,76.16)" /><line stroke="black" stroke-width="2" transform="rotate(70,70.2,70.2)" x1="53" x2="87.4" y1="53" y2="87.4" /><line stroke="black" stroke-width="2" transform="rotate(167,149.4,135.4)" x1="135" x2="163.8" y1="121" y2="149.8" /><polygon fill="none" points="131,50.720000000000006 166.2,50.720000000000006 148.6,12" stroke="black" stroke-width="2" transform="rotate(186,148.6,31.360000000000003)" /><circle cx="129" cy="115" fill="none" r="17.2" stroke="black" stroke-width="2" /><circle cx="32" cy="49" fill="none" r="15.600000000000001" stroke="black" stroke-width="2" /><circle cx="78" cy="134" fill="none" r="14.0" stroke="black" stroke-width="2" /><line stroke="black" stroke-width="2" transform="rotate(338,119.0,89.0)" x1="107" x2="131.0" y1="77" y2="101.0" /></g></svg>