<?xml version="1.0" encoding="utf-8" ?>
<svg baseProfile="full" height="1000px" version="1.1" width="600px" xmlns="http://www.w3.org/2000/svg" xmlns:ev="http://www.w3.org/2001/xml-events" xmlns:xlink="http://www.w3.org/1999/xlink"><defs /><rect fill="white" height="100%" width="100%" x="0" y="0" /><text font-family="Arial" font-size="24" text-anchor="middle" x="300" y="40">Visual Discrimination Test</text><text font-family="Arial" font-size="18" text-anchor="middle" x="300" y="80">Target Pattern</text><g transform="translate(200,100)"><line stroke="black" stroke-width="2" transform="rotate(237,81.5,122.5)" x1="59" x2="104" y1="100" y2="145" /><polygon fill="none" points="95,116 129,116 112.0,82" stroke="black" stroke-width="2" transform="rotate(91,112.0,99.0)" /><polygon fill="none" points="98,155 133,155 115.5,120" stroke="black" stroke-width="2" transform="rotate(354,115.5,137.5)" /><circle cx="109" cy="149" fill="none" r="15.5" stroke="black" stroke-width="2" /><line stroke="black" stroke-width="2" transform="rotate(337,97.5,87.5)" x1="82" x2="113" y1="72" y2="103" /><line stroke="black" stroke-width="2" transform="rotate(201,106.0,53.0)" x1="89" x2="123" y1="36" y2="70" /></g><text font-family="Arial" font-size="18" text-anchor="middle" x="300" y="350">Options</text><text font-family="Arial" font-size="14" text-anchor="middle" x="175" y="380">Option 1</text><g transform="translate(100,400)"><line stroke="black" stroke-width="2" transform="rotate(237,81.5,122.5)" x1="59" x2="104" y1="100" y2="145" /><polygon fill="none" points="95,116 129,116 112.0,82" stroke="black" stroke-width="2" transform="rotate(91,112.0,99.0)" /><polygon fill="none" points="98,155 133,155 115.5,120" stroke="black" stroke-width="2" transform="rotate(354,115.5,137.5)" /><circle cx="109" cy="149" fill="none" r="15.5" stroke="black" stroke-width="2" /><line stroke="black" stroke-width="2" transform="rotate(337,97.5,87.5)" x1="82" x2="113" y1="72" y2="103" /><line stroke="black" stroke-width="2" transform="rotate(201,106.0,53.0)" x1="89" x2="123" y1="36" y2="70" /></g><text font-family="Arial" font-size="14" text-anchor="middle" x="425" y="380">Option 2</text><g transform="translate(350,400)"><line stroke="black" stroke-width="2" transform="rotate(244,77.0,118.0)" x1="59" x2="95.0" y1="100" y2="136.0" /><polygon fill="none" points="95,111.92 122.2,111.92 108.6,82" stroke="black" stroke-width="2" transform="rotate(96,108.6,96.96000000000001)" /><polygon fill="none" points="98,150.8 126.0,150.8 112.0,120" stroke="black" stroke-width="2" transform="rotate(359,112.0,135.4)" /><circle cx="109" cy="149" fill="none" r="12.4" stroke="black" stroke-width="2" /><line stroke="black" stroke-width="2" transform="rotate(340,94.4,84.4)" x1="82" x2="106.8" y1="72" y2="96.8" /><line stroke="black" stroke-width="2" transform="rotate(205,102.6,49.6)" x1="89" x2="116.2" y1="36" y2="63.2" /></g><text font-family="Arial" font-size="14" text-anchor="middle" x="175" y="630">Option 3</text><g transform="translate(100,650)"><line stroke="black" stroke-width="2" transform="rotate(244,77.0,118.0)" x1="59" x2="95.0" y1="100" y2="136.0" /><polygon fill="none" points="95,111.92 122.2,111.92 108.6,82" stroke="black" stroke-width="2" transform="rotate(95,108.6,96.96000000000001)" /><polygon fill="none" points="98,150.8 126.0,150.8 112.0,120" stroke="black" stroke-width="2" transform="rotate(359,112.0,135.4)" /><circle cx="109" cy="149" fill="none" r="12.4" stroke="black" stroke-width="2" /><line stroke="black" stroke-width="2" transform="rotate(342,94.4,84.4)" x1="82" x2="106.8" y1="72" y2="96.8" /><line stroke="black" stroke-width="2" transform="rotate(205,102.6,49.6)" x1="89" x2="116.2" y1="36" y2="63.2" /></g><text font-family="Arial" font-size="14" text-anchor="middle" x="425" y="630">Option 4</text><g transform="translate(350,650)"><line stroke="black" stroke-width="2" transform="rotate(242,77.0,118.0)" x1="59" x2="95.0" y1="100" y2="136.0" /><polygon fill="none" points="95,111.92 122.2,111.92 108.6,82" stroke="black" stroke-width="2" transform="rotate(98,108.6,96.96000000000001)" /><polygon fill="none" points="98,150.8 126.0,150.8 112.0,120" stroke="black" stroke-width="2" transform="rotate(361,112.0,135.4)" /><circle cx="109" cy="149" fill="none" r="12.4" stroke="black" stroke-width="2" /><line stroke="black" stroke-width="2" transform="rotate(340,94.4,84.4)" x1="82" x2="106.8" y1="72" y2="96.8" /><line stroke="black" stroke-width="2" transform="rotate(207,102.6,49.6)" x1="89" x2="116.2" y1="36" y2="63.2" /></g></svg>