<?xml version="1.0" encoding="utf-8" ?>
<svg baseProfile="full" height="1000px" version="1.1" width="600px" xmlns="http://www.w3.org/2000/svg" xmlns:ev="http://www.w3.org/2001/xml-events" xmlns:xlink="http://www.w3.org/1999/xlink"><defs /><rect fill="white" height="100%" width="100%" x="0" y="0" /><text font-family="Arial" font-size="24" text-anchor="middle" x="300" y="40">Visual Discrimination Test</text><text font-family="Arial" font-size="18" text-anchor="middle" x="300" y="80">Target Pattern</text><g transform="translate(200,100)"><rect fill="none" height="44" stroke="black" stroke-width="2" transform="rotate(135,148.0,163.0)" width="44" x="126" y="141" /><line stroke="black" stroke-width="2" transform="rotate(222,46.0,97.0)" x1="27" x2="65" y1="78" y2="116" /><polygon fill="none" points="108,171 142,171 125.0,137" stroke="black" stroke-width="2" transform="rotate(30,125.0,154.0)" /><circle cx="80" cy="140" fill="none" r="15.0" stroke="black" stroke-width="2" /><rect fill="none" height="41" stroke="black" stroke-width="2" transform="rotate(173,115.5,112.5)" width="41" x="95" y="92" /><circle cx="118" cy="62" fill="none" r="23.5" stroke="black" stroke-width="2" /></g><text font-family="Arial" font-size="18" text-anchor="middle" x="300" y="350">Options</text><text font-family="Arial" font-size="14" text-anchor="middle" x="175" y="380">Option 1</text><g transform="translate(100,400)"><polygon fill="none" points="126,179.72 161.2,179.72 143.6,141" stroke="black" stroke-width="2" transform="rotate(140,143.6,160.36)" /><line stroke="black" stroke-width="2" transform="rotate(226,42.2,93.2)" x1="27" x2="57.400000000000006" y1="78" y2="108.4" /><polygon fill="none" points="108,166.92000000000002 135.2,166.92000000000002 121.6,137" stroke="black" stroke-width="2" transform="rotate(34,121.6,151.96)" /><polygon fill="none" points="80,166.4 104.0,166.4 92.0,140" stroke="black" stroke-width="2" transform="rotate(160,92.0,153.2)" /><rect fill="none" height="36.080000000000005" stroke="black" stroke-width="2" transform="rotate(179,111.4,110.04)" width="32.800000000000004" x="95" y="92" /><rect fill="none" height="41.36000000000001" stroke="black" stroke-width="2" transform="rotate(43,136.8,82.68)" width="37.6" x="118" y="62" /></g><text font-family="Arial" font-size="14" text-anchor="middle" x="425" y="380">Option 2</text><g transform="translate(350,400)"><rect fill="none" height="38.720000000000006" stroke="black" stroke-width="2" transform="rotate(142,143.6,160.36)" width="35.2" x="126" y="141" /><rect fill="none" height="33.440000000000005" stroke="black" stroke-width="2" transform="rotate(225,42.2,94.72)" width="30.400000000000002" x="27" y="78" /><polygon fill="none" points="108,166.92000000000002 135.2,166.92000000000002 121.6,137" stroke="black" stroke-width="2" transform="rotate(34,121.6,151.96)" /><rect fill="none" height="26.400000000000002" stroke="black" stroke-width="2" transform="rotate(157,92.0,153.2)" width="24.0" x="80" y="140" /><line stroke="black" stroke-width="2" transform="rotate(179,111.4,108.4)" x1="95" x2="127.80000000000001" y1="92" y2="124.80000000000001" /><polygon fill="none" points="118,103.36000000000001 155.6,103.36000000000001 136.8,62" stroke="black" stroke-width="2" transform="rotate(39,136.8,82.68)" /></g><text font-family="Arial" font-size="14" text-anchor="middle" x="175" y="630">Option 3</text><g transform="translate(100,650)"><rect fill="none" height="38.720000000000006" stroke="black" stroke-width="2" transform="rotate(138,143.6,160.36)" width="35.2" x="126" y="141" /><polygon fill="none" points="27,111.44 57.400000000000006,111.44 42.2,78" stroke="black" stroke-width="2" transform="rotate(228,42.2,94.72)" /><line stroke="black" stroke-width="2" transform="rotate(35,121.6,150.6)" x1="108" x2="135.2" y1="137" y2="164.2" /><polygon fill="none" points="80,166.4 104.0,166.4 92.0,140" stroke="black" stroke-width="2" transform="rotate(158,92.0,153.2)" /><line stroke="black" stroke-width="2" transform="rotate(179,111.4,108.4)" x1="95" x2="127.80000000000001" y1="92" y2="124.80000000000001" /><polygon fill="none" points="118,103.36000000000001 155.6,103.36000000000001 136.8,62" stroke="black" stroke-width="2" transform="rotate(41,136.8,82.68)" /></g><text font-family="Arial" font-size="14" text-anchor="middle" x="425" y="630">Option 4</text><g transform="translate(350,650)"><rect fill="none" height="44" stroke="black" stroke-width="2" transform="rotate(135,148.0,163.0)" width="44" x="126" y="141" /><line stroke="black" stroke-width="2" transform="rotate(222,46.0,97.0)" x1="27" x2="65" y1="78" y2="116" /><polygon fill="none" points="108,171 142,171 125.0,137" stroke="black" stroke-width="2" transform="rotate(30,125.0,154.0)" /><circle cx="80" cy="140" fill="none" r="15.0" stroke="black" stroke-width="2" /><rect fill="none" height="41" stroke="black" stroke-width="2" transform="rotate(173,115.5,112.5)" width="41" x="95" y="92" /><circle cx="118" cy="62" fill="none" r="23.5" stroke="black" stroke-width="2" /></g></svg>