<?xml version="1.0" encoding="utf-8" ?>
<svg baseProfile="full" height="1000px" version="1.1" width="600px" xmlns="http://www.w3.org/2000/svg" xmlns:ev="http://www.w3.org/2001/xml-events" xmlns:xlink="http://www.w3.org/1999/xlink"><defs /><rect fill="white" height="100%" width="100%" x="0" y="0" /><text font-family="Arial" font-size="24" text-anchor="middle" x="300" y="40">Visual Discrimination Test</text><text font-family="Arial" font-size="18" text-anchor="middle" x="300" y="80">Target Pattern</text><g transform="translate(200,100)"><polygon fill="none" points="48,157 86,157 67.0,119" stroke="black" stroke-width="2" transform="rotate(14,67.0,138.0)" /><circle cx="107" cy="134" fill="none" r="21.0" stroke="black" stroke-width="2" /><rect fill="none" height="44" stroke="black" stroke-width="2" transform="rotate(88,67.0,128.0)" width="44" x="45" y="106" /><rect fill="none" height="30" stroke="black" stroke-width="2" transform="rotate(70,99.0,73.0)" width="30" x="84" y="58" /><line stroke="black" stroke-width="2" transform="rotate(320,120.5,158.5)" x1="99" x2="142" y1="137" y2="180" /><circle cx="94" cy="122" fill="none" r="24.5" stroke="black" stroke-width="2" /><rect fill="none" height="33" stroke="black" stroke-width="2" transform="rotate(357,29.5,166.5)" width="33" x="13" y="150" /><rect fill="none" height="33" stroke="black" stroke-width="2" transform="rotate(202,104.5,31.5)" width="33" x="88" y="15" /><polygon fill="none" points="144,78 187,78 165.5,35" stroke="black" stroke-width="2" transform="rotate(84,165.5,56.5)" /></g><text font-family="Arial" font-size="18" text-anchor="middle" x="300" y="350">Options</text><text font-family="Arial" font-size="14" text-anchor="middle" x="175" y="380">Option 1</text><g transform="translate(100,400)"><rect fill="none" height="33.440000000000005" stroke="black" stroke-width="2" transform="rotate(21,63.2,135.72)" width="30.400000000000002" x="48" y="119" /><polygon fill="none" points="107,170.96 140.6,170.96 123.8,134" stroke="black" stroke-width="2" transform="rotate(68,123.8,152.48000000000002)" /><rect fill="none" height="38.720000000000006" stroke="black" stroke-width="2" transform="rotate(93,62.6,125.36)" width="35.2" x="45" y="106" /><rect fill="none" height="26.400000000000002" stroke="black" stroke-width="2" transform="rotate(75,96.0,71.2)" width="24.0" x="84" y="58" /><line stroke="black" stroke-width="2" transform="rotate(324,116.2,154.2)" x1="99" x2="133.4" y1="137" y2="171.4" /><polygon fill="none" points="94,165.12 133.2,165.12 113.6,122" stroke="black" stroke-width="2" transform="rotate(116,113.6,143.56)" /><rect fill="none" height="29.040000000000006" stroke="black" stroke-width="2" transform="rotate(361,26.200000000000003,164.52)" width="26.400000000000002" x="13" y="150" /><polygon fill="none" points="88,44.040000000000006 114.4,44.040000000000006 101.2,15" stroke="black" stroke-width="2" transform="rotate(209,101.2,29.520000000000003)" /><rect fill="none" height="37.84" stroke="black" stroke-width="2" transform="rotate(90,161.2,53.92)" width="34.4" x="144" y="35" /></g><text font-family="Arial" font-size="14" text-anchor="middle" x="425" y="380">Option 2</text><g transform="translate(350,400)"><rect fill="none" height="33.440000000000005" stroke="black" stroke-width="2" transform="rotate(17,63.2,135.72)" width="30.400000000000002" x="48" y="119" /><polygon fill="none" points="107,170.96 140.6,170.96 123.8,134" stroke="black" stroke-width="2" transform="rotate(66,123.8,152.48000000000002)" /><line stroke="black" stroke-width="2" transform="rotate(92,62.6,123.6)" x1="45" x2="80.2" y1="106" y2="141.2" /><polygon fill="none" points="84,84.4 108.0,84.4 96.0,58" stroke="black" stroke-width="2" transform="rotate(77,96.0,71.2)" /><polygon fill="none" points="99,174.84 133.4,174.84 116.2,137" stroke="black" stroke-width="2" transform="rotate(325,116.2,155.92000000000002)" /><polygon fill="none" points="94,165.12 133.2,165.12 113.6,122" stroke="black" stroke-width="2" transform="rotate(114,113.6,143.56)" /><line stroke="black" stroke-width="2" transform="rotate(363,26.200000000000003,163.2)" x1="13" x2="39.400000000000006" y1="150" y2="176.4" /><line stroke="black" stroke-width="2" transform="rotate(206,101.2,28.200000000000003)" x1="88" x2="114.4" y1="15" y2="41.400000000000006" /><line stroke="black" stroke-width="2" transform="rotate(90,161.2,52.2)" x1="144" x2="178.4" y1="35" y2="69.4" /></g><text font-family="Arial" font-size="14" text-anchor="middle" x="175" y="630">Option 3</text><g transform="translate(100,650)"><line stroke="black" stroke-width="2" transform="rotate(17,63.2,134.2)" x1="48" x2="78.4" y1="119" y2="149.4" /><rect fill="none" height="36.96000000000001" stroke="black" stroke-width="2" transform="rotate(68,123.8,152.48000000000002)" width="33.6" x="107" y="134" /><polygon fill="none" points="45,144.72 80.2,144.72 62.6,106" stroke="black" stroke-width="2" transform="rotate(92,62.6,125.36)" /><rect fill="none" height="26.400000000000002" stroke="black" stroke-width="2" transform="rotate(77,96.0,71.2)" width="24.0" x="84" y="58" /><line stroke="black" stroke-width="2" transform="rotate(327,116.2,154.2)" x1="99" x2="133.4" y1="137" y2="171.4" /><polygon fill="none" points="94,165.12 133.2,165.12 113.6,122" stroke="black" stroke-width="2" transform="rotate(116,113.6,143.56)" /><rect fill="none" height="29.040000000000006" stroke="black" stroke-width="2" transform="rotate(360,26.200000000000003,164.52)" width="26.400000000000002" x="13" y="150" /><polygon fill="none" points="88,44.040000000000006 114.4,44.040000000000006 101.2,15" stroke="black" stroke-width="2" transform="rotate(206,101.2,29.520000000000003)" /><rect fill="none" height="37.84" stroke="black" stroke-width="2" transform="rotate(90,161.2,53.92)" width="34.4" x="144" y="35" /></g><text font-family="Arial" font-size="14" text-anchor="middle" x="425" y="630">Option 4</text><g transform="translate(350,650)"><polygon fill="none" points="48,157 86,157 67.0,119" stroke="black" stroke-width="2" transform="rotate(14,67.0,138.0)" /><circle cx="107" cy="134" fill="none" r="21.0" stroke="black" stroke-width="2" /><rect fill="none" height="44" stroke="black" stroke-width="2" transform="rotate(88,67.0,128.0)" width="44" x="45" y="106" /><rect fill="none" height="30" stroke="black" stroke-width="2" transform="rotate(70,99.0,73.0)" width="30" x="84" y="58" /><line stroke="black" stroke-width="2" transform="rotate(320,120.5,158.5)" x1="99" x2="142" y1="137" y2="180" /><circle cx="94" cy="122" fill="none" r="24.5" stroke="black" stroke-width="2" /><rect fill="none" height="33" stroke="black" stroke-width="2" transform="rotate(357,29.5,166.5)" width="33" x="13" y="150" /><rect fill="none" height="33" stroke="black" stroke-width="2" transform="rotate(202,104.5,31.5)" width="33" x="88" y="15" /><polygon fill="none" points="144,78 187,78 165.5,35" stroke="black" stroke-width="2" transform="rotate(84,165.5,56.5)" /></g></svg>