<?xml version="1.0" encoding="utf-8" ?>
<svg baseProfile="full" height="1000px" version="1.1" width="600px" xmlns="http://www.w3.org/2000/svg" xmlns:ev="http://www.w3.org/2001/xml-events" xmlns:xlink="http://www.w3.org/1999/xlink"><defs /><rect fill="white" height="100%" width="100%" x="0" y="0" /><text font-family="Arial" font-size="24" text-anchor="middle" x="300" y="40">Visual Discrimination Test</text><text font-family="Arial" font-size="18" text-anchor="middle" x="300" y="80">Target Pattern</text><g transform="translate(200,100)"><polygon fill="none" points="99,132 132,132 115.5,99" stroke="black" stroke-width="2" transform="rotate(175,115.5,115.5)" /><line stroke="black" stroke-width="2" transform="rotate(117,119.0,109.0)" x1="104" x2="134" y1="94" y2="124" /><line stroke="black" stroke-width="2" transform="rotate(279,83.5,161.5)" x1="63" x2="104" y1="141" y2="182" /><circle cx="61" cy="22" fill="none" r="19.0" stroke="black" stroke-width="2" /></g><text font-family="Arial" font-size="18" text-anchor="middle" x="300" y="350">Options</text><text font-family="Arial" font-size="14" text-anchor="middle" x="175" y="380">Option 1</text><g transform="translate(100,400)"><polygon fill="none" points="99,128.04000000000002 125.4,128.04000000000002 112.2,99" stroke="black" stroke-width="2" transform="rotate(180,112.2,113.52000000000001)" /><polygon fill="none" points="104,120.4 128.0,120.4 116.0,94" stroke="black" stroke-width="2" transform="rotate(124,116.0,107.2)" /><line stroke="black" stroke-width="2" transform="rotate(286,79.4,157.4)" x1="63" x2="95.80000000000001" y1="141" y2="173.8" /><rect fill="none" height="33.440000000000005" stroke="black" stroke-width="2" transform="rotate(171,76.2,38.72)" width="30.400000000000002" x="61" y="22" /></g><text font-family="Arial" font-size="14" text-anchor="middle" x="425" y="380">Option 2</text><g transform="translate(350,400)"><polygon fill="none" points="99,132 132,132 115.5,99" stroke="black" stroke-width="2" transform="rotate(175,115.5,115.5)" /><line stroke="black" stroke-width="2" transform="rotate(117,119.0,109.0)" x1="104" x2="134" y1="94" y2="124" /><line stroke="black" stroke-width="2" transform="rotate(279,83.5,161.5)" x1="63" x2="104" y1="141" y2="182" /><circle cx="61" cy="22" fill="none" r="19.0" stroke="black" stroke-width="2" /></g><text font-family="Arial" font-size="14" text-anchor="middle" x="175" y="630">Option 3</text><g transform="translate(100,650)"><line stroke="black" stroke-width="2" transform="rotate(180,112.2,112.2)" x1="99" x2="125.4" y1="99" y2="125.4" /><line stroke="black" stroke-width="2" transform="rotate(120,116.0,106.0)" x1="104" x2="128.0" y1="94" y2="118.0" /><line stroke="black" stroke-width="2" transform="rotate(284,79.4,157.4)" x1="63" x2="95.80000000000001" y1="141" y2="173.8" /><polygon fill="none" points="61,55.440000000000005 91.4,55.440000000000005 76.2,22" stroke="black" stroke-width="2" transform="rotate(171,76.2,38.72)" /></g><text font-family="Arial" font-size="14" text-anchor="middle" x="425" y="630">Option 4</text><g transform="translate(350,650)"><line stroke="black" stroke-width="2" transform="rotate(178,112.2,112.2)" x1="99" x2="125.4" y1="99" y2="125.4" /><line stroke="black" stroke-width="2" transform="rotate(120,116.0,106.0)" x1="104" x2="128.0" y1="94" y2="118.0" /><line stroke="black" stroke-width="2" transform="rotate(283,79.4,157.4)" x1="63" x2="95.80000000000001" y1="141" y2="173.8" /><rect fill="none" height="33.440000000000005" stroke="black" stroke-width="2" transform="rotate(171,76.2,38.72)" width="30.400000000000002" x="61" y="22" /></g></svg>