<?xml version="1.0" encoding="utf-8" ?>
<svg baseProfile="full" height="1000px" version="1.1" width="600px" xmlns="http://www.w3.org/2000/svg" xmlns:ev="http://www.w3.org/2001/xml-events" xmlns:xlink="http://www.w3.org/1999/xlink"><defs /><rect fill="white" height="100%" width="100%" x="0" y="0" /><text font-family="Arial" font-size="24" text-anchor="middle" x="300" y="40">Visual Discrimination Test</text><text font-family="Arial" font-size="18" text-anchor="middle" x="300" y="80">Target Pattern</text><g transform="translate(200,100)"><line stroke="black" stroke-width="2" transform="rotate(52,49.5,78.5)" x1="30" x2="69" y1="59" y2="98" /><line stroke="black" stroke-width="2" transform="rotate(278,37.0,131.0)" x1="15" x2="59" y1="109" y2="153" /><polygon fill="none" points="133,105 170,105 151.5,68" stroke="black" stroke-width="2" transform="rotate(312,151.5,86.5)" /><line stroke="black" stroke-width="2" transform="rotate(99,112.0,89.0)" x1="92" x2="132" y1="69" y2="109" /><circle cx="126" cy="145" fill="none" r="23.0" stroke="black" stroke-width="2" /></g><text font-family="Arial" font-size="18" text-anchor="middle" x="300" y="350">Options</text><text font-family="Arial" font-size="14" text-anchor="middle" x="175" y="380">Option 1</text><g transform="translate(100,400)"><rect fill="none" height="34.32000000000001" stroke="black" stroke-width="2" transform="rotate(57,45.6,76.16)" width="31.200000000000003" x="30" y="59" /><rect fill="none" height="38.720000000000006" stroke="black" stroke-width="2" transform="rotate(281,32.6,128.36)" width="35.2" x="15" y="109" /><line stroke="black" stroke-width="2" transform="rotate(316,147.8,82.8)" x1="133" x2="162.6" y1="68" y2="97.6" /><rect fill="none" height="35.2" stroke="black" stroke-width="2" transform="rotate(105,108.0,86.6)" width="32.0" x="92" y="69" /><polygon fill="none" points="126,185.48000000000002 162.8,185.48000000000002 144.4,145" stroke="black" stroke-width="2" transform="rotate(88,144.4,165.24)" /></g><text font-family="Arial" font-size="14" text-anchor="middle" x="425" y="380">Option 2</text><g transform="translate(350,400)"><rect fill="none" height="34.32000000000001" stroke="black" stroke-width="2" transform="rotate(55,45.6,76.16)" width="31.200000000000003" x="30" y="59" /><line stroke="black" stroke-width="2" transform="rotate(283,32.6,126.6)" x1="15" x2="50.2" y1="109" y2="144.2" /><rect fill="none" height="32.56" stroke="black" stroke-width="2" transform="rotate(315,147.8,84.28)" width="29.6" x="133" y="68" /><polygon fill="none" points="92,104.2 124.0,104.2 108.0,69" stroke="black" stroke-width="2" transform="rotate(105,108.0,86.6)" /><line stroke="black" stroke-width="2" transform="rotate(86,144.4,163.4)" x1="126" x2="162.8" y1="145" y2="181.8" /></g><text font-family="Arial" font-size="14" text-anchor="middle" x="175" y="630">Option 3</text><g transform="translate(100,650)"><line stroke="black" stroke-width="2" transform="rotate(52,49.5,78.5)" x1="30" x2="69" y1="59" y2="98" /><line stroke="black" stroke-width="2" transform="rotate(278,37.0,131.0)" x1="15" x2="59" y1="109" y2="153" /><polygon fill="none" points="133,105 170,105 151.5,68" stroke="black" stroke-width="2" transform="rotate(312,151.5,86.5)" /><line stroke="black" stroke-width="2" transform="rotate(99,112.0,89.0)" x1="92" x2="132" y1="69" y2="109" /><circle cx="126" cy="145" fill="none" r="23.0" stroke="black" stroke-width="2" /></g><text font-family="Arial" font-size="14" text-anchor="middle" x="425" y="630">Option 4</text><g transform="translate(350,650)"><rect fill="none" height="34.32000000000001" stroke="black" stroke-width="2" transform="rotate(55,45.6,76.16)" width="31.200000000000003" x="30" y="59" /><polygon fill="none" points="15,147.72 50.2,147.72 32.6,109" stroke="black" stroke-width="2" transform="rotate(283,32.6,128.36)" /><line stroke="black" stroke-width="2" transform="rotate(316,147.8,82.8)" x1="133" x2="162.6" y1="68" y2="97.6" /><line stroke="black" stroke-width="2" transform="rotate(102,108.0,85.0)" x1="92" x2="124.0" y1="69" y2="101.0" /><polygon fill="none" points="126,185.48000000000002 162.8,185.48000000000002 144.4,145" stroke="black" stroke-width="2" transform="rotate(87,144.4,165.24)" /></g></svg>