<?xml version="1.0" encoding="utf-8" ?>
<svg baseProfile="full" height="1000px" version="1.1" width="600px" xmlns="http://www.w3.org/2000/svg" xmlns:ev="http://www.w3.org/2001/xml-events" xmlns:xlink="http://www.w3.org/1999/xlink"><defs /><rect fill="white" height="100%" width="100%" x="0" y="0" /><text font-family="Arial" font-size="24" text-anchor="middle" x="300" y="40">Visual Discrimination Test</text><text font-family="Arial" font-size="18" text-anchor="middle" x="300" y="80">Target Pattern</text><g transform="translate(200,100)"><polygon fill="none" points="147,95 192,95 169.5,50" stroke="black" stroke-width="2" transform="rotate(80,169.5,72.5)" /><polygon fill="none" points="93,119 132,119 112.5,80" stroke="black" stroke-width="2" transform="rotate(119,112.5,99.5)" /><line stroke="black" stroke-width="2" transform="rotate(144,112.0,154.0)" x1="89" x2="135" y1="131" y2="177" /><circle cx="143" cy="108" fill="none" r="16.0" stroke="black" stroke-width="2" /><line stroke="black" stroke-width="2" transform="rotate(199,75.5,134.5)" x1="54" x2="97" y1="113" y2="156" /><rect fill="none" height="34" stroke="black" stroke-width="2" transform="rotate(64,140.0,76.0)" width="34" x="123" y="59" /><circle cx="117" cy="44" fill="none" r="18.0" stroke="black" stroke-width="2" /><rect fill="none" height="46" stroke="black" stroke-width="2" transform="rotate(11,158.0,107.0)" width="46" x="135" y="84" /><line stroke="black" stroke-width="2" transform="rotate(348,149.5,101.5)" x1="132" x2="167" y1="84" y2="119" /><rect fill="none" height="39" stroke="black" stroke-width="2" transform="rotate(39,33.5,150.5)" width="39" x="14" y="131" /></g><text font-family="Arial" font-size="18" text-anchor="middle" x="300" y="350">Options</text><text font-family="Arial" font-size="14" text-anchor="middle" x="175" y="380">Option 1</text><g transform="translate(100,400)"><polygon fill="none" points="147,95 192,95 169.5,50" stroke="black" stroke-width="2" transform="rotate(80,169.5,72.5)" /><polygon fill="none" points="93,119 132,119 112.5,80" stroke="black" stroke-width="2" transform="rotate(119,112.5,99.5)" /><line stroke="black" stroke-width="2" transform="rotate(144,112.0,154.0)" x1="89" x2="135" y1="131" y2="177" /><circle cx="143" cy="108" fill="none" r="16.0" stroke="black" stroke-width="2" /><line stroke="black" stroke-width="2" transform="rotate(199,75.5,134.5)" x1="54" x2="97" y1="113" y2="156" /><rect fill="none" height="34" stroke="black" stroke-width="2" transform="rotate(64,140.0,76.0)" width="34" x="123" y="59" /><circle cx="117" cy="44" fill="none" r="18.0" stroke="black" stroke-width="2" /><rect fill="none" height="46" stroke="black" stroke-width="2" transform="rotate(11,158.0,107.0)" width="46" x="135" y="84" /><line stroke="black" stroke-width="2" transform="rotate(348,149.5,101.5)" x1="132" x2="167" y1="84" y2="119" /><rect fill="none" height="39" stroke="black" stroke-width="2" transform="rotate(39,33.5,150.5)" width="39" x="14" y="131" /></g><text font-family="Arial" font-size="14" text-anchor="middle" x="425" y="380">Option 2</text><g transform="translate(350,400)"><rect fill="none" height="39.6" stroke="black" stroke-width="2" transform="rotate(86,165.0,69.8)" width="36.0" x="147" y="50" /><line stroke="black" stroke-width="2" transform="rotate(126,108.6,95.6)" x1="93" x2="124.2" y1="80" y2="111.2" /><line stroke="black" stroke-width="2" transform="rotate(149,107.4,149.4)" x1="89" x2="125.80000000000001" y1="131" y2="167.8" /><line stroke="black" stroke-width="2" transform="rotate(299,155.8,120.8)" x1="143" x2="168.6" y1="108" y2="133.6" /><line stroke="black" stroke-width="2" transform="rotate(203,71.2,130.2)" x1="54" x2="88.4" y1="113" y2="147.4" /><rect fill="none" height="29.920000000000005" stroke="black" stroke-width="2" transform="rotate(70,136.6,73.96000000000001)" width="27.200000000000003" x="123" y="59" /><rect fill="none" height="31.680000000000003" stroke="black" stroke-width="2" transform="rotate(186,131.4,59.84)" width="28.8" x="117" y="44" /><line stroke="black" stroke-width="2" transform="rotate(18,153.4,102.4)" x1="135" x2="171.8" y1="84" y2="120.80000000000001" /><polygon fill="none" points="132,114.80000000000001 160.0,114.80000000000001 146.0,84" stroke="black" stroke-width="2" transform="rotate(355,146.0,99.4)" /><line stroke="black" stroke-width="2" transform="rotate(43,29.6,146.6)" x1="14" x2="45.2" y1="131" y2="162.2" /></g><text font-family="Arial" font-size="14" text-anchor="middle" x="175" y="630">Option 3</text><g transform="translate(100,650)"><polygon fill="none" points="147,89.6 183.0,89.6 165.0,50" stroke="black" stroke-width="2" transform="rotate(86,165.0,69.8)" /><rect fill="none" height="34.32000000000001" stroke="black" stroke-width="2" transform="rotate(122,108.6,97.16)" width="31.200000000000003" x="93" y="80" /><polygon fill="none" points="89,171.48000000000002 125.80000000000001,171.48000000000002 107.4,131" stroke="black" stroke-width="2" transform="rotate(148,107.4,151.24)" /><polygon fill="none" points="143,136.16 168.6,136.16 155.8,108" stroke="black" stroke-width="2" transform="rotate(299,155.8,122.08)" /><polygon fill="none" points="54,150.84 88.4,150.84 71.2,113" stroke="black" stroke-width="2" transform="rotate(203,71.2,131.92000000000002)" /><line stroke="black" stroke-width="2" transform="rotate(68,136.6,72.6)" x1="123" x2="150.2" y1="59" y2="86.2" /><rect fill="none" height="31.680000000000003" stroke="black" stroke-width="2" transform="rotate(184,131.4,59.84)" width="28.8" x="117" y="44" /><line stroke="black" stroke-width="2" transform="rotate(18,153.4,102.4)" x1="135" x2="171.8" y1="84" y2="120.80000000000001" /><polygon fill="none" points="132,114.80000000000001 160.0,114.80000000000001 146.0,84" stroke="black" stroke-width="2" transform="rotate(352,146.0,99.4)" /><polygon fill="none" points="14,165.32 45.2,165.32 29.6,131" stroke="black" stroke-width="2" transform="rotate(43,29.6,148.16)" /></g><text font-family="Arial" font-size="14" text-anchor="middle" x="425" y="630">Option 4</text><g transform="translate(350,650)"><polygon fill="none" points="147,89.6 183.0,89.6 165.0,50" stroke="black" stroke-width="2" transform="rotate(84,165.0,69.8)" /><rect fill="none" height="34.32000000000001" stroke="black" stroke-width="2" transform="rotate(125,108.6,97.16)" width="31.200000000000003" x="93" y="80" /><line stroke="black" stroke-width="2" transform="rotate(149,107.4,149.4)" x1="89" x2="125.80000000000001" y1="131" y2="167.8" /><rect fill="none" height="28.160000000000004" stroke="black" stroke-width="2" transform="rotate(298,155.8,122.08)" width="25.6" x="143" y="108" /><rect fill="none" height="37.84" stroke="black" stroke-width="2" transform="rotate(206,71.2,131.92000000000002)" width="34.4" x="54" y="113" /><line stroke="black" stroke-width="2" transform="rotate(70,136.6,72.6)" x1="123" x2="150.2" y1="59" y2="86.2" /><rect fill="none" height="31.680000000000003" stroke="black" stroke-width="2" transform="rotate(186,131.4,59.84)" width="28.8" x="117" y="44" /><rect fill="none" height="40.48000000000001" stroke="black" stroke-width="2" transform="rotate(18,153.4,104.24000000000001)" width="36.800000000000004" x="135" y="84" /><rect fill="none" height="30.800000000000004" stroke="black" stroke-width="2" transform="rotate(351,146.0,99.4)" width="28.0" x="132" y="84" /><line stroke="black" stroke-width="2" transform="rotate(44,29.6,146.6)" x1="14" x2="45.2" y1="131" y2="162.2" /></g></svg>