<?xml version="1.0" encoding="utf-8" ?>
<svg baseProfile="full" height="1000px" version="1.1" width="600px" xmlns="http://www.w3.org/2000/svg" xmlns:ev="http://www.w3.org/2001/xml-events" xmlns:xlink="http://www.w3.org/1999/xlink"><defs /><rect fill="white" height="100%" width="100%" x="0" y="0" /><text font-family="Arial" font-size="24" text-anchor="middle" x="300" y="40">Visual Discrimination Test</text><text font-family="Arial" font-size="18" text-anchor="middle" x="300" y="80">Target Pattern</text><g transform="translate(200,100)"><polygon fill="none" points="78,120 115,120 96.5,83" stroke="black" stroke-width="2" transform="rotate(51,96.5,101.5)" /><circle cx="144" cy="28" fill="none" r="16.5" stroke="black" stroke-width="2" /><circle cx="18" cy="66" fill="none" r="24.5" stroke="black" stroke-width="2" /><polygon fill="none" points="22,150 57,150 39.5,115" stroke="black" stroke-width="2" transform="rotate(349,39.5,132.5)" /><circle cx="20" cy="15" fill="none" r="19.5" stroke="black" stroke-width="2" /><line stroke="black" stroke-width="2" transform="rotate(10,34.5,34.5)" x1="11" x2="58" y1="11" y2="58" /><line stroke="black" stroke-width="2" transform="rotate(82,84.5,131.5)" x1="68" x2="101" y1="115" y2="148" /><line stroke="black" stroke-width="2" transform="rotate(101,172.0,168.0)" x1="147" x2="197" y1="143" y2="193" /></g><text font-family="Arial" font-size="18" text-anchor="middle" x="300" y="350">Options</text><text font-family="Arial" font-size="14" text-anchor="middle" x="175" y="380">Option 1</text><g transform="translate(100,400)"><polygon fill="none" points="78,106.68 107.6,106.68 92.8,83" stroke="black" stroke-width="2" transform="rotate(54,92.8,94.84)" /><circle cx="144" cy="28" fill="none" r="13.200000000000001" stroke="black" stroke-width="2" /><circle cx="18" cy="66" fill="none" r="19.6" stroke="black" stroke-width="2" /><polygon fill="none" points="22,137.4 50.0,137.4 36.0,115" stroke="black" stroke-width="2" transform="rotate(356,36.0,126.2)" /><circle cx="20" cy="15" fill="none" r="15.600000000000001" stroke="black" stroke-width="2" /><line stroke="black" stroke-width="2" transform="rotate(17,29.8,29.8)" x1="11" x2="48.6" y1="11" y2="48.6" /><line stroke="black" stroke-width="2" transform="rotate(85,81.2,128.2)" x1="68" x2="94.4" y1="115" y2="141.4" /><line stroke="black" stroke-width="2" transform="rotate(104,167.0,163.0)" x1="147" x2="187.0" y1="143" y2="183.0" /></g><text font-family="Arial" font-size="14" text-anchor="middle" x="425" y="380">Option 2</text><g transform="translate(350,400)"><polygon fill="none" points="78,120 115,120 96.5,83" stroke="black" stroke-width="2" transform="rotate(51,96.5,101.5)" /><circle cx="144" cy="28" fill="none" r="16.5" stroke="black" stroke-width="2" /><circle cx="18" cy="66" fill="none" r="24.5" stroke="black" stroke-width="2" /><polygon fill="none" points="22,150 57,150 39.5,115" stroke="black" stroke-width="2" transform="rotate(349,39.5,132.5)" /><circle cx="20" cy="15" fill="none" r="19.5" stroke="black" stroke-width="2" /><line stroke="black" stroke-width="2" transform="rotate(10,34.5,34.5)" x1="11" x2="58" y1="11" y2="58" /><line stroke="black" stroke-width="2" transform="rotate(82,84.5,131.5)" x1="68" x2="101" y1="115" y2="148" /><line stroke="black" stroke-width="2" transform="rotate(101,172.0,168.0)" x1="147" x2="197" y1="143" y2="193" /></g><text font-family="Arial" font-size="14" text-anchor="middle" x="175" y="630">Option 3</text><g transform="translate(100,650)"><polygon fill="none" points="78,106.68 107.6,106.68 92.8,83" stroke="black" stroke-width="2" transform="rotate(58,92.8,94.84)" /><circle cx="144" cy="28" fill="none" r="13.200000000000001" stroke="black" stroke-width="2" /><circle cx="18" cy="66" fill="none" r="19.6" stroke="black" stroke-width="2" /><polygon fill="none" points="22,137.4 50.0,137.4 36.0,115" stroke="black" stroke-width="2" transform="rotate(355,36.0,126.2)" /><circle cx="20" cy="15" fill="none" r="15.600000000000001" stroke="black" stroke-width="2" /><line stroke="black" stroke-width="2" transform="rotate(17,29.8,29.8)" x1="11" x2="48.6" y1="11" y2="48.6" /><line stroke="black" stroke-width="2" transform="rotate(88,81.2,128.2)" x1="68" x2="94.4" y1="115" y2="141.4" /><line stroke="black" stroke-width="2" transform="rotate(104,167.0,163.0)" x1="147" x2="187.0" y1="143" y2="183.0" /></g><text font-family="Arial" font-size="14" text-anchor="middle" x="425" y="630">Option 4</text><g transform="translate(350,650)"><polygon fill="none" points="78,106.68 107.6,106.68 92.8,83" stroke="black" stroke-width="2" transform="rotate(55,92.8,94.84)" /><circle cx="144" cy="28" fill="none" r="13.200000000000001" stroke="black" stroke-width="2" /><circle cx="18" cy="66" fill="none" r="19.6" stroke="black" stroke-width="2" /><polygon fill="none" points="22,137.4 50.0,137.4 36.0,115" stroke="black" stroke-width="2" transform="rotate(356,36.0,126.2)" /><circle cx="20" cy="15" fill="none" r="15.600000000000001" stroke="black" stroke-width="2" /><line stroke="black" stroke-width="2" transform="rotate(13,29.8,29.8)" x1="11" x2="48.6" y1="11" y2="48.6" /><line stroke="black" stroke-width="2" transform="rotate(86,81.2,128.2)" x1="68" x2="94.4" y1="115" y2="141.4" /><line stroke="black" stroke-width="2" transform="rotate(108,167.0,163.0)" x1="147" x2="187.0" y1="143" y2="183.0" /></g></svg>