<?xml version="1.0" encoding="utf-8" ?>
<svg baseProfile="full" height="1000px" version="1.1" width="600px" xmlns="http://www.w3.org/2000/svg" xmlns:ev="http://www.w3.org/2001/xml-events" xmlns:xlink="http://www.w3.org/1999/xlink"><defs /><rect fill="white" height="100%" width="100%" x="0" y="0" /><text font-family="Arial" font-size="24" text-anchor="middle" x="300" y="40">Visual Discrimination Test</text><text font-family="Arial" font-size="18" text-anchor="middle" x="300" y="80">Target Pattern</text><g transform="translate(200,100)"><circle cx="120" cy="56" fill="none" r="23.0" stroke="black" stroke-width="2" /><line stroke="black" stroke-width="2" transform="rotate(315,25.5,109.5)" x1="10" x2="41" y1="94" y2="125" /></g><text font-family="Arial" font-size="18" text-anchor="middle" x="300" y="350">Options</text><text font-family="Arial" font-size="14" text-anchor="middle" x="175" y="380">Option 1</text><g transform="translate(100,400)"><circle cx="120" cy="56" fill="none" r="23.0" stroke="black" stroke-width="2" /><line stroke="black" stroke-width="2" transform="rotate(315,25.5,109.5)" x1="10" x2="41" y1="94" y2="125" /></g><text font-family="Arial" font-size="14" text-anchor="middle" x="425" y="380">Option 2</text><g transform="translate(350,400)"><circle cx="120" cy="56" fill="none" r="25.3" stroke="black" stroke-width="2" /><line stroke="black" stroke-width="2" transform="rotate(321,27.05,111.05)" x1="10" x2="44.1" y1="94" y2="128.1" /></g><text font-family="Arial" font-size="14" text-anchor="middle" x="175" y="630">Option 3</text><g transform="translate(100,650)"><circle cx="120" cy="56" fill="none" r="25.3" stroke="black" stroke-width="2" /><line stroke="black" stroke-width="2" transform="rotate(319,27.05,111.05)" x1="10" x2="44.1" y1="94" y2="128.1" /></g><text font-family="Arial" font-size="14" text-anchor="middle" x="425" y="630">Option 4</text><g transform="translate(350,650)"><circle cx="120" cy="56" fill="none" r="25.3" stroke="black" stroke-width="2" /><line stroke="black" stroke-width="2" transform="rotate(319,27.05,111.05)" x1="10" x2="44.1" y1="94" y2="128.1" /></g></svg>