<?xml version="1.0" encoding="utf-8" ?>
<svg baseProfile="full" height="1000px" version="1.1" width="600px" xmlns="http://www.w3.org/2000/svg" xmlns:ev="http://www.w3.org/2001/xml-events" xmlns:xlink="http://www.w3.org/1999/xlink"><defs /><rect fill="white" height="100%" width="100%" x="0" y="0" /><text font-family="Arial" font-size="24" text-anchor="middle" x="300" y="40">Visual Discrimination Test</text><text font-family="Arial" font-size="18" text-anchor="middle" x="300" y="80">Target Pattern</text><g transform="translate(200,100)"><line stroke="black" stroke-width="2" transform="rotate(183,70.0,40.0)" x1="51" x2="89" y1="21" y2="59" /><line stroke="black" stroke-width="2" transform="rotate(259,126.5,119.5)" x1="103" x2="150" y1="96" y2="143" /><line stroke="black" stroke-width="2" transform="rotate(90,85.5,42.5)" x1="67" x2="104" y1="24" y2="61" /><rect fill="none" height="30" stroke="black" stroke-width="2" transform="rotate(229,101.0,152.0)" width="30" x="86" y="137" /><line stroke="black" stroke-width="2" transform="rotate(67,135.5,60.5)" x1="118" x2="153" y1="43" y2="78" /></g><text font-family="Arial" font-size="18" text-anchor="middle" x="300" y="350">Options</text><text font-family="Arial" font-size="14" text-anchor="middle" x="175" y="380">Option 1</text><g transform="translate(100,400)"><line stroke="black" stroke-width="2" transform="rotate(183,70.0,40.0)" x1="51" x2="89" y1="21" y2="59" /><line stroke="black" stroke-width="2" transform="rotate(259,126.5,119.5)" x1="103" x2="150" y1="96" y2="143" /><line stroke="black" stroke-width="2" transform="rotate(90,85.5,42.5)" x1="67" x2="104" y1="24" y2="61" /><rect fill="none" height="30" stroke="black" stroke-width="2" transform="rotate(229,101.0,152.0)" width="30" x="86" y="137" /><line stroke="black" stroke-width="2" transform="rotate(67,135.5,60.5)" x1="118" x2="153" y1="43" y2="78" /></g><text font-family="Arial" font-size="14" text-anchor="middle" x="425" y="380">Option 2</text><g transform="translate(350,400)"><line stroke="black" stroke-width="2" transform="rotate(190,71.9,41.900000000000006)" x1="51" x2="92.80000000000001" y1="21" y2="62.800000000000004" /><line stroke="black" stroke-width="2" transform="rotate(264,128.85,121.85)" x1="103" x2="154.7" y1="96" y2="147.7" /><line stroke="black" stroke-width="2" transform="rotate(94,87.35,44.35)" x1="67" x2="107.7" y1="24" y2="64.7" /><rect fill="none" height="36.300000000000004" stroke="black" stroke-width="2" transform="rotate(233,102.5,155.15)" width="33.0" x="86" y="137" /><line stroke="black" stroke-width="2" transform="rotate(73,137.25,62.25)" x1="118" x2="156.5" y1="43" y2="81.5" /></g><text font-family="Arial" font-size="14" text-anchor="middle" x="175" y="630">Option 3</text><g transform="translate(100,650)"><line stroke="black" stroke-width="2" transform="rotate(186,71.9,41.900000000000006)" x1="51" x2="92.80000000000001" y1="21" y2="62.800000000000004" /><line stroke="black" stroke-width="2" transform="rotate(262,128.85,121.85)" x1="103" x2="154.7" y1="96" y2="147.7" /><line stroke="black" stroke-width="2" transform="rotate(94,87.35,44.35)" x1="67" x2="107.7" y1="24" y2="64.7" /><rect fill="none" height="36.300000000000004" stroke="black" stroke-width="2" transform="rotate(235,102.5,155.15)" width="33.0" x="86" y="137" /><line stroke="black" stroke-width="2" transform="rotate(72,137.25,62.25)" x1="118" x2="156.5" y1="43" y2="81.5" /></g><text font-family="Arial" font-size="14" text-anchor="middle" x="425" y="630">Option 4</text><g transform="translate(350,650)"><line stroke="black" stroke-width="2" transform="rotate(188,71.9,41.900000000000006)" x1="51" x2="92.80000000000001" y1="21" y2="62.800000000000004" /><line stroke="black" stroke-width="2" transform="rotate(266,128.85,121.85)" x1="103" x2="154.7" y1="96" y2="147.7" /><line stroke="black" stroke-width="2" transform="rotate(93,87.35,44.35)" x1="67" x2="107.7" y1="24" y2="64.7" /><rect fill="none" height="36.300000000000004" stroke="black" stroke-width="2" transform="rotate(233,102.5,155.15)" width="33.0" x="86" y="137" /><line stroke="black" stroke-width="2" transform="rotate(72,137.25,62.25)" x1="118" x2="156.5" y1="43" y2="81.5" /></g></svg>