<?xml version="1.0" encoding="utf-8" ?>
<svg baseProfile="full" height="1000px" version="1.1" width="600px" xmlns="http://www.w3.org/2000/svg" xmlns:ev="http://www.w3.org/2001/xml-events" xmlns:xlink="http://www.w3.org/1999/xlink"><defs /><rect fill="white" height="100%" width="100%" x="0" y="0" /><text font-family="Arial" font-size="24" text-anchor="middle" x="300" y="40">Visual Discrimination Test</text><text font-family="Arial" font-size="18" text-anchor="middle" x="300" y="80">Target Pattern</text><g transform="translate(200,100)"><line stroke="black" stroke-width="2" transform="rotate(229,41.5,92.5)" x1="19" x2="64" y1="70" y2="115" /><line stroke="black" stroke-width="2" transform="rotate(287,70.0,148.0)" x1="45" x2="95" y1="123" y2="173" /><rect fill="none" height="43" stroke="black" stroke-width="2" transform="rotate(226,31.5,68.5)" width="43" x="10" y="47" /></g><text font-family="Arial" font-size="18" text-anchor="middle" x="300" y="350">Options</text><text font-family="Arial" font-size="14" text-anchor="middle" x="175" y="380">Option 1</text><g transform="translate(100,400)"><line stroke="black" stroke-width="2" transform="rotate(236,43.75,94.75)" x1="19" x2="68.5" y1="70" y2="119.5" /><line stroke="black" stroke-width="2" transform="rotate(293,72.5,150.5)" x1="45" x2="100.0" y1="123" y2="178.0" /><rect fill="none" height="52.03000000000001" stroke="black" stroke-width="2" transform="rotate(233,33.650000000000006,73.015)" width="47.300000000000004" x="10" y="47" /></g><text font-family="Arial" font-size="14" text-anchor="middle" x="425" y="380">Option 2</text><g transform="translate(350,400)"><line stroke="black" stroke-width="2" transform="rotate(235,43.75,94.75)" x1="19" x2="68.5" y1="70" y2="119.5" /><line stroke="black" stroke-width="2" transform="rotate(292,72.5,150.5)" x1="45" x2="100.0" y1="123" y2="178.0" /><rect fill="none" height="52.03000000000001" stroke="black" stroke-width="2" transform="rotate(230,33.650000000000006,73.015)" width="47.300000000000004" x="10" y="47" /></g><text font-family="Arial" font-size="14" text-anchor="middle" x="175" y="630">Option 3</text><g transform="translate(100,650)"><line stroke="black" stroke-width="2" transform="rotate(229,41.5,92.5)" x1="19" x2="64" y1="70" y2="115" /><line stroke="black" stroke-width="2" transform="rotate(287,70.0,148.0)" x1="45" x2="95" y1="123" y2="173" /><rect fill="none" height="43" stroke="black" stroke-width="2" transform="rotate(226,31.5,68.5)" width="43" x="10" y="47" /></g><text font-family="Arial" font-size="14" text-anchor="middle" x="425" y="630">Option 4</text><g transform="translate(350,650)"><line stroke="black" stroke-width="2" transform="rotate(234,43.75,94.75)" x1="19" x2="68.5" y1="70" y2="119.5" /><line stroke="black" stroke-width="2" transform="rotate(291,72.5,150.5)" x1="45" x2="100.0" y1="123" y2="178.0" /><rect fill="none" height="52.03000000000001" stroke="black" stroke-width="2" transform="rotate(229,33.650000000000006,73.015)" width="47.300000000000004" x="10" y="47" /></g></svg>