<?xml version="1.0" encoding="utf-8" ?>
<svg baseProfile="full" height="1000px" version="1.1" width="600px" xmlns="http://www.w3.org/2000/svg" xmlns:ev="http://www.w3.org/2001/xml-events" xmlns:xlink="http://www.w3.org/1999/xlink"><defs /><rect fill="white" height="100%" width="100%" x="0" y="0" /><text font-family="Arial" font-size="24" text-anchor="middle" x="300" y="40">Visual Discrimination Test</text><text font-family="Arial" font-size="18" text-anchor="middle" x="300" y="80">Target Pattern</text><g transform="translate(200,100)"><circle cx="38" cy="119" fill="none" r="16.5" stroke="black" stroke-width="2" /><line stroke="black" stroke-width="2" transform="rotate(82,165.0,168.0)" x1="141" x2="189" y1="144" y2="192" /><line stroke="black" stroke-width="2" transform="rotate(82,100.0,86.0)" x1="84" x2="116" y1="70" y2="102" /><line stroke="black" stroke-width="2" transform="rotate(154,69.0,80.0)" x1="54" x2="84" y1="65" y2="95" /><circle cx="97" cy="12" fill="none" r="17.0" stroke="black" stroke-width="2" /><circle cx="98" cy="148" fill="none" r="19.5" stroke="black" stroke-width="2" /></g><text font-family="Arial" font-size="18" text-anchor="middle" x="300" y="350">Options</text><text font-family="Arial" font-size="14" text-anchor="middle" x="175" y="380">Option 1</text><g transform="translate(100,400)"><circle cx="38" cy="119" fill="none" r="18.150000000000002" stroke="black" stroke-width="2" /><line stroke="black" stroke-width="2" transform="rotate(86,167.4,170.4)" x1="141" x2="193.8" y1="144" y2="196.8" /><line stroke="black" stroke-width="2" transform="rotate(88,101.6,87.6)" x1="84" x2="119.2" y1="70" y2="105.2" /><line stroke="black" stroke-width="2" transform="rotate(160,70.5,81.5)" x1="54" x2="87.0" y1="65" y2="98.0" /><circle cx="97" cy="12" fill="none" r="18.700000000000003" stroke="black" stroke-width="2" /><circle cx="98" cy="148" fill="none" r="21.450000000000003" stroke="black" stroke-width="2" /></g><text font-family="Arial" font-size="14" text-anchor="middle" x="425" y="380">Option 2</text><g transform="translate(350,400)"><circle cx="38" cy="119" fill="none" r="18.150000000000002" stroke="black" stroke-width="2" /><line stroke="black" stroke-width="2" transform="rotate(85,167.4,170.4)" x1="141" x2="193.8" y1="144" y2="196.8" /><line stroke="black" stroke-width="2" transform="rotate(88,101.6,87.6)" x1="84" x2="119.2" y1="70" y2="105.2" /><line stroke="black" stroke-width="2" transform="rotate(161,70.5,81.5)" x1="54" x2="87.0" y1="65" y2="98.0" /><circle cx="97" cy="12" fill="none" r="18.700000000000003" stroke="black" stroke-width="2" /><circle cx="98" cy="148" fill="none" r="21.450000000000003" stroke="black" stroke-width="2" /></g><text font-family="Arial" font-size="14" text-anchor="middle" x="175" y="630">Option 3</text><g transform="translate(100,650)"><circle cx="38" cy="119" fill="none" r="16.5" stroke="black" stroke-width="2" /><line stroke="black" stroke-width="2" transform="rotate(82,165.0,168.0)" x1="141" x2="189" y1="144" y2="192" /><line stroke="black" stroke-width="2" transform="rotate(82,100.0,86.0)" x1="84" x2="116" y1="70" y2="102" /><line stroke="black" stroke-width="2" transform="rotate(154,69.0,80.0)" x1="54" x2="84" y1="65" y2="95" /><circle cx="97" cy="12" fill="none" r="17.0" stroke="black" stroke-width="2" /><circle cx="98" cy="148" fill="none" r="19.5" stroke="black" stroke-width="2" /></g><text font-family="Arial" font-size="14" text-anchor="middle" x="425" y="630">Option 4</text><g transform="translate(350,650)"><circle cx="38" cy="119" fill="none" r="18.150000000000002" stroke="black" stroke-width="2" /><line stroke="black" stroke-width="2" transform="rotate(88,167.4,170.4)" x1="141" x2="193.8" y1="144" y2="196.8" /><line stroke="black" stroke-width="2" transform="rotate(88,101.6,87.6)" x1="84" x2="119.2" y1="70" y2="105.2" /><line stroke="black" stroke-width="2" transform="rotate(158,70.5,81.5)" x1="54" x2="87.0" y1="65" y2="98.0" /><circle cx="97" cy="12" fill="none" r="18.700000000000003" stroke="black" stroke-width="2" /><circle cx="98" cy="148" fill="none" r="21.450000000000003" stroke="black" stroke-width="2" /></g></svg>