<?xml version="1.0" encoding="utf-8" ?>
<svg baseProfile="full" height="1000px" version="1.1" width="600px" xmlns="http://www.w3.org/2000/svg" xmlns:ev="http://www.w3.org/2001/xml-events" xmlns:xlink="http://www.w3.org/1999/xlink"><defs /><rect fill="white" height="100%" width="100%" x="0" y="0" /><text font-family="Arial" font-size="24" text-anchor="middle" x="300" y="40">Visual Discrimination Test</text><text font-family="Arial" font-size="18" text-anchor="middle" x="300" y="80">Target Pattern</text><g transform="translate(200,100)"><line stroke="black" stroke-width="2" transform="rotate(212,47.5,157.5)" x1="23" x2="72" y1="133" y2="182" /><rect fill="none" height="43" stroke="black" stroke-width="2" transform="rotate(304,160.5,94.5)" width="43" x="139" y="73" /><rect fill="none" height="39" stroke="black" stroke-width="2" transform="rotate(60,147.5,111.5)" width="39" x="128" y="92" /><polygon fill="none" points="26,107 59,107 42.5,74" stroke="black" stroke-width="2" transform="rotate(116,42.5,90.5)" /><line stroke="black" stroke-width="2" transform="rotate(168,52.0,152.0)" x1="33" x2="71" y1="133" y2="171" /><rect fill="none" height="50" stroke="black" stroke-width="2" transform="rotate(13,129.0,70.0)" width="50" x="104" y="45" /><rect fill="none" height="37" stroke="black" stroke-width="2" transform="rotate(315,163.5,158.5)" width="37" x="145" y="140" /></g><text font-family="Arial" font-size="18" text-anchor="middle" x="300" y="350">Options</text><text font-family="Arial" font-size="14" text-anchor="middle" x="175" y="380">Option 1</text><g transform="translate(100,400)"><line stroke="black" stroke-width="2" transform="rotate(212,47.5,157.5)" x1="23" x2="72" y1="133" y2="182" /><rect fill="none" height="43" stroke="black" stroke-width="2" transform="rotate(304,160.5,94.5)" width="43" x="139" y="73" /><rect fill="none" height="39" stroke="black" stroke-width="2" transform="rotate(60,147.5,111.5)" width="39" x="128" y="92" /><polygon fill="none" points="26,107 59,107 42.5,74" stroke="black" stroke-width="2" transform="rotate(116,42.5,90.5)" /><line stroke="black" stroke-width="2" transform="rotate(168,52.0,152.0)" x1="33" x2="71" y1="133" y2="171" /><rect fill="none" height="50" stroke="black" stroke-width="2" transform="rotate(13,129.0,70.0)" width="50" x="104" y="45" /><rect fill="none" height="37" stroke="black" stroke-width="2" transform="rotate(315,163.5,158.5)" width="37" x="145" y="140" /></g><text font-family="Arial" font-size="14" text-anchor="middle" x="425" y="380">Option 2</text><g transform="translate(350,400)"><line stroke="black" stroke-width="2" transform="rotate(219,49.95,159.95)" x1="23" x2="76.9" y1="133" y2="186.9" /><rect fill="none" height="52.03000000000001" stroke="black" stroke-width="2" transform="rotate(310,162.65,99.015)" width="47.300000000000004" x="139" y="73" /><rect fill="none" height="47.19000000000001" stroke="black" stroke-width="2" transform="rotate(66,149.45,115.595)" width="42.900000000000006" x="128" y="92" /><polygon fill="none" points="26,113.93 62.300000000000004,113.93 44.150000000000006,74" stroke="black" stroke-width="2" transform="rotate(121,44.150000000000006,93.965)" /><line stroke="black" stroke-width="2" transform="rotate(171,53.900000000000006,153.9)" x1="33" x2="74.80000000000001" y1="133" y2="174.8" /><rect fill="none" height="60.500000000000014" stroke="black" stroke-width="2" transform="rotate(16,131.5,75.25)" width="55.00000000000001" x="104" y="45" /><rect fill="none" height="44.77000000000001" stroke="black" stroke-width="2" transform="rotate(318,165.35,162.385)" width="40.7" x="145" y="140" /></g><text font-family="Arial" font-size="14" text-anchor="middle" x="175" y="630">Option 3</text><g transform="translate(100,650)"><line stroke="black" stroke-width="2" transform="rotate(219,49.95,159.95)" x1="23" x2="76.9" y1="133" y2="186.9" /><rect fill="none" height="52.03000000000001" stroke="black" stroke-width="2" transform="rotate(310,162.65,99.015)" width="47.300000000000004" x="139" y="73" /><rect fill="none" height="47.19000000000001" stroke="black" stroke-width="2" transform="rotate(65,149.45,115.595)" width="42.900000000000006" x="128" y="92" /><polygon fill="none" points="26,113.93 62.300000000000004,113.93 44.150000000000006,74" stroke="black" stroke-width="2" transform="rotate(119,44.150000000000006,93.965)" /><line stroke="black" stroke-width="2" transform="rotate(175,53.900000000000006,153.9)" x1="33" x2="74.80000000000001" y1="133" y2="174.8" /><rect fill="none" height="60.500000000000014" stroke="black" stroke-width="2" transform="rotate(16,131.5,75.25)" width="55.00000000000001" x="104" y="45" /><rect fill="none" height="44.77000000000001" stroke="black" stroke-width="2" transform="rotate(322,165.35,162.385)" width="40.7" x="145" y="140" /></g><text font-family="Arial" font-size="14" text-anchor="middle" x="425" y="630">Option 4</text><g transform="translate(350,650)"><line stroke="black" stroke-width="2" transform="rotate(215,49.95,159.95)" x1="23" x2="76.9" y1="133" y2="186.9" /><rect fill="none" height="52.03000000000001" stroke="black" stroke-width="2" transform="rotate(309,162.65,99.015)" width="47.300000000000004" x="139" y="73" /><rect fill="none" height="47.19000000000001" stroke="black" stroke-width="2" transform="rotate(67,149.45,115.595)" width="42.900000000000006" x="128" y="92" /><polygon fill="none" points="26,113.93 62.300000000000004,113.93 44.150000000000006,74" stroke="black" stroke-width="2" transform="rotate(122,44.150000000000006,93.965)" /><line stroke="black" stroke-width="2" transform="rotate(174,53.900000000000006,153.9)" x1="33" x2="74.80000000000001" y1="133" y2="174.8" /><rect fill="none" height="60.500000000000014" stroke="black" stroke-width="2" transform="rotate(19,131.5,75.25)" width="55.00000000000001" x="104" y="45" /><rect fill="none" height="44.77000000000001" stroke="black" stroke-width="2" transform="rotate(320,165.35,162.385)" width="40.7" x="145" y="140" /></g></svg>