<?xml version="1.0" encoding="utf-8" ?>
<svg baseProfile="full" height="1000px" version="1.1" width="600px" xmlns="http://www.w3.org/2000/svg" xmlns:ev="http://www.w3.org/2001/xml-events" xmlns:xlink="http://www.w3.org/1999/xlink"><defs /><rect fill="white" height="100%" width="100%" x="0" y="0" /><text font-family="Arial" font-size="24" text-anchor="middle" x="300" y="40">Visual Discrimination Test</text><text font-family="Arial" font-size="18" text-anchor="middle" x="300" y="80">Target Pattern</text><g transform="translate(200,100)"><line stroke="black" stroke-width="2" transform="rotate(259,121.0,148.0)" x1="100" x2="142" y1="127" y2="169" /><polygon fill="none" points="23,66 58,66 40.5,31" stroke="black" stroke-width="2" transform="rotate(37,40.5,48.5)" /></g><text font-family="Arial" font-size="18" text-anchor="middle" x="300" y="350">Options</text><text font-family="Arial" font-size="14" text-anchor="middle" x="175" y="380">Option 1</text><g transform="translate(100,400)"><line stroke="black" stroke-width="2" transform="rotate(265,123.1,150.1)" x1="100" x2="146.2" y1="127" y2="173.2" /><polygon fill="none" points="23,73.35 61.5,73.35 42.25,31" stroke="black" stroke-width="2" transform="rotate(42,42.25,52.175)" /></g><text font-family="Arial" font-size="14" text-anchor="middle" x="425" y="380">Option 2</text><g transform="translate(350,400)"><line stroke="black" stroke-width="2" transform="rotate(259,121.0,148.0)" x1="100" x2="142" y1="127" y2="169" /><polygon fill="none" points="23,66 58,66 40.5,31" stroke="black" stroke-width="2" transform="rotate(37,40.5,48.5)" /></g><text font-family="Arial" font-size="14" text-anchor="middle" x="175" y="630">Option 3</text><g transform="translate(100,650)"><line stroke="black" stroke-width="2" transform="rotate(265,123.1,150.1)" x1="100" x2="146.2" y1="127" y2="173.2" /><line stroke="black" stroke-width="2" transform="rotate(43,42.25,50.25)" x1="23" x2="61.5" y1="31" y2="69.5" /></g><text font-family="Arial" font-size="14" text-anchor="middle" x="425" y="630">Option 4</text><g transform="translate(350,650)"><rect fill="none" height="50.82000000000001" stroke="black" stroke-width="2" transform="rotate(262,123.1,152.41)" width="46.2" x="100" y="127" /><polygon fill="none" points="23,73.35 61.5,73.35 42.25,31" stroke="black" stroke-width="2" transform="rotate(40,42.25,52.175)" /></g></svg>