<?xml version="1.0" encoding="utf-8" ?>
<svg baseProfile="full" height="1000px" version="1.1" width="600px" xmlns="http://www.w3.org/2000/svg" xmlns:ev="http://www.w3.org/2001/xml-events" xmlns:xlink="http://www.w3.org/1999/xlink"><defs /><rect fill="white" height="100%" width="100%" x="0" y="0" /><text font-family="Arial" font-size="24" text-anchor="middle" x="300" y="40">Visual Discrimination Test</text><text font-family="Arial" font-size="18" text-anchor="middle" x="300" y="80">Target Pattern</text><g transform="translate(200,100)"><rect fill="none" height="40" stroke="black" stroke-width="2" transform="rotate(256,69.0,167.0)" width="40" x="49" y="147" /><line stroke="black" stroke-width="2" transform="rotate(232,54.0,41.0)" x1="34" x2="74" y1="21" y2="61" /><rect fill="none" height="35" stroke="black" stroke-width="2" transform="rotate(320,84.5,38.5)" width="35" x="67" y="21" /><circle cx="76" cy="73" fill="none" r="19.5" stroke="black" stroke-width="2" /><polygon fill="none" points="60,99 107,99 83.5,52" stroke="black" stroke-width="2" transform="rotate(13,83.5,75.5)" /></g><text font-family="Arial" font-size="18" text-anchor="middle" x="300" y="350">Options</text><text font-family="Arial" font-size="14" text-anchor="middle" x="175" y="380">Option 1</text><g transform="translate(100,400)"><rect fill="none" height="48.400000000000006" stroke="black" stroke-width="2" transform="rotate(261,71.0,171.2)" width="44.0" x="49" y="147" /><line stroke="black" stroke-width="2" transform="rotate(239,56.0,43.0)" x1="34" x2="78.0" y1="21" y2="65.0" /><rect fill="none" height="42.35" stroke="black" stroke-width="2" transform="rotate(324,86.25,42.175)" width="38.5" x="67" y="21" /><polygon fill="none" points="76,120.19000000000001 118.9,120.19000000000001 97.45,73" stroke="black" stroke-width="2" transform="rotate(294,97.45,96.595)" /><line stroke="black" stroke-width="2" transform="rotate(20,85.85,77.85)" x1="60" x2="111.7" y1="52" y2="103.7" /></g><text font-family="Arial" font-size="14" text-anchor="middle" x="425" y="380">Option 2</text><g transform="translate(350,400)"><rect fill="none" height="40" stroke="black" stroke-width="2" transform="rotate(256,69.0,167.0)" width="40" x="49" y="147" /><line stroke="black" stroke-width="2" transform="rotate(232,54.0,41.0)" x1="34" x2="74" y1="21" y2="61" /><rect fill="none" height="35" stroke="black" stroke-width="2" transform="rotate(320,84.5,38.5)" width="35" x="67" y="21" /><circle cx="76" cy="73" fill="none" r="19.5" stroke="black" stroke-width="2" /><polygon fill="none" points="60,99 107,99 83.5,52" stroke="black" stroke-width="2" transform="rotate(13,83.5,75.5)" /></g><text font-family="Arial" font-size="14" text-anchor="middle" x="175" y="630">Option 3</text><g transform="translate(100,650)"><polygon fill="none" points="49,195.4 93.0,195.4 71.0,147" stroke="black" stroke-width="2" transform="rotate(261,71.0,171.2)" /><rect fill="none" height="48.400000000000006" stroke="black" stroke-width="2" transform="rotate(239,56.0,45.2)" width="44.0" x="34" y="21" /><line stroke="black" stroke-width="2" transform="rotate(327,86.25,40.25)" x1="67" x2="105.5" y1="21" y2="59.5" /><line stroke="black" stroke-width="2" transform="rotate(296,97.45,94.45)" x1="76" x2="118.9" y1="73" y2="115.9" /><polygon fill="none" points="60,108.87 111.7,108.87 85.85,52" stroke="black" stroke-width="2" transform="rotate(19,85.85,80.435)" /></g><text font-family="Arial" font-size="14" text-anchor="middle" x="425" y="630">Option 4</text><g transform="translate(350,650)"><line stroke="black" stroke-width="2" transform="rotate(260,71.0,169.0)" x1="49" x2="93.0" y1="147" y2="191.0" /><line stroke="black" stroke-width="2" transform="rotate(236,56.0,43.0)" x1="34" x2="78.0" y1="21" y2="65.0" /><rect fill="none" height="42.35" stroke="black" stroke-width="2" transform="rotate(323,86.25,42.175)" width="38.5" x="67" y="21" /><polygon fill="none" points="76,120.19000000000001 118.9,120.19000000000001 97.45,73" stroke="black" stroke-width="2" transform="rotate(294,97.45,96.595)" /><line stroke="black" stroke-width="2" transform="rotate(19,85.85,77.85)" x1="60" x2="111.7" y1="52" y2="103.7" /></g></svg>