<?xml version="1.0" encoding="utf-8" ?>
<svg baseProfile="full" height="1000px" version="1.1" width="600px" xmlns="http://www.w3.org/2000/svg" xmlns:ev="http://www.w3.org/2001/xml-events" xmlns:xlink="http://www.w3.org/1999/xlink"><defs /><rect fill="white" height="100%" width="100%" x="0" y="0" /><text font-family="Arial" font-size="24" text-anchor="middle" x="300" y="40">Visual Discrimination Test</text><text font-family="Arial" font-size="18" text-anchor="middle" x="300" y="80">Target Pattern</text><g transform="translate(200,100)"><line stroke="black" stroke-width="2" transform="rotate(248,139.5,136.5)" x1="120" x2="159" y1="117" y2="156" /><polygon fill="none" points="73,119 104,119 88.5,88" stroke="black" stroke-width="2" transform="rotate(203,88.5,103.5)" /><line stroke="black" stroke-width="2" transform="rotate(285,74.5,59.5)" x1="51" x2="98" y1="36" y2="83" /></g><text font-family="Arial" font-size="18" text-anchor="middle" x="300" y="350">Options</text><text font-family="Arial" font-size="14" text-anchor="middle" x="175" y="380">Option 1</text><g transform="translate(100,400)"><polygon fill="none" points="120,164.19 162.9,164.19 141.45,117" stroke="black" stroke-width="2" transform="rotate(255,141.45,140.595)" /><rect fill="none" height="37.510000000000005" stroke="black" stroke-width="2" transform="rotate(210,90.05,106.755)" width="34.1" x="73" y="88" /><line stroke="black" stroke-width="2" transform="rotate(289,76.85,61.85)" x1="51" x2="102.7" y1="36" y2="87.7" /></g><text font-family="Arial" font-size="14" text-anchor="middle" x="425" y="380">Option 2</text><g transform="translate(350,400)"><polygon fill="none" points="120,164.19 162.9,164.19 141.45,117" stroke="black" stroke-width="2" transform="rotate(254,141.45,140.595)" /><line stroke="black" stroke-width="2" transform="rotate(208,90.05,105.05)" x1="73" x2="107.1" y1="88" y2="122.1" /><polygon fill="none" points="51,92.87 102.7,92.87 76.85,36" stroke="black" stroke-width="2" transform="rotate(291,76.85,64.435)" /></g><text font-family="Arial" font-size="14" text-anchor="middle" x="175" y="630">Option 3</text><g transform="translate(100,650)"><line stroke="black" stroke-width="2" transform="rotate(252,141.45,138.45)" x1="120" x2="162.9" y1="117" y2="159.9" /><line stroke="black" stroke-width="2" transform="rotate(210,90.05,105.05)" x1="73" x2="107.1" y1="88" y2="122.1" /><line stroke="black" stroke-width="2" transform="rotate(289,76.85,61.85)" x1="51" x2="102.7" y1="36" y2="87.7" /></g><text font-family="Arial" font-size="14" text-anchor="middle" x="425" y="630">Option 4</text><g transform="translate(350,650)"><line stroke="black" stroke-width="2" transform="rotate(248,139.5,136.5)" x1="120" x2="159" y1="117" y2="156" /><polygon fill="none" points="73,119 104,119 88.5,88" stroke="black" stroke-width="2" transform="rotate(203,88.5,103.5)" /><line stroke="black" stroke-width="2" transform="rotate(285,74.5,59.5)" x1="51" x2="98" y1="36" y2="83" /></g></svg>