<?xml version="1.0" encoding="utf-8" ?>
<svg baseProfile="full" height="1000px" version="1.1" width="600px" xmlns="http://www.w3.org/2000/svg" xmlns:ev="http://www.w3.org/2001/xml-events" xmlns:xlink="http://www.w3.org/1999/xlink"><defs /><rect fill="white" height="100%" width="100%" x="0" y="0" /><text font-family="Arial" font-size="24" text-anchor="middle" x="300" y="40">Visual Discrimination Test</text><text font-family="Arial" font-size="18" text-anchor="middle" x="300" y="80">Target Pattern</text><g transform="translate(200,100)"><polygon fill="none" points="53,67 101,67 77.0,19" stroke="black" stroke-width="2" transform="rotate(266,77.0,43.0)" /><line stroke="black" stroke-width="2" transform="rotate(211,129.0,71.0)" x1="109" x2="149" y1="51" y2="91" /><polygon fill="none" points="56,145 102,145 79.0,99" stroke="black" stroke-width="2" transform="rotate(335,79.0,122.0)" /><polygon fill="none" points="81,124 116,124 98.5,89" stroke="black" stroke-width="2" transform="rotate(254,98.5,106.5)" /><line stroke="black" stroke-width="2" transform="rotate(214,157.0,170.0)" x1="134" x2="180" y1="147" y2="193" /></g><text font-family="Arial" font-size="18" text-anchor="middle" x="300" y="350">Options</text><text font-family="Arial" font-size="14" text-anchor="middle" x="175" y="380">Option 1</text><g transform="translate(100,400)"><rect fill="none" height="58.08000000000001" stroke="black" stroke-width="2" transform="rotate(270,79.4,48.040000000000006)" width="52.800000000000004" x="53" y="19" /><polygon fill="none" points="109,99.4 153.0,99.4 131.0,51" stroke="black" stroke-width="2" transform="rotate(218,131.0,75.2)" /><rect fill="none" height="55.660000000000004" stroke="black" stroke-width="2" transform="rotate(338,81.3,126.83)" width="50.6" x="56" y="99" /><rect fill="none" height="42.35" stroke="black" stroke-width="2" transform="rotate(258,100.25,110.175)" width="38.5" x="81" y="89" /><line stroke="black" stroke-width="2" transform="rotate(219,159.3,172.3)" x1="134" x2="184.6" y1="147" y2="197.6" /></g><text font-family="Arial" font-size="14" text-anchor="middle" x="425" y="380">Option 2</text><g transform="translate(350,400)"><polygon fill="none" points="53,77.08000000000001 105.80000000000001,77.08000000000001 79.4,19" stroke="black" stroke-width="2" transform="rotate(272,79.4,48.040000000000006)" /><rect fill="none" height="48.400000000000006" stroke="black" stroke-width="2" transform="rotate(214,131.0,75.2)" width="44.0" x="109" y="51" /><rect fill="none" height="55.660000000000004" stroke="black" stroke-width="2" transform="rotate(340,81.3,126.83)" width="50.6" x="56" y="99" /><rect fill="none" height="42.35" stroke="black" stroke-width="2" transform="rotate(261,100.25,110.175)" width="38.5" x="81" y="89" /><line stroke="black" stroke-width="2" transform="rotate(219,159.3,172.3)" x1="134" x2="184.6" y1="147" y2="197.6" /></g><text font-family="Arial" font-size="14" text-anchor="middle" x="175" y="630">Option 3</text><g transform="translate(100,650)"><polygon fill="none" points="53,67 101,67 77.0,19" stroke="black" stroke-width="2" transform="rotate(266,77.0,43.0)" /><line stroke="black" stroke-width="2" transform="rotate(211,129.0,71.0)" x1="109" x2="149" y1="51" y2="91" /><polygon fill="none" points="56,145 102,145 79.0,99" stroke="black" stroke-width="2" transform="rotate(335,79.0,122.0)" /><polygon fill="none" points="81,124 116,124 98.5,89" stroke="black" stroke-width="2" transform="rotate(254,98.5,106.5)" /><line stroke="black" stroke-width="2" transform="rotate(214,157.0,170.0)" x1="134" x2="180" y1="147" y2="193" /></g><text font-family="Arial" font-size="14" text-anchor="middle" x="425" y="630">Option 4</text><g transform="translate(350,650)"><polygon fill="none" points="53,77.08000000000001 105.80000000000001,77.08000000000001 79.4,19" stroke="black" stroke-width="2" transform="rotate(272,79.4,48.040000000000006)" /><rect fill="none" height="48.400000000000006" stroke="black" stroke-width="2" transform="rotate(217,131.0,75.2)" width="44.0" x="109" y="51" /><polygon fill="none" points="56,154.66 106.6,154.66 81.3,99" stroke="black" stroke-width="2" transform="rotate(341,81.3,126.83)" /><polygon fill="none" points="81,131.35 119.5,131.35 100.25,89" stroke="black" stroke-width="2" transform="rotate(258,100.25,110.175)" /><line stroke="black" stroke-width="2" transform="rotate(220,159.3,172.3)" x1="134" x2="184.6" y1="147" y2="197.6" /></g></svg>