<?xml version="1.0" encoding="utf-8" ?>
<svg baseProfile="full" height="1000px" version="1.1" width="600px" xmlns="http://www.w3.org/2000/svg" xmlns:ev="http://www.w3.org/2001/xml-events" xmlns:xlink="http://www.w3.org/1999/xlink"><defs /><rect fill="white" height="100%" width="100%" x="0" y="0" /><text font-family="Arial" font-size="24" text-anchor="middle" x="300" y="40">Visual Discrimination Test</text><text font-family="Arial" font-size="18" text-anchor="middle" x="300" y="80">Target Pattern</text><g transform="translate(200,100)"><circle cx="137" cy="80" fill="none" r="20.0" stroke="black" stroke-width="2" /><rect fill="none" height="33" stroke="black" stroke-width="2" transform="rotate(90,66.5,88.5)" width="33" x="50" y="72" /></g><text font-family="Arial" font-size="18" text-anchor="middle" x="300" y="350">Options</text><text font-family="Arial" font-size="14" text-anchor="middle" x="175" y="380">Option 1</text><g transform="translate(100,400)"><polygon fill="none" points="137,128.4 181.0,128.4 159.0,80" stroke="black" stroke-width="2" transform="rotate(161,159.0,104.2)" /><line stroke="black" stroke-width="2" transform="rotate(95,68.15,90.15)" x1="50" x2="86.30000000000001" y1="72" y2="108.30000000000001" /></g><text font-family="Arial" font-size="14" text-anchor="middle" x="425" y="380">Option 2</text><g transform="translate(350,400)"><line stroke="black" stroke-width="2" transform="rotate(162,159.0,102.0)" x1="137" x2="181.0" y1="80" y2="124.0" /><polygon fill="none" points="50,111.93 86.30000000000001,111.93 68.15,72" stroke="black" stroke-width="2" transform="rotate(96,68.15,91.965)" /></g><text font-family="Arial" font-size="14" text-anchor="middle" x="175" y="630">Option 3</text><g transform="translate(100,650)"><circle cx="137" cy="80" fill="none" r="20.0" stroke="black" stroke-width="2" /><rect fill="none" height="33" stroke="black" stroke-width="2" transform="rotate(90,66.5,88.5)" width="33" x="50" y="72" /></g><text font-family="Arial" font-size="14" text-anchor="middle" x="425" y="630">Option 4</text><g transform="translate(350,650)"><polygon fill="none" points="137,128.4 181.0,128.4 159.0,80" stroke="black" stroke-width="2" transform="rotate(162,159.0,104.2)" /><line stroke="black" stroke-width="2" transform="rotate(93,68.15,90.15)" x1="50" x2="86.30000000000001" y1="72" y2="108.30000000000001" /></g></svg>