<?xml version="1.0" encoding="utf-8" ?>
<svg baseProfile="full" height="1000px" version="1.1" width="600px" xmlns="http://www.w3.org/2000/svg" xmlns:ev="http://www.w3.org/2001/xml-events" xmlns:xlink="http://www.w3.org/1999/xlink"><defs /><rect fill="white" height="100%" width="100%" x="0" y="0" /><text font-family="Arial" font-size="24" text-anchor="middle" x="300" y="40">Visual Discrimination Test</text><text font-family="Arial" font-size="18" text-anchor="middle" x="300" y="80">Target Pattern</text><g transform="translate(200,100)"><rect fill="none" height="31" stroke="black" stroke-width="2" transform="rotate(112,39.5,100.5)" width="31" x="24" y="85" /><line stroke="black" stroke-width="2" transform="rotate(16,166.5,96.5)" x1="143" x2="190" y1="73" y2="120" /><circle cx="74" cy="100" fill="none" r="20.5" stroke="black" stroke-width="2" /><line stroke="black" stroke-width="2" transform="rotate(49,107.0,108.0)" x1="91" x2="123" y1="92" y2="124" /><circle cx="118" cy="39" fill="none" r="22.0" stroke="black" stroke-width="2" /><rect fill="none" height="40" stroke="black" stroke-width="2" transform="rotate(261,41.0,92.0)" width="40" x="21" y="72" /><line stroke="black" stroke-width="2" transform="rotate(101,102.0,109.0)" x1="78" x2="126" y1="85" y2="133" /><rect fill="none" height="34" stroke="black" stroke-width="2" transform="rotate(45,99.0,141.0)" width="34" x="82" y="124" /><rect fill="none" height="40" stroke="black" stroke-width="2" transform="rotate(346,39.0,49.0)" width="40" x="19" y="29" /><circle cx="95" cy="69" fill="none" r="17.0" stroke="black" stroke-width="2" /></g><text font-family="Arial" font-size="18" text-anchor="middle" x="300" y="350">Options</text><text font-family="Arial" font-size="14" text-anchor="middle" x="175" y="380">Option 1</text><g transform="translate(100,400)"><rect fill="none" height="31" stroke="black" stroke-width="2" transform="rotate(112,39.5,100.5)" width="31" x="24" y="85" /><line stroke="black" stroke-width="2" transform="rotate(16,166.5,96.5)" x1="143" x2="190" y1="73" y2="120" /><circle cx="74" cy="100" fill="none" r="20.5" stroke="black" stroke-width="2" /><line stroke="black" stroke-width="2" transform="rotate(49,107.0,108.0)" x1="91" x2="123" y1="92" y2="124" /><circle cx="118" cy="39" fill="none" r="22.0" stroke="black" stroke-width="2" /><rect fill="none" height="40" stroke="black" stroke-width="2" transform="rotate(261,41.0,92.0)" width="40" x="21" y="72" /><line stroke="black" stroke-width="2" transform="rotate(101,102.0,109.0)" x1="78" x2="126" y1="85" y2="133" /><rect fill="none" height="34" stroke="black" stroke-width="2" transform="rotate(45,99.0,141.0)" width="34" x="82" y="124" /><rect fill="none" height="40" stroke="black" stroke-width="2" transform="rotate(346,39.0,49.0)" width="40" x="19" y="29" /><circle cx="95" cy="69" fill="none" r="17.0" stroke="black" stroke-width="2" /></g><text font-family="Arial" font-size="14" text-anchor="middle" x="425" y="380">Option 2</text><g transform="translate(350,400)"><polygon fill="none" points="24,104.84 48.8,104.84 36.4,85" stroke="black" stroke-width="2" transform="rotate(119,36.4,94.92)" /><rect fill="none" height="30.080000000000002" stroke="black" stroke-width="2" transform="rotate(21,161.8,88.04)" width="37.6" x="143" y="73" /><rect fill="none" height="26.240000000000006" stroke="black" stroke-width="2" transform="rotate(328,90.4,113.12)" width="32.800000000000004" x="74" y="100" /><polygon fill="none" points="91,112.48 116.6,112.48 103.8,92" stroke="black" stroke-width="2" transform="rotate(54,103.8,102.24000000000001)" /><line stroke="black" stroke-width="2" transform="rotate(328,135.6,56.6)" x1="118" x2="153.2" y1="39" y2="74.2" /><polygon fill="none" points="21,97.6 53.0,97.6 37.0,72" stroke="black" stroke-width="2" transform="rotate(264,37.0,84.8)" /><polygon fill="none" points="78,115.72 116.4,115.72 97.2,85" stroke="black" stroke-width="2" transform="rotate(106,97.2,100.36)" /><rect fill="none" height="21.760000000000005" stroke="black" stroke-width="2" transform="rotate(51,95.6,134.88)" width="27.200000000000003" x="82" y="124" /><rect fill="none" height="25.6" stroke="black" stroke-width="2" transform="rotate(352,35.0,41.8)" width="32.0" x="19" y="29" /><rect fill="none" height="21.760000000000005" stroke="black" stroke-width="2" transform="rotate(156,108.6,79.88)" width="27.200000000000003" x="95" y="69" /></g><text font-family="Arial" font-size="14" text-anchor="middle" x="175" y="630">Option 3</text><g transform="translate(100,650)"><line stroke="black" stroke-width="2" transform="rotate(116,36.4,97.4)" x1="24" x2="48.8" y1="85" y2="109.8" /><line stroke="black" stroke-width="2" transform="rotate(19,161.8,91.8)" x1="143" x2="180.6" y1="73" y2="110.6" /><rect fill="none" height="26.240000000000006" stroke="black" stroke-width="2" transform="rotate(329,90.4,113.12)" width="32.800000000000004" x="74" y="100" /><rect fill="none" height="20.480000000000004" stroke="black" stroke-width="2" transform="rotate(53,103.8,102.24000000000001)" width="25.6" x="91" y="92" /><polygon fill="none" points="118,67.16 153.2,67.16 135.6,39" stroke="black" stroke-width="2" transform="rotate(329,135.6,53.08)" /><rect fill="none" height="25.6" stroke="black" stroke-width="2" transform="rotate(267,37.0,84.8)" width="32.0" x="21" y="72" /><polygon fill="none" points="78,115.72 116.4,115.72 97.2,85" stroke="black" stroke-width="2" transform="rotate(105,97.2,100.36)" /><line stroke="black" stroke-width="2" transform="rotate(48,95.6,137.6)" x1="82" x2="109.2" y1="124" y2="151.2" /><line stroke="black" stroke-width="2" transform="rotate(353,35.0,45.0)" x1="19" x2="51.0" y1="29" y2="61.0" /><line stroke="black" stroke-width="2" transform="rotate(157,108.6,82.6)" x1="95" x2="122.2" y1="69" y2="96.2" /></g><text font-family="Arial" font-size="14" text-anchor="middle" x="425" y="630">Option 4</text><g transform="translate(350,650)"><polygon fill="none" points="24,104.84 48.8,104.84 36.4,85" stroke="black" stroke-width="2" transform="rotate(119,36.4,94.92)" /><line stroke="black" stroke-width="2" transform="rotate(19,161.8,91.8)" x1="143" x2="180.6" y1="73" y2="110.6" /><polygon fill="none" points="74,126.24000000000001 106.80000000000001,126.24000000000001 90.4,100" stroke="black" stroke-width="2" transform="rotate(332,90.4,113.12)" /><line stroke="black" stroke-width="2" transform="rotate(56,103.8,104.8)" x1="91" x2="116.6" y1="92" y2="117.6" /><rect fill="none" height="28.160000000000004" stroke="black" stroke-width="2" transform="rotate(331,135.6,53.08)" width="35.2" x="118" y="39" /><rect fill="none" height="25.6" stroke="black" stroke-width="2" transform="rotate(264,37.0,84.8)" width="32.0" x="21" y="72" /><rect fill="none" height="30.720000000000006" stroke="black" stroke-width="2" transform="rotate(107,97.2,100.36)" width="38.400000000000006" x="78" y="85" /><line stroke="black" stroke-width="2" transform="rotate(51,95.6,137.6)" x1="82" x2="109.2" y1="124" y2="151.2" /><polygon fill="none" points="19,54.6 51.0,54.6 35.0,29" stroke="black" stroke-width="2" transform="rotate(349,35.0,41.8)" /><rect fill="none" height="21.760000000000005" stroke="black" stroke-width="2" transform="rotate(157,108.6,79.88)" width="27.200000000000003" x="95" y="69" /></g></svg>