<?xml version="1.0" encoding="utf-8" ?>
<svg baseProfile="full" height="1000px" version="1.1" width="600px" xmlns="http://www.w3.org/2000/svg" xmlns:ev="http://www.w3.org/2001/xml-events" xmlns:xlink="http://www.w3.org/1999/xlink"><defs /><rect fill="white" height="100%" width="100%" x="0" y="0" /><text font-family="Arial" font-size="24" text-anchor="middle" x="300" y="40">Visual Discrimination Test</text><text font-family="Arial" font-size="18" text-anchor="middle" x="300" y="80">Target Pattern</text><g transform="translate(200,100)"><line stroke="black" stroke-width="2" transform="rotate(314,47.0,101.0)" x1="23" x2="71" y1="77" y2="125" /><circle cx="122" cy="136" fill="none" r="18.5" stroke="black" stroke-width="2" /><rect fill="none" height="41" stroke="black" stroke-width="2" transform="rotate(343,68.5,98.5)" width="41" x="48" y="78" /><line stroke="black" stroke-width="2" transform="rotate(106,104.5,93.5)" x1="80" x2="129" y1="69" y2="118" /><line stroke="black" stroke-width="2" transform="rotate(172,31.0,82.0)" x1="11" x2="51" y1="62" y2="102" /><line stroke="black" stroke-width="2" transform="rotate(146,75.0,41.0)" x1="51" x2="99" y1="17" y2="65" /><circle cx="77" cy="136" fill="none" r="19.5" stroke="black" stroke-width="2" /><polygon fill="none" points="60,123 108,123 84.0,75" stroke="black" stroke-width="2" transform="rotate(343,84.0,99.0)" /></g><text font-family="Arial" font-size="18" text-anchor="middle" x="300" y="350">Options</text><text font-family="Arial" font-size="14" text-anchor="middle" x="175" y="380">Option 1</text><g transform="translate(100,400)"><line stroke="black" stroke-width="2" transform="rotate(321,56.599999999999994,110.6)" x1="23" x2="90.19999999999999" y1="77" y2="144.2" /><circle cx="122" cy="136" fill="none" r="25.9" stroke="black" stroke-width="2" /><rect fill="none" height="63.14" stroke="black" stroke-width="2" transform="rotate(350,76.7,109.57)" width="57.4" x="48" y="78" /><line stroke="black" stroke-width="2" transform="rotate(112,114.3,103.3)" x1="80" x2="148.6" y1="69" y2="137.6" /><line stroke="black" stroke-width="2" transform="rotate(177,39.0,90.0)" x1="11" x2="67.0" y1="62" y2="118.0" /><line stroke="black" stroke-width="2" transform="rotate(152,84.6,50.599999999999994)" x1="51" x2="118.19999999999999" y1="17" y2="84.19999999999999" /><circle cx="77" cy="136" fill="none" r="27.299999999999997" stroke="black" stroke-width="2" /><polygon fill="none" points="60,148.92 127.19999999999999,148.92 93.6,75" stroke="black" stroke-width="2" transform="rotate(347,93.6,111.96)" /></g><text font-family="Arial" font-size="14" text-anchor="middle" x="425" y="380">Option 2</text><g transform="translate(350,400)"><line stroke="black" stroke-width="2" transform="rotate(320,56.599999999999994,110.6)" x1="23" x2="90.19999999999999" y1="77" y2="144.2" /><circle cx="122" cy="136" fill="none" r="25.9" stroke="black" stroke-width="2" /><rect fill="none" height="63.14" stroke="black" stroke-width="2" transform="rotate(346,76.7,109.57)" width="57.4" x="48" y="78" /><line stroke="black" stroke-width="2" transform="rotate(111,114.3,103.3)" x1="80" x2="148.6" y1="69" y2="137.6" /><line stroke="black" stroke-width="2" transform="rotate(179,39.0,90.0)" x1="11" x2="67.0" y1="62" y2="118.0" /><line stroke="black" stroke-width="2" transform="rotate(151,84.6,50.599999999999994)" x1="51" x2="118.19999999999999" y1="17" y2="84.19999999999999" /><circle cx="77" cy="136" fill="none" r="27.299999999999997" stroke="black" stroke-width="2" /><polygon fill="none" points="60,148.92 127.19999999999999,148.92 93.6,75" stroke="black" stroke-width="2" transform="rotate(347,93.6,111.96)" /></g><text font-family="Arial" font-size="14" text-anchor="middle" x="175" y="630">Option 3</text><g transform="translate(100,650)"><line stroke="black" stroke-width="2" transform="rotate(320,56.599999999999994,110.6)" x1="23" x2="90.19999999999999" y1="77" y2="144.2" /><circle cx="122" cy="136" fill="none" r="25.9" stroke="black" stroke-width="2" /><rect fill="none" height="63.14" stroke="black" stroke-width="2" transform="rotate(350,76.7,109.57)" width="57.4" x="48" y="78" /><line stroke="black" stroke-width="2" transform="rotate(111,114.3,103.3)" x1="80" x2="148.6" y1="69" y2="137.6" /><line stroke="black" stroke-width="2" transform="rotate(175,39.0,90.0)" x1="11" x2="67.0" y1="62" y2="118.0" /><line stroke="black" stroke-width="2" transform="rotate(149,84.6,50.599999999999994)" x1="51" x2="118.19999999999999" y1="17" y2="84.19999999999999" /><circle cx="77" cy="136" fill="none" r="27.299999999999997" stroke="black" stroke-width="2" /><polygon fill="none" points="60,148.92 127.19999999999999,148.92 93.6,75" stroke="black" stroke-width="2" transform="rotate(348,93.6,111.96)" /></g><text font-family="Arial" font-size="14" text-anchor="middle" x="425" y="630">Option 4</text><g transform="translate(350,650)"><line stroke="black" stroke-width="2" transform="rotate(314,47.0,101.0)" x1="23" x2="71" y1="77" y2="125" /><circle cx="122" cy="136" fill="none" r="18.5" stroke="black" stroke-width="2" /><rect fill="none" height="41" stroke="black" stroke-width="2" transform="rotate(343,68.5,98.5)" width="41" x="48" y="78" /><line stroke="black" stroke-width="2" transform="rotate(106,104.5,93.5)" x1="80" x2="129" y1="69" y2="118" /><line stroke="black" stroke-width="2" transform="rotate(172,31.0,82.0)" x1="11" x2="51" y1="62" y2="102" /><line stroke="black" stroke-width="2" transform="rotate(146,75.0,41.0)" x1="51" x2="99" y1="17" y2="65" /><circle cx="77" cy="136" fill="none" r="19.5" stroke="black" stroke-width="2" /><polygon fill="none" points="60,123 108,123 84.0,75" stroke="black" stroke-width="2" transform="rotate(343,84.0,99.0)" /></g></svg>