<?xml version="1.0" encoding="utf-8" ?>
<svg baseProfile="full" height="1000px" version="1.1" width="600px" xmlns="http://www.w3.org/2000/svg" xmlns:ev="http://www.w3.org/2001/xml-events" xmlns:xlink="http://www.w3.org/1999/xlink"><defs /><rect fill="white" height="100%" width="100%" x="0" y="0" /><text font-family="Arial" font-size="24" text-anchor="middle" x="300" y="40">Visual Discrimination Test</text><text font-family="Arial" font-size="18" text-anchor="middle" x="300" y="80">Target Pattern</text><g transform="translate(200,100)"><line stroke="black" stroke-width="2" transform="rotate(199,71.5,89.5)" x1="48" x2="95" y1="66" y2="113" /><line stroke="black" stroke-width="2" transform="rotate(345,69.5,124.5)" x1="51" x2="88" y1="106" y2="143" /><line stroke="black" stroke-width="2" transform="rotate(316,120.0,141.0)" x1="102" x2="138" y1="123" y2="159" /><line stroke="black" stroke-width="2" transform="rotate(290,164.5,54.5)" x1="141" x2="188" y1="31" y2="78" /><circle cx="42" cy="141" fill="none" r="19.5" stroke="black" stroke-width="2" /><line stroke="black" stroke-width="2" transform="rotate(124,128.0,164.0)" x1="105" x2="151" y1="141" y2="187" /><polygon fill="none" points="22,174 70,174 46.0,126" stroke="black" stroke-width="2" transform="rotate(300,46.0,150.0)" /><circle cx="57" cy="71" fill="none" r="22.0" stroke="black" stroke-width="2" /></g><text font-family="Arial" font-size="18" text-anchor="middle" x="300" y="350">Options</text><text font-family="Arial" font-size="14" text-anchor="middle" x="175" y="380">Option 1</text><g transform="translate(100,400)"><line stroke="black" stroke-width="2" transform="rotate(206,80.9,98.9)" x1="48" x2="113.8" y1="66" y2="131.8" /><line stroke="black" stroke-width="2" transform="rotate(349,76.9,131.9)" x1="51" x2="102.8" y1="106" y2="157.8" /><line stroke="black" stroke-width="2" transform="rotate(320,127.2,148.2)" x1="102" x2="152.4" y1="123" y2="173.4" /><line stroke="black" stroke-width="2" transform="rotate(297,173.9,63.9)" x1="141" x2="206.8" y1="31" y2="96.8" /><circle cx="42" cy="141" fill="none" r="27.299999999999997" stroke="black" stroke-width="2" /><line stroke="black" stroke-width="2" transform="rotate(127,137.2,173.2)" x1="105" x2="169.39999999999998" y1="141" y2="205.39999999999998" /><polygon fill="none" points="22,199.92 89.19999999999999,199.92 55.599999999999994,126" stroke="black" stroke-width="2" transform="rotate(305,55.599999999999994,162.95999999999998)" /><circle cx="57" cy="71" fill="none" r="30.799999999999997" stroke="black" stroke-width="2" /></g><text font-family="Arial" font-size="14" text-anchor="middle" x="425" y="380">Option 2</text><g transform="translate(350,400)"><line stroke="black" stroke-width="2" transform="rotate(199,71.5,89.5)" x1="48" x2="95" y1="66" y2="113" /><line stroke="black" stroke-width="2" transform="rotate(345,69.5,124.5)" x1="51" x2="88" y1="106" y2="143" /><line stroke="black" stroke-width="2" transform="rotate(316,120.0,141.0)" x1="102" x2="138" y1="123" y2="159" /><line stroke="black" stroke-width="2" transform="rotate(290,164.5,54.5)" x1="141" x2="188" y1="31" y2="78" /><circle cx="42" cy="141" fill="none" r="19.5" stroke="black" stroke-width="2" /><line stroke="black" stroke-width="2" transform="rotate(124,128.0,164.0)" x1="105" x2="151" y1="141" y2="187" /><polygon fill="none" points="22,174 70,174 46.0,126" stroke="black" stroke-width="2" transform="rotate(300,46.0,150.0)" /><circle cx="57" cy="71" fill="none" r="22.0" stroke="black" stroke-width="2" /></g><text font-family="Arial" font-size="14" text-anchor="middle" x="175" y="630">Option 3</text><g transform="translate(100,650)"><line stroke="black" stroke-width="2" transform="rotate(205,80.9,98.9)" x1="48" x2="113.8" y1="66" y2="131.8" /><line stroke="black" stroke-width="2" transform="rotate(348,76.9,131.9)" x1="51" x2="102.8" y1="106" y2="157.8" /><line stroke="black" stroke-width="2" transform="rotate(321,127.2,148.2)" x1="102" x2="152.4" y1="123" y2="173.4" /><line stroke="black" stroke-width="2" transform="rotate(296,173.9,63.9)" x1="141" x2="206.8" y1="31" y2="96.8" /><circle cx="42" cy="141" fill="none" r="27.299999999999997" stroke="black" stroke-width="2" /><line stroke="black" stroke-width="2" transform="rotate(127,137.2,173.2)" x1="105" x2="169.39999999999998" y1="141" y2="205.39999999999998" /><polygon fill="none" points="22,199.92 89.19999999999999,199.92 55.599999999999994,126" stroke="black" stroke-width="2" transform="rotate(307,55.599999999999994,162.95999999999998)" /><circle cx="57" cy="71" fill="none" r="30.799999999999997" stroke="black" stroke-width="2" /></g><text font-family="Arial" font-size="14" text-anchor="middle" x="425" y="630">Option 4</text><g transform="translate(350,650)"><line stroke="black" stroke-width="2" transform="rotate(203,80.9,98.9)" x1="48" x2="113.8" y1="66" y2="131.8" /><line stroke="black" stroke-width="2" transform="rotate(349,76.9,131.9)" x1="51" x2="102.8" y1="106" y2="157.8" /><line stroke="black" stroke-width="2" transform="rotate(323,127.2,148.2)" x1="102" x2="152.4" y1="123" y2="173.4" /><line stroke="black" stroke-width="2" transform="rotate(293,173.9,63.9)" x1="141" x2="206.8" y1="31" y2="96.8" /><circle cx="42" cy="141" fill="none" r="27.299999999999997" stroke="black" stroke-width="2" /><line stroke="black" stroke-width="2" transform="rotate(129,137.2,173.2)" x1="105" x2="169.39999999999998" y1="141" y2="205.39999999999998" /><polygon fill="none" points="22,199.92 89.19999999999999,199.92 55.599999999999994,126" stroke="black" stroke-width="2" transform="rotate(304,55.599999999999994,162.95999999999998)" /><circle cx="57" cy="71" fill="none" r="30.799999999999997" stroke="black" stroke-width="2" /></g></svg>