<?xml version="1.0" encoding="utf-8" ?>
<svg baseProfile="full" height="1000px" version="1.1" width="600px" xmlns="http://www.w3.org/2000/svg" xmlns:ev="http://www.w3.org/2001/xml-events" xmlns:xlink="http://www.w3.org/1999/xlink"><defs /><rect fill="white" height="100%" width="100%" x="0" y="0" /><text font-family="Arial" font-size="24" text-anchor="middle" x="300" y="40">Visual Discrimination Test</text><text font-family="Arial" font-size="18" text-anchor="middle" x="300" y="80">Target Pattern</text><g transform="translate(200,100)"><polygon fill="none" points="47,59 96,59 71.5,10" stroke="black" stroke-width="2" transform="rotate(40,71.5,34.5)" /><line stroke="black" stroke-width="2" transform="rotate(355,157.0,48.0)" x1="140" x2="174" y1="31" y2="65" /><line stroke="black" stroke-width="2" transform="rotate(200,69.0,102.0)" x1="50" x2="88" y1="83" y2="121" /><polygon fill="none" points="89,59 130,59 109.5,18" stroke="black" stroke-width="2" transform="rotate(298,109.5,38.5)" /><circle cx="44" cy="41" fill="none" r="23.0" stroke="black" stroke-width="2" /><polygon fill="none" points="144,164 175,164 159.5,133" stroke="black" stroke-width="2" transform="rotate(28,159.5,148.5)" /><circle cx="44" cy="116" fill="none" r="17.0" stroke="black" stroke-width="2" /><polygon fill="none" points="25,151 75,151 50.0,101" stroke="black" stroke-width="2" transform="rotate(321,50.0,126.0)" /><rect fill="none" height="38" stroke="black" stroke-width="2" transform="rotate(31,158.0,119.0)" width="38" x="139" y="100" /><line stroke="black" stroke-width="2" transform="rotate(133,33.0,65.0)" x1="17" x2="49" y1="49" y2="81" /></g><text font-family="Arial" font-size="18" text-anchor="middle" x="300" y="350">Options</text><text font-family="Arial" font-size="14" text-anchor="middle" x="175" y="380">Option 1</text><g transform="translate(100,400)"><polygon fill="none" points="47,85.46 115.6,85.46 81.3,10" stroke="black" stroke-width="2" transform="rotate(46,81.3,47.73)" /><line stroke="black" stroke-width="2" transform="rotate(360,163.8,54.8)" x1="140" x2="187.6" y1="31" y2="78.6" /><line stroke="black" stroke-width="2" transform="rotate(205,76.6,109.6)" x1="50" x2="103.19999999999999" y1="83" y2="136.2" /><polygon fill="none" points="89,81.14 146.4,81.14 117.7,18" stroke="black" stroke-width="2" transform="rotate(302,117.7,49.57)" /><circle cx="44" cy="41" fill="none" r="32.199999999999996" stroke="black" stroke-width="2" /><polygon fill="none" points="144,180.74 187.4,180.74 165.7,133" stroke="black" stroke-width="2" transform="rotate(35,165.7,156.87)" /><circle cx="44" cy="116" fill="none" r="23.799999999999997" stroke="black" stroke-width="2" /><polygon fill="none" points="25,178.0 95.0,178.0 60.0,101" stroke="black" stroke-width="2" transform="rotate(325,60.0,139.5)" /><rect fill="none" height="58.52" stroke="black" stroke-width="2" transform="rotate(38,165.6,129.26)" width="53.199999999999996" x="139" y="100" /><line stroke="black" stroke-width="2" transform="rotate(140,39.4,71.4)" x1="17" x2="61.8" y1="49" y2="93.8" /></g><text font-family="Arial" font-size="14" text-anchor="middle" x="425" y="380">Option 2</text><g transform="translate(350,400)"><polygon fill="none" points="47,59 96,59 71.5,10" stroke="black" stroke-width="2" transform="rotate(40,71.5,34.5)" /><line stroke="black" stroke-width="2" transform="rotate(355,157.0,48.0)" x1="140" x2="174" y1="31" y2="65" /><line stroke="black" stroke-width="2" transform="rotate(200,69.0,102.0)" x1="50" x2="88" y1="83" y2="121" /><polygon fill="none" points="89,59 130,59 109.5,18" stroke="black" stroke-width="2" transform="rotate(298,109.5,38.5)" /><circle cx="44" cy="41" fill="none" r="23.0" stroke="black" stroke-width="2" /><polygon fill="none" points="144,164 175,164 159.5,133" stroke="black" stroke-width="2" transform="rotate(28,159.5,148.5)" /><circle cx="44" cy="116" fill="none" r="17.0" stroke="black" stroke-width="2" /><polygon fill="none" points="25,151 75,151 50.0,101" stroke="black" stroke-width="2" transform="rotate(321,50.0,126.0)" /><rect fill="none" height="38" stroke="black" stroke-width="2" transform="rotate(31,158.0,119.0)" width="38" x="139" y="100" /><line stroke="black" stroke-width="2" transform="rotate(133,33.0,65.0)" x1="17" x2="49" y1="49" y2="81" /></g><text font-family="Arial" font-size="14" text-anchor="middle" x="175" y="630">Option 3</text><g transform="translate(100,650)"><polygon fill="none" points="47,85.46 115.6,85.46 81.3,10" stroke="black" stroke-width="2" transform="rotate(45,81.3,47.73)" /><line stroke="black" stroke-width="2" transform="rotate(360,163.8,54.8)" x1="140" x2="187.6" y1="31" y2="78.6" /><line stroke="black" stroke-width="2" transform="rotate(207,76.6,109.6)" x1="50" x2="103.19999999999999" y1="83" y2="136.2" /><polygon fill="none" points="89,81.14 146.4,81.14 117.7,18" stroke="black" stroke-width="2" transform="rotate(305,117.7,49.57)" /><circle cx="44" cy="41" fill="none" r="32.199999999999996" stroke="black" stroke-width="2" /><polygon fill="none" points="144,180.74 187.4,180.74 165.7,133" stroke="black" stroke-width="2" transform="rotate(35,165.7,156.87)" /><circle cx="44" cy="116" fill="none" r="23.799999999999997" stroke="black" stroke-width="2" /><polygon fill="none" points="25,178.0 95.0,178.0 60.0,101" stroke="black" stroke-width="2" transform="rotate(324,60.0,139.5)" /><rect fill="none" height="58.52" stroke="black" stroke-width="2" transform="rotate(37,165.6,129.26)" width="53.199999999999996" x="139" y="100" /><line stroke="black" stroke-width="2" transform="rotate(139,39.4,71.4)" x1="17" x2="61.8" y1="49" y2="93.8" /></g><text font-family="Arial" font-size="14" text-anchor="middle" x="425" y="630">Option 4</text><g transform="translate(350,650)"><polygon fill="none" points="47,85.46 115.6,85.46 81.3,10" stroke="black" stroke-width="2" transform="rotate(45,81.3,47.73)" /><line stroke="black" stroke-width="2" transform="rotate(361,163.8,54.8)" x1="140" x2="187.6" y1="31" y2="78.6" /><line stroke="black" stroke-width="2" transform="rotate(204,76.6,109.6)" x1="50" x2="103.19999999999999" y1="83" y2="136.2" /><polygon fill="none" points="89,81.14 146.4,81.14 117.7,18" stroke="black" stroke-width="2" transform="rotate(302,117.7,49.57)" /><circle cx="44" cy="41" fill="none" r="32.199999999999996" stroke="black" stroke-width="2" /><polygon fill="none" points="144,180.74 187.4,180.74 165.7,133" stroke="black" stroke-width="2" transform="rotate(34,165.7,156.87)" /><circle cx="44" cy="116" fill="none" r="23.799999999999997" stroke="black" stroke-width="2" /><polygon fill="none" points="25,178.0 95.0,178.0 60.0,101" stroke="black" stroke-width="2" transform="rotate(326,60.0,139.5)" /><rect fill="none" height="58.52" stroke="black" stroke-width="2" transform="rotate(34,165.6,129.26)" width="53.199999999999996" x="139" y="100" /><line stroke="black" stroke-width="2" transform="rotate(137,39.4,71.4)" x1="17" x2="61.8" y1="49" y2="93.8" /></g></svg>