<?xml version="1.0" encoding="utf-8" ?>
<svg baseProfile="full" height="1000px" version="1.1" width="600px" xmlns="http://www.w3.org/2000/svg" xmlns:ev="http://www.w3.org/2001/xml-events" xmlns:xlink="http://www.w3.org/1999/xlink"><defs /><rect fill="white" height="100%" width="100%" x="0" y="0" /><text font-family="Arial" font-size="24" text-anchor="middle" x="300" y="40">Visual Discrimination Test</text><text font-family="Arial" font-size="18" text-anchor="middle" x="300" y="80">Target Pattern</text><g transform="translate(200,100)"><circle cx="30" cy="101" fill="none" r="21.0" stroke="black" stroke-width="2" /><polygon fill="none" points="102,129 147,129 124.5,84" stroke="black" stroke-width="2" transform="rotate(340,124.5,106.5)" /><polygon fill="none" points="68,78 116,78 92.0,30" stroke="black" stroke-width="2" transform="rotate(130,92.0,54.0)" /><polygon fill="none" points="119,170 164,170 141.5,125" stroke="black" stroke-width="2" transform="rotate(346,141.5,147.5)" /><rect fill="none" height="45" stroke="black" stroke-width="2" transform="rotate(140,40.5,56.5)" width="45" x="18" y="34" /><polygon fill="none" points="139,67 180,67 159.5,26" stroke="black" stroke-width="2" transform="rotate(309,159.5,46.5)" /><circle cx="134" cy="34" fill="none" r="23.5" stroke="black" stroke-width="2" /><line stroke="black" stroke-width="2" transform="rotate(241,49.0,158.0)" x1="33" x2="65" y1="142" y2="174" /></g><text font-family="Arial" font-size="18" text-anchor="middle" x="300" y="350">Options</text><text font-family="Arial" font-size="14" text-anchor="middle" x="175" y="380">Option 1</text><g transform="translate(100,400)"><circle cx="30" cy="101" fill="none" r="29.4" stroke="black" stroke-width="2" /><polygon fill="none" points="102,153.3 165.0,153.3 133.5,84" stroke="black" stroke-width="2" transform="rotate(344,133.5,118.65)" /><polygon fill="none" points="68,103.91999999999999 135.2,103.91999999999999 101.6,30" stroke="black" stroke-width="2" transform="rotate(135,101.6,66.96)" /><polygon fill="none" points="119,194.3 182.0,194.3 150.5,125" stroke="black" stroke-width="2" transform="rotate(351,150.5,159.65)" /><rect fill="none" height="69.3" stroke="black" stroke-width="2" transform="rotate(147,49.5,68.65)" width="62.99999999999999" x="18" y="34" /><polygon fill="none" points="139,89.14 196.4,89.14 167.7,26" stroke="black" stroke-width="2" transform="rotate(314,167.7,57.57)" /><circle cx="134" cy="34" fill="none" r="32.9" stroke="black" stroke-width="2" /><line stroke="black" stroke-width="2" transform="rotate(244,55.4,164.4)" x1="33" x2="77.8" y1="142" y2="186.8" /></g><text font-family="Arial" font-size="14" text-anchor="middle" x="425" y="380">Option 2</text><g transform="translate(350,400)"><circle cx="30" cy="101" fill="none" r="29.4" stroke="black" stroke-width="2" /><polygon fill="none" points="102,153.3 165.0,153.3 133.5,84" stroke="black" stroke-width="2" transform="rotate(343,133.5,118.65)" /><polygon fill="none" points="68,103.91999999999999 135.2,103.91999999999999 101.6,30" stroke="black" stroke-width="2" transform="rotate(133,101.6,66.96)" /><polygon fill="none" points="119,194.3 182.0,194.3 150.5,125" stroke="black" stroke-width="2" transform="rotate(353,150.5,159.65)" /><rect fill="none" height="69.3" stroke="black" stroke-width="2" transform="rotate(145,49.5,68.65)" width="62.99999999999999" x="18" y="34" /><polygon fill="none" points="139,89.14 196.4,89.14 167.7,26" stroke="black" stroke-width="2" transform="rotate(312,167.7,57.57)" /><circle cx="134" cy="34" fill="none" r="32.9" stroke="black" stroke-width="2" /><line stroke="black" stroke-width="2" transform="rotate(247,55.4,164.4)" x1="33" x2="77.8" y1="142" y2="186.8" /></g><text font-family="Arial" font-size="14" text-anchor="middle" x="175" y="630">Option 3</text><g transform="translate(100,650)"><circle cx="30" cy="101" fill="none" r="29.4" stroke="black" stroke-width="2" /><polygon fill="none" points="102,153.3 165.0,153.3 133.5,84" stroke="black" stroke-width="2" transform="rotate(344,133.5,118.65)" /><polygon fill="none" points="68,103.91999999999999 135.2,103.91999999999999 101.6,30" stroke="black" stroke-width="2" transform="rotate(133,101.6,66.96)" /><polygon fill="none" points="119,194.3 182.0,194.3 150.5,125" stroke="black" stroke-width="2" transform="rotate(351,150.5,159.65)" /><rect fill="none" height="69.3" stroke="black" stroke-width="2" transform="rotate(147,49.5,68.65)" width="62.99999999999999" x="18" y="34" /><polygon fill="none" points="139,89.14 196.4,89.14 167.7,26" stroke="black" stroke-width="2" transform="rotate(315,167.7,57.57)" /><circle cx="134" cy="34" fill="none" r="32.9" stroke="black" stroke-width="2" /><line stroke="black" stroke-width="2" transform="rotate(245,55.4,164.4)" x1="33" x2="77.8" y1="142" y2="186.8" /></g><text font-family="Arial" font-size="14" text-anchor="middle" x="425" y="630">Option 4</text><g transform="translate(350,650)"><circle cx="30" cy="101" fill="none" r="21.0" stroke="black" stroke-width="2" /><polygon fill="none" points="102,129 147,129 124.5,84" stroke="black" stroke-width="2" transform="rotate(340,124.5,106.5)" /><polygon fill="none" points="68,78 116,78 92.0,30" stroke="black" stroke-width="2" transform="rotate(130,92.0,54.0)" /><polygon fill="none" points="119,170 164,170 141.5,125" stroke="black" stroke-width="2" transform="rotate(346,141.5,147.5)" /><rect fill="none" height="45" stroke="black" stroke-width="2" transform="rotate(140,40.5,56.5)" width="45" x="18" y="34" /><polygon fill="none" points="139,67 180,67 159.5,26" stroke="black" stroke-width="2" transform="rotate(309,159.5,46.5)" /><circle cx="134" cy="34" fill="none" r="23.5" stroke="black" stroke-width="2" /><line stroke="black" stroke-width="2" transform="rotate(241,49.0,158.0)" x1="33" x2="65" y1="142" y2="174" /></g></svg>