<?xml version="1.0" encoding="utf-8" ?>
<svg baseProfile="full" height="1000px" version="1.1" width="600px" xmlns="http://www.w3.org/2000/svg" xmlns:ev="http://www.w3.org/2001/xml-events" xmlns:xlink="http://www.w3.org/1999/xlink"><defs /><rect fill="white" height="100%" width="100%" x="0" y="0" /><text font-family="Arial" font-size="24" text-anchor="middle" x="300" y="40">Visual Discrimination Test</text><text font-family="Arial" font-size="18" text-anchor="middle" x="300" y="80">Target Pattern</text><g transform="translate(200,100)"><circle cx="69" cy="38" fill="none" r="17.0" stroke="black" stroke-width="2" /><polygon fill="none" points="76,133 116,133 96.0,93" stroke="black" stroke-width="2" transform="rotate(290,96.0,113.0)" /></g><text font-family="Arial" font-size="18" text-anchor="middle" x="300" y="350">Options</text><text font-family="Arial" font-size="14" text-anchor="middle" x="175" y="380">Option 1</text><g transform="translate(100,400)"><circle cx="69" cy="38" fill="none" r="23.799999999999997" stroke="black" stroke-width="2" /><polygon fill="none" points="76,154.60000000000002 132.0,154.60000000000002 104.0,93" stroke="black" stroke-width="2" transform="rotate(297,104.0,123.80000000000001)" /></g><text font-family="Arial" font-size="14" text-anchor="middle" x="425" y="380">Option 2</text><g transform="translate(350,400)"><circle cx="69" cy="38" fill="none" r="17.0" stroke="black" stroke-width="2" /><polygon fill="none" points="76,133 116,133 96.0,93" stroke="black" stroke-width="2" transform="rotate(290,96.0,113.0)" /></g><text font-family="Arial" font-size="14" text-anchor="middle" x="175" y="630">Option 3</text><g transform="translate(100,650)"><circle cx="69" cy="38" fill="none" r="23.799999999999997" stroke="black" stroke-width="2" /><polygon fill="none" points="76,154.60000000000002 132.0,154.60000000000002 104.0,93" stroke="black" stroke-width="2" transform="rotate(293,104.0,123.80000000000001)" /></g><text font-family="Arial" font-size="14" text-anchor="middle" x="425" y="630">Option 4</text><g transform="translate(350,650)"><circle cx="69" cy="38" fill="none" r="23.799999999999997" stroke="black" stroke-width="2" /><polygon fill="none" points="76,154.60000000000002 132.0,154.60000000000002 104.0,93" stroke="black" stroke-width="2" transform="rotate(294,104.0,123.80000000000001)" /></g></svg>