<?xml version="1.0" encoding="utf-8" ?>
<svg baseProfile="full" height="1000px" version="1.1" width="600px" xmlns="http://www.w3.org/2000/svg" xmlns:ev="http://www.w3.org/2001/xml-events" xmlns:xlink="http://www.w3.org/1999/xlink"><defs /><rect fill="white" height="100%" width="100%" x="0" y="0" /><text font-family="Arial" font-size="24" text-anchor="middle" x="300" y="40">Visual Discrimination Test</text><text font-family="Arial" font-size="18" text-anchor="middle" x="300" y="80">Target Pattern</text><g transform="translate(200,100)"><polygon fill="none" points="130,55 163,55 146.5,22" stroke="black" stroke-width="2" transform="rotate(221,146.5,38.5)" /><rect fill="none" height="41" stroke="black" stroke-width="2" transform="rotate(12,92.5,103.5)" width="41" x="72" y="83" /><rect fill="none" height="31" stroke="black" stroke-width="2" transform="rotate(119,82.5,123.5)" width="31" x="67" y="108" /></g><text font-family="Arial" font-size="18" text-anchor="middle" x="300" y="350">Options</text><text font-family="Arial" font-size="14" text-anchor="middle" x="175" y="380">Option 1</text><g transform="translate(100,400)"><rect fill="none" height="50.82" stroke="black" stroke-width="2" transform="rotate(228,153.1,47.41)" width="46.199999999999996" x="130" y="22" /><rect fill="none" height="63.14" stroke="black" stroke-width="2" transform="rotate(19,100.7,114.57)" width="57.4" x="72" y="83" /><rect fill="none" height="47.74" stroke="black" stroke-width="2" transform="rotate(122,88.7,131.87)" width="43.4" x="67" y="108" /></g><text font-family="Arial" font-size="14" text-anchor="middle" x="425" y="380">Option 2</text><g transform="translate(350,400)"><rect fill="none" height="50.82" stroke="black" stroke-width="2" transform="rotate(228,153.1,47.41)" width="46.199999999999996" x="130" y="22" /><polygon fill="none" points="72,146.14 129.4,146.14 100.7,83" stroke="black" stroke-width="2" transform="rotate(15,100.7,114.57)" /><polygon fill="none" points="67,155.74 110.4,155.74 88.7,108" stroke="black" stroke-width="2" transform="rotate(124,88.7,131.87)" /></g><text font-family="Arial" font-size="14" text-anchor="middle" x="175" y="630">Option 3</text><g transform="translate(100,650)"><polygon fill="none" points="130,55 163,55 146.5,22" stroke="black" stroke-width="2" transform="rotate(221,146.5,38.5)" /><rect fill="none" height="41" stroke="black" stroke-width="2" transform="rotate(12,92.5,103.5)" width="41" x="72" y="83" /><rect fill="none" height="31" stroke="black" stroke-width="2" transform="rotate(119,82.5,123.5)" width="31" x="67" y="108" /></g><text font-family="Arial" font-size="14" text-anchor="middle" x="425" y="630">Option 4</text><g transform="translate(350,650)"><rect fill="none" height="50.82" stroke="black" stroke-width="2" transform="rotate(228,153.1,47.41)" width="46.199999999999996" x="130" y="22" /><rect fill="none" height="63.14" stroke="black" stroke-width="2" transform="rotate(17,100.7,114.57)" width="57.4" x="72" y="83" /><line stroke="black" stroke-width="2" transform="rotate(125,88.7,129.7)" x1="67" x2="110.4" y1="108" y2="151.4" /></g></svg>