<?xml version="1.0" encoding="utf-8" ?>
<svg baseProfile="full" height="1000px" version="1.1" width="600px" xmlns="http://www.w3.org/2000/svg" xmlns:ev="http://www.w3.org/2001/xml-events" xmlns:xlink="http://www.w3.org/1999/xlink"><defs /><rect fill="white" height="100%" width="100%" x="0" y="0" /><text font-family="Arial" font-size="24" text-anchor="middle" x="300" y="40">Visual Discrimination Test</text><text font-family="Arial" font-size="18" text-anchor="middle" x="300" y="80">Target Pattern</text><g transform="translate(200,100)"><polygon fill="none" points="80,171 112,171 96.0,139" stroke="black" stroke-width="2" transform="rotate(96,96.0,155.0)" /><circle cx="67" cy="63" fill="none" r="20.5" stroke="black" stroke-width="2" /></g><text font-family="Arial" font-size="18" text-anchor="middle" x="300" y="350">Options</text><text font-family="Arial" font-size="14" text-anchor="middle" x="175" y="380">Option 1</text><g transform="translate(100,400)"><polygon fill="none" points="80,188.28 124.8,188.28 102.4,139" stroke="black" stroke-width="2" transform="rotate(102,102.4,163.64)" /><rect fill="none" height="63.14" stroke="black" stroke-width="2" transform="rotate(269,95.7,94.57)" width="57.4" x="67" y="63" /></g><text font-family="Arial" font-size="14" text-anchor="middle" x="425" y="380">Option 2</text><g transform="translate(350,400)"><polygon fill="none" points="80,171 112,171 96.0,139" stroke="black" stroke-width="2" transform="rotate(96,96.0,155.0)" /><circle cx="67" cy="63" fill="none" r="20.5" stroke="black" stroke-width="2" /></g><text font-family="Arial" font-size="14" text-anchor="middle" x="175" y="630">Option 3</text><g transform="translate(100,650)"><polygon fill="none" points="80,188.28 124.8,188.28 102.4,139" stroke="black" stroke-width="2" transform="rotate(103,102.4,163.64)" /><rect fill="none" height="63.14" stroke="black" stroke-width="2" transform="rotate(267,95.7,94.57)" width="57.4" x="67" y="63" /></g><text font-family="Arial" font-size="14" text-anchor="middle" x="425" y="630">Option 4</text><g transform="translate(350,650)"><line stroke="black" stroke-width="2" transform="rotate(102,102.4,161.4)" x1="80" x2="124.8" y1="139" y2="183.8" /><line stroke="black" stroke-width="2" transform="rotate(267,95.7,91.7)" x1="67" x2="124.4" y1="63" y2="120.4" /></g></svg>