<?xml version="1.0" encoding="utf-8" ?>
<svg baseProfile="full" height="1000px" version="1.1" width="600px" xmlns="http://www.w3.org/2000/svg" xmlns:ev="http://www.w3.org/2001/xml-events" xmlns:xlink="http://www.w3.org/1999/xlink"><defs /><rect fill="white" height="100%" width="100%" x="0" y="0" /><text font-family="Arial" font-size="24" text-anchor="middle" x="300" y="40">Visual Discrimination Test</text><text font-family="Arial" font-size="18" text-anchor="middle" x="300" y="80">Target Pattern</text><g transform="translate(200,100)"><polygon fill="none" points="45,158 94,158 69.5,109" stroke="black" stroke-width="2" transform="rotate(305,69.5,133.5)" /><rect fill="none" height="34" stroke="black" stroke-width="2" transform="rotate(353,102.0,65.0)" width="34" x="85" y="48" /><rect fill="none" height="37" stroke="black" stroke-width="2" transform="rotate(80,54.5,35.5)" width="37" x="36" y="17" /><polygon fill="none" points="30,139 80,139 55.0,89" stroke="black" stroke-width="2" transform="rotate(297,55.0,114.0)" /></g><text font-family="Arial" font-size="18" text-anchor="middle" x="300" y="350">Options</text><text font-family="Arial" font-size="14" text-anchor="middle" x="175" y="380">Option 1</text><g transform="translate(100,400)"><line stroke="black" stroke-width="2" transform="rotate(311,79.3,143.3)" x1="45" x2="113.6" y1="109" y2="177.6" /><line stroke="black" stroke-width="2" transform="rotate(360,108.8,71.8)" x1="85" x2="132.6" y1="48" y2="95.6" /><rect fill="none" height="56.980000000000004" stroke="black" stroke-width="2" transform="rotate(84,61.9,45.49)" width="51.8" x="36" y="17" /><rect fill="none" height="77.0" stroke="black" stroke-width="2" transform="rotate(300,65.0,127.5)" width="70.0" x="30" y="89" /></g><text font-family="Arial" font-size="14" text-anchor="middle" x="425" y="380">Option 2</text><g transform="translate(350,400)"><polygon fill="none" points="45,184.45999999999998 113.6,184.45999999999998 79.3,109" stroke="black" stroke-width="2" transform="rotate(312,79.3,146.73)" /><rect fill="none" height="52.36" stroke="black" stroke-width="2" transform="rotate(358,108.8,74.18)" width="47.599999999999994" x="85" y="48" /><rect fill="none" height="56.980000000000004" stroke="black" stroke-width="2" transform="rotate(86,61.9,45.49)" width="51.8" x="36" y="17" /><rect fill="none" height="77.0" stroke="black" stroke-width="2" transform="rotate(301,65.0,127.5)" width="70.0" x="30" y="89" /></g><text font-family="Arial" font-size="14" text-anchor="middle" x="175" y="630">Option 3</text><g transform="translate(100,650)"><polygon fill="none" points="45,184.45999999999998 113.6,184.45999999999998 79.3,109" stroke="black" stroke-width="2" transform="rotate(311,79.3,146.73)" /><polygon fill="none" points="85,100.36 132.6,100.36 108.8,48" stroke="black" stroke-width="2" transform="rotate(360,108.8,74.18)" /><rect fill="none" height="56.980000000000004" stroke="black" stroke-width="2" transform="rotate(86,61.9,45.49)" width="51.8" x="36" y="17" /><polygon fill="none" points="30,166.0 100.0,166.0 65.0,89" stroke="black" stroke-width="2" transform="rotate(303,65.0,127.5)" /></g><text font-family="Arial" font-size="14" text-anchor="middle" x="425" y="630">Option 4</text><g transform="translate(350,650)"><polygon fill="none" points="45,158 94,158 69.5,109" stroke="black" stroke-width="2" transform="rotate(305,69.5,133.5)" /><rect fill="none" height="34" stroke="black" stroke-width="2" transform="rotate(353,102.0,65.0)" width="34" x="85" y="48" /><rect fill="none" height="37" stroke="black" stroke-width="2" transform="rotate(80,54.5,35.5)" width="37" x="36" y="17" /><polygon fill="none" points="30,139 80,139 55.0,89" stroke="black" stroke-width="2" transform="rotate(297,55.0,114.0)" /></g></svg>