<?xml version="1.0" encoding="utf-8" ?>
<svg baseProfile="full" height="1000px" version="1.1" width="600px" xmlns="http://www.w3.org/2000/svg" xmlns:ev="http://www.w3.org/2001/xml-events" xmlns:xlink="http://www.w3.org/1999/xlink"><defs /><rect fill="white" height="100%" width="100%" x="0" y="0" /><text font-family="Arial" font-size="24" text-anchor="middle" x="300" y="40">Visual Discrimination Test</text><text font-family="Arial" font-size="18" text-anchor="middle" x="300" y="80">Target Pattern</text><g transform="translate(200,100)"><line stroke="black" stroke-width="2" transform="rotate(265,37.5,145.5)" x1="22" x2="53" y1="130" y2="161" /><circle cx="41" cy="76" fill="none" r="19.0" stroke="black" stroke-width="2" /><polygon fill="none" points="67,142 114,142 90.5,95" stroke="black" stroke-width="2" transform="rotate(305,90.5,118.5)" /><circle cx="76" cy="148" fill="none" r="18.5" stroke="black" stroke-width="2" /><rect fill="none" height="49" stroke="black" stroke-width="2" transform="rotate(213,101.5,55.5)" width="49" x="77" y="31" /><circle cx="110" cy="34" fill="none" r="20.5" stroke="black" stroke-width="2" /><line stroke="black" stroke-width="2" transform="rotate(303,44.0,146.0)" x1="21" x2="67" y1="123" y2="169" /></g><text font-family="Arial" font-size="18" text-anchor="middle" x="300" y="350">Options</text><text font-family="Arial" font-size="14" text-anchor="middle" x="175" y="380">Option 1</text><g transform="translate(100,400)"><polygon fill="none" points="22,177.74 65.4,177.74 43.7,130" stroke="black" stroke-width="2" transform="rotate(272,43.7,153.87)" /><line stroke="black" stroke-width="2" transform="rotate(155,67.6,102.6)" x1="41" x2="94.19999999999999" y1="76" y2="129.2" /><polygon fill="none" points="67,167.38 132.8,167.38 99.9,95" stroke="black" stroke-width="2" transform="rotate(308,99.9,131.19)" /><rect fill="none" height="56.980000000000004" stroke="black" stroke-width="2" transform="rotate(303,101.9,176.49)" width="51.8" x="76" y="148" /><line stroke="black" stroke-width="2" transform="rotate(219,111.3,65.3)" x1="77" x2="145.6" y1="31" y2="99.6" /><line stroke="black" stroke-width="2" transform="rotate(353,138.7,62.7)" x1="110" x2="167.4" y1="34" y2="91.4" /><polygon fill="none" points="21,193.84 85.39999999999999,193.84 53.199999999999996,123" stroke="black" stroke-width="2" transform="rotate(309,53.199999999999996,158.42000000000002)" /></g><text font-family="Arial" font-size="14" text-anchor="middle" x="425" y="380">Option 2</text><g transform="translate(350,400)"><line stroke="black" stroke-width="2" transform="rotate(269,43.7,151.7)" x1="22" x2="65.4" y1="130" y2="173.4" /><rect fill="none" height="58.52" stroke="black" stroke-width="2" transform="rotate(153,67.6,105.26)" width="53.199999999999996" x="41" y="76" /><line stroke="black" stroke-width="2" transform="rotate(310,99.9,127.9)" x1="67" x2="132.8" y1="95" y2="160.8" /><polygon fill="none" points="76,204.98000000000002 127.8,204.98000000000002 101.9,148" stroke="black" stroke-width="2" transform="rotate(305,101.9,176.49)" /><rect fill="none" height="75.46" stroke="black" stroke-width="2" transform="rotate(220,111.3,68.72999999999999)" width="68.6" x="77" y="31" /><line stroke="black" stroke-width="2" transform="rotate(354,138.7,62.7)" x1="110" x2="167.4" y1="34" y2="91.4" /><rect fill="none" height="70.84" stroke="black" stroke-width="2" transform="rotate(307,53.199999999999996,158.42000000000002)" width="64.39999999999999" x="21" y="123" /></g><text font-family="Arial" font-size="14" text-anchor="middle" x="175" y="630">Option 3</text><g transform="translate(100,650)"><line stroke="black" stroke-width="2" transform="rotate(271,43.7,151.7)" x1="22" x2="65.4" y1="130" y2="173.4" /><polygon fill="none" points="41,134.52 94.19999999999999,134.52 67.6,76" stroke="black" stroke-width="2" transform="rotate(154,67.6,105.26)" /><polygon fill="none" points="67,167.38 132.8,167.38 99.9,95" stroke="black" stroke-width="2" transform="rotate(308,99.9,131.19)" /><line stroke="black" stroke-width="2" transform="rotate(305,101.9,173.9)" x1="76" x2="127.8" y1="148" y2="199.8" /><rect fill="none" height="75.46" stroke="black" stroke-width="2" transform="rotate(216,111.3,68.72999999999999)" width="68.6" x="77" y="31" /><polygon fill="none" points="110,97.14 167.4,97.14 138.7,34" stroke="black" stroke-width="2" transform="rotate(353,138.7,65.57)" /><polygon fill="none" points="21,193.84 85.39999999999999,193.84 53.199999999999996,123" stroke="black" stroke-width="2" transform="rotate(307,53.199999999999996,158.42000000000002)" /></g><text font-family="Arial" font-size="14" text-anchor="middle" x="425" y="630">Option 4</text><g transform="translate(350,650)"><line stroke="black" stroke-width="2" transform="rotate(265,37.5,145.5)" x1="22" x2="53" y1="130" y2="161" /><circle cx="41" cy="76" fill="none" r="19.0" stroke="black" stroke-width="2" /><polygon fill="none" points="67,142 114,142 90.5,95" stroke="black" stroke-width="2" transform="rotate(305,90.5,118.5)" /><circle cx="76" cy="148" fill="none" r="18.5" stroke="black" stroke-width="2" /><rect fill="none" height="49" stroke="black" stroke-width="2" transform="rotate(213,101.5,55.5)" width="49" x="77" y="31" /><circle cx="110" cy="34" fill="none" r="20.5" stroke="black" stroke-width="2" /><line stroke="black" stroke-width="2" transform="rotate(303,44.0,146.0)" x1="21" x2="67" y1="123" y2="169" /></g></svg>