<?xml version="1.0" encoding="utf-8" ?>
<svg baseProfile="full" height="1000px" version="1.1" width="600px" xmlns="http://www.w3.org/2000/svg" xmlns:ev="http://www.w3.org/2001/xml-events" xmlns:xlink="http://www.w3.org/1999/xlink"><defs /><rect fill="white" height="100%" width="100%" x="0" y="0" /><text font-family="Arial" font-size="24" text-anchor="middle" x="300" y="40">Visual Discrimination Test</text><text font-family="Arial" font-size="18" text-anchor="middle" x="300" y="80">Target Pattern</text><g transform="translate(200,100)"><line stroke="black" stroke-width="2" transform="rotate(263,87.0,73.0)" x1="71" x2="103" y1="57" y2="89" /><circle cx="87" cy="21" fill="none" r="18.0" stroke="black" stroke-width="2" /><line stroke="black" stroke-width="2" transform="rotate(214,136.0,112.0)" x1="117" x2="155" y1="93" y2="131" /><circle cx="116" cy="75" fill="none" r="20.0" stroke="black" stroke-width="2" /><polygon fill="none" points="38,100 70,100 54.0,68" stroke="black" stroke-width="2" transform="rotate(96,54.0,84.0)" /><circle cx="24" cy="124" fill="none" r="22.0" stroke="black" stroke-width="2" /><polygon fill="none" points="67,76 117,76 92.0,26" stroke="black" stroke-width="2" transform="rotate(351,92.0,51.0)" /><rect fill="none" height="42" stroke="black" stroke-width="2" transform="rotate(256,42.0,149.0)" width="42" x="21" y="128" /><polygon fill="none" points="123,84 154,84 138.5,53" stroke="black" stroke-width="2" transform="rotate(196,138.5,68.5)" /></g><text font-family="Arial" font-size="18" text-anchor="middle" x="300" y="350">Options</text><text font-family="Arial" font-size="14" text-anchor="middle" x="175" y="380">Option 1</text><g transform="translate(100,400)"><polygon fill="none" points="71,106.28 115.8,106.28 93.4,57" stroke="black" stroke-width="2" transform="rotate(266,93.4,81.64)" /><line stroke="black" stroke-width="2" transform="rotate(287,112.2,46.2)" x1="87" x2="137.4" y1="21" y2="71.4" /><rect fill="none" height="58.52" stroke="black" stroke-width="2" transform="rotate(217,143.6,122.26)" width="53.199999999999996" x="117" y="93" /><line stroke="black" stroke-width="2" transform="rotate(19,144.0,103.0)" x1="116" x2="172.0" y1="75" y2="131.0" /><line stroke="black" stroke-width="2" transform="rotate(99,60.4,90.4)" x1="38" x2="82.8" y1="68" y2="112.8" /><polygon fill="none" points="24,191.76 85.6,191.76 54.8,124" stroke="black" stroke-width="2" transform="rotate(61,54.8,157.88)" /><line stroke="black" stroke-width="2" transform="rotate(358,102.0,61.0)" x1="67" x2="137.0" y1="26" y2="96.0" /><polygon fill="none" points="21,192.68 79.8,192.68 50.4,128" stroke="black" stroke-width="2" transform="rotate(261,50.4,160.34)" /><line stroke="black" stroke-width="2" transform="rotate(200,144.7,74.7)" x1="123" x2="166.4" y1="53" y2="96.4" /></g><text font-family="Arial" font-size="14" text-anchor="middle" x="425" y="380">Option 2</text><g transform="translate(350,400)"><line stroke="black" stroke-width="2" transform="rotate(263,87.0,73.0)" x1="71" x2="103" y1="57" y2="89" /><circle cx="87" cy="21" fill="none" r="18.0" stroke="black" stroke-width="2" /><line stroke="black" stroke-width="2" transform="rotate(214,136.0,112.0)" x1="117" x2="155" y1="93" y2="131" /><circle cx="116" cy="75" fill="none" r="20.0" stroke="black" stroke-width="2" /><polygon fill="none" points="38,100 70,100 54.0,68" stroke="black" stroke-width="2" transform="rotate(96,54.0,84.0)" /><circle cx="24" cy="124" fill="none" r="22.0" stroke="black" stroke-width="2" /><polygon fill="none" points="67,76 117,76 92.0,26" stroke="black" stroke-width="2" transform="rotate(351,92.0,51.0)" /><rect fill="none" height="42" stroke="black" stroke-width="2" transform="rotate(256,42.0,149.0)" width="42" x="21" y="128" /><polygon fill="none" points="123,84 154,84 138.5,53" stroke="black" stroke-width="2" transform="rotate(196,138.5,68.5)" /></g><text font-family="Arial" font-size="14" text-anchor="middle" x="175" y="630">Option 3</text><g transform="translate(100,650)"><rect fill="none" height="49.28" stroke="black" stroke-width="2" transform="rotate(268,93.4,81.64)" width="44.8" x="71" y="57" /><polygon fill="none" points="87,76.44 137.4,76.44 112.2,21" stroke="black" stroke-width="2" transform="rotate(287,112.2,48.72)" /><rect fill="none" height="58.52" stroke="black" stroke-width="2" transform="rotate(218,143.6,122.26)" width="53.199999999999996" x="117" y="93" /><polygon fill="none" points="116,136.60000000000002 172.0,136.60000000000002 144.0,75" stroke="black" stroke-width="2" transform="rotate(19,144.0,105.80000000000001)" /><polygon fill="none" points="38,117.28 82.8,117.28 60.4,68" stroke="black" stroke-width="2" transform="rotate(99,60.4,92.64)" /><rect fill="none" height="67.76" stroke="black" stroke-width="2" transform="rotate(62,54.8,157.88)" width="61.599999999999994" x="24" y="124" /><line stroke="black" stroke-width="2" transform="rotate(358,102.0,61.0)" x1="67" x2="137.0" y1="26" y2="96.0" /><polygon fill="none" points="21,192.68 79.8,192.68 50.4,128" stroke="black" stroke-width="2" transform="rotate(262,50.4,160.34)" /><polygon fill="none" points="123,100.74000000000001 166.4,100.74000000000001 144.7,53" stroke="black" stroke-width="2" transform="rotate(200,144.7,76.87)" /></g><text font-family="Arial" font-size="14" text-anchor="middle" x="425" y="630">Option 4</text><g transform="translate(350,650)"><rect fill="none" height="49.28" stroke="black" stroke-width="2" transform="rotate(267,93.4,81.64)" width="44.8" x="71" y="57" /><rect fill="none" height="55.440000000000005" stroke="black" stroke-width="2" transform="rotate(287,112.2,48.72)" width="50.4" x="87" y="21" /><polygon fill="none" points="117,151.52 170.2,151.52 143.6,93" stroke="black" stroke-width="2" transform="rotate(217,143.6,122.26)" /><line stroke="black" stroke-width="2" transform="rotate(19,144.0,103.0)" x1="116" x2="172.0" y1="75" y2="131.0" /><rect fill="none" height="49.28" stroke="black" stroke-width="2" transform="rotate(99,60.4,92.64)" width="44.8" x="38" y="68" /><line stroke="black" stroke-width="2" transform="rotate(64,54.8,154.8)" x1="24" x2="85.6" y1="124" y2="185.6" /><rect fill="none" height="77.0" stroke="black" stroke-width="2" transform="rotate(357,102.0,64.5)" width="70.0" x="67" y="26" /><line stroke="black" stroke-width="2" transform="rotate(263,50.4,157.4)" x1="21" x2="79.8" y1="128" y2="186.8" /><polygon fill="none" points="123,100.74000000000001 166.4,100.74000000000001 144.7,53" stroke="black" stroke-width="2" transform="rotate(203,144.7,76.87)" /></g></svg>