<?xml version="1.0" encoding="utf-8" ?>
<svg baseProfile="full" height="1000px" version="1.1" width="600px" xmlns="http://www.w3.org/2000/svg" xmlns:ev="http://www.w3.org/2001/xml-events" xmlns:xlink="http://www.w3.org/1999/xlink"><defs /><rect fill="white" height="100%" width="100%" x="0" y="0" /><text font-family="Arial" font-size="24" text-anchor="middle" x="300" y="40">Visual Discrimination Test</text><text font-family="Arial" font-size="18" text-anchor="middle" x="300" y="80">Target Pattern</text><g transform="translate(200,100)"><circle cx="139" cy="28" fill="none" r="19.0" stroke="black" stroke-width="2" /><circle cx="96" cy="99" fill="none" r="17.5" stroke="black" stroke-width="2" /></g><text font-family="Arial" font-size="18" text-anchor="middle" x="300" y="350">Options</text><text font-family="Arial" font-size="14" text-anchor="middle" x="175" y="380">Option 1</text><g transform="translate(100,400)"><rect fill="none" height="24.320000000000004" stroke="black" stroke-width="2" transform="rotate(27,154.2,40.160000000000004)" width="30.400000000000002" x="139" y="28" /><polygon fill="none" points="96,121.4 124.0,121.4 110.0,99" stroke="black" stroke-width="2" transform="rotate(166,110.0,110.2)" /></g><text font-family="Arial" font-size="14" text-anchor="middle" x="425" y="380">Option 2</text><g transform="translate(350,400)"><line stroke="black" stroke-width="2" transform="rotate(26,154.2,43.2)" x1="139" x2="169.4" y1="28" y2="58.400000000000006" /><line stroke="black" stroke-width="2" transform="rotate(169,110.0,113.0)" x1="96" x2="124.0" y1="99" y2="127.0" /></g><text font-family="Arial" font-size="14" text-anchor="middle" x="175" y="630">Option 3</text><g transform="translate(100,650)"><line stroke="black" stroke-width="2" transform="rotate(24,154.2,43.2)" x1="139" x2="169.4" y1="28" y2="58.400000000000006" /><rect fill="none" height="22.400000000000002" stroke="black" stroke-width="2" transform="rotate(166,110.0,110.2)" width="28.0" x="96" y="99" /></g><text font-family="Arial" font-size="14" text-anchor="middle" x="425" y="630">Option 4</text><g transform="translate(350,650)"><circle cx="139" cy="28" fill="none" r="19.0" stroke="black" stroke-width="2" /><circle cx="96" cy="99" fill="none" r="17.5" stroke="black" stroke-width="2" /></g></svg>