<?xml version="1.0" encoding="utf-8" ?>
<svg baseProfile="full" height="1000px" version="1.1" width="600px" xmlns="http://www.w3.org/2000/svg" xmlns:ev="http://www.w3.org/2001/xml-events" xmlns:xlink="http://www.w3.org/1999/xlink"><defs /><rect fill="white" height="100%" width="100%" x="0" y="0" /><text font-family="Arial" font-size="24" text-anchor="middle" x="300" y="40">Visual Discrimination Test</text><text font-family="Arial" font-size="18" text-anchor="middle" x="300" y="80">Target Pattern</text><g transform="translate(200,100)"><line stroke="black" stroke-width="2" transform="rotate(76,103.5,82.5)" x1="85" x2="122" y1="64" y2="101" /><polygon fill="none" points="38,59 86,59 62.0,11" stroke="black" stroke-width="2" transform="rotate(149,62.0,35.0)" /></g><text font-family="Arial" font-size="18" text-anchor="middle" x="300" y="350">Options</text><text font-family="Arial" font-size="14" text-anchor="middle" x="175" y="380">Option 1</text><g transform="translate(100,400)"><line stroke="black" stroke-width="2" transform="rotate(79,99.8,78.8)" x1="85" x2="114.6" y1="64" y2="93.6" /><polygon fill="none" points="38,64.76 76.4,64.76 57.2,11" stroke="black" stroke-width="2" transform="rotate(155,57.2,37.88)" /></g><text font-family="Arial" font-size="14" text-anchor="middle" x="425" y="380">Option 2</text><g transform="translate(350,400)"><line stroke="black" stroke-width="2" transform="rotate(81,99.8,78.8)" x1="85" x2="114.6" y1="64" y2="93.6" /><polygon fill="none" points="38,64.76 76.4,64.76 57.2,11" stroke="black" stroke-width="2" transform="rotate(152,57.2,37.88)" /></g><text font-family="Arial" font-size="14" text-anchor="middle" x="175" y="630">Option 3</text><g transform="translate(100,650)"><line stroke="black" stroke-width="2" transform="rotate(76,103.5,82.5)" x1="85" x2="122" y1="64" y2="101" /><polygon fill="none" points="38,59 86,59 62.0,11" stroke="black" stroke-width="2" transform="rotate(149,62.0,35.0)" /></g><text font-family="Arial" font-size="14" text-anchor="middle" x="425" y="630">Option 4</text><g transform="translate(350,650)"><line stroke="black" stroke-width="2" transform="rotate(79,99.8,78.8)" x1="85" x2="114.6" y1="64" y2="93.6" /><polygon fill="none" points="38,64.76 76.4,64.76 57.2,11" stroke="black" stroke-width="2" transform="rotate(153,57.2,37.88)" /></g></svg>