<?xml version="1.0" encoding="utf-8" ?>
<svg baseProfile="full" height="1000px" version="1.1" width="600px" xmlns="http://www.w3.org/2000/svg" xmlns:ev="http://www.w3.org/2001/xml-events" xmlns:xlink="http://www.w3.org/1999/xlink"><defs /><rect fill="white" height="100%" width="100%" x="0" y="0" /><text font-family="Arial" font-size="24" text-anchor="middle" x="300" y="40">Visual Discrimination Test</text><text font-family="Arial" font-size="18" text-anchor="middle" x="300" y="80">Target Pattern</text><g transform="translate(200,100)"><rect fill="none" height="39" stroke="black" stroke-width="2" transform="rotate(214,133.5,37.5)" width="39" x="114" y="18" /><polygon fill="none" points="22,64 54,64 38.0,32" stroke="black" stroke-width="2" transform="rotate(68,38.0,48.0)" /><rect fill="none" height="47" stroke="black" stroke-width="2" transform="rotate(168,58.5,162.5)" width="47" x="35" y="139" /><polygon fill="none" points="123,48 158,48 140.5,13" stroke="black" stroke-width="2" transform="rotate(191,140.5,30.5)" /><rect fill="none" height="36" stroke="black" stroke-width="2" transform="rotate(114,159.0,98.0)" width="36" x="141" y="80" /><rect fill="none" height="39" stroke="black" stroke-width="2" transform="rotate(128,138.5,60.5)" width="39" x="119" y="41" /><line stroke="black" stroke-width="2" transform="rotate(42,81.5,88.5)" x1="65" x2="98" y1="72" y2="105" /></g><text font-family="Arial" font-size="18" text-anchor="middle" x="300" y="350">Options</text><text font-family="Arial" font-size="14" text-anchor="middle" x="175" y="380">Option 1</text><g transform="translate(100,400)"><rect fill="none" height="43.68" stroke="black" stroke-width="2" transform="rotate(219,129.6,39.84)" width="31.200000000000003" x="114" y="18" /><polygon fill="none" points="22,67.84 47.6,67.84 34.8,32" stroke="black" stroke-width="2" transform="rotate(74,34.8,49.92)" /><rect fill="none" height="52.64" stroke="black" stroke-width="2" transform="rotate(174,53.8,165.32)" width="37.6" x="35" y="139" /><polygon fill="none" points="123,52.199999999999996 151.0,52.199999999999996 137.0,13" stroke="black" stroke-width="2" transform="rotate(197,137.0,32.599999999999994)" /><rect fill="none" height="40.32" stroke="black" stroke-width="2" transform="rotate(120,155.4,100.16)" width="28.8" x="141" y="80" /><rect fill="none" height="43.68" stroke="black" stroke-width="2" transform="rotate(133,134.6,62.84)" width="31.200000000000003" x="119" y="41" /><line stroke="black" stroke-width="2" transform="rotate(47,78.2,85.2)" x1="65" x2="91.4" y1="72" y2="98.4" /></g><text font-family="Arial" font-size="14" text-anchor="middle" x="425" y="380">Option 2</text><g transform="translate(350,400)"><rect fill="none" height="43.68" stroke="black" stroke-width="2" transform="rotate(220,129.6,39.84)" width="31.200000000000003" x="114" y="18" /><polygon fill="none" points="22,67.84 47.6,67.84 34.8,32" stroke="black" stroke-width="2" transform="rotate(73,34.8,49.92)" /><rect fill="none" height="52.64" stroke="black" stroke-width="2" transform="rotate(174,53.8,165.32)" width="37.6" x="35" y="139" /><polygon fill="none" points="123,52.199999999999996 151.0,52.199999999999996 137.0,13" stroke="black" stroke-width="2" transform="rotate(198,137.0,32.599999999999994)" /><rect fill="none" height="40.32" stroke="black" stroke-width="2" transform="rotate(120,155.4,100.16)" width="28.8" x="141" y="80" /><rect fill="none" height="43.68" stroke="black" stroke-width="2" transform="rotate(131,134.6,62.84)" width="31.200000000000003" x="119" y="41" /><line stroke="black" stroke-width="2" transform="rotate(45,78.2,85.2)" x1="65" x2="91.4" y1="72" y2="98.4" /></g><text font-family="Arial" font-size="14" text-anchor="middle" x="175" y="630">Option 3</text><g transform="translate(100,650)"><rect fill="none" height="39" stroke="black" stroke-width="2" transform="rotate(214,133.5,37.5)" width="39" x="114" y="18" /><polygon fill="none" points="22,64 54,64 38.0,32" stroke="black" stroke-width="2" transform="rotate(68,38.0,48.0)" /><rect fill="none" height="47" stroke="black" stroke-width="2" transform="rotate(168,58.5,162.5)" width="47" x="35" y="139" /><polygon fill="none" points="123,48 158,48 140.5,13" stroke="black" stroke-width="2" transform="rotate(191,140.5,30.5)" /><rect fill="none" height="36" stroke="black" stroke-width="2" transform="rotate(114,159.0,98.0)" width="36" x="141" y="80" /><rect fill="none" height="39" stroke="black" stroke-width="2" transform="rotate(128,138.5,60.5)" width="39" x="119" y="41" /><line stroke="black" stroke-width="2" transform="rotate(42,81.5,88.5)" x1="65" x2="98" y1="72" y2="105" /></g><text font-family="Arial" font-size="14" text-anchor="middle" x="425" y="630">Option 4</text><g transform="translate(350,650)"><rect fill="none" height="43.68" stroke="black" stroke-width="2" transform="rotate(219,129.6,39.84)" width="31.200000000000003" x="114" y="18" /><polygon fill="none" points="22,67.84 47.6,67.84 34.8,32" stroke="black" stroke-width="2" transform="rotate(72,34.8,49.92)" /><rect fill="none" height="52.64" stroke="black" stroke-width="2" transform="rotate(171,53.8,165.32)" width="37.6" x="35" y="139" /><polygon fill="none" points="123,52.199999999999996 151.0,52.199999999999996 137.0,13" stroke="black" stroke-width="2" transform="rotate(197,137.0,32.599999999999994)" /><rect fill="none" height="40.32" stroke="black" stroke-width="2" transform="rotate(118,155.4,100.16)" width="28.8" x="141" y="80" /><rect fill="none" height="43.68" stroke="black" stroke-width="2" transform="rotate(133,134.6,62.84)" width="31.200000000000003" x="119" y="41" /><line stroke="black" stroke-width="2" transform="rotate(45,78.2,85.2)" x1="65" x2="91.4" y1="72" y2="98.4" /></g></svg>