<?xml version="1.0" encoding="utf-8" ?>
<svg baseProfile="full" height="1000px" version="1.1" width="600px" xmlns="http://www.w3.org/2000/svg" xmlns:ev="http://www.w3.org/2001/xml-events" xmlns:xlink="http://www.w3.org/1999/xlink"><defs /><rect fill="white" height="100%" width="100%" x="0" y="0" /><text font-family="Arial" font-size="24" text-anchor="middle" x="300" y="40">Visual Discrimination Test</text><text font-family="Arial" font-size="18" text-anchor="middle" x="300" y="80">Target Pattern</text><g transform="translate(200,100)"><line stroke="black" stroke-width="2" transform="rotate(301,69.0,51.0)" x1="50" x2="88" y1="32" y2="70" /><polygon fill="none" points="139,148 180,148 159.5,107" stroke="black" stroke-width="2" transform="rotate(121,159.5,127.5)" /><rect fill="none" height="32" stroke="black" stroke-width="2" transform="rotate(187,162.0,41.0)" width="32" x="146" y="25" /><rect fill="none" height="35" stroke="black" stroke-width="2" transform="rotate(259,116.5,48.5)" width="35" x="99" y="31" /></g><text font-family="Arial" font-size="18" text-anchor="middle" x="300" y="350">Options</text><text font-family="Arial" font-size="14" text-anchor="middle" x="175" y="380">Option 1</text><g transform="translate(100,400)"><line stroke="black" stroke-width="2" transform="rotate(306,65.2,47.2)" x1="50" x2="80.4" y1="32" y2="62.400000000000006" /><polygon fill="none" points="139,152.92000000000002 171.8,152.92000000000002 155.4,107" stroke="black" stroke-width="2" transform="rotate(128,155.4,129.96)" /><rect fill="none" height="35.839999999999996" stroke="black" stroke-width="2" transform="rotate(190,158.8,42.92)" width="25.6" x="146" y="25" /><rect fill="none" height="39.199999999999996" stroke="black" stroke-width="2" transform="rotate(264,113.0,50.599999999999994)" width="28.0" x="99" y="31" /></g><text font-family="Arial" font-size="14" text-anchor="middle" x="425" y="380">Option 2</text><g transform="translate(350,400)"><line stroke="black" stroke-width="2" transform="rotate(301,69.0,51.0)" x1="50" x2="88" y1="32" y2="70" /><polygon fill="none" points="139,148 180,148 159.5,107" stroke="black" stroke-width="2" transform="rotate(121,159.5,127.5)" /><rect fill="none" height="32" stroke="black" stroke-width="2" transform="rotate(187,162.0,41.0)" width="32" x="146" y="25" /><rect fill="none" height="35" stroke="black" stroke-width="2" transform="rotate(259,116.5,48.5)" width="35" x="99" y="31" /></g><text font-family="Arial" font-size="14" text-anchor="middle" x="175" y="630">Option 3</text><g transform="translate(100,650)"><line stroke="black" stroke-width="2" transform="rotate(304,65.2,47.2)" x1="50" x2="80.4" y1="32" y2="62.400000000000006" /><polygon fill="none" points="139,152.92000000000002 171.8,152.92000000000002 155.4,107" stroke="black" stroke-width="2" transform="rotate(126,155.4,129.96)" /><rect fill="none" height="35.839999999999996" stroke="black" stroke-width="2" transform="rotate(193,158.8,42.92)" width="25.6" x="146" y="25" /><rect fill="none" height="39.199999999999996" stroke="black" stroke-width="2" transform="rotate(266,113.0,50.599999999999994)" width="28.0" x="99" y="31" /></g><text font-family="Arial" font-size="14" text-anchor="middle" x="425" y="630">Option 4</text><g transform="translate(350,650)"><line stroke="black" stroke-width="2" transform="rotate(307,65.2,47.2)" x1="50" x2="80.4" y1="32" y2="62.400000000000006" /><polygon fill="none" points="139,152.92000000000002 171.8,152.92000000000002 155.4,107" stroke="black" stroke-width="2" transform="rotate(124,155.4,129.96)" /><rect fill="none" height="35.839999999999996" stroke="black" stroke-width="2" transform="rotate(190,158.8,42.92)" width="25.6" x="146" y="25" /><rect fill="none" height="39.199999999999996" stroke="black" stroke-width="2" transform="rotate(262,113.0,50.599999999999994)" width="28.0" x="99" y="31" /></g></svg>