<?xml version="1.0" encoding="utf-8" ?>
<svg baseProfile="full" height="1000px" version="1.1" width="600px" xmlns="http://www.w3.org/2000/svg" xmlns:ev="http://www.w3.org/2001/xml-events" xmlns:xlink="http://www.w3.org/1999/xlink"><defs /><rect fill="white" height="100%" width="100%" x="0" y="0" /><text font-family="Arial" font-size="24" text-anchor="middle" x="300" y="40">Visual Discrimination Test</text><text font-family="Arial" font-size="18" text-anchor="middle" x="300" y="80">Target Pattern</text><g transform="translate(200,100)"><polygon fill="none" points="65,90 112,90 88.5,43" stroke="black" stroke-width="2" transform="rotate(101,88.5,66.5)" /><polygon fill="none" points="144,89 191,89 167.5,42" stroke="black" stroke-width="2" transform="rotate(351,167.5,65.5)" /><circle cx="111" cy="125" fill="none" r="23.5" stroke="black" stroke-width="2" /></g><text font-family="Arial" font-size="18" text-anchor="middle" x="300" y="350">Options</text><text font-family="Arial" font-size="14" text-anchor="middle" x="175" y="380">Option 1</text><g transform="translate(100,400)"><polygon fill="none" points="65,90 112,90 88.5,43" stroke="black" stroke-width="2" transform="rotate(101,88.5,66.5)" /><polygon fill="none" points="144,89 191,89 167.5,42" stroke="black" stroke-width="2" transform="rotate(351,167.5,65.5)" /><circle cx="111" cy="125" fill="none" r="23.5" stroke="black" stroke-width="2" /></g><text font-family="Arial" font-size="14" text-anchor="middle" x="425" y="380">Option 2</text><g transform="translate(350,400)"><polygon fill="none" points="65,95.64 102.6,95.64 83.8,43" stroke="black" stroke-width="2" transform="rotate(108,83.8,69.32)" /><polygon fill="none" points="144,94.64 181.6,94.64 162.8,42" stroke="black" stroke-width="2" transform="rotate(354,162.8,68.32)" /><circle cx="111" cy="125" fill="none" r="18.8" stroke="black" stroke-width="2" /></g><text font-family="Arial" font-size="14" text-anchor="middle" x="175" y="630">Option 3</text><g transform="translate(100,650)"><polygon fill="none" points="65,95.64 102.6,95.64 83.8,43" stroke="black" stroke-width="2" transform="rotate(107,83.8,69.32)" /><polygon fill="none" points="144,94.64 181.6,94.64 162.8,42" stroke="black" stroke-width="2" transform="rotate(355,162.8,68.32)" /><circle cx="111" cy="125" fill="none" r="18.8" stroke="black" stroke-width="2" /></g><text font-family="Arial" font-size="14" text-anchor="middle" x="425" y="630">Option 4</text><g transform="translate(350,650)"><polygon fill="none" points="65,95.64 102.6,95.64 83.8,43" stroke="black" stroke-width="2" transform="rotate(108,83.8,69.32)" /><polygon fill="none" points="144,94.64 181.6,94.64 162.8,42" stroke="black" stroke-width="2" transform="rotate(354,162.8,68.32)" /><circle cx="111" cy="125" fill="none" r="18.8" stroke="black" stroke-width="2" /></g></svg>