<?xml version="1.0" encoding="utf-8" ?>
<svg baseProfile="full" height="1000px" version="1.1" width="600px" xmlns="http://www.w3.org/2000/svg" xmlns:ev="http://www.w3.org/2001/xml-events" xmlns:xlink="http://www.w3.org/1999/xlink"><defs /><rect fill="white" height="100%" width="100%" x="0" y="0" /><text font-family="Arial" font-size="24" text-anchor="middle" x="300" y="40">Visual Discrimination Test</text><text font-family="Arial" font-size="18" text-anchor="middle" x="300" y="80">Target Pattern</text><g transform="translate(200,100)"><polygon fill="none" points="48,76 82,76 65.0,42" stroke="black" stroke-width="2" transform="rotate(331,65.0,59.0)" /><line stroke="black" stroke-width="2" transform="rotate(198,74.5,162.5)" x1="50" x2="99" y1="138" y2="187" /><circle cx="45" cy="16" fill="none" r="20.0" stroke="black" stroke-width="2" /><polygon fill="none" points="135,57 165,57 150.0,27" stroke="black" stroke-width="2" transform="rotate(166,150.0,42.0)" /><polygon fill="none" points="115,183 154,183 134.5,144" stroke="black" stroke-width="2" transform="rotate(71,134.5,163.5)" /><polygon fill="none" points="146,79 177,79 161.5,48" stroke="black" stroke-width="2" transform="rotate(61,161.5,63.5)" /><line stroke="black" stroke-width="2" transform="rotate(174,128.5,87.5)" x1="105" x2="152" y1="64" y2="111" /><circle cx="20" cy="28" fill="none" r="15.0" stroke="black" stroke-width="2" /></g><text font-family="Arial" font-size="18" text-anchor="middle" x="300" y="350">Options</text><text font-family="Arial" font-size="14" text-anchor="middle" x="175" y="380">Option 1</text><g transform="translate(100,400)"><polygon fill="none" points="48,80.08 75.2,80.08 61.6,42" stroke="black" stroke-width="2" transform="rotate(338,61.6,61.04)" /><line stroke="black" stroke-width="2" transform="rotate(202,69.6,157.6)" x1="50" x2="89.2" y1="138" y2="177.2" /><circle cx="45" cy="16" fill="none" r="16.0" stroke="black" stroke-width="2" /><polygon fill="none" points="135,60.599999999999994 159.0,60.599999999999994 147.0,27" stroke="black" stroke-width="2" transform="rotate(173,147.0,43.8)" /><polygon fill="none" points="115,187.68 146.2,187.68 130.6,144" stroke="black" stroke-width="2" transform="rotate(74,130.6,165.84)" /><polygon fill="none" points="146,82.72 170.8,82.72 158.4,48" stroke="black" stroke-width="2" transform="rotate(66,158.4,65.36)" /><line stroke="black" stroke-width="2" transform="rotate(181,123.8,82.8)" x1="105" x2="142.6" y1="64" y2="101.6" /><circle cx="20" cy="28" fill="none" r="12.0" stroke="black" stroke-width="2" /></g><text font-family="Arial" font-size="14" text-anchor="middle" x="425" y="380">Option 2</text><g transform="translate(350,400)"><polygon fill="none" points="48,80.08 75.2,80.08 61.6,42" stroke="black" stroke-width="2" transform="rotate(335,61.6,61.04)" /><line stroke="black" stroke-width="2" transform="rotate(202,69.6,157.6)" x1="50" x2="89.2" y1="138" y2="177.2" /><circle cx="45" cy="16" fill="none" r="16.0" stroke="black" stroke-width="2" /><polygon fill="none" points="135,60.599999999999994 159.0,60.599999999999994 147.0,27" stroke="black" stroke-width="2" transform="rotate(172,147.0,43.8)" /><polygon fill="none" points="115,187.68 146.2,187.68 130.6,144" stroke="black" stroke-width="2" transform="rotate(76,130.6,165.84)" /><polygon fill="none" points="146,82.72 170.8,82.72 158.4,48" stroke="black" stroke-width="2" transform="rotate(67,158.4,65.36)" /><line stroke="black" stroke-width="2" transform="rotate(177,123.8,82.8)" x1="105" x2="142.6" y1="64" y2="101.6" /><circle cx="20" cy="28" fill="none" r="12.0" stroke="black" stroke-width="2" /></g><text font-family="Arial" font-size="14" text-anchor="middle" x="175" y="630">Option 3</text><g transform="translate(100,650)"><polygon fill="none" points="48,76 82,76 65.0,42" stroke="black" stroke-width="2" transform="rotate(331,65.0,59.0)" /><line stroke="black" stroke-width="2" transform="rotate(198,74.5,162.5)" x1="50" x2="99" y1="138" y2="187" /><circle cx="45" cy="16" fill="none" r="20.0" stroke="black" stroke-width="2" /><polygon fill="none" points="135,57 165,57 150.0,27" stroke="black" stroke-width="2" transform="rotate(166,150.0,42.0)" /><polygon fill="none" points="115,183 154,183 134.5,144" stroke="black" stroke-width="2" transform="rotate(71,134.5,163.5)" /><polygon fill="none" points="146,79 177,79 161.5,48" stroke="black" stroke-width="2" transform="rotate(61,161.5,63.5)" /><line stroke="black" stroke-width="2" transform="rotate(174,128.5,87.5)" x1="105" x2="152" y1="64" y2="111" /><circle cx="20" cy="28" fill="none" r="15.0" stroke="black" stroke-width="2" /></g><text font-family="Arial" font-size="14" text-anchor="middle" x="425" y="630">Option 4</text><g transform="translate(350,650)"><polygon fill="none" points="48,80.08 75.2,80.08 61.6,42" stroke="black" stroke-width="2" transform="rotate(335,61.6,61.04)" /><line stroke="black" stroke-width="2" transform="rotate(201,69.6,157.6)" x1="50" x2="89.2" y1="138" y2="177.2" /><circle cx="45" cy="16" fill="none" r="16.0" stroke="black" stroke-width="2" /><polygon fill="none" points="135,60.599999999999994 159.0,60.599999999999994 147.0,27" stroke="black" stroke-width="2" transform="rotate(172,147.0,43.8)" /><polygon fill="none" points="115,187.68 146.2,187.68 130.6,144" stroke="black" stroke-width="2" transform="rotate(77,130.6,165.84)" /><polygon fill="none" points="146,82.72 170.8,82.72 158.4,48" stroke="black" stroke-width="2" transform="rotate(67,158.4,65.36)" /><line stroke="black" stroke-width="2" transform="rotate(178,123.8,82.8)" x1="105" x2="142.6" y1="64" y2="101.6" /><circle cx="20" cy="28" fill="none" r="12.0" stroke="black" stroke-width="2" /></g></svg>