<?xml version="1.0" encoding="utf-8" ?>
<svg baseProfile="full" height="1000px" version="1.1" width="600px" xmlns="http://www.w3.org/2000/svg" xmlns:ev="http://www.w3.org/2001/xml-events" xmlns:xlink="http://www.w3.org/1999/xlink"><defs /><rect fill="white" height="100%" width="100%" x="0" y="0" /><text font-family="Arial" font-size="24" text-anchor="middle" x="300" y="40">Visual Discrimination Test</text><text font-family="Arial" font-size="18" text-anchor="middle" x="300" y="80">Target Pattern</text><g transform="translate(200,100)"><rect fill="none" height="40" stroke="black" stroke-width="2" transform="rotate(347,125.0,100.0)" width="40" x="105" y="80" /><polygon fill="none" points="46,93 95,93 70.5,44" stroke="black" stroke-width="2" transform="rotate(155,70.5,68.5)" /></g><text font-family="Arial" font-size="18" text-anchor="middle" x="300" y="350">Options</text><text font-family="Arial" font-size="14" text-anchor="middle" x="175" y="380">Option 1</text><g transform="translate(100,400)"><rect fill="none" height="40" stroke="black" stroke-width="2" transform="rotate(347,125.0,100.0)" width="40" x="105" y="80" /><polygon fill="none" points="46,93 95,93 70.5,44" stroke="black" stroke-width="2" transform="rotate(155,70.5,68.5)" /></g><text font-family="Arial" font-size="14" text-anchor="middle" x="425" y="380">Option 2</text><g transform="translate(350,400)"><rect fill="none" height="44.8" stroke="black" stroke-width="2" transform="rotate(353,121.0,102.4)" width="32.0" x="105" y="80" /><polygon fill="none" points="46,98.88 85.2,98.88 65.6,44" stroke="black" stroke-width="2" transform="rotate(161,65.6,71.44)" /></g><text font-family="Arial" font-size="14" text-anchor="middle" x="175" y="630">Option 3</text><g transform="translate(100,650)"><polygon fill="none" points="105,124.8 137.0,124.8 121.0,80" stroke="black" stroke-width="2" transform="rotate(350,121.0,102.4)" /><line stroke="black" stroke-width="2" transform="rotate(158,65.6,63.6)" x1="46" x2="85.2" y1="44" y2="83.2" /></g><text font-family="Arial" font-size="14" text-anchor="middle" x="425" y="630">Option 4</text><g transform="translate(350,650)"><line stroke="black" stroke-width="2" transform="rotate(350,121.0,96.0)" x1="105" x2="137.0" y1="80" y2="112.0" /><polygon fill="none" points="46,98.88 85.2,98.88 65.6,44" stroke="black" stroke-width="2" transform="rotate(160,65.6,71.44)" /></g></svg>