<?xml version="1.0" encoding="utf-8" ?>
<svg baseProfile="full" height="1000px" version="1.1" width="600px" xmlns="http://www.w3.org/2000/svg" xmlns:ev="http://www.w3.org/2001/xml-events" xmlns:xlink="http://www.w3.org/1999/xlink"><defs /><rect fill="white" height="100%" width="100%" x="0" y="0" /><text font-family="Arial" font-size="24" text-anchor="middle" x="300" y="40">Visual Discrimination Test</text><text font-family="Arial" font-size="18" text-anchor="middle" x="300" y="80">Target Pattern</text><g transform="translate(200,100)"><polygon fill="none" points="69,76 114,76 91.5,31" stroke="black" stroke-width="2" transform="rotate(86,91.5,53.5)" /><rect fill="none" height="33" stroke="black" stroke-width="2" transform="rotate(224,112.5,59.5)" width="33" x="96" y="43" /><rect fill="none" height="31" stroke="black" stroke-width="2" transform="rotate(284,66.5,153.5)" width="31" x="51" y="138" /><rect fill="none" height="50" stroke="black" stroke-width="2" transform="rotate(323,114.0,151.0)" width="50" x="89" y="126" /><polygon fill="none" points="108,105 147,105 127.5,66" stroke="black" stroke-width="2" transform="rotate(218,127.5,85.5)" /><polygon fill="none" points="94,110 137,110 115.5,67" stroke="black" stroke-width="2" transform="rotate(177,115.5,88.5)" /><polygon fill="none" points="65,162 96,162 80.5,131" stroke="black" stroke-width="2" transform="rotate(252,80.5,146.5)" /></g><text font-family="Arial" font-size="18" text-anchor="middle" x="300" y="350">Options</text><text font-family="Arial" font-size="14" text-anchor="middle" x="175" y="380">Option 1</text><g transform="translate(100,400)"><rect fill="none" height="50.4" stroke="black" stroke-width="2" transform="rotate(93,87.0,56.2)" width="36.0" x="69" y="31" /><polygon fill="none" points="96,79.96000000000001 122.4,79.96000000000001 109.2,43" stroke="black" stroke-width="2" transform="rotate(227,109.2,61.480000000000004)" /><line stroke="black" stroke-width="2" transform="rotate(289,63.4,150.4)" x1="51" x2="75.8" y1="138" y2="162.8" /><rect fill="none" height="56.0" stroke="black" stroke-width="2" transform="rotate(328,109.0,154.0)" width="40.0" x="89" y="126" /><line stroke="black" stroke-width="2" transform="rotate(222,123.6,81.6)" x1="108" x2="139.2" y1="66" y2="97.2" /><rect fill="none" height="48.16" stroke="black" stroke-width="2" transform="rotate(180,111.2,91.08)" width="34.4" x="94" y="67" /><polygon fill="none" points="65,165.72 89.8,165.72 77.4,131" stroke="black" stroke-width="2" transform="rotate(258,77.4,148.36)" /></g><text font-family="Arial" font-size="14" text-anchor="middle" x="425" y="380">Option 2</text><g transform="translate(350,400)"><line stroke="black" stroke-width="2" transform="rotate(90,87.0,49.0)" x1="69" x2="105.0" y1="31" y2="67.0" /><rect fill="none" height="36.96" stroke="black" stroke-width="2" transform="rotate(229,109.2,61.480000000000004)" width="26.400000000000002" x="96" y="43" /><line stroke="black" stroke-width="2" transform="rotate(291,63.4,150.4)" x1="51" x2="75.8" y1="138" y2="162.8" /><rect fill="none" height="56.0" stroke="black" stroke-width="2" transform="rotate(326,109.0,154.0)" width="40.0" x="89" y="126" /><line stroke="black" stroke-width="2" transform="rotate(222,123.6,81.6)" x1="108" x2="139.2" y1="66" y2="97.2" /><line stroke="black" stroke-width="2" transform="rotate(183,111.2,84.2)" x1="94" x2="128.4" y1="67" y2="101.4" /><line stroke="black" stroke-width="2" transform="rotate(257,77.4,143.4)" x1="65" x2="89.8" y1="131" y2="155.8" /></g><text font-family="Arial" font-size="14" text-anchor="middle" x="175" y="630">Option 3</text><g transform="translate(100,650)"><polygon fill="none" points="69,81.4 105.0,81.4 87.0,31" stroke="black" stroke-width="2" transform="rotate(92,87.0,56.2)" /><rect fill="none" height="36.96" stroke="black" stroke-width="2" transform="rotate(231,109.2,61.480000000000004)" width="26.400000000000002" x="96" y="43" /><polygon fill="none" points="51,172.72 75.8,172.72 63.4,138" stroke="black" stroke-width="2" transform="rotate(288,63.4,155.36)" /><rect fill="none" height="56.0" stroke="black" stroke-width="2" transform="rotate(330,109.0,154.0)" width="40.0" x="89" y="126" /><line stroke="black" stroke-width="2" transform="rotate(222,123.6,81.6)" x1="108" x2="139.2" y1="66" y2="97.2" /><line stroke="black" stroke-width="2" transform="rotate(181,111.2,84.2)" x1="94" x2="128.4" y1="67" y2="101.4" /><polygon fill="none" points="65,165.72 89.8,165.72 77.4,131" stroke="black" stroke-width="2" transform="rotate(255,77.4,148.36)" /></g><text font-family="Arial" font-size="14" text-anchor="middle" x="425" y="630">Option 4</text><g transform="translate(350,650)"><polygon fill="none" points="69,76 114,76 91.5,31" stroke="black" stroke-width="2" transform="rotate(86,91.5,53.5)" /><rect fill="none" height="33" stroke="black" stroke-width="2" transform="rotate(224,112.5,59.5)" width="33" x="96" y="43" /><rect fill="none" height="31" stroke="black" stroke-width="2" transform="rotate(284,66.5,153.5)" width="31" x="51" y="138" /><rect fill="none" height="50" stroke="black" stroke-width="2" transform="rotate(323,114.0,151.0)" width="50" x="89" y="126" /><polygon fill="none" points="108,105 147,105 127.5,66" stroke="black" stroke-width="2" transform="rotate(218,127.5,85.5)" /><polygon fill="none" points="94,110 137,110 115.5,67" stroke="black" stroke-width="2" transform="rotate(177,115.5,88.5)" /><polygon fill="none" points="65,162 96,162 80.5,131" stroke="black" stroke-width="2" transform="rotate(252,80.5,146.5)" /></g></svg>