<?xml version="1.0" encoding="utf-8" ?>
<svg baseProfile="full" height="1000px" version="1.1" width="600px" xmlns="http://www.w3.org/2000/svg" xmlns:ev="http://www.w3.org/2001/xml-events" xmlns:xlink="http://www.w3.org/1999/xlink"><defs /><rect fill="white" height="100%" width="100%" x="0" y="0" /><text font-family="Arial" font-size="24" text-anchor="middle" x="300" y="40">Visual Discrimination Test</text><text font-family="Arial" font-size="18" text-anchor="middle" x="300" y="80">Target Pattern</text><g transform="translate(200,100)"><polygon fill="none" points="95,175 137,175 116.0,133" stroke="black" stroke-width="2" transform="rotate(257,116.0,154.0)" /><rect fill="none" height="39" stroke="black" stroke-width="2" transform="rotate(166,65.5,96.5)" width="39" x="46" y="77" /><polygon fill="none" points="59,60 98,60 78.5,21" stroke="black" stroke-width="2" transform="rotate(47,78.5,40.5)" /><circle cx="50" cy="119" fill="none" r="18.5" stroke="black" stroke-width="2" /><line stroke="black" stroke-width="2" transform="rotate(113,58.5,145.5)" x1="40" x2="77" y1="127" y2="164" /><line stroke="black" stroke-width="2" transform="rotate(91,37.0,144.0)" x1="18" x2="56" y1="125" y2="163" /></g><text font-family="Arial" font-size="18" text-anchor="middle" x="300" y="350">Options</text><text font-family="Arial" font-size="14" text-anchor="middle" x="175" y="380">Option 1</text><g transform="translate(100,400)"><rect fill="none" height="47.04" stroke="black" stroke-width="2" transform="rotate(260,111.8,156.52)" width="33.6" x="95" y="133" /><line stroke="black" stroke-width="2" transform="rotate(170,61.6,92.6)" x1="46" x2="77.2" y1="77" y2="108.2" /><polygon fill="none" points="59,64.68 90.2,64.68 74.6,21" stroke="black" stroke-width="2" transform="rotate(51,74.6,42.84)" /><line stroke="black" stroke-width="2" transform="rotate(47,64.8,133.8)" x1="50" x2="79.6" y1="119" y2="148.6" /><polygon fill="none" points="40,168.44 69.6,168.44 54.8,127" stroke="black" stroke-width="2" transform="rotate(118,54.8,147.72)" /><polygon fill="none" points="18,167.56 48.400000000000006,167.56 33.2,125" stroke="black" stroke-width="2" transform="rotate(95,33.2,146.28)" /></g><text font-family="Arial" font-size="14" text-anchor="middle" x="425" y="380">Option 2</text><g transform="translate(350,400)"><line stroke="black" stroke-width="2" transform="rotate(262,111.8,149.8)" x1="95" x2="128.6" y1="133" y2="166.6" /><line stroke="black" stroke-width="2" transform="rotate(171,61.6,92.6)" x1="46" x2="77.2" y1="77" y2="108.2" /><rect fill="none" height="43.68" stroke="black" stroke-width="2" transform="rotate(53,74.6,42.84)" width="31.200000000000003" x="59" y="21" /><polygon fill="none" points="50,160.44 79.6,160.44 64.8,119" stroke="black" stroke-width="2" transform="rotate(48,64.8,139.72)" /><rect fill="none" height="41.44" stroke="black" stroke-width="2" transform="rotate(117,54.8,147.72)" width="29.6" x="40" y="127" /><polygon fill="none" points="18,167.56 48.400000000000006,167.56 33.2,125" stroke="black" stroke-width="2" transform="rotate(97,33.2,146.28)" /></g><text font-family="Arial" font-size="14" text-anchor="middle" x="175" y="630">Option 3</text><g transform="translate(100,650)"><polygon fill="none" points="95,180.04 128.6,180.04 111.8,133" stroke="black" stroke-width="2" transform="rotate(264,111.8,156.52)" /><polygon fill="none" points="46,120.68 77.2,120.68 61.6,77" stroke="black" stroke-width="2" transform="rotate(171,61.6,98.84)" /><polygon fill="none" points="59,64.68 90.2,64.68 74.6,21" stroke="black" stroke-width="2" transform="rotate(50,74.6,42.84)" /><line stroke="black" stroke-width="2" transform="rotate(50,64.8,133.8)" x1="50" x2="79.6" y1="119" y2="148.6" /><polygon fill="none" points="40,168.44 69.6,168.44 54.8,127" stroke="black" stroke-width="2" transform="rotate(118,54.8,147.72)" /><polygon fill="none" points="18,167.56 48.400000000000006,167.56 33.2,125" stroke="black" stroke-width="2" transform="rotate(95,33.2,146.28)" /></g><text font-family="Arial" font-size="14" text-anchor="middle" x="425" y="630">Option 4</text><g transform="translate(350,650)"><polygon fill="none" points="95,175 137,175 116.0,133" stroke="black" stroke-width="2" transform="rotate(257,116.0,154.0)" /><rect fill="none" height="39" stroke="black" stroke-width="2" transform="rotate(166,65.5,96.5)" width="39" x="46" y="77" /><polygon fill="none" points="59,60 98,60 78.5,21" stroke="black" stroke-width="2" transform="rotate(47,78.5,40.5)" /><circle cx="50" cy="119" fill="none" r="18.5" stroke="black" stroke-width="2" /><line stroke="black" stroke-width="2" transform="rotate(113,58.5,145.5)" x1="40" x2="77" y1="127" y2="164" /><line stroke="black" stroke-width="2" transform="rotate(91,37.0,144.0)" x1="18" x2="56" y1="125" y2="163" /></g></svg>