<?xml version="1.0" encoding="utf-8" ?>
<svg baseProfile="full" height="1000px" version="1.1" width="600px" xmlns="http://www.w3.org/2000/svg" xmlns:ev="http://www.w3.org/2001/xml-events" xmlns:xlink="http://www.w3.org/1999/xlink"><defs /><rect fill="white" height="100%" width="100%" x="0" y="0" /><text font-family="Arial" font-size="24" text-anchor="middle" x="300" y="40">Visual Discrimination Test</text><text font-family="Arial" font-size="18" text-anchor="middle" x="300" y="80">Target Pattern</text><g transform="translate(200,100)"><circle cx="21" cy="32" fill="none" r="22.5" stroke="black" stroke-width="2" /><rect fill="none" height="47" stroke="black" stroke-width="2" transform="rotate(57,111.5,131.5)" width="47" x="88" y="108" /><polygon fill="none" points="120,126 154,126 137.0,92" stroke="black" stroke-width="2" transform="rotate(117,137.0,109.0)" /><line stroke="black" stroke-width="2" transform="rotate(331,119.0,71.0)" x1="97" x2="141" y1="49" y2="93" /><circle cx="104" cy="85" fill="none" r="15.0" stroke="black" stroke-width="2" /><line stroke="black" stroke-width="2" transform="rotate(184,126.5,110.5)" x1="106" x2="147" y1="90" y2="131" /><polygon fill="none" points="115,142 147,142 131.0,110" stroke="black" stroke-width="2" transform="rotate(218,131.0,126.0)" /></g><text font-family="Arial" font-size="18" text-anchor="middle" x="300" y="350">Options</text><text font-family="Arial" font-size="14" text-anchor="middle" x="175" y="380">Option 1</text><g transform="translate(100,400)"><rect fill="none" height="50.4" stroke="black" stroke-width="2" transform="rotate(185,39.0,57.2)" width="36.0" x="21" y="32" /><polygon fill="none" points="88,160.64 125.6,160.64 106.8,108" stroke="black" stroke-width="2" transform="rotate(63,106.8,134.32)" /><polygon fill="none" points="120,130.07999999999998 147.2,130.07999999999998 133.6,92" stroke="black" stroke-width="2" transform="rotate(121,133.6,111.03999999999999)" /><polygon fill="none" points="97,98.28 132.2,98.28 114.6,49" stroke="black" stroke-width="2" transform="rotate(335,114.6,73.64)" /><rect fill="none" height="33.599999999999994" stroke="black" stroke-width="2" transform="rotate(143,116.0,101.8)" width="24.0" x="104" y="85" /><rect fill="none" height="45.92" stroke="black" stroke-width="2" transform="rotate(187,122.4,112.96000000000001)" width="32.800000000000004" x="106" y="90" /><line stroke="black" stroke-width="2" transform="rotate(224,127.8,122.8)" x1="115" x2="140.6" y1="110" y2="135.6" /></g><text font-family="Arial" font-size="14" text-anchor="middle" x="425" y="380">Option 2</text><g transform="translate(350,400)"><rect fill="none" height="50.4" stroke="black" stroke-width="2" transform="rotate(185,39.0,57.2)" width="36.0" x="21" y="32" /><polygon fill="none" points="88,160.64 125.6,160.64 106.8,108" stroke="black" stroke-width="2" transform="rotate(62,106.8,134.32)" /><polygon fill="none" points="120,130.07999999999998 147.2,130.07999999999998 133.6,92" stroke="black" stroke-width="2" transform="rotate(121,133.6,111.03999999999999)" /><line stroke="black" stroke-width="2" transform="rotate(335,114.6,66.6)" x1="97" x2="132.2" y1="49" y2="84.2" /><rect fill="none" height="33.599999999999994" stroke="black" stroke-width="2" transform="rotate(142,116.0,101.8)" width="24.0" x="104" y="85" /><rect fill="none" height="45.92" stroke="black" stroke-width="2" transform="rotate(190,122.4,112.96000000000001)" width="32.800000000000004" x="106" y="90" /><rect fill="none" height="35.839999999999996" stroke="black" stroke-width="2" transform="rotate(223,127.8,127.92)" width="25.6" x="115" y="110" /></g><text font-family="Arial" font-size="14" text-anchor="middle" x="175" y="630">Option 3</text><g transform="translate(100,650)"><circle cx="21" cy="32" fill="none" r="22.5" stroke="black" stroke-width="2" /><rect fill="none" height="47" stroke="black" stroke-width="2" transform="rotate(57,111.5,131.5)" width="47" x="88" y="108" /><polygon fill="none" points="120,126 154,126 137.0,92" stroke="black" stroke-width="2" transform="rotate(117,137.0,109.0)" /><line stroke="black" stroke-width="2" transform="rotate(331,119.0,71.0)" x1="97" x2="141" y1="49" y2="93" /><circle cx="104" cy="85" fill="none" r="15.0" stroke="black" stroke-width="2" /><line stroke="black" stroke-width="2" transform="rotate(184,126.5,110.5)" x1="106" x2="147" y1="90" y2="131" /><polygon fill="none" points="115,142 147,142 131.0,110" stroke="black" stroke-width="2" transform="rotate(218,131.0,126.0)" /></g><text font-family="Arial" font-size="14" text-anchor="middle" x="425" y="630">Option 4</text><g transform="translate(350,650)"><line stroke="black" stroke-width="2" transform="rotate(185,39.0,50.0)" x1="21" x2="57.0" y1="32" y2="68.0" /><polygon fill="none" points="88,160.64 125.6,160.64 106.8,108" stroke="black" stroke-width="2" transform="rotate(62,106.8,134.32)" /><line stroke="black" stroke-width="2" transform="rotate(122,133.6,105.6)" x1="120" x2="147.2" y1="92" y2="119.2" /><rect fill="none" height="49.28" stroke="black" stroke-width="2" transform="rotate(338,114.6,73.64)" width="35.2" x="97" y="49" /><polygon fill="none" points="104,118.6 128.0,118.6 116.0,85" stroke="black" stroke-width="2" transform="rotate(142,116.0,101.8)" /><line stroke="black" stroke-width="2" transform="rotate(190,122.4,106.4)" x1="106" x2="138.8" y1="90" y2="122.80000000000001" /><polygon fill="none" points="115,145.84 140.6,145.84 127.8,110" stroke="black" stroke-width="2" transform="rotate(225,127.8,127.92)" /></g></svg>