<?xml version="1.0" encoding="utf-8" ?>
<svg baseProfile="full" height="1000px" version="1.1" width="600px" xmlns="http://www.w3.org/2000/svg" xmlns:ev="http://www.w3.org/2001/xml-events" xmlns:xlink="http://www.w3.org/1999/xlink"><defs /><rect fill="white" height="100%" width="100%" x="0" y="0" /><text font-family="Arial" font-size="24" text-anchor="middle" x="300" y="40">Visual Discrimination Test</text><text font-family="Arial" font-size="18" text-anchor="middle" x="300" y="80">Target Pattern</text><g transform="translate(200,100)"><line stroke="black" stroke-width="2" transform="rotate(51,90.0,125.0)" x1="74" x2="106" y1="109" y2="141" /><polygon fill="none" points="112,144 161,144 136.5,95" stroke="black" stroke-width="2" transform="rotate(74,136.5,119.5)" /><line stroke="black" stroke-width="2" transform="rotate(224,58.5,32.5)" x1="39" x2="78" y1="13" y2="52" /><line stroke="black" stroke-width="2" transform="rotate(98,74.5,80.5)" x1="54" x2="95" y1="60" y2="101" /><circle cx="75" cy="65" fill="none" r="22.5" stroke="black" stroke-width="2" /><rect fill="none" height="50" stroke="black" stroke-width="2" transform="rotate(101,85.0,107.0)" width="50" x="60" y="82" /><rect fill="none" height="42" stroke="black" stroke-width="2" transform="rotate(131,46.0,57.0)" width="42" x="25" y="36" /><circle cx="141" cy="21" fill="none" r="20.0" stroke="black" stroke-width="2" /><polygon fill="none" points="83,132 113,132 98.0,102" stroke="black" stroke-width="2" transform="rotate(313,98.0,117.0)" /></g><text font-family="Arial" font-size="18" text-anchor="middle" x="300" y="350">Options</text><text font-family="Arial" font-size="14" text-anchor="middle" x="175" y="380">Option 1</text><g transform="translate(100,400)"><rect fill="none" height="35.839999999999996" stroke="black" stroke-width="2" transform="rotate(55,86.8,126.92)" width="25.6" x="74" y="109" /><line stroke="black" stroke-width="2" transform="rotate(80,131.6,114.6)" x1="112" x2="151.2" y1="95" y2="134.2" /><line stroke="black" stroke-width="2" transform="rotate(228,54.6,28.6)" x1="39" x2="70.2" y1="13" y2="44.2" /><polygon fill="none" points="54,105.92 86.80000000000001,105.92 70.4,60" stroke="black" stroke-width="2" transform="rotate(105,70.4,82.96000000000001)" /><polygon fill="none" points="75,115.4 111.0,115.4 93.0,65" stroke="black" stroke-width="2" transform="rotate(132,93.0,90.2)" /><line stroke="black" stroke-width="2" transform="rotate(106,80.0,102.0)" x1="60" x2="100.0" y1="82" y2="122.0" /><line stroke="black" stroke-width="2" transform="rotate(134,41.8,52.8)" x1="25" x2="58.6" y1="36" y2="69.6" /><polygon fill="none" points="141,65.8 173.0,65.8 157.0,21" stroke="black" stroke-width="2" transform="rotate(225,157.0,43.4)" /><rect fill="none" height="33.599999999999994" stroke="black" stroke-width="2" transform="rotate(320,95.0,118.8)" width="24.0" x="83" y="102" /></g><text font-family="Arial" font-size="14" text-anchor="middle" x="425" y="380">Option 2</text><g transform="translate(350,400)"><line stroke="black" stroke-width="2" transform="rotate(51,90.0,125.0)" x1="74" x2="106" y1="109" y2="141" /><polygon fill="none" points="112,144 161,144 136.5,95" stroke="black" stroke-width="2" transform="rotate(74,136.5,119.5)" /><line stroke="black" stroke-width="2" transform="rotate(224,58.5,32.5)" x1="39" x2="78" y1="13" y2="52" /><line stroke="black" stroke-width="2" transform="rotate(98,74.5,80.5)" x1="54" x2="95" y1="60" y2="101" /><circle cx="75" cy="65" fill="none" r="22.5" stroke="black" stroke-width="2" /><rect fill="none" height="50" stroke="black" stroke-width="2" transform="rotate(101,85.0,107.0)" width="50" x="60" y="82" /><rect fill="none" height="42" stroke="black" stroke-width="2" transform="rotate(131,46.0,57.0)" width="42" x="25" y="36" /><circle cx="141" cy="21" fill="none" r="20.0" stroke="black" stroke-width="2" /><polygon fill="none" points="83,132 113,132 98.0,102" stroke="black" stroke-width="2" transform="rotate(313,98.0,117.0)" /></g><text font-family="Arial" font-size="14" text-anchor="middle" x="175" y="630">Option 3</text><g transform="translate(100,650)"><rect fill="none" height="35.839999999999996" stroke="black" stroke-width="2" transform="rotate(58,86.8,126.92)" width="25.6" x="74" y="109" /><rect fill="none" height="54.88" stroke="black" stroke-width="2" transform="rotate(78,131.6,122.44)" width="39.2" x="112" y="95" /><rect fill="none" height="43.68" stroke="black" stroke-width="2" transform="rotate(231,54.6,34.84)" width="31.200000000000003" x="39" y="13" /><polygon fill="none" points="54,105.92 86.80000000000001,105.92 70.4,60" stroke="black" stroke-width="2" transform="rotate(105,70.4,82.96000000000001)" /><polygon fill="none" points="75,115.4 111.0,115.4 93.0,65" stroke="black" stroke-width="2" transform="rotate(132,93.0,90.2)" /><line stroke="black" stroke-width="2" transform="rotate(106,80.0,102.0)" x1="60" x2="100.0" y1="82" y2="122.0" /><rect fill="none" height="47.04" stroke="black" stroke-width="2" transform="rotate(138,41.8,59.519999999999996)" width="33.6" x="25" y="36" /><polygon fill="none" points="141,65.8 173.0,65.8 157.0,21" stroke="black" stroke-width="2" transform="rotate(223,157.0,43.4)" /><rect fill="none" height="33.599999999999994" stroke="black" stroke-width="2" transform="rotate(317,95.0,118.8)" width="24.0" x="83" y="102" /></g><text font-family="Arial" font-size="14" text-anchor="middle" x="425" y="630">Option 4</text><g transform="translate(350,650)"><line stroke="black" stroke-width="2" transform="rotate(57,86.8,121.8)" x1="74" x2="99.6" y1="109" y2="134.6" /><polygon fill="none" points="112,149.88 151.2,149.88 131.6,95" stroke="black" stroke-width="2" transform="rotate(77,131.6,122.44)" /><line stroke="black" stroke-width="2" transform="rotate(228,54.6,28.6)" x1="39" x2="70.2" y1="13" y2="44.2" /><rect fill="none" height="45.92" stroke="black" stroke-width="2" transform="rotate(101,70.4,82.96000000000001)" width="32.800000000000004" x="54" y="60" /><rect fill="none" height="50.4" stroke="black" stroke-width="2" transform="rotate(133,93.0,90.2)" width="36.0" x="75" y="65" /><line stroke="black" stroke-width="2" transform="rotate(107,80.0,102.0)" x1="60" x2="100.0" y1="82" y2="122.0" /><polygon fill="none" points="25,83.03999999999999 58.6,83.03999999999999 41.8,36" stroke="black" stroke-width="2" transform="rotate(134,41.8,59.519999999999996)" /><line stroke="black" stroke-width="2" transform="rotate(225,157.0,37.0)" x1="141" x2="173.0" y1="21" y2="53.0" /><rect fill="none" height="33.599999999999994" stroke="black" stroke-width="2" transform="rotate(316,95.0,118.8)" width="24.0" x="83" y="102" /></g></svg>