<?xml version="1.0" encoding="utf-8" ?>
<svg baseProfile="full" height="1000px" version="1.1" width="600px" xmlns="http://www.w3.org/2000/svg" xmlns:ev="http://www.w3.org/2001/xml-events" xmlns:xlink="http://www.w3.org/1999/xlink"><defs /><rect fill="white" height="100%" width="100%" x="0" y="0" /><text font-family="Arial" font-size="24" text-anchor="middle" x="300" y="40">Visual Discrimination Test</text><text font-family="Arial" font-size="18" text-anchor="middle" x="300" y="80">Target Pattern</text><g transform="translate(200,100)"><rect fill="none" height="30" stroke="black" stroke-width="2" transform="rotate(203,146.0,103.0)" width="30" x="131" y="88" /><line stroke="black" stroke-width="2" transform="rotate(253,113.0,88.0)" x1="96" x2="130" y1="71" y2="105" /><rect fill="none" height="38" stroke="black" stroke-width="2" transform="rotate(272,48.0,130.0)" width="38" x="29" y="111" /><polygon fill="none" points="92,41 122,41 107.0,11" stroke="black" stroke-width="2" transform="rotate(126,107.0,26.0)" /><polygon fill="none" points="29,58 67,58 48.0,20" stroke="black" stroke-width="2" transform="rotate(45,48.0,39.0)" /><polygon fill="none" points="122,177 158,177 140.0,141" stroke="black" stroke-width="2" transform="rotate(342,140.0,159.0)" /><circle cx="47" cy="124" fill="none" r="22.0" stroke="black" stroke-width="2" /><rect fill="none" height="39" stroke="black" stroke-width="2" transform="rotate(351,166.5,161.5)" width="39" x="147" y="142" /><polygon fill="none" points="74,92 123,92 98.5,43" stroke="black" stroke-width="2" transform="rotate(68,98.5,67.5)" /></g><text font-family="Arial" font-size="18" text-anchor="middle" x="300" y="350">Options</text><text font-family="Arial" font-size="14" text-anchor="middle" x="175" y="380">Option 1</text><g transform="translate(100,400)"><rect fill="none" height="30" stroke="black" stroke-width="2" transform="rotate(203,146.0,103.0)" width="30" x="131" y="88" /><line stroke="black" stroke-width="2" transform="rotate(253,113.0,88.0)" x1="96" x2="130" y1="71" y2="105" /><rect fill="none" height="38" stroke="black" stroke-width="2" transform="rotate(272,48.0,130.0)" width="38" x="29" y="111" /><polygon fill="none" points="92,41 122,41 107.0,11" stroke="black" stroke-width="2" transform="rotate(126,107.0,26.0)" /><polygon fill="none" points="29,58 67,58 48.0,20" stroke="black" stroke-width="2" transform="rotate(45,48.0,39.0)" /><polygon fill="none" points="122,177 158,177 140.0,141" stroke="black" stroke-width="2" transform="rotate(342,140.0,159.0)" /><circle cx="47" cy="124" fill="none" r="22.0" stroke="black" stroke-width="2" /><rect fill="none" height="39" stroke="black" stroke-width="2" transform="rotate(351,166.5,161.5)" width="39" x="147" y="142" /><polygon fill="none" points="74,92 123,92 98.5,43" stroke="black" stroke-width="2" transform="rotate(68,98.5,67.5)" /></g><text font-family="Arial" font-size="14" text-anchor="middle" x="425" y="380">Option 2</text><g transform="translate(350,400)"><line stroke="black" stroke-width="2" transform="rotate(210,143.0,100.0)" x1="131" x2="155.0" y1="88" y2="112.0" /><polygon fill="none" points="96,92.76 123.2,92.76 109.6,71" stroke="black" stroke-width="2" transform="rotate(259,109.6,81.88)" /><line stroke="black" stroke-width="2" transform="rotate(276,44.2,126.2)" x1="29" x2="59.400000000000006" y1="111" y2="141.4" /><line stroke="black" stroke-width="2" transform="rotate(132,104.0,23.0)" x1="92" x2="116.0" y1="11" y2="35.0" /><polygon fill="none" points="29,44.32000000000001 59.400000000000006,44.32000000000001 44.2,20" stroke="black" stroke-width="2" transform="rotate(51,44.2,32.160000000000004)" /><polygon fill="none" points="122,164.04 150.8,164.04 136.4,141" stroke="black" stroke-width="2" transform="rotate(345,136.4,152.52)" /><line stroke="black" stroke-width="2" transform="rotate(22,64.6,141.6)" x1="47" x2="82.2" y1="124" y2="159.2" /><rect fill="none" height="24.960000000000004" stroke="black" stroke-width="2" transform="rotate(358,162.6,154.48)" width="31.200000000000003" x="147" y="142" /><polygon fill="none" points="74,74.36 113.2,74.36 93.6,43" stroke="black" stroke-width="2" transform="rotate(75,93.6,58.68)" /></g><text font-family="Arial" font-size="14" text-anchor="middle" x="175" y="630">Option 3</text><g transform="translate(100,650)"><line stroke="black" stroke-width="2" transform="rotate(210,143.0,100.0)" x1="131" x2="155.0" y1="88" y2="112.0" /><rect fill="none" height="21.760000000000005" stroke="black" stroke-width="2" transform="rotate(259,109.6,81.88)" width="27.200000000000003" x="96" y="71" /><rect fill="none" height="24.320000000000004" stroke="black" stroke-width="2" transform="rotate(278,44.2,123.16)" width="30.400000000000002" x="29" y="111" /><line stroke="black" stroke-width="2" transform="rotate(133,104.0,23.0)" x1="92" x2="116.0" y1="11" y2="35.0" /><rect fill="none" height="24.320000000000004" stroke="black" stroke-width="2" transform="rotate(51,44.2,32.160000000000004)" width="30.400000000000002" x="29" y="20" /><line stroke="black" stroke-width="2" transform="rotate(349,136.4,155.4)" x1="122" x2="150.8" y1="141" y2="169.8" /><polygon fill="none" points="47,152.16 82.2,152.16 64.6,124" stroke="black" stroke-width="2" transform="rotate(26,64.6,138.08)" /><line stroke="black" stroke-width="2" transform="rotate(355,162.6,157.6)" x1="147" x2="178.2" y1="142" y2="173.2" /><polygon fill="none" points="74,74.36 113.2,74.36 93.6,43" stroke="black" stroke-width="2" transform="rotate(73,93.6,58.68)" /></g><text font-family="Arial" font-size="14" text-anchor="middle" x="425" y="630">Option 4</text><g transform="translate(350,650)"><polygon fill="none" points="131,107.2 155.0,107.2 143.0,88" stroke="black" stroke-width="2" transform="rotate(209,143.0,97.6)" /><line stroke="black" stroke-width="2" transform="rotate(256,109.6,84.6)" x1="96" x2="123.2" y1="71" y2="98.2" /><polygon fill="none" points="29,135.32 59.400000000000006,135.32 44.2,111" stroke="black" stroke-width="2" transform="rotate(278,44.2,123.16)" /><line stroke="black" stroke-width="2" transform="rotate(133,104.0,23.0)" x1="92" x2="116.0" y1="11" y2="35.0" /><line stroke="black" stroke-width="2" transform="rotate(48,44.2,35.2)" x1="29" x2="59.400000000000006" y1="20" y2="50.400000000000006" /><polygon fill="none" points="122,164.04 150.8,164.04 136.4,141" stroke="black" stroke-width="2" transform="rotate(345,136.4,152.52)" /><polygon fill="none" points="47,152.16 82.2,152.16 64.6,124" stroke="black" stroke-width="2" transform="rotate(22,64.6,138.08)" /><polygon fill="none" points="147,166.96 178.2,166.96 162.6,142" stroke="black" stroke-width="2" transform="rotate(354,162.6,154.48)" /><polygon fill="none" points="74,74.36 113.2,74.36 93.6,43" stroke="black" stroke-width="2" transform="rotate(74,93.6,58.68)" /></g></svg>