<?xml version="1.0" encoding="utf-8" ?>
<svg baseProfile="full" height="1000px" version="1.1" width="600px" xmlns="http://www.w3.org/2000/svg" xmlns:ev="http://www.w3.org/2001/xml-events" xmlns:xlink="http://www.w3.org/1999/xlink"><defs /><rect fill="white" height="100%" width="100%" x="0" y="0" /><text font-family="Arial" font-size="24" text-anchor="middle" x="300" y="40">Visual Discrimination Test</text><text font-family="Arial" font-size="18" text-anchor="middle" x="300" y="80">Target Pattern</text><g transform="translate(200,100)"><polygon fill="none" points="11,142 47,142 29.0,106" stroke="black" stroke-width="2" transform="rotate(264,29.0,124.0)" /><polygon fill="none" points="114,41 144,41 129.0,11" stroke="black" stroke-width="2" transform="rotate(306,129.0,26.0)" /><rect fill="none" height="45" stroke="black" stroke-width="2" transform="rotate(275,57.5,148.5)" width="45" x="35" y="126" /><polygon fill="none" points="71,185 108,185 89.5,148" stroke="black" stroke-width="2" transform="rotate(203,89.5,166.5)" /><circle cx="63" cy="148" fill="none" r="16.5" stroke="black" stroke-width="2" /></g><text font-family="Arial" font-size="18" text-anchor="middle" x="300" y="350">Options</text><text font-family="Arial" font-size="14" text-anchor="middle" x="175" y="380">Option 1</text><g transform="translate(100,400)"><polygon fill="none" points="11,161.44 50.6,161.44 30.8,106" stroke="black" stroke-width="2" transform="rotate(270,30.8,133.72)" /><polygon fill="none" points="114,57.199999999999996 147.0,57.199999999999996 130.5,11" stroke="black" stroke-width="2" transform="rotate(313,130.5,34.099999999999994)" /><rect fill="none" height="69.30000000000001" stroke="black" stroke-width="2" transform="rotate(279,59.75,160.65)" width="49.50000000000001" x="35" y="126" /><polygon fill="none" points="71,204.98 111.7,204.98 91.35,148" stroke="black" stroke-width="2" transform="rotate(210,91.35,176.49)" /><circle cx="63" cy="148" fill="none" r="18.150000000000002" stroke="black" stroke-width="2" /></g><text font-family="Arial" font-size="14" text-anchor="middle" x="425" y="380">Option 2</text><g transform="translate(350,400)"><polygon fill="none" points="11,161.44 50.6,161.44 30.8,106" stroke="black" stroke-width="2" transform="rotate(268,30.8,133.72)" /><polygon fill="none" points="114,57.199999999999996 147.0,57.199999999999996 130.5,11" stroke="black" stroke-width="2" transform="rotate(309,130.5,34.099999999999994)" /><rect fill="none" height="69.30000000000001" stroke="black" stroke-width="2" transform="rotate(278,59.75,160.65)" width="49.50000000000001" x="35" y="126" /><polygon fill="none" points="71,204.98 111.7,204.98 91.35,148" stroke="black" stroke-width="2" transform="rotate(209,91.35,176.49)" /><circle cx="63" cy="148" fill="none" r="18.150000000000002" stroke="black" stroke-width="2" /></g><text font-family="Arial" font-size="14" text-anchor="middle" x="175" y="630">Option 3</text><g transform="translate(100,650)"><polygon fill="none" points="11,161.44 50.6,161.44 30.8,106" stroke="black" stroke-width="2" transform="rotate(268,30.8,133.72)" /><polygon fill="none" points="114,57.199999999999996 147.0,57.199999999999996 130.5,11" stroke="black" stroke-width="2" transform="rotate(312,130.5,34.099999999999994)" /><rect fill="none" height="69.30000000000001" stroke="black" stroke-width="2" transform="rotate(281,59.75,160.65)" width="49.50000000000001" x="35" y="126" /><polygon fill="none" points="71,204.98 111.7,204.98 91.35,148" stroke="black" stroke-width="2" transform="rotate(209,91.35,176.49)" /><circle cx="63" cy="148" fill="none" r="18.150000000000002" stroke="black" stroke-width="2" /></g><text font-family="Arial" font-size="14" text-anchor="middle" x="425" y="630">Option 4</text><g transform="translate(350,650)"><polygon fill="none" points="11,142 47,142 29.0,106" stroke="black" stroke-width="2" transform="rotate(264,29.0,124.0)" /><polygon fill="none" points="114,41 144,41 129.0,11" stroke="black" stroke-width="2" transform="rotate(306,129.0,26.0)" /><rect fill="none" height="45" stroke="black" stroke-width="2" transform="rotate(275,57.5,148.5)" width="45" x="35" y="126" /><polygon fill="none" points="71,185 108,185 89.5,148" stroke="black" stroke-width="2" transform="rotate(203,89.5,166.5)" /><circle cx="63" cy="148" fill="none" r="16.5" stroke="black" stroke-width="2" /></g></svg>