<?xml version="1.0" encoding="utf-8" ?>
<svg baseProfile="full" height="1000px" version="1.1" width="600px" xmlns="http://www.w3.org/2000/svg" xmlns:ev="http://www.w3.org/2001/xml-events" xmlns:xlink="http://www.w3.org/1999/xlink"><defs /><rect fill="white" height="100%" width="100%" x="0" y="0" /><text font-family="Arial" font-size="24" text-anchor="middle" x="300" y="40">Visual Discrimination Test</text><text font-family="Arial" font-size="18" text-anchor="middle" x="300" y="80">Target Pattern</text><g transform="translate(200,100)"><line stroke="black" stroke-width="2" transform="rotate(162,143.0,135.0)" x1="118" x2="168" y1="110" y2="160" /><rect fill="none" height="39" stroke="black" stroke-width="2" transform="rotate(275,90.5,139.5)" width="39" x="71" y="120" /><rect fill="none" height="50" stroke="black" stroke-width="2" transform="rotate(328,164.0,105.0)" width="50" x="139" y="80" /><line stroke="black" stroke-width="2" transform="rotate(130,42.0,89.0)" x1="26" x2="58" y1="73" y2="105" /><polygon fill="none" points="116,44 148,44 132.0,12" stroke="black" stroke-width="2" transform="rotate(64,132.0,28.0)" /><circle cx="49" cy="124" fill="none" r="23.0" stroke="black" stroke-width="2" /><line stroke="black" stroke-width="2" transform="rotate(33,107.0,78.0)" x1="86" x2="128" y1="57" y2="99" /><rect fill="none" height="32" stroke="black" stroke-width="2" transform="rotate(272,42.0,137.0)" width="32" x="26" y="121" /><rect fill="none" height="41" stroke="black" stroke-width="2" transform="rotate(267,58.5,93.5)" width="41" x="38" y="73" /><circle cx="15" cy="45" fill="none" r="17.5" stroke="black" stroke-width="2" /></g><text font-family="Arial" font-size="18" text-anchor="middle" x="300" y="350">Options</text><text font-family="Arial" font-size="14" text-anchor="middle" x="175" y="380">Option 1</text><g transform="translate(100,400)"><line stroke="black" stroke-width="2" transform="rotate(166,145.5,137.5)" x1="118" x2="173.0" y1="110" y2="165.0" /><rect fill="none" height="60.06" stroke="black" stroke-width="2" transform="rotate(278,92.45,150.03)" width="42.900000000000006" x="71" y="120" /><rect fill="none" height="77.0" stroke="black" stroke-width="2" transform="rotate(332,166.5,118.5)" width="55.00000000000001" x="139" y="80" /><line stroke="black" stroke-width="2" transform="rotate(136,43.6,90.6)" x1="26" x2="61.2" y1="73" y2="108.2" /><polygon fill="none" points="116,61.28 151.2,61.28 133.6,12" stroke="black" stroke-width="2" transform="rotate(71,133.6,36.64)" /><circle cx="49" cy="124" fill="none" r="25.3" stroke="black" stroke-width="2" /><line stroke="black" stroke-width="2" transform="rotate(36,109.1,80.1)" x1="86" x2="132.2" y1="57" y2="103.2" /><rect fill="none" height="49.28" stroke="black" stroke-width="2" transform="rotate(278,43.6,145.64)" width="35.2" x="26" y="121" /><rect fill="none" height="63.14" stroke="black" stroke-width="2" transform="rotate(270,60.55,104.57)" width="45.1" x="38" y="73" /><circle cx="15" cy="45" fill="none" r="19.25" stroke="black" stroke-width="2" /></g><text font-family="Arial" font-size="14" text-anchor="middle" x="425" y="380">Option 2</text><g transform="translate(350,400)"><line stroke="black" stroke-width="2" transform="rotate(162,143.0,135.0)" x1="118" x2="168" y1="110" y2="160" /><rect fill="none" height="39" stroke="black" stroke-width="2" transform="rotate(275,90.5,139.5)" width="39" x="71" y="120" /><rect fill="none" height="50" stroke="black" stroke-width="2" transform="rotate(328,164.0,105.0)" width="50" x="139" y="80" /><line stroke="black" stroke-width="2" transform="rotate(130,42.0,89.0)" x1="26" x2="58" y1="73" y2="105" /><polygon fill="none" points="116,44 148,44 132.0,12" stroke="black" stroke-width="2" transform="rotate(64,132.0,28.0)" /><circle cx="49" cy="124" fill="none" r="23.0" stroke="black" stroke-width="2" /><line stroke="black" stroke-width="2" transform="rotate(33,107.0,78.0)" x1="86" x2="128" y1="57" y2="99" /><rect fill="none" height="32" stroke="black" stroke-width="2" transform="rotate(272,42.0,137.0)" width="32" x="26" y="121" /><rect fill="none" height="41" stroke="black" stroke-width="2" transform="rotate(267,58.5,93.5)" width="41" x="38" y="73" /><circle cx="15" cy="45" fill="none" r="17.5" stroke="black" stroke-width="2" /></g><text font-family="Arial" font-size="14" text-anchor="middle" x="175" y="630">Option 3</text><g transform="translate(100,650)"><line stroke="black" stroke-width="2" transform="rotate(165,145.5,137.5)" x1="118" x2="173.0" y1="110" y2="165.0" /><rect fill="none" height="60.06" stroke="black" stroke-width="2" transform="rotate(280,92.45,150.03)" width="42.900000000000006" x="71" y="120" /><rect fill="none" height="77.0" stroke="black" stroke-width="2" transform="rotate(334,166.5,118.5)" width="55.00000000000001" x="139" y="80" /><line stroke="black" stroke-width="2" transform="rotate(133,43.6,90.6)" x1="26" x2="61.2" y1="73" y2="108.2" /><polygon fill="none" points="116,61.28 151.2,61.28 133.6,12" stroke="black" stroke-width="2" transform="rotate(69,133.6,36.64)" /><circle cx="49" cy="124" fill="none" r="25.3" stroke="black" stroke-width="2" /><line stroke="black" stroke-width="2" transform="rotate(39,109.1,80.1)" x1="86" x2="132.2" y1="57" y2="103.2" /><rect fill="none" height="49.28" stroke="black" stroke-width="2" transform="rotate(277,43.6,145.64)" width="35.2" x="26" y="121" /><rect fill="none" height="63.14" stroke="black" stroke-width="2" transform="rotate(272,60.55,104.57)" width="45.1" x="38" y="73" /><circle cx="15" cy="45" fill="none" r="19.25" stroke="black" stroke-width="2" /></g><text font-family="Arial" font-size="14" text-anchor="middle" x="425" y="630">Option 4</text><g transform="translate(350,650)"><line stroke="black" stroke-width="2" transform="rotate(165,145.5,137.5)" x1="118" x2="173.0" y1="110" y2="165.0" /><rect fill="none" height="60.06" stroke="black" stroke-width="2" transform="rotate(281,92.45,150.03)" width="42.900000000000006" x="71" y="120" /><rect fill="none" height="77.0" stroke="black" stroke-width="2" transform="rotate(331,166.5,118.5)" width="55.00000000000001" x="139" y="80" /><line stroke="black" stroke-width="2" transform="rotate(135,43.6,90.6)" x1="26" x2="61.2" y1="73" y2="108.2" /><polygon fill="none" points="116,61.28 151.2,61.28 133.6,12" stroke="black" stroke-width="2" transform="rotate(67,133.6,36.64)" /><circle cx="49" cy="124" fill="none" r="25.3" stroke="black" stroke-width="2" /><line stroke="black" stroke-width="2" transform="rotate(36,109.1,80.1)" x1="86" x2="132.2" y1="57" y2="103.2" /><rect fill="none" height="49.28" stroke="black" stroke-width="2" transform="rotate(278,43.6,145.64)" width="35.2" x="26" y="121" /><rect fill="none" height="63.14" stroke="black" stroke-width="2" transform="rotate(273,60.55,104.57)" width="45.1" x="38" y="73" /><circle cx="15" cy="45" fill="none" r="19.25" stroke="black" stroke-width="2" /></g></svg>