<?xml version="1.0" encoding="utf-8" ?>
<svg baseProfile="full" height="1000px" version="1.1" width="600px" xmlns="http://www.w3.org/2000/svg" xmlns:ev="http://www.w3.org/2001/xml-events" xmlns:xlink="http://www.w3.org/1999/xlink"><defs /><rect fill="white" height="100%" width="100%" x="0" y="0" /><text font-family="Arial" font-size="24" text-anchor="middle" x="300" y="40">Visual Discrimination Test</text><text font-family="Arial" font-size="18" text-anchor="middle" x="300" y="80">Target Pattern</text><g transform="translate(200,100)"><circle cx="102" cy="50" fill="none" r="20.0" stroke="black" stroke-width="2" /><line stroke="black" stroke-width="2" transform="rotate(169,158.0,136.0)" x1="139" x2="177" y1="117" y2="155" /><circle cx="120" cy="43" fill="none" r="15.5" stroke="black" stroke-width="2" /><line stroke="black" stroke-width="2" transform="rotate(171,156.0,36.0)" x1="136" x2="176" y1="16" y2="56" /><line stroke="black" stroke-width="2" transform="rotate(341,120.0,144.0)" x1="96" x2="144" y1="120" y2="168" /><line stroke="black" stroke-width="2" transform="rotate(278,68.5,158.5)" x1="44" x2="93" y1="134" y2="183" /><line stroke="black" stroke-width="2" transform="rotate(73,90.5,45.5)" x1="68" x2="113" y1="23" y2="68" /><circle cx="28" cy="82" fill="none" r="16.5" stroke="black" stroke-width="2" /><circle cx="59" cy="13" fill="none" r="22.5" stroke="black" stroke-width="2" /></g><text font-family="Arial" font-size="18" text-anchor="middle" x="300" y="350">Options</text><text font-family="Arial" font-size="14" text-anchor="middle" x="175" y="380">Option 1</text><g transform="translate(100,400)"><circle cx="102" cy="50" fill="none" r="22.0" stroke="black" stroke-width="2" /><line stroke="black" stroke-width="2" transform="rotate(176,159.9,137.9)" x1="139" x2="180.8" y1="117" y2="158.8" /><circle cx="120" cy="43" fill="none" r="17.05" stroke="black" stroke-width="2" /><line stroke="black" stroke-width="2" transform="rotate(177,158.0,38.0)" x1="136" x2="180.0" y1="16" y2="60.0" /><line stroke="black" stroke-width="2" transform="rotate(348,122.4,146.4)" x1="96" x2="148.8" y1="120" y2="172.8" /><line stroke="black" stroke-width="2" transform="rotate(282,70.95,160.95)" x1="44" x2="97.9" y1="134" y2="187.9" /><line stroke="black" stroke-width="2" transform="rotate(76,92.75,47.75)" x1="68" x2="117.5" y1="23" y2="72.5" /><circle cx="28" cy="82" fill="none" r="18.150000000000002" stroke="black" stroke-width="2" /><circle cx="59" cy="13" fill="none" r="24.750000000000004" stroke="black" stroke-width="2" /></g><text font-family="Arial" font-size="14" text-anchor="middle" x="425" y="380">Option 2</text><g transform="translate(350,400)"><circle cx="102" cy="50" fill="none" r="22.0" stroke="black" stroke-width="2" /><line stroke="black" stroke-width="2" transform="rotate(175,159.9,137.9)" x1="139" x2="180.8" y1="117" y2="158.8" /><circle cx="120" cy="43" fill="none" r="17.05" stroke="black" stroke-width="2" /><line stroke="black" stroke-width="2" transform="rotate(174,158.0,38.0)" x1="136" x2="180.0" y1="16" y2="60.0" /><line stroke="black" stroke-width="2" transform="rotate(346,122.4,146.4)" x1="96" x2="148.8" y1="120" y2="172.8" /><line stroke="black" stroke-width="2" transform="rotate(281,70.95,160.95)" x1="44" x2="97.9" y1="134" y2="187.9" /><line stroke="black" stroke-width="2" transform="rotate(80,92.75,47.75)" x1="68" x2="117.5" y1="23" y2="72.5" /><circle cx="28" cy="82" fill="none" r="18.150000000000002" stroke="black" stroke-width="2" /><circle cx="59" cy="13" fill="none" r="24.750000000000004" stroke="black" stroke-width="2" /></g><text font-family="Arial" font-size="14" text-anchor="middle" x="175" y="630">Option 3</text><g transform="translate(100,650)"><circle cx="102" cy="50" fill="none" r="22.0" stroke="black" stroke-width="2" /><line stroke="black" stroke-width="2" transform="rotate(174,159.9,137.9)" x1="139" x2="180.8" y1="117" y2="158.8" /><circle cx="120" cy="43" fill="none" r="17.05" stroke="black" stroke-width="2" /><line stroke="black" stroke-width="2" transform="rotate(174,158.0,38.0)" x1="136" x2="180.0" y1="16" y2="60.0" /><line stroke="black" stroke-width="2" transform="rotate(345,122.4,146.4)" x1="96" x2="148.8" y1="120" y2="172.8" /><line stroke="black" stroke-width="2" transform="rotate(282,70.95,160.95)" x1="44" x2="97.9" y1="134" y2="187.9" /><line stroke="black" stroke-width="2" transform="rotate(76,92.75,47.75)" x1="68" x2="117.5" y1="23" y2="72.5" /><circle cx="28" cy="82" fill="none" r="18.150000000000002" stroke="black" stroke-width="2" /><circle cx="59" cy="13" fill="none" r="24.750000000000004" stroke="black" stroke-width="2" /></g><text font-family="Arial" font-size="14" text-anchor="middle" x="425" y="630">Option 4</text><g transform="translate(350,650)"><circle cx="102" cy="50" fill="none" r="20.0" stroke="black" stroke-width="2" /><line stroke="black" stroke-width="2" transform="rotate(169,158.0,136.0)" x1="139" x2="177" y1="117" y2="155" /><circle cx="120" cy="43" fill="none" r="15.5" stroke="black" stroke-width="2" /><line stroke="black" stroke-width="2" transform="rotate(171,156.0,36.0)" x1="136" x2="176" y1="16" y2="56" /><line stroke="black" stroke-width="2" transform="rotate(341,120.0,144.0)" x1="96" x2="144" y1="120" y2="168" /><line stroke="black" stroke-width="2" transform="rotate(278,68.5,158.5)" x1="44" x2="93" y1="134" y2="183" /><line stroke="black" stroke-width="2" transform="rotate(73,90.5,45.5)" x1="68" x2="113" y1="23" y2="68" /><circle cx="28" cy="82" fill="none" r="16.5" stroke="black" stroke-width="2" /><circle cx="59" cy="13" fill="none" r="22.5" stroke="black" stroke-width="2" /></g></svg>