<?xml version="1.0" encoding="utf-8" ?>
<svg baseProfile="full" height="1000px" version="1.1" width="600px" xmlns="http://www.w3.org/2000/svg" xmlns:ev="http://www.w3.org/2001/xml-events" xmlns:xlink="http://www.w3.org/1999/xlink"><defs /><rect fill="white" height="100%" width="100%" x="0" y="0" /><text font-family="Arial" font-size="24" text-anchor="middle" x="300" y="40">Visual Discrimination Test</text><text font-family="Arial" font-size="18" text-anchor="middle" x="300" y="80">Target Pattern</text><g transform="translate(200,100)"><rect fill="none" height="44" stroke="black" stroke-width="2" transform="rotate(163,135.0,78.0)" width="44" x="113" y="56" /><rect fill="none" height="34" stroke="black" stroke-width="2" transform="rotate(336,153.0,76.0)" width="34" x="136" y="59" /></g><text font-family="Arial" font-size="18" text-anchor="middle" x="300" y="350">Options</text><text font-family="Arial" font-size="14" text-anchor="middle" x="175" y="380">Option 1</text><g transform="translate(100,400)"><rect fill="none" height="67.76" stroke="black" stroke-width="2" transform="rotate(170,137.2,89.88)" width="48.400000000000006" x="113" y="56" /><rect fill="none" height="52.36000000000001" stroke="black" stroke-width="2" transform="rotate(343,154.7,85.18)" width="37.400000000000006" x="136" y="59" /></g><text font-family="Arial" font-size="14" text-anchor="middle" x="425" y="380">Option 2</text><g transform="translate(350,400)"><rect fill="none" height="67.76" stroke="black" stroke-width="2" transform="rotate(170,137.2,89.88)" width="48.400000000000006" x="113" y="56" /><rect fill="none" height="52.36000000000001" stroke="black" stroke-width="2" transform="rotate(343,154.7,85.18)" width="37.400000000000006" x="136" y="59" /></g><text font-family="Arial" font-size="14" text-anchor="middle" x="175" y="630">Option 3</text><g transform="translate(100,650)"><rect fill="none" height="44" stroke="black" stroke-width="2" transform="rotate(163,135.0,78.0)" width="44" x="113" y="56" /><rect fill="none" height="34" stroke="black" stroke-width="2" transform="rotate(336,153.0,76.0)" width="34" x="136" y="59" /></g><text font-family="Arial" font-size="14" text-anchor="middle" x="425" y="630">Option 4</text><g transform="translate(350,650)"><rect fill="none" height="67.76" stroke="black" stroke-width="2" transform="rotate(167,137.2,89.88)" width="48.400000000000006" x="113" y="56" /><rect fill="none" height="52.36000000000001" stroke="black" stroke-width="2" transform="rotate(341,154.7,85.18)" width="37.400000000000006" x="136" y="59" /></g></svg>