<?xml version="1.0" encoding="utf-8" ?>
<svg baseProfile="full" height="1000px" version="1.1" width="600px" xmlns="http://www.w3.org/2000/svg" xmlns:ev="http://www.w3.org/2001/xml-events" xmlns:xlink="http://www.w3.org/1999/xlink"><defs /><rect fill="white" height="100%" width="100%" x="0" y="0" /><text font-family="Arial" font-size="24" text-anchor="middle" x="300" y="40">Visual Discrimination Test</text><text font-family="Arial" font-size="18" text-anchor="middle" x="300" y="80">Target Pattern</text><g transform="translate(200,100)"><rect fill="none" height="45" stroke="black" stroke-width="2" transform="rotate(77,129.5,166.5)" width="45" x="107" y="144" /><rect fill="none" height="35" stroke="black" stroke-width="2" transform="rotate(344,91.5,131.5)" width="35" x="74" y="114" /><line stroke="black" stroke-width="2" transform="rotate(155,62.5,146.5)" x1="38" x2="87" y1="122" y2="171" /><line stroke="black" stroke-width="2" transform="rotate(308,34.0,115.0)" x1="14" x2="54" y1="95" y2="135" /><line stroke="black" stroke-width="2" transform="rotate(85,82.5,104.5)" x1="62" x2="103" y1="84" y2="125" /><circle cx="56" cy="24" fill="none" r="15.5" stroke="black" stroke-width="2" /><circle cx="107" cy="138" fill="none" r="18.0" stroke="black" stroke-width="2" /><polygon fill="none" points="96,122 145,122 120.5,73" stroke="black" stroke-width="2" transform="rotate(347,120.5,97.5)" /></g><text font-family="Arial" font-size="18" text-anchor="middle" x="300" y="350">Options</text><text font-family="Arial" font-size="14" text-anchor="middle" x="175" y="380">Option 1</text><g transform="translate(100,400)"><rect fill="none" height="69.30000000000001" stroke="black" stroke-width="2" transform="rotate(84,131.75,178.65)" width="49.50000000000001" x="107" y="144" /><rect fill="none" height="53.9" stroke="black" stroke-width="2" transform="rotate(349,93.25,140.95)" width="38.5" x="74" y="114" /><line stroke="black" stroke-width="2" transform="rotate(158,64.95,148.95)" x1="38" x2="91.9" y1="122" y2="175.9" /><line stroke="black" stroke-width="2" transform="rotate(315,36.0,117.0)" x1="14" x2="58.0" y1="95" y2="139.0" /><line stroke="black" stroke-width="2" transform="rotate(92,84.55,106.55)" x1="62" x2="107.1" y1="84" y2="129.1" /><circle cx="56" cy="24" fill="none" r="17.05" stroke="black" stroke-width="2" /><circle cx="107" cy="138" fill="none" r="19.8" stroke="black" stroke-width="2" /><polygon fill="none" points="96,148.46 149.9,148.46 122.95,73" stroke="black" stroke-width="2" transform="rotate(353,122.95,110.73)" /></g><text font-family="Arial" font-size="14" text-anchor="middle" x="425" y="380">Option 2</text><g transform="translate(350,400)"><rect fill="none" height="69.30000000000001" stroke="black" stroke-width="2" transform="rotate(82,131.75,178.65)" width="49.50000000000001" x="107" y="144" /><rect fill="none" height="53.9" stroke="black" stroke-width="2" transform="rotate(348,93.25,140.95)" width="38.5" x="74" y="114" /><line stroke="black" stroke-width="2" transform="rotate(160,64.95,148.95)" x1="38" x2="91.9" y1="122" y2="175.9" /><line stroke="black" stroke-width="2" transform="rotate(311,36.0,117.0)" x1="14" x2="58.0" y1="95" y2="139.0" /><line stroke="black" stroke-width="2" transform="rotate(88,84.55,106.55)" x1="62" x2="107.1" y1="84" y2="129.1" /><circle cx="56" cy="24" fill="none" r="17.05" stroke="black" stroke-width="2" /><circle cx="107" cy="138" fill="none" r="19.8" stroke="black" stroke-width="2" /><polygon fill="none" points="96,148.46 149.9,148.46 122.95,73" stroke="black" stroke-width="2" transform="rotate(352,122.95,110.73)" /></g><text font-family="Arial" font-size="14" text-anchor="middle" x="175" y="630">Option 3</text><g transform="translate(100,650)"><rect fill="none" height="45" stroke="black" stroke-width="2" transform="rotate(77,129.5,166.5)" width="45" x="107" y="144" /><rect fill="none" height="35" stroke="black" stroke-width="2" transform="rotate(344,91.5,131.5)" width="35" x="74" y="114" /><line stroke="black" stroke-width="2" transform="rotate(155,62.5,146.5)" x1="38" x2="87" y1="122" y2="171" /><line stroke="black" stroke-width="2" transform="rotate(308,34.0,115.0)" x1="14" x2="54" y1="95" y2="135" /><line stroke="black" stroke-width="2" transform="rotate(85,82.5,104.5)" x1="62" x2="103" y1="84" y2="125" /><circle cx="56" cy="24" fill="none" r="15.5" stroke="black" stroke-width="2" /><circle cx="107" cy="138" fill="none" r="18.0" stroke="black" stroke-width="2" /><polygon fill="none" points="96,122 145,122 120.5,73" stroke="black" stroke-width="2" transform="rotate(347,120.5,97.5)" /></g><text font-family="Arial" font-size="14" text-anchor="middle" x="425" y="630">Option 4</text><g transform="translate(350,650)"><rect fill="none" height="69.30000000000001" stroke="black" stroke-width="2" transform="rotate(84,131.75,178.65)" width="49.50000000000001" x="107" y="144" /><rect fill="none" height="53.9" stroke="black" stroke-width="2" transform="rotate(347,93.25,140.95)" width="38.5" x="74" y="114" /><line stroke="black" stroke-width="2" transform="rotate(159,64.95,148.95)" x1="38" x2="91.9" y1="122" y2="175.9" /><line stroke="black" stroke-width="2" transform="rotate(311,36.0,117.0)" x1="14" x2="58.0" y1="95" y2="139.0" /><line stroke="black" stroke-width="2" transform="rotate(88,84.55,106.55)" x1="62" x2="107.1" y1="84" y2="129.1" /><circle cx="56" cy="24" fill="none" r="17.05" stroke="black" stroke-width="2" /><circle cx="107" cy="138" fill="none" r="19.8" stroke="black" stroke-width="2" /><polygon fill="none" points="96,148.46 149.9,148.46 122.95,73" stroke="black" stroke-width="2" transform="rotate(354,122.95,110.73)" /></g></svg>