<?xml version="1.0" encoding="utf-8" ?>
<svg baseProfile="full" height="1000px" version="1.1" width="600px" xmlns="http://www.w3.org/2000/svg" xmlns:ev="http://www.w3.org/2001/xml-events" xmlns:xlink="http://www.w3.org/1999/xlink"><defs /><rect fill="white" height="100%" width="100%" x="0" y="0" /><text font-family="Arial" font-size="24" text-anchor="middle" x="300" y="40">Visual Discrimination Test</text><text font-family="Arial" font-size="18" text-anchor="middle" x="300" y="80">Target Pattern</text><g transform="translate(200,100)"><rect fill="none" height="33" stroke="black" stroke-width="2" transform="rotate(247,143.5,63.5)" width="33" x="127" y="47" /><line stroke="black" stroke-width="2" transform="rotate(148,78.5,148.5)" x1="62" x2="95" y1="132" y2="165" /><circle cx="29" cy="113" fill="none" r="23.0" stroke="black" stroke-width="2" /></g><text font-family="Arial" font-size="18" text-anchor="middle" x="300" y="350">Options</text><text font-family="Arial" font-size="14" text-anchor="middle" x="175" y="380">Option 1</text><g transform="translate(100,400)"><rect fill="none" height="50.82" stroke="black" stroke-width="2" transform="rotate(250,145.15,72.41)" width="36.300000000000004" x="127" y="47" /><line stroke="black" stroke-width="2" transform="rotate(153,80.15,150.15)" x1="62" x2="98.30000000000001" y1="132" y2="168.3" /><polygon fill="none" points="29,183.84 79.6,183.84 54.3,113" stroke="black" stroke-width="2" transform="rotate(272,54.3,148.42000000000002)" /></g><text font-family="Arial" font-size="14" text-anchor="middle" x="425" y="380">Option 2</text><g transform="translate(350,400)"><polygon fill="none" points="127,97.82 163.3,97.82 145.15,47" stroke="black" stroke-width="2" transform="rotate(253,145.15,72.41)" /><polygon fill="none" points="62,182.82 98.30000000000001,182.82 80.15,132" stroke="black" stroke-width="2" transform="rotate(155,80.15,157.41)" /><rect fill="none" height="70.84" stroke="black" stroke-width="2" transform="rotate(273,54.3,148.42000000000002)" width="50.6" x="29" y="113" /></g><text font-family="Arial" font-size="14" text-anchor="middle" x="175" y="630">Option 3</text><g transform="translate(100,650)"><rect fill="none" height="33" stroke="black" stroke-width="2" transform="rotate(247,143.5,63.5)" width="33" x="127" y="47" /><line stroke="black" stroke-width="2" transform="rotate(148,78.5,148.5)" x1="62" x2="95" y1="132" y2="165" /><circle cx="29" cy="113" fill="none" r="23.0" stroke="black" stroke-width="2" /></g><text font-family="Arial" font-size="14" text-anchor="middle" x="425" y="630">Option 4</text><g transform="translate(350,650)"><line stroke="black" stroke-width="2" transform="rotate(250,145.15,65.15)" x1="127" x2="163.3" y1="47" y2="83.30000000000001" /><line stroke="black" stroke-width="2" transform="rotate(155,80.15,150.15)" x1="62" x2="98.30000000000001" y1="132" y2="168.3" /><rect fill="none" height="70.84" stroke="black" stroke-width="2" transform="rotate(271,54.3,148.42000000000002)" width="50.6" x="29" y="113" /></g></svg>