<?xml version="1.0" encoding="utf-8" ?>
<svg baseProfile="full" height="1000px" version="1.1" width="600px" xmlns="http://www.w3.org/2000/svg" xmlns:ev="http://www.w3.org/2001/xml-events" xmlns:xlink="http://www.w3.org/1999/xlink"><defs /><rect fill="white" height="100%" width="100%" x="0" y="0" /><text font-family="Arial" font-size="24" text-anchor="middle" x="300" y="40">Visual Discrimination Test</text><text font-family="Arial" font-size="18" text-anchor="middle" x="300" y="80">Target Pattern</text><g transform="translate(200,100)"><polygon fill="none" points="34,149 64,149 49.0,119" stroke="black" stroke-width="2" transform="rotate(254,49.0,134.0)" /><line stroke="black" stroke-width="2" transform="rotate(344,96.0,92.0)" x1="71" x2="121" y1="67" y2="117" /><rect fill="none" height="31" stroke="black" stroke-width="2" transform="rotate(86,57.5,84.5)" width="31" x="42" y="69" /><polygon fill="none" points="86,98 123,98 104.5,61" stroke="black" stroke-width="2" transform="rotate(169,104.5,79.5)" /><polygon fill="none" points="94,134 132,134 113.0,96" stroke="black" stroke-width="2" transform="rotate(249,113.0,115.0)" /><line stroke="black" stroke-width="2" transform="rotate(269,163.5,107.5)" x1="142" x2="185" y1="86" y2="129" /><polygon fill="none" points="97,149 135,149 116.0,111" stroke="black" stroke-width="2" transform="rotate(66,116.0,130.0)" /><rect fill="none" height="33" stroke="black" stroke-width="2" transform="rotate(267,107.5,64.5)" width="33" x="91" y="48" /><circle cx="76" cy="144" fill="none" r="18.0" stroke="black" stroke-width="2" /><circle cx="95" cy="52" fill="none" r="16.0" stroke="black" stroke-width="2" /></g><text font-family="Arial" font-size="18" text-anchor="middle" x="300" y="350">Options</text><text font-family="Arial" font-size="14" text-anchor="middle" x="175" y="380">Option 1</text><g transform="translate(100,400)"><line stroke="black" stroke-width="2" transform="rotate(259,50.5,135.5)" x1="34" x2="67.0" y1="119" y2="152.0" /><rect fill="none" height="77.0" stroke="black" stroke-width="2" transform="rotate(350,98.5,105.5)" width="55.00000000000001" x="71" y="67" /><line stroke="black" stroke-width="2" transform="rotate(91,59.05,86.05)" x1="42" x2="76.1" y1="69" y2="103.1" /><polygon fill="none" points="86,117.97999999999999 126.7,117.97999999999999 106.35,61" stroke="black" stroke-width="2" transform="rotate(175,106.35,89.49)" /><line stroke="black" stroke-width="2" transform="rotate(256,114.9,116.9)" x1="94" x2="135.8" y1="96" y2="137.8" /><rect fill="none" height="66.22" stroke="black" stroke-width="2" transform="rotate(274,165.65,119.11)" width="47.300000000000004" x="142" y="86" /><line stroke="black" stroke-width="2" transform="rotate(70,117.9,131.9)" x1="97" x2="138.8" y1="111" y2="152.8" /><line stroke="black" stroke-width="2" transform="rotate(272,109.15,66.15)" x1="91" x2="127.30000000000001" y1="48" y2="84.30000000000001" /><rect fill="none" height="55.44" stroke="black" stroke-width="2" transform="rotate(180,95.8,171.72)" width="39.6" x="76" y="144" /><line stroke="black" stroke-width="2" transform="rotate(98,112.6,69.6)" x1="95" x2="130.2" y1="52" y2="87.2" /></g><text font-family="Arial" font-size="14" text-anchor="middle" x="425" y="380">Option 2</text><g transform="translate(350,400)"><line stroke="black" stroke-width="2" transform="rotate(258,50.5,135.5)" x1="34" x2="67.0" y1="119" y2="152.0" /><rect fill="none" height="77.0" stroke="black" stroke-width="2" transform="rotate(351,98.5,105.5)" width="55.00000000000001" x="71" y="67" /><rect fill="none" height="47.74" stroke="black" stroke-width="2" transform="rotate(90,59.05,92.87)" width="34.1" x="42" y="69" /><rect fill="none" height="56.98" stroke="black" stroke-width="2" transform="rotate(175,106.35,89.49)" width="40.7" x="86" y="61" /><line stroke="black" stroke-width="2" transform="rotate(253,114.9,116.9)" x1="94" x2="135.8" y1="96" y2="137.8" /><line stroke="black" stroke-width="2" transform="rotate(276,165.65,109.65)" x1="142" x2="189.3" y1="86" y2="133.3" /><polygon fill="none" points="97,169.52 138.8,169.52 117.9,111" stroke="black" stroke-width="2" transform="rotate(72,117.9,140.26)" /><line stroke="black" stroke-width="2" transform="rotate(273,109.15,66.15)" x1="91" x2="127.30000000000001" y1="48" y2="84.30000000000001" /><polygon fill="none" points="76,199.44 115.6,199.44 95.8,144" stroke="black" stroke-width="2" transform="rotate(179,95.8,171.72)" /><polygon fill="none" points="95,101.28 130.2,101.28 112.6,52" stroke="black" stroke-width="2" transform="rotate(99,112.6,76.64)" /></g><text font-family="Arial" font-size="14" text-anchor="middle" x="175" y="630">Option 3</text><g transform="translate(100,650)"><polygon fill="none" points="34,165.2 67.0,165.2 50.5,119" stroke="black" stroke-width="2" transform="rotate(261,50.5,142.1)" /><line stroke="black" stroke-width="2" transform="rotate(351,98.5,94.5)" x1="71" x2="126.0" y1="67" y2="122.0" /><polygon fill="none" points="42,116.74000000000001 76.1,116.74000000000001 59.05,69" stroke="black" stroke-width="2" transform="rotate(90,59.05,92.87)" /><line stroke="black" stroke-width="2" transform="rotate(174,106.35,81.35)" x1="86" x2="126.7" y1="61" y2="101.7" /><rect fill="none" height="58.52" stroke="black" stroke-width="2" transform="rotate(253,114.9,125.26)" width="41.800000000000004" x="94" y="96" /><polygon fill="none" points="142,152.22 189.3,152.22 165.65,86" stroke="black" stroke-width="2" transform="rotate(272,165.65,119.11)" /><line stroke="black" stroke-width="2" transform="rotate(71,117.9,131.9)" x1="97" x2="138.8" y1="111" y2="152.8" /><polygon fill="none" points="91,98.82 127.30000000000001,98.82 109.15,48" stroke="black" stroke-width="2" transform="rotate(270,109.15,73.41)" /><rect fill="none" height="55.44" stroke="black" stroke-width="2" transform="rotate(178,95.8,171.72)" width="39.6" x="76" y="144" /><line stroke="black" stroke-width="2" transform="rotate(101,112.6,69.6)" x1="95" x2="130.2" y1="52" y2="87.2" /></g><text font-family="Arial" font-size="14" text-anchor="middle" x="425" y="630">Option 4</text><g transform="translate(350,650)"><polygon fill="none" points="34,149 64,149 49.0,119" stroke="black" stroke-width="2" transform="rotate(254,49.0,134.0)" /><line stroke="black" stroke-width="2" transform="rotate(344,96.0,92.0)" x1="71" x2="121" y1="67" y2="117" /><rect fill="none" height="31" stroke="black" stroke-width="2" transform="rotate(86,57.5,84.5)" width="31" x="42" y="69" /><polygon fill="none" points="86,98 123,98 104.5,61" stroke="black" stroke-width="2" transform="rotate(169,104.5,79.5)" /><polygon fill="none" points="94,134 132,134 113.0,96" stroke="black" stroke-width="2" transform="rotate(249,113.0,115.0)" /><line stroke="black" stroke-width="2" transform="rotate(269,163.5,107.5)" x1="142" x2="185" y1="86" y2="129" /><polygon fill="none" points="97,149 135,149 116.0,111" stroke="black" stroke-width="2" transform="rotate(66,116.0,130.0)" /><rect fill="none" height="33" stroke="black" stroke-width="2" transform="rotate(267,107.5,64.5)" width="33" x="91" y="48" /><circle cx="76" cy="144" fill="none" r="18.0" stroke="black" stroke-width="2" /><circle cx="95" cy="52" fill="none" r="16.0" stroke="black" stroke-width="2" /></g></svg>