<?xml version="1.0" encoding="utf-8" ?>
<svg baseProfile="full" height="1000px" version="1.1" width="600px" xmlns="http://www.w3.org/2000/svg" xmlns:ev="http://www.w3.org/2001/xml-events" xmlns:xlink="http://www.w3.org/1999/xlink"><defs /><rect fill="white" height="100%" width="100%" x="0" y="0" /><text font-family="Arial" font-size="24" text-anchor="middle" x="300" y="40">Visual Discrimination Test</text><text font-family="Arial" font-size="18" text-anchor="middle" x="300" y="80">Target Pattern</text><g transform="translate(200,100)"><circle cx="14" cy="60" fill="none" r="20.0" stroke="black" stroke-width="2" /><rect fill="none" height="48" stroke="black" stroke-width="2" transform="rotate(140,138.0,168.0)" width="48" x="114" y="144" /></g><text font-family="Arial" font-size="18" text-anchor="middle" x="300" y="350">Options</text><text font-family="Arial" font-size="14" text-anchor="middle" x="175" y="380">Option 1</text><g transform="translate(100,400)"><circle cx="14" cy="60" fill="none" r="20.0" stroke="black" stroke-width="2" /><rect fill="none" height="48" stroke="black" stroke-width="2" transform="rotate(140,138.0,168.0)" width="48" x="114" y="144" /></g><text font-family="Arial" font-size="14" text-anchor="middle" x="425" y="380">Option 2</text><g transform="translate(350,400)"><polygon fill="none" points="14,121.6 58.0,121.6 36.0,60" stroke="black" stroke-width="2" transform="rotate(64,36.0,90.8)" /><line stroke="black" stroke-width="2" transform="rotate(144,140.4,170.4)" x1="114" x2="166.8" y1="144" y2="196.8" /></g><text font-family="Arial" font-size="14" text-anchor="middle" x="175" y="630">Option 3</text><g transform="translate(100,650)"><rect fill="none" height="61.599999999999994" stroke="black" stroke-width="2" transform="rotate(67,36.0,90.8)" width="44.0" x="14" y="60" /><polygon fill="none" points="114,217.92000000000002 166.8,217.92000000000002 140.4,144" stroke="black" stroke-width="2" transform="rotate(145,140.4,180.96)" /></g><text font-family="Arial" font-size="14" text-anchor="middle" x="425" y="630">Option 4</text><g transform="translate(350,650)"><polygon fill="none" points="14,121.6 58.0,121.6 36.0,60" stroke="black" stroke-width="2" transform="rotate(67,36.0,90.8)" /><rect fill="none" height="73.92" stroke="black" stroke-width="2" transform="rotate(145,140.4,180.96)" width="52.800000000000004" x="114" y="144" /></g></svg>