<?xml version="1.0" encoding="utf-8" ?>
<svg baseProfile="full" height="1000px" version="1.1" width="600px" xmlns="http://www.w3.org/2000/svg" xmlns:ev="http://www.w3.org/2001/xml-events" xmlns:xlink="http://www.w3.org/1999/xlink"><defs /><rect fill="white" height="100%" width="100%" x="0" y="0" /><text font-family="Arial" font-size="24" text-anchor="middle" x="300" y="40">Visual Discrimination Test</text><text font-family="Arial" font-size="18" text-anchor="middle" x="300" y="80">Target Pattern</text><g transform="translate(200,100)"><circle cx="63" cy="90" fill="none" r="25.0" stroke="black" stroke-width="2" /><polygon fill="none" points="41,173 80,173 60.5,134" stroke="black" stroke-width="2" transform="rotate(162,60.5,153.5)" /></g><text font-family="Arial" font-size="18" text-anchor="middle" x="300" y="350">Options</text><text font-family="Arial" font-size="14" text-anchor="middle" x="175" y="380">Option 1</text><g transform="translate(100,400)"><circle cx="63" cy="90" fill="none" r="25.0" stroke="black" stroke-width="2" /><polygon fill="none" points="41,173 80,173 60.5,134" stroke="black" stroke-width="2" transform="rotate(162,60.5,153.5)" /></g><text font-family="Arial" font-size="14" text-anchor="middle" x="425" y="380">Option 2</text><g transform="translate(350,400)"><rect fill="none" height="77.0" stroke="black" stroke-width="2" transform="rotate(156,90.5,128.5)" width="55.00000000000001" x="63" y="90" /><rect fill="none" height="60.06" stroke="black" stroke-width="2" transform="rotate(167,62.45,164.03)" width="42.900000000000006" x="41" y="134" /></g><text font-family="Arial" font-size="14" text-anchor="middle" x="175" y="630">Option 3</text><g transform="translate(100,650)"><polygon fill="none" points="63,167.0 118.0,167.0 90.5,90" stroke="black" stroke-width="2" transform="rotate(159,90.5,128.5)" /><line stroke="black" stroke-width="2" transform="rotate(169,62.45,155.45)" x1="41" x2="83.9" y1="134" y2="176.9" /></g><text font-family="Arial" font-size="14" text-anchor="middle" x="425" y="630">Option 4</text><g transform="translate(350,650)"><line stroke="black" stroke-width="2" transform="rotate(158,90.5,117.5)" x1="63" x2="118.0" y1="90" y2="145.0" /><rect fill="none" height="60.06" stroke="black" stroke-width="2" transform="rotate(169,62.45,164.03)" width="42.900000000000006" x="41" y="134" /></g></svg>