<?xml version="1.0" encoding="utf-8" ?>
<svg baseProfile="full" height="1000px" version="1.1" width="600px" xmlns="http://www.w3.org/2000/svg" xmlns:ev="http://www.w3.org/2001/xml-events" xmlns:xlink="http://www.w3.org/1999/xlink"><defs /><rect fill="white" height="100%" width="100%" x="0" y="0" /><text font-family="Arial" font-size="24" text-anchor="middle" x="300" y="40">Visual Discrimination Test</text><text font-family="Arial" font-size="18" text-anchor="middle" x="300" y="80">Target Pattern</text><g transform="translate(200,100)"><polygon fill="none" points="132,61 170,61 151.0,23" stroke="black" stroke-width="2" transform="rotate(333,151.0,42.0)" /><line stroke="black" stroke-width="2" transform="rotate(267,96.5,44.5)" x1="74" x2="119" y1="22" y2="67" /><line stroke="black" stroke-width="2" transform="rotate(184,134.0,51.0)" x1="111" x2="157" y1="28" y2="74" /><polygon fill="none" points="79,88 127,88 103.0,40" stroke="black" stroke-width="2" transform="rotate(246,103.0,64.0)" /><polygon fill="none" points="48,129 80,129 64.0,97" stroke="black" stroke-width="2" transform="rotate(12,64.0,113.0)" /><rect fill="none" height="44" stroke="black" stroke-width="2" transform="rotate(348,105.0,149.0)" width="44" x="83" y="127" /><line stroke="black" stroke-width="2" transform="rotate(84,93.0,174.0)" x1="69" x2="117" y1="150" y2="198" /><rect fill="none" height="38" stroke="black" stroke-width="2" transform="rotate(224,153.0,51.0)" width="38" x="134" y="32" /><circle cx="17" cy="42" fill="none" r="15.0" stroke="black" stroke-width="2" /></g><text font-family="Arial" font-size="18" text-anchor="middle" x="300" y="350">Options</text><text font-family="Arial" font-size="14" text-anchor="middle" x="175" y="380">Option 1</text><g transform="translate(100,400)"><line stroke="black" stroke-width="2" transform="rotate(337,152.9,43.900000000000006)" x1="132" x2="173.8" y1="23" y2="64.80000000000001" /><polygon fill="none" points="74,91.30000000000001 123.5,91.30000000000001 98.75,22" stroke="black" stroke-width="2" transform="rotate(272,98.75,56.650000000000006)" /><polygon fill="none" points="111,98.84 161.6,98.84 136.3,28" stroke="black" stroke-width="2" transform="rotate(190,136.3,63.42)" /><rect fill="none" height="73.92" stroke="black" stroke-width="2" transform="rotate(250,105.4,76.96000000000001)" width="52.800000000000004" x="79" y="40" /><polygon fill="none" points="48,146.28 83.2,146.28 65.6,97" stroke="black" stroke-width="2" transform="rotate(18,65.6,121.64)" /><polygon fill="none" points="83,194.76 131.4,194.76 107.2,127" stroke="black" stroke-width="2" transform="rotate(353,107.2,160.88)" /><polygon fill="none" points="69,223.92000000000002 121.80000000000001,223.92000000000002 95.4,150" stroke="black" stroke-width="2" transform="rotate(89,95.4,186.96)" /><line stroke="black" stroke-width="2" transform="rotate(227,154.9,52.900000000000006)" x1="134" x2="175.8" y1="32" y2="73.80000000000001" /><polygon fill="none" points="17,88.19999999999999 50.0,88.19999999999999 33.5,42" stroke="black" stroke-width="2" transform="rotate(168,33.5,65.1)" /></g><text font-family="Arial" font-size="14" text-anchor="middle" x="425" y="380">Option 2</text><g transform="translate(350,400)"><line stroke="black" stroke-width="2" transform="rotate(337,152.9,43.900000000000006)" x1="132" x2="173.8" y1="23" y2="64.80000000000001" /><line stroke="black" stroke-width="2" transform="rotate(272,98.75,46.75)" x1="74" x2="123.5" y1="22" y2="71.5" /><polygon fill="none" points="111,98.84 161.6,98.84 136.3,28" stroke="black" stroke-width="2" transform="rotate(187,136.3,63.42)" /><line stroke="black" stroke-width="2" transform="rotate(249,105.4,66.4)" x1="79" x2="131.8" y1="40" y2="92.80000000000001" /><polygon fill="none" points="48,146.28 83.2,146.28 65.6,97" stroke="black" stroke-width="2" transform="rotate(18,65.6,121.64)" /><rect fill="none" height="67.76" stroke="black" stroke-width="2" transform="rotate(354,107.2,160.88)" width="48.400000000000006" x="83" y="127" /><rect fill="none" height="73.92" stroke="black" stroke-width="2" transform="rotate(88,95.4,186.96)" width="52.800000000000004" x="69" y="150" /><rect fill="none" height="58.52" stroke="black" stroke-width="2" transform="rotate(228,154.9,61.260000000000005)" width="41.800000000000004" x="134" y="32" /><line stroke="black" stroke-width="2" transform="rotate(165,33.5,58.5)" x1="17" x2="50.0" y1="42" y2="75.0" /></g><text font-family="Arial" font-size="14" text-anchor="middle" x="175" y="630">Option 3</text><g transform="translate(100,650)"><polygon fill="none" points="132,61 170,61 151.0,23" stroke="black" stroke-width="2" transform="rotate(333,151.0,42.0)" /><line stroke="black" stroke-width="2" transform="rotate(267,96.5,44.5)" x1="74" x2="119" y1="22" y2="67" /><line stroke="black" stroke-width="2" transform="rotate(184,134.0,51.0)" x1="111" x2="157" y1="28" y2="74" /><polygon fill="none" points="79,88 127,88 103.0,40" stroke="black" stroke-width="2" transform="rotate(246,103.0,64.0)" /><polygon fill="none" points="48,129 80,129 64.0,97" stroke="black" stroke-width="2" transform="rotate(12,64.0,113.0)" /><rect fill="none" height="44" stroke="black" stroke-width="2" transform="rotate(348,105.0,149.0)" width="44" x="83" y="127" /><line stroke="black" stroke-width="2" transform="rotate(84,93.0,174.0)" x1="69" x2="117" y1="150" y2="198" /><rect fill="none" height="38" stroke="black" stroke-width="2" transform="rotate(224,153.0,51.0)" width="38" x="134" y="32" /><circle cx="17" cy="42" fill="none" r="15.0" stroke="black" stroke-width="2" /></g><text font-family="Arial" font-size="14" text-anchor="middle" x="425" y="630">Option 4</text><g transform="translate(350,650)"><rect fill="none" height="58.52" stroke="black" stroke-width="2" transform="rotate(337,152.9,52.260000000000005)" width="41.800000000000004" x="132" y="23" /><polygon fill="none" points="74,91.30000000000001 123.5,91.30000000000001 98.75,22" stroke="black" stroke-width="2" transform="rotate(271,98.75,56.650000000000006)" /><polygon fill="none" points="111,98.84 161.6,98.84 136.3,28" stroke="black" stroke-width="2" transform="rotate(189,136.3,63.42)" /><rect fill="none" height="73.92" stroke="black" stroke-width="2" transform="rotate(251,105.4,76.96000000000001)" width="52.800000000000004" x="79" y="40" /><rect fill="none" height="49.28" stroke="black" stroke-width="2" transform="rotate(15,65.6,121.64)" width="35.2" x="48" y="97" /><rect fill="none" height="67.76" stroke="black" stroke-width="2" transform="rotate(352,107.2,160.88)" width="48.400000000000006" x="83" y="127" /><rect fill="none" height="73.92" stroke="black" stroke-width="2" transform="rotate(89,95.4,186.96)" width="52.800000000000004" x="69" y="150" /><rect fill="none" height="58.52" stroke="black" stroke-width="2" transform="rotate(229,154.9,61.260000000000005)" width="41.800000000000004" x="134" y="32" /><line stroke="black" stroke-width="2" transform="rotate(167,33.5,58.5)" x1="17" x2="50.0" y1="42" y2="75.0" /></g></svg>