<?xml version="1.0" encoding="utf-8" ?>
<svg baseProfile="full" height="1000px" version="1.1" width="600px" xmlns="http://www.w3.org/2000/svg" xmlns:ev="http://www.w3.org/2001/xml-events" xmlns:xlink="http://www.w3.org/1999/xlink"><defs /><rect fill="white" height="100%" width="100%" x="0" y="0" /><text font-family="Arial" font-size="24" text-anchor="middle" x="300" y="40">Visual Discrimination Test</text><text font-family="Arial" font-size="18" text-anchor="middle" x="300" y="80">Target Pattern</text><g transform="translate(200,100)"><rect fill="none" height="39" stroke="black" stroke-width="2" transform="rotate(246,61.5,112.5)" width="39" x="42" y="93" /><circle cx="144" cy="27" fill="none" r="18.0" stroke="black" stroke-width="2" /><polygon fill="none" points="39,62 73,62 56.0,28" stroke="black" stroke-width="2" transform="rotate(39,56.0,45.0)" /><rect fill="none" height="47" stroke="black" stroke-width="2" transform="rotate(149,98.5,145.5)" width="47" x="75" y="122" /><line stroke="black" stroke-width="2" transform="rotate(285,75.0,117.0)" x1="51" x2="99" y1="93" y2="141" /><rect fill="none" height="35" stroke="black" stroke-width="2" transform="rotate(47,52.5,133.5)" width="35" x="35" y="116" /><rect fill="none" height="47" stroke="black" stroke-width="2" transform="rotate(115,134.5,143.5)" width="47" x="111" y="120" /><polygon fill="none" points="64,152 99,152 81.5,117" stroke="black" stroke-width="2" transform="rotate(146,81.5,134.5)" /><polygon fill="none" points="35,180 83,180 59.0,132" stroke="black" stroke-width="2" transform="rotate(89,59.0,156.0)" /></g><text font-family="Arial" font-size="18" text-anchor="middle" x="300" y="350">Options</text><text font-family="Arial" font-size="14" text-anchor="middle" x="175" y="380">Option 1</text><g transform="translate(100,400)"><line stroke="black" stroke-width="2" transform="rotate(250,57.6,108.6)" x1="42" x2="73.2" y1="93" y2="124.2" /><rect fill="none" height="23.040000000000003" stroke="black" stroke-width="2" transform="rotate(250,158.4,38.52)" width="28.8" x="144" y="27" /><rect fill="none" height="21.760000000000005" stroke="black" stroke-width="2" transform="rotate(44,52.6,38.88)" width="27.200000000000003" x="39" y="28" /><polygon fill="none" points="75,152.08 112.6,152.08 93.8,122" stroke="black" stroke-width="2" transform="rotate(152,93.8,137.04)" /><rect fill="none" height="30.720000000000006" stroke="black" stroke-width="2" transform="rotate(292,70.2,108.36)" width="38.400000000000006" x="51" y="93" /><line stroke="black" stroke-width="2" transform="rotate(50,49.0,130.0)" x1="35" x2="63.0" y1="116" y2="144.0" /><rect fill="none" height="30.080000000000002" stroke="black" stroke-width="2" transform="rotate(121,129.8,135.04)" width="37.6" x="111" y="120" /><polygon fill="none" points="64,139.4 92.0,139.4 78.0,117" stroke="black" stroke-width="2" transform="rotate(152,78.0,128.2)" /><polygon fill="none" points="35,162.72 73.4,162.72 54.2,132" stroke="black" stroke-width="2" transform="rotate(95,54.2,147.36)" /></g><text font-family="Arial" font-size="14" text-anchor="middle" x="425" y="380">Option 2</text><g transform="translate(350,400)"><rect fill="none" height="39" stroke="black" stroke-width="2" transform="rotate(246,61.5,112.5)" width="39" x="42" y="93" /><circle cx="144" cy="27" fill="none" r="18.0" stroke="black" stroke-width="2" /><polygon fill="none" points="39,62 73,62 56.0,28" stroke="black" stroke-width="2" transform="rotate(39,56.0,45.0)" /><rect fill="none" height="47" stroke="black" stroke-width="2" transform="rotate(149,98.5,145.5)" width="47" x="75" y="122" /><line stroke="black" stroke-width="2" transform="rotate(285,75.0,117.0)" x1="51" x2="99" y1="93" y2="141" /><rect fill="none" height="35" stroke="black" stroke-width="2" transform="rotate(47,52.5,133.5)" width="35" x="35" y="116" /><rect fill="none" height="47" stroke="black" stroke-width="2" transform="rotate(115,134.5,143.5)" width="47" x="111" y="120" /><polygon fill="none" points="64,152 99,152 81.5,117" stroke="black" stroke-width="2" transform="rotate(146,81.5,134.5)" /><polygon fill="none" points="35,180 83,180 59.0,132" stroke="black" stroke-width="2" transform="rotate(89,59.0,156.0)" /></g><text font-family="Arial" font-size="14" text-anchor="middle" x="175" y="630">Option 3</text><g transform="translate(100,650)"><polygon fill="none" points="42,117.96000000000001 73.2,117.96000000000001 57.6,93" stroke="black" stroke-width="2" transform="rotate(250,57.6,105.48)" /><line stroke="black" stroke-width="2" transform="rotate(248,158.4,41.4)" x1="144" x2="172.8" y1="27" y2="55.8" /><rect fill="none" height="21.760000000000005" stroke="black" stroke-width="2" transform="rotate(46,52.6,38.88)" width="27.200000000000003" x="39" y="28" /><polygon fill="none" points="75,152.08 112.6,152.08 93.8,122" stroke="black" stroke-width="2" transform="rotate(153,93.8,137.04)" /><rect fill="none" height="30.720000000000006" stroke="black" stroke-width="2" transform="rotate(289,70.2,108.36)" width="38.400000000000006" x="51" y="93" /><rect fill="none" height="22.400000000000002" stroke="black" stroke-width="2" transform="rotate(52,49.0,127.2)" width="28.0" x="35" y="116" /><polygon fill="none" points="111,150.08 148.6,150.08 129.8,120" stroke="black" stroke-width="2" transform="rotate(118,129.8,135.04)" /><polygon fill="none" points="64,139.4 92.0,139.4 78.0,117" stroke="black" stroke-width="2" transform="rotate(151,78.0,128.2)" /><rect fill="none" height="30.720000000000006" stroke="black" stroke-width="2" transform="rotate(94,54.2,147.36)" width="38.400000000000006" x="35" y="132" /></g><text font-family="Arial" font-size="14" text-anchor="middle" x="425" y="630">Option 4</text><g transform="translate(350,650)"><polygon fill="none" points="42,117.96000000000001 73.2,117.96000000000001 57.6,93" stroke="black" stroke-width="2" transform="rotate(250,57.6,105.48)" /><polygon fill="none" points="144,50.040000000000006 172.8,50.040000000000006 158.4,27" stroke="black" stroke-width="2" transform="rotate(250,158.4,38.52)" /><line stroke="black" stroke-width="2" transform="rotate(42,52.6,41.6)" x1="39" x2="66.2" y1="28" y2="55.2" /><polygon fill="none" points="75,152.08 112.6,152.08 93.8,122" stroke="black" stroke-width="2" transform="rotate(153,93.8,137.04)" /><polygon fill="none" points="51,123.72 89.4,123.72 70.2,93" stroke="black" stroke-width="2" transform="rotate(291,70.2,108.36)" /><rect fill="none" height="22.400000000000002" stroke="black" stroke-width="2" transform="rotate(51,49.0,127.2)" width="28.0" x="35" y="116" /><line stroke="black" stroke-width="2" transform="rotate(121,129.8,138.8)" x1="111" x2="148.6" y1="120" y2="157.6" /><line stroke="black" stroke-width="2" transform="rotate(151,78.0,131.0)" x1="64" x2="92.0" y1="117" y2="145.0" /><rect fill="none" height="30.720000000000006" stroke="black" stroke-width="2" transform="rotate(96,54.2,147.36)" width="38.400000000000006" x="35" y="132" /></g></svg>