<?xml version="1.0" encoding="utf-8" ?>
<svg baseProfile="full" height="1000px" version="1.1" width="600px" xmlns="http://www.w3.org/2000/svg" xmlns:ev="http://www.w3.org/2001/xml-events" xmlns:xlink="http://www.w3.org/1999/xlink"><defs /><rect fill="white" height="100%" width="100%" x="0" y="0" /><text font-family="Arial" font-size="24" text-anchor="middle" x="300" y="40">Visual Discrimination Test</text><text font-family="Arial" font-size="18" text-anchor="middle" x="300" y="80">Target Pattern</text><g transform="translate(200,100)"><rect fill="none" height="37" stroke="black" stroke-width="2" transform="rotate(182,99.5,127.5)" width="37" x="81" y="109" /><polygon fill="none" points="97,145 131,145 114.0,111" stroke="black" stroke-width="2" transform="rotate(210,114.0,128.0)" /><circle cx="61" cy="52" fill="none" r="22.5" stroke="black" stroke-width="2" /><rect fill="none" height="33" stroke="black" stroke-width="2" transform="rotate(52,77.5,39.5)" width="33" x="61" y="23" /><line stroke="black" stroke-width="2" transform="rotate(318,115.5,91.5)" x1="93" x2="138" y1="69" y2="114" /><rect fill="none" height="31" stroke="black" stroke-width="2" transform="rotate(325,54.5,76.5)" width="31" x="39" y="61" /><circle cx="66" cy="72" fill="none" r="23.5" stroke="black" stroke-width="2" /><polygon fill="none" points="92,171 129,171 110.5,134" stroke="black" stroke-width="2" transform="rotate(212,110.5,152.5)" /></g><text font-family="Arial" font-size="18" text-anchor="middle" x="300" y="350">Options</text><text font-family="Arial" font-size="14" text-anchor="middle" x="175" y="380">Option 1</text><g transform="translate(100,400)"><rect fill="none" height="72.52" stroke="black" stroke-width="2" transform="rotate(188,106.9,145.26)" width="51.8" x="81" y="109" /><polygon fill="none" points="97,177.64 144.6,177.64 120.8,111" stroke="black" stroke-width="2" transform="rotate(215,120.8,144.32)" /><circle cx="61" cy="52" fill="none" r="31.499999999999996" stroke="black" stroke-width="2" /><rect fill="none" height="64.67999999999999" stroke="black" stroke-width="2" transform="rotate(55,84.1,55.339999999999996)" width="46.199999999999996" x="61" y="23" /><line stroke="black" stroke-width="2" transform="rotate(325,124.5,100.5)" x1="93" x2="156.0" y1="69" y2="132.0" /><rect fill="none" height="60.75999999999999" stroke="black" stroke-width="2" transform="rotate(328,60.7,91.38)" width="43.4" x="39" y="61" /><circle cx="66" cy="72" fill="none" r="32.9" stroke="black" stroke-width="2" /><polygon fill="none" points="92,206.51999999999998 143.8,206.51999999999998 117.9,134" stroke="black" stroke-width="2" transform="rotate(219,117.9,170.26)" /></g><text font-family="Arial" font-size="14" text-anchor="middle" x="425" y="380">Option 2</text><g transform="translate(350,400)"><rect fill="none" height="37" stroke="black" stroke-width="2" transform="rotate(182,99.5,127.5)" width="37" x="81" y="109" /><polygon fill="none" points="97,145 131,145 114.0,111" stroke="black" stroke-width="2" transform="rotate(210,114.0,128.0)" /><circle cx="61" cy="52" fill="none" r="22.5" stroke="black" stroke-width="2" /><rect fill="none" height="33" stroke="black" stroke-width="2" transform="rotate(52,77.5,39.5)" width="33" x="61" y="23" /><line stroke="black" stroke-width="2" transform="rotate(318,115.5,91.5)" x1="93" x2="138" y1="69" y2="114" /><rect fill="none" height="31" stroke="black" stroke-width="2" transform="rotate(325,54.5,76.5)" width="31" x="39" y="61" /><circle cx="66" cy="72" fill="none" r="23.5" stroke="black" stroke-width="2" /><polygon fill="none" points="92,171 129,171 110.5,134" stroke="black" stroke-width="2" transform="rotate(212,110.5,152.5)" /></g><text font-family="Arial" font-size="14" text-anchor="middle" x="175" y="630">Option 3</text><g transform="translate(100,650)"><rect fill="none" height="72.52" stroke="black" stroke-width="2" transform="rotate(186,106.9,145.26)" width="51.8" x="81" y="109" /><polygon fill="none" points="97,177.64 144.6,177.64 120.8,111" stroke="black" stroke-width="2" transform="rotate(214,120.8,144.32)" /><circle cx="61" cy="52" fill="none" r="31.499999999999996" stroke="black" stroke-width="2" /><rect fill="none" height="64.67999999999999" stroke="black" stroke-width="2" transform="rotate(56,84.1,55.339999999999996)" width="46.199999999999996" x="61" y="23" /><line stroke="black" stroke-width="2" transform="rotate(321,124.5,100.5)" x1="93" x2="156.0" y1="69" y2="132.0" /><rect fill="none" height="60.75999999999999" stroke="black" stroke-width="2" transform="rotate(332,60.7,91.38)" width="43.4" x="39" y="61" /><circle cx="66" cy="72" fill="none" r="32.9" stroke="black" stroke-width="2" /><polygon fill="none" points="92,206.51999999999998 143.8,206.51999999999998 117.9,134" stroke="black" stroke-width="2" transform="rotate(215,117.9,170.26)" /></g><text font-family="Arial" font-size="14" text-anchor="middle" x="425" y="630">Option 4</text><g transform="translate(350,650)"><rect fill="none" height="72.52" stroke="black" stroke-width="2" transform="rotate(186,106.9,145.26)" width="51.8" x="81" y="109" /><polygon fill="none" points="97,177.64 144.6,177.64 120.8,111" stroke="black" stroke-width="2" transform="rotate(217,120.8,144.32)" /><circle cx="61" cy="52" fill="none" r="31.499999999999996" stroke="black" stroke-width="2" /><rect fill="none" height="64.67999999999999" stroke="black" stroke-width="2" transform="rotate(57,84.1,55.339999999999996)" width="46.199999999999996" x="61" y="23" /><line stroke="black" stroke-width="2" transform="rotate(323,124.5,100.5)" x1="93" x2="156.0" y1="69" y2="132.0" /><rect fill="none" height="60.75999999999999" stroke="black" stroke-width="2" transform="rotate(332,60.7,91.38)" width="43.4" x="39" y="61" /><circle cx="66" cy="72" fill="none" r="32.9" stroke="black" stroke-width="2" /><polygon fill="none" points="92,206.51999999999998 143.8,206.51999999999998 117.9,134" stroke="black" stroke-width="2" transform="rotate(217,117.9,170.26)" /></g></svg>