<?xml version="1.0" encoding="utf-8" ?>
<svg baseProfile="full" height="1000px" version="1.1" width="600px" xmlns="http://www.w3.org/2000/svg" xmlns:ev="http://www.w3.org/2001/xml-events" xmlns:xlink="http://www.w3.org/1999/xlink"><defs /><rect fill="white" height="100%" width="100%" x="0" y="0" /><text font-family="Arial" font-size="24" text-anchor="middle" x="300" y="40">Visual Discrimination Test</text><text font-family="Arial" font-size="18" text-anchor="middle" x="300" y="80">Target Pattern</text><g transform="translate(200,100)"><circle cx="108" cy="61" fill="none" r="22.0" stroke="black" stroke-width="2" /><circle cx="147" cy="105" fill="none" r="20.0" stroke="black" stroke-width="2" /><line stroke="black" stroke-width="2" transform="rotate(253,71.0,96.0)" x1="50" x2="92" y1="75" y2="117" /><polygon fill="none" points="89,171 129,171 109.0,131" stroke="black" stroke-width="2" transform="rotate(250,109.0,151.0)" /><line stroke="black" stroke-width="2" transform="rotate(292,108.5,47.5)" x1="88" x2="129" y1="27" y2="68" /><polygon fill="none" points="10,91 51,91 30.5,50" stroke="black" stroke-width="2" transform="rotate(62,30.5,70.5)" /><polygon fill="none" points="78,146 111,146 94.5,113" stroke="black" stroke-width="2" transform="rotate(219,94.5,129.5)" /><polygon fill="none" points="106,55 143,55 124.5,18" stroke="black" stroke-width="2" transform="rotate(15,124.5,36.5)" /></g><text font-family="Arial" font-size="18" text-anchor="middle" x="300" y="350">Options</text><text font-family="Arial" font-size="14" text-anchor="middle" x="175" y="380">Option 1</text><g transform="translate(100,400)"><circle cx="108" cy="61" fill="none" r="30.799999999999997" stroke="black" stroke-width="2" /><circle cx="147" cy="105" fill="none" r="28.0" stroke="black" stroke-width="2" /><line stroke="black" stroke-width="2" transform="rotate(256,79.4,104.4)" x1="50" x2="108.8" y1="75" y2="133.8" /><polygon fill="none" points="89,209.39999999999998 145.0,209.39999999999998 117.0,131" stroke="black" stroke-width="2" transform="rotate(257,117.0,170.2)" /><line stroke="black" stroke-width="2" transform="rotate(298,116.7,55.7)" x1="88" x2="145.4" y1="27" y2="84.4" /><polygon fill="none" points="10,130.36 67.4,130.36 38.7,50" stroke="black" stroke-width="2" transform="rotate(68,38.7,90.18)" /><polygon fill="none" points="78,177.68 124.19999999999999,177.68 101.1,113" stroke="black" stroke-width="2" transform="rotate(226,101.1,145.34)" /><polygon fill="none" points="106,90.52 157.8,90.52 131.9,18" stroke="black" stroke-width="2" transform="rotate(18,131.9,54.26)" /></g><text font-family="Arial" font-size="14" text-anchor="middle" x="425" y="380">Option 2</text><g transform="translate(350,400)"><circle cx="108" cy="61" fill="none" r="30.799999999999997" stroke="black" stroke-width="2" /><circle cx="147" cy="105" fill="none" r="28.0" stroke="black" stroke-width="2" /><line stroke="black" stroke-width="2" transform="rotate(259,79.4,104.4)" x1="50" x2="108.8" y1="75" y2="133.8" /><polygon fill="none" points="89,209.39999999999998 145.0,209.39999999999998 117.0,131" stroke="black" stroke-width="2" transform="rotate(254,117.0,170.2)" /><line stroke="black" stroke-width="2" transform="rotate(298,116.7,55.7)" x1="88" x2="145.4" y1="27" y2="84.4" /><polygon fill="none" points="10,130.36 67.4,130.36 38.7,50" stroke="black" stroke-width="2" transform="rotate(66,38.7,90.18)" /><polygon fill="none" points="78,177.68 124.19999999999999,177.68 101.1,113" stroke="black" stroke-width="2" transform="rotate(223,101.1,145.34)" /><polygon fill="none" points="106,90.52 157.8,90.52 131.9,18" stroke="black" stroke-width="2" transform="rotate(22,131.9,54.26)" /></g><text font-family="Arial" font-size="14" text-anchor="middle" x="175" y="630">Option 3</text><g transform="translate(100,650)"><circle cx="108" cy="61" fill="none" r="30.799999999999997" stroke="black" stroke-width="2" /><circle cx="147" cy="105" fill="none" r="28.0" stroke="black" stroke-width="2" /><line stroke="black" stroke-width="2" transform="rotate(256,79.4,104.4)" x1="50" x2="108.8" y1="75" y2="133.8" /><polygon fill="none" points="89,209.39999999999998 145.0,209.39999999999998 117.0,131" stroke="black" stroke-width="2" transform="rotate(253,117.0,170.2)" /><line stroke="black" stroke-width="2" transform="rotate(295,116.7,55.7)" x1="88" x2="145.4" y1="27" y2="84.4" /><polygon fill="none" points="10,130.36 67.4,130.36 38.7,50" stroke="black" stroke-width="2" transform="rotate(69,38.7,90.18)" /><polygon fill="none" points="78,177.68 124.19999999999999,177.68 101.1,113" stroke="black" stroke-width="2" transform="rotate(225,101.1,145.34)" /><polygon fill="none" points="106,90.52 157.8,90.52 131.9,18" stroke="black" stroke-width="2" transform="rotate(22,131.9,54.26)" /></g><text font-family="Arial" font-size="14" text-anchor="middle" x="425" y="630">Option 4</text><g transform="translate(350,650)"><circle cx="108" cy="61" fill="none" r="22.0" stroke="black" stroke-width="2" /><circle cx="147" cy="105" fill="none" r="20.0" stroke="black" stroke-width="2" /><line stroke="black" stroke-width="2" transform="rotate(253,71.0,96.0)" x1="50" x2="92" y1="75" y2="117" /><polygon fill="none" points="89,171 129,171 109.0,131" stroke="black" stroke-width="2" transform="rotate(250,109.0,151.0)" /><line stroke="black" stroke-width="2" transform="rotate(292,108.5,47.5)" x1="88" x2="129" y1="27" y2="68" /><polygon fill="none" points="10,91 51,91 30.5,50" stroke="black" stroke-width="2" transform="rotate(62,30.5,70.5)" /><polygon fill="none" points="78,146 111,146 94.5,113" stroke="black" stroke-width="2" transform="rotate(219,94.5,129.5)" /><polygon fill="none" points="106,55 143,55 124.5,18" stroke="black" stroke-width="2" transform="rotate(15,124.5,36.5)" /></g></svg>