<?xml version="1.0" encoding="utf-8" ?>
<svg baseProfile="full" height="1000px" version="1.1" width="600px" xmlns="http://www.w3.org/2000/svg" xmlns:ev="http://www.w3.org/2001/xml-events" xmlns:xlink="http://www.w3.org/1999/xlink"><defs /><rect fill="white" height="100%" width="100%" x="0" y="0" /><text font-family="Arial" font-size="24" text-anchor="middle" x="300" y="40">Visual Discrimination Test</text><text font-family="Arial" font-size="18" text-anchor="middle" x="300" y="80">Target Pattern</text><g transform="translate(200,100)"><line stroke="black" stroke-width="2" transform="rotate(238,132.5,80.5)" x1="116" x2="149" y1="64" y2="97" /><circle cx="79" cy="116" fill="none" r="21.5" stroke="black" stroke-width="2" /><line stroke="black" stroke-width="2" transform="rotate(285,93.0,93.0)" x1="71" x2="115" y1="71" y2="115" /><circle cx="71" cy="69" fill="none" r="22.5" stroke="black" stroke-width="2" /><circle cx="91" cy="56" fill="none" r="22.5" stroke="black" stroke-width="2" /><line stroke="black" stroke-width="2" transform="rotate(165,50.0,61.0)" x1="34" x2="66" y1="45" y2="77" /><line stroke="black" stroke-width="2" transform="rotate(229,55.0,139.0)" x1="37" x2="73" y1="121" y2="157" /></g><text font-family="Arial" font-size="18" text-anchor="middle" x="300" y="350">Options</text><text font-family="Arial" font-size="14" text-anchor="middle" x="175" y="380">Option 1</text><g transform="translate(100,400)"><line stroke="black" stroke-width="2" transform="rotate(238,132.5,80.5)" x1="116" x2="149" y1="64" y2="97" /><circle cx="79" cy="116" fill="none" r="21.5" stroke="black" stroke-width="2" /><line stroke="black" stroke-width="2" transform="rotate(285,93.0,93.0)" x1="71" x2="115" y1="71" y2="115" /><circle cx="71" cy="69" fill="none" r="22.5" stroke="black" stroke-width="2" /><circle cx="91" cy="56" fill="none" r="22.5" stroke="black" stroke-width="2" /><line stroke="black" stroke-width="2" transform="rotate(165,50.0,61.0)" x1="34" x2="66" y1="45" y2="77" /><line stroke="black" stroke-width="2" transform="rotate(229,55.0,139.0)" x1="37" x2="73" y1="121" y2="157" /></g><text font-family="Arial" font-size="14" text-anchor="middle" x="425" y="380">Option 2</text><g transform="translate(350,400)"><line stroke="black" stroke-width="2" transform="rotate(244,139.1,87.1)" x1="116" x2="162.2" y1="64" y2="110.19999999999999" /><circle cx="79" cy="116" fill="none" r="30.099999999999998" stroke="black" stroke-width="2" /><line stroke="black" stroke-width="2" transform="rotate(292,101.8,101.8)" x1="71" x2="132.6" y1="71" y2="132.6" /><circle cx="71" cy="69" fill="none" r="31.499999999999996" stroke="black" stroke-width="2" /><circle cx="91" cy="56" fill="none" r="31.499999999999996" stroke="black" stroke-width="2" /><line stroke="black" stroke-width="2" transform="rotate(169,56.4,67.4)" x1="34" x2="78.8" y1="45" y2="89.8" /><line stroke="black" stroke-width="2" transform="rotate(232,62.2,146.2)" x1="37" x2="87.4" y1="121" y2="171.4" /></g><text font-family="Arial" font-size="14" text-anchor="middle" x="175" y="630">Option 3</text><g transform="translate(100,650)"><line stroke="black" stroke-width="2" transform="rotate(244,139.1,87.1)" x1="116" x2="162.2" y1="64" y2="110.19999999999999" /><circle cx="79" cy="116" fill="none" r="30.099999999999998" stroke="black" stroke-width="2" /><line stroke="black" stroke-width="2" transform="rotate(291,101.8,101.8)" x1="71" x2="132.6" y1="71" y2="132.6" /><circle cx="71" cy="69" fill="none" r="31.499999999999996" stroke="black" stroke-width="2" /><circle cx="91" cy="56" fill="none" r="31.499999999999996" stroke="black" stroke-width="2" /><line stroke="black" stroke-width="2" transform="rotate(170,56.4,67.4)" x1="34" x2="78.8" y1="45" y2="89.8" /><line stroke="black" stroke-width="2" transform="rotate(235,62.2,146.2)" x1="37" x2="87.4" y1="121" y2="171.4" /></g><text font-family="Arial" font-size="14" text-anchor="middle" x="425" y="630">Option 4</text><g transform="translate(350,650)"><line stroke="black" stroke-width="2" transform="rotate(244,139.1,87.1)" x1="116" x2="162.2" y1="64" y2="110.19999999999999" /><circle cx="79" cy="116" fill="none" r="30.099999999999998" stroke="black" stroke-width="2" /><line stroke="black" stroke-width="2" transform="rotate(292,101.8,101.8)" x1="71" x2="132.6" y1="71" y2="132.6" /><circle cx="71" cy="69" fill="none" r="31.499999999999996" stroke="black" stroke-width="2" /><circle cx="91" cy="56" fill="none" r="31.499999999999996" stroke="black" stroke-width="2" /><line stroke="black" stroke-width="2" transform="rotate(169,56.4,67.4)" x1="34" x2="78.8" y1="45" y2="89.8" /><line stroke="black" stroke-width="2" transform="rotate(232,62.2,146.2)" x1="37" x2="87.4" y1="121" y2="171.4" /></g></svg>