<?xml version="1.0" encoding="utf-8" ?>
<svg baseProfile="full" height="1000px" version="1.1" width="600px" xmlns="http://www.w3.org/2000/svg" xmlns:ev="http://www.w3.org/2001/xml-events" xmlns:xlink="http://www.w3.org/1999/xlink"><defs /><rect fill="white" height="100%" width="100%" x="0" y="0" /><text font-family="Arial" font-size="24" text-anchor="middle" x="300" y="40">Visual Discrimination Test</text><text font-family="Arial" font-size="18" text-anchor="middle" x="300" y="80">Target Pattern</text><g transform="translate(200,100)"><polygon fill="none" points="18,128 56,128 37.0,90" stroke="black" stroke-width="2" transform="rotate(279,37.0,109.0)" /><polygon fill="none" points="90,178 123,178 106.5,145" stroke="black" stroke-width="2" transform="rotate(357,106.5,161.5)" /><rect fill="none" height="36" stroke="black" stroke-width="2" transform="rotate(185,161.0,104.0)" width="36" x="143" y="86" /><circle cx="111" cy="120" fill="none" r="22.5" stroke="black" stroke-width="2" /><polygon fill="none" points="96,144 133,144 114.5,107" stroke="black" stroke-width="2" transform="rotate(148,114.5,125.5)" /><line stroke="black" stroke-width="2" transform="rotate(119,159.0,56.0)" x1="137" x2="181" y1="34" y2="78" /><rect fill="none" height="34" stroke="black" stroke-width="2" transform="rotate(255,84.0,131.0)" width="34" x="67" y="114" /><polygon fill="none" points="37,129 72,129 54.5,94" stroke="black" stroke-width="2" transform="rotate(322,54.5,111.5)" /></g><text font-family="Arial" font-size="18" text-anchor="middle" x="300" y="350">Options</text><text font-family="Arial" font-size="14" text-anchor="middle" x="175" y="380">Option 1</text><g transform="translate(100,400)"><polygon fill="none" points="18,164.48 71.19999999999999,164.48 44.599999999999994,90" stroke="black" stroke-width="2" transform="rotate(282,44.599999999999994,127.24)" /><polygon fill="none" points="90,209.68 136.2,209.68 113.1,145" stroke="black" stroke-width="2" transform="rotate(364,113.1,177.34)" /><rect fill="none" height="70.55999999999999" stroke="black" stroke-width="2" transform="rotate(191,168.2,121.28)" width="50.4" x="143" y="86" /><circle cx="111" cy="120" fill="none" r="31.499999999999996" stroke="black" stroke-width="2" /><polygon fill="none" points="96,179.51999999999998 147.8,179.51999999999998 121.9,107" stroke="black" stroke-width="2" transform="rotate(151,121.9,143.26)" /><line stroke="black" stroke-width="2" transform="rotate(123,167.8,64.8)" x1="137" x2="198.6" y1="34" y2="95.6" /><rect fill="none" height="66.63999999999999" stroke="black" stroke-width="2" transform="rotate(261,90.8,147.32)" width="47.599999999999994" x="67" y="114" /><polygon fill="none" points="37,162.6 86.0,162.6 61.5,94" stroke="black" stroke-width="2" transform="rotate(328,61.5,128.3)" /></g><text font-family="Arial" font-size="14" text-anchor="middle" x="425" y="380">Option 2</text><g transform="translate(350,400)"><polygon fill="none" points="18,128 56,128 37.0,90" stroke="black" stroke-width="2" transform="rotate(279,37.0,109.0)" /><polygon fill="none" points="90,178 123,178 106.5,145" stroke="black" stroke-width="2" transform="rotate(357,106.5,161.5)" /><rect fill="none" height="36" stroke="black" stroke-width="2" transform="rotate(185,161.0,104.0)" width="36" x="143" y="86" /><circle cx="111" cy="120" fill="none" r="22.5" stroke="black" stroke-width="2" /><polygon fill="none" points="96,144 133,144 114.5,107" stroke="black" stroke-width="2" transform="rotate(148,114.5,125.5)" /><line stroke="black" stroke-width="2" transform="rotate(119,159.0,56.0)" x1="137" x2="181" y1="34" y2="78" /><rect fill="none" height="34" stroke="black" stroke-width="2" transform="rotate(255,84.0,131.0)" width="34" x="67" y="114" /><polygon fill="none" points="37,129 72,129 54.5,94" stroke="black" stroke-width="2" transform="rotate(322,54.5,111.5)" /></g><text font-family="Arial" font-size="14" text-anchor="middle" x="175" y="630">Option 3</text><g transform="translate(100,650)"><polygon fill="none" points="18,164.48 71.19999999999999,164.48 44.599999999999994,90" stroke="black" stroke-width="2" transform="rotate(283,44.599999999999994,127.24)" /><polygon fill="none" points="90,209.68 136.2,209.68 113.1,145" stroke="black" stroke-width="2" transform="rotate(362,113.1,177.34)" /><rect fill="none" height="70.55999999999999" stroke="black" stroke-width="2" transform="rotate(190,168.2,121.28)" width="50.4" x="143" y="86" /><circle cx="111" cy="120" fill="none" r="31.499999999999996" stroke="black" stroke-width="2" /><polygon fill="none" points="96,179.51999999999998 147.8,179.51999999999998 121.9,107" stroke="black" stroke-width="2" transform="rotate(154,121.9,143.26)" /><line stroke="black" stroke-width="2" transform="rotate(124,167.8,64.8)" x1="137" x2="198.6" y1="34" y2="95.6" /><rect fill="none" height="66.63999999999999" stroke="black" stroke-width="2" transform="rotate(259,90.8,147.32)" width="47.599999999999994" x="67" y="114" /><polygon fill="none" points="37,162.6 86.0,162.6 61.5,94" stroke="black" stroke-width="2" transform="rotate(329,61.5,128.3)" /></g><text font-family="Arial" font-size="14" text-anchor="middle" x="425" y="630">Option 4</text><g transform="translate(350,650)"><polygon fill="none" points="18,164.48 71.19999999999999,164.48 44.599999999999994,90" stroke="black" stroke-width="2" transform="rotate(285,44.599999999999994,127.24)" /><polygon fill="none" points="90,209.68 136.2,209.68 113.1,145" stroke="black" stroke-width="2" transform="rotate(360,113.1,177.34)" /><rect fill="none" height="70.55999999999999" stroke="black" stroke-width="2" transform="rotate(192,168.2,121.28)" width="50.4" x="143" y="86" /><circle cx="111" cy="120" fill="none" r="31.499999999999996" stroke="black" stroke-width="2" /><polygon fill="none" points="96,179.51999999999998 147.8,179.51999999999998 121.9,107" stroke="black" stroke-width="2" transform="rotate(152,121.9,143.26)" /><line stroke="black" stroke-width="2" transform="rotate(123,167.8,64.8)" x1="137" x2="198.6" y1="34" y2="95.6" /><rect fill="none" height="66.63999999999999" stroke="black" stroke-width="2" transform="rotate(259,90.8,147.32)" width="47.599999999999994" x="67" y="114" /><polygon fill="none" points="37,162.6 86.0,162.6 61.5,94" stroke="black" stroke-width="2" transform="rotate(325,61.5,128.3)" /></g></svg>