<?xml version="1.0" encoding="utf-8" ?>
<svg baseProfile="full" height="1000px" version="1.1" width="600px" xmlns="http://www.w3.org/2000/svg" xmlns:ev="http://www.w3.org/2001/xml-events" xmlns:xlink="http://www.w3.org/1999/xlink"><defs /><rect fill="white" height="100%" width="100%" x="0" y="0" /><text font-family="Arial" font-size="24" text-anchor="middle" x="300" y="40">Visual Discrimination Test</text><text font-family="Arial" font-size="18" text-anchor="middle" x="300" y="80">Target Pattern</text><g transform="translate(200,100)"><circle cx="144" cy="149" fill="none" r="24.5" stroke="black" stroke-width="2" /><rect fill="none" height="49" stroke="black" stroke-width="2" transform="rotate(76,126.5,40.5)" width="49" x="102" y="16" /><circle cx="55" cy="114" fill="none" r="25.0" stroke="black" stroke-width="2" /><line stroke="black" stroke-width="2" transform="rotate(295,35.5,152.5)" x1="13" x2="58" y1="130" y2="175" /><rect fill="none" height="35" stroke="black" stroke-width="2" transform="rotate(333,166.5,68.5)" width="35" x="149" y="51" /><polygon fill="none" points="148,143 192,143 170.0,99" stroke="black" stroke-width="2" transform="rotate(54,170.0,121.0)" /></g><text font-family="Arial" font-size="18" text-anchor="middle" x="300" y="350">Options</text><text font-family="Arial" font-size="14" text-anchor="middle" x="175" y="380">Option 1</text><g transform="translate(100,400)"><circle cx="144" cy="149" fill="none" r="34.3" stroke="black" stroke-width="2" /><rect fill="none" height="96.03999999999999" stroke="black" stroke-width="2" transform="rotate(80,136.3,64.02)" width="68.6" x="102" y="16" /><circle cx="55" cy="114" fill="none" r="35.0" stroke="black" stroke-width="2" /><line stroke="black" stroke-width="2" transform="rotate(299,44.5,161.5)" x1="13" x2="76.0" y1="130" y2="193.0" /><rect fill="none" height="68.6" stroke="black" stroke-width="2" transform="rotate(339,173.5,85.3)" width="49.0" x="149" y="51" /><polygon fill="none" points="148,185.23999999999998 209.6,185.23999999999998 178.8,99" stroke="black" stroke-width="2" transform="rotate(59,178.8,142.12)" /></g><text font-family="Arial" font-size="14" text-anchor="middle" x="425" y="380">Option 2</text><g transform="translate(350,400)"><circle cx="144" cy="149" fill="none" r="34.3" stroke="black" stroke-width="2" /><rect fill="none" height="96.03999999999999" stroke="black" stroke-width="2" transform="rotate(80,136.3,64.02)" width="68.6" x="102" y="16" /><circle cx="55" cy="114" fill="none" r="35.0" stroke="black" stroke-width="2" /><line stroke="black" stroke-width="2" transform="rotate(300,44.5,161.5)" x1="13" x2="76.0" y1="130" y2="193.0" /><rect fill="none" height="68.6" stroke="black" stroke-width="2" transform="rotate(337,173.5,85.3)" width="49.0" x="149" y="51" /><polygon fill="none" points="148,185.23999999999998 209.6,185.23999999999998 178.8,99" stroke="black" stroke-width="2" transform="rotate(59,178.8,142.12)" /></g><text font-family="Arial" font-size="14" text-anchor="middle" x="175" y="630">Option 3</text><g transform="translate(100,650)"><circle cx="144" cy="149" fill="none" r="24.5" stroke="black" stroke-width="2" /><rect fill="none" height="49" stroke="black" stroke-width="2" transform="rotate(76,126.5,40.5)" width="49" x="102" y="16" /><circle cx="55" cy="114" fill="none" r="25.0" stroke="black" stroke-width="2" /><line stroke="black" stroke-width="2" transform="rotate(295,35.5,152.5)" x1="13" x2="58" y1="130" y2="175" /><rect fill="none" height="35" stroke="black" stroke-width="2" transform="rotate(333,166.5,68.5)" width="35" x="149" y="51" /><polygon fill="none" points="148,143 192,143 170.0,99" stroke="black" stroke-width="2" transform="rotate(54,170.0,121.0)" /></g><text font-family="Arial" font-size="14" text-anchor="middle" x="425" y="630">Option 4</text><g transform="translate(350,650)"><circle cx="144" cy="149" fill="none" r="34.3" stroke="black" stroke-width="2" /><rect fill="none" height="96.03999999999999" stroke="black" stroke-width="2" transform="rotate(82,136.3,64.02)" width="68.6" x="102" y="16" /><circle cx="55" cy="114" fill="none" r="35.0" stroke="black" stroke-width="2" /><line stroke="black" stroke-width="2" transform="rotate(301,44.5,161.5)" x1="13" x2="76.0" y1="130" y2="193.0" /><rect fill="none" height="68.6" stroke="black" stroke-width="2" transform="rotate(339,173.5,85.3)" width="49.0" x="149" y="51" /><polygon fill="none" points="148,185.23999999999998 209.6,185.23999999999998 178.8,99" stroke="black" stroke-width="2" transform="rotate(60,178.8,142.12)" /></g></svg>