<?xml version="1.0" encoding="utf-8" ?>
<svg baseProfile="full" height="1000px" version="1.1" width="600px" xmlns="http://www.w3.org/2000/svg" xmlns:ev="http://www.w3.org/2001/xml-events" xmlns:xlink="http://www.w3.org/1999/xlink"><defs /><rect fill="white" height="100%" width="100%" x="0" y="0" /><text font-family="Arial" font-size="24" text-anchor="middle" x="300" y="40">Visual Discrimination Test</text><text font-family="Arial" font-size="18" text-anchor="middle" x="300" y="80">Target Pattern</text><g transform="translate(200,100)"><polygon fill="none" points="50,140 82,140 66.0,108" stroke="black" stroke-width="2" transform="rotate(20,66.0,124.0)" /><rect fill="none" height="36" stroke="black" stroke-width="2" transform="rotate(357,146.0,29.0)" width="36" x="128" y="11" /><rect fill="none" height="34" stroke="black" stroke-width="2" transform="rotate(336,127.0,161.0)" width="34" x="110" y="144" /><polygon fill="none" points="130,189 169,189 149.5,150" stroke="black" stroke-width="2" transform="rotate(10,149.5,169.5)" /><line stroke="black" stroke-width="2" transform="rotate(106,142.0,159.0)" x1="127" x2="157" y1="144" y2="174" /><line stroke="black" stroke-width="2" transform="rotate(282,58.0,121.0)" x1="35" x2="81" y1="98" y2="144" /><line stroke="black" stroke-width="2" transform="rotate(235,69.5,120.5)" x1="48" x2="91" y1="99" y2="142" /><polygon fill="none" points="19,74 64,74 41.5,29" stroke="black" stroke-width="2" transform="rotate(20,41.5,51.5)" /></g><text font-family="Arial" font-size="18" text-anchor="middle" x="300" y="350">Options</text><text font-family="Arial" font-size="14" text-anchor="middle" x="175" y="380">Option 1</text><g transform="translate(100,400)"><polygon fill="none" points="50,140 82,140 66.0,108" stroke="black" stroke-width="2" transform="rotate(20,66.0,124.0)" /><rect fill="none" height="36" stroke="black" stroke-width="2" transform="rotate(357,146.0,29.0)" width="36" x="128" y="11" /><rect fill="none" height="34" stroke="black" stroke-width="2" transform="rotate(336,127.0,161.0)" width="34" x="110" y="144" /><polygon fill="none" points="130,189 169,189 149.5,150" stroke="black" stroke-width="2" transform="rotate(10,149.5,169.5)" /><line stroke="black" stroke-width="2" transform="rotate(106,142.0,159.0)" x1="127" x2="157" y1="144" y2="174" /><line stroke="black" stroke-width="2" transform="rotate(282,58.0,121.0)" x1="35" x2="81" y1="98" y2="144" /><line stroke="black" stroke-width="2" transform="rotate(235,69.5,120.5)" x1="48" x2="91" y1="99" y2="142" /><polygon fill="none" points="19,74 64,74 41.5,29" stroke="black" stroke-width="2" transform="rotate(20,41.5,51.5)" /></g><text font-family="Arial" font-size="14" text-anchor="middle" x="425" y="380">Option 2</text><g transform="translate(350,400)"><line stroke="black" stroke-width="2" transform="rotate(27,72.4,130.4)" x1="50" x2="94.8" y1="108" y2="152.8" /><polygon fill="none" points="128,81.55999999999999 178.4,81.55999999999999 153.2,11" stroke="black" stroke-width="2" transform="rotate(363,153.2,46.279999999999994)" /><line stroke="black" stroke-width="2" transform="rotate(341,133.8,167.8)" x1="110" x2="157.6" y1="144" y2="191.6" /><rect fill="none" height="76.43999999999998" stroke="black" stroke-width="2" transform="rotate(16,157.3,188.22)" width="54.599999999999994" x="130" y="150" /><rect fill="none" height="58.8" stroke="black" stroke-width="2" transform="rotate(109,148.0,173.4)" width="42.0" x="127" y="144" /><polygon fill="none" points="35,188.15999999999997 99.39999999999999,188.15999999999997 67.19999999999999,98" stroke="black" stroke-width="2" transform="rotate(288,67.19999999999999,143.07999999999998)" /><line stroke="black" stroke-width="2" transform="rotate(241,78.1,129.1)" x1="48" x2="108.19999999999999" y1="99" y2="159.2" /><polygon fill="none" points="19,117.19999999999999 82.0,117.19999999999999 50.5,29" stroke="black" stroke-width="2" transform="rotate(24,50.5,73.1)" /></g><text font-family="Arial" font-size="14" text-anchor="middle" x="175" y="630">Option 3</text><g transform="translate(100,650)"><line stroke="black" stroke-width="2" transform="rotate(26,72.4,130.4)" x1="50" x2="94.8" y1="108" y2="152.8" /><polygon fill="none" points="128,81.55999999999999 178.4,81.55999999999999 153.2,11" stroke="black" stroke-width="2" transform="rotate(362,153.2,46.279999999999994)" /><rect fill="none" height="66.63999999999999" stroke="black" stroke-width="2" transform="rotate(341,133.8,177.32)" width="47.599999999999994" x="110" y="144" /><polygon fill="none" points="130,226.44 184.6,226.44 157.3,150" stroke="black" stroke-width="2" transform="rotate(13,157.3,188.22)" /><line stroke="black" stroke-width="2" transform="rotate(110,148.0,165.0)" x1="127" x2="169.0" y1="144" y2="186.0" /><polygon fill="none" points="35,188.15999999999997 99.39999999999999,188.15999999999997 67.19999999999999,98" stroke="black" stroke-width="2" transform="rotate(286,67.19999999999999,143.07999999999998)" /><line stroke="black" stroke-width="2" transform="rotate(238,78.1,129.1)" x1="48" x2="108.19999999999999" y1="99" y2="159.2" /><line stroke="black" stroke-width="2" transform="rotate(24,50.5,60.5)" x1="19" x2="82.0" y1="29" y2="92.0" /></g><text font-family="Arial" font-size="14" text-anchor="middle" x="425" y="630">Option 4</text><g transform="translate(350,650)"><rect fill="none" height="62.71999999999999" stroke="black" stroke-width="2" transform="rotate(27,72.4,139.35999999999999)" width="44.8" x="50" y="108" /><polygon fill="none" points="128,81.55999999999999 178.4,81.55999999999999 153.2,11" stroke="black" stroke-width="2" transform="rotate(363,153.2,46.279999999999994)" /><polygon fill="none" points="110,210.64 157.6,210.64 133.8,144" stroke="black" stroke-width="2" transform="rotate(341,133.8,177.32)" /><rect fill="none" height="76.43999999999998" stroke="black" stroke-width="2" transform="rotate(14,157.3,188.22)" width="54.599999999999994" x="130" y="150" /><rect fill="none" height="58.8" stroke="black" stroke-width="2" transform="rotate(111,148.0,173.4)" width="42.0" x="127" y="144" /><polygon fill="none" points="35,188.15999999999997 99.39999999999999,188.15999999999997 67.19999999999999,98" stroke="black" stroke-width="2" transform="rotate(289,67.19999999999999,143.07999999999998)" /><line stroke="black" stroke-width="2" transform="rotate(240,78.1,129.1)" x1="48" x2="108.19999999999999" y1="99" y2="159.2" /><polygon fill="none" points="19,117.19999999999999 82.0,117.19999999999999 50.5,29" stroke="black" stroke-width="2" transform="rotate(24,50.5,73.1)" /></g></svg>