<?xml version="1.0" encoding="utf-8" ?>
<svg baseProfile="full" height="1000px" version="1.1" width="600px" xmlns="http://www.w3.org/2000/svg" xmlns:ev="http://www.w3.org/2001/xml-events" xmlns:xlink="http://www.w3.org/1999/xlink"><defs /><rect fill="white" height="100%" width="100%" x="0" y="0" /><text font-family="Arial" font-size="24" text-anchor="middle" x="300" y="40">Visual Discrimination Test</text><text font-family="Arial" font-size="18" text-anchor="middle" x="300" y="80">Target Pattern</text><g transform="translate(200,100)"><polygon fill="none" points="80,112 118,112 99.0,74" stroke="black" stroke-width="2" transform="rotate(86,99.0,93.0)" /><polygon fill="none" points="65,161 102,161 83.5,124" stroke="black" stroke-width="2" transform="rotate(272,83.5,142.5)" /><circle cx="32" cy="144" fill="none" r="20.5" stroke="black" stroke-width="2" /><circle cx="83" cy="93" fill="none" r="23.0" stroke="black" stroke-width="2" /><line stroke="black" stroke-width="2" transform="rotate(280,98.5,103.5)" x1="78" x2="119" y1="83" y2="124" /></g><text font-family="Arial" font-size="18" text-anchor="middle" x="300" y="350">Options</text><text font-family="Arial" font-size="14" text-anchor="middle" x="175" y="380">Option 1</text><g transform="translate(100,400)"><polygon fill="none" points="80,148.48 133.2,148.48 106.6,74" stroke="black" stroke-width="2" transform="rotate(92,106.6,111.24)" /><line stroke="black" stroke-width="2" transform="rotate(275,90.9,149.9)" x1="65" x2="116.8" y1="124" y2="175.8" /><line stroke="black" stroke-width="2" transform="rotate(240,60.7,172.7)" x1="32" x2="89.4" y1="144" y2="201.4" /><polygon fill="none" points="83,183.15999999999997 147.39999999999998,183.15999999999997 115.19999999999999,93" stroke="black" stroke-width="2" transform="rotate(39,115.19999999999999,138.07999999999998)" /><polygon fill="none" points="78,163.36 135.4,163.36 106.7,83" stroke="black" stroke-width="2" transform="rotate(283,106.7,123.18)" /></g><text font-family="Arial" font-size="14" text-anchor="middle" x="425" y="380">Option 2</text><g transform="translate(350,400)"><polygon fill="none" points="80,148.48 133.2,148.48 106.6,74" stroke="black" stroke-width="2" transform="rotate(91,106.6,111.24)" /><polygon fill="none" points="65,196.51999999999998 116.8,196.51999999999998 90.9,124" stroke="black" stroke-width="2" transform="rotate(275,90.9,160.26)" /><rect fill="none" height="80.36" stroke="black" stroke-width="2" transform="rotate(242,60.7,184.18)" width="57.4" x="32" y="144" /><polygon fill="none" points="83,183.15999999999997 147.39999999999998,183.15999999999997 115.19999999999999,93" stroke="black" stroke-width="2" transform="rotate(42,115.19999999999999,138.07999999999998)" /><rect fill="none" height="80.36" stroke="black" stroke-width="2" transform="rotate(283,106.7,123.18)" width="57.4" x="78" y="83" /></g><text font-family="Arial" font-size="14" text-anchor="middle" x="175" y="630">Option 3</text><g transform="translate(100,650)"><line stroke="black" stroke-width="2" transform="rotate(93,106.6,100.6)" x1="80" x2="133.2" y1="74" y2="127.19999999999999" /><rect fill="none" height="72.52" stroke="black" stroke-width="2" transform="rotate(275,90.9,160.26)" width="51.8" x="65" y="124" /><polygon fill="none" points="32,224.36 89.4,224.36 60.7,144" stroke="black" stroke-width="2" transform="rotate(241,60.7,184.18)" /><polygon fill="none" points="83,183.15999999999997 147.39999999999998,183.15999999999997 115.19999999999999,93" stroke="black" stroke-width="2" transform="rotate(41,115.19999999999999,138.07999999999998)" /><line stroke="black" stroke-width="2" transform="rotate(285,106.7,111.7)" x1="78" x2="135.4" y1="83" y2="140.4" /></g><text font-family="Arial" font-size="14" text-anchor="middle" x="425" y="630">Option 4</text><g transform="translate(350,650)"><polygon fill="none" points="80,112 118,112 99.0,74" stroke="black" stroke-width="2" transform="rotate(86,99.0,93.0)" /><polygon fill="none" points="65,161 102,161 83.5,124" stroke="black" stroke-width="2" transform="rotate(272,83.5,142.5)" /><circle cx="32" cy="144" fill="none" r="20.5" stroke="black" stroke-width="2" /><circle cx="83" cy="93" fill="none" r="23.0" stroke="black" stroke-width="2" /><line stroke="black" stroke-width="2" transform="rotate(280,98.5,103.5)" x1="78" x2="119" y1="83" y2="124" /></g></svg>