<?xml version="1.0" encoding="utf-8" ?>
<svg baseProfile="full" height="1000px" version="1.1" width="600px" xmlns="http://www.w3.org/2000/svg" xmlns:ev="http://www.w3.org/2001/xml-events" xmlns:xlink="http://www.w3.org/1999/xlink"><defs /><rect fill="white" height="100%" width="100%" x="0" y="0" /><text font-family="Arial" font-size="24" text-anchor="middle" x="300" y="40">Visual Discrimination Test</text><text font-family="Arial" font-size="18" text-anchor="middle" x="300" y="80">Target Pattern</text><g transform="translate(200,100)"><circle cx="69" cy="32" fill="none" r="21.5" stroke="black" stroke-width="2" /><polygon fill="none" points="112,123 146,123 129.0,89" stroke="black" stroke-width="2" transform="rotate(237,129.0,106.0)" /><circle cx="118" cy="97" fill="none" r="16.5" stroke="black" stroke-width="2" /><polygon fill="none" points="81,133 128,133 104.5,86" stroke="black" stroke-width="2" transform="rotate(158,104.5,109.5)" /><circle cx="25" cy="80" fill="none" r="19.5" stroke="black" stroke-width="2" /><rect fill="none" height="33" stroke="black" stroke-width="2" transform="rotate(116,44.5,111.5)" width="33" x="28" y="95" /></g><text font-family="Arial" font-size="18" text-anchor="middle" x="300" y="350">Options</text><text font-family="Arial" font-size="14" text-anchor="middle" x="175" y="380">Option 1</text><g transform="translate(100,400)"><line stroke="black" stroke-width="2" transform="rotate(228,99.1,62.099999999999994)" x1="69" x2="129.2" y1="32" y2="92.19999999999999" /><line stroke="black" stroke-width="2" transform="rotate(240,135.8,112.8)" x1="112" x2="159.6" y1="89" y2="136.6" /><line stroke="black" stroke-width="2" transform="rotate(329,141.1,120.1)" x1="118" x2="164.2" y1="97" y2="143.2" /><rect fill="none" height="92.11999999999999" stroke="black" stroke-width="2" transform="rotate(164,113.9,132.06)" width="65.8" x="81" y="86" /><polygon fill="none" points="25,156.44 79.6,156.44 52.3,80" stroke="black" stroke-width="2" transform="rotate(173,52.3,118.22)" /><line stroke="black" stroke-width="2" transform="rotate(119,51.099999999999994,118.1)" x1="28" x2="74.19999999999999" y1="95" y2="141.2" /></g><text font-family="Arial" font-size="14" text-anchor="middle" x="425" y="380">Option 2</text><g transform="translate(350,400)"><circle cx="69" cy="32" fill="none" r="21.5" stroke="black" stroke-width="2" /><polygon fill="none" points="112,123 146,123 129.0,89" stroke="black" stroke-width="2" transform="rotate(237,129.0,106.0)" /><circle cx="118" cy="97" fill="none" r="16.5" stroke="black" stroke-width="2" /><polygon fill="none" points="81,133 128,133 104.5,86" stroke="black" stroke-width="2" transform="rotate(158,104.5,109.5)" /><circle cx="25" cy="80" fill="none" r="19.5" stroke="black" stroke-width="2" /><rect fill="none" height="33" stroke="black" stroke-width="2" transform="rotate(116,44.5,111.5)" width="33" x="28" y="95" /></g><text font-family="Arial" font-size="14" text-anchor="middle" x="175" y="630">Option 3</text><g transform="translate(100,650)"><rect fill="none" height="84.27999999999999" stroke="black" stroke-width="2" transform="rotate(228,99.1,74.13999999999999)" width="60.199999999999996" x="69" y="32" /><polygon fill="none" points="112,155.64 159.6,155.64 135.8,89" stroke="black" stroke-width="2" transform="rotate(241,135.8,122.32)" /><rect fill="none" height="64.67999999999999" stroke="black" stroke-width="2" transform="rotate(330,141.1,129.34)" width="46.199999999999996" x="118" y="97" /><line stroke="black" stroke-width="2" transform="rotate(164,113.9,118.9)" x1="81" x2="146.8" y1="86" y2="151.8" /><rect fill="none" height="76.43999999999998" stroke="black" stroke-width="2" transform="rotate(170,52.3,118.22)" width="54.599999999999994" x="25" y="80" /><polygon fill="none" points="28,159.68 74.19999999999999,159.68 51.099999999999994,95" stroke="black" stroke-width="2" transform="rotate(119,51.099999999999994,127.34)" /></g><text font-family="Arial" font-size="14" text-anchor="middle" x="425" y="630">Option 4</text><g transform="translate(350,650)"><line stroke="black" stroke-width="2" transform="rotate(225,99.1,62.099999999999994)" x1="69" x2="129.2" y1="32" y2="92.19999999999999" /><polygon fill="none" points="112,155.64 159.6,155.64 135.8,89" stroke="black" stroke-width="2" transform="rotate(241,135.8,122.32)" /><polygon fill="none" points="118,161.68 164.2,161.68 141.1,97" stroke="black" stroke-width="2" transform="rotate(332,141.1,129.34)" /><rect fill="none" height="92.11999999999999" stroke="black" stroke-width="2" transform="rotate(163,113.9,132.06)" width="65.8" x="81" y="86" /><rect fill="none" height="76.43999999999998" stroke="black" stroke-width="2" transform="rotate(173,52.3,118.22)" width="54.599999999999994" x="25" y="80" /><rect fill="none" height="64.67999999999999" stroke="black" stroke-width="2" transform="rotate(121,51.099999999999994,127.34)" width="46.199999999999996" x="28" y="95" /></g></svg>