<?xml version="1.0" encoding="utf-8" ?>
<svg baseProfile="full" height="1000px" version="1.1" width="600px" xmlns="http://www.w3.org/2000/svg" xmlns:ev="http://www.w3.org/2001/xml-events" xmlns:xlink="http://www.w3.org/1999/xlink"><defs /><rect fill="white" height="100%" width="100%" x="0" y="0" /><text font-family="Arial" font-size="24" text-anchor="middle" x="300" y="40">Visual Discrimination Test</text><text font-family="Arial" font-size="18" text-anchor="middle" x="300" y="80">Target Pattern</text><g transform="translate(200,100)"><rect fill="none" height="49" stroke="black" stroke-width="2" transform="rotate(177,99.5,123.5)" width="49" x="75" y="99" /><rect fill="none" height="44" stroke="black" stroke-width="2" transform="rotate(209,35.0,85.0)" width="44" x="13" y="63" /></g><text font-family="Arial" font-size="18" text-anchor="middle" x="300" y="350">Options</text><text font-family="Arial" font-size="14" text-anchor="middle" x="175" y="380">Option 1</text><g transform="translate(100,400)"><line stroke="black" stroke-width="2" transform="rotate(182,109.3,133.3)" x1="75" x2="143.6" y1="99" y2="167.6" /><rect fill="none" height="86.23999999999998" stroke="black" stroke-width="2" transform="rotate(212,43.8,106.11999999999999)" width="61.599999999999994" x="13" y="63" /></g><text font-family="Arial" font-size="14" text-anchor="middle" x="425" y="380">Option 2</text><g transform="translate(350,400)"><polygon fill="none" points="75,195.04 143.6,195.04 109.3,99" stroke="black" stroke-width="2" transform="rotate(182,109.3,147.01999999999998)" /><polygon fill="none" points="13,149.23999999999998 74.6,149.23999999999998 43.8,63" stroke="black" stroke-width="2" transform="rotate(214,43.8,106.11999999999999)" /></g><text font-family="Arial" font-size="14" text-anchor="middle" x="175" y="630">Option 3</text><g transform="translate(100,650)"><polygon fill="none" points="75,195.04 143.6,195.04 109.3,99" stroke="black" stroke-width="2" transform="rotate(183,109.3,147.01999999999998)" /><polygon fill="none" points="13,149.23999999999998 74.6,149.23999999999998 43.8,63" stroke="black" stroke-width="2" transform="rotate(214,43.8,106.11999999999999)" /></g><text font-family="Arial" font-size="14" text-anchor="middle" x="425" y="630">Option 4</text><g transform="translate(350,650)"><rect fill="none" height="49" stroke="black" stroke-width="2" transform="rotate(177,99.5,123.5)" width="49" x="75" y="99" /><rect fill="none" height="44" stroke="black" stroke-width="2" transform="rotate(209,35.0,85.0)" width="44" x="13" y="63" /></g></svg>