<?xml version="1.0" encoding="utf-8" ?>
<svg baseProfile="full" height="1000px" version="1.1" width="600px" xmlns="http://www.w3.org/2000/svg" xmlns:ev="http://www.w3.org/2001/xml-events" xmlns:xlink="http://www.w3.org/1999/xlink"><defs /><rect fill="white" height="100%" width="100%" x="0" y="0" /><text font-family="Arial" font-size="24" text-anchor="middle" x="300" y="40">Visual Discrimination Test</text><text font-family="Arial" font-size="18" text-anchor="middle" x="300" y="80">Target Pattern</text><g transform="translate(200,100)"><polygon fill="none" points="111,127 141,127 126.0,97" stroke="black" stroke-width="2" transform="rotate(71,126.0,112.0)" /><circle cx="61" cy="145" fill="none" r="23.0" stroke="black" stroke-width="2" /><rect fill="none" height="46" stroke="black" stroke-width="2" transform="rotate(302,60.0,53.0)" width="46" x="37" y="30" /><rect fill="none" height="40" stroke="black" stroke-width="2" transform="rotate(169,106.0,79.0)" width="40" x="86" y="59" /><line stroke="black" stroke-width="2" transform="rotate(280,50.0,63.0)" x1="30" x2="70" y1="43" y2="83" /><circle cx="91" cy="106" fill="none" r="23.5" stroke="black" stroke-width="2" /><rect fill="none" height="38" stroke="black" stroke-width="2" transform="rotate(225,122.0,60.0)" width="38" x="103" y="41" /><circle cx="42" cy="67" fill="none" r="23.0" stroke="black" stroke-width="2" /><circle cx="86" cy="140" fill="none" r="16.0" stroke="black" stroke-width="2" /><polygon fill="none" points="107,45 141,45 124.0,11" stroke="black" stroke-width="2" transform="rotate(207,124.0,28.0)" /></g><text font-family="Arial" font-size="18" text-anchor="middle" x="300" y="350">Options</text><text font-family="Arial" font-size="14" text-anchor="middle" x="175" y="380">Option 1</text><g transform="translate(100,400)"><line stroke="black" stroke-width="2" transform="rotate(78,132.0,118.0)" x1="111" x2="153.0" y1="97" y2="139.0" /><line stroke="black" stroke-width="2" transform="rotate(163,93.19999999999999,177.2)" x1="61" x2="125.39999999999999" y1="145" y2="209.39999999999998" /><polygon fill="none" points="37,120.15999999999998 101.39999999999999,120.15999999999998 69.19999999999999,30" stroke="black" stroke-width="2" transform="rotate(305,69.19999999999999,75.07999999999998)" /><polygon fill="none" points="86,137.39999999999998 142.0,137.39999999999998 114.0,59" stroke="black" stroke-width="2" transform="rotate(173,114.0,98.19999999999999)" /><line stroke="black" stroke-width="2" transform="rotate(287,58.0,71.0)" x1="30" x2="86.0" y1="43" y2="99.0" /><line stroke="black" stroke-width="2" transform="rotate(252,123.9,138.9)" x1="91" x2="156.8" y1="106" y2="171.8" /><line stroke="black" stroke-width="2" transform="rotate(229,129.6,67.6)" x1="103" x2="156.2" y1="41" y2="94.19999999999999" /><line stroke="black" stroke-width="2" transform="rotate(324,74.19999999999999,99.19999999999999)" x1="42" x2="106.39999999999999" y1="67" y2="131.39999999999998" /><rect fill="none" height="62.71999999999999" stroke="black" stroke-width="2" transform="rotate(62,108.4,171.35999999999999)" width="44.8" x="86" y="140" /><line stroke="black" stroke-width="2" transform="rotate(210,130.8,34.8)" x1="107" x2="154.6" y1="11" y2="58.599999999999994" /></g><text font-family="Arial" font-size="14" text-anchor="middle" x="425" y="380">Option 2</text><g transform="translate(350,400)"><polygon fill="none" points="111,127 141,127 126.0,97" stroke="black" stroke-width="2" transform="rotate(71,126.0,112.0)" /><circle cx="61" cy="145" fill="none" r="23.0" stroke="black" stroke-width="2" /><rect fill="none" height="46" stroke="black" stroke-width="2" transform="rotate(302,60.0,53.0)" width="46" x="37" y="30" /><rect fill="none" height="40" stroke="black" stroke-width="2" transform="rotate(169,106.0,79.0)" width="40" x="86" y="59" /><line stroke="black" stroke-width="2" transform="rotate(280,50.0,63.0)" x1="30" x2="70" y1="43" y2="83" /><circle cx="91" cy="106" fill="none" r="23.5" stroke="black" stroke-width="2" /><rect fill="none" height="38" stroke="black" stroke-width="2" transform="rotate(225,122.0,60.0)" width="38" x="103" y="41" /><circle cx="42" cy="67" fill="none" r="23.0" stroke="black" stroke-width="2" /><circle cx="86" cy="140" fill="none" r="16.0" stroke="black" stroke-width="2" /><polygon fill="none" points="107,45 141,45 124.0,11" stroke="black" stroke-width="2" transform="rotate(207,124.0,28.0)" /></g><text font-family="Arial" font-size="14" text-anchor="middle" x="175" y="630">Option 3</text><g transform="translate(100,650)"><line stroke="black" stroke-width="2" transform="rotate(75,132.0,118.0)" x1="111" x2="153.0" y1="97" y2="139.0" /><rect fill="none" height="90.15999999999998" stroke="black" stroke-width="2" transform="rotate(165,93.19999999999999,190.07999999999998)" width="64.39999999999999" x="61" y="145" /><polygon fill="none" points="37,120.15999999999998 101.39999999999999,120.15999999999998 69.19999999999999,30" stroke="black" stroke-width="2" transform="rotate(307,69.19999999999999,75.07999999999998)" /><polygon fill="none" points="86,137.39999999999998 142.0,137.39999999999998 114.0,59" stroke="black" stroke-width="2" transform="rotate(173,114.0,98.19999999999999)" /><rect fill="none" height="78.39999999999999" stroke="black" stroke-width="2" transform="rotate(287,58.0,82.19999999999999)" width="56.0" x="30" y="43" /><line stroke="black" stroke-width="2" transform="rotate(254,123.9,138.9)" x1="91" x2="156.8" y1="106" y2="171.8" /><polygon fill="none" points="103,115.47999999999999 156.2,115.47999999999999 129.6,41" stroke="black" stroke-width="2" transform="rotate(230,129.6,78.24)" /><line stroke="black" stroke-width="2" transform="rotate(322,74.19999999999999,99.19999999999999)" x1="42" x2="106.39999999999999" y1="67" y2="131.39999999999998" /><polygon fill="none" points="86,202.72 130.8,202.72 108.4,140" stroke="black" stroke-width="2" transform="rotate(63,108.4,171.35999999999999)" /><rect fill="none" height="66.63999999999999" stroke="black" stroke-width="2" transform="rotate(214,130.8,44.31999999999999)" width="47.599999999999994" x="107" y="11" /></g><text font-family="Arial" font-size="14" text-anchor="middle" x="425" y="630">Option 4</text><g transform="translate(350,650)"><polygon fill="none" points="111,155.8 153.0,155.8 132.0,97" stroke="black" stroke-width="2" transform="rotate(74,132.0,126.4)" /><polygon fill="none" points="61,235.15999999999997 125.39999999999999,235.15999999999997 93.19999999999999,145" stroke="black" stroke-width="2" transform="rotate(162,93.19999999999999,190.07999999999998)" /><line stroke="black" stroke-width="2" transform="rotate(307,69.19999999999999,62.199999999999996)" x1="37" x2="101.39999999999999" y1="30" y2="94.39999999999999" /><line stroke="black" stroke-width="2" transform="rotate(174,114.0,87.0)" x1="86" x2="142.0" y1="59" y2="115.0" /><line stroke="black" stroke-width="2" transform="rotate(284,58.0,71.0)" x1="30" x2="86.0" y1="43" y2="99.0" /><rect fill="none" height="92.11999999999999" stroke="black" stroke-width="2" transform="rotate(255,123.9,152.06)" width="65.8" x="91" y="106" /><polygon fill="none" points="103,115.47999999999999 156.2,115.47999999999999 129.6,41" stroke="black" stroke-width="2" transform="rotate(230,129.6,78.24)" /><line stroke="black" stroke-width="2" transform="rotate(326,74.19999999999999,99.19999999999999)" x1="42" x2="106.39999999999999" y1="67" y2="131.39999999999998" /><line stroke="black" stroke-width="2" transform="rotate(62,108.4,162.4)" x1="86" x2="130.8" y1="140" y2="184.8" /><rect fill="none" height="66.63999999999999" stroke="black" stroke-width="2" transform="rotate(211,130.8,44.31999999999999)" width="47.599999999999994" x="107" y="11" /></g></svg>