<?xml version="1.0" encoding="utf-8" ?>
<svg baseProfile="full" height="1000px" version="1.1" width="600px" xmlns="http://www.w3.org/2000/svg" xmlns:ev="http://www.w3.org/2001/xml-events" xmlns:xlink="http://www.w3.org/1999/xlink"><defs /><rect fill="white" height="100%" width="100%" x="0" y="0" /><text font-family="Arial" font-size="24" text-anchor="middle" x="300" y="40">Visual Discrimination Test</text><text font-family="Arial" font-size="18" text-anchor="middle" x="300" y="80">Target Pattern</text><g transform="translate(200,100)"><rect fill="none" height="30" stroke="black" stroke-width="2" transform="rotate(334,25.0,54.0)" width="30" x="10" y="39" /><line stroke="black" stroke-width="2" transform="rotate(95,35.0,113.0)" x1="11" x2="59" y1="89" y2="137" /><line stroke="black" stroke-width="2" transform="rotate(163,165.0,80.0)" x1="142" x2="188" y1="57" y2="103" /><circle cx="47" cy="74" fill="none" r="17.5" stroke="black" stroke-width="2" /><circle cx="17" cy="47" fill="none" r="18.0" stroke="black" stroke-width="2" /><rect fill="none" height="36" stroke="black" stroke-width="2" transform="rotate(154,110.0,100.0)" width="36" x="92" y="82" /><polygon fill="none" points="122,178 169,178 145.5,131" stroke="black" stroke-width="2" transform="rotate(77,145.5,154.5)" /><line stroke="black" stroke-width="2" transform="rotate(107,99.0,116.0)" x1="81" x2="117" y1="98" y2="134" /><rect fill="none" height="46" stroke="black" stroke-width="2" transform="rotate(309,76.0,148.0)" width="46" x="53" y="125" /><line stroke="black" stroke-width="2" transform="rotate(43,150.5,109.5)" x1="129" x2="172" y1="88" y2="131" /></g><text font-family="Arial" font-size="18" text-anchor="middle" x="300" y="350">Options</text><text font-family="Arial" font-size="14" text-anchor="middle" x="175" y="380">Option 1</text><g transform="translate(100,400)"><rect fill="none" height="19.200000000000003" stroke="black" stroke-width="2" transform="rotate(340,22.0,48.6)" width="24.0" x="10" y="39" /><rect fill="none" height="30.720000000000006" stroke="black" stroke-width="2" transform="rotate(99,30.200000000000003,104.36)" width="38.400000000000006" x="11" y="89" /><line stroke="black" stroke-width="2" transform="rotate(168,160.4,75.4)" x1="142" x2="178.8" y1="57" y2="93.80000000000001" /><rect fill="none" height="22.400000000000002" stroke="black" stroke-width="2" transform="rotate(52,61.0,85.2)" width="28.0" x="47" y="74" /><line stroke="black" stroke-width="2" transform="rotate(337,31.4,61.4)" x1="17" x2="45.8" y1="47" y2="75.8" /><rect fill="none" height="23.040000000000003" stroke="black" stroke-width="2" transform="rotate(157,106.4,93.52)" width="28.8" x="92" y="82" /><polygon fill="none" points="122,161.08 159.6,161.08 140.8,131" stroke="black" stroke-width="2" transform="rotate(80,140.8,146.04)" /><polygon fill="none" points="81,121.04 109.8,121.04 95.4,98" stroke="black" stroke-width="2" transform="rotate(112,95.4,109.52)" /><polygon fill="none" points="53,154.44 89.80000000000001,154.44 71.4,125" stroke="black" stroke-width="2" transform="rotate(312,71.4,139.72)" /><polygon fill="none" points="129,115.52 163.4,115.52 146.2,88" stroke="black" stroke-width="2" transform="rotate(48,146.2,101.76)" /></g><text font-family="Arial" font-size="14" text-anchor="middle" x="425" y="380">Option 2</text><g transform="translate(350,400)"><rect fill="none" height="30" stroke="black" stroke-width="2" transform="rotate(334,25.0,54.0)" width="30" x="10" y="39" /><line stroke="black" stroke-width="2" transform="rotate(95,35.0,113.0)" x1="11" x2="59" y1="89" y2="137" /><line stroke="black" stroke-width="2" transform="rotate(163,165.0,80.0)" x1="142" x2="188" y1="57" y2="103" /><circle cx="47" cy="74" fill="none" r="17.5" stroke="black" stroke-width="2" /><circle cx="17" cy="47" fill="none" r="18.0" stroke="black" stroke-width="2" /><rect fill="none" height="36" stroke="black" stroke-width="2" transform="rotate(154,110.0,100.0)" width="36" x="92" y="82" /><polygon fill="none" points="122,178 169,178 145.5,131" stroke="black" stroke-width="2" transform="rotate(77,145.5,154.5)" /><line stroke="black" stroke-width="2" transform="rotate(107,99.0,116.0)" x1="81" x2="117" y1="98" y2="134" /><rect fill="none" height="46" stroke="black" stroke-width="2" transform="rotate(309,76.0,148.0)" width="46" x="53" y="125" /><line stroke="black" stroke-width="2" transform="rotate(43,150.5,109.5)" x1="129" x2="172" y1="88" y2="131" /></g><text font-family="Arial" font-size="14" text-anchor="middle" x="175" y="630">Option 3</text><g transform="translate(100,650)"><line stroke="black" stroke-width="2" transform="rotate(339,22.0,51.0)" x1="10" x2="34.0" y1="39" y2="63.0" /><polygon fill="none" points="11,119.72 49.400000000000006,119.72 30.200000000000003,89" stroke="black" stroke-width="2" transform="rotate(100,30.200000000000003,104.36)" /><polygon fill="none" points="142,86.44 178.8,86.44 160.4,57" stroke="black" stroke-width="2" transform="rotate(167,160.4,71.72)" /><rect fill="none" height="22.400000000000002" stroke="black" stroke-width="2" transform="rotate(53,61.0,85.2)" width="28.0" x="47" y="74" /><polygon fill="none" points="17,70.04 45.8,70.04 31.4,47" stroke="black" stroke-width="2" transform="rotate(340,31.4,58.52)" /><polygon fill="none" points="92,105.04 120.8,105.04 106.4,82" stroke="black" stroke-width="2" transform="rotate(161,106.4,93.52)" /><line stroke="black" stroke-width="2" transform="rotate(80,140.8,149.8)" x1="122" x2="159.6" y1="131" y2="168.6" /><rect fill="none" height="23.040000000000003" stroke="black" stroke-width="2" transform="rotate(113,95.4,109.52)" width="28.8" x="81" y="98" /><line stroke="black" stroke-width="2" transform="rotate(312,71.4,143.4)" x1="53" x2="89.80000000000001" y1="125" y2="161.8" /><rect fill="none" height="27.52" stroke="black" stroke-width="2" transform="rotate(49,146.2,101.76)" width="34.4" x="129" y="88" /></g><text font-family="Arial" font-size="14" text-anchor="middle" x="425" y="630">Option 4</text><g transform="translate(350,650)"><line stroke="black" stroke-width="2" transform="rotate(337,22.0,51.0)" x1="10" x2="34.0" y1="39" y2="63.0" /><polygon fill="none" points="11,119.72 49.400000000000006,119.72 30.200000000000003,89" stroke="black" stroke-width="2" transform="rotate(101,30.200000000000003,104.36)" /><line stroke="black" stroke-width="2" transform="rotate(167,160.4,75.4)" x1="142" x2="178.8" y1="57" y2="93.80000000000001" /><line stroke="black" stroke-width="2" transform="rotate(54,61.0,88.0)" x1="47" x2="75.0" y1="74" y2="102.0" /><rect fill="none" height="23.040000000000003" stroke="black" stroke-width="2" transform="rotate(338,31.4,58.52)" width="28.8" x="17" y="47" /><line stroke="black" stroke-width="2" transform="rotate(158,106.4,96.4)" x1="92" x2="120.8" y1="82" y2="110.8" /><line stroke="black" stroke-width="2" transform="rotate(83,140.8,149.8)" x1="122" x2="159.6" y1="131" y2="168.6" /><rect fill="none" height="23.040000000000003" stroke="black" stroke-width="2" transform="rotate(110,95.4,109.52)" width="28.8" x="81" y="98" /><polygon fill="none" points="53,154.44 89.80000000000001,154.44 71.4,125" stroke="black" stroke-width="2" transform="rotate(313,71.4,139.72)" /><rect fill="none" height="27.52" stroke="black" stroke-width="2" transform="rotate(49,146.2,101.76)" width="34.4" x="129" y="88" /></g></svg>