<?xml version="1.0" encoding="utf-8" ?>
<svg baseProfile="full" height="1000px" version="1.1" width="600px" xmlns="http://www.w3.org/2000/svg" xmlns:ev="http://www.w3.org/2001/xml-events" xmlns:xlink="http://www.w3.org/1999/xlink"><defs /><rect fill="white" height="100%" width="100%" x="0" y="0" /><text font-family="Arial" font-size="24" text-anchor="middle" x="300" y="40">Visual Discrimination Test</text><text font-family="Arial" font-size="18" text-anchor="middle" x="300" y="80">Target Pattern</text><g transform="translate(200,100)"><circle cx="138" cy="24" fill="none" r="24.0" stroke="black" stroke-width="2" /><polygon fill="none" points="115,114 154,114 134.5,75" stroke="black" stroke-width="2" transform="rotate(190,134.5,94.5)" /><circle cx="87" cy="59" fill="none" r="16.0" stroke="black" stroke-width="2" /><rect fill="none" height="40" stroke="black" stroke-width="2" transform="rotate(210,160.0,109.0)" width="40" x="140" y="89" /><line stroke="black" stroke-width="2" transform="rotate(80,45.5,160.5)" x1="24" x2="67" y1="139" y2="182" /><line stroke="black" stroke-width="2" transform="rotate(246,69.0,121.0)" x1="54" x2="84" y1="106" y2="136" /></g><text font-family="Arial" font-size="18" text-anchor="middle" x="300" y="350">Options</text><text font-family="Arial" font-size="14" text-anchor="middle" x="175" y="380">Option 1</text><g transform="translate(100,400)"><circle cx="138" cy="24" fill="none" r="19.200000000000003" stroke="black" stroke-width="2" /><polygon fill="none" points="115,99.96000000000001 146.2,99.96000000000001 130.6,75" stroke="black" stroke-width="2" transform="rotate(214,130.6,87.48)" /><circle cx="87" cy="59" fill="none" r="12.8" stroke="black" stroke-width="2" /><rect fill="none" height="25.6" stroke="black" stroke-width="2" transform="rotate(236,156.0,101.8)" width="32.0" x="140" y="89" /><line stroke="black" stroke-width="2" transform="rotate(107,41.2,156.2)" x1="24" x2="58.4" y1="139" y2="173.4" /><line stroke="black" stroke-width="2" transform="rotate(273,66.0,118.0)" x1="54" x2="78.0" y1="106" y2="130.0" /></g><text font-family="Arial" font-size="14" text-anchor="middle" x="425" y="380">Option 2</text><g transform="translate(350,400)"><circle cx="138" cy="24" fill="none" r="24.0" stroke="black" stroke-width="2" /><polygon fill="none" points="115,114 154,114 134.5,75" stroke="black" stroke-width="2" transform="rotate(190,134.5,94.5)" /><circle cx="87" cy="59" fill="none" r="16.0" stroke="black" stroke-width="2" /><rect fill="none" height="40" stroke="black" stroke-width="2" transform="rotate(210,160.0,109.0)" width="40" x="140" y="89" /><line stroke="black" stroke-width="2" transform="rotate(80,45.5,160.5)" x1="24" x2="67" y1="139" y2="182" /><line stroke="black" stroke-width="2" transform="rotate(246,69.0,121.0)" x1="54" x2="84" y1="106" y2="136" /></g><text font-family="Arial" font-size="14" text-anchor="middle" x="175" y="630">Option 3</text><g transform="translate(100,650)"><circle cx="138" cy="24" fill="none" r="19.200000000000003" stroke="black" stroke-width="2" /><polygon fill="none" points="115,99.96000000000001 146.2,99.96000000000001 130.6,75" stroke="black" stroke-width="2" transform="rotate(216,130.6,87.48)" /><circle cx="87" cy="59" fill="none" r="12.8" stroke="black" stroke-width="2" /><rect fill="none" height="25.6" stroke="black" stroke-width="2" transform="rotate(236,156.0,101.8)" width="32.0" x="140" y="89" /><line stroke="black" stroke-width="2" transform="rotate(107,41.2,156.2)" x1="24" x2="58.4" y1="139" y2="173.4" /><line stroke="black" stroke-width="2" transform="rotate(272,66.0,118.0)" x1="54" x2="78.0" y1="106" y2="130.0" /></g><text font-family="Arial" font-size="14" text-anchor="middle" x="425" y="630">Option 4</text><g transform="translate(350,650)"><circle cx="138" cy="24" fill="none" r="19.200000000000003" stroke="black" stroke-width="2" /><polygon fill="none" points="115,99.96000000000001 146.2,99.96000000000001 130.6,75" stroke="black" stroke-width="2" transform="rotate(214,130.6,87.48)" /><circle cx="87" cy="59" fill="none" r="12.8" stroke="black" stroke-width="2" /><rect fill="none" height="25.6" stroke="black" stroke-width="2" transform="rotate(233,156.0,101.8)" width="32.0" x="140" y="89" /><line stroke="black" stroke-width="2" transform="rotate(106,41.2,156.2)" x1="24" x2="58.4" y1="139" y2="173.4" /><line stroke="black" stroke-width="2" transform="rotate(273,66.0,118.0)" x1="54" x2="78.0" y1="106" y2="130.0" /></g></svg>