<?xml version="1.0" encoding="utf-8" ?>
<svg baseProfile="full" height="1000px" version="1.1" width="600px" xmlns="http://www.w3.org/2000/svg" xmlns:ev="http://www.w3.org/2001/xml-events" xmlns:xlink="http://www.w3.org/1999/xlink"><defs /><rect fill="white" height="100%" width="100%" x="0" y="0" /><text font-family="Arial" font-size="24" text-anchor="middle" x="300" y="40">Visual Discrimination Test</text><text font-family="Arial" font-size="18" text-anchor="middle" x="300" y="80">Target Pattern</text><g transform="translate(200,100)"><rect fill="none" height="35" stroke="black" stroke-width="2" transform="rotate(120,107.5,75.5)" width="35" x="90" y="58" /><circle cx="128" cy="61" fill="none" r="24.5" stroke="black" stroke-width="2" /><rect fill="none" height="49" stroke="black" stroke-width="2" transform="rotate(221,44.5,169.5)" width="49" x="20" y="145" /><polygon fill="none" points="119,186 165,186 142.0,140" stroke="black" stroke-width="2" transform="rotate(105,142.0,163.0)" /><polygon fill="none" points="55,146 98,146 76.5,103" stroke="black" stroke-width="2" transform="rotate(256,76.5,124.5)" /><rect fill="none" height="39" stroke="black" stroke-width="2" transform="rotate(111,50.5,106.5)" width="39" x="31" y="87" /><rect fill="none" height="32" stroke="black" stroke-width="2" transform="rotate(283,60.0,69.0)" width="32" x="44" y="53" /><rect fill="none" height="42" stroke="black" stroke-width="2" transform="rotate(232,136.0,104.0)" width="42" x="115" y="83" /><rect fill="none" height="39" stroke="black" stroke-width="2" transform="rotate(275,66.5,72.5)" width="39" x="47" y="53" /></g><text font-family="Arial" font-size="18" text-anchor="middle" x="300" y="350">Options</text><text font-family="Arial" font-size="14" text-anchor="middle" x="175" y="380">Option 1</text><g transform="translate(100,400)"><rect fill="none" height="35" stroke="black" stroke-width="2" transform="rotate(120,107.5,75.5)" width="35" x="90" y="58" /><circle cx="128" cy="61" fill="none" r="24.5" stroke="black" stroke-width="2" /><rect fill="none" height="49" stroke="black" stroke-width="2" transform="rotate(221,44.5,169.5)" width="49" x="20" y="145" /><polygon fill="none" points="119,186 165,186 142.0,140" stroke="black" stroke-width="2" transform="rotate(105,142.0,163.0)" /><polygon fill="none" points="55,146 98,146 76.5,103" stroke="black" stroke-width="2" transform="rotate(256,76.5,124.5)" /><rect fill="none" height="39" stroke="black" stroke-width="2" transform="rotate(111,50.5,106.5)" width="39" x="31" y="87" /><rect fill="none" height="32" stroke="black" stroke-width="2" transform="rotate(283,60.0,69.0)" width="32" x="44" y="53" /><rect fill="none" height="42" stroke="black" stroke-width="2" transform="rotate(232,136.0,104.0)" width="42" x="115" y="83" /><rect fill="none" height="39" stroke="black" stroke-width="2" transform="rotate(275,66.5,72.5)" width="39" x="47" y="53" /></g><text font-family="Arial" font-size="14" text-anchor="middle" x="425" y="380">Option 2</text><g transform="translate(350,400)"><rect fill="none" height="22.400000000000002" stroke="black" stroke-width="2" transform="rotate(144,104.0,69.2)" width="28.0" x="90" y="58" /><circle cx="128" cy="61" fill="none" r="19.6" stroke="black" stroke-width="2" /><rect fill="none" height="31.360000000000003" stroke="black" stroke-width="2" transform="rotate(247,39.6,160.68)" width="39.2" x="20" y="145" /><polygon fill="none" points="119,169.44 155.8,169.44 137.4,140" stroke="black" stroke-width="2" transform="rotate(132,137.4,154.72)" /><polygon fill="none" points="55,130.52 89.4,130.52 72.2,103" stroke="black" stroke-width="2" transform="rotate(281,72.2,116.76)" /><rect fill="none" height="24.960000000000004" stroke="black" stroke-width="2" transform="rotate(135,46.6,99.48)" width="31.200000000000003" x="31" y="87" /><rect fill="none" height="20.480000000000004" stroke="black" stroke-width="2" transform="rotate(309,56.8,63.24)" width="25.6" x="44" y="53" /><rect fill="none" height="26.880000000000003" stroke="black" stroke-width="2" transform="rotate(255,131.8,96.44)" width="33.6" x="115" y="83" /><rect fill="none" height="24.960000000000004" stroke="black" stroke-width="2" transform="rotate(298,62.6,65.48)" width="31.200000000000003" x="47" y="53" /></g><text font-family="Arial" font-size="14" text-anchor="middle" x="175" y="630">Option 3</text><g transform="translate(100,650)"><rect fill="none" height="22.400000000000002" stroke="black" stroke-width="2" transform="rotate(143,104.0,69.2)" width="28.0" x="90" y="58" /><circle cx="128" cy="61" fill="none" r="19.6" stroke="black" stroke-width="2" /><rect fill="none" height="31.360000000000003" stroke="black" stroke-width="2" transform="rotate(245,39.6,160.68)" width="39.2" x="20" y="145" /><polygon fill="none" points="119,169.44 155.8,169.44 137.4,140" stroke="black" stroke-width="2" transform="rotate(132,137.4,154.72)" /><polygon fill="none" points="55,130.52 89.4,130.52 72.2,103" stroke="black" stroke-width="2" transform="rotate(282,72.2,116.76)" /><rect fill="none" height="24.960000000000004" stroke="black" stroke-width="2" transform="rotate(135,46.6,99.48)" width="31.200000000000003" x="31" y="87" /><rect fill="none" height="20.480000000000004" stroke="black" stroke-width="2" transform="rotate(310,56.8,63.24)" width="25.6" x="44" y="53" /><rect fill="none" height="26.880000000000003" stroke="black" stroke-width="2" transform="rotate(259,131.8,96.44)" width="33.6" x="115" y="83" /><rect fill="none" height="24.960000000000004" stroke="black" stroke-width="2" transform="rotate(302,62.6,65.48)" width="31.200000000000003" x="47" y="53" /></g><text font-family="Arial" font-size="14" text-anchor="middle" x="425" y="630">Option 4</text><g transform="translate(350,650)"><rect fill="none" height="22.400000000000002" stroke="black" stroke-width="2" transform="rotate(145,104.0,69.2)" width="28.0" x="90" y="58" /><circle cx="128" cy="61" fill="none" r="19.6" stroke="black" stroke-width="2" /><rect fill="none" height="31.360000000000003" stroke="black" stroke-width="2" transform="rotate(246,39.6,160.68)" width="39.2" x="20" y="145" /><polygon fill="none" points="119,169.44 155.8,169.44 137.4,140" stroke="black" stroke-width="2" transform="rotate(128,137.4,154.72)" /><polygon fill="none" points="55,130.52 89.4,130.52 72.2,103" stroke="black" stroke-width="2" transform="rotate(283,72.2,116.76)" /><rect fill="none" height="24.960000000000004" stroke="black" stroke-width="2" transform="rotate(138,46.6,99.48)" width="31.200000000000003" x="31" y="87" /><rect fill="none" height="20.480000000000004" stroke="black" stroke-width="2" transform="rotate(309,56.8,63.24)" width="25.6" x="44" y="53" /><rect fill="none" height="26.880000000000003" stroke="black" stroke-width="2" transform="rotate(257,131.8,96.44)" width="33.6" x="115" y="83" /><rect fill="none" height="24.960000000000004" stroke="black" stroke-width="2" transform="rotate(300,62.6,65.48)" width="31.200000000000003" x="47" y="53" /></g></svg>