<?xml version="1.0" encoding="utf-8" ?>
<svg baseProfile="full" height="1000px" version="1.1" width="600px" xmlns="http://www.w3.org/2000/svg" xmlns:ev="http://www.w3.org/2001/xml-events" xmlns:xlink="http://www.w3.org/1999/xlink"><defs /><rect fill="white" height="100%" width="100%" x="0" y="0" /><text font-family="Arial" font-size="24" text-anchor="middle" x="300" y="40">Visual Discrimination Test</text><text font-family="Arial" font-size="18" text-anchor="middle" x="300" y="80">Target Pattern</text><g transform="translate(200,100)"><rect fill="none" height="45" stroke="black" stroke-width="2" transform="rotate(127,99.5,80.5)" width="45" x="77" y="58" /><circle cx="93" cy="78" fill="none" r="16.5" stroke="black" stroke-width="2" /></g><text font-family="Arial" font-size="18" text-anchor="middle" x="300" y="350">Options</text><text font-family="Arial" font-size="14" text-anchor="middle" x="175" y="380">Option 1</text><g transform="translate(100,400)"><rect fill="none" height="28.8" stroke="black" stroke-width="2" transform="rotate(153,95.0,72.4)" width="36.0" x="77" y="58" /><circle cx="93" cy="78" fill="none" r="13.200000000000001" stroke="black" stroke-width="2" /></g><text font-family="Arial" font-size="14" text-anchor="middle" x="425" y="380">Option 2</text><g transform="translate(350,400)"><rect fill="none" height="28.8" stroke="black" stroke-width="2" transform="rotate(153,95.0,72.4)" width="36.0" x="77" y="58" /><circle cx="93" cy="78" fill="none" r="13.200000000000001" stroke="black" stroke-width="2" /></g><text font-family="Arial" font-size="14" text-anchor="middle" x="175" y="630">Option 3</text><g transform="translate(100,650)"><rect fill="none" height="28.8" stroke="black" stroke-width="2" transform="rotate(152,95.0,72.4)" width="36.0" x="77" y="58" /><circle cx="93" cy="78" fill="none" r="13.200000000000001" stroke="black" stroke-width="2" /></g><text font-family="Arial" font-size="14" text-anchor="middle" x="425" y="630">Option 4</text><g transform="translate(350,650)"><rect fill="none" height="45" stroke="black" stroke-width="2" transform="rotate(127,99.5,80.5)" width="45" x="77" y="58" /><circle cx="93" cy="78" fill="none" r="16.5" stroke="black" stroke-width="2" /></g></svg>