<?xml version="1.0" encoding="utf-8" ?>
<svg baseProfile="full" height="1000px" version="1.1" width="600px" xmlns="http://www.w3.org/2000/svg" xmlns:ev="http://www.w3.org/2001/xml-events" xmlns:xlink="http://www.w3.org/1999/xlink"><defs /><rect fill="white" height="100%" width="100%" x="0" y="0" /><text font-family="Arial" font-size="24" text-anchor="middle" x="300" y="40">Visual Discrimination Test</text><text font-family="Arial" font-size="18" text-anchor="middle" x="300" y="80">Target Pattern</text><g transform="translate(200,100)"><line stroke="black" stroke-width="2" transform="rotate(66,69.5,99.5)" x1="46" x2="93" y1="76" y2="123" /><rect fill="none" height="48" stroke="black" stroke-width="2" transform="rotate(174,96.0,90.0)" width="48" x="72" y="66" /><line stroke="black" stroke-width="2" transform="rotate(345,79.0,159.0)" x1="55" x2="103" y1="135" y2="183" /><rect fill="none" height="50" stroke="black" stroke-width="2" transform="rotate(173,156.0,113.0)" width="50" x="131" y="88" /><circle cx="53" cy="16" fill="none" r="18.0" stroke="black" stroke-width="2" /><polygon fill="none" points="80,53 119,53 99.5,14" stroke="black" stroke-width="2" transform="rotate(244,99.5,33.5)" /></g><text font-family="Arial" font-size="18" text-anchor="middle" x="300" y="350">Options</text><text font-family="Arial" font-size="14" text-anchor="middle" x="175" y="380">Option 1</text><g transform="translate(100,400)"><line stroke="black" stroke-width="2" transform="rotate(91,64.8,94.8)" x1="46" x2="83.6" y1="76" y2="113.6" /><rect fill="none" height="30.720000000000006" stroke="black" stroke-width="2" transform="rotate(200,91.2,81.36)" width="38.400000000000006" x="72" y="66" /><line stroke="black" stroke-width="2" transform="rotate(368,74.2,154.2)" x1="55" x2="93.4" y1="135" y2="173.4" /><rect fill="none" height="32.0" stroke="black" stroke-width="2" transform="rotate(199,151.0,104.0)" width="40.0" x="131" y="88" /><circle cx="53" cy="16" fill="none" r="14.4" stroke="black" stroke-width="2" /><polygon fill="none" points="80,38.96000000000001 111.2,38.96000000000001 95.6,14" stroke="black" stroke-width="2" transform="rotate(267,95.6,26.480000000000004)" /></g><text font-family="Arial" font-size="14" text-anchor="middle" x="425" y="380">Option 2</text><g transform="translate(350,400)"><line stroke="black" stroke-width="2" transform="rotate(91,64.8,94.8)" x1="46" x2="83.6" y1="76" y2="113.6" /><rect fill="none" height="30.720000000000006" stroke="black" stroke-width="2" transform="rotate(198,91.2,81.36)" width="38.400000000000006" x="72" y="66" /><line stroke="black" stroke-width="2" transform="rotate(368,74.2,154.2)" x1="55" x2="93.4" y1="135" y2="173.4" /><rect fill="none" height="32.0" stroke="black" stroke-width="2" transform="rotate(199,151.0,104.0)" width="40.0" x="131" y="88" /><circle cx="53" cy="16" fill="none" r="14.4" stroke="black" stroke-width="2" /><polygon fill="none" points="80,38.96000000000001 111.2,38.96000000000001 95.6,14" stroke="black" stroke-width="2" transform="rotate(268,95.6,26.480000000000004)" /></g><text font-family="Arial" font-size="14" text-anchor="middle" x="175" y="630">Option 3</text><g transform="translate(100,650)"><line stroke="black" stroke-width="2" transform="rotate(89,64.8,94.8)" x1="46" x2="83.6" y1="76" y2="113.6" /><rect fill="none" height="30.720000000000006" stroke="black" stroke-width="2" transform="rotate(201,91.2,81.36)" width="38.400000000000006" x="72" y="66" /><line stroke="black" stroke-width="2" transform="rotate(369,74.2,154.2)" x1="55" x2="93.4" y1="135" y2="173.4" /><rect fill="none" height="32.0" stroke="black" stroke-width="2" transform="rotate(198,151.0,104.0)" width="40.0" x="131" y="88" /><circle cx="53" cy="16" fill="none" r="14.4" stroke="black" stroke-width="2" /><polygon fill="none" points="80,38.96000000000001 111.2,38.96000000000001 95.6,14" stroke="black" stroke-width="2" transform="rotate(270,95.6,26.480000000000004)" /></g><text font-family="Arial" font-size="14" text-anchor="middle" x="425" y="630">Option 4</text><g transform="translate(350,650)"><line stroke="black" stroke-width="2" transform="rotate(66,69.5,99.5)" x1="46" x2="93" y1="76" y2="123" /><rect fill="none" height="48" stroke="black" stroke-width="2" transform="rotate(174,96.0,90.0)" width="48" x="72" y="66" /><line stroke="black" stroke-width="2" transform="rotate(345,79.0,159.0)" x1="55" x2="103" y1="135" y2="183" /><rect fill="none" height="50" stroke="black" stroke-width="2" transform="rotate(173,156.0,113.0)" width="50" x="131" y="88" /><circle cx="53" cy="16" fill="none" r="18.0" stroke="black" stroke-width="2" /><polygon fill="none" points="80,53 119,53 99.5,14" stroke="black" stroke-width="2" transform="rotate(244,99.5,33.5)" /></g></svg>