<?xml version="1.0" encoding="utf-8" ?>
<svg baseProfile="full" height="1000px" version="1.1" width="600px" xmlns="http://www.w3.org/2000/svg" xmlns:ev="http://www.w3.org/2001/xml-events" xmlns:xlink="http://www.w3.org/1999/xlink"><defs /><rect fill="white" height="100%" width="100%" x="0" y="0" /><text font-family="Arial" font-size="24" text-anchor="middle" x="300" y="40">Visual Discrimination Test</text><text font-family="Arial" font-size="18" text-anchor="middle" x="300" y="80">Target Pattern</text><g transform="translate(200,100)"><circle cx="128" cy="63" fill="none" r="19.0" stroke="black" stroke-width="2" /><polygon fill="none" points="23,172 69,172 46.0,126" stroke="black" stroke-width="2" transform="rotate(70,46.0,149.0)" /><polygon fill="none" points="109,83 140,83 124.5,52" stroke="black" stroke-width="2" transform="rotate(119,124.5,67.5)" /><line stroke="black" stroke-width="2" transform="rotate(155,99.5,139.5)" x1="75" x2="124" y1="115" y2="164" /><polygon fill="none" points="88,57 128,57 108.0,17" stroke="black" stroke-width="2" transform="rotate(57,108.0,37.0)" /><line stroke="black" stroke-width="2" transform="rotate(104,164.0,100.0)" x1="149" x2="179" y1="85" y2="115" /></g><text font-family="Arial" font-size="18" text-anchor="middle" x="300" y="350">Options</text><text font-family="Arial" font-size="14" text-anchor="middle" x="175" y="380">Option 1</text><g transform="translate(100,400)"><circle cx="128" cy="63" fill="none" r="15.200000000000001" stroke="black" stroke-width="2" /><polygon fill="none" points="23,155.44 59.800000000000004,155.44 41.400000000000006,126" stroke="black" stroke-width="2" transform="rotate(93,41.400000000000006,140.72)" /><polygon fill="none" points="109,71.84 133.8,71.84 121.4,52" stroke="black" stroke-width="2" transform="rotate(146,121.4,61.92)" /><line stroke="black" stroke-width="2" transform="rotate(182,94.6,134.6)" x1="75" x2="114.2" y1="115" y2="154.2" /><polygon fill="none" points="88,42.6 120.0,42.6 104.0,17" stroke="black" stroke-width="2" transform="rotate(81,104.0,29.8)" /><line stroke="black" stroke-width="2" transform="rotate(128,161.0,97.0)" x1="149" x2="173.0" y1="85" y2="109.0" /></g><text font-family="Arial" font-size="14" text-anchor="middle" x="425" y="380">Option 2</text><g transform="translate(350,400)"><circle cx="128" cy="63" fill="none" r="19.0" stroke="black" stroke-width="2" /><polygon fill="none" points="23,172 69,172 46.0,126" stroke="black" stroke-width="2" transform="rotate(70,46.0,149.0)" /><polygon fill="none" points="109,83 140,83 124.5,52" stroke="black" stroke-width="2" transform="rotate(119,124.5,67.5)" /><line stroke="black" stroke-width="2" transform="rotate(155,99.5,139.5)" x1="75" x2="124" y1="115" y2="164" /><polygon fill="none" points="88,57 128,57 108.0,17" stroke="black" stroke-width="2" transform="rotate(57,108.0,37.0)" /><line stroke="black" stroke-width="2" transform="rotate(104,164.0,100.0)" x1="149" x2="179" y1="85" y2="115" /></g><text font-family="Arial" font-size="14" text-anchor="middle" x="175" y="630">Option 3</text><g transform="translate(100,650)"><circle cx="128" cy="63" fill="none" r="15.200000000000001" stroke="black" stroke-width="2" /><polygon fill="none" points="23,155.44 59.800000000000004,155.44 41.400000000000006,126" stroke="black" stroke-width="2" transform="rotate(95,41.400000000000006,140.72)" /><polygon fill="none" points="109,71.84 133.8,71.84 121.4,52" stroke="black" stroke-width="2" transform="rotate(144,121.4,61.92)" /><line stroke="black" stroke-width="2" transform="rotate(178,94.6,134.6)" x1="75" x2="114.2" y1="115" y2="154.2" /><polygon fill="none" points="88,42.6 120.0,42.6 104.0,17" stroke="black" stroke-width="2" transform="rotate(83,104.0,29.8)" /><line stroke="black" stroke-width="2" transform="rotate(131,161.0,97.0)" x1="149" x2="173.0" y1="85" y2="109.0" /></g><text font-family="Arial" font-size="14" text-anchor="middle" x="425" y="630">Option 4</text><g transform="translate(350,650)"><circle cx="128" cy="63" fill="none" r="15.200000000000001" stroke="black" stroke-width="2" /><polygon fill="none" points="23,155.44 59.800000000000004,155.44 41.400000000000006,126" stroke="black" stroke-width="2" transform="rotate(97,41.400000000000006,140.72)" /><polygon fill="none" points="109,71.84 133.8,71.84 121.4,52" stroke="black" stroke-width="2" transform="rotate(144,121.4,61.92)" /><line stroke="black" stroke-width="2" transform="rotate(181,94.6,134.6)" x1="75" x2="114.2" y1="115" y2="154.2" /><polygon fill="none" points="88,42.6 120.0,42.6 104.0,17" stroke="black" stroke-width="2" transform="rotate(81,104.0,29.8)" /><line stroke="black" stroke-width="2" transform="rotate(131,161.0,97.0)" x1="149" x2="173.0" y1="85" y2="109.0" /></g></svg>