<?xml version="1.0" encoding="utf-8" ?>
<svg baseProfile="full" height="1000px" version="1.1" width="600px" xmlns="http://www.w3.org/2000/svg" xmlns:ev="http://www.w3.org/2001/xml-events" xmlns:xlink="http://www.w3.org/1999/xlink"><defs /><rect fill="white" height="100%" width="100%" x="0" y="0" /><text font-family="Arial" font-size="24" text-anchor="middle" x="300" y="40">Visual Discrimination Test</text><text font-family="Arial" font-size="18" text-anchor="middle" x="300" y="80">Target Pattern</text><g transform="translate(200,100)"><line stroke="black" stroke-width="2" transform="rotate(185,69.5,144.5)" x1="49" x2="90" y1="124" y2="165" /><rect fill="none" height="46" stroke="black" stroke-width="2" transform="rotate(227,87.0,164.0)" width="46" x="64" y="141" /><polygon fill="none" points="96,157 137,157 116.5,116" stroke="black" stroke-width="2" transform="rotate(51,116.5,136.5)" /><rect fill="none" height="36" stroke="black" stroke-width="2" transform="rotate(54,146.0,59.0)" width="36" x="128" y="41" /><circle cx="150" cy="134" fill="none" r="25.0" stroke="black" stroke-width="2" /><polygon fill="none" points="148,72 184,72 166.0,36" stroke="black" stroke-width="2" transform="rotate(234,166.0,54.0)" /><circle cx="134" cy="32" fill="none" r="22.0" stroke="black" stroke-width="2" /><rect fill="none" height="40" stroke="black" stroke-width="2" transform="rotate(308,115.0,90.0)" width="40" x="95" y="70" /><line stroke="black" stroke-width="2" transform="rotate(332,103.5,131.5)" x1="88" x2="119" y1="116" y2="147" /></g><text font-family="Arial" font-size="18" text-anchor="middle" x="300" y="350">Options</text><text font-family="Arial" font-size="14" text-anchor="middle" x="175" y="380">Option 1</text><g transform="translate(100,400)"><polygon fill="none" points="49,150.24 81.80000000000001,150.24 65.4,124" stroke="black" stroke-width="2" transform="rotate(210,65.4,137.12)" /><polygon fill="none" points="64,170.44 100.80000000000001,170.44 82.4,141" stroke="black" stroke-width="2" transform="rotate(250,82.4,155.72)" /><rect fill="none" height="26.240000000000006" stroke="black" stroke-width="2" transform="rotate(74,112.4,129.12)" width="32.800000000000004" x="96" y="116" /><polygon fill="none" points="128,64.04 156.8,64.04 142.4,41" stroke="black" stroke-width="2" transform="rotate(77,142.4,52.52)" /><polygon fill="none" points="150,166.0 190.0,166.0 170.0,134" stroke="black" stroke-width="2" transform="rotate(159,170.0,150.0)" /><polygon fill="none" points="148,59.040000000000006 176.8,59.040000000000006 162.4,36" stroke="black" stroke-width="2" transform="rotate(261,162.4,47.52)" /><line stroke="black" stroke-width="2" transform="rotate(312,151.6,49.6)" x1="134" x2="169.2" y1="32" y2="67.2" /><rect fill="none" height="25.6" stroke="black" stroke-width="2" transform="rotate(331,111.0,82.8)" width="32.0" x="95" y="70" /><rect fill="none" height="19.840000000000003" stroke="black" stroke-width="2" transform="rotate(358,100.4,125.92)" width="24.8" x="88" y="116" /></g><text font-family="Arial" font-size="14" text-anchor="middle" x="425" y="380">Option 2</text><g transform="translate(350,400)"><line stroke="black" stroke-width="2" transform="rotate(212,65.4,140.4)" x1="49" x2="81.80000000000001" y1="124" y2="156.8" /><polygon fill="none" points="64,170.44 100.80000000000001,170.44 82.4,141" stroke="black" stroke-width="2" transform="rotate(252,82.4,155.72)" /><polygon fill="none" points="96,142.24 128.8,142.24 112.4,116" stroke="black" stroke-width="2" transform="rotate(78,112.4,129.12)" /><rect fill="none" height="23.040000000000003" stroke="black" stroke-width="2" transform="rotate(79,142.4,52.52)" width="28.8" x="128" y="41" /><line stroke="black" stroke-width="2" transform="rotate(159,170.0,154.0)" x1="150" x2="190.0" y1="134" y2="174.0" /><rect fill="none" height="23.040000000000003" stroke="black" stroke-width="2" transform="rotate(259,162.4,47.52)" width="28.8" x="148" y="36" /><line stroke="black" stroke-width="2" transform="rotate(313,151.6,49.6)" x1="134" x2="169.2" y1="32" y2="67.2" /><polygon fill="none" points="95,95.6 127.0,95.6 111.0,70" stroke="black" stroke-width="2" transform="rotate(333,111.0,82.8)" /><line stroke="black" stroke-width="2" transform="rotate(358,100.4,128.4)" x1="88" x2="112.8" y1="116" y2="140.8" /></g><text font-family="Arial" font-size="14" text-anchor="middle" x="175" y="630">Option 3</text><g transform="translate(100,650)"><polygon fill="none" points="49,150.24 81.80000000000001,150.24 65.4,124" stroke="black" stroke-width="2" transform="rotate(212,65.4,137.12)" /><line stroke="black" stroke-width="2" transform="rotate(254,82.4,159.4)" x1="64" x2="100.80000000000001" y1="141" y2="177.8" /><rect fill="none" height="26.240000000000006" stroke="black" stroke-width="2" transform="rotate(75,112.4,129.12)" width="32.800000000000004" x="96" y="116" /><line stroke="black" stroke-width="2" transform="rotate(78,142.4,55.4)" x1="128" x2="156.8" y1="41" y2="69.8" /><line stroke="black" stroke-width="2" transform="rotate(161,170.0,154.0)" x1="150" x2="190.0" y1="134" y2="174.0" /><polygon fill="none" points="148,59.040000000000006 176.8,59.040000000000006 162.4,36" stroke="black" stroke-width="2" transform="rotate(258,162.4,47.52)" /><rect fill="none" height="28.160000000000004" stroke="black" stroke-width="2" transform="rotate(313,151.6,46.08)" width="35.2" x="134" y="32" /><line stroke="black" stroke-width="2" transform="rotate(332,111.0,86.0)" x1="95" x2="127.0" y1="70" y2="102.0" /><line stroke="black" stroke-width="2" transform="rotate(357,100.4,128.4)" x1="88" x2="112.8" y1="116" y2="140.8" /></g><text font-family="Arial" font-size="14" text-anchor="middle" x="425" y="630">Option 4</text><g transform="translate(350,650)"><line stroke="black" stroke-width="2" transform="rotate(185,69.5,144.5)" x1="49" x2="90" y1="124" y2="165" /><rect fill="none" height="46" stroke="black" stroke-width="2" transform="rotate(227,87.0,164.0)" width="46" x="64" y="141" /><polygon fill="none" points="96,157 137,157 116.5,116" stroke="black" stroke-width="2" transform="rotate(51,116.5,136.5)" /><rect fill="none" height="36" stroke="black" stroke-width="2" transform="rotate(54,146.0,59.0)" width="36" x="128" y="41" /><circle cx="150" cy="134" fill="none" r="25.0" stroke="black" stroke-width="2" /><polygon fill="none" points="148,72 184,72 166.0,36" stroke="black" stroke-width="2" transform="rotate(234,166.0,54.0)" /><circle cx="134" cy="32" fill="none" r="22.0" stroke="black" stroke-width="2" /><rect fill="none" height="40" stroke="black" stroke-width="2" transform="rotate(308,115.0,90.0)" width="40" x="95" y="70" /><line stroke="black" stroke-width="2" transform="rotate(332,103.5,131.5)" x1="88" x2="119" y1="116" y2="147" /></g></svg>