<?xml version="1.0" encoding="utf-8" ?>
<svg baseProfile="full" height="1000px" version="1.1" width="600px" xmlns="http://www.w3.org/2000/svg" xmlns:ev="http://www.w3.org/2001/xml-events" xmlns:xlink="http://www.w3.org/1999/xlink"><defs /><rect fill="white" height="100%" width="100%" x="0" y="0" /><text font-family="Arial" font-size="24" text-anchor="middle" x="300" y="40">Visual Discrimination Test</text><text font-family="Arial" font-size="18" text-anchor="middle" x="300" y="80">Target Pattern</text><g transform="translate(200,100)"><polygon fill="none" points="34,106 64,106 49.0,76" stroke="black" stroke-width="2" transform="rotate(243,49.0,91.0)" /><line stroke="black" stroke-width="2" transform="rotate(177,79.0,72.0)" x1="58" x2="100" y1="51" y2="93" /><circle cx="141" cy="149" fill="none" r="21.0" stroke="black" stroke-width="2" /><polygon fill="none" points="19,178 57,178 38.0,140" stroke="black" stroke-width="2" transform="rotate(119,38.0,159.0)" /><polygon fill="none" points="61,108 99,108 80.0,70" stroke="black" stroke-width="2" transform="rotate(283,80.0,89.0)" /><line stroke="black" stroke-width="2" transform="rotate(268,97.0,112.0)" x1="82" x2="112" y1="97" y2="127" /><line stroke="black" stroke-width="2" transform="rotate(286,68.5,33.5)" x1="52" x2="85" y1="17" y2="50" /><rect fill="none" height="39" stroke="black" stroke-width="2" transform="rotate(152,83.5,104.5)" width="39" x="64" y="85" /></g><text font-family="Arial" font-size="18" text-anchor="middle" x="300" y="350">Options</text><text font-family="Arial" font-size="14" text-anchor="middle" x="175" y="380">Option 1</text><g transform="translate(100,400)"><polygon fill="none" points="34,95.2 58.0,95.2 46.0,76" stroke="black" stroke-width="2" transform="rotate(268,46.0,85.6)" /><polygon fill="none" points="58,77.88 91.6,77.88 74.8,51" stroke="black" stroke-width="2" transform="rotate(204,74.8,64.44)" /><line stroke="black" stroke-width="2" transform="rotate(114,157.8,165.8)" x1="141" x2="174.6" y1="149" y2="182.6" /><polygon fill="none" points="19,164.32 49.400000000000006,164.32 34.2,140" stroke="black" stroke-width="2" transform="rotate(143,34.2,152.16)" /><line stroke="black" stroke-width="2" transform="rotate(310,76.2,85.2)" x1="61" x2="91.4" y1="70" y2="100.4" /><line stroke="black" stroke-width="2" transform="rotate(293,94.0,109.0)" x1="82" x2="106.0" y1="97" y2="121.0" /><polygon fill="none" points="52,38.120000000000005 78.4,38.120000000000005 65.2,17" stroke="black" stroke-width="2" transform="rotate(312,65.2,27.560000000000002)" /><polygon fill="none" points="64,109.96000000000001 95.2,109.96000000000001 79.6,85" stroke="black" stroke-width="2" transform="rotate(178,79.6,97.48)" /></g><text font-family="Arial" font-size="14" text-anchor="middle" x="425" y="380">Option 2</text><g transform="translate(350,400)"><rect fill="none" height="19.200000000000003" stroke="black" stroke-width="2" transform="rotate(269,46.0,85.6)" width="24.0" x="34" y="76" /><line stroke="black" stroke-width="2" transform="rotate(200,74.8,67.8)" x1="58" x2="91.6" y1="51" y2="84.6" /><rect fill="none" height="26.880000000000003" stroke="black" stroke-width="2" transform="rotate(114,157.8,162.44)" width="33.6" x="141" y="149" /><polygon fill="none" points="19,164.32 49.400000000000006,164.32 34.2,140" stroke="black" stroke-width="2" transform="rotate(146,34.2,152.16)" /><line stroke="black" stroke-width="2" transform="rotate(306,76.2,85.2)" x1="61" x2="91.4" y1="70" y2="100.4" /><line stroke="black" stroke-width="2" transform="rotate(295,94.0,109.0)" x1="82" x2="106.0" y1="97" y2="121.0" /><line stroke="black" stroke-width="2" transform="rotate(312,65.2,30.200000000000003)" x1="52" x2="78.4" y1="17" y2="43.400000000000006" /><line stroke="black" stroke-width="2" transform="rotate(177,79.6,100.6)" x1="64" x2="95.2" y1="85" y2="116.2" /></g><text font-family="Arial" font-size="14" text-anchor="middle" x="175" y="630">Option 3</text><g transform="translate(100,650)"><line stroke="black" stroke-width="2" transform="rotate(268,46.0,88.0)" x1="34" x2="58.0" y1="76" y2="100.0" /><rect fill="none" height="26.880000000000003" stroke="black" stroke-width="2" transform="rotate(200,74.8,64.44)" width="33.6" x="58" y="51" /><rect fill="none" height="26.880000000000003" stroke="black" stroke-width="2" transform="rotate(112,157.8,162.44)" width="33.6" x="141" y="149" /><polygon fill="none" points="19,164.32 49.400000000000006,164.32 34.2,140" stroke="black" stroke-width="2" transform="rotate(142,34.2,152.16)" /><rect fill="none" height="24.320000000000004" stroke="black" stroke-width="2" transform="rotate(308,76.2,82.16)" width="30.400000000000002" x="61" y="70" /><line stroke="black" stroke-width="2" transform="rotate(291,94.0,109.0)" x1="82" x2="106.0" y1="97" y2="121.0" /><polygon fill="none" points="52,38.120000000000005 78.4,38.120000000000005 65.2,17" stroke="black" stroke-width="2" transform="rotate(311,65.2,27.560000000000002)" /><rect fill="none" height="24.960000000000004" stroke="black" stroke-width="2" transform="rotate(179,79.6,97.48)" width="31.200000000000003" x="64" y="85" /></g><text font-family="Arial" font-size="14" text-anchor="middle" x="425" y="630">Option 4</text><g transform="translate(350,650)"><polygon fill="none" points="34,106 64,106 49.0,76" stroke="black" stroke-width="2" transform="rotate(243,49.0,91.0)" /><line stroke="black" stroke-width="2" transform="rotate(177,79.0,72.0)" x1="58" x2="100" y1="51" y2="93" /><circle cx="141" cy="149" fill="none" r="21.0" stroke="black" stroke-width="2" /><polygon fill="none" points="19,178 57,178 38.0,140" stroke="black" stroke-width="2" transform="rotate(119,38.0,159.0)" /><polygon fill="none" points="61,108 99,108 80.0,70" stroke="black" stroke-width="2" transform="rotate(283,80.0,89.0)" /><line stroke="black" stroke-width="2" transform="rotate(268,97.0,112.0)" x1="82" x2="112" y1="97" y2="127" /><line stroke="black" stroke-width="2" transform="rotate(286,68.5,33.5)" x1="52" x2="85" y1="17" y2="50" /><rect fill="none" height="39" stroke="black" stroke-width="2" transform="rotate(152,83.5,104.5)" width="39" x="64" y="85" /></g></svg>