<?xml version="1.0" encoding="utf-8" ?>
<svg baseProfile="full" height="1000px" version="1.1" width="600px" xmlns="http://www.w3.org/2000/svg" xmlns:ev="http://www.w3.org/2001/xml-events" xmlns:xlink="http://www.w3.org/1999/xlink"><defs /><rect fill="white" height="100%" width="100%" x="0" y="0" /><text font-family="Arial" font-size="24" text-anchor="middle" x="300" y="40">Visual Discrimination Test</text><text font-family="Arial" font-size="18" text-anchor="middle" x="300" y="80">Target Pattern</text><g transform="translate(200,100)"><polygon fill="none" points="115,74 155,74 135.0,34" stroke="black" stroke-width="2" transform="rotate(168,135.0,54.0)" /><rect fill="none" height="45" stroke="black" stroke-width="2" transform="rotate(279,48.5,73.5)" width="45" x="26" y="51" /></g><text font-family="Arial" font-size="18" text-anchor="middle" x="300" y="350">Options</text><text font-family="Arial" font-size="14" text-anchor="middle" x="175" y="380">Option 1</text><g transform="translate(100,400)"><rect fill="none" height="25.6" stroke="black" stroke-width="2" transform="rotate(192,131.0,46.8)" width="32.0" x="115" y="34" /><rect fill="none" height="28.8" stroke="black" stroke-width="2" transform="rotate(306,44.0,65.4)" width="36.0" x="26" y="51" /></g><text font-family="Arial" font-size="14" text-anchor="middle" x="425" y="380">Option 2</text><g transform="translate(350,400)"><line stroke="black" stroke-width="2" transform="rotate(195,131.0,50.0)" x1="115" x2="147.0" y1="34" y2="66.0" /><polygon fill="none" points="26,79.8 62.0,79.8 44.0,51" stroke="black" stroke-width="2" transform="rotate(304,44.0,65.4)" /></g><text font-family="Arial" font-size="14" text-anchor="middle" x="175" y="630">Option 3</text><g transform="translate(100,650)"><polygon fill="none" points="115,74 155,74 135.0,34" stroke="black" stroke-width="2" transform="rotate(168,135.0,54.0)" /><rect fill="none" height="45" stroke="black" stroke-width="2" transform="rotate(279,48.5,73.5)" width="45" x="26" y="51" /></g><text font-family="Arial" font-size="14" text-anchor="middle" x="425" y="630">Option 4</text><g transform="translate(350,650)"><line stroke="black" stroke-width="2" transform="rotate(192,131.0,50.0)" x1="115" x2="147.0" y1="34" y2="66.0" /><line stroke="black" stroke-width="2" transform="rotate(304,44.0,69.0)" x1="26" x2="62.0" y1="51" y2="87.0" /></g></svg>