<?xml version="1.0" encoding="utf-8" ?>
<svg baseProfile="full" height="1000px" version="1.1" width="600px" xmlns="http://www.w3.org/2000/svg" xmlns:ev="http://www.w3.org/2001/xml-events" xmlns:xlink="http://www.w3.org/1999/xlink"><defs /><rect fill="white" height="100%" width="100%" x="0" y="0" /><text font-family="Arial" font-size="24" text-anchor="middle" x="300" y="40">Visual Discrimination Test</text><text font-family="Arial" font-size="18" text-anchor="middle" x="300" y="80">Target Pattern</text><g transform="translate(200,100)"><circle cx="94" cy="74" fill="none" r="25.0" stroke="black" stroke-width="2" /><rect fill="none" height="44" stroke="black" stroke-width="2" transform="rotate(284,54.0,41.0)" width="44" x="32" y="19" /><polygon fill="none" points="129,121 174,121 151.5,76" stroke="black" stroke-width="2" transform="rotate(260,151.5,98.5)" /><polygon fill="none" points="118,72 153,72 135.5,37" stroke="black" stroke-width="2" transform="rotate(232,135.5,54.5)" /><line stroke="black" stroke-width="2" transform="rotate(15,35.0,87.0)" x1="11" x2="59" y1="63" y2="111" /><circle cx="115" cy="108" fill="none" r="17.0" stroke="black" stroke-width="2" /><circle cx="136" cy="61" fill="none" r="21.5" stroke="black" stroke-width="2" /><line stroke="black" stroke-width="2" transform="rotate(12,173.0,139.0)" x1="148" x2="198" y1="114" y2="164" /><polygon fill="none" points="46,145 93,145 69.5,98" stroke="black" stroke-width="2" transform="rotate(143,69.5,121.5)" /><rect fill="none" height="49" stroke="black" stroke-width="2" transform="rotate(261,96.5,100.5)" width="49" x="72" y="76" /></g><text font-family="Arial" font-size="18" text-anchor="middle" x="300" y="350">Options</text><text font-family="Arial" font-size="14" text-anchor="middle" x="175" y="380">Option 1</text><g transform="translate(100,400)"><line stroke="black" stroke-width="2" transform="rotate(75,114.0,94.0)" x1="94" x2="134.0" y1="74" y2="114.0" /><polygon fill="none" points="32,47.160000000000004 67.2,47.160000000000004 49.6,19" stroke="black" stroke-width="2" transform="rotate(310,49.6,33.08)" /><polygon fill="none" points="129,104.8 165.0,104.8 147.0,76" stroke="black" stroke-width="2" transform="rotate(284,147.0,90.4)" /><line stroke="black" stroke-width="2" transform="rotate(255,132.0,51.0)" x1="118" x2="146.0" y1="37" y2="65.0" /><polygon fill="none" points="11,93.72 49.400000000000006,93.72 30.200000000000003,63" stroke="black" stroke-width="2" transform="rotate(38,30.200000000000003,78.36)" /><rect fill="none" height="21.760000000000005" stroke="black" stroke-width="2" transform="rotate(331,128.6,118.88)" width="27.200000000000003" x="115" y="108" /><line stroke="black" stroke-width="2" transform="rotate(241,153.2,78.2)" x1="136" x2="170.4" y1="61" y2="95.4" /><polygon fill="none" points="148,146.0 188.0,146.0 168.0,114" stroke="black" stroke-width="2" transform="rotate(35,168.0,130.0)" /><polygon fill="none" points="46,128.08 83.6,128.08 64.8,98" stroke="black" stroke-width="2" transform="rotate(170,64.8,113.04)" /><line stroke="black" stroke-width="2" transform="rotate(285,91.6,95.6)" x1="72" x2="111.2" y1="76" y2="115.2" /></g><text font-family="Arial" font-size="14" text-anchor="middle" x="425" y="380">Option 2</text><g transform="translate(350,400)"><line stroke="black" stroke-width="2" transform="rotate(77,114.0,94.0)" x1="94" x2="134.0" y1="74" y2="114.0" /><polygon fill="none" points="32,47.160000000000004 67.2,47.160000000000004 49.6,19" stroke="black" stroke-width="2" transform="rotate(308,49.6,33.08)" /><line stroke="black" stroke-width="2" transform="rotate(287,147.0,94.0)" x1="129" x2="165.0" y1="76" y2="112.0" /><line stroke="black" stroke-width="2" transform="rotate(255,132.0,51.0)" x1="118" x2="146.0" y1="37" y2="65.0" /><rect fill="none" height="30.720000000000006" stroke="black" stroke-width="2" transform="rotate(39,30.200000000000003,78.36)" width="38.400000000000006" x="11" y="63" /><line stroke="black" stroke-width="2" transform="rotate(330,128.6,121.6)" x1="115" x2="142.2" y1="108" y2="135.2" /><line stroke="black" stroke-width="2" transform="rotate(241,153.2,78.2)" x1="136" x2="170.4" y1="61" y2="95.4" /><line stroke="black" stroke-width="2" transform="rotate(37,168.0,134.0)" x1="148" x2="188.0" y1="114" y2="154.0" /><polygon fill="none" points="46,128.08 83.6,128.08 64.8,98" stroke="black" stroke-width="2" transform="rotate(167,64.8,113.04)" /><rect fill="none" height="31.360000000000003" stroke="black" stroke-width="2" transform="rotate(287,91.6,91.68)" width="39.2" x="72" y="76" /></g><text font-family="Arial" font-size="14" text-anchor="middle" x="175" y="630">Option 3</text><g transform="translate(100,650)"><line stroke="black" stroke-width="2" transform="rotate(77,114.0,94.0)" x1="94" x2="134.0" y1="74" y2="114.0" /><rect fill="none" height="28.160000000000004" stroke="black" stroke-width="2" transform="rotate(308,49.6,33.08)" width="35.2" x="32" y="19" /><line stroke="black" stroke-width="2" transform="rotate(283,147.0,94.0)" x1="129" x2="165.0" y1="76" y2="112.0" /><polygon fill="none" points="118,59.400000000000006 146.0,59.400000000000006 132.0,37" stroke="black" stroke-width="2" transform="rotate(259,132.0,48.2)" /><rect fill="none" height="30.720000000000006" stroke="black" stroke-width="2" transform="rotate(39,30.200000000000003,78.36)" width="38.400000000000006" x="11" y="63" /><line stroke="black" stroke-width="2" transform="rotate(330,128.6,121.6)" x1="115" x2="142.2" y1="108" y2="135.2" /><polygon fill="none" points="136,88.52 170.4,88.52 153.2,61" stroke="black" stroke-width="2" transform="rotate(240,153.2,74.76)" /><line stroke="black" stroke-width="2" transform="rotate(35,168.0,134.0)" x1="148" x2="188.0" y1="114" y2="154.0" /><polygon fill="none" points="46,128.08 83.6,128.08 64.8,98" stroke="black" stroke-width="2" transform="rotate(170,64.8,113.04)" /><polygon fill="none" points="72,107.36 111.2,107.36 91.6,76" stroke="black" stroke-width="2" transform="rotate(286,91.6,91.68)" /></g><text font-family="Arial" font-size="14" text-anchor="middle" x="425" y="630">Option 4</text><g transform="translate(350,650)"><circle cx="94" cy="74" fill="none" r="25.0" stroke="black" stroke-width="2" /><rect fill="none" height="44" stroke="black" stroke-width="2" transform="rotate(284,54.0,41.0)" width="44" x="32" y="19" /><polygon fill="none" points="129,121 174,121 151.5,76" stroke="black" stroke-width="2" transform="rotate(260,151.5,98.5)" /><polygon fill="none" points="118,72 153,72 135.5,37" stroke="black" stroke-width="2" transform="rotate(232,135.5,54.5)" /><line stroke="black" stroke-width="2" transform="rotate(15,35.0,87.0)" x1="11" x2="59" y1="63" y2="111" /><circle cx="115" cy="108" fill="none" r="17.0" stroke="black" stroke-width="2" /><circle cx="136" cy="61" fill="none" r="21.5" stroke="black" stroke-width="2" /><line stroke="black" stroke-width="2" transform="rotate(12,173.0,139.0)" x1="148" x2="198" y1="114" y2="164" /><polygon fill="none" points="46,145 93,145 69.5,98" stroke="black" stroke-width="2" transform="rotate(143,69.5,121.5)" /><rect fill="none" height="49" stroke="black" stroke-width="2" transform="rotate(261,96.5,100.5)" width="49" x="72" y="76" /></g></svg>