<?xml version="1.0" encoding="utf-8" ?>
<svg baseProfile="full" height="1000px" version="1.1" width="600px" xmlns="http://www.w3.org/2000/svg" xmlns:ev="http://www.w3.org/2001/xml-events" xmlns:xlink="http://www.w3.org/1999/xlink"><defs /><rect fill="white" height="100%" width="100%" x="0" y="0" /><text font-family="Arial" font-size="24" text-anchor="middle" x="300" y="40">Visual Discrimination Test</text><text font-family="Arial" font-size="18" text-anchor="middle" x="300" y="80">Target Pattern</text><g transform="translate(200,100)"><rect fill="none" height="49" stroke="black" stroke-width="2" transform="rotate(59,36.5,157.5)" width="49" x="12" y="133" /><polygon fill="none" points="107,68 143,68 125.0,32" stroke="black" stroke-width="2" transform="rotate(180,125.0,50.0)" /><circle cx="40" cy="47" fill="none" r="17.5" stroke="black" stroke-width="2" /><polygon fill="none" points="77,170 114,170 95.5,133" stroke="black" stroke-width="2" transform="rotate(162,95.5,151.5)" /><line stroke="black" stroke-width="2" transform="rotate(113,76.5,163.5)" x1="58" x2="95" y1="145" y2="182" /><circle cx="83" cy="27" fill="none" r="24.0" stroke="black" stroke-width="2" /><line stroke="black" stroke-width="2" transform="rotate(160,84.0,79.0)" x1="63" x2="105" y1="58" y2="100" /><line stroke="black" stroke-width="2" transform="rotate(87,51.0,81.0)" x1="28" x2="74" y1="58" y2="104" /><circle cx="98" cy="121" fill="none" r="24.5" stroke="black" stroke-width="2" /><rect fill="none" height="32" stroke="black" stroke-width="2" transform="rotate(228,81.0,109.0)" width="32" x="65" y="93" /></g><text font-family="Arial" font-size="18" text-anchor="middle" x="300" y="350">Options</text><text font-family="Arial" font-size="14" text-anchor="middle" x="175" y="380">Option 1</text><g transform="translate(100,400)"><line stroke="black" stroke-width="2" transform="rotate(83,31.6,152.6)" x1="12" x2="51.2" y1="133" y2="172.2" /><line stroke="black" stroke-width="2" transform="rotate(204,121.4,46.4)" x1="107" x2="135.8" y1="32" y2="60.8" /><line stroke="black" stroke-width="2" transform="rotate(339,54.0,61.0)" x1="40" x2="68.0" y1="47" y2="75.0" /><line stroke="black" stroke-width="2" transform="rotate(187,91.8,147.8)" x1="77" x2="106.6" y1="133" y2="162.6" /><line stroke="black" stroke-width="2" transform="rotate(136,72.8,159.8)" x1="58" x2="87.6" y1="145" y2="174.6" /><polygon fill="none" points="83,57.720000000000006 121.4,57.720000000000006 102.2,27" stroke="black" stroke-width="2" transform="rotate(364,102.2,42.36)" /><line stroke="black" stroke-width="2" transform="rotate(187,79.8,74.8)" x1="63" x2="96.6" y1="58" y2="91.6" /><rect fill="none" height="29.440000000000005" stroke="black" stroke-width="2" transform="rotate(110,46.400000000000006,72.72)" width="36.800000000000004" x="28" y="58" /><line stroke="black" stroke-width="2" transform="rotate(218,117.6,140.6)" x1="98" x2="137.2" y1="121" y2="160.2" /><rect fill="none" height="20.480000000000004" stroke="black" stroke-width="2" transform="rotate(252,77.8,103.24000000000001)" width="25.6" x="65" y="93" /></g><text font-family="Arial" font-size="14" text-anchor="middle" x="425" y="380">Option 2</text><g transform="translate(350,400)"><rect fill="none" height="31.360000000000003" stroke="black" stroke-width="2" transform="rotate(86,31.6,148.68)" width="39.2" x="12" y="133" /><line stroke="black" stroke-width="2" transform="rotate(204,121.4,46.4)" x1="107" x2="135.8" y1="32" y2="60.8" /><line stroke="black" stroke-width="2" transform="rotate(340,54.0,61.0)" x1="40" x2="68.0" y1="47" y2="75.0" /><polygon fill="none" points="77,156.68 106.6,156.68 91.8,133" stroke="black" stroke-width="2" transform="rotate(187,91.8,144.84)" /><line stroke="black" stroke-width="2" transform="rotate(137,72.8,159.8)" x1="58" x2="87.6" y1="145" y2="174.6" /><rect fill="none" height="30.720000000000006" stroke="black" stroke-width="2" transform="rotate(368,102.2,42.36)" width="38.400000000000006" x="83" y="27" /><polygon fill="none" points="63,84.88 96.6,84.88 79.8,58" stroke="black" stroke-width="2" transform="rotate(184,79.8,71.44)" /><polygon fill="none" points="28,87.44 64.80000000000001,87.44 46.400000000000006,58" stroke="black" stroke-width="2" transform="rotate(113,46.400000000000006,72.72)" /><line stroke="black" stroke-width="2" transform="rotate(218,117.6,140.6)" x1="98" x2="137.2" y1="121" y2="160.2" /><line stroke="black" stroke-width="2" transform="rotate(253,77.8,105.8)" x1="65" x2="90.6" y1="93" y2="118.6" /></g><text font-family="Arial" font-size="14" text-anchor="middle" x="175" y="630">Option 3</text><g transform="translate(100,650)"><rect fill="none" height="49" stroke="black" stroke-width="2" transform="rotate(59,36.5,157.5)" width="49" x="12" y="133" /><polygon fill="none" points="107,68 143,68 125.0,32" stroke="black" stroke-width="2" transform="rotate(180,125.0,50.0)" /><circle cx="40" cy="47" fill="none" r="17.5" stroke="black" stroke-width="2" /><polygon fill="none" points="77,170 114,170 95.5,133" stroke="black" stroke-width="2" transform="rotate(162,95.5,151.5)" /><line stroke="black" stroke-width="2" transform="rotate(113,76.5,163.5)" x1="58" x2="95" y1="145" y2="182" /><circle cx="83" cy="27" fill="none" r="24.0" stroke="black" stroke-width="2" /><line stroke="black" stroke-width="2" transform="rotate(160,84.0,79.0)" x1="63" x2="105" y1="58" y2="100" /><line stroke="black" stroke-width="2" transform="rotate(87,51.0,81.0)" x1="28" x2="74" y1="58" y2="104" /><circle cx="98" cy="121" fill="none" r="24.5" stroke="black" stroke-width="2" /><rect fill="none" height="32" stroke="black" stroke-width="2" transform="rotate(228,81.0,109.0)" width="32" x="65" y="93" /></g><text font-family="Arial" font-size="14" text-anchor="middle" x="425" y="630">Option 4</text><g transform="translate(350,650)"><line stroke="black" stroke-width="2" transform="rotate(85,31.6,152.6)" x1="12" x2="51.2" y1="133" y2="172.2" /><polygon fill="none" points="107,55.040000000000006 135.8,55.040000000000006 121.4,32" stroke="black" stroke-width="2" transform="rotate(207,121.4,43.52)" /><rect fill="none" height="22.400000000000002" stroke="black" stroke-width="2" transform="rotate(339,54.0,58.2)" width="28.0" x="40" y="47" /><rect fill="none" height="23.680000000000003" stroke="black" stroke-width="2" transform="rotate(188,91.8,144.84)" width="29.6" x="77" y="133" /><line stroke="black" stroke-width="2" transform="rotate(138,72.8,159.8)" x1="58" x2="87.6" y1="145" y2="174.6" /><rect fill="none" height="30.720000000000006" stroke="black" stroke-width="2" transform="rotate(366,102.2,42.36)" width="38.400000000000006" x="83" y="27" /><rect fill="none" height="26.880000000000003" stroke="black" stroke-width="2" transform="rotate(184,79.8,71.44)" width="33.6" x="63" y="58" /><rect fill="none" height="29.440000000000005" stroke="black" stroke-width="2" transform="rotate(114,46.400000000000006,72.72)" width="36.800000000000004" x="28" y="58" /><polygon fill="none" points="98,152.36 137.2,152.36 117.6,121" stroke="black" stroke-width="2" transform="rotate(221,117.6,136.68)" /><rect fill="none" height="20.480000000000004" stroke="black" stroke-width="2" transform="rotate(253,77.8,103.24000000000001)" width="25.6" x="65" y="93" /></g></svg>