<?xml version="1.0" encoding="UTF-8"?>
<svg xmlns="http://www.w3.org/2000/svg" viewBox="0 0 400 400">
    <rect width="400" height="400" fill="white"/>

    <!-- star instances -->
    <g transform="translate(163.5 79.4) rotate(82.1)">
        <path d="M 0.0 -70.5 L 17.6 -22.4 L 70.5 -22.4 L 28.8 9.6 L 46.4 57.7 L 0.0 25.6 L -46.4 57.7 L -28.8 9.6 L -70.5 -22.4 L -17.6 -22.4 Z" fill="#00FF00" stroke="black" stroke-width="2"/>
    </g>
    <g transform="translate(323.7 171.6) rotate(152.4)">
        <path d="M 0.0 -49.9 L 12.5 -15.9 L 49.9 -15.9 L 20.4 6.8 L 32.9 40.8 L 0.0 18.1 L -32.9 40.8 L -20.4 6.8 L -49.9 -15.9 L -12.5 -15.9 Z" fill="#FF0000" stroke="black" stroke-width="2"/>
    </g>

    <!-- cross instances -->
    <g transform="translate(254.7 311.2) rotate(135.8)">
        <path d="M -15.1 -30.3 L 15.1 -30.3 L 15.1 -15.1 L 30.3 -15.1 L 30.3 15.1 L 15.1 15.1 L 15.1 30.3 L -15.1 30.3 L -15.1 15.1 L -30.3 15.1 L -30.3 -15.1 L -15.1 -15.1 Z" fill="#0000FF" stroke="black" stroke-width="2"/>
    </g>
    <g transform="translate(94.2 233.1) rotate(221.9)">
        <path d="M -19.8 -39.7 L 19.8 -39.7 L 19.8 -19.8 L 39.7 -19.8 L 39.7 19.8 L 19.8 19.8 L 19.8 39.7 L -19.8 39.7 L -19.8 19.8 L -39.7 19.8 L -39.7 -19.8 L -19.8 -19.8 Z" fill="#FF0000" stroke="black" stroke-width="2"/>
    </g>
</svg>