<?xml version="1.0" encoding="UTF-8"?>
<svg xmlns="http://www.w3.org/2000/svg" viewBox="0 0 400 400">
    <rect width="400" height="400" fill="white"/>

    <!-- star instances -->
    <g transform="translate(306.3 139.8) rotate(329.5)">
        <path d="M 0.0 -35.4 L 8.8 -11.2 L 35.4 -11.2 L 14.5 4.8 L 23.3 28.9 L 0.0 12.9 L -23.3 28.9 L -14.5 4.8 L -35.4 -11.2 L -8.8 -11.2 Z" fill="#0000FF" stroke="black" stroke-width="2"/>
    </g>
    <g transform="translate(211.1 283.2) rotate(298.5)">
        <path d="M 0.0 -31.2 L 7.8 -9.9 L 31.2 -9.9 L 12.8 4.3 L 20.6 25.5 L 0.0 11.4 L -20.6 25.5 L -12.8 4.3 L -31.2 -9.9 L -7.8 -9.9 Z" fill="#800080" stroke="black" stroke-width="2"/>
    </g>
    <g transform="translate(121.6 191.8) rotate(59.9)">
        <path d="M 0.0 -26.9 L 6.7 -8.6 L 26.9 -8.6 L 11.0 3.7 L 17.8 22.0 L 0.0 9.8 L -17.8 22.0 L -11.0 3.7 L -26.9 -8.6 L -6.7 -8.6 Z" fill="#000000" stroke="black" stroke-width="2"/>
    </g>

    <!-- triangle instances -->
    <g transform="translate(125.3 62.3) rotate(63.2)">
        <path d="M 0.0 -47.7 L 35.8 23.8 L -35.8 23.8 Z" fill="#000000" stroke="black" stroke-width="2"/>
    </g>
</svg>