<?xml version="1.0" encoding="UTF-8"?>
<svg xmlns="http://www.w3.org/2000/svg" viewBox="0 0 400 400">
    <rect width="400" height="400" fill="white"/>

    <!-- hexagon instances -->
    <g transform="translate(251.6 92.6) rotate(76.7)">
        <path d="M 0.0 -35.1 L 35.1 -17.6 L 35.1 17.6 L 0.0 35.1 L -35.1 17.6 L -35.1 -17.6 Z" fill="#FFFF00" stroke="black" stroke-width="2"/>
    </g>
    <g transform="translate(172.1 293.7) rotate(53.6)">
        <path d="M 0.0 -37.9 L 37.9 -19.0 L 37.9 19.0 L 0.0 37.9 L -37.9 19.0 L -37.9 -19.0 Z" fill="#0000FF" stroke="black" stroke-width="2"/>
    </g>
    <g transform="translate(352.9 325.8) rotate(65.8)">
        <path d="M 0.0 -35.2 L 35.2 -17.6 L 35.2 17.6 L 0.0 35.2 L -35.2 17.6 L -35.2 -17.6 Z" fill="#0000FF" stroke="black" stroke-width="2"/>
    </g>

    <!-- cross instances -->
    <g transform="translate(100.3 54.9) rotate(219.9)">
        <path d="M -18.6 -37.3 L 18.6 -37.3 L 18.6 -18.6 L 37.3 -18.6 L 37.3 18.6 L 18.6 18.6 L 18.6 37.3 L -18.6 37.3 L -18.6 18.6 L -37.3 18.6 L -37.3 -18.6 L -18.6 -18.6 Z" fill="#00FF00" stroke="black" stroke-width="2"/>
    </g>
    <g transform="translate(340.2 209.2) rotate(125.7)">
        <path d="M -19.4 -38.8 L 19.4 -38.8 L 19.4 -19.4 L 38.8 -19.4 L 38.8 19.4 L 19.4 19.4 L 19.4 38.8 L -19.4 38.8 L -19.4 19.4 L -38.8 19.4 L -38.8 -19.4 L -19.4 -19.4 Z" fill="#FF0000" stroke="black" stroke-width="2"/>
    </g>
    <g transform="translate(222.7 191.1) rotate(254.4)">
        <path d="M -18.9 -37.9 L 18.9 -37.9 L 18.9 -18.9 L 37.9 -18.9 L 37.9 18.9 L 18.9 18.9 L 18.9 37.9 L -18.9 37.9 L -18.9 18.9 L -37.9 18.9 L -37.9 -18.9 L -18.9 -18.9 Z" fill="#000000" stroke="black" stroke-width="2"/>
    </g>
    <g transform="translate(77.3 185.2) rotate(155.5)">
        <path d="M -19.6 -39.2 L 19.6 -39.2 L 19.6 -19.6 L 39.2 -19.6 L 39.2 19.6 L 19.6 19.6 L 19.6 39.2 L -19.6 39.2 L -19.6 19.6 L -39.2 19.6 L -39.2 -19.6 L -19.6 -19.6 Z" fill="#00FF00" stroke="black" stroke-width="2"/>
    </g>
</svg>