<?xml version="1.0" encoding="UTF-8"?>
<svg xmlns="http://www.w3.org/2000/svg" viewBox="0 0 400 400">
    <rect width="400" height="400" fill="white"/>

    <!-- pentagon instances -->
    <g transform="translate(213.4 254.4) rotate(102.9)">
        <path d="M 0.0 -18.0 L 16.9 -6.8 L 11.3 15.8 L -11.3 15.8 L -16.9 -6.8 Z" fill="#0000FF" stroke="black" stroke-width="2"/>
    </g>

    <!-- star instances -->
    <g transform="translate(347.2 89.2) rotate(31.9)">
        <path d="M 0.0 -32.7 L 8.2 -10.4 L 32.7 -10.4 L 13.4 4.5 L 21.6 26.8 L 0.0 11.9 L -21.6 26.8 L -13.4 4.5 L -32.7 -10.4 L -8.2 -10.4 Z" fill="#FFA500" stroke="black" stroke-width="2"/>
    </g>
    <g transform="translate(181.4 107.2) rotate(179.3)">
        <path d="M 0.0 -47.4 L 11.9 -15.1 L 47.4 -15.1 L 19.4 6.5 L 31.3 38.8 L 0.0 17.3 L -31.3 38.8 L -19.4 6.5 L -47.4 -15.1 L -11.9 -15.1 Z" fill="#FF0000" stroke="black" stroke-width="2"/>
    </g>
    <g transform="translate(126.0 304.2) rotate(356.6)">
        <path d="M 0.0 -20.9 L 5.2 -6.7 L 20.9 -6.7 L 8.6 2.9 L 13.8 17.1 L 0.0 7.6 L -13.8 17.1 L -8.6 2.9 L -20.9 -6.7 L -5.2 -6.7 Z" fill="#0000FF" stroke="black" stroke-width="2"/>
    </g>
</svg>