<?xml version="1.0" encoding="UTF-8"?>
<svg xmlns="http://www.w3.org/2000/svg" viewBox="0 0 400 400">
    <rect width="400" height="400" fill="white"/>

    <!-- star instances -->
    <g transform="translate(148.6 315.5) rotate(193.0)">
        <path d="M 0.0 -71.1 L 17.8 -22.6 L 71.1 -22.6 L 29.1 9.7 L 46.9 58.2 L 0.0 25.8 L -46.9 58.2 L -29.1 9.7 L -71.1 -22.6 L -17.8 -22.6 Z" fill="#00FF00" stroke="black" stroke-width="2"/>
    </g>
    <g transform="translate(281.5 150.4) rotate(16.1)">
        <path d="M 0.0 -53.0 L 13.2 -16.8 L 53.0 -16.8 L 21.7 7.2 L 34.9 43.3 L 0.0 19.3 L -34.9 43.3 L -21.7 7.2 L -53.0 -16.8 L -13.2 -16.8 Z" fill="#0000FF" stroke="black" stroke-width="2"/>
    </g>
    <g transform="translate(138.5 165.3) rotate(266.5)">
        <path d="M 0.0 -60.3 L 15.1 -19.2 L 60.3 -19.2 L 24.7 8.2 L 39.7 49.3 L 0.0 21.9 L -39.7 49.3 L -24.7 8.2 L -60.3 -19.2 L -15.1 -19.2 Z" fill="#FFFF00" stroke="black" stroke-width="2"/>
    </g>
    <g transform="translate(332.2 320.5) rotate(217.5)">
        <path d="M 0.0 -56.2 L 14.0 -17.9 L 56.2 -17.9 L 23.0 7.7 L 37.0 45.9 L 0.0 20.4 L -37.0 45.9 L -23.0 7.7 L -56.2 -17.9 L -14.0 -17.9 Z" fill="#0000FF" stroke="black" stroke-width="2"/>
    </g>

    <!-- pentagon instances -->
</svg>