<?xml version="1.0" encoding="UTF-8"?>
<svg xmlns="http://www.w3.org/2000/svg" viewBox="0 0 400 400">
    <rect width="400" height="400" fill="white"/>

    <!-- triangle instances -->
    <g transform="translate(245.8 236.9) rotate(64.6)">
        <path d="M 0.0 -23.9 L 17.9 12.0 L -17.9 12.0 Z" fill="#000000" stroke="black" stroke-width="2"/>
    </g>
    <g transform="translate(288.5 314.3) rotate(200.7)">
        <path d="M 0.0 -47.3 L 35.4 23.6 L -35.4 23.6 Z" fill="#00FF00" stroke="black" stroke-width="2"/>
    </g>

    <!-- pentagon instances -->
    <g transform="translate(134.6 166.0) rotate(336.7)">
        <path d="M 0.0 -40.9 L 38.4 -15.3 L 25.6 35.8 L -25.6 35.8 L -38.4 -15.3 Z" fill="#FFFF00" stroke="black" stroke-width="2"/>
    </g>
    <g transform="translate(155.2 59.8) rotate(319.8)">
        <path d="M 0.0 -36.3 L 34.0 -13.6 L 22.7 31.8 L -22.7 31.8 L -34.0 -13.6 Z" fill="#FF0000" stroke="black" stroke-width="2"/>
    </g>
    <g transform="translate(266.5 85.3) rotate(167.4)">
        <path d="M 0.0 -37.5 L 35.2 -14.1 L 23.4 32.8 L -23.4 32.8 L -35.2 -14.1 Z" fill="#800080" stroke="black" stroke-width="2"/>
    </g>
    <g transform="translate(57.3 282.0) rotate(81.9)">
        <path d="M 0.0 -47.0 L 44.1 -17.6 L 29.4 41.2 L -29.4 41.2 L -44.1 -17.6 Z" fill="#808080" stroke="black" stroke-width="2"/>
    </g>
</svg>