<?xml version="1.0" encoding="UTF-8"?>
<svg xmlns="http://www.w3.org/2000/svg" viewBox="0 0 400 400">
    <rect width="400" height="400" fill="white"/>

    <!-- pentagon instances -->
    <g transform="translate(300.3 89.9) rotate(70.2)">
        <path d="M 0.0 -21.6 L 20.3 -8.1 L 13.5 18.9 L -13.5 18.9 L -20.3 -8.1 Z" fill="#0000FF" stroke="black" stroke-width="2"/>
    </g>
    <g transform="translate(62.0 347.7) rotate(152.8)">
        <path d="M 0.0 -21.3 L 19.9 -8.0 L 13.3 18.6 L -13.3 18.6 L -19.9 -8.0 Z" fill="#FFFF00" stroke="black" stroke-width="2"/>
    </g>

    <!-- cross instances -->
    <g transform="translate(186.7 181.4) rotate(255.1)">
        <path d="M -17.5 -34.9 L 17.5 -34.9 L 17.5 -17.5 L 34.9 -17.5 L 34.9 17.5 L 17.5 17.5 L 17.5 34.9 L -17.5 34.9 L -17.5 17.5 L -34.9 17.5 L -34.9 -17.5 L -17.5 -17.5 Z" fill="#00FF00" stroke="black" stroke-width="2"/>
    </g>
    <g transform="translate(313.9 228.1) rotate(22.5)">
        <path d="M -14.2 -28.3 L 14.2 -28.3 L 14.2 -14.2 L 28.3 -14.2 L 28.3 14.2 L 14.2 14.2 L 14.2 28.3 L -14.2 28.3 L -14.2 14.2 L -28.3 14.2 L -28.3 -14.2 L -14.2 -14.2 Z" fill="#FFA500" stroke="black" stroke-width="2"/>
    </g>
    <g transform="translate(284.8 290.4) rotate(200.0)">
        <path d="M -7.0 -14.1 L 7.0 -14.1 L 7.0 -7.0 L 14.1 -7.0 L 14.1 7.0 L 7.0 7.0 L 7.0 14.1 L -7.0 14.1 L -7.0 7.0 L -14.1 7.0 L -14.1 -7.0 L -7.0 -7.0 Z" fill="#FFA500" stroke="black" stroke-width="2"/>
    </g>
</svg>