<?xml version="1.0" encoding="UTF-8"?>
<svg xmlns="http://www.w3.org/2000/svg" viewBox="0 0 400 400">
    <rect width="400" height="400" fill="white"/>

    <!-- hexagon instances -->
    <g transform="translate(114.4 281.8) rotate(272.3)">
        <path d="M 0.0 -28.3 L 28.3 -14.2 L 28.3 14.2 L 0.0 28.3 L -28.3 14.2 L -28.3 -14.2 Z" fill="#800080" stroke="black" stroke-width="2"/>
    </g>
    <g transform="translate(87.2 103.5) rotate(174.1)">
        <path d="M 0.0 -16.5 L 16.5 -8.2 L 16.5 8.2 L 0.0 16.5 L -16.5 8.2 L -16.5 -8.2 Z" fill="#000000" stroke="black" stroke-width="2"/>
    </g>

    <!-- cross instances -->
    <g transform="translate(336.3 335.6) rotate(205.2)">
        <path d="M -13.1 -26.2 L 13.1 -26.2 L 13.1 -13.1 L 26.2 -13.1 L 26.2 13.1 L 13.1 13.1 L 13.1 26.2 L -13.1 26.2 L -13.1 13.1 L -26.2 13.1 L -26.2 -13.1 L -13.1 -13.1 Z" fill="#800080" stroke="black" stroke-width="2"/>
    </g>
    <g transform="translate(191.2 115.2) rotate(352.0)">
        <path d="M -14.4 -28.8 L 14.4 -28.8 L 14.4 -14.4 L 28.8 -14.4 L 28.8 14.4 L 14.4 14.4 L 14.4 28.8 L -14.4 28.8 L -14.4 14.4 L -28.8 14.4 L -28.8 -14.4 L -14.4 -14.4 Z" fill="#808080" stroke="black" stroke-width="2"/>
    </g>
    <g transform="translate(306.4 211.8) rotate(158.3)">
        <path d="M -17.6 -35.3 L 17.6 -35.3 L 17.6 -17.6 L 35.3 -17.6 L 35.3 17.6 L 17.6 17.6 L 17.6 35.3 L -17.6 35.3 L -17.6 17.6 L -35.3 17.6 L -35.3 -17.6 L -17.6 -17.6 Z" fill="#000000" stroke="black" stroke-width="2"/>
    </g>
</svg>