<?xml version="1.0" encoding="UTF-8"?>
<svg xmlns="http://www.w3.org/2000/svg" viewBox="0 0 400 400">
    <rect width="400" height="400" fill="white"/>

    <!-- octagon instances -->
    <g transform="translate(179.0 71.7) rotate(245.7)">
        <path d="M -18.6 -37.3 L 18.6 -37.3 L 37.3 -18.6 L 37.3 18.6 L 18.6 37.3 L -18.6 37.3 L -37.3 18.6 L -37.3 -18.6 Z" fill="#800080" stroke="black" stroke-width="2"/>
    </g>
    <g transform="translate(155.2 237.0) rotate(160.0)">
        <path d="M -20.0 -40.0 L 20.0 -40.0 L 40.0 -20.0 L 40.0 20.0 L 20.0 40.0 L -20.0 40.0 L -40.0 20.0 L -40.0 -20.0 Z" fill="#000000" stroke="black" stroke-width="2"/>
    </g>
    <g transform="translate(208.4 322.0) rotate(20.0)">
        <path d="M -9.5 -19.0 L 9.5 -19.0 L 19.0 -9.5 L 19.0 9.5 L 9.5 19.0 L -9.5 19.0 L -19.0 9.5 L -19.0 -9.5 Z" fill="#808080" stroke="black" stroke-width="2"/>
    </g>
    <g transform="translate(318.8 266.3) rotate(234.4)">
        <path d="M -21.3 -42.6 L 21.3 -42.6 L 42.6 -21.3 L 42.6 21.3 L 21.3 42.6 L -21.3 42.6 L -42.6 21.3 L -42.6 -21.3 Z" fill="#0000FF" stroke="black" stroke-width="2"/>
    </g>
    <g transform="translate(366.1 46.3) rotate(202.8)">
        <path d="M -11.9 -23.9 L 11.9 -23.9 L 23.9 -11.9 L 23.9 11.9 L 11.9 23.9 L -11.9 23.9 L -23.9 11.9 L -23.9 -11.9 Z" fill="#0000FF" stroke="black" stroke-width="2"/>
    </g>

    <!-- triangle instances -->
    <g transform="translate(308.4 129.7) rotate(266.3)">
        <path d="M 0.0 -58.6 L 43.9 29.3 L -43.9 29.3 Z" fill="#808080" stroke="black" stroke-width="2"/>
    </g>
    <g transform="translate(55.6 74.5) rotate(339.7)">
        <path d="M 0.0 -59.0 L 44.3 29.5 L -44.3 29.5 Z" fill="#FF0000" stroke="black" stroke-width="2"/>
    </g>
    <g transform="translate(65.4 218.1) rotate(289.5)">
        <path d="M 0.0 -35.8 L 26.8 17.9 L -26.8 17.9 Z" fill="#800080" stroke="black" stroke-width="2"/>
    </g>
    <g transform="translate(50.8 309.5) rotate(150.1)">
        <path d="M 0.0 -41.2 L 30.9 20.6 L -30.9 20.6 Z" fill="#00FF00" stroke="black" stroke-width="2"/>
    </g>
    <g transform="translate(124.8 347.2) rotate(101.9)">
        <path d="M 0.0 -24.4 L 18.3 12.2 L -18.3 12.2 Z" fill="#FFA500" stroke="black" stroke-width="2"/>
    </g>
</svg>