<?xml version="1.0" encoding="UTF-8"?>
<svg xmlns="http://www.w3.org/2000/svg" viewBox="0 0 400 400">
    <rect width="400" height="400" fill="white"/>

    <!-- hexagon instances -->
    <g transform="translate(170.8 94.7) rotate(284.2)">
        <path d="M 0.0 -17.5 L 17.5 -8.8 L 17.5 8.8 L 0.0 17.5 L -17.5 8.8 L -17.5 -8.8 Z" fill="#FF0000" stroke="black" stroke-width="2"/>
    </g>

    <!-- octagon instances -->
    <g transform="translate(208.5 196.0) rotate(288.5)">
        <path d="M -13.8 -27.6 L 13.8 -27.6 L 27.6 -13.8 L 27.6 13.8 L 13.8 27.6 L -13.8 27.6 L -27.6 13.8 L -27.6 -13.8 Z" fill="#FF0000" stroke="black" stroke-width="2"/>
    </g>
    <g transform="translate(349.3 82.6) rotate(288.6)">
        <path d="M -14.4 -28.8 L 14.4 -28.8 L 28.8 -14.4 L 28.8 14.4 L 14.4 28.8 L -14.4 28.8 L -28.8 14.4 L -28.8 -14.4 Z" fill="#808080" stroke="black" stroke-width="2"/>
    </g>
    <g transform="translate(267.4 353.9) rotate(240.0)">
        <path d="M -13.4 -26.8 L 13.4 -26.8 L 26.8 -13.4 L 26.8 13.4 L 13.4 26.8 L -13.4 26.8 L -26.8 13.4 L -26.8 -13.4 Z" fill="#800080" stroke="black" stroke-width="2"/>
    </g>
    <g transform="translate(70.2 279.2) rotate(94.8)">
        <path d="M -6.6 -13.2 L 6.6 -13.2 L 13.2 -6.6 L 13.2 6.6 L 6.6 13.2 L -6.6 13.2 L -13.2 6.6 L -13.2 -6.6 Z" fill="#000000" stroke="black" stroke-width="2"/>
    </g>
    <g transform="translate(377.9 358.8) rotate(137.8)">
        <path d="M -5.8 -11.6 L 5.8 -11.6 L 11.6 -5.8 L 11.6 5.8 L 5.8 11.6 L -5.8 11.6 L -11.6 5.8 L -11.6 -5.8 Z" fill="#FFFF00" stroke="black" stroke-width="2"/>
    </g>
    <g transform="translate(76.5 353.6) rotate(324.5)">
        <path d="M -15.4 -30.8 L 15.4 -30.8 L 30.8 -15.4 L 30.8 15.4 L 15.4 30.8 L -15.4 30.8 L -30.8 15.4 L -30.8 -15.4 Z" fill="#FF0000" stroke="black" stroke-width="2"/>
    </g>
</svg>