<?xml version="1.0" encoding="UTF-8"?>
<svg xmlns="http://www.w3.org/2000/svg" viewBox="0 0 400 400">
    <rect width="400" height="400" fill="white"/>

    <!-- star instances -->
    <g transform="translate(93.5 279.8) rotate(331.2)">
        <path d="M 0.0 -44.7 L 11.2 -14.2 L 44.7 -14.2 L 18.3 6.1 L 29.5 36.6 L 0.0 16.3 L -29.5 36.6 L -18.3 6.1 L -44.7 -14.2 L -11.2 -14.2 Z" fill="#00FF00" stroke="black" stroke-width="2"/>
    </g>
    <g transform="translate(269.6 346.8) rotate(199.0)">
        <path d="M 0.0 -45.9 L 11.5 -14.6 L 45.9 -14.6 L 18.8 6.3 L 30.2 37.5 L 0.0 16.7 L -30.2 37.5 L -18.8 6.3 L -45.9 -14.6 L -11.5 -14.6 Z" fill="#000000" stroke="black" stroke-width="2"/>
    </g>
    <g transform="translate(244.2 192.4) rotate(258.9)">
        <path d="M 0.0 -58.2 L 14.5 -18.5 L 58.2 -18.5 L 23.8 7.9 L 38.3 47.6 L 0.0 21.1 L -38.3 47.6 L -23.8 7.9 L -58.2 -18.5 L -14.5 -18.5 Z" fill="#00FF00" stroke="black" stroke-width="2"/>
    </g>
    <g transform="translate(83.5 81.7) rotate(255.9)">
        <path d="M 0.0 -66.9 L 16.7 -21.3 L 66.9 -21.3 L 27.4 9.1 L 44.1 54.7 L 0.0 24.3 L -44.1 54.7 L -27.4 9.1 L -66.9 -21.3 L -16.7 -21.3 Z" fill="#808080" stroke="black" stroke-width="2"/>
    </g>

    <!-- triangle instances -->
    <g transform="translate(243.2 54.5) rotate(330.1)">
        <path d="M 0.0 -50.1 L 37.6 25.0 L -37.6 25.0 Z" fill="#800080" stroke="black" stroke-width="2"/>
    </g>
</svg>