<?xml version="1.0" encoding="UTF-8"?>
<svg xmlns="http://www.w3.org/2000/svg" viewBox="0 0 400 400">
    <rect width="400" height="400" fill="white"/>

    <!-- octagon instances -->
    <g transform="translate(141.9 167.3) rotate(4.1)">
        <path d="M -7.8 -15.7 L 7.8 -15.7 L 15.7 -7.8 L 15.7 7.8 L 7.8 15.7 L -7.8 15.7 L -15.7 7.8 L -15.7 -7.8 Z" fill="#FFA500" stroke="black" stroke-width="2"/>
    </g>
    <g transform="translate(293.8 93.2) rotate(112.7)">
        <path d="M -19.0 -38.0 L 19.0 -38.0 L 38.0 -19.0 L 38.0 19.0 L 19.0 38.0 L -19.0 38.0 L -38.0 19.0 L -38.0 -19.0 Z" fill="#800080" stroke="black" stroke-width="2"/>
    </g>
    <g transform="translate(203.4 46.9) rotate(242.7)">
        <path d="M -9.6 -19.3 L 9.6 -19.3 L 19.3 -9.6 L 19.3 9.6 L 9.6 19.3 L -9.6 19.3 L -19.3 9.6 L -19.3 -9.6 Z" fill="#FFFF00" stroke="black" stroke-width="2"/>
    </g>

    <!-- hexagon instances -->
    <g transform="translate(209.0 258.8) rotate(78.2)">
        <path d="M 0.0 -18.2 L 18.2 -9.1 L 18.2 9.1 L 0.0 18.2 L -18.2 9.1 L -18.2 -9.1 Z" fill="#000000" stroke="black" stroke-width="2"/>
    </g>
    <g transform="translate(123.8 297.4) rotate(112.0)">
        <path d="M 0.0 -37.6 L 37.6 -18.8 L 37.6 18.8 L 0.0 37.6 L -37.6 18.8 L -37.6 -18.8 Z" fill="#800080" stroke="black" stroke-width="2"/>
    </g>
    <g transform="translate(105.3 60.3) rotate(356.5)">
        <path d="M 0.0 -35.5 L 35.5 -17.7 L 35.5 17.7 L 0.0 35.5 L -35.5 17.7 L -35.5 -17.7 Z" fill="#FFFF00" stroke="black" stroke-width="2"/>
    </g>
    <g transform="translate(365.2 334.2) rotate(62.0)">
        <path d="M 0.0 -17.4 L 17.4 -8.7 L 17.4 8.7 L 0.0 17.4 L -17.4 8.7 L -17.4 -8.7 Z" fill="#FFA500" stroke="black" stroke-width="2"/>
    </g>
    <g transform="translate(348.2 239.6) rotate(302.8)">
        <path d="M 0.0 -35.0 L 35.0 -17.5 L 35.0 17.5 L 0.0 35.0 L -35.0 17.5 L -35.0 -17.5 Z" fill="#FFFF00" stroke="black" stroke-width="2"/>
    </g>
</svg>