<?xml version="1.0" encoding="UTF-8"?>
<svg xmlns="http://www.w3.org/2000/svg" viewBox="0 0 400 400">
    <rect width="400" height="400" fill="white"/>

    <!-- pentagon instances -->
    <g transform="translate(243.1 336.0) rotate(86.4)">
        <path d="M 0.0 -35.7 L 33.5 -13.4 L 22.3 31.3 L -22.3 31.3 L -33.5 -13.4 Z" fill="#FFA500" stroke="black" stroke-width="2"/>
    </g>
    <g transform="translate(175.2 58.5) rotate(199.8)">
        <path d="M 0.0 -31.2 L 29.3 -11.7 L 19.5 27.3 L -19.5 27.3 L -29.3 -11.7 Z" fill="#FF0000" stroke="black" stroke-width="2"/>
    </g>
    <g transform="translate(167.6 215.0) rotate(62.2)">
        <path d="M 0.0 -52.5 L 49.3 -19.7 L 32.8 46.0 L -32.8 46.0 L -49.3 -19.7 Z" fill="#000000" stroke="black" stroke-width="2"/>
    </g>
    <g transform="translate(332.5 263.4) rotate(185.9)">
        <path d="M 0.0 -26.8 L 25.1 -10.0 L 16.7 23.4 L -16.7 23.4 L -25.1 -10.0 Z" fill="#00FF00" stroke="black" stroke-width="2"/>
    </g>
    <g transform="translate(59.9 340.6) rotate(83.8)">
        <path d="M 0.0 -44.1 L 41.4 -16.6 L 27.6 38.6 L -27.6 38.6 L -41.4 -16.6 Z" fill="#808080" stroke="black" stroke-width="2"/>
    </g>

    <!-- hexagon instances -->
    <g transform="translate(308.4 190.6) rotate(319.1)">
        <path d="M 0.0 -17.9 L 17.9 -9.0 L 17.9 9.0 L 0.0 17.9 L -17.9 9.0 L -17.9 -9.0 Z" fill="#FFA500" stroke="black" stroke-width="2"/>
    </g>
    <g transform="translate(77.2 63.3) rotate(108.8)">
        <path d="M 0.0 -41.7 L 41.7 -20.8 L 41.7 20.8 L 0.0 41.7 L -41.7 20.8 L -41.7 -20.8 Z" fill="#FF0000" stroke="black" stroke-width="2"/>
    </g>
    <g transform="translate(313.3 91.8) rotate(102.6)">
        <path d="M 0.0 -32.3 L 32.3 -16.1 L 32.3 16.1 L 0.0 32.3 L -32.3 16.1 L -32.3 -16.1 Z" fill="#FFA500" stroke="black" stroke-width="2"/>
    </g>
</svg>