<?xml version="1.0" encoding="UTF-8"?>
<svg xmlns="http://www.w3.org/2000/svg" viewBox="0 0 400 400">
    <rect width="400" height="400" fill="white"/>

    <!-- cross instances -->
    <g transform="translate(273.6 260.6) rotate(112.9)">
        <path d="M -16.5 -33.0 L 16.5 -33.0 L 16.5 -16.5 L 33.0 -16.5 L 33.0 16.5 L 16.5 16.5 L 16.5 33.0 L -16.5 33.0 L -16.5 16.5 L -33.0 16.5 L -33.0 -16.5 L -16.5 -16.5 Z" fill="#FFA500" stroke="black" stroke-width="2"/>
    </g>
    <g transform="translate(335.9 74.1) rotate(341.3)">
        <path d="M -11.2 -22.3 L 11.2 -22.3 L 11.2 -11.2 L 22.3 -11.2 L 22.3 11.2 L 11.2 11.2 L 11.2 22.3 L -11.2 22.3 L -11.2 11.2 L -22.3 11.2 L -22.3 -11.2 L -11.2 -11.2 Z" fill="#808080" stroke="black" stroke-width="2"/>
    </g>
    <g transform="translate(70.4 166.4) rotate(32.0)">
        <path d="M -17.3 -34.7 L 17.3 -34.7 L 17.3 -17.3 L 34.7 -17.3 L 34.7 17.3 L 17.3 17.3 L 17.3 34.7 L -17.3 34.7 L -17.3 17.3 L -34.7 17.3 L -34.7 -17.3 L -17.3 -17.3 Z" fill="#FFA500" stroke="black" stroke-width="2"/>
    </g>

    <!-- star instances -->
    <g transform="translate(79.0 272.5) rotate(277.3)">
        <path d="M 0.0 -49.8 L 12.5 -15.9 L 49.8 -15.9 L 20.4 6.8 L 32.8 40.8 L 0.0 18.1 L -32.8 40.8 L -20.4 6.8 L -49.8 -15.9 L -12.5 -15.9 Z" fill="#000000" stroke="black" stroke-width="2"/>
    </g>
    <g transform="translate(226.8 66.0) rotate(17.3)">
        <path d="M 0.0 -43.0 L 10.7 -13.7 L 43.0 -13.7 L 17.6 5.9 L 28.3 35.2 L 0.0 15.6 L -28.3 35.2 L -17.6 5.9 L -43.0 -13.7 L -10.7 -13.7 Z" fill="#FFFF00" stroke="black" stroke-width="2"/>
    </g>
</svg>