<?xml version="1.0" encoding="UTF-8"?>
<svg xmlns="http://www.w3.org/2000/svg" viewBox="0 0 400 400">
    <rect width="400" height="400" fill="white"/>

    <!-- hexagon instances -->
    <g transform="translate(92.4 229.8) rotate(258.7)">
        <path d="M 0.0 -26.4 L 26.4 -13.2 L 26.4 13.2 L 0.0 26.4 L -26.4 13.2 L -26.4 -13.2 Z" fill="#FFA500" stroke="black" stroke-width="2"/>
    </g>
    <g transform="translate(122.5 152.2) rotate(56.7)">
        <path d="M 0.0 -21.3 L 21.3 -10.7 L 21.3 10.7 L 0.0 21.3 L -21.3 10.7 L -21.3 -10.7 Z" fill="#00FF00" stroke="black" stroke-width="2"/>
    </g>
    <g transform="translate(262.6 190.4) rotate(130.2)">
        <path d="M 0.0 -19.5 L 19.5 -9.7 L 19.5 9.7 L 0.0 19.5 L -19.5 9.7 L -19.5 -9.7 Z" fill="#FFFF00" stroke="black" stroke-width="2"/>
    </g>
    <g transform="translate(241.1 75.3) rotate(5.5)">
        <path d="M 0.0 -28.0 L 28.0 -14.0 L 28.0 14.0 L 0.0 28.0 L -28.0 14.0 L -28.0 -14.0 Z" fill="#FFA500" stroke="black" stroke-width="2"/>
    </g>

    <!-- star instances -->
    <g transform="translate(51.6 346.7) rotate(234.5)">
        <path d="M 0.0 -41.2 L 10.3 -13.1 L 41.2 -13.1 L 16.9 5.6 L 27.2 33.7 L 0.0 15.0 L -27.2 33.7 L -16.9 5.6 L -41.2 -13.1 L -10.3 -13.1 Z" fill="#000000" stroke="black" stroke-width="2"/>
    </g>
    <g transform="translate(74.0 54.9) rotate(130.2)">
        <path d="M 0.0 -41.3 L 10.3 -13.1 L 41.3 -13.1 L 16.9 5.6 L 27.2 33.8 L 0.0 15.0 L -27.2 33.8 L -16.9 5.6 L -41.3 -13.1 L -10.3 -13.1 Z" fill="#FFFF00" stroke="black" stroke-width="2"/>
    </g>
    <g transform="translate(235.6 257.2) rotate(107.5)">
        <path d="M 0.0 -25.8 L 6.5 -8.2 L 25.8 -8.2 L 10.6 3.5 L 17.0 21.1 L 0.0 9.4 L -17.0 21.1 L -10.6 3.5 L -25.8 -8.2 L -6.5 -8.2 Z" fill="#800080" stroke="black" stroke-width="2"/>
    </g>
</svg>