<?xml version="1.0" encoding="UTF-8"?>
<svg xmlns="http://www.w3.org/2000/svg" viewBox="0 0 400 400">
    <rect width="400" height="400" fill="white"/>

    <!-- hexagon instances -->
    <g transform="translate(72.5 183.2) rotate(340.7)">
        <path d="M 0.0 -15.4 L 15.4 -7.7 L 15.4 7.7 L 0.0 15.4 L -15.4 7.7 L -15.4 -7.7 Z" fill="#FFFF00" stroke="black" stroke-width="2"/>
    </g>
    <g transform="translate(146.1 32.1) rotate(143.2)">
        <path d="M 0.0 -18.3 L 18.3 -9.2 L 18.3 9.2 L 0.0 18.3 L -18.3 9.2 L -18.3 -9.2 Z" fill="#FFFF00" stroke="black" stroke-width="2"/>
    </g>

    <!-- triangle instances -->
    <g transform="translate(217.6 115.9) rotate(161.3)">
        <path d="M 0.0 -37.1 L 27.8 18.6 L -27.8 18.6 Z" fill="#000000" stroke="black" stroke-width="2"/>
    </g>
    <g transform="translate(343.6 203.6) rotate(306.5)">
        <path d="M 0.0 -40.3 L 30.2 20.1 L -30.2 20.1 Z" fill="#0000FF" stroke="black" stroke-width="2"/>
    </g>
    <g transform="translate(264.8 266.8) rotate(275.5)">
        <path d="M 0.0 -25.4 L 19.1 12.7 L -19.1 12.7 Z" fill="#FF0000" stroke="black" stroke-width="2"/>
    </g>
    <g transform="translate(67.0 53.7) rotate(246.8)">
        <path d="M 0.0 -42.0 L 31.5 21.0 L -31.5 21.0 Z" fill="#808080" stroke="black" stroke-width="2"/>
    </g>
</svg>