<?xml version="1.0" encoding="UTF-8"?>
<svg xmlns="http://www.w3.org/2000/svg" viewBox="0 0 400 400">
    <rect width="400" height="400" fill="white"/>

    <!-- pentagon instances -->
    <g transform="translate(226.8 84.2) rotate(227.6)">
        <path d="M 0.0 -25.3 L 23.7 -9.5 L 15.8 22.1 L -15.8 22.1 L -23.7 -9.5 Z" fill="#FF0000" stroke="black" stroke-width="2"/>
    </g>

    <!-- hexagon instances -->
    <g transform="translate(146.4 149.4) rotate(58.4)">
        <path d="M 0.0 -11.3 L 11.3 -5.7 L 11.3 5.7 L 0.0 11.3 L -11.3 5.7 L -11.3 -5.7 Z" fill="#FFFF00" stroke="black" stroke-width="2"/>
    </g>

    <!-- octagon instances -->
    <g transform="translate(152.6 86.7) rotate(159.2)">
        <path d="M -6.8 -13.5 L 6.8 -13.5 L 13.5 -6.8 L 13.5 6.8 L 6.8 13.5 L -6.8 13.5 L -13.5 6.8 L -13.5 -6.8 Z" fill="#00FF00" stroke="black" stroke-width="2"/>
    </g>
    <g transform="translate(34.0 272.4) rotate(133.9)">
        <path d="M -11.2 -22.5 L 11.2 -22.5 L 22.5 -11.2 L 22.5 11.2 L 11.2 22.5 L -11.2 22.5 L -22.5 11.2 L -22.5 -11.2 Z" fill="#FFFF00" stroke="black" stroke-width="2"/>
    </g>

    <!-- cross instances -->
    <g transform="translate(204.7 268.3) rotate(72.0)">
        <path d="M -7.8 -15.6 L 7.8 -15.6 L 7.8 -7.8 L 15.6 -7.8 L 15.6 7.8 L 7.8 7.8 L 7.8 15.6 L -7.8 15.6 L -7.8 7.8 L -15.6 7.8 L -15.6 -7.8 L -7.8 -7.8 Z" fill="#FFFF00" stroke="black" stroke-width="2"/>
    </g>
</svg>