<?xml version="1.0" encoding="UTF-8"?>
<svg xmlns="http://www.w3.org/2000/svg" viewBox="0 0 400 400">
    <rect width="400" height="400" fill="white"/>

    <!-- triangle instances -->
    <g transform="translate(41.3 315.2) rotate(2.4)">
        <path d="M 0.0 -36.4 L 27.3 18.2 L -27.3 18.2 Z" fill="#FF0000" stroke="black" stroke-width="2"/>
    </g>

    <!-- cross instances -->
    <g transform="translate(169.3 38.4) rotate(189.5)">
        <path d="M -10.1 -20.1 L 10.1 -20.1 L 10.1 -10.1 L 20.1 -10.1 L 20.1 10.1 L 10.1 10.1 L 10.1 20.1 L -10.1 20.1 L -10.1 10.1 L -20.1 10.1 L -20.1 -10.1 L -10.1 -10.1 Z" fill="#0000FF" stroke="black" stroke-width="2"/>
    </g>

    <!-- hexagon instances -->
    <g transform="translate(144.0 143.0) rotate(160.4)">
        <path d="M 0.0 -16.5 L 16.5 -8.2 L 16.5 8.2 L 0.0 16.5 L -16.5 8.2 L -16.5 -8.2 Z" fill="#FF0000" stroke="black" stroke-width="2"/>
    </g>

    <!-- star instances -->
    <g transform="translate(281.4 157.4) rotate(62.4)">
        <path d="M 0.0 -34.7 L 8.7 -11.0 L 34.7 -11.0 L 14.2 4.7 L 22.9 28.4 L 0.0 12.6 L -22.9 28.4 L -14.2 4.7 L -34.7 -11.0 L -8.7 -11.0 Z" fill="#FFA500" stroke="black" stroke-width="2"/>
    </g>
    <g transform="translate(325.1 274.9) rotate(40.8)">
        <path d="M 0.0 -45.3 L 11.3 -14.4 L 45.3 -14.4 L 18.5 6.2 L 29.8 37.1 L 0.0 16.5 L -29.8 37.1 L -18.5 6.2 L -45.3 -14.4 L -11.3 -14.4 Z" fill="#FF0000" stroke="black" stroke-width="2"/>
    </g>
</svg>