<?xml version="1.0" encoding="UTF-8"?>
<svg xmlns="http://www.w3.org/2000/svg" viewBox="0 0 400 400">
    <rect width="400" height="400" fill="white"/>

    <!-- star instances -->
    <g transform="translate(181.2 250.5) rotate(69.7)">
        <path d="M 0.0 -57.3 L 14.3 -18.2 L 57.3 -18.2 L 23.5 7.8 L 37.8 46.9 L 0.0 20.8 L -37.8 46.9 L -23.5 7.8 L -57.3 -18.2 L -14.3 -18.2 Z" fill="#0000FF" stroke="black" stroke-width="2"/>
    </g>
    <g transform="translate(161.5 66.3) rotate(171.2)">
        <path d="M 0.0 -47.0 L 11.7 -14.9 L 47.0 -14.9 L 19.2 6.4 L 31.0 38.4 L 0.0 17.1 L -31.0 38.4 L -19.2 6.4 L -47.0 -14.9 L -11.7 -14.9 Z" fill="#FFFF00" stroke="black" stroke-width="2"/>
    </g>

    <!-- pentagon instances -->
    <g transform="translate(298.1 104.3) rotate(321.6)">
        <path d="M 0.0 -46.5 L 43.5 -17.4 L 29.0 40.6 L -29.0 40.6 L -43.5 -17.4 Z" fill="#00FF00" stroke="black" stroke-width="2"/>
    </g>
    <g transform="translate(288.7 197.2) rotate(91.7)">
        <path d="M 0.0 -22.2 L 20.8 -8.3 L 13.9 19.4 L -13.9 19.4 L -20.8 -8.3 Z" fill="#808080" stroke="black" stroke-width="2"/>
    </g>

    <!-- octagon instances -->
    <g transform="translate(63.7 342.7) rotate(210.5)">
        <path d="M -16.6 -33.2 L 16.6 -33.2 L 33.2 -16.6 L 33.2 16.6 L 16.6 33.2 L -16.6 33.2 L -33.2 16.6 L -33.2 -16.6 Z" fill="#00FF00" stroke="black" stroke-width="2"/>
    </g>
    <g transform="translate(345.0 258.6) rotate(87.7)">
        <path d="M -9.1 -18.2 L 9.1 -18.2 L 18.2 -9.1 L 18.2 9.1 L 9.1 18.2 L -9.1 18.2 L -18.2 9.1 L -18.2 -9.1 Z" fill="#800080" stroke="black" stroke-width="2"/>
    </g>

    <!-- hexagon instances -->
    <g transform="translate(337.4 354.5) rotate(309.4)">
        <path d="M 0.0 -24.2 L 24.2 -12.1 L 24.2 12.1 L 0.0 24.2 L -24.2 12.1 L -24.2 -12.1 Z" fill="#000000" stroke="black" stroke-width="2"/>
    </g>
</svg>