<?xml version="1.0" encoding="UTF-8"?>
<svg xmlns="http://www.w3.org/2000/svg" viewBox="0 0 400 400">
    <rect width="400" height="400" fill="white"/>

    <!-- triangle instances -->
    <g transform="translate(61.5 103.4) rotate(2.9)">
        <path d="M 0.0 -28.1 L 21.1 14.0 L -21.1 14.0 Z" fill="#800080" stroke="black" stroke-width="2"/>
    </g>

    <!-- pentagon instances -->
    <g transform="translate(163.7 188.4) rotate(318.9)">
        <path d="M 0.0 -24.7 L 23.1 -9.2 L 15.4 21.6 L -15.4 21.6 L -23.1 -9.2 Z" fill="#0000FF" stroke="black" stroke-width="2"/>
    </g>
    <g transform="translate(283.8 103.3) rotate(252.9)">
        <path d="M 0.0 -33.7 L 31.6 -12.6 L 21.1 29.5 L -21.1 29.5 L -31.6 -12.6 Z" fill="#000000" stroke="black" stroke-width="2"/>
    </g>

    <!-- cross instances -->
    <g transform="translate(50.5 196.8) rotate(328.6)">
        <path d="M -14.7 -29.4 L 14.7 -29.4 L 14.7 -14.7 L 29.4 -14.7 L 29.4 14.7 L 14.7 14.7 L 14.7 29.4 L -14.7 29.4 L -14.7 14.7 L -29.4 14.7 L -29.4 -14.7 L -14.7 -14.7 Z" fill="#000000" stroke="black" stroke-width="2"/>
    </g>

    <!-- star instances -->
    <g transform="translate(341.1 182.9) rotate(49.4)">
        <path d="M 0.0 -23.3 L 5.8 -7.4 L 23.3 -7.4 L 9.5 3.2 L 15.4 19.1 L 0.0 8.5 L -15.4 19.1 L -9.5 3.2 L -23.3 -7.4 L -5.8 -7.4 Z" fill="#FFA500" stroke="black" stroke-width="2"/>
    </g>
</svg>