<?xml version="1.0" encoding="UTF-8"?>
<svg xmlns="http://www.w3.org/2000/svg" viewBox="0 0 400 400">
    <rect width="400" height="400" fill="white"/>

    <!-- pentagon instances -->
    <g transform="translate(111.3 272.7) rotate(128.3)">
        <path d="M 0.0 -37.0 L 34.7 -13.9 L 23.2 32.4 L -23.2 32.4 L -34.7 -13.9 Z" fill="#FF0000" stroke="black" stroke-width="2"/>
    </g>

    <!-- triangle instances -->
    <g transform="translate(181.7 240.9) rotate(297.4)">
        <path d="M 0.0 -17.2 L 12.9 8.6 L -12.9 8.6 Z" fill="#FFFF00" stroke="black" stroke-width="2"/>
    </g>
    <g transform="translate(264.5 133.9) rotate(28.8)">
        <path d="M 0.0 -27.9 L 20.9 13.9 L -20.9 13.9 Z" fill="#FF0000" stroke="black" stroke-width="2"/>
    </g>

    <!-- star instances -->
    <g transform="translate(91.0 83.0) rotate(251.5)">
        <path d="M 0.0 -37.7 L 9.4 -12.0 L 37.7 -12.0 L 15.4 5.1 L 24.8 30.8 L 0.0 13.7 L -24.8 30.8 L -15.4 5.1 L -37.7 -12.0 L -9.4 -12.0 Z" fill="#FF0000" stroke="black" stroke-width="2"/>
    </g>

    <!-- hexagon instances -->
    <g transform="translate(330.9 287.5) rotate(72.9)">
        <path d="M 0.0 -13.6 L 13.6 -6.8 L 13.6 6.8 L 0.0 13.6 L -13.6 6.8 L -13.6 -6.8 Z" fill="#FFFF00" stroke="black" stroke-width="2"/>
    </g>
</svg>