<?xml version="1.0" encoding="UTF-8"?>
<svg xmlns="http://www.w3.org/2000/svg" viewBox="0 0 400 400">
    <rect width="400" height="400" fill="white"/>

    <!-- octagon instances -->
    <g transform="translate(351.8 184.3) rotate(245.9)">
        <path d="M -11.0 -22.1 L 11.0 -22.1 L 22.1 -11.0 L 22.1 11.0 L 11.0 22.1 L -11.0 22.1 L -22.1 11.0 L -22.1 -11.0 Z" fill="#0000FF" stroke="black" stroke-width="2"/>
    </g>

    <!-- triangle instances -->
    <g transform="translate(298.6 266.4) rotate(234.9)">
        <path d="M 0.0 -45.2 L 33.9 22.6 L -33.9 22.6 Z" fill="#800080" stroke="black" stroke-width="2"/>
    </g>
    <g transform="translate(102.4 172.0) rotate(263.1)">
        <path d="M 0.0 -46.9 L 35.2 23.5 L -35.2 23.5 Z" fill="#0000FF" stroke="black" stroke-width="2"/>
    </g>

    <!-- pentagon instances -->
    <g transform="translate(50.7 84.3) rotate(329.7)">
        <path d="M 0.0 -37.0 L 34.7 -13.9 L 23.1 32.3 L -23.1 32.3 L -34.7 -13.9 Z" fill="#808080" stroke="black" stroke-width="2"/>
    </g>
    <g transform="translate(133.3 278.4) rotate(190.2)">
        <path d="M 0.0 -30.8 L 28.8 -11.5 L 19.2 26.9 L -19.2 26.9 L -28.8 -11.5 Z" fill="#000000" stroke="black" stroke-width="2"/>
    </g>

    <!-- cross instances -->
    <g transform="translate(52.4 340.6) rotate(216.5)">
        <path d="M -14.2 -28.5 L 14.2 -28.5 L 14.2 -14.2 L 28.5 -14.2 L 28.5 14.2 L 14.2 14.2 L 14.2 28.5 L -14.2 28.5 L -14.2 14.2 L -28.5 14.2 L -28.5 -14.2 L -14.2 -14.2 Z" fill="#00FF00" stroke="black" stroke-width="2"/>
    </g>
    <g transform="translate(184.6 216.6) rotate(168.5)">
        <path d="M -9.7 -19.4 L 9.7 -19.4 L 9.7 -9.7 L 19.4 -9.7 L 19.4 9.7 L 9.7 9.7 L 9.7 19.4 L -9.7 19.4 L -9.7 9.7 L -19.4 9.7 L -19.4 -9.7 L -9.7 -9.7 Z" fill="#808080" stroke="black" stroke-width="2"/>
    </g>
</svg>