<?xml version="1.0" encoding="UTF-8"?>
<svg xmlns="http://www.w3.org/2000/svg" viewBox="0 0 400 400">
    <rect width="400" height="400" fill="white"/>

    <!-- star instances -->
    <g transform="translate(118.8 334.2) rotate(10.8)">
        <path d="M 0.0 -41.2 L 10.3 -13.1 L 41.2 -13.1 L 16.9 5.6 L 27.2 33.7 L 0.0 15.0 L -27.2 33.7 L -16.9 5.6 L -41.2 -13.1 L -10.3 -13.1 Z" fill="#FFFF00" stroke="black" stroke-width="2"/>
    </g>

    <!-- triangle instances -->
    <g transform="translate(265.1 256.7) rotate(353.3)">
        <path d="M 0.0 -26.4 L 19.8 13.2 L -19.8 13.2 Z" fill="#0000FF" stroke="black" stroke-width="2"/>
    </g>

    <!-- hexagon instances -->
    <g transform="translate(282.7 39.8) rotate(277.2)">
        <path d="M 0.0 -24.6 L 24.6 -12.3 L 24.6 12.3 L 0.0 24.6 L -24.6 12.3 L -24.6 -12.3 Z" fill="#FF0000" stroke="black" stroke-width="2"/>
    </g>

    <!-- cross instances -->
    <g transform="translate(314.7 203.2) rotate(48.4)">
        <path d="M -9.1 -18.1 L 9.1 -18.1 L 9.1 -9.1 L 18.1 -9.1 L 18.1 9.1 L 9.1 9.1 L 9.1 18.1 L -9.1 18.1 L -9.1 9.1 L -18.1 9.1 L -18.1 -9.1 L -9.1 -9.1 Z" fill="#FFA500" stroke="black" stroke-width="2"/>
    </g>
</svg>