<?xml version="1.0" encoding="UTF-8"?>
<svg xmlns="http://www.w3.org/2000/svg" viewBox="0 0 400 400">
    <rect width="400" height="400" fill="white"/>

    <!-- cross instances -->
    <g transform="translate(359.3 194.9) rotate(173.7)">
        <path d="M -13.4 -26.7 L 13.4 -26.7 L 13.4 -13.4 L 26.7 -13.4 L 26.7 13.4 L 13.4 13.4 L 13.4 26.7 L -13.4 26.7 L -13.4 13.4 L -26.7 13.4 L -26.7 -13.4 L -13.4 -13.4 Z" fill="#FFA500" stroke="black" stroke-width="2"/>
    </g>
    <g transform="translate(179.1 310.3) rotate(171.7)">
        <path d="M -19.5 -39.0 L 19.5 -39.0 L 19.5 -19.5 L 39.0 -19.5 L 39.0 19.5 L 19.5 19.5 L 19.5 39.0 L -19.5 39.0 L -19.5 19.5 L -39.0 19.5 L -39.0 -19.5 L -19.5 -19.5 Z" fill="#000000" stroke="black" stroke-width="2"/>
    </g>

    <!-- octagon instances -->
    <g transform="translate(104.0 216.4) rotate(185.3)">
        <path d="M -22.0 -44.1 L 22.0 -44.1 L 44.1 -22.0 L 44.1 22.0 L 22.0 44.1 L -22.0 44.1 L -44.1 22.0 L -44.1 -22.0 Z" fill="#FF0000" stroke="black" stroke-width="2"/>
    </g>
    <g transform="translate(225.8 168.5) rotate(243.3)">
        <path d="M -15.6 -31.2 L 15.6 -31.2 L 31.2 -15.6 L 31.2 15.6 L 15.6 31.2 L -15.6 31.2 L -31.2 15.6 L -31.2 -15.6 Z" fill="#00FF00" stroke="black" stroke-width="2"/>
    </g>

    <!-- hexagon instances -->
    <g transform="translate(61.5 322.7) rotate(351.9)">
        <path d="M 0.0 -24.6 L 24.6 -12.3 L 24.6 12.3 L 0.0 24.6 L -24.6 12.3 L -24.6 -12.3 Z" fill="#00FF00" stroke="black" stroke-width="2"/>
    </g>

    <!-- star instances -->
    <g transform="translate(303.3 81.9) rotate(352.8)">
        <path d="M 0.0 -27.9 L 7.0 -8.9 L 27.9 -8.9 L 11.4 3.8 L 18.4 22.9 L 0.0 10.2 L -18.4 22.9 L -11.4 3.8 L -27.9 -8.9 L -7.0 -8.9 Z" fill="#FFA500" stroke="black" stroke-width="2"/>
    </g>
</svg>