<?xml version="1.0" encoding="UTF-8"?>
<svg xmlns="http://www.w3.org/2000/svg" viewBox="0 0 400 400">
    <rect width="400" height="400" fill="white"/>

    <!-- hexagon instances -->
    <g transform="translate(191.5 348.1) rotate(114.7)">
        <path d="M 0.0 -31.7 L 31.7 -15.8 L 31.7 15.8 L 0.0 31.7 L -31.7 15.8 L -31.7 -15.8 Z" fill="#0000FF" stroke="black" stroke-width="2"/>
    </g>
    <g transform="translate(131.1 205.1) rotate(193.7)">
        <path d="M 0.0 -12.5 L 12.5 -6.3 L 12.5 6.3 L 0.0 12.5 L -12.5 6.3 L -12.5 -6.3 Z" fill="#808080" stroke="black" stroke-width="2"/>
    </g>

    <!-- pentagon instances -->
    <g transform="translate(353.9 292.6) rotate(162.0)">
        <path d="M 0.0 -12.9 L 12.1 -4.8 L 8.0 11.3 L -8.0 11.3 L -12.1 -4.8 Z" fill="#00FF00" stroke="black" stroke-width="2"/>
    </g>
    <g transform="translate(306.5 324.4) rotate(355.4)">
        <path d="M 0.0 -21.6 L 20.3 -8.1 L 13.5 18.9 L -13.5 18.9 L -20.3 -8.1 Z" fill="#0000FF" stroke="black" stroke-width="2"/>
    </g>

    <!-- cross instances -->
    <g transform="translate(293.5 83.7) rotate(220.0)">
        <path d="M -6.7 -13.5 L 6.7 -13.5 L 6.7 -6.7 L 13.5 -6.7 L 13.5 6.7 L 6.7 6.7 L 6.7 13.5 L -6.7 13.5 L -6.7 6.7 L -13.5 6.7 L -13.5 -6.7 L -6.7 -6.7 Z" fill="#FF0000" stroke="black" stroke-width="2"/>
    </g>
    <g transform="translate(255.1 237.2) rotate(13.3)">
        <path d="M -8.4 -16.8 L 8.4 -16.8 L 8.4 -8.4 L 16.8 -8.4 L 16.8 8.4 L 8.4 8.4 L 8.4 16.8 L -8.4 16.8 L -8.4 8.4 L -16.8 8.4 L -16.8 -8.4 L -8.4 -8.4 Z" fill="#0000FF" stroke="black" stroke-width="2"/>
    </g>

    <!-- star instances -->
    <g transform="translate(234.0 137.4) rotate(356.0)">
        <path d="M 0.0 -31.2 L 7.8 -9.9 L 31.2 -9.9 L 12.8 4.3 L 20.6 25.5 L 0.0 11.3 L -20.6 25.5 L -12.8 4.3 L -31.2 -9.9 L -7.8 -9.9 Z" fill="#800080" stroke="black" stroke-width="2"/>
    </g>
    <g transform="translate(144.4 66.9) rotate(146.3)">
        <path d="M 0.0 -39.5 L 9.9 -12.6 L 39.5 -12.6 L 16.2 5.4 L 26.0 32.3 L 0.0 14.4 L -26.0 32.3 L -16.2 5.4 L -39.5 -12.6 L -9.9 -12.6 Z" fill="#800080" stroke="black" stroke-width="2"/>
    </g>
</svg>