<?xml version="1.0" encoding="UTF-8"?>
<svg xmlns="http://www.w3.org/2000/svg" viewBox="0 0 400 400">
    <rect width="400" height="400" fill="white"/>

    <!-- triangle instances -->
    <g transform="translate(268.5 110.8) rotate(112.4)">
        <path d="M 0.0 -36.0 L 27.0 18.0 L -27.0 18.0 Z" fill="#000000" stroke="black" stroke-width="2"/>
    </g>
    <g transform="translate(76.4 188.3) rotate(355.2)">
        <path d="M 0.0 -18.5 L 13.9 9.2 L -13.9 9.2 Z" fill="#800080" stroke="black" stroke-width="2"/>
    </g>

    <!-- pentagon instances -->
    <g transform="translate(144.5 304.7) rotate(336.0)">
        <path d="M 0.0 -24.5 L 23.0 -9.2 L 15.3 21.4 L -15.3 21.4 L -23.0 -9.2 Z" fill="#00FF00" stroke="black" stroke-width="2"/>
    </g>
    <g transform="translate(55.6 61.1) rotate(70.1)">
        <path d="M 0.0 -22.9 L 21.4 -8.6 L 14.3 20.0 L -14.3 20.0 L -21.4 -8.6 Z" fill="#FF0000" stroke="black" stroke-width="2"/>
    </g>

    <!-- hexagon instances -->
    <g transform="translate(131.3 207.0) rotate(40.0)">
        <path d="M 0.0 -25.9 L 25.9 -13.0 L 25.9 13.0 L 0.0 25.9 L -25.9 13.0 L -25.9 -13.0 Z" fill="#000000" stroke="black" stroke-width="2"/>
    </g>
    <g transform="translate(74.2 325.2) rotate(283.6)">
        <path d="M 0.0 -28.4 L 28.4 -14.2 L 28.4 14.2 L 0.0 28.4 L -28.4 14.2 L -28.4 -14.2 Z" fill="#FF0000" stroke="black" stroke-width="2"/>
    </g>

    <!-- octagon instances -->
    <g transform="translate(357.6 253.8) rotate(86.6)">
        <path d="M -14.1 -28.2 L 14.1 -28.2 L 28.2 -14.1 L 28.2 14.1 L 14.1 28.2 L -14.1 28.2 L -28.2 14.1 L -28.2 -14.1 Z" fill="#00FF00" stroke="black" stroke-width="2"/>
    </g>
</svg>