<?xml version="1.0" encoding="UTF-8"?>
<svg xmlns="http://www.w3.org/2000/svg" viewBox="0 0 400 400">
    <rect width="400" height="400" fill="white"/>

    <!-- pentagon instances -->
    <g transform="translate(210.4 200.9) rotate(35.1)">
        <path d="M 0.0 -9.2 L 8.6 -3.5 L 5.8 8.1 L -5.8 8.1 L -8.6 -3.5 Z" fill="#0000FF" stroke="black" stroke-width="2"/>
    </g>
    <g transform="translate(94.3 235.2) rotate(90.1)">
        <path d="M 0.0 -10.0 L 9.3 -3.7 L 6.2 8.7 L -6.2 8.7 L -9.3 -3.7 Z" fill="#808080" stroke="black" stroke-width="2"/>
    </g>
    <g transform="translate(127.1 267.7) rotate(347.7)">
        <path d="M 0.0 -9.2 L 8.6 -3.4 L 5.7 8.0 L -5.7 8.0 L -8.6 -3.4 Z" fill="#800080" stroke="black" stroke-width="2"/>
    </g>
    <g transform="translate(159.3 143.7) rotate(70.3)">
        <path d="M 0.0 -14.4 L 13.5 -5.4 L 9.0 12.6 L -9.0 12.6 L -13.5 -5.4 Z" fill="#000000" stroke="black" stroke-width="2"/>
    </g>

    <!-- triangle instances -->
    <g transform="translate(274.5 204.0) rotate(115.7)">
        <path d="M 0.0 -19.2 L 14.4 9.6 L -14.4 9.6 Z" fill="#FF0000" stroke="black" stroke-width="2"/>
    </g>

    <!-- hexagon instances -->
    <g transform="translate(157.6 92.5) rotate(202.2)">
        <path d="M 0.0 -21.6 L 21.6 -10.8 L 21.6 10.8 L 0.0 21.6 L -21.6 10.8 L -21.6 -10.8 Z" fill="#800080" stroke="black" stroke-width="2"/>
    </g>

    <!-- star instances -->
    <g transform="translate(56.1 33.6) rotate(58.0)">
        <path d="M 0.0 -21.3 L 5.3 -6.8 L 21.3 -6.8 L 8.7 2.9 L 14.0 17.4 L 0.0 7.7 L -14.0 17.4 L -8.7 2.9 L -21.3 -6.8 L -5.3 -6.8 Z" fill="#FFA500" stroke="black" stroke-width="2"/>
    </g>
    <g transform="translate(270.6 129.3) rotate(323.1)">
        <path d="M 0.0 -30.9 L 7.7 -9.8 L 30.9 -9.8 L 12.7 4.2 L 20.4 25.3 L 0.0 11.2 L -20.4 25.3 L -12.7 4.2 L -30.9 -9.8 L -7.7 -9.8 Z" fill="#808080" stroke="black" stroke-width="2"/>
    </g>
    <g transform="translate(354.8 153.3) rotate(155.1)">
        <path d="M 0.0 -30.6 L 7.6 -9.7 L 30.6 -9.7 L 12.5 4.2 L 20.2 25.0 L 0.0 11.1 L -20.2 25.0 L -12.5 4.2 L -30.6 -9.7 L -7.6 -9.7 Z" fill="#800080" stroke="black" stroke-width="2"/>
    </g>
    <g transform="translate(223.9 334.6) rotate(216.3)">
        <path d="M 0.0 -12.9 L 3.2 -4.1 L 12.9 -4.1 L 5.3 1.8 L 8.5 10.6 L 0.0 4.7 L -8.5 10.6 L -5.3 1.8 L -12.9 -4.1 L -3.2 -4.1 Z" fill="#FFA500" stroke="black" stroke-width="2"/>
    </g>
</svg>