<?xml version="1.0" encoding="UTF-8"?>
<svg xmlns="http://www.w3.org/2000/svg" viewBox="0 0 400 400">
    <rect width="400" height="400" fill="white"/>

    <!-- cross instances -->
    <g transform="translate(169.4 137.2) rotate(200.4)">
        <path d="M -11.4 -22.8 L 11.4 -22.8 L 11.4 -11.4 L 22.8 -11.4 L 22.8 11.4 L 11.4 11.4 L 11.4 22.8 L -11.4 22.8 L -11.4 11.4 L -22.8 11.4 L -22.8 -11.4 L -11.4 -11.4 Z" fill="#FF0000" stroke="black" stroke-width="2"/>
    </g>
    <g transform="translate(266.4 72.1) rotate(276.9)">
        <path d="M -8.6 -17.2 L 8.6 -17.2 L 8.6 -8.6 L 17.2 -8.6 L 17.2 8.6 L 8.6 8.6 L 8.6 17.2 L -8.6 17.2 L -8.6 8.6 L -17.2 8.6 L -17.2 -8.6 L -8.6 -8.6 Z" fill="#800080" stroke="black" stroke-width="2"/>
    </g>

    <!-- pentagon instances -->
    <g transform="translate(161.1 350.9) rotate(313.0)">
        <path d="M 0.0 -21.5 L 20.2 -8.1 L 13.4 18.8 L -13.4 18.8 L -20.2 -8.1 Z" fill="#00FF00" stroke="black" stroke-width="2"/>
    </g>

    <!-- octagon instances -->
    <g transform="translate(155.2 42.1) rotate(60.5)">
        <path d="M -4.9 -9.8 L 4.9 -9.8 L 9.8 -4.9 L 9.8 4.9 L 4.9 9.8 L -4.9 9.8 L -9.8 4.9 L -9.8 -4.9 Z" fill="#808080" stroke="black" stroke-width="2"/>
    </g>
    <g transform="translate(361.1 182.3) rotate(3.9)">
        <path d="M -6.9 -13.7 L 6.9 -13.7 L 13.7 -6.9 L 13.7 6.9 L 6.9 13.7 L -6.9 13.7 L -13.7 6.9 L -13.7 -6.9 Z" fill="#00FF00" stroke="black" stroke-width="2"/>
    </g>
    <g transform="translate(292.7 255.4) rotate(209.9)">
        <path d="M -10.8 -21.6 L 10.8 -21.6 L 21.6 -10.8 L 21.6 10.8 L 10.8 21.6 L -10.8 21.6 L -21.6 10.8 L -21.6 -10.8 Z" fill="#FF0000" stroke="black" stroke-width="2"/>
    </g>
    <g transform="translate(328.1 182.6) rotate(149.7)">
        <path d="M -4.9 -9.8 L 4.9 -9.8 L 9.8 -4.9 L 9.8 4.9 L 4.9 9.8 L -4.9 9.8 L -9.8 4.9 L -9.8 -4.9 Z" fill="#000000" stroke="black" stroke-width="2"/>
    </g>

    <!-- triangle instances -->
    <g transform="translate(227.7 136.9) rotate(186.7)">
        <path d="M 0.0 -18.1 L 13.5 9.0 L -13.5 9.0 Z" fill="#FFA500" stroke="black" stroke-width="2"/>
    </g>
    <g transform="translate(299.1 165.5) rotate(175.4)">
        <path d="M 0.0 -13.1 L 9.8 6.5 L -9.8 6.5 Z" fill="#000000" stroke="black" stroke-width="2"/>
    </g>
</svg>