<?xml version="1.0" encoding="UTF-8"?>
<svg xmlns="http://www.w3.org/2000/svg" viewBox="0 0 400 400">
    <rect width="400" height="400" fill="white"/>

    <!-- octagon instances -->
    <g transform="translate(71.2 362.0) rotate(317.4)">
        <path d="M -7.2 -14.3 L 7.2 -14.3 L 14.3 -7.2 L 14.3 7.2 L 7.2 14.3 L -7.2 14.3 L -14.3 7.2 L -14.3 -7.2 Z" fill="#FFFF00" stroke="black" stroke-width="2"/>
    </g>

    <!-- cross instances -->
    <g transform="translate(227.2 214.4) rotate(350.5)">
        <path d="M -5.7 -11.4 L 5.7 -11.4 L 5.7 -5.7 L 11.4 -5.7 L 11.4 5.7 L 5.7 5.7 L 5.7 11.4 L -5.7 11.4 L -5.7 5.7 L -11.4 5.7 L -11.4 -5.7 L -5.7 -5.7 Z" fill="#FFFF00" stroke="black" stroke-width="2"/>
    </g>
    <g transform="translate(72.2 120.2) rotate(129.1)">
        <path d="M -5.8 -11.7 L 5.8 -11.7 L 5.8 -5.8 L 11.7 -5.8 L 11.7 5.8 L 5.8 5.8 L 5.8 11.7 L -5.8 11.7 L -5.8 5.8 L -11.7 5.8 L -11.7 -5.8 L -5.8 -5.8 Z" fill="#FFA500" stroke="black" stroke-width="2"/>
    </g>
    <g transform="translate(356.7 345.0) rotate(350.3)">
        <path d="M -8.1 -16.2 L 8.1 -16.2 L 8.1 -8.1 L 16.2 -8.1 L 16.2 8.1 L 8.1 8.1 L 8.1 16.2 L -8.1 16.2 L -8.1 8.1 L -16.2 8.1 L -16.2 -8.1 L -8.1 -8.1 Z" fill="#808080" stroke="black" stroke-width="2"/>
    </g>

    <!-- pentagon instances -->
    <g transform="translate(169.5 340.9) rotate(305.9)">
        <path d="M 0.0 -28.4 L 26.6 -10.6 L 17.7 24.8 L -17.7 24.8 L -26.6 -10.6 Z" fill="#FF0000" stroke="black" stroke-width="2"/>
    </g>

    <!-- star instances -->
    <g transform="translate(144.5 270.3) rotate(1.2)">
        <path d="M 0.0 -22.1 L 5.5 -7.0 L 22.1 -7.0 L 9.0 3.0 L 14.5 18.0 L 0.0 8.0 L -14.5 18.0 L -9.0 3.0 L -22.1 -7.0 L -5.5 -7.0 Z" fill="#808080" stroke="black" stroke-width="2"/>
    </g>
    <g transform="translate(282.3 87.3) rotate(157.4)">
        <path d="M 0.0 -26.3 L 6.6 -8.4 L 26.3 -8.4 L 10.8 3.6 L 17.3 21.5 L 0.0 9.6 L -17.3 21.5 L -10.8 3.6 L -26.3 -8.4 L -6.6 -8.4 Z" fill="#00FF00" stroke="black" stroke-width="2"/>
    </g>
    <g transform="translate(75.3 251.9) rotate(302.6)">
        <path d="M 0.0 -24.0 L 6.0 -7.6 L 24.0 -7.6 L 9.8 3.3 L 15.8 19.6 L 0.0 8.7 L -15.8 19.6 L -9.8 3.3 L -24.0 -7.6 L -6.0 -7.6 Z" fill="#000000" stroke="black" stroke-width="2"/>
    </g>
</svg>