<?xml version="1.0" encoding="UTF-8"?>
<svg xmlns="http://www.w3.org/2000/svg" viewBox="0 0 400 400">
    <rect width="400" height="400" fill="white"/>

    <!-- triangle instances -->
    <g transform="translate(167.6 266.9) rotate(8.9)">
        <path d="M 0.0 -17.3 L 12.9 8.6 L -12.9 8.6 Z" fill="#000000" stroke="black" stroke-width="2"/>
    </g>
    <g transform="translate(274.9 187.6) rotate(216.5)">
        <path d="M 0.0 -23.4 L 17.5 11.7 L -17.5 11.7 Z" fill="#00FF00" stroke="black" stroke-width="2"/>
    </g>
    <g transform="translate(303.5 340.7) rotate(57.2)">
        <path d="M 0.0 -20.5 L 15.3 10.2 L -15.3 10.2 Z" fill="#FF0000" stroke="black" stroke-width="2"/>
    </g>

    <!-- cross instances -->
    <g transform="translate(168.8 82.9) rotate(357.5)">
        <path d="M -10.0 -19.9 L 10.0 -19.9 L 10.0 -10.0 L 19.9 -10.0 L 19.9 10.0 L 10.0 10.0 L 10.0 19.9 L -10.0 19.9 L -10.0 10.0 L -19.9 10.0 L -19.9 -10.0 L -10.0 -10.0 Z" fill="#00FF00" stroke="black" stroke-width="2"/>
    </g>

    <!-- hexagon instances -->
    <g transform="translate(378.7 304.2) rotate(169.2)">
        <path d="M 0.0 -11.1 L 11.1 -5.6 L 11.1 5.6 L 0.0 11.1 L -11.1 5.6 L -11.1 -5.6 Z" fill="#0000FF" stroke="black" stroke-width="2"/>
    </g>
    <g transform="translate(294.9 82.7) rotate(252.0)">
        <path d="M 0.0 -17.9 L 17.9 -9.0 L 17.9 9.0 L 0.0 17.9 L -17.9 9.0 L -17.9 -9.0 Z" fill="#000000" stroke="black" stroke-width="2"/>
    </g>

    <!-- pentagon instances -->
    <g transform="translate(232.1 202.3) rotate(219.7)">
        <path d="M 0.0 -10.3 L 9.7 -3.9 L 6.4 9.0 L -6.4 9.0 L -9.7 -3.9 Z" fill="#FFA500" stroke="black" stroke-width="2"/>
    </g>
    <g transform="translate(32.6 39.6) rotate(321.7)">
        <path d="M 0.0 -14.2 L 13.3 -5.3 L 8.9 12.4 L -8.9 12.4 L -13.3 -5.3 Z" fill="#00FF00" stroke="black" stroke-width="2"/>
    </g>
    <g transform="translate(46.7 206.0) rotate(161.0)">
        <path d="M 0.0 -24.1 L 22.6 -9.0 L 15.0 21.1 L -15.0 21.1 L -22.6 -9.0 Z" fill="#808080" stroke="black" stroke-width="2"/>
    </g>
    <g transform="translate(230.6 98.4) rotate(59.5)">
        <path d="M 0.0 -13.7 L 12.9 -5.1 L 8.6 12.0 L -8.6 12.0 L -12.9 -5.1 Z" fill="#FFFF00" stroke="black" stroke-width="2"/>
    </g>
</svg>