<?xml version="1.0" encoding="UTF-8"?>
<svg xmlns="http://www.w3.org/2000/svg" viewBox="0 0 400 400">
    <rect width="400" height="400" fill="white"/>

    <!-- pentagon instances -->
    <g transform="translate(318.4 151.7) rotate(327.5)">
        <path d="M 0.0 -11.8 L 11.1 -4.4 L 7.4 10.3 L -7.4 10.3 L -11.1 -4.4 Z" fill="#800080" stroke="black" stroke-width="2"/>
    </g>

    <!-- hexagon instances -->
    <g transform="translate(125.8 303.3) rotate(40.4)">
        <path d="M 0.0 -10.3 L 10.3 -5.2 L 10.3 5.2 L 0.0 10.3 L -10.3 5.2 L -10.3 -5.2 Z" fill="#FFA500" stroke="black" stroke-width="2"/>
    </g>
    <g transform="translate(175.3 197.7) rotate(340.3)">
        <path d="M 0.0 -19.8 L 19.8 -9.9 L 19.8 9.9 L 0.0 19.8 L -19.8 9.9 L -19.8 -9.9 Z" fill="#000000" stroke="black" stroke-width="2"/>
    </g>
    <g transform="translate(177.6 269.8) rotate(200.2)">
        <path d="M 0.0 -16.7 L 16.7 -8.4 L 16.7 8.4 L 0.0 16.7 L -16.7 8.4 L -16.7 -8.4 Z" fill="#FFFF00" stroke="black" stroke-width="2"/>
    </g>

    <!-- cross instances -->
    <g transform="translate(251.8 243.6) rotate(206.3)">
        <path d="M -5.6 -11.2 L 5.6 -11.2 L 5.6 -5.6 L 11.2 -5.6 L 11.2 5.6 L 5.6 5.6 L 5.6 11.2 L -5.6 11.2 L -5.6 5.6 L -11.2 5.6 L -11.2 -5.6 L -5.6 -5.6 Z" fill="#0000FF" stroke="black" stroke-width="2"/>
    </g>
    <g transform="translate(277.6 331.4) rotate(335.7)">
        <path d="M -5.2 -10.3 L 5.2 -10.3 L 5.2 -5.2 L 10.3 -5.2 L 10.3 5.2 L 5.2 5.2 L 5.2 10.3 L -5.2 10.3 L -5.2 5.2 L -10.3 5.2 L -10.3 -5.2 L -5.2 -5.2 Z" fill="#800080" stroke="black" stroke-width="2"/>
    </g>

    <!-- triangle instances -->
    <g transform="translate(216.9 178.9) rotate(51.8)">
        <path d="M 0.0 -14.1 L 10.5 7.0 L -10.5 7.0 Z" fill="#FFFF00" stroke="black" stroke-width="2"/>
    </g>
    <g transform="translate(158.4 370.2) rotate(263.6)">
        <path d="M 0.0 -20.5 L 15.4 10.2 L -15.4 10.2 Z" fill="#FFA500" stroke="black" stroke-width="2"/>
    </g>
    <g transform="translate(69.3 323.1) rotate(283.6)">
        <path d="M 0.0 -32.6 L 24.4 16.3 L -24.4 16.3 Z" fill="#FF0000" stroke="black" stroke-width="2"/>
    </g>
    <g transform="translate(313.4 366.3) rotate(87.9)">
        <path d="M 0.0 -19.5 L 14.7 9.8 L -14.7 9.8 Z" fill="#FFA500" stroke="black" stroke-width="2"/>
    </g>
</svg>