<?xml version="1.0" encoding="UTF-8"?>
<svg xmlns="http://www.w3.org/2000/svg" viewBox="0 0 400 400">
    <rect width="400" height="400" fill="white"/>

    <!-- hexagon instances -->
    <g transform="translate(95.5 186.6) rotate(281.9)">
        <path d="M 0.0 -26.8 L 26.8 -13.4 L 26.8 13.4 L 0.0 26.8 L -26.8 13.4 L -26.8 -13.4 Z" fill="#800080" stroke="black" stroke-width="2"/>
    </g>
    <g transform="translate(69.3 57.4) rotate(105.0)">
        <path d="M 0.0 -23.8 L 23.8 -11.9 L 23.8 11.9 L 0.0 23.8 L -23.8 11.9 L -23.8 -11.9 Z" fill="#800080" stroke="black" stroke-width="2"/>
    </g>
    <g transform="translate(102.8 118.6) rotate(260.3)">
        <path d="M 0.0 -18.7 L 18.7 -9.4 L 18.7 9.4 L 0.0 18.7 L -18.7 9.4 L -18.7 -9.4 Z" fill="#FF0000" stroke="black" stroke-width="2"/>
    </g>

    <!-- cross instances -->
    <g transform="translate(262.9 220.5) rotate(70.9)">
        <path d="M -8.9 -17.9 L 8.9 -17.9 L 8.9 -8.9 L 17.9 -8.9 L 17.9 8.9 L 8.9 8.9 L 8.9 17.9 L -8.9 17.9 L -8.9 8.9 L -17.9 8.9 L -17.9 -8.9 L -8.9 -8.9 Z" fill="#800080" stroke="black" stroke-width="2"/>
    </g>
    <g transform="translate(355.6 56.2) rotate(72.0)">
        <path d="M -9.1 -18.2 L 9.1 -18.2 L 9.1 -9.1 L 18.2 -9.1 L 18.2 9.1 L 9.1 9.1 L 9.1 18.2 L -9.1 18.2 L -9.1 9.1 L -18.2 9.1 L -18.2 -9.1 L -9.1 -9.1 Z" fill="#808080" stroke="black" stroke-width="2"/>
    </g>

    <!-- octagon instances -->
    <g transform="translate(222.6 132.3) rotate(320.4)">
        <path d="M -5.5 -10.9 L 5.5 -10.9 L 10.9 -5.5 L 10.9 5.5 L 5.5 10.9 L -5.5 10.9 L -10.9 5.5 L -10.9 -5.5 Z" fill="#FF0000" stroke="black" stroke-width="2"/>
    </g>
    <g transform="translate(243.3 280.7) rotate(16.1)">
        <path d="M -11.7 -23.3 L 11.7 -23.3 L 23.3 -11.7 L 23.3 11.7 L 11.7 23.3 L -11.7 23.3 L -23.3 11.7 L -23.3 -11.7 Z" fill="#FFFF00" stroke="black" stroke-width="2"/>
    </g>
    <g transform="translate(203.9 352.9) rotate(59.3)">
        <path d="M -9.1 -18.1 L 9.1 -18.1 L 18.1 -9.1 L 18.1 9.1 L 9.1 18.1 L -9.1 18.1 L -18.1 9.1 L -18.1 -9.1 Z" fill="#FFFF00" stroke="black" stroke-width="2"/>
    </g>
    <g transform="translate(115.3 78.5) rotate(17.0)">
        <path d="M -5.2 -10.3 L 5.2 -10.3 L 10.3 -5.2 L 10.3 5.2 L 5.2 10.3 L -5.2 10.3 L -10.3 5.2 L -10.3 -5.2 Z" fill="#00FF00" stroke="black" stroke-width="2"/>
    </g>

    <!-- star instances -->
    <g transform="translate(206.8 217.0) rotate(139.2)">
        <path d="M 0.0 -19.4 L 4.9 -6.2 L 19.4 -6.2 L 8.0 2.7 L 12.8 15.9 L 0.0 7.1 L -12.8 15.9 L -8.0 2.7 L -19.4 -6.2 L -4.9 -6.2 Z" fill="#0000FF" stroke="black" stroke-width="2"/>
    </g>
    <g transform="translate(311.4 136.3) rotate(212.5)">
        <path d="M 0.0 -32.8 L 8.2 -10.4 L 32.8 -10.4 L 13.4 4.5 L 21.6 26.9 L 0.0 11.9 L -21.6 26.9 L -13.4 4.5 L -32.8 -10.4 L -8.2 -10.4 Z" fill="#800080" stroke="black" stroke-width="2"/>
    </g>
</svg>