<?xml version="1.0" encoding="UTF-8"?>
<svg xmlns="http://www.w3.org/2000/svg" viewBox="0 0 400 400">
    <rect width="400" height="400" fill="white"/>

    <!-- star instances -->
    <g transform="translate(326.6 253.7) rotate(216.1)">
        <path d="M 0.0 -30.3 L 7.6 -9.6 L 30.3 -9.6 L 12.4 4.1 L 20.0 24.8 L 0.0 11.0 L -20.0 24.8 L -12.4 4.1 L -30.3 -9.6 L -7.6 -9.6 Z" fill="#0000FF" stroke="black" stroke-width="2"/>
    </g>
    <g transform="translate(206.8 343.5) rotate(49.6)">
        <path d="M 0.0 -21.4 L 5.3 -6.8 L 21.4 -6.8 L 8.7 2.9 L 14.1 17.5 L 0.0 7.8 L -14.1 17.5 L -8.7 2.9 L -21.4 -6.8 L -5.3 -6.8 Z" fill="#000000" stroke="black" stroke-width="2"/>
    </g>

    <!-- triangle instances -->
    <g transform="translate(321.0 355.6) rotate(151.1)">
        <path d="M 0.0 -26.8 L 20.1 13.4 L -20.1 13.4 Z" fill="#FFA500" stroke="black" stroke-width="2"/>
    </g>

    <!-- cross instances -->
    <g transform="translate(151.1 94.6) rotate(359.7)">
        <path d="M -6.6 -13.3 L 6.6 -13.3 L 6.6 -6.6 L 13.3 -6.6 L 13.3 6.6 L 6.6 6.6 L 6.6 13.3 L -6.6 13.3 L -6.6 6.6 L -13.3 6.6 L -13.3 -6.6 L -6.6 -6.6 Z" fill="#000000" stroke="black" stroke-width="2"/>
    </g>

    <!-- pentagon instances -->
    <g transform="translate(29.5 224.3) rotate(169.3)">
        <path d="M 0.0 -10.1 L 9.5 -3.8 L 6.3 8.8 L -6.3 8.8 L -9.5 -3.8 Z" fill="#FF0000" stroke="black" stroke-width="2"/>
    </g>
    <g transform="translate(103.7 210.2) rotate(344.6)">
        <path d="M 0.0 -13.4 L 12.5 -5.0 L 8.4 11.7 L -8.4 11.7 L -12.5 -5.0 Z" fill="#808080" stroke="black" stroke-width="2"/>
    </g>
    <g transform="translate(90.7 370.8) rotate(229.0)">
        <path d="M 0.0 -15.8 L 14.8 -5.9 L 9.9 13.8 L -9.9 13.8 L -14.8 -5.9 Z" fill="#800080" stroke="black" stroke-width="2"/>
    </g>
</svg>