<?xml version="1.0" encoding="UTF-8"?>
<svg xmlns="http://www.w3.org/2000/svg" viewBox="0 0 400 400">
    <rect width="400" height="400" fill="white"/>

    <!-- cross instances -->
    <g transform="translate(328.0 164.8) rotate(172.8)">
        <path d="M -11.7 -23.3 L 11.7 -23.3 L 11.7 -11.7 L 23.3 -11.7 L 23.3 11.7 L 11.7 11.7 L 11.7 23.3 L -11.7 23.3 L -11.7 11.7 L -23.3 11.7 L -23.3 -11.7 L -11.7 -11.7 Z" fill="#00FF00" stroke="black" stroke-width="2"/>
    </g>

    <!-- octagon instances -->
    <g transform="translate(83.7 308.1) rotate(298.5)">
        <path d="M -9.7 -19.4 L 9.7 -19.4 L 19.4 -9.7 L 19.4 9.7 L 9.7 19.4 L -9.7 19.4 L -19.4 9.7 L -19.4 -9.7 Z" fill="#0000FF" stroke="black" stroke-width="2"/>
    </g>
    <g transform="translate(153.5 193.5) rotate(350.9)">
        <path d="M -8.4 -16.7 L 8.4 -16.7 L 16.7 -8.4 L 16.7 8.4 L 8.4 16.7 L -8.4 16.7 L -16.7 8.4 L -16.7 -8.4 Z" fill="#FFA500" stroke="black" stroke-width="2"/>
    </g>
    <g transform="translate(327.3 242.1) rotate(37.3)">
        <path d="M -9.4 -18.7 L 9.4 -18.7 L 18.7 -9.4 L 18.7 9.4 L 9.4 18.7 L -9.4 18.7 L -18.7 9.4 L -18.7 -9.4 Z" fill="#808080" stroke="black" stroke-width="2"/>
    </g>
    <g transform="translate(218.3 273.1) rotate(292.2)">
        <path d="M -7.3 -14.5 L 7.3 -14.5 L 14.5 -7.3 L 14.5 7.3 L 7.3 14.5 L -7.3 14.5 L -14.5 7.3 L -14.5 -7.3 Z" fill="#000000" stroke="black" stroke-width="2"/>
    </g>

    <!-- pentagon instances -->
    <g transform="translate(207.6 125.4) rotate(159.5)">
        <path d="M 0.0 -29.3 L 27.5 -11.0 L 18.3 25.7 L -18.3 25.7 L -27.5 -11.0 Z" fill="#FFFF00" stroke="black" stroke-width="2"/>
    </g>
    <g transform="translate(224.2 37.3) rotate(102.9)">
        <path d="M 0.0 -26.0 L 24.4 -9.8 L 16.3 22.8 L -16.3 22.8 L -24.4 -9.8 Z" fill="#00FF00" stroke="black" stroke-width="2"/>
    </g>
    <g transform="translate(63.2 201.8) rotate(139.7)">
        <path d="M 0.0 -33.0 L 30.9 -12.4 L 20.6 28.9 L -20.6 28.9 L -30.9 -12.4 Z" fill="#FFFF00" stroke="black" stroke-width="2"/>
    </g>
    <g transform="translate(193.0 340.9) rotate(171.9)">
        <path d="M 0.0 -15.8 L 14.8 -5.9 L 9.9 13.8 L -9.9 13.8 L -14.8 -5.9 Z" fill="#FFA500" stroke="black" stroke-width="2"/>
    </g>

    <!-- triangle instances -->
    <g transform="translate(288.0 292.2) rotate(93.2)">
        <path d="M 0.0 -15.1 L 11.3 7.5 L -11.3 7.5 Z" fill="#808080" stroke="black" stroke-width="2"/>
    </g>
    <g transform="translate(126.4 40.0) rotate(62.3)">
        <path d="M 0.0 -28.2 L 21.1 14.1 L -21.1 14.1 Z" fill="#0000FF" stroke="black" stroke-width="2"/>
    </g>
</svg>