<?xml version="1.0" encoding="UTF-8"?>
<svg xmlns="http://www.w3.org/2000/svg" viewBox="0 0 400 400">
    <rect width="400" height="400" fill="white"/>

    <!-- cross instances -->
    <g transform="translate(75.6 67.4) rotate(95.5)">
        <path d="M -15.3 -30.6 L 15.3 -30.6 L 15.3 -15.3 L 30.6 -15.3 L 30.6 15.3 L 15.3 15.3 L 15.3 30.6 L -15.3 30.6 L -15.3 15.3 L -30.6 15.3 L -30.6 -15.3 L -15.3 -15.3 Z" fill="#800080" stroke="black" stroke-width="2"/>
    </g>
    <g transform="translate(150.1 313.5) rotate(59.9)">
        <path d="M -10.2 -20.4 L 10.2 -20.4 L 10.2 -10.2 L 20.4 -10.2 L 20.4 10.2 L 10.2 10.2 L 10.2 20.4 L -10.2 20.4 L -10.2 10.2 L -20.4 10.2 L -20.4 -10.2 L -10.2 -10.2 Z" fill="#FF0000" stroke="black" stroke-width="2"/>
    </g>

    <!-- star instances -->
    <g transform="translate(37.2 321.2) rotate(46.5)">
        <path d="M 0.0 -26.1 L 6.5 -8.3 L 26.1 -8.3 L 10.7 3.6 L 17.2 21.3 L 0.0 9.5 L -17.2 21.3 L -10.7 3.6 L -26.1 -8.3 L -6.5 -8.3 Z" fill="#00FF00" stroke="black" stroke-width="2"/>
    </g>
    <g transform="translate(286.4 200.4) rotate(120.2)">
        <path d="M 0.0 -23.9 L 6.0 -7.6 L 23.9 -7.6 L 9.8 3.3 L 15.7 19.5 L 0.0 8.7 L -15.7 19.5 L -9.8 3.3 L -23.9 -7.6 L -6.0 -7.6 Z" fill="#000000" stroke="black" stroke-width="2"/>
    </g>
</svg>