<?xml version="1.0" encoding="UTF-8"?>
<svg xmlns="http://www.w3.org/2000/svg" viewBox="0 0 400 400">
    <rect width="400" height="400" fill="white"/>

    <!-- hexagon instances -->
    <g transform="translate(255.0 376.4) rotate(188.9)">
        <path d="M 0.0 -7.9 L 7.9 -3.9 L 7.9 3.9 L 0.0 7.9 L -7.9 3.9 L -7.9 -3.9 Z" fill="#000000" stroke="black" stroke-width="2"/>
    </g>
    <g transform="translate(260.7 293.0) rotate(170.4)">
        <path d="M 0.0 -14.2 L 14.2 -7.1 L 14.2 7.1 L 0.0 14.2 L -14.2 7.1 L -14.2 -7.1 Z" fill="#FF0000" stroke="black" stroke-width="2"/>
    </g>
    <g transform="translate(43.4 111.7) rotate(134.4)">
        <path d="M 0.0 -15.2 L 15.2 -7.6 L 15.2 7.6 L 0.0 15.2 L -15.2 7.6 L -15.2 -7.6 Z" fill="#800080" stroke="black" stroke-width="2"/>
    </g>
    <g transform="translate(319.9 167.3) rotate(58.3)">
        <path d="M 0.0 -20.7 L 20.7 -10.4 L 20.7 10.4 L 0.0 20.7 L -20.7 10.4 L -20.7 -10.4 Z" fill="#00FF00" stroke="black" stroke-width="2"/>
    </g>
    <g transform="translate(348.0 111.8) rotate(244.3)">
        <path d="M 0.0 -11.8 L 11.8 -5.9 L 11.8 5.9 L 0.0 11.8 L -11.8 5.9 L -11.8 -5.9 Z" fill="#800080" stroke="black" stroke-width="2"/>
    </g>
    <g transform="translate(226.7 217.8) rotate(211.2)">
        <path d="M 0.0 -20.4 L 20.4 -10.2 L 20.4 10.2 L 0.0 20.4 L -20.4 10.2 L -20.4 -10.2 Z" fill="#00FF00" stroke="black" stroke-width="2"/>
    </g>

    <!-- triangle instances -->
    <g transform="translate(143.6 248.6) rotate(300.5)">
        <path d="M 0.0 -13.7 L 10.3 6.8 L -10.3 6.8 Z" fill="#0000FF" stroke="black" stroke-width="2"/>
    </g>
    <g transform="translate(128.0 148.3) rotate(347.3)">
        <path d="M 0.0 -16.0 L 12.0 8.0 L -12.0 8.0 Z" fill="#800080" stroke="black" stroke-width="2"/>
    </g>
    <g transform="translate(100.2 35.3) rotate(131.5)">
        <path d="M 0.0 -23.2 L 17.4 11.6 L -17.4 11.6 Z" fill="#800080" stroke="black" stroke-width="2"/>
    </g>
    <g transform="translate(32.7 319.1) rotate(28.6)">
        <path d="M 0.0 -22.5 L 16.8 11.2 L -16.8 11.2 Z" fill="#800080" stroke="black" stroke-width="2"/>
    </g>
    <g transform="translate(352.8 229.4) rotate(97.8)">
        <path d="M 0.0 -25.2 L 18.9 12.6 L -18.9 12.6 Z" fill="#000000" stroke="black" stroke-width="2"/>
    </g>

    <!-- star instances -->
    <g transform="translate(243.5 154.9) rotate(6.7)">
        <path d="M 0.0 -28.9 L 7.2 -9.2 L 28.9 -9.2 L 11.8 3.9 L 19.0 23.6 L 0.0 10.5 L -19.0 23.6 L -11.8 3.9 L -28.9 -9.2 L -7.2 -9.2 Z" fill="#808080" stroke="black" stroke-width="2"/>
    </g>
    <g transform="translate(328.0 342.9) rotate(205.7)">
        <path d="M 0.0 -26.6 L 6.6 -8.5 L 26.6 -8.5 L 10.9 3.6 L 17.5 21.7 L 0.0 9.7 L -17.5 21.7 L -10.9 3.6 L -26.6 -8.5 L -6.6 -8.5 Z" fill="#00FF00" stroke="black" stroke-width="2"/>
    </g>
    <g transform="translate(167.6 55.5) rotate(126.8)">
        <path d="M 0.0 -27.6 L 6.9 -8.8 L 27.6 -8.8 L 11.3 3.8 L 18.2 22.6 L 0.0 10.0 L -18.2 22.6 L -11.3 3.8 L -27.6 -8.8 L -6.9 -8.8 Z" fill="#0000FF" stroke="black" stroke-width="2"/>
    </g>
    <g transform="translate(285.5 247.5) rotate(142.7)">
        <path d="M 0.0 -17.9 L 4.5 -5.7 L 17.9 -5.7 L 7.3 2.4 L 11.8 14.6 L 0.0 6.5 L -11.8 14.6 L -7.3 2.4 L -17.9 -5.7 L -4.5 -5.7 Z" fill="#808080" stroke="black" stroke-width="2"/>
    </g>

    <!-- cross instances -->
    <g transform="translate(30.1 223.1) rotate(224.0)">
        <path d="M -8.9 -17.9 L 8.9 -17.9 L 8.9 -8.9 L 17.9 -8.9 L 17.9 8.9 L 8.9 8.9 L 8.9 17.9 L -8.9 17.9 L -8.9 8.9 L -17.9 8.9 L -17.9 -8.9 L -8.9 -8.9 Z" fill="#00FF00" stroke="black" stroke-width="2"/>
    </g>
</svg>