<?xml version="1.0" encoding="UTF-8"?>
<svg xmlns="http://www.w3.org/2000/svg" viewBox="0 0 400 400">
    <rect width="400" height="400" fill="white"/>

    <!-- cross instances -->
    <g transform="translate(80.2 83.8) rotate(231.9)">
        <path d="M -14.2 -28.4 L 14.2 -28.4 L 14.2 -14.2 L 28.4 -14.2 L 28.4 14.2 L 14.2 14.2 L 14.2 28.4 L -14.2 28.4 L -14.2 14.2 L -28.4 14.2 L -28.4 -14.2 L -14.2 -14.2 Z" fill="#FFA500" stroke="black" stroke-width="2"/>
    </g>
    <g transform="translate(251.9 217.2) rotate(17.2)">
        <path d="M -11.1 -22.1 L 11.1 -22.1 L 11.1 -11.1 L 22.1 -11.1 L 22.1 11.1 L 11.1 11.1 L 11.1 22.1 L -11.1 22.1 L -11.1 11.1 L -22.1 11.1 L -22.1 -11.1 L -11.1 -11.1 Z" fill="#0000FF" stroke="black" stroke-width="2"/>
    </g>
    <g transform="translate(188.1 30.4) rotate(135.7)">
        <path d="M -6.5 -13.0 L 6.5 -13.0 L 6.5 -6.5 L 13.0 -6.5 L 13.0 6.5 L 6.5 6.5 L 6.5 13.0 L -6.5 13.0 L -6.5 6.5 L -13.0 6.5 L -13.0 -6.5 L -6.5 -6.5 Z" fill="#800080" stroke="black" stroke-width="2"/>
    </g>
    <g transform="translate(300.7 360.2) rotate(97.6)">
        <path d="M -7.0 -14.0 L 7.0 -14.0 L 7.0 -7.0 L 14.0 -7.0 L 14.0 7.0 L 7.0 7.0 L 7.0 14.0 L -7.0 14.0 L -7.0 7.0 L -14.0 7.0 L -14.0 -7.0 L -7.0 -7.0 Z" fill="#FFFF00" stroke="black" stroke-width="2"/>
    </g>

    <!-- star instances -->
    <g transform="translate(297.4 78.3) rotate(221.6)">
        <path d="M 0.0 -27.5 L 6.9 -8.8 L 27.5 -8.8 L 11.3 3.8 L 18.1 22.5 L 0.0 10.0 L -18.1 22.5 L -11.3 3.8 L -27.5 -8.8 L -6.9 -8.8 Z" fill="#800080" stroke="black" stroke-width="2"/>
    </g>
    <g transform="translate(192.8 127.3) rotate(158.8)">
        <path d="M 0.0 -39.1 L 9.8 -12.5 L 39.1 -12.5 L 16.0 5.3 L 25.8 32.0 L 0.0 14.2 L -25.8 32.0 L -16.0 5.3 L -39.1 -12.5 L -9.8 -12.5 Z" fill="#0000FF" stroke="black" stroke-width="2"/>
    </g>

    <!-- hexagon instances -->
    <g transform="translate(349.6 237.8) rotate(0.7)">
        <path d="M 0.0 -22.7 L 22.7 -11.3 L 22.7 11.3 L 0.0 22.7 L -22.7 11.3 L -22.7 -11.3 Z" fill="#000000" stroke="black" stroke-width="2"/>
    </g>
    <g transform="translate(130.7 338.6) rotate(56.7)">
        <path d="M 0.0 -28.1 L 28.1 -14.0 L 28.1 14.0 L 0.0 28.1 L -28.1 14.0 L -28.1 -14.0 Z" fill="#000000" stroke="black" stroke-width="2"/>
    </g>

    <!-- pentagon instances -->
    <g transform="translate(376.3 277.1) rotate(259.4)">
        <path d="M 0.0 -11.5 L 10.8 -4.3 L 7.2 10.1 L -7.2 10.1 L -10.8 -4.3 Z" fill="#000000" stroke="black" stroke-width="2"/>
    </g>
    <g transform="translate(42.7 337.8) rotate(167.8)">
        <path d="M 0.0 -14.9 L 14.0 -5.6 L 9.3 13.1 L -9.3 13.1 L -14.0 -5.6 Z" fill="#000000" stroke="black" stroke-width="2"/>
    </g>
    <g transform="translate(119.5 142.5) rotate(269.7)">
        <path d="M 0.0 -11.8 L 11.1 -4.4 L 7.4 10.4 L -7.4 10.4 L -11.1 -4.4 Z" fill="#FFA500" stroke="black" stroke-width="2"/>
    </g>
    <g transform="translate(266.4 143.2) rotate(222.7)">
        <path d="M 0.0 -15.6 L 14.6 -5.8 L 9.7 13.6 L -9.7 13.6 L -14.6 -5.8 Z" fill="#FFFF00" stroke="black" stroke-width="2"/>
    </g>
    <g transform="translate(279.3 290.4) rotate(177.3)">
        <path d="M 0.0 -11.7 L 10.9 -4.4 L 7.3 10.2 L -7.3 10.2 L -10.9 -4.4 Z" fill="#800080" stroke="black" stroke-width="2"/>
    </g>
</svg>