<?xml version="1.0" encoding="UTF-8"?>
<svg xmlns="http://www.w3.org/2000/svg" viewBox="0 0 400 400">
    <rect width="400" height="400" fill="white"/>

    <!-- cross instances -->
    <g transform="translate(40.4 93.7) rotate(159.7)">
        <path d="M -8.6 -17.2 L 8.6 -17.2 L 8.6 -8.6 L 17.2 -8.6 L 17.2 8.6 L 8.6 8.6 L 8.6 17.2 L -8.6 17.2 L -8.6 8.6 L -17.2 8.6 L -17.2 -8.6 L -8.6 -8.6 Z" fill="#000000" stroke="black" stroke-width="2"/>
    </g>

    <!-- star instances -->
    <g transform="translate(273.8 196.9) rotate(239.5)">
        <path d="M 0.0 -17.0 L 4.3 -5.4 L 17.0 -5.4 L 7.0 2.3 L 11.2 13.9 L 0.0 6.2 L -11.2 13.9 L -7.0 2.3 L -17.0 -5.4 L -4.3 -5.4 Z" fill="#808080" stroke="black" stroke-width="2"/>
    </g>

    <!-- hexagon instances -->
    <g transform="translate(141.5 72.2) rotate(170.6)">
        <path d="M 0.0 -22.4 L 22.4 -11.2 L 22.4 11.2 L 0.0 22.4 L -22.4 11.2 L -22.4 -11.2 Z" fill="#800080" stroke="black" stroke-width="2"/>
    </g>
    <g transform="translate(102.9 352.0) rotate(81.6)">
        <path d="M 0.0 -23.6 L 23.6 -11.8 L 23.6 11.8 L 0.0 23.6 L -23.6 11.8 L -23.6 -11.8 Z" fill="#800080" stroke="black" stroke-width="2"/>
    </g>
    <g transform="translate(235.6 148.4) rotate(93.4)">
        <path d="M 0.0 -23.9 L 23.9 -12.0 L 23.9 12.0 L 0.0 23.9 L -23.9 12.0 L -23.9 -12.0 Z" fill="#808080" stroke="black" stroke-width="2"/>
    </g>
    <g transform="translate(228.9 49.7) rotate(3.2)">
        <path d="M 0.0 -15.6 L 15.6 -7.8 L 15.6 7.8 L 0.0 15.6 L -15.6 7.8 L -15.6 -7.8 Z" fill="#0000FF" stroke="black" stroke-width="2"/>
    </g>
    <g transform="translate(181.7 216.9) rotate(341.2)">
        <path d="M 0.0 -15.9 L 15.9 -7.9 L 15.9 7.9 L 0.0 15.9 L -15.9 7.9 L -15.9 -7.9 Z" fill="#00FF00" stroke="black" stroke-width="2"/>
    </g>
    <g transform="translate(111.0 262.6) rotate(64.0)">
        <path d="M 0.0 -18.9 L 18.9 -9.4 L 18.9 9.4 L 0.0 18.9 L -18.9 9.4 L -18.9 -9.4 Z" fill="#000000" stroke="black" stroke-width="2"/>
    </g>

    <!-- pentagon instances -->
    <g transform="translate(311.4 303.7) rotate(3.0)">
        <path d="M 0.0 -21.9 L 20.5 -8.2 L 13.7 19.2 L -13.7 19.2 L -20.5 -8.2 Z" fill="#800080" stroke="black" stroke-width="2"/>
    </g>
    <g transform="translate(90.0 193.9) rotate(250.1)">
        <path d="M 0.0 -19.0 L 17.8 -7.1 L 11.9 16.7 L -11.9 16.7 L -17.8 -7.1 Z" fill="#0000FF" stroke="black" stroke-width="2"/>
    </g>
    <g transform="translate(355.8 174.8) rotate(327.9)">
        <path d="M 0.0 -18.8 L 17.7 -7.1 L 11.8 16.5 L -11.8 16.5 L -17.7 -7.1 Z" fill="#000000" stroke="black" stroke-width="2"/>
    </g>
    <g transform="translate(358.6 73.2) rotate(231.8)">
        <path d="M 0.0 -19.2 L 18.0 -7.2 L 12.0 16.8 L -12.0 16.8 L -18.0 -7.2 Z" fill="#00FF00" stroke="black" stroke-width="2"/>
    </g>
    <g transform="translate(53.1 246.7) rotate(39.4)">
        <path d="M 0.0 -13.0 L 12.2 -4.9 L 8.1 11.4 L -8.1 11.4 L -12.2 -4.9 Z" fill="#0000FF" stroke="black" stroke-width="2"/>
    </g>
    <g transform="translate(92.6 130.0) rotate(146.3)">
        <path d="M 0.0 -17.0 L 16.0 -6.4 L 10.6 14.9 L -10.6 14.9 L -16.0 -6.4 Z" fill="#FFFF00" stroke="black" stroke-width="2"/>
    </g>
</svg>