<?xml version="1.0" encoding="UTF-8"?>
<svg xmlns="http://www.w3.org/2000/svg" viewBox="0 0 400 400">
    <rect width="400" height="400" fill="white"/>

    <!-- pentagon instances -->
    <g transform="translate(283.1 100.6) rotate(271.7)">
        <path d="M 0.0 -17.9 L 16.8 -6.7 L 11.2 15.6 L -11.2 15.6 L -16.8 -6.7 Z" fill="#0000FF" stroke="black" stroke-width="2"/>
    </g>
    <g transform="translate(132.7 366.3) rotate(289.2)">
        <path d="M 0.0 -16.3 L 15.3 -6.1 L 10.2 14.2 L -10.2 14.2 L -15.3 -6.1 Z" fill="#FFA500" stroke="black" stroke-width="2"/>
    </g>
    <g transform="translate(355.4 357.7) rotate(316.4)">
        <path d="M 0.0 -11.0 L 10.3 -4.1 L 6.9 9.7 L -6.9 9.7 L -10.3 -4.1 Z" fill="#808080" stroke="black" stroke-width="2"/>
    </g>

    <!-- hexagon instances -->
    <g transform="translate(262.7 198.0) rotate(66.0)">
        <path d="M 0.0 -16.0 L 16.0 -8.0 L 16.0 8.0 L 0.0 16.0 L -16.0 8.0 L -16.0 -8.0 Z" fill="#00FF00" stroke="black" stroke-width="2"/>
    </g>
    <g transform="translate(189.5 37.2) rotate(224.6)">
        <path d="M 0.0 -14.4 L 14.4 -7.2 L 14.4 7.2 L 0.0 14.4 L -14.4 7.2 L -14.4 -7.2 Z" fill="#000000" stroke="black" stroke-width="2"/>
    </g>
    <g transform="translate(197.0 248.3) rotate(24.4)">
        <path d="M 0.0 -21.5 L 21.5 -10.7 L 21.5 10.7 L 0.0 21.5 L -21.5 10.7 L -21.5 -10.7 Z" fill="#800080" stroke="black" stroke-width="2"/>
    </g>
    <g transform="translate(143.1 90.2) rotate(154.2)">
        <path d="M 0.0 -7.8 L 7.8 -3.9 L 7.8 3.9 L 0.0 7.8 L -7.8 3.9 L -7.8 -3.9 Z" fill="#FFFF00" stroke="black" stroke-width="2"/>
    </g>

    <!-- octagon instances -->
    <g transform="translate(145.8 312.0) rotate(301.1)">
        <path d="M -3.9 -7.9 L 3.9 -7.9 L 7.9 -3.9 L 7.9 3.9 L 3.9 7.9 L -3.9 7.9 L -7.9 3.9 L -7.9 -3.9 Z" fill="#808080" stroke="black" stroke-width="2"/>
    </g>

    <!-- star instances -->
    <g transform="translate(254.1 317.7) rotate(184.9)">
        <path d="M 0.0 -29.9 L 7.5 -9.5 L 29.9 -9.5 L 12.2 4.1 L 19.7 24.5 L 0.0 10.9 L -19.7 24.5 L -12.2 4.1 L -29.9 -9.5 L -7.5 -9.5 Z" fill="#00FF00" stroke="black" stroke-width="2"/>
    </g>
    <g transform="translate(130.3 188.2) rotate(84.0)">
        <path d="M 0.0 -14.3 L 3.6 -4.6 L 14.3 -4.6 L 5.9 2.0 L 9.4 11.7 L 0.0 5.2 L -9.4 11.7 L -5.9 2.0 L -14.3 -4.6 L -3.6 -4.6 Z" fill="#FFA500" stroke="black" stroke-width="2"/>
    </g>
    <g transform="translate(335.8 286.4) rotate(141.0)">
        <path d="M 0.0 -21.6 L 5.4 -6.9 L 21.6 -6.9 L 8.8 2.9 L 14.2 17.6 L 0.0 7.8 L -14.2 17.6 L -8.8 2.9 L -21.6 -6.9 L -5.4 -6.9 Z" fill="#808080" stroke="black" stroke-width="2"/>
    </g>
    <g transform="translate(337.1 163.4) rotate(177.3)">
        <path d="M 0.0 -31.9 L 8.0 -10.1 L 31.9 -10.1 L 13.0 4.3 L 21.0 26.1 L 0.0 11.6 L -21.0 26.1 L -13.0 4.3 L -31.9 -10.1 L -8.0 -10.1 Z" fill="#0000FF" stroke="black" stroke-width="2"/>
    </g>
</svg>