<?xml version="1.0" encoding="UTF-8"?>
<svg xmlns="http://www.w3.org/2000/svg" viewBox="0 0 400 400">
    <rect width="400" height="400" fill="white"/>

    <!-- star instances -->
    <g transform="translate(45.5 270.9) rotate(122.7)">
        <path d="M 0.0 -26.1 L 6.5 -8.3 L 26.1 -8.3 L 10.7 3.6 L 17.2 21.3 L 0.0 9.5 L -17.2 21.3 L -10.7 3.6 L -26.1 -8.3 L -6.5 -8.3 Z" fill="#FFFF00" stroke="black" stroke-width="2"/>
    </g>
    <g transform="translate(338.4 347.9) rotate(264.1)">
        <path d="M 0.0 -24.4 L 6.1 -7.8 L 24.4 -7.8 L 10.0 3.3 L 16.1 20.0 L 0.0 8.9 L -16.1 20.0 L -10.0 3.3 L -24.4 -7.8 L -6.1 -7.8 Z" fill="#0000FF" stroke="black" stroke-width="2"/>
    </g>
    <g transform="translate(208.7 233.0) rotate(96.7)">
        <path d="M 0.0 -23.2 L 5.8 -7.4 L 23.2 -7.4 L 9.5 3.2 L 15.3 19.0 L 0.0 8.4 L -15.3 19.0 L -9.5 3.2 L -23.2 -7.4 L -5.8 -7.4 Z" fill="#808080" stroke="black" stroke-width="2"/>
    </g>
    <g transform="translate(176.0 305.8) rotate(259.3)">
        <path d="M 0.0 -13.6 L 3.4 -4.3 L 13.6 -4.3 L 5.6 1.9 L 9.0 11.1 L 0.0 5.0 L -9.0 11.1 L -5.6 1.9 L -13.6 -4.3 L -3.4 -4.3 Z" fill="#FFFF00" stroke="black" stroke-width="2"/>
    </g>
    <g transform="translate(25.7 109.9) rotate(269.4)">
        <path d="M 0.0 -14.0 L 3.5 -4.5 L 14.0 -4.5 L 5.7 1.9 L 9.2 11.5 L 0.0 5.1 L -9.2 11.5 L -5.7 1.9 L -14.0 -4.5 L -3.5 -4.5 Z" fill="#808080" stroke="black" stroke-width="2"/>
    </g>
    <g transform="translate(75.3 122.2) rotate(334.1)">
        <path d="M 0.0 -24.6 L 6.2 -7.8 L 24.6 -7.8 L 10.1 3.4 L 16.2 20.1 L 0.0 9.0 L -16.2 20.1 L -10.1 3.4 L -24.6 -7.8 L -6.2 -7.8 Z" fill="#000000" stroke="black" stroke-width="2"/>
    </g>

    <!-- cross instances -->
    <g transform="translate(129.3 263.8) rotate(344.9)">
        <path d="M -4.5 -9.0 L 4.5 -9.0 L 4.5 -4.5 L 9.0 -4.5 L 9.0 4.5 L 4.5 4.5 L 4.5 9.0 L -4.5 9.0 L -4.5 4.5 L -9.0 4.5 L -9.0 -4.5 L -4.5 -4.5 Z" fill="#800080" stroke="black" stroke-width="2"/>
    </g>

    <!-- pentagon instances -->
    <g transform="translate(342.3 187.0) rotate(234.7)">
        <path d="M 0.0 -22.7 L 21.3 -8.5 L 14.2 19.9 L -14.2 19.9 L -21.3 -8.5 Z" fill="#00FF00" stroke="black" stroke-width="2"/>
    </g>
    <g transform="translate(298.3 99.7) rotate(269.3)">
        <path d="M 0.0 -17.9 L 16.8 -6.7 L 11.2 15.7 L -11.2 15.7 L -16.8 -6.7 Z" fill="#800080" stroke="black" stroke-width="2"/>
    </g>

    <!-- triangle instances -->
    <g transform="translate(102.9 315.3) rotate(280.2)">
        <path d="M 0.0 -14.1 L 10.6 7.1 L -10.6 7.1 Z" fill="#0000FF" stroke="black" stroke-width="2"/>
    </g>
    <g transform="translate(130.9 359.9) rotate(213.2)">
        <path d="M 0.0 -28.1 L 21.1 14.0 L -21.1 14.0 Z" fill="#FFA500" stroke="black" stroke-width="2"/>
    </g>
    <g transform="translate(37.5 171.6) rotate(119.0)">
        <path d="M 0.0 -12.2 L 9.2 6.1 L -9.2 6.1 Z" fill="#FFFF00" stroke="black" stroke-width="2"/>
    </g>
    <g transform="translate(373.0 284.4) rotate(175.8)">
        <path d="M 0.0 -22.6 L 17.0 11.3 L -17.0 11.3 Z" fill="#000000" stroke="black" stroke-width="2"/>
    </g>
</svg>