<?xml version="1.0" encoding="UTF-8"?>
<svg xmlns="http://www.w3.org/2000/svg" viewBox="0 0 400 400">
    <rect width="400" height="400" fill="white"/>

    <!-- cross instances -->
    <g transform="translate(53.5 172.9) rotate(88.3)">
        <path d="M -7.3 -14.6 L 7.3 -14.6 L 7.3 -7.3 L 14.6 -7.3 L 14.6 7.3 L 7.3 7.3 L 7.3 14.6 L -7.3 14.6 L -7.3 7.3 L -14.6 7.3 L -14.6 -7.3 L -7.3 -7.3 Z" fill="#000000" stroke="black" stroke-width="2"/>
    </g>
    <g transform="translate(320.0 201.8) rotate(61.9)">
        <path d="M -5.3 -10.6 L 5.3 -10.6 L 5.3 -5.3 L 10.6 -5.3 L 10.6 5.3 L 5.3 5.3 L 5.3 10.6 L -5.3 10.6 L -5.3 5.3 L -10.6 5.3 L -10.6 -5.3 L -5.3 -5.3 Z" fill="#00FF00" stroke="black" stroke-width="2"/>
    </g>
    <g transform="translate(320.4 302.0) rotate(69.6)">
        <path d="M -6.1 -12.1 L 6.1 -12.1 L 6.1 -6.1 L 12.1 -6.1 L 12.1 6.1 L 6.1 6.1 L 6.1 12.1 L -6.1 12.1 L -6.1 6.1 L -12.1 6.1 L -12.1 -6.1 L -6.1 -6.1 Z" fill="#FF0000" stroke="black" stroke-width="2"/>
    </g>

    <!-- star instances -->
    <g transform="translate(155.5 207.8) rotate(257.4)">
        <path d="M 0.0 -17.4 L 4.3 -5.5 L 17.4 -5.5 L 7.1 2.4 L 11.4 14.2 L 0.0 6.3 L -11.4 14.2 L -7.1 2.4 L -17.4 -5.5 L -4.3 -5.5 Z" fill="#FF0000" stroke="black" stroke-width="2"/>
    </g>

    <!-- octagon instances -->
    <g transform="translate(192.0 91.4) rotate(95.7)">
        <path d="M -8.1 -16.3 L 8.1 -16.3 L 16.3 -8.1 L 16.3 8.1 L 8.1 16.3 L -8.1 16.3 L -16.3 8.1 L -16.3 -8.1 Z" fill="#FFFF00" stroke="black" stroke-width="2"/>
    </g>
    <g transform="translate(60.8 320.8) rotate(239.2)">
        <path d="M -5.0 -10.0 L 5.0 -10.0 L 10.0 -5.0 L 10.0 5.0 L 5.0 10.0 L -5.0 10.0 L -10.0 5.0 L -10.0 -5.0 Z" fill="#800080" stroke="black" stroke-width="2"/>
    </g>
    <g transform="translate(274.5 265.7) rotate(130.4)">
        <path d="M -8.8 -17.6 L 8.8 -17.6 L 17.6 -8.8 L 17.6 8.8 L 8.8 17.6 L -8.8 17.6 L -17.6 8.8 L -17.6 -8.8 Z" fill="#800080" stroke="black" stroke-width="2"/>
    </g>
    <g transform="translate(174.0 327.9) rotate(350.6)">
        <path d="M -5.4 -10.8 L 5.4 -10.8 L 10.8 -5.4 L 10.8 5.4 L 5.4 10.8 L -5.4 10.8 L -10.8 5.4 L -10.8 -5.4 Z" fill="#FF0000" stroke="black" stroke-width="2"/>
    </g>
    <g transform="translate(344.1 121.8) rotate(220.0)">
        <path d="M -10.1 -20.3 L 10.1 -20.3 L 20.3 -10.1 L 20.3 10.1 L 10.1 20.3 L -10.1 20.3 L -20.3 10.1 L -20.3 -10.1 Z" fill="#FF0000" stroke="black" stroke-width="2"/>
    </g>

    <!-- hexagon instances -->
    <g transform="translate(94.2 169.1) rotate(184.7)">
        <path d="M 0.0 -15.7 L 15.7 -7.9 L 15.7 7.9 L 0.0 15.7 L -15.7 7.9 L -15.7 -7.9 Z" fill="#FFFF00" stroke="black" stroke-width="2"/>
    </g>
    <g transform="translate(330.5 37.7) rotate(329.5)">
        <path d="M 0.0 -16.2 L 16.2 -8.1 L 16.2 8.1 L 0.0 16.2 L -16.2 8.1 L -16.2 -8.1 Z" fill="#000000" stroke="black" stroke-width="2"/>
    </g>
    <g transform="translate(369.2 250.2) rotate(236.6)">
        <path d="M 0.0 -16.1 L 16.1 -8.0 L 16.1 8.0 L 0.0 16.1 L -16.1 8.0 L -16.1 -8.0 Z" fill="#FFA500" stroke="black" stroke-width="2"/>
    </g>
</svg>