<?xml version="1.0" encoding="UTF-8"?>
<svg xmlns="http://www.w3.org/2000/svg" viewBox="0 0 400 400">
    <rect width="400" height="400" fill="white"/>

    <!-- hexagon instances -->
    <g transform="translate(100.6 312.8) rotate(141.2)">
        <path d="M 0.0 -14.9 L 14.9 -7.5 L 14.9 7.5 L 0.0 14.9 L -14.9 7.5 L -14.9 -7.5 Z" fill="#00FF00" stroke="black" stroke-width="2"/>
    </g>
    <g transform="translate(292.4 238.6) rotate(274.3)">
        <path d="M 0.0 -17.0 L 17.0 -8.5 L 17.0 8.5 L 0.0 17.0 L -17.0 8.5 L -17.0 -8.5 Z" fill="#FF0000" stroke="black" stroke-width="2"/>
    </g>
    <g transform="translate(265.4 150.9) rotate(33.9)">
        <path d="M 0.0 -12.0 L 12.0 -6.0 L 12.0 6.0 L 0.0 12.0 L -12.0 6.0 L -12.0 -6.0 Z" fill="#0000FF" stroke="black" stroke-width="2"/>
    </g>
    <g transform="translate(344.5 73.2) rotate(194.6)">
        <path d="M 0.0 -17.3 L 17.3 -8.7 L 17.3 8.7 L 0.0 17.3 L -17.3 8.7 L -17.3 -8.7 Z" fill="#0000FF" stroke="black" stroke-width="2"/>
    </g>
    <g transform="translate(246.8 106.0) rotate(179.4)">
        <path d="M 0.0 -12.3 L 12.3 -6.2 L 12.3 6.2 L 0.0 12.3 L -12.3 6.2 L -12.3 -6.2 Z" fill="#FFA500" stroke="black" stroke-width="2"/>
    </g>
    <g transform="translate(248.6 193.3) rotate(88.7)">
        <path d="M 0.0 -8.1 L 8.1 -4.1 L 8.1 4.1 L 0.0 8.1 L -8.1 4.1 L -8.1 -4.1 Z" fill="#808080" stroke="black" stroke-width="2"/>
    </g>

    <!-- pentagon instances -->
    <g transform="translate(159.5 330.5) rotate(150.0)">
        <path d="M 0.0 -24.3 L 22.8 -9.1 L 15.2 21.3 L -15.2 21.3 L -22.8 -9.1 Z" fill="#0000FF" stroke="black" stroke-width="2"/>
    </g>
    <g transform="translate(278.3 66.5) rotate(202.9)">
        <path d="M 0.0 -18.2 L 17.0 -6.8 L 11.4 15.9 L -11.4 15.9 L -17.0 -6.8 Z" fill="#000000" stroke="black" stroke-width="2"/>
    </g>
    <g transform="translate(106.2 47.0) rotate(339.5)">
        <path d="M 0.0 -17.8 L 16.6 -6.7 L 11.1 15.5 L -11.1 15.5 L -16.6 -6.7 Z" fill="#808080" stroke="black" stroke-width="2"/>
    </g>
    <g transform="translate(172.0 243.8) rotate(192.6)">
        <path d="M 0.0 -8.4 L 7.9 -3.1 L 5.2 7.3 L -5.2 7.3 L -7.9 -3.1 Z" fill="#808080" stroke="black" stroke-width="2"/>
    </g>
    <g transform="translate(366.5 279.1) rotate(310.5)">
        <path d="M 0.0 -17.5 L 16.4 -6.6 L 10.9 15.3 L -10.9 15.3 L -16.4 -6.6 Z" fill="#0000FF" stroke="black" stroke-width="2"/>
    </g>

    <!-- octagon instances -->
    <g transform="translate(177.0 79.6) rotate(149.2)">
        <path d="M -10.1 -20.1 L 10.1 -20.1 L 20.1 -10.1 L 20.1 10.1 L 10.1 20.1 L -10.1 20.1 L -20.1 10.1 L -20.1 -10.1 Z" fill="#FFA500" stroke="black" stroke-width="2"/>
    </g>

    <!-- cross instances -->
    <g transform="translate(82.6 223.3) rotate(291.0)">
        <path d="M -7.9 -15.8 L 7.9 -15.8 L 7.9 -7.9 L 15.8 -7.9 L 15.8 7.9 L 7.9 7.9 L 7.9 15.8 L -7.9 15.8 L -7.9 7.9 L -15.8 7.9 L -15.8 -7.9 L -7.9 -7.9 Z" fill="#00FF00" stroke="black" stroke-width="2"/>
    </g>
</svg>