<?xml version="1.0" encoding="UTF-8"?>
<svg xmlns="http://www.w3.org/2000/svg" viewBox="0 0 400 400">
    <rect width="400" height="400" fill="white"/>

    <!-- star instances -->
    <g transform="translate(254.7 341.6) rotate(152.4)">
        <path d="M 0.0 -22.1 L 5.5 -7.0 L 22.1 -7.0 L 9.1 3.0 L 14.6 18.1 L 0.0 8.1 L -14.6 18.1 L -9.1 3.0 L -22.1 -7.0 L -5.5 -7.0 Z" fill="#00FF00" stroke="black" stroke-width="2"/>
    </g>

    <!-- triangle instances -->
    <g transform="translate(40.2 157.5) rotate(19.9)">
        <path d="M 0.0 -20.7 L 15.5 10.4 L -15.5 10.4 Z" fill="#00FF00" stroke="black" stroke-width="2"/>
    </g>

    <!-- pentagon instances -->
    <g transform="translate(65.2 259.1) rotate(282.8)">
        <path d="M 0.0 -17.7 L 16.6 -6.6 L 11.0 15.5 L -11.0 15.5 L -16.6 -6.6 Z" fill="#00FF00" stroke="black" stroke-width="2"/>
    </g>
    <g transform="translate(97.4 114.3) rotate(241.6)">
        <path d="M 0.0 -20.3 L 19.0 -7.6 L 12.7 17.8 L -12.7 17.8 L -19.0 -7.6 Z" fill="#808080" stroke="black" stroke-width="2"/>
    </g>

    <!-- hexagon instances -->
    <g transform="translate(114.6 234.5) rotate(127.1)">
        <path d="M 0.0 -17.4 L 17.4 -8.7 L 17.4 8.7 L 0.0 17.4 L -17.4 8.7 L -17.4 -8.7 Z" fill="#00FF00" stroke="black" stroke-width="2"/>
    </g>
    <g transform="translate(217.6 284.5) rotate(246.1)">
        <path d="M 0.0 -21.4 L 21.4 -10.7 L 21.4 10.7 L 0.0 21.4 L -21.4 10.7 L -21.4 -10.7 Z" fill="#FFA500" stroke="black" stroke-width="2"/>
    </g>

    <!-- cross instances -->
    <g transform="translate(335.9 303.6) rotate(28.9)">
        <path d="M -9.7 -19.5 L 9.7 -19.5 L 9.7 -9.7 L 19.5 -9.7 L 19.5 9.7 L 9.7 9.7 L 9.7 19.5 L -9.7 19.5 L -9.7 9.7 L -19.5 9.7 L -19.5 -9.7 L -9.7 -9.7 Z" fill="#000000" stroke="black" stroke-width="2"/>
    </g>

    <!-- octagon instances -->
    <g transform="translate(207.9 49.3) rotate(246.0)">
        <path d="M -8.4 -16.8 L 8.4 -16.8 L 16.8 -8.4 L 16.8 8.4 L 8.4 16.8 L -8.4 16.8 L -16.8 8.4 L -16.8 -8.4 Z" fill="#FFFF00" stroke="black" stroke-width="2"/>
    </g>
</svg>