<?xml version="1.0" encoding="UTF-8"?>
<svg xmlns="http://www.w3.org/2000/svg" viewBox="0 0 400 400">
    <rect width="400" height="400" fill="white"/>

    <!-- octagon instances -->
    <g transform="translate(180.8 305.6) rotate(221.9)">
        <path d="M -13.6 -27.3 L 13.6 -27.3 L 27.3 -13.6 L 27.3 13.6 L 13.6 27.3 L -13.6 27.3 L -27.3 13.6 L -27.3 -13.6 Z" fill="#808080" stroke="black" stroke-width="2"/>
    </g>
    <g transform="translate(105.5 142.1) rotate(194.8)">
        <path d="M -13.4 -26.8 L 13.4 -26.8 L 26.8 -13.4 L 26.8 13.4 L 13.4 26.8 L -13.4 26.8 L -26.8 13.4 L -26.8 -13.4 Z" fill="#FF0000" stroke="black" stroke-width="2"/>
    </g>

    <!-- cross instances -->
    <g transform="translate(69.5 364.0) rotate(313.6)">
        <path d="M -11.6 -23.1 L 11.6 -23.1 L 11.6 -11.6 L 23.1 -11.6 L 23.1 11.6 L 11.6 11.6 L 11.6 23.1 L -11.6 23.1 L -11.6 11.6 L -23.1 11.6 L -23.1 -11.6 L -11.6 -11.6 Z" fill="#800080" stroke="black" stroke-width="2"/>
    </g>
    <g transform="translate(256.6 82.0) rotate(313.0)">
        <path d="M -5.9 -11.7 L 5.9 -11.7 L 5.9 -5.9 L 11.7 -5.9 L 11.7 5.9 L 5.9 5.9 L 5.9 11.7 L -5.9 11.7 L -5.9 5.9 L -11.7 5.9 L -11.7 -5.9 L -5.9 -5.9 Z" fill="#FFA500" stroke="black" stroke-width="2"/>
    </g>

    <!-- star instances -->
    <g transform="translate(334.8 81.5) rotate(318.4)">
        <path d="M 0.0 -35.4 L 8.9 -11.3 L 35.4 -11.3 L 14.5 4.8 L 23.3 29.0 L 0.0 12.9 L -23.3 29.0 L -14.5 4.8 L -35.4 -11.3 L -8.9 -11.3 Z" fill="#FFA500" stroke="black" stroke-width="2"/>
    </g>

    <!-- triangle instances -->
    <g transform="translate(202.3 158.6) rotate(195.8)">
        <path d="M 0.0 -30.1 L 22.5 15.0 L -22.5 15.0 Z" fill="#FFFF00" stroke="black" stroke-width="2"/>
    </g>

    <!-- pentagon instances -->
    <g transform="translate(262.3 231.6) rotate(293.4)">
        <path d="M 0.0 -26.2 L 24.5 -9.8 L 16.3 22.9 L -16.3 22.9 L -24.5 -9.8 Z" fill="#800080" stroke="black" stroke-width="2"/>
    </g>
    <g transform="translate(96.6 240.8) rotate(217.9)">
        <path d="M 0.0 -27.9 L 26.2 -10.5 L 17.4 24.4 L -17.4 24.4 L -26.2 -10.5 Z" fill="#000000" stroke="black" stroke-width="2"/>
    </g>

    <!-- hexagon instances -->
    <g transform="translate(311.7 305.1) rotate(137.6)">
        <path d="M 0.0 -28.2 L 28.2 -14.1 L 28.2 14.1 L 0.0 28.2 L -28.2 14.1 L -28.2 -14.1 Z" fill="#FF0000" stroke="black" stroke-width="2"/>
    </g>
</svg>