<?xml version="1.0" encoding="UTF-8"?>
<svg xmlns="http://www.w3.org/2000/svg" viewBox="0 0 400 400">
    <rect width="400" height="400" fill="white"/>

    <!-- star instances -->
    <g transform="translate(264.6 225.0) rotate(172.5)">
        <path d="M 0.0 -21.2 L 5.3 -6.7 L 21.2 -6.7 L 8.7 2.9 L 14.0 17.3 L 0.0 7.7 L -14.0 17.3 L -8.7 2.9 L -21.2 -6.7 L -5.3 -6.7 Z" fill="#000000" stroke="black" stroke-width="2"/>
    </g>

    <!-- cross instances -->
    <g transform="translate(361.4 150.1) rotate(359.2)">
        <path d="M -7.8 -15.6 L 7.8 -15.6 L 7.8 -7.8 L 15.6 -7.8 L 15.6 7.8 L 7.8 7.8 L 7.8 15.6 L -7.8 15.6 L -7.8 7.8 L -15.6 7.8 L -15.6 -7.8 L -7.8 -7.8 Z" fill="#FFFF00" stroke="black" stroke-width="2"/>
    </g>

    <!-- triangle instances -->
    <g transform="translate(166.2 257.4) rotate(156.4)">
        <path d="M 0.0 -16.6 L 12.5 8.3 L -12.5 8.3 Z" fill="#800080" stroke="black" stroke-width="2"/>
    </g>

    <!-- octagon instances -->
    <g transform="translate(347.0 314.1) rotate(272.5)">
        <path d="M -13.0 -26.0 L 13.0 -26.0 L 26.0 -13.0 L 26.0 13.0 L 13.0 26.0 L -13.0 26.0 L -26.0 13.0 L -26.0 -13.0 Z" fill="#FFA500" stroke="black" stroke-width="2"/>
    </g>

    <!-- pentagon instances -->
    <g transform="translate(135.5 151.5) rotate(187.7)">
        <path d="M 0.0 -21.3 L 19.9 -8.0 L 13.3 18.6 L -13.3 18.6 L -19.9 -8.0 Z" fill="#808080" stroke="black" stroke-width="2"/>
    </g>

    <!-- hexagon instances -->
    <g transform="translate(58.6 118.1) rotate(347.4)">
        <path d="M 0.0 -14.9 L 14.9 -7.5 L 14.9 7.5 L 0.0 14.9 L -14.9 7.5 L -14.9 -7.5 Z" fill="#000000" stroke="black" stroke-width="2"/>
    </g>
    <g transform="translate(245.9 339.2) rotate(9.9)">
        <path d="M 0.0 -16.4 L 16.4 -8.2 L 16.4 8.2 L 0.0 16.4 L -16.4 8.2 L -16.4 -8.2 Z" fill="#800080" stroke="black" stroke-width="2"/>
    </g>
</svg>