<?xml version="1.0" encoding="UTF-8"?>
<svg xmlns="http://www.w3.org/2000/svg" viewBox="0 0 400 400">
    <rect width="400" height="400" fill="white"/>

    <!-- star instances -->
    <g transform="translate(291.5 189.1) rotate(43.3)">
        <path d="M 0.0 -24.5 L 6.1 -7.8 L 24.5 -7.8 L 10.0 3.3 L 16.1 20.0 L 0.0 8.9 L -16.1 20.0 L -10.0 3.3 L -24.5 -7.8 L -6.1 -7.8 Z" fill="#FFFF00" stroke="black" stroke-width="2"/>
    </g>
    <g transform="translate(171.5 104.9) rotate(271.9)">
        <path d="M 0.0 -27.5 L 6.9 -8.7 L 27.5 -8.7 L 11.2 3.7 L 18.1 22.5 L 0.0 10.0 L -18.1 22.5 L -11.2 3.7 L -27.5 -8.7 L -6.9 -8.7 Z" fill="#808080" stroke="black" stroke-width="2"/>
    </g>

    <!-- pentagon instances -->
    <g transform="translate(240.0 321.4) rotate(274.5)">
        <path d="M 0.0 -27.7 L 26.0 -10.4 L 17.3 24.2 L -17.3 24.2 L -26.0 -10.4 Z" fill="#0000FF" stroke="black" stroke-width="2"/>
    </g>

    <!-- triangle instances -->
    <g transform="translate(122.9 225.4) rotate(19.5)">
        <path d="M 0.0 -36.0 L 27.0 18.0 L -27.0 18.0 Z" fill="#800080" stroke="black" stroke-width="2"/>
    </g>
    <g transform="translate(343.8 287.7) rotate(286.4)">
        <path d="M 0.0 -27.1 L 20.3 13.6 L -20.3 13.6 Z" fill="#0000FF" stroke="black" stroke-width="2"/>
    </g>

    <!-- cross instances -->
    <g transform="translate(337.7 360.6) rotate(60.4)">
        <path d="M -7.2 -14.5 L 7.2 -14.5 L 7.2 -7.2 L 14.5 -7.2 L 14.5 7.2 L 7.2 7.2 L 7.2 14.5 L -7.2 14.5 L -7.2 7.2 L -14.5 7.2 L -14.5 -7.2 L -7.2 -7.2 Z" fill="#0000FF" stroke="black" stroke-width="2"/>
    </g>
    <g transform="translate(135.9 361.1) rotate(187.1)">
        <path d="M -12.1 -24.1 L 12.1 -24.1 L 12.1 -12.1 L 24.1 -12.1 L 24.1 12.1 L 12.1 12.1 L 12.1 24.1 L -12.1 24.1 L -12.1 12.1 L -24.1 12.1 L -24.1 -12.1 L -12.1 -12.1 Z" fill="#FF0000" stroke="black" stroke-width="2"/>
    </g>

    <!-- octagon instances -->
    <g transform="translate(37.9 284.8) rotate(179.9)">
        <path d="M -12.6 -25.3 L 12.6 -25.3 L 25.3 -12.6 L 25.3 12.6 L 12.6 25.3 L -12.6 25.3 L -25.3 12.6 L -25.3 -12.6 Z" fill="#FFA500" stroke="black" stroke-width="2"/>
    </g>

    <!-- hexagon instances -->
    <g transform="translate(267.8 268.1) rotate(16.0)">
        <path d="M 0.0 -13.7 L 13.7 -6.9 L 13.7 6.9 L 0.0 13.7 L -13.7 6.9 L -13.7 -6.9 Z" fill="#808080" stroke="black" stroke-width="2"/>
    </g>
    <g transform="translate(373.0 47.6) rotate(190.7)">
        <path d="M 0.0 -16.0 L 16.0 -8.0 L 16.0 8.0 L 0.0 16.0 L -16.0 8.0 L -16.0 -8.0 Z" fill="#FF0000" stroke="black" stroke-width="2"/>
    </g>
</svg>