<?xml version="1.0" encoding="UTF-8"?>
<svg xmlns="http://www.w3.org/2000/svg" viewBox="0 0 400 400">
    <rect width="400" height="400" fill="white"/>

    <!-- cross instances -->
    <g transform="translate(180.0 213.4) rotate(19.9)">
        <path d="M -12.4 -24.7 L 12.4 -24.7 L 12.4 -12.4 L 24.7 -12.4 L 24.7 12.4 L 12.4 12.4 L 12.4 24.7 L -12.4 24.7 L -12.4 12.4 L -24.7 12.4 L -24.7 -12.4 L -12.4 -12.4 Z" fill="#808080" stroke="black" stroke-width="2"/>
    </g>

    <!-- triangle instances -->
    <g transform="translate(73.6 311.0) rotate(353.0)">
        <path d="M 0.0 -33.7 L 25.3 16.9 L -25.3 16.9 Z" fill="#FFFF00" stroke="black" stroke-width="2"/>
    </g>

    <!-- octagon instances -->
    <g transform="translate(360.1 311.7) rotate(309.6)">
        <path d="M -10.7 -21.4 L 10.7 -21.4 L 21.4 -10.7 L 21.4 10.7 L 10.7 21.4 L -10.7 21.4 L -21.4 10.7 L -21.4 -10.7 Z" fill="#FF0000" stroke="black" stroke-width="2"/>
    </g>
    <g transform="translate(309.1 180.4) rotate(52.1)">
        <path d="M -8.1 -16.3 L 8.1 -16.3 L 16.3 -8.1 L 16.3 8.1 L 8.1 16.3 L -8.1 16.3 L -16.3 8.1 L -16.3 -8.1 Z" fill="#FF0000" stroke="black" stroke-width="2"/>
    </g>

    <!-- star instances -->
    <g transform="translate(264.0 57.9) rotate(280.3)">
        <path d="M 0.0 -41.0 L 10.2 -13.0 L 41.0 -13.0 L 16.8 5.6 L 27.0 33.5 L 0.0 14.9 L -27.0 33.5 L -16.8 5.6 L -41.0 -13.0 L -10.2 -13.0 Z" fill="#000000" stroke="black" stroke-width="2"/>
    </g>

    <!-- hexagon instances -->
    <g transform="translate(121.8 44.7) rotate(1.4)">
        <path d="M 0.0 -26.0 L 26.0 -13.0 L 26.0 13.0 L 0.0 26.0 L -26.0 13.0 L -26.0 -13.0 Z" fill="#FF0000" stroke="black" stroke-width="2"/>
    </g>

    <!-- pentagon instances -->
    <g transform="translate(99.4 375.0) rotate(138.4)">
        <path d="M 0.0 -11.9 L 11.2 -4.5 L 7.4 10.4 L -7.4 10.4 L -11.2 -4.5 Z" fill="#FF0000" stroke="black" stroke-width="2"/>
    </g>
    <g transform="translate(355.5 242.1) rotate(188.5)">
        <path d="M 0.0 -13.9 L 13.1 -5.2 L 8.7 12.2 L -8.7 12.2 L -13.1 -5.2 Z" fill="#000000" stroke="black" stroke-width="2"/>
    </g>
</svg>