<?xml version="1.0" encoding="UTF-8"?>
<svg xmlns="http://www.w3.org/2000/svg" viewBox="0 0 400 400">
    <rect width="400" height="400" fill="white"/>

    <!-- hexagon instances -->
    <g transform="translate(300.2 307.2) rotate(106.6)">
        <path d="M 0.0 -20.5 L 20.5 -10.3 L 20.5 10.3 L 0.0 20.5 L -20.5 10.3 L -20.5 -10.3 Z" fill="#808080" stroke="black" stroke-width="2"/>
    </g>
    <g transform="translate(149.0 365.3) rotate(55.8)">
        <path d="M 0.0 -18.3 L 18.3 -9.1 L 18.3 9.1 L 0.0 18.3 L -18.3 9.1 L -18.3 -9.1 Z" fill="#800080" stroke="black" stroke-width="2"/>
    </g>

    <!-- pentagon instances -->
    <g transform="translate(174.7 52.4) rotate(236.1)">
        <path d="M 0.0 -12.6 L 11.8 -4.7 L 7.9 11.0 L -7.9 11.0 L -11.8 -4.7 Z" fill="#00FF00" stroke="black" stroke-width="2"/>
    </g>
    <g transform="translate(64.2 350.8) rotate(39.0)">
        <path d="M 0.0 -26.5 L 24.9 -10.0 L 16.6 23.2 L -16.6 23.2 L -24.9 -10.0 Z" fill="#808080" stroke="black" stroke-width="2"/>
    </g>

    <!-- octagon instances -->
    <g transform="translate(367.7 35.2) rotate(247.2)">
        <path d="M -10.8 -21.6 L 10.8 -21.6 L 21.6 -10.8 L 21.6 10.8 L 10.8 21.6 L -10.8 21.6 L -21.6 10.8 L -21.6 -10.8 Z" fill="#800080" stroke="black" stroke-width="2"/>
    </g>
    <g transform="translate(260.2 63.3) rotate(185.4)">
        <path d="M -5.7 -11.4 L 5.7 -11.4 L 11.4 -5.7 L 11.4 5.7 L 5.7 11.4 L -5.7 11.4 L -11.4 5.7 L -11.4 -5.7 Z" fill="#000000" stroke="black" stroke-width="2"/>
    </g>

    <!-- cross instances -->
    <g transform="translate(91.2 98.4) rotate(192.0)">
        <path d="M -11.3 -22.6 L 11.3 -22.6 L 11.3 -11.3 L 22.6 -11.3 L 22.6 11.3 L 11.3 11.3 L 11.3 22.6 L -11.3 22.6 L -11.3 11.3 L -22.6 11.3 L -22.6 -11.3 L -11.3 -11.3 Z" fill="#FF0000" stroke="black" stroke-width="2"/>
    </g>

    <!-- triangle instances -->
    <g transform="translate(235.4 238.5) rotate(323.6)">
        <path d="M 0.0 -35.2 L 26.4 17.6 L -26.4 17.6 Z" fill="#FFFF00" stroke="black" stroke-width="2"/>
    </g>

    <!-- star instances -->
    <g transform="translate(310.1 116.8) rotate(185.9)">
        <path d="M 0.0 -40.3 L 10.1 -12.8 L 40.3 -12.8 L 16.5 5.5 L 26.6 33.0 L 0.0 14.7 L -26.6 33.0 L -16.5 5.5 L -40.3 -12.8 L -10.1 -12.8 Z" fill="#808080" stroke="black" stroke-width="2"/>
    </g>
</svg>