<?xml version="1.0" encoding="UTF-8"?>
<svg xmlns="http://www.w3.org/2000/svg" viewBox="0 0 400 400">
    <rect width="400" height="400" fill="white"/>

    <!-- star instances -->
    <g transform="translate(295.8 90.9) rotate(286.1)">
        <path d="M 0.0 -20.1 L 5.0 -6.4 L 20.1 -6.4 L 8.2 2.7 L 13.2 16.4 L 0.0 7.3 L -13.2 16.4 L -8.2 2.7 L -20.1 -6.4 L -5.0 -6.4 Z" fill="#000000" stroke="black" stroke-width="2"/>
    </g>

    <!-- triangle instances -->
    <g transform="translate(353.5 88.0) rotate(89.2)">
        <path d="M 0.0 -27.6 L 20.7 13.8 L -20.7 13.8 Z" fill="#FFFF00" stroke="black" stroke-width="2"/>
    </g>

    <!-- hexagon instances -->
    <g transform="translate(121.2 327.5) rotate(350.8)">
        <path d="M 0.0 -17.4 L 17.4 -8.7 L 17.4 8.7 L 0.0 17.4 L -17.4 8.7 L -17.4 -8.7 Z" fill="#800080" stroke="black" stroke-width="2"/>
    </g>

    <!-- pentagon instances -->
    <g transform="translate(226.3 338.8) rotate(113.9)">
        <path d="M 0.0 -28.4 L 26.6 -10.6 L 17.7 24.8 L -17.7 24.8 L -26.6 -10.6 Z" fill="#FFFF00" stroke="black" stroke-width="2"/>
    </g>

    <!-- cross instances -->
    <g transform="translate(32.0 264.4) rotate(357.7)">
        <path d="M -9.6 -19.2 L 9.6 -19.2 L 9.6 -9.6 L 19.2 -9.6 L 19.2 9.6 L 9.6 9.6 L 9.6 19.2 L -9.6 19.2 L -9.6 9.6 L -19.2 9.6 L -19.2 -9.6 L -9.6 -9.6 Z" fill="#FF0000" stroke="black" stroke-width="2"/>
    </g>
    <g transform="translate(96.1 113.3) rotate(268.1)">
        <path d="M -11.3 -22.5 L 11.3 -22.5 L 11.3 -11.3 L 22.5 -11.3 L 22.5 11.3 L 11.3 11.3 L 11.3 22.5 L -11.3 22.5 L -11.3 11.3 L -22.5 11.3 L -22.5 -11.3 L -11.3 -11.3 Z" fill="#000000" stroke="black" stroke-width="2"/>
    </g>

    <!-- octagon instances -->
    <g transform="translate(364.4 247.6) rotate(247.1)">
        <path d="M -7.6 -15.2 L 7.6 -15.2 L 15.2 -7.6 L 15.2 7.6 L 7.6 15.2 L -7.6 15.2 L -15.2 7.6 L -15.2 -7.6 Z" fill="#00FF00" stroke="black" stroke-width="2"/>
    </g>
</svg>