<?xml version="1.0" encoding="UTF-8"?>
<svg xmlns="http://www.w3.org/2000/svg" viewBox="0 0 400 400">
    <rect width="400" height="400" fill="white"/>

    <!-- hexagon instances -->
    <g transform="translate(106.1 40.6) rotate(322.6)">
        <path d="M 0.0 -27.0 L 27.0 -13.5 L 27.0 13.5 L 0.0 27.0 L -27.0 13.5 L -27.0 -13.5 Z" fill="#800080" stroke="black" stroke-width="2"/>
    </g>

    <!-- cross instances -->
    <g transform="translate(207.3 58.8) rotate(255.6)">
        <path d="M -6.3 -12.6 L 6.3 -12.6 L 6.3 -6.3 L 12.6 -6.3 L 12.6 6.3 L 6.3 6.3 L 6.3 12.6 L -6.3 12.6 L -6.3 6.3 L -12.6 6.3 L -12.6 -6.3 L -6.3 -6.3 Z" fill="#0000FF" stroke="black" stroke-width="2"/>
    </g>
    <g transform="translate(287.1 64.7) rotate(315.9)">
        <path d="M -13.0 -25.9 L 13.0 -25.9 L 13.0 -13.0 L 25.9 -13.0 L 25.9 13.0 L 13.0 13.0 L 13.0 25.9 L -13.0 25.9 L -13.0 13.0 L -25.9 13.0 L -25.9 -13.0 L -13.0 -13.0 Z" fill="#FFFF00" stroke="black" stroke-width="2"/>
    </g>

    <!-- star instances -->
    <g transform="translate(168.5 269.6) rotate(115.3)">
        <path d="M 0.0 -25.2 L 6.3 -8.0 L 25.2 -8.0 L 10.3 3.4 L 16.6 20.6 L 0.0 9.2 L -16.6 20.6 L -10.3 3.4 L -25.2 -8.0 L -6.3 -8.0 Z" fill="#000000" stroke="black" stroke-width="2"/>
    </g>

    <!-- triangle instances -->
    <g transform="translate(205.4 132.1) rotate(291.6)">
        <path d="M 0.0 -28.4 L 21.3 14.2 L -21.3 14.2 Z" fill="#FFA500" stroke="black" stroke-width="2"/>
    </g>

    <!-- octagon instances -->
    <g transform="translate(328.4 356.3) rotate(30.0)">
        <path d="M -12.1 -24.1 L 12.1 -24.1 L 24.1 -12.1 L 24.1 12.1 L 12.1 24.1 L -12.1 24.1 L -24.1 12.1 L -24.1 -12.1 Z" fill="#00FF00" stroke="black" stroke-width="2"/>
    </g>
    <g transform="translate(347.8 222.6) rotate(34.3)">
        <path d="M -15.8 -31.5 L 15.8 -31.5 L 31.5 -15.8 L 31.5 15.8 L 15.8 31.5 L -15.8 31.5 L -31.5 15.8 L -31.5 -15.8 Z" fill="#000000" stroke="black" stroke-width="2"/>
    </g>

    <!-- pentagon instances -->
    <g transform="translate(32.4 178.4) rotate(324.8)">
        <path d="M 0.0 -15.4 L 14.4 -5.8 L 9.6 13.5 L -9.6 13.5 L -14.4 -5.8 Z" fill="#0000FF" stroke="black" stroke-width="2"/>
    </g>
</svg>