<?xml version="1.0" encoding="UTF-8"?>
<svg xmlns="http://www.w3.org/2000/svg" viewBox="0 0 400 400">
    <rect width="400" height="400" fill="white"/>

    <!-- star instances -->
    <g transform="translate(167.5 100.7) rotate(63.0)">
        <path d="M 0.0 -30.5 L 7.6 -9.7 L 30.5 -9.7 L 12.5 4.2 L 20.1 24.9 L 0.0 11.1 L -20.1 24.9 L -12.5 4.2 L -30.5 -9.7 L -7.6 -9.7 Z" fill="#800080" stroke="black" stroke-width="2"/>
    </g>
    <g transform="translate(242.2 296.8) rotate(323.1)">
        <path d="M 0.0 -26.2 L 6.6 -8.3 L 26.2 -8.3 L 10.7 3.6 L 17.3 21.4 L 0.0 9.5 L -17.3 21.4 L -10.7 3.6 L -26.2 -8.3 L -6.6 -8.3 Z" fill="#800080" stroke="black" stroke-width="2"/>
    </g>

    <!-- octagon instances -->
    <g transform="translate(73.9 53.0) rotate(204.4)">
        <path d="M -9.3 -18.6 L 9.3 -18.6 L 18.6 -9.3 L 18.6 9.3 L 9.3 18.6 L -9.3 18.6 L -18.6 9.3 L -18.6 -9.3 Z" fill="#000000" stroke="black" stroke-width="2"/>
    </g>

    <!-- pentagon instances -->
    <g transform="translate(37.2 195.1) rotate(312.7)">
        <path d="M 0.0 -24.0 L 22.5 -9.0 L 15.0 21.0 L -15.0 21.0 L -22.5 -9.0 Z" fill="#808080" stroke="black" stroke-width="2"/>
    </g>
    <g transform="translate(332.7 133.5) rotate(163.4)">
        <path d="M 0.0 -30.0 L 28.1 -11.2 L 18.7 26.2 L -18.7 26.2 L -28.1 -11.2 Z" fill="#0000FF" stroke="black" stroke-width="2"/>
    </g>

    <!-- hexagon instances -->
    <g transform="translate(355.2 272.6) rotate(0.7)">
        <path d="M 0.0 -24.5 L 24.5 -12.2 L 24.5 12.2 L 0.0 24.5 L -24.5 12.2 L -24.5 -12.2 Z" fill="#800080" stroke="black" stroke-width="2"/>
    </g>

    <!-- cross instances -->
    <g transform="translate(168.1 273.5) rotate(287.1)">
        <path d="M -10.8 -21.6 L 10.8 -21.6 L 10.8 -10.8 L 21.6 -10.8 L 21.6 10.8 L 10.8 10.8 L 10.8 21.6 L -10.8 21.6 L -10.8 10.8 L -21.6 10.8 L -21.6 -10.8 L -10.8 -10.8 Z" fill="#FF0000" stroke="black" stroke-width="2"/>
    </g>
    <g transform="translate(319.3 208.0) rotate(155.4)">
        <path d="M -10.9 -21.9 L 10.9 -21.9 L 10.9 -10.9 L 21.9 -10.9 L 21.9 10.9 L 10.9 10.9 L 10.9 21.9 L -10.9 21.9 L -10.9 10.9 L -21.9 10.9 L -21.9 -10.9 L -10.9 -10.9 Z" fill="#800080" stroke="black" stroke-width="2"/>
    </g>

    <!-- triangle instances -->
    <g transform="translate(324.3 360.5) rotate(92.5)">
        <path d="M 0.0 -21.0 L 15.8 10.5 L -15.8 10.5 Z" fill="#800080" stroke="black" stroke-width="2"/>
    </g>
</svg>