<?xml version="1.0" encoding="UTF-8"?>
<svg xmlns="http://www.w3.org/2000/svg" viewBox="0 0 400 400">
    <rect width="400" height="400" fill="white"/>

    <!-- star instances -->
    <g transform="translate(337.4 201.5) rotate(69.2)">
        <path d="M 0.0 -15.0 L 3.8 -4.8 L 15.0 -4.8 L 6.1 2.0 L 9.9 12.3 L 0.0 5.5 L -9.9 12.3 L -6.1 2.0 L -15.0 -4.8 L -3.8 -4.8 Z" fill="#FF0000" stroke="black" stroke-width="2"/>
    </g>
    <g transform="translate(102.7 276.5) rotate(158.2)">
        <path d="M 0.0 -27.8 L 7.0 -8.9 L 27.8 -8.9 L 11.4 3.8 L 18.3 22.8 L 0.0 10.1 L -18.3 22.8 L -11.4 3.8 L -27.8 -8.9 L -7.0 -8.9 Z" fill="#FF0000" stroke="black" stroke-width="2"/>
    </g>

    <!-- pentagon instances -->
    <g transform="translate(210.1 121.3) rotate(311.7)">
        <path d="M 0.0 -24.2 L 22.7 -9.1 L 15.1 21.2 L -15.1 21.2 L -22.7 -9.1 Z" fill="#FFFF00" stroke="black" stroke-width="2"/>
    </g>
    <g transform="translate(331.0 277.6) rotate(216.3)">
        <path d="M 0.0 -23.0 L 21.6 -8.6 L 14.4 20.1 L -14.4 20.1 L -21.6 -8.6 Z" fill="#FF0000" stroke="black" stroke-width="2"/>
    </g>
    <g transform="translate(133.5 130.4) rotate(281.1)">
        <path d="M 0.0 -9.8 L 9.1 -3.7 L 6.1 8.5 L -6.1 8.5 L -9.1 -3.7 Z" fill="#FFA500" stroke="black" stroke-width="2"/>
    </g>

    <!-- cross instances -->
    <g transform="translate(270.7 343.3) rotate(112.1)">
        <path d="M -9.4 -18.8 L 9.4 -18.8 L 9.4 -9.4 L 18.8 -9.4 L 18.8 9.4 L 9.4 9.4 L 9.4 18.8 L -9.4 18.8 L -9.4 9.4 L -18.8 9.4 L -18.8 -9.4 L -9.4 -9.4 Z" fill="#000000" stroke="black" stroke-width="2"/>
    </g>
    <g transform="translate(322.8 363.9) rotate(287.8)">
        <path d="M -7.0 -14.1 L 7.0 -14.1 L 7.0 -7.0 L 14.1 -7.0 L 14.1 7.0 L 7.0 7.0 L 7.0 14.1 L -7.0 14.1 L -7.0 7.0 L -14.1 7.0 L -14.1 -7.0 L -7.0 -7.0 Z" fill="#FFA500" stroke="black" stroke-width="2"/>
    </g>
    <g transform="translate(216.9 279.9) rotate(263.2)">
        <path d="M -8.3 -16.6 L 8.3 -16.6 L 8.3 -8.3 L 16.6 -8.3 L 16.6 8.3 L 8.3 8.3 L 8.3 16.6 L -8.3 16.6 L -8.3 8.3 L -16.6 8.3 L -16.6 -8.3 L -8.3 -8.3 Z" fill="#0000FF" stroke="black" stroke-width="2"/>
    </g>

    <!-- hexagon instances -->
    <g transform="translate(156.0 54.4) rotate(143.3)">
        <path d="M 0.0 -8.5 L 8.5 -4.3 L 8.5 4.3 L 0.0 8.5 L -8.5 4.3 L -8.5 -4.3 Z" fill="#00FF00" stroke="black" stroke-width="2"/>
    </g>
    <g transform="translate(348.0 36.2) rotate(24.3)">
        <path d="M 0.0 -21.5 L 21.5 -10.8 L 21.5 10.8 L 0.0 21.5 L -21.5 10.8 L -21.5 -10.8 Z" fill="#000000" stroke="black" stroke-width="2"/>
    </g>

    <!-- octagon instances -->
    <g transform="translate(163.0 355.9) rotate(280.3)">
        <path d="M -7.4 -14.8 L 7.4 -14.8 L 14.8 -7.4 L 14.8 7.4 L 7.4 14.8 L -7.4 14.8 L -14.8 7.4 L -14.8 -7.4 Z" fill="#000000" stroke="black" stroke-width="2"/>
    </g>
    <g transform="translate(77.3 22.7) rotate(222.4)">
        <path d="M -6.3 -12.6 L 6.3 -12.6 L 12.6 -6.3 L 12.6 6.3 L 6.3 12.6 L -6.3 12.6 L -12.6 6.3 L -12.6 -6.3 Z" fill="#800080" stroke="black" stroke-width="2"/>
    </g>
    <g transform="translate(52.1 215.8) rotate(202.8)">
        <path d="M -10.1 -20.3 L 10.1 -20.3 L 20.3 -10.1 L 20.3 10.1 L 10.1 20.3 L -10.1 20.3 L -20.3 10.1 L -20.3 -10.1 Z" fill="#0000FF" stroke="black" stroke-width="2"/>
    </g>

    <!-- triangle instances -->
    <g transform="translate(269.3 60.1) rotate(21.9)">
        <path d="M 0.0 -16.8 L 12.6 8.4 L -12.6 8.4 Z" fill="#FF0000" stroke="black" stroke-width="2"/>
    </g>
</svg>