<?xml version="1.0" encoding="UTF-8"?>
<svg xmlns="http://www.w3.org/2000/svg" viewBox="0 0 400 400">
    <rect width="400" height="400" fill="white"/>

    <!-- cross instances -->
    <g transform="translate(74.2 309.6) rotate(180.8)">
        <path d="M -6.3 -12.6 L 6.3 -12.6 L 6.3 -6.3 L 12.6 -6.3 L 12.6 6.3 L 6.3 6.3 L 6.3 12.6 L -6.3 12.6 L -6.3 6.3 L -12.6 6.3 L -12.6 -6.3 L -6.3 -6.3 Z" fill="#000000" stroke="black" stroke-width="2"/>
    </g>
    <g transform="translate(214.3 188.3) rotate(29.9)">
        <path d="M -5.4 -10.8 L 5.4 -10.8 L 5.4 -5.4 L 10.8 -5.4 L 10.8 5.4 L 5.4 5.4 L 5.4 10.8 L -5.4 10.8 L -5.4 5.4 L -10.8 5.4 L -10.8 -5.4 L -5.4 -5.4 Z" fill="#00FF00" stroke="black" stroke-width="2"/>
    </g>
    <g transform="translate(98.6 176.0) rotate(344.6)">
        <path d="M -9.9 -19.8 L 9.9 -19.8 L 9.9 -9.9 L 19.8 -9.9 L 19.8 9.9 L 9.9 9.9 L 9.9 19.8 L -9.9 19.8 L -9.9 9.9 L -19.8 9.9 L -19.8 -9.9 L -9.9 -9.9 Z" fill="#FFA500" stroke="black" stroke-width="2"/>
    </g>

    <!-- triangle instances -->
    <g transform="translate(324.9 225.7) rotate(309.3)">
        <path d="M 0.0 -21.8 L 16.3 10.9 L -16.3 10.9 Z" fill="#000000" stroke="black" stroke-width="2"/>
    </g>
    <g transform="translate(342.3 145.4) rotate(56.7)">
        <path d="M 0.0 -23.6 L 17.7 11.8 L -17.7 11.8 Z" fill="#FFFF00" stroke="black" stroke-width="2"/>
    </g>

    <!-- hexagon instances -->
    <g transform="translate(87.1 96.5) rotate(32.8)">
        <path d="M 0.0 -16.5 L 16.5 -8.2 L 16.5 8.2 L 0.0 16.5 L -16.5 8.2 L -16.5 -8.2 Z" fill="#000000" stroke="black" stroke-width="2"/>
    </g>
    <g transform="translate(174.5 317.4) rotate(125.3)">
        <path d="M 0.0 -13.9 L 13.9 -7.0 L 13.9 7.0 L 0.0 13.9 L -13.9 7.0 L -13.9 -7.0 Z" fill="#808080" stroke="black" stroke-width="2"/>
    </g>
    <g transform="translate(89.3 350.7) rotate(32.2)">
        <path d="M 0.0 -9.2 L 9.2 -4.6 L 9.2 4.6 L 0.0 9.2 L -9.2 4.6 L -9.2 -4.6 Z" fill="#FF0000" stroke="black" stroke-width="2"/>
    </g>

    <!-- pentagon instances -->
    <g transform="translate(299.3 337.6) rotate(254.8)">
        <path d="M 0.0 -17.5 L 16.4 -6.5 L 10.9 15.3 L -10.9 15.3 L -16.4 -6.5 Z" fill="#000000" stroke="black" stroke-width="2"/>
    </g>
    <g transform="translate(45.6 363.6) rotate(131.3)">
        <path d="M 0.0 -22.3 L 20.9 -8.4 L 13.9 19.5 L -13.9 19.5 L -20.9 -8.4 Z" fill="#00FF00" stroke="black" stroke-width="2"/>
    </g>

    <!-- octagon instances -->
    <g transform="translate(161.7 141.7) rotate(95.9)">
        <path d="M -5.7 -11.5 L 5.7 -11.5 L 11.5 -5.7 L 11.5 5.7 L 5.7 11.5 L -5.7 11.5 L -11.5 5.7 L -11.5 -5.7 Z" fill="#FFA500" stroke="black" stroke-width="2"/>
    </g>
    <g transform="translate(222.6 314.7) rotate(123.5)">
        <path d="M -6.3 -12.5 L 6.3 -12.5 L 12.5 -6.3 L 12.5 6.3 L 6.3 12.5 L -6.3 12.5 L -12.5 6.3 L -12.5 -6.3 Z" fill="#000000" stroke="black" stroke-width="2"/>
    </g>

    <!-- star instances -->
    <g transform="translate(316.0 92.2) rotate(264.3)">
        <path d="M 0.0 -13.0 L 3.2 -4.1 L 13.0 -4.1 L 5.3 1.8 L 8.5 10.6 L 0.0 4.7 L -8.5 10.6 L -5.3 1.8 L -13.0 -4.1 L -3.2 -4.1 Z" fill="#808080" stroke="black" stroke-width="2"/>
    </g>
</svg>