<?xml version="1.0" encoding="UTF-8"?>
<svg xmlns="http://www.w3.org/2000/svg" viewBox="0 0 400 400">
    <rect width="400" height="400" fill="white"/>

    <!-- octagon instances -->
    <g transform="translate(165.9 77.1) rotate(313.7)">
        <path d="M -4.9 -9.8 L 4.9 -9.8 L 9.8 -4.9 L 9.8 4.9 L 4.9 9.8 L -4.9 9.8 L -9.8 4.9 L -9.8 -4.9 Z" fill="#FF0000" stroke="black" stroke-width="2"/>
    </g>
    <g transform="translate(321.3 272.8) rotate(258.9)">
        <path d="M -8.6 -17.2 L 8.6 -17.2 L 17.2 -8.6 L 17.2 8.6 L 8.6 17.2 L -8.6 17.2 L -17.2 8.6 L -17.2 -8.6 Z" fill="#00FF00" stroke="black" stroke-width="2"/>
    </g>
    <g transform="translate(80.1 356.1) rotate(37.3)">
        <path d="M -10.2 -20.3 L 10.2 -20.3 L 20.3 -10.2 L 20.3 10.2 L 10.2 20.3 L -10.2 20.3 L -20.3 10.2 L -20.3 -10.2 Z" fill="#800080" stroke="black" stroke-width="2"/>
    </g>

    <!-- cross instances -->
    <g transform="translate(123.1 109.9) rotate(286.2)">
        <path d="M -10.4 -20.9 L 10.4 -20.9 L 10.4 -10.4 L 20.9 -10.4 L 20.9 10.4 L 10.4 10.4 L 10.4 20.9 L -10.4 20.9 L -10.4 10.4 L -20.9 10.4 L -20.9 -10.4 L -10.4 -10.4 Z" fill="#000000" stroke="black" stroke-width="2"/>
    </g>
    <g transform="translate(181.5 336.9) rotate(10.7)">
        <path d="M -6.5 -13.0 L 6.5 -13.0 L 6.5 -6.5 L 13.0 -6.5 L 13.0 6.5 L 6.5 6.5 L 6.5 13.0 L -6.5 13.0 L -6.5 6.5 L -13.0 6.5 L -13.0 -6.5 L -6.5 -6.5 Z" fill="#FF0000" stroke="black" stroke-width="2"/>
    </g>
    <g transform="translate(291.2 160.9) rotate(328.1)">
        <path d="M -8.8 -17.5 L 8.8 -17.5 L 8.8 -8.8 L 17.5 -8.8 L 17.5 8.8 L 8.8 8.8 L 8.8 17.5 L -8.8 17.5 L -8.8 8.8 L -17.5 8.8 L -17.5 -8.8 L -8.8 -8.8 Z" fill="#808080" stroke="black" stroke-width="2"/>
    </g>
    <g transform="translate(197.1 28.4) rotate(111.9)">
        <path d="M -7.2 -14.4 L 7.2 -14.4 L 7.2 -7.2 L 14.4 -7.2 L 14.4 7.2 L 7.2 7.2 L 7.2 14.4 L -7.2 14.4 L -7.2 7.2 L -14.4 7.2 L -14.4 -7.2 L -7.2 -7.2 Z" fill="#0000FF" stroke="black" stroke-width="2"/>
    </g>

    <!-- triangle instances -->
    <g transform="translate(155.9 247.7) rotate(68.9)">
        <path d="M 0.0 -10.1 L 7.6 5.1 L -7.6 5.1 Z" fill="#FFA500" stroke="black" stroke-width="2"/>
    </g>
    <g transform="translate(351.3 133.5) rotate(355.1)">
        <path d="M 0.0 -24.8 L 18.6 12.4 L -18.6 12.4 Z" fill="#800080" stroke="black" stroke-width="2"/>
    </g>
    <g transform="translate(349.6 348.8) rotate(73.7)">
        <path d="M 0.0 -26.0 L 19.5 13.0 L -19.5 13.0 Z" fill="#FFA500" stroke="black" stroke-width="2"/>
    </g>
    <g transform="translate(366.2 33.5) rotate(277.7)">
        <path d="M 0.0 -13.1 L 9.9 6.6 L -9.9 6.6 Z" fill="#000000" stroke="black" stroke-width="2"/>
    </g>

    <!-- pentagon instances -->
    <g transform="translate(217.9 245.6) rotate(247.9)">
        <path d="M 0.0 -10.7 L 10.1 -4.0 L 6.7 9.4 L -6.7 9.4 L -10.1 -4.0 Z" fill="#808080" stroke="black" stroke-width="2"/>
    </g>
    <g transform="translate(107.1 210.5) rotate(9.1)">
        <path d="M 0.0 -11.2 L 10.5 -4.2 L 7.0 9.8 L -7.0 9.8 L -10.5 -4.2 Z" fill="#00FF00" stroke="black" stroke-width="2"/>
    </g>
    <g transform="translate(41.5 152.1) rotate(68.1)">
        <path d="M 0.0 -10.0 L 9.4 -3.7 L 6.2 8.7 L -6.2 8.7 L -9.4 -3.7 Z" fill="#808080" stroke="black" stroke-width="2"/>
    </g>

    <!-- star instances -->
    <g transform="translate(176.9 206.1) rotate(170.7)">
        <path d="M 0.0 -23.2 L 5.8 -7.4 L 23.2 -7.4 L 9.5 3.2 L 15.3 19.0 L 0.0 8.4 L -15.3 19.0 L -9.5 3.2 L -23.2 -7.4 L -5.8 -7.4 Z" fill="#FFA500" stroke="black" stroke-width="2"/>
    </g>

    <!-- hexagon instances -->
    <g transform="translate(339.2 180.0) rotate(82.4)">
        <path d="M 0.0 -19.9 L 19.9 -10.0 L 19.9 10.0 L 0.0 19.9 L -19.9 10.0 L -19.9 -10.0 Z" fill="#0000FF" stroke="black" stroke-width="2"/>
    </g>
    <g transform="translate(57.1 228.5) rotate(325.7)">
        <path d="M 0.0 -13.2 L 13.2 -6.6 L 13.2 6.6 L 0.0 13.2 L -13.2 6.6 L -13.2 -6.6 Z" fill="#0000FF" stroke="black" stroke-width="2"/>
    </g>
    <g transform="translate(81.4 263.8) rotate(156.8)">
        <path d="M 0.0 -9.3 L 9.3 -4.7 L 9.3 4.7 L 0.0 9.3 L -9.3 4.7 L -9.3 -4.7 Z" fill="#000000" stroke="black" stroke-width="2"/>
    </g>
</svg>