<?xml version="1.0" encoding="UTF-8"?>
<svg xmlns="http://www.w3.org/2000/svg" viewBox="0 0 400 400">
    <rect width="400" height="400" fill="white"/>

    <!-- star instances -->
    <g transform="translate(60.4 226.0) rotate(228.8)">
        <path d="M 0.0 -27.1 L 6.8 -8.6 L 27.1 -8.6 L 11.1 3.7 L 17.8 22.2 L 0.0 9.8 L -17.8 22.2 L -11.1 3.7 L -27.1 -8.6 L -6.8 -8.6 Z" fill="#800080" stroke="black" stroke-width="2"/>
    </g>
    <g transform="translate(78.0 327.8) rotate(64.6)">
        <path d="M 0.0 -37.0 L 9.3 -11.8 L 37.0 -11.8 L 15.1 5.0 L 24.4 30.3 L 0.0 13.5 L -24.4 30.3 L -15.1 5.0 L -37.0 -11.8 L -9.3 -11.8 Z" fill="#FFFF00" stroke="black" stroke-width="2"/>
    </g>
    <g transform="translate(332.8 164.8) rotate(124.9)">
        <path d="M 0.0 -23.8 L 5.9 -7.6 L 23.8 -7.6 L 9.7 3.2 L 15.7 19.4 L 0.0 8.6 L -15.7 19.4 L -9.7 3.2 L -23.8 -7.6 L -5.9 -7.6 Z" fill="#0000FF" stroke="black" stroke-width="2"/>
    </g>
    <g transform="translate(226.6 94.1) rotate(330.4)">
        <path d="M 0.0 -24.0 L 6.0 -7.7 L 24.0 -7.7 L 9.8 3.3 L 15.9 19.7 L 0.0 8.7 L -15.9 19.7 L -9.8 3.3 L -24.0 -7.7 L -6.0 -7.7 Z" fill="#808080" stroke="black" stroke-width="2"/>
    </g>

    <!-- cross instances -->
    <g transform="translate(123.0 99.6) rotate(121.8)">
        <path d="M -8.7 -17.5 L 8.7 -17.5 L 8.7 -8.7 L 17.5 -8.7 L 17.5 8.7 L 8.7 8.7 L 8.7 17.5 L -8.7 17.5 L -8.7 8.7 L -17.5 8.7 L -17.5 -8.7 L -8.7 -8.7 Z" fill="#FFA500" stroke="black" stroke-width="2"/>
    </g>
    <g transform="translate(44.1 58.0) rotate(38.8)">
        <path d="M -8.8 -17.6 L 8.8 -17.6 L 8.8 -8.8 L 17.6 -8.8 L 17.6 8.8 L 8.8 8.8 L 8.8 17.6 L -8.8 17.6 L -8.8 8.8 L -17.6 8.8 L -17.6 -8.8 L -8.8 -8.8 Z" fill="#00FF00" stroke="black" stroke-width="2"/>
    </g>

    <!-- hexagon instances -->
    <g transform="translate(202.8 298.7) rotate(115.5)">
        <path d="M 0.0 -9.5 L 9.5 -4.8 L 9.5 4.8 L 0.0 9.5 L -9.5 4.8 L -9.5 -4.8 Z" fill="#00FF00" stroke="black" stroke-width="2"/>
    </g>
    <g transform="translate(117.0 38.3) rotate(121.4)">
        <path d="M 0.0 -24.9 L 24.9 -12.4 L 24.9 12.4 L 0.0 24.9 L -24.9 12.4 L -24.9 -12.4 Z" fill="#FF0000" stroke="black" stroke-width="2"/>
    </g>
    <g transform="translate(347.6 52.4) rotate(164.9)">
        <path d="M 0.0 -23.1 L 23.1 -11.5 L 23.1 11.5 L 0.0 23.1 L -23.1 11.5 L -23.1 -11.5 Z" fill="#808080" stroke="black" stroke-width="2"/>
    </g>
    <g transform="translate(376.4 303.6) rotate(76.9)">
        <path d="M 0.0 -11.9 L 11.9 -6.0 L 11.9 6.0 L 0.0 11.9 L -11.9 6.0 L -11.9 -6.0 Z" fill="#0000FF" stroke="black" stroke-width="2"/>
    </g>

    <!-- triangle instances -->
    <g transform="translate(321.2 275.3) rotate(349.2)">
        <path d="M 0.0 -29.1 L 21.8 14.6 L -21.8 14.6 Z" fill="#FFFF00" stroke="black" stroke-width="2"/>
    </g>

    <!-- pentagon instances -->
    <g transform="translate(356.2 346.2) rotate(267.0)">
        <path d="M 0.0 -22.5 L 21.1 -8.4 L 14.1 19.7 L -14.1 19.7 L -21.1 -8.4 Z" fill="#FFFF00" stroke="black" stroke-width="2"/>
    </g>
    <g transform="translate(188.7 236.8) rotate(199.4)">
        <path d="M 0.0 -27.3 L 25.6 -10.2 L 17.0 23.9 L -17.0 23.9 L -25.6 -10.2 Z" fill="#0000FF" stroke="black" stroke-width="2"/>
    </g>
    <g transform="translate(53.2 122.7) rotate(311.3)">
        <path d="M 0.0 -12.6 L 11.8 -4.7 L 7.9 11.0 L -7.9 11.0 L -11.8 -4.7 Z" fill="#FFFF00" stroke="black" stroke-width="2"/>
    </g>

    <!-- octagon instances -->
    <g transform="translate(268.4 318.8) rotate(9.4)">
        <path d="M -6.6 -13.1 L 6.6 -13.1 L 13.1 -6.6 L 13.1 6.6 L 6.6 13.1 L -6.6 13.1 L -13.1 6.6 L -13.1 -6.6 Z" fill="#000000" stroke="black" stroke-width="2"/>
    </g>
</svg>