<?xml version="1.0" encoding="UTF-8"?>
<svg xmlns="http://www.w3.org/2000/svg" viewBox="0 0 400 400">
    <rect width="400" height="400" fill="white"/>

    <!-- octagon instances -->
    <g transform="translate(289.7 36.2) rotate(273.6)">
        <path d="M -10.3 -20.5 L 10.3 -20.5 L 20.5 -10.3 L 20.5 10.3 L 10.3 20.5 L -10.3 20.5 L -20.5 10.3 L -20.5 -10.3 Z" fill="#800080" stroke="black" stroke-width="2"/>
    </g>
    <g transform="translate(188.0 206.5) rotate(52.1)">
        <path d="M -5.9 -11.8 L 5.9 -11.8 L 11.8 -5.9 L 11.8 5.9 L 5.9 11.8 L -5.9 11.8 L -11.8 5.9 L -11.8 -5.9 Z" fill="#FF0000" stroke="black" stroke-width="2"/>
    </g>
    <g transform="translate(62.4 265.5) rotate(141.1)">
        <path d="M -12.1 -24.2 L 12.1 -24.2 L 24.2 -12.1 L 24.2 12.1 L 12.1 24.2 L -12.1 24.2 L -24.2 12.1 L -24.2 -12.1 Z" fill="#FFFF00" stroke="black" stroke-width="2"/>
    </g>
    <g transform="translate(367.0 304.8) rotate(296.0)">
        <path d="M -10.5 -21.1 L 10.5 -21.1 L 21.1 -10.5 L 21.1 10.5 L 10.5 21.1 L -10.5 21.1 L -21.1 10.5 L -21.1 -10.5 Z" fill="#FFFF00" stroke="black" stroke-width="2"/>
    </g>

    <!-- hexagon instances -->
    <g transform="translate(69.1 70.1) rotate(33.1)">
        <path d="M 0.0 -13.1 L 13.1 -6.6 L 13.1 6.6 L 0.0 13.1 L -13.1 6.6 L -13.1 -6.6 Z" fill="#0000FF" stroke="black" stroke-width="2"/>
    </g>
    <g transform="translate(191.1 326.1) rotate(95.6)">
        <path d="M 0.0 -20.4 L 20.4 -10.2 L 20.4 10.2 L 0.0 20.4 L -20.4 10.2 L -20.4 -10.2 Z" fill="#0000FF" stroke="black" stroke-width="2"/>
    </g>

    <!-- cross instances -->
    <g transform="translate(259.5 220.9) rotate(331.0)">
        <path d="M -5.8 -11.6 L 5.8 -11.6 L 5.8 -5.8 L 11.6 -5.8 L 11.6 5.8 L 5.8 5.8 L 5.8 11.6 L -5.8 11.6 L -5.8 5.8 L -11.6 5.8 L -11.6 -5.8 L -5.8 -5.8 Z" fill="#FFFF00" stroke="black" stroke-width="2"/>
    </g>
    <g transform="translate(121.3 33.3) rotate(351.0)">
        <path d="M -10.3 -20.6 L 10.3 -20.6 L 10.3 -10.3 L 20.6 -10.3 L 20.6 10.3 L 10.3 10.3 L 10.3 20.6 L -10.3 20.6 L -10.3 10.3 L -20.6 10.3 L -20.6 -10.3 L -10.3 -10.3 Z" fill="#0000FF" stroke="black" stroke-width="2"/>
    </g>
    <g transform="translate(75.1 195.6) rotate(335.5)">
        <path d="M -10.4 -20.7 L 10.4 -20.7 L 10.4 -10.4 L 20.7 -10.4 L 20.7 10.4 L 10.4 10.4 L 10.4 20.7 L -10.4 20.7 L -10.4 10.4 L -20.7 10.4 L -20.7 -10.4 L -10.4 -10.4 Z" fill="#0000FF" stroke="black" stroke-width="2"/>
    </g>

    <!-- triangle instances -->
    <g transform="translate(326.4 198.0) rotate(90.7)">
        <path d="M 0.0 -31.5 L 23.6 15.8 L -23.6 15.8 Z" fill="#FFFF00" stroke="black" stroke-width="2"/>
    </g>
    <g transform="translate(32.5 328.9) rotate(7.2)">
        <path d="M 0.0 -25.5 L 19.1 12.7 L -19.1 12.7 Z" fill="#000000" stroke="black" stroke-width="2"/>
    </g>

    <!-- pentagon instances -->
    <g transform="translate(229.9 170.7) rotate(173.5)">
        <path d="M 0.0 -23.4 L 22.0 -8.8 L 14.6 20.5 L -14.6 20.5 L -22.0 -8.8 Z" fill="#808080" stroke="black" stroke-width="2"/>
    </g>

    <!-- star instances -->
    <g transform="translate(289.5 320.1) rotate(312.0)">
        <path d="M 0.0 -27.3 L 6.8 -8.7 L 27.3 -8.7 L 11.2 3.7 L 18.0 22.4 L 0.0 9.9 L -18.0 22.4 L -11.2 3.7 L -27.3 -8.7 L -6.8 -8.7 Z" fill="#FFFF00" stroke="black" stroke-width="2"/>
    </g>
    <g transform="translate(149.5 111.7) rotate(329.2)">
        <path d="M 0.0 -35.2 L 8.8 -11.2 L 35.2 -11.2 L 14.4 4.8 L 23.2 28.8 L 0.0 12.8 L -23.2 28.8 L -14.4 4.8 L -35.2 -11.2 L -8.8 -11.2 Z" fill="#FFA500" stroke="black" stroke-width="2"/>
    </g>
    <g transform="translate(316.9 123.3) rotate(115.1)">
        <path d="M 0.0 -17.3 L 4.3 -5.5 L 17.3 -5.5 L 7.1 2.4 L 11.4 14.2 L 0.0 6.3 L -11.4 14.2 L -7.1 2.4 L -17.3 -5.5 L -4.3 -5.5 Z" fill="#800080" stroke="black" stroke-width="2"/>
    </g>
</svg>