<?xml version="1.0" encoding="UTF-8"?>
<svg xmlns="http://www.w3.org/2000/svg" viewBox="0 0 400 400">
    <rect width="400" height="400" fill="white"/>

    <!-- octagon instances -->
    <g transform="translate(214.2 174.5) rotate(295.5)">
        <path d="M -7.9 -15.8 L 7.9 -15.8 L 15.8 -7.9 L 15.8 7.9 L 7.9 15.8 L -7.9 15.8 L -15.8 7.9 L -15.8 -7.9 Z" fill="#0000FF" stroke="black" stroke-width="2"/>
    </g>
    <g transform="translate(129.2 257.3) rotate(8.5)">
        <path d="M -11.1 -22.2 L 11.1 -22.2 L 22.2 -11.1 L 22.2 11.1 L 11.1 22.2 L -11.1 22.2 L -22.2 11.1 L -22.2 -11.1 Z" fill="#FFFF00" stroke="black" stroke-width="2"/>
    </g>
    <g transform="translate(158.7 320.7) rotate(201.7)">
        <path d="M -9.9 -19.7 L 9.9 -19.7 L 19.7 -9.9 L 19.7 9.9 L 9.9 19.7 L -9.9 19.7 L -19.7 9.9 L -19.7 -9.9 Z" fill="#808080" stroke="black" stroke-width="2"/>
    </g>

    <!-- pentagon instances -->
    <g transform="translate(99.3 66.2) rotate(348.4)">
        <path d="M 0.0 -14.5 L 13.6 -5.4 L 9.0 12.7 L -9.0 12.7 L -13.6 -5.4 Z" fill="#0000FF" stroke="black" stroke-width="2"/>
    </g>
    <g transform="translate(294.9 73.8) rotate(101.2)">
        <path d="M 0.0 -17.4 L 16.3 -6.5 L 10.9 15.2 L -10.9 15.2 L -16.3 -6.5 Z" fill="#800080" stroke="black" stroke-width="2"/>
    </g>
    <g transform="translate(75.1 122.5) rotate(158.7)">
        <path d="M 0.0 -12.7 L 11.9 -4.8 L 8.0 11.1 L -8.0 11.1 L -11.9 -4.8 Z" fill="#FF0000" stroke="black" stroke-width="2"/>
    </g>
    <g transform="translate(140.9 376.1) rotate(304.3)">
        <path d="M 0.0 -14.2 L 13.3 -5.3 L 8.9 12.4 L -8.9 12.4 L -13.3 -5.3 Z" fill="#FFA500" stroke="black" stroke-width="2"/>
    </g>

    <!-- cross instances -->
    <g transform="translate(98.0 325.4) rotate(170.3)">
        <path d="M -5.9 -11.8 L 5.9 -11.8 L 5.9 -5.9 L 11.8 -5.9 L 11.8 5.9 L 5.9 5.9 L 5.9 11.8 L -5.9 11.8 L -5.9 5.9 L -11.8 5.9 L -11.8 -5.9 L -5.9 -5.9 Z" fill="#0000FF" stroke="black" stroke-width="2"/>
    </g>
    <g transform="translate(155.3 80.4) rotate(318.3)">
        <path d="M -9.6 -19.2 L 9.6 -19.2 L 9.6 -9.6 L 19.2 -9.6 L 19.2 9.6 L 9.6 9.6 L 9.6 19.2 L -9.6 19.2 L -9.6 9.6 L -19.2 9.6 L -19.2 -9.6 L -9.6 -9.6 Z" fill="#808080" stroke="black" stroke-width="2"/>
    </g>

    <!-- hexagon instances -->
    <g transform="translate(279.9 278.4) rotate(152.9)">
        <path d="M 0.0 -22.1 L 22.1 -11.0 L 22.1 11.0 L 0.0 22.1 L -22.1 11.0 L -22.1 -11.0 Z" fill="#FFA500" stroke="black" stroke-width="2"/>
    </g>
    <g transform="translate(343.9 223.4) rotate(170.5)">
        <path d="M 0.0 -10.5 L 10.5 -5.2 L 10.5 5.2 L 0.0 10.5 L -10.5 5.2 L -10.5 -5.2 Z" fill="#000000" stroke="black" stroke-width="2"/>
    </g>
    <g transform="translate(230.8 355.4) rotate(72.0)">
        <path d="M 0.0 -22.6 L 22.6 -11.3 L 22.6 11.3 L 0.0 22.6 L -22.6 11.3 L -22.6 -11.3 Z" fill="#0000FF" stroke="black" stroke-width="2"/>
    </g>
    <g transform="translate(334.0 325.4) rotate(348.2)">
        <path d="M 0.0 -11.0 L 11.0 -5.5 L 11.0 5.5 L 0.0 11.0 L -11.0 5.5 L -11.0 -5.5 Z" fill="#FFFF00" stroke="black" stroke-width="2"/>
    </g>

    <!-- star instances -->
    <g transform="translate(147.4 181.7) rotate(280.5)">
        <path d="M 0.0 -28.9 L 7.2 -9.2 L 28.9 -9.2 L 11.8 3.9 L 19.1 23.7 L 0.0 10.5 L -19.1 23.7 L -11.8 3.9 L -28.9 -9.2 L -7.2 -9.2 Z" fill="#0000FF" stroke="black" stroke-width="2"/>
    </g>

    <!-- triangle instances -->
    <g transform="translate(33.6 297.4) rotate(258.0)">
        <path d="M 0.0 -24.5 L 18.4 12.2 L -18.4 12.2 Z" fill="#FF0000" stroke="black" stroke-width="2"/>
    </g>
</svg>