<?xml version="1.0" encoding="UTF-8"?>
<svg xmlns="http://www.w3.org/2000/svg" viewBox="0 0 400 400">
    <rect width="400" height="400" fill="white"/>

    <!-- hexagon instances -->
    <g transform="translate(234.2 54.4) rotate(148.8)">
        <path d="M 0.0 -12.5 L 12.5 -6.2 L 12.5 6.2 L 0.0 12.5 L -12.5 6.2 L -12.5 -6.2 Z" fill="#FF0000" stroke="black" stroke-width="2"/>
    </g>

    <!-- pentagon instances -->
    <g transform="translate(61.2 104.2) rotate(239.7)">
        <path d="M 0.0 -16.7 L 15.6 -6.3 L 10.4 14.6 L -10.4 14.6 L -15.6 -6.3 Z" fill="#808080" stroke="black" stroke-width="2"/>
    </g>
    <g transform="translate(150.3 61.2) rotate(148.9)">
        <path d="M 0.0 -17.4 L 16.3 -6.5 L 10.9 15.3 L -10.9 15.3 L -16.3 -6.5 Z" fill="#FF0000" stroke="black" stroke-width="2"/>
    </g>
    <g transform="translate(150.9 233.4) rotate(211.7)">
        <path d="M 0.0 -9.5 L 8.9 -3.6 L 6.0 8.3 L -6.0 8.3 L -8.9 -3.6 Z" fill="#FFA500" stroke="black" stroke-width="2"/>
    </g>

    <!-- cross instances -->
    <g transform="translate(208.1 259.0) rotate(110.9)">
        <path d="M -6.9 -13.8 L 6.9 -13.8 L 6.9 -6.9 L 13.8 -6.9 L 13.8 6.9 L 6.9 6.9 L 6.9 13.8 L -6.9 13.8 L -6.9 6.9 L -13.8 6.9 L -13.8 -6.9 L -6.9 -6.9 Z" fill="#FFA500" stroke="black" stroke-width="2"/>
    </g>
    <g transform="translate(34.7 146.9) rotate(225.8)">
        <path d="M -5.1 -10.2 L 5.1 -10.2 L 5.1 -5.1 L 10.2 -5.1 L 10.2 5.1 L 5.1 5.1 L 5.1 10.2 L -5.1 10.2 L -5.1 5.1 L -10.2 5.1 L -10.2 -5.1 L -5.1 -5.1 Z" fill="#FF0000" stroke="black" stroke-width="2"/>
    </g>
    <g transform="translate(230.5 146.7) rotate(323.4)">
        <path d="M -11.1 -22.1 L 11.1 -22.1 L 11.1 -11.1 L 22.1 -11.1 L 22.1 11.1 L 11.1 11.1 L 11.1 22.1 L -11.1 22.1 L -11.1 11.1 L -22.1 11.1 L -22.1 -11.1 L -11.1 -11.1 Z" fill="#808080" stroke="black" stroke-width="2"/>
    </g>
    <g transform="translate(76.0 366.0) rotate(119.4)">
        <path d="M -7.0 -14.0 L 7.0 -14.0 L 7.0 -7.0 L 14.0 -7.0 L 14.0 7.0 L 7.0 7.0 L 7.0 14.0 L -7.0 14.0 L -7.0 7.0 L -14.0 7.0 L -14.0 -7.0 L -7.0 -7.0 Z" fill="#FFA500" stroke="black" stroke-width="2"/>
    </g>

    <!-- triangle instances -->
    <g transform="translate(94.1 197.1) rotate(150.3)">
        <path d="M 0.0 -25.6 L 19.2 12.8 L -19.2 12.8 Z" fill="#FF0000" stroke="black" stroke-width="2"/>
    </g>
    <g transform="translate(264.6 251.6) rotate(120.7)">
        <path d="M 0.0 -21.2 L 15.9 10.6 L -15.9 10.6 Z" fill="#800080" stroke="black" stroke-width="2"/>
    </g>
    <g transform="translate(276.2 29.7) rotate(336.3)">
        <path d="M 0.0 -23.6 L 17.7 11.8 L -17.7 11.8 Z" fill="#000000" stroke="black" stroke-width="2"/>
    </g>
    <g transform="translate(40.5 338.6) rotate(24.9)">
        <path d="M 0.0 -12.5 L 9.4 6.2 L -9.4 6.2 Z" fill="#0000FF" stroke="black" stroke-width="2"/>
    </g>

    <!-- octagon instances -->
    <g transform="translate(219.8 87.4) rotate(69.1)">
        <path d="M -5.7 -11.5 L 5.7 -11.5 L 11.5 -5.7 L 11.5 5.7 L 5.7 11.5 L -5.7 11.5 L -11.5 5.7 L -11.5 -5.7 Z" fill="#808080" stroke="black" stroke-width="2"/>
    </g>
    <g transform="translate(193.6 226.2) rotate(255.1)">
        <path d="M -5.4 -10.7 L 5.4 -10.7 L 10.7 -5.4 L 10.7 5.4 L 5.4 10.7 L -5.4 10.7 L -10.7 5.4 L -10.7 -5.4 Z" fill="#0000FF" stroke="black" stroke-width="2"/>
    </g>
    <g transform="translate(248.9 352.0) rotate(126.6)">
        <path d="M -8.2 -16.4 L 8.2 -16.4 L 16.4 -8.2 L 16.4 8.2 L 8.2 16.4 L -8.2 16.4 L -16.4 8.2 L -16.4 -8.2 Z" fill="#00FF00" stroke="black" stroke-width="2"/>
    </g>
    <g transform="translate(285.1 320.9) rotate(15.8)">
        <path d="M -4.9 -9.9 L 4.9 -9.9 L 9.9 -4.9 L 9.9 4.9 L 4.9 9.9 L -4.9 9.9 L -9.9 4.9 L -9.9 -4.9 Z" fill="#000000" stroke="black" stroke-width="2"/>
    </g>

    <!-- star instances -->
    <g transform="translate(359.0 270.4) rotate(129.7)">
        <path d="M 0.0 -30.2 L 7.6 -9.6 L 30.2 -9.6 L 12.4 4.1 L 19.9 24.7 L 0.0 11.0 L -19.9 24.7 L -12.4 4.1 L -30.2 -9.6 L -7.6 -9.6 Z" fill="#FF0000" stroke="black" stroke-width="2"/>
    </g>
</svg>