<?xml version="1.0" encoding="UTF-8"?>
<svg xmlns="http://www.w3.org/2000/svg" viewBox="0 0 400 400">
    <rect width="400" height="400" fill="white"/>

    <!-- triangle instances -->
    <g transform="translate(302.5 254.7) rotate(313.8)">
        <path d="M 0.0 -31.2 L 23.4 15.6 L -23.4 15.6 Z" fill="#0000FF" stroke="black" stroke-width="2"/>
    </g>

    <!-- cross instances -->
    <g transform="translate(266.8 158.9) rotate(152.6)">
        <path d="M -10.4 -20.8 L 10.4 -20.8 L 10.4 -10.4 L 20.8 -10.4 L 20.8 10.4 L 10.4 10.4 L 10.4 20.8 L -10.4 20.8 L -10.4 10.4 L -20.8 10.4 L -20.8 -10.4 L -10.4 -10.4 Z" fill="#FFFF00" stroke="black" stroke-width="2"/>
    </g>
    <g transform="translate(78.8 80.2) rotate(223.3)">
        <path d="M -6.2 -12.3 L 6.2 -12.3 L 6.2 -6.2 L 12.3 -6.2 L 12.3 6.2 L 6.2 6.2 L 6.2 12.3 L -6.2 12.3 L -6.2 6.2 L -12.3 6.2 L -12.3 -6.2 L -6.2 -6.2 Z" fill="#000000" stroke="black" stroke-width="2"/>
    </g>
    <g transform="translate(218.6 176.3) rotate(63.9)">
        <path d="M -5.5 -10.9 L 5.5 -10.9 L 5.5 -5.5 L 10.9 -5.5 L 10.9 5.5 L 5.5 5.5 L 5.5 10.9 L -5.5 10.9 L -5.5 5.5 L -10.9 5.5 L -10.9 -5.5 L -5.5 -5.5 Z" fill="#000000" stroke="black" stroke-width="2"/>
    </g>

    <!-- hexagon instances -->
    <g transform="translate(72.3 340.9) rotate(199.5)">
        <path d="M 0.0 -20.2 L 20.2 -10.1 L 20.2 10.1 L 0.0 20.2 L -20.2 10.1 L -20.2 -10.1 Z" fill="#FFFF00" stroke="black" stroke-width="2"/>
    </g>
    <g transform="translate(282.6 57.7) rotate(323.6)">
        <path d="M 0.0 -21.4 L 21.4 -10.7 L 21.4 10.7 L 0.0 21.4 L -21.4 10.7 L -21.4 -10.7 Z" fill="#800080" stroke="black" stroke-width="2"/>
    </g>
    <g transform="translate(103.0 181.8) rotate(305.8)">
        <path d="M 0.0 -14.1 L 14.1 -7.0 L 14.1 7.0 L 0.0 14.1 L -14.1 7.0 L -14.1 -7.0 Z" fill="#FFFF00" stroke="black" stroke-width="2"/>
    </g>
    <g transform="translate(129.6 253.9) rotate(306.1)">
        <path d="M 0.0 -19.2 L 19.2 -9.6 L 19.2 9.6 L 0.0 19.2 L -19.2 9.6 L -19.2 -9.6 Z" fill="#FF0000" stroke="black" stroke-width="2"/>
    </g>

    <!-- star instances -->
    <g transform="translate(206.0 60.3) rotate(167.9)">
        <path d="M 0.0 -27.0 L 6.8 -8.6 L 27.0 -8.6 L 11.1 3.7 L 17.8 22.1 L 0.0 9.8 L -17.8 22.1 L -11.1 3.7 L -27.0 -8.6 L -6.8 -8.6 Z" fill="#800080" stroke="black" stroke-width="2"/>
    </g>

    <!-- octagon instances -->
    <g transform="translate(139.5 33.7) rotate(155.0)">
        <path d="M -8.4 -16.8 L 8.4 -16.8 L 16.8 -8.4 L 16.8 8.4 L 8.4 16.8 L -8.4 16.8 L -16.8 8.4 L -16.8 -8.4 Z" fill="#0000FF" stroke="black" stroke-width="2"/>
    </g>

    <!-- pentagon instances -->
    <g transform="translate(242.6 370.5) rotate(193.9)">
        <path d="M 0.0 -16.8 L 15.8 -6.3 L 10.5 14.7 L -10.5 14.7 L -15.8 -6.3 Z" fill="#0000FF" stroke="black" stroke-width="2"/>
    </g>
</svg>