<?xml version="1.0" encoding="UTF-8"?>
<svg xmlns="http://www.w3.org/2000/svg" viewBox="0 0 400 400">
    <rect width="400" height="400" fill="white"/>

    <!-- hexagon instances -->
    <g transform="translate(327.6 101.4) rotate(318.3)">
        <path d="M 0.0 -15.7 L 15.7 -7.9 L 15.7 7.9 L 0.0 15.7 L -15.7 7.9 L -15.7 -7.9 Z" fill="#FF0000" stroke="black" stroke-width="2"/>
    </g>
    <g transform="translate(251.9 332.5) rotate(235.4)">
        <path d="M 0.0 -16.3 L 16.3 -8.1 L 16.3 8.1 L 0.0 16.3 L -16.3 8.1 L -16.3 -8.1 Z" fill="#0000FF" stroke="black" stroke-width="2"/>
    </g>

    <!-- cross instances -->
    <g transform="translate(376.2 41.6) rotate(147.2)">
        <path d="M -5.2 -10.3 L 5.2 -10.3 L 5.2 -5.2 L 10.3 -5.2 L 10.3 5.2 L 5.2 5.2 L 5.2 10.3 L -5.2 10.3 L -5.2 5.2 L -10.3 5.2 L -10.3 -5.2 L -5.2 -5.2 Z" fill="#808080" stroke="black" stroke-width="2"/>
    </g>
    <g transform="translate(349.3 213.5) rotate(158.6)">
        <path d="M -9.6 -19.3 L 9.6 -19.3 L 9.6 -9.6 L 19.3 -9.6 L 19.3 9.6 L 9.6 9.6 L 9.6 19.3 L -9.6 19.3 L -9.6 9.6 L -19.3 9.6 L -19.3 -9.6 L -9.6 -9.6 Z" fill="#800080" stroke="black" stroke-width="2"/>
    </g>
    <g transform="translate(190.8 347.5) rotate(266.3)">
        <path d="M -10.5 -20.9 L 10.5 -20.9 L 10.5 -10.5 L 20.9 -10.5 L 20.9 10.5 L 10.5 10.5 L 10.5 20.9 L -10.5 20.9 L -10.5 10.5 L -20.9 10.5 L -20.9 -10.5 L -10.5 -10.5 Z" fill="#00FF00" stroke="black" stroke-width="2"/>
    </g>

    <!-- star instances -->
    <g transform="translate(163.8 53.0) rotate(179.1)">
        <path d="M 0.0 -33.8 L 8.4 -10.7 L 33.8 -10.7 L 13.8 4.6 L 22.2 27.6 L 0.0 12.3 L -22.2 27.6 L -13.8 4.6 L -33.8 -10.7 L -8.4 -10.7 Z" fill="#FF0000" stroke="black" stroke-width="2"/>
    </g>

    <!-- octagon instances -->
    <g transform="translate(56.6 170.7) rotate(209.7)">
        <path d="M -7.1 -14.3 L 7.1 -14.3 L 14.3 -7.1 L 14.3 7.1 L 7.1 14.3 L -7.1 14.3 L -14.3 7.1 L -14.3 -7.1 Z" fill="#00FF00" stroke="black" stroke-width="2"/>
    </g>
    <g transform="translate(64.9 374.4) rotate(184.2)">
        <path d="M -7.6 -15.2 L 7.6 -15.2 L 15.2 -7.6 L 15.2 7.6 L 7.6 15.2 L -7.6 15.2 L -15.2 7.6 L -15.2 -7.6 Z" fill="#800080" stroke="black" stroke-width="2"/>
    </g>
    <g transform="translate(330.6 284.4) rotate(222.7)">
        <path d="M -10.3 -20.5 L 10.3 -20.5 L 20.5 -10.3 L 20.5 10.3 L 10.3 20.5 L -10.3 20.5 L -20.5 10.3 L -20.5 -10.3 Z" fill="#FFFF00" stroke="black" stroke-width="2"/>
    </g>

    <!-- pentagon instances -->
    <g transform="translate(46.9 342.5) rotate(267.3)">
        <path d="M 0.0 -14.9 L 14.0 -5.6 L 9.3 13.0 L -9.3 13.0 L -14.0 -5.6 Z" fill="#00FF00" stroke="black" stroke-width="2"/>
    </g>
    <g transform="translate(227.7 31.1) rotate(126.9)">
        <path d="M 0.0 -11.7 L 11.0 -4.4 L 7.3 10.3 L -7.3 10.3 L -11.0 -4.4 Z" fill="#FFFF00" stroke="black" stroke-width="2"/>
    </g>
    <g transform="translate(127.7 359.2) rotate(44.6)">
        <path d="M 0.0 -12.0 L 11.3 -4.5 L 7.5 10.5 L -7.5 10.5 L -11.3 -4.5 Z" fill="#FFFF00" stroke="black" stroke-width="2"/>
    </g>

    <!-- triangle instances -->
    <g transform="translate(313.7 159.7) rotate(131.2)">
        <path d="M 0.0 -13.7 L 10.3 6.8 L -10.3 6.8 Z" fill="#000000" stroke="black" stroke-width="2"/>
    </g>
    <g transform="translate(306.5 364.6) rotate(41.5)">
        <path d="M 0.0 -25.0 L 18.8 12.5 L -18.8 12.5 Z" fill="#808080" stroke="black" stroke-width="2"/>
    </g>
</svg>