<?xml version="1.0" encoding="UTF-8"?>
<svg xmlns="http://www.w3.org/2000/svg" viewBox="0 0 400 400">
    <rect width="400" height="400" fill="white"/>

    <!-- triangle instances -->
    <g transform="translate(306.8 175.2) rotate(345.7)">
        <path d="M 0.0 -50.6 L 38.0 25.3 L -38.0 25.3 Z" fill="#FFA500" stroke="black" stroke-width="2"/>
    </g>
    <g transform="translate(209.3 78.2) rotate(162.2)">
        <path d="M 0.0 -26.4 L 19.8 13.2 L -19.8 13.2 Z" fill="#000000" stroke="black" stroke-width="2"/>
    </g>

    <!-- cross instances -->
    <g transform="translate(82.3 125.9) rotate(152.7)">
        <path d="M -19.2 -38.3 L 19.2 -38.3 L 19.2 -19.2 L 38.3 -19.2 L 38.3 19.2 L 19.2 19.2 L 19.2 38.3 L -19.2 38.3 L -19.2 19.2 L -38.3 19.2 L -38.3 -19.2 L -19.2 -19.2 Z" fill="#000000" stroke="black" stroke-width="2"/>
    </g>
    <g transform="translate(102.8 279.4) rotate(58.5)">
        <path d="M -14.0 -28.0 L 14.0 -28.0 L 14.0 -14.0 L 28.0 -14.0 L 28.0 14.0 L 14.0 14.0 L 14.0 28.0 L -14.0 28.0 L -14.0 14.0 L -28.0 14.0 L -28.0 -14.0 L -14.0 -14.0 Z" fill="#800080" stroke="black" stroke-width="2"/>
    </g>
</svg>