<?xml version="1.0" encoding="UTF-8"?>
<svg xmlns="http://www.w3.org/2000/svg" viewBox="0 0 400 400">
    <rect width="400" height="400" fill="white"/>

    <!-- triangle instances -->
    <g transform="translate(312.0 47.5) rotate(224.2)">
        <path d="M 0.0 -23.5 L 17.6 11.8 L -17.6 11.8 Z" fill="#0000FF" stroke="black" stroke-width="2"/>
    </g>
    <g transform="translate(355.8 280.9) rotate(151.8)">
        <path d="M 0.0 -25.5 L 19.1 12.7 L -19.1 12.7 Z" fill="#000000" stroke="black" stroke-width="2"/>
    </g>

    <!-- cross instances -->
    <g transform="translate(49.4 307.5) rotate(110.9)">
        <path d="M -8.2 -16.4 L 8.2 -16.4 L 8.2 -8.2 L 16.4 -8.2 L 16.4 8.2 L 8.2 8.2 L 8.2 16.4 L -8.2 16.4 L -8.2 8.2 L -16.4 8.2 L -16.4 -8.2 L -8.2 -8.2 Z" fill="#000000" stroke="black" stroke-width="2"/>
    </g>

    <!-- star instances -->
    <g transform="translate(357.8 60.4) rotate(214.6)">
        <path d="M 0.0 -13.2 L 3.3 -4.2 L 13.2 -4.2 L 5.4 1.8 L 8.7 10.8 L 0.0 4.8 L -8.7 10.8 L -5.4 1.8 L -13.2 -4.2 L -3.3 -4.2 Z" fill="#800080" stroke="black" stroke-width="2"/>
    </g>
    <g transform="translate(229.9 37.3) rotate(259.3)">
        <path d="M 0.0 -14.9 L 3.7 -4.8 L 14.9 -4.8 L 6.1 2.0 L 9.8 12.2 L 0.0 5.4 L -9.8 12.2 L -6.1 2.0 L -14.9 -4.8 L -3.7 -4.8 Z" fill="#0000FF" stroke="black" stroke-width="2"/>
    </g>
    <g transform="translate(206.3 179.9) rotate(318.0)">
        <path d="M 0.0 -29.0 L 7.3 -9.2 L 29.0 -9.2 L 11.9 4.0 L 19.1 23.7 L 0.0 10.6 L -19.1 23.7 L -11.9 4.0 L -29.0 -9.2 L -7.3 -9.2 Z" fill="#0000FF" stroke="black" stroke-width="2"/>
    </g>
    <g transform="translate(44.6 259.9) rotate(18.8)">
        <path d="M 0.0 -22.3 L 5.6 -7.1 L 22.3 -7.1 L 9.1 3.0 L 14.7 18.2 L 0.0 8.1 L -14.7 18.2 L -9.1 3.0 L -22.3 -7.1 L -5.6 -7.1 Z" fill="#0000FF" stroke="black" stroke-width="2"/>
    </g>
    <g transform="translate(236.2 241.8) rotate(156.9)">
        <path d="M 0.0 -17.6 L 4.4 -5.6 L 17.6 -5.6 L 7.2 2.4 L 11.6 14.4 L 0.0 6.4 L -11.6 14.4 L -7.2 2.4 L -17.6 -5.6 L -4.4 -5.6 Z" fill="#0000FF" stroke="black" stroke-width="2"/>
    </g>

    <!-- hexagon instances -->
    <g transform="translate(92.2 95.0) rotate(95.3)">
        <path d="M 0.0 -7.2 L 7.2 -3.6 L 7.2 3.6 L 0.0 7.2 L -7.2 3.6 L -7.2 -3.6 Z" fill="#FFA500" stroke="black" stroke-width="2"/>
    </g>

    <!-- pentagon instances -->
    <g transform="translate(134.2 366.6) rotate(3.7)">
        <path d="M 0.0 -16.2 L 15.1 -6.1 L 10.1 14.1 L -10.1 14.1 L -15.1 -6.1 Z" fill="#FF0000" stroke="black" stroke-width="2"/>
    </g>

    <!-- octagon instances -->
    <g transform="translate(102.6 179.0) rotate(62.6)">
        <path d="M -4.9 -9.7 L 4.9 -9.7 L 9.7 -4.9 L 9.7 4.9 L 4.9 9.7 L -4.9 9.7 L -9.7 4.9 L -9.7 -4.9 Z" fill="#FFFF00" stroke="black" stroke-width="2"/>
    </g>
    <g transform="translate(282.9 325.6) rotate(38.8)">
        <path d="M -6.1 -12.2 L 6.1 -12.2 L 12.2 -6.1 L 12.2 6.1 L 6.1 12.2 L -6.1 12.2 L -12.2 6.1 L -12.2 -6.1 Z" fill="#00FF00" stroke="black" stroke-width="2"/>
    </g>
</svg>