<?xml version="1.0" encoding="UTF-8"?>
<svg xmlns="http://www.w3.org/2000/svg" viewBox="0 0 400 400">
    <rect width="400" height="400" fill="white"/>

    <!-- star instances -->
    <g transform="translate(95.6 55.0) rotate(91.8)">
        <path d="M 0.0 -14.6 L 3.7 -4.7 L 14.6 -4.7 L 6.0 2.0 L 9.6 12.0 L 0.0 5.3 L -9.6 12.0 L -6.0 2.0 L -14.6 -4.7 L -3.7 -4.7 Z" fill="#000000" stroke="black" stroke-width="2"/>
    </g>
    <g transform="translate(156.8 146.6) rotate(262.4)">
        <path d="M 0.0 -14.8 L 3.7 -4.7 L 14.8 -4.7 L 6.0 2.0 L 9.7 12.1 L 0.0 5.4 L -9.7 12.1 L -6.0 2.0 L -14.8 -4.7 L -3.7 -4.7 Z" fill="#0000FF" stroke="black" stroke-width="2"/>
    </g>
    <g transform="translate(87.0 181.4) rotate(123.3)">
        <path d="M 0.0 -11.7 L 2.9 -3.7 L 11.7 -3.7 L 4.8 1.6 L 7.7 9.5 L 0.0 4.2 L -7.7 9.5 L -4.8 1.6 L -11.7 -3.7 L -2.9 -3.7 Z" fill="#000000" stroke="black" stroke-width="2"/>
    </g>

    <!-- hexagon instances -->
    <g transform="translate(254.2 332.5) rotate(65.8)">
        <path d="M 0.0 -12.3 L 12.3 -6.2 L 12.3 6.2 L 0.0 12.3 L -12.3 6.2 L -12.3 -6.2 Z" fill="#FFA500" stroke="black" stroke-width="2"/>
    </g>
    <g transform="translate(121.7 156.0) rotate(281.8)">
        <path d="M 0.0 -15.5 L 15.5 -7.8 L 15.5 7.8 L 0.0 15.5 L -15.5 7.8 L -15.5 -7.8 Z" fill="#808080" stroke="black" stroke-width="2"/>
    </g>
    <g transform="translate(174.1 207.3) rotate(274.2)">
        <path d="M 0.0 -9.2 L 9.2 -4.6 L 9.2 4.6 L 0.0 9.2 L -9.2 4.6 L -9.2 -4.6 Z" fill="#FFFF00" stroke="black" stroke-width="2"/>
    </g>
    <g transform="translate(185.3 27.1) rotate(327.8)">
        <path d="M 0.0 -10.9 L 10.9 -5.5 L 10.9 5.5 L 0.0 10.9 L -10.9 5.5 L -10.9 -5.5 Z" fill="#FFA500" stroke="black" stroke-width="2"/>
    </g>
    <g transform="translate(66.3 128.5) rotate(162.8)">
        <path d="M 0.0 -16.9 L 16.9 -8.4 L 16.9 8.4 L 0.0 16.9 L -16.9 8.4 L -16.9 -8.4 Z" fill="#FF0000" stroke="black" stroke-width="2"/>
    </g>
    <g transform="translate(355.8 66.9) rotate(252.2)">
        <path d="M 0.0 -7.4 L 7.4 -3.7 L 7.4 3.7 L 0.0 7.4 L -7.4 3.7 L -7.4 -3.7 Z" fill="#FFFF00" stroke="black" stroke-width="2"/>
    </g>

    <!-- cross instances -->
    <g transform="translate(300.7 45.8) rotate(41.9)">
        <path d="M -5.3 -10.6 L 5.3 -10.6 L 5.3 -5.3 L 10.6 -5.3 L 10.6 5.3 L 5.3 5.3 L 5.3 10.6 L -5.3 10.6 L -5.3 5.3 L -10.6 5.3 L -10.6 -5.3 L -5.3 -5.3 Z" fill="#000000" stroke="black" stroke-width="2"/>
    </g>
    <g transform="translate(101.7 221.0) rotate(177.7)">
        <path d="M -4.1 -8.1 L 4.1 -8.1 L 4.1 -4.1 L 8.1 -4.1 L 8.1 4.1 L 4.1 4.1 L 4.1 8.1 L -4.1 8.1 L -4.1 4.1 L -8.1 4.1 L -8.1 -4.1 L -4.1 -4.1 Z" fill="#FFFF00" stroke="black" stroke-width="2"/>
    </g>
    <g transform="translate(237.2 132.5) rotate(283.7)">
        <path d="M -3.7 -7.5 L 3.7 -7.5 L 3.7 -3.7 L 7.5 -3.7 L 7.5 3.7 L 3.7 3.7 L 3.7 7.5 L -3.7 7.5 L -3.7 3.7 L -7.5 3.7 L -7.5 -3.7 L -3.7 -3.7 Z" fill="#00FF00" stroke="black" stroke-width="2"/>
    </g>
    <g transform="translate(316.1 367.9) rotate(45.9)">
        <path d="M -7.1 -14.2 L 7.1 -14.2 L 7.1 -7.1 L 14.2 -7.1 L 14.2 7.1 L 7.1 7.1 L 7.1 14.2 L -7.1 14.2 L -7.1 7.1 L -14.2 7.1 L -14.2 -7.1 L -7.1 -7.1 Z" fill="#FFA500" stroke="black" stroke-width="2"/>
    </g>
    <g transform="translate(53.3 226.0) rotate(159.5)">
        <path d="M -8.0 -16.0 L 8.0 -16.0 L 8.0 -8.0 L 16.0 -8.0 L 16.0 8.0 L 8.0 8.0 L 8.0 16.0 L -8.0 16.0 L -8.0 8.0 L -16.0 8.0 L -16.0 -8.0 L -8.0 -8.0 Z" fill="#0000FF" stroke="black" stroke-width="2"/>
    </g>

    <!-- triangle instances -->
    <g transform="translate(242.8 257.5) rotate(185.1)">
        <path d="M 0.0 -21.5 L 16.1 10.8 L -16.1 10.8 Z" fill="#FFA500" stroke="black" stroke-width="2"/>
    </g>
    <g transform="translate(239.2 291.4) rotate(254.6)">
        <path d="M 0.0 -8.3 L 6.3 4.2 L -6.3 4.2 Z" fill="#000000" stroke="black" stroke-width="2"/>
    </g>

    <!-- octagon instances -->
    <g transform="translate(29.0 314.8) rotate(248.8)">
        <path d="M -4.4 -8.7 L 4.4 -8.7 L 8.7 -4.4 L 8.7 4.4 L 4.4 8.7 L -4.4 8.7 L -8.7 4.4 L -8.7 -4.4 Z" fill="#800080" stroke="black" stroke-width="2"/>
    </g>
    <g transform="translate(336.3 200.2) rotate(25.8)">
        <path d="M -5.5 -11.0 L 5.5 -11.0 L 11.0 -5.5 L 11.0 5.5 L 5.5 11.0 L -5.5 11.0 L -11.0 5.5 L -11.0 -5.5 Z" fill="#FF0000" stroke="black" stroke-width="2"/>
    </g>
    <g transform="translate(358.3 267.5) rotate(204.5)">
        <path d="M -3.9 -7.8 L 3.9 -7.8 L 7.8 -3.9 L 7.8 3.9 L 3.9 7.8 L -3.9 7.8 L -7.8 3.9 L -7.8 -3.9 Z" fill="#FFA500" stroke="black" stroke-width="2"/>
    </g>
    <g transform="translate(165.5 112.2) rotate(303.0)">
        <path d="M -6.1 -12.2 L 6.1 -12.2 L 12.2 -6.1 L 12.2 6.1 L 6.1 12.2 L -6.1 12.2 L -12.2 6.1 L -12.2 -6.1 Z" fill="#808080" stroke="black" stroke-width="2"/>
    </g>
    <g transform="translate(257.1 192.4) rotate(227.9)">
        <path d="M -5.0 -10.0 L 5.0 -10.0 L 10.0 -5.0 L 10.0 5.0 L 5.0 10.0 L -5.0 10.0 L -10.0 5.0 L -10.0 -5.0 Z" fill="#0000FF" stroke="black" stroke-width="2"/>
    </g>
    <g transform="translate(128.3 209.7) rotate(95.9)">
        <path d="M -7.5 -15.0 L 7.5 -15.0 L 15.0 -7.5 L 15.0 7.5 L 7.5 15.0 L -7.5 15.0 L -15.0 7.5 L -15.0 -7.5 Z" fill="#FFA500" stroke="black" stroke-width="2"/>
    </g>

    <!-- pentagon instances -->
    <g transform="translate(65.6 287.3) rotate(64.2)">
        <path d="M 0.0 -14.7 L 13.8 -5.5 L 9.2 12.8 L -9.2 12.8 L -13.8 -5.5 Z" fill="#FF0000" stroke="black" stroke-width="2"/>
    </g>
</svg>