<?xml version="1.0" encoding="UTF-8"?>
<svg xmlns="http://www.w3.org/2000/svg" viewBox="0 0 400 400">
    <rect width="400" height="400" fill="white"/>

    <!-- octagon instances -->
    <g transform="translate(152.0 371.2) rotate(200.3)">
        <path d="M -4.2 -8.5 L 4.2 -8.5 L 8.5 -4.2 L 8.5 4.2 L 4.2 8.5 L -4.2 8.5 L -8.5 4.2 L -8.5 -4.2 Z" fill="#808080" stroke="black" stroke-width="2"/>
    </g>
    <g transform="translate(174.2 231.0) rotate(171.9)">
        <path d="M -7.6 -15.2 L 7.6 -15.2 L 15.2 -7.6 L 15.2 7.6 L 7.6 15.2 L -7.6 15.2 L -15.2 7.6 L -15.2 -7.6 Z" fill="#FF0000" stroke="black" stroke-width="2"/>
    </g>
    <g transform="translate(215.0 379.5) rotate(154.5)">
        <path d="M -4.0 -8.0 L 4.0 -8.0 L 8.0 -4.0 L 8.0 4.0 L 4.0 8.0 L -4.0 8.0 L -8.0 4.0 L -8.0 -4.0 Z" fill="#000000" stroke="black" stroke-width="2"/>
    </g>
    <g transform="translate(261.4 159.1) rotate(151.5)">
        <path d="M -3.3 -6.5 L 3.3 -6.5 L 6.5 -3.3 L 6.5 3.3 L 3.3 6.5 L -3.3 6.5 L -6.5 3.3 L -6.5 -3.3 Z" fill="#FFFF00" stroke="black" stroke-width="2"/>
    </g>
    <g transform="translate(331.6 217.5) rotate(277.4)">
        <path d="M -4.1 -8.3 L 4.1 -8.3 L 8.3 -4.1 L 8.3 4.1 L 4.1 8.3 L -4.1 8.3 L -8.3 4.1 L -8.3 -4.1 Z" fill="#800080" stroke="black" stroke-width="2"/>
    </g>
    <g transform="translate(193.3 339.2) rotate(202.2)">
        <path d="M -4.6 -9.2 L 4.6 -9.2 L 9.2 -4.6 L 9.2 4.6 L 4.6 9.2 L -4.6 9.2 L -9.2 4.6 L -9.2 -4.6 Z" fill="#808080" stroke="black" stroke-width="2"/>
    </g>

    <!-- triangle instances -->
    <g transform="translate(142.9 51.5) rotate(172.1)">
        <path d="M 0.0 -20.4 L 15.3 10.2 L -15.3 10.2 Z" fill="#FF0000" stroke="black" stroke-width="2"/>
    </g>
    <g transform="translate(112.9 298.3) rotate(275.5)">
        <path d="M 0.0 -9.8 L 7.4 4.9 L -7.4 4.9 Z" fill="#FFFF00" stroke="black" stroke-width="2"/>
    </g>
    <g transform="translate(362.7 116.3) rotate(180.1)">
        <path d="M 0.0 -8.6 L 6.4 4.3 L -6.4 4.3 Z" fill="#0000FF" stroke="black" stroke-width="2"/>
    </g>
    <g transform="translate(346.9 320.9) rotate(268.1)">
        <path d="M 0.0 -22.2 L 16.7 11.1 L -16.7 11.1 Z" fill="#FF0000" stroke="black" stroke-width="2"/>
    </g>

    <!-- hexagon instances -->
    <g transform="translate(51.1 30.0) rotate(300.6)">
        <path d="M 0.0 -14.3 L 14.3 -7.1 L 14.3 7.1 L 0.0 14.3 L -14.3 7.1 L -14.3 -7.1 Z" fill="#FF0000" stroke="black" stroke-width="2"/>
    </g>
    <g transform="translate(342.6 251.7) rotate(337.3)">
        <path d="M 0.0 -16.0 L 16.0 -8.0 L 16.0 8.0 L 0.0 16.0 L -16.0 8.0 L -16.0 -8.0 Z" fill="#800080" stroke="black" stroke-width="2"/>
    </g>
    <g transform="translate(49.3 148.0) rotate(180.7)">
        <path d="M 0.0 -13.6 L 13.6 -6.8 L 13.6 6.8 L 0.0 13.6 L -13.6 6.8 L -13.6 -6.8 Z" fill="#FF0000" stroke="black" stroke-width="2"/>
    </g>
    <g transform="translate(259.0 112.9) rotate(57.1)">
        <path d="M 0.0 -8.8 L 8.8 -4.4 L 8.8 4.4 L 0.0 8.8 L -8.8 4.4 L -8.8 -4.4 Z" fill="#FF0000" stroke="black" stroke-width="2"/>
    </g>
    <g transform="translate(194.5 39.9) rotate(26.6)">
        <path d="M 0.0 -6.8 L 6.8 -3.4 L 6.8 3.4 L 0.0 6.8 L -6.8 3.4 L -6.8 -3.4 Z" fill="#808080" stroke="black" stroke-width="2"/>
    </g>

    <!-- star instances -->
    <g transform="translate(284.7 331.9) rotate(53.2)">
        <path d="M 0.0 -20.9 L 5.2 -6.6 L 20.9 -6.6 L 8.5 2.8 L 13.8 17.1 L 0.0 7.6 L -13.8 17.1 L -8.5 2.8 L -20.9 -6.6 L -5.2 -6.6 Z" fill="#0000FF" stroke="black" stroke-width="2"/>
    </g>

    <!-- cross instances -->
    <g transform="translate(302.1 77.5) rotate(135.1)">
        <path d="M -3.5 -7.0 L 3.5 -7.0 L 3.5 -3.5 L 7.0 -3.5 L 7.0 3.5 L 3.5 3.5 L 3.5 7.0 L -3.5 7.0 L -3.5 3.5 L -7.0 3.5 L -7.0 -3.5 L -3.5 -3.5 Z" fill="#000000" stroke="black" stroke-width="2"/>
    </g>
    <g transform="translate(217.5 72.2) rotate(35.8)">
        <path d="M -5.8 -11.6 L 5.8 -11.6 L 5.8 -5.8 L 11.6 -5.8 L 11.6 5.8 L 5.8 5.8 L 5.8 11.6 L -5.8 11.6 L -5.8 5.8 L -11.6 5.8 L -11.6 -5.8 L -5.8 -5.8 Z" fill="#FFA500" stroke="black" stroke-width="2"/>
    </g>
    <g transform="translate(244.7 33.4) rotate(297.0)">
        <path d="M -5.3 -10.7 L 5.3 -10.7 L 5.3 -5.3 L 10.7 -5.3 L 10.7 5.3 L 5.3 5.3 L 5.3 10.7 L -5.3 10.7 L -5.3 5.3 L -10.7 5.3 L -10.7 -5.3 L -5.3 -5.3 Z" fill="#0000FF" stroke="black" stroke-width="2"/>
    </g>
    <g transform="translate(316.4 176.6) rotate(159.0)">
        <path d="M -5.8 -11.7 L 5.8 -11.7 L 5.8 -5.8 L 11.7 -5.8 L 11.7 5.8 L 5.8 5.8 L 5.8 11.7 L -5.8 11.7 L -5.8 5.8 L -11.7 5.8 L -11.7 -5.8 L -5.8 -5.8 Z" fill="#00FF00" stroke="black" stroke-width="2"/>
    </g>
    <g transform="translate(141.3 192.7) rotate(92.0)">
        <path d="M -8.4 -16.8 L 8.4 -16.8 L 8.4 -8.4 L 16.8 -8.4 L 16.8 8.4 L 8.4 8.4 L 8.4 16.8 L -8.4 16.8 L -8.4 8.4 L -16.8 8.4 L -16.8 -8.4 L -8.4 -8.4 Z" fill="#800080" stroke="black" stroke-width="2"/>
    </g>
    <g transform="translate(364.8 95.0) rotate(255.4)">
        <path d="M -3.4 -6.7 L 3.4 -6.7 L 3.4 -3.4 L 6.7 -3.4 L 6.7 3.4 L 3.4 3.4 L 3.4 6.7 L -3.4 6.7 L -3.4 3.4 L -6.7 3.4 L -6.7 -3.4 L -3.4 -3.4 Z" fill="#FFA500" stroke="black" stroke-width="2"/>
    </g>

    <!-- pentagon instances -->
    <g transform="translate(347.4 90.9) rotate(136.9)">
        <path d="M 0.0 -6.5 L 6.1 -2.4 L 4.1 5.7 L -4.1 5.7 L -6.1 -2.4 Z" fill="#FF0000" stroke="black" stroke-width="2"/>
    </g>
    <g transform="translate(341.1 62.9) rotate(129.8)">
        <path d="M 0.0 -11.6 L 10.9 -4.3 L 7.2 10.1 L -7.2 10.1 L -10.9 -4.3 Z" fill="#FFA500" stroke="black" stroke-width="2"/>
    </g>
</svg>