<?xml version="1.0" encoding="UTF-8"?>
<svg xmlns="http://www.w3.org/2000/svg" viewBox="0 0 400 400">
    <rect width="400" height="400" fill="white"/>

    <!-- triangle instances -->
    <g transform="translate(183.6 325.2) rotate(76.4)">
        <path d="M 0.0 -21.5 L 16.1 10.7 L -16.1 10.7 Z" fill="#800080" stroke="black" stroke-width="2"/>
    </g>
    <g transform="translate(208.4 232.7) rotate(225.5)">
        <path d="M 0.0 -23.9 L 17.9 11.9 L -17.9 11.9 Z" fill="#808080" stroke="black" stroke-width="2"/>
    </g>
    <g transform="translate(345.7 79.3) rotate(145.8)">
        <path d="M 0.0 -23.0 L 17.2 11.5 L -17.2 11.5 Z" fill="#000000" stroke="black" stroke-width="2"/>
    </g>

    <!-- star instances -->
    <g transform="translate(364.3 343.3) rotate(247.3)">
        <path d="M 0.0 -19.6 L 4.9 -6.2 L 19.6 -6.2 L 8.0 2.7 L 12.9 16.0 L 0.0 7.1 L -12.9 16.0 L -8.0 2.7 L -19.6 -6.2 L -4.9 -6.2 Z" fill="#00FF00" stroke="black" stroke-width="2"/>
    </g>
    <g transform="translate(279.6 329.3) rotate(239.1)">
        <path d="M 0.0 -23.0 L 5.8 -7.3 L 23.0 -7.3 L 9.4 3.1 L 15.2 18.8 L 0.0 8.4 L -15.2 18.8 L -9.4 3.1 L -23.0 -7.3 L -5.8 -7.3 Z" fill="#0000FF" stroke="black" stroke-width="2"/>
    </g>
    <g transform="translate(77.6 318.2) rotate(126.4)">
        <path d="M 0.0 -29.1 L 7.3 -9.3 L 29.1 -9.3 L 11.9 4.0 L 19.2 23.8 L 0.0 10.6 L -19.2 23.8 L -11.9 4.0 L -29.1 -9.3 L -7.3 -9.3 Z" fill="#FF0000" stroke="black" stroke-width="2"/>
    </g>
    <g transform="translate(118.6 155.5) rotate(21.4)">
        <path d="M 0.0 -15.1 L 3.8 -4.8 L 15.1 -4.8 L 6.2 2.1 L 9.9 12.3 L 0.0 5.5 L -9.9 12.3 L -6.2 2.1 L -15.1 -4.8 L -3.8 -4.8 Z" fill="#808080" stroke="black" stroke-width="2"/>
    </g>

    <!-- pentagon instances -->
    <g transform="translate(133.6 64.4) rotate(60.2)">
        <path d="M 0.0 -13.9 L 13.1 -5.2 L 8.7 12.2 L -8.7 12.2 L -13.1 -5.2 Z" fill="#FF0000" stroke="black" stroke-width="2"/>
    </g>
    <g transform="translate(52.5 160.0) rotate(320.4)">
        <path d="M 0.0 -19.2 L 18.0 -7.2 L 12.0 16.8 L -12.0 16.8 L -18.0 -7.2 Z" fill="#FFA500" stroke="black" stroke-width="2"/>
    </g>
    <g transform="translate(284.4 131.2) rotate(192.4)">
        <path d="M 0.0 -17.7 L 16.6 -6.6 L 11.0 15.4 L -11.0 15.4 L -16.6 -6.6 Z" fill="#FFFF00" stroke="black" stroke-width="2"/>
    </g>

    <!-- hexagon instances -->
    <g transform="translate(219.1 303.4) rotate(290.8)">
        <path d="M 0.0 -9.9 L 9.9 -4.9 L 9.9 4.9 L 0.0 9.9 L -9.9 4.9 L -9.9 -4.9 Z" fill="#FF0000" stroke="black" stroke-width="2"/>
    </g>

    <!-- cross instances -->
    <g transform="translate(174.6 125.5) rotate(306.1)">
        <path d="M -4.8 -9.6 L 4.8 -9.6 L 4.8 -4.8 L 9.6 -4.8 L 9.6 4.8 L 4.8 4.8 L 4.8 9.6 L -4.8 9.6 L -4.8 4.8 L -9.6 4.8 L -9.6 -4.8 L -4.8 -4.8 Z" fill="#000000" stroke="black" stroke-width="2"/>
    </g>
    <g transform="translate(72.2 69.6) rotate(41.3)">
        <path d="M -8.8 -17.5 L 8.8 -17.5 L 8.8 -8.8 L 17.5 -8.8 L 17.5 8.8 L 8.8 8.8 L 8.8 17.5 L -8.8 17.5 L -8.8 8.8 L -17.5 8.8 L -17.5 -8.8 L -8.8 -8.8 Z" fill="#00FF00" stroke="black" stroke-width="2"/>
    </g>
    <g transform="translate(136.3 323.6) rotate(245.1)">
        <path d="M -6.8 -13.7 L 6.8 -13.7 L 6.8 -6.8 L 13.7 -6.8 L 13.7 6.8 L 6.8 6.8 L 6.8 13.7 L -6.8 13.7 L -6.8 6.8 L -13.7 6.8 L -13.7 -6.8 L -6.8 -6.8 Z" fill="#808080" stroke="black" stroke-width="2"/>
    </g>

    <!-- octagon instances -->
    <g transform="translate(349.1 33.3) rotate(357.4)">
        <path d="M -7.2 -14.4 L 7.2 -14.4 L 14.4 -7.2 L 14.4 7.2 L 7.2 14.4 L -7.2 14.4 L -14.4 7.2 L -14.4 -7.2 Z" fill="#800080" stroke="black" stroke-width="2"/>
    </g>
    <g transform="translate(222.7 146.9) rotate(111.8)">
        <path d="M -9.7 -19.4 L 9.7 -19.4 L 19.4 -9.7 L 19.4 9.7 L 9.7 19.4 L -9.7 19.4 L -19.4 9.7 L -19.4 -9.7 Z" fill="#FFFF00" stroke="black" stroke-width="2"/>
    </g>
    <g transform="translate(343.7 271.7) rotate(182.9)">
        <path d="M -9.9 -19.9 L 9.9 -19.9 L 19.9 -9.9 L 19.9 9.9 L 9.9 19.9 L -9.9 19.9 L -19.9 9.9 L -19.9 -9.9 Z" fill="#800080" stroke="black" stroke-width="2"/>
    </g>
    <g transform="translate(174.1 173.1) rotate(15.9)">
        <path d="M -8.3 -16.6 L 8.3 -16.6 L 16.6 -8.3 L 16.6 8.3 L 8.3 16.6 L -8.3 16.6 L -16.6 8.3 L -16.6 -8.3 Z" fill="#00FF00" stroke="black" stroke-width="2"/>
    </g>
</svg>