<svg baseProfile="full" height="400" version="1.1" width="400" xmlns="http://www.w3.org/2000/svg" xmlns:ev="http://www.w3.org/2001/xml-events" xmlns:xlink="http://www.w3.org/1999/xlink"><defs /><rect fill="white" height="100%" width="100%" x="0" y="0" /><path d="M0,-30 L30,30 L-30,30 Z" fill="none" stroke="black" transform="translate(289.32614301641746,100.80878635336366) rotate(322.58205617443275) scale(1.3170601631315693)" /><path d="M0,-30 L30,30 L-30,30 Z" fill="none" stroke="black" transform="translate(222.62209552196077,155.82043849681142) rotate(93.88712928120559) scale(0.923638421388411)" /><g><path d="M0,-30 L30,30 L-30,30 Z" fill="none" stroke="black" transform="translate(211.01174035356456,263.490627943477) rotate(167.25450601516854) scale(1.149496091313405)" /><path d="M0,-30 L30,30 L-30,30 Z" fill="none" stroke="black" transform="translate(211.01174035356456,263.490627943477) rotate(167.25450601516854) scale(0.8046472639193833)" /></g><path d="M0.0,-30.0 L28.5,-9.3 L17.6,24.3 L-17.6,24.3 L-28.5,-9.3 Z" fill="none" stroke="black" transform="translate(119.83723299976594,249.56118590117197) rotate(303.82352997708017) scale(1.2161896679679913)" /><path d="M0.0,-30.0 L28.5,-9.3 L17.6,24.3 L-17.6,24.3 L-28.5,-9.3 Z" fill="none" stroke="black" transform="translate(262.0630391385043,214.3174984238723) rotate(162.69540277244482) scale(1.178665996745004)" /><g><path d="M0.0,-30.0 L28.5,-9.3 L17.6,24.3 L-17.6,24.3 L-28.5,-9.3 Z" fill="none" stroke="black" transform="translate(232.4030328751,321.9191599390465) rotate(71.03775878895526) scale(0.8839236062727961)" /><path d="M0.0,-30.0 L28.5,-9.3 L17.6,24.3 L-17.6,24.3 L-28.5,-9.3 Z" fill="none" stroke="black" transform="translate(232.4030328751,321.9191599390465) rotate(71.03775878895526) scale(0.6187465243909572)" /></g><g><path d="M0.0,-30.0 L28.5,-9.3 L17.6,24.3 L-17.6,24.3 L-28.5,-9.3 Z" fill="none" stroke="black" transform="translate(282.50381938765526,157.53711480963295) rotate(214.19378918697586) scale(1.1175208636355793)" /><path d="M0.0,-30.0 L28.5,-9.3 L17.6,24.3 L-17.6,24.3 L-28.5,-9.3 Z" fill="none" stroke="black" transform="translate(282.50381938765526,157.53711480963295) rotate(214.19378918697586) scale(0.7822646045449055)" /><path d="M0.0,-30.0 L28.5,-9.3 L17.6,24.3 L-17.6,24.3 L-28.5,-9.3 Z" fill="none" stroke="black" transform="translate(282.50381938765526,157.53711480963295) rotate(214.19378918697586) scale(0.44700834545423174)" /></g><g><path d="M-30,-20 h60 v40 h-60 Z" fill="none" stroke="black" transform="translate(106.49900320326243,160.30416711797974) rotate(247.04469372691185) scale(1.3253687729256292)" /><path d="M-30,-20 h60 v40 h-60 Z" fill="none" stroke="black" transform="translate(106.49900320326243,160.30416711797974) rotate(247.04469372691185) scale(0.9277581410479403)" /></g><path d="M0.0,-30.0 L8.8,-12.1 L28.5,-9.3 L14.3,4.6 L17.6,24.3 L0.0,15.0 L-17.6,24.3 L-14.3,4.6 L-28.5,-9.3 L-8.8,-12.1 Z" fill="none" stroke="black" transform="translate(155.03826030872517,215.64400421003407) rotate(326.29133689038383) scale(1.3012819553986503)" /><g><path d="M0.0,-30.0 L8.8,-12.1 L28.5,-9.3 L14.3,4.6 L17.6,24.3 L0.0,15.0 L-17.6,24.3 L-14.3,4.6 L-28.5,-9.3 L-8.8,-12.1 Z" fill="none" stroke="black" transform="translate(175.38077347103462,121.96564541816275) rotate(338.36693038197376) scale(1.5187353443764318)" /><path d="M0.0,-30.0 L8.8,-12.1 L28.5,-9.3 L14.3,4.6 L17.6,24.3 L0.0,15.0 L-17.6,24.3 L-14.3,4.6 L-28.5,-9.3 L-8.8,-12.1 Z" fill="none" stroke="black" transform="translate(175.38077347103462,121.96564541816275) rotate(338.36693038197376) scale(1.0631147410635022)" /><path d="M0.0,-30.0 L8.8,-12.1 L28.5,-9.3 L14.3,4.6 L17.6,24.3 L0.0,15.0 L-17.6,24.3 L-14.3,4.6 L-28.5,-9.3 L-8.8,-12.1 Z" fill="none" stroke="black" transform="translate(175.38077347103462,121.96564541816275) rotate(338.36693038197376) scale(0.6074941377505727)" /></g><path d="M27.7,-11.5 L27.7,11.5 L11.5,27.7 L-11.5,27.7 L-27.7,11.5 L-27.7,-11.5 L-11.5,-27.7 L11.5,-27.7 Z" fill="none" stroke="black" transform="translate(81.57699097027677,285.297392202877) rotate(47.60858314652321) scale(0.9167735307551128)" /><path d="M27.7,-11.5 L27.7,11.5 L11.5,27.7 L-11.5,27.7 L-27.7,11.5 L-27.7,-11.5 L-11.5,-27.7 L11.5,-27.7 Z" fill="none" stroke="black" transform="translate(101.87483874248976,308.16446308020846) rotate(55.23443442676662) scale(1.0434638047480265)" /><path d="M27.7,-11.5 L27.7,11.5 L11.5,27.7 L-11.5,27.7 L-27.7,11.5 L-27.7,-11.5 L-11.5,-27.7 L11.5,-27.7 Z" fill="none" stroke="black" transform="translate(328.332858931249,120.55477034962033) rotate(306.8628358111755) scale(0.9142297341331259)" /><path d="M27.7,-11.5 L27.7,11.5 L11.5,27.7 L-11.5,27.7 L-27.7,11.5 L-27.7,-11.5 L-11.5,-27.7 L11.5,-27.7 Z" fill="none" stroke="black" transform="translate(246.13969540140027,266.1597521655719) rotate(167.19885939428815) scale(1.240890996205926)" /><g><path d="M27.7,-11.5 L27.7,11.5 L11.5,27.7 L-11.5,27.7 L-27.7,11.5 L-27.7,-11.5 L-11.5,-27.7 L11.5,-27.7 Z" fill="none" stroke="black" transform="translate(110.48195514365912,218.12841905233176) rotate(119.08381541896296) scale(0.8763015556071342)" /><path d="M27.7,-11.5 L27.7,11.5 L11.5,27.7 L-11.5,27.7 L-27.7,11.5 L-27.7,-11.5 L-11.5,-27.7 L11.5,-27.7 Z" fill="none" stroke="black" transform="translate(110.48195514365912,218.12841905233176) rotate(119.08381541896296) scale(0.6134110889249939)" /></g><path d="M27.7,-11.5 L27.7,11.5 L11.5,27.7 L-11.5,27.7 L-27.7,11.5 L-27.7,-11.5 L-11.5,-27.7 L11.5,-27.7 Z" fill="none" stroke="black" transform="translate(76.68380741177016,127.60381903947433) rotate(59.08082321662578) scale(1.0370957820825724)" /><path d="M30,0 L15,-26 L-15,-26 L-30,0 L-15,26 L15,26 Z" fill="none" stroke="black" transform="translate(292.4630468838003,294.66815741406776) rotate(149.9618387042456) scale(1.0615973975879978)" /><path d="M30,0 L15,-26 L-15,-26 L-30,0 L-15,26 L15,26 Z" fill="none" stroke="black" transform="translate(169.5625451570308,303.5090468436212) rotate(102.2154617920508) scale(1.3268022110059206)" /><path d="M0,0 m-30,0 a30,30 0 1,0 60,0 a30,30 0 1,0 -60,0" fill="none" stroke="black" transform="translate(115.99816007596155,92.01142600183854) rotate(116.35344985307734) scale(1.2043674509277287)" /></svg>