<svg baseProfile="full" height="400" version="1.1" width="400" xmlns="http://www.w3.org/2000/svg" xmlns:ev="http://www.w3.org/2001/xml-events" xmlns:xlink="http://www.w3.org/1999/xlink"><defs /><rect fill="white" height="100%" width="100%" x="0" y="0" /><path d="M0.0,-30.0 L28.5,-9.3 L17.6,24.3 L-17.6,24.3 L-28.5,-9.3 Z" fill="none" stroke="black" transform="translate(240.21796511247442,233.0100243208537) rotate(170.74579976306194) scale(1.8384361123955166)" /><g><path d="M0.0,-30.0 L28.5,-9.3 L17.6,24.3 L-17.6,24.3 L-28.5,-9.3 Z" fill="none" stroke="black" transform="translate(251.7862142570692,142.41496065022343) rotate(251.11034058912605) scale(0.8926999158892115)" /><path d="M0.0,-30.0 L28.5,-9.3 L17.6,24.3 L-17.6,24.3 L-28.5,-9.3 Z" fill="none" stroke="black" transform="translate(251.7862142570692,142.41496065022343) rotate(251.11034058912605) scale(0.624889941122448)" /><path d="M0.0,-30.0 L28.5,-9.3 L17.6,24.3 L-17.6,24.3 L-28.5,-9.3 Z" fill="none" stroke="black" transform="translate(251.7862142570692,142.41496065022343) rotate(251.11034058912605) scale(0.3570799663556846)" /></g><g><path d="M0,0 m-30,0 a30,30 0 1,0 60,0 a30,30 0 1,0 -60,0" fill="none" stroke="black" transform="translate(115.3124899045064,286.3077475110234) rotate(79.0903795559607) scale(1.4910705179681907)" /><path d="M0,0 m-30,0 a30,30 0 1,0 60,0 a30,30 0 1,0 -60,0" fill="none" stroke="black" transform="translate(115.3124899045064,286.3077475110234) rotate(79.0903795559607) scale(1.0437493625777334)" /></g><g><path d="M0,0 m-30,0 a30,30 0 1,0 60,0 a30,30 0 1,0 -60,0" fill="none" stroke="black" transform="translate(177.3020801935953,155.92669249834233) rotate(58.78518104781688) scale(1.7350674567779347)" /><path d="M0,0 m-30,0 a30,30 0 1,0 60,0 a30,30 0 1,0 -60,0" fill="none" stroke="black" transform="translate(177.3020801935953,155.92669249834233) rotate(58.78518104781688) scale(1.2145472197445542)" /><path d="M0,0 m-30,0 a30,30 0 1,0 60,0 a30,30 0 1,0 -60,0" fill="none" stroke="black" transform="translate(177.3020801935953,155.92669249834233) rotate(58.78518104781688) scale(0.6940269827111739)" /></g><g><path d="M0,0 m-30,0 a30,30 0 1,0 60,0 a30,30 0 1,0 -60,0" fill="none" stroke="black" transform="translate(95.0607815829674,247.4638043716834) rotate(246.2114500955396) scale(0.9370968830697916)" /><path d="M0,0 m-30,0 a30,30 0 1,0 60,0 a30,30 0 1,0 -60,0" fill="none" stroke="black" transform="translate(95.0607815829674,247.4638043716834) rotate(246.2114500955396) scale(0.6559678181488541)" /><path d="M0,0 m-30,0 a30,30 0 1,0 60,0 a30,30 0 1,0 -60,0" fill="none" stroke="black" transform="translate(95.0607815829674,247.4638043716834) rotate(246.2114500955396) scale(0.37483875322791665)" /></g><g><path d="M-30,-20 h60 v40 h-60 Z" fill="none" stroke="black" transform="translate(118.97061520691955,176.2287371281074) rotate(240.77419568255806) scale(1.3824194498528781)" /><path d="M-30,-20 h60 v40 h-60 Z" fill="none" stroke="black" transform="translate(118.97061520691955,176.2287371281074) rotate(240.77419568255806) scale(0.9676936148970147)" /></g><path d="M0,-30 L30,30 L-30,30 Z" fill="none" stroke="black" transform="translate(193.28768681108684,67.57526539082785) rotate(1.299135538186711) scale(0.8332980666200357)" /><path d="M0,-30 L30,30 L-30,30 Z" fill="none" stroke="black" transform="translate(134.8564346555437,112.5510876268674) rotate(323.75561916147603) scale(0.9044820996017929)" /><path d="M0,-30 L30,30 L-30,30 Z" fill="none" stroke="black" transform="translate(235.40529491051944,111.16046957981858) rotate(233.02168063223024) scale(1.234165680422433)" /><path d="M30,0 L15,-26 L-15,-26 L-30,0 L-15,26 L15,26 Z" fill="none" stroke="black" transform="translate(280.46218718979964,162.67039372902332) rotate(177.78294537228277) scale(0.8077135249124933)" /><path d="M30,0 L15,-26 L-15,-26 L-30,0 L-15,26 L15,26 Z" fill="none" stroke="black" transform="translate(303.37521725435215,119.5096504787709) rotate(42.758187231633414) scale(1.1922601422377508)" /><g><path d="M30,0 L15,-26 L-15,-26 L-30,0 L-15,26 L15,26 Z" fill="none" stroke="black" transform="translate(82.56121065662605,132.2379692687514) rotate(102.07372479325589) scale(1.0835897556960727)" /><path d="M30,0 L15,-26 L-15,-26 L-30,0 L-15,26 L15,26 Z" fill="none" stroke="black" transform="translate(82.56121065662605,132.2379692687514) rotate(102.07372479325589) scale(0.7585128289872509)" /><path d="M30,0 L15,-26 L-15,-26 L-30,0 L-15,26 L15,26 Z" fill="none" stroke="black" transform="translate(82.56121065662605,132.2379692687514) rotate(102.07372479325589) scale(0.4334359022784291)" /></g><path d="M27.7,-11.5 L27.7,11.5 L11.5,27.7 L-11.5,27.7 L-27.7,11.5 L-27.7,-11.5 L-11.5,-27.7 L11.5,-27.7 Z" fill="none" stroke="black" transform="translate(172.00399304879255,225.54185847857582) rotate(32.98221862334391) scale(0.9230648423412481)" /><path d="M27.7,-11.5 L27.7,11.5 L11.5,27.7 L-11.5,27.7 L-27.7,11.5 L-27.7,-11.5 L-11.5,-27.7 L11.5,-27.7 Z" fill="none" stroke="black" transform="translate(67.0809906082436,223.17180090684386) rotate(190.2781530970453) scale(0.9159674297955747)" /><path d="M0.0,-30.0 L8.8,-12.1 L28.5,-9.3 L14.3,4.6 L17.6,24.3 L0.0,15.0 L-17.6,24.3 L-14.3,4.6 L-28.5,-9.3 L-8.8,-12.1 Z" fill="none" stroke="black" transform="translate(315.5092816320465,332.3147811832464) rotate(219.16570751728366) scale(0.8938283601858039)" /><g><path d="M0.0,-30.0 L8.8,-12.1 L28.5,-9.3 L14.3,4.6 L17.6,24.3 L0.0,15.0 L-17.6,24.3 L-14.3,4.6 L-28.5,-9.3 L-8.8,-12.1 Z" fill="none" stroke="black" transform="translate(295.72813124068205,81.57963693156853) rotate(42.279732292567424) scale(1.0355549218195075)" /><path d="M0.0,-30.0 L8.8,-12.1 L28.5,-9.3 L14.3,4.6 L17.6,24.3 L0.0,15.0 L-17.6,24.3 L-14.3,4.6 L-28.5,-9.3 L-8.8,-12.1 Z" fill="none" stroke="black" transform="translate(295.72813124068205,81.57963693156853) rotate(42.279732292567424) scale(0.7248884452736551)" /></g><g><path d="M0.0,-30.0 L8.8,-12.1 L28.5,-9.3 L14.3,4.6 L17.6,24.3 L0.0,15.0 L-17.6,24.3 L-14.3,4.6 L-28.5,-9.3 L-8.8,-12.1 Z" fill="none" stroke="black" transform="translate(162.856733170919,318.2408397585647) rotate(74.42121528872822) scale(0.8424887119829655)" /><path d="M0.0,-30.0 L8.8,-12.1 L28.5,-9.3 L14.3,4.6 L17.6,24.3 L0.0,15.0 L-17.6,24.3 L-14.3,4.6 L-28.5,-9.3 L-8.8,-12.1 Z" fill="none" stroke="black" transform="translate(162.856733170919,318.2408397585647) rotate(74.42121528872822) scale(0.5897420983880758)" /><path d="M0.0,-30.0 L8.8,-12.1 L28.5,-9.3 L14.3,4.6 L17.6,24.3 L0.0,15.0 L-17.6,24.3 L-14.3,4.6 L-28.5,-9.3 L-8.8,-12.1 Z" fill="none" stroke="black" transform="translate(162.856733170919,318.2408397585647) rotate(74.42121528872822) scale(0.3369954847931862)" /></g></svg>