<svg baseProfile="full" height="400" version="1.1" width="400" xmlns="http://www.w3.org/2000/svg" xmlns:ev="http://www.w3.org/2001/xml-events" xmlns:xlink="http://www.w3.org/1999/xlink"><defs /><rect fill="white" height="100%" width="100%" x="0" y="0" /><g><path d="M0,-30 L30,30 L-30,30 Z" fill="none" stroke="black" transform="translate(219.66578272983992,216.2000513223373) rotate(101.1905520340767) scale(1.7946833583100852)" /><path d="M0,-30 L30,30 L-30,30 Z" fill="none" stroke="black" transform="translate(219.66578272983992,216.2000513223373) rotate(101.1905520340767) scale(1.2562783508170596)" /></g><path d="M0,-30 L30,30 L-30,30 Z" fill="none" stroke="black" transform="translate(170.53864464112218,139.93905639271077) rotate(70.91640412850298) scale(1.4519175532525563)" /><path d="M0,-30 L30,30 L-30,30 Z" fill="none" stroke="black" transform="translate(296.5191107887372,328.4093707698956) rotate(221.90139634039554) scale(0.8008766015291877)" /><path d="M0,-30 L30,30 L-30,30 Z" fill="none" stroke="black" transform="translate(288.2719077988905,178.20157633331723) rotate(103.15025686121112) scale(1.0962049351306726)" /><g><path d="M0,-30 L30,30 L-30,30 Z" fill="none" stroke="black" transform="translate(226.63945836907868,97.30197131723067) rotate(21.738546187357784) scale(0.8389471160262729)" /><path d="M0,-30 L30,30 L-30,30 Z" fill="none" stroke="black" transform="translate(226.63945836907868,97.30197131723067) rotate(21.738546187357784) scale(0.587262981218391)" /></g><path d="M0,-30 L30,30 L-30,30 Z" fill="none" stroke="black" transform="translate(217.00740000347622,280.5674518141848) rotate(119.52013625224608) scale(0.9391964511756988)" /><path d="M0,-30 L30,30 L-30,30 Z" fill="none" stroke="black" transform="translate(272.8303249139593,257.3235724091211) rotate(184.50163184237977) scale(1.3215333297700202)" /><g><path d="M0,-30 L30,30 L-30,30 Z" fill="none" stroke="black" transform="translate(282.662622325227,91.65654795153267) rotate(73.28218592423548) scale(1.0840124171349446)" /><path d="M0,-30 L30,30 L-30,30 Z" fill="none" stroke="black" transform="translate(282.662622325227,91.65654795153267) rotate(73.28218592423548) scale(0.7588086919944611)" /><path d="M0,-30 L30,30 L-30,30 Z" fill="none" stroke="black" transform="translate(282.662622325227,91.65654795153267) rotate(73.28218592423548) scale(0.43360496685397787)" /></g><g><path d="M30,0 L15,-26 L-15,-26 L-30,0 L-15,26 L15,26 Z" fill="none" stroke="black" transform="translate(107.68761058664741,220.0590107246965) rotate(321.8124948745921) scale(1.3237043280849985)" /><path d="M30,0 L15,-26 L-15,-26 L-30,0 L-15,26 L15,26 Z" fill="none" stroke="black" transform="translate(107.68761058664741,220.0590107246965) rotate(321.8124948745921) scale(0.9265930296594989)" /><path d="M30,0 L15,-26 L-15,-26 L-30,0 L-15,26 L15,26 Z" fill="none" stroke="black" transform="translate(107.68761058664741,220.0590107246965) rotate(321.8124948745921) scale(0.5294817312339994)" /></g><path d="M30,0 L15,-26 L-15,-26 L-30,0 L-15,26 L15,26 Z" fill="none" stroke="black" transform="translate(267.1171265626928,301.11044758498315) rotate(58.68155220626114) scale(0.8014303901526351)" /><g><path d="M30,0 L15,-26 L-15,-26 L-30,0 L-15,26 L15,26 Z" fill="none" stroke="black" transform="translate(187.21765000483288,69.90500460722737) rotate(210.95066903114133) scale(0.9486641684723675)" /><path d="M30,0 L15,-26 L-15,-26 L-30,0 L-15,26 L15,26 Z" fill="none" stroke="black" transform="translate(187.21765000483288,69.90500460722737) rotate(210.95066903114133) scale(0.6640649179306571)" /><path d="M30,0 L15,-26 L-15,-26 L-30,0 L-15,26 L15,26 Z" fill="none" stroke="black" transform="translate(187.21765000483288,69.90500460722737) rotate(210.95066903114133) scale(0.379465667388947)" /></g><path d="M30,0 L15,-26 L-15,-26 L-30,0 L-15,26 L15,26 Z" fill="none" stroke="black" transform="translate(332.1846967950909,218.38440103428042) rotate(327.65516454689464) scale(0.9363092218452649)" /><g><path d="M30,0 L15,-26 L-15,-26 L-30,0 L-15,26 L15,26 Z" fill="none" stroke="black" transform="translate(73.37195714763173,287.8946779966513) rotate(305.7932539743891) scale(0.8840043932491791)" /><path d="M30,0 L15,-26 L-15,-26 L-30,0 L-15,26 L15,26 Z" fill="none" stroke="black" transform="translate(73.37195714763173,287.8946779966513) rotate(305.7932539743891) scale(0.6188030752744254)" /><path d="M30,0 L15,-26 L-15,-26 L-30,0 L-15,26 L15,26 Z" fill="none" stroke="black" transform="translate(73.37195714763173,287.8946779966513) rotate(305.7932539743891) scale(0.3536017572996717)" /></g><path d="M0.0,-30.0 L28.5,-9.3 L17.6,24.3 L-17.6,24.3 L-28.5,-9.3 Z" fill="none" stroke="black" transform="translate(92.44559334054213,123.56478520821108) rotate(285.87065771444503) scale(0.9864449024916478)" /><g><path d="M0.0,-30.0 L28.5,-9.3 L17.6,24.3 L-17.6,24.3 L-28.5,-9.3 Z" fill="none" stroke="black" transform="translate(101.54818822860722,332.94330779280176) rotate(131.61126923594443) scale(0.8137272907891612)" /><path d="M0.0,-30.0 L28.5,-9.3 L17.6,24.3 L-17.6,24.3 L-28.5,-9.3 Z" fill="none" stroke="black" transform="translate(101.54818822860722,332.94330779280176) rotate(131.61126923594443) scale(0.5696091035524128)" /></g><g><path d="M0.0,-30.0 L28.5,-9.3 L17.6,24.3 L-17.6,24.3 L-28.5,-9.3 Z" fill="none" stroke="black" transform="translate(277.35317940037237,135.43557546934537) rotate(173.57119244458195) scale(1.261048216585405)" /><path d="M0.0,-30.0 L28.5,-9.3 L17.6,24.3 L-17.6,24.3 L-28.5,-9.3 Z" fill="none" stroke="black" transform="translate(277.35317940037237,135.43557546934537) rotate(173.57119244458195) scale(0.8827337516097834)" /></g><path d="M0.0,-30.0 L28.5,-9.3 L17.6,24.3 L-17.6,24.3 L-28.5,-9.3 Z" fill="none" stroke="black" transform="translate(149.61576567963567,207.42188393543768) rotate(150.48854573282728) scale(1.1779592364247904)" /><g><path d="M0.0,-30.0 L28.5,-9.3 L17.6,24.3 L-17.6,24.3 L-28.5,-9.3 Z" fill="none" stroke="black" transform="translate(168.87990537586867,277.6930169306869) rotate(114.37786475052346) scale(1.3154215838206247)" /><path d="M0.0,-30.0 L28.5,-9.3 L17.6,24.3 L-17.6,24.3 L-28.5,-9.3 Z" fill="none" stroke="black" transform="translate(168.87990537586867,277.6930169306869) rotate(114.37786475052346) scale(0.9207951086744373)" /></g><g><path d="M0.0,-30.0 L28.5,-9.3 L17.6,24.3 L-17.6,24.3 L-28.5,-9.3 Z" fill="none" stroke="black" transform="translate(158.01948391919257,310.04143989805056) rotate(131.18904028003476) scale(0.879460927419446)" /><path d="M0.0,-30.0 L28.5,-9.3 L17.6,24.3 L-17.6,24.3 L-28.5,-9.3 Z" fill="none" stroke="black" transform="translate(158.01948391919257,310.04143989805056) rotate(131.18904028003476) scale(0.6156226491936122)" /><path d="M0.0,-30.0 L28.5,-9.3 L17.6,24.3 L-17.6,24.3 L-28.5,-9.3 Z" fill="none" stroke="black" transform="translate(158.01948391919257,310.04143989805056) rotate(131.18904028003476) scale(0.3517843709677784)" /></g><path d="M0.0,-30.0 L28.5,-9.3 L17.6,24.3 L-17.6,24.3 L-28.5,-9.3 Z" fill="none" stroke="black" transform="translate(67.31758511224213,311.2334896666416) rotate(2.6183747760914056) scale(0.8259311821503323)" /></svg>