<svg baseProfile="full" height="400" version="1.1" width="400" xmlns="http://www.w3.org/2000/svg" xmlns:ev="http://www.w3.org/2001/xml-events" xmlns:xlink="http://www.w3.org/1999/xlink"><defs /><rect fill="white" height="100%" width="100%" x="0" y="0" /><path d="M-30,-20 h60 v40 h-60 Z" fill="none" stroke="black" transform="translate(193.24783506389443,129.9760177983324) rotate(258.71276363449516) scale(1.3608980693519097)" /><path d="M30,0 L15,-26 L-15,-26 L-30,0 L-15,26 L15,26 Z" fill="none" stroke="black" transform="translate(272.08850861518704,116.2315611601351) rotate(209.1726013052722) scale(0.9861187580981716)" /><path d="M30,0 L15,-26 L-15,-26 L-30,0 L-15,26 L15,26 Z" fill="none" stroke="black" transform="translate(136.07171609899024,207.61859863019401) rotate(298.54365772822365) scale(0.9229482773964075)" /><path d="M30,0 L15,-26 L-15,-26 L-30,0 L-15,26 L15,26 Z" fill="none" stroke="black" transform="translate(126.61526880385941,303.0776116351538) rotate(28.011690231990976) scale(1.287365318744137)" /><g><path d="M30,0 L15,-26 L-15,-26 L-30,0 L-15,26 L15,26 Z" fill="none" stroke="black" transform="translate(96.08211139592015,125.2902306963681) rotate(166.85815561646328) scale(1.060733550392566)" /><path d="M30,0 L15,-26 L-15,-26 L-30,0 L-15,26 L15,26 Z" fill="none" stroke="black" transform="translate(96.08211139592015,125.2902306963681) rotate(166.85815561646328) scale(0.7425134852747961)" /><path d="M30,0 L15,-26 L-15,-26 L-30,0 L-15,26 L15,26 Z" fill="none" stroke="black" transform="translate(96.08211139592015,125.2902306963681) rotate(166.85815561646328) scale(0.42429342015702637)" /></g><g><path d="M30,0 L15,-26 L-15,-26 L-30,0 L-15,26 L15,26 Z" fill="none" stroke="black" transform="translate(270.5150199119269,269.5949648584377) rotate(303.03972108083605) scale(1.650680812538514)" /><path d="M30,0 L15,-26 L-15,-26 L-30,0 L-15,26 L15,26 Z" fill="none" stroke="black" transform="translate(270.5150199119269,269.5949648584377) rotate(303.03972108083605) scale(1.1554765687769597)" /></g><path d="M0,-30 L30,30 L-30,30 Z" fill="none" stroke="black" transform="translate(134.31996106300272,86.93369095366546) rotate(279.000478831294) scale(0.9041261871645763)" /><g><path d="M0,-30 L30,30 L-30,30 Z" fill="none" stroke="black" transform="translate(298.34550810589076,153.18356341344486) rotate(292.40612731309244) scale(1.2201667856251217)" /><path d="M0,-30 L30,30 L-30,30 Z" fill="none" stroke="black" transform="translate(298.34550810589076,153.18356341344486) rotate(292.40612731309244) scale(0.8541167499375851)" /></g></svg>