<svg baseProfile="full" height="400" version="1.1" width="400" xmlns="http://www.w3.org/2000/svg" xmlns:ev="http://www.w3.org/2001/xml-events" xmlns:xlink="http://www.w3.org/1999/xlink"><defs /><rect fill="white" height="100%" width="100%" x="0" y="0" /><g><path d="M0.0,-30.0 L8.8,-12.1 L28.5,-9.3 L14.3,4.6 L17.6,24.3 L0.0,15.0 L-17.6,24.3 L-14.3,4.6 L-28.5,-9.3 L-8.8,-12.1 Z" fill="none" stroke="black" transform="translate(242.01358670346139,242.45265664770284) rotate(315.25206866886975) scale(1.7951721739755835)" /><path d="M0.0,-30.0 L8.8,-12.1 L28.5,-9.3 L14.3,4.6 L17.6,24.3 L0.0,15.0 L-17.6,24.3 L-14.3,4.6 L-28.5,-9.3 L-8.8,-12.1 Z" fill="none" stroke="black" transform="translate(242.01358670346139,242.45265664770284) rotate(315.25206866886975) scale(1.2566205217829083)" /><path d="M0.0,-30.0 L8.8,-12.1 L28.5,-9.3 L14.3,4.6 L17.6,24.3 L0.0,15.0 L-17.6,24.3 L-14.3,4.6 L-28.5,-9.3 L-8.8,-12.1 Z" fill="none" stroke="black" transform="translate(242.01358670346139,242.45265664770284) rotate(315.25206866886975) scale(0.7180688695902334)" /></g><path d="M0.0,-30.0 L8.8,-12.1 L28.5,-9.3 L14.3,4.6 L17.6,24.3 L0.0,15.0 L-17.6,24.3 L-14.3,4.6 L-28.5,-9.3 L-8.8,-12.1 Z" fill="none" stroke="black" transform="translate(78.7565688500606,145.66917198525897) rotate(255.34281768874504) scale(0.9593348080247475)" /><path d="M0.0,-30.0 L8.8,-12.1 L28.5,-9.3 L14.3,4.6 L17.6,24.3 L0.0,15.0 L-17.6,24.3 L-14.3,4.6 L-28.5,-9.3 L-8.8,-12.1 Z" fill="none" stroke="black" transform="translate(133.56332152356734,210.6423226480331) rotate(11.261580726747923) scale(0.9802794135405789)" /><g><path d="M0.0,-30.0 L8.8,-12.1 L28.5,-9.3 L14.3,4.6 L17.6,24.3 L0.0,15.0 L-17.6,24.3 L-14.3,4.6 L-28.5,-9.3 L-8.8,-12.1 Z" fill="none" stroke="black" transform="translate(75.41623879794281,308.5254414782353) rotate(243.82868913227713) scale(0.8213893456019297)" /><path d="M0.0,-30.0 L8.8,-12.1 L28.5,-9.3 L14.3,4.6 L17.6,24.3 L0.0,15.0 L-17.6,24.3 L-14.3,4.6 L-28.5,-9.3 L-8.8,-12.1 Z" fill="none" stroke="black" transform="translate(75.41623879794281,308.5254414782353) rotate(243.82868913227713) scale(0.5749725419213507)" /><path d="M0.0,-30.0 L8.8,-12.1 L28.5,-9.3 L14.3,4.6 L17.6,24.3 L0.0,15.0 L-17.6,24.3 L-14.3,4.6 L-28.5,-9.3 L-8.8,-12.1 Z" fill="none" stroke="black" transform="translate(75.41623879794281,308.5254414782353) rotate(243.82868913227713) scale(0.3285557382407719)" /></g><path d="M-30,-20 h60 v40 h-60 Z" fill="none" stroke="black" transform="translate(189.7056178753828,154.31956848384337) rotate(219.4746360698014) scale(1.9715074165804234)" /><path d="M-30,-20 h60 v40 h-60 Z" fill="none" stroke="black" transform="translate(148.98137644115164,274.74044474906384) rotate(341.4490008002763) scale(1.5718423396947108)" /><path d="M-30,-20 h60 v40 h-60 Z" fill="none" stroke="black" transform="translate(232.6831203461897,100.06031945721459) rotate(343.29158704554237) scale(1.1196014252567166)" /><path d="M-30,-20 h60 v40 h-60 Z" fill="none" stroke="black" transform="translate(117.16570961882351,101.66701952007611) rotate(125.98171762387875) scale(1.3497128736204091)" /><g><path d="M27.7,-11.5 L27.7,11.5 L11.5,27.7 L-11.5,27.7 L-27.7,11.5 L-27.7,-11.5 L-11.5,-27.7 L11.5,-27.7 Z" fill="none" stroke="black" transform="translate(326.35202832839894,244.55461332519303) rotate(41.390848501942) scale(0.829000705466501)" /><path d="M27.7,-11.5 L27.7,11.5 L11.5,27.7 L-11.5,27.7 L-27.7,11.5 L-27.7,-11.5 L-11.5,-27.7 L11.5,-27.7 Z" fill="none" stroke="black" transform="translate(326.35202832839894,244.55461332519303) rotate(41.390848501942) scale(0.5803004938265506)" /></g><g><path d="M27.7,-11.5 L27.7,11.5 L11.5,27.7 L-11.5,27.7 L-27.7,11.5 L-27.7,-11.5 L-11.5,-27.7 L11.5,-27.7 Z" fill="none" stroke="black" transform="translate(95.45990733541306,229.73300789952089) rotate(161.20387200330092) scale(1.1345613376116337)" /><path d="M27.7,-11.5 L27.7,11.5 L11.5,27.7 L-11.5,27.7 L-27.7,11.5 L-27.7,-11.5 L-11.5,-27.7 L11.5,-27.7 Z" fill="none" stroke="black" transform="translate(95.45990733541306,229.73300789952089) rotate(161.20387200330092) scale(0.7941929363281436)" /><path d="M27.7,-11.5 L27.7,11.5 L11.5,27.7 L-11.5,27.7 L-27.7,11.5 L-27.7,-11.5 L-11.5,-27.7 L11.5,-27.7 Z" fill="none" stroke="black" transform="translate(95.45990733541306,229.73300789952089) rotate(161.20387200330092) scale(0.4538245350446535)" /></g><g><path d="M27.7,-11.5 L27.7,11.5 L11.5,27.7 L-11.5,27.7 L-27.7,11.5 L-27.7,-11.5 L-11.5,-27.7 L11.5,-27.7 Z" fill="none" stroke="black" transform="translate(214.27314776175473,73.97844324772554) rotate(101.45390218681143) scale(0.8586892346013693)" /><path d="M27.7,-11.5 L27.7,11.5 L11.5,27.7 L-11.5,27.7 L-27.7,11.5 L-27.7,-11.5 L-11.5,-27.7 L11.5,-27.7 Z" fill="none" stroke="black" transform="translate(214.27314776175473,73.97844324772554) rotate(101.45390218681143) scale(0.6010824642209585)" /><path d="M27.7,-11.5 L27.7,11.5 L11.5,27.7 L-11.5,27.7 L-27.7,11.5 L-27.7,-11.5 L-11.5,-27.7 L11.5,-27.7 Z" fill="none" stroke="black" transform="translate(214.27314776175473,73.97844324772554) rotate(101.45390218681143) scale(0.3434756938405477)" /></g><path d="M27.7,-11.5 L27.7,11.5 L11.5,27.7 L-11.5,27.7 L-27.7,11.5 L-27.7,-11.5 L-11.5,-27.7 L11.5,-27.7 Z" fill="none" stroke="black" transform="translate(75.41508570021429,75.75724725743788) rotate(175.106661684504) scale(1.027479316367396)" /><path d="M0.0,-30.0 L28.5,-9.3 L17.6,24.3 L-17.6,24.3 L-28.5,-9.3 Z" fill="none" stroke="black" transform="translate(223.2412599053576,307.9918826920866) rotate(255.5466621566773) scale(1.0090158991406368)" /><g><path d="M0.0,-30.0 L28.5,-9.3 L17.6,24.3 L-17.6,24.3 L-28.5,-9.3 Z" fill="none" stroke="black" transform="translate(301.7909861218671,311.3783092237429) rotate(326.58234418178614) scale(0.9700824239323007)" /><path d="M0.0,-30.0 L28.5,-9.3 L17.6,24.3 L-17.6,24.3 L-28.5,-9.3 Z" fill="none" stroke="black" transform="translate(301.7909861218671,311.3783092237429) rotate(326.58234418178614) scale(0.6790576967526104)" /></g><path d="M0.0,-30.0 L28.5,-9.3 L17.6,24.3 L-17.6,24.3 L-28.5,-9.3 Z" fill="none" stroke="black" transform="translate(305.4269594017959,92.49732257346983) rotate(247.65228205807176) scale(0.8799904381205201)" /><path d="M0.0,-30.0 L28.5,-9.3 L17.6,24.3 L-17.6,24.3 L-28.5,-9.3 Z" fill="none" stroke="black" transform="translate(284.1633850064804,136.4525888604804) rotate(98.85381791458894) scale(1.2377704035109525)" /><g><path d="M0,0 m-30,0 a30,30 0 1,0 60,0 a30,30 0 1,0 -60,0" fill="none" stroke="black" transform="translate(296.31488753543067,189.79306666725222) rotate(142.58205788962434) scale(1.2324068334070153)" /><path d="M0,0 m-30,0 a30,30 0 1,0 60,0 a30,30 0 1,0 -60,0" fill="none" stroke="black" transform="translate(296.31488753543067,189.79306666725222) rotate(142.58205788962434) scale(0.8626847833849106)" /></g><path d="M0,0 m-30,0 a30,30 0 1,0 60,0 a30,30 0 1,0 -60,0" fill="none" stroke="black" transform="translate(279.3600311168166,88.181038161208) rotate(82.99734017320529) scale(1.049499733139835)" /><path d="M0,0 m-30,0 a30,30 0 1,0 60,0 a30,30 0 1,0 -60,0" fill="none" stroke="black" transform="translate(180.56745463325734,81.50768672908994) rotate(36.533521674507995) scale(0.9273464184545327)" /><path d="M0,0 m-30,0 a30,30 0 1,0 60,0 a30,30 0 1,0 -60,0" fill="none" stroke="black" transform="translate(139.15320678925536,76.56940251552479) rotate(143.62275482506723) scale(0.8467901423484774)" /><g><path d="M0,0 m-30,0 a30,30 0 1,0 60,0 a30,30 0 1,0 -60,0" fill="none" stroke="black" transform="translate(269.6857223831075,310.35098465700594) rotate(178.30876251495783) scale(1.0387782703168373)" /><path d="M0,0 m-30,0 a30,30 0 1,0 60,0 a30,30 0 1,0 -60,0" fill="none" stroke="black" transform="translate(269.6857223831075,310.35098465700594) rotate(178.30876251495783) scale(0.727144789221786)" /><path d="M0,0 m-30,0 a30,30 0 1,0 60,0 a30,30 0 1,0 -60,0" fill="none" stroke="black" transform="translate(269.6857223831075,310.35098465700594) rotate(178.30876251495783) scale(0.415511308126735)" /></g><g><path d="M0,0 m-30,0 a30,30 0 1,0 60,0 a30,30 0 1,0 -60,0" fill="none" stroke="black" transform="translate(75.48270092686023,276.1283063865862) rotate(330.16516483896976) scale(0.8944657708931938)" /><path d="M0,0 m-30,0 a30,30 0 1,0 60,0 a30,30 0 1,0 -60,0" fill="none" stroke="black" transform="translate(75.48270092686023,276.1283063865862) rotate(330.16516483896976) scale(0.6261260396252356)" /></g><path d="M30,0 L15,-26 L-15,-26 L-30,0 L-15,26 L15,26 Z" fill="none" stroke="black" transform="translate(314.1818353681121,124.35645654950916) rotate(99.71286114148647) scale(0.9251743181432818)" /><path d="M30,0 L15,-26 L-15,-26 L-30,0 L-15,26 L15,26 Z" fill="none" stroke="black" transform="translate(197.34477555512785,272.53686406866433) rotate(2.366017637200133) scale(0.8569451703411912)" /><path d="M30,0 L15,-26 L-15,-26 L-30,0 L-15,26 L15,26 Z" fill="none" stroke="black" transform="translate(329.1776735060159,329.99793286878054) rotate(132.95712791657542) scale(0.8601832497524825)" /></svg>