<svg baseProfile="full" height="400" version="1.1" width="400" xmlns="http://www.w3.org/2000/svg" xmlns:ev="http://www.w3.org/2001/xml-events" xmlns:xlink="http://www.w3.org/1999/xlink"><defs /><rect fill="white" height="100%" width="100%" x="0" y="0" /><path d="M0,-30 L30,30 L-30,30 Z" fill="none" stroke="black" transform="translate(203.2060422009322,183.2289979502855) rotate(39.017892044878536) scale(1.795841018154543)" /><path d="M0,-30 L30,30 L-30,30 Z" fill="none" stroke="black" transform="translate(216.7382214982553,295.2150955782997) rotate(219.85017639765667) scale(1.4550592124047719)" /><path d="M0.0,-30.0 L8.8,-12.1 L28.5,-9.3 L14.3,4.6 L17.6,24.3 L0.0,15.0 L-17.6,24.3 L-14.3,4.6 L-28.5,-9.3 L-8.8,-12.1 Z" fill="none" stroke="black" transform="translate(271.2895478866159,101.14091941550421) rotate(348.47176852645765) scale(1.106075413057709)" /><path d="M0.0,-30.0 L8.8,-12.1 L28.5,-9.3 L14.3,4.6 L17.6,24.3 L0.0,15.0 L-17.6,24.3 L-14.3,4.6 L-28.5,-9.3 L-8.8,-12.1 Z" fill="none" stroke="black" transform="translate(151.34474130959842,223.25014021609314) rotate(207.7441653061927) scale(1.066348479026697)" /><g><path d="M0.0,-30.0 L8.8,-12.1 L28.5,-9.3 L14.3,4.6 L17.6,24.3 L0.0,15.0 L-17.6,24.3 L-14.3,4.6 L-28.5,-9.3 L-8.8,-12.1 Z" fill="none" stroke="black" transform="translate(270.90513609226025,241.10288040825117) rotate(133.3736453914416) scale(0.9193213820611514)" /><path d="M0.0,-30.0 L8.8,-12.1 L28.5,-9.3 L14.3,4.6 L17.6,24.3 L0.0,15.0 L-17.6,24.3 L-14.3,4.6 L-28.5,-9.3 L-8.8,-12.1 Z" fill="none" stroke="black" transform="translate(270.90513609226025,241.10288040825117) rotate(133.3736453914416) scale(0.643524967442806)" /></g><g><path d="M-30,-20 h60 v40 h-60 Z" fill="none" stroke="black" transform="translate(313.2363739833051,192.59127414279118) rotate(322.1432849540979) scale(1.0807932119580557)" /><path d="M-30,-20 h60 v40 h-60 Z" fill="none" stroke="black" transform="translate(313.2363739833051,192.59127414279118) rotate(322.1432849540979) scale(0.7565552483706389)" /><path d="M-30,-20 h60 v40 h-60 Z" fill="none" stroke="black" transform="translate(313.2363739833051,192.59127414279118) rotate(322.1432849540979) scale(0.4323172847832223)" /></g><g><path d="M-30,-20 h60 v40 h-60 Z" fill="none" stroke="black" transform="translate(111.02869841112002,284.33278182959504) rotate(281.83311410472515) scale(0.9760355888824679)" /><path d="M-30,-20 h60 v40 h-60 Z" fill="none" stroke="black" transform="translate(111.02869841112002,284.33278182959504) rotate(281.83311410472515) scale(0.6832249122177275)" /></g><g><path d="M-30,-20 h60 v40 h-60 Z" fill="none" stroke="black" transform="translate(323.71787927932417,275.433483155894) rotate(318.87531537005736) scale(0.9251636764832323)" /><path d="M-30,-20 h60 v40 h-60 Z" fill="none" stroke="black" transform="translate(323.71787927932417,275.433483155894) rotate(318.87531537005736) scale(0.6476145735382626)" /></g></svg>