<svg baseProfile="full" height="400" version="1.1" width="400" xmlns="http://www.w3.org/2000/svg" xmlns:ev="http://www.w3.org/2001/xml-events" xmlns:xlink="http://www.w3.org/1999/xlink"><defs /><rect fill="white" height="100%" width="100%" x="0" y="0" /><g><path d="M0,0 m-30,0 a30,30 0 1,0 60,0 a30,30 0 1,0 -60,0" fill="none" stroke="black" transform="translate(125.89841882084555,182.41366228369924) rotate(73.36413918524893) scale(1.5493769267791648)" /><path d="M0,0 m-30,0 a30,30 0 1,0 60,0 a30,30 0 1,0 -60,0" fill="none" stroke="black" transform="translate(125.89841882084555,182.41366228369924) rotate(73.36413918524893) scale(1.0845638487454152)" /></g><g><path d="M0,0 m-30,0 a30,30 0 1,0 60,0 a30,30 0 1,0 -60,0" fill="none" stroke="black" transform="translate(193.9048291220949,80.6369834833194) rotate(59.79652848480541) scale(0.8872831759449994)" /><path d="M0,0 m-30,0 a30,30 0 1,0 60,0 a30,30 0 1,0 -60,0" fill="none" stroke="black" transform="translate(193.9048291220949,80.6369834833194) rotate(59.79652848480541) scale(0.6210982231614995)" /><path d="M0,0 m-30,0 a30,30 0 1,0 60,0 a30,30 0 1,0 -60,0" fill="none" stroke="black" transform="translate(193.9048291220949,80.6369834833194) rotate(59.79652848480541) scale(0.3549132703779998)" /></g><path d="M0,0 m-30,0 a30,30 0 1,0 60,0 a30,30 0 1,0 -60,0" fill="none" stroke="black" transform="translate(210.66500879008615,201.75724412471098) rotate(147.85730741597848) scale(1.2720287809940944)" /><path d="M0,0 m-30,0 a30,30 0 1,0 60,0 a30,30 0 1,0 -60,0" fill="none" stroke="black" transform="translate(318.05206497209076,216.0563417581657) rotate(330.18401657331646) scale(1.1111174035989397)" /><path d="M0,0 m-30,0 a30,30 0 1,0 60,0 a30,30 0 1,0 -60,0" fill="none" stroke="black" transform="translate(131.45911475138894,102.28538578291456) rotate(83.03051462741067) scale(1.3254403169051514)" /><path d="M0,0 m-30,0 a30,30 0 1,0 60,0 a30,30 0 1,0 -60,0" fill="none" stroke="black" transform="translate(272.130673657086,245.5145432392022) rotate(230.00660048443515) scale(0.8197066660799057)" /><path d="M0,0 m-30,0 a30,30 0 1,0 60,0 a30,30 0 1,0 -60,0" fill="none" stroke="black" transform="translate(94.47276977727839,297.7144296928823) rotate(324.0947908257179) scale(1.116891070591226)" /><path d="M0,0 m-30,0 a30,30 0 1,0 60,0 a30,30 0 1,0 -60,0" fill="none" stroke="black" transform="translate(169.1110278633189,300.9557739492798) rotate(173.7858024258764) scale(1.2693087385954023)" /><path d="M0,0 m-30,0 a30,30 0 1,0 60,0 a30,30 0 1,0 -60,0" fill="none" stroke="black" transform="translate(239.56522309936327,124.61298713890204) rotate(69.56655780971676) scale(1.2475615169889256)" /><g><path d="M0,0 m-30,0 a30,30 0 1,0 60,0 a30,30 0 1,0 -60,0" fill="none" stroke="black" transform="translate(281.42336142243687,71.90081423126306) rotate(272.70932719506607) scale(0.9708446451310593)" /><path d="M0,0 m-30,0 a30,30 0 1,0 60,0 a30,30 0 1,0 -60,0" fill="none" stroke="black" transform="translate(281.42336142243687,71.90081423126306) rotate(272.70932719506607) scale(0.6795912515917415)" /></g><g><path d="M-30,-20 h60 v40 h-60 Z" fill="none" stroke="black" transform="translate(296.1412428191421,176.60545937211816) rotate(151.05556791003002) scale(0.989275532334533)" /><path d="M-30,-20 h60 v40 h-60 Z" fill="none" stroke="black" transform="translate(296.1412428191421,176.60545937211816) rotate(151.05556791003002) scale(0.692492872634173)" /></g><g><path d="M-30,-20 h60 v40 h-60 Z" fill="none" stroke="black" transform="translate(217.8442740361584,270.9454181812589) rotate(351.18646852998336) scale(1.0290671730932452)" /><path d="M-30,-20 h60 v40 h-60 Z" fill="none" stroke="black" transform="translate(217.8442740361584,270.9454181812589) rotate(351.18646852998336) scale(0.7203470211652716)" /><path d="M-30,-20 h60 v40 h-60 Z" fill="none" stroke="black" transform="translate(217.8442740361584,270.9454181812589) rotate(351.18646852998336) scale(0.41162686923729813)" /></g><g><path d="M-30,-20 h60 v40 h-60 Z" fill="none" stroke="black" transform="translate(67.54666348307818,93.77045318874559) rotate(294.18912319420315) scale(0.8984137444676619)" /><path d="M-30,-20 h60 v40 h-60 Z" fill="none" stroke="black" transform="translate(67.54666348307818,93.77045318874559) rotate(294.18912319420315) scale(0.6288896211273632)" /></g><g><path d="M-30,-20 h60 v40 h-60 Z" fill="none" stroke="black" transform="translate(71.55166214993584,248.2828683963328) rotate(244.35333906010771) scale(0.8575478689339465)" /><path d="M-30,-20 h60 v40 h-60 Z" fill="none" stroke="black" transform="translate(71.55166214993584,248.2828683963328) rotate(244.35333906010771) scale(0.6002835082537625)" /></g><path d="M-30,-20 h60 v40 h-60 Z" fill="none" stroke="black" transform="translate(341.2730992358595,323.8494050366782) rotate(334.46220616047964) scale(0.8133174985298492)" /><path d="M-30,-20 h60 v40 h-60 Z" fill="none" stroke="black" transform="translate(286.5977607553425,315.93038632718145) rotate(11.673958416067244) scale(1.0755114056418744)" /><path d="M30,0 L15,-26 L-15,-26 L-30,0 L-15,26 L15,26 Z" fill="none" stroke="black" transform="translate(61.89188176738566,180.55430373363316) rotate(355.697218688849) scale(0.8273472038254254)" /><path d="M30,0 L15,-26 L-15,-26 L-30,0 L-15,26 L15,26 Z" fill="none" stroke="black" transform="translate(241.0278105926222,322.8989398527261) rotate(272.51387174597903) scale(0.8495463680705111)" /></svg>