<svg baseProfile="full" height="400" version="1.1" width="400" xmlns="http://www.w3.org/2000/svg" xmlns:ev="http://www.w3.org/2001/xml-events" xmlns:xlink="http://www.w3.org/1999/xlink"><defs /><rect fill="white" height="100%" width="100%" x="0" y="0" /><path d="M30,0 L15,-26 L-15,-26 L-30,0 L-15,26 L15,26 Z" fill="none" stroke="black" transform="translate(243.6289287379753,233.9377660933583) rotate(142.77885094897005) scale(1.9002930721688214)" /><path d="M-30,-20 h60 v40 h-60 Z" fill="none" stroke="black" transform="translate(201.01519750263864,151.1085457942246) rotate(320.7667550832041) scale(1.601270078278789)" /><path d="M-30,-20 h60 v40 h-60 Z" fill="none" stroke="black" transform="translate(283.5484612674062,131.04440786733971) rotate(56.14328409050758) scale(1.289756344414918)" /><path d="M-30,-20 h60 v40 h-60 Z" fill="none" stroke="black" transform="translate(108.49098076645186,205.3087359258215) rotate(113.84107267643235) scale(0.8570531843528976)" /><path d="M-30,-20 h60 v40 h-60 Z" fill="none" stroke="black" transform="translate(130.0224849353442,120.1249226200919) rotate(206.2311733791994) scale(1.0585909568581662)" /><path d="M0.0,-30.0 L8.8,-12.1 L28.5,-9.3 L14.3,4.6 L17.6,24.3 L0.0,15.0 L-17.6,24.3 L-14.3,4.6 L-28.5,-9.3 L-8.8,-12.1 Z" fill="none" stroke="black" transform="translate(84.63253255730396,240.53550392122932) rotate(29.204631467822068) scale(1.1645383557865887)" /><g><path d="M0.0,-30.0 L8.8,-12.1 L28.5,-9.3 L14.3,4.6 L17.6,24.3 L0.0,15.0 L-17.6,24.3 L-14.3,4.6 L-28.5,-9.3 L-8.8,-12.1 Z" fill="none" stroke="black" transform="translate(94.35783670500564,99.42025548649252) rotate(126.38435380836204) scale(1.0304769891565653)" /><path d="M0.0,-30.0 L8.8,-12.1 L28.5,-9.3 L14.3,4.6 L17.6,24.3 L0.0,15.0 L-17.6,24.3 L-14.3,4.6 L-28.5,-9.3 L-8.8,-12.1 Z" fill="none" stroke="black" transform="translate(94.35783670500564,99.42025548649252) rotate(126.38435380836204) scale(0.7213338924095957)" /></g><path d="M0.0,-30.0 L8.8,-12.1 L28.5,-9.3 L14.3,4.6 L17.6,24.3 L0.0,15.0 L-17.6,24.3 L-14.3,4.6 L-28.5,-9.3 L-8.8,-12.1 Z" fill="none" stroke="black" transform="translate(157.61491067443694,318.9169645358995) rotate(324.21514050769315) scale(0.8233049758308586)" /><path d="M0.0,-30.0 L8.8,-12.1 L28.5,-9.3 L14.3,4.6 L17.6,24.3 L0.0,15.0 L-17.6,24.3 L-14.3,4.6 L-28.5,-9.3 L-8.8,-12.1 Z" fill="none" stroke="black" transform="translate(171.70997690254165,272.735822550289) rotate(120.25604090863149) scale(0.9679612284404879)" /><path d="M0.0,-30.0 L8.8,-12.1 L28.5,-9.3 L14.3,4.6 L17.6,24.3 L0.0,15.0 L-17.6,24.3 L-14.3,4.6 L-28.5,-9.3 L-8.8,-12.1 Z" fill="none" stroke="black" transform="translate(66.16314418120645,131.41660751847976) rotate(295.9913943552035) scale(0.8303507145917288)" /><g><path d="M0.0,-30.0 L8.8,-12.1 L28.5,-9.3 L14.3,4.6 L17.6,24.3 L0.0,15.0 L-17.6,24.3 L-14.3,4.6 L-28.5,-9.3 L-8.8,-12.1 Z" fill="none" stroke="black" transform="translate(312.2332802918287,278.03443926165755) rotate(312.3472417360328) scale(0.9071312986672151)" /><path d="M0.0,-30.0 L8.8,-12.1 L28.5,-9.3 L14.3,4.6 L17.6,24.3 L0.0,15.0 L-17.6,24.3 L-14.3,4.6 L-28.5,-9.3 L-8.8,-12.1 Z" fill="none" stroke="black" transform="translate(312.2332802918287,278.03443926165755) rotate(312.3472417360328) scale(0.6349919090670505)" /></g><path d="M0.0,-30.0 L8.8,-12.1 L28.5,-9.3 L14.3,4.6 L17.6,24.3 L0.0,15.0 L-17.6,24.3 L-14.3,4.6 L-28.5,-9.3 L-8.8,-12.1 Z" fill="none" stroke="black" transform="translate(134.58171917775562,239.02307598260063) rotate(10.500021339830386) scale(1.1089773821717581)" /><path d="M0,0 m-30,0 a30,30 0 1,0 60,0 a30,30 0 1,0 -60,0" fill="none" stroke="black" transform="translate(327.55650019529526,206.10146015001678) rotate(148.28690590705796) scale(0.9474024803848147)" /><g><path d="M27.7,-11.5 L27.7,11.5 L11.5,27.7 L-11.5,27.7 L-27.7,11.5 L-27.7,-11.5 L-11.5,-27.7 L11.5,-27.7 Z" fill="none" stroke="black" transform="translate(136.18533033217574,163.64114513300768) rotate(212.1211268490879) scale(1.020444641455058)" /><path d="M27.7,-11.5 L27.7,11.5 L11.5,27.7 L-11.5,27.7 L-27.7,11.5 L-27.7,-11.5 L-11.5,-27.7 L11.5,-27.7 Z" fill="none" stroke="black" transform="translate(136.18533033217574,163.64114513300768) rotate(212.1211268490879) scale(0.7143112490185406)" /><path d="M27.7,-11.5 L27.7,11.5 L11.5,27.7 L-11.5,27.7 L-27.7,11.5 L-27.7,-11.5 L-11.5,-27.7 L11.5,-27.7 Z" fill="none" stroke="black" transform="translate(136.18533033217574,163.64114513300768) rotate(212.1211268490879) scale(0.40817785658202327)" /></g><g><path d="M27.7,-11.5 L27.7,11.5 L11.5,27.7 L-11.5,27.7 L-27.7,11.5 L-27.7,-11.5 L-11.5,-27.7 L11.5,-27.7 Z" fill="none" stroke="black" transform="translate(331.11226218910963,327.20126603699464) rotate(24.462626221069343) scale(0.9070824239816714)" /><path d="M27.7,-11.5 L27.7,11.5 L11.5,27.7 L-11.5,27.7 L-27.7,11.5 L-27.7,-11.5 L-11.5,-27.7 L11.5,-27.7 Z" fill="none" stroke="black" transform="translate(331.11226218910963,327.20126603699464) rotate(24.462626221069343) scale(0.63495769678717)" /></g><g><path d="M27.7,-11.5 L27.7,11.5 L11.5,27.7 L-11.5,27.7 L-27.7,11.5 L-27.7,-11.5 L-11.5,-27.7 L11.5,-27.7 Z" fill="none" stroke="black" transform="translate(234.59301045467595,80.46308678394541) rotate(315.5865294958978) scale(0.8536277221496139)" /><path d="M27.7,-11.5 L27.7,11.5 L11.5,27.7 L-11.5,27.7 L-27.7,11.5 L-27.7,-11.5 L-11.5,-27.7 L11.5,-27.7 Z" fill="none" stroke="black" transform="translate(234.59301045467595,80.46308678394541) rotate(315.5865294958978) scale(0.5975394055047297)" /><path d="M27.7,-11.5 L27.7,11.5 L11.5,27.7 L-11.5,27.7 L-27.7,11.5 L-27.7,-11.5 L-11.5,-27.7 L11.5,-27.7 Z" fill="none" stroke="black" transform="translate(234.59301045467595,80.46308678394541) rotate(315.5865294958978) scale(0.3414510888598456)" /></g><path d="M27.7,-11.5 L27.7,11.5 L11.5,27.7 L-11.5,27.7 L-27.7,11.5 L-27.7,-11.5 L-11.5,-27.7 L11.5,-27.7 Z" fill="none" stroke="black" transform="translate(213.3536334822936,323.7800840777936) rotate(131.58542295869728) scale(0.8206465739755132)" /><path d="M27.7,-11.5 L27.7,11.5 L11.5,27.7 L-11.5,27.7 L-27.7,11.5 L-27.7,-11.5 L-11.5,-27.7 L11.5,-27.7 Z" fill="none" stroke="black" transform="translate(251.81155272862773,334.6718764213058) rotate(222.25151708712625) scale(0.8148783103902936)" /><path d="M27.7,-11.5 L27.7,11.5 L11.5,27.7 L-11.5,27.7 L-27.7,11.5 L-27.7,-11.5 L-11.5,-27.7 L11.5,-27.7 Z" fill="none" stroke="black" transform="translate(253.09003516829625,105.70407412346498) rotate(229.12934701144513) scale(0.8670056031732413)" /><path d="M27.7,-11.5 L27.7,11.5 L11.5,27.7 L-11.5,27.7 L-27.7,11.5 L-27.7,-11.5 L-11.5,-27.7 L11.5,-27.7 Z" fill="none" stroke="black" transform="translate(126.51203324535497,299.1523637217647) rotate(115.93745400672638) scale(1.080215570187972)" /><g><path d="M27.7,-11.5 L27.7,11.5 L11.5,27.7 L-11.5,27.7 L-27.7,11.5 L-27.7,-11.5 L-11.5,-27.7 L11.5,-27.7 Z" fill="none" stroke="black" transform="translate(161.3882419894315,201.4616016239923) rotate(203.69806237532254) scale(1.0200008144649082)" /><path d="M27.7,-11.5 L27.7,11.5 L11.5,27.7 L-11.5,27.7 L-27.7,11.5 L-27.7,-11.5 L-11.5,-27.7 L11.5,-27.7 Z" fill="none" stroke="black" transform="translate(161.3882419894315,201.4616016239923) rotate(203.69806237532254) scale(0.7140005701254357)" /><path d="M27.7,-11.5 L27.7,11.5 L11.5,27.7 L-11.5,27.7 L-27.7,11.5 L-27.7,-11.5 L-11.5,-27.7 L11.5,-27.7 Z" fill="none" stroke="black" transform="translate(161.3882419894315,201.4616016239923) rotate(203.69806237532254) scale(0.4080003257859633)" /></g><path d="M0.0,-30.0 L28.5,-9.3 L17.6,24.3 L-17.6,24.3 L-28.5,-9.3 Z" fill="none" stroke="black" transform="translate(169.05296038807467,90.1587256391867) rotate(28.612406050855732) scale(1.23293944323229)" /><path d="M0.0,-30.0 L28.5,-9.3 L17.6,24.3 L-17.6,24.3 L-28.5,-9.3 Z" fill="none" stroke="black" transform="translate(260.2092464418567,313.8978056819329) rotate(134.14276871669878) scale(0.8117877726516715)" /><path d="M0.0,-30.0 L28.5,-9.3 L17.6,24.3 L-17.6,24.3 L-28.5,-9.3 Z" fill="none" stroke="black" transform="translate(105.38802570983141,61.98157748628739) rotate(216.77962987720827) scale(0.8311791621728329)" /><path d="M0.0,-30.0 L28.5,-9.3 L17.6,24.3 L-17.6,24.3 L-28.5,-9.3 Z" fill="none" stroke="black" transform="translate(62.07432792326714,328.8253413880641) rotate(86.13759172524959) scale(0.8306263937264392)" /><path d="M0.0,-30.0 L28.5,-9.3 L17.6,24.3 L-17.6,24.3 L-28.5,-9.3 Z" fill="none" stroke="black" transform="translate(67.85263097211926,285.7126280228463) rotate(224.56460636014023) scale(0.9061350477594188)" /><g><path d="M0.0,-30.0 L28.5,-9.3 L17.6,24.3 L-17.6,24.3 L-28.5,-9.3 Z" fill="none" stroke="black" transform="translate(67.40647136160008,185.00438348809917) rotate(25.340696494616562) scale(0.9041390260816854)" /><path d="M0.0,-30.0 L28.5,-9.3 L17.6,24.3 L-17.6,24.3 L-28.5,-9.3 Z" fill="none" stroke="black" transform="translate(67.40647136160008,185.00438348809917) rotate(25.340696494616562) scale(0.6328973182571798)" /><path d="M0.0,-30.0 L28.5,-9.3 L17.6,24.3 L-17.6,24.3 L-28.5,-9.3 Z" fill="none" stroke="black" transform="translate(67.40647136160008,185.00438348809917) rotate(25.340696494616562) scale(0.3616556104326742)" /></g><path d="M0.0,-30.0 L28.5,-9.3 L17.6,24.3 L-17.6,24.3 L-28.5,-9.3 Z" fill="none" stroke="black" transform="translate(331.80878768856405,124.23516881729424) rotate(309.82686924388804) scale(0.9152066701691857)" /><path d="M0,-30 L30,30 L-30,30 Z" fill="none" stroke="black" transform="translate(300.84258468364516,178.17141147494294) rotate(147.9090603925558) scale(1.2286535137876196)" /></svg>