<svg baseProfile="full" height="400" version="1.1" width="400" xmlns="http://www.w3.org/2000/svg" xmlns:ev="http://www.w3.org/2001/xml-events" xmlns:xlink="http://www.w3.org/1999/xlink"><defs /><rect fill="white" height="100%" width="100%" x="0" y="0" /><g><path d="M-30,-20 h60 v40 h-60 Z" fill="none" stroke="black" transform="translate(239.87958937685295,255.60975393299066) rotate(186.63822608626356) scale(1.900606031473753)" /><path d="M-30,-20 h60 v40 h-60 Z" fill="none" stroke="black" transform="translate(239.87958937685295,255.60975393299066) rotate(186.63822608626356) scale(1.330424222031627)" /></g><path d="M0.0,-30.0 L8.8,-12.1 L28.5,-9.3 L14.3,4.6 L17.6,24.3 L0.0,15.0 L-17.6,24.3 L-14.3,4.6 L-28.5,-9.3 L-8.8,-12.1 Z" fill="none" stroke="black" transform="translate(162.8236065360024,170.19205237758956) rotate(243.93854080882838) scale(1.8615968094433721)" /><g><path d="M0.0,-30.0 L8.8,-12.1 L28.5,-9.3 L14.3,4.6 L17.6,24.3 L0.0,15.0 L-17.6,24.3 L-14.3,4.6 L-28.5,-9.3 L-8.8,-12.1 Z" fill="none" stroke="black" transform="translate(243.44941798956987,154.90608370008232) rotate(6.134170155030003) scale(0.850817207417677)" /><path d="M0.0,-30.0 L8.8,-12.1 L28.5,-9.3 L14.3,4.6 L17.6,24.3 L0.0,15.0 L-17.6,24.3 L-14.3,4.6 L-28.5,-9.3 L-8.8,-12.1 Z" fill="none" stroke="black" transform="translate(243.44941798956987,154.90608370008232) rotate(6.134170155030003) scale(0.5955720451923738)" /><path d="M0.0,-30.0 L8.8,-12.1 L28.5,-9.3 L14.3,4.6 L17.6,24.3 L0.0,15.0 L-17.6,24.3 L-14.3,4.6 L-28.5,-9.3 L-8.8,-12.1 Z" fill="none" stroke="black" transform="translate(243.44941798956987,154.90608370008232) rotate(6.134170155030003) scale(0.3403268829670708)" /></g><g><path d="M0.0,-30.0 L8.8,-12.1 L28.5,-9.3 L14.3,4.6 L17.6,24.3 L0.0,15.0 L-17.6,24.3 L-14.3,4.6 L-28.5,-9.3 L-8.8,-12.1 Z" fill="none" stroke="black" transform="translate(222.80567872391265,152.98017408073127) rotate(283.6343549965475) scale(0.889357920158345)" /><path d="M0.0,-30.0 L8.8,-12.1 L28.5,-9.3 L14.3,4.6 L17.6,24.3 L0.0,15.0 L-17.6,24.3 L-14.3,4.6 L-28.5,-9.3 L-8.8,-12.1 Z" fill="none" stroke="black" transform="translate(222.80567872391265,152.98017408073127) rotate(283.6343549965475) scale(0.6225505441108414)" /></g><path d="M0.0,-30.0 L28.5,-9.3 L17.6,24.3 L-17.6,24.3 L-28.5,-9.3 Z" fill="none" stroke="black" transform="translate(308.9525302387723,270.1814961089605) rotate(157.92909349334093) scale(1.0726255176367645)" /><path d="M0.0,-30.0 L28.5,-9.3 L17.6,24.3 L-17.6,24.3 L-28.5,-9.3 Z" fill="none" stroke="black" transform="translate(86.04524980756713,239.7910463361118) rotate(58.13217667500093) scale(0.9101880043475)" /><g><path d="M0.0,-30.0 L28.5,-9.3 L17.6,24.3 L-17.6,24.3 L-28.5,-9.3 Z" fill="none" stroke="black" transform="translate(98.25151294030695,200.09091812244873) rotate(242.37450460368805) scale(1.0787252862365948)" /><path d="M0.0,-30.0 L28.5,-9.3 L17.6,24.3 L-17.6,24.3 L-28.5,-9.3 Z" fill="none" stroke="black" transform="translate(98.25151294030695,200.09091812244873) rotate(242.37450460368805) scale(0.7551077003656164)" /></g><path d="M27.7,-11.5 L27.7,11.5 L11.5,27.7 L-11.5,27.7 L-27.7,11.5 L-27.7,-11.5 L-11.5,-27.7 L11.5,-27.7 Z" fill="none" stroke="black" transform="translate(79.41900143579686,274.6446770613809) rotate(322.92278184501873) scale(1.0384735673899748)" /><path d="M27.7,-11.5 L27.7,11.5 L11.5,27.7 L-11.5,27.7 L-27.7,11.5 L-27.7,-11.5 L-11.5,-27.7 L11.5,-27.7 Z" fill="none" stroke="black" transform="translate(271.735701952739,64.55508542979115) rotate(90.7226429743306) scale(0.8300691410378377)" /><g><path d="M30,0 L15,-26 L-15,-26 L-30,0 L-15,26 L15,26 Z" fill="none" stroke="black" transform="translate(146.33044487699283,100.50440813587177) rotate(183.63084557067742) scale(1.2120569668183938)" /><path d="M30,0 L15,-26 L-15,-26 L-30,0 L-15,26 L15,26 Z" fill="none" stroke="black" transform="translate(146.33044487699283,100.50440813587177) rotate(183.63084557067742) scale(0.8484398767728756)" /><path d="M30,0 L15,-26 L-15,-26 L-30,0 L-15,26 L15,26 Z" fill="none" stroke="black" transform="translate(146.33044487699283,100.50440813587177) rotate(183.63084557067742) scale(0.48482278672735757)" /></g><path d="M30,0 L15,-26 L-15,-26 L-30,0 L-15,26 L15,26 Z" fill="none" stroke="black" transform="translate(326.7407435704163,326.72343653506044) rotate(184.737496100672) scale(0.9607902445574306)" /><path d="M0,-30 L30,30 L-30,30 Z" fill="none" stroke="black" transform="translate(311.4371410303478,214.6022340955845) rotate(338.0762717484004) scale(0.8926732064030234)" /><path d="M0,-30 L30,30 L-30,30 Z" fill="none" stroke="black" transform="translate(219.08275227789102,330.10443699674323) rotate(155.97042852922343) scale(0.863217975058107)" /><path d="M0,-30 L30,30 L-30,30 Z" fill="none" stroke="black" transform="translate(132.74762651133437,241.64979973046394) rotate(112.78862772008507) scale(1.1005595161081358)" /><path d="M0,0 m-30,0 a30,30 0 1,0 60,0 a30,30 0 1,0 -60,0" fill="none" stroke="black" transform="translate(117.29673916138479,292.7901939773179) rotate(73.65527893317035) scale(1.0686009826045275)" /><path d="M0,0 m-30,0 a30,30 0 1,0 60,0 a30,30 0 1,0 -60,0" fill="none" stroke="black" transform="translate(165.14263677345002,291.54592698870965) rotate(132.31720640094298) scale(1.179412589225854)" /><g><path d="M0,0 m-30,0 a30,30 0 1,0 60,0 a30,30 0 1,0 -60,0" fill="none" stroke="black" transform="translate(273.94570099040027,176.90025008724314) rotate(289.9665505447736) scale(1.440639505166762)" /><path d="M0,0 m-30,0 a30,30 0 1,0 60,0 a30,30 0 1,0 -60,0" fill="none" stroke="black" transform="translate(273.94570099040027,176.90025008724314) rotate(289.9665505447736) scale(1.0084476536167333)" /><path d="M0,0 m-30,0 a30,30 0 1,0 60,0 a30,30 0 1,0 -60,0" fill="none" stroke="black" transform="translate(273.94570099040027,176.90025008724314) rotate(289.9665505447736) scale(0.5762558020667048)" /></g></svg>