<svg baseProfile="full" height="400" version="1.1" width="400" xmlns="http://www.w3.org/2000/svg" xmlns:ev="http://www.w3.org/2001/xml-events" xmlns:xlink="http://www.w3.org/1999/xlink"><defs /><rect fill="white" height="100%" width="100%" x="0" y="0" /><path d="M30,0 L15,-26 L-15,-26 L-30,0 L-15,26 L15,26 Z" fill="none" stroke="black" transform="translate(240.80989163881753,170.03055521279603) rotate(329.0106905293155) scale(1.994290740548383)" /><g><path d="M30,0 L15,-26 L-15,-26 L-30,0 L-15,26 L15,26 Z" fill="none" stroke="black" transform="translate(146.92693864220627,239.1827261764625) rotate(193.51873814377697) scale(1.4002518261151995)" /><path d="M30,0 L15,-26 L-15,-26 L-30,0 L-15,26 L15,26 Z" fill="none" stroke="black" transform="translate(146.92693864220627,239.1827261764625) rotate(193.51873814377697) scale(0.9801762782806396)" /></g><path d="M30,0 L15,-26 L-15,-26 L-30,0 L-15,26 L15,26 Z" fill="none" stroke="black" transform="translate(275.0778532007725,303.2599846240765) rotate(165.22089346431235) scale(1.2563571036445718)" /><path d="M0,0 m-30,0 a30,30 0 1,0 60,0 a30,30 0 1,0 -60,0" fill="none" stroke="black" transform="translate(98.79710504197287,294.38942295519456) rotate(311.8908431240867) scale(1.0731206338635637)" /><g><path d="M0,0 m-30,0 a30,30 0 1,0 60,0 a30,30 0 1,0 -60,0" fill="none" stroke="black" transform="translate(82.54431119549535,200.49860572070253) rotate(6.915534395866616) scale(0.963759400201624)" /><path d="M0,0 m-30,0 a30,30 0 1,0 60,0 a30,30 0 1,0 -60,0" fill="none" stroke="black" transform="translate(82.54431119549535,200.49860572070253) rotate(6.915534395866616) scale(0.6746315801411368)" /></g><path d="M0,0 m-30,0 a30,30 0 1,0 60,0 a30,30 0 1,0 -60,0" fill="none" stroke="black" transform="translate(129.95152552741663,130.5984826594534) rotate(34.63638226785126) scale(1.3895121892290458)" /><path d="M0,0 m-30,0 a30,30 0 1,0 60,0 a30,30 0 1,0 -60,0" fill="none" stroke="black" transform="translate(302.9966795703872,222.3277064138748) rotate(135.78379921709987) scale(1.1546037176098376)" /><path d="M0,0 m-30,0 a30,30 0 1,0 60,0 a30,30 0 1,0 -60,0" fill="none" stroke="black" transform="translate(140.81984574472068,322.5040944487035) rotate(306.3964737500952) scale(0.9531037506858655)" /><path d="M0,-30 L30,30 L-30,30 Z" fill="none" stroke="black" transform="translate(181.27491722855748,100.0090112330057) rotate(46.57600986333748) scale(1.2619938624764795)" /><path d="M0,-30 L30,30 L-30,30 Z" fill="none" stroke="black" transform="translate(165.86190437800957,188.19087000851528) rotate(245.2822286914702) scale(0.8160285154769501)" /><g><path d="M0,-30 L30,30 L-30,30 Z" fill="none" stroke="black" transform="translate(71.58175167134982,326.4282536113368) rotate(323.6919291762722) scale(0.8725534695953141)" /><path d="M0,-30 L30,30 L-30,30 Z" fill="none" stroke="black" transform="translate(71.58175167134982,326.4282536113368) rotate(323.6919291762722) scale(0.6107874287167199)" /><path d="M0,-30 L30,30 L-30,30 Z" fill="none" stroke="black" transform="translate(71.58175167134982,326.4282536113368) rotate(323.6919291762722) scale(0.34902138783812564)" /></g><g><path d="M0,-30 L30,30 L-30,30 Z" fill="none" stroke="black" transform="translate(238.13542753213238,269.31353710067555) rotate(217.4870145790256) scale(0.8767535788452107)" /><path d="M0,-30 L30,30 L-30,30 Z" fill="none" stroke="black" transform="translate(238.13542753213238,269.31353710067555) rotate(217.4870145790256) scale(0.6137275051916474)" /></g><path d="M0,-30 L30,30 L-30,30 Z" fill="none" stroke="black" transform="translate(307.7790354328391,114.20046502665588) rotate(63.09507021607903) scale(1.221295879348532)" /><path d="M0.0,-30.0 L8.8,-12.1 L28.5,-9.3 L14.3,4.6 L17.6,24.3 L0.0,15.0 L-17.6,24.3 L-14.3,4.6 L-28.5,-9.3 L-8.8,-12.1 Z" fill="none" stroke="black" transform="translate(79.51706505345011,248.5970146189705) rotate(349.52154970441154) scale(1.047500807127554)" /><path d="M0.0,-30.0 L8.8,-12.1 L28.5,-9.3 L14.3,4.6 L17.6,24.3 L0.0,15.0 L-17.6,24.3 L-14.3,4.6 L-28.5,-9.3 L-8.8,-12.1 Z" fill="none" stroke="black" transform="translate(226.8585035287358,104.67691664773234) rotate(133.2473871460396) scale(0.8571397318201482)" /><g><path d="M0.0,-30.0 L8.8,-12.1 L28.5,-9.3 L14.3,4.6 L17.6,24.3 L0.0,15.0 L-17.6,24.3 L-14.3,4.6 L-28.5,-9.3 L-8.8,-12.1 Z" fill="none" stroke="black" transform="translate(220.3053689450264,70.1404217693275) rotate(270.77210477564705) scale(0.9225877715092253)" /><path d="M0.0,-30.0 L8.8,-12.1 L28.5,-9.3 L14.3,4.6 L17.6,24.3 L0.0,15.0 L-17.6,24.3 L-14.3,4.6 L-28.5,-9.3 L-8.8,-12.1 Z" fill="none" stroke="black" transform="translate(220.3053689450264,70.1404217693275) rotate(270.77210477564705) scale(0.6458114400564577)" /><path d="M0.0,-30.0 L8.8,-12.1 L28.5,-9.3 L14.3,4.6 L17.6,24.3 L0.0,15.0 L-17.6,24.3 L-14.3,4.6 L-28.5,-9.3 L-8.8,-12.1 Z" fill="none" stroke="black" transform="translate(220.3053689450264,70.1404217693275) rotate(270.77210477564705) scale(0.36903510860369015)" /></g><g><path d="M0.0,-30.0 L8.8,-12.1 L28.5,-9.3 L14.3,4.6 L17.6,24.3 L0.0,15.0 L-17.6,24.3 L-14.3,4.6 L-28.5,-9.3 L-8.8,-12.1 Z" fill="none" stroke="black" transform="translate(120.42873083548524,184.3031136628693) rotate(124.04277221972104) scale(0.8038478907890152)" /><path d="M0.0,-30.0 L8.8,-12.1 L28.5,-9.3 L14.3,4.6 L17.6,24.3 L0.0,15.0 L-17.6,24.3 L-14.3,4.6 L-28.5,-9.3 L-8.8,-12.1 Z" fill="none" stroke="black" transform="translate(120.42873083548524,184.3031136628693) rotate(124.04277221972104) scale(0.5626935235523106)" /></g><g><path d="M0.0,-30.0 L8.8,-12.1 L28.5,-9.3 L14.3,4.6 L17.6,24.3 L0.0,15.0 L-17.6,24.3 L-14.3,4.6 L-28.5,-9.3 L-8.8,-12.1 Z" fill="none" stroke="black" transform="translate(132.3785320430293,71.26960462880983) rotate(272.33638683405616) scale(0.846551365276547)" /><path d="M0.0,-30.0 L8.8,-12.1 L28.5,-9.3 L14.3,4.6 L17.6,24.3 L0.0,15.0 L-17.6,24.3 L-14.3,4.6 L-28.5,-9.3 L-8.8,-12.1 Z" fill="none" stroke="black" transform="translate(132.3785320430293,71.26960462880983) rotate(272.33638683405616) scale(0.5925859556935829)" /></g><g><path d="M0.0,-30.0 L28.5,-9.3 L17.6,24.3 L-17.6,24.3 L-28.5,-9.3 Z" fill="none" stroke="black" transform="translate(72.73153932507782,93.62735240422681) rotate(151.30538442740973) scale(0.8569850756018809)" /><path d="M0.0,-30.0 L28.5,-9.3 L17.6,24.3 L-17.6,24.3 L-28.5,-9.3 Z" fill="none" stroke="black" transform="translate(72.73153932507782,93.62735240422681) rotate(151.30538442740973) scale(0.5998895529213165)" /><path d="M0.0,-30.0 L28.5,-9.3 L17.6,24.3 L-17.6,24.3 L-28.5,-9.3 Z" fill="none" stroke="black" transform="translate(72.73153932507782,93.62735240422681) rotate(151.30538442740973) scale(0.3427940302407524)" /></g><path d="M0.0,-30.0 L28.5,-9.3 L17.6,24.3 L-17.6,24.3 L-28.5,-9.3 Z" fill="none" stroke="black" transform="translate(200.16107002859152,239.88375571956752) rotate(203.63393601027732) scale(0.8500140986265805)" /><g><path d="M-30,-20 h60 v40 h-60 Z" fill="none" stroke="black" transform="translate(324.89324194006787,303.6274252305343) rotate(165.44189343486428) scale(0.987226228396506)" /><path d="M-30,-20 h60 v40 h-60 Z" fill="none" stroke="black" transform="translate(324.89324194006787,303.6274252305343) rotate(165.44189343486428) scale(0.6910583598775542)" /></g><path d="M27.7,-11.5 L27.7,11.5 L11.5,27.7 L-11.5,27.7 L-27.7,11.5 L-27.7,-11.5 L-11.5,-27.7 L11.5,-27.7 Z" fill="none" stroke="black" transform="translate(224.7846976044651,310.7611068861278) rotate(0.41382675332255037) scale(0.8377504732617193)" /><g><path d="M27.7,-11.5 L27.7,11.5 L11.5,27.7 L-11.5,27.7 L-27.7,11.5 L-27.7,-11.5 L-11.5,-27.7 L11.5,-27.7 Z" fill="none" stroke="black" transform="translate(316.3931058840001,265.2424737403) rotate(104.23957160794073) scale(0.8018619296141561)" /><path d="M27.7,-11.5 L27.7,11.5 L11.5,27.7 L-11.5,27.7 L-27.7,11.5 L-27.7,-11.5 L-11.5,-27.7 L11.5,-27.7 Z" fill="none" stroke="black" transform="translate(316.3931058840001,265.2424737403) rotate(104.23957160794073) scale(0.5613033507299092)" /><path d="M27.7,-11.5 L27.7,11.5 L11.5,27.7 L-11.5,27.7 L-27.7,11.5 L-27.7,-11.5 L-11.5,-27.7 L11.5,-27.7 Z" fill="none" stroke="black" transform="translate(316.3931058840001,265.2424737403) rotate(104.23957160794073) scale(0.32074477184566247)" /></g></svg>