<svg baseProfile="full" height="400" version="1.1" width="400" xmlns="http://www.w3.org/2000/svg" xmlns:ev="http://www.w3.org/2001/xml-events" xmlns:xlink="http://www.w3.org/1999/xlink"><defs /><rect fill="white" height="100%" width="100%" x="0" y="0" /><path d="M0.0,-30.0 L28.5,-9.3 L17.6,24.3 L-17.6,24.3 L-28.5,-9.3 Z" fill="none" stroke="black" transform="translate(220.52057871175546,131.1325100871508) rotate(48.274598323532906) scale(1.803754147084959)" /><g><path d="M0.0,-30.0 L28.5,-9.3 L17.6,24.3 L-17.6,24.3 L-28.5,-9.3 Z" fill="none" stroke="black" transform="translate(298.03836160052447,266.82915216820186) rotate(207.82201370457844) scale(1.1757239129192736)" /><path d="M0.0,-30.0 L28.5,-9.3 L17.6,24.3 L-17.6,24.3 L-28.5,-9.3 Z" fill="none" stroke="black" transform="translate(298.03836160052447,266.82915216820186) rotate(207.82201370457844) scale(0.8230067390434914)" /><path d="M0.0,-30.0 L28.5,-9.3 L17.6,24.3 L-17.6,24.3 L-28.5,-9.3 Z" fill="none" stroke="black" transform="translate(298.03836160052447,266.82915216820186) rotate(207.82201370457844) scale(0.4702895651677095)" /></g><path d="M0.0,-30.0 L28.5,-9.3 L17.6,24.3 L-17.6,24.3 L-28.5,-9.3 Z" fill="none" stroke="black" transform="translate(235.19685906893932,279.51317900571274) rotate(172.08185258427673) scale(0.809902343064334)" /><path d="M0.0,-30.0 L28.5,-9.3 L17.6,24.3 L-17.6,24.3 L-28.5,-9.3 Z" fill="none" stroke="black" transform="translate(128.70094254003328,253.64669159374122) rotate(122.19015810634667) scale(1.274414492860334)" /><path d="M0.0,-30.0 L28.5,-9.3 L17.6,24.3 L-17.6,24.3 L-28.5,-9.3 Z" fill="none" stroke="black" transform="translate(260.6214971146779,191.63129130982713) rotate(28.351848053238076) scale(1.048581641001662)" /><g><path d="M30,0 L15,-26 L-15,-26 L-30,0 L-15,26 L15,26 Z" fill="none" stroke="black" transform="translate(108.40870285709676,127.89244057231936) rotate(355.1252720908791) scale(1.1185303177182646)" /><path d="M30,0 L15,-26 L-15,-26 L-30,0 L-15,26 L15,26 Z" fill="none" stroke="black" transform="translate(108.40870285709676,127.89244057231936) rotate(355.1252720908791) scale(0.7829712224027852)" /></g><g><path d="M30,0 L15,-26 L-15,-26 L-30,0 L-15,26 L15,26 Z" fill="none" stroke="black" transform="translate(319.0019939047029,106.50987929822821) rotate(21.10419719271988) scale(0.955754201808116)" /><path d="M30,0 L15,-26 L-15,-26 L-30,0 L-15,26 L15,26 Z" fill="none" stroke="black" transform="translate(319.0019939047029,106.50987929822821) rotate(21.10419719271988) scale(0.6690279412656811)" /><path d="M30,0 L15,-26 L-15,-26 L-30,0 L-15,26 L15,26 Z" fill="none" stroke="black" transform="translate(319.0019939047029,106.50987929822821) rotate(21.10419719271988) scale(0.38230168072324644)" /></g><g><path d="M30,0 L15,-26 L-15,-26 L-30,0 L-15,26 L15,26 Z" fill="none" stroke="black" transform="translate(142.4751434821757,178.10782889376847) rotate(333.1268716128794) scale(1.392119117677646)" /><path d="M30,0 L15,-26 L-15,-26 L-30,0 L-15,26 L15,26 Z" fill="none" stroke="black" transform="translate(142.4751434821757,178.10782889376847) rotate(333.1268716128794) scale(0.9744833823743521)" /><path d="M30,0 L15,-26 L-15,-26 L-30,0 L-15,26 L15,26 Z" fill="none" stroke="black" transform="translate(142.4751434821757,178.10782889376847) rotate(333.1268716128794) scale(0.5568476470710584)" /></g><path d="M30,0 L15,-26 L-15,-26 L-30,0 L-15,26 L15,26 Z" fill="none" stroke="black" transform="translate(65.79347446269941,217.64521592526341) rotate(89.01782476345572) scale(0.8598091952403605)" /><g><path d="M0,-30 L30,30 L-30,30 Z" fill="none" stroke="black" transform="translate(165.59566632237673,295.4621382331174) rotate(274.3232927315303) scale(0.8826902713655147)" /><path d="M0,-30 L30,30 L-30,30 Z" fill="none" stroke="black" transform="translate(165.59566632237673,295.4621382331174) rotate(274.3232927315303) scale(0.6178831899558602)" /></g><path d="M0,-30 L30,30 L-30,30 Z" fill="none" stroke="black" transform="translate(208.78702210659472,292.6119508240708) rotate(345.51604111430527) scale(0.8180540938239693)" /><path d="M0,-30 L30,30 L-30,30 Z" fill="none" stroke="black" transform="translate(204.61218042907547,249.25553930865703) rotate(265.39965181532295) scale(1.0837001069381205)" /><path d="M0,-30 L30,30 L-30,30 Z" fill="none" stroke="black" transform="translate(307.33810432172174,146.7305891657172) rotate(193.1326049703392) scale(1.2137387421402082)" /><g><path d="M0,-30 L30,30 L-30,30 Z" fill="none" stroke="black" transform="translate(157.33974666031793,77.35748813387772) rotate(262.87379889461175) scale(0.991077375284476)" /><path d="M0,-30 L30,30 L-30,30 Z" fill="none" stroke="black" transform="translate(157.33974666031793,77.35748813387772) rotate(262.87379889461175) scale(0.6937541626991331)" /></g><g><path d="M0,-30 L30,30 L-30,30 Z" fill="none" stroke="black" transform="translate(92.28310891176629,284.46172145900323) rotate(210.48004204604797) scale(1.1880861466959978)" /><path d="M0,-30 L30,30 L-30,30 Z" fill="none" stroke="black" transform="translate(92.28310891176629,284.46172145900323) rotate(210.48004204604797) scale(0.8316603026871984)" /><path d="M0,-30 L30,30 L-30,30 Z" fill="none" stroke="black" transform="translate(92.28310891176629,284.46172145900323) rotate(210.48004204604797) scale(0.47523445867839914)" /></g><path d="M0,-30 L30,30 L-30,30 Z" fill="none" stroke="black" transform="translate(156.15411014587457,331.1848449453224) rotate(40.990047793588396) scale(0.8574301627787513)" /><g><path d="M0,-30 L30,30 L-30,30 Z" fill="none" stroke="black" transform="translate(189.37498451671067,338.33152555671916) rotate(17.62740512024528) scale(0.813018374235061)" /><path d="M0,-30 L30,30 L-30,30 Z" fill="none" stroke="black" transform="translate(189.37498451671067,338.33152555671916) rotate(17.62740512024528) scale(0.5691128619645426)" /><path d="M0,-30 L30,30 L-30,30 Z" fill="none" stroke="black" transform="translate(189.37498451671067,338.33152555671916) rotate(17.62740512024528) scale(0.32520734969402443)" /></g><g><path d="M0,-30 L30,30 L-30,30 Z" fill="none" stroke="black" transform="translate(295.8214069471438,333.48772875474936) rotate(338.0190500582404) scale(0.8558276596600074)" /><path d="M0,-30 L30,30 L-30,30 Z" fill="none" stroke="black" transform="translate(295.8214069471438,333.48772875474936) rotate(338.0190500582404) scale(0.5990793617620052)" /></g></svg>