<svg baseProfile="full" height="400" version="1.1" width="400" xmlns="http://www.w3.org/2000/svg" xmlns:ev="http://www.w3.org/2001/xml-events" xmlns:xlink="http://www.w3.org/1999/xlink"><defs /><rect fill="white" height="100%" width="100%" x="0" y="0" /><path d="M0.0,-30.0 L8.8,-12.1 L28.5,-9.3 L14.3,4.6 L17.6,24.3 L0.0,15.0 L-17.6,24.3 L-14.3,4.6 L-28.5,-9.3 L-8.8,-12.1 Z" fill="none" stroke="black" transform="translate(203.2585539428526,216.60475595064008) rotate(171.98905487025175) scale(1.4390615981924468)" /><path d="M0.0,-30.0 L8.8,-12.1 L28.5,-9.3 L14.3,4.6 L17.6,24.3 L0.0,15.0 L-17.6,24.3 L-14.3,4.6 L-28.5,-9.3 L-8.8,-12.1 Z" fill="none" stroke="black" transform="translate(262.65200192856594,284.18691326777326) rotate(334.10337485493756) scale(1.572573212286004)" /><path d="M0.0,-30.0 L8.8,-12.1 L28.5,-9.3 L14.3,4.6 L17.6,24.3 L0.0,15.0 L-17.6,24.3 L-14.3,4.6 L-28.5,-9.3 L-8.8,-12.1 Z" fill="none" stroke="black" transform="translate(126.3107876293574,239.90829953234703) rotate(155.36866214953818) scale(1.7533281470001982)" /><path d="M0.0,-30.0 L8.8,-12.1 L28.5,-9.3 L14.3,4.6 L17.6,24.3 L0.0,15.0 L-17.6,24.3 L-14.3,4.6 L-28.5,-9.3 L-8.8,-12.1 Z" fill="none" stroke="black" transform="translate(131.6178922047227,152.49987831295408) rotate(268.75850723570096) scale(1.116461761137384)" /><path d="M0.0,-30.0 L8.8,-12.1 L28.5,-9.3 L14.3,4.6 L17.6,24.3 L0.0,15.0 L-17.6,24.3 L-14.3,4.6 L-28.5,-9.3 L-8.8,-12.1 Z" fill="none" stroke="black" transform="translate(100.491362301462,105.07437284558105) rotate(52.6601758172071) scale(1.1403860643452122)" /><path d="M0.0,-30.0 L8.8,-12.1 L28.5,-9.3 L14.3,4.6 L17.6,24.3 L0.0,15.0 L-17.6,24.3 L-14.3,4.6 L-28.5,-9.3 L-8.8,-12.1 Z" fill="none" stroke="black" transform="translate(251.1577900499958,123.89177792580803) rotate(257.1177004804575) scale(1.5513098575618214)" /><g><path d="M0,0 m-30,0 a30,30 0 1,0 60,0 a30,30 0 1,0 -60,0" fill="none" stroke="black" transform="translate(325.75853468560047,258.4627132645286) rotate(26.51201830307532) scale(1.0177001546676137)" /><path d="M0,0 m-30,0 a30,30 0 1,0 60,0 a30,30 0 1,0 -60,0" fill="none" stroke="black" transform="translate(325.75853468560047,258.4627132645286) rotate(26.51201830307532) scale(0.7123901082673295)" /><path d="M0,0 m-30,0 a30,30 0 1,0 60,0 a30,30 0 1,0 -60,0" fill="none" stroke="black" transform="translate(325.75853468560047,258.4627132645286) rotate(26.51201830307532) scale(0.4070800618670455)" /></g><path d="M0,0 m-30,0 a30,30 0 1,0 60,0 a30,30 0 1,0 -60,0" fill="none" stroke="black" transform="translate(223.26318056113504,333.6703742478577) rotate(323.3020756187504) scale(0.8800602786058365)" /><g><path d="M0,0 m-30,0 a30,30 0 1,0 60,0 a30,30 0 1,0 -60,0" fill="none" stroke="black" transform="translate(85.0479694076116,325.3219920548057) rotate(224.5804486955769) scale(0.9782024159464787)" /><path d="M0,0 m-30,0 a30,30 0 1,0 60,0 a30,30 0 1,0 -60,0" fill="none" stroke="black" transform="translate(85.0479694076116,325.3219920548057) rotate(224.5804486955769) scale(0.684741691162535)" /><path d="M0,0 m-30,0 a30,30 0 1,0 60,0 a30,30 0 1,0 -60,0" fill="none" stroke="black" transform="translate(85.0479694076116,325.3219920548057) rotate(224.5804486955769) scale(0.3912809663785915)" /></g><path d="M30,0 L15,-26 L-15,-26 L-30,0 L-15,26 L15,26 Z" fill="none" stroke="black" transform="translate(185.1414809418715,307.0422220766826) rotate(37.38822289744763) scale(1.0951389479498301)" /><path d="M30,0 L15,-26 L-15,-26 L-30,0 L-15,26 L15,26 Z" fill="none" stroke="black" transform="translate(292.2201704085083,187.1438931189371) rotate(17.176011661015647) scale(0.9261261703002309)" /><g><path d="M30,0 L15,-26 L-15,-26 L-30,0 L-15,26 L15,26 Z" fill="none" stroke="black" transform="translate(322.7918972091582,188.85056398556947) rotate(109.9157773584015) scale(0.821274303542415)" /><path d="M30,0 L15,-26 L-15,-26 L-30,0 L-15,26 L15,26 Z" fill="none" stroke="black" transform="translate(322.7918972091582,188.85056398556947) rotate(109.9157773584015) scale(0.5748920124796905)" /></g><g><path d="M30,0 L15,-26 L-15,-26 L-30,0 L-15,26 L15,26 Z" fill="none" stroke="black" transform="translate(75.26959028880958,257.57883777664273) rotate(162.48263132471087) scale(0.870245600796795)" /><path d="M30,0 L15,-26 L-15,-26 L-30,0 L-15,26 L15,26 Z" fill="none" stroke="black" transform="translate(75.26959028880958,257.57883777664273) rotate(162.48263132471087) scale(0.6091719205577565)" /></g><g><path d="M30,0 L15,-26 L-15,-26 L-30,0 L-15,26 L15,26 Z" fill="none" stroke="black" transform="translate(179.8691618700425,114.98846111080638) rotate(115.96210011255938) scale(1.0272926365645816)" /><path d="M30,0 L15,-26 L-15,-26 L-30,0 L-15,26 L15,26 Z" fill="none" stroke="black" transform="translate(179.8691618700425,114.98846111080638) rotate(115.96210011255938) scale(0.719104845595207)" /></g><path d="M30,0 L15,-26 L-15,-26 L-30,0 L-15,26 L15,26 Z" fill="none" stroke="black" transform="translate(200.3863870335348,73.59695505272303) rotate(76.82900292234345) scale(0.8833391364486014)" /></svg>