<svg baseProfile="full" height="400" version="1.1" width="400" xmlns="http://www.w3.org/2000/svg" xmlns:ev="http://www.w3.org/2001/xml-events" xmlns:xlink="http://www.w3.org/1999/xlink"><defs /><rect fill="white" height="100%" width="100%" x="0" y="0" /><path d="M0.0,-30.0 L8.8,-12.1 L28.5,-9.3 L14.3,4.6 L17.6,24.3 L0.0,15.0 L-17.6,24.3 L-14.3,4.6 L-28.5,-9.3 L-8.8,-12.1 Z" fill="none" stroke="black" transform="translate(212.32829911598483,214.67707081338534) rotate(246.21398628245066) scale(1.6660198040921674)" /><path d="M0.0,-30.0 L8.8,-12.1 L28.5,-9.3 L14.3,4.6 L17.6,24.3 L0.0,15.0 L-17.6,24.3 L-14.3,4.6 L-28.5,-9.3 L-8.8,-12.1 Z" fill="none" stroke="black" transform="translate(316.09087884969256,115.02467310914743) rotate(209.32063358652664) scale(1.1044849764220852)" /><path d="M0,-30 L30,30 L-30,30 Z" fill="none" stroke="black" transform="translate(303.7432415223757,254.76946769702826) rotate(91.37576651100144) scale(1.2980869117554032)" /><path d="M0,-30 L30,30 L-30,30 Z" fill="none" stroke="black" transform="translate(125.19426704164555,259.8215481731722) rotate(346.8745382787692) scale(1.634540972552851)" /><g><path d="M0,-30 L30,30 L-30,30 Z" fill="none" stroke="black" transform="translate(203.79049768266884,75.51756296420922) rotate(34.52826779958585) scale(0.9767050145252225)" /><path d="M0,-30 L30,30 L-30,30 Z" fill="none" stroke="black" transform="translate(203.79049768266884,75.51756296420922) rotate(34.52826779958585) scale(0.6836935101676557)" /></g><path d="M0,-30 L30,30 L-30,30 Z" fill="none" stroke="black" transform="translate(163.38950843000765,184.85546747639188) rotate(57.63901929383512) scale(0.8285073691902375)" /><g><path d="M0,-30 L30,30 L-30,30 Z" fill="none" stroke="black" transform="translate(195.17841354160078,292.4158018252824) rotate(314.6612525839348) scale(0.9591760829034305)" /><path d="M0,-30 L30,30 L-30,30 Z" fill="none" stroke="black" transform="translate(195.17841354160078,292.4158018252824) rotate(314.6612525839348) scale(0.6714232580324013)" /></g><g><path d="M0,-30 L30,30 L-30,30 Z" fill="none" stroke="black" transform="translate(117.45782554149831,150.08900545231546) rotate(5.100370312999183) scale(1.315948108901475)" /><path d="M0,-30 L30,30 L-30,30 Z" fill="none" stroke="black" transform="translate(117.45782554149831,150.08900545231546) rotate(5.100370312999183) scale(0.9211636762310325)" /><path d="M0,-30 L30,30 L-30,30 Z" fill="none" stroke="black" transform="translate(117.45782554149831,150.08900545231546) rotate(5.100370312999183) scale(0.5263792435605901)" /></g><path d="M0,-30 L30,30 L-30,30 Z" fill="none" stroke="black" transform="translate(181.47197104523076,136.06222001601276) rotate(291.09703261607575) scale(1.5962562513452434)" /><g><path d="M0,-30 L30,30 L-30,30 Z" fill="none" stroke="black" transform="translate(252.37585844597987,159.287902988266) rotate(49.48082332399255) scale(1.1316568414819708)" /><path d="M0,-30 L30,30 L-30,30 Z" fill="none" stroke="black" transform="translate(252.37585844597987,159.287902988266) rotate(49.48082332399255) scale(0.7921597890373795)" /><path d="M0,-30 L30,30 L-30,30 Z" fill="none" stroke="black" transform="translate(252.37585844597987,159.287902988266) rotate(49.48082332399255) scale(0.45266273659278833)" /></g><g><path d="M0,-30 L30,30 L-30,30 Z" fill="none" stroke="black" transform="translate(118.58796281043074,74.91608996780684) rotate(288.52443401847546) scale(0.8990258153214437)" /><path d="M0,-30 L30,30 L-30,30 Z" fill="none" stroke="black" transform="translate(118.58796281043074,74.91608996780684) rotate(288.52443401847546) scale(0.6293180707250106)" /></g><g><path d="M30,0 L15,-26 L-15,-26 L-30,0 L-15,26 L15,26 Z" fill="none" stroke="black" transform="translate(265.56756969786744,327.48394863901694) rotate(122.46246714788869) scale(0.8334098352214696)" /><path d="M30,0 L15,-26 L-15,-26 L-30,0 L-15,26 L15,26 Z" fill="none" stroke="black" transform="translate(265.56756969786744,327.48394863901694) rotate(122.46246714788869) scale(0.5833868846550286)" /></g><g><path d="M30,0 L15,-26 L-15,-26 L-30,0 L-15,26 L15,26 Z" fill="none" stroke="black" transform="translate(91.57960852485316,216.3437821213127) rotate(281.9812380939123) scale(0.9090438197378505)" /><path d="M30,0 L15,-26 L-15,-26 L-30,0 L-15,26 L15,26 Z" fill="none" stroke="black" transform="translate(91.57960852485316,216.3437821213127) rotate(281.9812380939123) scale(0.6363306738164953)" /></g><path d="M30,0 L15,-26 L-15,-26 L-30,0 L-15,26 L15,26 Z" fill="none" stroke="black" transform="translate(247.9143831188728,261.1714099739311) rotate(346.1063610933557) scale(0.9558839158529652)" /><path d="M30,0 L15,-26 L-15,-26 L-30,0 L-15,26 L15,26 Z" fill="none" stroke="black" transform="translate(332.18541849769923,86.84146805369974) rotate(90.63538802460981) scale(0.8541611074462837)" /><path d="M30,0 L15,-26 L-15,-26 L-30,0 L-15,26 L15,26 Z" fill="none" stroke="black" transform="translate(316.0253386761903,207.70073315499775) rotate(213.87046443467682) scale(0.9319478775932195)" /><g><path d="M30,0 L15,-26 L-15,-26 L-30,0 L-15,26 L15,26 Z" fill="none" stroke="black" transform="translate(303.9673325275045,177.36549127167513) rotate(57.30727938083476) scale(1.1009079545909937)" /><path d="M30,0 L15,-26 L-15,-26 L-30,0 L-15,26 L15,26 Z" fill="none" stroke="black" transform="translate(303.9673325275045,177.36549127167513) rotate(57.30727938083476) scale(0.7706355682136955)" /></g></svg>