<svg baseProfile="full" height="400" version="1.1" width="400" xmlns="http://www.w3.org/2000/svg" xmlns:ev="http://www.w3.org/2001/xml-events" xmlns:xlink="http://www.w3.org/1999/xlink"><defs /><rect fill="white" height="100%" width="100%" x="0" y="0" /><path d="M0.0,-30.0 L8.8,-12.1 L28.5,-9.3 L14.3,4.6 L17.6,24.3 L0.0,15.0 L-17.6,24.3 L-14.3,4.6 L-28.5,-9.3 L-8.8,-12.1 Z" fill="none" stroke="black" transform="translate(256.33310665885017,254.8431123960489) rotate(256.85413332878625) scale(1.1412301228491728)" /><path d="M0.0,-30.0 L8.8,-12.1 L28.5,-9.3 L14.3,4.6 L17.6,24.3 L0.0,15.0 L-17.6,24.3 L-14.3,4.6 L-28.5,-9.3 L-8.8,-12.1 Z" fill="none" stroke="black" transform="translate(193.0603011400448,231.56932779334505) rotate(355.45612740510495) scale(1.4325199596362839)" /><path d="M0,-30 L30,30 L-30,30 Z" fill="none" stroke="black" transform="translate(94.2038550110494,261.29063922194064) rotate(250.02495039920285) scale(1.188332967981065)" /><g><path d="M0,-30 L30,30 L-30,30 Z" fill="none" stroke="black" transform="translate(285.9736583388701,201.11331384142227) rotate(74.12371012249095) scale(0.8220784058464481)" /><path d="M0,-30 L30,30 L-30,30 Z" fill="none" stroke="black" transform="translate(285.9736583388701,201.11331384142227) rotate(74.12371012249095) scale(0.5754548840925137)" /><path d="M0,-30 L30,30 L-30,30 Z" fill="none" stroke="black" transform="translate(285.9736583388701,201.11331384142227) rotate(74.12371012249095) scale(0.32883136233857924)" /></g><path d="M27.7,-11.5 L27.7,11.5 L11.5,27.7 L-11.5,27.7 L-27.7,11.5 L-27.7,-11.5 L-11.5,-27.7 L11.5,-27.7 Z" fill="none" stroke="black" transform="translate(208.27216170685097,304.2130160496009) rotate(326.7921097849414) scale(1.0579308009889268)" /><path d="M-30,-20 h60 v40 h-60 Z" fill="none" stroke="black" transform="translate(147.72283893314673,144.92165971204565) rotate(208.95323097372113) scale(1.7182494087766407)" /><path d="M0.0,-30.0 L28.5,-9.3 L17.6,24.3 L-17.6,24.3 L-28.5,-9.3 Z" fill="none" stroke="black" transform="translate(102.64529547498543,200.84680980121703) rotate(320.28238648317836) scale(1.157217180255437)" /><path d="M0,0 m-30,0 a30,30 0 1,0 60,0 a30,30 0 1,0 -60,0" fill="none" stroke="black" transform="translate(270.4057073693734,118.41227006735923) rotate(335.1818965647944) scale(0.9431446899589803)" /><path d="M0,0 m-30,0 a30,30 0 1,0 60,0 a30,30 0 1,0 -60,0" fill="none" stroke="black" transform="translate(253.17405337637896,165.7516954873684) rotate(194.91198475105685) scale(1.488106349990041)" /><g><path d="M30,0 L15,-26 L-15,-26 L-30,0 L-15,26 L15,26 Z" fill="none" stroke="black" transform="translate(297.9390671927339,233.1309135686393) rotate(186.70981371702428) scale(1.1218834802704856)" /><path d="M30,0 L15,-26 L-15,-26 L-30,0 L-15,26 L15,26 Z" fill="none" stroke="black" transform="translate(297.9390671927339,233.1309135686393) rotate(186.70981371702428) scale(0.7853184361893398)" /><path d="M30,0 L15,-26 L-15,-26 L-30,0 L-15,26 L15,26 Z" fill="none" stroke="black" transform="translate(297.9390671927339,233.1309135686393) rotate(186.70981371702428) scale(0.44875339210819426)" /></g></svg>