<svg baseProfile="full" height="400" version="1.1" width="400" xmlns="http://www.w3.org/2000/svg" xmlns:ev="http://www.w3.org/2001/xml-events" xmlns:xlink="http://www.w3.org/1999/xlink"><defs /><rect fill="white" height="100%" width="100%" x="0" y="0" /><path d="M27.7,-11.5 L27.7,11.5 L11.5,27.7 L-11.5,27.7 L-27.7,11.5 L-27.7,-11.5 L-11.5,-27.7 L11.5,-27.7 Z" fill="none" stroke="black" transform="translate(172.06023301046176,312.92067443161) rotate(298.15303113897255) scale(1.055769076502429)" /><g><path d="M27.7,-11.5 L27.7,11.5 L11.5,27.7 L-11.5,27.7 L-27.7,11.5 L-27.7,-11.5 L-11.5,-27.7 L11.5,-27.7 Z" fill="none" stroke="black" transform="translate(218.098776753628,171.95869038055903) rotate(347.6711641675917) scale(1.6472002086547386)" /><path d="M27.7,-11.5 L27.7,11.5 L11.5,27.7 L-11.5,27.7 L-27.7,11.5 L-27.7,-11.5 L-11.5,-27.7 L11.5,-27.7 Z" fill="none" stroke="black" transform="translate(218.098776753628,171.95869038055903) rotate(347.6711641675917) scale(1.1530401460583168)" /></g><path d="M27.7,-11.5 L27.7,11.5 L11.5,27.7 L-11.5,27.7 L-27.7,11.5 L-27.7,-11.5 L-11.5,-27.7 L11.5,-27.7 Z" fill="none" stroke="black" transform="translate(100.31981084658526,112.4122625661592) rotate(189.7430290954005) scale(1.24936285216456)" /><g><path d="M27.7,-11.5 L27.7,11.5 L11.5,27.7 L-11.5,27.7 L-27.7,11.5 L-27.7,-11.5 L-11.5,-27.7 L11.5,-27.7 Z" fill="none" stroke="black" transform="translate(277.29808302407014,271.5734675368151) rotate(197.09814437607824) scale(0.8766976539423084)" /><path d="M27.7,-11.5 L27.7,11.5 L11.5,27.7 L-11.5,27.7 L-27.7,11.5 L-27.7,-11.5 L-11.5,-27.7 L11.5,-27.7 Z" fill="none" stroke="black" transform="translate(277.29808302407014,271.5734675368151) rotate(197.09814437607824) scale(0.6136883577596158)" /><path d="M27.7,-11.5 L27.7,11.5 L11.5,27.7 L-11.5,27.7 L-27.7,11.5 L-27.7,-11.5 L-11.5,-27.7 L11.5,-27.7 Z" fill="none" stroke="black" transform="translate(277.29808302407014,271.5734675368151) rotate(197.09814437607824) scale(0.35067906157692336)" /></g><g><path d="M27.7,-11.5 L27.7,11.5 L11.5,27.7 L-11.5,27.7 L-27.7,11.5 L-27.7,-11.5 L-11.5,-27.7 L11.5,-27.7 Z" fill="none" stroke="black" transform="translate(65.81473886000344,253.7964886590381) rotate(27.42845328290468) scale(0.8105185189025887)" /><path d="M27.7,-11.5 L27.7,11.5 L11.5,27.7 L-11.5,27.7 L-27.7,11.5 L-27.7,-11.5 L-11.5,-27.7 L11.5,-27.7 Z" fill="none" stroke="black" transform="translate(65.81473886000344,253.7964886590381) rotate(27.42845328290468) scale(0.5673629632318121)" /><path d="M27.7,-11.5 L27.7,11.5 L11.5,27.7 L-11.5,27.7 L-27.7,11.5 L-27.7,-11.5 L-11.5,-27.7 L11.5,-27.7 Z" fill="none" stroke="black" transform="translate(65.81473886000344,253.7964886590381) rotate(27.42845328290468) scale(0.3242074075610355)" /></g><path d="M27.7,-11.5 L27.7,11.5 L11.5,27.7 L-11.5,27.7 L-27.7,11.5 L-27.7,-11.5 L-11.5,-27.7 L11.5,-27.7 Z" fill="none" stroke="black" transform="translate(322.01664092465234,162.79779636285514) rotate(146.1832864464889) scale(1.0036566455841593)" /><g><path d="M0,-30 L30,30 L-30,30 Z" fill="none" stroke="black" transform="translate(331.7227893296095,335.4582331023438) rotate(344.0672075816921) scale(0.8451270084401254)" /><path d="M0,-30 L30,30 L-30,30 Z" fill="none" stroke="black" transform="translate(331.7227893296095,335.4582331023438) rotate(344.0672075816921) scale(0.5915889059080878)" /></g><g><path d="M-30,-20 h60 v40 h-60 Z" fill="none" stroke="black" transform="translate(190.5800926110235,61.43946885844255) rotate(201.19519868750413) scale(0.8322047077637182)" /><path d="M-30,-20 h60 v40 h-60 Z" fill="none" stroke="black" transform="translate(190.5800926110235,61.43946885844255) rotate(201.19519868750413) scale(0.5825432954346027)" /></g><path d="M30,0 L15,-26 L-15,-26 L-30,0 L-15,26 L15,26 Z" fill="none" stroke="black" transform="translate(289.62702863388984,82.09971656950944) rotate(131.12891194886012) scale(0.9236684785031682)" /></svg>