<svg baseProfile="full" height="400" version="1.1" width="400" xmlns="http://www.w3.org/2000/svg" xmlns:ev="http://www.w3.org/2001/xml-events" xmlns:xlink="http://www.w3.org/1999/xlink"><defs /><rect fill="white" height="100%" width="100%" x="0" y="0" /><path d="M30,0 L15,-26 L-15,-26 L-30,0 L-15,26 L15,26 Z" fill="none" stroke="black" transform="translate(266.27593535991707,220.0337579483804) rotate(103.07664566660596) scale(0.824257751298531)" /><path d="M30,0 L15,-26 L-15,-26 L-30,0 L-15,26 L15,26 Z" fill="none" stroke="black" transform="translate(249.6410477537034,141.42566560713433) rotate(191.60124208131938) scale(1.462265918743976)" /><path d="M30,0 L15,-26 L-15,-26 L-30,0 L-15,26 L15,26 Z" fill="none" stroke="black" transform="translate(123.00648443730189,101.162556105883) rotate(299.62095456029687) scale(1.2309446015074619)" /><g><path d="M30,0 L15,-26 L-15,-26 L-30,0 L-15,26 L15,26 Z" fill="none" stroke="black" transform="translate(250.6338375759193,287.66457815579463) rotate(240.0577272371542) scale(1.1760412977124952)" /><path d="M30,0 L15,-26 L-15,-26 L-30,0 L-15,26 L15,26 Z" fill="none" stroke="black" transform="translate(250.6338375759193,287.66457815579463) rotate(240.0577272371542) scale(0.8232289083987466)" /></g><path d="M30,0 L15,-26 L-15,-26 L-30,0 L-15,26 L15,26 Z" fill="none" stroke="black" transform="translate(158.83037072789568,179.36914543534698) rotate(171.45364331195907) scale(1.5562096631924522)" /><g><path d="M30,0 L15,-26 L-15,-26 L-30,0 L-15,26 L15,26 Z" fill="none" stroke="black" transform="translate(106.34637276217538,263.7420979242336) rotate(152.97038114966256) scale(0.9883779626688296)" /><path d="M30,0 L15,-26 L-15,-26 L-30,0 L-15,26 L15,26 Z" fill="none" stroke="black" transform="translate(106.34637276217538,263.7420979242336) rotate(152.97038114966256) scale(0.6918645738681807)" /></g><path d="M0,0 m-30,0 a30,30 0 1,0 60,0 a30,30 0 1,0 -60,0" fill="none" stroke="black" transform="translate(322.509434607179,201.93222009492547) rotate(126.33087181767668) scale(0.9355786112672941)" /><path d="M0,0 m-30,0 a30,30 0 1,0 60,0 a30,30 0 1,0 -60,0" fill="none" stroke="black" transform="translate(326.01426093545655,159.72241074798598) rotate(192.99579176334288) scale(0.8197907762030725)" /><path d="M27.7,-11.5 L27.7,11.5 L11.5,27.7 L-11.5,27.7 L-27.7,11.5 L-27.7,-11.5 L-11.5,-27.7 L11.5,-27.7 Z" fill="none" stroke="black" transform="translate(72.97634103758107,300.87910956913856) rotate(315.49470774859265) scale(0.896293296611153)" /><g><path d="M27.7,-11.5 L27.7,11.5 L11.5,27.7 L-11.5,27.7 L-27.7,11.5 L-27.7,-11.5 L-11.5,-27.7 L11.5,-27.7 Z" fill="none" stroke="black" transform="translate(92.08719615772043,225.3541952540246) rotate(156.1580946774884) scale(0.9244639274001697)" /><path d="M27.7,-11.5 L27.7,11.5 L11.5,27.7 L-11.5,27.7 L-27.7,11.5 L-27.7,-11.5 L-11.5,-27.7 L11.5,-27.7 Z" fill="none" stroke="black" transform="translate(92.08719615772043,225.3541952540246) rotate(156.1580946774884) scale(0.6471247491801188)" /><path d="M27.7,-11.5 L27.7,11.5 L11.5,27.7 L-11.5,27.7 L-27.7,11.5 L-27.7,-11.5 L-11.5,-27.7 L11.5,-27.7 Z" fill="none" stroke="black" transform="translate(92.08719615772043,225.3541952540246) rotate(156.1580946774884) scale(0.3697855709600679)" /></g><path d="M27.7,-11.5 L27.7,11.5 L11.5,27.7 L-11.5,27.7 L-27.7,11.5 L-27.7,-11.5 L-11.5,-27.7 L11.5,-27.7 Z" fill="none" stroke="black" transform="translate(89.79387268170622,173.66149585077864) rotate(351.9891786084863) scale(1.1472723455786262)" /><path d="M0,-30 L30,30 L-30,30 Z" fill="none" stroke="black" transform="translate(306.3603030858693,257.1210255990845) rotate(106.37474766697581) scale(0.9304483737823115)" /><path d="M0,-30 L30,30 L-30,30 Z" fill="none" stroke="black" transform="translate(210.83475242641555,78.62797488936411) rotate(321.02530331262767) scale(0.9061701751600884)" /><g><path d="M0,-30 L30,30 L-30,30 Z" fill="none" stroke="black" transform="translate(161.61600587423695,266.8518634715357) rotate(104.12533815138507) scale(1.0332386748816482)" /><path d="M0,-30 L30,30 L-30,30 Z" fill="none" stroke="black" transform="translate(161.61600587423695,266.8518634715357) rotate(104.12533815138507) scale(0.7232670724171537)" /></g><path d="M0,-30 L30,30 L-30,30 Z" fill="none" stroke="black" transform="translate(175.54916842370545,323.32599172227606) rotate(194.8346176002747) scale(1.0437514380698807)" /><g><path d="M0.0,-30.0 L28.5,-9.3 L17.6,24.3 L-17.6,24.3 L-28.5,-9.3 Z" fill="none" stroke="black" transform="translate(312.9280470401327,323.89501109907366) rotate(139.14707574528532) scale(0.8911605390300814)" /><path d="M0.0,-30.0 L28.5,-9.3 L17.6,24.3 L-17.6,24.3 L-28.5,-9.3 Z" fill="none" stroke="black" transform="translate(312.9280470401327,323.89501109907366) rotate(139.14707574528532) scale(0.623812377321057)" /></g><g><path d="M0.0,-30.0 L8.8,-12.1 L28.5,-9.3 L14.3,4.6 L17.6,24.3 L0.0,15.0 L-17.6,24.3 L-14.3,4.6 L-28.5,-9.3 L-8.8,-12.1 Z" fill="none" stroke="black" transform="translate(257.63716072173037,66.35578803593775) rotate(119.5076442154849) scale(0.8454434980160626)" /><path d="M0.0,-30.0 L8.8,-12.1 L28.5,-9.3 L14.3,4.6 L17.6,24.3 L0.0,15.0 L-17.6,24.3 L-14.3,4.6 L-28.5,-9.3 L-8.8,-12.1 Z" fill="none" stroke="black" transform="translate(257.63716072173037,66.35578803593775) rotate(119.5076442154849) scale(0.5918104486112438)" /><path d="M0.0,-30.0 L8.8,-12.1 L28.5,-9.3 L14.3,4.6 L17.6,24.3 L0.0,15.0 L-17.6,24.3 L-14.3,4.6 L-28.5,-9.3 L-8.8,-12.1 Z" fill="none" stroke="black" transform="translate(257.63716072173037,66.35578803593775) rotate(119.5076442154849) scale(0.33817739920642503)" /></g></svg>