<svg baseProfile="full" height="400" version="1.1" width="400" xmlns="http://www.w3.org/2000/svg" xmlns:ev="http://www.w3.org/2001/xml-events" xmlns:xlink="http://www.w3.org/1999/xlink"><defs /><rect fill="white" height="100%" width="100%" x="0" y="0" /><g><path d="M30,0 L15,-26 L-15,-26 L-30,0 L-15,26 L15,26 Z" fill="none" stroke="black" transform="translate(155.7482075436573,258.6544704435065) rotate(242.88252358449597) scale(1.8345016020942926)" /><path d="M30,0 L15,-26 L-15,-26 L-30,0 L-15,26 L15,26 Z" fill="none" stroke="black" transform="translate(155.7482075436573,258.6544704435065) rotate(242.88252358449597) scale(1.2841511214660046)" /></g><g><path d="M30,0 L15,-26 L-15,-26 L-30,0 L-15,26 L15,26 Z" fill="none" stroke="black" transform="translate(263.432263578119,123.849235250924) rotate(174.3441309649288) scale(1.5797146903083787)" /><path d="M30,0 L15,-26 L-15,-26 L-30,0 L-15,26 L15,26 Z" fill="none" stroke="black" transform="translate(263.432263578119,123.849235250924) rotate(174.3441309649288) scale(1.105800283215865)" /></g><path d="M30,0 L15,-26 L-15,-26 L-30,0 L-15,26 L15,26 Z" fill="none" stroke="black" transform="translate(135.2327834334792,130.5636311097048) rotate(194.54430524936456) scale(1.2894131645191749)" /><path d="M30,0 L15,-26 L-15,-26 L-30,0 L-15,26 L15,26 Z" fill="none" stroke="black" transform="translate(94.89486452765365,201.99305058124799) rotate(344.8986318807408) scale(0.851370548232199)" /><g><path d="M30,0 L15,-26 L-15,-26 L-30,0 L-15,26 L15,26 Z" fill="none" stroke="black" transform="translate(269.899605330665,289.8110727369366) rotate(4.451609536560248) scale(0.9017118196736096)" /><path d="M30,0 L15,-26 L-15,-26 L-30,0 L-15,26 L15,26 Z" fill="none" stroke="black" transform="translate(269.899605330665,289.8110727369366) rotate(4.451609536560248) scale(0.6311982737715267)" /><path d="M30,0 L15,-26 L-15,-26 L-30,0 L-15,26 L15,26 Z" fill="none" stroke="black" transform="translate(269.899605330665,289.8110727369366) rotate(4.451609536560248) scale(0.36068472786944383)" /></g><g><path d="M30,0 L15,-26 L-15,-26 L-30,0 L-15,26 L15,26 Z" fill="none" stroke="black" transform="translate(277.24006727544963,204.87826677259898) rotate(25.608625308396398) scale(0.8367661943605094)" /><path d="M30,0 L15,-26 L-15,-26 L-30,0 L-15,26 L15,26 Z" fill="none" stroke="black" transform="translate(277.24006727544963,204.87826677259898) rotate(25.608625308396398) scale(0.5857363360523565)" /></g><path d="M30,0 L15,-26 L-15,-26 L-30,0 L-15,26 L15,26 Z" fill="none" stroke="black" transform="translate(323.83624982162735,102.6173939370897) rotate(275.63977616364826) scale(0.8026742030500607)" /><g><path d="M0.0,-30.0 L28.5,-9.3 L17.6,24.3 L-17.6,24.3 L-28.5,-9.3 Z" fill="none" stroke="black" transform="translate(78.75138794535229,84.84835872300748) rotate(315.70184151086596) scale(0.9316770524185186)" /><path d="M0.0,-30.0 L28.5,-9.3 L17.6,24.3 L-17.6,24.3 L-28.5,-9.3 Z" fill="none" stroke="black" transform="translate(78.75138794535229,84.84835872300748) rotate(315.70184151086596) scale(0.652173936692963)" /><path d="M0.0,-30.0 L28.5,-9.3 L17.6,24.3 L-17.6,24.3 L-28.5,-9.3 Z" fill="none" stroke="black" transform="translate(78.75138794535229,84.84835872300748) rotate(315.70184151086596) scale(0.37267082096740745)" /></g><g><path d="M0.0,-30.0 L28.5,-9.3 L17.6,24.3 L-17.6,24.3 L-28.5,-9.3 Z" fill="none" stroke="black" transform="translate(70.74439346262406,305.6481759316871) rotate(21.233295960447883) scale(0.8791031086048695)" /><path d="M0.0,-30.0 L28.5,-9.3 L17.6,24.3 L-17.6,24.3 L-28.5,-9.3 Z" fill="none" stroke="black" transform="translate(70.74439346262406,305.6481759316871) rotate(21.233295960447883) scale(0.6153721760234087)" /><path d="M0.0,-30.0 L28.5,-9.3 L17.6,24.3 L-17.6,24.3 L-28.5,-9.3 Z" fill="none" stroke="black" transform="translate(70.74439346262406,305.6481759316871) rotate(21.233295960447883) scale(0.3516412434419478)" /></g><path d="M0.0,-30.0 L28.5,-9.3 L17.6,24.3 L-17.6,24.3 L-28.5,-9.3 Z" fill="none" stroke="black" transform="translate(194.4717325286719,76.35551164495662) rotate(126.0606074365745) scale(0.9626960966687679)" /><path d="M0.0,-30.0 L28.5,-9.3 L17.6,24.3 L-17.6,24.3 L-28.5,-9.3 Z" fill="none" stroke="black" transform="translate(232.4586173329758,198.33930901122392) rotate(307.9120391290738) scale(0.8664338985173574)" /><g><path d="M0.0,-30.0 L28.5,-9.3 L17.6,24.3 L-17.6,24.3 L-28.5,-9.3 Z" fill="none" stroke="black" transform="translate(323.17640309546067,283.0594847197263) rotate(35.44726553520411) scale(1.0103993909476185)" /><path d="M0.0,-30.0 L28.5,-9.3 L17.6,24.3 L-17.6,24.3 L-28.5,-9.3 Z" fill="none" stroke="black" transform="translate(323.17640309546067,283.0594847197263) rotate(35.44726553520411) scale(0.7072795736633329)" /><path d="M0.0,-30.0 L28.5,-9.3 L17.6,24.3 L-17.6,24.3 L-28.5,-9.3 Z" fill="none" stroke="black" transform="translate(323.17640309546067,283.0594847197263) rotate(35.44726553520411) scale(0.40415975637904744)" /></g><path d="M0.0,-30.0 L28.5,-9.3 L17.6,24.3 L-17.6,24.3 L-28.5,-9.3 Z" fill="none" stroke="black" transform="translate(321.5820423355369,187.22385167790708) rotate(163.3248392781363) scale(0.9699974403679312)" /><path d="M0.0,-30.0 L28.5,-9.3 L17.6,24.3 L-17.6,24.3 L-28.5,-9.3 Z" fill="none" stroke="black" transform="translate(273.65011777737215,248.06986149529612) rotate(135.40139494520577) scale(0.8062704098733984)" /><path d="M-30,-20 h60 v40 h-60 Z" fill="none" stroke="black" transform="translate(129.0481434323668,339.1387109813615) rotate(115.46262298197382) scale(0.8448711694673059)" /><g><path d="M-30,-20 h60 v40 h-60 Z" fill="none" stroke="black" transform="translate(189.13689894327695,166.57879197940235) rotate(35.960233302456366) scale(0.9289374291584696)" /><path d="M-30,-20 h60 v40 h-60 Z" fill="none" stroke="black" transform="translate(189.13689894327695,166.57879197940235) rotate(35.960233302456366) scale(0.6502562004109287)" /></g><path d="M-30,-20 h60 v40 h-60 Z" fill="none" stroke="black" transform="translate(72.17193964375872,163.48241472773904) rotate(0.809588172353406) scale(0.8814061575386861)" /><g><path d="M0.0,-30.0 L8.8,-12.1 L28.5,-9.3 L14.3,4.6 L17.6,24.3 L0.0,15.0 L-17.6,24.3 L-14.3,4.6 L-28.5,-9.3 L-8.8,-12.1 Z" fill="none" stroke="black" transform="translate(186.4020603281986,326.77686897522483) rotate(104.51562105954171) scale(0.9090780587048453)" /><path d="M0.0,-30.0 L8.8,-12.1 L28.5,-9.3 L14.3,4.6 L17.6,24.3 L0.0,15.0 L-17.6,24.3 L-14.3,4.6 L-28.5,-9.3 L-8.8,-12.1 Z" fill="none" stroke="black" transform="translate(186.4020603281986,326.77686897522483) rotate(104.51562105954171) scale(0.6363546410933917)" /></g><g><path d="M0,-30 L30,30 L-30,30 Z" fill="none" stroke="black" transform="translate(249.64658709375215,331.3911136246319) rotate(120.72143411468794) scale(0.9198907834479864)" /><path d="M0,-30 L30,30 L-30,30 Z" fill="none" stroke="black" transform="translate(249.64658709375215,331.3911136246319) rotate(120.72143411468794) scale(0.6439235484135905)" /></g></svg>