<svg baseProfile="full" height="400" version="1.1" width="400" xmlns="http://www.w3.org/2000/svg" xmlns:ev="http://www.w3.org/2001/xml-events" xmlns:xlink="http://www.w3.org/1999/xlink"><defs /><rect fill="white" height="100%" width="100%" x="0" y="0" /><path d="M0,-30 L30,30 L-30,30 Z" fill="none" stroke="black" transform="translate(99.29749181514244,247.29195148203598) rotate(240.54015205078645) scale(1.0374641160655258)" /><g><path d="M0,-30 L30,30 L-30,30 Z" fill="none" stroke="black" transform="translate(249.2951722963016,153.80072659210995) rotate(276.6842552774051) scale(1.7033626611022479)" /><path d="M0,-30 L30,30 L-30,30 Z" fill="none" stroke="black" transform="translate(249.2951722963016,153.80072659210995) rotate(276.6842552774051) scale(1.1923538627715735)" /><path d="M0,-30 L30,30 L-30,30 Z" fill="none" stroke="black" transform="translate(249.2951722963016,153.80072659210995) rotate(276.6842552774051) scale(0.6813450644408992)" /></g><path d="M0,-30 L30,30 L-30,30 Z" fill="none" stroke="black" transform="translate(233.30172167906545,275.0344312322218) rotate(13.36934364141058) scale(1.1554181374876875)" /><g><path d="M0,-30 L30,30 L-30,30 Z" fill="none" stroke="black" transform="translate(336.9893114438845,179.41003424468687) rotate(275.30804136968266) scale(0.8341492699063158)" /><path d="M0,-30 L30,30 L-30,30 Z" fill="none" stroke="black" transform="translate(336.9893114438845,179.41003424468687) rotate(275.30804136968266) scale(0.583904488934421)" /></g><path d="M0,-30 L30,30 L-30,30 Z" fill="none" stroke="black" transform="translate(114.38629628064018,126.5207067237009) rotate(30.856816797595066) scale(1.5658629828998376)" /><g><path d="M30,0 L15,-26 L-15,-26 L-30,0 L-15,26 L15,26 Z" fill="none" stroke="black" transform="translate(166.69923207040404,245.82250307184142) rotate(321.9240842073614) scale(1.3233562356377635)" /><path d="M30,0 L15,-26 L-15,-26 L-30,0 L-15,26 L15,26 Z" fill="none" stroke="black" transform="translate(166.69923207040404,245.82250307184142) rotate(321.9240842073614) scale(0.9263493649464344)" /></g><g><path d="M30,0 L15,-26 L-15,-26 L-30,0 L-15,26 L15,26 Z" fill="none" stroke="black" transform="translate(301.0754252409226,245.07620127872514) rotate(84.36096211767536) scale(1.1245845243330872)" /><path d="M30,0 L15,-26 L-15,-26 L-30,0 L-15,26 L15,26 Z" fill="none" stroke="black" transform="translate(301.0754252409226,245.07620127872514) rotate(84.36096211767536) scale(0.787209167033161)" /></g><g><path d="M30,0 L15,-26 L-15,-26 L-30,0 L-15,26 L15,26 Z" fill="none" stroke="black" transform="translate(321.91683725237675,123.92090086976927) rotate(191.29864395346067) scale(0.9236070007188616)" /><path d="M30,0 L15,-26 L-15,-26 L-30,0 L-15,26 L15,26 Z" fill="none" stroke="black" transform="translate(321.91683725237675,123.92090086976927) rotate(191.29864395346067) scale(0.6465249005032031)" /></g><path d="M0.0,-30.0 L8.8,-12.1 L28.5,-9.3 L14.3,4.6 L17.6,24.3 L0.0,15.0 L-17.6,24.3 L-14.3,4.6 L-28.5,-9.3 L-8.8,-12.1 Z" fill="none" stroke="black" transform="translate(227.7151394827029,223.9734051311927) rotate(285.4328673642297) scale(0.8034280211417806)" /><path d="M0.0,-30.0 L8.8,-12.1 L28.5,-9.3 L14.3,4.6 L17.6,24.3 L0.0,15.0 L-17.6,24.3 L-14.3,4.6 L-28.5,-9.3 L-8.8,-12.1 Z" fill="none" stroke="black" transform="translate(144.8159165573587,307.2092987823061) rotate(188.18263873205234) scale(0.8584196501490202)" /><path d="M0.0,-30.0 L8.8,-12.1 L28.5,-9.3 L14.3,4.6 L17.6,24.3 L0.0,15.0 L-17.6,24.3 L-14.3,4.6 L-28.5,-9.3 L-8.8,-12.1 Z" fill="none" stroke="black" transform="translate(181.96128060683088,140.22552694535534) rotate(45.98279805698845) scale(0.8501574574174868)" /><path d="M0.0,-30.0 L8.8,-12.1 L28.5,-9.3 L14.3,4.6 L17.6,24.3 L0.0,15.0 L-17.6,24.3 L-14.3,4.6 L-28.5,-9.3 L-8.8,-12.1 Z" fill="none" stroke="black" transform="translate(78.7599818473525,305.11604606082585) rotate(316.83758183140316) scale(1.0457968246346288)" /><g><path d="M0.0,-30.0 L8.8,-12.1 L28.5,-9.3 L14.3,4.6 L17.6,24.3 L0.0,15.0 L-17.6,24.3 L-14.3,4.6 L-28.5,-9.3 L-8.8,-12.1 Z" fill="none" stroke="black" transform="translate(276.36639781186386,334.2083055593073) rotate(255.79397865655034) scale(0.8964214185561107)" /><path d="M0.0,-30.0 L8.8,-12.1 L28.5,-9.3 L14.3,4.6 L17.6,24.3 L0.0,15.0 L-17.6,24.3 L-14.3,4.6 L-28.5,-9.3 L-8.8,-12.1 Z" fill="none" stroke="black" transform="translate(276.36639781186386,334.2083055593073) rotate(255.79397865655034) scale(0.6274949929892775)" /></g></svg>