<svg baseProfile="full" height="400" version="1.1" width="400" xmlns="http://www.w3.org/2000/svg" xmlns:ev="http://www.w3.org/2001/xml-events" xmlns:xlink="http://www.w3.org/1999/xlink"><defs /><rect fill="white" height="100%" width="100%" x="0" y="0" /><g><path d="M0.0,-30.0 L8.8,-12.1 L28.5,-9.3 L14.3,4.6 L17.6,24.3 L0.0,15.0 L-17.6,24.3 L-14.3,4.6 L-28.5,-9.3 L-8.8,-12.1 Z" fill="none" stroke="black" transform="translate(221.5693114015163,252.6684222406544) rotate(257.843757040129) scale(1.539437700611095)" /><path d="M0.0,-30.0 L8.8,-12.1 L28.5,-9.3 L14.3,4.6 L17.6,24.3 L0.0,15.0 L-17.6,24.3 L-14.3,4.6 L-28.5,-9.3 L-8.8,-12.1 Z" fill="none" stroke="black" transform="translate(221.5693114015163,252.6684222406544) rotate(257.843757040129) scale(1.0776063904277664)" /><path d="M0.0,-30.0 L8.8,-12.1 L28.5,-9.3 L14.3,4.6 L17.6,24.3 L0.0,15.0 L-17.6,24.3 L-14.3,4.6 L-28.5,-9.3 L-8.8,-12.1 Z" fill="none" stroke="black" transform="translate(221.5693114015163,252.6684222406544) rotate(257.843757040129) scale(0.6157750802444381)" /></g><path d="M0,0 m-30,0 a30,30 0 1,0 60,0 a30,30 0 1,0 -60,0" fill="none" stroke="black" transform="translate(250.04074783846755,163.5158915866665) rotate(88.69747501693229) scale(1.461531818482086)" /><path d="M0,0 m-30,0 a30,30 0 1,0 60,0 a30,30 0 1,0 -60,0" fill="none" stroke="black" transform="translate(165.40256638572723,93.45372974747951) rotate(30.94366159637572) scale(1.275316216924212)" /><path d="M0,0 m-30,0 a30,30 0 1,0 60,0 a30,30 0 1,0 -60,0" fill="none" stroke="black" transform="translate(112.78803724027453,131.0466818948922) rotate(138.05583192065987) scale(0.9542060791085861)" /><path d="M-30,-20 h60 v40 h-60 Z" fill="none" stroke="black" transform="translate(191.07144536201207,204.65406078178074) rotate(316.64398775131735) scale(0.8696474114612315)" /><path d="M-30,-20 h60 v40 h-60 Z" fill="none" stroke="black" transform="translate(269.6258057821043,306.920131597397) rotate(176.46865218511272) scale(1.0435756821742537)" /><g><path d="M0,-30 L30,30 L-30,30 Z" fill="none" stroke="black" transform="translate(184.7706604998693,307.07213636969476) rotate(130.22056445950452) scale(0.8010823918760834)" /><path d="M0,-30 L30,30 L-30,30 Z" fill="none" stroke="black" transform="translate(184.7706604998693,307.07213636969476) rotate(130.22056445950452) scale(0.5607576743132584)" /><path d="M0,-30 L30,30 L-30,30 Z" fill="none" stroke="black" transform="translate(184.7706604998693,307.07213636969476) rotate(130.22056445950452) scale(0.3204329567504334)" /></g><g><path d="M30,0 L15,-26 L-15,-26 L-30,0 L-15,26 L15,26 Z" fill="none" stroke="black" transform="translate(95.03101027291702,173.1718433827566) rotate(120.12211269389671) scale(1.3042062046233196)" /><path d="M30,0 L15,-26 L-15,-26 L-30,0 L-15,26 L15,26 Z" fill="none" stroke="black" transform="translate(95.03101027291702,173.1718433827566) rotate(120.12211269389671) scale(0.9129443432363237)" /><path d="M30,0 L15,-26 L-15,-26 L-30,0 L-15,26 L15,26 Z" fill="none" stroke="black" transform="translate(95.03101027291702,173.1718433827566) rotate(120.12211269389671) scale(0.5216824818493279)" /></g><path d="M30,0 L15,-26 L-15,-26 L-30,0 L-15,26 L15,26 Z" fill="none" stroke="black" transform="translate(232.60566399018256,96.91037679033279) rotate(80.74561523432052) scale(1.3436902620557705)" /><g><path d="M30,0 L15,-26 L-15,-26 L-30,0 L-15,26 L15,26 Z" fill="none" stroke="black" transform="translate(111.98049975834462,252.72750977162383) rotate(355.4950346910362) scale(1.4594038032120902)" /><path d="M30,0 L15,-26 L-15,-26 L-30,0 L-15,26 L15,26 Z" fill="none" stroke="black" transform="translate(111.98049975834462,252.72750977162383) rotate(355.4950346910362) scale(1.0215826622484632)" /><path d="M30,0 L15,-26 L-15,-26 L-30,0 L-15,26 L15,26 Z" fill="none" stroke="black" transform="translate(111.98049975834462,252.72750977162383) rotate(355.4950346910362) scale(0.583761521284836)" /></g><g><path d="M0.0,-30.0 L28.5,-9.3 L17.6,24.3 L-17.6,24.3 L-28.5,-9.3 Z" fill="none" stroke="black" transform="translate(119.47146233257229,312.09018492290255) rotate(219.88884633718143) scale(0.9200034146759688)" /><path d="M0.0,-30.0 L28.5,-9.3 L17.6,24.3 L-17.6,24.3 L-28.5,-9.3 Z" fill="none" stroke="black" transform="translate(119.47146233257229,312.09018492290255) rotate(219.88884633718143) scale(0.6440023902731781)" /><path d="M0.0,-30.0 L28.5,-9.3 L17.6,24.3 L-17.6,24.3 L-28.5,-9.3 Z" fill="none" stroke="black" transform="translate(119.47146233257229,312.09018492290255) rotate(219.88884633718143) scale(0.36800136587038756)" /></g><path d="M0.0,-30.0 L28.5,-9.3 L17.6,24.3 L-17.6,24.3 L-28.5,-9.3 Z" fill="none" stroke="black" transform="translate(304.0997008926101,197.2269793502872) rotate(327.05665375315715) scale(0.8690509607790291)" /><path d="M27.7,-11.5 L27.7,11.5 L11.5,27.7 L-11.5,27.7 L-27.7,11.5 L-27.7,-11.5 L-11.5,-27.7 L11.5,-27.7 Z" fill="none" stroke="black" transform="translate(310.44018335595774,123.44540580678145) rotate(342.8425457195383) scale(1.1585292203943507)" /></svg>