<svg baseProfile="full" height="400" version="1.1" width="400" xmlns="http://www.w3.org/2000/svg" xmlns:ev="http://www.w3.org/2001/xml-events" xmlns:xlink="http://www.w3.org/1999/xlink"><defs /><rect fill="white" height="100%" width="100%" x="0" y="0" /><path d="M0.0,-30.0 L28.5,-9.3 L17.6,24.3 L-17.6,24.3 L-28.5,-9.3 Z" fill="none" stroke="black" transform="translate(191.28325573513206,190.0570259418609) rotate(281.1444567811224) scale(1.536910480583864)" /><path d="M0.0,-30.0 L28.5,-9.3 L17.6,24.3 L-17.6,24.3 L-28.5,-9.3 Z" fill="none" stroke="black" transform="translate(134.571230603643,273.76592717955873) rotate(300.3522645600063) scale(1.6992743629741527)" /><path d="M0.0,-30.0 L28.5,-9.3 L17.6,24.3 L-17.6,24.3 L-28.5,-9.3 Z" fill="none" stroke="black" transform="translate(242.42313863611665,211.6449996710885) rotate(195.2104445953403) scale(0.8946578887369583)" /><path d="M0.0,-30.0 L28.5,-9.3 L17.6,24.3 L-17.6,24.3 L-28.5,-9.3 Z" fill="none" stroke="black" transform="translate(169.27491180471,101.81805901753869) rotate(151.17759154928083) scale(1.3951409299515767)" /><g><path d="M0,-30 L30,30 L-30,30 Z" fill="none" stroke="black" transform="translate(309.5096352689952,157.53423062975398) rotate(248.9697814409061) scale(0.8216287211612584)" /><path d="M0,-30 L30,30 L-30,30 Z" fill="none" stroke="black" transform="translate(309.5096352689952,157.53423062975398) rotate(248.9697814409061) scale(0.5751401048128808)" /></g><g><path d="M-30,-20 h60 v40 h-60 Z" fill="none" stroke="black" transform="translate(232.96861221061545,105.29190748300425) rotate(45.32296939272137) scale(1.0277439440067113)" /><path d="M-30,-20 h60 v40 h-60 Z" fill="none" stroke="black" transform="translate(232.96861221061545,105.29190748300425) rotate(45.32296939272137) scale(0.7194207608046979)" /><path d="M-30,-20 h60 v40 h-60 Z" fill="none" stroke="black" transform="translate(232.96861221061545,105.29190748300425) rotate(45.32296939272137) scale(0.41109757760268456)" /></g><g><path d="M-30,-20 h60 v40 h-60 Z" fill="none" stroke="black" transform="translate(307.8421536673867,326.20861190368424) rotate(350.6595628498708) scale(0.99798308418366)" /><path d="M-30,-20 h60 v40 h-60 Z" fill="none" stroke="black" transform="translate(307.8421536673867,326.20861190368424) rotate(350.6595628498708) scale(0.698588158928562)" /><path d="M-30,-20 h60 v40 h-60 Z" fill="none" stroke="black" transform="translate(307.8421536673867,326.20861190368424) rotate(350.6595628498708) scale(0.39919323367346404)" /></g><g><path d="M-30,-20 h60 v40 h-60 Z" fill="none" stroke="black" transform="translate(278.41262317127246,121.17487710862525) rotate(230.1484355683779) scale(0.9998958617547721)" /><path d="M-30,-20 h60 v40 h-60 Z" fill="none" stroke="black" transform="translate(278.41262317127246,121.17487710862525) rotate(230.1484355683779) scale(0.6999271032283404)" /></g><path d="M-30,-20 h60 v40 h-60 Z" fill="none" stroke="black" transform="translate(330.4655281527836,235.48873585260483) rotate(175.24475705891) scale(0.928484886672498)" /></svg>