<svg baseProfile="full" height="400" version="1.1" width="400" xmlns="http://www.w3.org/2000/svg" xmlns:ev="http://www.w3.org/2001/xml-events" xmlns:xlink="http://www.w3.org/1999/xlink"><defs /><rect fill="white" height="100%" width="100%" x="0" y="0" /><path d="M0.0,-30.0 L28.5,-9.3 L17.6,24.3 L-17.6,24.3 L-28.5,-9.3 Z" fill="none" stroke="black" transform="translate(162.5742343746485,117.2997030855845) rotate(15.586322955124432) scale(1.2492938505968536)" /><path d="M0.0,-30.0 L28.5,-9.3 L17.6,24.3 L-17.6,24.3 L-28.5,-9.3 Z" fill="none" stroke="black" transform="translate(222.34250512802095,238.1951531873977) rotate(230.21784269252353) scale(1.8683262268930259)" /><path d="M27.7,-11.5 L27.7,11.5 L11.5,27.7 L-11.5,27.7 L-27.7,11.5 L-27.7,-11.5 L-11.5,-27.7 L11.5,-27.7 Z" fill="none" stroke="black" transform="translate(132.292822037053,246.22120781453162) rotate(57.542658888298234) scale(0.8400140119360943)" /><g><path d="M0,0 m-30,0 a30,30 0 1,0 60,0 a30,30 0 1,0 -60,0" fill="none" stroke="black" transform="translate(135.38538091091178,301.81857303501783) rotate(79.78595535655593) scale(1.0057560164554258)" /><path d="M0,0 m-30,0 a30,30 0 1,0 60,0 a30,30 0 1,0 -60,0" fill="none" stroke="black" transform="translate(135.38538091091178,301.81857303501783) rotate(79.78595535655593) scale(0.704029211518798)" /><path d="M0,0 m-30,0 a30,30 0 1,0 60,0 a30,30 0 1,0 -60,0" fill="none" stroke="black" transform="translate(135.38538091091178,301.81857303501783) rotate(79.78595535655593) scale(0.4023024065821703)" /></g><path d="M0,0 m-30,0 a30,30 0 1,0 60,0 a30,30 0 1,0 -60,0" fill="none" stroke="black" transform="translate(293.3076539517321,273.8086524470616) rotate(318.8895210740001) scale(0.8380482188465682)" /><g><path d="M0,0 m-30,0 a30,30 0 1,0 60,0 a30,30 0 1,0 -60,0" fill="none" stroke="black" transform="translate(112.08706577695341,170.14345445196182) rotate(203.70208709182157) scale(1.444899403100544)" /><path d="M0,0 m-30,0 a30,30 0 1,0 60,0 a30,30 0 1,0 -60,0" fill="none" stroke="black" transform="translate(112.08706577695341,170.14345445196182) rotate(203.70208709182157) scale(1.0114295821703807)" /></g></svg>