<svg baseProfile="full" height="400" version="1.1" width="400" xmlns="http://www.w3.org/2000/svg" xmlns:ev="http://www.w3.org/2001/xml-events" xmlns:xlink="http://www.w3.org/1999/xlink"><defs /><rect fill="white" height="100%" width="100%" x="0" y="0" /><path d="M27.7,-11.5 L27.7,11.5 L11.5,27.7 L-11.5,27.7 L-27.7,11.5 L-27.7,-11.5 L-11.5,-27.7 L11.5,-27.7 Z" fill="none" stroke="black" transform="translate(167.48877224771843,173.34579074561978) rotate(213.81230067614072) scale(1.971222362824074)" /><g><path d="M27.7,-11.5 L27.7,11.5 L11.5,27.7 L-11.5,27.7 L-27.7,11.5 L-27.7,-11.5 L-11.5,-27.7 L11.5,-27.7 Z" fill="none" stroke="black" transform="translate(302.56165978760765,120.85213726168475) rotate(222.79163282398224) scale(1.2408679130616107)" /><path d="M27.7,-11.5 L27.7,11.5 L11.5,27.7 L-11.5,27.7 L-27.7,11.5 L-27.7,-11.5 L-11.5,-27.7 L11.5,-27.7 Z" fill="none" stroke="black" transform="translate(302.56165978760765,120.85213726168475) rotate(222.79163282398224) scale(0.8686075391431275)" /></g><g><path d="M27.7,-11.5 L27.7,11.5 L11.5,27.7 L-11.5,27.7 L-27.7,11.5 L-27.7,-11.5 L-11.5,-27.7 L11.5,-27.7 Z" fill="none" stroke="black" transform="translate(113.46911084958195,145.12528454517798) rotate(210.91836508679975) scale(0.8328345332783171)" /><path d="M27.7,-11.5 L27.7,11.5 L11.5,27.7 L-11.5,27.7 L-27.7,11.5 L-27.7,-11.5 L-11.5,-27.7 L11.5,-27.7 Z" fill="none" stroke="black" transform="translate(113.46911084958195,145.12528454517798) rotate(210.91836508679975) scale(0.582984173294822)" /></g><g><path d="M27.7,-11.5 L27.7,11.5 L11.5,27.7 L-11.5,27.7 L-27.7,11.5 L-27.7,-11.5 L-11.5,-27.7 L11.5,-27.7 Z" fill="none" stroke="black" transform="translate(105.60541583985678,98.01543499063384) rotate(220.52145137379046) scale(1.106983434871691)" /><path d="M27.7,-11.5 L27.7,11.5 L11.5,27.7 L-11.5,27.7 L-27.7,11.5 L-27.7,-11.5 L-11.5,-27.7 L11.5,-27.7 Z" fill="none" stroke="black" transform="translate(105.60541583985678,98.01543499063384) rotate(220.52145137379046) scale(0.7748884044101836)" /><path d="M27.7,-11.5 L27.7,11.5 L11.5,27.7 L-11.5,27.7 L-27.7,11.5 L-27.7,-11.5 L-11.5,-27.7 L11.5,-27.7 Z" fill="none" stroke="black" transform="translate(105.60541583985678,98.01543499063384) rotate(220.52145137379046) scale(0.4427933739486764)" /></g><g><path d="M27.7,-11.5 L27.7,11.5 L11.5,27.7 L-11.5,27.7 L-27.7,11.5 L-27.7,-11.5 L-11.5,-27.7 L11.5,-27.7 Z" fill="none" stroke="black" transform="translate(142.84936542838568,266.17466220456276) rotate(77.72933169609365) scale(1.1240517045278093)" /><path d="M27.7,-11.5 L27.7,11.5 L11.5,27.7 L-11.5,27.7 L-27.7,11.5 L-27.7,-11.5 L-11.5,-27.7 L11.5,-27.7 Z" fill="none" stroke="black" transform="translate(142.84936542838568,266.17466220456276) rotate(77.72933169609365) scale(0.7868361931694665)" /></g><path d="M27.7,-11.5 L27.7,11.5 L11.5,27.7 L-11.5,27.7 L-27.7,11.5 L-27.7,-11.5 L-11.5,-27.7 L11.5,-27.7 Z" fill="none" stroke="black" transform="translate(258.41037726056385,217.17492912165437) rotate(47.72444770798898) scale(1.0112803391740486)" /><g><path d="M27.7,-11.5 L27.7,11.5 L11.5,27.7 L-11.5,27.7 L-27.7,11.5 L-27.7,-11.5 L-11.5,-27.7 L11.5,-27.7 Z" fill="none" stroke="black" transform="translate(159.11716374854296,83.56975523275091) rotate(289.8966452038352) scale(0.9312286860126048)" /><path d="M27.7,-11.5 L27.7,11.5 L11.5,27.7 L-11.5,27.7 L-27.7,11.5 L-27.7,-11.5 L-11.5,-27.7 L11.5,-27.7 Z" fill="none" stroke="black" transform="translate(159.11716374854296,83.56975523275091) rotate(289.8966452038352) scale(0.6518600802088234)" /><path d="M27.7,-11.5 L27.7,11.5 L11.5,27.7 L-11.5,27.7 L-27.7,11.5 L-27.7,-11.5 L-11.5,-27.7 L11.5,-27.7 Z" fill="none" stroke="black" transform="translate(159.11716374854296,83.56975523275091) rotate(289.8966452038352) scale(0.37249147440504193)" /></g><g><path d="M0,0 m-30,0 a30,30 0 1,0 60,0 a30,30 0 1,0 -60,0" fill="none" stroke="black" transform="translate(94.41114365483631,291.5951853045404) rotate(203.18206271807352) scale(1.0158046289651574)" /><path d="M0,0 m-30,0 a30,30 0 1,0 60,0 a30,30 0 1,0 -60,0" fill="none" stroke="black" transform="translate(94.41114365483631,291.5951853045404) rotate(203.18206271807352) scale(0.7110632402756102)" /></g><path d="M0,0 m-30,0 a30,30 0 1,0 60,0 a30,30 0 1,0 -60,0" fill="none" stroke="black" transform="translate(239.0380376353425,114.60069941881903) rotate(107.7157673258757) scale(1.2454764108798284)" /><path d="M0,0 m-30,0 a30,30 0 1,0 60,0 a30,30 0 1,0 -60,0" fill="none" stroke="black" transform="translate(331.86923976159835,191.3919865537897) rotate(175.583997382032) scale(0.8801728049799032)" /><path d="M30,0 L15,-26 L-15,-26 L-30,0 L-15,26 L15,26 Z" fill="none" stroke="black" transform="translate(244.63736493784546,317.9653814720838) rotate(325.72428956011953) scale(1.1170567938046805)" /><path d="M30,0 L15,-26 L-15,-26 L-30,0 L-15,26 L15,26 Z" fill="none" stroke="black" transform="translate(73.98342810700912,175.66385266876296) rotate(222.4757687737212) scale(0.8896118217975136)" /><g><path d="M30,0 L15,-26 L-15,-26 L-30,0 L-15,26 L15,26 Z" fill="none" stroke="black" transform="translate(292.5974391322002,275.4502998625135) rotate(265.89441225228484) scale(1.1738196784358006)" /><path d="M30,0 L15,-26 L-15,-26 L-30,0 L-15,26 L15,26 Z" fill="none" stroke="black" transform="translate(292.5974391322002,275.4502998625135) rotate(265.89441225228484) scale(0.8216737749050603)" /><path d="M30,0 L15,-26 L-15,-26 L-30,0 L-15,26 L15,26 Z" fill="none" stroke="black" transform="translate(292.5974391322002,275.4502998625135) rotate(265.89441225228484) scale(0.4695278713743203)" /></g><g><path d="M30,0 L15,-26 L-15,-26 L-30,0 L-15,26 L15,26 Z" fill="none" stroke="black" transform="translate(320.8054858467343,318.5672062229427) rotate(91.10483658514647) scale(1.0958904653319008)" /><path d="M30,0 L15,-26 L-15,-26 L-30,0 L-15,26 L15,26 Z" fill="none" stroke="black" transform="translate(320.8054858467343,318.5672062229427) rotate(91.10483658514647) scale(0.7671233257323306)" /><path d="M30,0 L15,-26 L-15,-26 L-30,0 L-15,26 L15,26 Z" fill="none" stroke="black" transform="translate(320.8054858467343,318.5672062229427) rotate(91.10483658514647) scale(0.43835618613276034)" /></g><path d="M30,0 L15,-26 L-15,-26 L-30,0 L-15,26 L15,26 Z" fill="none" stroke="black" transform="translate(328.66152735985366,260.1050749914445) rotate(273.8135095668413) scale(0.9062254907792053)" /><path d="M30,0 L15,-26 L-15,-26 L-30,0 L-15,26 L15,26 Z" fill="none" stroke="black" transform="translate(251.62047702568523,160.76947441720966) rotate(112.61085962415194) scale(0.9321070076067196)" /><path d="M30,0 L15,-26 L-15,-26 L-30,0 L-15,26 L15,26 Z" fill="none" stroke="black" transform="translate(211.0941756029069,258.98452022876296) rotate(209.8914595942913) scale(1.3614524994284145)" /></svg>