<svg baseProfile="full" height="400" version="1.1" width="400" xmlns="http://www.w3.org/2000/svg" xmlns:ev="http://www.w3.org/2001/xml-events" xmlns:xlink="http://www.w3.org/1999/xlink"><defs /><rect fill="white" height="100%" width="100%" x="0" y="0" /><path d="M27.7,-11.5 L27.7,11.5 L11.5,27.7 L-11.5,27.7 L-27.7,11.5 L-27.7,-11.5 L-11.5,-27.7 L11.5,-27.7 Z" fill="none" stroke="black" transform="translate(264.0326125806782,159.49031876575438) rotate(34.22086425276847) scale(1.3832455476733474)" /><path d="M27.7,-11.5 L27.7,11.5 L11.5,27.7 L-11.5,27.7 L-27.7,11.5 L-27.7,-11.5 L-11.5,-27.7 L11.5,-27.7 Z" fill="none" stroke="black" transform="translate(99.22654578156815,318.8568384216306) rotate(218.0077832569849) scale(0.918892901297495)" /><path d="M27.7,-11.5 L27.7,11.5 L11.5,27.7 L-11.5,27.7 L-27.7,11.5 L-27.7,-11.5 L-11.5,-27.7 L11.5,-27.7 Z" fill="none" stroke="black" transform="translate(138.1482986539242,125.36999711996108) rotate(236.30560436777384) scale(1.0337224795255702)" /><path d="M27.7,-11.5 L27.7,11.5 L11.5,27.7 L-11.5,27.7 L-27.7,11.5 L-27.7,-11.5 L-11.5,-27.7 L11.5,-27.7 Z" fill="none" stroke="black" transform="translate(127.73045572964955,231.1435028218866) rotate(203.72282595153038) scale(1.4316190747003938)" /><path d="M27.7,-11.5 L27.7,11.5 L11.5,27.7 L-11.5,27.7 L-27.7,11.5 L-27.7,-11.5 L-11.5,-27.7 L11.5,-27.7 Z" fill="none" stroke="black" transform="translate(292.00565610052314,253.48175555679904) rotate(16.88982082406313) scale(0.8117572486173597)" /><path d="M27.7,-11.5 L27.7,11.5 L11.5,27.7 L-11.5,27.7 L-27.7,11.5 L-27.7,-11.5 L-11.5,-27.7 L11.5,-27.7 Z" fill="none" stroke="black" transform="translate(254.02704534889995,300.74739914237995) rotate(127.73602951160338) scale(1.2406584629930324)" /><path d="M27.7,-11.5 L27.7,11.5 L11.5,27.7 L-11.5,27.7 L-27.7,11.5 L-27.7,-11.5 L-11.5,-27.7 L11.5,-27.7 Z" fill="none" stroke="black" transform="translate(75.58469364820324,145.20575194268096) rotate(102.64542949546046) scale(0.8282574127881592)" /><path d="M27.7,-11.5 L27.7,11.5 L11.5,27.7 L-11.5,27.7 L-27.7,11.5 L-27.7,-11.5 L-11.5,-27.7 L11.5,-27.7 Z" fill="none" stroke="black" transform="translate(188.43418286233432,185.13733804287222) rotate(193.97535919945204) scale(0.9110058880746712)" /><path d="M27.7,-11.5 L27.7,11.5 L11.5,27.7 L-11.5,27.7 L-27.7,11.5 L-27.7,-11.5 L-11.5,-27.7 L11.5,-27.7 Z" fill="none" stroke="black" transform="translate(317.6395310353972,192.44227842743362) rotate(318.99969508353183) scale(0.9865650595581416)" /><path d="M27.7,-11.5 L27.7,11.5 L11.5,27.7 L-11.5,27.7 L-27.7,11.5 L-27.7,-11.5 L-11.5,-27.7 L11.5,-27.7 Z" fill="none" stroke="black" transform="translate(188.85153358081723,266.78702691579747) rotate(12.842497283111527) scale(0.8958959106023515)" /><path d="M0.0,-30.0 L8.8,-12.1 L28.5,-9.3 L14.3,4.6 L17.6,24.3 L0.0,15.0 L-17.6,24.3 L-14.3,4.6 L-28.5,-9.3 L-8.8,-12.1 Z" fill="none" stroke="black" transform="translate(258.9114243174242,83.13791941660747) rotate(161.76649706052447) scale(0.8383565035794124)" /><path d="M0.0,-30.0 L8.8,-12.1 L28.5,-9.3 L14.3,4.6 L17.6,24.3 L0.0,15.0 L-17.6,24.3 L-14.3,4.6 L-28.5,-9.3 L-8.8,-12.1 Z" fill="none" stroke="black" transform="translate(332.56966381077274,279.63902996643657) rotate(200.72247464324457) scale(0.928330027129695)" /><path d="M0.0,-30.0 L8.8,-12.1 L28.5,-9.3 L14.3,4.6 L17.6,24.3 L0.0,15.0 L-17.6,24.3 L-14.3,4.6 L-28.5,-9.3 L-8.8,-12.1 Z" fill="none" stroke="black" transform="translate(162.12110617018305,314.30676886304997) rotate(113.27939823167526) scale(0.8217555042392857)" /><path d="M0.0,-30.0 L8.8,-12.1 L28.5,-9.3 L14.3,4.6 L17.6,24.3 L0.0,15.0 L-17.6,24.3 L-14.3,4.6 L-28.5,-9.3 L-8.8,-12.1 Z" fill="none" stroke="black" transform="translate(205.80441993124765,100.89116923942709) rotate(204.28548701379987) scale(0.8450169586817482)" /><g><path d="M0.0,-30.0 L8.8,-12.1 L28.5,-9.3 L14.3,4.6 L17.6,24.3 L0.0,15.0 L-17.6,24.3 L-14.3,4.6 L-28.5,-9.3 L-8.8,-12.1 Z" fill="none" stroke="black" transform="translate(318.74745296056057,334.31159553076105) rotate(95.5854121491856) scale(0.8494842125561191)" /><path d="M0.0,-30.0 L8.8,-12.1 L28.5,-9.3 L14.3,4.6 L17.6,24.3 L0.0,15.0 L-17.6,24.3 L-14.3,4.6 L-28.5,-9.3 L-8.8,-12.1 Z" fill="none" stroke="black" transform="translate(318.74745296056057,334.31159553076105) rotate(95.5854121491856) scale(0.5946389487892833)" /></g><path d="M0.0,-30.0 L8.8,-12.1 L28.5,-9.3 L14.3,4.6 L17.6,24.3 L0.0,15.0 L-17.6,24.3 L-14.3,4.6 L-28.5,-9.3 L-8.8,-12.1 Z" fill="none" stroke="black" transform="translate(304.5131178914865,102.08834586496697) rotate(346.3849319678463) scale(0.992503273279098)" /><g><path d="M0,-30 L30,30 L-30,30 Z" fill="none" stroke="black" transform="translate(133.47228179969517,76.60279697655417) rotate(145.97447323227672) scale(1.0109133418958978)" /><path d="M0,-30 L30,30 L-30,30 Z" fill="none" stroke="black" transform="translate(133.47228179969517,76.60279697655417) rotate(145.97447323227672) scale(0.7076393393271284)" /><path d="M0,-30 L30,30 L-30,30 Z" fill="none" stroke="black" transform="translate(133.47228179969517,76.60279697655417) rotate(145.97447323227672) scale(0.4043653367583591)" /></g><path d="M0,-30 L30,30 L-30,30 Z" fill="none" stroke="black" transform="translate(71.07961575824106,63.251224466231285) rotate(126.208405882549) scale(0.8750511227289354)" /><g><path d="M0.0,-30.0 L28.5,-9.3 L17.6,24.3 L-17.6,24.3 L-28.5,-9.3 Z" fill="none" stroke="black" transform="translate(75.99580583900175,283.9350436943971) rotate(34.91867234180209) scale(0.9609726206720801)" /><path d="M0.0,-30.0 L28.5,-9.3 L17.6,24.3 L-17.6,24.3 L-28.5,-9.3 Z" fill="none" stroke="black" transform="translate(75.99580583900175,283.9350436943971) rotate(34.91867234180209) scale(0.672680834470456)" /></g><path d="M-30,-20 h60 v40 h-60 Z" fill="none" stroke="black" transform="translate(218.3764904004486,215.86698288756764) rotate(198.76999934660086) scale(0.891948478751919)" /><g><path d="M0,0 m-30,0 a30,30 0 1,0 60,0 a30,30 0 1,0 -60,0" fill="none" stroke="black" transform="translate(62.83889639854722,203.91473397963355) rotate(34.98527068097701) scale(0.8299137712509459)" /><path d="M0,0 m-30,0 a30,30 0 1,0 60,0 a30,30 0 1,0 -60,0" fill="none" stroke="black" transform="translate(62.83889639854722,203.91473397963355) rotate(34.98527068097701) scale(0.5809396398756621)" /></g><g><path d="M30,0 L15,-26 L-15,-26 L-30,0 L-15,26 L15,26 Z" fill="none" stroke="black" transform="translate(200.80200848597747,330.9946293794551) rotate(226.68899331872615) scale(0.9142607173070755)" /><path d="M30,0 L15,-26 L-15,-26 L-30,0 L-15,26 L15,26 Z" fill="none" stroke="black" transform="translate(200.80200848597747,330.9946293794551) rotate(226.68899331872615) scale(0.6399825021149528)" /></g><path d="M30,0 L15,-26 L-15,-26 L-30,0 L-15,26 L15,26 Z" fill="none" stroke="black" transform="translate(253.20595099297873,231.55549238468114) rotate(15.232561873538085) scale(0.9280946464853701)" /></svg>