<svg baseProfile="full" height="400" version="1.1" width="400" xmlns="http://www.w3.org/2000/svg" xmlns:ev="http://www.w3.org/2001/xml-events" xmlns:xlink="http://www.w3.org/1999/xlink"><defs /><rect fill="white" height="100%" width="100%" x="0" y="0" /><g><path d="M0.0,-30.0 L8.8,-12.1 L28.5,-9.3 L14.3,4.6 L17.6,24.3 L0.0,15.0 L-17.6,24.3 L-14.3,4.6 L-28.5,-9.3 L-8.8,-12.1 Z" fill="none" stroke="black" transform="translate(201.47755357899,227.09521646501355) rotate(355.61436722446604) scale(1.3810506191433929)" /><path d="M0.0,-30.0 L8.8,-12.1 L28.5,-9.3 L14.3,4.6 L17.6,24.3 L0.0,15.0 L-17.6,24.3 L-14.3,4.6 L-28.5,-9.3 L-8.8,-12.1 Z" fill="none" stroke="black" transform="translate(201.47755357899,227.09521646501355) rotate(355.61436722446604) scale(0.9667354334003749)" /><path d="M0.0,-30.0 L8.8,-12.1 L28.5,-9.3 L14.3,4.6 L17.6,24.3 L0.0,15.0 L-17.6,24.3 L-14.3,4.6 L-28.5,-9.3 L-8.8,-12.1 Z" fill="none" stroke="black" transform="translate(201.47755357899,227.09521646501355) rotate(355.61436722446604) scale(0.5524202476573572)" /></g><g><path d="M0.0,-30.0 L8.8,-12.1 L28.5,-9.3 L14.3,4.6 L17.6,24.3 L0.0,15.0 L-17.6,24.3 L-14.3,4.6 L-28.5,-9.3 L-8.8,-12.1 Z" fill="none" stroke="black" transform="translate(218.55203611077403,124.000841191512) rotate(232.25795053732494) scale(1.646368312419983)" /><path d="M0.0,-30.0 L8.8,-12.1 L28.5,-9.3 L14.3,4.6 L17.6,24.3 L0.0,15.0 L-17.6,24.3 L-14.3,4.6 L-28.5,-9.3 L-8.8,-12.1 Z" fill="none" stroke="black" transform="translate(218.55203611077403,124.000841191512) rotate(232.25795053732494) scale(1.152457818693988)" /><path d="M0.0,-30.0 L8.8,-12.1 L28.5,-9.3 L14.3,4.6 L17.6,24.3 L0.0,15.0 L-17.6,24.3 L-14.3,4.6 L-28.5,-9.3 L-8.8,-12.1 Z" fill="none" stroke="black" transform="translate(218.55203611077403,124.000841191512) rotate(232.25795053732494) scale(0.6585473249679933)" /></g><path d="M0.0,-30.0 L8.8,-12.1 L28.5,-9.3 L14.3,4.6 L17.6,24.3 L0.0,15.0 L-17.6,24.3 L-14.3,4.6 L-28.5,-9.3 L-8.8,-12.1 Z" fill="none" stroke="black" transform="translate(278.8891382601253,169.94806669194924) rotate(351.33907419833895) scale(1.0427369879291364)" /><path d="M0.0,-30.0 L8.8,-12.1 L28.5,-9.3 L14.3,4.6 L17.6,24.3 L0.0,15.0 L-17.6,24.3 L-14.3,4.6 L-28.5,-9.3 L-8.8,-12.1 Z" fill="none" stroke="black" transform="translate(304.4452781177984,338.04706619106145) rotate(315.3734109042356) scale(0.8395729087087708)" /><g><path d="M0.0,-30.0 L8.8,-12.1 L28.5,-9.3 L14.3,4.6 L17.6,24.3 L0.0,15.0 L-17.6,24.3 L-14.3,4.6 L-28.5,-9.3 L-8.8,-12.1 Z" fill="none" stroke="black" transform="translate(93.1529968566455,107.50204098052166) rotate(266.835043645272) scale(1.2372181898133732)" /><path d="M0.0,-30.0 L8.8,-12.1 L28.5,-9.3 L14.3,4.6 L17.6,24.3 L0.0,15.0 L-17.6,24.3 L-14.3,4.6 L-28.5,-9.3 L-8.8,-12.1 Z" fill="none" stroke="black" transform="translate(93.1529968566455,107.50204098052166) rotate(266.835043645272) scale(0.8660527328693611)" /></g><g><path d="M0.0,-30.0 L8.8,-12.1 L28.5,-9.3 L14.3,4.6 L17.6,24.3 L0.0,15.0 L-17.6,24.3 L-14.3,4.6 L-28.5,-9.3 L-8.8,-12.1 Z" fill="none" stroke="black" transform="translate(277.4028876741917,284.52198277936213) rotate(221.49696221152388) scale(0.8810414610103197)" /><path d="M0.0,-30.0 L8.8,-12.1 L28.5,-9.3 L14.3,4.6 L17.6,24.3 L0.0,15.0 L-17.6,24.3 L-14.3,4.6 L-28.5,-9.3 L-8.8,-12.1 Z" fill="none" stroke="black" transform="translate(277.4028876741917,284.52198277936213) rotate(221.49696221152388) scale(0.6167290227072237)" /></g><g><path d="M0.0,-30.0 L8.8,-12.1 L28.5,-9.3 L14.3,4.6 L17.6,24.3 L0.0,15.0 L-17.6,24.3 L-14.3,4.6 L-28.5,-9.3 L-8.8,-12.1 Z" fill="none" stroke="black" transform="translate(126.08294838018507,172.4593867059812) rotate(210.0299368215275) scale(1.3868416690095637)" /><path d="M0.0,-30.0 L8.8,-12.1 L28.5,-9.3 L14.3,4.6 L17.6,24.3 L0.0,15.0 L-17.6,24.3 L-14.3,4.6 L-28.5,-9.3 L-8.8,-12.1 Z" fill="none" stroke="black" transform="translate(126.08294838018507,172.4593867059812) rotate(210.0299368215275) scale(0.9707891683066946)" /></g><g><path d="M0.0,-30.0 L8.8,-12.1 L28.5,-9.3 L14.3,4.6 L17.6,24.3 L0.0,15.0 L-17.6,24.3 L-14.3,4.6 L-28.5,-9.3 L-8.8,-12.1 Z" fill="none" stroke="black" transform="translate(203.80556223124378,280.8804095382942) rotate(258.1297130163798) scale(1.1125927886731752)" /><path d="M0.0,-30.0 L8.8,-12.1 L28.5,-9.3 L14.3,4.6 L17.6,24.3 L0.0,15.0 L-17.6,24.3 L-14.3,4.6 L-28.5,-9.3 L-8.8,-12.1 Z" fill="none" stroke="black" transform="translate(203.80556223124378,280.8804095382942) rotate(258.1297130163798) scale(0.7788149520712226)" /><path d="M0.0,-30.0 L8.8,-12.1 L28.5,-9.3 L14.3,4.6 L17.6,24.3 L0.0,15.0 L-17.6,24.3 L-14.3,4.6 L-28.5,-9.3 L-8.8,-12.1 Z" fill="none" stroke="black" transform="translate(203.80556223124378,280.8804095382942) rotate(258.1297130163798) scale(0.4450371154692701)" /></g><path d="M0.0,-30.0 L28.5,-9.3 L17.6,24.3 L-17.6,24.3 L-28.5,-9.3 Z" fill="none" stroke="black" transform="translate(264.89061035606454,320.3942120850328) rotate(343.89283380528315) scale(0.9051440322370488)" /><path d="M0.0,-30.0 L28.5,-9.3 L17.6,24.3 L-17.6,24.3 L-28.5,-9.3 Z" fill="none" stroke="black" transform="translate(142.23653365302278,294.276769499778) rotate(11.804584221697091) scale(1.0103932678405898)" /><path d="M0.0,-30.0 L28.5,-9.3 L17.6,24.3 L-17.6,24.3 L-28.5,-9.3 Z" fill="none" stroke="black" transform="translate(277.65858487056795,109.36871520875073) rotate(338.6036724496954) scale(0.8451014664890565)" /><g><path d="M0.0,-30.0 L28.5,-9.3 L17.6,24.3 L-17.6,24.3 L-28.5,-9.3 Z" fill="none" stroke="black" transform="translate(90.46528632235373,227.1267127283282) rotate(178.5714849441396) scale(1.0819476765279097)" /><path d="M0.0,-30.0 L28.5,-9.3 L17.6,24.3 L-17.6,24.3 L-28.5,-9.3 Z" fill="none" stroke="black" transform="translate(90.46528632235373,227.1267127283282) rotate(178.5714849441396) scale(0.7573633735695368)" /><path d="M0.0,-30.0 L28.5,-9.3 L17.6,24.3 L-17.6,24.3 L-28.5,-9.3 Z" fill="none" stroke="black" transform="translate(90.46528632235373,227.1267127283282) rotate(178.5714849441396) scale(0.4327790706111639)" /></g><path d="M0.0,-30.0 L28.5,-9.3 L17.6,24.3 L-17.6,24.3 L-28.5,-9.3 Z" fill="none" stroke="black" transform="translate(332.1661287581695,130.94454970875228) rotate(224.33700803084204) scale(0.9413796169142937)" /><g><path d="M0.0,-30.0 L28.5,-9.3 L17.6,24.3 L-17.6,24.3 L-28.5,-9.3 Z" fill="none" stroke="black" transform="translate(215.97547864187894,325.73864311797854) rotate(260.2120417246142) scale(0.986540096333264)" /><path d="M0.0,-30.0 L28.5,-9.3 L17.6,24.3 L-17.6,24.3 L-28.5,-9.3 Z" fill="none" stroke="black" transform="translate(215.97547864187894,325.73864311797854) rotate(260.2120417246142) scale(0.6905780674332848)" /></g><g><path d="M0.0,-30.0 L28.5,-9.3 L17.6,24.3 L-17.6,24.3 L-28.5,-9.3 Z" fill="none" stroke="black" transform="translate(157.94130917947786,214.70014206091122) rotate(161.22390975691897) scale(0.8494158233823471)" /><path d="M0.0,-30.0 L28.5,-9.3 L17.6,24.3 L-17.6,24.3 L-28.5,-9.3 Z" fill="none" stroke="black" transform="translate(157.94130917947786,214.70014206091122) rotate(161.22390975691897) scale(0.594591076367643)" /></g><path d="M0,-30 L30,30 L-30,30 Z" fill="none" stroke="black" transform="translate(315.4266824859912,232.83318090955703) rotate(39.85943302515195) scale(0.9373583860797283)" /><g><path d="M0,-30 L30,30 L-30,30 Z" fill="none" stroke="black" transform="translate(84.11231178128895,289.32230512528224) rotate(76.8890458370173) scale(0.9642698174536506)" /><path d="M0,-30 L30,30 L-30,30 Z" fill="none" stroke="black" transform="translate(84.11231178128895,289.32230512528224) rotate(76.8890458370173) scale(0.6749888722175553)" /></g><path d="M0,-30 L30,30 L-30,30 Z" fill="none" stroke="black" transform="translate(154.45159223724534,126.32802032946557) rotate(151.27805578341062) scale(0.9951919004098134)" /><path d="M0,-30 L30,30 L-30,30 Z" fill="none" stroke="black" transform="translate(104.5996337886045,63.849329200282796) rotate(54.678501863920715) scale(0.8356119571784016)" /><path d="M0,-30 L30,30 L-30,30 Z" fill="none" stroke="black" transform="translate(324.5722692954206,80.15301641049453) rotate(346.273184679779) scale(1.0261328015807731)" /><path d="M0,-30 L30,30 L-30,30 Z" fill="none" stroke="black" transform="translate(271.45506637265646,238.60897989495538) rotate(7.84760546786853) scale(0.8871388903380938)" /><path d="M0,-30 L30,30 L-30,30 Z" fill="none" stroke="black" transform="translate(213.9046796011409,67.20337047641837) rotate(45.079176082013845) scale(0.8055978618529531)" /></svg>