<svg baseProfile="full" height="400" version="1.1" width="400" xmlns="http://www.w3.org/2000/svg" xmlns:ev="http://www.w3.org/2001/xml-events" xmlns:xlink="http://www.w3.org/1999/xlink"><defs /><rect fill="white" height="100%" width="100%" x="0" y="0" /><path d="M0,-30 L30,30 L-30,30 Z" fill="none" stroke="black" transform="translate(219.20767244508028,165.53607803226996) rotate(224.36391709492054) scale(1.9855068767535822)" /><path d="M0.0,-30.0 L8.8,-12.1 L28.5,-9.3 L14.3,4.6 L17.6,24.3 L0.0,15.0 L-17.6,24.3 L-14.3,4.6 L-28.5,-9.3 L-8.8,-12.1 Z" fill="none" stroke="black" transform="translate(72.64295621374113,281.1856930332257) rotate(50.558427430457826) scale(0.8149077486333431)" /><g><path d="M0.0,-30.0 L8.8,-12.1 L28.5,-9.3 L14.3,4.6 L17.6,24.3 L0.0,15.0 L-17.6,24.3 L-14.3,4.6 L-28.5,-9.3 L-8.8,-12.1 Z" fill="none" stroke="black" transform="translate(249.41026280985375,295.65037492051783) rotate(341.56531609254273) scale(1.376976196075486)" /><path d="M0.0,-30.0 L8.8,-12.1 L28.5,-9.3 L14.3,4.6 L17.6,24.3 L0.0,15.0 L-17.6,24.3 L-14.3,4.6 L-28.5,-9.3 L-8.8,-12.1 Z" fill="none" stroke="black" transform="translate(249.41026280985375,295.65037492051783) rotate(341.56531609254273) scale(0.9638833372528401)" /></g><path d="M30,0 L15,-26 L-15,-26 L-30,0 L-15,26 L15,26 Z" fill="none" stroke="black" transform="translate(293.3324573056573,131.55871293541534) rotate(44.300921282541786) scale(0.9360680198062559)" /><path d="M30,0 L15,-26 L-15,-26 L-30,0 L-15,26 L15,26 Z" fill="none" stroke="black" transform="translate(324.19051712331503,126.04286396083002) rotate(79.38666453418266) scale(0.899833894220595)" /><path d="M30,0 L15,-26 L-15,-26 L-30,0 L-15,26 L15,26 Z" fill="none" stroke="black" transform="translate(118.20981686530472,126.00626573604026) rotate(311.05202992910586) scale(0.8278618248676732)" /></svg>