<svg baseProfile="full" height="400" version="1.1" width="400" xmlns="http://www.w3.org/2000/svg" xmlns:ev="http://www.w3.org/2001/xml-events" xmlns:xlink="http://www.w3.org/1999/xlink"><defs /><rect fill="white" height="100%" width="100%" x="0" y="0" /><g><path d="M27.7,-11.5 L27.7,11.5 L11.5,27.7 L-11.5,27.7 L-27.7,11.5 L-27.7,-11.5 L-11.5,-27.7 L11.5,-27.7 Z" fill="none" stroke="black" transform="translate(190.52272196226238,213.32300487607728) rotate(293.9442114564581) scale(1.4789609274874844)" /><path d="M27.7,-11.5 L27.7,11.5 L11.5,27.7 L-11.5,27.7 L-27.7,11.5 L-27.7,-11.5 L-11.5,-27.7 L11.5,-27.7 Z" fill="none" stroke="black" transform="translate(190.52272196226238,213.32300487607728) rotate(293.9442114564581) scale(1.035272649241239)" /></g><path d="M27.7,-11.5 L27.7,11.5 L11.5,27.7 L-11.5,27.7 L-27.7,11.5 L-27.7,-11.5 L-11.5,-27.7 L11.5,-27.7 Z" fill="none" stroke="black" transform="translate(94.72779649818268,201.38514623154006) rotate(105.49935936816205) scale(1.2864193169232296)" /><g><path d="M27.7,-11.5 L27.7,11.5 L11.5,27.7 L-11.5,27.7 L-27.7,11.5 L-27.7,-11.5 L-11.5,-27.7 L11.5,-27.7 Z" fill="none" stroke="black" transform="translate(256.2880464986439,261.45234673835927) rotate(180.48528689410526) scale(1.5587103686273545)" /><path d="M27.7,-11.5 L27.7,11.5 L11.5,27.7 L-11.5,27.7 L-27.7,11.5 L-27.7,-11.5 L-11.5,-27.7 L11.5,-27.7 Z" fill="none" stroke="black" transform="translate(256.2880464986439,261.45234673835927) rotate(180.48528689410526) scale(1.091097258039148)" /><path d="M27.7,-11.5 L27.7,11.5 L11.5,27.7 L-11.5,27.7 L-27.7,11.5 L-27.7,-11.5 L-11.5,-27.7 L11.5,-27.7 Z" fill="none" stroke="black" transform="translate(256.2880464986439,261.45234673835927) rotate(180.48528689410526) scale(0.6234841474509418)" /></g><path d="M30,0 L15,-26 L-15,-26 L-30,0 L-15,26 L15,26 Z" fill="none" stroke="black" transform="translate(237.4114020226536,140.66588930303146) rotate(60.75826557267037) scale(1.7750990422137625)" /><path d="M30,0 L15,-26 L-15,-26 L-30,0 L-15,26 L15,26 Z" fill="none" stroke="black" transform="translate(95.84136950811543,120.52330278531608) rotate(225.93041812351703) scale(1.1828343562067043)" /><g><path d="M-30,-20 h60 v40 h-60 Z" fill="none" stroke="black" transform="translate(293.231075213778,309.51846350098344) rotate(298.47120108014195) scale(1.0262605583074238)" /><path d="M-30,-20 h60 v40 h-60 Z" fill="none" stroke="black" transform="translate(293.231075213778,309.51846350098344) rotate(298.47120108014195) scale(0.7183823908151966)" /></g></svg>