<svg baseProfile="full" height="400" version="1.1" width="400" xmlns="http://www.w3.org/2000/svg" xmlns:ev="http://www.w3.org/2001/xml-events" xmlns:xlink="http://www.w3.org/1999/xlink"><defs /><rect fill="white" height="100%" width="100%" x="0" y="0" /><g><path d="M0.0,-30.0 L28.5,-9.3 L17.6,24.3 L-17.6,24.3 L-28.5,-9.3 Z" fill="none" stroke="black" transform="translate(239.67983252944347,171.52452298875258) rotate(264.1625759828994) scale(1.934741990541588)" /><path d="M0.0,-30.0 L28.5,-9.3 L17.6,24.3 L-17.6,24.3 L-28.5,-9.3 Z" fill="none" stroke="black" transform="translate(239.67983252944347,171.52452298875258) rotate(264.1625759828994) scale(1.3543193933791116)" /></g><path d="M0.0,-30.0 L28.5,-9.3 L17.6,24.3 L-17.6,24.3 L-28.5,-9.3 Z" fill="none" stroke="black" transform="translate(206.0846218253492,89.91474100620269) rotate(304.50076351695344) scale(0.9725060996203403)" /><g><path d="M0.0,-30.0 L28.5,-9.3 L17.6,24.3 L-17.6,24.3 L-28.5,-9.3 Z" fill="none" stroke="black" transform="translate(168.58973187279193,255.47983885352943) rotate(196.33806040343399) scale(1.9779664400375898)" /><path d="M0.0,-30.0 L28.5,-9.3 L17.6,24.3 L-17.6,24.3 L-28.5,-9.3 Z" fill="none" stroke="black" transform="translate(168.58973187279193,255.47983885352943) rotate(196.33806040343399) scale(1.3845765080263128)" /></g><path d="M0.0,-30.0 L28.5,-9.3 L17.6,24.3 L-17.6,24.3 L-28.5,-9.3 Z" fill="none" stroke="black" transform="translate(281.4055764169517,256.0240421850221) rotate(260.2106838536612) scale(0.9270634769493077)" /><g><path d="M0.0,-30.0 L28.5,-9.3 L17.6,24.3 L-17.6,24.3 L-28.5,-9.3 Z" fill="none" stroke="black" transform="translate(127.81631042645407,104.9188945160235) rotate(8.403418335852773) scale(0.9355900027292238)" /><path d="M0.0,-30.0 L28.5,-9.3 L17.6,24.3 L-17.6,24.3 L-28.5,-9.3 Z" fill="none" stroke="black" transform="translate(127.81631042645407,104.9188945160235) rotate(8.403418335852773) scale(0.6549130019104566)" /></g><g><path d="M0.0,-30.0 L28.5,-9.3 L17.6,24.3 L-17.6,24.3 L-28.5,-9.3 Z" fill="none" stroke="black" transform="translate(171.97009901745434,151.66489491796062) rotate(262.6675007023949) scale(1.4518280391897065)" /><path d="M0.0,-30.0 L28.5,-9.3 L17.6,24.3 L-17.6,24.3 L-28.5,-9.3 Z" fill="none" stroke="black" transform="translate(171.97009901745434,151.66489491796062) rotate(262.6675007023949) scale(1.0162796274327945)" /><path d="M0.0,-30.0 L28.5,-9.3 L17.6,24.3 L-17.6,24.3 L-28.5,-9.3 Z" fill="none" stroke="black" transform="translate(171.97009901745434,151.66489491796062) rotate(262.6675007023949) scale(0.5807312156758826)" /></g><path d="M0,-30 L30,30 L-30,30 Z" fill="none" stroke="black" transform="translate(113.20379691050732,153.5091531837075) rotate(47.23683325440018) scale(1.145869527885302)" /><path d="M0,-30 L30,30 L-30,30 Z" fill="none" stroke="black" transform="translate(318.8335829406858,292.28746399620195) rotate(128.40158068166357) scale(1.108513140418893)" /><g><path d="M0,-30 L30,30 L-30,30 Z" fill="none" stroke="black" transform="translate(317.3143264317161,179.19749706557596) rotate(105.3504595950061) scale(1.067896299816117)" /><path d="M0,-30 L30,30 L-30,30 Z" fill="none" stroke="black" transform="translate(317.3143264317161,179.19749706557596) rotate(105.3504595950061) scale(0.7475274098712819)" /><path d="M0,-30 L30,30 L-30,30 Z" fill="none" stroke="black" transform="translate(317.3143264317161,179.19749706557596) rotate(105.3504595950061) scale(0.4271585199264468)" /></g><path d="M0,-30 L30,30 L-30,30 Z" fill="none" stroke="black" transform="translate(72.30880617079364,162.0825257440722) rotate(192.2148250947095) scale(0.9227745036491418)" /><path d="M0,-30 L30,30 L-30,30 Z" fill="none" stroke="black" transform="translate(298.90787281593754,128.39016557326067) rotate(257.0786870750126) scale(1.1758111721780384)" /><path d="M0,-30 L30,30 L-30,30 Z" fill="none" stroke="black" transform="translate(304.0421508646522,252.96416751252352) rotate(337.9386588974902) scale(0.842036956820962)" /><path d="M27.7,-11.5 L27.7,11.5 L11.5,27.7 L-11.5,27.7 L-27.7,11.5 L-27.7,-11.5 L-11.5,-27.7 L11.5,-27.7 Z" fill="none" stroke="black" transform="translate(121.95911857944493,314.57570330948147) rotate(294.79576938003817) scale(1.091961202580937)" /><path d="M27.7,-11.5 L27.7,11.5 L11.5,27.7 L-11.5,27.7 L-27.7,11.5 L-27.7,-11.5 L-11.5,-27.7 L11.5,-27.7 Z" fill="none" stroke="black" transform="translate(238.4629038822317,316.3421206682915) rotate(258.9021732035394) scale(1.0920996260790627)" /><g><path d="M27.7,-11.5 L27.7,11.5 L11.5,27.7 L-11.5,27.7 L-27.7,11.5 L-27.7,-11.5 L-11.5,-27.7 L11.5,-27.7 Z" fill="none" stroke="black" transform="translate(102.76111862743255,225.53660275374415) rotate(127.1403894295422) scale(1.0155659327528266)" /><path d="M27.7,-11.5 L27.7,11.5 L11.5,27.7 L-11.5,27.7 L-27.7,11.5 L-27.7,-11.5 L-11.5,-27.7 L11.5,-27.7 Z" fill="none" stroke="black" transform="translate(102.76111862743255,225.53660275374415) rotate(127.1403894295422) scale(0.7108961529269786)" /><path d="M27.7,-11.5 L27.7,11.5 L11.5,27.7 L-11.5,27.7 L-27.7,11.5 L-27.7,-11.5 L-11.5,-27.7 L11.5,-27.7 Z" fill="none" stroke="black" transform="translate(102.76111862743255,225.53660275374415) rotate(127.1403894295422) scale(0.40622637310113063)" /></g><path d="M27.7,-11.5 L27.7,11.5 L11.5,27.7 L-11.5,27.7 L-27.7,11.5 L-27.7,-11.5 L-11.5,-27.7 L11.5,-27.7 Z" fill="none" stroke="black" transform="translate(159.9639658563533,100.73228312540476) rotate(159.38092852125106) scale(0.9396136718801361)" /></svg>