<svg baseProfile="full" height="400" version="1.1" width="400" xmlns="http://www.w3.org/2000/svg" xmlns:ev="http://www.w3.org/2001/xml-events" xmlns:xlink="http://www.w3.org/1999/xlink"><defs /><rect fill="white" height="100%" width="100%" x="0" y="0" /><g><path d="M0.0,-30.0 L28.5,-9.3 L17.6,24.3 L-17.6,24.3 L-28.5,-9.3 Z" fill="none" stroke="black" transform="translate(240.21668523185872,215.6809143811388) rotate(203.2764981498879) scale(1.2511671686815815)" /><path d="M0.0,-30.0 L28.5,-9.3 L17.6,24.3 L-17.6,24.3 L-28.5,-9.3 Z" fill="none" stroke="black" transform="translate(240.21668523185872,215.6809143811388) rotate(203.2764981498879) scale(0.875817018077107)" /></g><path d="M30,0 L15,-26 L-15,-26 L-30,0 L-15,26 L15,26 Z" fill="none" stroke="black" transform="translate(260.1408454229313,136.00464413715326) rotate(52.8145784017662) scale(0.9775392321018954)" /><path d="M30,0 L15,-26 L-15,-26 L-30,0 L-15,26 L15,26 Z" fill="none" stroke="black" transform="translate(272.7032023889602,71.51933796871738) rotate(339.61302779974227) scale(0.9031934365640575)" /><path d="M30,0 L15,-26 L-15,-26 L-30,0 L-15,26 L15,26 Z" fill="none" stroke="black" transform="translate(143.87309532746576,150.05226912551493) rotate(1.873902852770386) scale(1.8782235112745922)" /><path d="M0,-30 L30,30 L-30,30 Z" fill="none" stroke="black" transform="translate(178.37065467756793,242.35330511992407) rotate(44.88332526263726) scale(1.2715478083325982)" /><path d="M27.7,-11.5 L27.7,11.5 L11.5,27.7 L-11.5,27.7 L-27.7,11.5 L-27.7,-11.5 L-11.5,-27.7 L11.5,-27.7 Z" fill="none" stroke="black" transform="translate(76.3646948824973,137.34548141811172) rotate(15.051268241644976) scale(1.036438658409149)" /><path d="M27.7,-11.5 L27.7,11.5 L11.5,27.7 L-11.5,27.7 L-27.7,11.5 L-27.7,-11.5 L-11.5,-27.7 L11.5,-27.7 Z" fill="none" stroke="black" transform="translate(105.61872684522598,257.0297427465995) rotate(5.805582563238629) scale(1.0567463785586826)" /><g><path d="M27.7,-11.5 L27.7,11.5 L11.5,27.7 L-11.5,27.7 L-27.7,11.5 L-27.7,-11.5 L-11.5,-27.7 L11.5,-27.7 Z" fill="none" stroke="black" transform="translate(253.20596953245894,284.7669793674222) rotate(205.80673139123493) scale(1.210454150540856)" /><path d="M27.7,-11.5 L27.7,11.5 L11.5,27.7 L-11.5,27.7 L-27.7,11.5 L-27.7,-11.5 L-11.5,-27.7 L11.5,-27.7 Z" fill="none" stroke="black" transform="translate(253.20596953245894,284.7669793674222) rotate(205.80673139123493) scale(0.8473179053785991)" /><path d="M27.7,-11.5 L27.7,11.5 L11.5,27.7 L-11.5,27.7 L-27.7,11.5 L-27.7,-11.5 L-11.5,-27.7 L11.5,-27.7 Z" fill="none" stroke="black" transform="translate(253.20596953245894,284.7669793674222) rotate(205.80673139123493) scale(0.4841816602163424)" /></g><path d="M0,0 m-30,0 a30,30 0 1,0 60,0 a30,30 0 1,0 -60,0" fill="none" stroke="black" transform="translate(207.0409539181457,102.52676786219983) rotate(12.537676257084529) scale(0.8403673831838571)" /><path d="M0,0 m-30,0 a30,30 0 1,0 60,0 a30,30 0 1,0 -60,0" fill="none" stroke="black" transform="translate(158.62203073358995,305.32112646544306) rotate(320.87275381334626) scale(1.2910138188299136)" /><path d="M-30,-20 h60 v40 h-60 Z" fill="none" stroke="black" transform="translate(307.5322470648483,206.36061191728223) rotate(143.33356941224892) scale(1.0475120287277722)" /><path d="M-30,-20 h60 v40 h-60 Z" fill="none" stroke="black" transform="translate(322.8416919946783,294.1808342414) rotate(271.9037273900836) scale(0.999159016437308)" /><path d="M0.0,-30.0 L8.8,-12.1 L28.5,-9.3 L14.3,4.6 L17.6,24.3 L0.0,15.0 L-17.6,24.3 L-14.3,4.6 L-28.5,-9.3 L-8.8,-12.1 Z" fill="none" stroke="black" transform="translate(207.98604293684306,274.27218044208087) rotate(199.2573732716564) scale(0.8546742213083462)" /><path d="M0.0,-30.0 L8.8,-12.1 L28.5,-9.3 L14.3,4.6 L17.6,24.3 L0.0,15.0 L-17.6,24.3 L-14.3,4.6 L-28.5,-9.3 L-8.8,-12.1 Z" fill="none" stroke="black" transform="translate(243.09989327962205,333.5427923158875) rotate(341.738393335127) scale(0.9203216057493885)" /></svg>