<svg baseProfile="full" height="400" version="1.1" width="400" xmlns="http://www.w3.org/2000/svg" xmlns:ev="http://www.w3.org/2001/xml-events" xmlns:xlink="http://www.w3.org/1999/xlink"><defs /><rect fill="white" height="100%" width="100%" x="0" y="0" /><path d="M27.7,-11.5 L27.7,11.5 L11.5,27.7 L-11.5,27.7 L-27.7,11.5 L-27.7,-11.5 L-11.5,-27.7 L11.5,-27.7 Z" fill="none" stroke="black" transform="translate(153.45799488000486,88.80531330400373) rotate(62.92794604347893) scale(0.9879966074992514)" /><g><path d="M0,-30 L30,30 L-30,30 Z" fill="none" stroke="black" transform="translate(174.2186581021645,274.40728969570546) rotate(254.4840561534844) scale(1.2989790931877305)" /><path d="M0,-30 L30,30 L-30,30 Z" fill="none" stroke="black" transform="translate(174.2186581021645,274.40728969570546) rotate(254.4840561534844) scale(0.9092853652314113)" /></g><path d="M-30,-20 h60 v40 h-60 Z" fill="none" stroke="black" transform="translate(144.2368335617568,199.4604475789847) rotate(82.83359995377998) scale(1.4497787884985307)" /><path d="M-30,-20 h60 v40 h-60 Z" fill="none" stroke="black" transform="translate(288.98578990369185,116.0679322670045) rotate(97.52101079931903) scale(1.3279855956901743)" /><path d="M0,0 m-30,0 a30,30 0 1,0 60,0 a30,30 0 1,0 -60,0" fill="none" stroke="black" transform="translate(251.1441301662208,214.01660551257234) rotate(234.37238837059476) scale(1.9875605568990329)" /><path d="M0.0,-30.0 L28.5,-9.3 L17.6,24.3 L-17.6,24.3 L-28.5,-9.3 Z" fill="none" stroke="black" transform="translate(275.31071107155844,292.28209451578) rotate(212.37025301748548) scale(0.8214509838379138)" /><path d="M0.0,-30.0 L28.5,-9.3 L17.6,24.3 L-17.6,24.3 L-28.5,-9.3 Z" fill="none" stroke="black" transform="translate(103.6839389818217,85.85062076460738) rotate(319.70876919704915) scale(1.0866462883673265)" /><path d="M0.0,-30.0 L28.5,-9.3 L17.6,24.3 L-17.6,24.3 L-28.5,-9.3 Z" fill="none" stroke="black" transform="translate(100.27405203154984,162.14924508336526) rotate(146.34713047440485) scale(0.8361689271544789)" /><g><path d="M0.0,-30.0 L28.5,-9.3 L17.6,24.3 L-17.6,24.3 L-28.5,-9.3 Z" fill="none" stroke="black" transform="translate(104.41022233907094,238.51339462135917) rotate(175.67682106605528) scale(1.2985135717787986)" /><path d="M0.0,-30.0 L28.5,-9.3 L17.6,24.3 L-17.6,24.3 L-28.5,-9.3 Z" fill="none" stroke="black" transform="translate(104.41022233907094,238.51339462135917) rotate(175.67682106605528) scale(0.9089595002451589)" /><path d="M0.0,-30.0 L28.5,-9.3 L17.6,24.3 L-17.6,24.3 L-28.5,-9.3 Z" fill="none" stroke="black" transform="translate(104.41022233907094,238.51339462135917) rotate(175.67682106605528) scale(0.5194054287115194)" /></g><path d="M0.0,-30.0 L28.5,-9.3 L17.6,24.3 L-17.6,24.3 L-28.5,-9.3 Z" fill="none" stroke="black" transform="translate(209.04886653094383,109.54396353435352) rotate(12.452530239803066) scale(1.5059347539273)" /><path d="M30,0 L15,-26 L-15,-26 L-30,0 L-15,26 L15,26 Z" fill="none" stroke="black" transform="translate(208.87259234672342,299.25500818032236) rotate(85.1769315640621) scale(0.9105980383343915)" /><path d="M30,0 L15,-26 L-15,-26 L-30,0 L-15,26 L15,26 Z" fill="none" stroke="black" transform="translate(305.8238468267773,76.15550425621701) rotate(51.66741937805472) scale(0.9699105226894152)" /><path d="M0.0,-30.0 L8.8,-12.1 L28.5,-9.3 L14.3,4.6 L17.6,24.3 L0.0,15.0 L-17.6,24.3 L-14.3,4.6 L-28.5,-9.3 L-8.8,-12.1 Z" fill="none" stroke="black" transform="translate(313.7673196623539,265.2293251104053) rotate(121.94098929272175) scale(0.9274433671183605)" /><path d="M0.0,-30.0 L8.8,-12.1 L28.5,-9.3 L14.3,4.6 L17.6,24.3 L0.0,15.0 L-17.6,24.3 L-14.3,4.6 L-28.5,-9.3 L-8.8,-12.1 Z" fill="none" stroke="black" transform="translate(149.17322457822775,116.02187644107573) rotate(176.92002443312904) scale(0.9002572937684951)" /><path d="M0.0,-30.0 L8.8,-12.1 L28.5,-9.3 L14.3,4.6 L17.6,24.3 L0.0,15.0 L-17.6,24.3 L-14.3,4.6 L-28.5,-9.3 L-8.8,-12.1 Z" fill="none" stroke="black" transform="translate(317.2322158349266,185.59891729551802) rotate(131.8444219774478) scale(1.1458168890183744)" /></svg>