<svg baseProfile="full" height="400" version="1.1" width="400" xmlns="http://www.w3.org/2000/svg" xmlns:ev="http://www.w3.org/2001/xml-events" xmlns:xlink="http://www.w3.org/1999/xlink"><defs /><rect fill="white" height="100%" width="100%" x="0" y="0" /><g><path d="M30,0 L15,-26 L-15,-26 L-30,0 L-15,26 L15,26 Z" fill="none" stroke="black" transform="translate(197.89185431713975,215.23501701842883) rotate(302.0642474276285) scale(1.4372179829188223)" /><path d="M30,0 L15,-26 L-15,-26 L-30,0 L-15,26 L15,26 Z" fill="none" stroke="black" transform="translate(197.89185431713975,215.23501701842883) rotate(302.0642474276285) scale(1.0060525880431757)" /><path d="M30,0 L15,-26 L-15,-26 L-30,0 L-15,26 L15,26 Z" fill="none" stroke="black" transform="translate(197.89185431713975,215.23501701842883) rotate(302.0642474276285) scale(0.5748871931675289)" /></g><path d="M0,-30 L30,30 L-30,30 Z" fill="none" stroke="black" transform="translate(107.66209213727471,127.60144112377803) rotate(77.14546114823136) scale(1.3994962540947666)" /><path d="M0,-30 L30,30 L-30,30 Z" fill="none" stroke="black" transform="translate(225.66952218367936,106.09063090068916) rotate(103.26061599180719) scale(1.3773927041904008)" /><g><path d="M0,-30 L30,30 L-30,30 Z" fill="none" stroke="black" transform="translate(90.10628707719275,289.35745768978217) rotate(141.71369588949787) scale(1.233690040044677)" /><path d="M0,-30 L30,30 L-30,30 Z" fill="none" stroke="black" transform="translate(90.10628707719275,289.35745768978217) rotate(141.71369588949787) scale(0.863583028031274)" /></g><path d="M0.0,-30.0 L8.8,-12.1 L28.5,-9.3 L14.3,4.6 L17.6,24.3 L0.0,15.0 L-17.6,24.3 L-14.3,4.6 L-28.5,-9.3 L-8.8,-12.1 Z" fill="none" stroke="black" transform="translate(316.1391455823292,299.3059209864234) rotate(138.55863123768174) scale(0.8974425356981303)" /><path d="M0.0,-30.0 L8.8,-12.1 L28.5,-9.3 L14.3,4.6 L17.6,24.3 L0.0,15.0 L-17.6,24.3 L-14.3,4.6 L-28.5,-9.3 L-8.8,-12.1 Z" fill="none" stroke="black" transform="translate(320.50828803117406,67.4100943463192) rotate(112.55929632474493) scale(0.8169249813116715)" /></svg>