<svg baseProfile="full" height="400" version="1.1" width="400" xmlns="http://www.w3.org/2000/svg" xmlns:ev="http://www.w3.org/2001/xml-events" xmlns:xlink="http://www.w3.org/1999/xlink"><defs /><rect fill="white" height="100%" width="100%" x="0" y="0" /><g><path d="M27.7,-11.5 L27.7,11.5 L11.5,27.7 L-11.5,27.7 L-27.7,11.5 L-27.7,-11.5 L-11.5,-27.7 L11.5,-27.7 Z" fill="none" stroke="black" transform="translate(164.837074201076,301.18909305027944) rotate(197.74079904698633) scale(0.9428300331346363)" /><path d="M27.7,-11.5 L27.7,11.5 L11.5,27.7 L-11.5,27.7 L-27.7,11.5 L-27.7,-11.5 L-11.5,-27.7 L11.5,-27.7 Z" fill="none" stroke="black" transform="translate(164.837074201076,301.18909305027944) rotate(197.74079904698633) scale(0.6599810231942453)" /></g><path d="M27.7,-11.5 L27.7,11.5 L11.5,27.7 L-11.5,27.7 L-27.7,11.5 L-27.7,-11.5 L-11.5,-27.7 L11.5,-27.7 Z" fill="none" stroke="black" transform="translate(225.77959789709251,188.89887231605405) rotate(218.02640674715713) scale(1.3006788677845296)" /><path d="M30,0 L15,-26 L-15,-26 L-30,0 L-15,26 L15,26 Z" fill="none" stroke="black" transform="translate(293.0322994711308,126.47881972995481) rotate(297.45972170459066) scale(1.062731724597206)" /><path d="M30,0 L15,-26 L-15,-26 L-30,0 L-15,26 L15,26 Z" fill="none" stroke="black" transform="translate(112.53499420809798,203.65616206986334) rotate(171.87344493620995) scale(1.2684137297150258)" /><g><path d="M30,0 L15,-26 L-15,-26 L-30,0 L-15,26 L15,26 Z" fill="none" stroke="black" transform="translate(148.34238460824997,105.83626668626333) rotate(79.34727529877438) scale(1.169759102169513)" /><path d="M30,0 L15,-26 L-15,-26 L-30,0 L-15,26 L15,26 Z" fill="none" stroke="black" transform="translate(148.34238460824997,105.83626668626333) rotate(79.34727529877438) scale(0.8188313715186591)" /></g><g><path d="M0.0,-30.0 L8.8,-12.1 L28.5,-9.3 L14.3,4.6 L17.6,24.3 L0.0,15.0 L-17.6,24.3 L-14.3,4.6 L-28.5,-9.3 L-8.8,-12.1 Z" fill="none" stroke="black" transform="translate(319.24852960936676,312.3856962523797) rotate(246.37041414093338) scale(0.8270241622488821)" /><path d="M0.0,-30.0 L8.8,-12.1 L28.5,-9.3 L14.3,4.6 L17.6,24.3 L0.0,15.0 L-17.6,24.3 L-14.3,4.6 L-28.5,-9.3 L-8.8,-12.1 Z" fill="none" stroke="black" transform="translate(319.24852960936676,312.3856962523797) rotate(246.37041414093338) scale(0.5789169135742174)" /></g><path d="M0.0,-30.0 L8.8,-12.1 L28.5,-9.3 L14.3,4.6 L17.6,24.3 L0.0,15.0 L-17.6,24.3 L-14.3,4.6 L-28.5,-9.3 L-8.8,-12.1 Z" fill="none" stroke="black" transform="translate(227.94628753238527,82.61234118798981) rotate(71.13542149719014) scale(0.8349976132700097)" /><g><path d="M0.0,-30.0 L8.8,-12.1 L28.5,-9.3 L14.3,4.6 L17.6,24.3 L0.0,15.0 L-17.6,24.3 L-14.3,4.6 L-28.5,-9.3 L-8.8,-12.1 Z" fill="none" stroke="black" transform="translate(69.48343227733139,303.1183342798315) rotate(101.0960172189682) scale(0.9300611393629292)" /><path d="M0.0,-30.0 L8.8,-12.1 L28.5,-9.3 L14.3,4.6 L17.6,24.3 L0.0,15.0 L-17.6,24.3 L-14.3,4.6 L-28.5,-9.3 L-8.8,-12.1 Z" fill="none" stroke="black" transform="translate(69.48343227733139,303.1183342798315) rotate(101.0960172189682) scale(0.6510427975540504)" /><path d="M0.0,-30.0 L8.8,-12.1 L28.5,-9.3 L14.3,4.6 L17.6,24.3 L0.0,15.0 L-17.6,24.3 L-14.3,4.6 L-28.5,-9.3 L-8.8,-12.1 Z" fill="none" stroke="black" transform="translate(69.48343227733139,303.1183342798315) rotate(101.0960172189682) scale(0.37202445574517173)" /></g><g><path d="M0,-30 L30,30 L-30,30 Z" fill="none" stroke="black" transform="translate(254.9570026344327,330.7396715311659) rotate(72.32361263477469) scale(0.9409179719110697)" /><path d="M0,-30 L30,30 L-30,30 Z" fill="none" stroke="black" transform="translate(254.9570026344327,330.7396715311659) rotate(72.32361263477469) scale(0.6586425803377488)" /><path d="M0,-30 L30,30 L-30,30 Z" fill="none" stroke="black" transform="translate(254.9570026344327,330.7396715311659) rotate(72.32361263477469) scale(0.37636718876442793)" /></g><path d="M0.0,-30.0 L28.5,-9.3 L17.6,24.3 L-17.6,24.3 L-28.5,-9.3 Z" fill="none" stroke="black" transform="translate(310.22053399503636,230.03206784570642) rotate(277.3967248335614) scale(1.0126957567001522)" /></svg>