<svg baseProfile="full" height="400" version="1.1" width="400" xmlns="http://www.w3.org/2000/svg" xmlns:ev="http://www.w3.org/2001/xml-events" xmlns:xlink="http://www.w3.org/1999/xlink"><defs /><rect fill="white" height="100%" width="100%" x="0" y="0" /><path d="M-30,-20 h60 v40 h-60 Z" fill="none" stroke="black" transform="translate(70.55704448893822,311.1367574725263) rotate(171.30378818756506) scale(0.9263801901922355)" /><path d="M-30,-20 h60 v40 h-60 Z" fill="none" stroke="black" transform="translate(94.40986384635148,107.98118805047854) rotate(241.0828135504178) scale(1.263225645084467)" /><path d="M-30,-20 h60 v40 h-60 Z" fill="none" stroke="black" transform="translate(237.5863158616437,215.77255986110686) rotate(192.13102940804) scale(1.3308871237878788)" /><path d="M0.0,-30.0 L28.5,-9.3 L17.6,24.3 L-17.6,24.3 L-28.5,-9.3 Z" fill="none" stroke="black" transform="translate(323.0713010321598,295.39212548301697) rotate(25.441207509978003) scale(0.8469013115276596)" /><path d="M0.0,-30.0 L28.5,-9.3 L17.6,24.3 L-17.6,24.3 L-28.5,-9.3 Z" fill="none" stroke="black" transform="translate(232.86055457620955,75.25129279966782) rotate(13.564630999534156) scale(0.9619032854153081)" /><g><path d="M0.0,-30.0 L28.5,-9.3 L17.6,24.3 L-17.6,24.3 L-28.5,-9.3 Z" fill="none" stroke="black" transform="translate(210.1319511949861,311.44395333111174) rotate(271.3872013394283) scale(0.9833526030528089)" /><path d="M0.0,-30.0 L28.5,-9.3 L17.6,24.3 L-17.6,24.3 L-28.5,-9.3 Z" fill="none" stroke="black" transform="translate(210.1319511949861,311.44395333111174) rotate(271.3872013394283) scale(0.6883468221369662)" /></g><path d="M0.0,-30.0 L28.5,-9.3 L17.6,24.3 L-17.6,24.3 L-28.5,-9.3 Z" fill="none" stroke="black" transform="translate(111.58358806827118,205.67323732522678) rotate(237.40317790789197) scale(1.3486384091676866)" /><g><path d="M27.7,-11.5 L27.7,11.5 L11.5,27.7 L-11.5,27.7 L-27.7,11.5 L-27.7,-11.5 L-11.5,-27.7 L11.5,-27.7 Z" fill="none" stroke="black" transform="translate(317.9571803643772,151.34937897708352) rotate(27.095851433983125) scale(1.0593231868451207)" /><path d="M27.7,-11.5 L27.7,11.5 L11.5,27.7 L-11.5,27.7 L-27.7,11.5 L-27.7,-11.5 L-11.5,-27.7 L11.5,-27.7 Z" fill="none" stroke="black" transform="translate(317.9571803643772,151.34937897708352) rotate(27.095851433983125) scale(0.7415262307915844)" /></g><path d="M0,0 m-30,0 a30,30 0 1,0 60,0 a30,30 0 1,0 -60,0" fill="none" stroke="black" transform="translate(324.09054674159563,64.55171321687905) rotate(318.1188948727285) scale(0.8963547357858288)" /></svg>