<svg baseProfile="full" height="400" version="1.1" width="400" xmlns="http://www.w3.org/2000/svg" xmlns:ev="http://www.w3.org/2001/xml-events" xmlns:xlink="http://www.w3.org/1999/xlink"><defs /><rect fill="white" height="100%" width="100%" x="0" y="0" /><g><path d="M0,0 m-30,0 a30,30 0 1,0 60,0 a30,30 0 1,0 -60,0" fill="none" stroke="black" transform="translate(167.47459987394984,203.33048513179523) rotate(206.00257608383768) scale(1.6881727689135602)" /><path d="M0,0 m-30,0 a30,30 0 1,0 60,0 a30,30 0 1,0 -60,0" fill="none" stroke="black" transform="translate(167.47459987394984,203.33048513179523) rotate(206.00257608383768) scale(1.181720938239492)" /><path d="M0,0 m-30,0 a30,30 0 1,0 60,0 a30,30 0 1,0 -60,0" fill="none" stroke="black" transform="translate(167.47459987394984,203.33048513179523) rotate(206.00257608383768) scale(0.6752691075654241)" /></g><path d="M0,0 m-30,0 a30,30 0 1,0 60,0 a30,30 0 1,0 -60,0" fill="none" stroke="black" transform="translate(292.4740840057916,282.3634148477862) rotate(236.61687084141263) scale(0.9927412868806563)" /><path d="M-30,-20 h60 v40 h-60 Z" fill="none" stroke="black" transform="translate(312.43564754333954,128.5295205528834) rotate(160.51959218376447) scale(1.1347804625016067)" /><path d="M-30,-20 h60 v40 h-60 Z" fill="none" stroke="black" transform="translate(231.47524240053696,96.07455561416984) rotate(301.8062470285432) scale(0.8721949349650239)" /><g><path d="M30,0 L15,-26 L-15,-26 L-30,0 L-15,26 L15,26 Z" fill="none" stroke="black" transform="translate(149.77749508665994,315.3338111737225) rotate(142.5507948283295) scale(0.9829314560148346)" /><path d="M30,0 L15,-26 L-15,-26 L-30,0 L-15,26 L15,26 Z" fill="none" stroke="black" transform="translate(149.77749508665994,315.3338111737225) rotate(142.5507948283295) scale(0.6880520192103842)" /><path d="M30,0 L15,-26 L-15,-26 L-30,0 L-15,26 L15,26 Z" fill="none" stroke="black" transform="translate(149.77749508665994,315.3338111737225) rotate(142.5507948283295) scale(0.39317258240593383)" /></g></svg>