<svg baseProfile="full" height="400" version="1.1" width="400" xmlns="http://www.w3.org/2000/svg" xmlns:ev="http://www.w3.org/2001/xml-events" xmlns:xlink="http://www.w3.org/1999/xlink"><defs /><rect fill="white" height="100%" width="100%" x="0" y="0" /><g><path d="M0.0,-30.0 L28.5,-9.3 L17.6,24.3 L-17.6,24.3 L-28.5,-9.3 Z" fill="none" stroke="black" transform="translate(97.59982237117674,84.16438324755138) rotate(323.0238504013829) scale(0.98490835862246)" /><path d="M0.0,-30.0 L28.5,-9.3 L17.6,24.3 L-17.6,24.3 L-28.5,-9.3 Z" fill="none" stroke="black" transform="translate(97.59982237117674,84.16438324755138) rotate(323.0238504013829) scale(0.6894358510357219)" /><path d="M0.0,-30.0 L28.5,-9.3 L17.6,24.3 L-17.6,24.3 L-28.5,-9.3 Z" fill="none" stroke="black" transform="translate(97.59982237117674,84.16438324755138) rotate(323.0238504013829) scale(0.393963343448984)" /></g><path d="M-30,-20 h60 v40 h-60 Z" fill="none" stroke="black" transform="translate(244.86988976689582,127.67350974062785) rotate(279.87459151941897) scale(1.349540952416634)" /><path d="M-30,-20 h60 v40 h-60 Z" fill="none" stroke="black" transform="translate(232.42757076844268,287.91895756922554) rotate(113.9686933157693) scale(1.2667808473942657)" /><path d="M-30,-20 h60 v40 h-60 Z" fill="none" stroke="black" transform="translate(284.98068442821295,229.3889453692612) rotate(353.3207663286606) scale(1.3295361201289717)" /><path d="M-30,-20 h60 v40 h-60 Z" fill="none" stroke="black" transform="translate(112.85888681925634,126.22532146087244) rotate(231.9788793148799) scale(1.0265872548123223)" /><path d="M30,0 L15,-26 L-15,-26 L-30,0 L-15,26 L15,26 Z" fill="none" stroke="black" transform="translate(324.4556649567015,129.828294011338) rotate(149.78763151018637) scale(0.8177706802272708)" /><path d="M30,0 L15,-26 L-15,-26 L-30,0 L-15,26 L15,26 Z" fill="none" stroke="black" transform="translate(166.43525566972033,196.02615404794344) rotate(94.99878779588282) scale(1.5988563698072804)" /><path d="M30,0 L15,-26 L-15,-26 L-30,0 L-15,26 L15,26 Z" fill="none" stroke="black" transform="translate(138.30728532211728,266.41273628887143) rotate(328.9675533153624) scale(0.9087671930799263)" /><path d="M30,0 L15,-26 L-15,-26 L-30,0 L-15,26 L15,26 Z" fill="none" stroke="black" transform="translate(165.02909996775912,136.59496328979827) rotate(351.79968912529216) scale(1.1381840920249493)" /><path d="M30,0 L15,-26 L-15,-26 L-30,0 L-15,26 L15,26 Z" fill="none" stroke="black" transform="translate(277.9653256289899,322.81299205351837) rotate(193.52407633280498) scale(0.8779006706512053)" /><g><path d="M30,0 L15,-26 L-15,-26 L-30,0 L-15,26 L15,26 Z" fill="none" stroke="black" transform="translate(250.58214155560336,177.55082001709536) rotate(190.1778438703295) scale(1.1301116447030841)" /><path d="M30,0 L15,-26 L-15,-26 L-30,0 L-15,26 L15,26 Z" fill="none" stroke="black" transform="translate(250.58214155560336,177.55082001709536) rotate(190.1778438703295) scale(0.7910781512921589)" /><path d="M30,0 L15,-26 L-15,-26 L-30,0 L-15,26 L15,26 Z" fill="none" stroke="black" transform="translate(250.58214155560336,177.55082001709536) rotate(190.1778438703295) scale(0.45204465788123366)" /></g><path d="M30,0 L15,-26 L-15,-26 L-30,0 L-15,26 L15,26 Z" fill="none" stroke="black" transform="translate(92.71543727475994,241.5713076458004) rotate(2.945490576123433) scale(1.2342522540665741)" /><path d="M30,0 L15,-26 L-15,-26 L-30,0 L-15,26 L15,26 Z" fill="none" stroke="black" transform="translate(117.25390331293285,298.38841233543354) rotate(310.96094430573663) scale(1.000070521627234)" /><path d="M0,0 m-30,0 a30,30 0 1,0 60,0 a30,30 0 1,0 -60,0" fill="none" stroke="black" transform="translate(113.5851901461534,192.59438553551257) rotate(74.23941628250884) scale(0.8834179504309798)" /><g><path d="M0,0 m-30,0 a30,30 0 1,0 60,0 a30,30 0 1,0 -60,0" fill="none" stroke="black" transform="translate(320.04206497920177,307.83111011763805) rotate(161.46778004412553) scale(0.8703997537632772)" /><path d="M0,0 m-30,0 a30,30 0 1,0 60,0 a30,30 0 1,0 -60,0" fill="none" stroke="black" transform="translate(320.04206497920177,307.83111011763805) rotate(161.46778004412553) scale(0.609279827634294)" /><path d="M0,0 m-30,0 a30,30 0 1,0 60,0 a30,30 0 1,0 -60,0" fill="none" stroke="black" transform="translate(320.04206497920177,307.83111011763805) rotate(161.46778004412553) scale(0.3481599015053109)" /></g><path d="M0,0 m-30,0 a30,30 0 1,0 60,0 a30,30 0 1,0 -60,0" fill="none" stroke="black" transform="translate(281.5848962937654,80.80512293814779) rotate(14.558117116037277) scale(0.8319990617933137)" /><path d="M0,0 m-30,0 a30,30 0 1,0 60,0 a30,30 0 1,0 -60,0" fill="none" stroke="black" transform="translate(187.3376923526035,269.79476836315723) rotate(120.39851495912093) scale(1.0884061971244259)" /><path d="M27.7,-11.5 L27.7,11.5 L11.5,27.7 L-11.5,27.7 L-27.7,11.5 L-27.7,-11.5 L-11.5,-27.7 L11.5,-27.7 Z" fill="none" stroke="black" transform="translate(322.0204122661954,181.42785569099328) rotate(142.66866721728974) scale(0.9616150116184936)" /><path d="M27.7,-11.5 L27.7,11.5 L11.5,27.7 L-11.5,27.7 L-27.7,11.5 L-27.7,-11.5 L-11.5,-27.7 L11.5,-27.7 Z" fill="none" stroke="black" transform="translate(335.62415279511333,69.43535592822933) rotate(180.5997080930792) scale(0.8203634764622358)" /><path d="M27.7,-11.5 L27.7,11.5 L11.5,27.7 L-11.5,27.7 L-27.7,11.5 L-27.7,-11.5 L-11.5,-27.7 L11.5,-27.7 Z" fill="none" stroke="black" transform="translate(160.86173148268824,316.2895846622003) rotate(15.044286487956393) scale(1.0793317621703595)" /><g><path d="M27.7,-11.5 L27.7,11.5 L11.5,27.7 L-11.5,27.7 L-27.7,11.5 L-27.7,-11.5 L-11.5,-27.7 L11.5,-27.7 Z" fill="none" stroke="black" transform="translate(191.0872708623152,73.83366154968563) rotate(233.87579266439224) scale(0.9835273369274004)" /><path d="M27.7,-11.5 L27.7,11.5 L11.5,27.7 L-11.5,27.7 L-27.7,11.5 L-27.7,-11.5 L-11.5,-27.7 L11.5,-27.7 Z" fill="none" stroke="black" transform="translate(191.0872708623152,73.83366154968563) rotate(233.87579266439224) scale(0.6884691358491802)" /><path d="M27.7,-11.5 L27.7,11.5 L11.5,27.7 L-11.5,27.7 L-27.7,11.5 L-27.7,-11.5 L-11.5,-27.7 L11.5,-27.7 Z" fill="none" stroke="black" transform="translate(191.0872708623152,73.83366154968563) rotate(233.87579266439224) scale(0.3934109347709602)" /></g><g><path d="M27.7,-11.5 L27.7,11.5 L11.5,27.7 L-11.5,27.7 L-27.7,11.5 L-27.7,-11.5 L-11.5,-27.7 L11.5,-27.7 Z" fill="none" stroke="black" transform="translate(147.48305551451094,63.32964190511371) rotate(242.4145086787285) scale(0.8003466709155336)" /><path d="M27.7,-11.5 L27.7,11.5 L11.5,27.7 L-11.5,27.7 L-27.7,11.5 L-27.7,-11.5 L-11.5,-27.7 L11.5,-27.7 Z" fill="none" stroke="black" transform="translate(147.48305551451094,63.32964190511371) rotate(242.4145086787285) scale(0.5602426696408734)" /></g><path d="M27.7,-11.5 L27.7,11.5 L11.5,27.7 L-11.5,27.7 L-27.7,11.5 L-27.7,-11.5 L-11.5,-27.7 L11.5,-27.7 Z" fill="none" stroke="black" transform="translate(225.0518505990774,217.51720699521965) rotate(278.64764040657275) scale(1.2308887260548695)" /><path d="M0,-30 L30,30 L-30,30 Z" fill="none" stroke="black" transform="translate(154.43304673110507,91.61615369161623) rotate(230.5225985451932) scale(0.8156420480073782)" /><g><path d="M0,-30 L30,30 L-30,30 Z" fill="none" stroke="black" transform="translate(67.9083788399604,153.16263849420903) rotate(292.94857904040373) scale(0.9177515135493973)" /><path d="M0,-30 L30,30 L-30,30 Z" fill="none" stroke="black" transform="translate(67.9083788399604,153.16263849420903) rotate(292.94857904040373) scale(0.6424260594845781)" /><path d="M0,-30 L30,30 L-30,30 Z" fill="none" stroke="black" transform="translate(67.9083788399604,153.16263849420903) rotate(292.94857904040373) scale(0.367100605419759)" /></g><path d="M0.0,-30.0 L8.8,-12.1 L28.5,-9.3 L14.3,4.6 L17.6,24.3 L0.0,15.0 L-17.6,24.3 L-14.3,4.6 L-28.5,-9.3 L-8.8,-12.1 Z" fill="none" stroke="black" transform="translate(77.17882526310876,311.0901942530664) rotate(320.435274561454) scale(0.8023321833159421)" /></svg>