<svg baseProfile="full" height="400" version="1.1" width="400" xmlns="http://www.w3.org/2000/svg" xmlns:ev="http://www.w3.org/2001/xml-events" xmlns:xlink="http://www.w3.org/1999/xlink"><defs /><rect fill="white" height="100%" width="100%" x="0" y="0" /><g><path d="M0,-30 L30,30 L-30,30 Z" fill="none" stroke="black" transform="translate(238.71695463902364,92.75627372696427) rotate(63.522418381034534) scale(1.2700796113343644)" /><path d="M0,-30 L30,30 L-30,30 Z" fill="none" stroke="black" transform="translate(238.71695463902364,92.75627372696427) rotate(63.522418381034534) scale(0.8890557279340551)" /></g><path d="M0,-30 L30,30 L-30,30 Z" fill="none" stroke="black" transform="translate(174.5450965597051,177.8828556814503) rotate(182.59244926220222) scale(1.7748475838287137)" /><path d="M0.0,-30.0 L28.5,-9.3 L17.6,24.3 L-17.6,24.3 L-28.5,-9.3 Z" fill="none" stroke="black" transform="translate(283.0341833558724,222.08481106962057) rotate(216.72370351657634) scale(1.1297969496158045)" /><path d="M0.0,-30.0 L28.5,-9.3 L17.6,24.3 L-17.6,24.3 L-28.5,-9.3 Z" fill="none" stroke="black" transform="translate(106.65346387233804,187.35359713286576) rotate(130.61893768333553) scale(1.2128704642478136)" /><path d="M0.0,-30.0 L28.5,-9.3 L17.6,24.3 L-17.6,24.3 L-28.5,-9.3 Z" fill="none" stroke="black" transform="translate(252.6005793260582,192.4462912280103) rotate(213.66262224124378) scale(0.8339678915783773)" /><path d="M0.0,-30.0 L28.5,-9.3 L17.6,24.3 L-17.6,24.3 L-28.5,-9.3 Z" fill="none" stroke="black" transform="translate(321.69522360185385,182.79439704205515) rotate(171.76857558526655) scale(0.9659754223964374)" /><path d="M0.0,-30.0 L28.5,-9.3 L17.6,24.3 L-17.6,24.3 L-28.5,-9.3 Z" fill="none" stroke="black" transform="translate(209.1477978594381,270.07263297203053) rotate(274.9192139706935) scale(1.4863651315123914)" /><path d="M0.0,-30.0 L28.5,-9.3 L17.6,24.3 L-17.6,24.3 L-28.5,-9.3 Z" fill="none" stroke="black" transform="translate(313.65111246146495,307.6659336390676) rotate(89.19969151094325) scale(0.9905562693860609)" /><g><path d="M0.0,-30.0 L28.5,-9.3 L17.6,24.3 L-17.6,24.3 L-28.5,-9.3 Z" fill="none" stroke="black" transform="translate(287.82374512591116,88.68287941632485) rotate(264.58624424922874) scale(1.0944726900594948)" /><path d="M0.0,-30.0 L28.5,-9.3 L17.6,24.3 L-17.6,24.3 L-28.5,-9.3 Z" fill="none" stroke="black" transform="translate(287.82374512591116,88.68287941632485) rotate(264.58624424922874) scale(0.7661308830416463)" /><path d="M0.0,-30.0 L28.5,-9.3 L17.6,24.3 L-17.6,24.3 L-28.5,-9.3 Z" fill="none" stroke="black" transform="translate(287.82374512591116,88.68287941632485) rotate(264.58624424922874) scale(0.4377890760237979)" /></g><path d="M0.0,-30.0 L28.5,-9.3 L17.6,24.3 L-17.6,24.3 L-28.5,-9.3 Z" fill="none" stroke="black" transform="translate(270.89126829820447,299.93719741610505) rotate(148.9905526301438) scale(1.2100762819667898)" /><path d="M-30,-20 h60 v40 h-60 Z" fill="none" stroke="black" transform="translate(119.1117589576076,302.74435658518877) rotate(172.75344402794525) scale(1.1658998519016748)" /></svg>