<svg baseProfile="full" height="400" version="1.1" width="400" xmlns="http://www.w3.org/2000/svg" xmlns:ev="http://www.w3.org/2001/xml-events" xmlns:xlink="http://www.w3.org/1999/xlink"><defs /><rect fill="white" height="100%" width="100%" x="0" y="0" /><path d="M0,0 m-30,0 a30,30 0 1,0 60,0 a30,30 0 1,0 -60,0" fill="none" stroke="black" transform="translate(127.6032599815109,242.50736436429048) rotate(326.6024863955277) scale(1.1794702315463501)" /><path d="M0,0 m-30,0 a30,30 0 1,0 60,0 a30,30 0 1,0 -60,0" fill="none" stroke="black" transform="translate(214.19931636362574,162.11747154503712) rotate(139.88184549611879) scale(1.9259424579092472)" /><path d="M0,0 m-30,0 a30,30 0 1,0 60,0 a30,30 0 1,0 -60,0" fill="none" stroke="black" transform="translate(74.04273000277445,306.16749059629683) rotate(221.88867900858426) scale(0.8909686672615402)" /><path d="M0,0 m-30,0 a30,30 0 1,0 60,0 a30,30 0 1,0 -60,0" fill="none" stroke="black" transform="translate(176.82903907562712,70.28296331470075) rotate(289.1243470192725) scale(0.832091980099471)" /><path d="M0,0 m-30,0 a30,30 0 1,0 60,0 a30,30 0 1,0 -60,0" fill="none" stroke="black" transform="translate(269.08449438185426,268.3403297332944) rotate(149.24196590440044) scale(1.7979067711498034)" /><g><path d="M0.0,-30.0 L8.8,-12.1 L28.5,-9.3 L14.3,4.6 L17.6,24.3 L0.0,15.0 L-17.6,24.3 L-14.3,4.6 L-28.5,-9.3 L-8.8,-12.1 Z" fill="none" stroke="black" transform="translate(92.63287497703325,131.0050956966112) rotate(134.45558374715225) scale(0.8008851963417198)" /><path d="M0.0,-30.0 L8.8,-12.1 L28.5,-9.3 L14.3,4.6 L17.6,24.3 L0.0,15.0 L-17.6,24.3 L-14.3,4.6 L-28.5,-9.3 L-8.8,-12.1 Z" fill="none" stroke="black" transform="translate(92.63287497703325,131.0050956966112) rotate(134.45558374715225) scale(0.5606196374392038)" /></g><path d="M0.0,-30.0 L8.8,-12.1 L28.5,-9.3 L14.3,4.6 L17.6,24.3 L0.0,15.0 L-17.6,24.3 L-14.3,4.6 L-28.5,-9.3 L-8.8,-12.1 Z" fill="none" stroke="black" transform="translate(328.6713069084924,249.17734708919562) rotate(244.6645735663132) scale(0.8909326472547365)" /><path d="M0.0,-30.0 L8.8,-12.1 L28.5,-9.3 L14.3,4.6 L17.6,24.3 L0.0,15.0 L-17.6,24.3 L-14.3,4.6 L-28.5,-9.3 L-8.8,-12.1 Z" fill="none" stroke="black" transform="translate(132.85855859276506,89.13908996922918) rotate(329.0619799249839) scale(1.174338089794427)" /><g><path d="M30,0 L15,-26 L-15,-26 L-30,0 L-15,26 L15,26 Z" fill="none" stroke="black" transform="translate(143.68794513665316,273.90201843065154) rotate(147.01854308783265) scale(0.9444588605147153)" /><path d="M30,0 L15,-26 L-15,-26 L-30,0 L-15,26 L15,26 Z" fill="none" stroke="black" transform="translate(143.68794513665316,273.90201843065154) rotate(147.01854308783265) scale(0.6611212023603007)" /><path d="M30,0 L15,-26 L-15,-26 L-30,0 L-15,26 L15,26 Z" fill="none" stroke="black" transform="translate(143.68794513665316,273.90201843065154) rotate(147.01854308783265) scale(0.3777835442058861)" /></g><g><path d="M30,0 L15,-26 L-15,-26 L-30,0 L-15,26 L15,26 Z" fill="none" stroke="black" transform="translate(125.1682423545019,190.8433746407472) rotate(352.7318096336101) scale(0.9567072705381652)" /><path d="M30,0 L15,-26 L-15,-26 L-30,0 L-15,26 L15,26 Z" fill="none" stroke="black" transform="translate(125.1682423545019,190.8433746407472) rotate(352.7318096336101) scale(0.6696950893767156)" /></g><path d="M30,0 L15,-26 L-15,-26 L-30,0 L-15,26 L15,26 Z" fill="none" stroke="black" transform="translate(178.20657866226543,236.0252170253482) rotate(256.6037890512918) scale(0.8361934809083363)" /><path d="M30,0 L15,-26 L-15,-26 L-30,0 L-15,26 L15,26 Z" fill="none" stroke="black" transform="translate(80.4050624461543,191.96776711087918) rotate(233.64019991943957) scale(0.8843901814279694)" /></svg>