<svg baseProfile="full" height="400" version="1.1" width="400" xmlns="http://www.w3.org/2000/svg" xmlns:ev="http://www.w3.org/2001/xml-events" xmlns:xlink="http://www.w3.org/1999/xlink"><defs /><rect fill="white" height="100%" width="100%" x="0" y="0" /><path d="M27.7,-11.5 L27.7,11.5 L11.5,27.7 L-11.5,27.7 L-27.7,11.5 L-27.7,-11.5 L-11.5,-27.7 L11.5,-27.7 Z" fill="none" stroke="black" transform="translate(138.0649757194551,161.26784018253642) rotate(41.8710346763219) scale(1.3655885365738203)" /><path d="M30,0 L15,-26 L-15,-26 L-30,0 L-15,26 L15,26 Z" fill="none" stroke="black" transform="translate(229.17921285642916,173.7064720736689) rotate(95.10618697175579) scale(1.1665976006928738)" /><path d="M30,0 L15,-26 L-15,-26 L-30,0 L-15,26 L15,26 Z" fill="none" stroke="black" transform="translate(183.81536624277612,237.7039845417548) rotate(209.58723713731013) scale(1.0929888947175972)" /><path d="M30,0 L15,-26 L-15,-26 L-30,0 L-15,26 L15,26 Z" fill="none" stroke="black" transform="translate(270.880769448888,252.7999474154704) rotate(278.6970387736624) scale(1.5125741517919808)" /><g><path d="M30,0 L15,-26 L-15,-26 L-30,0 L-15,26 L15,26 Z" fill="none" stroke="black" transform="translate(131.24401845335925,327.9979969907132) rotate(74.09606841481174) scale(0.9169133447902288)" /><path d="M30,0 L15,-26 L-15,-26 L-30,0 L-15,26 L15,26 Z" fill="none" stroke="black" transform="translate(131.24401845335925,327.9979969907132) rotate(74.09606841481174) scale(0.6418393413531601)" /></g><path d="M30,0 L15,-26 L-15,-26 L-30,0 L-15,26 L15,26 Z" fill="none" stroke="black" transform="translate(77.65725049365794,282.8300958849413) rotate(321.42178643287355) scale(0.8055551047749867)" /><path d="M0.0,-30.0 L8.8,-12.1 L28.5,-9.3 L14.3,4.6 L17.6,24.3 L0.0,15.0 L-17.6,24.3 L-14.3,4.6 L-28.5,-9.3 L-8.8,-12.1 Z" fill="none" stroke="black" transform="translate(74.20533700111946,192.24647326994804) rotate(90.55218593392875) scale(0.9749118941373791)" /><g><path d="M0,0 m-30,0 a30,30 0 1,0 60,0 a30,30 0 1,0 -60,0" fill="none" stroke="black" transform="translate(191.4400508007986,304.07180545481) rotate(292.01306190672784) scale(1.2785302418079167)" /><path d="M0,0 m-30,0 a30,30 0 1,0 60,0 a30,30 0 1,0 -60,0" fill="none" stroke="black" transform="translate(191.4400508007986,304.07180545481) rotate(292.01306190672784) scale(0.8949711692655417)" /></g><g><path d="M0,0 m-30,0 a30,30 0 1,0 60,0 a30,30 0 1,0 -60,0" fill="none" stroke="black" transform="translate(112.26687760236709,247.0606031935144) rotate(210.84814852137458) scale(0.986016509120197)" /><path d="M0,0 m-30,0 a30,30 0 1,0 60,0 a30,30 0 1,0 -60,0" fill="none" stroke="black" transform="translate(112.26687760236709,247.0606031935144) rotate(210.84814852137458) scale(0.6902115563841379)" /><path d="M0,0 m-30,0 a30,30 0 1,0 60,0 a30,30 0 1,0 -60,0" fill="none" stroke="black" transform="translate(112.26687760236709,247.0606031935144) rotate(210.84814852137458) scale(0.39440660364807884)" /></g><g><path d="M0.0,-30.0 L28.5,-9.3 L17.6,24.3 L-17.6,24.3 L-28.5,-9.3 Z" fill="none" stroke="black" transform="translate(107.1943783095729,86.1474948569487) rotate(354.54738042952295) scale(1.0159726627376426)" /><path d="M0.0,-30.0 L28.5,-9.3 L17.6,24.3 L-17.6,24.3 L-28.5,-9.3 Z" fill="none" stroke="black" transform="translate(107.1943783095729,86.1474948569487) rotate(354.54738042952295) scale(0.7111808639163498)" /></g><path d="M0.0,-30.0 L28.5,-9.3 L17.6,24.3 L-17.6,24.3 L-28.5,-9.3 Z" fill="none" stroke="black" transform="translate(334.65529523074076,156.19566038229976) rotate(64.4977009950032) scale(0.8202150901415589)" /><path d="M-30,-20 h60 v40 h-60 Z" fill="none" stroke="black" transform="translate(304.64027230105415,103.81616247134905) rotate(141.64318255417692) scale(1.31710866332791)" /><path d="M-30,-20 h60 v40 h-60 Z" fill="none" stroke="black" transform="translate(252.18588096931398,322.3482191250683) rotate(293.17355272286625) scale(0.9714490975344772)" /><g><path d="M-30,-20 h60 v40 h-60 Z" fill="none" stroke="black" transform="translate(225.80514737199638,81.34033464322887) rotate(214.60270001220857) scale(1.0783432350913689)" /><path d="M-30,-20 h60 v40 h-60 Z" fill="none" stroke="black" transform="translate(225.80514737199638,81.34033464322887) rotate(214.60270001220857) scale(0.7548402645639581)" /><path d="M-30,-20 h60 v40 h-60 Z" fill="none" stroke="black" transform="translate(225.80514737199638,81.34033464322887) rotate(214.60270001220857) scale(0.4313372940365476)" /></g></svg>