<svg baseProfile="full" height="400" version="1.1" width="400" xmlns="http://www.w3.org/2000/svg" xmlns:ev="http://www.w3.org/2001/xml-events" xmlns:xlink="http://www.w3.org/1999/xlink"><defs /><rect fill="white" height="100%" width="100%" x="0" y="0" /><g><path d="M27.7,-11.5 L27.7,11.5 L11.5,27.7 L-11.5,27.7 L-27.7,11.5 L-27.7,-11.5 L-11.5,-27.7 L11.5,-27.7 Z" fill="none" stroke="black" transform="translate(237.01380808127203,229.51154341874502) rotate(191.20992480983125) scale(1.1355981190792046)" /><path d="M27.7,-11.5 L27.7,11.5 L11.5,27.7 L-11.5,27.7 L-27.7,11.5 L-27.7,-11.5 L-11.5,-27.7 L11.5,-27.7 Z" fill="none" stroke="black" transform="translate(237.01380808127203,229.51154341874502) rotate(191.20992480983125) scale(0.7949186833554431)" /></g><path d="M27.7,-11.5 L27.7,11.5 L11.5,27.7 L-11.5,27.7 L-27.7,11.5 L-27.7,-11.5 L-11.5,-27.7 L11.5,-27.7 Z" fill="none" stroke="black" transform="translate(260.4770740402183,138.0855659865847) rotate(324.0476411374051) scale(1.4332451957042047)" /><g><path d="M27.7,-11.5 L27.7,11.5 L11.5,27.7 L-11.5,27.7 L-27.7,11.5 L-27.7,-11.5 L-11.5,-27.7 L11.5,-27.7 Z" fill="none" stroke="black" transform="translate(203.94852717287236,286.84606460100315) rotate(273.5463319722184) scale(0.925409181025013)" /><path d="M27.7,-11.5 L27.7,11.5 L11.5,27.7 L-11.5,27.7 L-27.7,11.5 L-27.7,-11.5 L-11.5,-27.7 L11.5,-27.7 Z" fill="none" stroke="black" transform="translate(203.94852717287236,286.84606460100315) rotate(273.5463319722184) scale(0.6477864267175091)" /></g><path d="M0.0,-30.0 L28.5,-9.3 L17.6,24.3 L-17.6,24.3 L-28.5,-9.3 Z" fill="none" stroke="black" transform="translate(305.48788356895415,191.1591433075211) rotate(244.44607517209434) scale(1.2237701410710409)" /><g><path d="M0.0,-30.0 L28.5,-9.3 L17.6,24.3 L-17.6,24.3 L-28.5,-9.3 Z" fill="none" stroke="black" transform="translate(165.7717602211663,160.5037783742899) rotate(51.31043183185157) scale(0.9761849391529903)" /><path d="M0.0,-30.0 L28.5,-9.3 L17.6,24.3 L-17.6,24.3 L-28.5,-9.3 Z" fill="none" stroke="black" transform="translate(165.7717602211663,160.5037783742899) rotate(51.31043183185157) scale(0.6833294574070932)" /></g><path d="M0.0,-30.0 L28.5,-9.3 L17.6,24.3 L-17.6,24.3 L-28.5,-9.3 Z" fill="none" stroke="black" transform="translate(214.84757585696514,178.04582054371258) rotate(188.60641484127675) scale(1.347287911928467)" /><path d="M0.0,-30.0 L28.5,-9.3 L17.6,24.3 L-17.6,24.3 L-28.5,-9.3 Z" fill="none" stroke="black" transform="translate(122.95157665718554,129.76027619632256) rotate(217.80885140676781) scale(0.926377654283258)" /><path d="M30,0 L15,-26 L-15,-26 L-30,0 L-15,26 L15,26 Z" fill="none" stroke="black" transform="translate(128.15631736910984,296.76386665958336) rotate(90.39516730360212) scale(1.2159909373495879)" /><g><path d="M30,0 L15,-26 L-15,-26 L-30,0 L-15,26 L15,26 Z" fill="none" stroke="black" transform="translate(176.6018171607272,257.2991264533303) rotate(97.29764008963247) scale(0.9951560306874476)" /><path d="M30,0 L15,-26 L-15,-26 L-30,0 L-15,26 L15,26 Z" fill="none" stroke="black" transform="translate(176.6018171607272,257.2991264533303) rotate(97.29764008963247) scale(0.6966092214812133)" /></g><path d="M30,0 L15,-26 L-15,-26 L-30,0 L-15,26 L15,26 Z" fill="none" stroke="black" transform="translate(318.6965472465941,243.80858947987957) rotate(58.4240084991962) scale(0.9556197472953658)" /><g><path d="M30,0 L15,-26 L-15,-26 L-30,0 L-15,26 L15,26 Z" fill="none" stroke="black" transform="translate(119.10910448553471,181.02762063910814) rotate(337.3443149633507) scale(0.9521605960937018)" /><path d="M30,0 L15,-26 L-15,-26 L-30,0 L-15,26 L15,26 Z" fill="none" stroke="black" transform="translate(119.10910448553471,181.02762063910814) rotate(337.3443149633507) scale(0.6665124172655913)" /><path d="M30,0 L15,-26 L-15,-26 L-30,0 L-15,26 L15,26 Z" fill="none" stroke="black" transform="translate(119.10910448553471,181.02762063910814) rotate(337.3443149633507) scale(0.38086423843748074)" /></g><g><path d="M30,0 L15,-26 L-15,-26 L-30,0 L-15,26 L15,26 Z" fill="none" stroke="black" transform="translate(132.59094808768708,231.43161636168364) rotate(317.5362806517913) scale(1.4734237224441356)" /><path d="M30,0 L15,-26 L-15,-26 L-30,0 L-15,26 L15,26 Z" fill="none" stroke="black" transform="translate(132.59094808768708,231.43161636168364) rotate(317.5362806517913) scale(1.0313966057108948)" /><path d="M30,0 L15,-26 L-15,-26 L-30,0 L-15,26 L15,26 Z" fill="none" stroke="black" transform="translate(132.59094808768708,231.43161636168364) rotate(317.5362806517913) scale(0.5893694889776543)" /></g><path d="M30,0 L15,-26 L-15,-26 L-30,0 L-15,26 L15,26 Z" fill="none" stroke="black" transform="translate(203.7779804037868,111.5011328641621) rotate(118.01941680059754) scale(1.0872631201467329)" /></svg>