<svg baseProfile="full" height="400" version="1.1" width="400" xmlns="http://www.w3.org/2000/svg" xmlns:ev="http://www.w3.org/2001/xml-events" xmlns:xlink="http://www.w3.org/1999/xlink"><defs /><rect fill="white" height="100%" width="100%" x="0" y="0" /><path d="M0,0 m-30,0 a30,30 0 1,0 60,0 a30,30 0 1,0 -60,0" fill="none" stroke="black" transform="translate(216.89101561889402,73.86401171365966) rotate(10.440249763937462) scale(0.9417948668040613)" /><path d="M0,0 m-30,0 a30,30 0 1,0 60,0 a30,30 0 1,0 -60,0" fill="none" stroke="black" transform="translate(259.5374598801835,304.3106422966357) rotate(17.115310003121586) scale(1.1132869397456588)" /><path d="M0,0 m-30,0 a30,30 0 1,0 60,0 a30,30 0 1,0 -60,0" fill="none" stroke="black" transform="translate(234.03509412955518,213.22013553525716) rotate(92.56545410408951) scale(1.906788520987894)" /><path d="M0.0,-30.0 L8.8,-12.1 L28.5,-9.3 L14.3,4.6 L17.6,24.3 L0.0,15.0 L-17.6,24.3 L-14.3,4.6 L-28.5,-9.3 L-8.8,-12.1 Z" fill="none" stroke="black" transform="translate(329.43037671672334,130.0621970600709) rotate(235.4909576392466) scale(0.9425853278744553)" /><path d="M0.0,-30.0 L8.8,-12.1 L28.5,-9.3 L14.3,4.6 L17.6,24.3 L0.0,15.0 L-17.6,24.3 L-14.3,4.6 L-28.5,-9.3 L-8.8,-12.1 Z" fill="none" stroke="black" transform="translate(149.1774975237328,151.06407187128457) rotate(188.28769420259908) scale(1.5255136052585456)" /><path d="M0,-30 L30,30 L-30,30 Z" fill="none" stroke="black" transform="translate(141.5174935547081,269.8143034221407) rotate(87.43387165474647) scale(1.124088528960258)" /><path d="M0.0,-30.0 L28.5,-9.3 L17.6,24.3 L-17.6,24.3 L-28.5,-9.3 Z" fill="none" stroke="black" transform="translate(102.31809075739953,222.43362747723364) rotate(160.62851805020895) scale(1.0595635244211854)" /><path d="M0.0,-30.0 L28.5,-9.3 L17.6,24.3 L-17.6,24.3 L-28.5,-9.3 Z" fill="none" stroke="black" transform="translate(87.23594182103096,300.2673548049096) rotate(102.89073056208886) scale(0.9110119553484768)" /><g><path d="M0.0,-30.0 L28.5,-9.3 L17.6,24.3 L-17.6,24.3 L-28.5,-9.3 Z" fill="none" stroke="black" transform="translate(300.63839414265954,63.00583202604065) rotate(150.17634525576804) scale(0.8204798570068412)" /><path d="M0.0,-30.0 L28.5,-9.3 L17.6,24.3 L-17.6,24.3 L-28.5,-9.3 Z" fill="none" stroke="black" transform="translate(300.63839414265954,63.00583202604065) rotate(150.17634525576804) scale(0.5743358999047888)" /></g><g><path d="M27.7,-11.5 L27.7,11.5 L11.5,27.7 L-11.5,27.7 L-27.7,11.5 L-27.7,-11.5 L-11.5,-27.7 L11.5,-27.7 Z" fill="none" stroke="black" transform="translate(84.71102257591681,97.53922942543036) rotate(237.4903204197499) scale(1.1215786233506444)" /><path d="M27.7,-11.5 L27.7,11.5 L11.5,27.7 L-11.5,27.7 L-27.7,11.5 L-27.7,-11.5 L-11.5,-27.7 L11.5,-27.7 Z" fill="none" stroke="black" transform="translate(84.71102257591681,97.53922942543036) rotate(237.4903204197499) scale(0.785105036345451)" /></g><g><path d="M27.7,-11.5 L27.7,11.5 L11.5,27.7 L-11.5,27.7 L-27.7,11.5 L-27.7,-11.5 L-11.5,-27.7 L11.5,-27.7 Z" fill="none" stroke="black" transform="translate(156.22630411578817,69.23938321801519) rotate(239.57186017229733) scale(0.93090757133599)" /><path d="M27.7,-11.5 L27.7,11.5 L11.5,27.7 L-11.5,27.7 L-27.7,11.5 L-27.7,-11.5 L-11.5,-27.7 L11.5,-27.7 Z" fill="none" stroke="black" transform="translate(156.22630411578817,69.23938321801519) rotate(239.57186017229733) scale(0.651635299935193)" /><path d="M27.7,-11.5 L27.7,11.5 L11.5,27.7 L-11.5,27.7 L-27.7,11.5 L-27.7,-11.5 L-11.5,-27.7 L11.5,-27.7 Z" fill="none" stroke="black" transform="translate(156.22630411578817,69.23938321801519) rotate(239.57186017229733) scale(0.372363028534396)" /></g><path d="M27.7,-11.5 L27.7,11.5 L11.5,27.7 L-11.5,27.7 L-27.7,11.5 L-27.7,-11.5 L-11.5,-27.7 L11.5,-27.7 Z" fill="none" stroke="black" transform="translate(73.48157226246782,177.94681991871) rotate(195.85683270466114) scale(0.9446985713161488)" /><g><path d="M-30,-20 h60 v40 h-60 Z" fill="none" stroke="black" transform="translate(274.72852800256044,111.86494470237275) rotate(211.73945453201557) scale(1.0029789635495219)" /><path d="M-30,-20 h60 v40 h-60 Z" fill="none" stroke="black" transform="translate(274.72852800256044,111.86494470237275) rotate(211.73945453201557) scale(0.7020852744846653)" /><path d="M-30,-20 h60 v40 h-60 Z" fill="none" stroke="black" transform="translate(274.72852800256044,111.86494470237275) rotate(211.73945453201557) scale(0.40119158541980876)" /></g><g><path d="M-30,-20 h60 v40 h-60 Z" fill="none" stroke="black" transform="translate(325.04994376101206,313.14990102577207) rotate(57.24223971707957) scale(0.8997454785040218)" /><path d="M-30,-20 h60 v40 h-60 Z" fill="none" stroke="black" transform="translate(325.04994376101206,313.14990102577207) rotate(57.24223971707957) scale(0.6298218349528152)" /></g></svg>