<svg baseProfile="full" height="400" version="1.1" width="400" xmlns="http://www.w3.org/2000/svg" xmlns:ev="http://www.w3.org/2001/xml-events" xmlns:xlink="http://www.w3.org/1999/xlink"><defs /><rect fill="white" height="100%" width="100%" x="0" y="0" /><path d="M30,0 L15,-26 L-15,-26 L-30,0 L-15,26 L15,26 Z" fill="none" stroke="black" transform="translate(277.7421591736728,251.63880276524878) rotate(73.65892265731932) scale(1.6218186907952732)" /><path d="M30,0 L15,-26 L-15,-26 L-30,0 L-15,26 L15,26 Z" fill="none" stroke="black" transform="translate(66.63528995973739,241.63009478728318) rotate(23.84135091274789) scale(0.8804317844066805)" /><path d="M30,0 L15,-26 L-15,-26 L-30,0 L-15,26 L15,26 Z" fill="none" stroke="black" transform="translate(202.2161038083429,289.71599141273083) rotate(167.8669598552335) scale(0.8767175221532666)" /><path d="M0,0 m-30,0 a30,30 0 1,0 60,0 a30,30 0 1,0 -60,0" fill="none" stroke="black" transform="translate(150.5603161564022,161.97464741447732) rotate(91.53429548618146) scale(1.486600865559164)" /><path d="M0,0 m-30,0 a30,30 0 1,0 60,0 a30,30 0 1,0 -60,0" fill="none" stroke="black" transform="translate(240.919703159788,327.120263827416) rotate(325.51518655025114) scale(0.9886178033532524)" /><g><path d="M0,0 m-30,0 a30,30 0 1,0 60,0 a30,30 0 1,0 -60,0" fill="none" stroke="black" transform="translate(273.67052518634404,94.14294258622866) rotate(127.79243908503803) scale(0.9511636733153062)" /><path d="M0,0 m-30,0 a30,30 0 1,0 60,0 a30,30 0 1,0 -60,0" fill="none" stroke="black" transform="translate(273.67052518634404,94.14294258622866) rotate(127.79243908503803) scale(0.6658145713207143)" /><path d="M0,0 m-30,0 a30,30 0 1,0 60,0 a30,30 0 1,0 -60,0" fill="none" stroke="black" transform="translate(273.67052518634404,94.14294258622866) rotate(127.79243908503803) scale(0.38046546932612246)" /></g><path d="M-30,-20 h60 v40 h-60 Z" fill="none" stroke="black" transform="translate(155.16901739393384,244.81707022134927) rotate(248.9955430944688) scale(1.314019259576416)" /></svg>