<svg baseProfile="full" height="400" version="1.1" width="400" xmlns="http://www.w3.org/2000/svg" xmlns:ev="http://www.w3.org/2001/xml-events" xmlns:xlink="http://www.w3.org/1999/xlink"><defs /><rect fill="white" height="100%" width="100%" x="0" y="0" /><path d="M30,0 L15,-26 L-15,-26 L-30,0 L-15,26 L15,26 Z" fill="none" stroke="black" transform="translate(108.64100656869823,191.17727828721638) rotate(105.21709768552988) scale(1.1454288738200336)" /><g><path d="M30,0 L15,-26 L-15,-26 L-30,0 L-15,26 L15,26 Z" fill="none" stroke="black" transform="translate(204.92942768132923,111.32359227290716) rotate(313.5327235823744) scale(1.479676451090885)" /><path d="M30,0 L15,-26 L-15,-26 L-30,0 L-15,26 L15,26 Z" fill="none" stroke="black" transform="translate(204.92942768132923,111.32359227290716) rotate(313.5327235823744) scale(1.0357735157636194)" /></g><g><path d="M27.7,-11.5 L27.7,11.5 L11.5,27.7 L-11.5,27.7 L-27.7,11.5 L-27.7,-11.5 L-11.5,-27.7 L11.5,-27.7 Z" fill="none" stroke="black" transform="translate(169.7805442756517,184.25396916074388) rotate(130.64123020653932) scale(1.1339137044425287)" /><path d="M27.7,-11.5 L27.7,11.5 L11.5,27.7 L-11.5,27.7 L-27.7,11.5 L-27.7,-11.5 L-11.5,-27.7 L11.5,-27.7 Z" fill="none" stroke="black" transform="translate(169.7805442756517,184.25396916074388) rotate(130.64123020653932) scale(0.79373959310977)" /></g><path d="M0.0,-30.0 L8.8,-12.1 L28.5,-9.3 L14.3,4.6 L17.6,24.3 L0.0,15.0 L-17.6,24.3 L-14.3,4.6 L-28.5,-9.3 L-8.8,-12.1 Z" fill="none" stroke="black" transform="translate(191.52919287139537,276.1331459374132) rotate(121.89627422555574) scale(1.5267455087169775)" /><path d="M0.0,-30.0 L8.8,-12.1 L28.5,-9.3 L14.3,4.6 L17.6,24.3 L0.0,15.0 L-17.6,24.3 L-14.3,4.6 L-28.5,-9.3 L-8.8,-12.1 Z" fill="none" stroke="black" transform="translate(258.26538437520037,157.9737259070705) rotate(32.60803790336292) scale(1.3104684101772377)" /><path d="M0.0,-30.0 L8.8,-12.1 L28.5,-9.3 L14.3,4.6 L17.6,24.3 L0.0,15.0 L-17.6,24.3 L-14.3,4.6 L-28.5,-9.3 L-8.8,-12.1 Z" fill="none" stroke="black" transform="translate(292.7660923878599,248.5645785752195) rotate(257.20572696777805) scale(1.2558424668900794)" /><path d="M0,0 m-30,0 a30,30 0 1,0 60,0 a30,30 0 1,0 -60,0" fill="none" stroke="black" transform="translate(278.8499187727163,75.34389032278294) rotate(351.1067887413241) scale(0.9987206904982401)" /><path d="M0,0 m-30,0 a30,30 0 1,0 60,0 a30,30 0 1,0 -60,0" fill="none" stroke="black" transform="translate(102.85775934376193,285.4620754969836) rotate(308.02351819960955) scale(0.9493480369114463)" /><g><path d="M0.0,-30.0 L28.5,-9.3 L17.6,24.3 L-17.6,24.3 L-28.5,-9.3 Z" fill="none" stroke="black" transform="translate(90.36573688678273,74.8200763223388) rotate(140.5250524034944) scale(0.8787779251360747)" /><path d="M0.0,-30.0 L28.5,-9.3 L17.6,24.3 L-17.6,24.3 L-28.5,-9.3 Z" fill="none" stroke="black" transform="translate(90.36573688678273,74.8200763223388) rotate(140.5250524034944) scale(0.6151445475952523)" /></g><g><path d="M0.0,-30.0 L28.5,-9.3 L17.6,24.3 L-17.6,24.3 L-28.5,-9.3 Z" fill="none" stroke="black" transform="translate(312.1980925839232,112.29544518685955) rotate(344.1097192467614) scale(0.900601295245044)" /><path d="M0.0,-30.0 L28.5,-9.3 L17.6,24.3 L-17.6,24.3 L-28.5,-9.3 Z" fill="none" stroke="black" transform="translate(312.1980925839232,112.29544518685955) rotate(344.1097192467614) scale(0.6304209066715307)" /></g><path d="M-30,-20 h60 v40 h-60 Z" fill="none" stroke="black" transform="translate(215.9543522215762,186.22790586610213) rotate(345.88107129156094) scale(0.8122095312673149)" /><path d="M-30,-20 h60 v40 h-60 Z" fill="none" stroke="black" transform="translate(272.5357508911442,317.8245543233295) rotate(214.07058788876208) scale(0.9271438935834566)" /><g><path d="M0,-30 L30,30 L-30,30 Z" fill="none" stroke="black" transform="translate(128.3041024575558,251.61081493977173) rotate(31.293358580183757) scale(1.0122996792449979)" /><path d="M0,-30 L30,30 L-30,30 Z" fill="none" stroke="black" transform="translate(128.3041024575558,251.61081493977173) rotate(31.293358580183757) scale(0.7086097754714985)" /><path d="M0,-30 L30,30 L-30,30 Z" fill="none" stroke="black" transform="translate(128.3041024575558,251.61081493977173) rotate(31.293358580183757) scale(0.40491987169799915)" /></g><path d="M0,-30 L30,30 L-30,30 Z" fill="none" stroke="black" transform="translate(93.71786477993702,317.6381879017631) rotate(37.591849990350326) scale(0.9695950018266968)" /></svg>