<svg baseProfile="full" height="400" version="1.1" width="400" xmlns="http://www.w3.org/2000/svg" xmlns:ev="http://www.w3.org/2001/xml-events" xmlns:xlink="http://www.w3.org/1999/xlink"><defs /><rect fill="white" height="100%" width="100%" x="0" y="0" /><path d="M0.0,-30.0 L28.5,-9.3 L17.6,24.3 L-17.6,24.3 L-28.5,-9.3 Z" fill="none" stroke="black" transform="translate(132.71521977382343,154.24994614699355) rotate(211.31288168903515) scale(1.4673468741422637)" /><path d="M27.7,-11.5 L27.7,11.5 L11.5,27.7 L-11.5,27.7 L-27.7,11.5 L-27.7,-11.5 L-11.5,-27.7 L11.5,-27.7 Z" fill="none" stroke="black" transform="translate(280.56526263493976,185.25202834968448) rotate(319.97471588433206) scale(1.6116554423039458)" /><path d="M30,0 L15,-26 L-15,-26 L-30,0 L-15,26 L15,26 Z" fill="none" stroke="black" transform="translate(208.22483233045625,297.48173382648747) rotate(197.6959726609056) scale(1.1964398450284932)" /><path d="M30,0 L15,-26 L-15,-26 L-30,0 L-15,26 L15,26 Z" fill="none" stroke="black" transform="translate(153.99598665309477,261.6194643144532) rotate(327.3587264344115) scale(1.5612757480312716)" /><g><path d="M30,0 L15,-26 L-15,-26 L-30,0 L-15,26 L15,26 Z" fill="none" stroke="black" transform="translate(175.25608683269593,107.88713242500168) rotate(262.9033552061711) scale(1.2527578055173973)" /><path d="M30,0 L15,-26 L-15,-26 L-30,0 L-15,26 L15,26 Z" fill="none" stroke="black" transform="translate(175.25608683269593,107.88713242500168) rotate(262.9033552061711) scale(0.8769304638621781)" /></g></svg>