<svg baseProfile="full" height="400" version="1.1" width="400" xmlns="http://www.w3.org/2000/svg" xmlns:ev="http://www.w3.org/2001/xml-events" xmlns:xlink="http://www.w3.org/1999/xlink"><defs /><rect fill="white" height="100%" width="100%" x="0" y="0" /><path d="M0.0,-30.0 L8.8,-12.1 L28.5,-9.3 L14.3,4.6 L17.6,24.3 L0.0,15.0 L-17.6,24.3 L-14.3,4.6 L-28.5,-9.3 L-8.8,-12.1 Z" fill="none" stroke="black" transform="translate(174.2268843023935,147.3251279968273) rotate(62.48405003377491) scale(1.5826168192671717)" /><path d="M0.0,-30.0 L8.8,-12.1 L28.5,-9.3 L14.3,4.6 L17.6,24.3 L0.0,15.0 L-17.6,24.3 L-14.3,4.6 L-28.5,-9.3 L-8.8,-12.1 Z" fill="none" stroke="black" transform="translate(110.79468769301711,289.926723227486) rotate(289.4108172564878) scale(1.339867245208516)" /><path d="M0,0 m-30,0 a30,30 0 1,0 60,0 a30,30 0 1,0 -60,0" fill="none" stroke="black" transform="translate(252.89124077306832,299.2233157514703) rotate(103.19351952234348) scale(1.1149832953211836)" /><path d="M-30,-20 h60 v40 h-60 Z" fill="none" stroke="black" transform="translate(311.0359285056245,209.125511898086) rotate(117.53627400966577) scale(1.1560568147493373)" /><path d="M-30,-20 h60 v40 h-60 Z" fill="none" stroke="black" transform="translate(65.58521709026783,111.01448442903376) rotate(78.62566434233901) scale(0.8017671586668549)" /><path d="M-30,-20 h60 v40 h-60 Z" fill="none" stroke="black" transform="translate(315.0789665855405,66.0057110810754) rotate(178.48966744903598) scale(0.8060055010289735)" /><g><path d="M0,-30 L30,30 L-30,30 Z" fill="none" stroke="black" transform="translate(128.14745207930653,67.8647255039691) rotate(40.98334436853979) scale(0.8539802843101992)" /><path d="M0,-30 L30,30 L-30,30 Z" fill="none" stroke="black" transform="translate(128.14745207930653,67.8647255039691) rotate(40.98334436853979) scale(0.5977861990171395)" /></g><g><path d="M30,0 L15,-26 L-15,-26 L-30,0 L-15,26 L15,26 Z" fill="none" stroke="black" transform="translate(97.59632030086499,191.83831281129065) rotate(53.464202441720005) scale(0.8084762458371896)" /><path d="M30,0 L15,-26 L-15,-26 L-30,0 L-15,26 L15,26 Z" fill="none" stroke="black" transform="translate(97.59632030086499,191.83831281129065) rotate(53.464202441720005) scale(0.5659333720860327)" /></g><path d="M27.7,-11.5 L27.7,11.5 L11.5,27.7 L-11.5,27.7 L-27.7,11.5 L-27.7,-11.5 L-11.5,-27.7 L11.5,-27.7 Z" fill="none" stroke="black" transform="translate(244.36119579878357,82.56570573629948) rotate(16.62615888120804) scale(0.8146049850692832)" /></svg>