<svg baseProfile="full" height="400" version="1.1" width="400" xmlns="http://www.w3.org/2000/svg" xmlns:ev="http://www.w3.org/2001/xml-events" xmlns:xlink="http://www.w3.org/1999/xlink"><defs /><rect fill="white" height="100%" width="100%" x="0" y="0" /><g><path d="M0,0 m-30,0 a30,30 0 1,0 60,0 a30,30 0 1,0 -60,0" fill="none" stroke="black" transform="translate(230.50337357160686,162.0627849770028) rotate(9.00323045942609) scale(0.8611784179270454)" /><path d="M0,0 m-30,0 a30,30 0 1,0 60,0 a30,30 0 1,0 -60,0" fill="none" stroke="black" transform="translate(230.50337357160686,162.0627849770028) rotate(9.00323045942609) scale(0.6028248925489318)" /></g><path d="M0,0 m-30,0 a30,30 0 1,0 60,0 a30,30 0 1,0 -60,0" fill="none" stroke="black" transform="translate(138.44833039121545,250.70311575308853) rotate(289.41799862808534) scale(1.7085322996707106)" /><path d="M0,0 m-30,0 a30,30 0 1,0 60,0 a30,30 0 1,0 -60,0" fill="none" stroke="black" transform="translate(84.58776703294711,82.63481929511454) rotate(45.68699183647661) scale(0.9253559543504467)" /><g><path d="M0,0 m-30,0 a30,30 0 1,0 60,0 a30,30 0 1,0 -60,0" fill="none" stroke="black" transform="translate(304.41680007335606,286.78102887263225) rotate(188.36104715770384) scale(1.0936780734368623)" /><path d="M0,0 m-30,0 a30,30 0 1,0 60,0 a30,30 0 1,0 -60,0" fill="none" stroke="black" transform="translate(304.41680007335606,286.78102887263225) rotate(188.36104715770384) scale(0.7655746514058036)" /><path d="M0,0 m-30,0 a30,30 0 1,0 60,0 a30,30 0 1,0 -60,0" fill="none" stroke="black" transform="translate(304.41680007335606,286.78102887263225) rotate(188.36104715770384) scale(0.4374712293747449)" /></g><g><path d="M0,0 m-30,0 a30,30 0 1,0 60,0 a30,30 0 1,0 -60,0" fill="none" stroke="black" transform="translate(217.5743424438191,85.33665010146728) rotate(105.9957475915959) scale(1.0052591075751227)" /><path d="M0,0 m-30,0 a30,30 0 1,0 60,0 a30,30 0 1,0 -60,0" fill="none" stroke="black" transform="translate(217.5743424438191,85.33665010146728) rotate(105.9957475915959) scale(0.7036813753025859)" /></g><path d="M0,0 m-30,0 a30,30 0 1,0 60,0 a30,30 0 1,0 -60,0" fill="none" stroke="black" transform="translate(68.30617715075303,322.1283146011422) rotate(292.8532467691954) scale(0.8876884391249007)" /><path d="M0,0 m-30,0 a30,30 0 1,0 60,0 a30,30 0 1,0 -60,0" fill="none" stroke="black" transform="translate(308.0251226983994,94.26304700697293) rotate(349.45561604692443) scale(1.1710416260257674)" /><path d="M0.0,-30.0 L8.8,-12.1 L28.5,-9.3 L14.3,4.6 L17.6,24.3 L0.0,15.0 L-17.6,24.3 L-14.3,4.6 L-28.5,-9.3 L-8.8,-12.1 Z" fill="none" stroke="black" transform="translate(293.7790762723837,200.06115117926782) rotate(11.021136678849697) scale(1.0487408141285763)" /><path d="M0,-30 L30,30 L-30,30 Z" fill="none" stroke="black" transform="translate(153.43857061913315,151.21670441083356) rotate(303.4869712297788) scale(0.9122659650799836)" /></svg>