<svg baseProfile="full" height="400" version="1.1" width="400" xmlns="http://www.w3.org/2000/svg" xmlns:ev="http://www.w3.org/2001/xml-events" xmlns:xlink="http://www.w3.org/1999/xlink"><defs /><rect fill="white" height="100%" width="100%" x="0" y="0" /><path d="M0.0,-30.0 L28.5,-9.3 L17.6,24.3 L-17.6,24.3 L-28.5,-9.3 Z" fill="none" stroke="black" transform="translate(254.57359644739745,140.61466042007947) rotate(37.84306047294756) scale(1.890858688383332)" /><path d="M0.0,-30.0 L28.5,-9.3 L17.6,24.3 L-17.6,24.3 L-28.5,-9.3 Z" fill="none" stroke="black" transform="translate(132.90036723141958,306.0341075467057) rotate(253.41068344143784) scale(0.9138532458009073)" /><path d="M0.0,-30.0 L28.5,-9.3 L17.6,24.3 L-17.6,24.3 L-28.5,-9.3 Z" fill="none" stroke="black" transform="translate(140.70390753812293,120.42387732882972) rotate(25.39934492443802) scale(1.5534517186540895)" /><g><path d="M0.0,-30.0 L28.5,-9.3 L17.6,24.3 L-17.6,24.3 L-28.5,-9.3 Z" fill="none" stroke="black" transform="translate(109.78780415291425,295.4292682763132) rotate(159.84159521721762) scale(0.8935001053354613)" /><path d="M0.0,-30.0 L28.5,-9.3 L17.6,24.3 L-17.6,24.3 L-28.5,-9.3 Z" fill="none" stroke="black" transform="translate(109.78780415291425,295.4292682763132) rotate(159.84159521721762) scale(0.6254500737348229)" /><path d="M0.0,-30.0 L28.5,-9.3 L17.6,24.3 L-17.6,24.3 L-28.5,-9.3 Z" fill="none" stroke="black" transform="translate(109.78780415291425,295.4292682763132) rotate(159.84159521721762) scale(0.3574000421341845)" /></g><path d="M0.0,-30.0 L28.5,-9.3 L17.6,24.3 L-17.6,24.3 L-28.5,-9.3 Z" fill="none" stroke="black" transform="translate(82.65536601326775,203.92659462205546) rotate(346.03655310855237) scale(0.9152206241363033)" /><path d="M0.0,-30.0 L28.5,-9.3 L17.6,24.3 L-17.6,24.3 L-28.5,-9.3 Z" fill="none" stroke="black" transform="translate(164.33937781930175,336.22934618391247) rotate(12.300962152254433) scale(0.8100444667559126)" /><path d="M0.0,-30.0 L28.5,-9.3 L17.6,24.3 L-17.6,24.3 L-28.5,-9.3 Z" fill="none" stroke="black" transform="translate(177.56505495778964,225.63411129897554) rotate(163.37202763511073) scale(1.4592070876658032)" /><path d="M27.7,-11.5 L27.7,11.5 L11.5,27.7 L-11.5,27.7 L-27.7,11.5 L-27.7,-11.5 L-11.5,-27.7 L11.5,-27.7 Z" fill="none" stroke="black" transform="translate(266.5199933289763,324.7294779421747) rotate(164.14391126131872) scale(0.9488826703598828)" /><g><path d="M30,0 L15,-26 L-15,-26 L-30,0 L-15,26 L15,26 Z" fill="none" stroke="black" transform="translate(265.6394013073612,254.26332874285788) rotate(73.99858891832679) scale(1.7640603625183806)" /><path d="M30,0 L15,-26 L-15,-26 L-30,0 L-15,26 L15,26 Z" fill="none" stroke="black" transform="translate(265.6394013073612,254.26332874285788) rotate(73.99858891832679) scale(1.2348422537628663)" /><path d="M30,0 L15,-26 L-15,-26 L-30,0 L-15,26 L15,26 Z" fill="none" stroke="black" transform="translate(265.6394013073612,254.26332874285788) rotate(73.99858891832679) scale(0.7056241450073523)" /></g><path d="M30,0 L15,-26 L-15,-26 L-30,0 L-15,26 L15,26 Z" fill="none" stroke="black" transform="translate(326.10297288890894,142.72773932472916) rotate(27.72171527980406) scale(0.9958238426553176)" /><path d="M30,0 L15,-26 L-15,-26 L-30,0 L-15,26 L15,26 Z" fill="none" stroke="black" transform="translate(302.2083338519208,312.58018764453965) rotate(217.20945381804555) scale(1.151414478633594)" /><path d="M30,0 L15,-26 L-15,-26 L-30,0 L-15,26 L15,26 Z" fill="none" stroke="black" transform="translate(196.66746055200315,310.36196086977674) rotate(306.514299479316) scale(0.9972329353862142)" /><g><path d="M0,0 m-30,0 a30,30 0 1,0 60,0 a30,30 0 1,0 -60,0" fill="none" stroke="black" transform="translate(118.1447896202453,193.81097745167904) rotate(99.02927786495876) scale(0.9107856305786259)" /><path d="M0,0 m-30,0 a30,30 0 1,0 60,0 a30,30 0 1,0 -60,0" fill="none" stroke="black" transform="translate(118.1447896202453,193.81097745167904) rotate(99.02927786495876) scale(0.6375499414050381)" /><path d="M0,0 m-30,0 a30,30 0 1,0 60,0 a30,30 0 1,0 -60,0" fill="none" stroke="black" transform="translate(118.1447896202453,193.81097745167904) rotate(99.02927786495876) scale(0.3643142522314504)" /></g><path d="M-30,-20 h60 v40 h-60 Z" fill="none" stroke="black" transform="translate(90.75587911092225,103.11401465727701) rotate(38.29284289252668) scale(1.0458847094060544)" /><path d="M-30,-20 h60 v40 h-60 Z" fill="none" stroke="black" transform="translate(287.0051144158798,97.22655180219321) rotate(80.17242556787406) scale(0.8542572383689472)" /><g><path d="M-30,-20 h60 v40 h-60 Z" fill="none" stroke="black" transform="translate(202.01700675567594,184.06248310239903) rotate(157.2175950264051) scale(0.9839177872917232)" /><path d="M-30,-20 h60 v40 h-60 Z" fill="none" stroke="black" transform="translate(202.01700675567594,184.06248310239903) rotate(157.2175950264051) scale(0.6887424511042062)" /></g><g><path d="M-30,-20 h60 v40 h-60 Z" fill="none" stroke="black" transform="translate(315.3359703962875,84.15469430061412) rotate(92.71345285786212) scale(0.91972836455773)" /><path d="M-30,-20 h60 v40 h-60 Z" fill="none" stroke="black" transform="translate(315.3359703962875,84.15469430061412) rotate(92.71345285786212) scale(0.643809855190411)" /><path d="M-30,-20 h60 v40 h-60 Z" fill="none" stroke="black" transform="translate(315.3359703962875,84.15469430061412) rotate(92.71345285786212) scale(0.367891345823092)" /></g><g><path d="M-30,-20 h60 v40 h-60 Z" fill="none" stroke="black" transform="translate(315.87164043305154,285.1233972064794) rotate(309.64241539001245) scale(0.8132394598459793)" /><path d="M-30,-20 h60 v40 h-60 Z" fill="none" stroke="black" transform="translate(315.87164043305154,285.1233972064794) rotate(309.64241539001245) scale(0.5692676218921855)" /></g><path d="M0.0,-30.0 L8.8,-12.1 L28.5,-9.3 L14.3,4.6 L17.6,24.3 L0.0,15.0 L-17.6,24.3 L-14.3,4.6 L-28.5,-9.3 L-8.8,-12.1 Z" fill="none" stroke="black" transform="translate(120.49939769762204,249.3325102167401) rotate(85.75374870698944) scale(0.9166761867057452)" /><path d="M0.0,-30.0 L8.8,-12.1 L28.5,-9.3 L14.3,4.6 L17.6,24.3 L0.0,15.0 L-17.6,24.3 L-14.3,4.6 L-28.5,-9.3 L-8.8,-12.1 Z" fill="none" stroke="black" transform="translate(101.76562348037768,318.22574875801064) rotate(230.88898948441803) scale(0.8308322614286411)" /><path d="M0.0,-30.0 L8.8,-12.1 L28.5,-9.3 L14.3,4.6 L17.6,24.3 L0.0,15.0 L-17.6,24.3 L-14.3,4.6 L-28.5,-9.3 L-8.8,-12.1 Z" fill="none" stroke="black" transform="translate(186.8019877467398,155.46738880984213) rotate(6.826600270085752) scale(0.856337143274109)" /><path d="M0,-30 L30,30 L-30,30 Z" fill="none" stroke="black" transform="translate(67.99321199432568,278.0847468761443) rotate(20.989630099756745) scale(0.9296075296946764)" /><path d="M0,-30 L30,30 L-30,30 Z" fill="none" stroke="black" transform="translate(209.4272328607866,104.03469613613052) rotate(35.170823626799915) scale(1.007707720350972)" /><path d="M0,-30 L30,30 L-30,30 Z" fill="none" stroke="black" transform="translate(220.96286815315165,329.1554261747683) rotate(119.7132655319506) scale(0.9360405773393154)" /><path d="M0,-30 L30,30 L-30,30 Z" fill="none" stroke="black" transform="translate(124.83653826979993,332.2389355200636) rotate(143.79647876673772) scale(0.824055161176988)" /></svg>