<svg baseProfile="full" height="400" version="1.1" width="400" xmlns="http://www.w3.org/2000/svg" xmlns:ev="http://www.w3.org/2001/xml-events" xmlns:xlink="http://www.w3.org/1999/xlink"><defs /><rect fill="white" height="100%" width="100%" x="0" y="0" /><path d="M0,-30 L30,30 L-30,30 Z" fill="none" stroke="black" transform="translate(173.34934147341642,160.41459476647498) rotate(216.41948699436662) scale(1.7534792416194451)" /><g><path d="M0,-30 L30,30 L-30,30 Z" fill="none" stroke="black" transform="translate(262.4601241086928,180.49529013779025) rotate(321.22982871556076) scale(1.45343094868913)" /><path d="M0,-30 L30,30 L-30,30 Z" fill="none" stroke="black" transform="translate(262.4601241086928,180.49529013779025) rotate(321.22982871556076) scale(1.0174016640823909)" /><path d="M0,-30 L30,30 L-30,30 Z" fill="none" stroke="black" transform="translate(262.4601241086928,180.49529013779025) rotate(321.22982871556076) scale(0.581372379475652)" /></g><g><path d="M0.0,-30.0 L28.5,-9.3 L17.6,24.3 L-17.6,24.3 L-28.5,-9.3 Z" fill="none" stroke="black" transform="translate(142.43213447138504,99.12669253690379) rotate(147.19912145005617) scale(1.3201050222300936)" /><path d="M0.0,-30.0 L28.5,-9.3 L17.6,24.3 L-17.6,24.3 L-28.5,-9.3 Z" fill="none" stroke="black" transform="translate(142.43213447138504,99.12669253690379) rotate(147.19912145005617) scale(0.9240735155610654)" /><path d="M0.0,-30.0 L28.5,-9.3 L17.6,24.3 L-17.6,24.3 L-28.5,-9.3 Z" fill="none" stroke="black" transform="translate(142.43213447138504,99.12669253690379) rotate(147.19912145005617) scale(0.5280420088920375)" /></g><g><path d="M0.0,-30.0 L28.5,-9.3 L17.6,24.3 L-17.6,24.3 L-28.5,-9.3 Z" fill="none" stroke="black" transform="translate(292.2408514836237,233.69972614385665) rotate(269.78648865832685) scale(0.9897781562376323)" /><path d="M0.0,-30.0 L28.5,-9.3 L17.6,24.3 L-17.6,24.3 L-28.5,-9.3 Z" fill="none" stroke="black" transform="translate(292.2408514836237,233.69972614385665) rotate(269.78648865832685) scale(0.6928447093663426)" /><path d="M0.0,-30.0 L28.5,-9.3 L17.6,24.3 L-17.6,24.3 L-28.5,-9.3 Z" fill="none" stroke="black" transform="translate(292.2408514836237,233.69972614385665) rotate(269.78648865832685) scale(0.39591126249505293)" /></g><g><path d="M0.0,-30.0 L28.5,-9.3 L17.6,24.3 L-17.6,24.3 L-28.5,-9.3 Z" fill="none" stroke="black" transform="translate(207.19589165651604,276.49748377255514) rotate(287.30622909004376) scale(1.6922989940431301)" /><path d="M0.0,-30.0 L28.5,-9.3 L17.6,24.3 L-17.6,24.3 L-28.5,-9.3 Z" fill="none" stroke="black" transform="translate(207.19589165651604,276.49748377255514) rotate(287.30622909004376) scale(1.184609295830191)" /></g><path d="M-30,-20 h60 v40 h-60 Z" fill="none" stroke="black" transform="translate(260.26640633024954,109.57834751538067) rotate(231.18776856358622) scale(0.930388258714942)" /><g><path d="M-30,-20 h60 v40 h-60 Z" fill="none" stroke="black" transform="translate(134.597193849883,287.14021720934875) rotate(29.855770016738873) scale(1.1065531577876984)" /><path d="M-30,-20 h60 v40 h-60 Z" fill="none" stroke="black" transform="translate(134.597193849883,287.14021720934875) rotate(29.855770016738873) scale(0.7745872104513888)" /></g><path d="M-30,-20 h60 v40 h-60 Z" fill="none" stroke="black" transform="translate(311.81078941815343,260.6474076527548) rotate(30.082568723438335) scale(0.8658104358486806)" /><path d="M-30,-20 h60 v40 h-60 Z" fill="none" stroke="black" transform="translate(214.64221624337074,80.98618909204235) rotate(308.9717965454787) scale(0.8112432511560561)" /><path d="M-30,-20 h60 v40 h-60 Z" fill="none" stroke="black" transform="translate(81.64541760703503,198.56906371081703) rotate(54.77378925917657) scale(1.0686417570181008)" /><g><path d="M-30,-20 h60 v40 h-60 Z" fill="none" stroke="black" transform="translate(287.16609321260285,271.9872785647975) rotate(39.38078714406992) scale(1.0338476771723026)" /><path d="M-30,-20 h60 v40 h-60 Z" fill="none" stroke="black" transform="translate(287.16609321260285,271.9872785647975) rotate(39.38078714406992) scale(0.7236933740206118)" /></g><path d="M0.0,-30.0 L8.8,-12.1 L28.5,-9.3 L14.3,4.6 L17.6,24.3 L0.0,15.0 L-17.6,24.3 L-14.3,4.6 L-28.5,-9.3 L-8.8,-12.1 Z" fill="none" stroke="black" transform="translate(101.44460093388926,76.2078937393452) rotate(58.24316553119362) scale(0.8547302283315558)" /><g><path d="M0.0,-30.0 L8.8,-12.1 L28.5,-9.3 L14.3,4.6 L17.6,24.3 L0.0,15.0 L-17.6,24.3 L-14.3,4.6 L-28.5,-9.3 L-8.8,-12.1 Z" fill="none" stroke="black" transform="translate(307.33796253391483,87.95076442583779) rotate(250.99668616087152) scale(1.1613761463786767)" /><path d="M0.0,-30.0 L8.8,-12.1 L28.5,-9.3 L14.3,4.6 L17.6,24.3 L0.0,15.0 L-17.6,24.3 L-14.3,4.6 L-28.5,-9.3 L-8.8,-12.1 Z" fill="none" stroke="black" transform="translate(307.33796253391483,87.95076442583779) rotate(250.99668616087152) scale(0.8129633024650736)" /><path d="M0.0,-30.0 L8.8,-12.1 L28.5,-9.3 L14.3,4.6 L17.6,24.3 L0.0,15.0 L-17.6,24.3 L-14.3,4.6 L-28.5,-9.3 L-8.8,-12.1 Z" fill="none" stroke="black" transform="translate(307.33796253391483,87.95076442583779) rotate(250.99668616087152) scale(0.4645504585514707)" /></g><g><path d="M0.0,-30.0 L8.8,-12.1 L28.5,-9.3 L14.3,4.6 L17.6,24.3 L0.0,15.0 L-17.6,24.3 L-14.3,4.6 L-28.5,-9.3 L-8.8,-12.1 Z" fill="none" stroke="black" transform="translate(79.74482726795259,312.44039684187595) rotate(135.76529958988564) scale(0.915898510668151)" /><path d="M0.0,-30.0 L8.8,-12.1 L28.5,-9.3 L14.3,4.6 L17.6,24.3 L0.0,15.0 L-17.6,24.3 L-14.3,4.6 L-28.5,-9.3 L-8.8,-12.1 Z" fill="none" stroke="black" transform="translate(79.74482726795259,312.44039684187595) rotate(135.76529958988564) scale(0.6411289574677056)" /><path d="M0.0,-30.0 L8.8,-12.1 L28.5,-9.3 L14.3,4.6 L17.6,24.3 L0.0,15.0 L-17.6,24.3 L-14.3,4.6 L-28.5,-9.3 L-8.8,-12.1 Z" fill="none" stroke="black" transform="translate(79.74482726795259,312.44039684187595) rotate(135.76529958988564) scale(0.36635940426726044)" /></g><path d="M30,0 L15,-26 L-15,-26 L-30,0 L-15,26 L15,26 Z" fill="none" stroke="black" transform="translate(134.26594261351718,212.71451072454374) rotate(145.43565812715798) scale(1.2941620158955092)" /><path d="M30,0 L15,-26 L-15,-26 L-30,0 L-15,26 L15,26 Z" fill="none" stroke="black" transform="translate(216.17149932952566,220.33524441485747) rotate(77.74849451199071) scale(1.1038985990395445)" /><path d="M30,0 L15,-26 L-15,-26 L-30,0 L-15,26 L15,26 Z" fill="none" stroke="black" transform="translate(79.19630943307203,112.89336492693451) rotate(149.59518278131293) scale(0.8500815160197241)" /><path d="M30,0 L15,-26 L-15,-26 L-30,0 L-15,26 L15,26 Z" fill="none" stroke="black" transform="translate(294.9671630143293,310.00868074848296) rotate(332.3555564052035) scale(1.0582477690758243)" /><path d="M30,0 L15,-26 L-15,-26 L-30,0 L-15,26 L15,26 Z" fill="none" stroke="black" transform="translate(82.29963462239974,249.37092507589756) rotate(232.2244727602563) scale(1.1110189103996326)" /><g><path d="M30,0 L15,-26 L-15,-26 L-30,0 L-15,26 L15,26 Z" fill="none" stroke="black" transform="translate(237.93777767423973,153.75534839014517) rotate(234.61535802658187) scale(0.9266203515973173)" /><path d="M30,0 L15,-26 L-15,-26 L-30,0 L-15,26 L15,26 Z" fill="none" stroke="black" transform="translate(237.93777767423973,153.75534839014517) rotate(234.61535802658187) scale(0.648634246118122)" /></g><g><path d="M30,0 L15,-26 L-15,-26 L-30,0 L-15,26 L15,26 Z" fill="none" stroke="black" transform="translate(163.57572161148232,333.0938053527559) rotate(324.2257723900393) scale(0.9151691067134275)" /><path d="M30,0 L15,-26 L-15,-26 L-30,0 L-15,26 L15,26 Z" fill="none" stroke="black" transform="translate(163.57572161148232,333.0938053527559) rotate(324.2257723900393) scale(0.6406183746993992)" /><path d="M30,0 L15,-26 L-15,-26 L-30,0 L-15,26 L15,26 Z" fill="none" stroke="black" transform="translate(163.57572161148232,333.0938053527559) rotate(324.2257723900393) scale(0.36606764268537106)" /></g><g><path d="M0,0 m-30,0 a30,30 0 1,0 60,0 a30,30 0 1,0 -60,0" fill="none" stroke="black" transform="translate(321.80685341803934,331.16519969414895) rotate(242.46991609397597) scale(0.8315177665143485)" /><path d="M0,0 m-30,0 a30,30 0 1,0 60,0 a30,30 0 1,0 -60,0" fill="none" stroke="black" transform="translate(321.80685341803934,331.16519969414895) rotate(242.46991609397597) scale(0.5820624365600439)" /></g><g><path d="M0,0 m-30,0 a30,30 0 1,0 60,0 a30,30 0 1,0 -60,0" fill="none" stroke="black" transform="translate(236.6786365673508,127.4745038426212) rotate(77.66343424347785) scale(0.8630604741308963)" /><path d="M0,0 m-30,0 a30,30 0 1,0 60,0 a30,30 0 1,0 -60,0" fill="none" stroke="black" transform="translate(236.6786365673508,127.4745038426212) rotate(77.66343424347785) scale(0.6041423318916274)" /><path d="M0,0 m-30,0 a30,30 0 1,0 60,0 a30,30 0 1,0 -60,0" fill="none" stroke="black" transform="translate(236.6786365673508,127.4745038426212) rotate(77.66343424347785) scale(0.3452241896523585)" /></g><g><path d="M0,0 m-30,0 a30,30 0 1,0 60,0 a30,30 0 1,0 -60,0" fill="none" stroke="black" transform="translate(108.98769854449361,157.72163507169148) rotate(225.6489131454318) scale(1.0118659384529505)" /><path d="M0,0 m-30,0 a30,30 0 1,0 60,0 a30,30 0 1,0 -60,0" fill="none" stroke="black" transform="translate(108.98769854449361,157.72163507169148) rotate(225.6489131454318) scale(0.7083061569170653)" /></g><path d="M0,0 m-30,0 a30,30 0 1,0 60,0 a30,30 0 1,0 -60,0" fill="none" stroke="black" transform="translate(206.20220252097903,113.91338726166013) rotate(213.02632262639025) scale(0.8691393614880703)" /><path d="M0,0 m-30,0 a30,30 0 1,0 60,0 a30,30 0 1,0 -60,0" fill="none" stroke="black" transform="translate(318.656430892668,148.2352335394585) rotate(226.86590694568793) scale(0.8754966379866488)" /><g><path d="M27.7,-11.5 L27.7,11.5 L11.5,27.7 L-11.5,27.7 L-27.7,11.5 L-27.7,-11.5 L-11.5,-27.7 L11.5,-27.7 Z" fill="none" stroke="black" transform="translate(220.0221428038609,138.42340130658022) rotate(13.686740093556011) scale(0.8054442219315534)" /><path d="M27.7,-11.5 L27.7,11.5 L11.5,27.7 L-11.5,27.7 L-27.7,11.5 L-27.7,-11.5 L-11.5,-27.7 L11.5,-27.7 Z" fill="none" stroke="black" transform="translate(220.0221428038609,138.42340130658022) rotate(13.686740093556011) scale(0.5638109553520874)" /><path d="M27.7,-11.5 L27.7,11.5 L11.5,27.7 L-11.5,27.7 L-27.7,11.5 L-27.7,-11.5 L-11.5,-27.7 L11.5,-27.7 Z" fill="none" stroke="black" transform="translate(220.0221428038609,138.42340130658022) rotate(13.686740093556011) scale(0.3221776887726214)" /></g><g><path d="M27.7,-11.5 L27.7,11.5 L11.5,27.7 L-11.5,27.7 L-27.7,11.5 L-27.7,-11.5 L-11.5,-27.7 L11.5,-27.7 Z" fill="none" stroke="black" transform="translate(79.36477813539683,152.75447618189364) rotate(294.5175681939798) scale(0.9060711500090357)" /><path d="M27.7,-11.5 L27.7,11.5 L11.5,27.7 L-11.5,27.7 L-27.7,11.5 L-27.7,-11.5 L-11.5,-27.7 L11.5,-27.7 Z" fill="none" stroke="black" transform="translate(79.36477813539683,152.75447618189364) rotate(294.5175681939798) scale(0.634249805006325)" /></g></svg>