<svg baseProfile="full" height="400" version="1.1" width="400" xmlns="http://www.w3.org/2000/svg" xmlns:ev="http://www.w3.org/2001/xml-events" xmlns:xlink="http://www.w3.org/1999/xlink"><defs /><rect fill="white" height="100%" width="100%" x="0" y="0" /><path d="M0.0,-30.0 L28.5,-9.3 L17.6,24.3 L-17.6,24.3 L-28.5,-9.3 Z" fill="none" stroke="black" transform="translate(140.50699109409857,290.4540703511582) rotate(82.05976531463372) scale(1.5033998698875912)" /><g><path d="M0.0,-30.0 L28.5,-9.3 L17.6,24.3 L-17.6,24.3 L-28.5,-9.3 Z" fill="none" stroke="black" transform="translate(70.64850601375106,299.43199701918434) rotate(259.33217353478767) scale(0.9060030109823364)" /><path d="M0.0,-30.0 L28.5,-9.3 L17.6,24.3 L-17.6,24.3 L-28.5,-9.3 Z" fill="none" stroke="black" transform="translate(70.64850601375106,299.43199701918434) rotate(259.33217353478767) scale(0.6342021076876354)" /><path d="M0.0,-30.0 L28.5,-9.3 L17.6,24.3 L-17.6,24.3 L-28.5,-9.3 Z" fill="none" stroke="black" transform="translate(70.64850601375106,299.43199701918434) rotate(259.33217353478767) scale(0.36240120439293455)" /></g><path d="M0.0,-30.0 L28.5,-9.3 L17.6,24.3 L-17.6,24.3 L-28.5,-9.3 Z" fill="none" stroke="black" transform="translate(132.02993848926067,222.469070899643) rotate(280.8799220775235) scale(1.1606728319134443)" /><path d="M0.0,-30.0 L28.5,-9.3 L17.6,24.3 L-17.6,24.3 L-28.5,-9.3 Z" fill="none" stroke="black" transform="translate(76.96256872584178,241.59369725662458) rotate(38.88084609720869) scale(0.8883274145175648)" /><path d="M0.0,-30.0 L28.5,-9.3 L17.6,24.3 L-17.6,24.3 L-28.5,-9.3 Z" fill="none" stroke="black" transform="translate(268.29705105744813,256.06838204768883) rotate(185.45040828563137) scale(1.634356306771739)" /><path d="M0.0,-30.0 L28.5,-9.3 L17.6,24.3 L-17.6,24.3 L-28.5,-9.3 Z" fill="none" stroke="black" transform="translate(211.56705582542202,137.20425270298446) rotate(53.525031763536454) scale(1.8629204749042054)" /><path d="M27.7,-11.5 L27.7,11.5 L11.5,27.7 L-11.5,27.7 L-27.7,11.5 L-27.7,-11.5 L-11.5,-27.7 L11.5,-27.7 Z" fill="none" stroke="black" transform="translate(320.69820570464253,292.79438201404895) rotate(311.22903183935625) scale(0.8329722611078765)" /><g><path d="M27.7,-11.5 L27.7,11.5 L11.5,27.7 L-11.5,27.7 L-27.7,11.5 L-27.7,-11.5 L-11.5,-27.7 L11.5,-27.7 Z" fill="none" stroke="black" transform="translate(102.11239504870686,210.76427292635117) rotate(4.227254457869969) scale(0.9730081621220014)" /><path d="M27.7,-11.5 L27.7,11.5 L11.5,27.7 L-11.5,27.7 L-27.7,11.5 L-27.7,-11.5 L-11.5,-27.7 L11.5,-27.7 Z" fill="none" stroke="black" transform="translate(102.11239504870686,210.76427292635117) rotate(4.227254457869969) scale(0.6811057134854009)" /></g><path d="M30,0 L15,-26 L-15,-26 L-30,0 L-15,26 L15,26 Z" fill="none" stroke="black" transform="translate(316.1244943719281,186.85456855519595) rotate(7.496419363155389) scale(0.9616509509549709)" /><g><path d="M0,0 m-30,0 a30,30 0 1,0 60,0 a30,30 0 1,0 -60,0" fill="none" stroke="black" transform="translate(289.7871692128818,87.79562302233592) rotate(39.827393562924975) scale(0.8409144739669412)" /><path d="M0,0 m-30,0 a30,30 0 1,0 60,0 a30,30 0 1,0 -60,0" fill="none" stroke="black" transform="translate(289.7871692128818,87.79562302233592) rotate(39.827393562924975) scale(0.5886401317768588)" /></g><path d="M0,0 m-30,0 a30,30 0 1,0 60,0 a30,30 0 1,0 -60,0" fill="none" stroke="black" transform="translate(120.74117555652266,126.0966617021921) rotate(140.0822625661674) scale(1.4042338069629423)" /><path d="M0,0 m-30,0 a30,30 0 1,0 60,0 a30,30 0 1,0 -60,0" fill="none" stroke="black" transform="translate(191.19743700210006,220.78992459923842) rotate(263.72361955408223) scale(1.3088667168215573)" /><path d="M0.0,-30.0 L8.8,-12.1 L28.5,-9.3 L14.3,4.6 L17.6,24.3 L0.0,15.0 L-17.6,24.3 L-14.3,4.6 L-28.5,-9.3 L-8.8,-12.1 Z" fill="none" stroke="black" transform="translate(291.79020267256567,204.96134427197708) rotate(35.13062582030719) scale(0.8845201233696275)" /><path d="M0.0,-30.0 L8.8,-12.1 L28.5,-9.3 L14.3,4.6 L17.6,24.3 L0.0,15.0 L-17.6,24.3 L-14.3,4.6 L-28.5,-9.3 L-8.8,-12.1 Z" fill="none" stroke="black" transform="translate(290.9475743085323,157.6500171743686) rotate(239.04652056249196) scale(1.236628515281799)" /><g><path d="M0.0,-30.0 L8.8,-12.1 L28.5,-9.3 L14.3,4.6 L17.6,24.3 L0.0,15.0 L-17.6,24.3 L-14.3,4.6 L-28.5,-9.3 L-8.8,-12.1 Z" fill="none" stroke="black" transform="translate(292.58956450595997,124.0128384560517) rotate(331.55506339683274) scale(0.8268225605216994)" /><path d="M0.0,-30.0 L8.8,-12.1 L28.5,-9.3 L14.3,4.6 L17.6,24.3 L0.0,15.0 L-17.6,24.3 L-14.3,4.6 L-28.5,-9.3 L-8.8,-12.1 Z" fill="none" stroke="black" transform="translate(292.58956450595997,124.0128384560517) rotate(331.55506339683274) scale(0.5787757923651896)" /></g><path d="M0.0,-30.0 L8.8,-12.1 L28.5,-9.3 L14.3,4.6 L17.6,24.3 L0.0,15.0 L-17.6,24.3 L-14.3,4.6 L-28.5,-9.3 L-8.8,-12.1 Z" fill="none" stroke="black" transform="translate(137.99216703380742,331.56838189398127) rotate(358.35353208225456) scale(0.8429328777414006)" /><path d="M-30,-20 h60 v40 h-60 Z" fill="none" stroke="black" transform="translate(182.2987492725452,80.08989632935808) rotate(94.79398666463794) scale(0.8491583907554292)" /><path d="M-30,-20 h60 v40 h-60 Z" fill="none" stroke="black" transform="translate(116.33871442116981,172.99081539113405) rotate(51.94752146042535) scale(0.8441115795168621)" /><g><path d="M-30,-20 h60 v40 h-60 Z" fill="none" stroke="black" transform="translate(211.2845019166275,306.4163979352554) rotate(130.67458832894852) scale(0.8280045663562106)" /><path d="M-30,-20 h60 v40 h-60 Z" fill="none" stroke="black" transform="translate(211.2845019166275,306.4163979352554) rotate(130.67458832894852) scale(0.5796031964493473)" /><path d="M-30,-20 h60 v40 h-60 Z" fill="none" stroke="black" transform="translate(211.2845019166275,306.4163979352554) rotate(130.67458832894852) scale(0.33120182654248426)" /></g><path d="M0,-30 L30,30 L-30,30 Z" fill="none" stroke="black" transform="translate(270.97513365010667,98.63317291576158) rotate(218.8789784044768) scale(1.0373869273311227)" /><path d="M0,-30 L30,30 L-30,30 Z" fill="none" stroke="black" transform="translate(83.5726805065737,81.20612051076529) rotate(148.80759895316666) scale(0.8965636497642931)" /><path d="M0,-30 L30,30 L-30,30 Z" fill="none" stroke="black" transform="translate(190.54129711869797,288.2870967733786) rotate(87.27195109387289) scale(0.9812745357151353)" /><path d="M0,-30 L30,30 L-30,30 Z" fill="none" stroke="black" transform="translate(84.86818592710357,330.5300956218417) rotate(18.357253979806263) scale(0.8284111142936834)" /><g><path d="M0,-30 L30,30 L-30,30 Z" fill="none" stroke="black" transform="translate(299.24825628853716,315.65051717713106) rotate(328.7016895981857) scale(0.9641482890962902)" /><path d="M0,-30 L30,30 L-30,30 Z" fill="none" stroke="black" transform="translate(299.24825628853716,315.65051717713106) rotate(328.7016895981857) scale(0.6749038023674031)" /><path d="M0,-30 L30,30 L-30,30 Z" fill="none" stroke="black" transform="translate(299.24825628853716,315.65051717713106) rotate(328.7016895981857) scale(0.38565931563851613)" /></g><path d="M0,-30 L30,30 L-30,30 Z" fill="none" stroke="black" transform="translate(230.0880672908175,223.32472498664612) rotate(354.94861423335306) scale(0.8889637649440258)" /></svg>