<svg baseProfile="full" height="400" version="1.1" width="400" xmlns="http://www.w3.org/2000/svg" xmlns:ev="http://www.w3.org/2001/xml-events" xmlns:xlink="http://www.w3.org/1999/xlink"><defs /><rect fill="white" height="100%" width="100%" x="0" y="0" /><g><path d="M0,-30 L30,30 L-30,30 Z" fill="none" stroke="black" transform="translate(235.00883463009598,167.98780040628645) rotate(183.23504775990187) scale(0.8971581222505686)" /><path d="M0,-30 L30,30 L-30,30 Z" fill="none" stroke="black" transform="translate(235.00883463009598,167.98780040628645) rotate(183.23504775990187) scale(0.628010685575398)" /><path d="M0,-30 L30,30 L-30,30 Z" fill="none" stroke="black" transform="translate(235.00883463009598,167.98780040628645) rotate(183.23504775990187) scale(0.35886324890022747)" /></g><path d="M0,-30 L30,30 L-30,30 Z" fill="none" stroke="black" transform="translate(160.27629550679728,220.57754965193783) rotate(220.5262700715441) scale(1.907871805304339)" /><path d="M0,-30 L30,30 L-30,30 Z" fill="none" stroke="black" transform="translate(172.27799388618246,148.45880376662328) rotate(238.086226081083) scale(1.0197621032655397)" /><g><path d="M0.0,-30.0 L8.8,-12.1 L28.5,-9.3 L14.3,4.6 L17.6,24.3 L0.0,15.0 L-17.6,24.3 L-14.3,4.6 L-28.5,-9.3 L-8.8,-12.1 Z" fill="none" stroke="black" transform="translate(305.9447997094057,192.31814960435779) rotate(122.54266988290279) scale(1.3006244740713497)" /><path d="M0.0,-30.0 L8.8,-12.1 L28.5,-9.3 L14.3,4.6 L17.6,24.3 L0.0,15.0 L-17.6,24.3 L-14.3,4.6 L-28.5,-9.3 L-8.8,-12.1 Z" fill="none" stroke="black" transform="translate(305.9447997094057,192.31814960435779) rotate(122.54266988290279) scale(0.9104371318499448)" /><path d="M0.0,-30.0 L8.8,-12.1 L28.5,-9.3 L14.3,4.6 L17.6,24.3 L0.0,15.0 L-17.6,24.3 L-14.3,4.6 L-28.5,-9.3 L-8.8,-12.1 Z" fill="none" stroke="black" transform="translate(305.9447997094057,192.31814960435779) rotate(122.54266988290279) scale(0.52024978962854)" /></g><path d="M0.0,-30.0 L28.5,-9.3 L17.6,24.3 L-17.6,24.3 L-28.5,-9.3 Z" fill="none" stroke="black" transform="translate(304.15985074175643,114.38717259156833) rotate(126.4771902761348) scale(1.0789694229004843)" /><path d="M0.0,-30.0 L28.5,-9.3 L17.6,24.3 L-17.6,24.3 L-28.5,-9.3 Z" fill="none" stroke="black" transform="translate(97.07328345229723,204.44442004066914) rotate(323.389475076632) scale(0.8111935562264543)" /></svg>