<svg baseProfile="full" height="400" version="1.1" width="400" xmlns="http://www.w3.org/2000/svg" xmlns:ev="http://www.w3.org/2001/xml-events" xmlns:xlink="http://www.w3.org/1999/xlink"><defs /><rect fill="white" height="100%" width="100%" x="0" y="0" /><path d="M0,-30 L30,30 L-30,30 Z" fill="none" stroke="black" transform="translate(228.30783251671028,263.59645612371514) rotate(116.6271683217239) scale(1.4090636728867092)" /><path d="M0,-30 L30,30 L-30,30 Z" fill="none" stroke="black" transform="translate(79.67136088936088,156.01005662563867) rotate(174.73516660330208) scale(1.063830675904045)" /><g><path d="M0,-30 L30,30 L-30,30 Z" fill="none" stroke="black" transform="translate(306.7006506968107,155.31748211344635) rotate(0.37680383115969995) scale(0.8266135664485718)" /><path d="M0,-30 L30,30 L-30,30 Z" fill="none" stroke="black" transform="translate(306.7006506968107,155.31748211344635) rotate(0.37680383115969995) scale(0.5786294965140002)" /></g><path d="M0,-30 L30,30 L-30,30 Z" fill="none" stroke="black" transform="translate(225.06970064494894,139.78595528720564) rotate(262.30805527021795) scale(1.4263488647339053)" /><g><path d="M0,0 m-30,0 a30,30 0 1,0 60,0 a30,30 0 1,0 -60,0" fill="none" stroke="black" transform="translate(145.475854629506,250.76944652079226) rotate(269.8104350031128) scale(1.4362710641323029)" /><path d="M0,0 m-30,0 a30,30 0 1,0 60,0 a30,30 0 1,0 -60,0" fill="none" stroke="black" transform="translate(145.475854629506,250.76944652079226) rotate(269.8104350031128) scale(1.005389744892612)" /></g><g><path d="M0,0 m-30,0 a30,30 0 1,0 60,0 a30,30 0 1,0 -60,0" fill="none" stroke="black" transform="translate(145.62813475844803,103.20209437290087) rotate(143.98910964616468) scale(0.8242776204446038)" /><path d="M0,0 m-30,0 a30,30 0 1,0 60,0 a30,30 0 1,0 -60,0" fill="none" stroke="black" transform="translate(145.62813475844803,103.20209437290087) rotate(143.98910964616468) scale(0.5769943343112226)" /></g><path d="M0,0 m-30,0 a30,30 0 1,0 60,0 a30,30 0 1,0 -60,0" fill="none" stroke="black" transform="translate(296.7663208562559,318.78302477265134) rotate(303.0907405394157) scale(1.1228716367620444)" /><path d="M-30,-20 h60 v40 h-60 Z" fill="none" stroke="black" transform="translate(159.64555883661893,151.71796105158384) rotate(243.83523567019944) scale(0.9512722988654545)" /><path d="M-30,-20 h60 v40 h-60 Z" fill="none" stroke="black" transform="translate(176.7448840298597,309.24734017043653) rotate(277.0399359192408) scale(0.8910891618523191)" /><path d="M-30,-20 h60 v40 h-60 Z" fill="none" stroke="black" transform="translate(294.25695836411643,93.12652722698562) rotate(241.85432466743308) scale(0.8048516789589691)" /><path d="M-30,-20 h60 v40 h-60 Z" fill="none" stroke="black" transform="translate(65.68686798415605,74.86577564569527) rotate(2.6601553834977887) scale(0.8528375358541658)" /></svg>