<svg baseProfile="full" height="400" version="1.1" width="400" xmlns="http://www.w3.org/2000/svg" xmlns:ev="http://www.w3.org/2001/xml-events" xmlns:xlink="http://www.w3.org/1999/xlink"><defs /><rect fill="white" height="100%" width="100%" x="0" y="0" /><path d="M27.7,-11.5 L27.7,11.5 L11.5,27.7 L-11.5,27.7 L-27.7,11.5 L-27.7,-11.5 L-11.5,-27.7 L11.5,-27.7 Z" fill="none" stroke="black" transform="translate(144.9171981295274,155.89265464090434) rotate(267.31599263615817) scale(1.8961854388859618)" /><g><path d="M27.7,-11.5 L27.7,11.5 L11.5,27.7 L-11.5,27.7 L-27.7,11.5 L-27.7,-11.5 L-11.5,-27.7 L11.5,-27.7 Z" fill="none" stroke="black" transform="translate(197.6259247452515,242.91456826481433) rotate(168.26137837920425) scale(1.8831288728376492)" /><path d="M27.7,-11.5 L27.7,11.5 L11.5,27.7 L-11.5,27.7 L-27.7,11.5 L-27.7,-11.5 L-11.5,-27.7 L11.5,-27.7 Z" fill="none" stroke="black" transform="translate(197.6259247452515,242.91456826481433) rotate(168.26137837920425) scale(1.3181902109863544)" /></g><path d="M27.7,-11.5 L27.7,11.5 L11.5,27.7 L-11.5,27.7 L-27.7,11.5 L-27.7,-11.5 L-11.5,-27.7 L11.5,-27.7 Z" fill="none" stroke="black" transform="translate(213.56330023299745,158.74889861922776) rotate(0.6312651852146045) scale(1.1851365109680416)" /><g><path d="M27.7,-11.5 L27.7,11.5 L11.5,27.7 L-11.5,27.7 L-27.7,11.5 L-27.7,-11.5 L-11.5,-27.7 L11.5,-27.7 Z" fill="none" stroke="black" transform="translate(226.50884810382877,102.15722395455232) rotate(22.625172110985005) scale(1.1133206887838725)" /><path d="M27.7,-11.5 L27.7,11.5 L11.5,27.7 L-11.5,27.7 L-27.7,11.5 L-27.7,-11.5 L-11.5,-27.7 L11.5,-27.7 Z" fill="none" stroke="black" transform="translate(226.50884810382877,102.15722395455232) rotate(22.625172110985005) scale(0.7793244821487106)" /><path d="M27.7,-11.5 L27.7,11.5 L11.5,27.7 L-11.5,27.7 L-27.7,11.5 L-27.7,-11.5 L-11.5,-27.7 L11.5,-27.7 Z" fill="none" stroke="black" transform="translate(226.50884810382877,102.15722395455232) rotate(22.625172110985005) scale(0.44532827551354903)" /></g><path d="M27.7,-11.5 L27.7,11.5 L11.5,27.7 L-11.5,27.7 L-27.7,11.5 L-27.7,-11.5 L-11.5,-27.7 L11.5,-27.7 Z" fill="none" stroke="black" transform="translate(69.6032788689597,245.89099182629027) rotate(17.13048015597833) scale(0.8576677113763884)" /><path d="M27.7,-11.5 L27.7,11.5 L11.5,27.7 L-11.5,27.7 L-27.7,11.5 L-27.7,-11.5 L-11.5,-27.7 L11.5,-27.7 Z" fill="none" stroke="black" transform="translate(295.96970931370686,141.20516184813187) rotate(151.64671742030302) scale(0.9690938901516291)" /><path d="M27.7,-11.5 L27.7,11.5 L11.5,27.7 L-11.5,27.7 L-27.7,11.5 L-27.7,-11.5 L-11.5,-27.7 L11.5,-27.7 Z" fill="none" stroke="black" transform="translate(275.49696925270536,267.20081344997703) rotate(19.26243801847958) scale(0.8972020956207383)" /><path d="M27.7,-11.5 L27.7,11.5 L11.5,27.7 L-11.5,27.7 L-27.7,11.5 L-27.7,-11.5 L-11.5,-27.7 L11.5,-27.7 Z" fill="none" stroke="black" transform="translate(201.3853696336727,335.059704652285) rotate(260.75263279733804) scale(0.8393390698293)" /><path d="M27.7,-11.5 L27.7,11.5 L11.5,27.7 L-11.5,27.7 L-27.7,11.5 L-27.7,-11.5 L-11.5,-27.7 L11.5,-27.7 Z" fill="none" stroke="black" transform="translate(122.48751034171633,287.4760275384108) rotate(104.24952355400933) scale(0.8730150381111368)" /><path d="M27.7,-11.5 L27.7,11.5 L11.5,27.7 L-11.5,27.7 L-27.7,11.5 L-27.7,-11.5 L-11.5,-27.7 L11.5,-27.7 Z" fill="none" stroke="black" transform="translate(157.7875869715369,78.25855654475184) rotate(129.4994503784364) scale(0.8792432060181857)" /><path d="M-30,-20 h60 v40 h-60 Z" fill="none" stroke="black" transform="translate(293.3430822440955,203.65095477009396) rotate(107.97932708032006) scale(0.8108678499739869)" /><g><path d="M-30,-20 h60 v40 h-60 Z" fill="none" stroke="black" transform="translate(310.8726365284598,247.95926592973683) rotate(25.501652306619995) scale(0.996282624249293)" /><path d="M-30,-20 h60 v40 h-60 Z" fill="none" stroke="black" transform="translate(310.8726365284598,247.95926592973683) rotate(25.501652306619995) scale(0.6973978369745051)" /><path d="M-30,-20 h60 v40 h-60 Z" fill="none" stroke="black" transform="translate(310.8726365284598,247.95926592973683) rotate(25.501652306619995) scale(0.39851304969971724)" /></g><g><path d="M-30,-20 h60 v40 h-60 Z" fill="none" stroke="black" transform="translate(245.90114975288768,314.52676800241466) rotate(285.0449174671879) scale(1.145159504241951)" /><path d="M-30,-20 h60 v40 h-60 Z" fill="none" stroke="black" transform="translate(245.90114975288768,314.52676800241466) rotate(285.0449174671879) scale(0.8016116529693655)" /></g><path d="M-30,-20 h60 v40 h-60 Z" fill="none" stroke="black" transform="translate(90.58856160502613,309.7083340090759) rotate(142.38220949849023) scale(1.0240783272273608)" /><path d="M0,0 m-30,0 a30,30 0 1,0 60,0 a30,30 0 1,0 -60,0" fill="none" stroke="black" transform="translate(274.0757872083958,229.27329557303764) rotate(21.740635123465037) scale(0.8751740064265915)" /><path d="M0,0 m-30,0 a30,30 0 1,0 60,0 a30,30 0 1,0 -60,0" fill="none" stroke="black" transform="translate(159.19051093595036,323.8497795388103) rotate(23.856412099062567) scale(0.9798827164414494)" /><path d="M0,0 m-30,0 a30,30 0 1,0 60,0 a30,30 0 1,0 -60,0" fill="none" stroke="black" transform="translate(307.64787311291593,308.69892374144683) rotate(190.85969993096842) scale(1.1135049895527196)" /><path d="M0,0 m-30,0 a30,30 0 1,0 60,0 a30,30 0 1,0 -60,0" fill="none" stroke="black" transform="translate(247.86040529841682,67.78198178447363) rotate(301.50618374333294) scale(0.9389792213444015)" /><g><path d="M0,0 m-30,0 a30,30 0 1,0 60,0 a30,30 0 1,0 -60,0" fill="none" stroke="black" transform="translate(70.51004400339494,71.06027529498026) rotate(291.67747233423347) scale(0.9321400042870691)" /><path d="M0,0 m-30,0 a30,30 0 1,0 60,0 a30,30 0 1,0 -60,0" fill="none" stroke="black" transform="translate(70.51004400339494,71.06027529498026) rotate(291.67747233423347) scale(0.6524980030009483)" /></g><path d="M0,0 m-30,0 a30,30 0 1,0 60,0 a30,30 0 1,0 -60,0" fill="none" stroke="black" transform="translate(124.17579091856176,241.5683757703207) rotate(354.9520052417509) scale(1.07828493643273)" /><g><path d="M0,0 m-30,0 a30,30 0 1,0 60,0 a30,30 0 1,0 -60,0" fill="none" stroke="black" transform="translate(311.0621227904539,102.85327612872044) rotate(247.54428057897283) scale(0.8221109804552342)" /><path d="M0,0 m-30,0 a30,30 0 1,0 60,0 a30,30 0 1,0 -60,0" fill="none" stroke="black" transform="translate(311.0621227904539,102.85327612872044) rotate(247.54428057897283) scale(0.5754776863186639)" /></g><g><path d="M0.0,-30.0 L28.5,-9.3 L17.6,24.3 L-17.6,24.3 L-28.5,-9.3 Z" fill="none" stroke="black" transform="translate(67.33249248650687,130.01519736826015) rotate(348.640560942195) scale(0.8488892675088483)" /><path d="M0.0,-30.0 L28.5,-9.3 L17.6,24.3 L-17.6,24.3 L-28.5,-9.3 Z" fill="none" stroke="black" transform="translate(67.33249248650687,130.01519736826015) rotate(348.640560942195) scale(0.5942224872561938)" /></g><path d="M0.0,-30.0 L28.5,-9.3 L17.6,24.3 L-17.6,24.3 L-28.5,-9.3 Z" fill="none" stroke="black" transform="translate(76.95542442596187,194.33258919950305) rotate(30.585067713337267) scale(0.8899921769743463)" /><g><path d="M0.0,-30.0 L28.5,-9.3 L17.6,24.3 L-17.6,24.3 L-28.5,-9.3 Z" fill="none" stroke="black" transform="translate(327.7021506727999,165.69577503641514) rotate(291.3207887461934) scale(0.8992180586667812)" /><path d="M0.0,-30.0 L28.5,-9.3 L17.6,24.3 L-17.6,24.3 L-28.5,-9.3 Z" fill="none" stroke="black" transform="translate(327.7021506727999,165.69577503641514) rotate(291.3207887461934) scale(0.6294526410667468)" /></g><g><path d="M0.0,-30.0 L28.5,-9.3 L17.6,24.3 L-17.6,24.3 L-28.5,-9.3 Z" fill="none" stroke="black" transform="translate(249.50505321103736,141.8115455640454) rotate(357.71567158347506) scale(0.817682717607445)" /><path d="M0.0,-30.0 L28.5,-9.3 L17.6,24.3 L-17.6,24.3 L-28.5,-9.3 Z" fill="none" stroke="black" transform="translate(249.50505321103736,141.8115455640454) rotate(357.71567158347506) scale(0.5723779023252115)" /></g><path d="M0.0,-30.0 L28.5,-9.3 L17.6,24.3 L-17.6,24.3 L-28.5,-9.3 Z" fill="none" stroke="black" transform="translate(335.99110901066393,195.18871393088398) rotate(283.7957765665712) scale(0.8155729644419328)" /><path d="M0.0,-30.0 L28.5,-9.3 L17.6,24.3 L-17.6,24.3 L-28.5,-9.3 Z" fill="none" stroke="black" transform="translate(197.2484800682373,308.3227041430047) rotate(250.64698609723618) scale(0.9079585220157353)" /><path d="M30,0 L15,-26 L-15,-26 L-30,0 L-15,26 L15,26 Z" fill="none" stroke="black" transform="translate(283.2005710985006,82.8096936824117) rotate(213.10992280605305) scale(0.8044161584510395)" /><path d="M0.0,-30.0 L8.8,-12.1 L28.5,-9.3 L14.3,4.6 L17.6,24.3 L0.0,15.0 L-17.6,24.3 L-14.3,4.6 L-28.5,-9.3 L-8.8,-12.1 Z" fill="none" stroke="black" transform="translate(340.0555369818318,271.78695243265264) rotate(5.331904082156451) scale(0.8247969147332888)" /><path d="M0.0,-30.0 L8.8,-12.1 L28.5,-9.3 L14.3,4.6 L17.6,24.3 L0.0,15.0 L-17.6,24.3 L-14.3,4.6 L-28.5,-9.3 L-8.8,-12.1 Z" fill="none" stroke="black" transform="translate(103.92276147773008,72.25878769699584) rotate(300.25809588452444) scale(0.8213950612696992)" /><path d="M0.0,-30.0 L8.8,-12.1 L28.5,-9.3 L14.3,4.6 L17.6,24.3 L0.0,15.0 L-17.6,24.3 L-14.3,4.6 L-28.5,-9.3 L-8.8,-12.1 Z" fill="none" stroke="black" transform="translate(261.38683379889017,190.33007607515606) rotate(9.236395536913978) scale(0.9975437827201851)" /></svg>