<svg baseProfile="full" height="400" version="1.1" width="400" xmlns="http://www.w3.org/2000/svg" xmlns:ev="http://www.w3.org/2001/xml-events" xmlns:xlink="http://www.w3.org/1999/xlink"><defs /><rect fill="white" height="100%" width="100%" x="0" y="0" /><g><path d="M0.0,-30.0 L28.5,-9.3 L17.6,24.3 L-17.6,24.3 L-28.5,-9.3 Z" fill="none" stroke="black" transform="translate(199.36767017467773,253.40477279020362) rotate(36.94400088605073) scale(1.8334907191655248)" /><path d="M0.0,-30.0 L28.5,-9.3 L17.6,24.3 L-17.6,24.3 L-28.5,-9.3 Z" fill="none" stroke="black" transform="translate(199.36767017467773,253.40477279020362) rotate(36.94400088605073) scale(1.2834435034158673)" /></g><path d="M0.0,-30.0 L28.5,-9.3 L17.6,24.3 L-17.6,24.3 L-28.5,-9.3 Z" fill="none" stroke="black" transform="translate(256.49891375148894,190.91830251404284) rotate(25.01766423843548) scale(1.3561150703908131)" /><path d="M0.0,-30.0 L28.5,-9.3 L17.6,24.3 L-17.6,24.3 L-28.5,-9.3 Z" fill="none" stroke="black" transform="translate(300.09213819725727,142.08155858176215) rotate(180.57315373141898) scale(1.2243466486626504)" /><g><path d="M0.0,-30.0 L28.5,-9.3 L17.6,24.3 L-17.6,24.3 L-28.5,-9.3 Z" fill="none" stroke="black" transform="translate(178.74067570034026,142.12330107487287) rotate(117.735472697667) scale(1.3768464907618374)" /><path d="M0.0,-30.0 L28.5,-9.3 L17.6,24.3 L-17.6,24.3 L-28.5,-9.3 Z" fill="none" stroke="black" transform="translate(178.74067570034026,142.12330107487287) rotate(117.735472697667) scale(0.9637925435332861)" /></g><path d="M0.0,-30.0 L28.5,-9.3 L17.6,24.3 L-17.6,24.3 L-28.5,-9.3 Z" fill="none" stroke="black" transform="translate(86.82148928275706,154.35863281885707) rotate(225.50897885425633) scale(0.8888175266717795)" /><path d="M0.0,-30.0 L28.5,-9.3 L17.6,24.3 L-17.6,24.3 L-28.5,-9.3 Z" fill="none" stroke="black" transform="translate(158.43665019566834,181.16810435407322) rotate(300.0674783894686) scale(1.1161432791478965)" /><path d="M0,0 m-30,0 a30,30 0 1,0 60,0 a30,30 0 1,0 -60,0" fill="none" stroke="black" transform="translate(148.09423427129036,69.46005649455799) rotate(79.55907907022971) scale(0.900450436624865)" /><path d="M0,0 m-30,0 a30,30 0 1,0 60,0 a30,30 0 1,0 -60,0" fill="none" stroke="black" transform="translate(254.98882898619385,127.33815747234081) rotate(190.6441892888399) scale(1.3233094006659312)" /><path d="M0,0 m-30,0 a30,30 0 1,0 60,0 a30,30 0 1,0 -60,0" fill="none" stroke="black" transform="translate(93.45769721798575,249.96870867151276) rotate(141.00580944999328) scale(1.2592905367866998)" /><path d="M0,0 m-30,0 a30,30 0 1,0 60,0 a30,30 0 1,0 -60,0" fill="none" stroke="black" transform="translate(208.1759777348349,179.23846292023518) rotate(160.82026120532382) scale(0.8176524586743423)" /><path d="M0,0 m-30,0 a30,30 0 1,0 60,0 a30,30 0 1,0 -60,0" fill="none" stroke="black" transform="translate(283.91572325409254,264.34182772263574) rotate(194.32495100613943) scale(1.0251416715539567)" /><path d="M0,0 m-30,0 a30,30 0 1,0 60,0 a30,30 0 1,0 -60,0" fill="none" stroke="black" transform="translate(196.9681933602075,85.22025507171166) rotate(52.7809088675645) scale(1.1141978629775877)" /><path d="M30,0 L15,-26 L-15,-26 L-30,0 L-15,26 L15,26 Z" fill="none" stroke="black" transform="translate(141.3277055284525,325.94248926520584) rotate(272.654482109219) scale(1.0097416803124597)" /><g><path d="M30,0 L15,-26 L-15,-26 L-30,0 L-15,26 L15,26 Z" fill="none" stroke="black" transform="translate(135.3228225067748,110.25999384474419) rotate(154.577438937655) scale(1.065740431260478)" /><path d="M30,0 L15,-26 L-15,-26 L-30,0 L-15,26 L15,26 Z" fill="none" stroke="black" transform="translate(135.3228225067748,110.25999384474419) rotate(154.577438937655) scale(0.7460183018823345)" /><path d="M30,0 L15,-26 L-15,-26 L-30,0 L-15,26 L15,26 Z" fill="none" stroke="black" transform="translate(135.3228225067748,110.25999384474419) rotate(154.577438937655) scale(0.42629617250419116)" /></g></svg>