<svg baseProfile="full" height="400" version="1.1" width="400" xmlns="http://www.w3.org/2000/svg" xmlns:ev="http://www.w3.org/2001/xml-events" xmlns:xlink="http://www.w3.org/1999/xlink"><defs /><rect fill="white" height="100%" width="100%" x="0" y="0" /><g><path d="M30,0 L15,-26 L-15,-26 L-30,0 L-15,26 L15,26 Z" fill="none" stroke="black" transform="translate(146.92403714325206,217.2504027564295) rotate(7.901968108929465) scale(1.9880948269014653)" /><path d="M30,0 L15,-26 L-15,-26 L-30,0 L-15,26 L15,26 Z" fill="none" stroke="black" transform="translate(146.92403714325206,217.2504027564295) rotate(7.901968108929465) scale(1.3916663788310257)" /></g><g><path d="M30,0 L15,-26 L-15,-26 L-30,0 L-15,26 L15,26 Z" fill="none" stroke="black" transform="translate(261.79219377718675,173.00386193739232) rotate(151.02920835351725) scale(1.4801358736196693)" /><path d="M30,0 L15,-26 L-15,-26 L-30,0 L-15,26 L15,26 Z" fill="none" stroke="black" transform="translate(261.79219377718675,173.00386193739232) rotate(151.02920835351725) scale(1.0360951115337684)" /><path d="M30,0 L15,-26 L-15,-26 L-30,0 L-15,26 L15,26 Z" fill="none" stroke="black" transform="translate(261.79219377718675,173.00386193739232) rotate(151.02920835351725) scale(0.5920543494478677)" /></g><path d="M30,0 L15,-26 L-15,-26 L-30,0 L-15,26 L15,26 Z" fill="none" stroke="black" transform="translate(264.6384676746046,334.2561430658369) rotate(265.9602009309734) scale(0.8707891887073339)" /><path d="M30,0 L15,-26 L-15,-26 L-30,0 L-15,26 L15,26 Z" fill="none" stroke="black" transform="translate(190.31459786993383,105.49387711651413) rotate(283.36718970158535) scale(0.8049021641327401)" /><g><path d="M30,0 L15,-26 L-15,-26 L-30,0 L-15,26 L15,26 Z" fill="none" stroke="black" transform="translate(227.98384892805612,85.43222755596622) rotate(249.45114440871575) scale(0.8590072569294662)" /><path d="M30,0 L15,-26 L-15,-26 L-30,0 L-15,26 L15,26 Z" fill="none" stroke="black" transform="translate(227.98384892805612,85.43222755596622) rotate(249.45114440871575) scale(0.6013050798506263)" /><path d="M30,0 L15,-26 L-15,-26 L-30,0 L-15,26 L15,26 Z" fill="none" stroke="black" transform="translate(227.98384892805612,85.43222755596622) rotate(249.45114440871575) scale(0.3436029027717865)" /></g><g><path d="M30,0 L15,-26 L-15,-26 L-30,0 L-15,26 L15,26 Z" fill="none" stroke="black" transform="translate(327.7965138940765,312.980224662872) rotate(60.081397501938845) scale(0.8018794912201597)" /><path d="M30,0 L15,-26 L-15,-26 L-30,0 L-15,26 L15,26 Z" fill="none" stroke="black" transform="translate(327.7965138940765,312.980224662872) rotate(60.081397501938845) scale(0.5613156438541117)" /></g><path d="M0.0,-30.0 L8.8,-12.1 L28.5,-9.3 L14.3,4.6 L17.6,24.3 L0.0,15.0 L-17.6,24.3 L-14.3,4.6 L-28.5,-9.3 L-8.8,-12.1 Z" fill="none" stroke="black" transform="translate(271.86542171128406,251.47797182263548) rotate(256.1557851390732) scale(1.0103779082946067)" /><g><path d="M0.0,-30.0 L8.8,-12.1 L28.5,-9.3 L14.3,4.6 L17.6,24.3 L0.0,15.0 L-17.6,24.3 L-14.3,4.6 L-28.5,-9.3 L-8.8,-12.1 Z" fill="none" stroke="black" transform="translate(72.83282550633419,310.40493900432136) rotate(111.17105181114982) scale(0.9915851630802754)" /><path d="M0.0,-30.0 L8.8,-12.1 L28.5,-9.3 L14.3,4.6 L17.6,24.3 L0.0,15.0 L-17.6,24.3 L-14.3,4.6 L-28.5,-9.3 L-8.8,-12.1 Z" fill="none" stroke="black" transform="translate(72.83282550633419,310.40493900432136) rotate(111.17105181114982) scale(0.6941096141561928)" /><path d="M0.0,-30.0 L8.8,-12.1 L28.5,-9.3 L14.3,4.6 L17.6,24.3 L0.0,15.0 L-17.6,24.3 L-14.3,4.6 L-28.5,-9.3 L-8.8,-12.1 Z" fill="none" stroke="black" transform="translate(72.83282550633419,310.40493900432136) rotate(111.17105181114982) scale(0.3966340652321102)" /></g><g><path d="M0.0,-30.0 L8.8,-12.1 L28.5,-9.3 L14.3,4.6 L17.6,24.3 L0.0,15.0 L-17.6,24.3 L-14.3,4.6 L-28.5,-9.3 L-8.8,-12.1 Z" fill="none" stroke="black" transform="translate(178.88751336623886,306.841838660435) rotate(234.42896449725137) scale(1.007912221301963)" /><path d="M0.0,-30.0 L8.8,-12.1 L28.5,-9.3 L14.3,4.6 L17.6,24.3 L0.0,15.0 L-17.6,24.3 L-14.3,4.6 L-28.5,-9.3 L-8.8,-12.1 Z" fill="none" stroke="black" transform="translate(178.88751336623886,306.841838660435) rotate(234.42896449725137) scale(0.705538554911374)" /><path d="M0.0,-30.0 L8.8,-12.1 L28.5,-9.3 L14.3,4.6 L17.6,24.3 L0.0,15.0 L-17.6,24.3 L-14.3,4.6 L-28.5,-9.3 L-8.8,-12.1 Z" fill="none" stroke="black" transform="translate(178.88751336623886,306.841838660435) rotate(234.42896449725137) scale(0.4031648885207852)" /></g><path d="M-30,-20 h60 v40 h-60 Z" fill="none" stroke="black" transform="translate(300.01422781562434,97.87037626676657) rotate(315.730163459906) scale(1.3555531876639195)" /><g><path d="M-30,-20 h60 v40 h-60 Z" fill="none" stroke="black" transform="translate(127.96238849197422,307.20868481540657) rotate(264.50654056710397) scale(0.8500913521761176)" /><path d="M-30,-20 h60 v40 h-60 Z" fill="none" stroke="black" transform="translate(127.96238849197422,307.20868481540657) rotate(264.50654056710397) scale(0.5950639465232823)" /></g><g><path d="M-30,-20 h60 v40 h-60 Z" fill="none" stroke="black" transform="translate(334.64078425084665,167.13718212632998) rotate(270.97846057867696) scale(0.8032317871809478)" /><path d="M-30,-20 h60 v40 h-60 Z" fill="none" stroke="black" transform="translate(334.64078425084665,167.13718212632998) rotate(270.97846057867696) scale(0.5622622510266634)" /><path d="M-30,-20 h60 v40 h-60 Z" fill="none" stroke="black" transform="translate(334.64078425084665,167.13718212632998) rotate(270.97846057867696) scale(0.32129271487237915)" /></g><path d="M-30,-20 h60 v40 h-60 Z" fill="none" stroke="black" transform="translate(224.7204777664146,272.21299587308766) rotate(338.85545445770936) scale(1.012628207811761)" /><path d="M0,-30 L30,30 L-30,30 Z" fill="none" stroke="black" transform="translate(138.80409036246365,106.12897876609492) rotate(263.2456050997275) scale(0.8330086034608148)" /><g><path d="M0,-30 L30,30 L-30,30 Z" fill="none" stroke="black" transform="translate(73.74534590694353,63.1475858280306) rotate(132.04521162052146) scale(0.8396645307155552)" /><path d="M0,-30 L30,30 L-30,30 Z" fill="none" stroke="black" transform="translate(73.74534590694353,63.1475858280306) rotate(132.04521162052146) scale(0.5877651715008886)" /><path d="M0,-30 L30,30 L-30,30 Z" fill="none" stroke="black" transform="translate(73.74534590694353,63.1475858280306) rotate(132.04521162052146) scale(0.33586581228622214)" /></g><path d="M0,-30 L30,30 L-30,30 Z" fill="none" stroke="black" transform="translate(307.3041925251867,211.25360631467032) rotate(325.5395319309734) scale(0.9439997857073127)" /><path d="M0,-30 L30,30 L-30,30 Z" fill="none" stroke="black" transform="translate(60.27096291723957,214.73353558994) rotate(225.60845150270652) scale(0.8328965567755543)" /><g><path d="M0.0,-30.0 L28.5,-9.3 L17.6,24.3 L-17.6,24.3 L-28.5,-9.3 Z" fill="none" stroke="black" transform="translate(66.50631597705998,137.1561419376838) rotate(137.08257311375314) scale(0.8057197372814425)" /><path d="M0.0,-30.0 L28.5,-9.3 L17.6,24.3 L-17.6,24.3 L-28.5,-9.3 Z" fill="none" stroke="black" transform="translate(66.50631597705998,137.1561419376838) rotate(137.08257311375314) scale(0.5640038160970098)" /></g><g><path d="M27.7,-11.5 L27.7,11.5 L11.5,27.7 L-11.5,27.7 L-27.7,11.5 L-27.7,-11.5 L-11.5,-27.7 L11.5,-27.7 Z" fill="none" stroke="black" transform="translate(327.62256252634893,263.6957776842029) rotate(164.08990468511286) scale(0.9348813793398361)" /><path d="M27.7,-11.5 L27.7,11.5 L11.5,27.7 L-11.5,27.7 L-27.7,11.5 L-27.7,-11.5 L-11.5,-27.7 L11.5,-27.7 Z" fill="none" stroke="black" transform="translate(327.62256252634893,263.6957776842029) rotate(164.08990468511286) scale(0.6544169655378852)" /><path d="M27.7,-11.5 L27.7,11.5 L11.5,27.7 L-11.5,27.7 L-27.7,11.5 L-27.7,-11.5 L-11.5,-27.7 L11.5,-27.7 Z" fill="none" stroke="black" transform="translate(327.62256252634893,263.6957776842029) rotate(164.08990468511286) scale(0.37395255173593445)" /></g><g><path d="M0,0 m-30,0 a30,30 0 1,0 60,0 a30,30 0 1,0 -60,0" fill="none" stroke="black" transform="translate(173.4675694037816,134.837276695769) rotate(11.208524052479776) scale(0.9079682274238827)" /><path d="M0,0 m-30,0 a30,30 0 1,0 60,0 a30,30 0 1,0 -60,0" fill="none" stroke="black" transform="translate(173.4675694037816,134.837276695769) rotate(11.208524052479776) scale(0.6355777591967179)" /></g></svg>