<svg baseProfile="full" height="400" version="1.1" width="400" xmlns="http://www.w3.org/2000/svg" xmlns:ev="http://www.w3.org/2001/xml-events" xmlns:xlink="http://www.w3.org/1999/xlink"><defs /><rect fill="white" height="100%" width="100%" x="0" y="0" /><path d="M-30,-20 h60 v40 h-60 Z" fill="none" stroke="black" transform="translate(289.98236611858374,117.85038969174309) rotate(348.2025209289565) scale(1.3425119745795837)" /><g><path d="M-30,-20 h60 v40 h-60 Z" fill="none" stroke="black" transform="translate(181.00573831500986,105.35613876248578) rotate(205.77455070119586) scale(0.9572861316028531)" /><path d="M-30,-20 h60 v40 h-60 Z" fill="none" stroke="black" transform="translate(181.00573831500986,105.35613876248578) rotate(205.77455070119586) scale(0.6701002921219972)" /><path d="M-30,-20 h60 v40 h-60 Z" fill="none" stroke="black" transform="translate(181.00573831500986,105.35613876248578) rotate(205.77455070119586) scale(0.38291445264114127)" /></g><g><path d="M-30,-20 h60 v40 h-60 Z" fill="none" stroke="black" transform="translate(227.81469374064375,229.08958906963747) rotate(221.4419470506284) scale(1.9843409163330563)" /><path d="M-30,-20 h60 v40 h-60 Z" fill="none" stroke="black" transform="translate(227.81469374064375,229.08958906963747) rotate(221.4419470506284) scale(1.3890386414331393)" /></g><path d="M-30,-20 h60 v40 h-60 Z" fill="none" stroke="black" transform="translate(109.48390407685629,124.22883165886492) rotate(302.55809584704235) scale(1.2788764752156487)" /><path d="M-30,-20 h60 v40 h-60 Z" fill="none" stroke="black" transform="translate(134.3546975704934,293.4935873284044) rotate(339.9327872083433) scale(1.1747578953258893)" /><g><path d="M-30,-20 h60 v40 h-60 Z" fill="none" stroke="black" transform="translate(282.094810383538,297.5147219772382) rotate(311.9909278903139) scale(0.8340805239117001)" /><path d="M-30,-20 h60 v40 h-60 Z" fill="none" stroke="black" transform="translate(282.094810383538,297.5147219772382) rotate(311.9909278903139) scale(0.58385636673819)" /></g><path d="M-30,-20 h60 v40 h-60 Z" fill="none" stroke="black" transform="translate(143.304797645169,192.48069237518774) rotate(355.00424877514246) scale(0.9900037121027447)" /><path d="M-30,-20 h60 v40 h-60 Z" fill="none" stroke="black" transform="translate(76.27469260322128,172.38428641323412) rotate(21.890663724220346) scale(1.007888785377174)" /><path d="M-30,-20 h60 v40 h-60 Z" fill="none" stroke="black" transform="translate(61.90618973623812,239.67903715323777) rotate(94.64355363769513) scale(0.8382471829459486)" /><g><path d="M30,0 L15,-26 L-15,-26 L-30,0 L-15,26 L15,26 Z" fill="none" stroke="black" transform="translate(185.27152462484966,330.44684144620953) rotate(247.06390792107186) scale(0.8621914514520751)" /><path d="M30,0 L15,-26 L-15,-26 L-30,0 L-15,26 L15,26 Z" fill="none" stroke="black" transform="translate(185.27152462484966,330.44684144620953) rotate(247.06390792107186) scale(0.6035340160164525)" /><path d="M30,0 L15,-26 L-15,-26 L-30,0 L-15,26 L15,26 Z" fill="none" stroke="black" transform="translate(185.27152462484966,330.44684144620953) rotate(247.06390792107186) scale(0.34487658058083004)" /></g><g><path d="M30,0 L15,-26 L-15,-26 L-30,0 L-15,26 L15,26 Z" fill="none" stroke="black" transform="translate(299.51686951625203,181.58897926606247) rotate(343.19871495390436) scale(0.9166128477878321)" /><path d="M30,0 L15,-26 L-15,-26 L-30,0 L-15,26 L15,26 Z" fill="none" stroke="black" transform="translate(299.51686951625203,181.58897926606247) rotate(343.19871495390436) scale(0.6416289934514825)" /><path d="M30,0 L15,-26 L-15,-26 L-30,0 L-15,26 L15,26 Z" fill="none" stroke="black" transform="translate(299.51686951625203,181.58897926606247) rotate(343.19871495390436) scale(0.36664513911513286)" /></g><path d="M30,0 L15,-26 L-15,-26 L-30,0 L-15,26 L15,26 Z" fill="none" stroke="black" transform="translate(332.4836972181734,265.97930499729944) rotate(281.0826866780029) scale(0.8993845183950193)" /><path d="M27.7,-11.5 L27.7,11.5 L11.5,27.7 L-11.5,27.7 L-27.7,11.5 L-27.7,-11.5 L-11.5,-27.7 L11.5,-27.7 Z" fill="none" stroke="black" transform="translate(247.28850987873807,325.23188109601716) rotate(193.7276083215999) scale(0.8194387104762948)" /><path d="M27.7,-11.5 L27.7,11.5 L11.5,27.7 L-11.5,27.7 L-27.7,11.5 L-27.7,-11.5 L-11.5,-27.7 L11.5,-27.7 Z" fill="none" stroke="black" transform="translate(210.36043272819353,65.39317234563669) rotate(344.53947439127955) scale(0.8125483018692096)" /><g><path d="M27.7,-11.5 L27.7,11.5 L11.5,27.7 L-11.5,27.7 L-27.7,11.5 L-27.7,-11.5 L-11.5,-27.7 L11.5,-27.7 Z" fill="none" stroke="black" transform="translate(326.4690931301167,211.78003599337563) rotate(63.403563738723165) scale(0.8783093252002332)" /><path d="M27.7,-11.5 L27.7,11.5 L11.5,27.7 L-11.5,27.7 L-27.7,11.5 L-27.7,-11.5 L-11.5,-27.7 L11.5,-27.7 Z" fill="none" stroke="black" transform="translate(326.4690931301167,211.78003599337563) rotate(63.403563738723165) scale(0.6148165276401631)" /><path d="M27.7,-11.5 L27.7,11.5 L11.5,27.7 L-11.5,27.7 L-27.7,11.5 L-27.7,-11.5 L-11.5,-27.7 L11.5,-27.7 Z" fill="none" stroke="black" transform="translate(326.4690931301167,211.78003599337563) rotate(63.403563738723165) scale(0.3513237300800933)" /></g><path d="M27.7,-11.5 L27.7,11.5 L11.5,27.7 L-11.5,27.7 L-27.7,11.5 L-27.7,-11.5 L-11.5,-27.7 L11.5,-27.7 Z" fill="none" stroke="black" transform="translate(70.65562544474213,69.44003368076186) rotate(336.1983455786269) scale(0.9417869813588662)" /><g><path d="M27.7,-11.5 L27.7,11.5 L11.5,27.7 L-11.5,27.7 L-27.7,11.5 L-27.7,-11.5 L-11.5,-27.7 L11.5,-27.7 Z" fill="none" stroke="black" transform="translate(64.45567667008743,337.00092961268314) rotate(105.89411218702963) scale(0.8639885227973133)" /><path d="M27.7,-11.5 L27.7,11.5 L11.5,27.7 L-11.5,27.7 L-27.7,11.5 L-27.7,-11.5 L-11.5,-27.7 L11.5,-27.7 Z" fill="none" stroke="black" transform="translate(64.45567667008743,337.00092961268314) rotate(105.89411218702963) scale(0.6047919659581192)" /></g><g><path d="M27.7,-11.5 L27.7,11.5 L11.5,27.7 L-11.5,27.7 L-27.7,11.5 L-27.7,-11.5 L-11.5,-27.7 L11.5,-27.7 Z" fill="none" stroke="black" transform="translate(151.81422207913005,339.4589574959088) rotate(60.3094433072454) scale(0.8086495473942852)" /><path d="M27.7,-11.5 L27.7,11.5 L11.5,27.7 L-11.5,27.7 L-27.7,11.5 L-27.7,-11.5 L-11.5,-27.7 L11.5,-27.7 Z" fill="none" stroke="black" transform="translate(151.81422207913005,339.4589574959088) rotate(60.3094433072454) scale(0.5660546831759996)" /></g></svg>