<svg baseProfile="full" height="400" version="1.1" width="400" xmlns="http://www.w3.org/2000/svg" xmlns:ev="http://www.w3.org/2001/xml-events" xmlns:xlink="http://www.w3.org/1999/xlink"><defs /><rect fill="white" height="100%" width="100%" x="0" y="0" /><g><path d="M0.0,-30.0 L28.5,-9.3 L17.6,24.3 L-17.6,24.3 L-28.5,-9.3 Z" fill="none" stroke="black" transform="translate(159.61593055628018,201.99695257348984) rotate(182.6334839821816) scale(1.103133931488462)" /><path d="M0.0,-30.0 L28.5,-9.3 L17.6,24.3 L-17.6,24.3 L-28.5,-9.3 Z" fill="none" stroke="black" transform="translate(159.61593055628018,201.99695257348984) rotate(182.6334839821816) scale(0.7721937520419234)" /></g><path d="M0.0,-30.0 L28.5,-9.3 L17.6,24.3 L-17.6,24.3 L-28.5,-9.3 Z" fill="none" stroke="black" transform="translate(158.27515811288674,264.9572168104534) rotate(188.0313599884895) scale(1.0734566676449742)" /><path d="M0.0,-30.0 L28.5,-9.3 L17.6,24.3 L-17.6,24.3 L-28.5,-9.3 Z" fill="none" stroke="black" transform="translate(313.91301989022986,116.0441370494563) rotate(356.44848382846345) scale(0.9496672372673529)" /><path d="M0.0,-30.0 L28.5,-9.3 L17.6,24.3 L-17.6,24.3 L-28.5,-9.3 Z" fill="none" stroke="black" transform="translate(236.0571863329526,211.32378329024843) rotate(98.5623948664679) scale(1.834128449848604)" /><g><path d="M0.0,-30.0 L28.5,-9.3 L17.6,24.3 L-17.6,24.3 L-28.5,-9.3 Z" fill="none" stroke="black" transform="translate(217.6787373158206,275.9877834016785) rotate(259.86646964487477) scale(0.8457364882639492)" /><path d="M0.0,-30.0 L28.5,-9.3 L17.6,24.3 L-17.6,24.3 L-28.5,-9.3 Z" fill="none" stroke="black" transform="translate(217.6787373158206,275.9877834016785) rotate(259.86646964487477) scale(0.5920155417847645)" /></g><path d="M0.0,-30.0 L28.5,-9.3 L17.6,24.3 L-17.6,24.3 L-28.5,-9.3 Z" fill="none" stroke="black" transform="translate(166.60883895526132,154.80573648377708) rotate(82.53274153861452) scale(1.035928479245539)" /><g><path d="M-30,-20 h60 v40 h-60 Z" fill="none" stroke="black" transform="translate(303.06260772003725,218.23180754844603) rotate(325.1214839782546) scale(0.942045544187372)" /><path d="M-30,-20 h60 v40 h-60 Z" fill="none" stroke="black" transform="translate(303.06260772003725,218.23180754844603) rotate(325.1214839782546) scale(0.6594318809311603)" /></g><path d="M0.0,-30.0 L8.8,-12.1 L28.5,-9.3 L14.3,4.6 L17.6,24.3 L0.0,15.0 L-17.6,24.3 L-14.3,4.6 L-28.5,-9.3 L-8.8,-12.1 Z" fill="none" stroke="black" transform="translate(144.38327572284237,311.2109127933812) rotate(195.84280261885414) scale(1.0038272652266922)" /><g><path d="M0.0,-30.0 L8.8,-12.1 L28.5,-9.3 L14.3,4.6 L17.6,24.3 L0.0,15.0 L-17.6,24.3 L-14.3,4.6 L-28.5,-9.3 L-8.8,-12.1 Z" fill="none" stroke="black" transform="translate(305.36878703041725,159.02131375685582) rotate(4.727899162026508) scale(0.8567048566842784)" /><path d="M0.0,-30.0 L8.8,-12.1 L28.5,-9.3 L14.3,4.6 L17.6,24.3 L0.0,15.0 L-17.6,24.3 L-14.3,4.6 L-28.5,-9.3 L-8.8,-12.1 Z" fill="none" stroke="black" transform="translate(305.36878703041725,159.02131375685582) rotate(4.727899162026508) scale(0.5996933996789948)" /></g><path d="M0.0,-30.0 L8.8,-12.1 L28.5,-9.3 L14.3,4.6 L17.6,24.3 L0.0,15.0 L-17.6,24.3 L-14.3,4.6 L-28.5,-9.3 L-8.8,-12.1 Z" fill="none" stroke="black" transform="translate(242.4406212812509,106.7702490243235) rotate(1.24001298300632) scale(1.3678546960741622)" /><path d="M0.0,-30.0 L8.8,-12.1 L28.5,-9.3 L14.3,4.6 L17.6,24.3 L0.0,15.0 L-17.6,24.3 L-14.3,4.6 L-28.5,-9.3 L-8.8,-12.1 Z" fill="none" stroke="black" transform="translate(315.792667691402,63.106437877482186) rotate(74.2292211311151) scale(0.8337514149949901)" /><g><path d="M0.0,-30.0 L8.8,-12.1 L28.5,-9.3 L14.3,4.6 L17.6,24.3 L0.0,15.0 L-17.6,24.3 L-14.3,4.6 L-28.5,-9.3 L-8.8,-12.1 Z" fill="none" stroke="black" transform="translate(280.46006100306295,93.68858492164645) rotate(146.55901970518076) scale(0.8442385052106693)" /><path d="M0.0,-30.0 L8.8,-12.1 L28.5,-9.3 L14.3,4.6 L17.6,24.3 L0.0,15.0 L-17.6,24.3 L-14.3,4.6 L-28.5,-9.3 L-8.8,-12.1 Z" fill="none" stroke="black" transform="translate(280.46006100306295,93.68858492164645) rotate(146.55901970518076) scale(0.5909669536474685)" /><path d="M0.0,-30.0 L8.8,-12.1 L28.5,-9.3 L14.3,4.6 L17.6,24.3 L0.0,15.0 L-17.6,24.3 L-14.3,4.6 L-28.5,-9.3 L-8.8,-12.1 Z" fill="none" stroke="black" transform="translate(280.46006100306295,93.68858492164645) rotate(146.55901970518076) scale(0.33769540208426774)" /></g><g><path d="M0,0 m-30,0 a30,30 0 1,0 60,0 a30,30 0 1,0 -60,0" fill="none" stroke="black" transform="translate(124.42261158647547,139.03194840497514) rotate(317.57880207739413) scale(1.1067378117664581)" /><path d="M0,0 m-30,0 a30,30 0 1,0 60,0 a30,30 0 1,0 -60,0" fill="none" stroke="black" transform="translate(124.42261158647547,139.03194840497514) rotate(317.57880207739413) scale(0.7747164682365206)" /><path d="M0,0 m-30,0 a30,30 0 1,0 60,0 a30,30 0 1,0 -60,0" fill="none" stroke="black" transform="translate(124.42261158647547,139.03194840497514) rotate(317.57880207739413) scale(0.4426951247065833)" /></g><path d="M0,0 m-30,0 a30,30 0 1,0 60,0 a30,30 0 1,0 -60,0" fill="none" stroke="black" transform="translate(203.07905585761637,84.59048004762215) rotate(10.515522784028569) scale(1.1726723082771984)" /><path d="M0,0 m-30,0 a30,30 0 1,0 60,0 a30,30 0 1,0 -60,0" fill="none" stroke="black" transform="translate(78.98903200002717,98.99829830718404) rotate(177.57138140565846) scale(0.8705363975842396)" /><path d="M0,0 m-30,0 a30,30 0 1,0 60,0 a30,30 0 1,0 -60,0" fill="none" stroke="black" transform="translate(331.2085598790003,305.9194064715317) rotate(101.50344178767726) scale(0.9296557720919914)" /><path d="M0,0 m-30,0 a30,30 0 1,0 60,0 a30,30 0 1,0 -60,0" fill="none" stroke="black" transform="translate(284.5476339855895,150.79101710376074) rotate(165.0394069558625) scale(0.922553295052827)" /><path d="M0,0 m-30,0 a30,30 0 1,0 60,0 a30,30 0 1,0 -60,0" fill="none" stroke="black" transform="translate(94.05447670770094,285.47475946287113) rotate(180.0536354325022) scale(0.9585734492574847)" /><path d="M0,-30 L30,30 L-30,30 Z" fill="none" stroke="black" transform="translate(283.2202271117837,244.75290574816404) rotate(119.98608432937677) scale(0.819761838717459)" /><path d="M0,-30 L30,30 L-30,30 Z" fill="none" stroke="black" transform="translate(95.7841450885328,315.673118630685) rotate(83.12625247476066) scale(1.000271825780016)" /><path d="M27.7,-11.5 L27.7,11.5 L11.5,27.7 L-11.5,27.7 L-27.7,11.5 L-27.7,-11.5 L-11.5,-27.7 L11.5,-27.7 Z" fill="none" stroke="black" transform="translate(108.9612286718955,233.34138147829026) rotate(314.19680741802034) scale(1.0366171703529572)" /><g><path d="M27.7,-11.5 L27.7,11.5 L11.5,27.7 L-11.5,27.7 L-27.7,11.5 L-27.7,-11.5 L-11.5,-27.7 L11.5,-27.7 Z" fill="none" stroke="black" transform="translate(300.17357831460697,278.02513631957993) rotate(8.831215877162126) scale(1.140159108311222)" /><path d="M27.7,-11.5 L27.7,11.5 L11.5,27.7 L-11.5,27.7 L-27.7,11.5 L-27.7,-11.5 L-11.5,-27.7 L11.5,-27.7 Z" fill="none" stroke="black" transform="translate(300.17357831460697,278.02513631957993) rotate(8.831215877162126) scale(0.7981113758178553)" /><path d="M27.7,-11.5 L27.7,11.5 L11.5,27.7 L-11.5,27.7 L-27.7,11.5 L-27.7,-11.5 L-11.5,-27.7 L11.5,-27.7 Z" fill="none" stroke="black" transform="translate(300.17357831460697,278.02513631957993) rotate(8.831215877162126) scale(0.4560636433244888)" /></g><path d="M27.7,-11.5 L27.7,11.5 L11.5,27.7 L-11.5,27.7 L-27.7,11.5 L-27.7,-11.5 L-11.5,-27.7 L11.5,-27.7 Z" fill="none" stroke="black" transform="translate(113.59771456208892,98.12887952681703) rotate(296.7758432379137) scale(1.0346564142640102)" /><g><path d="M30,0 L15,-26 L-15,-26 L-30,0 L-15,26 L15,26 Z" fill="none" stroke="black" transform="translate(202.37564314920894,301.9305946388178) rotate(19.15083094744297) scale(1.139255664065145)" /><path d="M30,0 L15,-26 L-15,-26 L-30,0 L-15,26 L15,26 Z" fill="none" stroke="black" transform="translate(202.37564314920894,301.9305946388178) rotate(19.15083094744297) scale(0.7974789648456014)" /></g><g><path d="M30,0 L15,-26 L-15,-26 L-30,0 L-15,26 L15,26 Z" fill="none" stroke="black" transform="translate(304.59574195791316,82.22745213634248) rotate(68.89831734745783) scale(0.9940357030216314)" /><path d="M30,0 L15,-26 L-15,-26 L-30,0 L-15,26 L15,26 Z" fill="none" stroke="black" transform="translate(304.59574195791316,82.22745213634248) rotate(68.89831734745783) scale(0.6958249921151419)" /></g></svg>