<svg baseProfile="full" height="400" version="1.1" width="400" xmlns="http://www.w3.org/2000/svg" xmlns:ev="http://www.w3.org/2001/xml-events" xmlns:xlink="http://www.w3.org/1999/xlink"><defs /><rect fill="white" height="100%" width="100%" x="0" y="0" /><g><path d="M0,0 m-30,0 a30,30 0 1,0 60,0 a30,30 0 1,0 -60,0" fill="none" stroke="black" transform="translate(264.4234572866674,213.9729885097741) rotate(309.4649969469605) scale(1.5701221241667125)" /><path d="M0,0 m-30,0 a30,30 0 1,0 60,0 a30,30 0 1,0 -60,0" fill="none" stroke="black" transform="translate(264.4234572866674,213.9729885097741) rotate(309.4649969469605) scale(1.0990854869166986)" /><path d="M0,0 m-30,0 a30,30 0 1,0 60,0 a30,30 0 1,0 -60,0" fill="none" stroke="black" transform="translate(264.4234572866674,213.9729885097741) rotate(309.4649969469605) scale(0.6280488496666851)" /></g><g><path d="M0,0 m-30,0 a30,30 0 1,0 60,0 a30,30 0 1,0 -60,0" fill="none" stroke="black" transform="translate(189.14975495372175,300.71775476957794) rotate(227.73187090782284) scale(0.8126026146572468)" /><path d="M0,0 m-30,0 a30,30 0 1,0 60,0 a30,30 0 1,0 -60,0" fill="none" stroke="black" transform="translate(189.14975495372175,300.71775476957794) rotate(227.73187090782284) scale(0.5688218302600727)" /></g><path d="M0,0 m-30,0 a30,30 0 1,0 60,0 a30,30 0 1,0 -60,0" fill="none" stroke="black" transform="translate(171.0129636507471,162.34560721100425) rotate(153.25231668412292) scale(0.9706844287805172)" /><g><path d="M0,0 m-30,0 a30,30 0 1,0 60,0 a30,30 0 1,0 -60,0" fill="none" stroke="black" transform="translate(97.22038107804325,300.3424372110316) rotate(225.5510706915557) scale(0.9659525789711014)" /><path d="M0,0 m-30,0 a30,30 0 1,0 60,0 a30,30 0 1,0 -60,0" fill="none" stroke="black" transform="translate(97.22038107804325,300.3424372110316) rotate(225.5510706915557) scale(0.6761668052797709)" /><path d="M0,0 m-30,0 a30,30 0 1,0 60,0 a30,30 0 1,0 -60,0" fill="none" stroke="black" transform="translate(97.22038107804325,300.3424372110316) rotate(225.5510706915557) scale(0.3863810315884406)" /></g><path d="M0,0 m-30,0 a30,30 0 1,0 60,0 a30,30 0 1,0 -60,0" fill="none" stroke="black" transform="translate(315.6816160250661,81.42171345034743) rotate(9.495470377044008) scale(0.8433867344578425)" /><g><path d="M0.0,-30.0 L28.5,-9.3 L17.6,24.3 L-17.6,24.3 L-28.5,-9.3 Z" fill="none" stroke="black" transform="translate(95.68483453699014,129.60067087166155) rotate(17.756531247079582) scale(0.8126534331012292)" /><path d="M0.0,-30.0 L28.5,-9.3 L17.6,24.3 L-17.6,24.3 L-28.5,-9.3 Z" fill="none" stroke="black" transform="translate(95.68483453699014,129.60067087166155) rotate(17.756531247079582) scale(0.5688574031708604)" /></g><path d="M0.0,-30.0 L28.5,-9.3 L17.6,24.3 L-17.6,24.3 L-28.5,-9.3 Z" fill="none" stroke="black" transform="translate(207.48733214791923,64.89429077287525) rotate(168.348826915118) scale(0.8950078317929921)" /><path d="M0,-30 L30,30 L-30,30 Z" fill="none" stroke="black" transform="translate(305.8392757001873,306.3510767581496) rotate(310.97431251393385) scale(0.9113536738050495)" /><path d="M0,-30 L30,30 L-30,30 Z" fill="none" stroke="black" transform="translate(113.77464807824543,60.5809485639927) rotate(47.70254347469225) scale(0.8312852453754245)" /><g><path d="M0.0,-30.0 L8.8,-12.1 L28.5,-9.3 L14.3,4.6 L17.6,24.3 L0.0,15.0 L-17.6,24.3 L-14.3,4.6 L-28.5,-9.3 L-8.8,-12.1 Z" fill="none" stroke="black" transform="translate(64.30104240245754,219.9299290595514) rotate(125.37744654712131) scale(0.8597965998577948)" /><path d="M0.0,-30.0 L8.8,-12.1 L28.5,-9.3 L14.3,4.6 L17.6,24.3 L0.0,15.0 L-17.6,24.3 L-14.3,4.6 L-28.5,-9.3 L-8.8,-12.1 Z" fill="none" stroke="black" transform="translate(64.30104240245754,219.9299290595514) rotate(125.37744654712131) scale(0.6018576199004563)" /></g></svg>