<svg baseProfile="full" height="400" version="1.1" width="400" xmlns="http://www.w3.org/2000/svg" xmlns:ev="http://www.w3.org/2001/xml-events" xmlns:xlink="http://www.w3.org/1999/xlink"><defs /><rect fill="white" height="100%" width="100%" x="0" y="0" /><path d="M-30,-20 h60 v40 h-60 Z" fill="none" stroke="black" transform="translate(90.09526807801898,140.1407072353983) rotate(103.91893788308708) scale(0.9206060937485339)" /><path d="M-30,-20 h60 v40 h-60 Z" fill="none" stroke="black" transform="translate(160.9495072245902,245.0539819825429) rotate(184.05913462357853) scale(1.4912186485669112)" /><path d="M-30,-20 h60 v40 h-60 Z" fill="none" stroke="black" transform="translate(331.26359455851014,273.45046019594906) rotate(226.29358704940708) scale(0.9484581916228854)" /><g><path d="M-30,-20 h60 v40 h-60 Z" fill="none" stroke="black" transform="translate(223.15314154357264,137.17272224421234) rotate(113.16569284975921) scale(1.0750889157845165)" /><path d="M-30,-20 h60 v40 h-60 Z" fill="none" stroke="black" transform="translate(223.15314154357264,137.17272224421234) rotate(113.16569284975921) scale(0.7525622410491615)" /><path d="M-30,-20 h60 v40 h-60 Z" fill="none" stroke="black" transform="translate(223.15314154357264,137.17272224421234) rotate(113.16569284975921) scale(0.4300355663138066)" /></g><path d="M-30,-20 h60 v40 h-60 Z" fill="none" stroke="black" transform="translate(243.58427314121326,328.8065851674456) rotate(32.00872279742805) scale(0.8867160161488624)" /><path d="M-30,-20 h60 v40 h-60 Z" fill="none" stroke="black" transform="translate(307.8341973536063,169.82817383917956) rotate(332.27162133404454) scale(0.9858486552853929)" /><path d="M30,0 L15,-26 L-15,-26 L-30,0 L-15,26 L15,26 Z" fill="none" stroke="black" transform="translate(69.41474379905333,311.83407957533456) rotate(228.96823476050588) scale(0.8808524268404887)" /><path d="M0,0 m-30,0 a30,30 0 1,0 60,0 a30,30 0 1,0 -60,0" fill="none" stroke="black" transform="translate(115.79428952690776,78.43149958706715) rotate(106.61080845948007) scale(0.861202905063409)" /><g><path d="M0,0 m-30,0 a30,30 0 1,0 60,0 a30,30 0 1,0 -60,0" fill="none" stroke="black" transform="translate(273.64418302745247,68.68591363342868) rotate(14.958692807733694) scale(0.9335547843376423)" /><path d="M0,0 m-30,0 a30,30 0 1,0 60,0 a30,30 0 1,0 -60,0" fill="none" stroke="black" transform="translate(273.64418302745247,68.68591363342868) rotate(14.958692807733694) scale(0.6534883490363496)" /><path d="M0,0 m-30,0 a30,30 0 1,0 60,0 a30,30 0 1,0 -60,0" fill="none" stroke="black" transform="translate(273.64418302745247,68.68591363342868) rotate(14.958692807733694) scale(0.37342191373505695)" /></g></svg>