<svg baseProfile="full" height="400" version="1.1" width="400" xmlns="http://www.w3.org/2000/svg" xmlns:ev="http://www.w3.org/2001/xml-events" xmlns:xlink="http://www.w3.org/1999/xlink"><defs /><rect fill="white" height="100%" width="100%" x="0" y="0" /><path d="M0.0,-30.0 L28.5,-9.3 L17.6,24.3 L-17.6,24.3 L-28.5,-9.3 Z" fill="none" stroke="black" transform="translate(315.0694719030704,196.5730877499474) rotate(325.3489469096934) scale(1.127100397518218)" /><path d="M0.0,-30.0 L28.5,-9.3 L17.6,24.3 L-17.6,24.3 L-28.5,-9.3 Z" fill="none" stroke="black" transform="translate(217.3782249418761,132.99556476627723) rotate(216.18002354466586) scale(1.5997297348872213)" /><path d="M0.0,-30.0 L28.5,-9.3 L17.6,24.3 L-17.6,24.3 L-28.5,-9.3 Z" fill="none" stroke="black" transform="translate(201.88949503633717,216.5818291555072) rotate(33.16418595585435) scale(1.71611439257088)" /><g><path d="M0.0,-30.0 L8.8,-12.1 L28.5,-9.3 L14.3,4.6 L17.6,24.3 L0.0,15.0 L-17.6,24.3 L-14.3,4.6 L-28.5,-9.3 L-8.8,-12.1 Z" fill="none" stroke="black" transform="translate(287.52407358155256,164.76393488362282) rotate(133.7411873517519) scale(0.9241927234925409)" /><path d="M0.0,-30.0 L8.8,-12.1 L28.5,-9.3 L14.3,4.6 L17.6,24.3 L0.0,15.0 L-17.6,24.3 L-14.3,4.6 L-28.5,-9.3 L-8.8,-12.1 Z" fill="none" stroke="black" transform="translate(287.52407358155256,164.76393488362282) rotate(133.7411873517519) scale(0.6469349064447786)" /><path d="M0.0,-30.0 L8.8,-12.1 L28.5,-9.3 L14.3,4.6 L17.6,24.3 L0.0,15.0 L-17.6,24.3 L-14.3,4.6 L-28.5,-9.3 L-8.8,-12.1 Z" fill="none" stroke="black" transform="translate(287.52407358155256,164.76393488362282) rotate(133.7411873517519) scale(0.3696770893970164)" /></g><g><path d="M0.0,-30.0 L8.8,-12.1 L28.5,-9.3 L14.3,4.6 L17.6,24.3 L0.0,15.0 L-17.6,24.3 L-14.3,4.6 L-28.5,-9.3 L-8.8,-12.1 Z" fill="none" stroke="black" transform="translate(303.1276023859313,116.40724141455895) rotate(249.4969439009536) scale(0.8618465347461581)" /><path d="M0.0,-30.0 L8.8,-12.1 L28.5,-9.3 L14.3,4.6 L17.6,24.3 L0.0,15.0 L-17.6,24.3 L-14.3,4.6 L-28.5,-9.3 L-8.8,-12.1 Z" fill="none" stroke="black" transform="translate(303.1276023859313,116.40724141455895) rotate(249.4969439009536) scale(0.6032925743223106)" /><path d="M0.0,-30.0 L8.8,-12.1 L28.5,-9.3 L14.3,4.6 L17.6,24.3 L0.0,15.0 L-17.6,24.3 L-14.3,4.6 L-28.5,-9.3 L-8.8,-12.1 Z" fill="none" stroke="black" transform="translate(303.1276023859313,116.40724141455895) rotate(249.4969439009536) scale(0.3447386138984633)" /></g><path d="M0.0,-30.0 L8.8,-12.1 L28.5,-9.3 L14.3,4.6 L17.6,24.3 L0.0,15.0 L-17.6,24.3 L-14.3,4.6 L-28.5,-9.3 L-8.8,-12.1 Z" fill="none" stroke="black" transform="translate(295.8554937094487,258.10968610220624) rotate(307.99933778697323) scale(1.3909168935891167)" /><path d="M0,0 m-30,0 a30,30 0 1,0 60,0 a30,30 0 1,0 -60,0" fill="none" stroke="black" transform="translate(272.092080359159,335.28601030587515) rotate(322.13164130818615) scale(0.8791014016757066)" /><g><path d="M-30,-20 h60 v40 h-60 Z" fill="none" stroke="black" transform="translate(333.7946069743315,334.31711368499464) rotate(114.95300688225437) scale(0.8799833667600331)" /><path d="M-30,-20 h60 v40 h-60 Z" fill="none" stroke="black" transform="translate(333.7946069743315,334.31711368499464) rotate(114.95300688225437) scale(0.6159883567320231)" /><path d="M-30,-20 h60 v40 h-60 Z" fill="none" stroke="black" transform="translate(333.7946069743315,334.31711368499464) rotate(114.95300688225437) scale(0.3519933467040133)" /></g><g><path d="M-30,-20 h60 v40 h-60 Z" fill="none" stroke="black" transform="translate(110.39812744871618,198.66244205936255) rotate(83.72064912509386) scale(1.3638122476716963)" /><path d="M-30,-20 h60 v40 h-60 Z" fill="none" stroke="black" transform="translate(110.39812744871618,198.66244205936255) rotate(83.72064912509386) scale(0.9546685733701873)" /></g><path d="M30,0 L15,-26 L-15,-26 L-30,0 L-15,26 L15,26 Z" fill="none" stroke="black" transform="translate(75.87801931815157,145.90211828585186) rotate(5.2448189916494) scale(1.0454234294791025)" /><path d="M27.7,-11.5 L27.7,11.5 L11.5,27.7 L-11.5,27.7 L-27.7,11.5 L-27.7,-11.5 L-11.5,-27.7 L11.5,-27.7 Z" fill="none" stroke="black" transform="translate(120.11472602040601,308.2261836782124) rotate(277.1187753338025) scale(0.9662568752512108)" /><path d="M0,-30 L30,30 L-30,30 Z" fill="none" stroke="black" transform="translate(110.30900971115676,103.06789360710118) rotate(53.595688697844466) scale(0.93252970387905)" /><path d="M0,-30 L30,30 L-30,30 Z" fill="none" stroke="black" transform="translate(143.7584824333489,132.64608417041575) rotate(357.60259603825205) scale(0.8182585742112205)" /></svg>