<svg baseProfile="full" height="400" version="1.1" width="400" xmlns="http://www.w3.org/2000/svg" xmlns:ev="http://www.w3.org/2001/xml-events" xmlns:xlink="http://www.w3.org/1999/xlink"><defs /><rect fill="white" height="100%" width="100%" x="0" y="0" /><path d="M0,-30 L30,30 L-30,30 Z" fill="none" stroke="black" transform="translate(148.69408161901876,181.15743774140395) rotate(61.278773576500505) scale(1.9896068427080897)" /><path d="M27.7,-11.5 L27.7,11.5 L11.5,27.7 L-11.5,27.7 L-27.7,11.5 L-27.7,-11.5 L-11.5,-27.7 L11.5,-27.7 Z" fill="none" stroke="black" transform="translate(275.4728067337036,267.62810020830057) rotate(232.76755515315944) scale(1.671777625207485)" /><path d="M0.0,-30.0 L8.8,-12.1 L28.5,-9.3 L14.3,4.6 L17.6,24.3 L0.0,15.0 L-17.6,24.3 L-14.3,4.6 L-28.5,-9.3 L-8.8,-12.1 Z" fill="none" stroke="black" transform="translate(74.10218489705888,198.61487666530797) rotate(139.89626315458767) scale(0.8463106257266544)" /><path d="M0,0 m-30,0 a30,30 0 1,0 60,0 a30,30 0 1,0 -60,0" fill="none" stroke="black" transform="translate(251.71835797312536,152.7684364285746) rotate(127.52078837727079) scale(1.4461016987273059)" /><path d="M0,0 m-30,0 a30,30 0 1,0 60,0 a30,30 0 1,0 -60,0" fill="none" stroke="black" transform="translate(187.35122960407023,311.33407791831905) rotate(88.89494040182156) scale(0.8414967641385473)" /><path d="M0.0,-30.0 L28.5,-9.3 L17.6,24.3 L-17.6,24.3 L-28.5,-9.3 Z" fill="none" stroke="black" transform="translate(71.89608725326907,295.33090363452305) rotate(255.70879492475856) scale(0.8184582939040561)" /><path d="M0.0,-30.0 L28.5,-9.3 L17.6,24.3 L-17.6,24.3 L-28.5,-9.3 Z" fill="none" stroke="black" transform="translate(310.14187982628414,183.1065895548369) rotate(203.8123649142149) scale(1.1054537233709933)" /><path d="M0.0,-30.0 L28.5,-9.3 L17.6,24.3 L-17.6,24.3 L-28.5,-9.3 Z" fill="none" stroke="black" transform="translate(118.43270775444734,293.2595860880567) rotate(167.0307500327463) scale(0.8211369133359059)" /><g><path d="M30,0 L15,-26 L-15,-26 L-30,0 L-15,26 L15,26 Z" fill="none" stroke="black" transform="translate(190.63779881155662,77.3837147160807) rotate(17.8530366722628) scale(0.8136283200769495)" /><path d="M30,0 L15,-26 L-15,-26 L-30,0 L-15,26 L15,26 Z" fill="none" stroke="black" transform="translate(190.63779881155662,77.3837147160807) rotate(17.8530366722628) scale(0.5695398240538646)" /><path d="M30,0 L15,-26 L-15,-26 L-30,0 L-15,26 L15,26 Z" fill="none" stroke="black" transform="translate(190.63779881155662,77.3837147160807) rotate(17.8530366722628) scale(0.3254513280307798)" /></g><g><path d="M-30,-20 h60 v40 h-60 Z" fill="none" stroke="black" transform="translate(297.4599281736896,103.44712005703835) rotate(3.7586993958128234) scale(0.8878158895631355)" /><path d="M-30,-20 h60 v40 h-60 Z" fill="none" stroke="black" transform="translate(297.4599281736896,103.44712005703835) rotate(3.7586993958128234) scale(0.6214711226941948)" /><path d="M-30,-20 h60 v40 h-60 Z" fill="none" stroke="black" transform="translate(297.4599281736896,103.44712005703835) rotate(3.7586993958128234) scale(0.3551263558252542)" /></g><path d="M-30,-20 h60 v40 h-60 Z" fill="none" stroke="black" transform="translate(110.30157339736384,117.53014897065569) rotate(61.576268238357926) scale(0.8485798135261574)" /></svg>