<svg baseProfile="full" height="400" version="1.1" width="400" xmlns="http://www.w3.org/2000/svg" xmlns:ev="http://www.w3.org/2001/xml-events" xmlns:xlink="http://www.w3.org/1999/xlink"><defs /><rect fill="white" height="100%" width="100%" x="0" y="0" /><g><path d="M-30,-20 h60 v40 h-60 Z" fill="none" stroke="black" transform="translate(298.76010642168876,309.68122134577413) rotate(87.53653966198382) scale(1.0004685282129124)" /><path d="M-30,-20 h60 v40 h-60 Z" fill="none" stroke="black" transform="translate(298.76010642168876,309.68122134577413) rotate(87.53653966198382) scale(0.7003279697490387)" /><path d="M-30,-20 h60 v40 h-60 Z" fill="none" stroke="black" transform="translate(298.76010642168876,309.68122134577413) rotate(87.53653966198382) scale(0.400187411285165)" /></g><path d="M-30,-20 h60 v40 h-60 Z" fill="none" stroke="black" transform="translate(61.277964487207086,261.72123063832) rotate(280.99009671201895) scale(0.8138674364433156)" /><path d="M-30,-20 h60 v40 h-60 Z" fill="none" stroke="black" transform="translate(157.44733188340982,183.7319593301672) rotate(261.57807540251264) scale(1.2873003627953856)" /><path d="M0,0 m-30,0 a30,30 0 1,0 60,0 a30,30 0 1,0 -60,0" fill="none" stroke="black" transform="translate(242.59913629855856,241.39295779623464) rotate(82.42350199800421) scale(1.8431190488253262)" /><g><path d="M0.0,-30.0 L28.5,-9.3 L17.6,24.3 L-17.6,24.3 L-28.5,-9.3 Z" fill="none" stroke="black" transform="translate(230.63721807686443,117.3016453573047) rotate(153.38164855882) scale(1.5503327674588125)" /><path d="M0.0,-30.0 L28.5,-9.3 L17.6,24.3 L-17.6,24.3 L-28.5,-9.3 Z" fill="none" stroke="black" transform="translate(230.63721807686443,117.3016453573047) rotate(153.38164855882) scale(1.0852329372211686)" /><path d="M0.0,-30.0 L28.5,-9.3 L17.6,24.3 L-17.6,24.3 L-28.5,-9.3 Z" fill="none" stroke="black" transform="translate(230.63721807686443,117.3016453573047) rotate(153.38164855882) scale(0.6201331069835251)" /></g><path d="M0.0,-30.0 L28.5,-9.3 L17.6,24.3 L-17.6,24.3 L-28.5,-9.3 Z" fill="none" stroke="black" transform="translate(319.4147680826658,116.8427811659243) rotate(171.0574780004932) scale(0.9142692376483994)" /></svg>