<svg baseProfile="full" height="400" version="1.1" width="400" xmlns="http://www.w3.org/2000/svg" xmlns:ev="http://www.w3.org/2001/xml-events" xmlns:xlink="http://www.w3.org/1999/xlink"><defs /><rect fill="white" height="100%" width="100%" x="0" y="0" /><path d="M0,0 m-30,0 a30,30 0 1,0 60,0 a30,30 0 1,0 -60,0" fill="none" stroke="black" transform="translate(210.18871396037815,101.46767355906796) rotate(217.17342611284684) scale(1.2717053076151559)" /><g><path d="M0,0 m-30,0 a30,30 0 1,0 60,0 a30,30 0 1,0 -60,0" fill="none" stroke="black" transform="translate(171.52250810164952,185.45535335525665) rotate(197.8223943551544) scale(1.3478566868378763)" /><path d="M0,0 m-30,0 a30,30 0 1,0 60,0 a30,30 0 1,0 -60,0" fill="none" stroke="black" transform="translate(171.52250810164952,185.45535335525665) rotate(197.8223943551544) scale(0.9434996807865134)" /><path d="M0,0 m-30,0 a30,30 0 1,0 60,0 a30,30 0 1,0 -60,0" fill="none" stroke="black" transform="translate(171.52250810164952,185.45535335525665) rotate(197.8223943551544) scale(0.5391426747351505)" /></g><path d="M0,0 m-30,0 a30,30 0 1,0 60,0 a30,30 0 1,0 -60,0" fill="none" stroke="black" transform="translate(183.21527630778382,318.93132261960784) rotate(227.0826034914081) scale(1.0275155972314196)" /><g><path d="M0,0 m-30,0 a30,30 0 1,0 60,0 a30,30 0 1,0 -60,0" fill="none" stroke="black" transform="translate(128.17111412005355,276.45497843844964) rotate(164.66950040133506) scale(1.0312658909944765)" /><path d="M0,0 m-30,0 a30,30 0 1,0 60,0 a30,30 0 1,0 -60,0" fill="none" stroke="black" transform="translate(128.17111412005355,276.45497843844964) rotate(164.66950040133506) scale(0.7218861236961335)" /><path d="M0,0 m-30,0 a30,30 0 1,0 60,0 a30,30 0 1,0 -60,0" fill="none" stroke="black" transform="translate(128.17111412005355,276.45497843844964) rotate(164.66950040133506) scale(0.41250635639779065)" /></g><path d="M0,0 m-30,0 a30,30 0 1,0 60,0 a30,30 0 1,0 -60,0" fill="none" stroke="black" transform="translate(311.00208402003125,234.0744374061381) rotate(251.76131579099817) scale(0.8330522125300207)" /><path d="M0,0 m-30,0 a30,30 0 1,0 60,0 a30,30 0 1,0 -60,0" fill="none" stroke="black" transform="translate(217.32391993315144,249.21600590549969) rotate(44.91624265965954) scale(1.1989894847973939)" /><g><path d="M0,0 m-30,0 a30,30 0 1,0 60,0 a30,30 0 1,0 -60,0" fill="none" stroke="black" transform="translate(240.46325320275346,163.34243720030747) rotate(293.39505507482323) scale(0.917966382531739)" /><path d="M0,0 m-30,0 a30,30 0 1,0 60,0 a30,30 0 1,0 -60,0" fill="none" stroke="black" transform="translate(240.46325320275346,163.34243720030747) rotate(293.39505507482323) scale(0.6425764677722172)" /><path d="M0,0 m-30,0 a30,30 0 1,0 60,0 a30,30 0 1,0 -60,0" fill="none" stroke="black" transform="translate(240.46325320275346,163.34243720030747) rotate(293.39505507482323) scale(0.36718655301269565)" /></g><path d="M0,0 m-30,0 a30,30 0 1,0 60,0 a30,30 0 1,0 -60,0" fill="none" stroke="black" transform="translate(290.9764354065343,316.0996405286209) rotate(275.3192775336702) scale(0.9502405965982611)" /><g><path d="M0,0 m-30,0 a30,30 0 1,0 60,0 a30,30 0 1,0 -60,0" fill="none" stroke="black" transform="translate(290.96814885016846,121.36747225662063) rotate(223.90065790377952) scale(1.1950295468132162)" /><path d="M0,0 m-30,0 a30,30 0 1,0 60,0 a30,30 0 1,0 -60,0" fill="none" stroke="black" transform="translate(290.96814885016846,121.36747225662063) rotate(223.90065790377952) scale(0.8365206827692513)" /><path d="M0,0 m-30,0 a30,30 0 1,0 60,0 a30,30 0 1,0 -60,0" fill="none" stroke="black" transform="translate(290.96814885016846,121.36747225662063) rotate(223.90065790377952) scale(0.4780118187252865)" /></g><path d="M-30,-20 h60 v40 h-60 Z" fill="none" stroke="black" transform="translate(106.17768112703291,118.88856358597897) rotate(232.07683541683457) scale(1.0801232792493451)" /><path d="M-30,-20 h60 v40 h-60 Z" fill="none" stroke="black" transform="translate(91.09749074717148,180.9099257294311) rotate(103.1818959704883) scale(1.2423077946859886)" /><path d="M-30,-20 h60 v40 h-60 Z" fill="none" stroke="black" transform="translate(260.9254595366516,218.78702522849972) rotate(292.2924840645192) scale(0.9023233973072402)" /><path d="M30,0 L15,-26 L-15,-26 L-30,0 L-15,26 L15,26 Z" fill="none" stroke="black" transform="translate(336.81320350941263,176.86463600421897) rotate(77.61409556011125) scale(0.8490956625364382)" /><g><path d="M30,0 L15,-26 L-15,-26 L-30,0 L-15,26 L15,26 Z" fill="none" stroke="black" transform="translate(256.7172983665756,67.13452153333917) rotate(94.73358989195918) scale(0.8404735330427106)" /><path d="M30,0 L15,-26 L-15,-26 L-30,0 L-15,26 L15,26 Z" fill="none" stroke="black" transform="translate(256.7172983665756,67.13452153333917) rotate(94.73358989195918) scale(0.5883314731298973)" /></g><g><path d="M30,0 L15,-26 L-15,-26 L-30,0 L-15,26 L15,26 Z" fill="none" stroke="black" transform="translate(334.2883823724683,75.03182649192772) rotate(183.41885183952547) scale(0.8287250348316191)" /><path d="M30,0 L15,-26 L-15,-26 L-30,0 L-15,26 L15,26 Z" fill="none" stroke="black" transform="translate(334.2883823724683,75.03182649192772) rotate(183.41885183952547) scale(0.5801075243821333)" /></g><g><path d="M30,0 L15,-26 L-15,-26 L-30,0 L-15,26 L15,26 Z" fill="none" stroke="black" transform="translate(302.17043089585866,274.0014100280799) rotate(342.38103563543615) scale(0.8065740581920653)" /><path d="M30,0 L15,-26 L-15,-26 L-30,0 L-15,26 L15,26 Z" fill="none" stroke="black" transform="translate(302.17043089585866,274.0014100280799) rotate(342.38103563543615) scale(0.5646018407344456)" /></g></svg>