<svg baseProfile="full" height="400" version="1.1" width="400" xmlns="http://www.w3.org/2000/svg" xmlns:ev="http://www.w3.org/2001/xml-events" xmlns:xlink="http://www.w3.org/1999/xlink"><defs /><rect fill="white" height="100%" width="100%" x="0" y="0" /><g><path d="M0.0,-30.0 L8.8,-12.1 L28.5,-9.3 L14.3,4.6 L17.6,24.3 L0.0,15.0 L-17.6,24.3 L-14.3,4.6 L-28.5,-9.3 L-8.8,-12.1 Z" fill="none" stroke="black" transform="translate(179.46932753957458,183.10424952310592) rotate(329.4082602654806) scale(1.582951529548979)" /><path d="M0.0,-30.0 L8.8,-12.1 L28.5,-9.3 L14.3,4.6 L17.6,24.3 L0.0,15.0 L-17.6,24.3 L-14.3,4.6 L-28.5,-9.3 L-8.8,-12.1 Z" fill="none" stroke="black" transform="translate(179.46932753957458,183.10424952310592) rotate(329.4082602654806) scale(1.1080660706842853)" /></g><path d="M0.0,-30.0 L8.8,-12.1 L28.5,-9.3 L14.3,4.6 L17.6,24.3 L0.0,15.0 L-17.6,24.3 L-14.3,4.6 L-28.5,-9.3 L-8.8,-12.1 Z" fill="none" stroke="black" transform="translate(285.0995548000008,272.90475881011525) rotate(314.5666597313849) scale(1.515330679083267)" /><path d="M0.0,-30.0 L8.8,-12.1 L28.5,-9.3 L14.3,4.6 L17.6,24.3 L0.0,15.0 L-17.6,24.3 L-14.3,4.6 L-28.5,-9.3 L-8.8,-12.1 Z" fill="none" stroke="black" transform="translate(146.51686422427986,305.17446199804886) rotate(48.18142961678033) scale(0.8982190237033054)" /><g><path d="M0,-30 L30,30 L-30,30 Z" fill="none" stroke="black" transform="translate(177.73576622747328,106.57025402475735) rotate(167.38639942211776) scale(1.064731642573389)" /><path d="M0,-30 L30,30 L-30,30 Z" fill="none" stroke="black" transform="translate(177.73576622747328,106.57025402475735) rotate(167.38639942211776) scale(0.7453121498013723)" /></g><g><path d="M0.0,-30.0 L28.5,-9.3 L17.6,24.3 L-17.6,24.3 L-28.5,-9.3 Z" fill="none" stroke="black" transform="translate(81.49586325317551,237.69259428980462) rotate(179.54030458796169) scale(1.1088787747876936)" /><path d="M0.0,-30.0 L28.5,-9.3 L17.6,24.3 L-17.6,24.3 L-28.5,-9.3 Z" fill="none" stroke="black" transform="translate(81.49586325317551,237.69259428980462) rotate(179.54030458796169) scale(0.7762151423513854)" /></g></svg>