<svg baseProfile="full" height="400" version="1.1" width="400" xmlns="http://www.w3.org/2000/svg" xmlns:ev="http://www.w3.org/2001/xml-events" xmlns:xlink="http://www.w3.org/1999/xlink"><defs /><rect fill="white" height="100%" width="100%" x="0" y="0" /><g><path d="M0,-30 L30,30 L-30,30 Z" fill="none" stroke="black" transform="translate(281.5424547674159,160.43144908732688) rotate(33.588382775162025) scale(1.2921524150143353)" /><path d="M0,-30 L30,30 L-30,30 Z" fill="none" stroke="black" transform="translate(281.5424547674159,160.43144908732688) rotate(33.588382775162025) scale(0.9045066905100346)" /><path d="M0,-30 L30,30 L-30,30 Z" fill="none" stroke="black" transform="translate(281.5424547674159,160.43144908732688) rotate(33.588382775162025) scale(0.5168609660057342)" /></g><path d="M0,-30 L30,30 L-30,30 Z" fill="none" stroke="black" transform="translate(201.44481509752927,247.47723247491768) rotate(132.78222452644482) scale(1.5645173125904757)" /><g><path d="M30,0 L15,-26 L-15,-26 L-30,0 L-15,26 L15,26 Z" fill="none" stroke="black" transform="translate(155.2496015557134,184.6813753611825) rotate(29.35465796321257) scale(1.3286937970225408)" /><path d="M30,0 L15,-26 L-15,-26 L-30,0 L-15,26 L15,26 Z" fill="none" stroke="black" transform="translate(155.2496015557134,184.6813753611825) rotate(29.35465796321257) scale(0.9300856579157785)" /><path d="M30,0 L15,-26 L-15,-26 L-30,0 L-15,26 L15,26 Z" fill="none" stroke="black" transform="translate(155.2496015557134,184.6813753611825) rotate(29.35465796321257) scale(0.5314775188090163)" /></g><path d="M30,0 L15,-26 L-15,-26 L-30,0 L-15,26 L15,26 Z" fill="none" stroke="black" transform="translate(119.2557352847611,288.77629335039677) rotate(300.3570438597118) scale(1.3791663000357843)" /><path d="M30,0 L15,-26 L-15,-26 L-30,0 L-15,26 L15,26 Z" fill="none" stroke="black" transform="translate(94.20335443098666,180.10854347494578) rotate(95.01213203865431) scale(0.8602341861918685)" /><path d="M30,0 L15,-26 L-15,-26 L-30,0 L-15,26 L15,26 Z" fill="none" stroke="black" transform="translate(100.43054342787825,115.06776560567477) rotate(81.12967334529276) scale(1.2544313533818676)" /><g><path d="M30,0 L15,-26 L-15,-26 L-30,0 L-15,26 L15,26 Z" fill="none" stroke="black" transform="translate(209.5988652667147,100.22674410870832) rotate(233.7404454216055) scale(1.3299188254037504)" /><path d="M30,0 L15,-26 L-15,-26 L-30,0 L-15,26 L15,26 Z" fill="none" stroke="black" transform="translate(209.5988652667147,100.22674410870832) rotate(233.7404454216055) scale(0.9309431777826253)" /></g><path d="M27.7,-11.5 L27.7,11.5 L11.5,27.7 L-11.5,27.7 L-27.7,11.5 L-27.7,-11.5 L-11.5,-27.7 L11.5,-27.7 Z" fill="none" stroke="black" transform="translate(309.69693176998186,285.77737850067933) rotate(248.8506683087121) scale(1.0319752543700718)" /><path d="M27.7,-11.5 L27.7,11.5 L11.5,27.7 L-11.5,27.7 L-27.7,11.5 L-27.7,-11.5 L-11.5,-27.7 L11.5,-27.7 Z" fill="none" stroke="black" transform="translate(262.50296597021605,298.2151068662543) rotate(153.28263521926038) scale(0.8298053113290695)" /><g><path d="M27.7,-11.5 L27.7,11.5 L11.5,27.7 L-11.5,27.7 L-27.7,11.5 L-27.7,-11.5 L-11.5,-27.7 L11.5,-27.7 Z" fill="none" stroke="black" transform="translate(285.96411712470666,243.42798138533323) rotate(238.1439711302552) scale(0.9483395738924932)" /><path d="M27.7,-11.5 L27.7,11.5 L11.5,27.7 L-11.5,27.7 L-27.7,11.5 L-27.7,-11.5 L-11.5,-27.7 L11.5,-27.7 Z" fill="none" stroke="black" transform="translate(285.96411712470666,243.42798138533323) rotate(238.1439711302552) scale(0.6638377017247452)" /><path d="M27.7,-11.5 L27.7,11.5 L11.5,27.7 L-11.5,27.7 L-27.7,11.5 L-27.7,-11.5 L-11.5,-27.7 L11.5,-27.7 Z" fill="none" stroke="black" transform="translate(285.96411712470666,243.42798138533323) rotate(238.1439711302552) scale(0.3793358295569973)" /></g><g><path d="M27.7,-11.5 L27.7,11.5 L11.5,27.7 L-11.5,27.7 L-27.7,11.5 L-27.7,-11.5 L-11.5,-27.7 L11.5,-27.7 Z" fill="none" stroke="black" transform="translate(231.7153143656742,311.606874663904) rotate(331.3291348620576) scale(0.9134404695293961)" /><path d="M27.7,-11.5 L27.7,11.5 L11.5,27.7 L-11.5,27.7 L-27.7,11.5 L-27.7,-11.5 L-11.5,-27.7 L11.5,-27.7 Z" fill="none" stroke="black" transform="translate(231.7153143656742,311.606874663904) rotate(331.3291348620576) scale(0.6394083286705772)" /></g><g><path d="M27.7,-11.5 L27.7,11.5 L11.5,27.7 L-11.5,27.7 L-27.7,11.5 L-27.7,-11.5 L-11.5,-27.7 L11.5,-27.7 Z" fill="none" stroke="black" transform="translate(338.0414702340309,100.90449233912815) rotate(145.1649170273672) scale(0.8544433215952024)" /><path d="M27.7,-11.5 L27.7,11.5 L11.5,27.7 L-11.5,27.7 L-27.7,11.5 L-27.7,-11.5 L-11.5,-27.7 L11.5,-27.7 Z" fill="none" stroke="black" transform="translate(338.0414702340309,100.90449233912815) rotate(145.1649170273672) scale(0.5981103251166416)" /><path d="M27.7,-11.5 L27.7,11.5 L11.5,27.7 L-11.5,27.7 L-27.7,11.5 L-27.7,-11.5 L-11.5,-27.7 L11.5,-27.7 Z" fill="none" stroke="black" transform="translate(338.0414702340309,100.90449233912815) rotate(145.1649170273672) scale(0.34177732863808097)" /></g><path d="M27.7,-11.5 L27.7,11.5 L11.5,27.7 L-11.5,27.7 L-27.7,11.5 L-27.7,-11.5 L-11.5,-27.7 L11.5,-27.7 Z" fill="none" stroke="black" transform="translate(149.63833105731612,74.41662272829373) rotate(66.83669633740247) scale(0.8399617789262337)" /><g><path d="M27.7,-11.5 L27.7,11.5 L11.5,27.7 L-11.5,27.7 L-27.7,11.5 L-27.7,-11.5 L-11.5,-27.7 L11.5,-27.7 Z" fill="none" stroke="black" transform="translate(240.50414120791285,197.73390556906622) rotate(220.5888030734638) scale(1.0154571330279336)" /><path d="M27.7,-11.5 L27.7,11.5 L11.5,27.7 L-11.5,27.7 L-27.7,11.5 L-27.7,-11.5 L-11.5,-27.7 L11.5,-27.7 Z" fill="none" stroke="black" transform="translate(240.50414120791285,197.73390556906622) rotate(220.5888030734638) scale(0.7108199931195535)" /><path d="M27.7,-11.5 L27.7,11.5 L11.5,27.7 L-11.5,27.7 L-27.7,11.5 L-27.7,-11.5 L-11.5,-27.7 L11.5,-27.7 Z" fill="none" stroke="black" transform="translate(240.50414120791285,197.73390556906622) rotate(220.5888030734638) scale(0.4061828532111735)" /></g></svg>