<svg baseProfile="full" height="400" version="1.1" width="400" xmlns="http://www.w3.org/2000/svg" xmlns:ev="http://www.w3.org/2001/xml-events" xmlns:xlink="http://www.w3.org/1999/xlink"><defs /><rect fill="white" height="100%" width="100%" x="0" y="0" /><path d="M27.7,-11.5 L27.7,11.5 L11.5,27.7 L-11.5,27.7 L-27.7,11.5 L-27.7,-11.5 L-11.5,-27.7 L11.5,-27.7 Z" fill="none" stroke="black" transform="translate(206.35709520514402,168.87423240194428) rotate(185.93663704764555) scale(1.9199328703007195)" /><path d="M0.0,-30.0 L8.8,-12.1 L28.5,-9.3 L14.3,4.6 L17.6,24.3 L0.0,15.0 L-17.6,24.3 L-14.3,4.6 L-28.5,-9.3 L-8.8,-12.1 Z" fill="none" stroke="black" transform="translate(104.6079239172741,309.0445225980108) rotate(193.9264038277988) scale(1.2382240821507762)" /><path d="M0,-30 L30,30 L-30,30 Z" fill="none" stroke="black" transform="translate(119.7867177815724,115.91562681201391) rotate(170.99883568898204) scale(0.9275082102962322)" /><path d="M0,-30 L30,30 L-30,30 Z" fill="none" stroke="black" transform="translate(91.67215586226942,163.84706291335326) rotate(280.75588990035266) scale(1.1685599240830815)" /><path d="M0,-30 L30,30 L-30,30 Z" fill="none" stroke="black" transform="translate(261.85331865732246,280.668437826518) rotate(261.694209407209) scale(1.165998811829098)" /></svg>