<svg baseProfile="full" height="400" version="1.1" width="400" xmlns="http://www.w3.org/2000/svg" xmlns:ev="http://www.w3.org/2001/xml-events" xmlns:xlink="http://www.w3.org/1999/xlink"><defs /><rect fill="white" height="100%" width="100%" x="0" y="0" /><path d="M-30,-20 h60 v40 h-60 Z" fill="none" stroke="black" transform="translate(163.14052343839526,200.9815533526043) rotate(332.9641343695643) scale(1.9190787274207866)" /><path d="M-30,-20 h60 v40 h-60 Z" fill="none" stroke="black" transform="translate(283.728730903088,266.81608708704096) rotate(42.815694464892104) scale(1.256638876820375)" /><g><path d="M-30,-20 h60 v40 h-60 Z" fill="none" stroke="black" transform="translate(275.2931130321422,146.1484360580444) rotate(96.23851207571657) scale(1.0880872424277261)" /><path d="M-30,-20 h60 v40 h-60 Z" fill="none" stroke="black" transform="translate(275.2931130321422,146.1484360580444) rotate(96.23851207571657) scale(0.7616610696994083)" /></g><g><path d="M30,0 L15,-26 L-15,-26 L-30,0 L-15,26 L15,26 Z" fill="none" stroke="black" transform="translate(73.16333789378312,307.41750893020696) rotate(332.1984458346315) scale(0.811923397575286)" /><path d="M30,0 L15,-26 L-15,-26 L-30,0 L-15,26 L15,26 Z" fill="none" stroke="black" transform="translate(73.16333789378312,307.41750893020696) rotate(332.1984458346315) scale(0.5683463783027002)" /></g><path d="M30,0 L15,-26 L-15,-26 L-30,0 L-15,26 L15,26 Z" fill="none" stroke="black" transform="translate(172.01573935869166,324.31861784029593) rotate(215.09713158009168) scale(0.9501282948762353)" /><path d="M30,0 L15,-26 L-15,-26 L-30,0 L-15,26 L15,26 Z" fill="none" stroke="black" transform="translate(103.21448350763241,110.1047796305686) rotate(2.2728164357300384) scale(0.8078685616022734)" /><path d="M30,0 L15,-26 L-15,-26 L-30,0 L-15,26 L15,26 Z" fill="none" stroke="black" transform="translate(199.5298106242203,76.99271452139995) rotate(250.84157305930313) scale(0.9903396400858888)" /><g><path d="M0.0,-30.0 L8.8,-12.1 L28.5,-9.3 L14.3,4.6 L17.6,24.3 L0.0,15.0 L-17.6,24.3 L-14.3,4.6 L-28.5,-9.3 L-8.8,-12.1 Z" fill="none" stroke="black" transform="translate(59.22045900373233,231.76955419435956) rotate(118.5569822962835) scale(0.8117434349937636)" /><path d="M0.0,-30.0 L8.8,-12.1 L28.5,-9.3 L14.3,4.6 L17.6,24.3 L0.0,15.0 L-17.6,24.3 L-14.3,4.6 L-28.5,-9.3 L-8.8,-12.1 Z" fill="none" stroke="black" transform="translate(59.22045900373233,231.76955419435956) rotate(118.5569822962835) scale(0.5682204044956345)" /><path d="M0.0,-30.0 L8.8,-12.1 L28.5,-9.3 L14.3,4.6 L17.6,24.3 L0.0,15.0 L-17.6,24.3 L-14.3,4.6 L-28.5,-9.3 L-8.8,-12.1 Z" fill="none" stroke="black" transform="translate(59.22045900373233,231.76955419435956) rotate(118.5569822962835) scale(0.3246973739975054)" /></g></svg>