<svg baseProfile="full" height="400" version="1.1" width="400" xmlns="http://www.w3.org/2000/svg" xmlns:ev="http://www.w3.org/2001/xml-events" xmlns:xlink="http://www.w3.org/1999/xlink"><defs /><rect fill="white" height="100%" width="100%" x="0" y="0" /><path d="M-30,-20 h60 v40 h-60 Z" fill="none" stroke="black" transform="translate(198.68498368186096,158.97068367338596) rotate(45.79774213545879) scale(1.0756594973628133)" /><g><path d="M-30,-20 h60 v40 h-60 Z" fill="none" stroke="black" transform="translate(141.06027143499574,278.50630633206674) rotate(154.50609193363832) scale(1.6848276376653937)" /><path d="M-30,-20 h60 v40 h-60 Z" fill="none" stroke="black" transform="translate(141.06027143499574,278.50630633206674) rotate(154.50609193363832) scale(1.1793793463657756)" /><path d="M-30,-20 h60 v40 h-60 Z" fill="none" stroke="black" transform="translate(141.06027143499574,278.50630633206674) rotate(154.50609193363832) scale(0.6739310550661575)" /></g><path d="M-30,-20 h60 v40 h-60 Z" fill="none" stroke="black" transform="translate(315.16164007244174,262.5008764844142) rotate(161.17048878150888) scale(0.8733086262910921)" /><path d="M-30,-20 h60 v40 h-60 Z" fill="none" stroke="black" transform="translate(102.52673929764939,108.73070714789876) rotate(281.76388034423957) scale(1.1747159013311825)" /><g><path d="M-30,-20 h60 v40 h-60 Z" fill="none" stroke="black" transform="translate(165.4198365536051,115.96904150520002) rotate(193.40394333091186) scale(1.192088128682465)" /><path d="M-30,-20 h60 v40 h-60 Z" fill="none" stroke="black" transform="translate(165.4198365536051,115.96904150520002) rotate(193.40394333091186) scale(0.8344616900777254)" /></g><path d="M-30,-20 h60 v40 h-60 Z" fill="none" stroke="black" transform="translate(251.21697411349714,133.08395216899447) rotate(233.7485918918113) scale(1.4433765675567094)" /><path d="M-30,-20 h60 v40 h-60 Z" fill="none" stroke="black" transform="translate(81.82855501137303,223.2261787847143) rotate(90.36932059743738) scale(0.9203461423674538)" /><path d="M-30,-20 h60 v40 h-60 Z" fill="none" stroke="black" transform="translate(303.3315026663591,213.23685531012575) rotate(185.08707644262387) scale(1.0299555362450945)" /><g><path d="M0,0 m-30,0 a30,30 0 1,0 60,0 a30,30 0 1,0 -60,0" fill="none" stroke="black" transform="translate(272.2411784733366,183.91328341531943) rotate(13.220258083009998) scale(0.8677150454267909)" /><path d="M0,0 m-30,0 a30,30 0 1,0 60,0 a30,30 0 1,0 -60,0" fill="none" stroke="black" transform="translate(272.2411784733366,183.91328341531943) rotate(13.220258083009998) scale(0.6074005317987536)" /></g><path d="M0,0 m-30,0 a30,30 0 1,0 60,0 a30,30 0 1,0 -60,0" fill="none" stroke="black" transform="translate(154.07464321022147,199.7114830740672) rotate(79.07554709702893) scale(1.1794084159696068)" /><g><path d="M0,0 m-30,0 a30,30 0 1,0 60,0 a30,30 0 1,0 -60,0" fill="none" stroke="black" transform="translate(72.4477533832739,323.78500300070107) rotate(187.03383326982714) scale(0.9404972438596877)" /><path d="M0,0 m-30,0 a30,30 0 1,0 60,0 a30,30 0 1,0 -60,0" fill="none" stroke="black" transform="translate(72.4477533832739,323.78500300070107) rotate(187.03383326982714) scale(0.6583480707017814)" /></g><g><path d="M0,0 m-30,0 a30,30 0 1,0 60,0 a30,30 0 1,0 -60,0" fill="none" stroke="black" transform="translate(317.10395826091457,318.5207881298756) rotate(59.51865996004432) scale(0.8259236290504908)" /><path d="M0,0 m-30,0 a30,30 0 1,0 60,0 a30,30 0 1,0 -60,0" fill="none" stroke="black" transform="translate(317.10395826091457,318.5207881298756) rotate(59.51865996004432) scale(0.5781465403353435)" /><path d="M0,0 m-30,0 a30,30 0 1,0 60,0 a30,30 0 1,0 -60,0" fill="none" stroke="black" transform="translate(317.10395826091457,318.5207881298756) rotate(59.51865996004432) scale(0.3303694516201963)" /></g><path d="M0,0 m-30,0 a30,30 0 1,0 60,0 a30,30 0 1,0 -60,0" fill="none" stroke="black" transform="translate(320.08186626033057,113.48327421910699) rotate(56.884864996372926) scale(0.9098240251975093)" /><path d="M0,0 m-30,0 a30,30 0 1,0 60,0 a30,30 0 1,0 -60,0" fill="none" stroke="black" transform="translate(92.42920251792842,163.42002189550342) rotate(319.8217571201436) scale(1.0453467738350684)" /><g><path d="M27.7,-11.5 L27.7,11.5 L11.5,27.7 L-11.5,27.7 L-27.7,11.5 L-27.7,-11.5 L-11.5,-27.7 L11.5,-27.7 Z" fill="none" stroke="black" transform="translate(235.95462620696722,248.36509191419887) rotate(48.0713140026443) scale(1.9091144533266344)" /><path d="M27.7,-11.5 L27.7,11.5 L11.5,27.7 L-11.5,27.7 L-27.7,11.5 L-27.7,-11.5 L-11.5,-27.7 L11.5,-27.7 Z" fill="none" stroke="black" transform="translate(235.95462620696722,248.36509191419887) rotate(48.0713140026443) scale(1.336380117328644)" /><path d="M27.7,-11.5 L27.7,11.5 L11.5,27.7 L-11.5,27.7 L-27.7,11.5 L-27.7,-11.5 L-11.5,-27.7 L11.5,-27.7 Z" fill="none" stroke="black" transform="translate(235.95462620696722,248.36509191419887) rotate(48.0713140026443) scale(0.7636457813306539)" /></g><g><path d="M27.7,-11.5 L27.7,11.5 L11.5,27.7 L-11.5,27.7 L-27.7,11.5 L-27.7,-11.5 L-11.5,-27.7 L11.5,-27.7 Z" fill="none" stroke="black" transform="translate(303.0923991407969,74.39830081997528) rotate(54.68379315556) scale(0.8608437540721426)" /><path d="M27.7,-11.5 L27.7,11.5 L11.5,27.7 L-11.5,27.7 L-27.7,11.5 L-27.7,-11.5 L-11.5,-27.7 L11.5,-27.7 Z" fill="none" stroke="black" transform="translate(303.0923991407969,74.39830081997528) rotate(54.68379315556) scale(0.6025906278504998)" /><path d="M27.7,-11.5 L27.7,11.5 L11.5,27.7 L-11.5,27.7 L-27.7,11.5 L-27.7,-11.5 L-11.5,-27.7 L11.5,-27.7 Z" fill="none" stroke="black" transform="translate(303.0923991407969,74.39830081997528) rotate(54.68379315556) scale(0.34433750162885707)" /></g><path d="M27.7,-11.5 L27.7,11.5 L11.5,27.7 L-11.5,27.7 L-27.7,11.5 L-27.7,-11.5 L-11.5,-27.7 L11.5,-27.7 Z" fill="none" stroke="black" transform="translate(262.86531771534635,314.8545831522497) rotate(295.7394962411382) scale(0.861857584146306)" /></svg>