<svg baseProfile="full" height="400" version="1.1" width="400" xmlns="http://www.w3.org/2000/svg" xmlns:ev="http://www.w3.org/2001/xml-events" xmlns:xlink="http://www.w3.org/1999/xlink"><defs /><rect fill="white" height="100%" width="100%" x="0" y="0" /><path d="M0,-30 L30,30 L-30,30 Z" fill="none" stroke="black" transform="translate(109.98432305821808,249.93097055051538) rotate(185.3169262482792) scale(0.9802031443238621)" /><g><path d="M0.0,-30.0 L8.8,-12.1 L28.5,-9.3 L14.3,4.6 L17.6,24.3 L0.0,15.0 L-17.6,24.3 L-14.3,4.6 L-28.5,-9.3 L-8.8,-12.1 Z" fill="none" stroke="black" transform="translate(182.76969470656138,150.18763235320884) rotate(56.900406564718395) scale(1.5895016710402845)" /><path d="M0.0,-30.0 L8.8,-12.1 L28.5,-9.3 L14.3,4.6 L17.6,24.3 L0.0,15.0 L-17.6,24.3 L-14.3,4.6 L-28.5,-9.3 L-8.8,-12.1 Z" fill="none" stroke="black" transform="translate(182.76969470656138,150.18763235320884) rotate(56.900406564718395) scale(1.112651169728199)" /></g><path d="M0.0,-30.0 L8.8,-12.1 L28.5,-9.3 L14.3,4.6 L17.6,24.3 L0.0,15.0 L-17.6,24.3 L-14.3,4.6 L-28.5,-9.3 L-8.8,-12.1 Z" fill="none" stroke="black" transform="translate(247.47937257148664,76.68934179844665) rotate(222.7031188889597) scale(0.9525729175818671)" /><path d="M27.7,-11.5 L27.7,11.5 L11.5,27.7 L-11.5,27.7 L-27.7,11.5 L-27.7,-11.5 L-11.5,-27.7 L11.5,-27.7 Z" fill="none" stroke="black" transform="translate(281.3415938073119,240.4570868785655) rotate(64.91009299286102) scale(1.2859315963998181)" /><g><path d="M0.0,-30.0 L28.5,-9.3 L17.6,24.3 L-17.6,24.3 L-28.5,-9.3 Z" fill="none" stroke="black" transform="translate(133.3282704783477,68.34696956681424) rotate(277.8116011596425) scale(0.8318422971789108)" /><path d="M0.0,-30.0 L28.5,-9.3 L17.6,24.3 L-17.6,24.3 L-28.5,-9.3 Z" fill="none" stroke="black" transform="translate(133.3282704783477,68.34696956681424) rotate(277.8116011596425) scale(0.5822896080252375)" /><path d="M0.0,-30.0 L28.5,-9.3 L17.6,24.3 L-17.6,24.3 L-28.5,-9.3 Z" fill="none" stroke="black" transform="translate(133.3282704783477,68.34696956681424) rotate(277.8116011596425) scale(0.3327369188715643)" /></g><path d="M0.0,-30.0 L28.5,-9.3 L17.6,24.3 L-17.6,24.3 L-28.5,-9.3 Z" fill="none" stroke="black" transform="translate(176.06144164285752,315.5002735879599) rotate(189.53853894252094) scale(1.1364066837161575)" /><path d="M-30,-20 h60 v40 h-60 Z" fill="none" stroke="black" transform="translate(323.35639789206016,140.68593525450183) rotate(217.12445926084507) scale(1.0438067471871428)" /><g><path d="M30,0 L15,-26 L-15,-26 L-30,0 L-15,26 L15,26 Z" fill="none" stroke="black" transform="translate(263.37526465098966,335.2156319782554) rotate(85.89243255997627) scale(0.8895700773359216)" /><path d="M30,0 L15,-26 L-15,-26 L-30,0 L-15,26 L15,26 Z" fill="none" stroke="black" transform="translate(263.37526465098966,335.2156319782554) rotate(85.89243255997627) scale(0.6226990541351451)" /></g><path d="M30,0 L15,-26 L-15,-26 L-30,0 L-15,26 L15,26 Z" fill="none" stroke="black" transform="translate(70.80549186935077,165.77522339123198) rotate(1.6846819695672588) scale(0.9417098485326241)" /></svg>