<svg baseProfile="full" height="400" version="1.1" width="400" xmlns="http://www.w3.org/2000/svg" xmlns:ev="http://www.w3.org/2001/xml-events" xmlns:xlink="http://www.w3.org/1999/xlink"><defs /><rect fill="white" height="100%" width="100%" x="0" y="0" /><g><path d="M0,-30 L30,30 L-30,30 Z" fill="none" stroke="black" transform="translate(94.3397544630974,207.0592896858586) rotate(84.27558858833673) scale(0.9234701383343271)" /><path d="M0,-30 L30,30 L-30,30 Z" fill="none" stroke="black" transform="translate(94.3397544630974,207.0592896858586) rotate(84.27558858833673) scale(0.6464290968340289)" /><path d="M0,-30 L30,30 L-30,30 Z" fill="none" stroke="black" transform="translate(94.3397544630974,207.0592896858586) rotate(84.27558858833673) scale(0.36938805533373087)" /></g><g><path d="M0,-30 L30,30 L-30,30 Z" fill="none" stroke="black" transform="translate(202.58403748786083,228.54794153572402) rotate(272.4408432191457) scale(1.7678302746596997)" /><path d="M0,-30 L30,30 L-30,30 Z" fill="none" stroke="black" transform="translate(202.58403748786083,228.54794153572402) rotate(272.4408432191457) scale(1.2374811922617897)" /><path d="M0,-30 L30,30 L-30,30 Z" fill="none" stroke="black" transform="translate(202.58403748786083,228.54794153572402) rotate(272.4408432191457) scale(0.7071321098638799)" /></g><g><path d="M0,-30 L30,30 L-30,30 Z" fill="none" stroke="black" transform="translate(298.72224292054534,315.82460934511465) rotate(341.66111174690684) scale(1.1494998559909277)" /><path d="M0,-30 L30,30 L-30,30 Z" fill="none" stroke="black" transform="translate(298.72224292054534,315.82460934511465) rotate(341.66111174690684) scale(0.8046498991936494)" /></g><g><path d="M-30,-20 h60 v40 h-60 Z" fill="none" stroke="black" transform="translate(121.8841201441914,128.25320484090417) rotate(141.83176189727118) scale(0.9615002789340512)" /><path d="M-30,-20 h60 v40 h-60 Z" fill="none" stroke="black" transform="translate(121.8841201441914,128.25320484090417) rotate(141.83176189727118) scale(0.6730501952538358)" /><path d="M-30,-20 h60 v40 h-60 Z" fill="none" stroke="black" transform="translate(121.8841201441914,128.25320484090417) rotate(141.83176189727118) scale(0.3846001115736205)" /></g><path d="M-30,-20 h60 v40 h-60 Z" fill="none" stroke="black" transform="translate(302.5057318229783,237.97759078074387) rotate(97.70705438070651) scale(1.2811691989466512)" /><path d="M-30,-20 h60 v40 h-60 Z" fill="none" stroke="black" transform="translate(197.9349301357979,86.16096578218875) rotate(269.6144268167922) scale(1.0520748407174871)" /><path d="M27.7,-11.5 L27.7,11.5 L11.5,27.7 L-11.5,27.7 L-27.7,11.5 L-27.7,-11.5 L-11.5,-27.7 L11.5,-27.7 Z" fill="none" stroke="black" transform="translate(111.25492369443558,68.10290991194111) rotate(125.51461467416354) scale(0.8936741429102777)" /><g><path d="M0,0 m-30,0 a30,30 0 1,0 60,0 a30,30 0 1,0 -60,0" fill="none" stroke="black" transform="translate(262.0210648918941,174.4805961675077) rotate(346.3010393741616) scale(1.3184323201635912)" /><path d="M0,0 m-30,0 a30,30 0 1,0 60,0 a30,30 0 1,0 -60,0" fill="none" stroke="black" transform="translate(262.0210648918941,174.4805961675077) rotate(346.3010393741616) scale(0.9229026241145138)" /><path d="M0,0 m-30,0 a30,30 0 1,0 60,0 a30,30 0 1,0 -60,0" fill="none" stroke="black" transform="translate(262.0210648918941,174.4805961675077) rotate(346.3010393741616) scale(0.5273729280654366)" /></g><path d="M0.0,-30.0 L28.5,-9.3 L17.6,24.3 L-17.6,24.3 L-28.5,-9.3 Z" fill="none" stroke="black" transform="translate(200.78319595488244,282.3608924521507) rotate(95.10360190572999) scale(1.2427048421355655)" /><g><path d="M0.0,-30.0 L28.5,-9.3 L17.6,24.3 L-17.6,24.3 L-28.5,-9.3 Z" fill="none" stroke="black" transform="translate(269.25425221570146,233.8965592766849) rotate(141.87118926987574) scale(0.8181108945196333)" /><path d="M0.0,-30.0 L28.5,-9.3 L17.6,24.3 L-17.6,24.3 L-28.5,-9.3 Z" fill="none" stroke="black" transform="translate(269.25425221570146,233.8965592766849) rotate(141.87118926987574) scale(0.5726776261637433)" /></g><path d="M0.0,-30.0 L28.5,-9.3 L17.6,24.3 L-17.6,24.3 L-28.5,-9.3 Z" fill="none" stroke="black" transform="translate(191.53707831904808,159.81768207628318) rotate(67.15584638334482) scale(1.3257501920996164)" /><path d="M0.0,-30.0 L8.8,-12.1 L28.5,-9.3 L14.3,4.6 L17.6,24.3 L0.0,15.0 L-17.6,24.3 L-14.3,4.6 L-28.5,-9.3 L-8.8,-12.1 Z" fill="none" stroke="black" transform="translate(81.49030569831568,288.8342059630372) rotate(165.60284816194033) scale(1.0241125937219597)" /><path d="M30,0 L15,-26 L-15,-26 L-30,0 L-15,26 L15,26 Z" fill="none" stroke="black" transform="translate(271.0829551060931,130.4295658224749) rotate(266.68417406477397) scale(1.218839383585076)" /><g><path d="M30,0 L15,-26 L-15,-26 L-30,0 L-15,26 L15,26 Z" fill="none" stroke="black" transform="translate(110.39854077607546,163.8724226527297) rotate(210.0611216994435) scale(1.0936885565551753)" /><path d="M30,0 L15,-26 L-15,-26 L-30,0 L-15,26 L15,26 Z" fill="none" stroke="black" transform="translate(110.39854077607546,163.8724226527297) rotate(210.0611216994435) scale(0.7655819895886227)" /></g><path d="M30,0 L15,-26 L-15,-26 L-30,0 L-15,26 L15,26 Z" fill="none" stroke="black" transform="translate(79.34823336009252,94.88835533480547) rotate(241.224071709759) scale(1.069232789171375)" /></svg>