<svg baseProfile="full" height="400" version="1.1" width="400" xmlns="http://www.w3.org/2000/svg" xmlns:ev="http://www.w3.org/2001/xml-events" xmlns:xlink="http://www.w3.org/1999/xlink"><defs /><rect fill="white" height="100%" width="100%" x="0" y="0" /><path d="M-30,-20 h60 v40 h-60 Z" fill="none" stroke="black" transform="translate(222.5561274394397,243.4304845077831) rotate(347.538311724668) scale(1.957352358957987)" /><path d="M-30,-20 h60 v40 h-60 Z" fill="none" stroke="black" transform="translate(145.79381352083084,143.26830105595718) rotate(306.55962417887815) scale(1.8899439179306008)" /><path d="M27.7,-11.5 L27.7,11.5 L11.5,27.7 L-11.5,27.7 L-27.7,11.5 L-27.7,-11.5 L-11.5,-27.7 L11.5,-27.7 Z" fill="none" stroke="black" transform="translate(230.85595353173676,325.6142692183641) rotate(65.84153205758926) scale(0.974957855459867)" /><path d="M0,-30 L30,30 L-30,30 Z" fill="none" stroke="black" transform="translate(295.01104265077794,302.0943407226037) rotate(356.38660962177204) scale(0.985376019164413)" /><path d="M0,-30 L30,30 L-30,30 Z" fill="none" stroke="black" transform="translate(256.41258178882595,160.4774875781669) rotate(219.53906891273616) scale(0.9775248208079805)" /><g><path d="M0,-30 L30,30 L-30,30 Z" fill="none" stroke="black" transform="translate(301.93082467023186,103.97723574606545) rotate(241.76735147449168) scale(1.1894785497780611)" /><path d="M0,-30 L30,30 L-30,30 Z" fill="none" stroke="black" transform="translate(301.93082467023186,103.97723574606545) rotate(241.76735147449168) scale(0.8326349848446427)" /><path d="M0,-30 L30,30 L-30,30 Z" fill="none" stroke="black" transform="translate(301.93082467023186,103.97723574606545) rotate(241.76735147449168) scale(0.4757914199112245)" /></g><path d="M0.0,-30.0 L28.5,-9.3 L17.6,24.3 L-17.6,24.3 L-28.5,-9.3 Z" fill="none" stroke="black" transform="translate(128.53009708487738,255.59580104436208) rotate(164.6032570738915) scale(1.3618194052781445)" /><g><path d="M0.0,-30.0 L28.5,-9.3 L17.6,24.3 L-17.6,24.3 L-28.5,-9.3 Z" fill="none" stroke="black" transform="translate(78.98220620656708,277.29651787821894) rotate(80.54553619228525) scale(0.8723681736115987)" /><path d="M0.0,-30.0 L28.5,-9.3 L17.6,24.3 L-17.6,24.3 L-28.5,-9.3 Z" fill="none" stroke="black" transform="translate(78.98220620656708,277.29651787821894) rotate(80.54553619228525) scale(0.610657721528119)" /><path d="M0.0,-30.0 L28.5,-9.3 L17.6,24.3 L-17.6,24.3 L-28.5,-9.3 Z" fill="none" stroke="black" transform="translate(78.98220620656708,277.29651787821894) rotate(80.54553619228525) scale(0.3489472694446395)" /></g><path d="M0.0,-30.0 L28.5,-9.3 L17.6,24.3 L-17.6,24.3 L-28.5,-9.3 Z" fill="none" stroke="black" transform="translate(140.44618555850573,296.9091857165968) rotate(77.3745990615977) scale(0.8420775456397288)" /><path d="M0.0,-30.0 L28.5,-9.3 L17.6,24.3 L-17.6,24.3 L-28.5,-9.3 Z" fill="none" stroke="black" transform="translate(108.92144101988953,72.47348340145018) rotate(68.73526823050382) scale(0.8352460239771053)" /><path d="M0.0,-30.0 L8.8,-12.1 L28.5,-9.3 L14.3,4.6 L17.6,24.3 L0.0,15.0 L-17.6,24.3 L-14.3,4.6 L-28.5,-9.3 L-8.8,-12.1 Z" fill="none" stroke="black" transform="translate(317.0141355692845,223.70620098343682) rotate(33.30709031051212) scale(0.9154955185676017)" /><path d="M0.0,-30.0 L8.8,-12.1 L28.5,-9.3 L14.3,4.6 L17.6,24.3 L0.0,15.0 L-17.6,24.3 L-14.3,4.6 L-28.5,-9.3 L-8.8,-12.1 Z" fill="none" stroke="black" transform="translate(78.37552911642317,191.27461196723436) rotate(182.44291973102378) scale(0.9229851377363796)" /><path d="M30,0 L15,-26 L-15,-26 L-30,0 L-15,26 L15,26 Z" fill="none" stroke="black" transform="translate(315.22451448684916,257.8965663279958) rotate(33.841272196359526) scale(0.972283193899381)" /><path d="M30,0 L15,-26 L-15,-26 L-30,0 L-15,26 L15,26 Z" fill="none" stroke="black" transform="translate(258.0196724523647,113.6447140612986) rotate(217.72860560593415) scale(0.9370693315648516)" /><g><path d="M30,0 L15,-26 L-15,-26 L-30,0 L-15,26 L15,26 Z" fill="none" stroke="black" transform="translate(316.50043435639884,178.3624297537907) rotate(305.8673192219839) scale(1.1246250670135876)" /><path d="M30,0 L15,-26 L-15,-26 L-30,0 L-15,26 L15,26 Z" fill="none" stroke="black" transform="translate(316.50043435639884,178.3624297537907) rotate(305.8673192219839) scale(0.7872375469095112)" /></g><path d="M30,0 L15,-26 L-15,-26 L-30,0 L-15,26 L15,26 Z" fill="none" stroke="black" transform="translate(89.91651036831878,299.44763059037535) rotate(349.54165555350477) scale(0.8235470526932114)" /><g><path d="M30,0 L15,-26 L-15,-26 L-30,0 L-15,26 L15,26 Z" fill="none" stroke="black" transform="translate(175.4075568529171,334.5060299256809) rotate(137.13406895870625) scale(0.9093841926076737)" /><path d="M30,0 L15,-26 L-15,-26 L-30,0 L-15,26 L15,26 Z" fill="none" stroke="black" transform="translate(175.4075568529171,334.5060299256809) rotate(137.13406895870625) scale(0.6365689348253716)" /><path d="M30,0 L15,-26 L-15,-26 L-30,0 L-15,26 L15,26 Z" fill="none" stroke="black" transform="translate(175.4075568529171,334.5060299256809) rotate(137.13406895870625) scale(0.3637536770430695)" /></g><path d="M0,0 m-30,0 a30,30 0 1,0 60,0 a30,30 0 1,0 -60,0" fill="none" stroke="black" transform="translate(212.2575038278697,173.69750703983516) rotate(255.8070728261463) scale(1.0431762333696122)" /><path d="M0,0 m-30,0 a30,30 0 1,0 60,0 a30,30 0 1,0 -60,0" fill="none" stroke="black" transform="translate(166.45905177396116,74.69335985257999) rotate(35.50345869669252) scale(1.001382880839463)" /></svg>