<svg baseProfile="full" height="400" version="1.1" width="400" xmlns="http://www.w3.org/2000/svg" xmlns:ev="http://www.w3.org/2001/xml-events" xmlns:xlink="http://www.w3.org/1999/xlink"><defs /><rect fill="white" height="100%" width="100%" x="0" y="0" /><g><path d="M27.7,-11.5 L27.7,11.5 L11.5,27.7 L-11.5,27.7 L-27.7,11.5 L-27.7,-11.5 L-11.5,-27.7 L11.5,-27.7 Z" fill="none" stroke="black" transform="translate(216.25471132918562,218.98096203979773) rotate(99.1692277786917) scale(1.8184085271240835)" /><path d="M27.7,-11.5 L27.7,11.5 L11.5,27.7 L-11.5,27.7 L-27.7,11.5 L-27.7,-11.5 L-11.5,-27.7 L11.5,-27.7 Z" fill="none" stroke="black" transform="translate(216.25471132918562,218.98096203979773) rotate(99.1692277786917) scale(1.2728859689868584)" /></g><path d="M0.0,-30.0 L28.5,-9.3 L17.6,24.3 L-17.6,24.3 L-28.5,-9.3 Z" fill="none" stroke="black" transform="translate(298.1437608798775,233.2588887939843) rotate(340.28898324697474) scale(0.9070155523554455)" /><g><path d="M0,0 m-30,0 a30,30 0 1,0 60,0 a30,30 0 1,0 -60,0" fill="none" stroke="black" transform="translate(153.26067616071813,159.09991325450954) rotate(243.86925733543947) scale(1.3039383432780505)" /><path d="M0,0 m-30,0 a30,30 0 1,0 60,0 a30,30 0 1,0 -60,0" fill="none" stroke="black" transform="translate(153.26067616071813,159.09991325450954) rotate(243.86925733543947) scale(0.9127568402946352)" /></g><g><path d="M0,0 m-30,0 a30,30 0 1,0 60,0 a30,30 0 1,0 -60,0" fill="none" stroke="black" transform="translate(199.82256034799016,89.36377767308106) rotate(141.0652200074436) scale(0.9654841085960284)" /><path d="M0,0 m-30,0 a30,30 0 1,0 60,0 a30,30 0 1,0 -60,0" fill="none" stroke="black" transform="translate(199.82256034799016,89.36377767308106) rotate(141.0652200074436) scale(0.6758388760172198)" /></g><g><path d="M0,-30 L30,30 L-30,30 Z" fill="none" stroke="black" transform="translate(185.51435269991362,290.65989769362744) rotate(353.58508616190943) scale(1.3769846490515354)" /><path d="M0,-30 L30,30 L-30,30 Z" fill="none" stroke="black" transform="translate(185.51435269991362,290.65989769362744) rotate(353.58508616190943) scale(0.9638892543360748)" /><path d="M0,-30 L30,30 L-30,30 Z" fill="none" stroke="black" transform="translate(185.51435269991362,290.65989769362744) rotate(353.58508616190943) scale(0.5507938596206142)" /></g><path d="M0,-30 L30,30 L-30,30 Z" fill="none" stroke="black" transform="translate(313.6350065951677,211.57130626446738) rotate(251.93845011280604) scale(0.8392021763259944)" /><path d="M0.0,-30.0 L8.8,-12.1 L28.5,-9.3 L14.3,4.6 L17.6,24.3 L0.0,15.0 L-17.6,24.3 L-14.3,4.6 L-28.5,-9.3 L-8.8,-12.1 Z" fill="none" stroke="black" transform="translate(275.61770520376524,129.83223767112403) rotate(271.9861005914449) scale(1.6114229962605675)" /><path d="M0.0,-30.0 L8.8,-12.1 L28.5,-9.3 L14.3,4.6 L17.6,24.3 L0.0,15.0 L-17.6,24.3 L-14.3,4.6 L-28.5,-9.3 L-8.8,-12.1 Z" fill="none" stroke="black" transform="translate(116.0371752517073,260.9915256511683) rotate(280.6345981782011) scale(1.4469976446022481)" /><g><path d="M0.0,-30.0 L8.8,-12.1 L28.5,-9.3 L14.3,4.6 L17.6,24.3 L0.0,15.0 L-17.6,24.3 L-14.3,4.6 L-28.5,-9.3 L-8.8,-12.1 Z" fill="none" stroke="black" transform="translate(113.26141342174012,118.87995063658958) rotate(33.13790126805117) scale(1.3478475065472517)" /><path d="M0.0,-30.0 L8.8,-12.1 L28.5,-9.3 L14.3,4.6 L17.6,24.3 L0.0,15.0 L-17.6,24.3 L-14.3,4.6 L-28.5,-9.3 L-8.8,-12.1 Z" fill="none" stroke="black" transform="translate(113.26141342174012,118.87995063658958) rotate(33.13790126805117) scale(0.9434932545830761)" /><path d="M0.0,-30.0 L8.8,-12.1 L28.5,-9.3 L14.3,4.6 L17.6,24.3 L0.0,15.0 L-17.6,24.3 L-14.3,4.6 L-28.5,-9.3 L-8.8,-12.1 Z" fill="none" stroke="black" transform="translate(113.26141342174012,118.87995063658958) rotate(33.13790126805117) scale(0.5391390026189007)" /></g><path d="M0.0,-30.0 L8.8,-12.1 L28.5,-9.3 L14.3,4.6 L17.6,24.3 L0.0,15.0 L-17.6,24.3 L-14.3,4.6 L-28.5,-9.3 L-8.8,-12.1 Z" fill="none" stroke="black" transform="translate(244.0301310995839,299.8603977439127) rotate(275.1408297179289) scale(1.2392058378721584)" /><path d="M-30,-20 h60 v40 h-60 Z" fill="none" stroke="black" transform="translate(92.65408121525225,165.84568855589208) rotate(140.09866415326366) scale(1.2470306430140041)" /><path d="M-30,-20 h60 v40 h-60 Z" fill="none" stroke="black" transform="translate(228.95155162222346,145.34004064648613) rotate(149.77368353875877) scale(0.8975623113855108)" /><path d="M-30,-20 h60 v40 h-60 Z" fill="none" stroke="black" transform="translate(72.25272832711372,115.93280488345974) rotate(139.7219558106763) scale(0.951753083925003)" /><path d="M-30,-20 h60 v40 h-60 Z" fill="none" stroke="black" transform="translate(86.45704454506384,69.72929861736523) rotate(2.675198741609748) scale(0.8912511041288)" /><g><path d="M30,0 L15,-26 L-15,-26 L-30,0 L-15,26 L15,26 Z" fill="none" stroke="black" transform="translate(291.52736908451715,91.20174730317468) rotate(1.7262466733023807) scale(0.879808336062297)" /><path d="M30,0 L15,-26 L-15,-26 L-30,0 L-15,26 L15,26 Z" fill="none" stroke="black" transform="translate(291.52736908451715,91.20174730317468) rotate(1.7262466733023807) scale(0.6158658352436078)" /></g><g><path d="M30,0 L15,-26 L-15,-26 L-30,0 L-15,26 L15,26 Z" fill="none" stroke="black" transform="translate(322.91377367127154,189.3910097188418) rotate(230.55668632969818) scale(0.8338407293311841)" /><path d="M30,0 L15,-26 L-15,-26 L-30,0 L-15,26 L15,26 Z" fill="none" stroke="black" transform="translate(322.91377367127154,189.3910097188418) rotate(230.55668632969818) scale(0.5836885105318289)" /><path d="M30,0 L15,-26 L-15,-26 L-30,0 L-15,26 L15,26 Z" fill="none" stroke="black" transform="translate(322.91377367127154,189.3910097188418) rotate(230.55668632969818) scale(0.3335362917324737)" /></g></svg>