<svg baseProfile="full" height="400" version="1.1" width="400" xmlns="http://www.w3.org/2000/svg" xmlns:ev="http://www.w3.org/2001/xml-events" xmlns:xlink="http://www.w3.org/1999/xlink"><defs /><rect fill="white" height="100%" width="100%" x="0" y="0" /><path d="M0.0,-30.0 L8.8,-12.1 L28.5,-9.3 L14.3,4.6 L17.6,24.3 L0.0,15.0 L-17.6,24.3 L-14.3,4.6 L-28.5,-9.3 L-8.8,-12.1 Z" fill="none" stroke="black" transform="translate(107.55366536280032,144.81398827597408) rotate(5.650162581652425) scale(1.1609259433250683)" /><path d="M-30,-20 h60 v40 h-60 Z" fill="none" stroke="black" transform="translate(213.53631341418242,253.47514709630465) rotate(292.44205406447907) scale(1.5574629243724059)" /><path d="M-30,-20 h60 v40 h-60 Z" fill="none" stroke="black" transform="translate(297.88092744234973,290.4705607431008) rotate(232.2263159260664) scale(0.8398053009505451)" /><g><path d="M-30,-20 h60 v40 h-60 Z" fill="none" stroke="black" transform="translate(247.39313392425493,123.71807314751574) rotate(166.79934766376667) scale(1.4924520059860722)" /><path d="M-30,-20 h60 v40 h-60 Z" fill="none" stroke="black" transform="translate(247.39313392425493,123.71807314751574) rotate(166.79934766376667) scale(1.0447164041902506)" /></g><g><path d="M0,0 m-30,0 a30,30 0 1,0 60,0 a30,30 0 1,0 -60,0" fill="none" stroke="black" transform="translate(74.54973330218824,296.45930571696323) rotate(270.34619729920746) scale(0.9346521951779743)" /><path d="M0,0 m-30,0 a30,30 0 1,0 60,0 a30,30 0 1,0 -60,0" fill="none" stroke="black" transform="translate(74.54973330218824,296.45930571696323) rotate(270.34619729920746) scale(0.6542565366245819)" /></g></svg>