<svg baseProfile="full" height="400" version="1.1" width="400" xmlns="http://www.w3.org/2000/svg" xmlns:ev="http://www.w3.org/2001/xml-events" xmlns:xlink="http://www.w3.org/1999/xlink"><defs /><rect fill="white" height="100%" width="100%" x="0" y="0" /><path d="M27.7,-11.5 L27.7,11.5 L11.5,27.7 L-11.5,27.7 L-27.7,11.5 L-27.7,-11.5 L-11.5,-27.7 L11.5,-27.7 Z" fill="none" stroke="black" transform="translate(131.54919481887697,235.62443381401042) rotate(213.18485644252172) scale(1.6915219394700411)" /><g><path d="M0.0,-30.0 L28.5,-9.3 L17.6,24.3 L-17.6,24.3 L-28.5,-9.3 Z" fill="none" stroke="black" transform="translate(261.7797664643439,195.804002477825) rotate(150.00003476863392) scale(1.9064749177418752)" /><path d="M0.0,-30.0 L28.5,-9.3 L17.6,24.3 L-17.6,24.3 L-28.5,-9.3 Z" fill="none" stroke="black" transform="translate(261.7797664643439,195.804002477825) rotate(150.00003476863392) scale(1.3345324424193126)" /><path d="M0.0,-30.0 L28.5,-9.3 L17.6,24.3 L-17.6,24.3 L-28.5,-9.3 Z" fill="none" stroke="black" transform="translate(261.7797664643439,195.804002477825) rotate(150.00003476863392) scale(0.7625899670967501)" /></g><path d="M0.0,-30.0 L28.5,-9.3 L17.6,24.3 L-17.6,24.3 L-28.5,-9.3 Z" fill="none" stroke="black" transform="translate(243.57182730996163,289.1238732461732) rotate(220.43835783740982) scale(1.1717172458080776)" /><path d="M-30,-20 h60 v40 h-60 Z" fill="none" stroke="black" transform="translate(150.62018028939883,156.7834707306274) rotate(137.72169176335353) scale(1.3120394697888762)" /><path d="M-30,-20 h60 v40 h-60 Z" fill="none" stroke="black" transform="translate(176.52265919166473,313.0090158366055) rotate(244.44995177963753) scale(1.0480581789253465)" /><g><path d="M-30,-20 h60 v40 h-60 Z" fill="none" stroke="black" transform="translate(299.55305780112025,268.2726789471523) rotate(207.8669116215586) scale(1.2264445482664332)" /><path d="M-30,-20 h60 v40 h-60 Z" fill="none" stroke="black" transform="translate(299.55305780112025,268.2726789471523) rotate(207.8669116215586) scale(0.8585111837865033)" /></g></svg>