<svg baseProfile="full" height="400" version="1.1" width="400" xmlns="http://www.w3.org/2000/svg" xmlns:ev="http://www.w3.org/2001/xml-events" xmlns:xlink="http://www.w3.org/1999/xlink"><defs /><rect fill="white" height="100%" width="100%" x="0" y="0" /><g><path d="M-30,-20 h60 v40 h-60 Z" fill="none" stroke="black" transform="translate(97.62189573951312,110.8400781745579) rotate(138.32022891908505) scale(1.1895789731684354)" /><path d="M-30,-20 h60 v40 h-60 Z" fill="none" stroke="black" transform="translate(97.62189573951312,110.8400781745579) rotate(138.32022891908505) scale(0.8327052812179048)" /></g><g><path d="M0,-30 L30,30 L-30,30 Z" fill="none" stroke="black" transform="translate(186.2641630250062,166.0504272729961) rotate(18.79106274200008) scale(1.9298458183253269)" /><path d="M0,-30 L30,30 L-30,30 Z" fill="none" stroke="black" transform="translate(186.2641630250062,166.0504272729961) rotate(18.79106274200008) scale(1.3508920728277287)" /><path d="M0,-30 L30,30 L-30,30 Z" fill="none" stroke="black" transform="translate(186.2641630250062,166.0504272729961) rotate(18.79106274200008) scale(0.7719383273301308)" /></g><path d="M0,-30 L30,30 L-30,30 Z" fill="none" stroke="black" transform="translate(325.5707127243138,260.5588940028007) rotate(306.2455221671156) scale(1.0040168165691044)" /><g><path d="M0,-30 L30,30 L-30,30 Z" fill="none" stroke="black" transform="translate(279.61488372457393,111.64996443575146) rotate(215.75725928476473) scale(0.9429394527671174)" /><path d="M0,-30 L30,30 L-30,30 Z" fill="none" stroke="black" transform="translate(279.61488372457393,111.64996443575146) rotate(215.75725928476473) scale(0.6600576169369822)" /><path d="M0,-30 L30,30 L-30,30 Z" fill="none" stroke="black" transform="translate(279.61488372457393,111.64996443575146) rotate(215.75725928476473) scale(0.377175781106847)" /></g><g><path d="M27.7,-11.5 L27.7,11.5 L11.5,27.7 L-11.5,27.7 L-27.7,11.5 L-27.7,-11.5 L-11.5,-27.7 L11.5,-27.7 Z" fill="none" stroke="black" transform="translate(147.68418721212453,256.0824030628419) rotate(305.0707305649802) scale(1.3102957608870907)" /><path d="M27.7,-11.5 L27.7,11.5 L11.5,27.7 L-11.5,27.7 L-27.7,11.5 L-27.7,-11.5 L-11.5,-27.7 L11.5,-27.7 Z" fill="none" stroke="black" transform="translate(147.68418721212453,256.0824030628419) rotate(305.0707305649802) scale(0.9172070326209634)" /><path d="M27.7,-11.5 L27.7,11.5 L11.5,27.7 L-11.5,27.7 L-27.7,11.5 L-27.7,-11.5 L-11.5,-27.7 L11.5,-27.7 Z" fill="none" stroke="black" transform="translate(147.68418721212453,256.0824030628419) rotate(305.0707305649802) scale(0.5241183043548363)" /></g><g><path d="M27.7,-11.5 L27.7,11.5 L11.5,27.7 L-11.5,27.7 L-27.7,11.5 L-27.7,-11.5 L-11.5,-27.7 L11.5,-27.7 Z" fill="none" stroke="black" transform="translate(287.91209327276385,205.97400971059668) rotate(127.79416381747282) scale(0.9026973952664984)" /><path d="M27.7,-11.5 L27.7,11.5 L11.5,27.7 L-11.5,27.7 L-27.7,11.5 L-27.7,-11.5 L-11.5,-27.7 L11.5,-27.7 Z" fill="none" stroke="black" transform="translate(287.91209327276385,205.97400971059668) rotate(127.79416381747282) scale(0.6318881766865488)" /></g><path d="M27.7,-11.5 L27.7,11.5 L11.5,27.7 L-11.5,27.7 L-27.7,11.5 L-27.7,-11.5 L-11.5,-27.7 L11.5,-27.7 Z" fill="none" stroke="black" transform="translate(238.62231683358334,272.7678547612294) rotate(289.8455538504395) scale(1.395853672200543)" /></svg>