<svg baseProfile="full" height="400" version="1.1" width="400" xmlns="http://www.w3.org/2000/svg" xmlns:ev="http://www.w3.org/2001/xml-events" xmlns:xlink="http://www.w3.org/1999/xlink"><defs /><rect fill="white" height="100%" width="100%" x="0" y="0" /><path d="M27.7,-11.5 L27.7,11.5 L11.5,27.7 L-11.5,27.7 L-27.7,11.5 L-27.7,-11.5 L-11.5,-27.7 L11.5,-27.7 Z" fill="none" stroke="black" transform="translate(103.24207561944337,274.6909346129012) rotate(201.83922981090882) scale(0.9690184264710399)" /><path d="M27.7,-11.5 L27.7,11.5 L11.5,27.7 L-11.5,27.7 L-27.7,11.5 L-27.7,-11.5 L-11.5,-27.7 L11.5,-27.7 Z" fill="none" stroke="black" transform="translate(200.49300890374758,226.0433866663097) rotate(230.84822570458053) scale(1.9184274546560782)" /><g><path d="M0,0 m-30,0 a30,30 0 1,0 60,0 a30,30 0 1,0 -60,0" fill="none" stroke="black" transform="translate(259.6328098096611,155.39254735746513) rotate(242.49036838656812) scale(1.3107326089262803)" /><path d="M0,0 m-30,0 a30,30 0 1,0 60,0 a30,30 0 1,0 -60,0" fill="none" stroke="black" transform="translate(259.6328098096611,155.39254735746513) rotate(242.49036838656812) scale(0.9175128262483961)" /><path d="M0,0 m-30,0 a30,30 0 1,0 60,0 a30,30 0 1,0 -60,0" fill="none" stroke="black" transform="translate(259.6328098096611,155.39254735746513) rotate(242.49036838656812) scale(0.5242930435705121)" /></g><path d="M30,0 L15,-26 L-15,-26 L-30,0 L-15,26 L15,26 Z" fill="none" stroke="black" transform="translate(282.0363982317884,80.08522669376116) rotate(294.63322787366985) scale(1.0474125105114136)" /><g><path d="M30,0 L15,-26 L-15,-26 L-30,0 L-15,26 L15,26 Z" fill="none" stroke="black" transform="translate(120.65441786697718,140.17157587366563) rotate(54.4547098038759) scale(1.2727022773193033)" /><path d="M30,0 L15,-26 L-15,-26 L-30,0 L-15,26 L15,26 Z" fill="none" stroke="black" transform="translate(120.65441786697718,140.17157587366563) rotate(54.4547098038759) scale(0.8908915941235123)" /><path d="M30,0 L15,-26 L-15,-26 L-30,0 L-15,26 L15,26 Z" fill="none" stroke="black" transform="translate(120.65441786697718,140.17157587366563) rotate(54.4547098038759) scale(0.5090809109277213)" /></g></svg>