<svg baseProfile="full" height="400" version="1.1" width="400" xmlns="http://www.w3.org/2000/svg" xmlns:ev="http://www.w3.org/2001/xml-events" xmlns:xlink="http://www.w3.org/1999/xlink"><defs /><rect fill="white" height="100%" width="100%" x="0" y="0" /><g><path d="M0,0 m-30,0 a30,30 0 1,0 60,0 a30,30 0 1,0 -60,0" fill="none" stroke="black" transform="translate(202.8236764011584,175.70851627915098) rotate(230.1228294113126) scale(1.0004289489762783)" /><path d="M0,0 m-30,0 a30,30 0 1,0 60,0 a30,30 0 1,0 -60,0" fill="none" stroke="black" transform="translate(202.8236764011584,175.70851627915098) rotate(230.1228294113126) scale(0.7003002642833948)" /><path d="M0,0 m-30,0 a30,30 0 1,0 60,0 a30,30 0 1,0 -60,0" fill="none" stroke="black" transform="translate(202.8236764011584,175.70851627915098) rotate(230.1228294113126) scale(0.40017157959051136)" /></g><path d="M0,0 m-30,0 a30,30 0 1,0 60,0 a30,30 0 1,0 -60,0" fill="none" stroke="black" transform="translate(235.8133346434474,287.8094762367809) rotate(1.293680421787391) scale(1.5207036591066436)" /><path d="M0,0 m-30,0 a30,30 0 1,0 60,0 a30,30 0 1,0 -60,0" fill="none" stroke="black" transform="translate(98.46842787166767,288.1761661238928) rotate(199.51606027284444) scale(1.0566238977595925)" /><path d="M0,0 m-30,0 a30,30 0 1,0 60,0 a30,30 0 1,0 -60,0" fill="none" stroke="black" transform="translate(281.62213830559654,109.72555100184597) rotate(157.64523216099582) scale(1.297837709733723)" /><path d="M0,0 m-30,0 a30,30 0 1,0 60,0 a30,30 0 1,0 -60,0" fill="none" stroke="black" transform="translate(62.565636044905055,186.48800617153654) rotate(333.4129844426484) scale(0.8450181068676137)" /><g><path d="M0,0 m-30,0 a30,30 0 1,0 60,0 a30,30 0 1,0 -60,0" fill="none" stroke="black" transform="translate(315.09465970039884,217.9537166645247) rotate(229.8617369916225) scale(0.9237138817029128)" /><path d="M0,0 m-30,0 a30,30 0 1,0 60,0 a30,30 0 1,0 -60,0" fill="none" stroke="black" transform="translate(315.09465970039884,217.9537166645247) rotate(229.8617369916225) scale(0.6465997171920389)" /></g><g><path d="M0,0 m-30,0 a30,30 0 1,0 60,0 a30,30 0 1,0 -60,0" fill="none" stroke="black" transform="translate(88.24129871273888,116.39970076264747) rotate(295.0240676980552) scale(0.8389425668610333)" /><path d="M0,0 m-30,0 a30,30 0 1,0 60,0 a30,30 0 1,0 -60,0" fill="none" stroke="black" transform="translate(88.24129871273888,116.39970076264747) rotate(295.0240676980552) scale(0.5872597968027232)" /></g><path d="M-30,-20 h60 v40 h-60 Z" fill="none" stroke="black" transform="translate(185.9620725059691,75.94908490459616) rotate(302.2499267818748) scale(1.0389950546656561)" /><path d="M-30,-20 h60 v40 h-60 Z" fill="none" stroke="black" transform="translate(328.0415571126907,333.0590494170991) rotate(9.465566706038633) scale(0.8347459674603258)" /><g><path d="M27.7,-11.5 L27.7,11.5 L11.5,27.7 L-11.5,27.7 L-27.7,11.5 L-27.7,-11.5 L-11.5,-27.7 L11.5,-27.7 Z" fill="none" stroke="black" transform="translate(129.45351631405336,187.50592923706702) rotate(70.6191378533181) scale(0.8071205965242095)" /><path d="M27.7,-11.5 L27.7,11.5 L11.5,27.7 L-11.5,27.7 L-27.7,11.5 L-27.7,-11.5 L-11.5,-27.7 L11.5,-27.7 Z" fill="none" stroke="black" transform="translate(129.45351631405336,187.50592923706702) rotate(70.6191378533181) scale(0.5649844175669466)" /><path d="M27.7,-11.5 L27.7,11.5 L11.5,27.7 L-11.5,27.7 L-27.7,11.5 L-27.7,-11.5 L-11.5,-27.7 L11.5,-27.7 Z" fill="none" stroke="black" transform="translate(129.45351631405336,187.50592923706702) rotate(70.6191378533181) scale(0.3228482386096838)" /></g></svg>