<svg baseProfile="full" height="400" version="1.1" width="400" xmlns="http://www.w3.org/2000/svg" xmlns:ev="http://www.w3.org/2001/xml-events" xmlns:xlink="http://www.w3.org/1999/xlink"><defs /><rect fill="white" height="100%" width="100%" x="0" y="0" /><path d="M-30,-20 h60 v40 h-60 Z" fill="none" stroke="black" transform="translate(311.58208810726956,274.3980221180517) rotate(339.95299742530267) scale(1.0772815672086085)" /><path d="M-30,-20 h60 v40 h-60 Z" fill="none" stroke="black" transform="translate(130.1282105502303,205.45257580695517) rotate(19.826234872975455) scale(1.7568930679392338)" /><path d="M-30,-20 h60 v40 h-60 Z" fill="none" stroke="black" transform="translate(222.6942232287052,277.35789330375655) rotate(224.79916934622617) scale(1.659328350212919)" /><path d="M-30,-20 h60 v40 h-60 Z" fill="none" stroke="black" transform="translate(128.94181790216393,282.38791100921446) rotate(160.77945878618837) scale(0.903311154080241)" /><path d="M-30,-20 h60 v40 h-60 Z" fill="none" stroke="black" transform="translate(255.86698198426615,171.5281757076069) rotate(66.18196039004492) scale(1.301885129489499)" /><path d="M-30,-20 h60 v40 h-60 Z" fill="none" stroke="black" transform="translate(66.17912617683905,96.59430782577176) rotate(345.2930019123955) scale(0.899988226401695)" /><path d="M-30,-20 h60 v40 h-60 Z" fill="none" stroke="black" transform="translate(156.88405249036492,63.304995893717546) rotate(111.40095379922823) scale(0.8651524154322181)" /><path d="M-30,-20 h60 v40 h-60 Z" fill="none" stroke="black" transform="translate(102.85569759483789,330.77315153297053) rotate(276.86118298134255) scale(0.8784357166156557)" /><path d="M0.0,-30.0 L28.5,-9.3 L17.6,24.3 L-17.6,24.3 L-28.5,-9.3 Z" fill="none" stroke="black" transform="translate(333.8609886483302,66.95839799082083) rotate(155.07041683597228) scale(0.8133786489039323)" /><path d="M0.0,-30.0 L28.5,-9.3 L17.6,24.3 L-17.6,24.3 L-28.5,-9.3 Z" fill="none" stroke="black" transform="translate(113.02340875357022,89.45751064222023) rotate(106.5392503133052) scale(0.9651971978660376)" /><g><path d="M0.0,-30.0 L28.5,-9.3 L17.6,24.3 L-17.6,24.3 L-28.5,-9.3 Z" fill="none" stroke="black" transform="translate(217.05173487076274,87.50029149549883) rotate(98.66490426296751) scale(0.8564033562461533)" /><path d="M0.0,-30.0 L28.5,-9.3 L17.6,24.3 L-17.6,24.3 L-28.5,-9.3 Z" fill="none" stroke="black" transform="translate(217.05173487076274,87.50029149549883) rotate(98.66490426296751) scale(0.5994823493723073)" /><path d="M0.0,-30.0 L28.5,-9.3 L17.6,24.3 L-17.6,24.3 L-28.5,-9.3 Z" fill="none" stroke="black" transform="translate(217.05173487076274,87.50029149549883) rotate(98.66490426296751) scale(0.3425613424984613)" /></g><path d="M0.0,-30.0 L28.5,-9.3 L17.6,24.3 L-17.6,24.3 L-28.5,-9.3 Z" fill="none" stroke="black" transform="translate(306.6299881092036,217.3363273941053) rotate(144.18063499489756) scale(1.002029704959087)" /><path d="M0.0,-30.0 L28.5,-9.3 L17.6,24.3 L-17.6,24.3 L-28.5,-9.3 Z" fill="none" stroke="black" transform="translate(290.27772492871776,336.14015385666795) rotate(142.7165561618735) scale(0.8848060099321166)" /><path d="M0.0,-30.0 L28.5,-9.3 L17.6,24.3 L-17.6,24.3 L-28.5,-9.3 Z" fill="none" stroke="black" transform="translate(169.78195586032592,129.96917585001677) rotate(288.03531627623187) scale(0.9227529499219156)" /><path d="M0.0,-30.0 L28.5,-9.3 L17.6,24.3 L-17.6,24.3 L-28.5,-9.3 Z" fill="none" stroke="black" transform="translate(301.8368256845814,134.62383994452995) rotate(247.84656191788233) scale(0.977332631124205)" /><g><path d="M30,0 L15,-26 L-15,-26 L-30,0 L-15,26 L15,26 Z" fill="none" stroke="black" transform="translate(176.76061389579036,324.6121702938986) rotate(232.63593674310079) scale(1.026529195911205)" /><path d="M30,0 L15,-26 L-15,-26 L-30,0 L-15,26 L15,26 Z" fill="none" stroke="black" transform="translate(176.76061389579036,324.6121702938986) rotate(232.63593674310079) scale(0.7185704371378435)" /><path d="M30,0 L15,-26 L-15,-26 L-30,0 L-15,26 L15,26 Z" fill="none" stroke="black" transform="translate(176.76061389579036,324.6121702938986) rotate(232.63593674310079) scale(0.41061167836448204)" /></g><path d="M30,0 L15,-26 L-15,-26 L-30,0 L-15,26 L15,26 Z" fill="none" stroke="black" transform="translate(277.26396404562513,87.38047715336015) rotate(179.640427670403) scale(0.9053866895035099)" /><path d="M0,0 m-30,0 a30,30 0 1,0 60,0 a30,30 0 1,0 -60,0" fill="none" stroke="black" transform="translate(204.20239079503838,200.1897499732074) rotate(289.46064841496656) scale(0.8210968714988683)" /><path d="M0,-30 L30,30 L-30,30 Z" fill="none" stroke="black" transform="translate(76.95890286152579,259.71173865741036) rotate(13.461878538517592) scale(0.9634738681960181)" /><path d="M0,-30 L30,30 L-30,30 Z" fill="none" stroke="black" transform="translate(325.58804421878216,317.1597719434322) rotate(155.3008571264048) scale(0.9003439479147716)" /><path d="M0,-30 L30,30 L-30,30 Z" fill="none" stroke="black" transform="translate(63.57824128478467,308.2543565337517) rotate(331.89346371266174) scale(0.8167155705597483)" /><path d="M0,-30 L30,30 L-30,30 Z" fill="none" stroke="black" transform="translate(62.18498189631523,141.93452599451336) rotate(283.0978573563361) scale(0.8559426864598813)" /></svg>