<svg baseProfile="full" height="400" version="1.1" width="400" xmlns="http://www.w3.org/2000/svg" xmlns:ev="http://www.w3.org/2001/xml-events" xmlns:xlink="http://www.w3.org/1999/xlink"><defs /><rect fill="white" height="100%" width="100%" x="0" y="0" /><g><path d="M0.0,-30.0 L28.5,-9.3 L17.6,24.3 L-17.6,24.3 L-28.5,-9.3 Z" fill="none" stroke="black" transform="translate(81.84021973894284,79.29687702292043) rotate(119.42210427554802) scale(0.8661097632830881)" /><path d="M0.0,-30.0 L28.5,-9.3 L17.6,24.3 L-17.6,24.3 L-28.5,-9.3 Z" fill="none" stroke="black" transform="translate(81.84021973894284,79.29687702292043) rotate(119.42210427554802) scale(0.6062768342981616)" /></g><path d="M0.0,-30.0 L28.5,-9.3 L17.6,24.3 L-17.6,24.3 L-28.5,-9.3 Z" fill="none" stroke="black" transform="translate(223.3378758517211,137.8170805534716) rotate(316.35801192700467) scale(1.4785645143045967)" /><path d="M0.0,-30.0 L28.5,-9.3 L17.6,24.3 L-17.6,24.3 L-28.5,-9.3 Z" fill="none" stroke="black" transform="translate(142.56616367191504,184.00203444473306) rotate(322.2418086269623) scale(1.4975647588851968)" /><path d="M0.0,-30.0 L28.5,-9.3 L17.6,24.3 L-17.6,24.3 L-28.5,-9.3 Z" fill="none" stroke="black" transform="translate(313.2600513069158,208.2718474315005) rotate(337.12304952677715) scale(1.0569618416134055)" /><g><path d="M0.0,-30.0 L28.5,-9.3 L17.6,24.3 L-17.6,24.3 L-28.5,-9.3 Z" fill="none" stroke="black" transform="translate(237.24817919635646,273.9243945588446) rotate(93.06729056263234) scale(1.4581979708009918)" /><path d="M0.0,-30.0 L28.5,-9.3 L17.6,24.3 L-17.6,24.3 L-28.5,-9.3 Z" fill="none" stroke="black" transform="translate(237.24817919635646,273.9243945588446) rotate(93.06729056263234) scale(1.0207385795606942)" /></g><path d="M0.0,-30.0 L28.5,-9.3 L17.6,24.3 L-17.6,24.3 L-28.5,-9.3 Z" fill="none" stroke="black" transform="translate(304.8180673427075,112.09300213439838) rotate(194.33786484301248) scale(0.8718351741437667)" /><g><path d="M0.0,-30.0 L28.5,-9.3 L17.6,24.3 L-17.6,24.3 L-28.5,-9.3 Z" fill="none" stroke="black" transform="translate(170.21217959419184,91.08797822685887) rotate(197.25330242725929) scale(0.8584207102678234)" /><path d="M0.0,-30.0 L28.5,-9.3 L17.6,24.3 L-17.6,24.3 L-28.5,-9.3 Z" fill="none" stroke="black" transform="translate(170.21217959419184,91.08797822685887) rotate(197.25330242725929) scale(0.6008944971874763)" /><path d="M0.0,-30.0 L28.5,-9.3 L17.6,24.3 L-17.6,24.3 L-28.5,-9.3 Z" fill="none" stroke="black" transform="translate(170.21217959419184,91.08797822685887) rotate(197.25330242725929) scale(0.3433682841071294)" /></g><path d="M0.0,-30.0 L28.5,-9.3 L17.6,24.3 L-17.6,24.3 L-28.5,-9.3 Z" fill="none" stroke="black" transform="translate(170.55285573601176,288.6082732477617) rotate(183.94913962654255) scale(1.0894921640294883)" /><path d="M0.0,-30.0 L28.5,-9.3 L17.6,24.3 L-17.6,24.3 L-28.5,-9.3 Z" fill="none" stroke="black" transform="translate(211.11862539413622,219.94916171662587) rotate(182.83054776487498) scale(0.8896796422860168)" /><path d="M30,0 L15,-26 L-15,-26 L-30,0 L-15,26 L15,26 Z" fill="none" stroke="black" transform="translate(302.4861157684509,284.75765606093444) rotate(111.57978110635963) scale(0.824235837803226)" /><g><path d="M30,0 L15,-26 L-15,-26 L-30,0 L-15,26 L15,26 Z" fill="none" stroke="black" transform="translate(75.07494835427046,223.29820507625402) rotate(185.70275984191642) scale(0.9282454157987302)" /><path d="M30,0 L15,-26 L-15,-26 L-30,0 L-15,26 L15,26 Z" fill="none" stroke="black" transform="translate(75.07494835427046,223.29820507625402) rotate(185.70275984191642) scale(0.6497717910591111)" /></g><g><path d="M30,0 L15,-26 L-15,-26 L-30,0 L-15,26 L15,26 Z" fill="none" stroke="black" transform="translate(130.86297885915783,71.76591461325756) rotate(14.059840595833997) scale(0.8352764899719293)" /><path d="M30,0 L15,-26 L-15,-26 L-30,0 L-15,26 L15,26 Z" fill="none" stroke="black" transform="translate(130.86297885915783,71.76591461325756) rotate(14.059840595833997) scale(0.5846935429803505)" /></g><path d="M30,0 L15,-26 L-15,-26 L-30,0 L-15,26 L15,26 Z" fill="none" stroke="black" transform="translate(102.38797832246712,314.0944995571627) rotate(216.1542031242025) scale(0.8170605654022634)" /><g><path d="M30,0 L15,-26 L-15,-26 L-30,0 L-15,26 L15,26 Z" fill="none" stroke="black" transform="translate(279.4555132522589,167.38788919795985) rotate(188.20530211610702) scale(0.836476081514074)" /><path d="M30,0 L15,-26 L-15,-26 L-30,0 L-15,26 L15,26 Z" fill="none" stroke="black" transform="translate(279.4555132522589,167.38788919795985) rotate(188.20530211610702) scale(0.5855332570598518)" /></g><path d="M30,0 L15,-26 L-15,-26 L-30,0 L-15,26 L15,26 Z" fill="none" stroke="black" transform="translate(315.43820758888637,331.182093215437) rotate(64.7444443581596) scale(0.9241165003631214)" /><path d="M0,-30 L30,30 L-30,30 Z" fill="none" stroke="black" transform="translate(85.93283283274664,272.28998576179276) rotate(30.004485634533268) scale(0.8078495892318834)" /><g><path d="M0,-30 L30,30 L-30,30 Z" fill="none" stroke="black" transform="translate(264.58821054474686,72.37712968433347) rotate(126.39507365926127) scale(0.9995834284979088)" /><path d="M0,-30 L30,30 L-30,30 Z" fill="none" stroke="black" transform="translate(264.58821054474686,72.37712968433347) rotate(126.39507365926127) scale(0.6997083999485362)" /></g><g><path d="M0,0 m-30,0 a30,30 0 1,0 60,0 a30,30 0 1,0 -60,0" fill="none" stroke="black" transform="translate(87.2022336610117,140.0661719643341) rotate(158.0042360018047) scale(1.1638567574702656)" /><path d="M0,0 m-30,0 a30,30 0 1,0 60,0 a30,30 0 1,0 -60,0" fill="none" stroke="black" transform="translate(87.2022336610117,140.0661719643341) rotate(158.0042360018047) scale(0.8146997302291858)" /><path d="M0,0 m-30,0 a30,30 0 1,0 60,0 a30,30 0 1,0 -60,0" fill="none" stroke="black" transform="translate(87.2022336610117,140.0661719643341) rotate(158.0042360018047) scale(0.4655427029881063)" /></g><g><path d="M0,0 m-30,0 a30,30 0 1,0 60,0 a30,30 0 1,0 -60,0" fill="none" stroke="black" transform="translate(149.19319644811424,334.8775012159367) rotate(4.9352111750653105) scale(0.8651043803205316)" /><path d="M0,0 m-30,0 a30,30 0 1,0 60,0 a30,30 0 1,0 -60,0" fill="none" stroke="black" transform="translate(149.19319644811424,334.8775012159367) rotate(4.9352111750653105) scale(0.6055730662243721)" /></g><path d="M0,0 m-30,0 a30,30 0 1,0 60,0 a30,30 0 1,0 -60,0" fill="none" stroke="black" transform="translate(269.47051582547704,337.88451317679494) rotate(7.772206757637807) scale(0.804495066939778)" /><path d="M-30,-20 h60 v40 h-60 Z" fill="none" stroke="black" transform="translate(318.6522128855644,152.05856900788564) rotate(6.411505441069831) scale(0.8970760858673287)" /></svg>