<svg baseProfile="full" height="400" version="1.1" width="400" xmlns="http://www.w3.org/2000/svg" xmlns:ev="http://www.w3.org/2001/xml-events" xmlns:xlink="http://www.w3.org/1999/xlink"><defs /><rect fill="white" height="100%" width="100%" x="0" y="0" /><g><path d="M0,-30 L30,30 L-30,30 Z" fill="none" stroke="black" transform="translate(234.4862160652498,130.62623253572855) rotate(8.134440971109957) scale(1.4366558678777892)" /><path d="M0,-30 L30,30 L-30,30 Z" fill="none" stroke="black" transform="translate(234.4862160652498,130.62623253572855) rotate(8.134440971109957) scale(1.0056591075144523)" /><path d="M0,-30 L30,30 L-30,30 Z" fill="none" stroke="black" transform="translate(234.4862160652498,130.62623253572855) rotate(8.134440971109957) scale(0.5746623471511157)" /></g><path d="M0,-30 L30,30 L-30,30 Z" fill="none" stroke="black" transform="translate(141.11525931043943,181.54428913791475) rotate(86.42138215633243) scale(1.672248328515554)" /><g><path d="M0,-30 L30,30 L-30,30 Z" fill="none" stroke="black" transform="translate(205.90087796316593,268.903014500523) rotate(242.2291571604393) scale(0.9820917818641697)" /><path d="M0,-30 L30,30 L-30,30 Z" fill="none" stroke="black" transform="translate(205.90087796316593,268.903014500523) rotate(242.2291571604393) scale(0.6874642473049187)" /></g><path d="M0,-30 L30,30 L-30,30 Z" fill="none" stroke="black" transform="translate(128.60795197826855,316.4902169838345) rotate(188.69871463924844) scale(0.9256923229886669)" /><path d="M0,-30 L30,30 L-30,30 Z" fill="none" stroke="black" transform="translate(316.228798782711,259.64553044092236) rotate(355.0012340036965) scale(1.136357868545766)" /><g><path d="M27.7,-11.5 L27.7,11.5 L11.5,27.7 L-11.5,27.7 L-27.7,11.5 L-27.7,-11.5 L-11.5,-27.7 L11.5,-27.7 Z" fill="none" stroke="black" transform="translate(300.3896010936417,145.32345057093184) rotate(359.5718911155183) scale(0.9010144942223411)" /><path d="M27.7,-11.5 L27.7,11.5 L11.5,27.7 L-11.5,27.7 L-27.7,11.5 L-27.7,-11.5 L-11.5,-27.7 L11.5,-27.7 Z" fill="none" stroke="black" transform="translate(300.3896010936417,145.32345057093184) rotate(359.5718911155183) scale(0.6307101459556388)" /><path d="M27.7,-11.5 L27.7,11.5 L11.5,27.7 L-11.5,27.7 L-27.7,11.5 L-27.7,-11.5 L-11.5,-27.7 L11.5,-27.7 Z" fill="none" stroke="black" transform="translate(300.3896010936417,145.32345057093184) rotate(359.5718911155183) scale(0.3604057976889365)" /></g><g><path d="M27.7,-11.5 L27.7,11.5 L11.5,27.7 L-11.5,27.7 L-27.7,11.5 L-27.7,-11.5 L-11.5,-27.7 L11.5,-27.7 Z" fill="none" stroke="black" transform="translate(73.6467308054611,271.40734558700365) rotate(95.4492071322432) scale(0.8938813235821343)" /><path d="M27.7,-11.5 L27.7,11.5 L11.5,27.7 L-11.5,27.7 L-27.7,11.5 L-27.7,-11.5 L-11.5,-27.7 L11.5,-27.7 Z" fill="none" stroke="black" transform="translate(73.6467308054611,271.40734558700365) rotate(95.4492071322432) scale(0.625716926507494)" /></g><g><path d="M27.7,-11.5 L27.7,11.5 L11.5,27.7 L-11.5,27.7 L-27.7,11.5 L-27.7,-11.5 L-11.5,-27.7 L11.5,-27.7 Z" fill="none" stroke="black" transform="translate(63.21649092428591,153.08785928333742) rotate(272.13735491229374) scale(0.845482126869766)" /><path d="M27.7,-11.5 L27.7,11.5 L11.5,27.7 L-11.5,27.7 L-27.7,11.5 L-27.7,-11.5 L-11.5,-27.7 L11.5,-27.7 Z" fill="none" stroke="black" transform="translate(63.21649092428591,153.08785928333742) rotate(272.13735491229374) scale(0.5918374888088361)" /></g><g><path d="M-30,-20 h60 v40 h-60 Z" fill="none" stroke="black" transform="translate(314.15524747356875,314.80909690325984) rotate(238.0797998804204) scale(0.9078790110022324)" /><path d="M-30,-20 h60 v40 h-60 Z" fill="none" stroke="black" transform="translate(314.15524747356875,314.80909690325984) rotate(238.0797998804204) scale(0.6355153077015627)" /></g><g><path d="M-30,-20 h60 v40 h-60 Z" fill="none" stroke="black" transform="translate(85.42984654038604,339.24233538458424) rotate(162.56700342065403) scale(0.8166196102146935)" /><path d="M-30,-20 h60 v40 h-60 Z" fill="none" stroke="black" transform="translate(85.42984654038604,339.24233538458424) rotate(162.56700342065403) scale(0.5716337271502855)" /></g><path d="M-30,-20 h60 v40 h-60 Z" fill="none" stroke="black" transform="translate(138.83191103225153,84.48601161122396) rotate(252.03072423108068) scale(1.1611144817036725)" /><path d="M-30,-20 h60 v40 h-60 Z" fill="none" stroke="black" transform="translate(326.47875611429544,197.39945865870067) rotate(13.984656494992812) scale(0.8965110246856646)" /><path d="M-30,-20 h60 v40 h-60 Z" fill="none" stroke="black" transform="translate(76.11728077310885,105.86986001974665) rotate(67.48201571997868) scale(1.0304267606970783)" /></svg>