<svg baseProfile="full" height="400" version="1.1" width="400" xmlns="http://www.w3.org/2000/svg" xmlns:ev="http://www.w3.org/2001/xml-events" xmlns:xlink="http://www.w3.org/1999/xlink"><defs /><rect fill="white" height="100%" width="100%" x="0" y="0" /><path d="M0.0,-30.0 L28.5,-9.3 L17.6,24.3 L-17.6,24.3 L-28.5,-9.3 Z" fill="none" stroke="black" transform="translate(183.84764569970497,268.9369330013314) rotate(272.00641980655456) scale(1.3148240606699466)" /><g><path d="M0.0,-30.0 L28.5,-9.3 L17.6,24.3 L-17.6,24.3 L-28.5,-9.3 Z" fill="none" stroke="black" transform="translate(281.56447027540565,184.66451478775895) rotate(142.3001791917549) scale(1.4717933858857166)" /><path d="M0.0,-30.0 L28.5,-9.3 L17.6,24.3 L-17.6,24.3 L-28.5,-9.3 Z" fill="none" stroke="black" transform="translate(281.56447027540565,184.66451478775895) rotate(142.3001791917549) scale(1.0302553701200017)" /></g><path d="M0.0,-30.0 L28.5,-9.3 L17.6,24.3 L-17.6,24.3 L-28.5,-9.3 Z" fill="none" stroke="black" transform="translate(178.61494509132208,138.91313959790506) rotate(50.469840650355344) scale(0.8181639793575364)" /><path d="M0.0,-30.0 L28.5,-9.3 L17.6,24.3 L-17.6,24.3 L-28.5,-9.3 Z" fill="none" stroke="black" transform="translate(282.1020944279181,307.57097530686633) rotate(128.88951821962303) scale(1.0359192681820169)" /><path d="M27.7,-11.5 L27.7,11.5 L11.5,27.7 L-11.5,27.7 L-27.7,11.5 L-27.7,-11.5 L-11.5,-27.7 L11.5,-27.7 Z" fill="none" stroke="black" transform="translate(85.12820361612857,77.17659655999107) rotate(359.12232534035496) scale(1.051573105278501)" /><path d="M27.7,-11.5 L27.7,11.5 L11.5,27.7 L-11.5,27.7 L-27.7,11.5 L-27.7,-11.5 L-11.5,-27.7 L11.5,-27.7 Z" fill="none" stroke="black" transform="translate(102.7797402799043,193.74216907835097) rotate(43.08295831819634) scale(0.9324095883943095)" /><path d="M-30,-20 h60 v40 h-60 Z" fill="none" stroke="black" transform="translate(95.16937046963417,336.2794763606829) rotate(341.0691741510117) scale(0.8358553202710655)" /><path d="M-30,-20 h60 v40 h-60 Z" fill="none" stroke="black" transform="translate(255.64247903097964,89.34150188717149) rotate(316.2215797716199) scale(0.8534900274210101)" /></svg>