<svg baseProfile="full" height="400" version="1.1" width="400" xmlns="http://www.w3.org/2000/svg" xmlns:ev="http://www.w3.org/2001/xml-events" xmlns:xlink="http://www.w3.org/1999/xlink"><defs /><rect fill="white" height="100%" width="100%" x="0" y="0" /><g><path d="M0,0 m-30,0 a30,30 0 1,0 60,0 a30,30 0 1,0 -60,0" fill="none" stroke="black" transform="translate(176.02520320190047,302.77550483790844) rotate(336.0776108565399) scale(1.3471498342066908)" /><path d="M0,0 m-30,0 a30,30 0 1,0 60,0 a30,30 0 1,0 -60,0" fill="none" stroke="black" transform="translate(176.02520320190047,302.77550483790844) rotate(336.0776108565399) scale(0.9430048839446835)" /><path d="M0,0 m-30,0 a30,30 0 1,0 60,0 a30,30 0 1,0 -60,0" fill="none" stroke="black" transform="translate(176.02520320190047,302.77550483790844) rotate(336.0776108565399) scale(0.5388599336826764)" /></g><path d="M0,0 m-30,0 a30,30 0 1,0 60,0 a30,30 0 1,0 -60,0" fill="none" stroke="black" transform="translate(237.78543758301555,242.36017902256367) rotate(304.87709385425984) scale(1.7129170802644027)" /><g><path d="M0,0 m-30,0 a30,30 0 1,0 60,0 a30,30 0 1,0 -60,0" fill="none" stroke="black" transform="translate(287.2675819588389,126.91528845619251) rotate(104.08859007662274) scale(1.5152771310400621)" /><path d="M0,0 m-30,0 a30,30 0 1,0 60,0 a30,30 0 1,0 -60,0" fill="none" stroke="black" transform="translate(287.2675819588389,126.91528845619251) rotate(104.08859007662274) scale(1.0606939917280434)" /></g><path d="M30,0 L15,-26 L-15,-26 L-30,0 L-15,26 L15,26 Z" fill="none" stroke="black" transform="translate(116.81898209160522,136.16354974755995) rotate(126.12879850051074) scale(1.55065333922155)" /><g><path d="M30,0 L15,-26 L-15,-26 L-30,0 L-15,26 L15,26 Z" fill="none" stroke="black" transform="translate(114.19246216533966,281.0103353177548) rotate(246.8605928029385) scale(0.9488229846833911)" /><path d="M30,0 L15,-26 L-15,-26 L-30,0 L-15,26 L15,26 Z" fill="none" stroke="black" transform="translate(114.19246216533966,281.0103353177548) rotate(246.8605928029385) scale(0.6641760892783737)" /></g><path d="M30,0 L15,-26 L-15,-26 L-30,0 L-15,26 L15,26 Z" fill="none" stroke="black" transform="translate(230.6136113738903,160.3573468628146) rotate(305.8186679035438) scale(1.2832361984932583)" /><path d="M30,0 L15,-26 L-15,-26 L-30,0 L-15,26 L15,26 Z" fill="none" stroke="black" transform="translate(166.17923312647554,243.8646342459768) rotate(163.42554522111814) scale(0.8414343556919466)" /><path d="M30,0 L15,-26 L-15,-26 L-30,0 L-15,26 L15,26 Z" fill="none" stroke="black" transform="translate(295.01636444886674,289.6918295955876) rotate(92.33023233772174) scale(1.0699797480876236)" /><g><path d="M30,0 L15,-26 L-15,-26 L-30,0 L-15,26 L15,26 Z" fill="none" stroke="black" transform="translate(131.48414116528983,73.82473937949052) rotate(218.76605549297452) scale(0.8731024424436272)" /><path d="M30,0 L15,-26 L-15,-26 L-30,0 L-15,26 L15,26 Z" fill="none" stroke="black" transform="translate(131.48414116528983,73.82473937949052) rotate(218.76605549297452) scale(0.611171709710539)" /><path d="M30,0 L15,-26 L-15,-26 L-30,0 L-15,26 L15,26 Z" fill="none" stroke="black" transform="translate(131.48414116528983,73.82473937949052) rotate(218.76605549297452) scale(0.34924097697745093)" /></g><path d="M0,-30 L30,30 L-30,30 Z" fill="none" stroke="black" transform="translate(196.28246410698057,217.66611866316362) rotate(311.76897036962004) scale(1.0574082972236178)" /><g><path d="M0,-30 L30,30 L-30,30 Z" fill="none" stroke="black" transform="translate(174.4011372838541,175.76650479529067) rotate(155.85138155465415) scale(0.8987843180180635)" /><path d="M0,-30 L30,30 L-30,30 Z" fill="none" stroke="black" transform="translate(174.4011372838541,175.76650479529067) rotate(155.85138155465415) scale(0.6291490226126444)" /></g><path d="M0,-30 L30,30 L-30,30 Z" fill="none" stroke="black" transform="translate(117.83815358228385,225.5015107447465) rotate(115.06055591042987) scale(1.515991167651451)" /><g><path d="M0,-30 L30,30 L-30,30 Z" fill="none" stroke="black" transform="translate(76.8925354001087,159.31208579874135) rotate(211.9842211907981) scale(0.8446140680448043)" /><path d="M0,-30 L30,30 L-30,30 Z" fill="none" stroke="black" transform="translate(76.8925354001087,159.31208579874135) rotate(211.9842211907981) scale(0.591229847631363)" /></g><path d="M0,-30 L30,30 L-30,30 Z" fill="none" stroke="black" transform="translate(309.9939848400644,236.43834130547475) rotate(86.68763474101783) scale(0.8188503637988076)" /><g><path d="M0,-30 L30,30 L-30,30 Z" fill="none" stroke="black" transform="translate(174.17851230726532,205.91898265194925) rotate(37.10496767907378) scale(0.8464352530831817)" /><path d="M0,-30 L30,30 L-30,30 Z" fill="none" stroke="black" transform="translate(174.17851230726532,205.91898265194925) rotate(37.10496767907378) scale(0.5925046771582272)" /><path d="M0,-30 L30,30 L-30,30 Z" fill="none" stroke="black" transform="translate(174.17851230726532,205.91898265194925) rotate(37.10496767907378) scale(0.3385741012332727)" /></g><path d="M0,-30 L30,30 L-30,30 Z" fill="none" stroke="black" transform="translate(98.3075615527319,185.6587817499356) rotate(201.44984028887853) scale(0.8166299118378663)" /><path d="M0,-30 L30,30 L-30,30 Z" fill="none" stroke="black" transform="translate(307.4459896383441,258.42458270123194) rotate(206.69898466431576) scale(0.8337310920349408)" /><g><path d="M0.0,-30.0 L8.8,-12.1 L28.5,-9.3 L14.3,4.6 L17.6,24.3 L0.0,15.0 L-17.6,24.3 L-14.3,4.6 L-28.5,-9.3 L-8.8,-12.1 Z" fill="none" stroke="black" transform="translate(214.90238124654869,70.5937084280562) rotate(186.13990198073938) scale(0.8040558547555064)" /><path d="M0.0,-30.0 L8.8,-12.1 L28.5,-9.3 L14.3,4.6 L17.6,24.3 L0.0,15.0 L-17.6,24.3 L-14.3,4.6 L-28.5,-9.3 L-8.8,-12.1 Z" fill="none" stroke="black" transform="translate(214.90238124654869,70.5937084280562) rotate(186.13990198073938) scale(0.5628390983288545)" /><path d="M0.0,-30.0 L8.8,-12.1 L28.5,-9.3 L14.3,4.6 L17.6,24.3 L0.0,15.0 L-17.6,24.3 L-14.3,4.6 L-28.5,-9.3 L-8.8,-12.1 Z" fill="none" stroke="black" transform="translate(214.90238124654869,70.5937084280562) rotate(186.13990198073938) scale(0.3216223419022026)" /></g><g><path d="M0.0,-30.0 L8.8,-12.1 L28.5,-9.3 L14.3,4.6 L17.6,24.3 L0.0,15.0 L-17.6,24.3 L-14.3,4.6 L-28.5,-9.3 L-8.8,-12.1 Z" fill="none" stroke="black" transform="translate(282.45722146374135,69.23835607586801) rotate(342.4929172539812) scale(0.9482119514982187)" /><path d="M0.0,-30.0 L8.8,-12.1 L28.5,-9.3 L14.3,4.6 L17.6,24.3 L0.0,15.0 L-17.6,24.3 L-14.3,4.6 L-28.5,-9.3 L-8.8,-12.1 Z" fill="none" stroke="black" transform="translate(282.45722146374135,69.23835607586801) rotate(342.4929172539812) scale(0.6637483660487531)" /><path d="M0.0,-30.0 L8.8,-12.1 L28.5,-9.3 L14.3,4.6 L17.6,24.3 L0.0,15.0 L-17.6,24.3 L-14.3,4.6 L-28.5,-9.3 L-8.8,-12.1 Z" fill="none" stroke="black" transform="translate(282.45722146374135,69.23835607586801) rotate(342.4929172539812) scale(0.3792847805992875)" /></g><path d="M27.7,-11.5 L27.7,11.5 L11.5,27.7 L-11.5,27.7 L-27.7,11.5 L-27.7,-11.5 L-11.5,-27.7 L11.5,-27.7 Z" fill="none" stroke="black" transform="translate(307.95474799519127,72.89053354535073) rotate(156.54991165592273) scale(0.926044525650977)" /><g><path d="M27.7,-11.5 L27.7,11.5 L11.5,27.7 L-11.5,27.7 L-27.7,11.5 L-27.7,-11.5 L-11.5,-27.7 L11.5,-27.7 Z" fill="none" stroke="black" transform="translate(137.56517427777408,102.07368402457413) rotate(192.83587709033432) scale(0.8034681950941758)" /><path d="M27.7,-11.5 L27.7,11.5 L11.5,27.7 L-11.5,27.7 L-27.7,11.5 L-27.7,-11.5 L-11.5,-27.7 L11.5,-27.7 Z" fill="none" stroke="black" transform="translate(137.56517427777408,102.07368402457413) rotate(192.83587709033432) scale(0.562427736565923)" /></g><path d="M27.7,-11.5 L27.7,11.5 L11.5,27.7 L-11.5,27.7 L-27.7,11.5 L-27.7,-11.5 L-11.5,-27.7 L11.5,-27.7 Z" fill="none" stroke="black" transform="translate(262.76808556262387,191.58802507949275) rotate(215.8534628448954) scale(1.4082983880502744)" /><path d="M27.7,-11.5 L27.7,11.5 L11.5,27.7 L-11.5,27.7 L-27.7,11.5 L-27.7,-11.5 L-11.5,-27.7 L11.5,-27.7 Z" fill="none" stroke="black" transform="translate(312.2246620178484,175.65647922968128) rotate(20.397249176636016) scale(1.0405303334825144)" /><path d="M-30,-20 h60 v40 h-60 Z" fill="none" stroke="black" transform="translate(245.0055553870141,82.5973240297334) rotate(146.0094712111398) scale(1.0549286366971093)" /><g><path d="M-30,-20 h60 v40 h-60 Z" fill="none" stroke="black" transform="translate(100.29927678248927,325.44616819776786) rotate(32.36290164547526) scale(0.8321632164231494)" /><path d="M-30,-20 h60 v40 h-60 Z" fill="none" stroke="black" transform="translate(100.29927678248927,325.44616819776786) rotate(32.36290164547526) scale(0.5825142514962045)" /></g><path d="M0.0,-30.0 L28.5,-9.3 L17.6,24.3 L-17.6,24.3 L-28.5,-9.3 Z" fill="none" stroke="black" transform="translate(197.00207903563276,109.69363024950071) rotate(190.09629979058244) scale(1.1180153842559934)" /><path d="M0.0,-30.0 L28.5,-9.3 L17.6,24.3 L-17.6,24.3 L-28.5,-9.3 Z" fill="none" stroke="black" transform="translate(115.2958532310235,81.30402379222537) rotate(36.378950612225445) scale(0.8418448698967408)" /><path d="M0.0,-30.0 L28.5,-9.3 L17.6,24.3 L-17.6,24.3 L-28.5,-9.3 Z" fill="none" stroke="black" transform="translate(196.52411528664004,140.9460431090841) rotate(115.67737782333361) scale(0.9613464101457755)" /><g><path d="M0.0,-30.0 L28.5,-9.3 L17.6,24.3 L-17.6,24.3 L-28.5,-9.3 Z" fill="none" stroke="black" transform="translate(80.41825169121958,273.68666923866806) rotate(126.7282810924761) scale(1.058413855404725)" /><path d="M0.0,-30.0 L28.5,-9.3 L17.6,24.3 L-17.6,24.3 L-28.5,-9.3 Z" fill="none" stroke="black" transform="translate(80.41825169121958,273.68666923866806) rotate(126.7282810924761) scale(0.7408896987833076)" /></g><path d="M0.0,-30.0 L28.5,-9.3 L17.6,24.3 L-17.6,24.3 L-28.5,-9.3 Z" fill="none" stroke="black" transform="translate(169.90007092604682,76.56496796563607) rotate(92.20823431937617) scale(0.9578630779991538)" /></svg>