<svg baseProfile="full" height="400" version="1.1" width="400" xmlns="http://www.w3.org/2000/svg" xmlns:ev="http://www.w3.org/2001/xml-events" xmlns:xlink="http://www.w3.org/1999/xlink"><defs /><rect fill="white" height="100%" width="100%" x="0" y="0" /><g><path d="M0.0,-30.0 L28.5,-9.3 L17.6,24.3 L-17.6,24.3 L-28.5,-9.3 Z" fill="none" stroke="black" transform="translate(219.41379771587145,113.80255461414805) rotate(108.48150820231449) scale(1.3765206456095074)" /><path d="M0.0,-30.0 L28.5,-9.3 L17.6,24.3 L-17.6,24.3 L-28.5,-9.3 Z" fill="none" stroke="black" transform="translate(219.41379771587145,113.80255461414805) rotate(108.48150820231449) scale(0.9635644519266551)" /></g><path d="M0.0,-30.0 L28.5,-9.3 L17.6,24.3 L-17.6,24.3 L-28.5,-9.3 Z" fill="none" stroke="black" transform="translate(149.010874846984,212.01526688676807) rotate(234.72921407546963) scale(1.433206489058163)" /><path d="M0.0,-30.0 L28.5,-9.3 L17.6,24.3 L-17.6,24.3 L-28.5,-9.3 Z" fill="none" stroke="black" transform="translate(279.78123981710826,216.52739515131367) rotate(334.11568075030596) scale(1.0546180106848)" /><path d="M0.0,-30.0 L28.5,-9.3 L17.6,24.3 L-17.6,24.3 L-28.5,-9.3 Z" fill="none" stroke="black" transform="translate(73.58248864045201,308.78917495022444) rotate(207.5062839757817) scale(0.886536130040948)" /><path d="M0.0,-30.0 L28.5,-9.3 L17.6,24.3 L-17.6,24.3 L-28.5,-9.3 Z" fill="none" stroke="black" transform="translate(243.1920845833872,327.1047559815056) rotate(192.92757213851004) scale(0.8220667740822596)" /><path d="M0.0,-30.0 L28.5,-9.3 L17.6,24.3 L-17.6,24.3 L-28.5,-9.3 Z" fill="none" stroke="black" transform="translate(80.79648977785114,123.67458985387141) rotate(108.59415027572925) scale(1.0367893564577537)" /><path d="M0.0,-30.0 L28.5,-9.3 L17.6,24.3 L-17.6,24.3 L-28.5,-9.3 Z" fill="none" stroke="black" transform="translate(317.58046018896334,82.88872557023349) rotate(268.7171383144355) scale(1.0132612656752291)" /><path d="M0,-30 L30,30 L-30,30 Z" fill="none" stroke="black" transform="translate(325.33212426151346,324.31916913585155) rotate(320.09456626427027) scale(0.8519329146548027)" /><g><path d="M27.7,-11.5 L27.7,11.5 L11.5,27.7 L-11.5,27.7 L-27.7,11.5 L-27.7,-11.5 L-11.5,-27.7 L11.5,-27.7 Z" fill="none" stroke="black" transform="translate(149.40606557516227,323.4312757767986) rotate(294.283629195512) scale(0.8361162155872257)" /><path d="M27.7,-11.5 L27.7,11.5 L11.5,27.7 L-11.5,27.7 L-27.7,11.5 L-27.7,-11.5 L-11.5,-27.7 L11.5,-27.7 Z" fill="none" stroke="black" transform="translate(149.40606557516227,323.4312757767986) rotate(294.283629195512) scale(0.5852813509110579)" /></g></svg>