<svg baseProfile="full" height="400" version="1.1" width="400" xmlns="http://www.w3.org/2000/svg" xmlns:ev="http://www.w3.org/2001/xml-events" xmlns:xlink="http://www.w3.org/1999/xlink"><defs /><rect fill="white" height="100%" width="100%" x="0" y="0" /><path d="M0.0,-30.0 L28.5,-9.3 L17.6,24.3 L-17.6,24.3 L-28.5,-9.3 Z" fill="none" stroke="black" transform="translate(66.86545406175259,153.02670924393712) rotate(105.6871748041717) scale(0.9044690176000723)" /><path d="M0,0 m-30,0 a30,30 0 1,0 60,0 a30,30 0 1,0 -60,0" fill="none" stroke="black" transform="translate(202.1731161797771,279.1443319134792) rotate(97.6345434872101) scale(1.4978176609640252)" /><g><path d="M0,0 m-30,0 a30,30 0 1,0 60,0 a30,30 0 1,0 -60,0" fill="none" stroke="black" transform="translate(296.2794188813665,303.5036771990234) rotate(321.39481053162217) scale(0.9789779913739243)" /><path d="M0,0 m-30,0 a30,30 0 1,0 60,0 a30,30 0 1,0 -60,0" fill="none" stroke="black" transform="translate(296.2794188813665,303.5036771990234) rotate(321.39481053162217) scale(0.6852845939617469)" /><path d="M0,0 m-30,0 a30,30 0 1,0 60,0 a30,30 0 1,0 -60,0" fill="none" stroke="black" transform="translate(296.2794188813665,303.5036771990234) rotate(321.39481053162217) scale(0.39159119654956975)" /></g><path d="M0,0 m-30,0 a30,30 0 1,0 60,0 a30,30 0 1,0 -60,0" fill="none" stroke="black" transform="translate(162.9805393587548,190.21091353973924) rotate(332.7860965248299) scale(1.5370981173475151)" /><g><path d="M30,0 L15,-26 L-15,-26 L-30,0 L-15,26 L15,26 Z" fill="none" stroke="black" transform="translate(217.23349264169386,223.13958756925092) rotate(337.27448478138945) scale(0.8710871330938429)" /><path d="M30,0 L15,-26 L-15,-26 L-30,0 L-15,26 L15,26 Z" fill="none" stroke="black" transform="translate(217.23349264169386,223.13958756925092) rotate(337.27448478138945) scale(0.60976099316569)" /></g><g><path d="M30,0 L15,-26 L-15,-26 L-30,0 L-15,26 L15,26 Z" fill="none" stroke="black" transform="translate(189.17374219382253,104.67543387826609) rotate(336.3782598934414) scale(1.1306849751214727)" /><path d="M30,0 L15,-26 L-15,-26 L-30,0 L-15,26 L15,26 Z" fill="none" stroke="black" transform="translate(189.17374219382253,104.67543387826609) rotate(336.3782598934414) scale(0.7914794825850309)" /><path d="M30,0 L15,-26 L-15,-26 L-30,0 L-15,26 L15,26 Z" fill="none" stroke="black" transform="translate(189.17374219382253,104.67543387826609) rotate(336.3782598934414) scale(0.4522739900485891)" /></g><path d="M30,0 L15,-26 L-15,-26 L-30,0 L-15,26 L15,26 Z" fill="none" stroke="black" transform="translate(262.6924301172015,187.32847343556966) rotate(325.15210001495524) scale(1.529086613945081)" /></svg>