<svg baseProfile="full" height="400" version="1.1" width="400" xmlns="http://www.w3.org/2000/svg" xmlns:ev="http://www.w3.org/2001/xml-events" xmlns:xlink="http://www.w3.org/1999/xlink"><defs /><rect fill="white" height="100%" width="100%" x="0" y="0" /><g><path d="M0.0,-30.0 L28.5,-9.3 L17.6,24.3 L-17.6,24.3 L-28.5,-9.3 Z" fill="none" stroke="black" transform="translate(256.7305146764137,226.3810887410511) rotate(187.37171322485474) scale(1.75577311303884)" /><path d="M0.0,-30.0 L28.5,-9.3 L17.6,24.3 L-17.6,24.3 L-28.5,-9.3 Z" fill="none" stroke="black" transform="translate(256.7305146764137,226.3810887410511) rotate(187.37171322485474) scale(1.229041179127188)" /><path d="M0.0,-30.0 L28.5,-9.3 L17.6,24.3 L-17.6,24.3 L-28.5,-9.3 Z" fill="none" stroke="black" transform="translate(256.7305146764137,226.3810887410511) rotate(187.37171322485474) scale(0.7023092452155361)" /></g><path d="M0.0,-30.0 L28.5,-9.3 L17.6,24.3 L-17.6,24.3 L-28.5,-9.3 Z" fill="none" stroke="black" transform="translate(166.38520980841614,124.35172520903336) rotate(114.5374396390572) scale(1.3948072436956571)" /><path d="M0.0,-30.0 L28.5,-9.3 L17.6,24.3 L-17.6,24.3 L-28.5,-9.3 Z" fill="none" stroke="black" transform="translate(109.46406694867699,210.95273033082032) rotate(111.50446404090737) scale(0.9849337596604)" /><g><path d="M-30,-20 h60 v40 h-60 Z" fill="none" stroke="black" transform="translate(297.0496028603858,157.05407840000373) rotate(131.66147078968825) scale(1.0701243547130628)" /><path d="M-30,-20 h60 v40 h-60 Z" fill="none" stroke="black" transform="translate(297.0496028603858,157.05407840000373) rotate(131.66147078968825) scale(0.7490870482991439)" /></g><path d="M-30,-20 h60 v40 h-60 Z" fill="none" stroke="black" transform="translate(250.03007042843174,112.58459381115675) rotate(13.347699301874956) scale(1.004759577059712)" /><g><path d="M0,-30 L30,30 L-30,30 Z" fill="none" stroke="black" transform="translate(121.44320344022394,166.37894598316524) rotate(88.27795343416815) scale(1.0839576461710583)" /><path d="M0,-30 L30,30 L-30,30 Z" fill="none" stroke="black" transform="translate(121.44320344022394,166.37894598316524) rotate(88.27795343416815) scale(0.7587703523197408)" /></g><g><path d="M30,0 L15,-26 L-15,-26 L-30,0 L-15,26 L15,26 Z" fill="none" stroke="black" transform="translate(308.69226545767674,102.51857683707395) rotate(201.10159504205703) scale(1.205322379679553)" /><path d="M30,0 L15,-26 L-15,-26 L-30,0 L-15,26 L15,26 Z" fill="none" stroke="black" transform="translate(308.69226545767674,102.51857683707395) rotate(201.10159504205703) scale(0.843725665775687)" /><path d="M30,0 L15,-26 L-15,-26 L-30,0 L-15,26 L15,26 Z" fill="none" stroke="black" transform="translate(308.69226545767674,102.51857683707395) rotate(201.10159504205703) scale(0.4821289518718212)" /></g><path d="M30,0 L15,-26 L-15,-26 L-30,0 L-15,26 L15,26 Z" fill="none" stroke="black" transform="translate(162.4452789157809,249.33134799538817) rotate(107.04338307869682) scale(1.8360676204615767)" /><path d="M27.7,-11.5 L27.7,11.5 L11.5,27.7 L-11.5,27.7 L-27.7,11.5 L-27.7,-11.5 L-11.5,-27.7 L11.5,-27.7 Z" fill="none" stroke="black" transform="translate(77.39019936313017,228.45460263410808) rotate(19.13098229704329) scale(0.8021305307903978)" /><path d="M27.7,-11.5 L27.7,11.5 L11.5,27.7 L-11.5,27.7 L-27.7,11.5 L-27.7,-11.5 L-11.5,-27.7 L11.5,-27.7 Z" fill="none" stroke="black" transform="translate(130.29595978758823,330.1050672513504) rotate(120.24700060621439) scale(0.8354669813765642)" /><path d="M0,0 m-30,0 a30,30 0 1,0 60,0 a30,30 0 1,0 -60,0" fill="none" stroke="black" transform="translate(71.15270958543663,181.08673043309653) rotate(34.34209249015861) scale(0.9578767185319208)" /><path d="M0,0 m-30,0 a30,30 0 1,0 60,0 a30,30 0 1,0 -60,0" fill="none" stroke="black" transform="translate(94.81970752037891,304.32766822535564) rotate(312.57308708390144) scale(1.1908515071438663)" /><g><path d="M0,0 m-30,0 a30,30 0 1,0 60,0 a30,30 0 1,0 -60,0" fill="none" stroke="black" transform="translate(189.2357015467208,334.71131185633527) rotate(315.7752485299057) scale(0.8485522257375928)" /><path d="M0,0 m-30,0 a30,30 0 1,0 60,0 a30,30 0 1,0 -60,0" fill="none" stroke="black" transform="translate(189.2357015467208,334.71131185633527) rotate(315.7752485299057) scale(0.593986558016315)" /><path d="M0,0 m-30,0 a30,30 0 1,0 60,0 a30,30 0 1,0 -60,0" fill="none" stroke="black" transform="translate(189.2357015467208,334.71131185633527) rotate(315.7752485299057) scale(0.33942089029503714)" /></g><g><path d="M0.0,-30.0 L8.8,-12.1 L28.5,-9.3 L14.3,4.6 L17.6,24.3 L0.0,15.0 L-17.6,24.3 L-14.3,4.6 L-28.5,-9.3 L-8.8,-12.1 Z" fill="none" stroke="black" transform="translate(160.5465679093197,172.11612324394196) rotate(124.55805562615298) scale(0.8007189786390754)" /><path d="M0.0,-30.0 L8.8,-12.1 L28.5,-9.3 L14.3,4.6 L17.6,24.3 L0.0,15.0 L-17.6,24.3 L-14.3,4.6 L-28.5,-9.3 L-8.8,-12.1 Z" fill="none" stroke="black" transform="translate(160.5465679093197,172.11612324394196) rotate(124.55805562615298) scale(0.5605032850473527)" /><path d="M0.0,-30.0 L8.8,-12.1 L28.5,-9.3 L14.3,4.6 L17.6,24.3 L0.0,15.0 L-17.6,24.3 L-14.3,4.6 L-28.5,-9.3 L-8.8,-12.1 Z" fill="none" stroke="black" transform="translate(160.5465679093197,172.11612324394196) rotate(124.55805562615298) scale(0.3202875914556302)" /></g></svg>