<svg baseProfile="full" height="400" version="1.1" width="400" xmlns="http://www.w3.org/2000/svg" xmlns:ev="http://www.w3.org/2001/xml-events" xmlns:xlink="http://www.w3.org/1999/xlink"><defs /><rect fill="white" height="100%" width="100%" x="0" y="0" /><path d="M0.0,-30.0 L28.5,-9.3 L17.6,24.3 L-17.6,24.3 L-28.5,-9.3 Z" fill="none" stroke="black" transform="translate(217.49548318254523,167.76482911767783) rotate(117.69812643747213) scale(1.6157065556693122)" /><g><path d="M27.7,-11.5 L27.7,11.5 L11.5,27.7 L-11.5,27.7 L-27.7,11.5 L-27.7,-11.5 L-11.5,-27.7 L11.5,-27.7 Z" fill="none" stroke="black" transform="translate(273.50051140502615,274.7194441044164) rotate(357.0429968514146) scale(0.8010484567216705)" /><path d="M27.7,-11.5 L27.7,11.5 L11.5,27.7 L-11.5,27.7 L-27.7,11.5 L-27.7,-11.5 L-11.5,-27.7 L11.5,-27.7 Z" fill="none" stroke="black" transform="translate(273.50051140502615,274.7194441044164) rotate(357.0429968514146) scale(0.5607339197051693)" /></g><path d="M-30,-20 h60 v40 h-60 Z" fill="none" stroke="black" transform="translate(67.19371390546299,162.03919816504322) rotate(351.78598206898755) scale(0.9196274944998789)" /><path d="M-30,-20 h60 v40 h-60 Z" fill="none" stroke="black" transform="translate(77.8739108318506,259.514455853253) rotate(240.9339240540666) scale(0.9479845302092181)" /></svg>