<svg baseProfile="full" height="400" version="1.1" width="400" xmlns="http://www.w3.org/2000/svg" xmlns:ev="http://www.w3.org/2001/xml-events" xmlns:xlink="http://www.w3.org/1999/xlink"><defs /><rect fill="white" height="100%" width="100%" x="0" y="0" /><g><path d="M0.0,-30.0 L8.8,-12.1 L28.5,-9.3 L14.3,4.6 L17.6,24.3 L0.0,15.0 L-17.6,24.3 L-14.3,4.6 L-28.5,-9.3 L-8.8,-12.1 Z" fill="none" stroke="black" transform="translate(187.12000432109346,130.76406261311354) rotate(333.8457090097632) scale(1.7645325130237184)" /><path d="M0.0,-30.0 L8.8,-12.1 L28.5,-9.3 L14.3,4.6 L17.6,24.3 L0.0,15.0 L-17.6,24.3 L-14.3,4.6 L-28.5,-9.3 L-8.8,-12.1 Z" fill="none" stroke="black" transform="translate(187.12000432109346,130.76406261311354) rotate(333.8457090097632) scale(1.2351727591166028)" /><path d="M0.0,-30.0 L8.8,-12.1 L28.5,-9.3 L14.3,4.6 L17.6,24.3 L0.0,15.0 L-17.6,24.3 L-14.3,4.6 L-28.5,-9.3 L-8.8,-12.1 Z" fill="none" stroke="black" transform="translate(187.12000432109346,130.76406261311354) rotate(333.8457090097632) scale(0.7058130052094874)" /></g><path d="M27.7,-11.5 L27.7,11.5 L11.5,27.7 L-11.5,27.7 L-27.7,11.5 L-27.7,-11.5 L-11.5,-27.7 L11.5,-27.7 Z" fill="none" stroke="black" transform="translate(292.08698812921955,314.64043843860094) rotate(260.39461661575945) scale(1.0265057412889529)" /><path d="M27.7,-11.5 L27.7,11.5 L11.5,27.7 L-11.5,27.7 L-27.7,11.5 L-27.7,-11.5 L-11.5,-27.7 L11.5,-27.7 Z" fill="none" stroke="black" transform="translate(126.13408813575793,189.40246915415236) rotate(40.77094240900358) scale(1.5078585887176312)" /><g><path d="M30,0 L15,-26 L-15,-26 L-30,0 L-15,26 L15,26 Z" fill="none" stroke="black" transform="translate(203.5287154456729,238.5647693723892) rotate(297.69185475426747) scale(1.4001726961282555)" /><path d="M30,0 L15,-26 L-15,-26 L-30,0 L-15,26 L15,26 Z" fill="none" stroke="black" transform="translate(203.5287154456729,238.5647693723892) rotate(297.69185475426747) scale(0.9801208872897788)" /></g><path d="M30,0 L15,-26 L-15,-26 L-30,0 L-15,26 L15,26 Z" fill="none" stroke="black" transform="translate(138.37997422440205,302.27791379062904) rotate(292.7653097044251) scale(1.136498815349587)" /><g><path d="M30,0 L15,-26 L-15,-26 L-30,0 L-15,26 L15,26 Z" fill="none" stroke="black" transform="translate(156.98043025517302,80.64738079639098) rotate(99.00948965405357) scale(0.9926599657016962)" /><path d="M30,0 L15,-26 L-15,-26 L-30,0 L-15,26 L15,26 Z" fill="none" stroke="black" transform="translate(156.98043025517302,80.64738079639098) rotate(99.00948965405357) scale(0.6948619759911874)" /></g><path d="M0.0,-30.0 L28.5,-9.3 L17.6,24.3 L-17.6,24.3 L-28.5,-9.3 Z" fill="none" stroke="black" transform="translate(276.9192368049637,142.52269664954304) rotate(110.2948269101923) scale(1.6520613552165637)" /><path d="M0.0,-30.0 L28.5,-9.3 L17.6,24.3 L-17.6,24.3 L-28.5,-9.3 Z" fill="none" stroke="black" transform="translate(286.8328185084491,251.44872305835804) rotate(169.61413941966453) scale(0.9684669637279443)" /><g><path d="M0,0 m-30,0 a30,30 0 1,0 60,0 a30,30 0 1,0 -60,0" fill="none" stroke="black" transform="translate(76.05219099996357,318.22540039043724) rotate(132.75980909660717) scale(1.023852182825761)" /><path d="M0,0 m-30,0 a30,30 0 1,0 60,0 a30,30 0 1,0 -60,0" fill="none" stroke="black" transform="translate(76.05219099996357,318.22540039043724) rotate(132.75980909660717) scale(0.7166965279780326)" /></g><g><path d="M0,0 m-30,0 a30,30 0 1,0 60,0 a30,30 0 1,0 -60,0" fill="none" stroke="black" transform="translate(304.97725865374366,200.59575254440432) rotate(5.03817982412734) scale(0.9729013754771272)" /><path d="M0,0 m-30,0 a30,30 0 1,0 60,0 a30,30 0 1,0 -60,0" fill="none" stroke="black" transform="translate(304.97725865374366,200.59575254440432) rotate(5.03817982412734) scale(0.681030962833989)" /><path d="M0,0 m-30,0 a30,30 0 1,0 60,0 a30,30 0 1,0 -60,0" fill="none" stroke="black" transform="translate(304.97725865374366,200.59575254440432) rotate(5.03817982412734) scale(0.3891605501908509)" /></g><path d="M0,0 m-30,0 a30,30 0 1,0 60,0 a30,30 0 1,0 -60,0" fill="none" stroke="black" transform="translate(236.49203310963003,332.8636569519357) rotate(63.01932769819868) scale(0.8042565281247271)" /><path d="M0,-30 L30,30 L-30,30 Z" fill="none" stroke="black" transform="translate(188.36293540934147,298.77966337476886) rotate(150.14222888465434) scale(1.0375096406904376)" /><g><path d="M-30,-20 h60 v40 h-60 Z" fill="none" stroke="black" transform="translate(293.7761559453975,282.95286175605867) rotate(87.01875047610919) scale(1.226476498542067)" /><path d="M-30,-20 h60 v40 h-60 Z" fill="none" stroke="black" transform="translate(293.7761559453975,282.95286175605867) rotate(87.01875047610919) scale(0.8585335489794469)" /><path d="M-30,-20 h60 v40 h-60 Z" fill="none" stroke="black" transform="translate(293.7761559453975,282.95286175605867) rotate(87.01875047610919) scale(0.49059059941682687)" /></g><g><path d="M-30,-20 h60 v40 h-60 Z" fill="none" stroke="black" transform="translate(74.54201129146433,241.8089769546449) rotate(55.493583690820714) scale(0.9590066550975324)" /><path d="M-30,-20 h60 v40 h-60 Z" fill="none" stroke="black" transform="translate(74.54201129146433,241.8089769546449) rotate(55.493583690820714) scale(0.6713046585682726)" /><path d="M-30,-20 h60 v40 h-60 Z" fill="none" stroke="black" transform="translate(74.54201129146433,241.8089769546449) rotate(55.493583690820714) scale(0.38360266203901294)" /></g><g><path d="M-30,-20 h60 v40 h-60 Z" fill="none" stroke="black" transform="translate(316.2855403529337,81.52514188104367) rotate(334.40363699721615) scale(1.1230650698848545)" /><path d="M-30,-20 h60 v40 h-60 Z" fill="none" stroke="black" transform="translate(316.2855403529337,81.52514188104367) rotate(334.40363699721615) scale(0.7861455489193981)" /></g></svg>