<svg baseProfile="full" height="400" version="1.1" width="400" xmlns="http://www.w3.org/2000/svg" xmlns:ev="http://www.w3.org/2001/xml-events" xmlns:xlink="http://www.w3.org/1999/xlink"><defs /><rect fill="white" height="100%" width="100%" x="0" y="0" /><g><path d="M0,-30 L30,30 L-30,30 Z" fill="none" stroke="black" transform="translate(128.01728913071807,250.88736345012978) rotate(101.51913693564308) scale(1.4173261591292348)" /><path d="M0,-30 L30,30 L-30,30 Z" fill="none" stroke="black" transform="translate(128.01728913071807,250.88736345012978) rotate(101.51913693564308) scale(0.9921283113904643)" /><path d="M0,-30 L30,30 L-30,30 Z" fill="none" stroke="black" transform="translate(128.01728913071807,250.88736345012978) rotate(101.51913693564308) scale(0.566930463651694)" /></g><g><path d="M0,-30 L30,30 L-30,30 Z" fill="none" stroke="black" transform="translate(221.8463082128717,145.8176916476918) rotate(264.6450953393014) scale(1.4738737242954438)" /><path d="M0,-30 L30,30 L-30,30 Z" fill="none" stroke="black" transform="translate(221.8463082128717,145.8176916476918) rotate(264.6450953393014) scale(1.0317116070068106)" /></g><g><path d="M0,-30 L30,30 L-30,30 Z" fill="none" stroke="black" transform="translate(134.84493846938486,125.00545507186081) rotate(77.81032991455939) scale(1.0536700808003956)" /><path d="M0,-30 L30,30 L-30,30 Z" fill="none" stroke="black" transform="translate(134.84493846938486,125.00545507186081) rotate(77.81032991455939) scale(0.7375690565602768)" /><path d="M0,-30 L30,30 L-30,30 Z" fill="none" stroke="black" transform="translate(134.84493846938486,125.00545507186081) rotate(77.81032991455939) scale(0.4214680323201583)" /></g><path d="M0,-30 L30,30 L-30,30 Z" fill="none" stroke="black" transform="translate(221.3298272272084,284.2360521708547) rotate(323.6825757705805) scale(1.5398679674658817)" /><path d="M0,-30 L30,30 L-30,30 Z" fill="none" stroke="black" transform="translate(80.68353756075017,319.17723975045254) rotate(143.33396747147856) scale(1.0693729744354559)" /><path d="M0,-30 L30,30 L-30,30 Z" fill="none" stroke="black" transform="translate(126.59548902865585,196.89019289171804) rotate(311.8220610046531) scale(0.8215286718476339)" /><g><path d="M30,0 L15,-26 L-15,-26 L-30,0 L-15,26 L15,26 Z" fill="none" stroke="black" transform="translate(86.40705617043194,110.51138978683464) rotate(17.457422436098557) scale(0.9784169452124254)" /><path d="M30,0 L15,-26 L-15,-26 L-30,0 L-15,26 L15,26 Z" fill="none" stroke="black" transform="translate(86.40705617043194,110.51138978683464) rotate(17.457422436098557) scale(0.6848918616486978)" /></g><path d="M30,0 L15,-26 L-15,-26 L-30,0 L-15,26 L15,26 Z" fill="none" stroke="black" transform="translate(310.1843122478186,221.16005208670583) rotate(307.21602969436503) scale(1.085029439007786)" /><path d="M30,0 L15,-26 L-15,-26 L-30,0 L-15,26 L15,26 Z" fill="none" stroke="black" transform="translate(322.8626638992767,182.1156692940724) rotate(311.5375965766975) scale(0.8392178295349727)" /><g><path d="M30,0 L15,-26 L-15,-26 L-30,0 L-15,26 L15,26 Z" fill="none" stroke="black" transform="translate(120.7837006923864,329.1222306330901) rotate(139.45003276051685) scale(0.9189976725518412)" /><path d="M30,0 L15,-26 L-15,-26 L-30,0 L-15,26 L15,26 Z" fill="none" stroke="black" transform="translate(120.7837006923864,329.1222306330901) rotate(139.45003276051685) scale(0.6432983707862888)" /></g><path d="M30,0 L15,-26 L-15,-26 L-30,0 L-15,26 L15,26 Z" fill="none" stroke="black" transform="translate(77.69123903898166,196.56653109722828) rotate(266.89417356436525) scale(0.9931702987349282)" /><g><path d="M30,0 L15,-26 L-15,-26 L-30,0 L-15,26 L15,26 Z" fill="none" stroke="black" transform="translate(184.05096560804844,236.2700931497388) rotate(204.30822639107245) scale(0.9056260077979528)" /><path d="M30,0 L15,-26 L-15,-26 L-30,0 L-15,26 L15,26 Z" fill="none" stroke="black" transform="translate(184.05096560804844,236.2700931497388) rotate(204.30822639107245) scale(0.6339382054585669)" /><path d="M30,0 L15,-26 L-15,-26 L-30,0 L-15,26 L15,26 Z" fill="none" stroke="black" transform="translate(184.05096560804844,236.2700931497388) rotate(204.30822639107245) scale(0.3622504031191811)" /></g><g><path d="M30,0 L15,-26 L-15,-26 L-30,0 L-15,26 L15,26 Z" fill="none" stroke="black" transform="translate(152.43936467767384,307.97748576899113) rotate(287.7486898480428) scale(0.894823502452685)" /><path d="M30,0 L15,-26 L-15,-26 L-30,0 L-15,26 L15,26 Z" fill="none" stroke="black" transform="translate(152.43936467767384,307.97748576899113) rotate(287.7486898480428) scale(0.6263764517168795)" /><path d="M30,0 L15,-26 L-15,-26 L-30,0 L-15,26 L15,26 Z" fill="none" stroke="black" transform="translate(152.43936467767384,307.97748576899113) rotate(287.7486898480428) scale(0.35792940098107406)" /></g><g><path d="M30,0 L15,-26 L-15,-26 L-30,0 L-15,26 L15,26 Z" fill="none" stroke="black" transform="translate(297.12269338413756,262.07047957067175) rotate(334.85140405777753) scale(0.927791703028686)" /><path d="M30,0 L15,-26 L-15,-26 L-30,0 L-15,26 L15,26 Z" fill="none" stroke="black" transform="translate(297.12269338413756,262.07047957067175) rotate(334.85140405777753) scale(0.6494541921200802)" /><path d="M30,0 L15,-26 L-15,-26 L-30,0 L-15,26 L15,26 Z" fill="none" stroke="black" transform="translate(297.12269338413756,262.07047957067175) rotate(334.85140405777753) scale(0.3711166812114744)" /></g><path d="M30,0 L15,-26 L-15,-26 L-30,0 L-15,26 L15,26 Z" fill="none" stroke="black" transform="translate(287.8024064447144,199.06859846199114) rotate(33.74400235704084) scale(0.8778339816163551)" /><g><path d="M0.0,-30.0 L8.8,-12.1 L28.5,-9.3 L14.3,4.6 L17.6,24.3 L0.0,15.0 L-17.6,24.3 L-14.3,4.6 L-28.5,-9.3 L-8.8,-12.1 Z" fill="none" stroke="black" transform="translate(106.62706287054411,74.34947213330024) rotate(90.80235020023511) scale(0.9795006124754286)" /><path d="M0.0,-30.0 L8.8,-12.1 L28.5,-9.3 L14.3,4.6 L17.6,24.3 L0.0,15.0 L-17.6,24.3 L-14.3,4.6 L-28.5,-9.3 L-8.8,-12.1 Z" fill="none" stroke="black" transform="translate(106.62706287054411,74.34947213330024) rotate(90.80235020023511) scale(0.6856504287328)" /><path d="M0.0,-30.0 L8.8,-12.1 L28.5,-9.3 L14.3,4.6 L17.6,24.3 L0.0,15.0 L-17.6,24.3 L-14.3,4.6 L-28.5,-9.3 L-8.8,-12.1 Z" fill="none" stroke="black" transform="translate(106.62706287054411,74.34947213330024) rotate(90.80235020023511) scale(0.39180024499017146)" /></g><g><path d="M0.0,-30.0 L8.8,-12.1 L28.5,-9.3 L14.3,4.6 L17.6,24.3 L0.0,15.0 L-17.6,24.3 L-14.3,4.6 L-28.5,-9.3 L-8.8,-12.1 Z" fill="none" stroke="black" transform="translate(304.9195049061848,336.9362041224655) rotate(330.5128197109436) scale(0.8713346397899058)" /><path d="M0.0,-30.0 L8.8,-12.1 L28.5,-9.3 L14.3,4.6 L17.6,24.3 L0.0,15.0 L-17.6,24.3 L-14.3,4.6 L-28.5,-9.3 L-8.8,-12.1 Z" fill="none" stroke="black" transform="translate(304.9195049061848,336.9362041224655) rotate(330.5128197109436) scale(0.609934247852934)" /><path d="M0.0,-30.0 L8.8,-12.1 L28.5,-9.3 L14.3,4.6 L17.6,24.3 L0.0,15.0 L-17.6,24.3 L-14.3,4.6 L-28.5,-9.3 L-8.8,-12.1 Z" fill="none" stroke="black" transform="translate(304.9195049061848,336.9362041224655) rotate(330.5128197109436) scale(0.3485338559159623)" /></g><g><path d="M0.0,-30.0 L8.8,-12.1 L28.5,-9.3 L14.3,4.6 L17.6,24.3 L0.0,15.0 L-17.6,24.3 L-14.3,4.6 L-28.5,-9.3 L-8.8,-12.1 Z" fill="none" stroke="black" transform="translate(281.69645052301945,98.8377109413408) rotate(56.38661181773565) scale(1.290376315801145)" /><path d="M0.0,-30.0 L8.8,-12.1 L28.5,-9.3 L14.3,4.6 L17.6,24.3 L0.0,15.0 L-17.6,24.3 L-14.3,4.6 L-28.5,-9.3 L-8.8,-12.1 Z" fill="none" stroke="black" transform="translate(281.69645052301945,98.8377109413408) rotate(56.38661181773565) scale(0.9032634210608014)" /></g><path d="M0.0,-30.0 L8.8,-12.1 L28.5,-9.3 L14.3,4.6 L17.6,24.3 L0.0,15.0 L-17.6,24.3 L-14.3,4.6 L-28.5,-9.3 L-8.8,-12.1 Z" fill="none" stroke="black" transform="translate(61.17656663132387,86.84761014674929) rotate(110.39893596499105) scale(0.8280762685476278)" /><path d="M0.0,-30.0 L8.8,-12.1 L28.5,-9.3 L14.3,4.6 L17.6,24.3 L0.0,15.0 L-17.6,24.3 L-14.3,4.6 L-28.5,-9.3 L-8.8,-12.1 Z" fill="none" stroke="black" transform="translate(258.85911814130094,223.07524995491963) rotate(246.31271629115128) scale(0.930173082562807)" /><g><path d="M-30,-20 h60 v40 h-60 Z" fill="none" stroke="black" transform="translate(97.90315046484697,157.10486677932207) rotate(255.63767895449402) scale(0.8478414694355592)" /><path d="M-30,-20 h60 v40 h-60 Z" fill="none" stroke="black" transform="translate(97.90315046484697,157.10486677932207) rotate(255.63767895449402) scale(0.5934890286048914)" /></g><path d="M-30,-20 h60 v40 h-60 Z" fill="none" stroke="black" transform="translate(218.7972708704875,92.0535464163064) rotate(170.31017177440285) scale(0.8371810317991242)" /><path d="M-30,-20 h60 v40 h-60 Z" fill="none" stroke="black" transform="translate(321.621579234193,68.69546931123534) rotate(133.14235239880702) scale(0.8212472008665309)" /><g><path d="M-30,-20 h60 v40 h-60 Z" fill="none" stroke="black" transform="translate(159.31874201897216,186.84085825226276) rotate(150.75396763653941) scale(0.9146389337221245)" /><path d="M-30,-20 h60 v40 h-60 Z" fill="none" stroke="black" transform="translate(159.31874201897216,186.84085825226276) rotate(150.75396763653941) scale(0.6402472536054871)" /></g><path d="M-30,-20 h60 v40 h-60 Z" fill="none" stroke="black" transform="translate(324.5328156323268,293.88202944810786) rotate(337.84669287514197) scale(1.0383624010830357)" /><g><path d="M0,0 m-30,0 a30,30 0 1,0 60,0 a30,30 0 1,0 -60,0" fill="none" stroke="black" transform="translate(159.58809712628005,152.85918028028595) rotate(71.3123468046918) scale(0.9210657204298398)" /><path d="M0,0 m-30,0 a30,30 0 1,0 60,0 a30,30 0 1,0 -60,0" fill="none" stroke="black" transform="translate(159.58809712628005,152.85918028028595) rotate(71.3123468046918) scale(0.6447460043008878)" /></g><path d="M0,0 m-30,0 a30,30 0 1,0 60,0 a30,30 0 1,0 -60,0" fill="none" stroke="black" transform="translate(177.29393027474512,98.2017641177535) rotate(177.20476402379742) scale(1.1699620454110926)" /><g><path d="M0.0,-30.0 L28.5,-9.3 L17.6,24.3 L-17.6,24.3 L-28.5,-9.3 Z" fill="none" stroke="black" transform="translate(67.7580593979211,257.300494437907) rotate(72.11692613098481) scale(0.8713385723832211)" /><path d="M0.0,-30.0 L28.5,-9.3 L17.6,24.3 L-17.6,24.3 L-28.5,-9.3 Z" fill="none" stroke="black" transform="translate(67.7580593979211,257.300494437907) rotate(72.11692613098481) scale(0.6099370006682547)" /></g><g><path d="M0.0,-30.0 L28.5,-9.3 L17.6,24.3 L-17.6,24.3 L-28.5,-9.3 Z" fill="none" stroke="black" transform="translate(135.58763772524773,163.55266607045837) rotate(69.234671641979) scale(0.8818788011761836)" /><path d="M0.0,-30.0 L28.5,-9.3 L17.6,24.3 L-17.6,24.3 L-28.5,-9.3 Z" fill="none" stroke="black" transform="translate(135.58763772524773,163.55266607045837) rotate(69.234671641979) scale(0.6173151608233285)" /></g><path d="M27.7,-11.5 L27.7,11.5 L11.5,27.7 L-11.5,27.7 L-27.7,11.5 L-27.7,-11.5 L-11.5,-27.7 L11.5,-27.7 Z" fill="none" stroke="black" transform="translate(267.6538138212993,162.50179623635975) rotate(359.40176681855144) scale(0.9058643575820453)" /><path d="M27.7,-11.5 L27.7,11.5 L11.5,27.7 L-11.5,27.7 L-27.7,11.5 L-27.7,-11.5 L-11.5,-27.7 L11.5,-27.7 Z" fill="none" stroke="black" transform="translate(245.08251735600675,330.636603653921) rotate(225.5425800082447) scale(0.8394108533696969)" /><path d="M27.7,-11.5 L27.7,11.5 L11.5,27.7 L-11.5,27.7 L-27.7,11.5 L-27.7,-11.5 L-11.5,-27.7 L11.5,-27.7 Z" fill="none" stroke="black" transform="translate(322.3053172712029,133.11003871050843) rotate(225.51478080649528) scale(1.033818263184755)" /></svg>