<svg baseProfile="full" height="400" version="1.1" width="400" xmlns="http://www.w3.org/2000/svg" xmlns:ev="http://www.w3.org/2001/xml-events" xmlns:xlink="http://www.w3.org/1999/xlink"><defs /><rect fill="white" height="100%" width="100%" x="0" y="0" /><g><path d="M0.0,-30.0 L28.5,-9.3 L17.6,24.3 L-17.6,24.3 L-28.5,-9.3 Z" fill="none" stroke="black" transform="translate(83.5837337444369,294.3683425232044) rotate(333.48385473135784) scale(0.8584253936180737)" /><path d="M0.0,-30.0 L28.5,-9.3 L17.6,24.3 L-17.6,24.3 L-28.5,-9.3 Z" fill="none" stroke="black" transform="translate(83.5837337444369,294.3683425232044) rotate(333.48385473135784) scale(0.6008977755326516)" /><path d="M0.0,-30.0 L28.5,-9.3 L17.6,24.3 L-17.6,24.3 L-28.5,-9.3 Z" fill="none" stroke="black" transform="translate(83.5837337444369,294.3683425232044) rotate(333.48385473135784) scale(0.3433701574472295)" /></g><path d="M30,0 L15,-26 L-15,-26 L-30,0 L-15,26 L15,26 Z" fill="none" stroke="black" transform="translate(210.68620176938256,232.83477686398453) rotate(49.40445627652436) scale(1.0360090315503456)" /><g><path d="M30,0 L15,-26 L-15,-26 L-30,0 L-15,26 L15,26 Z" fill="none" stroke="black" transform="translate(174.30164814913485,148.01274474710124) rotate(327.28825794796234) scale(1.5832902606897732)" /><path d="M30,0 L15,-26 L-15,-26 L-30,0 L-15,26 L15,26 Z" fill="none" stroke="black" transform="translate(174.30164814913485,148.01274474710124) rotate(327.28825794796234) scale(1.108303182482841)" /></g><path d="M30,0 L15,-26 L-15,-26 L-30,0 L-15,26 L15,26 Z" fill="none" stroke="black" transform="translate(140.03035894357572,188.71547892234605) rotate(136.434031861375) scale(0.8384375964145299)" /><g><path d="M0,-30 L30,30 L-30,30 Z" fill="none" stroke="black" transform="translate(75.51477475523389,207.02874213886304) rotate(315.76818347422574) scale(0.9074880699682117)" /><path d="M0,-30 L30,30 L-30,30 Z" fill="none" stroke="black" transform="translate(75.51477475523389,207.02874213886304) rotate(315.76818347422574) scale(0.6352416489777482)" /></g><path d="M0,-30 L30,30 L-30,30 Z" fill="none" stroke="black" transform="translate(171.45868564580672,332.37275749291285) rotate(39.121370892206365) scale(0.8843406808375314)" /><path d="M0,-30 L30,30 L-30,30 Z" fill="none" stroke="black" transform="translate(111.89706882546201,320.7608261941436) rotate(157.24748340476393) scale(0.9086025042157201)" /><g><path d="M0.0,-30.0 L8.8,-12.1 L28.5,-9.3 L14.3,4.6 L17.6,24.3 L0.0,15.0 L-17.6,24.3 L-14.3,4.6 L-28.5,-9.3 L-8.8,-12.1 Z" fill="none" stroke="black" transform="translate(292.68496726704075,289.6558221266931) rotate(194.8466677465406) scale(1.013343912094873)" /><path d="M0.0,-30.0 L8.8,-12.1 L28.5,-9.3 L14.3,4.6 L17.6,24.3 L0.0,15.0 L-17.6,24.3 L-14.3,4.6 L-28.5,-9.3 L-8.8,-12.1 Z" fill="none" stroke="black" transform="translate(292.68496726704075,289.6558221266931) rotate(194.8466677465406) scale(0.7093407384664111)" /><path d="M0.0,-30.0 L8.8,-12.1 L28.5,-9.3 L14.3,4.6 L17.6,24.3 L0.0,15.0 L-17.6,24.3 L-14.3,4.6 L-28.5,-9.3 L-8.8,-12.1 Z" fill="none" stroke="black" transform="translate(292.68496726704075,289.6558221266931) rotate(194.8466677465406) scale(0.40533756483794925)" /></g><g><path d="M0.0,-30.0 L8.8,-12.1 L28.5,-9.3 L14.3,4.6 L17.6,24.3 L0.0,15.0 L-17.6,24.3 L-14.3,4.6 L-28.5,-9.3 L-8.8,-12.1 Z" fill="none" stroke="black" transform="translate(253.95277947522948,125.27774859029917) rotate(198.12015257172627) scale(1.391397900886017)" /><path d="M0.0,-30.0 L8.8,-12.1 L28.5,-9.3 L14.3,4.6 L17.6,24.3 L0.0,15.0 L-17.6,24.3 L-14.3,4.6 L-28.5,-9.3 L-8.8,-12.1 Z" fill="none" stroke="black" transform="translate(253.95277947522948,125.27774859029917) rotate(198.12015257172627) scale(0.9739785306202118)" /></g></svg>