<svg baseProfile="full" height="400" version="1.1" width="400" xmlns="http://www.w3.org/2000/svg" xmlns:ev="http://www.w3.org/2001/xml-events" xmlns:xlink="http://www.w3.org/1999/xlink"><defs /><rect fill="white" height="100%" width="100%" x="0" y="0" /><g><path d="M0,0 m-30,0 a30,30 0 1,0 60,0 a30,30 0 1,0 -60,0" fill="none" stroke="black" transform="translate(239.36276224115448,148.973016452811) rotate(194.52958228406658) scale(1.7496851380202307)" /><path d="M0,0 m-30,0 a30,30 0 1,0 60,0 a30,30 0 1,0 -60,0" fill="none" stroke="black" transform="translate(239.36276224115448,148.973016452811) rotate(194.52958228406658) scale(1.2247795966141615)" /><path d="M0,0 m-30,0 a30,30 0 1,0 60,0 a30,30 0 1,0 -60,0" fill="none" stroke="black" transform="translate(239.36276224115448,148.973016452811) rotate(194.52958228406658) scale(0.6998740552080923)" /></g><path d="M0,0 m-30,0 a30,30 0 1,0 60,0 a30,30 0 1,0 -60,0" fill="none" stroke="black" transform="translate(193.49435336665863,326.1636016452084) rotate(352.82689015854714) scale(0.9029713388102917)" /><g><path d="M0,0 m-30,0 a30,30 0 1,0 60,0 a30,30 0 1,0 -60,0" fill="none" stroke="black" transform="translate(213.87921974499886,279.2760194252667) rotate(25.30263652626023) scale(1.1328452997266079)" /><path d="M0,0 m-30,0 a30,30 0 1,0 60,0 a30,30 0 1,0 -60,0" fill="none" stroke="black" transform="translate(213.87921974499886,279.2760194252667) rotate(25.30263652626023) scale(0.7929917098086254)" /></g><g><path d="M0,0 m-30,0 a30,30 0 1,0 60,0 a30,30 0 1,0 -60,0" fill="none" stroke="black" transform="translate(165.20525791858722,254.27970702367008) rotate(134.70750800125083) scale(0.9707048263764299)" /><path d="M0,0 m-30,0 a30,30 0 1,0 60,0 a30,30 0 1,0 -60,0" fill="none" stroke="black" transform="translate(165.20525791858722,254.27970702367008) rotate(134.70750800125083) scale(0.6794933784635009)" /></g><path d="M-30,-20 h60 v40 h-60 Z" fill="none" stroke="black" transform="translate(118.53074595372063,223.69132678548272) rotate(67.63715530994008) scale(0.9421376754474524)" /><g><path d="M-30,-20 h60 v40 h-60 Z" fill="none" stroke="black" transform="translate(302.69155825579634,278.9094241289914) rotate(10.469379145404151) scale(1.2758065261102736)" /><path d="M-30,-20 h60 v40 h-60 Z" fill="none" stroke="black" transform="translate(302.69155825579634,278.9094241289914) rotate(10.469379145404151) scale(0.8930645682771914)" /></g><path d="M-30,-20 h60 v40 h-60 Z" fill="none" stroke="black" transform="translate(97.56692619167484,225.81067687108072) rotate(168.67027196899753) scale(0.8727796695994282)" /><g><path d="M-30,-20 h60 v40 h-60 Z" fill="none" stroke="black" transform="translate(233.84176618688275,93.29778536510389) rotate(232.71199930075304) scale(0.930925976590501)" /><path d="M-30,-20 h60 v40 h-60 Z" fill="none" stroke="black" transform="translate(233.84176618688275,93.29778536510389) rotate(232.71199930075304) scale(0.6516481836133506)" /></g><path d="M-30,-20 h60 v40 h-60 Z" fill="none" stroke="black" transform="translate(85.55292047890254,322.649202549232) rotate(239.36543745300528) scale(0.8923483298863621)" /><path d="M0.0,-30.0 L8.8,-12.1 L28.5,-9.3 L14.3,4.6 L17.6,24.3 L0.0,15.0 L-17.6,24.3 L-14.3,4.6 L-28.5,-9.3 L-8.8,-12.1 Z" fill="none" stroke="black" transform="translate(189.3578067933395,226.47458763743523) rotate(106.89804570362739) scale(0.9403507792838258)" /><g><path d="M0.0,-30.0 L8.8,-12.1 L28.5,-9.3 L14.3,4.6 L17.6,24.3 L0.0,15.0 L-17.6,24.3 L-14.3,4.6 L-28.5,-9.3 L-8.8,-12.1 Z" fill="none" stroke="black" transform="translate(143.2524332277519,160.04754018862533) rotate(9.356574523587247) scale(1.4045359600646483)" /><path d="M0.0,-30.0 L8.8,-12.1 L28.5,-9.3 L14.3,4.6 L17.6,24.3 L0.0,15.0 L-17.6,24.3 L-14.3,4.6 L-28.5,-9.3 L-8.8,-12.1 Z" fill="none" stroke="black" transform="translate(143.2524332277519,160.04754018862533) rotate(9.356574523587247) scale(0.9831751720452537)" /></g></svg>