<svg baseProfile="full" height="400" version="1.1" width="400" xmlns="http://www.w3.org/2000/svg" xmlns:ev="http://www.w3.org/2001/xml-events" xmlns:xlink="http://www.w3.org/1999/xlink"><defs /><rect fill="white" height="100%" width="100%" x="0" y="0" /><path d="M0,0 m-30,0 a30,30 0 1,0 60,0 a30,30 0 1,0 -60,0" fill="none" stroke="black" transform="translate(97.3049609794498,277.67653323805376) rotate(104.57009398673976) scale(1.3291647970146425)" /><g><path d="M0,0 m-30,0 a30,30 0 1,0 60,0 a30,30 0 1,0 -60,0" fill="none" stroke="black" transform="translate(185.97488029170484,338.766957136792) rotate(29.977342956369924) scale(0.8504375648942455)" /><path d="M0,0 m-30,0 a30,30 0 1,0 60,0 a30,30 0 1,0 -60,0" fill="none" stroke="black" transform="translate(185.97488029170484,338.766957136792) rotate(29.977342956369924) scale(0.5953062954259718)" /><path d="M0,0 m-30,0 a30,30 0 1,0 60,0 a30,30 0 1,0 -60,0" fill="none" stroke="black" transform="translate(185.97488029170484,338.766957136792) rotate(29.977342956369924) scale(0.3401750259576982)" /></g><path d="M0,0 m-30,0 a30,30 0 1,0 60,0 a30,30 0 1,0 -60,0" fill="none" stroke="black" transform="translate(127.04689345460196,74.04886491643384) rotate(205.38599166588128) scale(1.0282111217424508)" /><path d="M0,0 m-30,0 a30,30 0 1,0 60,0 a30,30 0 1,0 -60,0" fill="none" stroke="black" transform="translate(215.44146519356588,127.1652213643354) rotate(356.84365212826435) scale(0.8112644517619857)" /><path d="M0,0 m-30,0 a30,30 0 1,0 60,0 a30,30 0 1,0 -60,0" fill="none" stroke="black" transform="translate(290.1409655222331,255.25185162559205) rotate(32.94945335825053) scale(1.2107142986837822)" /><g><path d="M0,0 m-30,0 a30,30 0 1,0 60,0 a30,30 0 1,0 -60,0" fill="none" stroke="black" transform="translate(136.02941370973167,181.75842012753088) rotate(342.46948461695297) scale(0.9678864732171175)" /><path d="M0,0 m-30,0 a30,30 0 1,0 60,0 a30,30 0 1,0 -60,0" fill="none" stroke="black" transform="translate(136.02941370973167,181.75842012753088) rotate(342.46948461695297) scale(0.6775205312519822)" /><path d="M0,0 m-30,0 a30,30 0 1,0 60,0 a30,30 0 1,0 -60,0" fill="none" stroke="black" transform="translate(136.02941370973167,181.75842012753088) rotate(342.46948461695297) scale(0.38715458928684704)" /></g><path d="M0,-30 L30,30 L-30,30 Z" fill="none" stroke="black" transform="translate(312.8278945582913,75.65806474264741) rotate(355.34721825594585) scale(0.9014348508892784)" /><path d="M30,0 L15,-26 L-15,-26 L-30,0 L-15,26 L15,26 Z" fill="none" stroke="black" transform="translate(293.31235167539273,159.46664061333513) rotate(180.61272122911117) scale(1.1766051455053845)" /></svg>