<svg baseProfile="full" height="400" version="1.1" width="400" xmlns="http://www.w3.org/2000/svg" xmlns:ev="http://www.w3.org/2001/xml-events" xmlns:xlink="http://www.w3.org/1999/xlink"><defs /><rect fill="white" height="100%" width="100%" x="0" y="0" /><path d="M0,-30 L30,30 L-30,30 Z" fill="none" stroke="black" transform="translate(276.96021665770365,249.8242147965238) rotate(92.0344026709759) scale(1.4397828172248521)" /><g><path d="M-30,-20 h60 v40 h-60 Z" fill="none" stroke="black" transform="translate(64.53811644174384,205.49182981704763) rotate(163.58019467947477) scale(0.8671682163336331)" /><path d="M-30,-20 h60 v40 h-60 Z" fill="none" stroke="black" transform="translate(64.53811644174384,205.49182981704763) rotate(163.58019467947477) scale(0.6070177514335431)" /></g><path d="M-30,-20 h60 v40 h-60 Z" fill="none" stroke="black" transform="translate(308.6943774869135,127.13044105058589) rotate(181.45390291215534) scale(1.2490693557821382)" /><path d="M-30,-20 h60 v40 h-60 Z" fill="none" stroke="black" transform="translate(103.00427747331567,100.58221032783666) rotate(212.11688055094157) scale(1.0532779073714802)" /><path d="M0,0 m-30,0 a30,30 0 1,0 60,0 a30,30 0 1,0 -60,0" fill="none" stroke="black" transform="translate(122.36407498452027,297.2286052677653) rotate(0.1747488874341263) scale(1.3422750784700792)" /><g><path d="M0,0 m-30,0 a30,30 0 1,0 60,0 a30,30 0 1,0 -60,0" fill="none" stroke="black" transform="translate(193.42373731515664,140.94784931947913) rotate(33.43314478964803) scale(1.1340803870998526)" /><path d="M0,0 m-30,0 a30,30 0 1,0 60,0 a30,30 0 1,0 -60,0" fill="none" stroke="black" transform="translate(193.42373731515664,140.94784931947913) rotate(33.43314478964803) scale(0.7938562709698967)" /></g><g><path d="M0,0 m-30,0 a30,30 0 1,0 60,0 a30,30 0 1,0 -60,0" fill="none" stroke="black" transform="translate(250.92448625185597,334.51975200413113) rotate(12.159790053073444) scale(0.8217266649763734)" /><path d="M0,0 m-30,0 a30,30 0 1,0 60,0 a30,30 0 1,0 -60,0" fill="none" stroke="black" transform="translate(250.92448625185597,334.51975200413113) rotate(12.159790053073444) scale(0.5752086654834613)" /></g></svg>