<svg baseProfile="full" height="400" version="1.1" width="400" xmlns="http://www.w3.org/2000/svg" xmlns:ev="http://www.w3.org/2001/xml-events" xmlns:xlink="http://www.w3.org/1999/xlink"><defs /><rect fill="white" height="100%" width="100%" x="0" y="0" /><path d="M30,0 L15,-26 L-15,-26 L-30,0 L-15,26 L15,26 Z" fill="none" stroke="black" transform="translate(125.54333378785964,280.3640975980972) rotate(27.708650064210527) scale(0.8947792639070657)" /><g><path d="M30,0 L15,-26 L-15,-26 L-30,0 L-15,26 L15,26 Z" fill="none" stroke="black" transform="translate(227.34918142376972,129.9615279091076) rotate(343.8744019452902) scale(1.4139924189750221)" /><path d="M30,0 L15,-26 L-15,-26 L-30,0 L-15,26 L15,26 Z" fill="none" stroke="black" transform="translate(227.34918142376972,129.9615279091076) rotate(343.8744019452902) scale(0.9897946932825155)" /><path d="M30,0 L15,-26 L-15,-26 L-30,0 L-15,26 L15,26 Z" fill="none" stroke="black" transform="translate(227.34918142376972,129.9615279091076) rotate(343.8744019452902) scale(0.5655969675900089)" /></g><g><path d="M30,0 L15,-26 L-15,-26 L-30,0 L-15,26 L15,26 Z" fill="none" stroke="black" transform="translate(291.9417906491077,164.66202568116603) rotate(221.30990106508523) scale(0.9878527849394358)" /><path d="M30,0 L15,-26 L-15,-26 L-30,0 L-15,26 L15,26 Z" fill="none" stroke="black" transform="translate(291.9417906491077,164.66202568116603) rotate(221.30990106508523) scale(0.6914969494576051)" /><path d="M30,0 L15,-26 L-15,-26 L-30,0 L-15,26 L15,26 Z" fill="none" stroke="black" transform="translate(291.9417906491077,164.66202568116603) rotate(221.30990106508523) scale(0.39514111397577434)" /></g><g><path d="M-30,-20 h60 v40 h-60 Z" fill="none" stroke="black" transform="translate(72.2602747336837,159.42146354261584) rotate(2.104124831911962) scale(0.9351960983132449)" /><path d="M-30,-20 h60 v40 h-60 Z" fill="none" stroke="black" transform="translate(72.2602747336837,159.42146354261584) rotate(2.104124831911962) scale(0.6546372688192714)" /><path d="M-30,-20 h60 v40 h-60 Z" fill="none" stroke="black" transform="translate(72.2602747336837,159.42146354261584) rotate(2.104124831911962) scale(0.374078439325298)" /></g><path d="M-30,-20 h60 v40 h-60 Z" fill="none" stroke="black" transform="translate(280.97278404382416,252.87268519307887) rotate(295.68960355996586) scale(1.465493894376376)" /><path d="M27.7,-11.5 L27.7,11.5 L11.5,27.7 L-11.5,27.7 L-27.7,11.5 L-27.7,-11.5 L-11.5,-27.7 L11.5,-27.7 Z" fill="none" stroke="black" transform="translate(80.64690772643397,314.26429166915017) rotate(157.9946286066412) scale(0.8117085851197458)" /><g><path d="M27.7,-11.5 L27.7,11.5 L11.5,27.7 L-11.5,27.7 L-27.7,11.5 L-27.7,-11.5 L-11.5,-27.7 L11.5,-27.7 Z" fill="none" stroke="black" transform="translate(185.65812469170942,229.47487722505343) rotate(300.010389807646) scale(1.9862872027057794)" /><path d="M27.7,-11.5 L27.7,11.5 L11.5,27.7 L-11.5,27.7 L-27.7,11.5 L-27.7,-11.5 L-11.5,-27.7 L11.5,-27.7 Z" fill="none" stroke="black" transform="translate(185.65812469170942,229.47487722505343) rotate(300.010389807646) scale(1.3904010418940456)" /><path d="M27.7,-11.5 L27.7,11.5 L11.5,27.7 L-11.5,27.7 L-27.7,11.5 L-27.7,-11.5 L-11.5,-27.7 L11.5,-27.7 Z" fill="none" stroke="black" transform="translate(185.65812469170942,229.47487722505343) rotate(300.010389807646) scale(0.7945148810823118)" /></g><path d="M27.7,-11.5 L27.7,11.5 L11.5,27.7 L-11.5,27.7 L-27.7,11.5 L-27.7,-11.5 L-11.5,-27.7 L11.5,-27.7 Z" fill="none" stroke="black" transform="translate(211.56045737278518,77.24925680976067) rotate(350.87382690960055) scale(0.8623021651904752)" /><path d="M27.7,-11.5 L27.7,11.5 L11.5,27.7 L-11.5,27.7 L-27.7,11.5 L-27.7,-11.5 L-11.5,-27.7 L11.5,-27.7 Z" fill="none" stroke="black" transform="translate(78.35878030052142,124.67696059184887) rotate(266.9042235435622) scale(0.9956663130604925)" /><path d="M27.7,-11.5 L27.7,11.5 L11.5,27.7 L-11.5,27.7 L-27.7,11.5 L-27.7,-11.5 L-11.5,-27.7 L11.5,-27.7 Z" fill="none" stroke="black" transform="translate(138.7146785751195,133.1827955381317) rotate(350.82858804478496) scale(0.8923921449284253)" /><path d="M27.7,-11.5 L27.7,11.5 L11.5,27.7 L-11.5,27.7 L-27.7,11.5 L-27.7,-11.5 L-11.5,-27.7 L11.5,-27.7 Z" fill="none" stroke="black" transform="translate(266.443347045271,309.61495216636246) rotate(193.015589114199) scale(1.1873920482368918)" /><path d="M27.7,-11.5 L27.7,11.5 L11.5,27.7 L-11.5,27.7 L-27.7,11.5 L-27.7,-11.5 L-11.5,-27.7 L11.5,-27.7 Z" fill="none" stroke="black" transform="translate(114.92269739790943,91.44845471529939) rotate(21.529247134792982) scale(0.9046739338771823)" /><g><path d="M27.7,-11.5 L27.7,11.5 L11.5,27.7 L-11.5,27.7 L-27.7,11.5 L-27.7,-11.5 L-11.5,-27.7 L11.5,-27.7 Z" fill="none" stroke="black" transform="translate(259.1621067334782,187.48933129487784) rotate(114.04030642008169) scale(0.8351136910210005)" /><path d="M27.7,-11.5 L27.7,11.5 L11.5,27.7 L-11.5,27.7 L-27.7,11.5 L-27.7,-11.5 L-11.5,-27.7 L11.5,-27.7 Z" fill="none" stroke="black" transform="translate(259.1621067334782,187.48933129487784) rotate(114.04030642008169) scale(0.5845795837147003)" /><path d="M27.7,-11.5 L27.7,11.5 L11.5,27.7 L-11.5,27.7 L-27.7,11.5 L-27.7,-11.5 L-11.5,-27.7 L11.5,-27.7 Z" fill="none" stroke="black" transform="translate(259.1621067334782,187.48933129487784) rotate(114.04030642008169) scale(0.3340454764084002)" /></g><g><path d="M0.0,-30.0 L8.8,-12.1 L28.5,-9.3 L14.3,4.6 L17.6,24.3 L0.0,15.0 L-17.6,24.3 L-14.3,4.6 L-28.5,-9.3 L-8.8,-12.1 Z" fill="none" stroke="black" transform="translate(206.00427639067703,309.73228671492313) rotate(260.58589800634667) scale(0.8597875073684704)" /><path d="M0.0,-30.0 L8.8,-12.1 L28.5,-9.3 L14.3,4.6 L17.6,24.3 L0.0,15.0 L-17.6,24.3 L-14.3,4.6 L-28.5,-9.3 L-8.8,-12.1 Z" fill="none" stroke="black" transform="translate(206.00427639067703,309.73228671492313) rotate(260.58589800634667) scale(0.6018512551579293)" /><path d="M0.0,-30.0 L8.8,-12.1 L28.5,-9.3 L14.3,4.6 L17.6,24.3 L0.0,15.0 L-17.6,24.3 L-14.3,4.6 L-28.5,-9.3 L-8.8,-12.1 Z" fill="none" stroke="black" transform="translate(206.00427639067703,309.73228671492313) rotate(260.58589800634667) scale(0.3439150029473882)" /></g><path d="M0.0,-30.0 L8.8,-12.1 L28.5,-9.3 L14.3,4.6 L17.6,24.3 L0.0,15.0 L-17.6,24.3 L-14.3,4.6 L-28.5,-9.3 L-8.8,-12.1 Z" fill="none" stroke="black" transform="translate(291.0191105173411,96.31072062502446) rotate(93.27242699387575) scale(1.2009362914485646)" /><path d="M0.0,-30.0 L8.8,-12.1 L28.5,-9.3 L14.3,4.6 L17.6,24.3 L0.0,15.0 L-17.6,24.3 L-14.3,4.6 L-28.5,-9.3 L-8.8,-12.1 Z" fill="none" stroke="black" transform="translate(328.7945058126654,193.6508781013722) rotate(78.88609762382296) scale(0.9805513190422728)" /><path d="M0.0,-30.0 L8.8,-12.1 L28.5,-9.3 L14.3,4.6 L17.6,24.3 L0.0,15.0 L-17.6,24.3 L-14.3,4.6 L-28.5,-9.3 L-8.8,-12.1 Z" fill="none" stroke="black" transform="translate(173.85719375648978,97.48982690399) rotate(157.10660653214296) scale(1.0292463733450805)" /><path d="M0.0,-30.0 L8.8,-12.1 L28.5,-9.3 L14.3,4.6 L17.6,24.3 L0.0,15.0 L-17.6,24.3 L-14.3,4.6 L-28.5,-9.3 L-8.8,-12.1 Z" fill="none" stroke="black" transform="translate(102.30249193416749,216.50139557088045) rotate(298.8598573256015) scale(1.2709822858160815)" /><path d="M0.0,-30.0 L8.8,-12.1 L28.5,-9.3 L14.3,4.6 L17.6,24.3 L0.0,15.0 L-17.6,24.3 L-14.3,4.6 L-28.5,-9.3 L-8.8,-12.1 Z" fill="none" stroke="black" transform="translate(132.70298635607065,334.37988610271344) rotate(331.5508293444121) scale(0.8438556955947395)" /><path d="M0,0 m-30,0 a30,30 0 1,0 60,0 a30,30 0 1,0 -60,0" fill="none" stroke="black" transform="translate(115.10617236172953,160.54231329842963) rotate(170.957999334374) scale(1.0101180628174358)" /><g><path d="M0,0 m-30,0 a30,30 0 1,0 60,0 a30,30 0 1,0 -60,0" fill="none" stroke="black" transform="translate(83.76533274472222,260.8277350965617) rotate(96.93926580339603) scale(0.821060046202382)" /><path d="M0,0 m-30,0 a30,30 0 1,0 60,0 a30,30 0 1,0 -60,0" fill="none" stroke="black" transform="translate(83.76533274472222,260.8277350965617) rotate(96.93926580339603) scale(0.5747420323416674)" /></g><g><path d="M0,0 m-30,0 a30,30 0 1,0 60,0 a30,30 0 1,0 -60,0" fill="none" stroke="black" transform="translate(157.6479100849311,316.1690403100397) rotate(145.9166118620598) scale(1.0342682197647992)" /><path d="M0,0 m-30,0 a30,30 0 1,0 60,0 a30,30 0 1,0 -60,0" fill="none" stroke="black" transform="translate(157.6479100849311,316.1690403100397) rotate(145.9166118620598) scale(0.7239877538353594)" /><path d="M0,0 m-30,0 a30,30 0 1,0 60,0 a30,30 0 1,0 -60,0" fill="none" stroke="black" transform="translate(157.6479100849311,316.1690403100397) rotate(145.9166118620598) scale(0.4137072879059197)" /></g><path d="M0.0,-30.0 L28.5,-9.3 L17.6,24.3 L-17.6,24.3 L-28.5,-9.3 Z" fill="none" stroke="black" transform="translate(341.17509934411794,76.67070235822624) rotate(158.9911005907428) scale(0.8166525114371397)" /><path d="M0.0,-30.0 L28.5,-9.3 L17.6,24.3 L-17.6,24.3 L-28.5,-9.3 Z" fill="none" stroke="black" transform="translate(341.0182397540452,331.50444258042563) rotate(213.0726629749411) scale(0.8181580149974697)" /><path d="M0,-30 L30,30 L-30,30 Z" fill="none" stroke="black" transform="translate(81.43801862616976,76.14013472363695) rotate(247.79129669946593) scale(0.8029640608606035)" /></svg>