<svg baseProfile="full" height="400" version="1.1" width="400" xmlns="http://www.w3.org/2000/svg" xmlns:ev="http://www.w3.org/2001/xml-events" xmlns:xlink="http://www.w3.org/1999/xlink"><defs /><rect fill="white" height="100%" width="100%" x="0" y="0" /><path d="M0,-30 L30,30 L-30,30 Z" fill="none" stroke="black" transform="translate(117.2805736629258,119.89094256345109) rotate(331.6644238856717) scale(1.3259761867708253)" /><path d="M0,0 m-30,0 a30,30 0 1,0 60,0 a30,30 0 1,0 -60,0" fill="none" stroke="black" transform="translate(138.37701325031418,225.083903104508) rotate(248.61381047838114) scale(1.699427492003765)" /><path d="M0,0 m-30,0 a30,30 0 1,0 60,0 a30,30 0 1,0 -60,0" fill="none" stroke="black" transform="translate(283.6668118693098,135.72440544752806) rotate(16.511949678533306) scale(1.452607711155792)" /><path d="M0,0 m-30,0 a30,30 0 1,0 60,0 a30,30 0 1,0 -60,0" fill="none" stroke="black" transform="translate(273.8693080233401,292.57237418099817) rotate(231.36047690525234) scale(1.398469927297802)" /><g><path d="M0,0 m-30,0 a30,30 0 1,0 60,0 a30,30 0 1,0 -60,0" fill="none" stroke="black" transform="translate(183.0095644815636,322.6368441740657) rotate(338.3045751638939) scale(1.0511807510980375)" /><path d="M0,0 m-30,0 a30,30 0 1,0 60,0 a30,30 0 1,0 -60,0" fill="none" stroke="black" transform="translate(183.0095644815636,322.6368441740657) rotate(338.3045751638939) scale(0.7358265257686263)" /></g><path d="M-30,-20 h60 v40 h-60 Z" fill="none" stroke="black" transform="translate(210.5736827785106,75.93794700599167) rotate(215.9512827053011) scale(0.8227595187240531)" /></svg>