<svg baseProfile="full" height="400" version="1.1" width="400" xmlns="http://www.w3.org/2000/svg" xmlns:ev="http://www.w3.org/2001/xml-events" xmlns:xlink="http://www.w3.org/1999/xlink"><defs /><rect fill="white" height="100%" width="100%" x="0" y="0" /><path d="M0,0 m-30,0 a30,30 0 1,0 60,0 a30,30 0 1,0 -60,0" fill="none" stroke="black" transform="translate(102.82408770874571,314.6753405534955) rotate(263.00107032027273) scale(0.9704889546671835)" /><g><path d="M0,0 m-30,0 a30,30 0 1,0 60,0 a30,30 0 1,0 -60,0" fill="none" stroke="black" transform="translate(178.89290792143012,180.8446664871065) rotate(140.83786873471092) scale(1.7080253671585794)" /><path d="M0,0 m-30,0 a30,30 0 1,0 60,0 a30,30 0 1,0 -60,0" fill="none" stroke="black" transform="translate(178.89290792143012,180.8446664871065) rotate(140.83786873471092) scale(1.1956177570110056)" /><path d="M0,0 m-30,0 a30,30 0 1,0 60,0 a30,30 0 1,0 -60,0" fill="none" stroke="black" transform="translate(178.89290792143012,180.8446664871065) rotate(140.83786873471092) scale(0.6832101468634318)" /></g><path d="M0,0 m-30,0 a30,30 0 1,0 60,0 a30,30 0 1,0 -60,0" fill="none" stroke="black" transform="translate(295.97319793875033,137.84604749557462) rotate(282.7675699531561) scale(1.0679598219942639)" /><path d="M0.0,-30.0 L28.5,-9.3 L17.6,24.3 L-17.6,24.3 L-28.5,-9.3 Z" fill="none" stroke="black" transform="translate(327.9945513504116,105.62962049550424) rotate(135.6708162277245) scale(0.9422820679983168)" /><path d="M0.0,-30.0 L28.5,-9.3 L17.6,24.3 L-17.6,24.3 L-28.5,-9.3 Z" fill="none" stroke="black" transform="translate(75.97589355743179,198.56495940820986) rotate(51.32894645425494) scale(0.8861417729100236)" /><g><path d="M0.0,-30.0 L28.5,-9.3 L17.6,24.3 L-17.6,24.3 L-28.5,-9.3 Z" fill="none" stroke="black" transform="translate(123.95476651933849,92.17425748914062) rotate(95.10337522169385) scale(1.144110137826937)" /><path d="M0.0,-30.0 L28.5,-9.3 L17.6,24.3 L-17.6,24.3 L-28.5,-9.3 Z" fill="none" stroke="black" transform="translate(123.95476651933849,92.17425748914062) rotate(95.10337522169385) scale(0.8008770964788559)" /><path d="M0.0,-30.0 L28.5,-9.3 L17.6,24.3 L-17.6,24.3 L-28.5,-9.3 Z" fill="none" stroke="black" transform="translate(123.95476651933849,92.17425748914062) rotate(95.10337522169385) scale(0.4576440551307748)" /></g><path d="M27.7,-11.5 L27.7,11.5 L11.5,27.7 L-11.5,27.7 L-27.7,11.5 L-27.7,-11.5 L-11.5,-27.7 L11.5,-27.7 Z" fill="none" stroke="black" transform="translate(216.61758103549172,94.64557203616555) rotate(202.5534118685224) scale(1.121335501404261)" /><g><path d="M27.7,-11.5 L27.7,11.5 L11.5,27.7 L-11.5,27.7 L-27.7,11.5 L-27.7,-11.5 L-11.5,-27.7 L11.5,-27.7 Z" fill="none" stroke="black" transform="translate(198.39733248645075,255.41859479526323) rotate(152.60005392403235) scale(0.904424806760317)" /><path d="M27.7,-11.5 L27.7,11.5 L11.5,27.7 L-11.5,27.7 L-27.7,11.5 L-27.7,-11.5 L-11.5,-27.7 L11.5,-27.7 Z" fill="none" stroke="black" transform="translate(198.39733248645075,255.41859479526323) rotate(152.60005392403235) scale(0.6330973647322219)" /><path d="M27.7,-11.5 L27.7,11.5 L11.5,27.7 L-11.5,27.7 L-27.7,11.5 L-27.7,-11.5 L-11.5,-27.7 L11.5,-27.7 Z" fill="none" stroke="black" transform="translate(198.39733248645075,255.41859479526323) rotate(152.60005392403235) scale(0.36176992270412683)" /></g><g><path d="M27.7,-11.5 L27.7,11.5 L11.5,27.7 L-11.5,27.7 L-27.7,11.5 L-27.7,-11.5 L-11.5,-27.7 L11.5,-27.7 Z" fill="none" stroke="black" transform="translate(110.07878751953555,255.38762007432734) rotate(168.28925599588206) scale(1.163447557029777)" /><path d="M27.7,-11.5 L27.7,11.5 L11.5,27.7 L-11.5,27.7 L-27.7,11.5 L-27.7,-11.5 L-11.5,-27.7 L11.5,-27.7 Z" fill="none" stroke="black" transform="translate(110.07878751953555,255.38762007432734) rotate(168.28925599588206) scale(0.8144132899208439)" /></g><path d="M27.7,-11.5 L27.7,11.5 L11.5,27.7 L-11.5,27.7 L-27.7,11.5 L-27.7,-11.5 L-11.5,-27.7 L11.5,-27.7 Z" fill="none" stroke="black" transform="translate(153.61639750389844,307.3881186480351) rotate(329.02909829874477) scale(1.20098721651267)" /><path d="M27.7,-11.5 L27.7,11.5 L11.5,27.7 L-11.5,27.7 L-27.7,11.5 L-27.7,-11.5 L-11.5,-27.7 L11.5,-27.7 Z" fill="none" stroke="black" transform="translate(306.2920732277061,243.41698151270978) rotate(256.2539370580608) scale(0.8725622614213918)" /><path d="M0,-30 L30,30 L-30,30 Z" fill="none" stroke="black" transform="translate(230.10704196467196,142.52752868506985) rotate(191.8929018535243) scale(1.2001143164146084)" /><path d="M0,-30 L30,30 L-30,30 Z" fill="none" stroke="black" transform="translate(212.73952604573316,305.57460177178143) rotate(292.42389445082216) scale(0.8462449930179652)" /><g><path d="M0,-30 L30,30 L-30,30 Z" fill="none" stroke="black" transform="translate(266.144569390096,267.33921640206387) rotate(151.6156466200406) scale(1.7207632852481338)" /><path d="M0,-30 L30,30 L-30,30 Z" fill="none" stroke="black" transform="translate(266.144569390096,267.33921640206387) rotate(151.6156466200406) scale(1.2045342996736936)" /></g><g><path d="M0,-30 L30,30 L-30,30 Z" fill="none" stroke="black" transform="translate(161.81969535069345,102.22191688216942) rotate(11.16198642786121) scale(1.188467445445408)" /><path d="M0,-30 L30,30 L-30,30 Z" fill="none" stroke="black" transform="translate(161.81969535069345,102.22191688216942) rotate(11.16198642786121) scale(0.8319272118117856)" /></g><g><path d="M0,-30 L30,30 L-30,30 Z" fill="none" stroke="black" transform="translate(238.92394088292815,210.46059935621537) rotate(240.7074203015563) scale(0.9938940306628959)" /><path d="M0,-30 L30,30 L-30,30 Z" fill="none" stroke="black" transform="translate(238.92394088292815,210.46059935621537) rotate(240.7074203015563) scale(0.6957258214640272)" /></g><g><path d="M-30,-20 h60 v40 h-60 Z" fill="none" stroke="black" transform="translate(183.94859730244153,329.48322098078734) rotate(249.94654155157073) scale(0.8725867232531427)" /><path d="M-30,-20 h60 v40 h-60 Z" fill="none" stroke="black" transform="translate(183.94859730244153,329.48322098078734) rotate(249.94654155157073) scale(0.6108107062771998)" /></g><path d="M0.0,-30.0 L8.8,-12.1 L28.5,-9.3 L14.3,4.6 L17.6,24.3 L0.0,15.0 L-17.6,24.3 L-14.3,4.6 L-28.5,-9.3 L-8.8,-12.1 Z" fill="none" stroke="black" transform="translate(306.7580604969347,87.91442337325525) rotate(184.7773644654545) scale(0.8655554438583071)" /><g><path d="M0.0,-30.0 L8.8,-12.1 L28.5,-9.3 L14.3,4.6 L17.6,24.3 L0.0,15.0 L-17.6,24.3 L-14.3,4.6 L-28.5,-9.3 L-8.8,-12.1 Z" fill="none" stroke="black" transform="translate(256.2550035456419,178.56785893143183) rotate(153.7580491040251) scale(0.8369742789313136)" /><path d="M0.0,-30.0 L8.8,-12.1 L28.5,-9.3 L14.3,4.6 L17.6,24.3 L0.0,15.0 L-17.6,24.3 L-14.3,4.6 L-28.5,-9.3 L-8.8,-12.1 Z" fill="none" stroke="black" transform="translate(256.2550035456419,178.56785893143183) rotate(153.7580491040251) scale(0.5858819952519195)" /></g><path d="M0.0,-30.0 L8.8,-12.1 L28.5,-9.3 L14.3,4.6 L17.6,24.3 L0.0,15.0 L-17.6,24.3 L-14.3,4.6 L-28.5,-9.3 L-8.8,-12.1 Z" fill="none" stroke="black" transform="translate(83.45567727932357,163.8703846169355) rotate(128.03827355176927) scale(0.8402997619611435)" /><g><path d="M0.0,-30.0 L8.8,-12.1 L28.5,-9.3 L14.3,4.6 L17.6,24.3 L0.0,15.0 L-17.6,24.3 L-14.3,4.6 L-28.5,-9.3 L-8.8,-12.1 Z" fill="none" stroke="black" transform="translate(73.1009482939866,329.8933758029921) rotate(337.77357806792554) scale(0.8225989398358551)" /><path d="M0.0,-30.0 L8.8,-12.1 L28.5,-9.3 L14.3,4.6 L17.6,24.3 L0.0,15.0 L-17.6,24.3 L-14.3,4.6 L-28.5,-9.3 L-8.8,-12.1 Z" fill="none" stroke="black" transform="translate(73.1009482939866,329.8933758029921) rotate(337.77357806792554) scale(0.5758192578850985)" /><path d="M0.0,-30.0 L8.8,-12.1 L28.5,-9.3 L14.3,4.6 L17.6,24.3 L0.0,15.0 L-17.6,24.3 L-14.3,4.6 L-28.5,-9.3 L-8.8,-12.1 Z" fill="none" stroke="black" transform="translate(73.1009482939866,329.8933758029921) rotate(337.77357806792554) scale(0.3290395759343421)" /></g><g><path d="M0.0,-30.0 L8.8,-12.1 L28.5,-9.3 L14.3,4.6 L17.6,24.3 L0.0,15.0 L-17.6,24.3 L-14.3,4.6 L-28.5,-9.3 L-8.8,-12.1 Z" fill="none" stroke="black" transform="translate(289.297470103496,306.88890458153156) rotate(173.43411911798322) scale(0.850354251146587)" /><path d="M0.0,-30.0 L8.8,-12.1 L28.5,-9.3 L14.3,4.6 L17.6,24.3 L0.0,15.0 L-17.6,24.3 L-14.3,4.6 L-28.5,-9.3 L-8.8,-12.1 Z" fill="none" stroke="black" transform="translate(289.297470103496,306.88890458153156) rotate(173.43411911798322) scale(0.5952479758026109)" /></g><g><path d="M0.0,-30.0 L8.8,-12.1 L28.5,-9.3 L14.3,4.6 L17.6,24.3 L0.0,15.0 L-17.6,24.3 L-14.3,4.6 L-28.5,-9.3 L-8.8,-12.1 Z" fill="none" stroke="black" transform="translate(273.46657092200513,182.4337788160979) rotate(153.64730917848786) scale(0.8392461228754173)" /><path d="M0.0,-30.0 L8.8,-12.1 L28.5,-9.3 L14.3,4.6 L17.6,24.3 L0.0,15.0 L-17.6,24.3 L-14.3,4.6 L-28.5,-9.3 L-8.8,-12.1 Z" fill="none" stroke="black" transform="translate(273.46657092200513,182.4337788160979) rotate(153.64730917848786) scale(0.5874722860127921)" /></g><path d="M30,0 L15,-26 L-15,-26 L-30,0 L-15,26 L15,26 Z" fill="none" stroke="black" transform="translate(109.15701595859423,211.66735358836038) rotate(352.83648103587404) scale(0.9300044865522878)" /><path d="M30,0 L15,-26 L-15,-26 L-30,0 L-15,26 L15,26 Z" fill="none" stroke="black" transform="translate(189.24995155638797,114.78467810277638) rotate(24.534882494299733) scale(0.8395844052238141)" /><g><path d="M30,0 L15,-26 L-15,-26 L-30,0 L-15,26 L15,26 Z" fill="none" stroke="black" transform="translate(119.27087196837616,226.50786237579925) rotate(350.58413760408445) scale(0.8057695094989842)" /><path d="M30,0 L15,-26 L-15,-26 L-30,0 L-15,26 L15,26 Z" fill="none" stroke="black" transform="translate(119.27087196837616,226.50786237579925) rotate(350.58413760408445) scale(0.5640386566492889)" /></g><path d="M30,0 L15,-26 L-15,-26 L-30,0 L-15,26 L15,26 Z" fill="none" stroke="black" transform="translate(68.00820428689974,299.99659708046335) rotate(28.586599028813016) scale(0.8434844363478794)" /><path d="M30,0 L15,-26 L-15,-26 L-30,0 L-15,26 L15,26 Z" fill="none" stroke="black" transform="translate(226.0482180445032,327.9926723622186) rotate(188.25368531238632) scale(0.8279228293315435)" /><path d="M30,0 L15,-26 L-15,-26 L-30,0 L-15,26 L15,26 Z" fill="none" stroke="black" transform="translate(133.14005020218775,127.59086526383555) rotate(103.02236639300472) scale(0.8814347046414786)" /><path d="M30,0 L15,-26 L-15,-26 L-30,0 L-15,26 L15,26 Z" fill="none" stroke="black" transform="translate(108.0491511837426,183.98287110606879) rotate(84.90072037240373) scale(1.0381228816839738)" /></svg>