<svg baseProfile="full" height="400" version="1.1" width="400" xmlns="http://www.w3.org/2000/svg" xmlns:ev="http://www.w3.org/2001/xml-events" xmlns:xlink="http://www.w3.org/1999/xlink"><defs /><rect fill="white" height="100%" width="100%" x="0" y="0" /><path d="M0.0,-30.0 L8.8,-12.1 L28.5,-9.3 L14.3,4.6 L17.6,24.3 L0.0,15.0 L-17.6,24.3 L-14.3,4.6 L-28.5,-9.3 L-8.8,-12.1 Z" fill="none" stroke="black" transform="translate(241.04104696307192,218.43577764640094) rotate(301.9378390159532) scale(1.6194496903074342)" /><path d="M-30,-20 h60 v40 h-60 Z" fill="none" stroke="black" transform="translate(103.31955845984842,204.16426663281445) rotate(333.39488806967023) scale(1.0408768241590483)" /><g><path d="M-30,-20 h60 v40 h-60 Z" fill="none" stroke="black" transform="translate(315.11263150400566,119.55456763612995) rotate(164.9235905321784) scale(1.0327067619833488)" /><path d="M-30,-20 h60 v40 h-60 Z" fill="none" stroke="black" transform="translate(315.11263150400566,119.55456763612995) rotate(164.9235905321784) scale(0.7228947333883441)" /><path d="M-30,-20 h60 v40 h-60 Z" fill="none" stroke="black" transform="translate(315.11263150400566,119.55456763612995) rotate(164.9235905321784) scale(0.41308270479333953)" /></g><g><path d="M27.7,-11.5 L27.7,11.5 L11.5,27.7 L-11.5,27.7 L-27.7,11.5 L-27.7,-11.5 L-11.5,-27.7 L11.5,-27.7 Z" fill="none" stroke="black" transform="translate(89.70225879409429,308.5732201496168) rotate(71.22182616844952) scale(0.8718126170406297)" /><path d="M27.7,-11.5 L27.7,11.5 L11.5,27.7 L-11.5,27.7 L-27.7,11.5 L-27.7,-11.5 L-11.5,-27.7 L11.5,-27.7 Z" fill="none" stroke="black" transform="translate(89.70225879409429,308.5732201496168) rotate(71.22182616844952) scale(0.6102688319284407)" /></g><g><path d="M27.7,-11.5 L27.7,11.5 L11.5,27.7 L-11.5,27.7 L-27.7,11.5 L-27.7,-11.5 L-11.5,-27.7 L11.5,-27.7 Z" fill="none" stroke="black" transform="translate(178.81915768664834,196.1467440918235) rotate(119.27060017496463) scale(1.765813135417614)" /><path d="M27.7,-11.5 L27.7,11.5 L11.5,27.7 L-11.5,27.7 L-27.7,11.5 L-27.7,-11.5 L-11.5,-27.7 L11.5,-27.7 Z" fill="none" stroke="black" transform="translate(178.81915768664834,196.1467440918235) rotate(119.27060017496463) scale(1.2360691947923297)" /><path d="M27.7,-11.5 L27.7,11.5 L11.5,27.7 L-11.5,27.7 L-27.7,11.5 L-27.7,-11.5 L-11.5,-27.7 L11.5,-27.7 Z" fill="none" stroke="black" transform="translate(178.81915768664834,196.1467440918235) rotate(119.27060017496463) scale(0.7063252541670457)" /></g><g><path d="M30,0 L15,-26 L-15,-26 L-30,0 L-15,26 L15,26 Z" fill="none" stroke="black" transform="translate(212.52466931580616,93.18265723338446) rotate(247.47944207858933) scale(1.1042512977327974)" /><path d="M30,0 L15,-26 L-15,-26 L-30,0 L-15,26 L15,26 Z" fill="none" stroke="black" transform="translate(212.52466931580616,93.18265723338446) rotate(247.47944207858933) scale(0.7729759084129582)" /></g><path d="M30,0 L15,-26 L-15,-26 L-30,0 L-15,26 L15,26 Z" fill="none" stroke="black" transform="translate(269.8176976847116,287.4985679362712) rotate(100.04426179875793) scale(1.2596156720301541)" /><g><path d="M30,0 L15,-26 L-15,-26 L-30,0 L-15,26 L15,26 Z" fill="none" stroke="black" transform="translate(107.55306743132442,152.49491832544356) rotate(334.02839923122906) scale(1.4720837884769606)" /><path d="M30,0 L15,-26 L-15,-26 L-30,0 L-15,26 L15,26 Z" fill="none" stroke="black" transform="translate(107.55306743132442,152.49491832544356) rotate(334.02839923122906) scale(1.0304586519338723)" /></g><g><path d="M30,0 L15,-26 L-15,-26 L-30,0 L-15,26 L15,26 Z" fill="none" stroke="black" transform="translate(152.6220383828611,316.1234542028104) rotate(237.19917394677896) scale(1.0102587088879766)" /><path d="M30,0 L15,-26 L-15,-26 L-30,0 L-15,26 L15,26 Z" fill="none" stroke="black" transform="translate(152.6220383828611,316.1234542028104) rotate(237.19917394677896) scale(0.7071810962215836)" /><path d="M30,0 L15,-26 L-15,-26 L-30,0 L-15,26 L15,26 Z" fill="none" stroke="black" transform="translate(152.6220383828611,316.1234542028104) rotate(237.19917394677896) scale(0.40410348355519066)" /></g><g><path d="M30,0 L15,-26 L-15,-26 L-30,0 L-15,26 L15,26 Z" fill="none" stroke="black" transform="translate(290.178627986549,235.8149509288541) rotate(353.3402835364096) scale(1.0018068847383321)" /><path d="M30,0 L15,-26 L-15,-26 L-30,0 L-15,26 L15,26 Z" fill="none" stroke="black" transform="translate(290.178627986549,235.8149509288541) rotate(353.3402835364096) scale(0.7012648193168325)" /><path d="M30,0 L15,-26 L-15,-26 L-30,0 L-15,26 L15,26 Z" fill="none" stroke="black" transform="translate(290.178627986549,235.8149509288541) rotate(353.3402835364096) scale(0.40072275389533285)" /></g><g><path d="M30,0 L15,-26 L-15,-26 L-30,0 L-15,26 L15,26 Z" fill="none" stroke="black" transform="translate(140.69788967283492,260.1359075206688) rotate(13.245148166399549) scale(1.1265063270808655)" /><path d="M30,0 L15,-26 L-15,-26 L-30,0 L-15,26 L15,26 Z" fill="none" stroke="black" transform="translate(140.69788967283492,260.1359075206688) rotate(13.245148166399549) scale(0.7885544289566058)" /></g><path d="M30,0 L15,-26 L-15,-26 L-30,0 L-15,26 L15,26 Z" fill="none" stroke="black" transform="translate(254.68755809665993,126.18368993050113) rotate(228.28043668547264) scale(1.5551315212403094)" /><path d="M30,0 L15,-26 L-15,-26 L-30,0 L-15,26 L15,26 Z" fill="none" stroke="black" transform="translate(120.78427977106188,243.43468482741991) rotate(108.09112602729753) scale(0.8718333657621309)" /><path d="M0.0,-30.0 L28.5,-9.3 L17.6,24.3 L-17.6,24.3 L-28.5,-9.3 Z" fill="none" stroke="black" transform="translate(206.81489700546848,144.3853585938911) rotate(109.70120484762828) scale(0.9959002148019178)" /><g><path d="M0.0,-30.0 L28.5,-9.3 L17.6,24.3 L-17.6,24.3 L-28.5,-9.3 Z" fill="none" stroke="black" transform="translate(130.32200627202747,293.5620605020978) rotate(269.591690510977) scale(0.8578236309214174)" /><path d="M0.0,-30.0 L28.5,-9.3 L17.6,24.3 L-17.6,24.3 L-28.5,-9.3 Z" fill="none" stroke="black" transform="translate(130.32200627202747,293.5620605020978) rotate(269.591690510977) scale(0.6004765416449922)" /></g><g><path d="M0,0 m-30,0 a30,30 0 1,0 60,0 a30,30 0 1,0 -60,0" fill="none" stroke="black" transform="translate(329.9562688974764,254.27840027987162) rotate(310.6173249178328) scale(0.9429924302761287)" /><path d="M0,0 m-30,0 a30,30 0 1,0 60,0 a30,30 0 1,0 -60,0" fill="none" stroke="black" transform="translate(329.9562688974764,254.27840027987162) rotate(310.6173249178328) scale(0.6600947011932901)" /><path d="M0,0 m-30,0 a30,30 0 1,0 60,0 a30,30 0 1,0 -60,0" fill="none" stroke="black" transform="translate(329.9562688974764,254.27840027987162) rotate(310.6173249178328) scale(0.3771969721104515)" /></g><path d="M0,0 m-30,0 a30,30 0 1,0 60,0 a30,30 0 1,0 -60,0" fill="none" stroke="black" transform="translate(234.08837404848347,294.3247427054309) rotate(194.3274057136657) scale(1.0669880063018664)" /><path d="M0,0 m-30,0 a30,30 0 1,0 60,0 a30,30 0 1,0 -60,0" fill="none" stroke="black" transform="translate(322.92520476808096,90.44217697947978) rotate(71.99802012744792) scale(1.0238036834345663)" /><path d="M0,0 m-30,0 a30,30 0 1,0 60,0 a30,30 0 1,0 -60,0" fill="none" stroke="black" transform="translate(319.22828467963666,212.30965681247142) rotate(196.44378492890345) scale(0.9868317854220326)" /><path d="M0,0 m-30,0 a30,30 0 1,0 60,0 a30,30 0 1,0 -60,0" fill="none" stroke="black" transform="translate(177.70866198771625,240.29555073811213) rotate(299.80234619143323) scale(0.8267760950077981)" /><g><path d="M0,0 m-30,0 a30,30 0 1,0 60,0 a30,30 0 1,0 -60,0" fill="none" stroke="black" transform="translate(166.01113289773707,82.75279247036656) rotate(224.24469478662363) scale(0.8052189889284047)" /><path d="M0,0 m-30,0 a30,30 0 1,0 60,0 a30,30 0 1,0 -60,0" fill="none" stroke="black" transform="translate(166.01113289773707,82.75279247036656) rotate(224.24469478662363) scale(0.5636532922498833)" /><path d="M0,0 m-30,0 a30,30 0 1,0 60,0 a30,30 0 1,0 -60,0" fill="none" stroke="black" transform="translate(166.01113289773707,82.75279247036656) rotate(224.24469478662363) scale(0.3220875955713619)" /></g><g><path d="M0,-30 L30,30 L-30,30 Z" fill="none" stroke="black" transform="translate(278.2321592341741,75.19769514164554) rotate(201.28816046019503) scale(0.9199798727414105)" /><path d="M0,-30 L30,30 L-30,30 Z" fill="none" stroke="black" transform="translate(278.2321592341741,75.19769514164554) rotate(201.28816046019503) scale(0.6439859109189873)" /></g></svg>