<svg baseProfile="full" height="400" version="1.1" width="400" xmlns="http://www.w3.org/2000/svg" xmlns:ev="http://www.w3.org/2001/xml-events" xmlns:xlink="http://www.w3.org/1999/xlink"><defs /><rect fill="white" height="100%" width="100%" x="0" y="0" /><g><path d="M0.0,-30.0 L28.5,-9.3 L17.6,24.3 L-17.6,24.3 L-28.5,-9.3 Z" fill="none" stroke="black" transform="translate(134.4219151149646,305.11974208999294) rotate(231.15363836384353) scale(0.8452832701679308)" /><path d="M0.0,-30.0 L28.5,-9.3 L17.6,24.3 L-17.6,24.3 L-28.5,-9.3 Z" fill="none" stroke="black" transform="translate(134.4219151149646,305.11974208999294) rotate(231.15363836384353) scale(0.5916982891175515)" /></g><path d="M0,0 m-30,0 a30,30 0 1,0 60,0 a30,30 0 1,0 -60,0" fill="none" stroke="black" transform="translate(255.9499958211208,119.68977530268268) rotate(247.38647381562095) scale(1.0883784287178868)" /><g><path d="M0,-30 L30,30 L-30,30 Z" fill="none" stroke="black" transform="translate(172.6357909911007,206.5503328502715) rotate(259.46487306257546) scale(1.4218231586681762)" /><path d="M0,-30 L30,30 L-30,30 Z" fill="none" stroke="black" transform="translate(172.6357909911007,206.5503328502715) rotate(259.46487306257546) scale(0.9952762110677232)" /></g><path d="M30,0 L15,-26 L-15,-26 L-30,0 L-15,26 L15,26 Z" fill="none" stroke="black" transform="translate(236.3056638312304,299.9367135157985) rotate(54.80396581079054) scale(0.9954782140965326)" /><g><path d="M-30,-20 h60 v40 h-60 Z" fill="none" stroke="black" transform="translate(299.70085143168,188.4749872549395) rotate(297.04287044149396) scale(1.298607029635424)" /><path d="M-30,-20 h60 v40 h-60 Z" fill="none" stroke="black" transform="translate(299.70085143168,188.4749872549395) rotate(297.04287044149396) scale(0.9090249207447967)" /><path d="M-30,-20 h60 v40 h-60 Z" fill="none" stroke="black" transform="translate(299.70085143168,188.4749872549395) rotate(297.04287044149396) scale(0.5194428118541696)" /></g><g><path d="M-30,-20 h60 v40 h-60 Z" fill="none" stroke="black" transform="translate(113.38402843570684,140.20378010597494) rotate(44.56158652648842) scale(1.3807516605344172)" /><path d="M-30,-20 h60 v40 h-60 Z" fill="none" stroke="black" transform="translate(113.38402843570684,140.20378010597494) rotate(44.56158652648842) scale(0.966526162374092)" /><path d="M-30,-20 h60 v40 h-60 Z" fill="none" stroke="black" transform="translate(113.38402843570684,140.20378010597494) rotate(44.56158652648842) scale(0.5523006642137669)" /></g><path d="M-30,-20 h60 v40 h-60 Z" fill="none" stroke="black" transform="translate(79.2623620896133,194.17181102455336) rotate(244.47483808526323) scale(0.9078346615875404)" /><g><path d="M0.0,-30.0 L8.8,-12.1 L28.5,-9.3 L14.3,4.6 L17.6,24.3 L0.0,15.0 L-17.6,24.3 L-14.3,4.6 L-28.5,-9.3 L-8.8,-12.1 Z" fill="none" stroke="black" transform="translate(241.10870226299565,186.1205965487659) rotate(325.78391617628546) scale(0.8793058613550855)" /><path d="M0.0,-30.0 L8.8,-12.1 L28.5,-9.3 L14.3,4.6 L17.6,24.3 L0.0,15.0 L-17.6,24.3 L-14.3,4.6 L-28.5,-9.3 L-8.8,-12.1 Z" fill="none" stroke="black" transform="translate(241.10870226299565,186.1205965487659) rotate(325.78391617628546) scale(0.6155141029485598)" /></g><g><path d="M0.0,-30.0 L8.8,-12.1 L28.5,-9.3 L14.3,4.6 L17.6,24.3 L0.0,15.0 L-17.6,24.3 L-14.3,4.6 L-28.5,-9.3 L-8.8,-12.1 Z" fill="none" stroke="black" transform="translate(271.1021081195664,266.836243661751) rotate(137.85067597491542) scale(1.341214898926331)" /><path d="M0.0,-30.0 L8.8,-12.1 L28.5,-9.3 L14.3,4.6 L17.6,24.3 L0.0,15.0 L-17.6,24.3 L-14.3,4.6 L-28.5,-9.3 L-8.8,-12.1 Z" fill="none" stroke="black" transform="translate(271.1021081195664,266.836243661751) rotate(137.85067597491542) scale(0.9388504292484317)" /></g><path d="M27.7,-11.5 L27.7,11.5 L11.5,27.7 L-11.5,27.7 L-27.7,11.5 L-27.7,-11.5 L-11.5,-27.7 L11.5,-27.7 Z" fill="none" stroke="black" transform="translate(116.9011481131074,254.41475743707218) rotate(261.8900402998275) scale(1.5374320865110551)" /></svg>