<svg baseProfile="full" height="400" version="1.1" width="400" xmlns="http://www.w3.org/2000/svg" xmlns:ev="http://www.w3.org/2001/xml-events" xmlns:xlink="http://www.w3.org/1999/xlink"><defs /><rect fill="white" height="100%" width="100%" x="0" y="0" /><path d="M30,0 L15,-26 L-15,-26 L-30,0 L-15,26 L15,26 Z" fill="none" stroke="black" transform="translate(123.72903876596773,298.55642475300726) rotate(90.51967080454183) scale(1.3782332415408518)" /><g><path d="M30,0 L15,-26 L-15,-26 L-30,0 L-15,26 L15,26 Z" fill="none" stroke="black" transform="translate(262.2025730347384,216.88338589321285) rotate(262.21236623359437) scale(1.6262085814097738)" /><path d="M30,0 L15,-26 L-15,-26 L-30,0 L-15,26 L15,26 Z" fill="none" stroke="black" transform="translate(262.2025730347384,216.88338589321285) rotate(262.21236623359437) scale(1.1383460069868416)" /></g><path d="M30,0 L15,-26 L-15,-26 L-30,0 L-15,26 L15,26 Z" fill="none" stroke="black" transform="translate(89.03579718032181,185.4850228419381) rotate(33.232759271746836) scale(1.0960138453530024)" /><path d="M30,0 L15,-26 L-15,-26 L-30,0 L-15,26 L15,26 Z" fill="none" stroke="black" transform="translate(176.41109333298743,176.34694029548194) rotate(163.06617865089572) scale(1.2930930407437908)" /><path d="M30,0 L15,-26 L-15,-26 L-30,0 L-15,26 L15,26 Z" fill="none" stroke="black" transform="translate(71.56503046146732,102.4737213990601) rotate(114.09196911794625) scale(0.8547695909781388)" /><g><path d="M0,-30 L30,30 L-30,30 Z" fill="none" stroke="black" transform="translate(266.07081723386653,113.60936410370722) rotate(241.21262260928995) scale(1.2158162617882549)" /><path d="M0,-30 L30,30 L-30,30 Z" fill="none" stroke="black" transform="translate(266.07081723386653,113.60936410370722) rotate(241.21262260928995) scale(0.8510713832517783)" /><path d="M0,-30 L30,30 L-30,30 Z" fill="none" stroke="black" transform="translate(266.07081723386653,113.60936410370722) rotate(241.21262260928995) scale(0.486326504715302)" /></g><g><path d="M0,-30 L30,30 L-30,30 Z" fill="none" stroke="black" transform="translate(317.0199568351079,334.43523830358174) rotate(352.36585530229087) scale(0.8797189057165917)" /><path d="M0,-30 L30,30 L-30,30 Z" fill="none" stroke="black" transform="translate(317.0199568351079,334.43523830358174) rotate(352.36585530229087) scale(0.6158032340016142)" /></g><path d="M0,-30 L30,30 L-30,30 Z" fill="none" stroke="black" transform="translate(246.48391783660733,286.9330234661702) rotate(300.6330255921499) scale(0.8857585573867313)" /><path d="M0.0,-30.0 L8.8,-12.1 L28.5,-9.3 L14.3,4.6 L17.6,24.3 L0.0,15.0 L-17.6,24.3 L-14.3,4.6 L-28.5,-9.3 L-8.8,-12.1 Z" fill="none" stroke="black" transform="translate(136.61760272767694,133.37974887331922) rotate(166.3787725437342) scale(0.8679517446881442)" /><path d="M0.0,-30.0 L8.8,-12.1 L28.5,-9.3 L14.3,4.6 L17.6,24.3 L0.0,15.0 L-17.6,24.3 L-14.3,4.6 L-28.5,-9.3 L-8.8,-12.1 Z" fill="none" stroke="black" transform="translate(132.33158879686718,89.2881839421254) rotate(76.52507756403313) scale(1.0618645900614296)" /><path d="M0.0,-30.0 L8.8,-12.1 L28.5,-9.3 L14.3,4.6 L17.6,24.3 L0.0,15.0 L-17.6,24.3 L-14.3,4.6 L-28.5,-9.3 L-8.8,-12.1 Z" fill="none" stroke="black" transform="translate(178.25057726377014,297.62535350938447) rotate(270.28892871441406) scale(0.9054517415712624)" /><path d="M0.0,-30.0 L8.8,-12.1 L28.5,-9.3 L14.3,4.6 L17.6,24.3 L0.0,15.0 L-17.6,24.3 L-14.3,4.6 L-28.5,-9.3 L-8.8,-12.1 Z" fill="none" stroke="black" transform="translate(321.961034497131,191.3059025776794) rotate(326.2209056667295) scale(0.8149270617337634)" /></svg>