<svg baseProfile="full" height="400" version="1.1" width="400" xmlns="http://www.w3.org/2000/svg" xmlns:ev="http://www.w3.org/2001/xml-events" xmlns:xlink="http://www.w3.org/1999/xlink"><defs /><rect fill="white" height="100%" width="100%" x="0" y="0" /><g><path d="M-30,-20 h60 v40 h-60 Z" fill="none" stroke="black" transform="translate(183.51352901650557,282.6250920572884) rotate(310.5335819764287) scale(1.5510798969035424)" /><path d="M-30,-20 h60 v40 h-60 Z" fill="none" stroke="black" transform="translate(183.51352901650557,282.6250920572884) rotate(310.5335819764287) scale(1.0857559278324795)" /></g><g><path d="M-30,-20 h60 v40 h-60 Z" fill="none" stroke="black" transform="translate(231.42093560295024,146.21333044011087) rotate(325.1556831355149) scale(1.5877352153673816)" /><path d="M-30,-20 h60 v40 h-60 Z" fill="none" stroke="black" transform="translate(231.42093560295024,146.21333044011087) rotate(325.1556831355149) scale(1.111414650757167)" /><path d="M-30,-20 h60 v40 h-60 Z" fill="none" stroke="black" transform="translate(231.42093560295024,146.21333044011087) rotate(325.1556831355149) scale(0.6350940861469527)" /></g><path d="M30,0 L15,-26 L-15,-26 L-30,0 L-15,26 L15,26 Z" fill="none" stroke="black" transform="translate(101.05183536972659,186.15543683281533) rotate(239.80469761240258) scale(1.3943396199217206)" /><path d="M30,0 L15,-26 L-15,-26 L-30,0 L-15,26 L15,26 Z" fill="none" stroke="black" transform="translate(260.59580814261966,325.8430799320098) rotate(301.4755038419956) scale(0.9726036616512574)" /><g><path d="M30,0 L15,-26 L-15,-26 L-30,0 L-15,26 L15,26 Z" fill="none" stroke="black" transform="translate(241.8514245844838,210.55834755259113) rotate(347.39492175003227) scale(0.9651030550603774)" /><path d="M30,0 L15,-26 L-15,-26 L-30,0 L-15,26 L15,26 Z" fill="none" stroke="black" transform="translate(241.8514245844838,210.55834755259113) rotate(347.39492175003227) scale(0.6755721385422642)" /></g><path d="M0,-30 L30,30 L-30,30 Z" fill="none" stroke="black" transform="translate(259.7928053835165,268.9776333971072) rotate(358.63571717335094) scale(1.0010165421419677)" /><path d="M0,-30 L30,30 L-30,30 Z" fill="none" stroke="black" transform="translate(290.6272535297818,68.2179457365578) rotate(188.087393127207) scale(0.867517365553893)" /><path d="M0,-30 L30,30 L-30,30 Z" fill="none" stroke="black" transform="translate(291.30376531956125,225.17229083745752) rotate(219.79681245784204) scale(0.9025553810494535)" /><path d="M0.0,-30.0 L28.5,-9.3 L17.6,24.3 L-17.6,24.3 L-28.5,-9.3 Z" fill="none" stroke="black" transform="translate(92.6688853377796,306.2561374860444) rotate(308.1287927866399) scale(1.2080241566429866)" /><path d="M0.0,-30.0 L28.5,-9.3 L17.6,24.3 L-17.6,24.3 L-28.5,-9.3 Z" fill="none" stroke="black" transform="translate(168.2041603660666,191.44186526300814) rotate(284.4147487313241) scale(1.1711273660658856)" /><path d="M0.0,-30.0 L28.5,-9.3 L17.6,24.3 L-17.6,24.3 L-28.5,-9.3 Z" fill="none" stroke="black" transform="translate(278.05431456148983,178.5280661530431) rotate(48.23639697275141) scale(1.009370033913541)" /><path d="M0.0,-30.0 L8.8,-12.1 L28.5,-9.3 L14.3,4.6 L17.6,24.3 L0.0,15.0 L-17.6,24.3 L-14.3,4.6 L-28.5,-9.3 L-8.8,-12.1 Z" fill="none" stroke="black" transform="translate(325.512220301198,177.55228077613842) rotate(263.37689115054013) scale(0.8954348435391797)" /><path d="M0.0,-30.0 L8.8,-12.1 L28.5,-9.3 L14.3,4.6 L17.6,24.3 L0.0,15.0 L-17.6,24.3 L-14.3,4.6 L-28.5,-9.3 L-8.8,-12.1 Z" fill="none" stroke="black" transform="translate(173.33831432837457,98.07820220080222) rotate(85.93332846156365) scale(1.183857694831025)" /><g><path d="M27.7,-11.5 L27.7,11.5 L11.5,27.7 L-11.5,27.7 L-27.7,11.5 L-27.7,-11.5 L-11.5,-27.7 L11.5,-27.7 Z" fill="none" stroke="black" transform="translate(212.61067230764226,68.62986726323177) rotate(136.26804385804263) scale(0.8529567495154373)" /><path d="M27.7,-11.5 L27.7,11.5 L11.5,27.7 L-11.5,27.7 L-27.7,11.5 L-27.7,-11.5 L-11.5,-27.7 L11.5,-27.7 Z" fill="none" stroke="black" transform="translate(212.61067230764226,68.62986726323177) rotate(136.26804385804263) scale(0.5970697246608061)" /><path d="M27.7,-11.5 L27.7,11.5 L11.5,27.7 L-11.5,27.7 L-27.7,11.5 L-27.7,-11.5 L-11.5,-27.7 L11.5,-27.7 Z" fill="none" stroke="black" transform="translate(212.61067230764226,68.62986726323177) rotate(136.26804385804263) scale(0.34118269980617494)" /></g><g><path d="M27.7,-11.5 L27.7,11.5 L11.5,27.7 L-11.5,27.7 L-27.7,11.5 L-27.7,-11.5 L-11.5,-27.7 L11.5,-27.7 Z" fill="none" stroke="black" transform="translate(309.47443818026113,133.81999309208908) rotate(57.82564199254469) scale(1.0505467677172984)" /><path d="M27.7,-11.5 L27.7,11.5 L11.5,27.7 L-11.5,27.7 L-27.7,11.5 L-27.7,-11.5 L-11.5,-27.7 L11.5,-27.7 Z" fill="none" stroke="black" transform="translate(309.47443818026113,133.81999309208908) rotate(57.82564199254469) scale(0.7353827374021088)" /><path d="M27.7,-11.5 L27.7,11.5 L11.5,27.7 L-11.5,27.7 L-27.7,11.5 L-27.7,-11.5 L-11.5,-27.7 L11.5,-27.7 Z" fill="none" stroke="black" transform="translate(309.47443818026113,133.81999309208908) rotate(57.82564199254469) scale(0.4202187070869194)" /></g><path d="M0,0 m-30,0 a30,30 0 1,0 60,0 a30,30 0 1,0 -60,0" fill="none" stroke="black" transform="translate(310.6376194918551,273.7154179057156) rotate(349.27263814668913) scale(1.0355709997864233)" /></svg>