<svg baseProfile="full" height="400" version="1.1" width="400" xmlns="http://www.w3.org/2000/svg" xmlns:ev="http://www.w3.org/2001/xml-events" xmlns:xlink="http://www.w3.org/1999/xlink"><defs /><rect fill="white" height="100%" width="100%" x="0" y="0" /><path d="M27.7,-11.5 L27.7,11.5 L11.5,27.7 L-11.5,27.7 L-27.7,11.5 L-27.7,-11.5 L-11.5,-27.7 L11.5,-27.7 Z" fill="none" stroke="black" transform="translate(207.69983315238926,98.20552419086778) rotate(74.48164771320016) scale(1.0160830269194063)" /><g><path d="M0.0,-30.0 L28.5,-9.3 L17.6,24.3 L-17.6,24.3 L-28.5,-9.3 Z" fill="none" stroke="black" transform="translate(246.0486271634645,214.42262324190608) rotate(326.9413595003462) scale(1.9216145874557848)" /><path d="M0.0,-30.0 L28.5,-9.3 L17.6,24.3 L-17.6,24.3 L-28.5,-9.3 Z" fill="none" stroke="black" transform="translate(246.0486271634645,214.42262324190608) rotate(326.9413595003462) scale(1.3451302112190493)" /></g><path d="M0.0,-30.0 L28.5,-9.3 L17.6,24.3 L-17.6,24.3 L-28.5,-9.3 Z" fill="none" stroke="black" transform="translate(110.61721526077768,78.60007256847953) rotate(141.30803194287398) scale(0.9773679007897498)" /><path d="M0.0,-30.0 L28.5,-9.3 L17.6,24.3 L-17.6,24.3 L-28.5,-9.3 Z" fill="none" stroke="black" transform="translate(296.33395785590386,98.31299621593497) rotate(245.36412459982253) scale(1.0422080885788398)" /><g><path d="M30,0 L15,-26 L-15,-26 L-30,0 L-15,26 L15,26 Z" fill="none" stroke="black" transform="translate(100.17130137690229,271.24731985051517) rotate(264.1449150267702) scale(1.2625755552842488)" /><path d="M30,0 L15,-26 L-15,-26 L-30,0 L-15,26 L15,26 Z" fill="none" stroke="black" transform="translate(100.17130137690229,271.24731985051517) rotate(264.1449150267702) scale(0.883802888698974)" /></g><path d="M30,0 L15,-26 L-15,-26 L-30,0 L-15,26 L15,26 Z" fill="none" stroke="black" transform="translate(70.38654034422022,188.45764865980317) rotate(202.34667361052112) scale(0.8236964467868799)" /></svg>