<svg baseProfile="full" height="400" version="1.1" width="400" xmlns="http://www.w3.org/2000/svg" xmlns:ev="http://www.w3.org/2001/xml-events" xmlns:xlink="http://www.w3.org/1999/xlink"><defs /><rect fill="white" height="100%" width="100%" x="0" y="0" /><path d="M-30,-20 h60 v40 h-60 Z" fill="none" stroke="black" transform="translate(171.5222704137227,189.56755024969408) rotate(72.46100518225899) scale(1.162784310219472)" /><path d="M-30,-20 h60 v40 h-60 Z" fill="none" stroke="black" transform="translate(326.53149253553033,177.1670242889219) rotate(86.972479180949) scale(0.8102589886771623)" /><path d="M-30,-20 h60 v40 h-60 Z" fill="none" stroke="black" transform="translate(243.68331160513833,227.60165311623) rotate(143.77701405789628) scale(1.8121447744719124)" /><g><path d="M-30,-20 h60 v40 h-60 Z" fill="none" stroke="black" transform="translate(113.18818288515659,313.3871741553349) rotate(120.13611224390739) scale(0.9013246607966148)" /><path d="M-30,-20 h60 v40 h-60 Z" fill="none" stroke="black" transform="translate(113.18818288515659,313.3871741553349) rotate(120.13611224390739) scale(0.6309272625576303)" /><path d="M-30,-20 h60 v40 h-60 Z" fill="none" stroke="black" transform="translate(113.18818288515659,313.3871741553349) rotate(120.13611224390739) scale(0.3605298643186459)" /></g><path d="M0,0 m-30,0 a30,30 0 1,0 60,0 a30,30 0 1,0 -60,0" fill="none" stroke="black" transform="translate(144.10881792367394,179.8328840623399) rotate(175.67234352979347) scale(0.8083079265815124)" /><path d="M0,0 m-30,0 a30,30 0 1,0 60,0 a30,30 0 1,0 -60,0" fill="none" stroke="black" transform="translate(118.9014579533543,267.6001500270828) rotate(187.5386888156854) scale(1.2006610444472705)" /><g><path d="M0,0 m-30,0 a30,30 0 1,0 60,0 a30,30 0 1,0 -60,0" fill="none" stroke="black" transform="translate(264.74497662084957,161.0528447290888) rotate(233.30352197130534) scale(0.970033975813083)" /><path d="M0,0 m-30,0 a30,30 0 1,0 60,0 a30,30 0 1,0 -60,0" fill="none" stroke="black" transform="translate(264.74497662084957,161.0528447290888) rotate(233.30352197130534) scale(0.6790237830691581)" /></g><path d="M0,0 m-30,0 a30,30 0 1,0 60,0 a30,30 0 1,0 -60,0" fill="none" stroke="black" transform="translate(177.58869795110357,149.38080942605967) rotate(257.8628747823798) scale(1.0533045998468564)" /><g><path d="M0,0 m-30,0 a30,30 0 1,0 60,0 a30,30 0 1,0 -60,0" fill="none" stroke="black" transform="translate(123.099726602967,107.60788913067717) rotate(162.95050679895365) scale(1.1844360953734463)" /><path d="M0,0 m-30,0 a30,30 0 1,0 60,0 a30,30 0 1,0 -60,0" fill="none" stroke="black" transform="translate(123.099726602967,107.60788913067717) rotate(162.95050679895365) scale(0.8291052667614124)" /></g><path d="M0,0 m-30,0 a30,30 0 1,0 60,0 a30,30 0 1,0 -60,0" fill="none" stroke="black" transform="translate(146.48901225588398,85.72650611934617) rotate(269.51683963825514) scale(0.8434088575272343)" /><path d="M0,0 m-30,0 a30,30 0 1,0 60,0 a30,30 0 1,0 -60,0" fill="none" stroke="black" transform="translate(208.46843391790276,108.03657937714361) rotate(85.28272376746702) scale(0.993826984067182)" /><path d="M0,0 m-30,0 a30,30 0 1,0 60,0 a30,30 0 1,0 -60,0" fill="none" stroke="black" transform="translate(240.9094953177176,74.61901757052122) rotate(7.481686659450388) scale(0.8699375021758665)" /><path d="M0,0 m-30,0 a30,30 0 1,0 60,0 a30,30 0 1,0 -60,0" fill="none" stroke="black" transform="translate(194.37757842503362,258.8562180269215) rotate(336.42616430318276) scale(1.034023282273989)" /><path d="M0,0 m-30,0 a30,30 0 1,0 60,0 a30,30 0 1,0 -60,0" fill="none" stroke="black" transform="translate(319.13935846952467,90.24025454682078) rotate(295.66959833389905) scale(1.0682293186726142)" /><g><path d="M0.0,-30.0 L8.8,-12.1 L28.5,-9.3 L14.3,4.6 L17.6,24.3 L0.0,15.0 L-17.6,24.3 L-14.3,4.6 L-28.5,-9.3 L-8.8,-12.1 Z" fill="none" stroke="black" transform="translate(84.30551638936525,237.378987380411) rotate(10.276907654622477) scale(0.960187804531706)" /><path d="M0.0,-30.0 L8.8,-12.1 L28.5,-9.3 L14.3,4.6 L17.6,24.3 L0.0,15.0 L-17.6,24.3 L-14.3,4.6 L-28.5,-9.3 L-8.8,-12.1 Z" fill="none" stroke="black" transform="translate(84.30551638936525,237.378987380411) rotate(10.276907654622477) scale(0.6721314631721942)" /></g><path d="M0.0,-30.0 L8.8,-12.1 L28.5,-9.3 L14.3,4.6 L17.6,24.3 L0.0,15.0 L-17.6,24.3 L-14.3,4.6 L-28.5,-9.3 L-8.8,-12.1 Z" fill="none" stroke="black" transform="translate(123.87562833131784,213.92659234241245) rotate(89.4967440106621) scale(1.2765141686412194)" /><g><path d="M0.0,-30.0 L8.8,-12.1 L28.5,-9.3 L14.3,4.6 L17.6,24.3 L0.0,15.0 L-17.6,24.3 L-14.3,4.6 L-28.5,-9.3 L-8.8,-12.1 Z" fill="none" stroke="black" transform="translate(221.8674400619039,170.71573379879447) rotate(74.15703336209589) scale(0.9867226201479489)" /><path d="M0.0,-30.0 L8.8,-12.1 L28.5,-9.3 L14.3,4.6 L17.6,24.3 L0.0,15.0 L-17.6,24.3 L-14.3,4.6 L-28.5,-9.3 L-8.8,-12.1 Z" fill="none" stroke="black" transform="translate(221.8674400619039,170.71573379879447) rotate(74.15703336209589) scale(0.6907058341035641)" /></g><path d="M0.0,-30.0 L8.8,-12.1 L28.5,-9.3 L14.3,4.6 L17.6,24.3 L0.0,15.0 L-17.6,24.3 L-14.3,4.6 L-28.5,-9.3 L-8.8,-12.1 Z" fill="none" stroke="black" transform="translate(337.1438498116342,61.39402037607451) rotate(56.239082423286845) scale(0.8457064455697594)" /></svg>