<svg baseProfile="full" height="400" version="1.1" width="400" xmlns="http://www.w3.org/2000/svg" xmlns:ev="http://www.w3.org/2001/xml-events" xmlns:xlink="http://www.w3.org/1999/xlink"><defs /><rect fill="white" height="100%" width="100%" x="0" y="0" /><path d="M0,-30 L30,30 L-30,30 Z" fill="none" stroke="black" transform="translate(111.05903989849777,236.47992424175544) rotate(20.475165032770253) scale(1.2314715645522905)" /><path d="M0,-30 L30,30 L-30,30 Z" fill="none" stroke="black" transform="translate(194.7807975028671,235.15547028060354) rotate(193.26685317068137) scale(1.9691650775951972)" /><g><path d="M30,0 L15,-26 L-15,-26 L-30,0 L-15,26 L15,26 Z" fill="none" stroke="black" transform="translate(111.71724355450472,95.2545517788098) rotate(30.75424808948923) scale(1.1292703905458104)" /><path d="M30,0 L15,-26 L-15,-26 L-30,0 L-15,26 L15,26 Z" fill="none" stroke="black" transform="translate(111.71724355450472,95.2545517788098) rotate(30.75424808948923) scale(0.7904892733820672)" /><path d="M30,0 L15,-26 L-15,-26 L-30,0 L-15,26 L15,26 Z" fill="none" stroke="black" transform="translate(111.71724355450472,95.2545517788098) rotate(30.75424808948923) scale(0.45170815621832416)" /></g><g><path d="M30,0 L15,-26 L-15,-26 L-30,0 L-15,26 L15,26 Z" fill="none" stroke="black" transform="translate(300.5802414860741,288.75417774477035) rotate(248.9678978736559) scale(1.1373131218693733)" /><path d="M30,0 L15,-26 L-15,-26 L-30,0 L-15,26 L15,26 Z" fill="none" stroke="black" transform="translate(300.5802414860741,288.75417774477035) rotate(248.9678978736559) scale(0.7961191853085613)" /><path d="M30,0 L15,-26 L-15,-26 L-30,0 L-15,26 L15,26 Z" fill="none" stroke="black" transform="translate(300.5802414860741,288.75417774477035) rotate(248.9678978736559) scale(0.4549252487477493)" /></g><path d="M30,0 L15,-26 L-15,-26 L-30,0 L-15,26 L15,26 Z" fill="none" stroke="black" transform="translate(235.95413598214418,78.40692449525532) rotate(89.28820050812364) scale(1.052685888673324)" /><path d="M0.0,-30.0 L8.8,-12.1 L28.5,-9.3 L14.3,4.6 L17.6,24.3 L0.0,15.0 L-17.6,24.3 L-14.3,4.6 L-28.5,-9.3 L-8.8,-12.1 Z" fill="none" stroke="black" transform="translate(299.9462962002369,214.5788020293959) rotate(5.393338849568883) scale(0.8137472575163418)" /><path d="M0.0,-30.0 L8.8,-12.1 L28.5,-9.3 L14.3,4.6 L17.6,24.3 L0.0,15.0 L-17.6,24.3 L-14.3,4.6 L-28.5,-9.3 L-8.8,-12.1 Z" fill="none" stroke="black" transform="translate(112.03900455839181,173.3884595451686) rotate(276.5189146195459) scale(1.0494496453386501)" /><path d="M-30,-20 h60 v40 h-60 Z" fill="none" stroke="black" transform="translate(173.84630642780067,132.96661837742872) rotate(172.55336619622454) scale(1.2876592394155146)" /><g><path d="M-30,-20 h60 v40 h-60 Z" fill="none" stroke="black" transform="translate(289.205909707616,142.20124143087332) rotate(324.5321945061048) scale(1.143863433617293)" /><path d="M-30,-20 h60 v40 h-60 Z" fill="none" stroke="black" transform="translate(289.205909707616,142.20124143087332) rotate(324.5321945061048) scale(0.800704403532105)" /><path d="M-30,-20 h60 v40 h-60 Z" fill="none" stroke="black" transform="translate(289.205909707616,142.20124143087332) rotate(324.5321945061048) scale(0.45754537344691726)" /></g><path d="M-30,-20 h60 v40 h-60 Z" fill="none" stroke="black" transform="translate(142.7585310547102,320.2609672079109) rotate(358.11902737728377) scale(1.0197048655669767)" /><path d="M0.0,-30.0 L28.5,-9.3 L17.6,24.3 L-17.6,24.3 L-28.5,-9.3 Z" fill="none" stroke="black" transform="translate(249.16252374553787,331.29284764980923) rotate(343.5441416842269) scale(0.93489989798417)" /><g><path d="M27.7,-11.5 L27.7,11.5 L11.5,27.7 L-11.5,27.7 L-27.7,11.5 L-27.7,-11.5 L-11.5,-27.7 L11.5,-27.7 Z" fill="none" stroke="black" transform="translate(334.64157922128027,132.39075360787012) rotate(327.9653932283824) scale(0.8169826017952895)" /><path d="M27.7,-11.5 L27.7,11.5 L11.5,27.7 L-11.5,27.7 L-27.7,11.5 L-27.7,-11.5 L-11.5,-27.7 L11.5,-27.7 Z" fill="none" stroke="black" transform="translate(334.64157922128027,132.39075360787012) rotate(327.9653932283824) scale(0.5718878212567026)" /><path d="M27.7,-11.5 L27.7,11.5 L11.5,27.7 L-11.5,27.7 L-27.7,11.5 L-27.7,-11.5 L-11.5,-27.7 L11.5,-27.7 Z" fill="none" stroke="black" transform="translate(334.64157922128027,132.39075360787012) rotate(327.9653932283824) scale(0.3267930407181158)" /></g><g><path d="M0,0 m-30,0 a30,30 0 1,0 60,0 a30,30 0 1,0 -60,0" fill="none" stroke="black" transform="translate(85.42153532065849,306.8105270584049) rotate(102.87888117909161) scale(0.9432692722280842)" /><path d="M0,0 m-30,0 a30,30 0 1,0 60,0 a30,30 0 1,0 -60,0" fill="none" stroke="black" transform="translate(85.42153532065849,306.8105270584049) rotate(102.87888117909161) scale(0.6602884905596589)" /><path d="M0,0 m-30,0 a30,30 0 1,0 60,0 a30,30 0 1,0 -60,0" fill="none" stroke="black" transform="translate(85.42153532065849,306.8105270584049) rotate(102.87888117909161) scale(0.3773077088912337)" /></g><path d="M0,0 m-30,0 a30,30 0 1,0 60,0 a30,30 0 1,0 -60,0" fill="none" stroke="black" transform="translate(317.5097086135675,174.23380854216313) rotate(57.37539561298607) scale(0.823326386127061)" /></svg>