<svg baseProfile="full" height="400" version="1.1" width="400" xmlns="http://www.w3.org/2000/svg" xmlns:ev="http://www.w3.org/2001/xml-events" xmlns:xlink="http://www.w3.org/1999/xlink"><defs /><rect fill="white" height="100%" width="100%" x="0" y="0" /><g><path d="M0.0,-30.0 L8.8,-12.1 L28.5,-9.3 L14.3,4.6 L17.6,24.3 L0.0,15.0 L-17.6,24.3 L-14.3,4.6 L-28.5,-9.3 L-8.8,-12.1 Z" fill="none" stroke="black" transform="translate(241.95725344623577,227.2121919588963) rotate(38.10440334781002) scale(1.9416550366407628)" /><path d="M0.0,-30.0 L8.8,-12.1 L28.5,-9.3 L14.3,4.6 L17.6,24.3 L0.0,15.0 L-17.6,24.3 L-14.3,4.6 L-28.5,-9.3 L-8.8,-12.1 Z" fill="none" stroke="black" transform="translate(241.95725344623577,227.2121919588963) rotate(38.10440334781002) scale(1.359158525648534)" /><path d="M0.0,-30.0 L8.8,-12.1 L28.5,-9.3 L14.3,4.6 L17.6,24.3 L0.0,15.0 L-17.6,24.3 L-14.3,4.6 L-28.5,-9.3 L-8.8,-12.1 Z" fill="none" stroke="black" transform="translate(241.95725344623577,227.2121919588963) rotate(38.10440334781002) scale(0.7766620146563051)" /></g><path d="M0.0,-30.0 L8.8,-12.1 L28.5,-9.3 L14.3,4.6 L17.6,24.3 L0.0,15.0 L-17.6,24.3 L-14.3,4.6 L-28.5,-9.3 L-8.8,-12.1 Z" fill="none" stroke="black" transform="translate(90.77461294805889,285.563421357893) rotate(252.01221489940326) scale(0.9853240126512557)" /><path d="M0.0,-30.0 L8.8,-12.1 L28.5,-9.3 L14.3,4.6 L17.6,24.3 L0.0,15.0 L-17.6,24.3 L-14.3,4.6 L-28.5,-9.3 L-8.8,-12.1 Z" fill="none" stroke="black" transform="translate(301.3727113146606,98.00567470387178) rotate(352.5255708336793) scale(1.1939552993882536)" /><path d="M0,0 m-30,0 a30,30 0 1,0 60,0 a30,30 0 1,0 -60,0" fill="none" stroke="black" transform="translate(207.54829259869967,128.09341220076996) rotate(280.65075132825535) scale(0.936904243922344)" /><path d="M0,0 m-30,0 a30,30 0 1,0 60,0 a30,30 0 1,0 -60,0" fill="none" stroke="black" transform="translate(131.76775289988728,184.9882758478001) rotate(133.77961590495823) scale(1.4946717567280547)" /><g><path d="M0,0 m-30,0 a30,30 0 1,0 60,0 a30,30 0 1,0 -60,0" fill="none" stroke="black" transform="translate(281.9429044433689,318.93151133544563) rotate(23.63816312307531) scale(0.8831219931282396)" /><path d="M0,0 m-30,0 a30,30 0 1,0 60,0 a30,30 0 1,0 -60,0" fill="none" stroke="black" transform="translate(281.9429044433689,318.93151133544563) rotate(23.63816312307531) scale(0.6181853951897677)" /><path d="M0,0 m-30,0 a30,30 0 1,0 60,0 a30,30 0 1,0 -60,0" fill="none" stroke="black" transform="translate(281.9429044433689,318.93151133544563) rotate(23.63816312307531) scale(0.3532487972512959)" /></g><path d="M-30,-20 h60 v40 h-60 Z" fill="none" stroke="black" transform="translate(119.140119770545,92.49143024243122) rotate(51.15649487925294) scale(0.9829843674929816)" /><g><path d="M-30,-20 h60 v40 h-60 Z" fill="none" stroke="black" transform="translate(233.82534334028554,319.1111383160583) rotate(320.18743472193427) scale(0.9160111831731446)" /><path d="M-30,-20 h60 v40 h-60 Z" fill="none" stroke="black" transform="translate(233.82534334028554,319.1111383160583) rotate(320.18743472193427) scale(0.6412078282212011)" /><path d="M-30,-20 h60 v40 h-60 Z" fill="none" stroke="black" transform="translate(233.82534334028554,319.1111383160583) rotate(320.18743472193427) scale(0.36640447326925785)" /></g><path d="M-30,-20 h60 v40 h-60 Z" fill="none" stroke="black" transform="translate(160.43261891843264,316.7218605991903) rotate(53.60852846495591) scale(0.9758880080134471)" /></svg>