<svg baseProfile="full" height="400" version="1.1" width="400" xmlns="http://www.w3.org/2000/svg" xmlns:ev="http://www.w3.org/2001/xml-events" xmlns:xlink="http://www.w3.org/1999/xlink"><defs /><rect fill="white" height="100%" width="100%" x="0" y="0" /><g><path d="M27.7,-11.5 L27.7,11.5 L11.5,27.7 L-11.5,27.7 L-27.7,11.5 L-27.7,-11.5 L-11.5,-27.7 L11.5,-27.7 Z" fill="none" stroke="black" transform="translate(201.18684214792586,221.40819618642598) rotate(116.6647982771705) scale(1.928771907986323)" /><path d="M27.7,-11.5 L27.7,11.5 L11.5,27.7 L-11.5,27.7 L-27.7,11.5 L-27.7,-11.5 L-11.5,-27.7 L11.5,-27.7 Z" fill="none" stroke="black" transform="translate(201.18684214792586,221.40819618642598) rotate(116.6647982771705) scale(1.350140335590426)" /><path d="M27.7,-11.5 L27.7,11.5 L11.5,27.7 L-11.5,27.7 L-27.7,11.5 L-27.7,-11.5 L-11.5,-27.7 L11.5,-27.7 Z" fill="none" stroke="black" transform="translate(201.18684214792586,221.40819618642598) rotate(116.6647982771705) scale(0.7715087631945292)" /></g><path d="M0.0,-30.0 L8.8,-12.1 L28.5,-9.3 L14.3,4.6 L17.6,24.3 L0.0,15.0 L-17.6,24.3 L-14.3,4.6 L-28.5,-9.3 L-8.8,-12.1 Z" fill="none" stroke="black" transform="translate(201.35306593533377,99.98816728985821) rotate(139.29958509886518) scale(1.0351148167620534)" /><path d="M0,0 m-30,0 a30,30 0 1,0 60,0 a30,30 0 1,0 -60,0" fill="none" stroke="black" transform="translate(79.92313092016498,219.31297068410674) rotate(30.960995416796017) scale(0.9438978067663136)" /><path d="M0,0 m-30,0 a30,30 0 1,0 60,0 a30,30 0 1,0 -60,0" fill="none" stroke="black" transform="translate(106.6411636479973,126.89334472250997) rotate(9.821628970296757) scale(1.0610004542788682)" /><path d="M0,0 m-30,0 a30,30 0 1,0 60,0 a30,30 0 1,0 -60,0" fill="none" stroke="black" transform="translate(285.766852203805,321.73711805740055) rotate(100.18588924057195) scale(0.9519221189085205)" /><g><path d="M0,-30 L30,30 L-30,30 Z" fill="none" stroke="black" transform="translate(81.49963248604831,312.7730947602431) rotate(65.44852023617209) scale(1.0234870713559765)" /><path d="M0,-30 L30,30 L-30,30 Z" fill="none" stroke="black" transform="translate(81.49963248604831,312.7730947602431) rotate(65.44852023617209) scale(0.7164409499491835)" /><path d="M0,-30 L30,30 L-30,30 Z" fill="none" stroke="black" transform="translate(81.49963248604831,312.7730947602431) rotate(65.44852023617209) scale(0.4093948285423906)" /></g><g><path d="M0.0,-30.0 L28.5,-9.3 L17.6,24.3 L-17.6,24.3 L-28.5,-9.3 Z" fill="none" stroke="black" transform="translate(291.12251171908764,74.47723263927858) rotate(20.694845280287403) scale(0.8734319703355222)" /><path d="M0.0,-30.0 L28.5,-9.3 L17.6,24.3 L-17.6,24.3 L-28.5,-9.3 Z" fill="none" stroke="black" transform="translate(291.12251171908764,74.47723263927858) rotate(20.694845280287403) scale(0.6114023792348655)" /></g><path d="M-30,-20 h60 v40 h-60 Z" fill="none" stroke="black" transform="translate(320.4715451698442,172.83959473392468) rotate(172.66935778547497) scale(0.8062118248702297)" /></svg>