<svg baseProfile="full" height="400" version="1.1" width="400" xmlns="http://www.w3.org/2000/svg" xmlns:ev="http://www.w3.org/2001/xml-events" xmlns:xlink="http://www.w3.org/1999/xlink"><defs /><rect fill="white" height="100%" width="100%" x="0" y="0" /><g><path d="M0,-30 L30,30 L-30,30 Z" fill="none" stroke="black" transform="translate(186.07828293386743,165.4834962147504) rotate(90.97668682060502) scale(1.5416262483623804)" /><path d="M0,-30 L30,30 L-30,30 Z" fill="none" stroke="black" transform="translate(186.07828293386743,165.4834962147504) rotate(90.97668682060502) scale(1.0791383738536662)" /><path d="M0,-30 L30,30 L-30,30 Z" fill="none" stroke="black" transform="translate(186.07828293386743,165.4834962147504) rotate(90.97668682060502) scale(0.6166504993449522)" /></g><g><path d="M0,-30 L30,30 L-30,30 Z" fill="none" stroke="black" transform="translate(255.47462765270805,285.1537638191011) rotate(193.78229184199353) scale(1.0711888720009555)" /><path d="M0,-30 L30,30 L-30,30 Z" fill="none" stroke="black" transform="translate(255.47462765270805,285.1537638191011) rotate(193.78229184199353) scale(0.7498322104006688)" /><path d="M0,-30 L30,30 L-30,30 Z" fill="none" stroke="black" transform="translate(255.47462765270805,285.1537638191011) rotate(193.78229184199353) scale(0.4284755488003822)" /></g><path d="M0,-30 L30,30 L-30,30 Z" fill="none" stroke="black" transform="translate(75.79060486347605,207.0978686612201) rotate(125.99860033169206) scale(1.003236537810761)" /><g><path d="M30,0 L15,-26 L-15,-26 L-30,0 L-15,26 L15,26 Z" fill="none" stroke="black" transform="translate(69.12417428225567,328.20002540404386) rotate(216.28816516992205) scale(0.9046990134610635)" /><path d="M30,0 L15,-26 L-15,-26 L-30,0 L-15,26 L15,26 Z" fill="none" stroke="black" transform="translate(69.12417428225567,328.20002540404386) rotate(216.28816516992205) scale(0.6332893094227444)" /></g><path d="M30,0 L15,-26 L-15,-26 L-30,0 L-15,26 L15,26 Z" fill="none" stroke="black" transform="translate(284.3385780503078,180.47869228557607) rotate(144.70923059893815) scale(1.0959041566550394)" /><path d="M30,0 L15,-26 L-15,-26 L-30,0 L-15,26 L15,26 Z" fill="none" stroke="black" transform="translate(158.86517228630893,95.61045247571785) rotate(339.95268261567753) scale(1.1190517516460035)" /><path d="M30,0 L15,-26 L-15,-26 L-30,0 L-15,26 L15,26 Z" fill="none" stroke="black" transform="translate(116.17973382699722,286.476250230891) rotate(244.39352306995457) scale(0.8538653579722689)" /><g><path d="M30,0 L15,-26 L-15,-26 L-30,0 L-15,26 L15,26 Z" fill="none" stroke="black" transform="translate(334.03979158167976,216.4653570752681) rotate(194.61173382762578) scale(0.8818128545005324)" /><path d="M30,0 L15,-26 L-15,-26 L-30,0 L-15,26 L15,26 Z" fill="none" stroke="black" transform="translate(334.03979158167976,216.4653570752681) rotate(194.61173382762578) scale(0.6172689981503726)" /></g><g><path d="M30,0 L15,-26 L-15,-26 L-30,0 L-15,26 L15,26 Z" fill="none" stroke="black" transform="translate(103.37615566742826,155.03038878124158) rotate(133.38940932885933) scale(0.9652276943423687)" /><path d="M30,0 L15,-26 L-15,-26 L-30,0 L-15,26 L15,26 Z" fill="none" stroke="black" transform="translate(103.37615566742826,155.03038878124158) rotate(133.38940932885933) scale(0.675659386039658)" /></g><path d="M0.0,-30.0 L28.5,-9.3 L17.6,24.3 L-17.6,24.3 L-28.5,-9.3 Z" fill="none" stroke="black" transform="translate(230.62161721967146,82.66184764223159) rotate(31.160538624895786) scale(1.0093688600721331)" /></svg>