<svg baseProfile="full" height="400" version="1.1" width="400" xmlns="http://www.w3.org/2000/svg" xmlns:ev="http://www.w3.org/2001/xml-events" xmlns:xlink="http://www.w3.org/1999/xlink"><defs /><rect fill="white" height="100%" width="100%" x="0" y="0" /><g><path d="M27.7,-11.5 L27.7,11.5 L11.5,27.7 L-11.5,27.7 L-27.7,11.5 L-27.7,-11.5 L-11.5,-27.7 L11.5,-27.7 Z" fill="none" stroke="black" transform="translate(260.0659908400153,213.00098830702012) rotate(89.12230437246632) scale(1.6551158080681898)" /><path d="M27.7,-11.5 L27.7,11.5 L11.5,27.7 L-11.5,27.7 L-27.7,11.5 L-27.7,-11.5 L-11.5,-27.7 L11.5,-27.7 Z" fill="none" stroke="black" transform="translate(260.0659908400153,213.00098830702012) rotate(89.12230437246632) scale(1.1585810656477329)" /></g><path d="M27.7,-11.5 L27.7,11.5 L11.5,27.7 L-11.5,27.7 L-27.7,11.5 L-27.7,-11.5 L-11.5,-27.7 L11.5,-27.7 Z" fill="none" stroke="black" transform="translate(140.18902499066118,270.8560628992975) rotate(347.9355905671831) scale(1.1758771776414085)" /><g><path d="M27.7,-11.5 L27.7,11.5 L11.5,27.7 L-11.5,27.7 L-27.7,11.5 L-27.7,-11.5 L-11.5,-27.7 L11.5,-27.7 Z" fill="none" stroke="black" transform="translate(150.08195348784062,170.70022116973394) rotate(204.3785062299078) scale(1.7942766181177183)" /><path d="M27.7,-11.5 L27.7,11.5 L11.5,27.7 L-11.5,27.7 L-27.7,11.5 L-27.7,-11.5 L-11.5,-27.7 L11.5,-27.7 Z" fill="none" stroke="black" transform="translate(150.08195348784062,170.70022116973394) rotate(204.3785062299078) scale(1.2559936326824028)" /><path d="M27.7,-11.5 L27.7,11.5 L11.5,27.7 L-11.5,27.7 L-27.7,11.5 L-27.7,-11.5 L-11.5,-27.7 L11.5,-27.7 Z" fill="none" stroke="black" transform="translate(150.08195348784062,170.70022116973394) rotate(204.3785062299078) scale(0.7177106472470873)" /></g><path d="M0.0,-30.0 L28.5,-9.3 L17.6,24.3 L-17.6,24.3 L-28.5,-9.3 Z" fill="none" stroke="black" transform="translate(323.2075385710822,72.75713396814794) rotate(54.56934718062791) scale(0.8746809939890726)" /><path d="M0.0,-30.0 L28.5,-9.3 L17.6,24.3 L-17.6,24.3 L-28.5,-9.3 Z" fill="none" stroke="black" transform="translate(212.1382186092062,308.6754033177164) rotate(187.54695367902548) scale(1.191785866276659)" /><path d="M-30,-20 h60 v40 h-60 Z" fill="none" stroke="black" transform="translate(251.31157499326196,84.29442664153451) rotate(145.23865733932186) scale(0.9932394214808024)" /><path d="M0.0,-30.0 L8.8,-12.1 L28.5,-9.3 L14.3,4.6 L17.6,24.3 L0.0,15.0 L-17.6,24.3 L-14.3,4.6 L-28.5,-9.3 L-8.8,-12.1 Z" fill="none" stroke="black" transform="translate(187.13733688607635,89.65035373098782) rotate(344.66783250167055) scale(1.206792567967422)" /><path d="M0,0 m-30,0 a30,30 0 1,0 60,0 a30,30 0 1,0 -60,0" fill="none" stroke="black" transform="translate(298.73945247111436,304.6125372421332) rotate(310.2815754443753) scale(0.9652004345193499)" /><g><path d="M0,-30 L30,30 L-30,30 Z" fill="none" stroke="black" transform="translate(72.99689278559856,88.95073184913565) rotate(130.05187926154727) scale(0.9344345213584411)" /><path d="M0,-30 L30,30 L-30,30 Z" fill="none" stroke="black" transform="translate(72.99689278559856,88.95073184913565) rotate(130.05187926154727) scale(0.6541041649509087)" /></g><path d="M30,0 L15,-26 L-15,-26 L-30,0 L-15,26 L15,26 Z" fill="none" stroke="black" transform="translate(277.9722466831593,138.2035683864828) rotate(30.09784525931831) scale(0.8888125839157702)" /></svg>