<svg baseProfile="full" height="400" version="1.1" width="400" xmlns="http://www.w3.org/2000/svg" xmlns:ev="http://www.w3.org/2001/xml-events" xmlns:xlink="http://www.w3.org/1999/xlink"><defs /><rect fill="white" height="100%" width="100%" x="0" y="0" /><path d="M30,0 L15,-26 L-15,-26 L-30,0 L-15,26 L15,26 Z" fill="none" stroke="black" transform="translate(110.12520323036843,196.0366977337417) rotate(243.06948410698976) scale(1.4443838000557978)" /><g><path d="M0,-30 L30,30 L-30,30 Z" fill="none" stroke="black" transform="translate(273.6258897111731,185.04456270700177) rotate(89.6085796732221) scale(1.0774632263915866)" /><path d="M0,-30 L30,30 L-30,30 Z" fill="none" stroke="black" transform="translate(273.6258897111731,185.04456270700177) rotate(89.6085796732221) scale(0.7542242584741106)" /><path d="M0,-30 L30,30 L-30,30 Z" fill="none" stroke="black" transform="translate(273.6258897111731,185.04456270700177) rotate(89.6085796732221) scale(0.4309852905566347)" /></g><g><path d="M0,-30 L30,30 L-30,30 Z" fill="none" stroke="black" transform="translate(262.35943236751655,238.87826630805) rotate(212.99184284604877) scale(0.908367325112739)" /><path d="M0,-30 L30,30 L-30,30 Z" fill="none" stroke="black" transform="translate(262.35943236751655,238.87826630805) rotate(212.99184284604877) scale(0.6358571275789172)" /><path d="M0,-30 L30,30 L-30,30 Z" fill="none" stroke="black" transform="translate(262.35943236751655,238.87826630805) rotate(212.99184284604877) scale(0.3633469300450956)" /></g><path d="M0.0,-30.0 L8.8,-12.1 L28.5,-9.3 L14.3,4.6 L17.6,24.3 L0.0,15.0 L-17.6,24.3 L-14.3,4.6 L-28.5,-9.3 L-8.8,-12.1 Z" fill="none" stroke="black" transform="translate(199.4425822260623,306.6620744108454) rotate(318.7342063303531) scale(1.1999578893987919)" /><g><path d="M0.0,-30.0 L8.8,-12.1 L28.5,-9.3 L14.3,4.6 L17.6,24.3 L0.0,15.0 L-17.6,24.3 L-14.3,4.6 L-28.5,-9.3 L-8.8,-12.1 Z" fill="none" stroke="black" transform="translate(285.11736920276655,134.31386227983182) rotate(188.57638675431963) scale(1.2395197788657517)" /><path d="M0.0,-30.0 L8.8,-12.1 L28.5,-9.3 L14.3,4.6 L17.6,24.3 L0.0,15.0 L-17.6,24.3 L-14.3,4.6 L-28.5,-9.3 L-8.8,-12.1 Z" fill="none" stroke="black" transform="translate(285.11736920276655,134.31386227983182) rotate(188.57638675431963) scale(0.8676638452060261)" /></g><g><path d="M0.0,-30.0 L8.8,-12.1 L28.5,-9.3 L14.3,4.6 L17.6,24.3 L0.0,15.0 L-17.6,24.3 L-14.3,4.6 L-28.5,-9.3 L-8.8,-12.1 Z" fill="none" stroke="black" transform="translate(202.2959870560485,189.12386352609641) rotate(186.4244902655635) scale(1.1067071979381937)" /><path d="M0.0,-30.0 L8.8,-12.1 L28.5,-9.3 L14.3,4.6 L17.6,24.3 L0.0,15.0 L-17.6,24.3 L-14.3,4.6 L-28.5,-9.3 L-8.8,-12.1 Z" fill="none" stroke="black" transform="translate(202.2959870560485,189.12386352609641) rotate(186.4244902655635) scale(0.7746950385567356)" /></g><path d="M0,0 m-30,0 a30,30 0 1,0 60,0 a30,30 0 1,0 -60,0" fill="none" stroke="black" transform="translate(213.75926100716822,90.42147701969196) rotate(224.58238335940248) scale(1.0826967547680268)" /><g><path d="M0,0 m-30,0 a30,30 0 1,0 60,0 a30,30 0 1,0 -60,0" fill="none" stroke="black" transform="translate(255.33931146161012,83.80851359922308) rotate(155.14358255879506) scale(0.9282078077616549)" /><path d="M0,0 m-30,0 a30,30 0 1,0 60,0 a30,30 0 1,0 -60,0" fill="none" stroke="black" transform="translate(255.33931146161012,83.80851359922308) rotate(155.14358255879506) scale(0.6497454654331584)" /><path d="M0,0 m-30,0 a30,30 0 1,0 60,0 a30,30 0 1,0 -60,0" fill="none" stroke="black" transform="translate(255.33931146161012,83.80851359922308) rotate(155.14358255879506) scale(0.371283123104662)" /></g><path d="M0,0 m-30,0 a30,30 0 1,0 60,0 a30,30 0 1,0 -60,0" fill="none" stroke="black" transform="translate(109.7795522159023,273.24906785128337) rotate(52.8284906776683) scale(0.8671007935323536)" /><path d="M0.0,-30.0 L28.5,-9.3 L17.6,24.3 L-17.6,24.3 L-28.5,-9.3 Z" fill="none" stroke="black" transform="translate(162.7694094731733,62.045693852541554) rotate(209.67877021789346) scale(0.8235176506430144)" /><g><path d="M0.0,-30.0 L28.5,-9.3 L17.6,24.3 L-17.6,24.3 L-28.5,-9.3 Z" fill="none" stroke="black" transform="translate(293.29606718179264,282.93938561384596) rotate(115.2770969728777) scale(0.9248818218721377)" /><path d="M0.0,-30.0 L28.5,-9.3 L17.6,24.3 L-17.6,24.3 L-28.5,-9.3 Z" fill="none" stroke="black" transform="translate(293.29606718179264,282.93938561384596) rotate(115.2770969728777) scale(0.6474172753104964)" /></g><g><path d="M27.7,-11.5 L27.7,11.5 L11.5,27.7 L-11.5,27.7 L-27.7,11.5 L-27.7,-11.5 L-11.5,-27.7 L11.5,-27.7 Z" fill="none" stroke="black" transform="translate(67.75741356863524,283.4341809696418) rotate(298.6958213212008) scale(0.8700450593361072)" /><path d="M27.7,-11.5 L27.7,11.5 L11.5,27.7 L-11.5,27.7 L-27.7,11.5 L-27.7,-11.5 L-11.5,-27.7 L11.5,-27.7 Z" fill="none" stroke="black" transform="translate(67.75741356863524,283.4341809696418) rotate(298.6958213212008) scale(0.6090315415352751)" /></g><g><path d="M27.7,-11.5 L27.7,11.5 L11.5,27.7 L-11.5,27.7 L-27.7,11.5 L-27.7,-11.5 L-11.5,-27.7 L11.5,-27.7 Z" fill="none" stroke="black" transform="translate(337.48612011133395,143.8743988861177) rotate(197.29199700305136) scale(0.859728087796056)" /><path d="M27.7,-11.5 L27.7,11.5 L11.5,27.7 L-11.5,27.7 L-27.7,11.5 L-27.7,-11.5 L-11.5,-27.7 L11.5,-27.7 Z" fill="none" stroke="black" transform="translate(337.48612011133395,143.8743988861177) rotate(197.29199700305136) scale(0.6018096614572391)" /></g><g><path d="M27.7,-11.5 L27.7,11.5 L11.5,27.7 L-11.5,27.7 L-27.7,11.5 L-27.7,-11.5 L-11.5,-27.7 L11.5,-27.7 Z" fill="none" stroke="black" transform="translate(97.23414063323568,123.95236477603413) rotate(146.79786186341178) scale(1.2196982346042566)" /><path d="M27.7,-11.5 L27.7,11.5 L11.5,27.7 L-11.5,27.7 L-27.7,11.5 L-27.7,-11.5 L-11.5,-27.7 L11.5,-27.7 Z" fill="none" stroke="black" transform="translate(97.23414063323568,123.95236477603413) rotate(146.79786186341178) scale(0.8537887642229796)" /><path d="M27.7,-11.5 L27.7,11.5 L11.5,27.7 L-11.5,27.7 L-27.7,11.5 L-27.7,-11.5 L-11.5,-27.7 L11.5,-27.7 Z" fill="none" stroke="black" transform="translate(97.23414063323568,123.95236477603413) rotate(146.79786186341178) scale(0.4878792938417027)" /></g><path d="M-30,-20 h60 v40 h-60 Z" fill="none" stroke="black" transform="translate(213.9088805622506,246.36594927479473) rotate(9.047728207322837) scale(1.1306155502042403)" /><path d="M-30,-20 h60 v40 h-60 Z" fill="none" stroke="black" transform="translate(222.7618097032643,143.32059554163166) rotate(121.36236337869464) scale(1.0467492907647808)" /></svg>