<svg baseProfile="full" height="400" version="1.1" width="400" xmlns="http://www.w3.org/2000/svg" xmlns:ev="http://www.w3.org/2001/xml-events" xmlns:xlink="http://www.w3.org/1999/xlink"><defs /><rect fill="white" height="100%" width="100%" x="0" y="0" /><path d="M27.7,-11.5 L27.7,11.5 L11.5,27.7 L-11.5,27.7 L-27.7,11.5 L-27.7,-11.5 L-11.5,-27.7 L11.5,-27.7 Z" fill="none" stroke="black" transform="translate(135.60509754092323,228.70681901845853) rotate(233.13172444140804) scale(1.7316628312868194)" /><path d="M27.7,-11.5 L27.7,11.5 L11.5,27.7 L-11.5,27.7 L-27.7,11.5 L-27.7,-11.5 L-11.5,-27.7 L11.5,-27.7 Z" fill="none" stroke="black" transform="translate(144.16408200042835,78.12861717018788) rotate(345.7963619529782) scale(0.9856976938133147)" /><path d="M27.7,-11.5 L27.7,11.5 L11.5,27.7 L-11.5,27.7 L-27.7,11.5 L-27.7,-11.5 L-11.5,-27.7 L11.5,-27.7 Z" fill="none" stroke="black" transform="translate(272.8765120390037,268.0296907167535) rotate(198.1712790971052) scale(1.056348157955162)" /><g><path d="M27.7,-11.5 L27.7,11.5 L11.5,27.7 L-11.5,27.7 L-27.7,11.5 L-27.7,-11.5 L-11.5,-27.7 L11.5,-27.7 Z" fill="none" stroke="black" transform="translate(280.57872865411827,112.970629446486) rotate(79.0682769848248) scale(1.5140642246355385)" /><path d="M27.7,-11.5 L27.7,11.5 L11.5,27.7 L-11.5,27.7 L-27.7,11.5 L-27.7,-11.5 L-11.5,-27.7 L11.5,-27.7 Z" fill="none" stroke="black" transform="translate(280.57872865411827,112.970629446486) rotate(79.0682769848248) scale(1.059844957244877)" /></g><path d="M27.7,-11.5 L27.7,11.5 L11.5,27.7 L-11.5,27.7 L-27.7,11.5 L-27.7,-11.5 L-11.5,-27.7 L11.5,-27.7 Z" fill="none" stroke="black" transform="translate(297.5125088847698,337.5065540023241) rotate(185.06022551072698) scale(0.8174998274915498)" /><path d="M0.0,-30.0 L28.5,-9.3 L17.6,24.3 L-17.6,24.3 L-28.5,-9.3 Z" fill="none" stroke="black" transform="translate(236.99804784242517,320.91323394672594) rotate(97.84193055983596) scale(1.0636091769322036)" /><path d="M0.0,-30.0 L28.5,-9.3 L17.6,24.3 L-17.6,24.3 L-28.5,-9.3 Z" fill="none" stroke="black" transform="translate(234.62319991702253,216.33586333492906) rotate(52.349627836604526) scale(1.08174834780784)" /><path d="M0.0,-30.0 L28.5,-9.3 L17.6,24.3 L-17.6,24.3 L-28.5,-9.3 Z" fill="none" stroke="black" transform="translate(90.73573374262118,131.48112056023191) rotate(70.4010672390384) scale(0.8478768641249135)" /><g><path d="M0.0,-30.0 L28.5,-9.3 L17.6,24.3 L-17.6,24.3 L-28.5,-9.3 Z" fill="none" stroke="black" transform="translate(171.02512094935247,134.14577948923872) rotate(337.90555148505416) scale(1.5693159258005784)" /><path d="M0.0,-30.0 L28.5,-9.3 L17.6,24.3 L-17.6,24.3 L-28.5,-9.3 Z" fill="none" stroke="black" transform="translate(171.02512094935247,134.14577948923872) rotate(337.90555148505416) scale(1.098521148060405)" /></g><path d="M0.0,-30.0 L28.5,-9.3 L17.6,24.3 L-17.6,24.3 L-28.5,-9.3 Z" fill="none" stroke="black" transform="translate(300.6946870361127,213.97785621269355) rotate(65.3035358162833) scale(0.8055977961784704)" /><g><path d="M0.0,-30.0 L28.5,-9.3 L17.6,24.3 L-17.6,24.3 L-28.5,-9.3 Z" fill="none" stroke="black" transform="translate(79.38396455888198,290.7484171732301) rotate(21.80576072624376) scale(0.9644001577496166)" /><path d="M0.0,-30.0 L28.5,-9.3 L17.6,24.3 L-17.6,24.3 L-28.5,-9.3 Z" fill="none" stroke="black" transform="translate(79.38396455888198,290.7484171732301) rotate(21.80576072624376) scale(0.6750801104247316)" /></g><path d="M-30,-20 h60 v40 h-60 Z" fill="none" stroke="black" transform="translate(61.03626760554586,121.49005305227095) rotate(334.8769404472858) scale(0.8341888306245832)" /><path d="M-30,-20 h60 v40 h-60 Z" fill="none" stroke="black" transform="translate(199.1434682658831,268.8843599681975) rotate(15.993188017404663) scale(1.0110294343735813)" /><path d="M-30,-20 h60 v40 h-60 Z" fill="none" stroke="black" transform="translate(155.54922029179153,322.89337466562824) rotate(57.30288244944386) scale(1.010913328347165)" /><path d="M-30,-20 h60 v40 h-60 Z" fill="none" stroke="black" transform="translate(231.21709194504743,72.02680146025969) rotate(118.5626441951481) scale(0.8290712504645454)" /><path d="M30,0 L15,-26 L-15,-26 L-30,0 L-15,26 L15,26 Z" fill="none" stroke="black" transform="translate(232.71522634437798,280.31376643675316) rotate(283.15679450912876) scale(0.832987724263459)" /><g><path d="M30,0 L15,-26 L-15,-26 L-30,0 L-15,26 L15,26 Z" fill="none" stroke="black" transform="translate(271.32097499719686,187.85149749629667) rotate(31.182083806860096) scale(0.8686556439692515)" /><path d="M30,0 L15,-26 L-15,-26 L-30,0 L-15,26 L15,26 Z" fill="none" stroke="black" transform="translate(271.32097499719686,187.85149749629667) rotate(31.182083806860096) scale(0.608058950778476)" /></g><path d="M30,0 L15,-26 L-15,-26 L-30,0 L-15,26 L15,26 Z" fill="none" stroke="black" transform="translate(230.9266695995038,135.1776991360989) rotate(180.7870096142429) scale(0.8198066165695657)" /><path d="M30,0 L15,-26 L-15,-26 L-30,0 L-15,26 L15,26 Z" fill="none" stroke="black" transform="translate(331.75154983913535,208.13493882340194) rotate(197.45397241769743) scale(0.8236124673942382)" /><path d="M0.0,-30.0 L8.8,-12.1 L28.5,-9.3 L14.3,4.6 L17.6,24.3 L0.0,15.0 L-17.6,24.3 L-14.3,4.6 L-28.5,-9.3 L-8.8,-12.1 Z" fill="none" stroke="black" transform="translate(331.99081522121077,286.91299184846554) rotate(275.2441432927099) scale(0.8672550303620824)" /><path d="M0.0,-30.0 L8.8,-12.1 L28.5,-9.3 L14.3,4.6 L17.6,24.3 L0.0,15.0 L-17.6,24.3 L-14.3,4.6 L-28.5,-9.3 L-8.8,-12.1 Z" fill="none" stroke="black" transform="translate(99.00009078008338,184.64033162453273) rotate(339.7814302232984) scale(0.9082109527560487)" /><path d="M0.0,-30.0 L8.8,-12.1 L28.5,-9.3 L14.3,4.6 L17.6,24.3 L0.0,15.0 L-17.6,24.3 L-14.3,4.6 L-28.5,-9.3 L-8.8,-12.1 Z" fill="none" stroke="black" transform="translate(98.97426791416373,89.68712982245664) rotate(159.88076629206273) scale(1.1061786542405394)" /><g><path d="M0,0 m-30,0 a30,30 0 1,0 60,0 a30,30 0 1,0 -60,0" fill="none" stroke="black" transform="translate(66.22447922620356,192.2954666212525) rotate(292.4038821711035) scale(0.8516289502483698)" /><path d="M0,0 m-30,0 a30,30 0 1,0 60,0 a30,30 0 1,0 -60,0" fill="none" stroke="black" transform="translate(66.22447922620356,192.2954666212525) rotate(292.4038821711035) scale(0.5961402651738589)" /><path d="M0,0 m-30,0 a30,30 0 1,0 60,0 a30,30 0 1,0 -60,0" fill="none" stroke="black" transform="translate(66.22447922620356,192.2954666212525) rotate(292.4038821711035) scale(0.34065158009934793)" /></g><g><path d="M0,0 m-30,0 a30,30 0 1,0 60,0 a30,30 0 1,0 -60,0" fill="none" stroke="black" transform="translate(294.1332741611464,64.37019837449664) rotate(166.6729616243922) scale(0.8690042377005995)" /><path d="M0,0 m-30,0 a30,30 0 1,0 60,0 a30,30 0 1,0 -60,0" fill="none" stroke="black" transform="translate(294.1332741611464,64.37019837449664) rotate(166.6729616243922) scale(0.6083029663904196)" /></g><g><path d="M0,0 m-30,0 a30,30 0 1,0 60,0 a30,30 0 1,0 -60,0" fill="none" stroke="black" transform="translate(108.5736261936672,316.2825792696637) rotate(288.77892062684936) scale(0.9458340498149216)" /><path d="M0,0 m-30,0 a30,30 0 1,0 60,0 a30,30 0 1,0 -60,0" fill="none" stroke="black" transform="translate(108.5736261936672,316.2825792696637) rotate(288.77892062684936) scale(0.6620838348704451)" /></g><g><path d="M0,0 m-30,0 a30,30 0 1,0 60,0 a30,30 0 1,0 -60,0" fill="none" stroke="black" transform="translate(271.26808474949166,325.13672592946943) rotate(3.2071130529142167) scale(0.9739205680724249)" /><path d="M0,0 m-30,0 a30,30 0 1,0 60,0 a30,30 0 1,0 -60,0" fill="none" stroke="black" transform="translate(271.26808474949166,325.13672592946943) rotate(3.2071130529142167) scale(0.6817443976506974)" /></g></svg>