<svg baseProfile="full" height="400" version="1.1" width="400" xmlns="http://www.w3.org/2000/svg" xmlns:ev="http://www.w3.org/2001/xml-events" xmlns:xlink="http://www.w3.org/1999/xlink"><defs /><rect fill="white" height="100%" width="100%" x="0" y="0" /><path d="M0,-30 L30,30 L-30,30 Z" fill="none" stroke="black" transform="translate(274.2592278380996,174.12179252588356) rotate(99.49384771903912) scale(1.3221971853321317)" /><path d="M0,-30 L30,30 L-30,30 Z" fill="none" stroke="black" transform="translate(128.34426319851957,284.7799975174711) rotate(187.64445404998608) scale(1.3583800452519248)" /><path d="M0,-30 L30,30 L-30,30 Z" fill="none" stroke="black" transform="translate(273.3319042309923,287.41472257064447) rotate(9.125397972904699) scale(0.8530142941267925)" /><path d="M0,-30 L30,30 L-30,30 Z" fill="none" stroke="black" transform="translate(167.1291412793105,140.91627676601757) rotate(314.39820778696316) scale(1.4131689447587132)" /><g><path d="M0,-30 L30,30 L-30,30 Z" fill="none" stroke="black" transform="translate(295.1441382767823,75.00530847925299) rotate(310.5650764987913) scale(0.8217662555681122)" /><path d="M0,-30 L30,30 L-30,30 Z" fill="none" stroke="black" transform="translate(295.1441382767823,75.00530847925299) rotate(310.5650764987913) scale(0.5752363788976785)" /></g><g><path d="M-30,-20 h60 v40 h-60 Z" fill="none" stroke="black" transform="translate(338.92537892204075,255.99101152045674) rotate(335.48622900944355) scale(0.8008901641182563)" /><path d="M-30,-20 h60 v40 h-60 Z" fill="none" stroke="black" transform="translate(338.92537892204075,255.99101152045674) rotate(335.48622900944355) scale(0.5606231148827794)" /><path d="M-30,-20 h60 v40 h-60 Z" fill="none" stroke="black" transform="translate(338.92537892204075,255.99101152045674) rotate(335.48622900944355) scale(0.32035606564730257)" /></g><g><path d="M-30,-20 h60 v40 h-60 Z" fill="none" stroke="black" transform="translate(220.1140802206467,70.322481943809) rotate(34.65059560266045) scale(0.830171389658992)" /><path d="M-30,-20 h60 v40 h-60 Z" fill="none" stroke="black" transform="translate(220.1140802206467,70.322481943809) rotate(34.65059560266045) scale(0.5811199727612943)" /><path d="M-30,-20 h60 v40 h-60 Z" fill="none" stroke="black" transform="translate(220.1140802206467,70.322481943809) rotate(34.65059560266045) scale(0.3320685558635968)" /></g><path d="M0.0,-30.0 L8.8,-12.1 L28.5,-9.3 L14.3,4.6 L17.6,24.3 L0.0,15.0 L-17.6,24.3 L-14.3,4.6 L-28.5,-9.3 L-8.8,-12.1 Z" fill="none" stroke="black" transform="translate(68.53380463074087,136.10423651542334) rotate(257.4096558258914) scale(0.8025331464859432)" /><path d="M27.7,-11.5 L27.7,11.5 L11.5,27.7 L-11.5,27.7 L-27.7,11.5 L-27.7,-11.5 L-11.5,-27.7 L11.5,-27.7 Z" fill="none" stroke="black" transform="translate(77.53044663291604,61.886830986698506) rotate(288.9981982360121) scale(0.8318210034780256)" /></svg>