<svg baseProfile="full" height="400" version="1.1" width="400" xmlns="http://www.w3.org/2000/svg" xmlns:ev="http://www.w3.org/2001/xml-events" xmlns:xlink="http://www.w3.org/1999/xlink"><defs /><rect fill="white" height="100%" width="100%" x="0" y="0" /><g><path d="M0,-30 L30,30 L-30,30 Z" fill="none" stroke="black" transform="translate(224.48378888922792,232.8123295481595) rotate(169.3752893937014) scale(1.6821250302387747)" /><path d="M0,-30 L30,30 L-30,30 Z" fill="none" stroke="black" transform="translate(224.48378888922792,232.8123295481595) rotate(169.3752893937014) scale(1.1774875211671423)" /></g><path d="M0,-30 L30,30 L-30,30 Z" fill="none" stroke="black" transform="translate(184.62770372487856,133.33508488029986) rotate(250.65286493119842) scale(0.8103125349545874)" /><path d="M0,-30 L30,30 L-30,30 Z" fill="none" stroke="black" transform="translate(200.75797657838083,81.16633402954118) rotate(336.06536297099467) scale(0.8262001718214201)" /><path d="M0,-30 L30,30 L-30,30 Z" fill="none" stroke="black" transform="translate(127.46311561868751,118.79955011681793) rotate(37.27146063535838) scale(1.639602425925879)" /><path d="M0,-30 L30,30 L-30,30 Z" fill="none" stroke="black" transform="translate(292.6109242646918,219.40099131759186) rotate(244.8148604950929) scale(1.299180309518992)" /><path d="M0,-30 L30,30 L-30,30 Z" fill="none" stroke="black" transform="translate(312.20990670507376,287.31194187450114) rotate(270.5139260268894) scale(1.0541751558847137)" /><g><path d="M0,-30 L30,30 L-30,30 Z" fill="none" stroke="black" transform="translate(268.9978147446238,180.16807987599844) rotate(67.72752208783257) scale(0.8982122814191913)" /><path d="M0,-30 L30,30 L-30,30 Z" fill="none" stroke="black" transform="translate(268.9978147446238,180.16807987599844) rotate(67.72752208783257) scale(0.6287485969934339)" /><path d="M0,-30 L30,30 L-30,30 Z" fill="none" stroke="black" transform="translate(268.9978147446238,180.16807987599844) rotate(67.72752208783257) scale(0.35928491256767653)" /></g><path d="M0,-30 L30,30 L-30,30 Z" fill="none" stroke="black" transform="translate(150.47583446758432,228.69831907706245) rotate(254.15717317235058) scale(1.4974008242059769)" /><g><path d="M0,-30 L30,30 L-30,30 Z" fill="none" stroke="black" transform="translate(96.737425264535,305.52915634240605) rotate(311.1679199192883) scale(0.9276773639451122)" /><path d="M0,-30 L30,30 L-30,30 Z" fill="none" stroke="black" transform="translate(96.737425264535,305.52915634240605) rotate(311.1679199192883) scale(0.6493741547615786)" /></g><path d="M0.0,-30.0 L28.5,-9.3 L17.6,24.3 L-17.6,24.3 L-28.5,-9.3 Z" fill="none" stroke="black" transform="translate(73.95582678028461,244.42367874713284) rotate(340.77256719305547) scale(0.8411848676235212)" /><path d="M0.0,-30.0 L28.5,-9.3 L17.6,24.3 L-17.6,24.3 L-28.5,-9.3 Z" fill="none" stroke="black" transform="translate(252.25633620073805,292.55940810169034) rotate(305.84016989880894) scale(0.946230579606095)" /><g><path d="M0.0,-30.0 L28.5,-9.3 L17.6,24.3 L-17.6,24.3 L-28.5,-9.3 Z" fill="none" stroke="black" transform="translate(244.39882952713083,89.49746501322504) rotate(245.60842457857126) scale(0.8568597408665056)" /><path d="M0.0,-30.0 L28.5,-9.3 L17.6,24.3 L-17.6,24.3 L-28.5,-9.3 Z" fill="none" stroke="black" transform="translate(244.39882952713083,89.49746501322504) rotate(245.60842457857126) scale(0.5998018186065539)" /><path d="M0.0,-30.0 L28.5,-9.3 L17.6,24.3 L-17.6,24.3 L-28.5,-9.3 Z" fill="none" stroke="black" transform="translate(244.39882952713083,89.49746501322504) rotate(245.60842457857126) scale(0.3427438963466023)" /></g><path d="M0.0,-30.0 L28.5,-9.3 L17.6,24.3 L-17.6,24.3 L-28.5,-9.3 Z" fill="none" stroke="black" transform="translate(302.4377408231102,109.1765557684761) rotate(178.6295031290203) scale(0.9734004232077299)" /><g><path d="M0.0,-30.0 L28.5,-9.3 L17.6,24.3 L-17.6,24.3 L-28.5,-9.3 Z" fill="none" stroke="black" transform="translate(256.28760050367254,136.48677532693478) rotate(140.94676697725464) scale(0.8393573517397982)" /><path d="M0.0,-30.0 L28.5,-9.3 L17.6,24.3 L-17.6,24.3 L-28.5,-9.3 Z" fill="none" stroke="black" transform="translate(256.28760050367254,136.48677532693478) rotate(140.94676697725464) scale(0.5875501462178587)" /></g><path d="M0.0,-30.0 L8.8,-12.1 L28.5,-9.3 L14.3,4.6 L17.6,24.3 L0.0,15.0 L-17.6,24.3 L-14.3,4.6 L-28.5,-9.3 L-8.8,-12.1 Z" fill="none" stroke="black" transform="translate(331.40649047476734,65.23754615409831) rotate(162.04210688705314) scale(0.8196162125342698)" /><path d="M0.0,-30.0 L8.8,-12.1 L28.5,-9.3 L14.3,4.6 L17.6,24.3 L0.0,15.0 L-17.6,24.3 L-14.3,4.6 L-28.5,-9.3 L-8.8,-12.1 Z" fill="none" stroke="black" transform="translate(319.28601096205387,166.6397288987867) rotate(252.26326270517376) scale(1.0732593086151225)" /><g><path d="M0.0,-30.0 L8.8,-12.1 L28.5,-9.3 L14.3,4.6 L17.6,24.3 L0.0,15.0 L-17.6,24.3 L-14.3,4.6 L-28.5,-9.3 L-8.8,-12.1 Z" fill="none" stroke="black" transform="translate(158.07087115246492,64.14217954917467) rotate(47.752506169001116) scale(0.8801628394980435)" /><path d="M0.0,-30.0 L8.8,-12.1 L28.5,-9.3 L14.3,4.6 L17.6,24.3 L0.0,15.0 L-17.6,24.3 L-14.3,4.6 L-28.5,-9.3 L-8.8,-12.1 Z" fill="none" stroke="black" transform="translate(158.07087115246492,64.14217954917467) rotate(47.752506169001116) scale(0.6161139876486305)" /></g><g><path d="M0.0,-30.0 L8.8,-12.1 L28.5,-9.3 L14.3,4.6 L17.6,24.3 L0.0,15.0 L-17.6,24.3 L-14.3,4.6 L-28.5,-9.3 L-8.8,-12.1 Z" fill="none" stroke="black" transform="translate(193.5583711138526,306.79760143350836) rotate(51.085134897846785) scale(0.8728962741363822)" /><path d="M0.0,-30.0 L8.8,-12.1 L28.5,-9.3 L14.3,4.6 L17.6,24.3 L0.0,15.0 L-17.6,24.3 L-14.3,4.6 L-28.5,-9.3 L-8.8,-12.1 Z" fill="none" stroke="black" transform="translate(193.5583711138526,306.79760143350836) rotate(51.085134897846785) scale(0.6110273918954675)" /><path d="M0.0,-30.0 L8.8,-12.1 L28.5,-9.3 L14.3,4.6 L17.6,24.3 L0.0,15.0 L-17.6,24.3 L-14.3,4.6 L-28.5,-9.3 L-8.8,-12.1 Z" fill="none" stroke="black" transform="translate(193.5583711138526,306.79760143350836) rotate(51.085134897846785) scale(0.34915850965455286)" /></g><path d="M30,0 L15,-26 L-15,-26 L-30,0 L-15,26 L15,26 Z" fill="none" stroke="black" transform="translate(222.5306030629462,167.82334339903983) rotate(114.80284222458569) scale(0.8247190168673197)" /><g><path d="M-30,-20 h60 v40 h-60 Z" fill="none" stroke="black" transform="translate(87.00301270305228,208.94550535101837) rotate(201.0802576535229) scale(1.0201092352404628)" /><path d="M-30,-20 h60 v40 h-60 Z" fill="none" stroke="black" transform="translate(87.00301270305228,208.94550535101837) rotate(201.0802576535229) scale(0.714076464668324)" /></g><g><path d="M-30,-20 h60 v40 h-60 Z" fill="none" stroke="black" transform="translate(64.28814920130091,188.7183021466787) rotate(197.52991663576017) scale(0.8673472487240557)" /><path d="M-30,-20 h60 v40 h-60 Z" fill="none" stroke="black" transform="translate(64.28814920130091,188.7183021466787) rotate(197.52991663576017) scale(0.6071430741068389)" /><path d="M-30,-20 h60 v40 h-60 Z" fill="none" stroke="black" transform="translate(64.28814920130091,188.7183021466787) rotate(197.52991663576017) scale(0.3469388994896223)" /></g><g><path d="M-30,-20 h60 v40 h-60 Z" fill="none" stroke="black" transform="translate(265.44216174470426,335.9120483084373) rotate(74.33648773499637) scale(0.8724546451935775)" /><path d="M-30,-20 h60 v40 h-60 Z" fill="none" stroke="black" transform="translate(265.44216174470426,335.9120483084373) rotate(74.33648773499637) scale(0.6107182516355042)" /><path d="M-30,-20 h60 v40 h-60 Z" fill="none" stroke="black" transform="translate(265.44216174470426,335.9120483084373) rotate(74.33648773499637) scale(0.34898185807743104)" /></g><path d="M-30,-20 h60 v40 h-60 Z" fill="none" stroke="black" transform="translate(211.4218522531129,122.2204552518298) rotate(350.2802222988352) scale(0.8554076595200766)" /><path d="M-30,-20 h60 v40 h-60 Z" fill="none" stroke="black" transform="translate(73.8016536757313,80.11613563254747) rotate(31.39110695143288) scale(0.9944002708012981)" /><g><path d="M27.7,-11.5 L27.7,11.5 L11.5,27.7 L-11.5,27.7 L-27.7,11.5 L-27.7,-11.5 L-11.5,-27.7 L11.5,-27.7 Z" fill="none" stroke="black" transform="translate(298.0790731860059,71.82519778829682) rotate(317.5691693662012) scale(0.8385424279127344)" /><path d="M27.7,-11.5 L27.7,11.5 L11.5,27.7 L-11.5,27.7 L-27.7,11.5 L-27.7,-11.5 L-11.5,-27.7 L11.5,-27.7 Z" fill="none" stroke="black" transform="translate(298.0790731860059,71.82519778829682) rotate(317.5691693662012) scale(0.586979699538914)" /><path d="M27.7,-11.5 L27.7,11.5 L11.5,27.7 L-11.5,27.7 L-27.7,11.5 L-27.7,-11.5 L-11.5,-27.7 L11.5,-27.7 Z" fill="none" stroke="black" transform="translate(298.0790731860059,71.82519778829682) rotate(317.5691693662012) scale(0.3354169711650938)" /></g><path d="M27.7,-11.5 L27.7,11.5 L11.5,27.7 L-11.5,27.7 L-27.7,11.5 L-27.7,-11.5 L-11.5,-27.7 L11.5,-27.7 Z" fill="none" stroke="black" transform="translate(186.92388640023063,177.13680718231234) rotate(45.34517101901337) scale(0.8692714395772191)" /><path d="M27.7,-11.5 L27.7,11.5 L11.5,27.7 L-11.5,27.7 L-27.7,11.5 L-27.7,-11.5 L-11.5,-27.7 L11.5,-27.7 Z" fill="none" stroke="black" transform="translate(154.69356978562317,300.6679431190782) rotate(307.8307938528582) scale(0.8751517169890386)" /></svg>