<svg baseProfile="full" height="400" version="1.1" width="400" xmlns="http://www.w3.org/2000/svg" xmlns:ev="http://www.w3.org/2001/xml-events" xmlns:xlink="http://www.w3.org/1999/xlink"><defs /><rect fill="white" height="100%" width="100%" x="0" y="0" /><path d="M30,0 L15,-26 L-15,-26 L-30,0 L-15,26 L15,26 Z" fill="none" stroke="black" transform="translate(141.71351183272998,134.88001966192186) rotate(333.58263120623945) scale(1.3881838105254243)" /><path d="M30,0 L15,-26 L-15,-26 L-30,0 L-15,26 L15,26 Z" fill="none" stroke="black" transform="translate(287.7743235231346,230.8169025987841) rotate(296.8078165683437) scale(0.9560522256138679)" /><path d="M0.0,-30.0 L28.5,-9.3 L17.6,24.3 L-17.6,24.3 L-28.5,-9.3 Z" fill="none" stroke="black" transform="translate(152.5209835511966,241.83067622493837) rotate(253.68730581977374) scale(1.616470122235651)" /><g><path d="M0.0,-30.0 L28.5,-9.3 L17.6,24.3 L-17.6,24.3 L-28.5,-9.3 Z" fill="none" stroke="black" transform="translate(307.3581211549454,135.08620199166805) rotate(7.395548797393574) scale(1.1999548203037254)" /><path d="M0.0,-30.0 L28.5,-9.3 L17.6,24.3 L-17.6,24.3 L-28.5,-9.3 Z" fill="none" stroke="black" transform="translate(307.3581211549454,135.08620199166805) rotate(7.395548797393574) scale(0.8399683742126077)" /><path d="M0.0,-30.0 L28.5,-9.3 L17.6,24.3 L-17.6,24.3 L-28.5,-9.3 Z" fill="none" stroke="black" transform="translate(307.3581211549454,135.08620199166805) rotate(7.395548797393574) scale(0.47998192812149015)" /></g><path d="M0.0,-30.0 L28.5,-9.3 L17.6,24.3 L-17.6,24.3 L-28.5,-9.3 Z" fill="none" stroke="black" transform="translate(247.08304582320267,96.54936308619104) rotate(77.52696840943274) scale(1.143629638527334)" /><path d="M0.0,-30.0 L28.5,-9.3 L17.6,24.3 L-17.6,24.3 L-28.5,-9.3 Z" fill="none" stroke="black" transform="translate(309.0221787023052,287.1235440407323) rotate(32.08713088758862) scale(1.1106757894850916)" /><path d="M0.0,-30.0 L28.5,-9.3 L17.6,24.3 L-17.6,24.3 L-28.5,-9.3 Z" fill="none" stroke="black" transform="translate(136.93010412415126,312.3952469927782) rotate(259.57727795953787) scale(0.810904729199722)" /><g><path d="M0,-30 L30,30 L-30,30 Z" fill="none" stroke="black" transform="translate(205.3536731014975,200.92714508586903) rotate(277.344641694899) scale(0.8106368813449677)" /><path d="M0,-30 L30,30 L-30,30 Z" fill="none" stroke="black" transform="translate(205.3536731014975,200.92714508586903) rotate(277.344641694899) scale(0.5674458169414773)" /><path d="M0,-30 L30,30 L-30,30 Z" fill="none" stroke="black" transform="translate(205.3536731014975,200.92714508586903) rotate(277.344641694899) scale(0.3242547525379871)" /></g></svg>