<svg baseProfile="full" height="400" version="1.1" width="400" xmlns="http://www.w3.org/2000/svg" xmlns:ev="http://www.w3.org/2001/xml-events" xmlns:xlink="http://www.w3.org/1999/xlink"><defs /><rect fill="white" height="100%" width="100%" x="0" y="0" /><path d="M-30,-20 h60 v40 h-60 Z" fill="none" stroke="black" transform="translate(312.70817114333914,332.50515464519805) rotate(44.13497793636493) scale(0.9146238268233575)" /><g><path d="M-30,-20 h60 v40 h-60 Z" fill="none" stroke="black" transform="translate(206.79782485359985,248.17085084165072) rotate(303.3697736984257) scale(0.9667193261246243)" /><path d="M-30,-20 h60 v40 h-60 Z" fill="none" stroke="black" transform="translate(206.79782485359985,248.17085084165072) rotate(303.3697736984257) scale(0.676703528287237)" /></g><path d="M-30,-20 h60 v40 h-60 Z" fill="none" stroke="black" transform="translate(135.37059734304736,169.2969474884164) rotate(314.5233004739229) scale(1.5172405789314642)" /><g><path d="M-30,-20 h60 v40 h-60 Z" fill="none" stroke="black" transform="translate(78.12995295070101,294.0017900370268) rotate(325.25861495926273) scale(0.9242930905529204)" /><path d="M-30,-20 h60 v40 h-60 Z" fill="none" stroke="black" transform="translate(78.12995295070101,294.0017900370268) rotate(325.25861495926273) scale(0.6470051633870443)" /></g><path d="M-30,-20 h60 v40 h-60 Z" fill="none" stroke="black" transform="translate(307.3133363873855,217.84299284583335) rotate(260.72794395479207) scale(1.0990693878571869)" /><path d="M-30,-20 h60 v40 h-60 Z" fill="none" stroke="black" transform="translate(238.11645348709885,121.18240991838368) rotate(316.3105547635573) scale(0.8763700272187929)" /><g><path d="M-30,-20 h60 v40 h-60 Z" fill="none" stroke="black" transform="translate(321.16145648727775,75.6952083726291) rotate(162.61256433643982) scale(0.9646358486085616)" /><path d="M-30,-20 h60 v40 h-60 Z" fill="none" stroke="black" transform="translate(321.16145648727775,75.6952083726291) rotate(162.61256433643982) scale(0.6752450940259931)" /><path d="M-30,-20 h60 v40 h-60 Z" fill="none" stroke="black" transform="translate(321.16145648727775,75.6952083726291) rotate(162.61256433643982) scale(0.3858543394434246)" /></g><g><path d="M0,0 m-30,0 a30,30 0 1,0 60,0 a30,30 0 1,0 -60,0" fill="none" stroke="black" transform="translate(194.61747689009633,323.67205680844836) rotate(288.4654488939979) scale(0.8184197222729327)" /><path d="M0,0 m-30,0 a30,30 0 1,0 60,0 a30,30 0 1,0 -60,0" fill="none" stroke="black" transform="translate(194.61747689009633,323.67205680844836) rotate(288.4654488939979) scale(0.5728938055910529)" /></g><path d="M0,0 m-30,0 a30,30 0 1,0 60,0 a30,30 0 1,0 -60,0" fill="none" stroke="black" transform="translate(178.68307730036673,64.65183920134962) rotate(330.3948239783595) scale(0.8625245233385175)" /><g><path d="M27.7,-11.5 L27.7,11.5 L11.5,27.7 L-11.5,27.7 L-27.7,11.5 L-27.7,-11.5 L-11.5,-27.7 L11.5,-27.7 Z" fill="none" stroke="black" transform="translate(69.70551007768469,104.8718198483492) rotate(239.09015995175898) scale(0.9336732675279845)" /><path d="M27.7,-11.5 L27.7,11.5 L11.5,27.7 L-11.5,27.7 L-27.7,11.5 L-27.7,-11.5 L-11.5,-27.7 L11.5,-27.7 Z" fill="none" stroke="black" transform="translate(69.70551007768469,104.8718198483492) rotate(239.09015995175898) scale(0.6535712872695891)" /><path d="M27.7,-11.5 L27.7,11.5 L11.5,27.7 L-11.5,27.7 L-27.7,11.5 L-27.7,-11.5 L-11.5,-27.7 L11.5,-27.7 Z" fill="none" stroke="black" transform="translate(69.70551007768469,104.8718198483492) rotate(239.09015995175898) scale(0.37346930701119385)" /></g></svg>