<svg baseProfile="full" height="400" version="1.1" width="400" xmlns="http://www.w3.org/2000/svg" xmlns:ev="http://www.w3.org/2001/xml-events" xmlns:xlink="http://www.w3.org/1999/xlink"><defs /><rect fill="white" height="100%" width="100%" x="0" y="0" /><g><path d="M0.0,-30.0 L8.8,-12.1 L28.5,-9.3 L14.3,4.6 L17.6,24.3 L0.0,15.0 L-17.6,24.3 L-14.3,4.6 L-28.5,-9.3 L-8.8,-12.1 Z" fill="none" stroke="black" transform="translate(303.9248450910956,70.68614751975774) rotate(31.63287509310985) scale(0.8060520591638437)" /><path d="M0.0,-30.0 L8.8,-12.1 L28.5,-9.3 L14.3,4.6 L17.6,24.3 L0.0,15.0 L-17.6,24.3 L-14.3,4.6 L-28.5,-9.3 L-8.8,-12.1 Z" fill="none" stroke="black" transform="translate(303.9248450910956,70.68614751975774) rotate(31.63287509310985) scale(0.5642364414146905)" /></g><path d="M0.0,-30.0 L8.8,-12.1 L28.5,-9.3 L14.3,4.6 L17.6,24.3 L0.0,15.0 L-17.6,24.3 L-14.3,4.6 L-28.5,-9.3 L-8.8,-12.1 Z" fill="none" stroke="black" transform="translate(160.92470987456005,179.69693668017817) rotate(347.0407693065348) scale(1.7905232555164048)" /><path d="M0,-30 L30,30 L-30,30 Z" fill="none" stroke="black" transform="translate(183.39851292790314,287.32917708554663) rotate(172.23144387773235) scale(1.4575098039725618)" /><path d="M0,-30 L30,30 L-30,30 Z" fill="none" stroke="black" transform="translate(256.29389015090965,141.27099158985052) rotate(174.13168119985832) scale(1.9604313657695676)" /><path d="M0,-30 L30,30 L-30,30 Z" fill="none" stroke="black" transform="translate(310.18516221154107,309.7048719452145) rotate(110.263110735431) scale(0.8094633928389936)" /><path d="M0,-30 L30,30 L-30,30 Z" fill="none" stroke="black" transform="translate(150.15950331983765,87.08406065528565) rotate(304.30093330487256) scale(1.0441924704107464)" /><path d="M0,-30 L30,30 L-30,30 Z" fill="none" stroke="black" transform="translate(275.8415988572434,238.32894203557356) rotate(321.86162384187656) scale(1.5017467906385353)" /><path d="M0,-30 L30,30 L-30,30 Z" fill="none" stroke="black" transform="translate(94.9515611779183,282.14750540278476) rotate(41.604575758207446) scale(0.825980363512106)" /><path d="M0.0,-30.0 L28.5,-9.3 L17.6,24.3 L-17.6,24.3 L-28.5,-9.3 Z" fill="none" stroke="black" transform="translate(76.37554907684448,147.74133120494747) rotate(48.959480693075584) scale(0.8134330876920324)" /><path d="M0.0,-30.0 L28.5,-9.3 L17.6,24.3 L-17.6,24.3 L-28.5,-9.3 Z" fill="none" stroke="black" transform="translate(235.06061098436035,307.69685064075315) rotate(14.495624922308856) scale(0.8353773207916496)" /><g><path d="M0.0,-30.0 L28.5,-9.3 L17.6,24.3 L-17.6,24.3 L-28.5,-9.3 Z" fill="none" stroke="black" transform="translate(87.07492959867824,105.24471906204626) rotate(183.69717988296324) scale(0.9221267971881969)" /><path d="M0.0,-30.0 L28.5,-9.3 L17.6,24.3 L-17.6,24.3 L-28.5,-9.3 Z" fill="none" stroke="black" transform="translate(87.07492959867824,105.24471906204626) rotate(183.69717988296324) scale(0.6454887580317378)" /></g><path d="M0.0,-30.0 L28.5,-9.3 L17.6,24.3 L-17.6,24.3 L-28.5,-9.3 Z" fill="none" stroke="black" transform="translate(72.43900016220218,247.3472073493752) rotate(85.91110254888181) scale(0.9411712327283435)" /><path d="M0.0,-30.0 L28.5,-9.3 L17.6,24.3 L-17.6,24.3 L-28.5,-9.3 Z" fill="none" stroke="black" transform="translate(73.32136835899489,331.9049572441771) rotate(323.2804249742344) scale(0.9151096902903789)" /><path d="M0.0,-30.0 L28.5,-9.3 L17.6,24.3 L-17.6,24.3 L-28.5,-9.3 Z" fill="none" stroke="black" transform="translate(188.32078069108104,87.7316839634596) rotate(219.63254284822474) scale(0.8906112531128314)" /><g><path d="M30,0 L15,-26 L-15,-26 L-30,0 L-15,26 L15,26 Z" fill="none" stroke="black" transform="translate(131.51596173716447,326.12204581231475) rotate(268.452701029614) scale(0.9897530997586778)" /><path d="M30,0 L15,-26 L-15,-26 L-30,0 L-15,26 L15,26 Z" fill="none" stroke="black" transform="translate(131.51596173716447,326.12204581231475) rotate(268.452701029614) scale(0.6928271698310744)" /><path d="M30,0 L15,-26 L-15,-26 L-30,0 L-15,26 L15,26 Z" fill="none" stroke="black" transform="translate(131.51596173716447,326.12204581231475) rotate(268.452701029614) scale(0.39590123990347115)" /></g><path d="M0,0 m-30,0 a30,30 0 1,0 60,0 a30,30 0 1,0 -60,0" fill="none" stroke="black" transform="translate(242.73814162025323,276.1524083830284) rotate(351.47501886646523) scale(0.8055547642766279)" /><path d="M0,0 m-30,0 a30,30 0 1,0 60,0 a30,30 0 1,0 -60,0" fill="none" stroke="black" transform="translate(66.99769330723561,206.15227496052447) rotate(258.3086319713285) scale(0.8075482229577087)" /><path d="M0,0 m-30,0 a30,30 0 1,0 60,0 a30,30 0 1,0 -60,0" fill="none" stroke="black" transform="translate(224.48645066897558,63.279539379578644) rotate(310.2254136437442) scale(0.8223008815740508)" /><path d="M-30,-20 h60 v40 h-60 Z" fill="none" stroke="black" transform="translate(254.76393199665972,67.59089161795423) rotate(112.03531351697357) scale(0.8579962091136369)" /><path d="M27.7,-11.5 L27.7,11.5 L11.5,27.7 L-11.5,27.7 L-27.7,11.5 L-27.7,-11.5 L-11.5,-27.7 L11.5,-27.7 Z" fill="none" stroke="black" transform="translate(58.93393235753502,76.95453114567488) rotate(126.32088455749802) scale(0.8016469135281575)" /><path d="M27.7,-11.5 L27.7,11.5 L11.5,27.7 L-11.5,27.7 L-27.7,11.5 L-27.7,-11.5 L-11.5,-27.7 L11.5,-27.7 Z" fill="none" stroke="black" transform="translate(339.39092422122,162.0300996958461) rotate(185.10795837083322) scale(0.8383227088478938)" /></svg>