<svg baseProfile="full" height="400" version="1.1" width="400" xmlns="http://www.w3.org/2000/svg" xmlns:ev="http://www.w3.org/2001/xml-events" xmlns:xlink="http://www.w3.org/1999/xlink"><defs /><rect fill="white" height="100%" width="100%" x="0" y="0" /><path d="M30,0 L15,-26 L-15,-26 L-30,0 L-15,26 L15,26 Z" fill="none" stroke="black" transform="translate(186.50198341557706,206.7871208636751) rotate(320.2062262912359) scale(1.6844985148426423)" /><path d="M30,0 L15,-26 L-15,-26 L-30,0 L-15,26 L15,26 Z" fill="none" stroke="black" transform="translate(127.41334039901388,109.62360451700025) rotate(326.82527971753063) scale(1.1551198164612926)" /><path d="M0,-30 L30,30 L-30,30 Z" fill="none" stroke="black" transform="translate(294.2685529634572,266.66860061820637) rotate(23.9205921582774) scale(0.9256596458215722)" /><path d="M-30,-20 h60 v40 h-60 Z" fill="none" stroke="black" transform="translate(296.4247777861807,164.95721027073927) rotate(252.65939921771871) scale(1.115653291663027)" /><path d="M-30,-20 h60 v40 h-60 Z" fill="none" stroke="black" transform="translate(256.47431946717535,80.0958264445456) rotate(164.43298804648683) scale(1.0318259599047694)" /><g><path d="M0,0 m-30,0 a30,30 0 1,0 60,0 a30,30 0 1,0 -60,0" fill="none" stroke="black" transform="translate(100.79809863903989,302.06074096713087) rotate(317.4109806546571) scale(1.0975104784077894)" /><path d="M0,0 m-30,0 a30,30 0 1,0 60,0 a30,30 0 1,0 -60,0" fill="none" stroke="black" transform="translate(100.79809863903989,302.06074096713087) rotate(317.4109806546571) scale(0.7682573348854526)" /></g><path d="M0.0,-30.0 L8.8,-12.1 L28.5,-9.3 L14.3,4.6 L17.6,24.3 L0.0,15.0 L-17.6,24.3 L-14.3,4.6 L-28.5,-9.3 L-8.8,-12.1 Z" fill="none" stroke="black" transform="translate(216.28936200620336,310.5575794770342) rotate(257.9264417318861) scale(0.9431960089876757)" /></svg>