<svg baseProfile="full" height="400" version="1.1" width="400" xmlns="http://www.w3.org/2000/svg" xmlns:ev="http://www.w3.org/2001/xml-events" xmlns:xlink="http://www.w3.org/1999/xlink"><defs /><rect fill="white" height="100%" width="100%" x="0" y="0" /><g><path d="M27.7,-11.5 L27.7,11.5 L11.5,27.7 L-11.5,27.7 L-27.7,11.5 L-27.7,-11.5 L-11.5,-27.7 L11.5,-27.7 Z" fill="none" stroke="black" transform="translate(181.82073723877764,149.96271078044077) rotate(71.01117138904725) scale(1.8270056557230747)" /><path d="M27.7,-11.5 L27.7,11.5 L11.5,27.7 L-11.5,27.7 L-27.7,11.5 L-27.7,-11.5 L-11.5,-27.7 L11.5,-27.7 Z" fill="none" stroke="black" transform="translate(181.82073723877764,149.96271078044077) rotate(71.01117138904725) scale(1.2789039590061522)" /></g><path d="M27.7,-11.5 L27.7,11.5 L11.5,27.7 L-11.5,27.7 L-27.7,11.5 L-27.7,-11.5 L-11.5,-27.7 L11.5,-27.7 Z" fill="none" stroke="black" transform="translate(139.69530281020087,229.15730288721915) rotate(294.71546900197484) scale(0.9037399541111047)" /><g><path d="M30,0 L15,-26 L-15,-26 L-30,0 L-15,26 L15,26 Z" fill="none" stroke="black" transform="translate(187.80153478673668,247.0347112157222) rotate(173.39398504307064) scale(1.131706888948695)" /><path d="M30,0 L15,-26 L-15,-26 L-30,0 L-15,26 L15,26 Z" fill="none" stroke="black" transform="translate(187.80153478673668,247.0347112157222) rotate(173.39398504307064) scale(0.7921948222640864)" /></g><path d="M30,0 L15,-26 L-15,-26 L-30,0 L-15,26 L15,26 Z" fill="none" stroke="black" transform="translate(210.74126884229645,205.31278942640847) rotate(178.01316950390543) scale(1.1019718989116722)" /><g><path d="M0,-30 L30,30 L-30,30 Z" fill="none" stroke="black" transform="translate(255.7815307022351,245.57849529829508) rotate(62.0324082826721) scale(1.2104232743109473)" /><path d="M0,-30 L30,30 L-30,30 Z" fill="none" stroke="black" transform="translate(255.7815307022351,245.57849529829508) rotate(62.0324082826721) scale(0.8472962920176631)" /></g><g><path d="M0,-30 L30,30 L-30,30 Z" fill="none" stroke="black" transform="translate(162.79369100404688,309.10619743220406) rotate(347.4326707962502) scale(1.1279536563836985)" /><path d="M0,-30 L30,30 L-30,30 Z" fill="none" stroke="black" transform="translate(162.79369100404688,309.10619743220406) rotate(347.4326707962502) scale(0.7895675594685889)" /></g><g><path d="M0,0 m-30,0 a30,30 0 1,0 60,0 a30,30 0 1,0 -60,0" fill="none" stroke="black" transform="translate(319.48240708126417,284.30677923570425) rotate(316.05485203132895) scale(0.8561709339050307)" /><path d="M0,0 m-30,0 a30,30 0 1,0 60,0 a30,30 0 1,0 -60,0" fill="none" stroke="black" transform="translate(319.48240708126417,284.30677923570425) rotate(316.05485203132895) scale(0.5993196537335215)" /><path d="M0,0 m-30,0 a30,30 0 1,0 60,0 a30,30 0 1,0 -60,0" fill="none" stroke="black" transform="translate(319.48240708126417,284.30677923570425) rotate(316.05485203132895) scale(0.3424683735620123)" /></g><path d="M0,0 m-30,0 a30,30 0 1,0 60,0 a30,30 0 1,0 -60,0" fill="none" stroke="black" transform="translate(247.8231116051826,106.41469474631067) rotate(241.14675611101234) scale(1.0547988771648367)" /><g><path d="M0,0 m-30,0 a30,30 0 1,0 60,0 a30,30 0 1,0 -60,0" fill="none" stroke="black" transform="translate(127.76970791824061,192.05759700708595) rotate(299.7159847978246) scale(1.0430609800611998)" /><path d="M0,0 m-30,0 a30,30 0 1,0 60,0 a30,30 0 1,0 -60,0" fill="none" stroke="black" transform="translate(127.76970791824061,192.05759700708595) rotate(299.7159847978246) scale(0.7301426860428398)" /><path d="M0,0 m-30,0 a30,30 0 1,0 60,0 a30,30 0 1,0 -60,0" fill="none" stroke="black" transform="translate(127.76970791824061,192.05759700708595) rotate(299.7159847978246) scale(0.41722439202448)" /></g><path d="M0,0 m-30,0 a30,30 0 1,0 60,0 a30,30 0 1,0 -60,0" fill="none" stroke="black" transform="translate(263.2385367378872,191.84018538608495) rotate(321.8203160927876) scale(0.8518222513319434)" /><path d="M0,0 m-30,0 a30,30 0 1,0 60,0 a30,30 0 1,0 -60,0" fill="none" stroke="black" transform="translate(94.61923444104764,253.55614724798437) rotate(236.53965452983985) scale(1.1802534711289516)" /><path d="M0,0 m-30,0 a30,30 0 1,0 60,0 a30,30 0 1,0 -60,0" fill="none" stroke="black" transform="translate(250.52545777729887,168.5666613944795) rotate(26.73527227685323) scale(0.839126183568131)" /><path d="M0.0,-30.0 L28.5,-9.3 L17.6,24.3 L-17.6,24.3 L-28.5,-9.3 Z" fill="none" stroke="black" transform="translate(315.18518766761434,327.2277954072) rotate(331.340260970744) scale(0.8441342193165986)" /><path d="M0.0,-30.0 L28.5,-9.3 L17.6,24.3 L-17.6,24.3 L-28.5,-9.3 Z" fill="none" stroke="black" transform="translate(143.83289554246986,101.85485308553294) rotate(77.02223731954221) scale(1.286068722366487)" /><path d="M0.0,-30.0 L28.5,-9.3 L17.6,24.3 L-17.6,24.3 L-28.5,-9.3 Z" fill="none" stroke="black" transform="translate(94.89192138609934,188.8977869407073) rotate(310.71004704235105) scale(0.9801001103012146)" /><path d="M-30,-20 h60 v40 h-60 Z" fill="none" stroke="black" transform="translate(202.68287419106264,292.259830659379) rotate(340.66264125865484) scale(1.236434974675746)" /><g><path d="M-30,-20 h60 v40 h-60 Z" fill="none" stroke="black" transform="translate(82.33515299477972,79.12127423189065) rotate(119.58384921533877) scale(1.0702336316880894)" /><path d="M-30,-20 h60 v40 h-60 Z" fill="none" stroke="black" transform="translate(82.33515299477972,79.12127423189065) rotate(119.58384921533877) scale(0.7491635421816625)" /><path d="M-30,-20 h60 v40 h-60 Z" fill="none" stroke="black" transform="translate(82.33515299477972,79.12127423189065) rotate(119.58384921533877) scale(0.4280934526752358)" /></g><g><path d="M-30,-20 h60 v40 h-60 Z" fill="none" stroke="black" transform="translate(131.5987636896793,292.4349564493266) rotate(80.20059285437158) scale(0.870867393141968)" /><path d="M-30,-20 h60 v40 h-60 Z" fill="none" stroke="black" transform="translate(131.5987636896793,292.4349564493266) rotate(80.20059285437158) scale(0.6096071751993776)" /><path d="M-30,-20 h60 v40 h-60 Z" fill="none" stroke="black" transform="translate(131.5987636896793,292.4349564493266) rotate(80.20059285437158) scale(0.3483469572567872)" /></g><g><path d="M0.0,-30.0 L8.8,-12.1 L28.5,-9.3 L14.3,4.6 L17.6,24.3 L0.0,15.0 L-17.6,24.3 L-14.3,4.6 L-28.5,-9.3 L-8.8,-12.1 Z" fill="none" stroke="black" transform="translate(110.36731625117389,95.64643539160166) rotate(75.39433587555293) scale(0.9052432333869627)" /><path d="M0.0,-30.0 L8.8,-12.1 L28.5,-9.3 L14.3,4.6 L17.6,24.3 L0.0,15.0 L-17.6,24.3 L-14.3,4.6 L-28.5,-9.3 L-8.8,-12.1 Z" fill="none" stroke="black" transform="translate(110.36731625117389,95.64643539160166) rotate(75.39433587555293) scale(0.6336702633708738)" /></g></svg>