<svg baseProfile="full" height="400" version="1.1" width="400" xmlns="http://www.w3.org/2000/svg" xmlns:ev="http://www.w3.org/2001/xml-events" xmlns:xlink="http://www.w3.org/1999/xlink"><defs /><rect fill="white" height="100%" width="100%" x="0" y="0" /><path d="M0.0,-30.0 L8.8,-12.1 L28.5,-9.3 L14.3,4.6 L17.6,24.3 L0.0,15.0 L-17.6,24.3 L-14.3,4.6 L-28.5,-9.3 L-8.8,-12.1 Z" fill="none" stroke="black" transform="translate(221.23198097938035,232.92160192739732) rotate(234.1908189219067) scale(1.2773933574199574)" /><path d="M0.0,-30.0 L8.8,-12.1 L28.5,-9.3 L14.3,4.6 L17.6,24.3 L0.0,15.0 L-17.6,24.3 L-14.3,4.6 L-28.5,-9.3 L-8.8,-12.1 Z" fill="none" stroke="black" transform="translate(131.35295279172794,273.2989838126322) rotate(343.7158091483426) scale(1.5090894850253362)" /><g><path d="M30,0 L15,-26 L-15,-26 L-30,0 L-15,26 L15,26 Z" fill="none" stroke="black" transform="translate(273.44627890171586,166.97585127888016) rotate(150.88867913441388) scale(1.239218731383142)" /><path d="M30,0 L15,-26 L-15,-26 L-30,0 L-15,26 L15,26 Z" fill="none" stroke="black" transform="translate(273.44627890171586,166.97585127888016) rotate(150.88867913441388) scale(0.8674531119681993)" /></g><g><path d="M30,0 L15,-26 L-15,-26 L-30,0 L-15,26 L15,26 Z" fill="none" stroke="black" transform="translate(275.40345573582397,292.57104662513893) rotate(220.97400322048202) scale(0.9409189724228924)" /><path d="M30,0 L15,-26 L-15,-26 L-30,0 L-15,26 L15,26 Z" fill="none" stroke="black" transform="translate(275.40345573582397,292.57104662513893) rotate(220.97400322048202) scale(0.6586432806960246)" /><path d="M30,0 L15,-26 L-15,-26 L-30,0 L-15,26 L15,26 Z" fill="none" stroke="black" transform="translate(275.40345573582397,292.57104662513893) rotate(220.97400322048202) scale(0.37636758896915695)" /></g><g><path d="M30,0 L15,-26 L-15,-26 L-30,0 L-15,26 L15,26 Z" fill="none" stroke="black" transform="translate(69.56289267046533,327.1776691263527) rotate(138.15115199223274) scale(0.9482244002539626)" /><path d="M30,0 L15,-26 L-15,-26 L-30,0 L-15,26 L15,26 Z" fill="none" stroke="black" transform="translate(69.56289267046533,327.1776691263527) rotate(138.15115199223274) scale(0.6637570801777738)" /></g><g><path d="M30,0 L15,-26 L-15,-26 L-30,0 L-15,26 L15,26 Z" fill="none" stroke="black" transform="translate(154.22754608868382,152.36692527017294) rotate(242.32206786232234) scale(1.2217515252867235)" /><path d="M30,0 L15,-26 L-15,-26 L-30,0 L-15,26 L15,26 Z" fill="none" stroke="black" transform="translate(154.22754608868382,152.36692527017294) rotate(242.32206786232234) scale(0.8552260677007064)" /><path d="M30,0 L15,-26 L-15,-26 L-30,0 L-15,26 L15,26 Z" fill="none" stroke="black" transform="translate(154.22754608868382,152.36692527017294) rotate(242.32206786232234) scale(0.4887006101146894)" /></g><g><path d="M30,0 L15,-26 L-15,-26 L-30,0 L-15,26 L15,26 Z" fill="none" stroke="black" transform="translate(290.1067920100381,231.87411065429228) rotate(80.19727747475761) scale(1.495994736830435)" /><path d="M30,0 L15,-26 L-15,-26 L-30,0 L-15,26 L15,26 Z" fill="none" stroke="black" transform="translate(290.1067920100381,231.87411065429228) rotate(80.19727747475761) scale(1.0471963157813045)" /><path d="M30,0 L15,-26 L-15,-26 L-30,0 L-15,26 L15,26 Z" fill="none" stroke="black" transform="translate(290.1067920100381,231.87411065429228) rotate(80.19727747475761) scale(0.598397894732174)" /></g><path d="M30,0 L15,-26 L-15,-26 L-30,0 L-15,26 L15,26 Z" fill="none" stroke="black" transform="translate(203.25122921165757,102.92699855228224) rotate(320.527678340528) scale(0.9890145261419716)" /><g><path d="M0,-30 L30,30 L-30,30 Z" fill="none" stroke="black" transform="translate(129.3292586658989,207.93829864395252) rotate(299.09497525044037) scale(0.9645293007222032)" /><path d="M0,-30 L30,30 L-30,30 Z" fill="none" stroke="black" transform="translate(129.3292586658989,207.93829864395252) rotate(299.09497525044037) scale(0.6751705105055422)" /></g><path d="M0,-30 L30,30 L-30,30 Z" fill="none" stroke="black" transform="translate(300.0792302962893,100.30783342036219) rotate(41.24745691299767) scale(1.132873767014287)" /><g><path d="M0,-30 L30,30 L-30,30 Z" fill="none" stroke="black" transform="translate(91.54838437118448,185.71541560498542) rotate(313.96671606429913) scale(1.1498015374803516)" /><path d="M0,-30 L30,30 L-30,30 Z" fill="none" stroke="black" transform="translate(91.54838437118448,185.71541560498542) rotate(313.96671606429913) scale(0.8048610762362461)" /><path d="M0,-30 L30,30 L-30,30 Z" fill="none" stroke="black" transform="translate(91.54838437118448,185.71541560498542) rotate(313.96671606429913) scale(0.45992061499214065)" /></g></svg>