<svg baseProfile="full" height="400" version="1.1" width="400" xmlns="http://www.w3.org/2000/svg" xmlns:ev="http://www.w3.org/2001/xml-events" xmlns:xlink="http://www.w3.org/1999/xlink"><defs /><rect fill="white" height="100%" width="100%" x="0" y="0" /><path d="M0,-30 L30,30 L-30,30 Z" fill="none" stroke="black" transform="translate(238.8129211751786,175.39463433949106) rotate(221.01434018905155) scale(0.9867485558646334)" /><g><path d="M0,0 m-30,0 a30,30 0 1,0 60,0 a30,30 0 1,0 -60,0" fill="none" stroke="black" transform="translate(204.64868323085858,248.31366057161927) rotate(9.756704408103731) scale(1.9215049642943471)" /><path d="M0,0 m-30,0 a30,30 0 1,0 60,0 a30,30 0 1,0 -60,0" fill="none" stroke="black" transform="translate(204.64868323085858,248.31366057161927) rotate(9.756704408103731) scale(1.345053475006043)" /></g><path d="M0,0 m-30,0 a30,30 0 1,0 60,0 a30,30 0 1,0 -60,0" fill="none" stroke="black" transform="translate(164.76922064762738,139.40047917602857) rotate(273.51446895163787) scale(1.324595478700139)" /><path d="M30,0 L15,-26 L-15,-26 L-30,0 L-15,26 L15,26 Z" fill="none" stroke="black" transform="translate(315.0167290041504,226.08199133698878) rotate(65.37860534250093) scale(0.8090431394474442)" /></svg>