<svg baseProfile="full" height="400" version="1.1" width="400" xmlns="http://www.w3.org/2000/svg" xmlns:ev="http://www.w3.org/2001/xml-events" xmlns:xlink="http://www.w3.org/1999/xlink"><defs /><rect fill="white" height="100%" width="100%" x="0" y="0" /><path d="M30,0 L15,-26 L-15,-26 L-30,0 L-15,26 L15,26 Z" fill="none" stroke="black" transform="translate(190.63154335142494,198.33130603075142) rotate(118.96625801207178) scale(1.9688361247260888)" /><path d="M30,0 L15,-26 L-15,-26 L-30,0 L-15,26 L15,26 Z" fill="none" stroke="black" transform="translate(128.60447411068614,64.06402745248455) rotate(76.55975336663363) scale(0.859374991152987)" /><path d="M30,0 L15,-26 L-15,-26 L-30,0 L-15,26 L15,26 Z" fill="none" stroke="black" transform="translate(67.82243926100944,150.08922154745892) rotate(248.65516363095807) scale(0.8534585954497034)" /><g><path d="M27.7,-11.5 L27.7,11.5 L11.5,27.7 L-11.5,27.7 L-27.7,11.5 L-27.7,-11.5 L-11.5,-27.7 L11.5,-27.7 Z" fill="none" stroke="black" transform="translate(335.8562804755759,191.92062947476975) rotate(257.25138594722114) scale(0.8495720905770312)" /><path d="M27.7,-11.5 L27.7,11.5 L11.5,27.7 L-11.5,27.7 L-27.7,11.5 L-27.7,-11.5 L-11.5,-27.7 L11.5,-27.7 Z" fill="none" stroke="black" transform="translate(335.8562804755759,191.92062947476975) rotate(257.25138594722114) scale(0.5947004634039218)" /></g><path d="M27.7,-11.5 L27.7,11.5 L11.5,27.7 L-11.5,27.7 L-27.7,11.5 L-27.7,-11.5 L-11.5,-27.7 L11.5,-27.7 Z" fill="none" stroke="black" transform="translate(121.08925003056385,327.01021951676927) rotate(6.364996588768794) scale(0.9095489404441467)" /><path d="M27.7,-11.5 L27.7,11.5 L11.5,27.7 L-11.5,27.7 L-27.7,11.5 L-27.7,-11.5 L-11.5,-27.7 L11.5,-27.7 Z" fill="none" stroke="black" transform="translate(265.4871450089511,71.25926227925734) rotate(333.0436884053005) scale(0.9361261878941476)" /><path d="M27.7,-11.5 L27.7,11.5 L11.5,27.7 L-11.5,27.7 L-27.7,11.5 L-27.7,-11.5 L-11.5,-27.7 L11.5,-27.7 Z" fill="none" stroke="black" transform="translate(308.15085662873275,287.3449211255229) rotate(134.91994390675438) scale(1.0491966894276523)" /><g><path d="M0,-30 L30,30 L-30,30 Z" fill="none" stroke="black" transform="translate(217.24282505921718,321.4316665607527) rotate(164.22550602033414) scale(1.020209184791896)" /><path d="M0,-30 L30,30 L-30,30 Z" fill="none" stroke="black" transform="translate(217.24282505921718,321.4316665607527) rotate(164.22550602033414) scale(0.7141464293543272)" /></g><path d="M0,-30 L30,30 L-30,30 Z" fill="none" stroke="black" transform="translate(63.192765575823444,264.6397115466413) rotate(26.516356294622735) scale(0.8500986990709781)" /></svg>