<svg baseProfile="full" height="400" version="1.1" width="400" xmlns="http://www.w3.org/2000/svg" xmlns:ev="http://www.w3.org/2001/xml-events" xmlns:xlink="http://www.w3.org/1999/xlink"><defs /><rect fill="white" height="100%" width="100%" x="0" y="0" /><g><path d="M0,0 m-30,0 a30,30 0 1,0 60,0 a30,30 0 1,0 -60,0" fill="none" stroke="black" transform="translate(250.0940199859835,228.84623884418295) rotate(343.03146080323637) scale(1.6685034959462928)" /><path d="M0,0 m-30,0 a30,30 0 1,0 60,0 a30,30 0 1,0 -60,0" fill="none" stroke="black" transform="translate(250.0940199859835,228.84623884418295) rotate(343.03146080323637) scale(1.1679524471624048)" /></g><g><path d="M0,0 m-30,0 a30,30 0 1,0 60,0 a30,30 0 1,0 -60,0" fill="none" stroke="black" transform="translate(244.85769823856472,103.14661161219729) rotate(230.1226242397659) scale(1.2149854411226844)" /><path d="M0,0 m-30,0 a30,30 0 1,0 60,0 a30,30 0 1,0 -60,0" fill="none" stroke="black" transform="translate(244.85769823856472,103.14661161219729) rotate(230.1226242397659) scale(0.850489808785879)" /></g><g><path d="M0,0 m-30,0 a30,30 0 1,0 60,0 a30,30 0 1,0 -60,0" fill="none" stroke="black" transform="translate(128.74530966766986,143.58819702929432) rotate(185.74333806192152) scale(1.4516966748266311)" /><path d="M0,0 m-30,0 a30,30 0 1,0 60,0 a30,30 0 1,0 -60,0" fill="none" stroke="black" transform="translate(128.74530966766986,143.58819702929432) rotate(185.74333806192152) scale(1.0161876723786418)" /><path d="M0,0 m-30,0 a30,30 0 1,0 60,0 a30,30 0 1,0 -60,0" fill="none" stroke="black" transform="translate(128.74530966766986,143.58819702929432) rotate(185.74333806192152) scale(0.5806786699306524)" /></g><g><path d="M0.0,-30.0 L8.8,-12.1 L28.5,-9.3 L14.3,4.6 L17.6,24.3 L0.0,15.0 L-17.6,24.3 L-14.3,4.6 L-28.5,-9.3 L-8.8,-12.1 Z" fill="none" stroke="black" transform="translate(260.92949131425786,289.3991294898141) rotate(124.68850213067986) scale(0.9669992018106266)" /><path d="M0.0,-30.0 L8.8,-12.1 L28.5,-9.3 L14.3,4.6 L17.6,24.3 L0.0,15.0 L-17.6,24.3 L-14.3,4.6 L-28.5,-9.3 L-8.8,-12.1 Z" fill="none" stroke="black" transform="translate(260.92949131425786,289.3991294898141) rotate(124.68850213067986) scale(0.6768994412674386)" /></g><path d="M-30,-20 h60 v40 h-60 Z" fill="none" stroke="black" transform="translate(176.42664809767882,220.33357334770804) rotate(159.63813083554444) scale(0.8157973950996064)" /><g><path d="M-30,-20 h60 v40 h-60 Z" fill="none" stroke="black" transform="translate(282.5422663553954,131.46357488040775) rotate(350.7918402370735) scale(0.8715686010388916)" /><path d="M-30,-20 h60 v40 h-60 Z" fill="none" stroke="black" transform="translate(282.5422663553954,131.46357488040775) rotate(350.7918402370735) scale(0.6100980207272241)" /></g></svg>