<svg baseProfile="full" height="400" version="1.1" width="400" xmlns="http://www.w3.org/2000/svg" xmlns:ev="http://www.w3.org/2001/xml-events" xmlns:xlink="http://www.w3.org/1999/xlink"><defs /><rect fill="white" height="100%" width="100%" x="0" y="0" /><g><path d="M0,0 m-30,0 a30,30 0 1,0 60,0 a30,30 0 1,0 -60,0" fill="none" stroke="black" transform="translate(227.0993542763635,217.79819822980528) rotate(228.80518700915275) scale(1.7822593862500706)" /><path d="M0,0 m-30,0 a30,30 0 1,0 60,0 a30,30 0 1,0 -60,0" fill="none" stroke="black" transform="translate(227.0993542763635,217.79819822980528) rotate(228.80518700915275) scale(1.2475815703750495)" /></g><path d="M0,0 m-30,0 a30,30 0 1,0 60,0 a30,30 0 1,0 -60,0" fill="none" stroke="black" transform="translate(181.58630965963678,290.156488380499) rotate(186.7619865439051) scale(1.0042270640897897)" /><g><path d="M0,0 m-30,0 a30,30 0 1,0 60,0 a30,30 0 1,0 -60,0" fill="none" stroke="black" transform="translate(77.34783055123627,293.72113211240776) rotate(176.60539481450718) scale(0.9882620563856923)" /><path d="M0,0 m-30,0 a30,30 0 1,0 60,0 a30,30 0 1,0 -60,0" fill="none" stroke="black" transform="translate(77.34783055123627,293.72113211240776) rotate(176.60539481450718) scale(0.6917834394699846)" /><path d="M0,0 m-30,0 a30,30 0 1,0 60,0 a30,30 0 1,0 -60,0" fill="none" stroke="black" transform="translate(77.34783055123627,293.72113211240776) rotate(176.60539481450718) scale(0.39530482255427696)" /></g><g><path d="M0,0 m-30,0 a30,30 0 1,0 60,0 a30,30 0 1,0 -60,0" fill="none" stroke="black" transform="translate(146.55301869519258,146.26919042829184) rotate(60.78620374973798) scale(1.4996588559305735)" /><path d="M0,0 m-30,0 a30,30 0 1,0 60,0 a30,30 0 1,0 -60,0" fill="none" stroke="black" transform="translate(146.55301869519258,146.26919042829184) rotate(60.78620374973798) scale(1.0497611991514013)" /></g><path d="M0.0,-30.0 L8.8,-12.1 L28.5,-9.3 L14.3,4.6 L17.6,24.3 L0.0,15.0 L-17.6,24.3 L-14.3,4.6 L-28.5,-9.3 L-8.8,-12.1 Z" fill="none" stroke="black" transform="translate(325.9612490011335,230.21599558988524) rotate(201.7091859713459) scale(0.9752475676093002)" /><path d="M0.0,-30.0 L8.8,-12.1 L28.5,-9.3 L14.3,4.6 L17.6,24.3 L0.0,15.0 L-17.6,24.3 L-14.3,4.6 L-28.5,-9.3 L-8.8,-12.1 Z" fill="none" stroke="black" transform="translate(77.40614257208401,240.16057856779372) rotate(285.02258200180876) scale(0.9113250268839063)" /><path d="M0.0,-30.0 L8.8,-12.1 L28.5,-9.3 L14.3,4.6 L17.6,24.3 L0.0,15.0 L-17.6,24.3 L-14.3,4.6 L-28.5,-9.3 L-8.8,-12.1 Z" fill="none" stroke="black" transform="translate(142.74228621726357,251.83530114863112) rotate(48.35261366108361) scale(1.1838002689099627)" /><path d="M0.0,-30.0 L8.8,-12.1 L28.5,-9.3 L14.3,4.6 L17.6,24.3 L0.0,15.0 L-17.6,24.3 L-14.3,4.6 L-28.5,-9.3 L-8.8,-12.1 Z" fill="none" stroke="black" transform="translate(296.34551432391333,116.6630571203917) rotate(234.5172534148071) scale(1.2243888439627582)" /><path d="M0.0,-30.0 L8.8,-12.1 L28.5,-9.3 L14.3,4.6 L17.6,24.3 L0.0,15.0 L-17.6,24.3 L-14.3,4.6 L-28.5,-9.3 L-8.8,-12.1 Z" fill="none" stroke="black" transform="translate(226.61920162470653,108.63434961974613) rotate(56.62002570648821) scale(1.2787299989662113)" /><path d="M0.0,-30.0 L8.8,-12.1 L28.5,-9.3 L14.3,4.6 L17.6,24.3 L0.0,15.0 L-17.6,24.3 L-14.3,4.6 L-28.5,-9.3 L-8.8,-12.1 Z" fill="none" stroke="black" transform="translate(254.2994575915448,71.73581936121299) rotate(38.86611971155289) scale(0.9106386246384912)" /><path d="M0.0,-30.0 L8.8,-12.1 L28.5,-9.3 L14.3,4.6 L17.6,24.3 L0.0,15.0 L-17.6,24.3 L-14.3,4.6 L-28.5,-9.3 L-8.8,-12.1 Z" fill="none" stroke="black" transform="translate(137.246876026049,306.6329738003593) rotate(127.15637041384693) scale(0.9334780495885594)" /><path d="M0.0,-30.0 L8.8,-12.1 L28.5,-9.3 L14.3,4.6 L17.6,24.3 L0.0,15.0 L-17.6,24.3 L-14.3,4.6 L-28.5,-9.3 L-8.8,-12.1 Z" fill="none" stroke="black" transform="translate(295.6580076164584,182.19749528940088) rotate(60.685992621744674) scale(0.9044349738371577)" /><path d="M0.0,-30.0 L8.8,-12.1 L28.5,-9.3 L14.3,4.6 L17.6,24.3 L0.0,15.0 L-17.6,24.3 L-14.3,4.6 L-28.5,-9.3 L-8.8,-12.1 Z" fill="none" stroke="black" transform="translate(80.32471339122667,142.4657140304871) rotate(117.70430062319834) scale(0.8000895073611778)" /><path d="M0,-30 L30,30 L-30,30 Z" fill="none" stroke="black" transform="translate(310.03570563348404,259.75473892623774) rotate(13.771272765944719) scale(0.8775829631846982)" /><g><path d="M0,-30 L30,30 L-30,30 Z" fill="none" stroke="black" transform="translate(298.9477139222874,72.14122378345154) rotate(161.42666551653068) scale(0.8464268960057586)" /><path d="M0,-30 L30,30 L-30,30 Z" fill="none" stroke="black" transform="translate(298.9477139222874,72.14122378345154) rotate(161.42666551653068) scale(0.592498827204031)" /><path d="M0,-30 L30,30 L-30,30 Z" fill="none" stroke="black" transform="translate(298.9477139222874,72.14122378345154) rotate(161.42666551653068) scale(0.33857075840230344)" /></g></svg>