<svg baseProfile="full" height="400" version="1.1" width="400" xmlns="http://www.w3.org/2000/svg" xmlns:ev="http://www.w3.org/2001/xml-events" xmlns:xlink="http://www.w3.org/1999/xlink"><defs /><rect fill="white" height="100%" width="100%" x="0" y="0" /><g><path d="M0.0,-30.0 L8.8,-12.1 L28.5,-9.3 L14.3,4.6 L17.6,24.3 L0.0,15.0 L-17.6,24.3 L-14.3,4.6 L-28.5,-9.3 L-8.8,-12.1 Z" fill="none" stroke="black" transform="translate(160.55437099496731,269.46020479719425) rotate(30.40705401125287) scale(1.6375549009076842)" /><path d="M0.0,-30.0 L8.8,-12.1 L28.5,-9.3 L14.3,4.6 L17.6,24.3 L0.0,15.0 L-17.6,24.3 L-14.3,4.6 L-28.5,-9.3 L-8.8,-12.1 Z" fill="none" stroke="black" transform="translate(160.55437099496731,269.46020479719425) rotate(30.40705401125287) scale(1.1462884306353789)" /><path d="M0.0,-30.0 L8.8,-12.1 L28.5,-9.3 L14.3,4.6 L17.6,24.3 L0.0,15.0 L-17.6,24.3 L-14.3,4.6 L-28.5,-9.3 L-8.8,-12.1 Z" fill="none" stroke="black" transform="translate(160.55437099496731,269.46020479719425) rotate(30.40705401125287) scale(0.6550219603630737)" /></g><path d="M0.0,-30.0 L8.8,-12.1 L28.5,-9.3 L14.3,4.6 L17.6,24.3 L0.0,15.0 L-17.6,24.3 L-14.3,4.6 L-28.5,-9.3 L-8.8,-12.1 Z" fill="none" stroke="black" transform="translate(127.44465791783888,111.19208510474385) rotate(28.495333262769208) scale(1.3796852118032703)" /><path d="M0.0,-30.0 L8.8,-12.1 L28.5,-9.3 L14.3,4.6 L17.6,24.3 L0.0,15.0 L-17.6,24.3 L-14.3,4.6 L-28.5,-9.3 L-8.8,-12.1 Z" fill="none" stroke="black" transform="translate(268.3890405883107,186.0335645677348) rotate(287.4437700811876) scale(1.1329701858101293)" /><g><path d="M0.0,-30.0 L28.5,-9.3 L17.6,24.3 L-17.6,24.3 L-28.5,-9.3 Z" fill="none" stroke="black" transform="translate(241.5155615311507,116.52665808430994) rotate(157.987887761633) scale(1.4784253917913797)" /><path d="M0.0,-30.0 L28.5,-9.3 L17.6,24.3 L-17.6,24.3 L-28.5,-9.3 Z" fill="none" stroke="black" transform="translate(241.5155615311507,116.52665808430994) rotate(157.987887761633) scale(1.0348977742539658)" /><path d="M0.0,-30.0 L28.5,-9.3 L17.6,24.3 L-17.6,24.3 L-28.5,-9.3 Z" fill="none" stroke="black" transform="translate(241.5155615311507,116.52665808430994) rotate(157.987887761633) scale(0.5913701567165519)" /></g><path d="M0.0,-30.0 L28.5,-9.3 L17.6,24.3 L-17.6,24.3 L-28.5,-9.3 Z" fill="none" stroke="black" transform="translate(182.0644970272249,200.35660926403335) rotate(65.12465793673196) scale(0.9687505697430159)" /><path d="M0.0,-30.0 L28.5,-9.3 L17.6,24.3 L-17.6,24.3 L-28.5,-9.3 Z" fill="none" stroke="black" transform="translate(253.71995609169164,280.58799415057746) rotate(4.140439999261569) scale(1.2867113672125488)" /><path d="M0,0 m-30,0 a30,30 0 1,0 60,0 a30,30 0 1,0 -60,0" fill="none" stroke="black" transform="translate(318.3183498571796,92.200263333708) rotate(194.07912210189195) scale(0.9127513422115698)" /><g><path d="M0,0 m-30,0 a30,30 0 1,0 60,0 a30,30 0 1,0 -60,0" fill="none" stroke="black" transform="translate(87.44695379654897,254.73308280323724) rotate(90.97746659929565) scale(0.8706485292791188)" /><path d="M0,0 m-30,0 a30,30 0 1,0 60,0 a30,30 0 1,0 -60,0" fill="none" stroke="black" transform="translate(87.44695379654897,254.73308280323724) rotate(90.97746659929565) scale(0.6094539704953832)" /><path d="M0,0 m-30,0 a30,30 0 1,0 60,0 a30,30 0 1,0 -60,0" fill="none" stroke="black" transform="translate(87.44695379654897,254.73308280323724) rotate(90.97746659929565) scale(0.34825941171164754)" /></g><path d="M-30,-20 h60 v40 h-60 Z" fill="none" stroke="black" transform="translate(68.82006697917174,328.9837781553656) rotate(62.048299177943434) scale(0.9392319844484567)" /><path d="M0,-30 L30,30 L-30,30 Z" fill="none" stroke="black" transform="translate(70.97337206747513,83.32989093371644) rotate(49.77198403965624) scale(0.9763792187409889)" /><path d="M0,-30 L30,30 L-30,30 Z" fill="none" stroke="black" transform="translate(78.83846825478813,179.01682585620833) rotate(7.8296765569175) scale(0.9276482536582149)" /><g><path d="M30,0 L15,-26 L-15,-26 L-30,0 L-15,26 L15,26 Z" fill="none" stroke="black" transform="translate(338.03595763756897,215.1434187810893) rotate(98.66969298055717) scale(0.8595295611191971)" /><path d="M30,0 L15,-26 L-15,-26 L-30,0 L-15,26 L15,26 Z" fill="none" stroke="black" transform="translate(338.03595763756897,215.1434187810893) rotate(98.66969298055717) scale(0.6016706927834379)" /></g><g><path d="M27.7,-11.5 L27.7,11.5 L11.5,27.7 L-11.5,27.7 L-27.7,11.5 L-27.7,-11.5 L-11.5,-27.7 L11.5,-27.7 Z" fill="none" stroke="black" transform="translate(325.64493624637424,274.7088110347307) rotate(176.49374877547064) scale(1.017393342518791)" /><path d="M27.7,-11.5 L27.7,11.5 L11.5,27.7 L-11.5,27.7 L-27.7,11.5 L-27.7,-11.5 L-11.5,-27.7 L11.5,-27.7 Z" fill="none" stroke="black" transform="translate(325.64493624637424,274.7088110347307) rotate(176.49374877547064) scale(0.7121753397631537)" /><path d="M27.7,-11.5 L27.7,11.5 L11.5,27.7 L-11.5,27.7 L-27.7,11.5 L-27.7,-11.5 L-11.5,-27.7 L11.5,-27.7 Z" fill="none" stroke="black" transform="translate(325.64493624637424,274.7088110347307) rotate(176.49374877547064) scale(0.40695733700751646)" /></g><path d="M27.7,-11.5 L27.7,11.5 L11.5,27.7 L-11.5,27.7 L-27.7,11.5 L-27.7,-11.5 L-11.5,-27.7 L11.5,-27.7 Z" fill="none" stroke="black" transform="translate(170.83478099943903,150.86331395181975) rotate(285.2744264123669) scale(0.9363670265308253)" /></svg>