<svg baseProfile="full" height="400" version="1.1" width="400" xmlns="http://www.w3.org/2000/svg" xmlns:ev="http://www.w3.org/2001/xml-events" xmlns:xlink="http://www.w3.org/1999/xlink"><defs /><rect fill="white" height="100%" width="100%" x="0" y="0" /><g><path d="M0,0 m-30,0 a30,30 0 1,0 60,0 a30,30 0 1,0 -60,0" fill="none" stroke="black" transform="translate(220.64715157882438,139.40853610542425) rotate(133.2011312464013) scale(1.4357789129444076)" /><path d="M0,0 m-30,0 a30,30 0 1,0 60,0 a30,30 0 1,0 -60,0" fill="none" stroke="black" transform="translate(220.64715157882438,139.40853610542425) rotate(133.2011312464013) scale(1.0050452390610853)" /></g><path d="M0,0 m-30,0 a30,30 0 1,0 60,0 a30,30 0 1,0 -60,0" fill="none" stroke="black" transform="translate(309.15076409734655,114.19903405703843) rotate(70.42210391292099) scale(0.9608942494187745)" /><g><path d="M0,0 m-30,0 a30,30 0 1,0 60,0 a30,30 0 1,0 -60,0" fill="none" stroke="black" transform="translate(135.48407760090322,291.5635124665751) rotate(133.05195549279134) scale(0.9462193754106363)" /><path d="M0,0 m-30,0 a30,30 0 1,0 60,0 a30,30 0 1,0 -60,0" fill="none" stroke="black" transform="translate(135.48407760090322,291.5635124665751) rotate(133.05195549279134) scale(0.6623535627874454)" /><path d="M0,0 m-30,0 a30,30 0 1,0 60,0 a30,30 0 1,0 -60,0" fill="none" stroke="black" transform="translate(135.48407760090322,291.5635124665751) rotate(133.05195549279134) scale(0.3784877501642545)" /></g><g><path d="M30,0 L15,-26 L-15,-26 L-30,0 L-15,26 L15,26 Z" fill="none" stroke="black" transform="translate(78.95662905306241,201.41389840745683) rotate(225.1573033928076) scale(1.0384737237378863)" /><path d="M30,0 L15,-26 L-15,-26 L-30,0 L-15,26 L15,26 Z" fill="none" stroke="black" transform="translate(78.95662905306241,201.41389840745683) rotate(225.1573033928076) scale(0.7269316066165203)" /></g><g><path d="M27.7,-11.5 L27.7,11.5 L11.5,27.7 L-11.5,27.7 L-27.7,11.5 L-27.7,-11.5 L-11.5,-27.7 L11.5,-27.7 Z" fill="none" stroke="black" transform="translate(171.39749632189782,223.37217754268025) rotate(302.59803592389636) scale(0.8691079323848633)" /><path d="M27.7,-11.5 L27.7,11.5 L11.5,27.7 L-11.5,27.7 L-27.7,11.5 L-27.7,-11.5 L-11.5,-27.7 L11.5,-27.7 Z" fill="none" stroke="black" transform="translate(171.39749632189782,223.37217754268025) rotate(302.59803592389636) scale(0.6083755526694042)" /><path d="M27.7,-11.5 L27.7,11.5 L11.5,27.7 L-11.5,27.7 L-27.7,11.5 L-27.7,-11.5 L-11.5,-27.7 L11.5,-27.7 Z" fill="none" stroke="black" transform="translate(171.39749632189782,223.37217754268025) rotate(302.59803592389636) scale(0.3476431729539453)" /></g><path d="M27.7,-11.5 L27.7,11.5 L11.5,27.7 L-11.5,27.7 L-27.7,11.5 L-27.7,-11.5 L-11.5,-27.7 L11.5,-27.7 Z" fill="none" stroke="black" transform="translate(253.51797071722717,265.9462859909016) rotate(60.21711991130478) scale(1.5231071215438194)" /><g><path d="M27.7,-11.5 L27.7,11.5 L11.5,27.7 L-11.5,27.7 L-27.7,11.5 L-27.7,-11.5 L-11.5,-27.7 L11.5,-27.7 Z" fill="none" stroke="black" transform="translate(139.77607719946647,111.85200121069913) rotate(7.730774355359515) scale(1.095820550104633)" /><path d="M27.7,-11.5 L27.7,11.5 L11.5,27.7 L-11.5,27.7 L-27.7,11.5 L-27.7,-11.5 L-11.5,-27.7 L11.5,-27.7 Z" fill="none" stroke="black" transform="translate(139.77607719946647,111.85200121069913) rotate(7.730774355359515) scale(0.767074385073243)" /></g></svg>