<svg baseProfile="full" height="400" version="1.1" width="400" xmlns="http://www.w3.org/2000/svg" xmlns:ev="http://www.w3.org/2001/xml-events" xmlns:xlink="http://www.w3.org/1999/xlink"><defs /><rect fill="white" height="100%" width="100%" x="0" y="0" /><g><path d="M0,0 m-30,0 a30,30 0 1,0 60,0 a30,30 0 1,0 -60,0" fill="none" stroke="black" transform="translate(286.35509757751794,199.87801279285088) rotate(171.53196738825682) scale(1.1189598733107722)" /><path d="M0,0 m-30,0 a30,30 0 1,0 60,0 a30,30 0 1,0 -60,0" fill="none" stroke="black" transform="translate(286.35509757751794,199.87801279285088) rotate(171.53196738825682) scale(0.7832719113175405)" /><path d="M0,0 m-30,0 a30,30 0 1,0 60,0 a30,30 0 1,0 -60,0" fill="none" stroke="black" transform="translate(286.35509757751794,199.87801279285088) rotate(171.53196738825682) scale(0.4475839493243089)" /></g><path d="M0,0 m-30,0 a30,30 0 1,0 60,0 a30,30 0 1,0 -60,0" fill="none" stroke="black" transform="translate(143.52514186420774,241.29910928220414) rotate(34.61026670153813) scale(1.7915547031773278)" /><path d="M0,0 m-30,0 a30,30 0 1,0 60,0 a30,30 0 1,0 -60,0" fill="none" stroke="black" transform="translate(118.37906329130044,144.9290862856325) rotate(334.5165508419014) scale(1.4640454942044934)" /><path d="M0,0 m-30,0 a30,30 0 1,0 60,0 a30,30 0 1,0 -60,0" fill="none" stroke="black" transform="translate(100.93156947842773,315.25437451713117) rotate(179.7527382659506) scale(1.1134488158153477)" /><g><path d="M0,0 m-30,0 a30,30 0 1,0 60,0 a30,30 0 1,0 -60,0" fill="none" stroke="black" transform="translate(244.88495147812293,262.9489672359782) rotate(157.8692357051614) scale(1.0187228982417884)" /><path d="M0,0 m-30,0 a30,30 0 1,0 60,0 a30,30 0 1,0 -60,0" fill="none" stroke="black" transform="translate(244.88495147812293,262.9489672359782) rotate(157.8692357051614) scale(0.7131060287692519)" /><path d="M0,0 m-30,0 a30,30 0 1,0 60,0 a30,30 0 1,0 -60,0" fill="none" stroke="black" transform="translate(244.88495147812293,262.9489672359782) rotate(157.8692357051614) scale(0.40748915929671536)" /></g><path d="M0,0 m-30,0 a30,30 0 1,0 60,0 a30,30 0 1,0 -60,0" fill="none" stroke="black" transform="translate(208.31637899598337,152.2606135092619) rotate(345.2285197082493) scale(0.82207374690042)" /><g><path d="M27.7,-11.5 L27.7,11.5 L11.5,27.7 L-11.5,27.7 L-27.7,11.5 L-27.7,-11.5 L-11.5,-27.7 L11.5,-27.7 Z" fill="none" stroke="black" transform="translate(236.2504158796957,181.2431068633623) rotate(112.7983509782194) scale(0.9474350552124041)" /><path d="M27.7,-11.5 L27.7,11.5 L11.5,27.7 L-11.5,27.7 L-27.7,11.5 L-27.7,-11.5 L-11.5,-27.7 L11.5,-27.7 Z" fill="none" stroke="black" transform="translate(236.2504158796957,181.2431068633623) rotate(112.7983509782194) scale(0.6632045386486829)" /></g><path d="M27.7,-11.5 L27.7,11.5 L11.5,27.7 L-11.5,27.7 L-27.7,11.5 L-27.7,-11.5 L-11.5,-27.7 L11.5,-27.7 Z" fill="none" stroke="black" transform="translate(268.5183317502742,127.03869779035911) rotate(71.71287238105037) scale(1.141922836279223)" /><g><path d="M27.7,-11.5 L27.7,11.5 L11.5,27.7 L-11.5,27.7 L-27.7,11.5 L-27.7,-11.5 L-11.5,-27.7 L11.5,-27.7 Z" fill="none" stroke="black" transform="translate(193.5776259182576,320.75023000555984) rotate(44.87252364728078) scale(0.9283908846732414)" /><path d="M27.7,-11.5 L27.7,11.5 L11.5,27.7 L-11.5,27.7 L-27.7,11.5 L-27.7,-11.5 L-11.5,-27.7 L11.5,-27.7 Z" fill="none" stroke="black" transform="translate(193.5776259182576,320.75023000555984) rotate(44.87252364728078) scale(0.649873619271269)" /></g><g><path d="M27.7,-11.5 L27.7,11.5 L11.5,27.7 L-11.5,27.7 L-27.7,11.5 L-27.7,-11.5 L-11.5,-27.7 L11.5,-27.7 Z" fill="none" stroke="black" transform="translate(220.78481482758872,116.4465550815051) rotate(38.85992186066194) scale(0.8971097696470227)" /><path d="M27.7,-11.5 L27.7,11.5 L11.5,27.7 L-11.5,27.7 L-27.7,11.5 L-27.7,-11.5 L-11.5,-27.7 L11.5,-27.7 Z" fill="none" stroke="black" transform="translate(220.78481482758872,116.4465550815051) rotate(38.85992186066194) scale(0.6279768387529159)" /><path d="M27.7,-11.5 L27.7,11.5 L11.5,27.7 L-11.5,27.7 L-27.7,11.5 L-27.7,-11.5 L-11.5,-27.7 L11.5,-27.7 Z" fill="none" stroke="black" transform="translate(220.78481482758872,116.4465550815051) rotate(38.85992186066194) scale(0.3588439078588091)" /></g><path d="M27.7,-11.5 L27.7,11.5 L11.5,27.7 L-11.5,27.7 L-27.7,11.5 L-27.7,-11.5 L-11.5,-27.7 L11.5,-27.7 Z" fill="none" stroke="black" transform="translate(149.22218328339244,85.30562815348307) rotate(5.183111785814907) scale(0.9712663198193616)" /><path d="M27.7,-11.5 L27.7,11.5 L11.5,27.7 L-11.5,27.7 L-27.7,11.5 L-27.7,-11.5 L-11.5,-27.7 L11.5,-27.7 Z" fill="none" stroke="black" transform="translate(326.30200966916925,327.48380982334953) rotate(322.12422572793366) scale(0.9239445324951466)" /><path d="M0.0,-30.0 L8.8,-12.1 L28.5,-9.3 L14.3,4.6 L17.6,24.3 L0.0,15.0 L-17.6,24.3 L-14.3,4.6 L-28.5,-9.3 L-8.8,-12.1 Z" fill="none" stroke="black" transform="translate(286.1898641830369,254.2066188300514) rotate(99.03708851175894) scale(0.945976006135646)" /><g><path d="M0.0,-30.0 L8.8,-12.1 L28.5,-9.3 L14.3,4.6 L17.6,24.3 L0.0,15.0 L-17.6,24.3 L-14.3,4.6 L-28.5,-9.3 L-8.8,-12.1 Z" fill="none" stroke="black" transform="translate(232.45089297568617,70.84069175863533) rotate(81.52319150733297) scale(0.8531695440933781)" /><path d="M0.0,-30.0 L8.8,-12.1 L28.5,-9.3 L14.3,4.6 L17.6,24.3 L0.0,15.0 L-17.6,24.3 L-14.3,4.6 L-28.5,-9.3 L-8.8,-12.1 Z" fill="none" stroke="black" transform="translate(232.45089297568617,70.84069175863533) rotate(81.52319150733297) scale(0.5972186808653647)" /></g><path d="M0,-30 L30,30 L-30,30 Z" fill="none" stroke="black" transform="translate(272.8749514983511,306.9107724060535) rotate(295.50591463186163) scale(0.96995744539697)" /><path d="M0,-30 L30,30 L-30,30 Z" fill="none" stroke="black" transform="translate(200.29326229622453,283.9849788872887) rotate(228.88884739872952) scale(0.9700780809367974)" /><path d="M0,-30 L30,30 L-30,30 Z" fill="none" stroke="black" transform="translate(185.40013596704352,154.5918002519362) rotate(255.40007921216755) scale(0.9130286232202305)" /><path d="M0,-30 L30,30 L-30,30 Z" fill="none" stroke="black" transform="translate(326.2094835103792,246.4676242301161) rotate(232.2264998444334) scale(0.835183158809583)" /><path d="M0,-30 L30,30 L-30,30 Z" fill="none" stroke="black" transform="translate(232.1793427017813,311.4568721058864) rotate(60.255742708966466) scale(0.8288670970329635)" /><g><path d="M30,0 L15,-26 L-15,-26 L-30,0 L-15,26 L15,26 Z" fill="none" stroke="black" transform="translate(309.5612276112217,86.32296365373065) rotate(195.3366299013123) scale(1.005964164416086)" /><path d="M30,0 L15,-26 L-15,-26 L-30,0 L-15,26 L15,26 Z" fill="none" stroke="black" transform="translate(309.5612276112217,86.32296365373065) rotate(195.3366299013123) scale(0.7041749150912601)" /><path d="M30,0 L15,-26 L-15,-26 L-30,0 L-15,26 L15,26 Z" fill="none" stroke="black" transform="translate(309.5612276112217,86.32296365373065) rotate(195.3366299013123) scale(0.4023856657664344)" /></g><path d="M0.0,-30.0 L28.5,-9.3 L17.6,24.3 L-17.6,24.3 L-28.5,-9.3 Z" fill="none" stroke="black" transform="translate(77.51457451685918,176.58359506213804) rotate(233.5489477465681) scale(1.027550491793228)" /><path d="M0.0,-30.0 L28.5,-9.3 L17.6,24.3 L-17.6,24.3 L-28.5,-9.3 Z" fill="none" stroke="black" transform="translate(80.50078373519499,101.51237780853074) rotate(267.9499675680602) scale(1.0017759003614926)" /><g><path d="M-30,-20 h60 v40 h-60 Z" fill="none" stroke="black" transform="translate(200.6195807116128,208.08494827940615) rotate(27.62491012629932) scale(1.0481826665614125)" /><path d="M-30,-20 h60 v40 h-60 Z" fill="none" stroke="black" transform="translate(200.6195807116128,208.08494827940615) rotate(27.62491012629932) scale(0.7337278665929887)" /><path d="M-30,-20 h60 v40 h-60 Z" fill="none" stroke="black" transform="translate(200.6195807116128,208.08494827940615) rotate(27.62491012629932) scale(0.419273066624565)" /></g><path d="M-30,-20 h60 v40 h-60 Z" fill="none" stroke="black" transform="translate(319.9332767620921,146.27708269636622) rotate(48.69600610187332) scale(0.9358173918368968)" /><path d="M-30,-20 h60 v40 h-60 Z" fill="none" stroke="black" transform="translate(340.5309161371026,287.88169568180416) rotate(37.3441216380946) scale(0.8130099584481993)" /></svg>