<svg baseProfile="full" height="400" version="1.1" width="400" xmlns="http://www.w3.org/2000/svg" xmlns:ev="http://www.w3.org/2001/xml-events" xmlns:xlink="http://www.w3.org/1999/xlink"><defs /><rect fill="white" height="100%" width="100%" x="0" y="0" /><g><path d="M0,-30 L30,30 L-30,30 Z" fill="none" stroke="black" transform="translate(239.70050356782446,267.34062698213194) rotate(221.85842344649194) scale(1.0622157524564502)" /><path d="M0,-30 L30,30 L-30,30 Z" fill="none" stroke="black" transform="translate(239.70050356782446,267.34062698213194) rotate(221.85842344649194) scale(0.7435510267195151)" /></g><g><path d="M30,0 L15,-26 L-15,-26 L-30,0 L-15,26 L15,26 Z" fill="none" stroke="black" transform="translate(321.1874600912713,203.83570169717592) rotate(262.9408874685871) scale(0.831174069270177)" /><path d="M30,0 L15,-26 L-15,-26 L-30,0 L-15,26 L15,26 Z" fill="none" stroke="black" transform="translate(321.1874600912713,203.83570169717592) rotate(262.9408874685871) scale(0.5818218484891239)" /><path d="M30,0 L15,-26 L-15,-26 L-30,0 L-15,26 L15,26 Z" fill="none" stroke="black" transform="translate(321.1874600912713,203.83570169717592) rotate(262.9408874685871) scale(0.3324696277080708)" /></g><path d="M30,0 L15,-26 L-15,-26 L-30,0 L-15,26 L15,26 Z" fill="none" stroke="black" transform="translate(262.93082567531445,139.07993152410506) rotate(74.75978157787293) scale(1.2160812219007324)" /><g><path d="M-30,-20 h60 v40 h-60 Z" fill="none" stroke="black" transform="translate(187.29224570860526,181.78135488337588) rotate(143.64991252983225) scale(1.7145665289890226)" /><path d="M-30,-20 h60 v40 h-60 Z" fill="none" stroke="black" transform="translate(187.29224570860526,181.78135488337588) rotate(143.64991252983225) scale(1.2001965702923159)" /></g><path d="M-30,-20 h60 v40 h-60 Z" fill="none" stroke="black" transform="translate(73.53403128183817,262.95494460562054) rotate(269.91430168135565) scale(0.8636047600386123)" /></svg>