<svg baseProfile="full" height="400" version="1.1" width="400" xmlns="http://www.w3.org/2000/svg" xmlns:ev="http://www.w3.org/2001/xml-events" xmlns:xlink="http://www.w3.org/1999/xlink"><defs /><rect fill="white" height="100%" width="100%" x="0" y="0" /><path d="M0,-30 L30,30 L-30,30 Z" fill="none" stroke="black" transform="translate(221.872051007471,227.7494798379151) rotate(313.85068911882087) scale(1.3747279691824508)" /><path d="M27.7,-11.5 L27.7,11.5 L11.5,27.7 L-11.5,27.7 L-27.7,11.5 L-27.7,-11.5 L-11.5,-27.7 L11.5,-27.7 Z" fill="none" stroke="black" transform="translate(188.6751030516304,324.83895886278924) rotate(114.36628992382019) scale(1.0141328980693525)" /><path d="M27.7,-11.5 L27.7,11.5 L11.5,27.7 L-11.5,27.7 L-27.7,11.5 L-27.7,-11.5 L-11.5,-27.7 L11.5,-27.7 Z" fill="none" stroke="black" transform="translate(104.4934480056578,218.7461948833253) rotate(330.81212665085553) scale(1.330949647214875)" /><path d="M0.0,-30.0 L28.5,-9.3 L17.6,24.3 L-17.6,24.3 L-28.5,-9.3 Z" fill="none" stroke="black" transform="translate(227.66353668965786,87.58933629124154) rotate(230.32078052016422) scale(1.2122997373613105)" /><path d="M0.0,-30.0 L28.5,-9.3 L17.6,24.3 L-17.6,24.3 L-28.5,-9.3 Z" fill="none" stroke="black" transform="translate(101.07905765089464,312.02852446485275) rotate(304.34831733636474) scale(1.1943472183233133)" /><path d="M0.0,-30.0 L28.5,-9.3 L17.6,24.3 L-17.6,24.3 L-28.5,-9.3 Z" fill="none" stroke="black" transform="translate(203.6493839598113,162.59012769817053) rotate(249.08993112436332) scale(1.1703680210204657)" /><path d="M0.0,-30.0 L28.5,-9.3 L17.6,24.3 L-17.6,24.3 L-28.5,-9.3 Z" fill="none" stroke="black" transform="translate(299.5632511513614,292.4801098124355) rotate(336.8196522937351) scale(1.2908875793712244)" /><path d="M0.0,-30.0 L28.5,-9.3 L17.6,24.3 L-17.6,24.3 L-28.5,-9.3 Z" fill="none" stroke="black" transform="translate(263.9070433174294,184.8822648069486) rotate(152.90052874886905) scale(1.2104879443207366)" /><g><path d="M0.0,-30.0 L8.8,-12.1 L28.5,-9.3 L14.3,4.6 L17.6,24.3 L0.0,15.0 L-17.6,24.3 L-14.3,4.6 L-28.5,-9.3 L-8.8,-12.1 Z" fill="none" stroke="black" transform="translate(156.35335110371113,170.0485667871816) rotate(245.11346806237756) scale(1.2630642990529706)" /><path d="M0.0,-30.0 L8.8,-12.1 L28.5,-9.3 L14.3,4.6 L17.6,24.3 L0.0,15.0 L-17.6,24.3 L-14.3,4.6 L-28.5,-9.3 L-8.8,-12.1 Z" fill="none" stroke="black" transform="translate(156.35335110371113,170.0485667871816) rotate(245.11346806237756) scale(0.8841450093370793)" /><path d="M0.0,-30.0 L8.8,-12.1 L28.5,-9.3 L14.3,4.6 L17.6,24.3 L0.0,15.0 L-17.6,24.3 L-14.3,4.6 L-28.5,-9.3 L-8.8,-12.1 Z" fill="none" stroke="black" transform="translate(156.35335110371113,170.0485667871816) rotate(245.11346806237756) scale(0.5052257196211882)" /></g><g><path d="M0.0,-30.0 L8.8,-12.1 L28.5,-9.3 L14.3,4.6 L17.6,24.3 L0.0,15.0 L-17.6,24.3 L-14.3,4.6 L-28.5,-9.3 L-8.8,-12.1 Z" fill="none" stroke="black" transform="translate(309.44011268134227,156.20045183596855) rotate(194.5085273700683) scale(0.920671824640238)" /><path d="M0.0,-30.0 L8.8,-12.1 L28.5,-9.3 L14.3,4.6 L17.6,24.3 L0.0,15.0 L-17.6,24.3 L-14.3,4.6 L-28.5,-9.3 L-8.8,-12.1 Z" fill="none" stroke="black" transform="translate(309.44011268134227,156.20045183596855) rotate(194.5085273700683) scale(0.6444702772481665)" /></g><path d="M0,0 m-30,0 a30,30 0 1,0 60,0 a30,30 0 1,0 -60,0" fill="none" stroke="black" transform="translate(159.12649576063356,277.03722971855024) rotate(18.27105154374838) scale(1.0131943669506733)" /><path d="M0,0 m-30,0 a30,30 0 1,0 60,0 a30,30 0 1,0 -60,0" fill="none" stroke="black" transform="translate(268.411248261905,127.79822225695847) rotate(231.40694424301137) scale(1.1555608614865285)" /><path d="M0,0 m-30,0 a30,30 0 1,0 60,0 a30,30 0 1,0 -60,0" fill="none" stroke="black" transform="translate(135.11800060690737,324.4255183510619) rotate(33.806451340484514) scale(0.8352213512858084)" /><g><path d="M0,0 m-30,0 a30,30 0 1,0 60,0 a30,30 0 1,0 -60,0" fill="none" stroke="black" transform="translate(130.06748973891305,105.38492136505886) rotate(84.99879934626594) scale(1.1508496862283102)" /><path d="M0,0 m-30,0 a30,30 0 1,0 60,0 a30,30 0 1,0 -60,0" fill="none" stroke="black" transform="translate(130.06748973891305,105.38492136505886) rotate(84.99879934626594) scale(0.8055947803598171)" /><path d="M0,0 m-30,0 a30,30 0 1,0 60,0 a30,30 0 1,0 -60,0" fill="none" stroke="black" transform="translate(130.06748973891305,105.38492136505886) rotate(84.99879934626594) scale(0.4603398744913241)" /></g><g><path d="M0,0 m-30,0 a30,30 0 1,0 60,0 a30,30 0 1,0 -60,0" fill="none" stroke="black" transform="translate(307.7218142823338,245.61262936719567) rotate(245.70397356401216) scale(0.8939091838307089)" /><path d="M0,0 m-30,0 a30,30 0 1,0 60,0 a30,30 0 1,0 -60,0" fill="none" stroke="black" transform="translate(307.7218142823338,245.61262936719567) rotate(245.70397356401216) scale(0.6257364286814963)" /></g><g><path d="M0,0 m-30,0 a30,30 0 1,0 60,0 a30,30 0 1,0 -60,0" fill="none" stroke="black" transform="translate(267.0562614845984,255.4733846496146) rotate(232.52262329427404) scale(1.0433564225786403)" /><path d="M0,0 m-30,0 a30,30 0 1,0 60,0 a30,30 0 1,0 -60,0" fill="none" stroke="black" transform="translate(267.0562614845984,255.4733846496146) rotate(232.52262329427404) scale(0.7303494958050482)" /></g><path d="M30,0 L15,-26 L-15,-26 L-30,0 L-15,26 L15,26 Z" fill="none" stroke="black" transform="translate(59.64620713004415,106.69783319581654) rotate(44.03173424759209) scale(0.8078369889818231)" /><path d="M30,0 L15,-26 L-15,-26 L-30,0 L-15,26 L15,26 Z" fill="none" stroke="black" transform="translate(246.79740989010799,306.3851886500692) rotate(84.88257485491027) scale(0.9510675800157256)" /><g><path d="M30,0 L15,-26 L-15,-26 L-30,0 L-15,26 L15,26 Z" fill="none" stroke="black" transform="translate(91.17154542987734,121.37407791821144) rotate(159.92469487202942) scale(0.8007761104813544)" /><path d="M30,0 L15,-26 L-15,-26 L-30,0 L-15,26 L15,26 Z" fill="none" stroke="black" transform="translate(91.17154542987734,121.37407791821144) rotate(159.92469487202942) scale(0.5605432773369481)" /><path d="M30,0 L15,-26 L-15,-26 L-30,0 L-15,26 L15,26 Z" fill="none" stroke="black" transform="translate(91.17154542987734,121.37407791821144) rotate(159.92469487202942) scale(0.3203104441925418)" /></g><g><path d="M30,0 L15,-26 L-15,-26 L-30,0 L-15,26 L15,26 Z" fill="none" stroke="black" transform="translate(177.54539742343962,98.17691724218949) rotate(356.84319902344845) scale(0.9387981362184692)" /><path d="M30,0 L15,-26 L-15,-26 L-30,0 L-15,26 L15,26 Z" fill="none" stroke="black" transform="translate(177.54539742343962,98.17691724218949) rotate(356.84319902344845) scale(0.6571586953529284)" /></g><g><path d="M-30,-20 h60 v40 h-60 Z" fill="none" stroke="black" transform="translate(201.12038025160234,269.51179510047325) rotate(138.04926974714905) scale(0.8583321902731661)" /><path d="M-30,-20 h60 v40 h-60 Z" fill="none" stroke="black" transform="translate(201.12038025160234,269.51179510047325) rotate(138.04926974714905) scale(0.6008325331912162)" /><path d="M-30,-20 h60 v40 h-60 Z" fill="none" stroke="black" transform="translate(201.12038025160234,269.51179510047325) rotate(138.04926974714905) scale(0.34333287610926644)" /></g><g><path d="M-30,-20 h60 v40 h-60 Z" fill="none" stroke="black" transform="translate(305.85731629741144,79.09336735549499) rotate(169.57005585786783) scale(1.0475643200348026)" /><path d="M-30,-20 h60 v40 h-60 Z" fill="none" stroke="black" transform="translate(305.85731629741144,79.09336735549499) rotate(169.57005585786783) scale(0.7332950240243618)" /></g><g><path d="M-30,-20 h60 v40 h-60 Z" fill="none" stroke="black" transform="translate(169.80104025810957,222.10432924298055) rotate(215.29348274903467) scale(0.8285364498667426)" /><path d="M-30,-20 h60 v40 h-60 Z" fill="none" stroke="black" transform="translate(169.80104025810957,222.10432924298055) rotate(215.29348274903467) scale(0.5799755149067197)" /></g></svg>