<svg baseProfile="full" height="400" version="1.1" width="400" xmlns="http://www.w3.org/2000/svg" xmlns:ev="http://www.w3.org/2001/xml-events" xmlns:xlink="http://www.w3.org/1999/xlink"><defs /><rect fill="white" height="100%" width="100%" x="0" y="0" /><g><path d="M27.7,-11.5 L27.7,11.5 L11.5,27.7 L-11.5,27.7 L-27.7,11.5 L-27.7,-11.5 L-11.5,-27.7 L11.5,-27.7 Z" fill="none" stroke="black" transform="translate(297.76868098931226,131.94020813900164) rotate(297.43217642143884) scale(1.0036402979374441)" /><path d="M27.7,-11.5 L27.7,11.5 L11.5,27.7 L-11.5,27.7 L-27.7,11.5 L-27.7,-11.5 L-11.5,-27.7 L11.5,-27.7 Z" fill="none" stroke="black" transform="translate(297.76868098931226,131.94020813900164) rotate(297.43217642143884) scale(0.7025482085562108)" /><path d="M27.7,-11.5 L27.7,11.5 L11.5,27.7 L-11.5,27.7 L-27.7,11.5 L-27.7,-11.5 L-11.5,-27.7 L11.5,-27.7 Z" fill="none" stroke="black" transform="translate(297.76868098931226,131.94020813900164) rotate(297.43217642143884) scale(0.4014561191749777)" /></g><path d="M27.7,-11.5 L27.7,11.5 L11.5,27.7 L-11.5,27.7 L-27.7,11.5 L-27.7,-11.5 L-11.5,-27.7 L11.5,-27.7 Z" fill="none" stroke="black" transform="translate(188.2540046327282,235.05949571780292) rotate(156.78817924305346) scale(1.6094940625800582)" /><path d="M30,0 L15,-26 L-15,-26 L-30,0 L-15,26 L15,26 Z" fill="none" stroke="black" transform="translate(190.14248722453124,163.50338448503913) rotate(148.59290177595466) scale(0.942007479824575)" /><g><path d="M0.0,-30.0 L8.8,-12.1 L28.5,-9.3 L14.3,4.6 L17.6,24.3 L0.0,15.0 L-17.6,24.3 L-14.3,4.6 L-28.5,-9.3 L-8.8,-12.1 Z" fill="none" stroke="black" transform="translate(165.50446595484442,106.79269105642351) rotate(329.14613076441697) scale(0.9617697649039612)" /><path d="M0.0,-30.0 L8.8,-12.1 L28.5,-9.3 L14.3,4.6 L17.6,24.3 L0.0,15.0 L-17.6,24.3 L-14.3,4.6 L-28.5,-9.3 L-8.8,-12.1 Z" fill="none" stroke="black" transform="translate(165.50446595484442,106.79269105642351) rotate(329.14613076441697) scale(0.6732388354327727)" /><path d="M0.0,-30.0 L8.8,-12.1 L28.5,-9.3 L14.3,4.6 L17.6,24.3 L0.0,15.0 L-17.6,24.3 L-14.3,4.6 L-28.5,-9.3 L-8.8,-12.1 Z" fill="none" stroke="black" transform="translate(165.50446595484442,106.79269105642351) rotate(329.14613076441697) scale(0.3847079059615845)" /></g><g><path d="M0.0,-30.0 L8.8,-12.1 L28.5,-9.3 L14.3,4.6 L17.6,24.3 L0.0,15.0 L-17.6,24.3 L-14.3,4.6 L-28.5,-9.3 L-8.8,-12.1 Z" fill="none" stroke="black" transform="translate(74.23736451335013,191.38697755294444) rotate(312.1428915369222) scale(0.9617751213696579)" /><path d="M0.0,-30.0 L8.8,-12.1 L28.5,-9.3 L14.3,4.6 L17.6,24.3 L0.0,15.0 L-17.6,24.3 L-14.3,4.6 L-28.5,-9.3 L-8.8,-12.1 Z" fill="none" stroke="black" transform="translate(74.23736451335013,191.38697755294444) rotate(312.1428915369222) scale(0.6732425849587605)" /></g><path d="M0.0,-30.0 L8.8,-12.1 L28.5,-9.3 L14.3,4.6 L17.6,24.3 L0.0,15.0 L-17.6,24.3 L-14.3,4.6 L-28.5,-9.3 L-8.8,-12.1 Z" fill="none" stroke="black" transform="translate(96.05524862169163,111.4285330694497) rotate(119.6104211524554) scale(1.0277606339631964)" /><path d="M0.0,-30.0 L8.8,-12.1 L28.5,-9.3 L14.3,4.6 L17.6,24.3 L0.0,15.0 L-17.6,24.3 L-14.3,4.6 L-28.5,-9.3 L-8.8,-12.1 Z" fill="none" stroke="black" transform="translate(99.43512569369588,312.0680080745599) rotate(241.912475829873) scale(1.1614260244334829)" /><path d="M0.0,-30.0 L8.8,-12.1 L28.5,-9.3 L14.3,4.6 L17.6,24.3 L0.0,15.0 L-17.6,24.3 L-14.3,4.6 L-28.5,-9.3 L-8.8,-12.1 Z" fill="none" stroke="black" transform="translate(228.21629410387146,328.2091973645687) rotate(130.41895351719057) scale(0.936538251204955)" /><path d="M0.0,-30.0 L8.8,-12.1 L28.5,-9.3 L14.3,4.6 L17.6,24.3 L0.0,15.0 L-17.6,24.3 L-14.3,4.6 L-28.5,-9.3 L-8.8,-12.1 Z" fill="none" stroke="black" transform="translate(307.1781290405078,268.4558300577479) rotate(126.1070726546958) scale(1.019316443780824)" /><path d="M0.0,-30.0 L8.8,-12.1 L28.5,-9.3 L14.3,4.6 L17.6,24.3 L0.0,15.0 L-17.6,24.3 L-14.3,4.6 L-28.5,-9.3 L-8.8,-12.1 Z" fill="none" stroke="black" transform="translate(250.74824528272248,78.35348192213621) rotate(285.2838033207524) scale(0.8623580051553862)" /><path d="M0.0,-30.0 L8.8,-12.1 L28.5,-9.3 L14.3,4.6 L17.6,24.3 L0.0,15.0 L-17.6,24.3 L-14.3,4.6 L-28.5,-9.3 L-8.8,-12.1 Z" fill="none" stroke="black" transform="translate(238.69517295113434,180.6641917157151) rotate(134.09067531138214) scale(0.885660330351517)" /><path d="M0.0,-30.0 L8.8,-12.1 L28.5,-9.3 L14.3,4.6 L17.6,24.3 L0.0,15.0 L-17.6,24.3 L-14.3,4.6 L-28.5,-9.3 L-8.8,-12.1 Z" fill="none" stroke="black" transform="translate(213.4276679359068,87.91276493157488) rotate(99.13103339527241) scale(0.8732674648885148)" /><g><path d="M-30,-20 h60 v40 h-60 Z" fill="none" stroke="black" transform="translate(156.24615475088882,333.83030580190257) rotate(72.79038133706665) scale(0.8192114790871486)" /><path d="M-30,-20 h60 v40 h-60 Z" fill="none" stroke="black" transform="translate(156.24615475088882,333.83030580190257) rotate(72.79038133706665) scale(0.573448035361004)" /><path d="M-30,-20 h60 v40 h-60 Z" fill="none" stroke="black" transform="translate(156.24615475088882,333.83030580190257) rotate(72.79038133706665) scale(0.32768459163485947)" /></g><path d="M-30,-20 h60 v40 h-60 Z" fill="none" stroke="black" transform="translate(86.90603718950172,59.750735202697484) rotate(125.7931378607719) scale(0.8007950500692924)" /><g><path d="M-30,-20 h60 v40 h-60 Z" fill="none" stroke="black" transform="translate(302.3076915857054,204.4873982854022) rotate(52.030199911461594) scale(1.0223885385814169)" /><path d="M-30,-20 h60 v40 h-60 Z" fill="none" stroke="black" transform="translate(302.3076915857054,204.4873982854022) rotate(52.030199911461594) scale(0.7156719770069918)" /></g><path d="M-30,-20 h60 v40 h-60 Z" fill="none" stroke="black" transform="translate(306.38616716981596,80.05990357968385) rotate(142.47404879061338) scale(0.9262851037475974)" /><g><path d="M0,0 m-30,0 a30,30 0 1,0 60,0 a30,30 0 1,0 -60,0" fill="none" stroke="black" transform="translate(276.91015986793934,300.2427584924163) rotate(219.60224979305258) scale(0.944119351209633)" /><path d="M0,0 m-30,0 a30,30 0 1,0 60,0 a30,30 0 1,0 -60,0" fill="none" stroke="black" transform="translate(276.91015986793934,300.2427584924163) rotate(219.60224979305258) scale(0.660883545846743)" /><path d="M0,0 m-30,0 a30,30 0 1,0 60,0 a30,30 0 1,0 -60,0" fill="none" stroke="black" transform="translate(276.91015986793934,300.2427584924163) rotate(219.60224979305258) scale(0.3776477404838532)" /></g><path d="M0.0,-30.0 L28.5,-9.3 L17.6,24.3 L-17.6,24.3 L-28.5,-9.3 Z" fill="none" stroke="black" transform="translate(117.1010118805122,242.31021915384207) rotate(82.30918205854509) scale(0.857409361097459)" /><path d="M0.0,-30.0 L28.5,-9.3 L17.6,24.3 L-17.6,24.3 L-28.5,-9.3 Z" fill="none" stroke="black" transform="translate(150.07756357630575,63.8849654000678) rotate(148.1050042115184) scale(0.8139107520998121)" /><path d="M0.0,-30.0 L28.5,-9.3 L17.6,24.3 L-17.6,24.3 L-28.5,-9.3 Z" fill="none" stroke="black" transform="translate(336.73981665473036,146.55105225311172) rotate(215.6473306221851) scale(0.8647936532985133)" /><g><path d="M0.0,-30.0 L28.5,-9.3 L17.6,24.3 L-17.6,24.3 L-28.5,-9.3 Z" fill="none" stroke="black" transform="translate(75.72895823785467,252.1947099089368) rotate(350.50882192768233) scale(0.8658658898852262)" /><path d="M0.0,-30.0 L28.5,-9.3 L17.6,24.3 L-17.6,24.3 L-28.5,-9.3 Z" fill="none" stroke="black" transform="translate(75.72895823785467,252.1947099089368) rotate(350.50882192768233) scale(0.6061061229196583)" /><path d="M0.0,-30.0 L28.5,-9.3 L17.6,24.3 L-17.6,24.3 L-28.5,-9.3 Z" fill="none" stroke="black" transform="translate(75.72895823785467,252.1947099089368) rotate(350.50882192768233) scale(0.34634635595409047)" /></g><g><path d="M0.0,-30.0 L28.5,-9.3 L17.6,24.3 L-17.6,24.3 L-28.5,-9.3 Z" fill="none" stroke="black" transform="translate(261.673072979986,238.78317157674834) rotate(19.467547594341184) scale(0.8450564722940827)" /><path d="M0.0,-30.0 L28.5,-9.3 L17.6,24.3 L-17.6,24.3 L-28.5,-9.3 Z" fill="none" stroke="black" transform="translate(261.673072979986,238.78317157674834) rotate(19.467547594341184) scale(0.5915395306058578)" /></g><path d="M0.0,-30.0 L28.5,-9.3 L17.6,24.3 L-17.6,24.3 L-28.5,-9.3 Z" fill="none" stroke="black" transform="translate(301.37069300023995,327.1617301442054) rotate(315.62379275155814) scale(0.806498615716792)" /><path d="M0,-30 L30,30 L-30,30 Z" fill="none" stroke="black" transform="translate(140.99758586508574,166.76360695110168) rotate(354.0344376746291) scale(0.9324876461414634)" /></svg>