<svg baseProfile="full" height="400" version="1.1" width="400" xmlns="http://www.w3.org/2000/svg" xmlns:ev="http://www.w3.org/2001/xml-events" xmlns:xlink="http://www.w3.org/1999/xlink"><defs /><rect fill="white" height="100%" width="100%" x="0" y="0" /><g><path d="M30,0 L15,-26 L-15,-26 L-30,0 L-15,26 L15,26 Z" fill="none" stroke="black" transform="translate(144.84204936875508,108.62958774807935) rotate(49.77733448080873) scale(1.1455646691487935)" /><path d="M30,0 L15,-26 L-15,-26 L-30,0 L-15,26 L15,26 Z" fill="none" stroke="black" transform="translate(144.84204936875508,108.62958774807935) rotate(49.77733448080873) scale(0.8018952684041554)" /></g><path d="M30,0 L15,-26 L-15,-26 L-30,0 L-15,26 L15,26 Z" fill="none" stroke="black" transform="translate(147.2749608649774,304.5521155406252) rotate(160.5650124038317) scale(1.1974059294239843)" /><path d="M30,0 L15,-26 L-15,-26 L-30,0 L-15,26 L15,26 Z" fill="none" stroke="black" transform="translate(252.46684152315186,308.2844516097301) rotate(135.4245051286538) scale(1.0519876914478021)" /><path d="M0.0,-30.0 L28.5,-9.3 L17.6,24.3 L-17.6,24.3 L-28.5,-9.3 Z" fill="none" stroke="black" transform="translate(303.83099302431106,228.0125628991186) rotate(45.37639978714873) scale(1.0778665210992955)" /><g><path d="M0,-30 L30,30 L-30,30 Z" fill="none" stroke="black" transform="translate(243.2631343746391,75.96268543830602) rotate(330.8897892754575) scale(0.803115300324172)" /><path d="M0,-30 L30,30 L-30,30 Z" fill="none" stroke="black" transform="translate(243.2631343746391,75.96268543830602) rotate(330.8897892754575) scale(0.5621807102269204)" /></g><g><path d="M0,-30 L30,30 L-30,30 Z" fill="none" stroke="black" transform="translate(100.50249132308022,187.53549004866773) rotate(212.66769667732808) scale(0.9579809220179684)" /><path d="M0,-30 L30,30 L-30,30 Z" fill="none" stroke="black" transform="translate(100.50249132308022,187.53549004866773) rotate(212.66769667732808) scale(0.6705866454125778)" /><path d="M0,-30 L30,30 L-30,30 Z" fill="none" stroke="black" transform="translate(100.50249132308022,187.53549004866773) rotate(212.66769667732808) scale(0.3831923688071874)" /></g></svg>