<svg baseProfile="full" height="400" version="1.1" width="400" xmlns="http://www.w3.org/2000/svg" xmlns:ev="http://www.w3.org/2001/xml-events" xmlns:xlink="http://www.w3.org/1999/xlink"><defs /><rect fill="white" height="100%" width="100%" x="0" y="0" /><g><path d="M0.0,-30.0 L28.5,-9.3 L17.6,24.3 L-17.6,24.3 L-28.5,-9.3 Z" fill="none" stroke="black" transform="translate(182.75620840505684,259.0329763163477) rotate(223.95313456812013) scale(1.6328054942115164)" /><path d="M0.0,-30.0 L28.5,-9.3 L17.6,24.3 L-17.6,24.3 L-28.5,-9.3 Z" fill="none" stroke="black" transform="translate(182.75620840505684,259.0329763163477) rotate(223.95313456812013) scale(1.1429638459480613)" /><path d="M0.0,-30.0 L28.5,-9.3 L17.6,24.3 L-17.6,24.3 L-28.5,-9.3 Z" fill="none" stroke="black" transform="translate(182.75620840505684,259.0329763163477) rotate(223.95313456812013) scale(0.6531221976846067)" /></g><path d="M0.0,-30.0 L28.5,-9.3 L17.6,24.3 L-17.6,24.3 L-28.5,-9.3 Z" fill="none" stroke="black" transform="translate(260.4511771661358,174.0250127159715) rotate(283.13148846835696) scale(1.8706548630675501)" /><g><path d="M0.0,-30.0 L28.5,-9.3 L17.6,24.3 L-17.6,24.3 L-28.5,-9.3 Z" fill="none" stroke="black" transform="translate(289.16821876528184,275.3996238621738) rotate(146.73165534023133) scale(0.82000895082031)" /><path d="M0.0,-30.0 L28.5,-9.3 L17.6,24.3 L-17.6,24.3 L-28.5,-9.3 Z" fill="none" stroke="black" transform="translate(289.16821876528184,275.3996238621738) rotate(146.73165534023133) scale(0.574006265574217)" /></g><g><path d="M0.0,-30.0 L28.5,-9.3 L17.6,24.3 L-17.6,24.3 L-28.5,-9.3 Z" fill="none" stroke="black" transform="translate(266.1462195689037,314.4587518463595) rotate(215.77854743523895) scale(0.9920919341272784)" /><path d="M0.0,-30.0 L28.5,-9.3 L17.6,24.3 L-17.6,24.3 L-28.5,-9.3 Z" fill="none" stroke="black" transform="translate(266.1462195689037,314.4587518463595) rotate(215.77854743523895) scale(0.6944643538890948)" /><path d="M0.0,-30.0 L28.5,-9.3 L17.6,24.3 L-17.6,24.3 L-28.5,-9.3 Z" fill="none" stroke="black" transform="translate(266.1462195689037,314.4587518463595) rotate(215.77854743523895) scale(0.39683677365091136)" /></g><g><path d="M0.0,-30.0 L28.5,-9.3 L17.6,24.3 L-17.6,24.3 L-28.5,-9.3 Z" fill="none" stroke="black" transform="translate(112.11456058658696,294.49666676032734) rotate(231.54324143221473) scale(1.2982891000727241)" /><path d="M0.0,-30.0 L28.5,-9.3 L17.6,24.3 L-17.6,24.3 L-28.5,-9.3 Z" fill="none" stroke="black" transform="translate(112.11456058658696,294.49666676032734) rotate(231.54324143221473) scale(0.9088023700509068)" /></g><path d="M0.0,-30.0 L28.5,-9.3 L17.6,24.3 L-17.6,24.3 L-28.5,-9.3 Z" fill="none" stroke="black" transform="translate(177.44523808274192,104.2901396376812) rotate(356.2504825103783) scale(1.1738700271380653)" /><g><path d="M0.0,-30.0 L28.5,-9.3 L17.6,24.3 L-17.6,24.3 L-28.5,-9.3 Z" fill="none" stroke="black" transform="translate(161.63190035183987,169.40658281046257) rotate(189.68520614371863) scale(0.9222539619438471)" /><path d="M0.0,-30.0 L28.5,-9.3 L17.6,24.3 L-17.6,24.3 L-28.5,-9.3 Z" fill="none" stroke="black" transform="translate(161.63190035183987,169.40658281046257) rotate(189.68520614371863) scale(0.645577773360693)" /><path d="M0.0,-30.0 L28.5,-9.3 L17.6,24.3 L-17.6,24.3 L-28.5,-9.3 Z" fill="none" stroke="black" transform="translate(161.63190035183987,169.40658281046257) rotate(189.68520614371863) scale(0.36890158477753887)" /></g><path d="M0.0,-30.0 L28.5,-9.3 L17.6,24.3 L-17.6,24.3 L-28.5,-9.3 Z" fill="none" stroke="black" transform="translate(96.49043132631881,184.189734867004) rotate(156.3423486959679) scale(0.9416239163061708)" /><path d="M27.7,-11.5 L27.7,11.5 L11.5,27.7 L-11.5,27.7 L-27.7,11.5 L-27.7,-11.5 L-11.5,-27.7 L11.5,-27.7 Z" fill="none" stroke="black" transform="translate(328.5526447874466,292.2409499306795) rotate(297.76431835375934) scale(0.8585153482151892)" /><path d="M27.7,-11.5 L27.7,11.5 L11.5,27.7 L-11.5,27.7 L-27.7,11.5 L-27.7,-11.5 L-11.5,-27.7 L11.5,-27.7 Z" fill="none" stroke="black" transform="translate(82.64322554464576,92.4647477425298) rotate(146.55807594003596) scale(1.0789432275282473)" /><path d="M27.7,-11.5 L27.7,11.5 L11.5,27.7 L-11.5,27.7 L-27.7,11.5 L-27.7,-11.5 L-11.5,-27.7 L11.5,-27.7 Z" fill="none" stroke="black" transform="translate(309.3518319383647,102.73619725372492) rotate(351.0355095481555) scale(0.8409748344414513)" /><path d="M0,0 m-30,0 a30,30 0 1,0 60,0 a30,30 0 1,0 -60,0" fill="none" stroke="black" transform="translate(315.4393911661737,338.12633996872694) rotate(4.183401040373975) scale(0.820675099112058)" /><path d="M0,-30 L30,30 L-30,30 Z" fill="none" stroke="black" transform="translate(244.2647013492254,67.75044471294804) rotate(30.43143647849383) scale(0.8897716760531627)" /><g><path d="M0,-30 L30,30 L-30,30 Z" fill="none" stroke="black" transform="translate(146.85614309317236,335.3453312137546) rotate(98.10681333915737) scale(0.8162448496555614)" /><path d="M0,-30 L30,30 L-30,30 Z" fill="none" stroke="black" transform="translate(146.85614309317236,335.3453312137546) rotate(98.10681333915737) scale(0.571371394758893)" /></g><path d="M0.0,-30.0 L8.8,-12.1 L28.5,-9.3 L14.3,4.6 L17.6,24.3 L0.0,15.0 L-17.6,24.3 L-14.3,4.6 L-28.5,-9.3 L-8.8,-12.1 Z" fill="none" stroke="black" transform="translate(339.02768169307245,228.11186754755772) rotate(265.32562499693734) scale(0.8131389985741619)" /><path d="M-30,-20 h60 v40 h-60 Z" fill="none" stroke="black" transform="translate(132.62628713628987,70.70950674767522) rotate(212.32924483037795) scale(0.8572101809915688)" /><g><path d="M30,0 L15,-26 L-15,-26 L-30,0 L-15,26 L15,26 Z" fill="none" stroke="black" transform="translate(216.8968936631839,333.10249619345166) rotate(188.49126680428037) scale(0.8471546764538791)" /><path d="M30,0 L15,-26 L-15,-26 L-30,0 L-15,26 L15,26 Z" fill="none" stroke="black" transform="translate(216.8968936631839,333.10249619345166) rotate(188.49126680428037) scale(0.5930082735177153)" /><path d="M30,0 L15,-26 L-15,-26 L-30,0 L-15,26 L15,26 Z" fill="none" stroke="black" transform="translate(216.8968936631839,333.10249619345166) rotate(188.49126680428037) scale(0.33886187058155165)" /></g><path d="M30,0 L15,-26 L-15,-26 L-30,0 L-15,26 L15,26 Z" fill="none" stroke="black" transform="translate(134.12487835510132,128.9163702341742) rotate(272.8946172382579) scale(0.862530704027767)" /><path d="M30,0 L15,-26 L-15,-26 L-30,0 L-15,26 L15,26 Z" fill="none" stroke="black" transform="translate(84.9344868228527,234.376660140858) rotate(150.42967899550126) scale(0.9108737819204898)" /></svg>