<svg baseProfile="full" height="400" version="1.1" width="400" xmlns="http://www.w3.org/2000/svg" xmlns:ev="http://www.w3.org/2001/xml-events" xmlns:xlink="http://www.w3.org/1999/xlink"><defs /><rect fill="white" height="100%" width="100%" x="0" y="0" /><g><path d="M-30,-20 h60 v40 h-60 Z" fill="none" stroke="black" transform="translate(185.26263658134954,152.5567140793324) rotate(338.0689225265386) scale(1.987423811604322)" /><path d="M-30,-20 h60 v40 h-60 Z" fill="none" stroke="black" transform="translate(185.26263658134954,152.5567140793324) rotate(338.0689225265386) scale(1.3911966681230252)" /><path d="M-30,-20 h60 v40 h-60 Z" fill="none" stroke="black" transform="translate(185.26263658134954,152.5567140793324) rotate(338.0689225265386) scale(0.7949695246417288)" /></g><g><path d="M-30,-20 h60 v40 h-60 Z" fill="none" stroke="black" transform="translate(225.26749600811405,247.62806177578005) rotate(88.493997758968) scale(1.7563854400812915)" /><path d="M-30,-20 h60 v40 h-60 Z" fill="none" stroke="black" transform="translate(225.26749600811405,247.62806177578005) rotate(88.493997758968) scale(1.229469808056904)" /></g><path d="M-30,-20 h60 v40 h-60 Z" fill="none" stroke="black" transform="translate(293.65177476178934,92.92703375943145) rotate(37.435796482404115) scale(1.0473261338834505)" /><g><path d="M-30,-20 h60 v40 h-60 Z" fill="none" stroke="black" transform="translate(270.29655271592105,257.2706766914396) rotate(267.7704840261092) scale(1.0207868222345455)" /><path d="M-30,-20 h60 v40 h-60 Z" fill="none" stroke="black" transform="translate(270.29655271592105,257.2706766914396) rotate(267.7704840261092) scale(0.7145507755641818)" /></g><path d="M-30,-20 h60 v40 h-60 Z" fill="none" stroke="black" transform="translate(122.95645773524764,222.73369743777914) rotate(267.8697273418723) scale(1.276080644021564)" /><g><path d="M27.7,-11.5 L27.7,11.5 L11.5,27.7 L-11.5,27.7 L-27.7,11.5 L-27.7,-11.5 L-11.5,-27.7 L11.5,-27.7 Z" fill="none" stroke="black" transform="translate(90.06564079491297,73.46793136226346) rotate(246.25753887321247) scale(0.8310714003618922)" /><path d="M27.7,-11.5 L27.7,11.5 L11.5,27.7 L-11.5,27.7 L-27.7,11.5 L-27.7,-11.5 L-11.5,-27.7 L11.5,-27.7 Z" fill="none" stroke="black" transform="translate(90.06564079491297,73.46793136226346) rotate(246.25753887321247) scale(0.5817499802533245)" /></g><path d="M27.7,-11.5 L27.7,11.5 L11.5,27.7 L-11.5,27.7 L-27.7,11.5 L-27.7,-11.5 L-11.5,-27.7 L11.5,-27.7 Z" fill="none" stroke="black" transform="translate(176.47579978155545,64.42352861540803) rotate(122.41091525267467) scale(0.8558016921009897)" /><path d="M27.7,-11.5 L27.7,11.5 L11.5,27.7 L-11.5,27.7 L-27.7,11.5 L-27.7,-11.5 L-11.5,-27.7 L11.5,-27.7 Z" fill="none" stroke="black" transform="translate(323.6698385513113,212.66875836773227) rotate(280.9948099283454) scale(0.9186182355660804)" /><path d="M27.7,-11.5 L27.7,11.5 L11.5,27.7 L-11.5,27.7 L-27.7,11.5 L-27.7,-11.5 L-11.5,-27.7 L11.5,-27.7 Z" fill="none" stroke="black" transform="translate(81.18590089576796,116.84926385268528) rotate(18.171038869302553) scale(1.0696204593218517)" /><g><path d="M0,0 m-30,0 a30,30 0 1,0 60,0 a30,30 0 1,0 -60,0" fill="none" stroke="black" transform="translate(89.00030632834246,188.87981151651485) rotate(174.5587710976572) scale(1.2124831920574894)" /><path d="M0,0 m-30,0 a30,30 0 1,0 60,0 a30,30 0 1,0 -60,0" fill="none" stroke="black" transform="translate(89.00030632834246,188.87981151651485) rotate(174.5587710976572) scale(0.8487382344402425)" /><path d="M0,0 m-30,0 a30,30 0 1,0 60,0 a30,30 0 1,0 -60,0" fill="none" stroke="black" transform="translate(89.00030632834246,188.87981151651485) rotate(174.5587710976572) scale(0.4849932768229958)" /></g><path d="M0,0 m-30,0 a30,30 0 1,0 60,0 a30,30 0 1,0 -60,0" fill="none" stroke="black" transform="translate(99.85455265208532,302.2963102291677) rotate(63.33189432089497) scale(1.2305434976462377)" /><g><path d="M0,0 m-30,0 a30,30 0 1,0 60,0 a30,30 0 1,0 -60,0" fill="none" stroke="black" transform="translate(78.85074740262552,265.74163238603376) rotate(330.33407530263685) scale(1.0300320542562669)" /><path d="M0,0 m-30,0 a30,30 0 1,0 60,0 a30,30 0 1,0 -60,0" fill="none" stroke="black" transform="translate(78.85074740262552,265.74163238603376) rotate(330.33407530263685) scale(0.7210224379793868)" /></g><g><path d="M0,0 m-30,0 a30,30 0 1,0 60,0 a30,30 0 1,0 -60,0" fill="none" stroke="black" transform="translate(126.39359673123397,75.62286710892934) rotate(119.65104344579473) scale(0.8934052392304146)" /><path d="M0,0 m-30,0 a30,30 0 1,0 60,0 a30,30 0 1,0 -60,0" fill="none" stroke="black" transform="translate(126.39359673123397,75.62286710892934) rotate(119.65104344579473) scale(0.6253836674612901)" /><path d="M0,0 m-30,0 a30,30 0 1,0 60,0 a30,30 0 1,0 -60,0" fill="none" stroke="black" transform="translate(126.39359673123397,75.62286710892934) rotate(119.65104344579473) scale(0.35736209569216587)" /></g><path d="M0,0 m-30,0 a30,30 0 1,0 60,0 a30,30 0 1,0 -60,0" fill="none" stroke="black" transform="translate(302.94225771379126,302.69389441491705) rotate(259.5549564358625) scale(1.1858927594746438)" /><g><path d="M0,0 m-30,0 a30,30 0 1,0 60,0 a30,30 0 1,0 -60,0" fill="none" stroke="black" transform="translate(174.04720195864462,319.83208525730225) rotate(69.64354278659748) scale(0.8034672034229813)" /><path d="M0,0 m-30,0 a30,30 0 1,0 60,0 a30,30 0 1,0 -60,0" fill="none" stroke="black" transform="translate(174.04720195864462,319.83208525730225) rotate(69.64354278659748) scale(0.5624270423960869)" /><path d="M0,0 m-30,0 a30,30 0 1,0 60,0 a30,30 0 1,0 -60,0" fill="none" stroke="black" transform="translate(174.04720195864462,319.83208525730225) rotate(69.64354278659748) scale(0.3213868813691925)" /></g><path d="M0,0 m-30,0 a30,30 0 1,0 60,0 a30,30 0 1,0 -60,0" fill="none" stroke="black" transform="translate(298.9644516763163,146.20323572041283) rotate(217.78423829406876) scale(0.9995722795604696)" /><g><path d="M0,0 m-30,0 a30,30 0 1,0 60,0 a30,30 0 1,0 -60,0" fill="none" stroke="black" transform="translate(281.64423007980207,171.13565419484453) rotate(267.29939577568933) scale(0.8799390529879121)" /><path d="M0,0 m-30,0 a30,30 0 1,0 60,0 a30,30 0 1,0 -60,0" fill="none" stroke="black" transform="translate(281.64423007980207,171.13565419484453) rotate(267.29939577568933) scale(0.6159573370915384)" /><path d="M0,0 m-30,0 a30,30 0 1,0 60,0 a30,30 0 1,0 -60,0" fill="none" stroke="black" transform="translate(281.64423007980207,171.13565419484453) rotate(267.29939577568933) scale(0.35197562119516485)" /></g><path d="M0,0 m-30,0 a30,30 0 1,0 60,0 a30,30 0 1,0 -60,0" fill="none" stroke="black" transform="translate(139.76049825566773,321.4176401607473) rotate(56.31656912058805) scale(0.8953831078365113)" /><path d="M0.0,-30.0 L28.5,-9.3 L17.6,24.3 L-17.6,24.3 L-28.5,-9.3 Z" fill="none" stroke="black" transform="translate(130.96044870577663,107.32475165163044) rotate(31.766698331304376) scale(0.9611100693866046)" /><g><path d="M0.0,-30.0 L28.5,-9.3 L17.6,24.3 L-17.6,24.3 L-28.5,-9.3 Z" fill="none" stroke="black" transform="translate(113.66019629530618,126.43145459691935) rotate(197.41955594444485) scale(0.8897450770920411)" /><path d="M0.0,-30.0 L28.5,-9.3 L17.6,24.3 L-17.6,24.3 L-28.5,-9.3 Z" fill="none" stroke="black" transform="translate(113.66019629530618,126.43145459691935) rotate(197.41955594444485) scale(0.6228215539644287)" /></g><g><path d="M0.0,-30.0 L28.5,-9.3 L17.6,24.3 L-17.6,24.3 L-28.5,-9.3 Z" fill="none" stroke="black" transform="translate(138.9926063650624,272.8747093528411) rotate(249.70661545306902) scale(1.449998626972703)" /><path d="M0.0,-30.0 L28.5,-9.3 L17.6,24.3 L-17.6,24.3 L-28.5,-9.3 Z" fill="none" stroke="black" transform="translate(138.9926063650624,272.8747093528411) rotate(249.70661545306902) scale(1.014999038880892)" /><path d="M0.0,-30.0 L28.5,-9.3 L17.6,24.3 L-17.6,24.3 L-28.5,-9.3 Z" fill="none" stroke="black" transform="translate(138.9926063650624,272.8747093528411) rotate(249.70661545306902) scale(0.5799994507890812)" /></g><path d="M0.0,-30.0 L28.5,-9.3 L17.6,24.3 L-17.6,24.3 L-28.5,-9.3 Z" fill="none" stroke="black" transform="translate(236.9892375816396,134.50445613905543) rotate(183.58561468527859) scale(0.8652220816997155)" /><g><path d="M0.0,-30.0 L28.5,-9.3 L17.6,24.3 L-17.6,24.3 L-28.5,-9.3 Z" fill="none" stroke="black" transform="translate(320.4762116420938,179.59884698750264) rotate(267.6242813179341) scale(1.0609666033170617)" /><path d="M0.0,-30.0 L28.5,-9.3 L17.6,24.3 L-17.6,24.3 L-28.5,-9.3 Z" fill="none" stroke="black" transform="translate(320.4762116420938,179.59884698750264) rotate(267.6242813179341) scale(0.7426766223219432)" /></g><g><path d="M0.0,-30.0 L28.5,-9.3 L17.6,24.3 L-17.6,24.3 L-28.5,-9.3 Z" fill="none" stroke="black" transform="translate(293.29300952561186,203.92451701097303) rotate(44.06622603400435) scale(0.838686578105368)" /><path d="M0.0,-30.0 L28.5,-9.3 L17.6,24.3 L-17.6,24.3 L-28.5,-9.3 Z" fill="none" stroke="black" transform="translate(293.29300952561186,203.92451701097303) rotate(44.06622603400435) scale(0.5870806046737576)" /></g><path d="M0.0,-30.0 L28.5,-9.3 L17.6,24.3 L-17.6,24.3 L-28.5,-9.3 Z" fill="none" stroke="black" transform="translate(115.19193705398557,157.64362260140356) rotate(187.13856836080095) scale(0.9846251802072595)" /><path d="M0.0,-30.0 L8.8,-12.1 L28.5,-9.3 L14.3,4.6 L17.6,24.3 L0.0,15.0 L-17.6,24.3 L-14.3,4.6 L-28.5,-9.3 L-8.8,-12.1 Z" fill="none" stroke="black" transform="translate(282.28397919506546,121.15686794222738) rotate(278.5643415855672) scale(0.8489619991140855)" /><g><path d="M0.0,-30.0 L8.8,-12.1 L28.5,-9.3 L14.3,4.6 L17.6,24.3 L0.0,15.0 L-17.6,24.3 L-14.3,4.6 L-28.5,-9.3 L-8.8,-12.1 Z" fill="none" stroke="black" transform="translate(282.352768500705,224.18109778753606) rotate(243.51335878198822) scale(0.8625793044090095)" /><path d="M0.0,-30.0 L8.8,-12.1 L28.5,-9.3 L14.3,4.6 L17.6,24.3 L0.0,15.0 L-17.6,24.3 L-14.3,4.6 L-28.5,-9.3 L-8.8,-12.1 Z" fill="none" stroke="black" transform="translate(282.352768500705,224.18109778753606) rotate(243.51335878198822) scale(0.6038055130863066)" /></g><g><path d="M0.0,-30.0 L8.8,-12.1 L28.5,-9.3 L14.3,4.6 L17.6,24.3 L0.0,15.0 L-17.6,24.3 L-14.3,4.6 L-28.5,-9.3 L-8.8,-12.1 Z" fill="none" stroke="black" transform="translate(221.90094623747407,321.9284163618599) rotate(82.29222903212009) scale(1.0638151624782484)" /><path d="M0.0,-30.0 L8.8,-12.1 L28.5,-9.3 L14.3,4.6 L17.6,24.3 L0.0,15.0 L-17.6,24.3 L-14.3,4.6 L-28.5,-9.3 L-8.8,-12.1 Z" fill="none" stroke="black" transform="translate(221.90094623747407,321.9284163618599) rotate(82.29222903212009) scale(0.7446706137347738)" /></g><path d="M0.0,-30.0 L8.8,-12.1 L28.5,-9.3 L14.3,4.6 L17.6,24.3 L0.0,15.0 L-17.6,24.3 L-14.3,4.6 L-28.5,-9.3 L-8.8,-12.1 Z" fill="none" stroke="black" transform="translate(134.83405205831485,173.5790329583828) rotate(182.3317210130311) scale(0.8040084007913451)" /><path d="M30,0 L15,-26 L-15,-26 L-30,0 L-15,26 L15,26 Z" fill="none" stroke="black" transform="translate(262.11618332605906,93.78611670528706) rotate(217.97415620945858) scale(0.8851951436147847)" /><path d="M30,0 L15,-26 L-15,-26 L-30,0 L-15,26 L15,26 Z" fill="none" stroke="black" transform="translate(332.06171913030045,137.18393970805997) rotate(277.4900439278047) scale(0.9275354020522991)" /><path d="M30,0 L15,-26 L-15,-26 L-30,0 L-15,26 L15,26 Z" fill="none" stroke="black" transform="translate(165.84767607312108,232.51599286270414) rotate(356.4610161522702) scale(0.9186598323160248)" /><path d="M30,0 L15,-26 L-15,-26 L-30,0 L-15,26 L15,26 Z" fill="none" stroke="black" transform="translate(76.84047362860005,337.21090820668) rotate(120.23282580361798) scale(0.8053212877016896)" /></svg>