<svg baseProfile="full" height="400" version="1.1" width="400" xmlns="http://www.w3.org/2000/svg" xmlns:ev="http://www.w3.org/2001/xml-events" xmlns:xlink="http://www.w3.org/1999/xlink"><defs /><rect fill="white" height="100%" width="100%" x="0" y="0" /><path d="M27.7,-11.5 L27.7,11.5 L11.5,27.7 L-11.5,27.7 L-27.7,11.5 L-27.7,-11.5 L-11.5,-27.7 L11.5,-27.7 Z" fill="none" stroke="black" transform="translate(163.67673955709742,227.08550481189656) rotate(20.10319012337225) scale(1.7485423873767276)" /><g><path d="M0.0,-30.0 L8.8,-12.1 L28.5,-9.3 L14.3,4.6 L17.6,24.3 L0.0,15.0 L-17.6,24.3 L-14.3,4.6 L-28.5,-9.3 L-8.8,-12.1 Z" fill="none" stroke="black" transform="translate(205.50837007373107,321.00767107910303) rotate(282.64695120916167) scale(1.0779023790328446)" /><path d="M0.0,-30.0 L8.8,-12.1 L28.5,-9.3 L14.3,4.6 L17.6,24.3 L0.0,15.0 L-17.6,24.3 L-14.3,4.6 L-28.5,-9.3 L-8.8,-12.1 Z" fill="none" stroke="black" transform="translate(205.50837007373107,321.00767107910303) rotate(282.64695120916167) scale(0.7545316653229912)" /><path d="M0.0,-30.0 L8.8,-12.1 L28.5,-9.3 L14.3,4.6 L17.6,24.3 L0.0,15.0 L-17.6,24.3 L-14.3,4.6 L-28.5,-9.3 L-8.8,-12.1 Z" fill="none" stroke="black" transform="translate(205.50837007373107,321.00767107910303) rotate(282.64695120916167) scale(0.43116095161313783)" /></g><g><path d="M0,-30 L30,30 L-30,30 Z" fill="none" stroke="black" transform="translate(275.6547607694931,190.38627368454388) rotate(104.05130251146464) scale(1.6980195305590056)" /><path d="M0,-30 L30,30 L-30,30 Z" fill="none" stroke="black" transform="translate(275.6547607694931,190.38627368454388) rotate(104.05130251146464) scale(1.1886136713913038)" /></g><g><path d="M0,-30 L30,30 L-30,30 Z" fill="none" stroke="black" transform="translate(259.5500645109038,259.6750150953608) rotate(112.95208996541452) scale(1.134135664945683)" /><path d="M0,-30 L30,30 L-30,30 Z" fill="none" stroke="black" transform="translate(259.5500645109038,259.6750150953608) rotate(112.95208996541452) scale(0.7938949654619781)" /><path d="M0,-30 L30,30 L-30,30 Z" fill="none" stroke="black" transform="translate(259.5500645109038,259.6750150953608) rotate(112.95208996541452) scale(0.45365426597827324)" /></g><path d="M0,-30 L30,30 L-30,30 Z" fill="none" stroke="black" transform="translate(120.49510443789467,119.52059251802953) rotate(81.3676839144894) scale(1.0337828693100763)" /></svg>