<svg baseProfile="full" height="400" version="1.1" width="400" xmlns="http://www.w3.org/2000/svg" xmlns:ev="http://www.w3.org/2001/xml-events" xmlns:xlink="http://www.w3.org/1999/xlink"><defs /><rect fill="white" height="100%" width="100%" x="0" y="0" /><path d="M27.7,-11.5 L27.7,11.5 L11.5,27.7 L-11.5,27.7 L-27.7,11.5 L-27.7,-11.5 L-11.5,-27.7 L11.5,-27.7 Z" fill="none" stroke="black" transform="translate(159.56919678300434,205.40643350043825) rotate(5.051511381731197) scale(1.9737858024352632)" /><g><path d="M27.7,-11.5 L27.7,11.5 L11.5,27.7 L-11.5,27.7 L-27.7,11.5 L-27.7,-11.5 L-11.5,-27.7 L11.5,-27.7 Z" fill="none" stroke="black" transform="translate(149.029628362133,104.11093092325409) rotate(306.47269220185177) scale(1.1097840861143287)" /><path d="M27.7,-11.5 L27.7,11.5 L11.5,27.7 L-11.5,27.7 L-27.7,11.5 L-27.7,-11.5 L-11.5,-27.7 L11.5,-27.7 Z" fill="none" stroke="black" transform="translate(149.029628362133,104.11093092325409) rotate(306.47269220185177) scale(0.77684886028003)" /><path d="M27.7,-11.5 L27.7,11.5 L11.5,27.7 L-11.5,27.7 L-27.7,11.5 L-27.7,-11.5 L-11.5,-27.7 L11.5,-27.7 Z" fill="none" stroke="black" transform="translate(149.029628362133,104.11093092325409) rotate(306.47269220185177) scale(0.4439136344457315)" /></g><path d="M27.7,-11.5 L27.7,11.5 L11.5,27.7 L-11.5,27.7 L-27.7,11.5 L-27.7,-11.5 L-11.5,-27.7 L11.5,-27.7 Z" fill="none" stroke="black" transform="translate(125.14457429972006,297.4299319679788) rotate(169.99502789596414) scale(1.0447542869643722)" /><g><path d="M27.7,-11.5 L27.7,11.5 L11.5,27.7 L-11.5,27.7 L-27.7,11.5 L-27.7,-11.5 L-11.5,-27.7 L11.5,-27.7 Z" fill="none" stroke="black" transform="translate(318.68910223104837,97.15119690156496) rotate(55.483975758868276) scale(0.8848580787005298)" /><path d="M27.7,-11.5 L27.7,11.5 L11.5,27.7 L-11.5,27.7 L-27.7,11.5 L-27.7,-11.5 L-11.5,-27.7 L11.5,-27.7 Z" fill="none" stroke="black" transform="translate(318.68910223104837,97.15119690156496) rotate(55.483975758868276) scale(0.6194006550903708)" /><path d="M27.7,-11.5 L27.7,11.5 L11.5,27.7 L-11.5,27.7 L-27.7,11.5 L-27.7,-11.5 L-11.5,-27.7 L11.5,-27.7 Z" fill="none" stroke="black" transform="translate(318.68910223104837,97.15119690156496) rotate(55.483975758868276) scale(0.35394323148021195)" /></g><path d="M27.7,-11.5 L27.7,11.5 L11.5,27.7 L-11.5,27.7 L-27.7,11.5 L-27.7,-11.5 L-11.5,-27.7 L11.5,-27.7 Z" fill="none" stroke="black" transform="translate(282.40430983021065,198.50525098926346) rotate(345.916929855723) scale(0.8172238647947011)" /><path d="M27.7,-11.5 L27.7,11.5 L11.5,27.7 L-11.5,27.7 L-27.7,11.5 L-27.7,-11.5 L-11.5,-27.7 L11.5,-27.7 Z" fill="none" stroke="black" transform="translate(336.7723744340635,220.18684066959926) rotate(230.49962473894672) scale(0.8276603171817132)" /><g><path d="M27.7,-11.5 L27.7,11.5 L11.5,27.7 L-11.5,27.7 L-27.7,11.5 L-27.7,-11.5 L-11.5,-27.7 L11.5,-27.7 Z" fill="none" stroke="black" transform="translate(98.76664263518133,144.61254664964395) rotate(229.3832363678259) scale(0.8414077476710827)" /><path d="M27.7,-11.5 L27.7,11.5 L11.5,27.7 L-11.5,27.7 L-27.7,11.5 L-27.7,-11.5 L-11.5,-27.7 L11.5,-27.7 Z" fill="none" stroke="black" transform="translate(98.76664263518133,144.61254664964395) rotate(229.3832363678259) scale(0.5889854233697579)" /></g><path d="M27.7,-11.5 L27.7,11.5 L11.5,27.7 L-11.5,27.7 L-27.7,11.5 L-27.7,-11.5 L-11.5,-27.7 L11.5,-27.7 Z" fill="none" stroke="black" transform="translate(86.03143548195608,209.92715458914802) rotate(119.94672259680154) scale(0.8306188414974741)" /><path d="M27.7,-11.5 L27.7,11.5 L11.5,27.7 L-11.5,27.7 L-27.7,11.5 L-27.7,-11.5 L-11.5,-27.7 L11.5,-27.7 Z" fill="none" stroke="black" transform="translate(314.4110876418809,159.48092251774233) rotate(101.78874686753518) scale(1.1862392969364606)" /><g><path d="M0.0,-30.0 L28.5,-9.3 L17.6,24.3 L-17.6,24.3 L-28.5,-9.3 Z" fill="none" stroke="black" transform="translate(228.3903259788294,123.94045165571069) rotate(44.734872548300345) scale(1.5634837018027723)" /><path d="M0.0,-30.0 L28.5,-9.3 L17.6,24.3 L-17.6,24.3 L-28.5,-9.3 Z" fill="none" stroke="black" transform="translate(228.3903259788294,123.94045165571069) rotate(44.734872548300345) scale(1.0944385912619405)" /><path d="M0.0,-30.0 L28.5,-9.3 L17.6,24.3 L-17.6,24.3 L-28.5,-9.3 Z" fill="none" stroke="black" transform="translate(228.3903259788294,123.94045165571069) rotate(44.734872548300345) scale(0.625393480721109)" /></g><g><path d="M0.0,-30.0 L28.5,-9.3 L17.6,24.3 L-17.6,24.3 L-28.5,-9.3 Z" fill="none" stroke="black" transform="translate(245.50281903256482,324.9189041456752) rotate(122.06033063114279) scale(0.8989918501733725)" /><path d="M0.0,-30.0 L28.5,-9.3 L17.6,24.3 L-17.6,24.3 L-28.5,-9.3 Z" fill="none" stroke="black" transform="translate(245.50281903256482,324.9189041456752) rotate(122.06033063114279) scale(0.6292942951213607)" /></g><path d="M0.0,-30.0 L28.5,-9.3 L17.6,24.3 L-17.6,24.3 L-28.5,-9.3 Z" fill="none" stroke="black" transform="translate(198.7658378388275,315.95043152979275) rotate(325.81657320858005) scale(0.9903563192574292)" /><path d="M0.0,-30.0 L28.5,-9.3 L17.6,24.3 L-17.6,24.3 L-28.5,-9.3 Z" fill="none" stroke="black" transform="translate(252.63665537904774,270.6737002734695) rotate(166.50157985159586) scale(0.8613438692180048)" /><g><path d="M0.0,-30.0 L28.5,-9.3 L17.6,24.3 L-17.6,24.3 L-28.5,-9.3 Z" fill="none" stroke="black" transform="translate(299.5870886071991,305.80475215856944) rotate(240.4793685857436) scale(0.9170234774657464)" /><path d="M0.0,-30.0 L28.5,-9.3 L17.6,24.3 L-17.6,24.3 L-28.5,-9.3 Z" fill="none" stroke="black" transform="translate(299.5870886071991,305.80475215856944) rotate(240.4793685857436) scale(0.6419164342260224)" /><path d="M0.0,-30.0 L28.5,-9.3 L17.6,24.3 L-17.6,24.3 L-28.5,-9.3 Z" fill="none" stroke="black" transform="translate(299.5870886071991,305.80475215856944) rotate(240.4793685857436) scale(0.3668093909862986)" /></g><path d="M0.0,-30.0 L28.5,-9.3 L17.6,24.3 L-17.6,24.3 L-28.5,-9.3 Z" fill="none" stroke="black" transform="translate(113.42641191126938,128.05242318568654) rotate(315.63061827231866) scale(0.8395905191919051)" /><g><path d="M0,-30 L30,30 L-30,30 Z" fill="none" stroke="black" transform="translate(322.9020346084643,339.0411471010077) rotate(47.54477748850162) scale(0.8027352370973864)" /><path d="M0,-30 L30,30 L-30,30 Z" fill="none" stroke="black" transform="translate(322.9020346084643,339.0411471010077) rotate(47.54477748850162) scale(0.5619146659681704)" /></g><g><path d="M0,-30 L30,30 L-30,30 Z" fill="none" stroke="black" transform="translate(217.3303224617655,279.9776857484559) rotate(249.22350761600524) scale(0.987083445472191)" /><path d="M0,-30 L30,30 L-30,30 Z" fill="none" stroke="black" transform="translate(217.3303224617655,279.9776857484559) rotate(249.22350761600524) scale(0.6909584118305336)" /><path d="M0,-30 L30,30 L-30,30 Z" fill="none" stroke="black" transform="translate(217.3303224617655,279.9776857484559) rotate(249.22350761600524) scale(0.3948333781888764)" /></g><path d="M0,-30 L30,30 L-30,30 Z" fill="none" stroke="black" transform="translate(68.93455794735567,266.2232198983437) rotate(128.22689568988662) scale(0.8961014804664611)" /><path d="M0,-30 L30,30 L-30,30 Z" fill="none" stroke="black" transform="translate(77.63093587665546,91.40786737880741) rotate(351.6162247042206) scale(1.0777423254016958)" /><path d="M0,-30 L30,30 L-30,30 Z" fill="none" stroke="black" transform="translate(131.885834788574,333.25027855669254) rotate(261.44821170827646) scale(0.91464059832669)" /><g><path d="M0,-30 L30,30 L-30,30 Z" fill="none" stroke="black" transform="translate(280.26242771566285,248.6222300882892) rotate(174.05956777259982) scale(1.0103161814922232)" /><path d="M0,-30 L30,30 L-30,30 Z" fill="none" stroke="black" transform="translate(280.26242771566285,248.6222300882892) rotate(174.05956777259982) scale(0.7072213270445562)" /><path d="M0,-30 L30,30 L-30,30 Z" fill="none" stroke="black" transform="translate(280.26242771566285,248.6222300882892) rotate(174.05956777259982) scale(0.40412647259688933)" /></g><path d="M0,-30 L30,30 L-30,30 Z" fill="none" stroke="black" transform="translate(229.2053529097229,205.05778410267098) rotate(249.10947699280064) scale(0.968927992837129)" /><path d="M0,-30 L30,30 L-30,30 Z" fill="none" stroke="black" transform="translate(268.84550392492565,159.19223495310615) rotate(151.72036991218363) scale(0.8778467178131355)" /><path d="M0,-30 L30,30 L-30,30 Z" fill="none" stroke="black" transform="translate(245.20637504171347,76.47961670573486) rotate(37.645102382023595) scale(0.8455265450222933)" /><g><path d="M0.0,-30.0 L8.8,-12.1 L28.5,-9.3 L14.3,4.6 L17.6,24.3 L0.0,15.0 L-17.6,24.3 L-14.3,4.6 L-28.5,-9.3 L-8.8,-12.1 Z" fill="none" stroke="black" transform="translate(235.8544193999,245.78869522904907) rotate(148.69215875295575) scale(0.8699683501376418)" /><path d="M0.0,-30.0 L8.8,-12.1 L28.5,-9.3 L14.3,4.6 L17.6,24.3 L0.0,15.0 L-17.6,24.3 L-14.3,4.6 L-28.5,-9.3 L-8.8,-12.1 Z" fill="none" stroke="black" transform="translate(235.8544193999,245.78869522904907) rotate(148.69215875295575) scale(0.6089778450963492)" /></g><path d="M0.0,-30.0 L8.8,-12.1 L28.5,-9.3 L14.3,4.6 L17.6,24.3 L0.0,15.0 L-17.6,24.3 L-14.3,4.6 L-28.5,-9.3 L-8.8,-12.1 Z" fill="none" stroke="black" transform="translate(292.45954066377476,337.98585820416304) rotate(279.5685707902979) scale(0.8013811001162412)" /><path d="M0.0,-30.0 L8.8,-12.1 L28.5,-9.3 L14.3,4.6 L17.6,24.3 L0.0,15.0 L-17.6,24.3 L-14.3,4.6 L-28.5,-9.3 L-8.8,-12.1 Z" fill="none" stroke="black" transform="translate(81.79232950308159,169.88192818521924) rotate(120.06652364684741) scale(0.8481770748477437)" /><g><path d="M0,0 m-30,0 a30,30 0 1,0 60,0 a30,30 0 1,0 -60,0" fill="none" stroke="black" transform="translate(155.1005758369199,268.21714640776645) rotate(4.831811929299548) scale(0.8569716109913764)" /><path d="M0,0 m-30,0 a30,30 0 1,0 60,0 a30,30 0 1,0 -60,0" fill="none" stroke="black" transform="translate(155.1005758369199,268.21714640776645) rotate(4.831811929299548) scale(0.5998801276939635)" /></g><path d="M0,0 m-30,0 a30,30 0 1,0 60,0 a30,30 0 1,0 -60,0" fill="none" stroke="black" transform="translate(188.4910930751343,83.51622090790949) rotate(320.25824317190364) scale(1.0671076936595782)" /><path d="M0,0 m-30,0 a30,30 0 1,0 60,0 a30,30 0 1,0 -60,0" fill="none" stroke="black" transform="translate(336.8086717875045,298.7211171668457) rotate(176.70218222733337) scale(0.8053650346751694)" /><g><path d="M0,0 m-30,0 a30,30 0 1,0 60,0 a30,30 0 1,0 -60,0" fill="none" stroke="black" transform="translate(178.99907375736842,149.47937401037586) rotate(177.0915401284927) scale(0.8239348325815965)" /><path d="M0,0 m-30,0 a30,30 0 1,0 60,0 a30,30 0 1,0 -60,0" fill="none" stroke="black" transform="translate(178.99907375736842,149.47937401037586) rotate(177.0915401284927) scale(0.5767543828071175)" /></g><g><path d="M-30,-20 h60 v40 h-60 Z" fill="none" stroke="black" transform="translate(309.64867270544653,251.3339482227422) rotate(260.188725915077) scale(0.8632948301963653)" /><path d="M-30,-20 h60 v40 h-60 Z" fill="none" stroke="black" transform="translate(309.64867270544653,251.3339482227422) rotate(260.188725915077) scale(0.6043063811374557)" /></g></svg>