<svg baseProfile="full" height="400" version="1.1" width="400" xmlns="http://www.w3.org/2000/svg" xmlns:ev="http://www.w3.org/2001/xml-events" xmlns:xlink="http://www.w3.org/1999/xlink"><defs /><rect fill="white" height="100%" width="100%" x="0" y="0" /><g><path d="M0,0 m-30,0 a30,30 0 1,0 60,0 a30,30 0 1,0 -60,0" fill="none" stroke="black" transform="translate(220.82093348272304,268.94465022863847) rotate(162.14591948508948) scale(1.5695016658304208)" /><path d="M0,0 m-30,0 a30,30 0 1,0 60,0 a30,30 0 1,0 -60,0" fill="none" stroke="black" transform="translate(220.82093348272304,268.94465022863847) rotate(162.14591948508948) scale(1.0986511660812945)" /></g><path d="M0,0 m-30,0 a30,30 0 1,0 60,0 a30,30 0 1,0 -60,0" fill="none" stroke="black" transform="translate(151.61411065494283,179.8315147703582) rotate(198.15280056536218) scale(1.976024401192459)" /><g><path d="M0,0 m-30,0 a30,30 0 1,0 60,0 a30,30 0 1,0 -60,0" fill="none" stroke="black" transform="translate(311.17587435024507,173.28071696707786) rotate(91.33090548015225) scale(1.1415649181116463)" /><path d="M0,0 m-30,0 a30,30 0 1,0 60,0 a30,30 0 1,0 -60,0" fill="none" stroke="black" transform="translate(311.17587435024507,173.28071696707786) rotate(91.33090548015225) scale(0.7990954426781524)" /></g><path d="M0,0 m-30,0 a30,30 0 1,0 60,0 a30,30 0 1,0 -60,0" fill="none" stroke="black" transform="translate(113.69579290463611,252.73762364001036) rotate(149.92655258307914) scale(1.1569273788742973)" /><path d="M0,0 m-30,0 a30,30 0 1,0 60,0 a30,30 0 1,0 -60,0" fill="none" stroke="black" transform="translate(304.0212041331972,104.02225597577957) rotate(191.72846199963885) scale(1.1011462306701354)" /><path d="M0,0 m-30,0 a30,30 0 1,0 60,0 a30,30 0 1,0 -60,0" fill="none" stroke="black" transform="translate(279.64711980449897,256.24366426465787) rotate(81.71406357114354) scale(1.2185608332457127)" /><g><path d="M0,0 m-30,0 a30,30 0 1,0 60,0 a30,30 0 1,0 -60,0" fill="none" stroke="black" transform="translate(244.91114671599115,146.0077511649689) rotate(41.307476146818004) scale(1.1390341680150349)" /><path d="M0,0 m-30,0 a30,30 0 1,0 60,0 a30,30 0 1,0 -60,0" fill="none" stroke="black" transform="translate(244.91114671599115,146.0077511649689) rotate(41.307476146818004) scale(0.7973239176105243)" /><path d="M0,0 m-30,0 a30,30 0 1,0 60,0 a30,30 0 1,0 -60,0" fill="none" stroke="black" transform="translate(244.91114671599115,146.0077511649689) rotate(41.307476146818004) scale(0.455613667206014)" /></g><path d="M0,0 m-30,0 a30,30 0 1,0 60,0 a30,30 0 1,0 -60,0" fill="none" stroke="black" transform="translate(134.87889527102513,101.21878043777448) rotate(259.2018630003568) scale(0.9653864590949814)" /><path d="M0.0,-30.0 L8.8,-12.1 L28.5,-9.3 L14.3,4.6 L17.6,24.3 L0.0,15.0 L-17.6,24.3 L-14.3,4.6 L-28.5,-9.3 L-8.8,-12.1 Z" fill="none" stroke="black" transform="translate(223.4474443704197,111.20415007966128) rotate(64.11593400017705) scale(0.8079492995108648)" /><path d="M0.0,-30.0 L8.8,-12.1 L28.5,-9.3 L14.3,4.6 L17.6,24.3 L0.0,15.0 L-17.6,24.3 L-14.3,4.6 L-28.5,-9.3 L-8.8,-12.1 Z" fill="none" stroke="black" transform="translate(141.4066091347449,298.4792225894962) rotate(59.89768336905517) scale(1.1489349799873891)" /><g><path d="M0.0,-30.0 L8.8,-12.1 L28.5,-9.3 L14.3,4.6 L17.6,24.3 L0.0,15.0 L-17.6,24.3 L-14.3,4.6 L-28.5,-9.3 L-8.8,-12.1 Z" fill="none" stroke="black" transform="translate(263.17060781808175,317.9648939618884) rotate(85.40065470201421) scale(0.8518969511208658)" /><path d="M0.0,-30.0 L8.8,-12.1 L28.5,-9.3 L14.3,4.6 L17.6,24.3 L0.0,15.0 L-17.6,24.3 L-14.3,4.6 L-28.5,-9.3 L-8.8,-12.1 Z" fill="none" stroke="black" transform="translate(263.17060781808175,317.9648939618884) rotate(85.40065470201421) scale(0.5963278657846061)" /><path d="M0.0,-30.0 L8.8,-12.1 L28.5,-9.3 L14.3,4.6 L17.6,24.3 L0.0,15.0 L-17.6,24.3 L-14.3,4.6 L-28.5,-9.3 L-8.8,-12.1 Z" fill="none" stroke="black" transform="translate(263.17060781808175,317.9648939618884) rotate(85.40065470201421) scale(0.34075878044834634)" /></g><path d="M0.0,-30.0 L8.8,-12.1 L28.5,-9.3 L14.3,4.6 L17.6,24.3 L0.0,15.0 L-17.6,24.3 L-14.3,4.6 L-28.5,-9.3 L-8.8,-12.1 Z" fill="none" stroke="black" transform="translate(337.66293212289276,214.65367750926518) rotate(164.29722962106916) scale(0.8067675853081768)" /><path d="M0.0,-30.0 L8.8,-12.1 L28.5,-9.3 L14.3,4.6 L17.6,24.3 L0.0,15.0 L-17.6,24.3 L-14.3,4.6 L-28.5,-9.3 L-8.8,-12.1 Z" fill="none" stroke="black" transform="translate(271.8018318432006,223.67543388455766) rotate(257.6077241048269) scale(0.8235205089251677)" /><path d="M30,0 L15,-26 L-15,-26 L-30,0 L-15,26 L15,26 Z" fill="none" stroke="black" transform="translate(238.4892644657408,81.82867792639763) rotate(337.29871728463905) scale(0.9866284182123922)" /><path d="M30,0 L15,-26 L-15,-26 L-30,0 L-15,26 L15,26 Z" fill="none" stroke="black" transform="translate(316.0358184983995,288.57907366994635) rotate(219.89105806944292) scale(0.8202107222138998)" /><path d="M30,0 L15,-26 L-15,-26 L-30,0 L-15,26 L15,26 Z" fill="none" stroke="black" transform="translate(93.01232114882846,86.00289557889309) rotate(186.5517105386833) scale(0.9703881298119841)" /><g><path d="M30,0 L15,-26 L-15,-26 L-30,0 L-15,26 L15,26 Z" fill="none" stroke="black" transform="translate(173.20339928802724,114.41686314736671) rotate(338.1173052188435) scale(0.9369813390144959)" /><path d="M30,0 L15,-26 L-15,-26 L-30,0 L-15,26 L15,26 Z" fill="none" stroke="black" transform="translate(173.20339928802724,114.41686314736671) rotate(338.1173052188435) scale(0.655886937310147)" /><path d="M30,0 L15,-26 L-15,-26 L-30,0 L-15,26 L15,26 Z" fill="none" stroke="black" transform="translate(173.20339928802724,114.41686314736671) rotate(338.1173052188435) scale(0.3747925356057984)" /></g><g><path d="M-30,-20 h60 v40 h-60 Z" fill="none" stroke="black" transform="translate(73.35816647210181,211.55548741126802) rotate(334.92517007132136) scale(0.9280540655456764)" /><path d="M-30,-20 h60 v40 h-60 Z" fill="none" stroke="black" transform="translate(73.35816647210181,211.55548741126802) rotate(334.92517007132136) scale(0.6496378458819734)" /></g><path d="M-30,-20 h60 v40 h-60 Z" fill="none" stroke="black" transform="translate(98.37682438436832,326.373068704154) rotate(307.90790322846607) scale(1.0170590581293817)" /><path d="M-30,-20 h60 v40 h-60 Z" fill="none" stroke="black" transform="translate(306.361824386755,215.83459315537985) rotate(97.61466283397883) scale(0.8038293087748652)" /><path d="M-30,-20 h60 v40 h-60 Z" fill="none" stroke="black" transform="translate(201.86522206311216,70.45766663479303) rotate(274.7125283340048) scale(0.8241248306923374)" /><g><path d="M-30,-20 h60 v40 h-60 Z" fill="none" stroke="black" transform="translate(273.41254395982276,187.46579552095392) rotate(169.1569605847332) scale(0.9118392710732811)" /><path d="M-30,-20 h60 v40 h-60 Z" fill="none" stroke="black" transform="translate(273.41254395982276,187.46579552095392) rotate(169.1569605847332) scale(0.6382874897512968)" /></g><g><path d="M-30,-20 h60 v40 h-60 Z" fill="none" stroke="black" transform="translate(68.35801890176835,278.93888088078336) rotate(189.97017834856888) scale(0.9221215257554423)" /><path d="M-30,-20 h60 v40 h-60 Z" fill="none" stroke="black" transform="translate(68.35801890176835,278.93888088078336) rotate(189.97017834856888) scale(0.6454850680288096)" /><path d="M-30,-20 h60 v40 h-60 Z" fill="none" stroke="black" transform="translate(68.35801890176835,278.93888088078336) rotate(189.97017834856888) scale(0.3688486103021769)" /></g><path d="M-30,-20 h60 v40 h-60 Z" fill="none" stroke="black" transform="translate(171.3080860807574,327.2240409927877) rotate(244.02042554263156) scale(0.8544505953423787)" /><path d="M0.0,-30.0 L28.5,-9.3 L17.6,24.3 L-17.6,24.3 L-28.5,-9.3 Z" fill="none" stroke="black" transform="translate(169.21330505325398,271.4666227081806) rotate(349.64074479554563) scale(0.8561592123520285)" /><path d="M0.0,-30.0 L28.5,-9.3 L17.6,24.3 L-17.6,24.3 L-28.5,-9.3 Z" fill="none" stroke="black" transform="translate(80.75678097217916,156.03280371905203) rotate(347.53293913577255) scale(0.8627008169495107)" /><path d="M0.0,-30.0 L28.5,-9.3 L17.6,24.3 L-17.6,24.3 L-28.5,-9.3 Z" fill="none" stroke="black" transform="translate(265.7667688377128,63.38547210052227) rotate(320.1846874564835) scale(0.815174139633862)" /><path d="M0.0,-30.0 L28.5,-9.3 L17.6,24.3 L-17.6,24.3 L-28.5,-9.3 Z" fill="none" stroke="black" transform="translate(218.04241290954678,195.87545770490695) rotate(97.1606134258969) scale(0.9248191121090644)" /><path d="M0.0,-30.0 L28.5,-9.3 L17.6,24.3 L-17.6,24.3 L-28.5,-9.3 Z" fill="none" stroke="black" transform="translate(323.12392271591773,324.86562947514165) rotate(315.7415415654248) scale(0.9236146447050524)" /><g><path d="M0,-30 L30,30 L-30,30 Z" fill="none" stroke="black" transform="translate(325.4330599039214,257.4262212122182) rotate(312.5284530288064) scale(0.8577000475219799)" /><path d="M0,-30 L30,30 L-30,30 Z" fill="none" stroke="black" transform="translate(325.4330599039214,257.4262212122182) rotate(312.5284530288064) scale(0.6003900332653859)" /></g><path d="M27.7,-11.5 L27.7,11.5 L11.5,27.7 L-11.5,27.7 L-27.7,11.5 L-27.7,-11.5 L-11.5,-27.7 L11.5,-27.7 Z" fill="none" stroke="black" transform="translate(218.74271286114703,329.03004897475085) rotate(278.001863439037) scale(0.8985545815567373)" /><g><path d="M27.7,-11.5 L27.7,11.5 L11.5,27.7 L-11.5,27.7 L-27.7,11.5 L-27.7,-11.5 L-11.5,-27.7 L11.5,-27.7 Z" fill="none" stroke="black" transform="translate(340.1805903139582,120.80531802700173) rotate(159.8634066592285) scale(0.8067843025575039)" /><path d="M27.7,-11.5 L27.7,11.5 L11.5,27.7 L-11.5,27.7 L-27.7,11.5 L-27.7,-11.5 L-11.5,-27.7 L11.5,-27.7 Z" fill="none" stroke="black" transform="translate(340.1805903139582,120.80531802700173) rotate(159.8634066592285) scale(0.5647490117902527)" /></g></svg>