<svg baseProfile="full" height="400" version="1.1" width="400" xmlns="http://www.w3.org/2000/svg" xmlns:ev="http://www.w3.org/2001/xml-events" xmlns:xlink="http://www.w3.org/1999/xlink"><defs /><rect fill="white" height="100%" width="100%" x="0" y="0" /><path d="M-30,-20 h60 v40 h-60 Z" fill="none" stroke="black" transform="translate(116.27638708722125,132.4853079809457) rotate(30.77324063283462) scale(1.008964927612437)" /><g><path d="M-30,-20 h60 v40 h-60 Z" fill="none" stroke="black" transform="translate(235.18139668755867,239.4700817833075) rotate(123.61402885825282) scale(1.965239044074642)" /><path d="M-30,-20 h60 v40 h-60 Z" fill="none" stroke="black" transform="translate(235.18139668755867,239.4700817833075) rotate(123.61402885825282) scale(1.3756673308522493)" /><path d="M-30,-20 h60 v40 h-60 Z" fill="none" stroke="black" transform="translate(235.18139668755867,239.4700817833075) rotate(123.61402885825282) scale(0.7860956176298568)" /></g><g><path d="M-30,-20 h60 v40 h-60 Z" fill="none" stroke="black" transform="translate(224.2271470312649,121.34658342712501) rotate(93.06401632030739) scale(1.2223409276258925)" /><path d="M-30,-20 h60 v40 h-60 Z" fill="none" stroke="black" transform="translate(224.2271470312649,121.34658342712501) rotate(93.06401632030739) scale(0.8556386493381247)" /></g><path d="M0,0 m-30,0 a30,30 0 1,0 60,0 a30,30 0 1,0 -60,0" fill="none" stroke="black" transform="translate(294.76938383333754,189.92336260970524) rotate(29.042720180515396) scale(0.9639968844518163)" /><path d="M0.0,-30.0 L28.5,-9.3 L17.6,24.3 L-17.6,24.3 L-28.5,-9.3 Z" fill="none" stroke="black" transform="translate(140.06794684442306,278.2184554818463) rotate(140.18387526013996) scale(1.3705657433152212)" /><path d="M0,-30 L30,30 L-30,30 Z" fill="none" stroke="black" transform="translate(207.76912720093324,320.90211631705563) rotate(265.81929415063235) scale(0.9432503153311312)" /><g><path d="M30,0 L15,-26 L-15,-26 L-30,0 L-15,26 L15,26 Z" fill="none" stroke="black" transform="translate(149.02690347993246,193.78720394042978) rotate(214.5072070508336) scale(1.6523211775472872)" /><path d="M30,0 L15,-26 L-15,-26 L-30,0 L-15,26 L15,26 Z" fill="none" stroke="black" transform="translate(149.02690347993246,193.78720394042978) rotate(214.5072070508336) scale(1.156624824283101)" /></g><path d="M30,0 L15,-26 L-15,-26 L-30,0 L-15,26 L15,26 Z" fill="none" stroke="black" transform="translate(65.87754780018082,297.3702232350478) rotate(98.20269670106626) scale(0.910134168315094)" /><path d="M27.7,-11.5 L27.7,11.5 L11.5,27.7 L-11.5,27.7 L-27.7,11.5 L-27.7,-11.5 L-11.5,-27.7 L11.5,-27.7 Z" fill="none" stroke="black" transform="translate(307.86159436257464,267.7251655659406) rotate(229.7169917108912) scale(1.113561030410938)" /><g><path d="M27.7,-11.5 L27.7,11.5 L11.5,27.7 L-11.5,27.7 L-27.7,11.5 L-27.7,-11.5 L-11.5,-27.7 L11.5,-27.7 Z" fill="none" stroke="black" transform="translate(125.43793940734804,86.64867785182373) rotate(109.31702589483784) scale(1.0903070022240207)" /><path d="M27.7,-11.5 L27.7,11.5 L11.5,27.7 L-11.5,27.7 L-27.7,11.5 L-27.7,-11.5 L-11.5,-27.7 L11.5,-27.7 Z" fill="none" stroke="black" transform="translate(125.43793940734804,86.64867785182373) rotate(109.31702589483784) scale(0.7632149015568144)" /></g><path d="M0.0,-30.0 L8.8,-12.1 L28.5,-9.3 L14.3,4.6 L17.6,24.3 L0.0,15.0 L-17.6,24.3 L-14.3,4.6 L-28.5,-9.3 L-8.8,-12.1 Z" fill="none" stroke="black" transform="translate(95.38311203155888,170.38070802844933) rotate(101.24750604320796) scale(0.9039852840987459)" /><g><path d="M0.0,-30.0 L8.8,-12.1 L28.5,-9.3 L14.3,4.6 L17.6,24.3 L0.0,15.0 L-17.6,24.3 L-14.3,4.6 L-28.5,-9.3 L-8.8,-12.1 Z" fill="none" stroke="black" transform="translate(306.59921340439354,151.27145834752207) rotate(119.13021843329248) scale(1.2880568529151497)" /><path d="M0.0,-30.0 L8.8,-12.1 L28.5,-9.3 L14.3,4.6 L17.6,24.3 L0.0,15.0 L-17.6,24.3 L-14.3,4.6 L-28.5,-9.3 L-8.8,-12.1 Z" fill="none" stroke="black" transform="translate(306.59921340439354,151.27145834752207) rotate(119.13021843329248) scale(0.9016397970406047)" /><path d="M0.0,-30.0 L8.8,-12.1 L28.5,-9.3 L14.3,4.6 L17.6,24.3 L0.0,15.0 L-17.6,24.3 L-14.3,4.6 L-28.5,-9.3 L-8.8,-12.1 Z" fill="none" stroke="black" transform="translate(306.59921340439354,151.27145834752207) rotate(119.13021843329248) scale(0.5152227411660599)" /></g></svg>