<svg baseProfile="full" height="400" version="1.1" width="400" xmlns="http://www.w3.org/2000/svg" xmlns:ev="http://www.w3.org/2001/xml-events" xmlns:xlink="http://www.w3.org/1999/xlink"><defs /><rect fill="white" height="100%" width="100%" x="0" y="0" /><g><path d="M0,-30 L30,30 L-30,30 Z" fill="none" stroke="black" transform="translate(248.98361860080934,199.31828488111552) rotate(188.20779265683984) scale(0.9836674249890376)" /><path d="M0,-30 L30,30 L-30,30 Z" fill="none" stroke="black" transform="translate(248.98361860080934,199.31828488111552) rotate(188.20779265683984) scale(0.6885671974923263)" /><path d="M0,-30 L30,30 L-30,30 Z" fill="none" stroke="black" transform="translate(248.98361860080934,199.31828488111552) rotate(188.20779265683984) scale(0.39346696999561503)" /></g><path d="M0,-30 L30,30 L-30,30 Z" fill="none" stroke="black" transform="translate(182.93120389266173,238.53094204347445) rotate(112.02020051322336) scale(1.405558079257382)" /><path d="M0,-30 L30,30 L-30,30 Z" fill="none" stroke="black" transform="translate(88.1731773780655,218.1725933216059) rotate(249.77360242472324) scale(1.0034099325916812)" /><g><path d="M27.7,-11.5 L27.7,11.5 L11.5,27.7 L-11.5,27.7 L-27.7,11.5 L-27.7,-11.5 L-11.5,-27.7 L11.5,-27.7 Z" fill="none" stroke="black" transform="translate(131.24452096861967,127.56108300882408) rotate(254.58383086653473) scale(1.4947490304156617)" /><path d="M27.7,-11.5 L27.7,11.5 L11.5,27.7 L-11.5,27.7 L-27.7,11.5 L-27.7,-11.5 L-11.5,-27.7 L11.5,-27.7 Z" fill="none" stroke="black" transform="translate(131.24452096861967,127.56108300882408) rotate(254.58383086653473) scale(1.0463243212909632)" /><path d="M27.7,-11.5 L27.7,11.5 L11.5,27.7 L-11.5,27.7 L-27.7,11.5 L-27.7,-11.5 L-11.5,-27.7 L11.5,-27.7 Z" fill="none" stroke="black" transform="translate(131.24452096861967,127.56108300882408) rotate(254.58383086653473) scale(0.5978996121662646)" /></g><path d="M-30,-20 h60 v40 h-60 Z" fill="none" stroke="black" transform="translate(206.15768553902444,136.10671061844295) rotate(163.88358911232186) scale(1.1430005185087264)" /><g><path d="M-30,-20 h60 v40 h-60 Z" fill="none" stroke="black" transform="translate(82.9300771594471,281.1240230239385) rotate(312.17598791009743) scale(0.8610255023859162)" /><path d="M-30,-20 h60 v40 h-60 Z" fill="none" stroke="black" transform="translate(82.9300771594471,281.1240230239385) rotate(312.17598791009743) scale(0.6027178516701414)" /><path d="M-30,-20 h60 v40 h-60 Z" fill="none" stroke="black" transform="translate(82.9300771594471,281.1240230239385) rotate(312.17598791009743) scale(0.34441020095436653)" /></g></svg>