<svg baseProfile="full" height="400" version="1.1" width="400" xmlns="http://www.w3.org/2000/svg" xmlns:ev="http://www.w3.org/2001/xml-events" xmlns:xlink="http://www.w3.org/1999/xlink"><defs /><rect fill="white" height="100%" width="100%" x="0" y="0" /><g><path d="M27.7,-11.5 L27.7,11.5 L11.5,27.7 L-11.5,27.7 L-27.7,11.5 L-27.7,-11.5 L-11.5,-27.7 L11.5,-27.7 Z" fill="none" stroke="black" transform="translate(147.2592425877239,191.84641524833532) rotate(21.775006085879728) scale(1.1516028971848524)" /><path d="M27.7,-11.5 L27.7,11.5 L11.5,27.7 L-11.5,27.7 L-27.7,11.5 L-27.7,-11.5 L-11.5,-27.7 L11.5,-27.7 Z" fill="none" stroke="black" transform="translate(147.2592425877239,191.84641524833532) rotate(21.775006085879728) scale(0.8061220280293967)" /><path d="M27.7,-11.5 L27.7,11.5 L11.5,27.7 L-11.5,27.7 L-27.7,11.5 L-27.7,-11.5 L-11.5,-27.7 L11.5,-27.7 Z" fill="none" stroke="black" transform="translate(147.2592425877239,191.84641524833532) rotate(21.775006085879728) scale(0.46064115887394097)" /></g><path d="M0,-30 L30,30 L-30,30 Z" fill="none" stroke="black" transform="translate(237.5112198185357,257.31086012503283) rotate(192.13287949939985) scale(1.8422365950612922)" /><path d="M0,-30 L30,30 L-30,30 Z" fill="none" stroke="black" transform="translate(183.43893836506322,121.85818346903145) rotate(233.8013737701624) scale(1.452363544186958)" /><path d="M0.0,-30.0 L8.8,-12.1 L28.5,-9.3 L14.3,4.6 L17.6,24.3 L0.0,15.0 L-17.6,24.3 L-14.3,4.6 L-28.5,-9.3 L-8.8,-12.1 Z" fill="none" stroke="black" transform="translate(292.36935257558497,153.9203391829802) rotate(324.3067830926896) scale(1.2744780326069545)" /><path d="M0.0,-30.0 L8.8,-12.1 L28.5,-9.3 L14.3,4.6 L17.6,24.3 L0.0,15.0 L-17.6,24.3 L-14.3,4.6 L-28.5,-9.3 L-8.8,-12.1 Z" fill="none" stroke="black" transform="translate(109.81247774833939,279.39614055720153) rotate(337.66035447569834) scale(1.4525218968089404)" /><g><path d="M0.0,-30.0 L8.8,-12.1 L28.5,-9.3 L14.3,4.6 L17.6,24.3 L0.0,15.0 L-17.6,24.3 L-14.3,4.6 L-28.5,-9.3 L-8.8,-12.1 Z" fill="none" stroke="black" transform="translate(233.0018380309659,332.60727609998776) rotate(330.54206351465433) scale(0.8113259567142622)" /><path d="M0.0,-30.0 L8.8,-12.1 L28.5,-9.3 L14.3,4.6 L17.6,24.3 L0.0,15.0 L-17.6,24.3 L-14.3,4.6 L-28.5,-9.3 L-8.8,-12.1 Z" fill="none" stroke="black" transform="translate(233.0018380309659,332.60727609998776) rotate(330.54206351465433) scale(0.5679281696999835)" /><path d="M0.0,-30.0 L8.8,-12.1 L28.5,-9.3 L14.3,4.6 L17.6,24.3 L0.0,15.0 L-17.6,24.3 L-14.3,4.6 L-28.5,-9.3 L-8.8,-12.1 Z" fill="none" stroke="black" transform="translate(233.0018380309659,332.60727609998776) rotate(330.54206351465433) scale(0.3245303826857049)" /></g><g><path d="M0.0,-30.0 L8.8,-12.1 L28.5,-9.3 L14.3,4.6 L17.6,24.3 L0.0,15.0 L-17.6,24.3 L-14.3,4.6 L-28.5,-9.3 L-8.8,-12.1 Z" fill="none" stroke="black" transform="translate(87.58341862451229,144.19731538059563) rotate(23.554224176326095) scale(1.1284239673071026)" /><path d="M0.0,-30.0 L8.8,-12.1 L28.5,-9.3 L14.3,4.6 L17.6,24.3 L0.0,15.0 L-17.6,24.3 L-14.3,4.6 L-28.5,-9.3 L-8.8,-12.1 Z" fill="none" stroke="black" transform="translate(87.58341862451229,144.19731538059563) rotate(23.554224176326095) scale(0.7898967771149717)" /><path d="M0.0,-30.0 L8.8,-12.1 L28.5,-9.3 L14.3,4.6 L17.6,24.3 L0.0,15.0 L-17.6,24.3 L-14.3,4.6 L-28.5,-9.3 L-8.8,-12.1 Z" fill="none" stroke="black" transform="translate(87.58341862451229,144.19731538059563) rotate(23.554224176326095) scale(0.45136958692284107)" /></g><path d="M0.0,-30.0 L28.5,-9.3 L17.6,24.3 L-17.6,24.3 L-28.5,-9.3 Z" fill="none" stroke="black" transform="translate(269.87441811114127,130.58064966306392) rotate(341.7041520789959) scale(0.8663512182619109)" /><path d="M0.0,-30.0 L28.5,-9.3 L17.6,24.3 L-17.6,24.3 L-28.5,-9.3 Z" fill="none" stroke="black" transform="translate(304.45706197549777,112.39145993682925) rotate(142.0890797458119) scale(1.1460555777559054)" /><path d="M0.0,-30.0 L28.5,-9.3 L17.6,24.3 L-17.6,24.3 L-28.5,-9.3 Z" fill="none" stroke="black" transform="translate(155.6156931515018,74.08796238400518) rotate(286.80707125396344) scale(0.8624364000487037)" /><path d="M0.0,-30.0 L28.5,-9.3 L17.6,24.3 L-17.6,24.3 L-28.5,-9.3 Z" fill="none" stroke="black" transform="translate(247.13067769996997,197.25149361126086) rotate(107.96678077711036) scale(0.9669590610399437)" /><g><path d="M0.0,-30.0 L28.5,-9.3 L17.6,24.3 L-17.6,24.3 L-28.5,-9.3 Z" fill="none" stroke="black" transform="translate(301.07812818458353,288.8704759672981) rotate(311.6452875109448) scale(1.1650133825857192)" /><path d="M0.0,-30.0 L28.5,-9.3 L17.6,24.3 L-17.6,24.3 L-28.5,-9.3 Z" fill="none" stroke="black" transform="translate(301.07812818458353,288.8704759672981) rotate(311.6452875109448) scale(0.8155093678100034)" /><path d="M0.0,-30.0 L28.5,-9.3 L17.6,24.3 L-17.6,24.3 L-28.5,-9.3 Z" fill="none" stroke="black" transform="translate(301.07812818458353,288.8704759672981) rotate(311.6452875109448) scale(0.4660053530342877)" /></g><path d="M30,0 L15,-26 L-15,-26 L-30,0 L-15,26 L15,26 Z" fill="none" stroke="black" transform="translate(165.6913513822576,264.0063838930868) rotate(16.9527277145807) scale(1.1253210206023296)" /><g><path d="M30,0 L15,-26 L-15,-26 L-30,0 L-15,26 L15,26 Z" fill="none" stroke="black" transform="translate(180.56537254024983,203.5131365744099) rotate(278.2783467867689) scale(1.080604188602352)" /><path d="M30,0 L15,-26 L-15,-26 L-30,0 L-15,26 L15,26 Z" fill="none" stroke="black" transform="translate(180.56537254024983,203.5131365744099) rotate(278.2783467867689) scale(0.7564229320216465)" /></g><path d="M30,0 L15,-26 L-15,-26 L-30,0 L-15,26 L15,26 Z" fill="none" stroke="black" transform="translate(225.66490009686035,315.42542094451716) rotate(80.35802906612984) scale(0.8285819506094474)" /><g><path d="M30,0 L15,-26 L-15,-26 L-30,0 L-15,26 L15,26 Z" fill="none" stroke="black" transform="translate(297.4329081103127,245.4138805329287) rotate(113.61411244752448) scale(0.8128222962197014)" /><path d="M30,0 L15,-26 L-15,-26 L-30,0 L-15,26 L15,26 Z" fill="none" stroke="black" transform="translate(297.4329081103127,245.4138805329287) rotate(113.61411244752448) scale(0.5689756073537909)" /></g><g><path d="M-30,-20 h60 v40 h-60 Z" fill="none" stroke="black" transform="translate(109.03268472945447,217.26649657702148) rotate(212.52749031909036) scale(1.1346258188135758)" /><path d="M-30,-20 h60 v40 h-60 Z" fill="none" stroke="black" transform="translate(109.03268472945447,217.26649657702148) rotate(212.52749031909036) scale(0.794238073169503)" /><path d="M-30,-20 h60 v40 h-60 Z" fill="none" stroke="black" transform="translate(109.03268472945447,217.26649657702148) rotate(212.52749031909036) scale(0.45385032752543036)" /></g><g><path d="M-30,-20 h60 v40 h-60 Z" fill="none" stroke="black" transform="translate(268.61399175271833,170.1133477486369) rotate(324.066940979685) scale(0.8242758553421708)" /><path d="M-30,-20 h60 v40 h-60 Z" fill="none" stroke="black" transform="translate(268.61399175271833,170.1133477486369) rotate(324.066940979685) scale(0.5769930987395195)" /></g><path d="M-30,-20 h60 v40 h-60 Z" fill="none" stroke="black" transform="translate(265.97342608243866,218.99991862726137) rotate(282.60883884197926) scale(0.8753140727540826)" /><g><path d="M-30,-20 h60 v40 h-60 Z" fill="none" stroke="black" transform="translate(182.16143759381782,168.21011131673134) rotate(280.6977367410896) scale(0.802232272581718)" /><path d="M-30,-20 h60 v40 h-60 Z" fill="none" stroke="black" transform="translate(182.16143759381782,168.21011131673134) rotate(280.6977367410896) scale(0.5615625908072026)" /></g><path d="M-30,-20 h60 v40 h-60 Z" fill="none" stroke="black" transform="translate(223.81954319446817,178.7798279904414) rotate(297.5938097069567) scale(0.8033091651189628)" /><path d="M-30,-20 h60 v40 h-60 Z" fill="none" stroke="black" transform="translate(286.84671889104305,207.96263175645646) rotate(172.61472245991007) scale(0.8198215799921719)" /><path d="M0,0 m-30,0 a30,30 0 1,0 60,0 a30,30 0 1,0 -60,0" fill="none" stroke="black" transform="translate(334.30211576234217,75.62327429308141) rotate(159.59463591668052) scale(0.8271231687974339)" /><path d="M0,0 m-30,0 a30,30 0 1,0 60,0 a30,30 0 1,0 -60,0" fill="none" stroke="black" transform="translate(109.52300152543907,73.99773323521647) rotate(352.49031059633927) scale(0.9874355715716514)" /><path d="M0,0 m-30,0 a30,30 0 1,0 60,0 a30,30 0 1,0 -60,0" fill="none" stroke="black" transform="translate(84.12236894169318,72.86555321890009) rotate(346.36652794544943) scale(0.9735710459853149)" /><path d="M0,0 m-30,0 a30,30 0 1,0 60,0 a30,30 0 1,0 -60,0" fill="none" stroke="black" transform="translate(144.75244517706648,249.29819725872676) rotate(1.1097970983754157) scale(0.8137794532937653)" /><path d="M0,0 m-30,0 a30,30 0 1,0 60,0 a30,30 0 1,0 -60,0" fill="none" stroke="black" transform="translate(317.80864189778436,221.6565078697247) rotate(215.1063839800429) scale(1.0086769197819716)" /><path d="M0,0 m-30,0 a30,30 0 1,0 60,0 a30,30 0 1,0 -60,0" fill="none" stroke="black" transform="translate(300.64829929305006,71.21535627307864) rotate(213.52506822292443) scale(0.9728334009474924)" /></svg>