<svg baseProfile="full" height="400" version="1.1" width="400" xmlns="http://www.w3.org/2000/svg" xmlns:ev="http://www.w3.org/2001/xml-events" xmlns:xlink="http://www.w3.org/1999/xlink"><defs /><rect fill="white" height="100%" width="100%" x="0" y="0" /><g><path d="M30,0 L15,-26 L-15,-26 L-30,0 L-15,26 L15,26 Z" fill="none" stroke="black" transform="translate(68.05391435202553,60.52838613773034) rotate(11.104116542946576) scale(0.8134673842264244)" /><path d="M30,0 L15,-26 L-15,-26 L-30,0 L-15,26 L15,26 Z" fill="none" stroke="black" transform="translate(68.05391435202553,60.52838613773034) rotate(11.104116542946576) scale(0.569427168958497)" /></g><g><path d="M30,0 L15,-26 L-15,-26 L-30,0 L-15,26 L15,26 Z" fill="none" stroke="black" transform="translate(145.3035781948624,226.82222815157417) rotate(276.7012391487357) scale(1.5257752890437444)" /><path d="M30,0 L15,-26 L-15,-26 L-30,0 L-15,26 L15,26 Z" fill="none" stroke="black" transform="translate(145.3035781948624,226.82222815157417) rotate(276.7012391487357) scale(1.068042702330621)" /></g><g><path d="M30,0 L15,-26 L-15,-26 L-30,0 L-15,26 L15,26 Z" fill="none" stroke="black" transform="translate(268.8321856027125,155.52693568703836) rotate(167.60101455185983) scale(1.8175221833603785)" /><path d="M30,0 L15,-26 L-15,-26 L-30,0 L-15,26 L15,26 Z" fill="none" stroke="black" transform="translate(268.8321856027125,155.52693568703836) rotate(167.60101455185983) scale(1.2722655283522648)" /></g><path d="M27.7,-11.5 L27.7,11.5 L11.5,27.7 L-11.5,27.7 L-27.7,11.5 L-27.7,-11.5 L-11.5,-27.7 L11.5,-27.7 Z" fill="none" stroke="black" transform="translate(147.06441119178493,131.9593963249209) rotate(291.0130185572941) scale(0.8680422289070809)" /><path d="M27.7,-11.5 L27.7,11.5 L11.5,27.7 L-11.5,27.7 L-27.7,11.5 L-27.7,-11.5 L-11.5,-27.7 L11.5,-27.7 Z" fill="none" stroke="black" transform="translate(289.98087643156197,286.2370249055667) rotate(193.16931259236577) scale(0.9199798837416873)" /></svg>