<svg baseProfile="full" height="400" version="1.1" width="400" xmlns="http://www.w3.org/2000/svg" xmlns:ev="http://www.w3.org/2001/xml-events" xmlns:xlink="http://www.w3.org/1999/xlink"><defs /><rect fill="white" height="100%" width="100%" x="0" y="0" /><path d="M30,0 L15,-26 L-15,-26 L-30,0 L-15,26 L15,26 Z" fill="none" stroke="black" transform="translate(221.13490743731438,213.87458671723738) rotate(169.23486617663187) scale(1.2284141304997613)" /><g><path d="M0.0,-30.0 L28.5,-9.3 L17.6,24.3 L-17.6,24.3 L-28.5,-9.3 Z" fill="none" stroke="black" transform="translate(187.1053127484734,100.07729819709853) rotate(62.5611919152695) scale(1.148570360430056)" /><path d="M0.0,-30.0 L28.5,-9.3 L17.6,24.3 L-17.6,24.3 L-28.5,-9.3 Z" fill="none" stroke="black" transform="translate(187.1053127484734,100.07729819709853) rotate(62.5611919152695) scale(0.8039992523010391)" /></g><path d="M0.0,-30.0 L28.5,-9.3 L17.6,24.3 L-17.6,24.3 L-28.5,-9.3 Z" fill="none" stroke="black" transform="translate(266.5204378287572,110.87363658619209) rotate(274.53991288823215) scale(1.4833350068492765)" /><g><path d="M0.0,-30.0 L28.5,-9.3 L17.6,24.3 L-17.6,24.3 L-28.5,-9.3 Z" fill="none" stroke="black" transform="translate(309.96501430078666,190.0959403245431) rotate(210.1280676053534) scale(1.129714699906974)" /><path d="M0.0,-30.0 L28.5,-9.3 L17.6,24.3 L-17.6,24.3 L-28.5,-9.3 Z" fill="none" stroke="black" transform="translate(309.96501430078666,190.0959403245431) rotate(210.1280676053534) scale(0.7908002899348818)" /><path d="M0.0,-30.0 L28.5,-9.3 L17.6,24.3 L-17.6,24.3 L-28.5,-9.3 Z" fill="none" stroke="black" transform="translate(309.96501430078666,190.0959403245431) rotate(210.1280676053534) scale(0.4518858799627896)" /></g><g><path d="M27.7,-11.5 L27.7,11.5 L11.5,27.7 L-11.5,27.7 L-27.7,11.5 L-27.7,-11.5 L-11.5,-27.7 L11.5,-27.7 Z" fill="none" stroke="black" transform="translate(141.58712165113965,205.72301985281933) rotate(97.47050838236615) scale(1.2738220119257453)" /><path d="M27.7,-11.5 L27.7,11.5 L11.5,27.7 L-11.5,27.7 L-27.7,11.5 L-27.7,-11.5 L-11.5,-27.7 L11.5,-27.7 Z" fill="none" stroke="black" transform="translate(141.58712165113965,205.72301985281933) rotate(97.47050838236615) scale(0.8916754083480216)" /></g><path d="M27.7,-11.5 L27.7,11.5 L11.5,27.7 L-11.5,27.7 L-27.7,11.5 L-27.7,-11.5 L-11.5,-27.7 L11.5,-27.7 Z" fill="none" stroke="black" transform="translate(311.2807590345407,260.7932502342379) rotate(198.21020361901753) scale(1.183108022473687)" /><g><path d="M0,0 m-30,0 a30,30 0 1,0 60,0 a30,30 0 1,0 -60,0" fill="none" stroke="black" transform="translate(154.36910639546602,122.13066828443266) rotate(316.1338125174555) scale(0.8883418467792423)" /><path d="M0,0 m-30,0 a30,30 0 1,0 60,0 a30,30 0 1,0 -60,0" fill="none" stroke="black" transform="translate(154.36910639546602,122.13066828443266) rotate(316.1338125174555) scale(0.6218392927454696)" /><path d="M0,0 m-30,0 a30,30 0 1,0 60,0 a30,30 0 1,0 -60,0" fill="none" stroke="black" transform="translate(154.36910639546602,122.13066828443266) rotate(316.1338125174555) scale(0.35533673871169696)" /></g><path d="M0,0 m-30,0 a30,30 0 1,0 60,0 a30,30 0 1,0 -60,0" fill="none" stroke="black" transform="translate(89.02223233227058,144.13626243669296) rotate(111.25738925071974) scale(0.9866413894882416)" /><path d="M0.0,-30.0 L8.8,-12.1 L28.5,-9.3 L14.3,4.6 L17.6,24.3 L0.0,15.0 L-17.6,24.3 L-14.3,4.6 L-28.5,-9.3 L-8.8,-12.1 Z" fill="none" stroke="black" transform="translate(142.285589632533,279.20074919502446) rotate(3.6941870197015447) scale(1.1358688276647242)" /><path d="M0.0,-30.0 L8.8,-12.1 L28.5,-9.3 L14.3,4.6 L17.6,24.3 L0.0,15.0 L-17.6,24.3 L-14.3,4.6 L-28.5,-9.3 L-8.8,-12.1 Z" fill="none" stroke="black" transform="translate(249.35507113888332,314.2495633182097) rotate(336.6378240272976) scale(1.1886556389192213)" /><path d="M0.0,-30.0 L8.8,-12.1 L28.5,-9.3 L14.3,4.6 L17.6,24.3 L0.0,15.0 L-17.6,24.3 L-14.3,4.6 L-28.5,-9.3 L-8.8,-12.1 Z" fill="none" stroke="black" transform="translate(259.98981536639707,262.86583179843876) rotate(0.42984692256389234) scale(1.0603474998567577)" /><path d="M0.0,-30.0 L8.8,-12.1 L28.5,-9.3 L14.3,4.6 L17.6,24.3 L0.0,15.0 L-17.6,24.3 L-14.3,4.6 L-28.5,-9.3 L-8.8,-12.1 Z" fill="none" stroke="black" transform="translate(60.370045956726806,261.40096769584557) rotate(90.87601593369706) scale(0.8333677557448363)" /><path d="M0.0,-30.0 L8.8,-12.1 L28.5,-9.3 L14.3,4.6 L17.6,24.3 L0.0,15.0 L-17.6,24.3 L-14.3,4.6 L-28.5,-9.3 L-8.8,-12.1 Z" fill="none" stroke="black" transform="translate(166.02076132875035,63.03836084914383) rotate(98.8516923803835) scale(0.8271718512676415)" /><path d="M0.0,-30.0 L8.8,-12.1 L28.5,-9.3 L14.3,4.6 L17.6,24.3 L0.0,15.0 L-17.6,24.3 L-14.3,4.6 L-28.5,-9.3 L-8.8,-12.1 Z" fill="none" stroke="black" transform="translate(95.97988686303758,198.4148307120402) rotate(177.19383509946837) scale(1.0537932247860258)" /><g><path d="M0,-30 L30,30 L-30,30 Z" fill="none" stroke="black" transform="translate(97.31790097180209,295.995478501942) rotate(187.00155464361438) scale(0.8766252643819872)" /><path d="M0,-30 L30,30 L-30,30 Z" fill="none" stroke="black" transform="translate(97.31790097180209,295.995478501942) rotate(187.00155464361438) scale(0.613637685067391)" /></g><g><path d="M0,-30 L30,30 L-30,30 Z" fill="none" stroke="black" transform="translate(86.11393804231243,104.2156004006784) rotate(358.1640029772088) scale(0.9944612455110465)" /><path d="M0,-30 L30,30 L-30,30 Z" fill="none" stroke="black" transform="translate(86.11393804231243,104.2156004006784) rotate(358.1640029772088) scale(0.6961228718577326)" /><path d="M0,-30 L30,30 L-30,30 Z" fill="none" stroke="black" transform="translate(86.11393804231243,104.2156004006784) rotate(358.1640029772088) scale(0.39778449820441864)" /></g><path d="M0,-30 L30,30 L-30,30 Z" fill="none" stroke="black" transform="translate(181.64923994970974,265.80261671764094) rotate(1.536998540424177) scale(0.9714629256145347)" /><path d="M-30,-20 h60 v40 h-60 Z" fill="none" stroke="black" transform="translate(174.61827369123688,329.5938126733979) rotate(214.92450971998935) scale(0.8622272277996536)" /><g><path d="M-30,-20 h60 v40 h-60 Z" fill="none" stroke="black" transform="translate(313.4496040300048,324.9506396061615) rotate(333.00950014080115) scale(1.0382565932889594)" /><path d="M-30,-20 h60 v40 h-60 Z" fill="none" stroke="black" transform="translate(313.4496040300048,324.9506396061615) rotate(333.00950014080115) scale(0.7267796153022715)" /><path d="M-30,-20 h60 v40 h-60 Z" fill="none" stroke="black" transform="translate(313.4496040300048,324.9506396061615) rotate(333.00950014080115) scale(0.41530263731558376)" /></g></svg>