<svg baseProfile="full" height="400" version="1.1" width="400" xmlns="http://www.w3.org/2000/svg" xmlns:ev="http://www.w3.org/2001/xml-events" xmlns:xlink="http://www.w3.org/1999/xlink"><defs /><rect fill="white" height="100%" width="100%" x="0" y="0" /><g><path d="M27.7,-11.5 L27.7,11.5 L11.5,27.7 L-11.5,27.7 L-27.7,11.5 L-27.7,-11.5 L-11.5,-27.7 L11.5,-27.7 Z" fill="none" stroke="black" transform="translate(103.8323395709997,220.57390188989612) rotate(71.87160561986967) scale(1.4072566959793686)" /><path d="M27.7,-11.5 L27.7,11.5 L11.5,27.7 L-11.5,27.7 L-27.7,11.5 L-27.7,-11.5 L-11.5,-27.7 L11.5,-27.7 Z" fill="none" stroke="black" transform="translate(103.8323395709997,220.57390188989612) rotate(71.87160561986967) scale(0.9850796871855579)" /><path d="M27.7,-11.5 L27.7,11.5 L11.5,27.7 L-11.5,27.7 L-27.7,11.5 L-27.7,-11.5 L-11.5,-27.7 L11.5,-27.7 Z" fill="none" stroke="black" transform="translate(103.8323395709997,220.57390188989612) rotate(71.87160561986967) scale(0.5629026783917475)" /></g><path d="M27.7,-11.5 L27.7,11.5 L11.5,27.7 L-11.5,27.7 L-27.7,11.5 L-27.7,-11.5 L-11.5,-27.7 L11.5,-27.7 Z" fill="none" stroke="black" transform="translate(220.49041733193238,172.21191371091777) rotate(222.00442395760518) scale(1.9783098275176463)" /><path d="M27.7,-11.5 L27.7,11.5 L11.5,27.7 L-11.5,27.7 L-27.7,11.5 L-27.7,-11.5 L-11.5,-27.7 L11.5,-27.7 Z" fill="none" stroke="black" transform="translate(167.41732890655504,265.416690287251) rotate(241.19667185831278) scale(1.0987699700474847)" /><g><path d="M27.7,-11.5 L27.7,11.5 L11.5,27.7 L-11.5,27.7 L-27.7,11.5 L-27.7,-11.5 L-11.5,-27.7 L11.5,-27.7 Z" fill="none" stroke="black" transform="translate(81.33628304452466,89.44272456411537) rotate(219.12491738676516) scale(0.8266263289114177)" /><path d="M27.7,-11.5 L27.7,11.5 L11.5,27.7 L-11.5,27.7 L-27.7,11.5 L-27.7,-11.5 L-11.5,-27.7 L11.5,-27.7 Z" fill="none" stroke="black" transform="translate(81.33628304452466,89.44272456411537) rotate(219.12491738676516) scale(0.5786384302379923)" /><path d="M27.7,-11.5 L27.7,11.5 L11.5,27.7 L-11.5,27.7 L-27.7,11.5 L-27.7,-11.5 L-11.5,-27.7 L11.5,-27.7 Z" fill="none" stroke="black" transform="translate(81.33628304452466,89.44272456411537) rotate(219.12491738676516) scale(0.33065053156456714)" /></g><path d="M27.7,-11.5 L27.7,11.5 L11.5,27.7 L-11.5,27.7 L-27.7,11.5 L-27.7,-11.5 L-11.5,-27.7 L11.5,-27.7 Z" fill="none" stroke="black" transform="translate(88.54660911618346,276.62101790593715) rotate(289.7588031064167) scale(1.1135184018482915)" /><path d="M27.7,-11.5 L27.7,11.5 L11.5,27.7 L-11.5,27.7 L-27.7,11.5 L-27.7,-11.5 L-11.5,-27.7 L11.5,-27.7 Z" fill="none" stroke="black" transform="translate(118.23153915478008,113.41819197067602) rotate(21.823209179718866) scale(1.0399667075180745)" /><path d="M27.7,-11.5 L27.7,11.5 L11.5,27.7 L-11.5,27.7 L-27.7,11.5 L-27.7,-11.5 L-11.5,-27.7 L11.5,-27.7 Z" fill="none" stroke="black" transform="translate(250.43576672080582,265.78747219844973) rotate(64.26781146963833) scale(1.3429210567271235)" /><path d="M27.7,-11.5 L27.7,11.5 L11.5,27.7 L-11.5,27.7 L-27.7,11.5 L-27.7,-11.5 L-11.5,-27.7 L11.5,-27.7 Z" fill="none" stroke="black" transform="translate(295.4377542849211,296.2491008796572) rotate(46.200933239483916) scale(1.2156132679209417)" /><g><path d="M27.7,-11.5 L27.7,11.5 L11.5,27.7 L-11.5,27.7 L-27.7,11.5 L-27.7,-11.5 L-11.5,-27.7 L11.5,-27.7 Z" fill="none" stroke="black" transform="translate(203.80767448526854,301.8163743743463) rotate(99.6913916206062) scale(1.1048676313134937)" /><path d="M27.7,-11.5 L27.7,11.5 L11.5,27.7 L-11.5,27.7 L-27.7,11.5 L-27.7,-11.5 L-11.5,-27.7 L11.5,-27.7 Z" fill="none" stroke="black" transform="translate(203.80767448526854,301.8163743743463) rotate(99.6913916206062) scale(0.7734073419194456)" /><path d="M27.7,-11.5 L27.7,11.5 L11.5,27.7 L-11.5,27.7 L-27.7,11.5 L-27.7,-11.5 L-11.5,-27.7 L11.5,-27.7 Z" fill="none" stroke="black" transform="translate(203.80767448526854,301.8163743743463) rotate(99.6913916206062) scale(0.4419470525253975)" /></g><path d="M0.0,-30.0 L8.8,-12.1 L28.5,-9.3 L14.3,4.6 L17.6,24.3 L0.0,15.0 L-17.6,24.3 L-14.3,4.6 L-28.5,-9.3 L-8.8,-12.1 Z" fill="none" stroke="black" transform="translate(142.23669300822337,126.3497684094093) rotate(7.3259957121536345) scale(0.9365437202665933)" /><path d="M0.0,-30.0 L8.8,-12.1 L28.5,-9.3 L14.3,4.6 L17.6,24.3 L0.0,15.0 L-17.6,24.3 L-14.3,4.6 L-28.5,-9.3 L-8.8,-12.1 Z" fill="none" stroke="black" transform="translate(314.4902717177563,137.0711673830868) rotate(2.2828770568242884) scale(1.0775695077747107)" /><path d="M0.0,-30.0 L8.8,-12.1 L28.5,-9.3 L14.3,4.6 L17.6,24.3 L0.0,15.0 L-17.6,24.3 L-14.3,4.6 L-28.5,-9.3 L-8.8,-12.1 Z" fill="none" stroke="black" transform="translate(246.38963629868772,104.96629385155339) rotate(83.6561114862094) scale(1.0174910135379307)" /><path d="M0.0,-30.0 L8.8,-12.1 L28.5,-9.3 L14.3,4.6 L17.6,24.3 L0.0,15.0 L-17.6,24.3 L-14.3,4.6 L-28.5,-9.3 L-8.8,-12.1 Z" fill="none" stroke="black" transform="translate(311.5600875786642,201.38865311035005) rotate(44.45310344231141) scale(1.2042431432137548)" /><g><path d="M0.0,-30.0 L8.8,-12.1 L28.5,-9.3 L14.3,4.6 L17.6,24.3 L0.0,15.0 L-17.6,24.3 L-14.3,4.6 L-28.5,-9.3 L-8.8,-12.1 Z" fill="none" stroke="black" transform="translate(313.59295929928317,245.60404086276156) rotate(120.91337377160862) scale(1.0248254307627138)" /><path d="M0.0,-30.0 L8.8,-12.1 L28.5,-9.3 L14.3,4.6 L17.6,24.3 L0.0,15.0 L-17.6,24.3 L-14.3,4.6 L-28.5,-9.3 L-8.8,-12.1 Z" fill="none" stroke="black" transform="translate(313.59295929928317,245.60404086276156) rotate(120.91337377160862) scale(0.7173778015338996)" /><path d="M0.0,-30.0 L8.8,-12.1 L28.5,-9.3 L14.3,4.6 L17.6,24.3 L0.0,15.0 L-17.6,24.3 L-14.3,4.6 L-28.5,-9.3 L-8.8,-12.1 Z" fill="none" stroke="black" transform="translate(313.59295929928317,245.60404086276156) rotate(120.91337377160862) scale(0.40993017230508555)" /></g><path d="M0.0,-30.0 L8.8,-12.1 L28.5,-9.3 L14.3,4.6 L17.6,24.3 L0.0,15.0 L-17.6,24.3 L-14.3,4.6 L-28.5,-9.3 L-8.8,-12.1 Z" fill="none" stroke="black" transform="translate(140.09120987012875,73.95141839231083) rotate(288.8129321393677) scale(0.8723191265419101)" /><g><path d="M-30,-20 h60 v40 h-60 Z" fill="none" stroke="black" transform="translate(294.4220866697442,159.4558573323772) rotate(7.449987880493167) scale(0.8368258664376953)" /><path d="M-30,-20 h60 v40 h-60 Z" fill="none" stroke="black" transform="translate(294.4220866697442,159.4558573323772) rotate(7.449987880493167) scale(0.5857781065063866)" /><path d="M-30,-20 h60 v40 h-60 Z" fill="none" stroke="black" transform="translate(294.4220866697442,159.4558573323772) rotate(7.449987880493167) scale(0.33473034657507816)" /></g><path d="M-30,-20 h60 v40 h-60 Z" fill="none" stroke="black" transform="translate(124.84257328948968,169.5428988016904) rotate(101.14402011457399) scale(1.2064244384095597)" /><g><path d="M-30,-20 h60 v40 h-60 Z" fill="none" stroke="black" transform="translate(134.79659620052428,303.31919316119905) rotate(62.80030555199697) scale(0.9200510263400445)" /><path d="M-30,-20 h60 v40 h-60 Z" fill="none" stroke="black" transform="translate(134.79659620052428,303.31919316119905) rotate(62.80030555199697) scale(0.6440357184380311)" /><path d="M-30,-20 h60 v40 h-60 Z" fill="none" stroke="black" transform="translate(134.79659620052428,303.31919316119905) rotate(62.80030555199697) scale(0.36802041053601786)" /></g><g><path d="M-30,-20 h60 v40 h-60 Z" fill="none" stroke="black" transform="translate(150.87494581596565,221.40872804227502) rotate(31.84438023402285) scale(0.9650111793372598)" /><path d="M-30,-20 h60 v40 h-60 Z" fill="none" stroke="black" transform="translate(150.87494581596565,221.40872804227502) rotate(31.84438023402285) scale(0.6755078255360818)" /><path d="M-30,-20 h60 v40 h-60 Z" fill="none" stroke="black" transform="translate(150.87494581596565,221.40872804227502) rotate(31.84438023402285) scale(0.38600447173490393)" /></g></svg>