<svg baseProfile="full" height="400" version="1.1" width="400" xmlns="http://www.w3.org/2000/svg" xmlns:ev="http://www.w3.org/2001/xml-events" xmlns:xlink="http://www.w3.org/1999/xlink"><defs /><rect fill="white" height="100%" width="100%" x="0" y="0" /><path d="M0,-30 L30,30 L-30,30 Z" fill="none" stroke="black" transform="translate(112.62210147218559,222.2299043280397) rotate(85.24932167948302) scale(1.1668271607434484)" /><g><path d="M0,0 m-30,0 a30,30 0 1,0 60,0 a30,30 0 1,0 -60,0" fill="none" stroke="black" transform="translate(275.28507576233676,162.43389867486013) rotate(121.7127309645158) scale(1.4620615020919159)" /><path d="M0,0 m-30,0 a30,30 0 1,0 60,0 a30,30 0 1,0 -60,0" fill="none" stroke="black" transform="translate(275.28507576233676,162.43389867486013) rotate(121.7127309645158) scale(1.0234430514643411)" /></g><g><path d="M0,0 m-30,0 a30,30 0 1,0 60,0 a30,30 0 1,0 -60,0" fill="none" stroke="black" transform="translate(221.0593703972625,184.32389065565144) rotate(250.05732776629463) scale(1.1307157424430598)" /><path d="M0,0 m-30,0 a30,30 0 1,0 60,0 a30,30 0 1,0 -60,0" fill="none" stroke="black" transform="translate(221.0593703972625,184.32389065565144) rotate(250.05732776629463) scale(0.7915010197101419)" /><path d="M0,0 m-30,0 a30,30 0 1,0 60,0 a30,30 0 1,0 -60,0" fill="none" stroke="black" transform="translate(221.0593703972625,184.32389065565144) rotate(250.05732776629463) scale(0.45228629697722394)" /></g><path d="M0.0,-30.0 L28.5,-9.3 L17.6,24.3 L-17.6,24.3 L-28.5,-9.3 Z" fill="none" stroke="black" transform="translate(181.55404830636803,154.9596917893722) rotate(208.77772488003356) scale(1.256064256606438)" /><g><path d="M0.0,-30.0 L28.5,-9.3 L17.6,24.3 L-17.6,24.3 L-28.5,-9.3 Z" fill="none" stroke="black" transform="translate(258.4692956176669,256.2247737186048) rotate(70.73707187082108) scale(1.5314201791424664)" /><path d="M0.0,-30.0 L28.5,-9.3 L17.6,24.3 L-17.6,24.3 L-28.5,-9.3 Z" fill="none" stroke="black" transform="translate(258.4692956176669,256.2247737186048) rotate(70.73707187082108) scale(1.0719941253997265)" /><path d="M0.0,-30.0 L28.5,-9.3 L17.6,24.3 L-17.6,24.3 L-28.5,-9.3 Z" fill="none" stroke="black" transform="translate(258.4692956176669,256.2247737186048) rotate(70.73707187082108) scale(0.6125680716569866)" /></g><g><path d="M27.7,-11.5 L27.7,11.5 L11.5,27.7 L-11.5,27.7 L-27.7,11.5 L-27.7,-11.5 L-11.5,-27.7 L11.5,-27.7 Z" fill="none" stroke="black" transform="translate(308.5087888202153,213.7791295566442) rotate(19.505605667617623) scale(1.194287555412782)" /><path d="M27.7,-11.5 L27.7,11.5 L11.5,27.7 L-11.5,27.7 L-27.7,11.5 L-27.7,-11.5 L-11.5,-27.7 L11.5,-27.7 Z" fill="none" stroke="black" transform="translate(308.5087888202153,213.7791295566442) rotate(19.505605667617623) scale(0.8360012887889474)" /><path d="M27.7,-11.5 L27.7,11.5 L11.5,27.7 L-11.5,27.7 L-27.7,11.5 L-27.7,-11.5 L-11.5,-27.7 L11.5,-27.7 Z" fill="none" stroke="black" transform="translate(308.5087888202153,213.7791295566442) rotate(19.505605667617623) scale(0.47771502216511286)" /></g><path d="M27.7,-11.5 L27.7,11.5 L11.5,27.7 L-11.5,27.7 L-27.7,11.5 L-27.7,-11.5 L-11.5,-27.7 L11.5,-27.7 Z" fill="none" stroke="black" transform="translate(115.32217633830034,300.0710557196848) rotate(345.1681929760144) scale(0.9300200106097045)" /><g><path d="M0.0,-30.0 L8.8,-12.1 L28.5,-9.3 L14.3,4.6 L17.6,24.3 L0.0,15.0 L-17.6,24.3 L-14.3,4.6 L-28.5,-9.3 L-8.8,-12.1 Z" fill="none" stroke="black" transform="translate(251.6830417131727,101.3894862044796) rotate(204.9715782330195) scale(1.0618717464599037)" /><path d="M0.0,-30.0 L8.8,-12.1 L28.5,-9.3 L14.3,4.6 L17.6,24.3 L0.0,15.0 L-17.6,24.3 L-14.3,4.6 L-28.5,-9.3 L-8.8,-12.1 Z" fill="none" stroke="black" transform="translate(251.6830417131727,101.3894862044796) rotate(204.9715782330195) scale(0.7433102225219326)" /></g><path d="M-30,-20 h60 v40 h-60 Z" fill="none" stroke="black" transform="translate(181.24426133587892,94.35135044338801) rotate(330.48892122516577) scale(1.1806013826401616)" /><path d="M-30,-20 h60 v40 h-60 Z" fill="none" stroke="black" transform="translate(202.6071694066063,250.50942522062704) rotate(319.9487872683991) scale(1.1204634388162142)" /><g><path d="M30,0 L15,-26 L-15,-26 L-30,0 L-15,26 L15,26 Z" fill="none" stroke="black" transform="translate(277.3197718854404,98.40799198008392) rotate(30.38087596121375) scale(0.8089627590466847)" /><path d="M30,0 L15,-26 L-15,-26 L-30,0 L-15,26 L15,26 Z" fill="none" stroke="black" transform="translate(277.3197718854404,98.40799198008392) rotate(30.38087596121375) scale(0.5662739313326792)" /><path d="M30,0 L15,-26 L-15,-26 L-30,0 L-15,26 L15,26 Z" fill="none" stroke="black" transform="translate(277.3197718854404,98.40799198008392) rotate(30.38087596121375) scale(0.3235851036186739)" /></g><path d="M30,0 L15,-26 L-15,-26 L-30,0 L-15,26 L15,26 Z" fill="none" stroke="black" transform="translate(158.9267253780542,285.55480726542885) rotate(24.6792666704118) scale(1.0347452053856567)" /></svg>