<svg baseProfile="full" height="400" version="1.1" width="400" xmlns="http://www.w3.org/2000/svg" xmlns:ev="http://www.w3.org/2001/xml-events" xmlns:xlink="http://www.w3.org/1999/xlink"><defs /><rect fill="white" height="100%" width="100%" x="0" y="0" /><path d="M0.0,-30.0 L28.5,-9.3 L17.6,24.3 L-17.6,24.3 L-28.5,-9.3 Z" fill="none" stroke="black" transform="translate(229.8182961099526,138.02662481717073) rotate(21.83119477687608) scale(1.8964985448288363)" /><path d="M0.0,-30.0 L28.5,-9.3 L17.6,24.3 L-17.6,24.3 L-28.5,-9.3 Z" fill="none" stroke="black" transform="translate(146.17597998458825,218.26461942070387) rotate(277.62284785222107) scale(1.8626528263306321)" /><g><path d="M0.0,-30.0 L28.5,-9.3 L17.6,24.3 L-17.6,24.3 L-28.5,-9.3 Z" fill="none" stroke="black" transform="translate(264.34044225925993,251.54626113791107) rotate(255.3995603947576) scale(1.726217140440589)" /><path d="M0.0,-30.0 L28.5,-9.3 L17.6,24.3 L-17.6,24.3 L-28.5,-9.3 Z" fill="none" stroke="black" transform="translate(264.34044225925993,251.54626113791107) rotate(255.3995603947576) scale(1.2083519983084123)" /><path d="M0.0,-30.0 L28.5,-9.3 L17.6,24.3 L-17.6,24.3 L-28.5,-9.3 Z" fill="none" stroke="black" transform="translate(264.34044225925993,251.54626113791107) rotate(255.3995603947576) scale(0.6904868561762356)" /></g><path d="M0.0,-30.0 L28.5,-9.3 L17.6,24.3 L-17.6,24.3 L-28.5,-9.3 Z" fill="none" stroke="black" transform="translate(161.74928558846415,309.45130100092774) rotate(42.31985133867909) scale(1.219419519936971)" /><g><path d="M-30,-20 h60 v40 h-60 Z" fill="none" stroke="black" transform="translate(245.38498162403863,64.66189365525712) rotate(116.57454855345681) scale(0.8093641637226541)" /><path d="M-30,-20 h60 v40 h-60 Z" fill="none" stroke="black" transform="translate(245.38498162403863,64.66189365525712) rotate(116.57454855345681) scale(0.5665549146058578)" /></g><path d="M-30,-20 h60 v40 h-60 Z" fill="none" stroke="black" transform="translate(66.16678457198397,289.67915382712715) rotate(188.79911452154477) scale(0.8583485918538798)" /><g><path d="M-30,-20 h60 v40 h-60 Z" fill="none" stroke="black" transform="translate(318.9898195579242,189.53066903512916) rotate(315.3623221707561) scale(0.8527164774007469)" /><path d="M-30,-20 h60 v40 h-60 Z" fill="none" stroke="black" transform="translate(318.9898195579242,189.53066903512916) rotate(315.3623221707561) scale(0.5969015341805227)" /></g><path d="M-30,-20 h60 v40 h-60 Z" fill="none" stroke="black" transform="translate(101.72236571252061,304.8380476279693) rotate(305.49455244676403) scale(1.1027623581176769)" /><g><path d="M-30,-20 h60 v40 h-60 Z" fill="none" stroke="black" transform="translate(258.01711899904694,323.47818132438374) rotate(315.1227489670333) scale(1.060477499721653)" /><path d="M-30,-20 h60 v40 h-60 Z" fill="none" stroke="black" transform="translate(258.01711899904694,323.47818132438374) rotate(315.1227489670333) scale(0.742334249805157)" /><path d="M-30,-20 h60 v40 h-60 Z" fill="none" stroke="black" transform="translate(258.01711899904694,323.47818132438374) rotate(315.1227489670333) scale(0.42419099988866127)" /></g><path d="M-30,-20 h60 v40 h-60 Z" fill="none" stroke="black" transform="translate(145.64142094156261,150.7071267480705) rotate(286.6074212416412) scale(1.1347622064488438)" /><path d="M-30,-20 h60 v40 h-60 Z" fill="none" stroke="black" transform="translate(69.69566339456382,147.21921749108554) rotate(99.4837953549781) scale(0.8828790968754259)" /><path d="M-30,-20 h60 v40 h-60 Z" fill="none" stroke="black" transform="translate(123.79912860648628,100.44426583356983) rotate(304.4626561282198) scale(0.8927757084811466)" /><g><path d="M0.0,-30.0 L8.8,-12.1 L28.5,-9.3 L14.3,4.6 L17.6,24.3 L0.0,15.0 L-17.6,24.3 L-14.3,4.6 L-28.5,-9.3 L-8.8,-12.1 Z" fill="none" stroke="black" transform="translate(75.88092090114432,247.89152421318943) rotate(21.612136639751412) scale(0.9189577643822064)" /><path d="M0.0,-30.0 L8.8,-12.1 L28.5,-9.3 L14.3,4.6 L17.6,24.3 L0.0,15.0 L-17.6,24.3 L-14.3,4.6 L-28.5,-9.3 L-8.8,-12.1 Z" fill="none" stroke="black" transform="translate(75.88092090114432,247.89152421318943) rotate(21.612136639751412) scale(0.6432704350675444)" /></g><path d="M0.0,-30.0 L8.8,-12.1 L28.5,-9.3 L14.3,4.6 L17.6,24.3 L0.0,15.0 L-17.6,24.3 L-14.3,4.6 L-28.5,-9.3 L-8.8,-12.1 Z" fill="none" stroke="black" transform="translate(302.9405928914582,133.54149042130425) rotate(193.58018728255936) scale(0.9283345409507983)" /><path d="M0.0,-30.0 L8.8,-12.1 L28.5,-9.3 L14.3,4.6 L17.6,24.3 L0.0,15.0 L-17.6,24.3 L-14.3,4.6 L-28.5,-9.3 L-8.8,-12.1 Z" fill="none" stroke="black" transform="translate(307.34680918395395,70.30728797403536) rotate(96.32010153414748) scale(0.9252228920151939)" /><g><path d="M0.0,-30.0 L8.8,-12.1 L28.5,-9.3 L14.3,4.6 L17.6,24.3 L0.0,15.0 L-17.6,24.3 L-14.3,4.6 L-28.5,-9.3 L-8.8,-12.1 Z" fill="none" stroke="black" transform="translate(63.64627119545844,339.5112530791937) rotate(101.46969979927205) scale(0.8242712270288265)" /><path d="M0.0,-30.0 L8.8,-12.1 L28.5,-9.3 L14.3,4.6 L17.6,24.3 L0.0,15.0 L-17.6,24.3 L-14.3,4.6 L-28.5,-9.3 L-8.8,-12.1 Z" fill="none" stroke="black" transform="translate(63.64627119545844,339.5112530791937) rotate(101.46969979927205) scale(0.5769898589201785)" /><path d="M0.0,-30.0 L8.8,-12.1 L28.5,-9.3 L14.3,4.6 L17.6,24.3 L0.0,15.0 L-17.6,24.3 L-14.3,4.6 L-28.5,-9.3 L-8.8,-12.1 Z" fill="none" stroke="black" transform="translate(63.64627119545844,339.5112530791937) rotate(101.46969979927205) scale(0.32970849081153064)" /></g><g><path d="M0.0,-30.0 L8.8,-12.1 L28.5,-9.3 L14.3,4.6 L17.6,24.3 L0.0,15.0 L-17.6,24.3 L-14.3,4.6 L-28.5,-9.3 L-8.8,-12.1 Z" fill="none" stroke="black" transform="translate(175.2603933047587,82.86089449562499) rotate(174.77307411663807) scale(0.8415409226133895)" /><path d="M0.0,-30.0 L8.8,-12.1 L28.5,-9.3 L14.3,4.6 L17.6,24.3 L0.0,15.0 L-17.6,24.3 L-14.3,4.6 L-28.5,-9.3 L-8.8,-12.1 Z" fill="none" stroke="black" transform="translate(175.2603933047587,82.86089449562499) rotate(174.77307411663807) scale(0.5890786458293726)" /></g><path d="M0.0,-30.0 L8.8,-12.1 L28.5,-9.3 L14.3,4.6 L17.6,24.3 L0.0,15.0 L-17.6,24.3 L-14.3,4.6 L-28.5,-9.3 L-8.8,-12.1 Z" fill="none" stroke="black" transform="translate(207.2624158382381,205.59493479143663) rotate(30.29077395602083) scale(0.8171898918184611)" /><path d="M0.0,-30.0 L8.8,-12.1 L28.5,-9.3 L14.3,4.6 L17.6,24.3 L0.0,15.0 L-17.6,24.3 L-14.3,4.6 L-28.5,-9.3 L-8.8,-12.1 Z" fill="none" stroke="black" transform="translate(210.6550160308845,316.76511104727774) rotate(176.3397829476627) scale(0.8593019690186763)" /><g><path d="M0.0,-30.0 L8.8,-12.1 L28.5,-9.3 L14.3,4.6 L17.6,24.3 L0.0,15.0 L-17.6,24.3 L-14.3,4.6 L-28.5,-9.3 L-8.8,-12.1 Z" fill="none" stroke="black" transform="translate(325.3063902050526,332.64608853063294) rotate(95.95942356209974) scale(0.8862509725456456)" /><path d="M0.0,-30.0 L8.8,-12.1 L28.5,-9.3 L14.3,4.6 L17.6,24.3 L0.0,15.0 L-17.6,24.3 L-14.3,4.6 L-28.5,-9.3 L-8.8,-12.1 Z" fill="none" stroke="black" transform="translate(325.3063902050526,332.64608853063294) rotate(95.95942356209974) scale(0.6203756807819518)" /></g><path d="M0,-30 L30,30 L-30,30 Z" fill="none" stroke="black" transform="translate(201.64379775335232,282.09314728673166) rotate(202.23167554595972) scale(0.9364189181185385)" /><g><path d="M0,0 m-30,0 a30,30 0 1,0 60,0 a30,30 0 1,0 -60,0" fill="none" stroke="black" transform="translate(317.65192336464315,233.8378813541081) rotate(161.9584046931864) scale(0.9194158723115573)" /><path d="M0,0 m-30,0 a30,30 0 1,0 60,0 a30,30 0 1,0 -60,0" fill="none" stroke="black" transform="translate(317.65192336464315,233.8378813541081) rotate(161.9584046931864) scale(0.64359111061809)" /></g><path d="M0,0 m-30,0 a30,30 0 1,0 60,0 a30,30 0 1,0 -60,0" fill="none" stroke="black" transform="translate(80.91971720832622,118.87611336562304) rotate(356.41533567873233) scale(0.8491845801596418)" /><g><path d="M0,0 m-30,0 a30,30 0 1,0 60,0 a30,30 0 1,0 -60,0" fill="none" stroke="black" transform="translate(110.73006134126497,146.9765325677697) rotate(112.9925457496057) scale(0.8684106761483237)" /><path d="M0,0 m-30,0 a30,30 0 1,0 60,0 a30,30 0 1,0 -60,0" fill="none" stroke="black" transform="translate(110.73006134126497,146.9765325677697) rotate(112.9925457496057) scale(0.6078874733038265)" /><path d="M0,0 m-30,0 a30,30 0 1,0 60,0 a30,30 0 1,0 -60,0" fill="none" stroke="black" transform="translate(110.73006134126497,146.9765325677697) rotate(112.9925457496057) scale(0.3473642704593295)" /></g><path d="M0,0 m-30,0 a30,30 0 1,0 60,0 a30,30 0 1,0 -60,0" fill="none" stroke="black" transform="translate(89.68232104423397,87.05735505129527) rotate(70.62037759029081) scale(0.8436242484013889)" /><g><path d="M0,0 m-30,0 a30,30 0 1,0 60,0 a30,30 0 1,0 -60,0" fill="none" stroke="black" transform="translate(71.6372055412588,183.35811902588117) rotate(28.03195373056047) scale(0.9087274509372792)" /><path d="M0,0 m-30,0 a30,30 0 1,0 60,0 a30,30 0 1,0 -60,0" fill="none" stroke="black" transform="translate(71.6372055412588,183.35811902588117) rotate(28.03195373056047) scale(0.6361092156560955)" /><path d="M0,0 m-30,0 a30,30 0 1,0 60,0 a30,30 0 1,0 -60,0" fill="none" stroke="black" transform="translate(71.6372055412588,183.35811902588117) rotate(28.03195373056047) scale(0.36349098037491173)" /></g><path d="M30,0 L15,-26 L-15,-26 L-30,0 L-15,26 L15,26 Z" fill="none" stroke="black" transform="translate(318.73294877497233,305.5007052838555) rotate(14.412138778187833) scale(0.8352543935295749)" /><path d="M27.7,-11.5 L27.7,11.5 L11.5,27.7 L-11.5,27.7 L-27.7,11.5 L-27.7,-11.5 L-11.5,-27.7 L11.5,-27.7 Z" fill="none" stroke="black" transform="translate(334.8087314394253,113.05972763316) rotate(177.08266183337398) scale(0.8872716292863101)" /></svg>