<svg baseProfile="full" height="400" version="1.1" width="400" xmlns="http://www.w3.org/2000/svg" xmlns:ev="http://www.w3.org/2001/xml-events" xmlns:xlink="http://www.w3.org/1999/xlink"><defs /><rect fill="white" height="100%" width="100%" x="0" y="0" /><path d="M0,0 m-30,0 a30,30 0 1,0 60,0 a30,30 0 1,0 -60,0" fill="none" stroke="black" transform="translate(297.5265661974299,216.1779055696204) rotate(36.13410976989744) scale(1.213817636946995)" /><g><path d="M0,0 m-30,0 a30,30 0 1,0 60,0 a30,30 0 1,0 -60,0" fill="none" stroke="black" transform="translate(209.14148698971235,178.70548169535465) rotate(179.08445425193838) scale(1.8790698872688656)" /><path d="M0,0 m-30,0 a30,30 0 1,0 60,0 a30,30 0 1,0 -60,0" fill="none" stroke="black" transform="translate(209.14148698971235,178.70548169535465) rotate(179.08445425193838) scale(1.315348921088206)" /></g><path d="M30,0 L15,-26 L-15,-26 L-30,0 L-15,26 L15,26 Z" fill="none" stroke="black" transform="translate(95.67230000714567,116.90583543592349) rotate(14.725104258651815) scale(1.2451677847613722)" /><path d="M30,0 L15,-26 L-15,-26 L-30,0 L-15,26 L15,26 Z" fill="none" stroke="black" transform="translate(210.08193982990846,262.97999492863596) rotate(221.60980913060365) scale(1.196474222714606)" /><g><path d="M30,0 L15,-26 L-15,-26 L-30,0 L-15,26 L15,26 Z" fill="none" stroke="black" transform="translate(300.1627673107563,294.53725274017825) rotate(142.604967911685) scale(1.2355591271593145)" /><path d="M30,0 L15,-26 L-15,-26 L-30,0 L-15,26 L15,26 Z" fill="none" stroke="black" transform="translate(300.1627673107563,294.53725274017825) rotate(142.604967911685) scale(0.8648913890115201)" /><path d="M30,0 L15,-26 L-15,-26 L-30,0 L-15,26 L15,26 Z" fill="none" stroke="black" transform="translate(300.1627673107563,294.53725274017825) rotate(142.604967911685) scale(0.4942236508637258)" /></g><g><path d="M30,0 L15,-26 L-15,-26 L-30,0 L-15,26 L15,26 Z" fill="none" stroke="black" transform="translate(261.92625502894083,92.3966654517523) rotate(171.71045014599008) scale(1.0767592404341217)" /><path d="M30,0 L15,-26 L-15,-26 L-30,0 L-15,26 L15,26 Z" fill="none" stroke="black" transform="translate(261.92625502894083,92.3966654517523) rotate(171.71045014599008) scale(0.7537314683038852)" /></g><g><path d="M-30,-20 h60 v40 h-60 Z" fill="none" stroke="black" transform="translate(136.52476525935063,239.88492462940997) rotate(357.54902932709206) scale(0.864062190408695)" /><path d="M-30,-20 h60 v40 h-60 Z" fill="none" stroke="black" transform="translate(136.52476525935063,239.88492462940997) rotate(357.54902932709206) scale(0.6048435332860865)" /><path d="M-30,-20 h60 v40 h-60 Z" fill="none" stroke="black" transform="translate(136.52476525935063,239.88492462940997) rotate(357.54902932709206) scale(0.34562487616347803)" /></g><g><path d="M-30,-20 h60 v40 h-60 Z" fill="none" stroke="black" transform="translate(103.92602539499563,271.4765202329092) rotate(11.470007138151633) scale(0.9802289274654005)" /><path d="M-30,-20 h60 v40 h-60 Z" fill="none" stroke="black" transform="translate(103.92602539499563,271.4765202329092) rotate(11.470007138151633) scale(0.6861602492257803)" /><path d="M-30,-20 h60 v40 h-60 Z" fill="none" stroke="black" transform="translate(103.92602539499563,271.4765202329092) rotate(11.470007138151633) scale(0.3920915709861602)" /></g><path d="M-30,-20 h60 v40 h-60 Z" fill="none" stroke="black" transform="translate(221.4291555124553,104.93298363295082) rotate(160.67472961207872) scale(0.9447347050046331)" /><path d="M0.0,-30.0 L8.8,-12.1 L28.5,-9.3 L14.3,4.6 L17.6,24.3 L0.0,15.0 L-17.6,24.3 L-14.3,4.6 L-28.5,-9.3 L-8.8,-12.1 Z" fill="none" stroke="black" transform="translate(235.20253385649573,316.0747260403037) rotate(40.58565228079803) scale(1.1554508538500756)" /><path d="M0.0,-30.0 L8.8,-12.1 L28.5,-9.3 L14.3,4.6 L17.6,24.3 L0.0,15.0 L-17.6,24.3 L-14.3,4.6 L-28.5,-9.3 L-8.8,-12.1 Z" fill="none" stroke="black" transform="translate(90.61021353537552,175.72591651503643) rotate(120.3322475760188) scale(0.9837953130626085)" /><path d="M0.0,-30.0 L8.8,-12.1 L28.5,-9.3 L14.3,4.6 L17.6,24.3 L0.0,15.0 L-17.6,24.3 L-14.3,4.6 L-28.5,-9.3 L-8.8,-12.1 Z" fill="none" stroke="black" transform="translate(72.57206272945895,69.75206687408064) rotate(109.9966548838429) scale(0.8427901838264201)" /><path d="M0.0,-30.0 L8.8,-12.1 L28.5,-9.3 L14.3,4.6 L17.6,24.3 L0.0,15.0 L-17.6,24.3 L-14.3,4.6 L-28.5,-9.3 L-8.8,-12.1 Z" fill="none" stroke="black" transform="translate(297.583830054405,152.62539693784834) rotate(24.177699527197323) scale(0.9712674950632918)" /><g><path d="M0.0,-30.0 L8.8,-12.1 L28.5,-9.3 L14.3,4.6 L17.6,24.3 L0.0,15.0 L-17.6,24.3 L-14.3,4.6 L-28.5,-9.3 L-8.8,-12.1 Z" fill="none" stroke="black" transform="translate(173.49399574196985,110.12785283633752) rotate(170.8507356649877) scale(1.0398577941903608)" /><path d="M0.0,-30.0 L8.8,-12.1 L28.5,-9.3 L14.3,4.6 L17.6,24.3 L0.0,15.0 L-17.6,24.3 L-14.3,4.6 L-28.5,-9.3 L-8.8,-12.1 Z" fill="none" stroke="black" transform="translate(173.49399574196985,110.12785283633752) rotate(170.8507356649877) scale(0.7279004559332526)" /></g><path d="M0.0,-30.0 L8.8,-12.1 L28.5,-9.3 L14.3,4.6 L17.6,24.3 L0.0,15.0 L-17.6,24.3 L-14.3,4.6 L-28.5,-9.3 L-8.8,-12.1 Z" fill="none" stroke="black" transform="translate(319.9541823460652,85.82880027986332) rotate(129.3610974366965) scale(0.9593901772261411)" /></svg>