<svg baseProfile="full" height="400" version="1.1" width="400" xmlns="http://www.w3.org/2000/svg" xmlns:ev="http://www.w3.org/2001/xml-events" xmlns:xlink="http://www.w3.org/1999/xlink"><defs /><rect fill="white" height="100%" width="100%" x="0" y="0" /><path d="M0,-30 L30,30 L-30,30 Z" fill="none" stroke="black" transform="translate(165.48108491368964,134.93836320606385) rotate(319.18703196510535) scale(1.1203600036866852)" /><g><path d="M0,-30 L30,30 L-30,30 Z" fill="none" stroke="black" transform="translate(199.64820368049794,271.72158599573584) rotate(14.569335298416233) scale(1.2152767595370289)" /><path d="M0,-30 L30,30 L-30,30 Z" fill="none" stroke="black" transform="translate(199.64820368049794,271.72158599573584) rotate(14.569335298416233) scale(0.8506937316759201)" /><path d="M0,-30 L30,30 L-30,30 Z" fill="none" stroke="black" transform="translate(199.64820368049794,271.72158599573584) rotate(14.569335298416233) scale(0.4861107038148116)" /></g><g><path d="M0,-30 L30,30 L-30,30 Z" fill="none" stroke="black" transform="translate(115.52545215484125,160.3401242061194) rotate(332.4031170330593) scale(1.1169144361801129)" /><path d="M0,-30 L30,30 L-30,30 Z" fill="none" stroke="black" transform="translate(115.52545215484125,160.3401242061194) rotate(332.4031170330593) scale(0.781840105326079)" /><path d="M0,-30 L30,30 L-30,30 Z" fill="none" stroke="black" transform="translate(115.52545215484125,160.3401242061194) rotate(332.4031170330593) scale(0.4467657744720452)" /></g><path d="M0.0,-30.0 L28.5,-9.3 L17.6,24.3 L-17.6,24.3 L-28.5,-9.3 Z" fill="none" stroke="black" transform="translate(232.11129226155816,73.57719998050545) rotate(153.16161945793198) scale(1.0079960966367534)" /><g><path d="M0.0,-30.0 L28.5,-9.3 L17.6,24.3 L-17.6,24.3 L-28.5,-9.3 Z" fill="none" stroke="black" transform="translate(321.30540834076567,183.2049994877742) rotate(4.800281480203896) scale(0.977860274153385)" /><path d="M0.0,-30.0 L28.5,-9.3 L17.6,24.3 L-17.6,24.3 L-28.5,-9.3 Z" fill="none" stroke="black" transform="translate(321.30540834076567,183.2049994877742) rotate(4.800281480203896) scale(0.6845021919073694)" /></g><path d="M0.0,-30.0 L28.5,-9.3 L17.6,24.3 L-17.6,24.3 L-28.5,-9.3 Z" fill="none" stroke="black" transform="translate(228.5142841315508,188.01620923151796) rotate(290.04305074481897) scale(0.9134637998893453)" /><path d="M30,0 L15,-26 L-15,-26 L-30,0 L-15,26 L15,26 Z" fill="none" stroke="black" transform="translate(275.3411311040451,307.943851193116) rotate(98.87233981788148) scale(1.0437983560378994)" /><path d="M30,0 L15,-26 L-15,-26 L-30,0 L-15,26 L15,26 Z" fill="none" stroke="black" transform="translate(271.9527064975291,243.57072174198856) rotate(168.71671204561082) scale(1.0545067718579815)" /><g><path d="M30,0 L15,-26 L-15,-26 L-30,0 L-15,26 L15,26 Z" fill="none" stroke="black" transform="translate(132.98897308325388,331.48059414737713) rotate(221.19313543901725) scale(0.9332829686456761)" /><path d="M30,0 L15,-26 L-15,-26 L-30,0 L-15,26 L15,26 Z" fill="none" stroke="black" transform="translate(132.98897308325388,331.48059414737713) rotate(221.19313543901725) scale(0.6532980780519732)" /></g><g><path d="M30,0 L15,-26 L-15,-26 L-30,0 L-15,26 L15,26 Z" fill="none" stroke="black" transform="translate(309.7654756481665,104.66362583566396) rotate(15.517205884475644) scale(1.0288719502146233)" /><path d="M30,0 L15,-26 L-15,-26 L-30,0 L-15,26 L15,26 Z" fill="none" stroke="black" transform="translate(309.7654756481665,104.66362583566396) rotate(15.517205884475644) scale(0.7202103651502363)" /><path d="M30,0 L15,-26 L-15,-26 L-30,0 L-15,26 L15,26 Z" fill="none" stroke="black" transform="translate(309.7654756481665,104.66362583566396) rotate(15.517205884475644) scale(0.41154878008584933)" /></g></svg>