<svg baseProfile="full" height="400" version="1.1" width="400" xmlns="http://www.w3.org/2000/svg" xmlns:ev="http://www.w3.org/2001/xml-events" xmlns:xlink="http://www.w3.org/1999/xlink"><defs /><rect fill="white" height="100%" width="100%" x="0" y="0" /><path d="M0,0 m-30,0 a30,30 0 1,0 60,0 a30,30 0 1,0 -60,0" fill="none" stroke="black" transform="translate(228.64824295388652,319.2568682141555) rotate(95.47734556093354) scale(0.9031509922065892)" /><g><path d="M0,0 m-30,0 a30,30 0 1,0 60,0 a30,30 0 1,0 -60,0" fill="none" stroke="black" transform="translate(209.4327833648574,145.03345815719118) rotate(86.21473836822865) scale(1.9248628156805079)" /><path d="M0,0 m-30,0 a30,30 0 1,0 60,0 a30,30 0 1,0 -60,0" fill="none" stroke="black" transform="translate(209.4327833648574,145.03345815719118) rotate(86.21473836822865) scale(1.3474039709763554)" /><path d="M0,0 m-30,0 a30,30 0 1,0 60,0 a30,30 0 1,0 -60,0" fill="none" stroke="black" transform="translate(209.4327833648574,145.03345815719118) rotate(86.21473836822865) scale(0.7699451262722032)" /></g><path d="M0,0 m-30,0 a30,30 0 1,0 60,0 a30,30 0 1,0 -60,0" fill="none" stroke="black" transform="translate(268.90494756270624,253.68761536554683) rotate(177.87643255256637) scale(1.2427498281732272)" /><g><path d="M0,0 m-30,0 a30,30 0 1,0 60,0 a30,30 0 1,0 -60,0" fill="none" stroke="black" transform="translate(143.78363548659775,286.670937281367) rotate(265.4573153850683) scale(1.5090249943987253)" /><path d="M0,0 m-30,0 a30,30 0 1,0 60,0 a30,30 0 1,0 -60,0" fill="none" stroke="black" transform="translate(143.78363548659775,286.670937281367) rotate(265.4573153850683) scale(1.0563174960791075)" /></g><path d="M0,0 m-30,0 a30,30 0 1,0 60,0 a30,30 0 1,0 -60,0" fill="none" stroke="black" transform="translate(105.22117317109989,105.49484156011856) rotate(306.42026732122406) scale(1.3538773461814269)" /><path d="M0,0 m-30,0 a30,30 0 1,0 60,0 a30,30 0 1,0 -60,0" fill="none" stroke="black" transform="translate(118.92964728267279,221.66185088691375) rotate(256.37823604886245) scale(1.2128916345560423)" /><g><path d="M0,0 m-30,0 a30,30 0 1,0 60,0 a30,30 0 1,0 -60,0" fill="none" stroke="black" transform="translate(324.7921198493674,273.6070687846367) rotate(58.45384400876053) scale(0.8221034298363324)" /><path d="M0,0 m-30,0 a30,30 0 1,0 60,0 a30,30 0 1,0 -60,0" fill="none" stroke="black" transform="translate(324.7921198493674,273.6070687846367) rotate(58.45384400876053) scale(0.5754724008854327)" /></g><g><path d="M0,0 m-30,0 a30,30 0 1,0 60,0 a30,30 0 1,0 -60,0" fill="none" stroke="black" transform="translate(315.6533492751738,316.79517426484114) rotate(140.55255167928394) scale(0.8137878495069994)" /><path d="M0,0 m-30,0 a30,30 0 1,0 60,0 a30,30 0 1,0 -60,0" fill="none" stroke="black" transform="translate(315.6533492751738,316.79517426484114) rotate(140.55255167928394) scale(0.5696514946548996)" /><path d="M0,0 m-30,0 a30,30 0 1,0 60,0 a30,30 0 1,0 -60,0" fill="none" stroke="black" transform="translate(315.6533492751738,316.79517426484114) rotate(140.55255167928394) scale(0.3255151398027998)" /></g><path d="M-30,-20 h60 v40 h-60 Z" fill="none" stroke="black" transform="translate(73.57755778320349,184.33486103654985) rotate(17.63709567947494) scale(0.8058781707105616)" /><path d="M-30,-20 h60 v40 h-60 Z" fill="none" stroke="black" transform="translate(326.82417450842445,104.43935420879498) rotate(140.64983713777067) scale(0.919983308358588)" /><g><path d="M-30,-20 h60 v40 h-60 Z" fill="none" stroke="black" transform="translate(283.74675110034855,80.14951286259628) rotate(328.3889844458546) scale(0.9300246322937578)" /><path d="M-30,-20 h60 v40 h-60 Z" fill="none" stroke="black" transform="translate(283.74675110034855,80.14951286259628) rotate(328.3889844458546) scale(0.6510172426056304)" /></g><g><path d="M-30,-20 h60 v40 h-60 Z" fill="none" stroke="black" transform="translate(284.2731387464921,145.09591579496856) rotate(355.60699189616145) scale(1.1430468196955563)" /><path d="M-30,-20 h60 v40 h-60 Z" fill="none" stroke="black" transform="translate(284.2731387464921,145.09591579496856) rotate(355.60699189616145) scale(0.8001327737868894)" /></g><path d="M-30,-20 h60 v40 h-60 Z" fill="none" stroke="black" transform="translate(67.89202578078498,322.0148184172343) rotate(153.8646947697959) scale(0.8005697724366378)" /><path d="M-30,-20 h60 v40 h-60 Z" fill="none" stroke="black" transform="translate(73.09325492349828,262.3423351567828) rotate(64.84547339306614) scale(0.8622594320485477)" /><g><path d="M27.7,-11.5 L27.7,11.5 L11.5,27.7 L-11.5,27.7 L-27.7,11.5 L-27.7,-11.5 L-11.5,-27.7 L11.5,-27.7 Z" fill="none" stroke="black" transform="translate(184.10196227071737,219.6086139782256) rotate(174.85654140362493) scale(0.9223395397396584)" /><path d="M27.7,-11.5 L27.7,11.5 L11.5,27.7 L-11.5,27.7 L-27.7,11.5 L-27.7,-11.5 L-11.5,-27.7 L11.5,-27.7 Z" fill="none" stroke="black" transform="translate(184.10196227071737,219.6086139782256) rotate(174.85654140362493) scale(0.6456376778177608)" /><path d="M27.7,-11.5 L27.7,11.5 L11.5,27.7 L-11.5,27.7 L-27.7,11.5 L-27.7,-11.5 L-11.5,-27.7 L11.5,-27.7 Z" fill="none" stroke="black" transform="translate(184.10196227071737,219.6086139782256) rotate(174.85654140362493) scale(0.3689358158958634)" /></g><path d="M27.7,-11.5 L27.7,11.5 L11.5,27.7 L-11.5,27.7 L-27.7,11.5 L-27.7,-11.5 L-11.5,-27.7 L11.5,-27.7 Z" fill="none" stroke="black" transform="translate(322.26626875080797,201.88675790816092) rotate(269.0551680094979) scale(0.9961540643397983)" /><g><path d="M27.7,-11.5 L27.7,11.5 L11.5,27.7 L-11.5,27.7 L-27.7,11.5 L-27.7,-11.5 L-11.5,-27.7 L11.5,-27.7 Z" fill="none" stroke="black" transform="translate(161.24892516098808,69.56434515893963) rotate(143.75886755995708) scale(0.9026551606580532)" /><path d="M27.7,-11.5 L27.7,11.5 L11.5,27.7 L-11.5,27.7 L-27.7,11.5 L-27.7,-11.5 L-11.5,-27.7 L11.5,-27.7 Z" fill="none" stroke="black" transform="translate(161.24892516098808,69.56434515893963) rotate(143.75886755995708) scale(0.6318586124606372)" /></g><path d="M0.0,-30.0 L8.8,-12.1 L28.5,-9.3 L14.3,4.6 L17.6,24.3 L0.0,15.0 L-17.6,24.3 L-14.3,4.6 L-28.5,-9.3 L-8.8,-12.1 Z" fill="none" stroke="black" transform="translate(212.87193810065497,262.14058926659857) rotate(299.20701127533863) scale(0.8098743551802757)" /></svg>