<svg baseProfile="full" height="400" version="1.1" width="400" xmlns="http://www.w3.org/2000/svg" xmlns:ev="http://www.w3.org/2001/xml-events" xmlns:xlink="http://www.w3.org/1999/xlink"><defs /><rect fill="white" height="100%" width="100%" x="0" y="0" /><path d="M30,0 L15,-26 L-15,-26 L-30,0 L-15,26 L15,26 Z" fill="none" stroke="black" transform="translate(203.48454507010769,212.33537999675406) rotate(76.89251795521402) scale(1.9752223513366707)" /><path d="M30,0 L15,-26 L-15,-26 L-30,0 L-15,26 L15,26 Z" fill="none" stroke="black" transform="translate(72.12830598598134,314.1055644977299) rotate(66.60402705239314) scale(0.9877408497262169)" /><path d="M27.7,-11.5 L27.7,11.5 L11.5,27.7 L-11.5,27.7 L-27.7,11.5 L-27.7,-11.5 L-11.5,-27.7 L11.5,-27.7 Z" fill="none" stroke="black" transform="translate(158.84045169142797,117.54066418551054) rotate(249.77710502703135) scale(0.8615544588387096)" /><g><path d="M0,0 m-30,0 a30,30 0 1,0 60,0 a30,30 0 1,0 -60,0" fill="none" stroke="black" transform="translate(281.6970782229234,99.19015266256815) rotate(193.17930541855762) scale(0.9197056784353275)" /><path d="M0,0 m-30,0 a30,30 0 1,0 60,0 a30,30 0 1,0 -60,0" fill="none" stroke="black" transform="translate(281.6970782229234,99.19015266256815) rotate(193.17930541855762) scale(0.6437939749047292)" /></g><path d="M0.0,-30.0 L28.5,-9.3 L17.6,24.3 L-17.6,24.3 L-28.5,-9.3 Z" fill="none" stroke="black" transform="translate(70.98801309691565,203.47511117108579) rotate(131.89729750608623) scale(0.8296804405762619)" /><path d="M0.0,-30.0 L8.8,-12.1 L28.5,-9.3 L14.3,4.6 L17.6,24.3 L0.0,15.0 L-17.6,24.3 L-14.3,4.6 L-28.5,-9.3 L-8.8,-12.1 Z" fill="none" stroke="black" transform="translate(304.0249180888018,169.44002175552177) rotate(75.71466740205332) scale(0.8234758925358387)" /><g><path d="M-30,-20 h60 v40 h-60 Z" fill="none" stroke="black" transform="translate(106.37719295395601,250.80715331895348) rotate(114.59526565940745) scale(1.3982210790759364)" /><path d="M-30,-20 h60 v40 h-60 Z" fill="none" stroke="black" transform="translate(106.37719295395601,250.80715331895348) rotate(114.59526565940745) scale(0.9787547553531554)" /><path d="M-30,-20 h60 v40 h-60 Z" fill="none" stroke="black" transform="translate(106.37719295395601,250.80715331895348) rotate(114.59526565940745) scale(0.5592884316303746)" /></g><path d="M-30,-20 h60 v40 h-60 Z" fill="none" stroke="black" transform="translate(112.97355167794238,92.41342915598668) rotate(306.00546093400413) scale(0.8093924595695521)" /><path d="M-30,-20 h60 v40 h-60 Z" fill="none" stroke="black" transform="translate(308.17157630920923,286.344080344016) rotate(220.00323380593613) scale(1.1010349363507794)" /><g><path d="M0,-30 L30,30 L-30,30 Z" fill="none" stroke="black" transform="translate(202.845753071422,104.5529710550658) rotate(72.598444422578) scale(1.0831767345024494)" /><path d="M0,-30 L30,30 L-30,30 Z" fill="none" stroke="black" transform="translate(202.845753071422,104.5529710550658) rotate(72.598444422578) scale(0.7582237141517145)" /></g></svg>