<svg baseProfile="full" height="400" version="1.1" width="400" xmlns="http://www.w3.org/2000/svg" xmlns:ev="http://www.w3.org/2001/xml-events" xmlns:xlink="http://www.w3.org/1999/xlink"><defs /><rect fill="white" height="100%" width="100%" x="0" y="0" /><path d="M27.7,-11.5 L27.7,11.5 L11.5,27.7 L-11.5,27.7 L-27.7,11.5 L-27.7,-11.5 L-11.5,-27.7 L11.5,-27.7 Z" fill="none" stroke="black" transform="translate(230.51992547009883,162.3379448904744) rotate(68.45473635042961) scale(1.6275429086879425)" /><path d="M-30,-20 h60 v40 h-60 Z" fill="none" stroke="black" transform="translate(286.13519653254247,285.4008687901022) rotate(178.74960412259838) scale(1.3683027723932453)" /><g><path d="M-30,-20 h60 v40 h-60 Z" fill="none" stroke="black" transform="translate(109.2968124700343,133.50536829694866) rotate(165.26074483561482) scale(0.818700609726045)" /><path d="M-30,-20 h60 v40 h-60 Z" fill="none" stroke="black" transform="translate(109.2968124700343,133.50536829694866) rotate(165.26074483561482) scale(0.5730904268082314)" /></g><g><path d="M30,0 L15,-26 L-15,-26 L-30,0 L-15,26 L15,26 Z" fill="none" stroke="black" transform="translate(191.8098469770107,314.02782707598476) rotate(203.4285295740439) scale(0.8313895674509209)" /><path d="M30,0 L15,-26 L-15,-26 L-30,0 L-15,26 L15,26 Z" fill="none" stroke="black" transform="translate(191.8098469770107,314.02782707598476) rotate(203.4285295740439) scale(0.5819726972156446)" /></g><path d="M30,0 L15,-26 L-15,-26 L-30,0 L-15,26 L15,26 Z" fill="none" stroke="black" transform="translate(108.1841106555488,250.1440921049542) rotate(139.2911573875114) scale(1.0288787628673746)" /></svg>