<svg baseProfile="full" height="400" version="1.1" width="400" xmlns="http://www.w3.org/2000/svg" xmlns:ev="http://www.w3.org/2001/xml-events" xmlns:xlink="http://www.w3.org/1999/xlink"><defs /><rect fill="white" height="100%" width="100%" x="0" y="0" /><g><path d="M0,0 m-30,0 a30,30 0 1,0 60,0 a30,30 0 1,0 -60,0" fill="none" stroke="black" transform="translate(243.60236502727196,118.95842857073946) rotate(243.21979770651618) scale(1.5938790769684128)" /><path d="M0,0 m-30,0 a30,30 0 1,0 60,0 a30,30 0 1,0 -60,0" fill="none" stroke="black" transform="translate(243.60236502727196,118.95842857073946) rotate(243.21979770651618) scale(1.1157153538778888)" /><path d="M0,0 m-30,0 a30,30 0 1,0 60,0 a30,30 0 1,0 -60,0" fill="none" stroke="black" transform="translate(243.60236502727196,118.95842857073946) rotate(243.21979770651618) scale(0.6375516307873652)" /></g><g><path d="M0,0 m-30,0 a30,30 0 1,0 60,0 a30,30 0 1,0 -60,0" fill="none" stroke="black" transform="translate(198.984800196064,258.4686548105253) rotate(316.53232378198413) scale(1.7598659159848171)" /><path d="M0,0 m-30,0 a30,30 0 1,0 60,0 a30,30 0 1,0 -60,0" fill="none" stroke="black" transform="translate(198.984800196064,258.4686548105253) rotate(316.53232378198413) scale(1.231906141189372)" /></g><g><path d="M0,0 m-30,0 a30,30 0 1,0 60,0 a30,30 0 1,0 -60,0" fill="none" stroke="black" transform="translate(169.24016817278664,157.50437738127948) rotate(234.94405909168847) scale(1.3791258963524005)" /><path d="M0,0 m-30,0 a30,30 0 1,0 60,0 a30,30 0 1,0 -60,0" fill="none" stroke="black" transform="translate(169.24016817278664,157.50437738127948) rotate(234.94405909168847) scale(0.9653881274466802)" /><path d="M0,0 m-30,0 a30,30 0 1,0 60,0 a30,30 0 1,0 -60,0" fill="none" stroke="black" transform="translate(169.24016817278664,157.50437738127948) rotate(234.94405909168847) scale(0.5516503585409602)" /></g><path d="M0.0,-30.0 L28.5,-9.3 L17.6,24.3 L-17.6,24.3 L-28.5,-9.3 Z" fill="none" stroke="black" transform="translate(128.1459571079206,289.73141077194265) rotate(238.72088495385486) scale(1.0304574843206185)" /><g><path d="M0.0,-30.0 L28.5,-9.3 L17.6,24.3 L-17.6,24.3 L-28.5,-9.3 Z" fill="none" stroke="black" transform="translate(263.94168912746096,222.76893143540428) rotate(7.702536340388759) scale(1.011581741243696)" /><path d="M0.0,-30.0 L28.5,-9.3 L17.6,24.3 L-17.6,24.3 L-28.5,-9.3 Z" fill="none" stroke="black" transform="translate(263.94168912746096,222.76893143540428) rotate(7.702536340388759) scale(0.7081072188705871)" /></g><path d="M0.0,-30.0 L8.8,-12.1 L28.5,-9.3 L14.3,4.6 L17.6,24.3 L0.0,15.0 L-17.6,24.3 L-14.3,4.6 L-28.5,-9.3 L-8.8,-12.1 Z" fill="none" stroke="black" transform="translate(145.01403671819958,77.45068880638469) rotate(33.488684544791575) scale(1.0707369235338122)" /><g><path d="M0.0,-30.0 L8.8,-12.1 L28.5,-9.3 L14.3,4.6 L17.6,24.3 L0.0,15.0 L-17.6,24.3 L-14.3,4.6 L-28.5,-9.3 L-8.8,-12.1 Z" fill="none" stroke="black" transform="translate(241.8072648566686,287.19408190248413) rotate(17.43957641018328) scale(0.8155381815304505)" /><path d="M0.0,-30.0 L8.8,-12.1 L28.5,-9.3 L14.3,4.6 L17.6,24.3 L0.0,15.0 L-17.6,24.3 L-14.3,4.6 L-28.5,-9.3 L-8.8,-12.1 Z" fill="none" stroke="black" transform="translate(241.8072648566686,287.19408190248413) rotate(17.43957641018328) scale(0.5708767270713153)" /><path d="M0.0,-30.0 L8.8,-12.1 L28.5,-9.3 L14.3,4.6 L17.6,24.3 L0.0,15.0 L-17.6,24.3 L-14.3,4.6 L-28.5,-9.3 L-8.8,-12.1 Z" fill="none" stroke="black" transform="translate(241.8072648566686,287.19408190248413) rotate(17.43957641018328) scale(0.32621527261218025)" /></g><g><path d="M30,0 L15,-26 L-15,-26 L-30,0 L-15,26 L15,26 Z" fill="none" stroke="black" transform="translate(139.32798030794527,226.0117203940427) rotate(244.56542469532036) scale(1.3322810120133335)" /><path d="M30,0 L15,-26 L-15,-26 L-30,0 L-15,26 L15,26 Z" fill="none" stroke="black" transform="translate(139.32798030794527,226.0117203940427) rotate(244.56542469532036) scale(0.9325967084093334)" /><path d="M30,0 L15,-26 L-15,-26 L-30,0 L-15,26 L15,26 Z" fill="none" stroke="black" transform="translate(139.32798030794527,226.0117203940427) rotate(244.56542469532036) scale(0.5329124048053334)" /></g><path d="M30,0 L15,-26 L-15,-26 L-30,0 L-15,26 L15,26 Z" fill="none" stroke="black" transform="translate(73.35335890227546,147.1294515064574) rotate(357.81700466635675) scale(0.994133092008889)" /><g><path d="M30,0 L15,-26 L-15,-26 L-30,0 L-15,26 L15,26 Z" fill="none" stroke="black" transform="translate(314.4706712484941,303.9850934812871) rotate(300.9802477691043) scale(0.8585032750584846)" /><path d="M30,0 L15,-26 L-15,-26 L-30,0 L-15,26 L15,26 Z" fill="none" stroke="black" transform="translate(314.4706712484941,303.9850934812871) rotate(300.9802477691043) scale(0.6009522925409392)" /></g><g><path d="M27.7,-11.5 L27.7,11.5 L11.5,27.7 L-11.5,27.7 L-27.7,11.5 L-27.7,-11.5 L-11.5,-27.7 L11.5,-27.7 Z" fill="none" stroke="black" transform="translate(162.82850618571663,319.45300088022697) rotate(26.28572834834625) scale(0.851280538886116)" /><path d="M27.7,-11.5 L27.7,11.5 L11.5,27.7 L-11.5,27.7 L-27.7,11.5 L-27.7,-11.5 L-11.5,-27.7 L11.5,-27.7 Z" fill="none" stroke="black" transform="translate(162.82850618571663,319.45300088022697) rotate(26.28572834834625) scale(0.5958963772202811)" /><path d="M27.7,-11.5 L27.7,11.5 L11.5,27.7 L-11.5,27.7 L-27.7,11.5 L-27.7,-11.5 L-11.5,-27.7 L11.5,-27.7 Z" fill="none" stroke="black" transform="translate(162.82850618571663,319.45300088022697) rotate(26.28572834834625) scale(0.34051221555444644)" /></g><g><path d="M27.7,-11.5 L27.7,11.5 L11.5,27.7 L-11.5,27.7 L-27.7,11.5 L-27.7,-11.5 L-11.5,-27.7 L11.5,-27.7 Z" fill="none" stroke="black" transform="translate(91.13040706260972,96.50036685812577) rotate(4.37778070715618) scale(0.9976288473741182)" /><path d="M27.7,-11.5 L27.7,11.5 L11.5,27.7 L-11.5,27.7 L-27.7,11.5 L-27.7,-11.5 L-11.5,-27.7 L11.5,-27.7 Z" fill="none" stroke="black" transform="translate(91.13040706260972,96.50036685812577) rotate(4.37778070715618) scale(0.6983401931618827)" /><path d="M27.7,-11.5 L27.7,11.5 L11.5,27.7 L-11.5,27.7 L-27.7,11.5 L-27.7,-11.5 L-11.5,-27.7 L11.5,-27.7 Z" fill="none" stroke="black" transform="translate(91.13040706260972,96.50036685812577) rotate(4.37778070715618) scale(0.3990515389496473)" /></g><path d="M27.7,-11.5 L27.7,11.5 L11.5,27.7 L-11.5,27.7 L-27.7,11.5 L-27.7,-11.5 L-11.5,-27.7 L11.5,-27.7 Z" fill="none" stroke="black" transform="translate(305.5636168532397,255.19362896496352) rotate(203.61942937790033) scale(1.3077590348566366)" /><path d="M-30,-20 h60 v40 h-60 Z" fill="none" stroke="black" transform="translate(130.45220819797018,174.0295508367081) rotate(121.98985426878464) scale(0.8827369056246931)" /><g><path d="M0,-30 L30,30 L-30,30 Z" fill="none" stroke="black" transform="translate(108.83466647426843,197.01153338729455) rotate(16.287368348851764) scale(0.9194839262742773)" /><path d="M0,-30 L30,30 L-30,30 Z" fill="none" stroke="black" transform="translate(108.83466647426843,197.01153338729455) rotate(16.287368348851764) scale(0.6436387483919941)" /><path d="M0,-30 L30,30 L-30,30 Z" fill="none" stroke="black" transform="translate(108.83466647426843,197.01153338729455) rotate(16.287368348851764) scale(0.36779357050971095)" /></g></svg>