<svg baseProfile="full" height="400" version="1.1" width="400" xmlns="http://www.w3.org/2000/svg" xmlns:ev="http://www.w3.org/2001/xml-events" xmlns:xlink="http://www.w3.org/1999/xlink"><defs /><rect fill="white" height="100%" width="100%" x="0" y="0" /><path d="M0,-30 L30,30 L-30,30 Z" fill="none" stroke="black" transform="translate(189.0493229561107,97.30239891240319) rotate(263.5242304245374) scale(0.9211091918465926)" /><path d="M0,-30 L30,30 L-30,30 Z" fill="none" stroke="black" transform="translate(214.24340788487302,235.06750840180723) rotate(64.95901102780057) scale(1.9136114339739339)" /><path d="M0,-30 L30,30 L-30,30 Z" fill="none" stroke="black" transform="translate(316.61957256369305,90.6692180427692) rotate(358.4441376660137) scale(0.9831744242803893)" /><g><path d="M27.7,-11.5 L27.7,11.5 L11.5,27.7 L-11.5,27.7 L-27.7,11.5 L-27.7,-11.5 L-11.5,-27.7 L11.5,-27.7 Z" fill="none" stroke="black" transform="translate(93.0629822781252,210.58731324305057) rotate(124.45679069348847) scale(1.1040241444333094)" /><path d="M27.7,-11.5 L27.7,11.5 L11.5,27.7 L-11.5,27.7 L-27.7,11.5 L-27.7,-11.5 L-11.5,-27.7 L11.5,-27.7 Z" fill="none" stroke="black" transform="translate(93.0629822781252,210.58731324305057) rotate(124.45679069348847) scale(0.7728169011033166)" /><path d="M27.7,-11.5 L27.7,11.5 L11.5,27.7 L-11.5,27.7 L-27.7,11.5 L-27.7,-11.5 L-11.5,-27.7 L11.5,-27.7 Z" fill="none" stroke="black" transform="translate(93.0629822781252,210.58731324305057) rotate(124.45679069348847) scale(0.4416096577733238)" /></g><path d="M0,0 m-30,0 a30,30 0 1,0 60,0 a30,30 0 1,0 -60,0" fill="none" stroke="black" transform="translate(111.262326753897,128.93712150951404) rotate(118.75022404682079) scale(1.411426100258899)" /><g><path d="M0,0 m-30,0 a30,30 0 1,0 60,0 a30,30 0 1,0 -60,0" fill="none" stroke="black" transform="translate(303.255449059523,250.10523932248225) rotate(236.7994749433023) scale(0.8970779161608181)" /><path d="M0,0 m-30,0 a30,30 0 1,0 60,0 a30,30 0 1,0 -60,0" fill="none" stroke="black" transform="translate(303.255449059523,250.10523932248225) rotate(236.7994749433023) scale(0.6279545413125727)" /><path d="M0,0 m-30,0 a30,30 0 1,0 60,0 a30,30 0 1,0 -60,0" fill="none" stroke="black" transform="translate(303.255449059523,250.10523932248225) rotate(236.7994749433023) scale(0.3588311664643273)" /></g><path d="M0,0 m-30,0 a30,30 0 1,0 60,0 a30,30 0 1,0 -60,0" fill="none" stroke="black" transform="translate(101.77962757149749,291.01408451636297) rotate(185.5519792302481) scale(1.0953218840542975)" /><path d="M0,0 m-30,0 a30,30 0 1,0 60,0 a30,30 0 1,0 -60,0" fill="none" stroke="black" transform="translate(146.13071406193532,278.7631043621251) rotate(87.88059837823218) scale(0.9228688392939378)" /><path d="M0.0,-30.0 L28.5,-9.3 L17.6,24.3 L-17.6,24.3 L-28.5,-9.3 Z" fill="none" stroke="black" transform="translate(304.98139053383,301.2219310394479) rotate(359.9738207969624) scale(0.9866802135800963)" /><g><path d="M30,0 L15,-26 L-15,-26 L-30,0 L-15,26 L15,26 Z" fill="none" stroke="black" transform="translate(240.8547487881399,85.98444029183491) rotate(321.06823928908983) scale(0.9367664901598461)" /><path d="M30,0 L15,-26 L-15,-26 L-30,0 L-15,26 L15,26 Z" fill="none" stroke="black" transform="translate(240.8547487881399,85.98444029183491) rotate(321.06823928908983) scale(0.6557365431118922)" /><path d="M30,0 L15,-26 L-15,-26 L-30,0 L-15,26 L15,26 Z" fill="none" stroke="black" transform="translate(240.8547487881399,85.98444029183491) rotate(321.06823928908983) scale(0.37470659606393847)" /></g><path d="M30,0 L15,-26 L-15,-26 L-30,0 L-15,26 L15,26 Z" fill="none" stroke="black" transform="translate(273.8149437995179,167.47124565248708) rotate(154.39559417898505) scale(0.8131660124424362)" /><g><path d="M-30,-20 h60 v40 h-60 Z" fill="none" stroke="black" transform="translate(213.82905960671803,317.2220560583193) rotate(284.5326765437736) scale(0.8112662914326689)" /><path d="M-30,-20 h60 v40 h-60 Z" fill="none" stroke="black" transform="translate(213.82905960671803,317.2220560583193) rotate(284.5326765437736) scale(0.5678864040028682)" /><path d="M-30,-20 h60 v40 h-60 Z" fill="none" stroke="black" transform="translate(213.82905960671803,317.2220560583193) rotate(284.5326765437736) scale(0.3245065165730676)" /></g><path d="M-30,-20 h60 v40 h-60 Z" fill="none" stroke="black" transform="translate(226.12365223248855,150.94870084256306) rotate(74.51538856658634) scale(1.0174315796830777)" /><path d="M-30,-20 h60 v40 h-60 Z" fill="none" stroke="black" transform="translate(111.2066215790266,332.1469401194126) rotate(5.325555088660989) scale(0.8652231527376039)" /><path d="M0.0,-30.0 L8.8,-12.1 L28.5,-9.3 L14.3,4.6 L17.6,24.3 L0.0,15.0 L-17.6,24.3 L-14.3,4.6 L-28.5,-9.3 L-8.8,-12.1 Z" fill="none" stroke="black" transform="translate(172.56838056717703,335.25455614495297) rotate(39.432793300237556) scale(0.8292980856160393)" /></svg>