<svg baseProfile="full" height="400" version="1.1" width="400" xmlns="http://www.w3.org/2000/svg" xmlns:ev="http://www.w3.org/2001/xml-events" xmlns:xlink="http://www.w3.org/1999/xlink"><defs /><rect fill="white" height="100%" width="100%" x="0" y="0" /><path d="M0,-30 L30,30 L-30,30 Z" fill="none" stroke="black" transform="translate(242.85575380054183,202.93774725727852) rotate(31.44407223990622) scale(1.6270324747275318)" /><g><path d="M0,-30 L30,30 L-30,30 Z" fill="none" stroke="black" transform="translate(157.61767806760594,237.55997062100892) rotate(93.15783266842739) scale(1.1345921120306313)" /><path d="M0,-30 L30,30 L-30,30 Z" fill="none" stroke="black" transform="translate(157.61767806760594,237.55997062100892) rotate(93.15783266842739) scale(0.7942144784214419)" /></g><g><path d="M0,0 m-30,0 a30,30 0 1,0 60,0 a30,30 0 1,0 -60,0" fill="none" stroke="black" transform="translate(182.29980793390723,207.15415077911268) rotate(131.65004849979374) scale(0.9611697118931016)" /><path d="M0,0 m-30,0 a30,30 0 1,0 60,0 a30,30 0 1,0 -60,0" fill="none" stroke="black" transform="translate(182.29980793390723,207.15415077911268) rotate(131.65004849979374) scale(0.6728187983251711)" /><path d="M0,0 m-30,0 a30,30 0 1,0 60,0 a30,30 0 1,0 -60,0" fill="none" stroke="black" transform="translate(182.29980793390723,207.15415077911268) rotate(131.65004849979374) scale(0.3844678847572407)" /></g><path d="M0,0 m-30,0 a30,30 0 1,0 60,0 a30,30 0 1,0 -60,0" fill="none" stroke="black" transform="translate(218.3986686172685,73.87693539760717) rotate(234.81378062945757) scale(0.932427329407641)" /><path d="M0,0 m-30,0 a30,30 0 1,0 60,0 a30,30 0 1,0 -60,0" fill="none" stroke="black" transform="translate(184.7504272899625,134.94109473090697) rotate(121.02807780592434) scale(1.4478989948391359)" /><g><path d="M0.0,-30.0 L8.8,-12.1 L28.5,-9.3 L14.3,4.6 L17.6,24.3 L0.0,15.0 L-17.6,24.3 L-14.3,4.6 L-28.5,-9.3 L-8.8,-12.1 Z" fill="none" stroke="black" transform="translate(133.14126550408895,287.84213304459104) rotate(96.12313453926564) scale(1.4320420898171555)" /><path d="M0.0,-30.0 L8.8,-12.1 L28.5,-9.3 L14.3,4.6 L17.6,24.3 L0.0,15.0 L-17.6,24.3 L-14.3,4.6 L-28.5,-9.3 L-8.8,-12.1 Z" fill="none" stroke="black" transform="translate(133.14126550408895,287.84213304459104) rotate(96.12313453926564) scale(1.0024294628720087)" /><path d="M0.0,-30.0 L8.8,-12.1 L28.5,-9.3 L14.3,4.6 L17.6,24.3 L0.0,15.0 L-17.6,24.3 L-14.3,4.6 L-28.5,-9.3 L-8.8,-12.1 Z" fill="none" stroke="black" transform="translate(133.14126550408895,287.84213304459104) rotate(96.12313453926564) scale(0.5728168359268623)" /></g><path d="M0.0,-30.0 L8.8,-12.1 L28.5,-9.3 L14.3,4.6 L17.6,24.3 L0.0,15.0 L-17.6,24.3 L-14.3,4.6 L-28.5,-9.3 L-8.8,-12.1 Z" fill="none" stroke="black" transform="translate(172.30517174356572,69.50552419259179) rotate(219.69329444386764) scale(0.8768845532174839)" /><g><path d="M0.0,-30.0 L8.8,-12.1 L28.5,-9.3 L14.3,4.6 L17.6,24.3 L0.0,15.0 L-17.6,24.3 L-14.3,4.6 L-28.5,-9.3 L-8.8,-12.1 Z" fill="none" stroke="black" transform="translate(76.9025462578507,156.02519532478) rotate(43.89924066338316) scale(1.041482633292344)" /><path d="M0.0,-30.0 L8.8,-12.1 L28.5,-9.3 L14.3,4.6 L17.6,24.3 L0.0,15.0 L-17.6,24.3 L-14.3,4.6 L-28.5,-9.3 L-8.8,-12.1 Z" fill="none" stroke="black" transform="translate(76.9025462578507,156.02519532478) rotate(43.89924066338316) scale(0.7290378433046407)" /></g><path d="M30,0 L15,-26 L-15,-26 L-30,0 L-15,26 L15,26 Z" fill="none" stroke="black" transform="translate(117.14220681321603,181.77186695534232) rotate(93.49160331545612) scale(1.2374981918636878)" /><path d="M30,0 L15,-26 L-15,-26 L-30,0 L-15,26 L15,26 Z" fill="none" stroke="black" transform="translate(80.57994982133869,220.50293572055236) rotate(219.51208078771913) scale(1.1166192931758958)" /><path d="M30,0 L15,-26 L-15,-26 L-30,0 L-15,26 L15,26 Z" fill="none" stroke="black" transform="translate(302.7563079537359,312.2141142758792) rotate(296.7935801299086) scale(1.1563489917330962)" /><path d="M30,0 L15,-26 L-15,-26 L-30,0 L-15,26 L15,26 Z" fill="none" stroke="black" transform="translate(280.3432884434512,89.09611444934022) rotate(359.8107935000786) scale(1.144074198133453)" /><path d="M30,0 L15,-26 L-15,-26 L-30,0 L-15,26 L15,26 Z" fill="none" stroke="black" transform="translate(285.97667471886734,283.417338602528) rotate(146.41901208039158) scale(0.8188570615856686)" /><g><path d="M30,0 L15,-26 L-15,-26 L-30,0 L-15,26 L15,26 Z" fill="none" stroke="black" transform="translate(194.44092765169307,81.32412647243666) rotate(152.48972888136956) scale(0.9628013717995781)" /><path d="M30,0 L15,-26 L-15,-26 L-30,0 L-15,26 L15,26 Z" fill="none" stroke="black" transform="translate(194.44092765169307,81.32412647243666) rotate(152.48972888136956) scale(0.6739609602597046)" /></g><path d="M27.7,-11.5 L27.7,11.5 L11.5,27.7 L-11.5,27.7 L-27.7,11.5 L-27.7,-11.5 L-11.5,-27.7 L11.5,-27.7 Z" fill="none" stroke="black" transform="translate(213.9149699462045,284.91181329726606) rotate(272.7399445420354) scale(1.382983809064358)" /><g><path d="M27.7,-11.5 L27.7,11.5 L11.5,27.7 L-11.5,27.7 L-27.7,11.5 L-27.7,-11.5 L-11.5,-27.7 L11.5,-27.7 Z" fill="none" stroke="black" transform="translate(151.5618156958492,104.96986957700389) rotate(116.71250858171707) scale(1.101249345441214)" /><path d="M27.7,-11.5 L27.7,11.5 L11.5,27.7 L-11.5,27.7 L-27.7,11.5 L-27.7,-11.5 L-11.5,-27.7 L11.5,-27.7 Z" fill="none" stroke="black" transform="translate(151.5618156958492,104.96986957700389) rotate(116.71250858171707) scale(0.7708745418088497)" /></g><g><path d="M0.0,-30.0 L28.5,-9.3 L17.6,24.3 L-17.6,24.3 L-28.5,-9.3 Z" fill="none" stroke="black" transform="translate(338.0610942813006,134.72579996848145) rotate(224.31491531411436) scale(0.8045448049657425)" /><path d="M0.0,-30.0 L28.5,-9.3 L17.6,24.3 L-17.6,24.3 L-28.5,-9.3 Z" fill="none" stroke="black" transform="translate(338.0610942813006,134.72579996848145) rotate(224.31491531411436) scale(0.5631813634760198)" /><path d="M0.0,-30.0 L28.5,-9.3 L17.6,24.3 L-17.6,24.3 L-28.5,-9.3 Z" fill="none" stroke="black" transform="translate(338.0610942813006,134.72579996848145) rotate(224.31491531411436) scale(0.32181792198629705)" /></g><path d="M0.0,-30.0 L28.5,-9.3 L17.6,24.3 L-17.6,24.3 L-28.5,-9.3 Z" fill="none" stroke="black" transform="translate(235.46002934457698,133.138988281786) rotate(240.7014300894912) scale(0.8927107846969905)" /><path d="M0.0,-30.0 L28.5,-9.3 L17.6,24.3 L-17.6,24.3 L-28.5,-9.3 Z" fill="none" stroke="black" transform="translate(95.99052661058838,91.1050767754693) rotate(85.14846847125413) scale(0.8300911262757046)" /><path d="M-30,-20 h60 v40 h-60 Z" fill="none" stroke="black" transform="translate(270.9793500293597,240.3300542184207) rotate(127.20402699114328) scale(1.0052250643555714)" /></svg>