<svg baseProfile="full" height="400" version="1.1" width="400" xmlns="http://www.w3.org/2000/svg" xmlns:ev="http://www.w3.org/2001/xml-events" xmlns:xlink="http://www.w3.org/1999/xlink"><defs /><rect fill="white" height="100%" width="100%" x="0" y="0" /><path d="M0.0,-30.0 L8.8,-12.1 L28.5,-9.3 L14.3,4.6 L17.6,24.3 L0.0,15.0 L-17.6,24.3 L-14.3,4.6 L-28.5,-9.3 L-8.8,-12.1 Z" fill="none" stroke="black" transform="translate(150.49627688802732,205.0590757969835) rotate(58.13185735902766) scale(0.8427618425666744)" /><path d="M0.0,-30.0 L8.8,-12.1 L28.5,-9.3 L14.3,4.6 L17.6,24.3 L0.0,15.0 L-17.6,24.3 L-14.3,4.6 L-28.5,-9.3 L-8.8,-12.1 Z" fill="none" stroke="black" transform="translate(230.8938320408584,212.12765731591074) rotate(253.80494112539975) scale(1.652057213332426)" /><path d="M0.0,-30.0 L8.8,-12.1 L28.5,-9.3 L14.3,4.6 L17.6,24.3 L0.0,15.0 L-17.6,24.3 L-14.3,4.6 L-28.5,-9.3 L-8.8,-12.1 Z" fill="none" stroke="black" transform="translate(77.67779688303877,213.81475696778114) rotate(243.64848956350488) scale(1.039660530486191)" /><path d="M0.0,-30.0 L8.8,-12.1 L28.5,-9.3 L14.3,4.6 L17.6,24.3 L0.0,15.0 L-17.6,24.3 L-14.3,4.6 L-28.5,-9.3 L-8.8,-12.1 Z" fill="none" stroke="black" transform="translate(311.2483779701228,112.67047141336903) rotate(289.886914805607) scale(0.9401459827304317)" /><path d="M-30,-20 h60 v40 h-60 Z" fill="none" stroke="black" transform="translate(248.18512351173496,129.07110062881756) rotate(68.24361929219232) scale(1.4398550710559044)" /><g><path d="M-30,-20 h60 v40 h-60 Z" fill="none" stroke="black" transform="translate(100.94319468400876,99.02229969865195) rotate(261.7363588456435) scale(1.1706748347834992)" /><path d="M-30,-20 h60 v40 h-60 Z" fill="none" stroke="black" transform="translate(100.94319468400876,99.02229969865195) rotate(261.7363588456435) scale(0.8194723843484494)" /></g><path d="M-30,-20 h60 v40 h-60 Z" fill="none" stroke="black" transform="translate(276.25281592685286,280.9517528193394) rotate(147.95233434200227) scale(1.608952813366885)" /><g><path d="M-30,-20 h60 v40 h-60 Z" fill="none" stroke="black" transform="translate(170.40536319765806,233.50878824850514) rotate(153.2570322343057) scale(1.4583336779657792)" /><path d="M-30,-20 h60 v40 h-60 Z" fill="none" stroke="black" transform="translate(170.40536319765806,233.50878824850514) rotate(153.2570322343057) scale(1.0208335745760453)" /><path d="M-30,-20 h60 v40 h-60 Z" fill="none" stroke="black" transform="translate(170.40536319765806,233.50878824850514) rotate(153.2570322343057) scale(0.5833334711863117)" /></g><path d="M-30,-20 h60 v40 h-60 Z" fill="none" stroke="black" transform="translate(135.13191664169958,181.77605933182952) rotate(347.1786916792306) scale(1.1183725539916025)" /><path d="M-30,-20 h60 v40 h-60 Z" fill="none" stroke="black" transform="translate(79.79509363437157,260.54905609442113) rotate(290.2812690514191) scale(1.0970266756927822)" /><path d="M-30,-20 h60 v40 h-60 Z" fill="none" stroke="black" transform="translate(174.80870049287506,113.56377925422001) rotate(17.712931688314228) scale(1.292972632194838)" /><path d="M30,0 L15,-26 L-15,-26 L-30,0 L-15,26 L15,26 Z" fill="none" stroke="black" transform="translate(216.33662535133712,95.20651735723416) rotate(123.08446970534193) scale(0.8953533448015911)" /><path d="M30,0 L15,-26 L-15,-26 L-30,0 L-15,26 L15,26 Z" fill="none" stroke="black" transform="translate(164.0406109069522,184.9044846489081) rotate(175.13651275223745) scale(0.8196659471607769)" /><g><path d="M0,-30 L30,30 L-30,30 Z" fill="none" stroke="black" transform="translate(98.45696188892092,141.8245968690306) rotate(31.08675882370141) scale(0.8727798391798448)" /><path d="M0,-30 L30,30 L-30,30 Z" fill="none" stroke="black" transform="translate(98.45696188892092,141.8245968690306) rotate(31.08675882370141) scale(0.6109458874258913)" /></g><g><path d="M0,-30 L30,30 L-30,30 Z" fill="none" stroke="black" transform="translate(224.0906649068889,324.1528596768581) rotate(269.90804509664326) scale(0.8204246573749875)" /><path d="M0,-30 L30,30 L-30,30 Z" fill="none" stroke="black" transform="translate(224.0906649068889,324.1528596768581) rotate(269.90804509664326) scale(0.5742972601624912)" /><path d="M0,-30 L30,30 L-30,30 Z" fill="none" stroke="black" transform="translate(224.0906649068889,324.1528596768581) rotate(269.90804509664326) scale(0.328169862949995)" /></g><path d="M0,-30 L30,30 L-30,30 Z" fill="none" stroke="black" transform="translate(176.81130731656953,309.4562880881237) rotate(121.51648088504014) scale(1.178981432932971)" /><g><path d="M0,-30 L30,30 L-30,30 Z" fill="none" stroke="black" transform="translate(119.15167878076608,222.40339302001973) rotate(157.6662846547062) scale(0.8114754879929419)" /><path d="M0,-30 L30,30 L-30,30 Z" fill="none" stroke="black" transform="translate(119.15167878076608,222.40339302001973) rotate(157.6662846547062) scale(0.5680328415950593)" /></g><g><path d="M0,-30 L30,30 L-30,30 Z" fill="none" stroke="black" transform="translate(217.28165176917776,284.5289520242237) rotate(226.62682333902293) scale(1.1447953925622798)" /><path d="M0,-30 L30,30 L-30,30 Z" fill="none" stroke="black" transform="translate(217.28165176917776,284.5289520242237) rotate(226.62682333902293) scale(0.8013567747935958)" /><path d="M0,-30 L30,30 L-30,30 Z" fill="none" stroke="black" transform="translate(217.28165176917776,284.5289520242237) rotate(226.62682333902293) scale(0.45791815702491195)" /></g><path d="M0,-30 L30,30 L-30,30 Z" fill="none" stroke="black" transform="translate(135.81492103080188,324.3516721375655) rotate(303.6099047636856) scale(1.0084803290852304)" /><path d="M0,-30 L30,30 L-30,30 Z" fill="none" stroke="black" transform="translate(208.51917031598322,165.81891046185848) rotate(67.78753007573339) scale(0.8784056259381168)" /><path d="M0,-30 L30,30 L-30,30 Z" fill="none" stroke="black" transform="translate(298.908101106842,168.7768772326084) rotate(28.655571404384844) scale(0.8285077606466527)" /><path d="M0,0 m-30,0 a30,30 0 1,0 60,0 a30,30 0 1,0 -60,0" fill="none" stroke="black" transform="translate(315.3735694634299,238.39925592701354) rotate(237.89550588396682) scale(0.8872466258073379)" /><g><path d="M0,0 m-30,0 a30,30 0 1,0 60,0 a30,30 0 1,0 -60,0" fill="none" stroke="black" transform="translate(285.79220322993876,212.76108077289817) rotate(188.6970057650474) scale(0.8408820568938506)" /><path d="M0,0 m-30,0 a30,30 0 1,0 60,0 a30,30 0 1,0 -60,0" fill="none" stroke="black" transform="translate(285.79220322993876,212.76108077289817) rotate(188.6970057650474) scale(0.5886174398256954)" /><path d="M0,0 m-30,0 a30,30 0 1,0 60,0 a30,30 0 1,0 -60,0" fill="none" stroke="black" transform="translate(285.79220322993876,212.76108077289817) rotate(188.6970057650474) scale(0.3363528227575403)" /></g><path d="M0,0 m-30,0 a30,30 0 1,0 60,0 a30,30 0 1,0 -60,0" fill="none" stroke="black" transform="translate(102.8641281408615,175.38781969862697) rotate(251.69478633647415) scale(1.1109435909437977)" /><g><path d="M0,0 m-30,0 a30,30 0 1,0 60,0 a30,30 0 1,0 -60,0" fill="none" stroke="black" transform="translate(304.5639816783302,89.68956847440927) rotate(346.62983608055566) scale(0.8121100413432325)" /><path d="M0,0 m-30,0 a30,30 0 1,0 60,0 a30,30 0 1,0 -60,0" fill="none" stroke="black" transform="translate(304.5639816783302,89.68956847440927) rotate(346.62983608055566) scale(0.5684770289402628)" /><path d="M0,0 m-30,0 a30,30 0 1,0 60,0 a30,30 0 1,0 -60,0" fill="none" stroke="black" transform="translate(304.5639816783302,89.68956847440927) rotate(346.62983608055566) scale(0.324844016537293)" /></g><path d="M27.7,-11.5 L27.7,11.5 L11.5,27.7 L-11.5,27.7 L-27.7,11.5 L-27.7,-11.5 L-11.5,-27.7 L11.5,-27.7 Z" fill="none" stroke="black" transform="translate(118.0724291879612,279.5333708661848) rotate(38.81688779647303) scale(1.2074016191809782)" /><path d="M27.7,-11.5 L27.7,11.5 L11.5,27.7 L-11.5,27.7 L-27.7,11.5 L-27.7,-11.5 L-11.5,-27.7 L11.5,-27.7 Z" fill="none" stroke="black" transform="translate(295.13953887144294,65.51095567815223) rotate(278.50679990871333) scale(0.8102852359501896)" /><path d="M27.7,-11.5 L27.7,11.5 L11.5,27.7 L-11.5,27.7 L-27.7,11.5 L-27.7,-11.5 L-11.5,-27.7 L11.5,-27.7 Z" fill="none" stroke="black" transform="translate(161.52324972908724,152.25778166820368) rotate(308.90827230945393) scale(0.9923957560476993)" /><path d="M27.7,-11.5 L27.7,11.5 L11.5,27.7 L-11.5,27.7 L-27.7,11.5 L-27.7,-11.5 L-11.5,-27.7 L11.5,-27.7 Z" fill="none" stroke="black" transform="translate(329.144638466089,313.1232547597776) rotate(60.74569219354787) scale(0.8801104905915031)" /><path d="M27.7,-11.5 L27.7,11.5 L11.5,27.7 L-11.5,27.7 L-27.7,11.5 L-27.7,-11.5 L-11.5,-27.7 L11.5,-27.7 Z" fill="none" stroke="black" transform="translate(320.30529578317896,200.96119658110158) rotate(171.23949261159788) scale(1.0959714584365852)" /><path d="M27.7,-11.5 L27.7,11.5 L11.5,27.7 L-11.5,27.7 L-27.7,11.5 L-27.7,-11.5 L-11.5,-27.7 L11.5,-27.7 Z" fill="none" stroke="black" transform="translate(320.84640703768383,159.41220971396876) rotate(332.5723556549973) scale(0.8660258823020943)" /><g><path d="M27.7,-11.5 L27.7,11.5 L11.5,27.7 L-11.5,27.7 L-27.7,11.5 L-27.7,-11.5 L-11.5,-27.7 L11.5,-27.7 Z" fill="none" stroke="black" transform="translate(94.81574913723675,314.1682036342869) rotate(144.37319468506524) scale(1.04366593761584)" /><path d="M27.7,-11.5 L27.7,11.5 L11.5,27.7 L-11.5,27.7 L-27.7,11.5 L-27.7,-11.5 L-11.5,-27.7 L11.5,-27.7 Z" fill="none" stroke="black" transform="translate(94.81574913723675,314.1682036342869) rotate(144.37319468506524) scale(0.7305661563310879)" /></g><path d="M0.0,-30.0 L28.5,-9.3 L17.6,24.3 L-17.6,24.3 L-28.5,-9.3 Z" fill="none" stroke="black" transform="translate(240.17949482555628,69.2660022128218) rotate(218.47348115723344) scale(0.95328669482483)" /><path d="M0.0,-30.0 L28.5,-9.3 L17.6,24.3 L-17.6,24.3 L-28.5,-9.3 Z" fill="none" stroke="black" transform="translate(245.82675964974828,329.68459734060184) rotate(33.0751098229587) scale(0.8732912791110012)" /><g><path d="M0.0,-30.0 L28.5,-9.3 L17.6,24.3 L-17.6,24.3 L-28.5,-9.3 Z" fill="none" stroke="black" transform="translate(126.71907282721901,86.23727603368468) rotate(84.61591420394193) scale(0.8126950638133278)" /><path d="M0.0,-30.0 L28.5,-9.3 L17.6,24.3 L-17.6,24.3 L-28.5,-9.3 Z" fill="none" stroke="black" transform="translate(126.71907282721901,86.23727603368468) rotate(84.61591420394193) scale(0.5688865446693294)" /></g><path d="M0.0,-30.0 L28.5,-9.3 L17.6,24.3 L-17.6,24.3 L-28.5,-9.3 Z" fill="none" stroke="black" transform="translate(326.9669783355048,273.70322174229545) rotate(236.60646556384333) scale(0.9666209298909785)" /><g><path d="M0.0,-30.0 L28.5,-9.3 L17.6,24.3 L-17.6,24.3 L-28.5,-9.3 Z" fill="none" stroke="black" transform="translate(323.64071371525364,78.43791405903885) rotate(262.14244173377597) scale(0.9051189493218982)" /><path d="M0.0,-30.0 L28.5,-9.3 L17.6,24.3 L-17.6,24.3 L-28.5,-9.3 Z" fill="none" stroke="black" transform="translate(323.64071371525364,78.43791405903885) rotate(262.14244173377597) scale(0.6335832645253286)" /></g><g><path d="M0.0,-30.0 L28.5,-9.3 L17.6,24.3 L-17.6,24.3 L-28.5,-9.3 Z" fill="none" stroke="black" transform="translate(199.40290863616354,74.8600890517601) rotate(218.1745392063597) scale(1.0346472362423966)" /><path d="M0.0,-30.0 L28.5,-9.3 L17.6,24.3 L-17.6,24.3 L-28.5,-9.3 Z" fill="none" stroke="black" transform="translate(199.40290863616354,74.8600890517601) rotate(218.1745392063597) scale(0.7242530653696776)" /><path d="M0.0,-30.0 L28.5,-9.3 L17.6,24.3 L-17.6,24.3 L-28.5,-9.3 Z" fill="none" stroke="black" transform="translate(199.40290863616354,74.8600890517601) rotate(218.1745392063597) scale(0.4138588944969587)" /></g><path d="M0.0,-30.0 L28.5,-9.3 L17.6,24.3 L-17.6,24.3 L-28.5,-9.3 Z" fill="none" stroke="black" transform="translate(283.95834113078814,333.29059455019035) rotate(41.28906190514484) scale(0.8044288064484653)" /><g><path d="M0.0,-30.0 L28.5,-9.3 L17.6,24.3 L-17.6,24.3 L-28.5,-9.3 Z" fill="none" stroke="black" transform="translate(176.31578696217372,177.21787462271348) rotate(264.2659263829988) scale(0.8495062963559739)" /><path d="M0.0,-30.0 L28.5,-9.3 L17.6,24.3 L-17.6,24.3 L-28.5,-9.3 Z" fill="none" stroke="black" transform="translate(176.31578696217372,177.21787462271348) rotate(264.2659263829988) scale(0.5946544074491816)" /><path d="M0.0,-30.0 L28.5,-9.3 L17.6,24.3 L-17.6,24.3 L-28.5,-9.3 Z" fill="none" stroke="black" transform="translate(176.31578696217372,177.21787462271348) rotate(264.2659263829988) scale(0.3398025185423896)" /></g><g><path d="M0.0,-30.0 L28.5,-9.3 L17.6,24.3 L-17.6,24.3 L-28.5,-9.3 Z" fill="none" stroke="black" transform="translate(111.99757870391304,198.5107036467616) rotate(252.95083974743895) scale(0.9580799601287088)" /><path d="M0.0,-30.0 L28.5,-9.3 L17.6,24.3 L-17.6,24.3 L-28.5,-9.3 Z" fill="none" stroke="black" transform="translate(111.99757870391304,198.5107036467616) rotate(252.95083974743895) scale(0.6706559720900961)" /></g></svg>