<svg baseProfile="full" height="400" version="1.1" width="400" xmlns="http://www.w3.org/2000/svg" xmlns:ev="http://www.w3.org/2001/xml-events" xmlns:xlink="http://www.w3.org/1999/xlink"><defs /><rect fill="white" height="100%" width="100%" x="0" y="0" /><g><path d="M0,-30 L30,30 L-30,30 Z" fill="none" stroke="black" transform="translate(283.4167284458536,238.521850863147) rotate(184.5978139350646) scale(1.3348471549565402)" /><path d="M0,-30 L30,30 L-30,30 Z" fill="none" stroke="black" transform="translate(283.4167284458536,238.521850863147) rotate(184.5978139350646) scale(0.9343930084695781)" /></g><path d="M0,-30 L30,30 L-30,30 Z" fill="none" stroke="black" transform="translate(228.4712997184228,142.2350221067626) rotate(161.49440006528178) scale(1.7603869658962668)" /><g><path d="M0.0,-30.0 L8.8,-12.1 L28.5,-9.3 L14.3,4.6 L17.6,24.3 L0.0,15.0 L-17.6,24.3 L-14.3,4.6 L-28.5,-9.3 L-8.8,-12.1 Z" fill="none" stroke="black" transform="translate(146.56050656019028,189.3541275171914) rotate(348.58611735905424) scale(1.9579456740574497)" /><path d="M0.0,-30.0 L8.8,-12.1 L28.5,-9.3 L14.3,4.6 L17.6,24.3 L0.0,15.0 L-17.6,24.3 L-14.3,4.6 L-28.5,-9.3 L-8.8,-12.1 Z" fill="none" stroke="black" transform="translate(146.56050656019028,189.3541275171914) rotate(348.58611735905424) scale(1.3705619718402147)" /><path d="M0.0,-30.0 L8.8,-12.1 L28.5,-9.3 L14.3,4.6 L17.6,24.3 L0.0,15.0 L-17.6,24.3 L-14.3,4.6 L-28.5,-9.3 L-8.8,-12.1 Z" fill="none" stroke="black" transform="translate(146.56050656019028,189.3541275171914) rotate(348.58611735905424) scale(0.7831782696229799)" /></g><path d="M0.0,-30.0 L8.8,-12.1 L28.5,-9.3 L14.3,4.6 L17.6,24.3 L0.0,15.0 L-17.6,24.3 L-14.3,4.6 L-28.5,-9.3 L-8.8,-12.1 Z" fill="none" stroke="black" transform="translate(207.3143054157506,277.6163868889571) rotate(291.82586334114984) scale(1.2312123033801308)" /><path d="M-30,-20 h60 v40 h-60 Z" fill="none" stroke="black" transform="translate(104.38160901055957,263.678781649502) rotate(229.31528323475422) scale(0.8759973372357812)" /><path d="M-30,-20 h60 v40 h-60 Z" fill="none" stroke="black" transform="translate(230.68070623128006,77.60006437804667) rotate(189.98882952931592) scale(0.8658176183096592)" /></svg>