<svg baseProfile="full" height="400" version="1.1" width="400" xmlns="http://www.w3.org/2000/svg" xmlns:ev="http://www.w3.org/2001/xml-events" xmlns:xlink="http://www.w3.org/1999/xlink"><defs /><rect fill="white" height="100%" width="100%" x="0" y="0" /><path d="M0,0 m-30,0 a30,30 0 1,0 60,0 a30,30 0 1,0 -60,0" fill="none" stroke="black" transform="translate(206.24012700275196,104.97778991138418) rotate(215.667284905384) scale(1.2413091770032092)" /><g><path d="M0,0 m-30,0 a30,30 0 1,0 60,0 a30,30 0 1,0 -60,0" fill="none" stroke="black" transform="translate(205.04273894591023,296.8557867848128) rotate(211.39315260616465) scale(1.3100108952735838)" /><path d="M0,0 m-30,0 a30,30 0 1,0 60,0 a30,30 0 1,0 -60,0" fill="none" stroke="black" transform="translate(205.04273894591023,296.8557867848128) rotate(211.39315260616465) scale(0.9170076266915086)" /></g><path d="M0,0 m-30,0 a30,30 0 1,0 60,0 a30,30 0 1,0 -60,0" fill="none" stroke="black" transform="translate(272.6512382495948,150.69575680503505) rotate(219.2949468120341) scale(1.4525446412415133)" /><g><path d="M0.0,-30.0 L28.5,-9.3 L17.6,24.3 L-17.6,24.3 L-28.5,-9.3 Z" fill="none" stroke="black" transform="translate(170.17869056744473,204.66547012368522) rotate(153.07968789242744) scale(0.993985824880005)" /><path d="M0.0,-30.0 L28.5,-9.3 L17.6,24.3 L-17.6,24.3 L-28.5,-9.3 Z" fill="none" stroke="black" transform="translate(170.17869056744473,204.66547012368522) rotate(153.07968789242744) scale(0.6957900774160034)" /><path d="M0.0,-30.0 L28.5,-9.3 L17.6,24.3 L-17.6,24.3 L-28.5,-9.3 Z" fill="none" stroke="black" transform="translate(170.17869056744473,204.66547012368522) rotate(153.07968789242744) scale(0.397594329952002)" /></g><g><path d="M0.0,-30.0 L28.5,-9.3 L17.6,24.3 L-17.6,24.3 L-28.5,-9.3 Z" fill="none" stroke="black" transform="translate(295.98020551610904,243.47586677543137) rotate(2.4049846476069714) scale(1.2885167821703911)" /><path d="M0.0,-30.0 L28.5,-9.3 L17.6,24.3 L-17.6,24.3 L-28.5,-9.3 Z" fill="none" stroke="black" transform="translate(295.98020551610904,243.47586677543137) rotate(2.4049846476069714) scale(0.9019617475192737)" /><path d="M0.0,-30.0 L28.5,-9.3 L17.6,24.3 L-17.6,24.3 L-28.5,-9.3 Z" fill="none" stroke="black" transform="translate(295.98020551610904,243.47586677543137) rotate(2.4049846476069714) scale(0.5154067128681564)" /></g><path d="M30,0 L15,-26 L-15,-26 L-30,0 L-15,26 L15,26 Z" fill="none" stroke="black" transform="translate(129.66447167588888,73.1620914767019) rotate(70.26775396201108) scale(0.9966001819387829)" /><g><path d="M30,0 L15,-26 L-15,-26 L-30,0 L-15,26 L15,26 Z" fill="none" stroke="black" transform="translate(129.40762890165146,278.2445224389653) rotate(23.74869878630808) scale(0.8767831241537549)" /><path d="M30,0 L15,-26 L-15,-26 L-30,0 L-15,26 L15,26 Z" fill="none" stroke="black" transform="translate(129.40762890165146,278.2445224389653) rotate(23.74869878630808) scale(0.6137481869076284)" /><path d="M30,0 L15,-26 L-15,-26 L-30,0 L-15,26 L15,26 Z" fill="none" stroke="black" transform="translate(129.40762890165146,278.2445224389653) rotate(23.74869878630808) scale(0.35071324966150197)" /></g></svg>