<svg baseProfile="full" height="400" version="1.1" width="400" xmlns="http://www.w3.org/2000/svg" xmlns:ev="http://www.w3.org/2001/xml-events" xmlns:xlink="http://www.w3.org/1999/xlink"><defs /><rect fill="white" height="100%" width="100%" x="0" y="0" /><path d="M30,0 L15,-26 L-15,-26 L-30,0 L-15,26 L15,26 Z" fill="none" stroke="black" transform="translate(109.40154727927012,168.28444534393904) rotate(42.368512978108654) scale(1.0134242488205665)" /><g><path d="M30,0 L15,-26 L-15,-26 L-30,0 L-15,26 L15,26 Z" fill="none" stroke="black" transform="translate(257.19561369537075,265.7522122449906) rotate(64.77450490039283) scale(1.7318899940984231)" /><path d="M30,0 L15,-26 L-15,-26 L-30,0 L-15,26 L15,26 Z" fill="none" stroke="black" transform="translate(257.19561369537075,265.7522122449906) rotate(64.77450490039283) scale(1.2123229958688961)" /></g><path d="M-30,-20 h60 v40 h-60 Z" fill="none" stroke="black" transform="translate(229.8353296749253,157.7635993657807) rotate(58.77144763158377) scale(1.4822916001195003)" /><path d="M0.0,-30.0 L28.5,-9.3 L17.6,24.3 L-17.6,24.3 L-28.5,-9.3 Z" fill="none" stroke="black" transform="translate(147.30076694185354,272.65034795593476) rotate(357.04195348488895) scale(1.299688028164421)" /><path d="M0.0,-30.0 L28.5,-9.3 L17.6,24.3 L-17.6,24.3 L-28.5,-9.3 Z" fill="none" stroke="black" transform="translate(156.41586665956433,106.89910335543985) rotate(187.2918356304683) scale(1.3389116103494654)" /><g><path d="M0,0 m-30,0 a30,30 0 1,0 60,0 a30,30 0 1,0 -60,0" fill="none" stroke="black" transform="translate(254.99519447139375,86.30383835928819) rotate(210.67889569795514) scale(1.0971025972948085)" /><path d="M0,0 m-30,0 a30,30 0 1,0 60,0 a30,30 0 1,0 -60,0" fill="none" stroke="black" transform="translate(254.99519447139375,86.30383835928819) rotate(210.67889569795514) scale(0.7679718181063659)" /></g><path d="M0,0 m-30,0 a30,30 0 1,0 60,0 a30,30 0 1,0 -60,0" fill="none" stroke="black" transform="translate(304.8452380046769,181.16945578022126) rotate(2.8932412754565817) scale(0.8284562276274929)" /><path d="M0,-30 L30,30 L-30,30 Z" fill="none" stroke="black" transform="translate(97.53483328214793,217.7206881521127) rotate(18.161804859056193) scale(0.9737807353258343)" /><g><path d="M0,-30 L30,30 L-30,30 Z" fill="none" stroke="black" transform="translate(337.07671674365196,225.345362229395) rotate(101.37461448389195) scale(0.8434769658960675)" /><path d="M0,-30 L30,30 L-30,30 Z" fill="none" stroke="black" transform="translate(337.07671674365196,225.345362229395) rotate(101.37461448389195) scale(0.5904338761272472)" /></g><path d="M27.7,-11.5 L27.7,11.5 L11.5,27.7 L-11.5,27.7 L-27.7,11.5 L-27.7,-11.5 L-11.5,-27.7 L11.5,-27.7 Z" fill="none" stroke="black" transform="translate(336.740895831835,297.9404559027031) rotate(6.659681620754139) scale(0.8152154433389678)" /><path d="M27.7,-11.5 L27.7,11.5 L11.5,27.7 L-11.5,27.7 L-27.7,11.5 L-27.7,-11.5 L-11.5,-27.7 L11.5,-27.7 Z" fill="none" stroke="black" transform="translate(215.2198970021523,332.58323073440965) rotate(29.3213771956187) scale(0.8463604171756676)" /><g><path d="M0.0,-30.0 L8.8,-12.1 L28.5,-9.3 L14.3,4.6 L17.6,24.3 L0.0,15.0 L-17.6,24.3 L-14.3,4.6 L-28.5,-9.3 L-8.8,-12.1 Z" fill="none" stroke="black" transform="translate(88.69009734750348,98.7200992692114) rotate(208.742143353322) scale(1.0236900091193202)" /><path d="M0.0,-30.0 L8.8,-12.1 L28.5,-9.3 L14.3,4.6 L17.6,24.3 L0.0,15.0 L-17.6,24.3 L-14.3,4.6 L-28.5,-9.3 L-8.8,-12.1 Z" fill="none" stroke="black" transform="translate(88.69009734750348,98.7200992692114) rotate(208.742143353322) scale(0.7165830063835241)" /></g></svg>