<svg baseProfile="full" height="400" version="1.1" width="400" xmlns="http://www.w3.org/2000/svg" xmlns:ev="http://www.w3.org/2001/xml-events" xmlns:xlink="http://www.w3.org/1999/xlink"><defs /><rect fill="white" height="100%" width="100%" x="0" y="0" /><g><path d="M30,0 L15,-26 L-15,-26 L-30,0 L-15,26 L15,26 Z" fill="none" stroke="black" transform="translate(279.62377748704597,206.43232072945165) rotate(299.449849644612) scale(1.6613645004844773)" /><path d="M30,0 L15,-26 L-15,-26 L-30,0 L-15,26 L15,26 Z" fill="none" stroke="black" transform="translate(279.62377748704597,206.43232072945165) rotate(299.449849644612) scale(1.162955150339134)" /></g><path d="M30,0 L15,-26 L-15,-26 L-30,0 L-15,26 L15,26 Z" fill="none" stroke="black" transform="translate(206.34156208142025,96.06687086160491) rotate(275.0590535634637) scale(1.062166116487596)" /><g><path d="M27.7,-11.5 L27.7,11.5 L11.5,27.7 L-11.5,27.7 L-27.7,11.5 L-27.7,-11.5 L-11.5,-27.7 L11.5,-27.7 Z" fill="none" stroke="black" transform="translate(191.06463041470386,153.14689629314034) rotate(152.6918513915561) scale(1.421370891723396)" /><path d="M27.7,-11.5 L27.7,11.5 L11.5,27.7 L-11.5,27.7 L-27.7,11.5 L-27.7,-11.5 L-11.5,-27.7 L11.5,-27.7 Z" fill="none" stroke="black" transform="translate(191.06463041470386,153.14689629314034) rotate(152.6918513915561) scale(0.9949596242063772)" /></g><g><path d="M-30,-20 h60 v40 h-60 Z" fill="none" stroke="black" transform="translate(123.7029740953297,227.05222291474405) rotate(154.414959974439) scale(1.1575792015554294)" /><path d="M-30,-20 h60 v40 h-60 Z" fill="none" stroke="black" transform="translate(123.7029740953297,227.05222291474405) rotate(154.414959974439) scale(0.8103054410888005)" /></g><path d="M-30,-20 h60 v40 h-60 Z" fill="none" stroke="black" transform="translate(112.77661858718922,282.268096530267) rotate(296.4908376841248) scale(1.276813366318969)" /><path d="M-30,-20 h60 v40 h-60 Z" fill="none" stroke="black" transform="translate(180.7032662252791,221.28625691051414) rotate(180.1965381102847) scale(1.6141216329327224)" /><path d="M0.0,-30.0 L28.5,-9.3 L17.6,24.3 L-17.6,24.3 L-28.5,-9.3 Z" fill="none" stroke="black" transform="translate(202.80057391537053,322.3841764339189) rotate(104.46145992191245) scale(0.9998431183023082)" /><path d="M0,-30 L30,30 L-30,30 Z" fill="none" stroke="black" transform="translate(291.97397567334883,92.41109788495694) rotate(57.3898881703931) scale(0.86172340430065)" /><g><path d="M0,-30 L30,30 L-30,30 Z" fill="none" stroke="black" transform="translate(119.86417752979716,173.3062659721259) rotate(55.9289215100223) scale(1.1599029874116233)" /><path d="M0,-30 L30,30 L-30,30 Z" fill="none" stroke="black" transform="translate(119.86417752979716,173.3062659721259) rotate(55.9289215100223) scale(0.8119320911881363)" /><path d="M0,-30 L30,30 L-30,30 Z" fill="none" stroke="black" transform="translate(119.86417752979716,173.3062659721259) rotate(55.9289215100223) scale(0.4639611949646494)" /></g><g><path d="M0,-30 L30,30 L-30,30 Z" fill="none" stroke="black" transform="translate(84.00544173936507,183.53092350602049) rotate(339.27629337209817) scale(0.8074496656429431)" /><path d="M0,-30 L30,30 L-30,30 Z" fill="none" stroke="black" transform="translate(84.00544173936507,183.53092350602049) rotate(339.27629337209817) scale(0.5652147659500601)" /></g><g><path d="M0.0,-30.0 L8.8,-12.1 L28.5,-9.3 L14.3,4.6 L17.6,24.3 L0.0,15.0 L-17.6,24.3 L-14.3,4.6 L-28.5,-9.3 L-8.8,-12.1 Z" fill="none" stroke="black" transform="translate(305.482214855944,276.53697569460024) rotate(199.20014148708069) scale(0.9437115118913708)" /><path d="M0.0,-30.0 L8.8,-12.1 L28.5,-9.3 L14.3,4.6 L17.6,24.3 L0.0,15.0 L-17.6,24.3 L-14.3,4.6 L-28.5,-9.3 L-8.8,-12.1 Z" fill="none" stroke="black" transform="translate(305.482214855944,276.53697569460024) rotate(199.20014148708069) scale(0.6605980583239596)" /></g><path d="M0.0,-30.0 L8.8,-12.1 L28.5,-9.3 L14.3,4.6 L17.6,24.3 L0.0,15.0 L-17.6,24.3 L-14.3,4.6 L-28.5,-9.3 L-8.8,-12.1 Z" fill="none" stroke="black" transform="translate(168.58542984288005,108.03952090277144) rotate(248.1556081696662) scale(1.0939611491142243)" /><path d="M0.0,-30.0 L8.8,-12.1 L28.5,-9.3 L14.3,4.6 L17.6,24.3 L0.0,15.0 L-17.6,24.3 L-14.3,4.6 L-28.5,-9.3 L-8.8,-12.1 Z" fill="none" stroke="black" transform="translate(92.61281316811723,90.46799471193931) rotate(207.94809287299043) scale(1.1171346976823853)" /><path d="M0,0 m-30,0 a30,30 0 1,0 60,0 a30,30 0 1,0 -60,0" fill="none" stroke="black" transform="translate(89.0821382471969,130.38890451315646) rotate(24.59633161257914) scale(0.896364679205128)" /><path d="M0,0 m-30,0 a30,30 0 1,0 60,0 a30,30 0 1,0 -60,0" fill="none" stroke="black" transform="translate(108.98672052422253,329.8832676768636) rotate(210.6084721967264) scale(0.9043515197816655)" /><path d="M0,0 m-30,0 a30,30 0 1,0 60,0 a30,30 0 1,0 -60,0" fill="none" stroke="black" transform="translate(310.0068602815928,306.2575536217949) rotate(297.6583703399253) scale(0.860803331828691)" /></svg>