<svg baseProfile="full" height="400" version="1.1" width="400" xmlns="http://www.w3.org/2000/svg" xmlns:ev="http://www.w3.org/2001/xml-events" xmlns:xlink="http://www.w3.org/1999/xlink"><defs /><rect fill="white" height="100%" width="100%" x="0" y="0" /><g><path d="M0,-30 L30,30 L-30,30 Z" fill="none" stroke="black" transform="translate(231.3604682463845,127.63308738210844) rotate(33.91916985954594) scale(1.7560072450665314)" /><path d="M0,-30 L30,30 L-30,30 Z" fill="none" stroke="black" transform="translate(231.3604682463845,127.63308738210844) rotate(33.91916985954594) scale(1.2292050715465719)" /><path d="M0,-30 L30,30 L-30,30 Z" fill="none" stroke="black" transform="translate(231.3604682463845,127.63308738210844) rotate(33.91916985954594) scale(0.7024028980266126)" /></g><path d="M0,-30 L30,30 L-30,30 Z" fill="none" stroke="black" transform="translate(245.96211041434515,312.19105389876205) rotate(56.52696579836957) scale(1.1761427418261046)" /><g><path d="M0,-30 L30,30 L-30,30 Z" fill="none" stroke="black" transform="translate(133.58413542822788,245.20600903542964) rotate(212.54170397346653) scale(1.8081481751855524)" /><path d="M0,-30 L30,30 L-30,30 Z" fill="none" stroke="black" transform="translate(133.58413542822788,245.20600903542964) rotate(212.54170397346653) scale(1.2657037226298866)" /></g><path d="M0,-30 L30,30 L-30,30 Z" fill="none" stroke="black" transform="translate(80.35232734236945,119.0191362317627) rotate(308.60242068213273) scale(0.8254604268300635)" /><path d="M0,-30 L30,30 L-30,30 Z" fill="none" stroke="black" transform="translate(136.4305302190322,80.80745693291396) rotate(28.561240204020372) scale(0.8487382133954693)" /><path d="M0.0,-30.0 L28.5,-9.3 L17.6,24.3 L-17.6,24.3 L-28.5,-9.3 Z" fill="none" stroke="black" transform="translate(306.88872533839515,232.25715489391672) rotate(6.783562305447317) scale(1.0928326650550917)" /></svg>