<svg baseProfile="full" height="400" version="1.1" width="400" xmlns="http://www.w3.org/2000/svg" xmlns:ev="http://www.w3.org/2001/xml-events" xmlns:xlink="http://www.w3.org/1999/xlink"><defs /><rect fill="white" height="100%" width="100%" x="0" y="0" /><path d="M0.0,-30.0 L28.5,-9.3 L17.6,24.3 L-17.6,24.3 L-28.5,-9.3 Z" fill="none" stroke="black" transform="translate(143.88904006191888,133.71501984938328) rotate(140.7165133471521) scale(0.8884508427477956)" /><path d="M0.0,-30.0 L28.5,-9.3 L17.6,24.3 L-17.6,24.3 L-28.5,-9.3 Z" fill="none" stroke="black" transform="translate(179.50859915239027,317.63161905629784) rotate(243.5761921929732) scale(1.02510392723386)" /><path d="M0.0,-30.0 L28.5,-9.3 L17.6,24.3 L-17.6,24.3 L-28.5,-9.3 Z" fill="none" stroke="black" transform="translate(151.41451341860983,92.79366856019294) rotate(265.9160997267886) scale(0.8898705422735553)" /><path d="M0.0,-30.0 L8.8,-12.1 L28.5,-9.3 L14.3,4.6 L17.6,24.3 L0.0,15.0 L-17.6,24.3 L-14.3,4.6 L-28.5,-9.3 L-8.8,-12.1 Z" fill="none" stroke="black" transform="translate(145.1516902507014,264.3636590424824) rotate(355.222840721608) scale(1.4396384926252002)" /><g><path d="M0.0,-30.0 L8.8,-12.1 L28.5,-9.3 L14.3,4.6 L17.6,24.3 L0.0,15.0 L-17.6,24.3 L-14.3,4.6 L-28.5,-9.3 L-8.8,-12.1 Z" fill="none" stroke="black" transform="translate(231.54935132238307,267.7643427791004) rotate(75.50231375758266) scale(1.568608941112224)" /><path d="M0.0,-30.0 L8.8,-12.1 L28.5,-9.3 L14.3,4.6 L17.6,24.3 L0.0,15.0 L-17.6,24.3 L-14.3,4.6 L-28.5,-9.3 L-8.8,-12.1 Z" fill="none" stroke="black" transform="translate(231.54935132238307,267.7643427791004) rotate(75.50231375758266) scale(1.0980262587785568)" /><path d="M0.0,-30.0 L8.8,-12.1 L28.5,-9.3 L14.3,4.6 L17.6,24.3 L0.0,15.0 L-17.6,24.3 L-14.3,4.6 L-28.5,-9.3 L-8.8,-12.1 Z" fill="none" stroke="black" transform="translate(231.54935132238307,267.7643427791004) rotate(75.50231375758266) scale(0.6274435764448896)" /></g><path d="M-30,-20 h60 v40 h-60 Z" fill="none" stroke="black" transform="translate(196.35084698745362,112.67471860687762) rotate(170.28097669555092) scale(0.8816411119857239)" /><g><path d="M-30,-20 h60 v40 h-60 Z" fill="none" stroke="black" transform="translate(254.5361492517199,170.81924120610955) rotate(129.71031355404608) scale(0.878525410160292)" /><path d="M-30,-20 h60 v40 h-60 Z" fill="none" stroke="black" transform="translate(254.5361492517199,170.81924120610955) rotate(129.71031355404608) scale(0.6149677871122043)" /></g><path d="M-30,-20 h60 v40 h-60 Z" fill="none" stroke="black" transform="translate(106.71928088839483,192.08524456477707) rotate(218.69592330261315) scale(1.0376921706392659)" /><path d="M0,-30 L30,30 L-30,30 Z" fill="none" stroke="black" transform="translate(312.35234899196297,295.89321097755067) rotate(207.48482848221315) scale(0.9790677819532924)" /><g><path d="M0,-30 L30,30 L-30,30 Z" fill="none" stroke="black" transform="translate(168.21995568768403,177.94073436898216) rotate(17.865746721121187) scale(0.8764404517974984)" /><path d="M0,-30 L30,30 L-30,30 Z" fill="none" stroke="black" transform="translate(168.21995568768403,177.94073436898216) rotate(17.865746721121187) scale(0.6135083162582489)" /></g><path d="M30,0 L15,-26 L-15,-26 L-30,0 L-15,26 L15,26 Z" fill="none" stroke="black" transform="translate(176.12843273855162,214.07350922095983) rotate(55.923880770633765) scale(0.8232639427596209)" /><g><path d="M30,0 L15,-26 L-15,-26 L-30,0 L-15,26 L15,26 Z" fill="none" stroke="black" transform="translate(96.76424282095249,245.92206502947442) rotate(260.7894386457016) scale(0.9631031408137969)" /><path d="M30,0 L15,-26 L-15,-26 L-30,0 L-15,26 L15,26 Z" fill="none" stroke="black" transform="translate(96.76424282095249,245.92206502947442) rotate(260.7894386457016) scale(0.6741721985696578)" /></g><path d="M30,0 L15,-26 L-15,-26 L-30,0 L-15,26 L15,26 Z" fill="none" stroke="black" transform="translate(316.0862656263308,153.9019000169257) rotate(153.73693352325841) scale(0.8690364639413617)" /><g><path d="M27.7,-11.5 L27.7,11.5 L11.5,27.7 L-11.5,27.7 L-27.7,11.5 L-27.7,-11.5 L-11.5,-27.7 L11.5,-27.7 Z" fill="none" stroke="black" transform="translate(220.18267790206286,90.16999845408776) rotate(151.20740855599868) scale(0.889803198377289)" /><path d="M27.7,-11.5 L27.7,11.5 L11.5,27.7 L-11.5,27.7 L-27.7,11.5 L-27.7,-11.5 L-11.5,-27.7 L11.5,-27.7 Z" fill="none" stroke="black" transform="translate(220.18267790206286,90.16999845408776) rotate(151.20740855599868) scale(0.6228622388641023)" /><path d="M27.7,-11.5 L27.7,11.5 L11.5,27.7 L-11.5,27.7 L-27.7,11.5 L-27.7,-11.5 L-11.5,-27.7 L11.5,-27.7 Z" fill="none" stroke="black" transform="translate(220.18267790206286,90.16999845408776) rotate(151.20740855599868) scale(0.35592127935091566)" /></g><path d="M27.7,-11.5 L27.7,11.5 L11.5,27.7 L-11.5,27.7 L-27.7,11.5 L-27.7,-11.5 L-11.5,-27.7 L11.5,-27.7 Z" fill="none" stroke="black" transform="translate(301.2049609409297,114.80821864148255) rotate(214.0539897883119) scale(0.9986005329145802)" /><g><path d="M27.7,-11.5 L27.7,11.5 L11.5,27.7 L-11.5,27.7 L-27.7,11.5 L-27.7,-11.5 L-11.5,-27.7 L11.5,-27.7 Z" fill="none" stroke="black" transform="translate(109.23804770008257,144.51728759648134) rotate(123.79523926544475) scale(0.884307396924234)" /><path d="M27.7,-11.5 L27.7,11.5 L11.5,27.7 L-11.5,27.7 L-27.7,11.5 L-27.7,-11.5 L-11.5,-27.7 L11.5,-27.7 Z" fill="none" stroke="black" transform="translate(109.23804770008257,144.51728759648134) rotate(123.79523926544475) scale(0.6190151778469638)" /></g><g><path d="M27.7,-11.5 L27.7,11.5 L11.5,27.7 L-11.5,27.7 L-27.7,11.5 L-27.7,-11.5 L-11.5,-27.7 L11.5,-27.7 Z" fill="none" stroke="black" transform="translate(137.09026320425482,320.25320695342924) rotate(70.51407454884126) scale(1.0642009814594955)" /><path d="M27.7,-11.5 L27.7,11.5 L11.5,27.7 L-11.5,27.7 L-27.7,11.5 L-27.7,-11.5 L-11.5,-27.7 L11.5,-27.7 Z" fill="none" stroke="black" transform="translate(137.09026320425482,320.25320695342924) rotate(70.51407454884126) scale(0.7449406870216468)" /><path d="M27.7,-11.5 L27.7,11.5 L11.5,27.7 L-11.5,27.7 L-27.7,11.5 L-27.7,-11.5 L-11.5,-27.7 L11.5,-27.7 Z" fill="none" stroke="black" transform="translate(137.09026320425482,320.25320695342924) rotate(70.51407454884126) scale(0.4256803925837982)" /></g><path d="M27.7,-11.5 L27.7,11.5 L11.5,27.7 L-11.5,27.7 L-27.7,11.5 L-27.7,-11.5 L-11.5,-27.7 L11.5,-27.7 Z" fill="none" stroke="black" transform="translate(303.31090817155496,339.9892643441374) rotate(169.512604709883) scale(0.801136592176573)" /><g><path d="M27.7,-11.5 L27.7,11.5 L11.5,27.7 L-11.5,27.7 L-27.7,11.5 L-27.7,-11.5 L-11.5,-27.7 L11.5,-27.7 Z" fill="none" stroke="black" transform="translate(77.14407540472561,103.7452173528961) rotate(268.0039292914613) scale(0.9693619561062972)" /><path d="M27.7,-11.5 L27.7,11.5 L11.5,27.7 L-11.5,27.7 L-27.7,11.5 L-27.7,-11.5 L-11.5,-27.7 L11.5,-27.7 Z" fill="none" stroke="black" transform="translate(77.14407540472561,103.7452173528961) rotate(268.0039292914613) scale(0.678553369274408)" /></g><path d="M27.7,-11.5 L27.7,11.5 L11.5,27.7 L-11.5,27.7 L-27.7,11.5 L-27.7,-11.5 L-11.5,-27.7 L11.5,-27.7 Z" fill="none" stroke="black" transform="translate(303.36790899186894,251.64397911641078) rotate(192.99868591415878) scale(1.0393822665554304)" /><g><path d="M27.7,-11.5 L27.7,11.5 L11.5,27.7 L-11.5,27.7 L-27.7,11.5 L-27.7,-11.5 L-11.5,-27.7 L11.5,-27.7 Z" fill="none" stroke="black" transform="translate(74.89126690902555,317.0490530538918) rotate(130.75325197485282) scale(1.0060869624415987)" /><path d="M27.7,-11.5 L27.7,11.5 L11.5,27.7 L-11.5,27.7 L-27.7,11.5 L-27.7,-11.5 L-11.5,-27.7 L11.5,-27.7 Z" fill="none" stroke="black" transform="translate(74.89126690902555,317.0490530538918) rotate(130.75325197485282) scale(0.704260873709119)" /></g><path d="M0,0 m-30,0 a30,30 0 1,0 60,0 a30,30 0 1,0 -60,0" fill="none" stroke="black" transform="translate(201.3007405154433,151.26507971303488) rotate(221.3882207617139) scale(0.8023028560188241)" /><g><path d="M0,0 m-30,0 a30,30 0 1,0 60,0 a30,30 0 1,0 -60,0" fill="none" stroke="black" transform="translate(202.22281872850846,181.96451927366383) rotate(220.90782245191767) scale(0.8763350904999213)" /><path d="M0,0 m-30,0 a30,30 0 1,0 60,0 a30,30 0 1,0 -60,0" fill="none" stroke="black" transform="translate(202.22281872850846,181.96451927366383) rotate(220.90782245191767) scale(0.6134345633499448)" /></g><path d="M0,0 m-30,0 a30,30 0 1,0 60,0 a30,30 0 1,0 -60,0" fill="none" stroke="black" transform="translate(301.19379218721997,189.98049165082477) rotate(74.8285487938678) scale(0.9127189638650092)" /></svg>