<svg baseProfile="full" height="400" version="1.1" width="400" xmlns="http://www.w3.org/2000/svg" xmlns:ev="http://www.w3.org/2001/xml-events" xmlns:xlink="http://www.w3.org/1999/xlink"><defs /><rect fill="white" height="100%" width="100%" x="0" y="0" /><path d="M30,0 L15,-26 L-15,-26 L-30,0 L-15,26 L15,26 Z" fill="none" stroke="black" transform="translate(282.3095777771847,316.771699382964) rotate(39.28286714318029) scale(0.9006498641303247)" /><g><path d="M-30,-20 h60 v40 h-60 Z" fill="none" stroke="black" transform="translate(279.6490100289026,203.5441241417296) rotate(86.69883260388028) scale(1.5377502301881267)" /><path d="M-30,-20 h60 v40 h-60 Z" fill="none" stroke="black" transform="translate(279.6490100289026,203.5441241417296) rotate(86.69883260388028) scale(1.0764251611316886)" /></g><g><path d="M-30,-20 h60 v40 h-60 Z" fill="none" stroke="black" transform="translate(118.25297062683467,201.7460603450461) rotate(256.9006252585107) scale(1.0492296366471918)" /><path d="M-30,-20 h60 v40 h-60 Z" fill="none" stroke="black" transform="translate(118.25297062683467,201.7460603450461) rotate(256.9006252585107) scale(0.7344607456530342)" /></g><path d="M0.0,-30.0 L8.8,-12.1 L28.5,-9.3 L14.3,4.6 L17.6,24.3 L0.0,15.0 L-17.6,24.3 L-14.3,4.6 L-28.5,-9.3 L-8.8,-12.1 Z" fill="none" stroke="black" transform="translate(160.11968565612918,192.02916658045638) rotate(356.0046609033473) scale(0.9406211561519888)" /><path d="M0.0,-30.0 L8.8,-12.1 L28.5,-9.3 L14.3,4.6 L17.6,24.3 L0.0,15.0 L-17.6,24.3 L-14.3,4.6 L-28.5,-9.3 L-8.8,-12.1 Z" fill="none" stroke="black" transform="translate(302.07286082999406,84.24062031766944) rotate(102.9413790274992) scale(0.8959219329262236)" /><path d="M0.0,-30.0 L28.5,-9.3 L17.6,24.3 L-17.6,24.3 L-28.5,-9.3 Z" fill="none" stroke="black" transform="translate(127.19099741115086,264.2379629206442) rotate(66.60479979340059) scale(1.4457155719901942)" /><path d="M0.0,-30.0 L28.5,-9.3 L17.6,24.3 L-17.6,24.3 L-28.5,-9.3 Z" fill="none" stroke="black" transform="translate(228.88764975591133,121.83380874202179) rotate(204.2333539414195) scale(1.6480513911774484)" /><g><path d="M27.7,-11.5 L27.7,11.5 L11.5,27.7 L-11.5,27.7 L-27.7,11.5 L-27.7,-11.5 L-11.5,-27.7 L11.5,-27.7 Z" fill="none" stroke="black" transform="translate(138.2560704351318,126.60738354096218) rotate(70.59397232951086) scale(1.3561376383821813)" /><path d="M27.7,-11.5 L27.7,11.5 L11.5,27.7 L-11.5,27.7 L-27.7,11.5 L-27.7,-11.5 L-11.5,-27.7 L11.5,-27.7 Z" fill="none" stroke="black" transform="translate(138.2560704351318,126.60738354096218) rotate(70.59397232951086) scale(0.9492963468675268)" /></g><path d="M0,0 m-30,0 a30,30 0 1,0 60,0 a30,30 0 1,0 -60,0" fill="none" stroke="black" transform="translate(287.64785047664077,137.69529268199386) rotate(312.7179932494096) scale(1.1402136688103452)" /><path d="M0,0 m-30,0 a30,30 0 1,0 60,0 a30,30 0 1,0 -60,0" fill="none" stroke="black" transform="translate(187.75602796303036,294.01089542208376) rotate(41.022463476104974) scale(1.4330888045086203)" /><path d="M0,0 m-30,0 a30,30 0 1,0 60,0 a30,30 0 1,0 -60,0" fill="none" stroke="black" transform="translate(197.73221421477803,222.508766570523) rotate(298.48227005189204) scale(1.5358851770407271)" /><path d="M0,-30 L30,30 L-30,30 Z" fill="none" stroke="black" transform="translate(151.47097950176754,83.6705036867516) rotate(155.5631616514878) scale(0.9480997996531332)" /></svg>