<svg baseProfile="full" height="400" version="1.1" width="400" xmlns="http://www.w3.org/2000/svg" xmlns:ev="http://www.w3.org/2001/xml-events" xmlns:xlink="http://www.w3.org/1999/xlink"><defs /><rect fill="white" height="100%" width="100%" x="0" y="0" /><g><path d="M27.7,-11.5 L27.7,11.5 L11.5,27.7 L-11.5,27.7 L-27.7,11.5 L-27.7,-11.5 L-11.5,-27.7 L11.5,-27.7 Z" fill="none" stroke="black" transform="translate(182.1646887745714,283.3112545227475) rotate(62.12452304808903) scale(1.6199165053175093)" /><path d="M27.7,-11.5 L27.7,11.5 L11.5,27.7 L-11.5,27.7 L-27.7,11.5 L-27.7,-11.5 L-11.5,-27.7 L11.5,-27.7 Z" fill="none" stroke="black" transform="translate(182.1646887745714,283.3112545227475) rotate(62.12452304808903) scale(1.1339415537222564)" /></g><path d="M27.7,-11.5 L27.7,11.5 L11.5,27.7 L-11.5,27.7 L-27.7,11.5 L-27.7,-11.5 L-11.5,-27.7 L11.5,-27.7 Z" fill="none" stroke="black" transform="translate(116.33027455196826,89.62381707033944) rotate(101.17571793593365) scale(1.0594445821903196)" /><g><path d="M27.7,-11.5 L27.7,11.5 L11.5,27.7 L-11.5,27.7 L-27.7,11.5 L-27.7,-11.5 L-11.5,-27.7 L11.5,-27.7 Z" fill="none" stroke="black" transform="translate(243.537557712646,150.79931394335637) rotate(37.611381865526674) scale(1.185732352307534)" /><path d="M27.7,-11.5 L27.7,11.5 L11.5,27.7 L-11.5,27.7 L-27.7,11.5 L-27.7,-11.5 L-11.5,-27.7 L11.5,-27.7 Z" fill="none" stroke="black" transform="translate(243.537557712646,150.79931394335637) rotate(37.611381865526674) scale(0.8300126466152737)" /><path d="M27.7,-11.5 L27.7,11.5 L11.5,27.7 L-11.5,27.7 L-27.7,11.5 L-27.7,-11.5 L-11.5,-27.7 L11.5,-27.7 Z" fill="none" stroke="black" transform="translate(243.537557712646,150.79931394335637) rotate(37.611381865526674) scale(0.47429294092301366)" /></g><path d="M0,0 m-30,0 a30,30 0 1,0 60,0 a30,30 0 1,0 -60,0" fill="none" stroke="black" transform="translate(97.55145368173474,277.96617990735496) rotate(251.92447348677095) scale(1.3273445027510329)" /><g><path d="M0,0 m-30,0 a30,30 0 1,0 60,0 a30,30 0 1,0 -60,0" fill="none" stroke="black" transform="translate(100.99527848542024,205.59494987082928) rotate(143.41590844777153) scale(1.2111853342190249)" /><path d="M0,0 m-30,0 a30,30 0 1,0 60,0 a30,30 0 1,0 -60,0" fill="none" stroke="black" transform="translate(100.99527848542024,205.59494987082928) rotate(143.41590844777153) scale(0.8478297339533174)" /></g><g><path d="M0,0 m-30,0 a30,30 0 1,0 60,0 a30,30 0 1,0 -60,0" fill="none" stroke="black" transform="translate(262.8461759743912,260.1276997485055) rotate(49.21018122294038) scale(1.4595037989311028)" /><path d="M0,0 m-30,0 a30,30 0 1,0 60,0 a30,30 0 1,0 -60,0" fill="none" stroke="black" transform="translate(262.8461759743912,260.1276997485055) rotate(49.21018122294038) scale(1.0216526592517718)" /><path d="M0,0 m-30,0 a30,30 0 1,0 60,0 a30,30 0 1,0 -60,0" fill="none" stroke="black" transform="translate(262.8461759743912,260.1276997485055) rotate(49.21018122294038) scale(0.5838015195724412)" /></g><path d="M0,0 m-30,0 a30,30 0 1,0 60,0 a30,30 0 1,0 -60,0" fill="none" stroke="black" transform="translate(292.3494610469827,101.98860871380131) rotate(48.73535274865909) scale(1.2178655126106248)" /><path d="M0,0 m-30,0 a30,30 0 1,0 60,0 a30,30 0 1,0 -60,0" fill="none" stroke="black" transform="translate(185.32767872162077,109.54850930943928) rotate(249.0852108368968) scale(1.0203680279337064)" /><path d="M0,0 m-30,0 a30,30 0 1,0 60,0 a30,30 0 1,0 -60,0" fill="none" stroke="black" transform="translate(200.54080846399677,198.9876065501608) rotate(49.0799364667074) scale(1.001472229562957)" /><path d="M0.0,-30.0 L28.5,-9.3 L17.6,24.3 L-17.6,24.3 L-28.5,-9.3 Z" fill="none" stroke="black" transform="translate(137.00464809654244,162.78042300960442) rotate(311.3373645284867) scale(1.0109826430281372)" /><path d="M0.0,-30.0 L28.5,-9.3 L17.6,24.3 L-17.6,24.3 L-28.5,-9.3 Z" fill="none" stroke="black" transform="translate(212.69685513348995,60.225415081783076) rotate(7.502828188235737) scale(0.8296333697509518)" /><g><path d="M0.0,-30.0 L28.5,-9.3 L17.6,24.3 L-17.6,24.3 L-28.5,-9.3 Z" fill="none" stroke="black" transform="translate(302.9344702000328,171.70081044057105) rotate(295.37259337877316) scale(0.9745431844851807)" /><path d="M0.0,-30.0 L28.5,-9.3 L17.6,24.3 L-17.6,24.3 L-28.5,-9.3 Z" fill="none" stroke="black" transform="translate(302.9344702000328,171.70081044057105) rotate(295.37259337877316) scale(0.6821802291396265)" /></g><path d="M0.0,-30.0 L28.5,-9.3 L17.6,24.3 L-17.6,24.3 L-28.5,-9.3 Z" fill="none" stroke="black" transform="translate(319.2068377000454,304.7246452414232) rotate(222.67641577116243) scale(0.9516420521711262)" /><path d="M0.0,-30.0 L8.8,-12.1 L28.5,-9.3 L14.3,4.6 L17.6,24.3 L0.0,15.0 L-17.6,24.3 L-14.3,4.6 L-28.5,-9.3 L-8.8,-12.1 Z" fill="none" stroke="black" transform="translate(278.5022867183793,332.2440773662703) rotate(310.52571129587113) scale(0.9070120198087075)" /><path d="M0,-30 L30,30 L-30,30 Z" fill="none" stroke="black" transform="translate(62.34068772701937,169.3168657846236) rotate(213.63144606376108) scale(0.8345452338537582)" /></svg>