<svg baseProfile="full" height="400" version="1.1" width="400" xmlns="http://www.w3.org/2000/svg" xmlns:ev="http://www.w3.org/2001/xml-events" xmlns:xlink="http://www.w3.org/1999/xlink"><defs /><rect fill="white" height="100%" width="100%" x="0" y="0" /><path d="M0.0,-30.0 L8.8,-12.1 L28.5,-9.3 L14.3,4.6 L17.6,24.3 L0.0,15.0 L-17.6,24.3 L-14.3,4.6 L-28.5,-9.3 L-8.8,-12.1 Z" fill="none" stroke="black" transform="translate(267.5754008270239,279.12105748758677) rotate(358.1600374429724) scale(1.6736390484374795)" /><path d="M0,0 m-30,0 a30,30 0 1,0 60,0 a30,30 0 1,0 -60,0" fill="none" stroke="black" transform="translate(140.71556201510475,239.26480753910687) rotate(112.26344862096582) scale(1.5528232048138015)" /><g><path d="M0,0 m-30,0 a30,30 0 1,0 60,0 a30,30 0 1,0 -60,0" fill="none" stroke="black" transform="translate(283.85465608382424,120.06237226057405) rotate(356.9304819026439) scale(1.1601995014763495)" /><path d="M0,0 m-30,0 a30,30 0 1,0 60,0 a30,30 0 1,0 -60,0" fill="none" stroke="black" transform="translate(283.85465608382424,120.06237226057405) rotate(356.9304819026439) scale(0.8121396510334447)" /></g><g><path d="M0,0 m-30,0 a30,30 0 1,0 60,0 a30,30 0 1,0 -60,0" fill="none" stroke="black" transform="translate(114.38667598096623,96.93056781250354) rotate(271.14688172760947) scale(0.8031818553939615)" /><path d="M0,0 m-30,0 a30,30 0 1,0 60,0 a30,30 0 1,0 -60,0" fill="none" stroke="black" transform="translate(114.38667598096623,96.93056781250354) rotate(271.14688172760947) scale(0.562227298775773)" /></g><g><path d="M0.0,-30.0 L28.5,-9.3 L17.6,24.3 L-17.6,24.3 L-28.5,-9.3 Z" fill="none" stroke="black" transform="translate(68.58755541899312,178.22429415827764) rotate(50.69530176391895) scale(0.8170817429913246)" /><path d="M0.0,-30.0 L28.5,-9.3 L17.6,24.3 L-17.6,24.3 L-28.5,-9.3 Z" fill="none" stroke="black" transform="translate(68.58755541899312,178.22429415827764) rotate(50.69530176391895) scale(0.5719572200939272)" /></g><path d="M0.0,-30.0 L28.5,-9.3 L17.6,24.3 L-17.6,24.3 L-28.5,-9.3 Z" fill="none" stroke="black" transform="translate(195.32205413184232,91.96871705062061) rotate(83.63697725834312) scale(1.212141640047998)" /><path d="M0.0,-30.0 L28.5,-9.3 L17.6,24.3 L-17.6,24.3 L-28.5,-9.3 Z" fill="none" stroke="black" transform="translate(93.45203844014023,322.9978196922948) rotate(291.9679781682239) scale(0.9175541351628244)" /></svg>