<svg baseProfile="full" height="400" version="1.1" width="400" xmlns="http://www.w3.org/2000/svg" xmlns:ev="http://www.w3.org/2001/xml-events" xmlns:xlink="http://www.w3.org/1999/xlink"><defs /><rect fill="white" height="100%" width="100%" x="0" y="0" /><path d="M30,0 L15,-26 L-15,-26 L-30,0 L-15,26 L15,26 Z" fill="none" stroke="black" transform="translate(178.18448500869766,153.58507534885618) rotate(79.38907206926514) scale(1.3063429558169617)" /><g><path d="M30,0 L15,-26 L-15,-26 L-30,0 L-15,26 L15,26 Z" fill="none" stroke="black" transform="translate(191.02916537690407,301.3467267322069) rotate(63.106597543760984) scale(1.0134156164232992)" /><path d="M30,0 L15,-26 L-15,-26 L-30,0 L-15,26 L15,26 Z" fill="none" stroke="black" transform="translate(191.02916537690407,301.3467267322069) rotate(63.106597543760984) scale(0.7093909314963094)" /><path d="M30,0 L15,-26 L-15,-26 L-30,0 L-15,26 L15,26 Z" fill="none" stroke="black" transform="translate(191.02916537690407,301.3467267322069) rotate(63.106597543760984) scale(0.40536624656931974)" /></g><path d="M30,0 L15,-26 L-15,-26 L-30,0 L-15,26 L15,26 Z" fill="none" stroke="black" transform="translate(284.8495448118265,107.02070968987809) rotate(130.73447200287657) scale(1.032338772706863)" /><path d="M0.0,-30.0 L8.8,-12.1 L28.5,-9.3 L14.3,4.6 L17.6,24.3 L0.0,15.0 L-17.6,24.3 L-14.3,4.6 L-28.5,-9.3 L-8.8,-12.1 Z" fill="none" stroke="black" transform="translate(297.57292133942656,305.24628141735207) rotate(346.69419996724986) scale(0.8417347009335678)" /><path d="M0.0,-30.0 L8.8,-12.1 L28.5,-9.3 L14.3,4.6 L17.6,24.3 L0.0,15.0 L-17.6,24.3 L-14.3,4.6 L-28.5,-9.3 L-8.8,-12.1 Z" fill="none" stroke="black" transform="translate(288.6326175841829,208.82070652556374) rotate(282.6527964942073) scale(0.9195208739787518)" /><g><path d="M-30,-20 h60 v40 h-60 Z" fill="none" stroke="black" transform="translate(79.11267382104474,129.22482306468623) rotate(279.6015455092724) scale(0.8701131421807968)" /><path d="M-30,-20 h60 v40 h-60 Z" fill="none" stroke="black" transform="translate(79.11267382104474,129.22482306468623) rotate(279.6015455092724) scale(0.6090791995265578)" /></g><g><path d="M-30,-20 h60 v40 h-60 Z" fill="none" stroke="black" transform="translate(96.17804540415491,323.7478038002289) rotate(254.68342067570026) scale(0.9950420725074622)" /><path d="M-30,-20 h60 v40 h-60 Z" fill="none" stroke="black" transform="translate(96.17804540415491,323.7478038002289) rotate(254.68342067570026) scale(0.6965294507552235)" /></g><g><path d="M0,-30 L30,30 L-30,30 Z" fill="none" stroke="black" transform="translate(125.06773323775764,248.147713151094) rotate(106.04207670696073) scale(0.8222168278383442)" /><path d="M0,-30 L30,30 L-30,30 Z" fill="none" stroke="black" transform="translate(125.06773323775764,248.147713151094) rotate(106.04207670696073) scale(0.5755517794868409)" /><path d="M0,-30 L30,30 L-30,30 Z" fill="none" stroke="black" transform="translate(125.06773323775764,248.147713151094) rotate(106.04207670696073) scale(0.3288867311353377)" /></g></svg>