<svg baseProfile="full" height="400" version="1.1" width="400" xmlns="http://www.w3.org/2000/svg" xmlns:ev="http://www.w3.org/2001/xml-events" xmlns:xlink="http://www.w3.org/1999/xlink"><defs /><rect fill="white" height="100%" width="100%" x="0" y="0" /><path d="M0.0,-30.0 L8.8,-12.1 L28.5,-9.3 L14.3,4.6 L17.6,24.3 L0.0,15.0 L-17.6,24.3 L-14.3,4.6 L-28.5,-9.3 L-8.8,-12.1 Z" fill="none" stroke="black" transform="translate(195.38442279740985,176.68977305385056) rotate(228.9843549434999) scale(1.9647811475281165)" /><g><path d="M0.0,-30.0 L8.8,-12.1 L28.5,-9.3 L14.3,4.6 L17.6,24.3 L0.0,15.0 L-17.6,24.3 L-14.3,4.6 L-28.5,-9.3 L-8.8,-12.1 Z" fill="none" stroke="black" transform="translate(108.77534441579739,217.92230826938572) rotate(337.7650375104503) scale(0.8529190551831258)" /><path d="M0.0,-30.0 L8.8,-12.1 L28.5,-9.3 L14.3,4.6 L17.6,24.3 L0.0,15.0 L-17.6,24.3 L-14.3,4.6 L-28.5,-9.3 L-8.8,-12.1 Z" fill="none" stroke="black" transform="translate(108.77534441579739,217.92230826938572) rotate(337.7650375104503) scale(0.597043338628188)" /></g><g><path d="M30,0 L15,-26 L-15,-26 L-30,0 L-15,26 L15,26 Z" fill="none" stroke="black" transform="translate(234.79149133132455,236.65009770570364) rotate(262.80112419992827) scale(1.2099588824789014)" /><path d="M30,0 L15,-26 L-15,-26 L-30,0 L-15,26 L15,26 Z" fill="none" stroke="black" transform="translate(234.79149133132455,236.65009770570364) rotate(262.80112419992827) scale(0.8469712177352309)" /></g><path d="M30,0 L15,-26 L-15,-26 L-30,0 L-15,26 L15,26 Z" fill="none" stroke="black" transform="translate(317.34643671261966,234.57960747507752) rotate(260.14969594265614) scale(0.8943496434702908)" /><path d="M0,-30 L30,30 L-30,30 Z" fill="none" stroke="black" transform="translate(161.76826729548742,307.34556933456395) rotate(273.5656618694859) scale(1.2028877121924189)" /><g><path d="M0,-30 L30,30 L-30,30 Z" fill="none" stroke="black" transform="translate(268.8475884499335,144.1308194630021) rotate(326.3485254236234) scale(1.7573299399052227)" /><path d="M0,-30 L30,30 L-30,30 Z" fill="none" stroke="black" transform="translate(268.8475884499335,144.1308194630021) rotate(326.3485254236234) scale(1.230130957933656)" /><path d="M0,-30 L30,30 L-30,30 Z" fill="none" stroke="black" transform="translate(268.8475884499335,144.1308194630021) rotate(326.3485254236234) scale(0.7029319759620891)" /></g></svg>