<svg baseProfile="full" height="400" version="1.1" width="400" xmlns="http://www.w3.org/2000/svg" xmlns:ev="http://www.w3.org/2001/xml-events" xmlns:xlink="http://www.w3.org/1999/xlink"><defs /><rect fill="white" height="100%" width="100%" x="0" y="0" /><path d="M0,0 m-30,0 a30,30 0 1,0 60,0 a30,30 0 1,0 -60,0" fill="none" stroke="black" transform="translate(292.52722626422593,286.1956962890373) rotate(278.1173584439719) scale(1.4380948134584464)" /><g><path d="M0,0 m-30,0 a30,30 0 1,0 60,0 a30,30 0 1,0 -60,0" fill="none" stroke="black" transform="translate(152.02934482737555,119.2849175695603) rotate(65.76372656861768) scale(1.0276336924072673)" /><path d="M0,0 m-30,0 a30,30 0 1,0 60,0 a30,30 0 1,0 -60,0" fill="none" stroke="black" transform="translate(152.02934482737555,119.2849175695603) rotate(65.76372656861768) scale(0.7193435846850871)" /></g><g><path d="M0,0 m-30,0 a30,30 0 1,0 60,0 a30,30 0 1,0 -60,0" fill="none" stroke="black" transform="translate(96.94647446411508,312.52731167674153) rotate(304.33643950235535) scale(1.1701112019354598)" /><path d="M0,0 m-30,0 a30,30 0 1,0 60,0 a30,30 0 1,0 -60,0" fill="none" stroke="black" transform="translate(96.94647446411508,312.52731167674153) rotate(304.33643950235535) scale(0.8190778413548219)" /></g><g><path d="M0,0 m-30,0 a30,30 0 1,0 60,0 a30,30 0 1,0 -60,0" fill="none" stroke="black" transform="translate(153.63046048561353,178.02205297181024) rotate(102.22896844157431) scale(0.8472935994163966)" /><path d="M0,0 m-30,0 a30,30 0 1,0 60,0 a30,30 0 1,0 -60,0" fill="none" stroke="black" transform="translate(153.63046048561353,178.02205297181024) rotate(102.22896844157431) scale(0.5931055195914776)" /><path d="M0,0 m-30,0 a30,30 0 1,0 60,0 a30,30 0 1,0 -60,0" fill="none" stroke="black" transform="translate(153.63046048561353,178.02205297181024) rotate(102.22896844157431) scale(0.33891743976655864)" /></g><g><path d="M0,0 m-30,0 a30,30 0 1,0 60,0 a30,30 0 1,0 -60,0" fill="none" stroke="black" transform="translate(205.1605862360198,170.60403879730688) rotate(286.2818632198734) scale(0.9592818196383445)" /><path d="M0,0 m-30,0 a30,30 0 1,0 60,0 a30,30 0 1,0 -60,0" fill="none" stroke="black" transform="translate(205.1605862360198,170.60403879730688) rotate(286.2818632198734) scale(0.6714972737468411)" /><path d="M0,0 m-30,0 a30,30 0 1,0 60,0 a30,30 0 1,0 -60,0" fill="none" stroke="black" transform="translate(205.1605862360198,170.60403879730688) rotate(286.2818632198734) scale(0.38371272785533783)" /></g><path d="M27.7,-11.5 L27.7,11.5 L11.5,27.7 L-11.5,27.7 L-27.7,11.5 L-27.7,-11.5 L-11.5,-27.7 L11.5,-27.7 Z" fill="none" stroke="black" transform="translate(84.62643946725777,109.42370050299735) rotate(181.7644154154215) scale(0.916136830529998)" /><g><path d="M27.7,-11.5 L27.7,11.5 L11.5,27.7 L-11.5,27.7 L-27.7,11.5 L-27.7,-11.5 L-11.5,-27.7 L11.5,-27.7 Z" fill="none" stroke="black" transform="translate(199.8882068479239,271.67096874598394) rotate(4.1047159461264116) scale(1.3028043774273752)" /><path d="M27.7,-11.5 L27.7,11.5 L11.5,27.7 L-11.5,27.7 L-27.7,11.5 L-27.7,-11.5 L-11.5,-27.7 L11.5,-27.7 Z" fill="none" stroke="black" transform="translate(199.8882068479239,271.67096874598394) rotate(4.1047159461264116) scale(0.9119630641991626)" /><path d="M27.7,-11.5 L27.7,11.5 L11.5,27.7 L-11.5,27.7 L-27.7,11.5 L-27.7,-11.5 L-11.5,-27.7 L11.5,-27.7 Z" fill="none" stroke="black" transform="translate(199.8882068479239,271.67096874598394) rotate(4.1047159461264116) scale(0.5211217509709501)" /></g><g><path d="M27.7,-11.5 L27.7,11.5 L11.5,27.7 L-11.5,27.7 L-27.7,11.5 L-27.7,-11.5 L-11.5,-27.7 L11.5,-27.7 Z" fill="none" stroke="black" transform="translate(272.77156513316584,105.62393326800805) rotate(23.150255787729858) scale(0.945346884104054)" /><path d="M27.7,-11.5 L27.7,11.5 L11.5,27.7 L-11.5,27.7 L-27.7,11.5 L-27.7,-11.5 L-11.5,-27.7 L11.5,-27.7 Z" fill="none" stroke="black" transform="translate(272.77156513316584,105.62393326800805) rotate(23.150255787729858) scale(0.6617428188728377)" /><path d="M27.7,-11.5 L27.7,11.5 L11.5,27.7 L-11.5,27.7 L-27.7,11.5 L-27.7,-11.5 L-11.5,-27.7 L11.5,-27.7 Z" fill="none" stroke="black" transform="translate(272.77156513316584,105.62393326800805) rotate(23.150255787729858) scale(0.37813875364162164)" /></g><path d="M0,-30 L30,30 L-30,30 Z" fill="none" stroke="black" transform="translate(303.8425478152427,71.33220639830441) rotate(149.94934051372059) scale(0.8184389947840753)" /><path d="M0,-30 L30,30 L-30,30 Z" fill="none" stroke="black" transform="translate(202.3045900882979,326.2933484079292) rotate(292.66602693664623) scale(0.8700557972386479)" /><g><path d="M0,-30 L30,30 L-30,30 Z" fill="none" stroke="black" transform="translate(261.9687768417285,201.59778243423196) rotate(340.87077165693387) scale(1.1714518895879644)" /><path d="M0,-30 L30,30 L-30,30 Z" fill="none" stroke="black" transform="translate(261.9687768417285,201.59778243423196) rotate(340.87077165693387) scale(0.8200163227115751)" /><path d="M0,-30 L30,30 L-30,30 Z" fill="none" stroke="black" transform="translate(261.9687768417285,201.59778243423196) rotate(340.87077165693387) scale(0.46858075583518577)" /></g></svg>