<svg baseProfile="full" height="400" version="1.1" width="400" xmlns="http://www.w3.org/2000/svg" xmlns:ev="http://www.w3.org/2001/xml-events" xmlns:xlink="http://www.w3.org/1999/xlink"><defs /><rect fill="white" height="100%" width="100%" x="0" y="0" /><path d="M27.7,-11.5 L27.7,11.5 L11.5,27.7 L-11.5,27.7 L-27.7,11.5 L-27.7,-11.5 L-11.5,-27.7 L11.5,-27.7 Z" fill="none" stroke="black" transform="translate(119.93805366755956,219.12914334035062) rotate(193.4369958304508) scale(1.5553372253176345)" /><g><path d="M27.7,-11.5 L27.7,11.5 L11.5,27.7 L-11.5,27.7 L-27.7,11.5 L-27.7,-11.5 L-11.5,-27.7 L11.5,-27.7 Z" fill="none" stroke="black" transform="translate(257.8285959233341,146.13511643043344) rotate(259.00849149080494) scale(1.9651692339496893)" /><path d="M27.7,-11.5 L27.7,11.5 L11.5,27.7 L-11.5,27.7 L-27.7,11.5 L-27.7,-11.5 L-11.5,-27.7 L11.5,-27.7 Z" fill="none" stroke="black" transform="translate(257.8285959233341,146.13511643043344) rotate(259.00849149080494) scale(1.3756184637647824)" /><path d="M27.7,-11.5 L27.7,11.5 L11.5,27.7 L-11.5,27.7 L-27.7,11.5 L-27.7,-11.5 L-11.5,-27.7 L11.5,-27.7 Z" fill="none" stroke="black" transform="translate(257.8285959233341,146.13511643043344) rotate(259.00849149080494) scale(0.7860676935798758)" /></g><g><path d="M30,0 L15,-26 L-15,-26 L-30,0 L-15,26 L15,26 Z" fill="none" stroke="black" transform="translate(261.8456308275793,295.9244618606761) rotate(10.326150166881671) scale(0.9055673474296015)" /><path d="M30,0 L15,-26 L-15,-26 L-30,0 L-15,26 L15,26 Z" fill="none" stroke="black" transform="translate(261.8456308275793,295.9244618606761) rotate(10.326150166881671) scale(0.633897143200721)" /></g><path d="M0.0,-30.0 L28.5,-9.3 L17.6,24.3 L-17.6,24.3 L-28.5,-9.3 Z" fill="none" stroke="black" transform="translate(298.6966773649435,234.19682217134857) rotate(143.87047559256501) scale(1.151926035131663)" /><path d="M0.0,-30.0 L28.5,-9.3 L17.6,24.3 L-17.6,24.3 L-28.5,-9.3 Z" fill="none" stroke="black" transform="translate(235.1868651132258,234.58339655315618) rotate(273.38113579779616) scale(0.9115649003313848)" /><g><path d="M-30,-20 h60 v40 h-60 Z" fill="none" stroke="black" transform="translate(71.74523224843833,150.38506601545814) rotate(8.993461862604164) scale(0.8504371173533973)" /><path d="M-30,-20 h60 v40 h-60 Z" fill="none" stroke="black" transform="translate(71.74523224843833,150.38506601545814) rotate(8.993461862604164) scale(0.5953059821473781)" /></g><g><path d="M-30,-20 h60 v40 h-60 Z" fill="none" stroke="black" transform="translate(175.03819993988262,99.38215789265628) rotate(342.9344116130999) scale(0.9533659681916833)" /><path d="M-30,-20 h60 v40 h-60 Z" fill="none" stroke="black" transform="translate(175.03819993988262,99.38215789265628) rotate(342.9344116130999) scale(0.6673561777341782)" /><path d="M-30,-20 h60 v40 h-60 Z" fill="none" stroke="black" transform="translate(175.03819993988262,99.38215789265628) rotate(342.9344116130999) scale(0.38134638727667336)" /></g><path d="M-30,-20 h60 v40 h-60 Z" fill="none" stroke="black" transform="translate(120.9663128293937,132.7728998666376) rotate(329.12188857879335) scale(1.0073545482155026)" /><path d="M0.0,-30.0 L8.8,-12.1 L28.5,-9.3 L14.3,4.6 L17.6,24.3 L0.0,15.0 L-17.6,24.3 L-14.3,4.6 L-28.5,-9.3 L-8.8,-12.1 Z" fill="none" stroke="black" transform="translate(67.85326082492,317.47850690200295) rotate(258.7496851521386) scale(0.8394708927291377)" /><path d="M0.0,-30.0 L8.8,-12.1 L28.5,-9.3 L14.3,4.6 L17.6,24.3 L0.0,15.0 L-17.6,24.3 L-14.3,4.6 L-28.5,-9.3 L-8.8,-12.1 Z" fill="none" stroke="black" transform="translate(144.21348606585727,313.82317777014646) rotate(346.6338702971337) scale(1.0545893430240545)" /><path d="M0,-30 L30,30 L-30,30 Z" fill="none" stroke="black" transform="translate(189.70778050223672,223.14141660985285) rotate(228.06254148366747) scale(0.8536008855218069)" /><path d="M0,-30 L30,30 L-30,30 Z" fill="none" stroke="black" transform="translate(113.71029017636735,83.5697473794954) rotate(174.47859296391883) scale(0.9585136021431675)" /><g><path d="M0,0 m-30,0 a30,30 0 1,0 60,0 a30,30 0 1,0 -60,0" fill="none" stroke="black" transform="translate(330.2662249526054,287.67913436710165) rotate(113.66387881138346) scale(0.9176374556166181)" /><path d="M0,0 m-30,0 a30,30 0 1,0 60,0 a30,30 0 1,0 -60,0" fill="none" stroke="black" transform="translate(330.2662249526054,287.67913436710165) rotate(113.66387881138346) scale(0.6423462189316327)" /><path d="M0,0 m-30,0 a30,30 0 1,0 60,0 a30,30 0 1,0 -60,0" fill="none" stroke="black" transform="translate(330.2662249526054,287.67913436710165) rotate(113.66387881138346) scale(0.3670549822466473)" /></g></svg>