<svg baseProfile="full" height="400" version="1.1" width="400" xmlns="http://www.w3.org/2000/svg" xmlns:ev="http://www.w3.org/2001/xml-events" xmlns:xlink="http://www.w3.org/1999/xlink"><defs /><rect fill="white" height="100%" width="100%" x="0" y="0" /><path d="M30,0 L15,-26 L-15,-26 L-30,0 L-15,26 L15,26 Z" fill="none" stroke="black" transform="translate(115.29477895516457,240.48071998475615) rotate(225.72021564551244) scale(1.5991717809420831)" /><path d="M30,0 L15,-26 L-15,-26 L-30,0 L-15,26 L15,26 Z" fill="none" stroke="black" transform="translate(253.57021670544555,159.67388175130952) rotate(189.0452063052092) scale(1.7178827453882488)" /><path d="M30,0 L15,-26 L-15,-26 L-30,0 L-15,26 L15,26 Z" fill="none" stroke="black" transform="translate(297.7788228629853,307.8001741257254) rotate(314.5794634638702) scale(0.8037233305622332)" /><path d="M-30,-20 h60 v40 h-60 Z" fill="none" stroke="black" transform="translate(119.8916051270202,115.20945183442947) rotate(66.06632961138718) scale(1.1780970129935793)" /><g><path d="M0.0,-30.0 L28.5,-9.3 L17.6,24.3 L-17.6,24.3 L-28.5,-9.3 Z" fill="none" stroke="black" transform="translate(221.1295914030926,314.01916695612874) rotate(253.60855602456928) scale(0.9423489797222192)" /><path d="M0.0,-30.0 L28.5,-9.3 L17.6,24.3 L-17.6,24.3 L-28.5,-9.3 Z" fill="none" stroke="black" transform="translate(221.1295914030926,314.01916695612874) rotate(253.60855602456928) scale(0.6596442858055535)" /><path d="M0.0,-30.0 L28.5,-9.3 L17.6,24.3 L-17.6,24.3 L-28.5,-9.3 Z" fill="none" stroke="black" transform="translate(221.1295914030926,314.01916695612874) rotate(253.60855602456928) scale(0.3769395918888877)" /></g></svg>