<svg baseProfile="full" height="400" version="1.1" width="400" xmlns="http://www.w3.org/2000/svg" xmlns:ev="http://www.w3.org/2001/xml-events" xmlns:xlink="http://www.w3.org/1999/xlink"><defs /><rect fill="white" height="100%" width="100%" x="0" y="0" /><g><path d="M0,0 m-30,0 a30,30 0 1,0 60,0 a30,30 0 1,0 -60,0" fill="none" stroke="black" transform="translate(121.26531586383894,268.65045225831653) rotate(232.21811612687932) scale(1.4508495374817043)" /><path d="M0,0 m-30,0 a30,30 0 1,0 60,0 a30,30 0 1,0 -60,0" fill="none" stroke="black" transform="translate(121.26531586383894,268.65045225831653) rotate(232.21811612687932) scale(1.015594676237193)" /></g><path d="M0,0 m-30,0 a30,30 0 1,0 60,0 a30,30 0 1,0 -60,0" fill="none" stroke="black" transform="translate(192.5828009821201,208.8575927154386) rotate(127.68903306172578) scale(1.6084827109082995)" /><path d="M0,0 m-30,0 a30,30 0 1,0 60,0 a30,30 0 1,0 -60,0" fill="none" stroke="black" transform="translate(261.227031874118,150.71802537536632) rotate(136.1656411154926) scale(1.255204039579284)" /><path d="M30,0 L15,-26 L-15,-26 L-30,0 L-15,26 L15,26 Z" fill="none" stroke="black" transform="translate(90.33468135107246,111.51392747057815) rotate(302.3912930838913) scale(1.0087769638847242)" /><g><path d="M30,0 L15,-26 L-15,-26 L-30,0 L-15,26 L15,26 Z" fill="none" stroke="black" transform="translate(283.96729026332537,219.9540701964067) rotate(63.12307630927124) scale(1.2578735721150667)" /><path d="M30,0 L15,-26 L-15,-26 L-30,0 L-15,26 L15,26 Z" fill="none" stroke="black" transform="translate(283.96729026332537,219.9540701964067) rotate(63.12307630927124) scale(0.8805115004805466)" /><path d="M30,0 L15,-26 L-15,-26 L-30,0 L-15,26 L15,26 Z" fill="none" stroke="black" transform="translate(283.96729026332537,219.9540701964067) rotate(63.12307630927124) scale(0.5031494288460266)" /></g><path d="M30,0 L15,-26 L-15,-26 L-30,0 L-15,26 L15,26 Z" fill="none" stroke="black" transform="translate(237.14653857976947,276.7758468749806) rotate(302.5090184468444) scale(0.9852628070263005)" /><path d="M30,0 L15,-26 L-15,-26 L-30,0 L-15,26 L15,26 Z" fill="none" stroke="black" transform="translate(130.7725759357686,166.13216163330938) rotate(24.457000167372147) scale(0.9173610528900356)" /><g><path d="M0.0,-30.0 L28.5,-9.3 L17.6,24.3 L-17.6,24.3 L-28.5,-9.3 Z" fill="none" stroke="black" transform="translate(302.98562510328065,275.4355442577738) rotate(154.77792443873236) scale(1.0568424792599385)" /><path d="M0.0,-30.0 L28.5,-9.3 L17.6,24.3 L-17.6,24.3 L-28.5,-9.3 Z" fill="none" stroke="black" transform="translate(302.98562510328065,275.4355442577738) rotate(154.77792443873236) scale(0.7397897354819569)" /><path d="M0.0,-30.0 L28.5,-9.3 L17.6,24.3 L-17.6,24.3 L-28.5,-9.3 Z" fill="none" stroke="black" transform="translate(302.98562510328065,275.4355442577738) rotate(154.77792443873236) scale(0.4227369917039754)" /></g><g><path d="M0.0,-30.0 L28.5,-9.3 L17.6,24.3 L-17.6,24.3 L-28.5,-9.3 Z" fill="none" stroke="black" transform="translate(295.03458787554325,81.23073486845611) rotate(88.89616727102579) scale(1.1114808396435654)" /><path d="M0.0,-30.0 L28.5,-9.3 L17.6,24.3 L-17.6,24.3 L-28.5,-9.3 Z" fill="none" stroke="black" transform="translate(295.03458787554325,81.23073486845611) rotate(88.89616727102579) scale(0.7780365877504957)" /><path d="M0.0,-30.0 L28.5,-9.3 L17.6,24.3 L-17.6,24.3 L-28.5,-9.3 Z" fill="none" stroke="black" transform="translate(295.03458787554325,81.23073486845611) rotate(88.89616727102579) scale(0.4445923358574262)" /></g><path d="M0.0,-30.0 L28.5,-9.3 L17.6,24.3 L-17.6,24.3 L-28.5,-9.3 Z" fill="none" stroke="black" transform="translate(207.91172185133607,96.7168588922629) rotate(180.19529474144667) scale(1.221967275496635)" /><g><path d="M0.0,-30.0 L28.5,-9.3 L17.6,24.3 L-17.6,24.3 L-28.5,-9.3 Z" fill="none" stroke="black" transform="translate(195.8379023860343,314.8767352346443) rotate(273.749640021598) scale(1.0219355165112691)" /><path d="M0.0,-30.0 L28.5,-9.3 L17.6,24.3 L-17.6,24.3 L-28.5,-9.3 Z" fill="none" stroke="black" transform="translate(195.8379023860343,314.8767352346443) rotate(273.749640021598) scale(0.7153548615578883)" /></g></svg>