<svg baseProfile="full" height="400" version="1.1" width="400" xmlns="http://www.w3.org/2000/svg" xmlns:ev="http://www.w3.org/2001/xml-events" xmlns:xlink="http://www.w3.org/1999/xlink"><defs /><rect fill="white" height="100%" width="100%" x="0" y="0" /><path d="M0,-30 L30,30 L-30,30 Z" fill="none" stroke="black" transform="translate(146.34230657635968,121.96093879582187) rotate(209.40888731300973) scale(1.3832275180987095)" /><g><path d="M30,0 L15,-26 L-15,-26 L-30,0 L-15,26 L15,26 Z" fill="none" stroke="black" transform="translate(203.33971194018002,249.06207109363044) rotate(169.81221808382813) scale(1.5100201519585579)" /><path d="M30,0 L15,-26 L-15,-26 L-30,0 L-15,26 L15,26 Z" fill="none" stroke="black" transform="translate(203.33971194018002,249.06207109363044) rotate(169.81221808382813) scale(1.0570141063709904)" /><path d="M30,0 L15,-26 L-15,-26 L-30,0 L-15,26 L15,26 Z" fill="none" stroke="black" transform="translate(203.33971194018002,249.06207109363044) rotate(169.81221808382813) scale(0.6040080607834232)" /></g><path d="M30,0 L15,-26 L-15,-26 L-30,0 L-15,26 L15,26 Z" fill="none" stroke="black" transform="translate(300.9427791738523,90.54083133124051) rotate(135.78587671730082) scale(1.1355930417820062)" /><path d="M30,0 L15,-26 L-15,-26 L-30,0 L-15,26 L15,26 Z" fill="none" stroke="black" transform="translate(270.4526454424796,168.92462620030102) rotate(214.13626203023435) scale(1.283955733474823)" /><g><path d="M30,0 L15,-26 L-15,-26 L-30,0 L-15,26 L15,26 Z" fill="none" stroke="black" transform="translate(228.78656512565865,319.63218833087205) rotate(38.378669484448544) scale(0.8401025108716367)" /><path d="M30,0 L15,-26 L-15,-26 L-30,0 L-15,26 L15,26 Z" fill="none" stroke="black" transform="translate(228.78656512565865,319.63218833087205) rotate(38.378669484448544) scale(0.5880717576101456)" /></g><path d="M30,0 L15,-26 L-15,-26 L-30,0 L-15,26 L15,26 Z" fill="none" stroke="black" transform="translate(168.0257636475023,315.7009372325745) rotate(355.5974761280211) scale(1.1234455568784971)" /><g><path d="M30,0 L15,-26 L-15,-26 L-30,0 L-15,26 L15,26 Z" fill="none" stroke="black" transform="translate(285.0403371322262,269.25478209097156) rotate(340.8310150041755) scale(0.8074157371698486)" /><path d="M30,0 L15,-26 L-15,-26 L-30,0 L-15,26 L15,26 Z" fill="none" stroke="black" transform="translate(285.0403371322262,269.25478209097156) rotate(340.8310150041755) scale(0.565191016018894)" /></g><path d="M27.7,-11.5 L27.7,11.5 L11.5,27.7 L-11.5,27.7 L-27.7,11.5 L-27.7,-11.5 L-11.5,-27.7 L11.5,-27.7 Z" fill="none" stroke="black" transform="translate(84.31701687182542,162.6090828710394) rotate(112.1906797907716) scale(1.0145007426594772)" /><path d="M27.7,-11.5 L27.7,11.5 L11.5,27.7 L-11.5,27.7 L-27.7,11.5 L-27.7,-11.5 L-11.5,-27.7 L11.5,-27.7 Z" fill="none" stroke="black" transform="translate(322.36961755710837,207.98641036695636) rotate(217.45708022732413) scale(1.0699233930053729)" /><g><path d="M27.7,-11.5 L27.7,11.5 L11.5,27.7 L-11.5,27.7 L-27.7,11.5 L-27.7,-11.5 L-11.5,-27.7 L11.5,-27.7 Z" fill="none" stroke="black" transform="translate(203.5717564028467,168.1916531450189) rotate(150.27046316473476) scale(0.9101326571176239)" /><path d="M27.7,-11.5 L27.7,11.5 L11.5,27.7 L-11.5,27.7 L-27.7,11.5 L-27.7,-11.5 L-11.5,-27.7 L11.5,-27.7 Z" fill="none" stroke="black" transform="translate(203.5717564028467,168.1916531450189) rotate(150.27046316473476) scale(0.6370928599823367)" /></g><path d="M27.7,-11.5 L27.7,11.5 L11.5,27.7 L-11.5,27.7 L-27.7,11.5 L-27.7,-11.5 L-11.5,-27.7 L11.5,-27.7 Z" fill="none" stroke="black" transform="translate(225.68789561399262,84.95239223074057) rotate(256.5794944275816) scale(0.9212103019871718)" /><path d="M-30,-20 h60 v40 h-60 Z" fill="none" stroke="black" transform="translate(64.56807358267783,292.5289881139006) rotate(39.18439326878436) scale(0.8805661987085581)" /><path d="M-30,-20 h60 v40 h-60 Z" fill="none" stroke="black" transform="translate(100.24317673884944,243.67001654311616) rotate(164.64343673206042) scale(1.0592860222746971)" /></svg>