<svg baseProfile="full" height="400" version="1.1" width="400" xmlns="http://www.w3.org/2000/svg" xmlns:ev="http://www.w3.org/2001/xml-events" xmlns:xlink="http://www.w3.org/1999/xlink"><defs /><rect fill="white" height="100%" width="100%" x="0" y="0" /><path d="M0.0,-30.0 L28.5,-9.3 L17.6,24.3 L-17.6,24.3 L-28.5,-9.3 Z" fill="none" stroke="black" transform="translate(262.8552495493691,283.8501322926356) rotate(139.08022382166172) scale(1.0449916510130788)" /><g><path d="M0.0,-30.0 L28.5,-9.3 L17.6,24.3 L-17.6,24.3 L-28.5,-9.3 Z" fill="none" stroke="black" transform="translate(259.0357703278979,133.51600882275804) rotate(71.01804780776182) scale(1.4036478420300993)" /><path d="M0.0,-30.0 L28.5,-9.3 L17.6,24.3 L-17.6,24.3 L-28.5,-9.3 Z" fill="none" stroke="black" transform="translate(259.0357703278979,133.51600882275804) rotate(71.01804780776182) scale(0.9825534894210695)" /></g><path d="M-30,-20 h60 v40 h-60 Z" fill="none" stroke="black" transform="translate(127.94814680804197,128.9900332499934) rotate(8.156992319612876) scale(1.7611421971360857)" /><g><path d="M-30,-20 h60 v40 h-60 Z" fill="none" stroke="black" transform="translate(110.01173977797559,245.46670755383172) rotate(126.89495537026515) scale(1.1435730841520415)" /><path d="M-30,-20 h60 v40 h-60 Z" fill="none" stroke="black" transform="translate(110.01173977797559,245.46670755383172) rotate(126.89495537026515) scale(0.800501158906429)" /><path d="M-30,-20 h60 v40 h-60 Z" fill="none" stroke="black" transform="translate(110.01173977797559,245.46670755383172) rotate(126.89495537026515) scale(0.4574292336608166)" /></g><g><path d="M0.0,-30.0 L8.8,-12.1 L28.5,-9.3 L14.3,4.6 L17.6,24.3 L0.0,15.0 L-17.6,24.3 L-14.3,4.6 L-28.5,-9.3 L-8.8,-12.1 Z" fill="none" stroke="black" transform="translate(194.79932688264498,327.85440166695554) rotate(229.64017194830762) scale(0.8291751431594517)" /><path d="M0.0,-30.0 L8.8,-12.1 L28.5,-9.3 L14.3,4.6 L17.6,24.3 L0.0,15.0 L-17.6,24.3 L-14.3,4.6 L-28.5,-9.3 L-8.8,-12.1 Z" fill="none" stroke="black" transform="translate(194.79932688264498,327.85440166695554) rotate(229.64017194830762) scale(0.5804226002116162)" /><path d="M0.0,-30.0 L8.8,-12.1 L28.5,-9.3 L14.3,4.6 L17.6,24.3 L0.0,15.0 L-17.6,24.3 L-14.3,4.6 L-28.5,-9.3 L-8.8,-12.1 Z" fill="none" stroke="black" transform="translate(194.79932688264498,327.85440166695554) rotate(229.64017194830762) scale(0.33167005726378074)" /></g></svg>