<svg baseProfile="full" height="400" version="1.1" width="400" xmlns="http://www.w3.org/2000/svg" xmlns:ev="http://www.w3.org/2001/xml-events" xmlns:xlink="http://www.w3.org/1999/xlink"><defs /><rect fill="white" height="100%" width="100%" x="0" y="0" /><path d="M0,-30 L30,30 L-30,30 Z" fill="none" stroke="black" transform="translate(85.22343011870927,313.07051500017707) rotate(52.24431873643714) scale(0.8031014680359139)" /><path d="M0,-30 L30,30 L-30,30 Z" fill="none" stroke="black" transform="translate(166.90382110247685,113.35805514861937) rotate(18.318719825253066) scale(1.0400903481228878)" /><path d="M0,-30 L30,30 L-30,30 Z" fill="none" stroke="black" transform="translate(251.1183153829083,190.21957774416293) rotate(323.94605618993467) scale(0.8565716189118144)" /><g><path d="M0.0,-30.0 L8.8,-12.1 L28.5,-9.3 L14.3,4.6 L17.6,24.3 L0.0,15.0 L-17.6,24.3 L-14.3,4.6 L-28.5,-9.3 L-8.8,-12.1 Z" fill="none" stroke="black" transform="translate(168.1925654591808,250.7427160314873) rotate(245.80969849864536) scale(1.4422410629137086)" /><path d="M0.0,-30.0 L8.8,-12.1 L28.5,-9.3 L14.3,4.6 L17.6,24.3 L0.0,15.0 L-17.6,24.3 L-14.3,4.6 L-28.5,-9.3 L-8.8,-12.1 Z" fill="none" stroke="black" transform="translate(168.1925654591808,250.7427160314873) rotate(245.80969849864536) scale(1.009568744039596)" /><path d="M0.0,-30.0 L8.8,-12.1 L28.5,-9.3 L14.3,4.6 L17.6,24.3 L0.0,15.0 L-17.6,24.3 L-14.3,4.6 L-28.5,-9.3 L-8.8,-12.1 Z" fill="none" stroke="black" transform="translate(168.1925654591808,250.7427160314873) rotate(245.80969849864536) scale(0.5768964251654835)" /></g><g><path d="M0.0,-30.0 L8.8,-12.1 L28.5,-9.3 L14.3,4.6 L17.6,24.3 L0.0,15.0 L-17.6,24.3 L-14.3,4.6 L-28.5,-9.3 L-8.8,-12.1 Z" fill="none" stroke="black" transform="translate(286.46830399238775,275.51701331173473) rotate(125.46106465495274) scale(1.2552724233643753)" /><path d="M0.0,-30.0 L8.8,-12.1 L28.5,-9.3 L14.3,4.6 L17.6,24.3 L0.0,15.0 L-17.6,24.3 L-14.3,4.6 L-28.5,-9.3 L-8.8,-12.1 Z" fill="none" stroke="black" transform="translate(286.46830399238775,275.51701331173473) rotate(125.46106465495274) scale(0.8786906963550626)" /></g><path d="M27.7,-11.5 L27.7,11.5 L11.5,27.7 L-11.5,27.7 L-27.7,11.5 L-27.7,-11.5 L-11.5,-27.7 L11.5,-27.7 Z" fill="none" stroke="black" transform="translate(294.58520144471134,100.4840160791956) rotate(41.428084046881196) scale(0.9548019441262877)" /><path d="M27.7,-11.5 L27.7,11.5 L11.5,27.7 L-11.5,27.7 L-27.7,11.5 L-27.7,-11.5 L-11.5,-27.7 L11.5,-27.7 Z" fill="none" stroke="black" transform="translate(200.37522340864538,336.12426383169174) rotate(119.31852666704876) scale(0.8531409396365841)" /><g><path d="M27.7,-11.5 L27.7,11.5 L11.5,27.7 L-11.5,27.7 L-27.7,11.5 L-27.7,-11.5 L-11.5,-27.7 L11.5,-27.7 Z" fill="none" stroke="black" transform="translate(97.08394912971033,178.18619545589405) rotate(274.7631928434592) scale(1.0082951575321573)" /><path d="M27.7,-11.5 L27.7,11.5 L11.5,27.7 L-11.5,27.7 L-27.7,11.5 L-27.7,-11.5 L-11.5,-27.7 L11.5,-27.7 Z" fill="none" stroke="black" transform="translate(97.08394912971033,178.18619545589405) rotate(274.7631928434592) scale(0.70580661027251)" /></g><path d="M27.7,-11.5 L27.7,11.5 L11.5,27.7 L-11.5,27.7 L-27.7,11.5 L-27.7,-11.5 L-11.5,-27.7 L11.5,-27.7 Z" fill="none" stroke="black" transform="translate(80.47658912021502,89.79892139383895) rotate(38.50592253656464) scale(1.108646999354234)" /></svg>