<svg baseProfile="full" height="400" version="1.1" width="400" xmlns="http://www.w3.org/2000/svg" xmlns:ev="http://www.w3.org/2001/xml-events" xmlns:xlink="http://www.w3.org/1999/xlink"><defs /><rect fill="white" height="100%" width="100%" x="0" y="0" /><g><path d="M0,-30 L30,30 L-30,30 Z" fill="none" stroke="black" transform="translate(159.8754913171926,136.86311182014626) rotate(235.53079990308248) scale(1.8408648486381944)" /><path d="M0,-30 L30,30 L-30,30 Z" fill="none" stroke="black" transform="translate(159.8754913171926,136.86311182014626) rotate(235.53079990308248) scale(1.2886053940467361)" /></g><path d="M0,-30 L30,30 L-30,30 Z" fill="none" stroke="black" transform="translate(95.59888803056272,263.9728784507294) rotate(290.3851893306321) scale(1.2399452232064425)" /><path d="M0,-30 L30,30 L-30,30 Z" fill="none" stroke="black" transform="translate(246.45798727318677,280.83671451702423) rotate(251.65856669839124) scale(0.9434666006452631)" /><path d="M0,-30 L30,30 L-30,30 Z" fill="none" stroke="black" transform="translate(265.77624225508214,78.4319859828207) rotate(359.06665388986346) scale(0.9751017487091918)" /><g><path d="M-30,-20 h60 v40 h-60 Z" fill="none" stroke="black" transform="translate(291.93652800077183,213.2377500369485) rotate(41.52489374196297) scale(0.9637524296921043)" /><path d="M-30,-20 h60 v40 h-60 Z" fill="none" stroke="black" transform="translate(291.93652800077183,213.2377500369485) rotate(41.52489374196297) scale(0.674626700784473)" /><path d="M-30,-20 h60 v40 h-60 Z" fill="none" stroke="black" transform="translate(291.93652800077183,213.2377500369485) rotate(41.52489374196297) scale(0.38550097187684174)" /></g><g><path d="M-30,-20 h60 v40 h-60 Z" fill="none" stroke="black" transform="translate(62.45076324342576,84.52466423954203) rotate(53.175223115636406) scale(0.8473787941225401)" /><path d="M-30,-20 h60 v40 h-60 Z" fill="none" stroke="black" transform="translate(62.45076324342576,84.52466423954203) rotate(53.175223115636406) scale(0.593165155885778)" /><path d="M-30,-20 h60 v40 h-60 Z" fill="none" stroke="black" transform="translate(62.45076324342576,84.52466423954203) rotate(53.175223115636406) scale(0.3389515176490161)" /></g><g><path d="M0.0,-30.0 L8.8,-12.1 L28.5,-9.3 L14.3,4.6 L17.6,24.3 L0.0,15.0 L-17.6,24.3 L-14.3,4.6 L-28.5,-9.3 L-8.8,-12.1 Z" fill="none" stroke="black" transform="translate(319.9808646307702,305.5551521823945) rotate(193.5213170171661) scale(0.9037060147033962)" /><path d="M0.0,-30.0 L8.8,-12.1 L28.5,-9.3 L14.3,4.6 L17.6,24.3 L0.0,15.0 L-17.6,24.3 L-14.3,4.6 L-28.5,-9.3 L-8.8,-12.1 Z" fill="none" stroke="black" transform="translate(319.9808646307702,305.5551521823945) rotate(193.5213170171661) scale(0.6325942102923773)" /></g></svg>