<svg baseProfile="full" height="400" version="1.1" width="400" xmlns="http://www.w3.org/2000/svg" xmlns:ev="http://www.w3.org/2001/xml-events" xmlns:xlink="http://www.w3.org/1999/xlink"><defs /><rect fill="white" height="100%" width="100%" x="0" y="0" /><path d="M0.0,-30.0 L28.5,-9.3 L17.6,24.3 L-17.6,24.3 L-28.5,-9.3 Z" fill="none" stroke="black" transform="translate(326.3008210330465,310.62165336978) rotate(72.54338055547528) scale(0.9009739075740576)" /><path d="M0.0,-30.0 L28.5,-9.3 L17.6,24.3 L-17.6,24.3 L-28.5,-9.3 Z" fill="none" stroke="black" transform="translate(314.5560732825109,131.2341450496267) rotate(156.13182806787626) scale(1.038115764869899)" /><path d="M27.7,-11.5 L27.7,11.5 L11.5,27.7 L-11.5,27.7 L-27.7,11.5 L-27.7,-11.5 L-11.5,-27.7 L11.5,-27.7 Z" fill="none" stroke="black" transform="translate(233.58856798049243,212.7715668809904) rotate(58.85192106431731) scale(1.4939317536332126)" /><path d="M-30,-20 h60 v40 h-60 Z" fill="none" stroke="black" transform="translate(153.72696138917638,198.5368932245794) rotate(214.9691777913382) scale(1.0978873556407382)" /><path d="M-30,-20 h60 v40 h-60 Z" fill="none" stroke="black" transform="translate(191.1581308274223,170.72478343670167) rotate(231.95778339387118) scale(1.4816222938406947)" /><g><path d="M-30,-20 h60 v40 h-60 Z" fill="none" stroke="black" transform="translate(320.42778391001434,76.74748413010535) rotate(298.5942470199852) scale(0.9774991972945822)" /><path d="M-30,-20 h60 v40 h-60 Z" fill="none" stroke="black" transform="translate(320.42778391001434,76.74748413010535) rotate(298.5942470199852) scale(0.6842494381062075)" /></g></svg>