<svg baseProfile="full" height="400" version="1.1" width="400" xmlns="http://www.w3.org/2000/svg" xmlns:ev="http://www.w3.org/2001/xml-events" xmlns:xlink="http://www.w3.org/1999/xlink"><defs /><rect fill="white" height="100%" width="100%" x="0" y="0" /><g><path d="M0,-30 L30,30 L-30,30 Z" fill="none" stroke="black" transform="translate(100.02725400358098,232.99289830610581) rotate(137.78083449160562) scale(0.9333163000959478)" /><path d="M0,-30 L30,30 L-30,30 Z" fill="none" stroke="black" transform="translate(100.02725400358098,232.99289830610581) rotate(137.78083449160562) scale(0.6533214100671634)" /></g><path d="M0,-30 L30,30 L-30,30 Z" fill="none" stroke="black" transform="translate(255.58828290390778,162.40519750395788) rotate(318.84335960118193) scale(1.5571470474508318)" /><g><path d="M0,0 m-30,0 a30,30 0 1,0 60,0 a30,30 0 1,0 -60,0" fill="none" stroke="black" transform="translate(146.76520348884884,286.8369029462132) rotate(301.61896741560537) scale(1.291205063354126)" /><path d="M0,0 m-30,0 a30,30 0 1,0 60,0 a30,30 0 1,0 -60,0" fill="none" stroke="black" transform="translate(146.76520348884884,286.8369029462132) rotate(301.61896741560537) scale(0.9038435443478882)" /></g><g><path d="M0,0 m-30,0 a30,30 0 1,0 60,0 a30,30 0 1,0 -60,0" fill="none" stroke="black" transform="translate(223.37527767285445,246.86784025424646) rotate(247.36070899919355) scale(1.0320423536248524)" /><path d="M0,0 m-30,0 a30,30 0 1,0 60,0 a30,30 0 1,0 -60,0" fill="none" stroke="black" transform="translate(223.37527767285445,246.86784025424646) rotate(247.36070899919355) scale(0.7224296475373967)" /><path d="M0,0 m-30,0 a30,30 0 1,0 60,0 a30,30 0 1,0 -60,0" fill="none" stroke="black" transform="translate(223.37527767285445,246.86784025424646) rotate(247.36070899919355) scale(0.41281694144994097)" /></g><path d="M0,0 m-30,0 a30,30 0 1,0 60,0 a30,30 0 1,0 -60,0" fill="none" stroke="black" transform="translate(311.38740885470503,292.96171936292586) rotate(268.0750266868482) scale(1.0283309793394004)" /><g><path d="M0,0 m-30,0 a30,30 0 1,0 60,0 a30,30 0 1,0 -60,0" fill="none" stroke="black" transform="translate(218.28291340790986,100.49608441055736) rotate(46.15477238396543) scale(0.9758624717884785)" /><path d="M0,0 m-30,0 a30,30 0 1,0 60,0 a30,30 0 1,0 -60,0" fill="none" stroke="black" transform="translate(218.28291340790986,100.49608441055736) rotate(46.15477238396543) scale(0.6831037302519349)" /></g><g><path d="M0,0 m-30,0 a30,30 0 1,0 60,0 a30,30 0 1,0 -60,0" fill="none" stroke="black" transform="translate(147.437995994852,173.58687962966783) rotate(170.33763419139672) scale(1.2046280462868149)" /><path d="M0,0 m-30,0 a30,30 0 1,0 60,0 a30,30 0 1,0 -60,0" fill="none" stroke="black" transform="translate(147.437995994852,173.58687962966783) rotate(170.33763419139672) scale(0.8432396324007704)" /></g><path d="M27.7,-11.5 L27.7,11.5 L11.5,27.7 L-11.5,27.7 L-27.7,11.5 L-27.7,-11.5 L-11.5,-27.7 L11.5,-27.7 Z" fill="none" stroke="black" transform="translate(264.5165276194052,327.88191183940836) rotate(112.4620789292456) scale(0.8945783385717011)" /><path d="M27.7,-11.5 L27.7,11.5 L11.5,27.7 L-11.5,27.7 L-27.7,11.5 L-27.7,-11.5 L-11.5,-27.7 L11.5,-27.7 Z" fill="none" stroke="black" transform="translate(314.4314115521972,214.6658640059913) rotate(239.28689973866796) scale(0.8583456951830868)" /><g><path d="M-30,-20 h60 v40 h-60 Z" fill="none" stroke="black" transform="translate(111.02073034354092,87.87867173637063) rotate(157.17849082661783) scale(1.1468176760998818)" /><path d="M-30,-20 h60 v40 h-60 Z" fill="none" stroke="black" transform="translate(111.02073034354092,87.87867173637063) rotate(157.17849082661783) scale(0.8027723732699172)" /><path d="M-30,-20 h60 v40 h-60 Z" fill="none" stroke="black" transform="translate(111.02073034354092,87.87867173637063) rotate(157.17849082661783) scale(0.45872707043995276)" /></g><path d="M-30,-20 h60 v40 h-60 Z" fill="none" stroke="black" transform="translate(300.3442885296693,95.89563010540826) rotate(122.01962438039168) scale(1.2319876439908364)" /><path d="M-30,-20 h60 v40 h-60 Z" fill="none" stroke="black" transform="translate(65.44927676920439,287.2482785245444) rotate(150.5971691223785) scale(0.8464901846232125)" /><path d="M0.0,-30.0 L28.5,-9.3 L17.6,24.3 L-17.6,24.3 L-28.5,-9.3 Z" fill="none" stroke="black" transform="translate(166.94587751947165,75.98649745979341) rotate(252.95515889227445) scale(0.809428500185947)" /><path d="M0.0,-30.0 L28.5,-9.3 L17.6,24.3 L-17.6,24.3 L-28.5,-9.3 Z" fill="none" stroke="black" transform="translate(221.60867204128124,304.60530219327586) rotate(80.3106649182664) scale(0.9457723505200312)" /><g><path d="M0.0,-30.0 L28.5,-9.3 L17.6,24.3 L-17.6,24.3 L-28.5,-9.3 Z" fill="none" stroke="black" transform="translate(79.64469604400773,148.27236475058024) rotate(0.2671574009366351) scale(0.9883503884417452)" /><path d="M0.0,-30.0 L28.5,-9.3 L17.6,24.3 L-17.6,24.3 L-28.5,-9.3 Z" fill="none" stroke="black" transform="translate(79.64469604400773,148.27236475058024) rotate(0.2671574009366351) scale(0.6918452719092216)" /></g><path d="M30,0 L15,-26 L-15,-26 L-30,0 L-15,26 L15,26 Z" fill="none" stroke="black" transform="translate(74.12670608906683,328.949485922192) rotate(234.33516694883272) scale(0.8006621566334696)" /></svg>