<svg baseProfile="full" height="400" version="1.1" width="400" xmlns="http://www.w3.org/2000/svg" xmlns:ev="http://www.w3.org/2001/xml-events" xmlns:xlink="http://www.w3.org/1999/xlink"><defs /><rect fill="white" height="100%" width="100%" x="0" y="0" /><g><path d="M-30,-20 h60 v40 h-60 Z" fill="none" stroke="black" transform="translate(144.58134646172152,255.34926783918246) rotate(22.546219654429947) scale(1.7022320442564194)" /><path d="M-30,-20 h60 v40 h-60 Z" fill="none" stroke="black" transform="translate(144.58134646172152,255.34926783918246) rotate(22.546219654429947) scale(1.1915624309794934)" /><path d="M-30,-20 h60 v40 h-60 Z" fill="none" stroke="black" transform="translate(144.58134646172152,255.34926783918246) rotate(22.546219654429947) scale(0.6808928177025678)" /></g><path d="M-30,-20 h60 v40 h-60 Z" fill="none" stroke="black" transform="translate(247.88129995425265,92.01186490852669) rotate(319.84273656105734) scale(0.8233929062151991)" /><path d="M-30,-20 h60 v40 h-60 Z" fill="none" stroke="black" transform="translate(76.89938496943215,81.23999862135042) rotate(236.49078637508575) scale(1.0116212889900524)" /><path d="M-30,-20 h60 v40 h-60 Z" fill="none" stroke="black" transform="translate(275.43302171292027,261.1142985079688) rotate(294.9162328471079) scale(1.3911024671074785)" /><path d="M-30,-20 h60 v40 h-60 Z" fill="none" stroke="black" transform="translate(205.49771142438885,149.66047788989738) rotate(36.3141723024263) scale(0.9767994255407677)" /><path d="M0.0,-30.0 L28.5,-9.3 L17.6,24.3 L-17.6,24.3 L-28.5,-9.3 Z" fill="none" stroke="black" transform="translate(337.586447621984,201.44887489499604) rotate(117.08869271191774) scale(0.8282406344552128)" /><path d="M0,0 m-30,0 a30,30 0 1,0 60,0 a30,30 0 1,0 -60,0" fill="none" stroke="black" transform="translate(320.5792934923056,96.82464386637116) rotate(251.93141496179638) scale(0.817522940768437)" /></svg>