<svg baseProfile="full" height="400" version="1.1" width="400" xmlns="http://www.w3.org/2000/svg" xmlns:ev="http://www.w3.org/2001/xml-events" xmlns:xlink="http://www.w3.org/1999/xlink"><defs /><rect fill="white" height="100%" width="100%" x="0" y="0" /><g><path d="M0,-30 L30,30 L-30,30 Z" fill="none" stroke="black" transform="translate(126.4880063706716,130.93757974249095) rotate(358.80408866411534) scale(1.567750374557468)" /><path d="M0,-30 L30,30 L-30,30 Z" fill="none" stroke="black" transform="translate(126.4880063706716,130.93757974249095) rotate(358.80408866411534) scale(1.0974252621902274)" /><path d="M0,-30 L30,30 L-30,30 Z" fill="none" stroke="black" transform="translate(126.4880063706716,130.93757974249095) rotate(358.80408866411534) scale(0.6271001498229872)" /></g><path d="M0.0,-30.0 L8.8,-12.1 L28.5,-9.3 L14.3,4.6 L17.6,24.3 L0.0,15.0 L-17.6,24.3 L-14.3,4.6 L-28.5,-9.3 L-8.8,-12.1 Z" fill="none" stroke="black" transform="translate(245.64706704763256,207.178408772199) rotate(224.522498364046) scale(1.9505568696665576)" /><path d="M0.0,-30.0 L8.8,-12.1 L28.5,-9.3 L14.3,4.6 L17.6,24.3 L0.0,15.0 L-17.6,24.3 L-14.3,4.6 L-28.5,-9.3 L-8.8,-12.1 Z" fill="none" stroke="black" transform="translate(198.47375446674025,283.74940595676804) rotate(197.84944546135648) scale(0.9810768043866926)" /><path d="M0.0,-30.0 L8.8,-12.1 L28.5,-9.3 L14.3,4.6 L17.6,24.3 L0.0,15.0 L-17.6,24.3 L-14.3,4.6 L-28.5,-9.3 L-8.8,-12.1 Z" fill="none" stroke="black" transform="translate(107.57504912779528,253.51693255312765) rotate(172.8196886603075) scale(1.1568237333190403)" /><g><path d="M0.0,-30.0 L8.8,-12.1 L28.5,-9.3 L14.3,4.6 L17.6,24.3 L0.0,15.0 L-17.6,24.3 L-14.3,4.6 L-28.5,-9.3 L-8.8,-12.1 Z" fill="none" stroke="black" transform="translate(307.66613689514685,105.33640679314203) rotate(342.5188810161942) scale(0.9009756784938638)" /><path d="M0.0,-30.0 L8.8,-12.1 L28.5,-9.3 L14.3,4.6 L17.6,24.3 L0.0,15.0 L-17.6,24.3 L-14.3,4.6 L-28.5,-9.3 L-8.8,-12.1 Z" fill="none" stroke="black" transform="translate(307.66613689514685,105.33640679314203) rotate(342.5188810161942) scale(0.6306829749457047)" /></g><path d="M0.0,-30.0 L8.8,-12.1 L28.5,-9.3 L14.3,4.6 L17.6,24.3 L0.0,15.0 L-17.6,24.3 L-14.3,4.6 L-28.5,-9.3 L-8.8,-12.1 Z" fill="none" stroke="black" transform="translate(212.2776733032332,90.07150242116236) rotate(240.4904240645368) scale(1.105078743453373)" /><g><path d="M0.0,-30.0 L8.8,-12.1 L28.5,-9.3 L14.3,4.6 L17.6,24.3 L0.0,15.0 L-17.6,24.3 L-14.3,4.6 L-28.5,-9.3 L-8.8,-12.1 Z" fill="none" stroke="black" transform="translate(320.34116742120773,149.0918049706858) rotate(159.83193200102892) scale(0.8774399837965551)" /><path d="M0.0,-30.0 L8.8,-12.1 L28.5,-9.3 L14.3,4.6 L17.6,24.3 L0.0,15.0 L-17.6,24.3 L-14.3,4.6 L-28.5,-9.3 L-8.8,-12.1 Z" fill="none" stroke="black" transform="translate(320.34116742120773,149.0918049706858) rotate(159.83193200102892) scale(0.6142079886575885)" /><path d="M0.0,-30.0 L8.8,-12.1 L28.5,-9.3 L14.3,4.6 L17.6,24.3 L0.0,15.0 L-17.6,24.3 L-14.3,4.6 L-28.5,-9.3 L-8.8,-12.1 Z" fill="none" stroke="black" transform="translate(320.34116742120773,149.0918049706858) rotate(159.83193200102892) scale(0.3509759935186221)" /></g><path d="M30,0 L15,-26 L-15,-26 L-30,0 L-15,26 L15,26 Z" fill="none" stroke="black" transform="translate(256.6618110855322,314.49653658291305) rotate(120.89785549343607) scale(0.9816201560545539)" /><g><path d="M30,0 L15,-26 L-15,-26 L-30,0 L-15,26 L15,26 Z" fill="none" stroke="black" transform="translate(136.37081240272727,304.45210246109474) rotate(74.33454406188092) scale(0.8778017797405115)" /><path d="M30,0 L15,-26 L-15,-26 L-30,0 L-15,26 L15,26 Z" fill="none" stroke="black" transform="translate(136.37081240272727,304.45210246109474) rotate(74.33454406188092) scale(0.614461245818358)" /><path d="M30,0 L15,-26 L-15,-26 L-30,0 L-15,26 L15,26 Z" fill="none" stroke="black" transform="translate(136.37081240272727,304.45210246109474) rotate(74.33454406188092) scale(0.35112071189620464)" /></g><path d="M0.0,-30.0 L28.5,-9.3 L17.6,24.3 L-17.6,24.3 L-28.5,-9.3 Z" fill="none" stroke="black" transform="translate(304.3682764196362,312.24082550808527) rotate(111.9662558092889) scale(0.9487382040114039)" /><path d="M0.0,-30.0 L28.5,-9.3 L17.6,24.3 L-17.6,24.3 L-28.5,-9.3 Z" fill="none" stroke="black" transform="translate(190.63400438919038,332.0754604433165) rotate(241.99031092825533) scale(0.8292508166342359)" /><path d="M0.0,-30.0 L28.5,-9.3 L17.6,24.3 L-17.6,24.3 L-28.5,-9.3 Z" fill="none" stroke="black" transform="translate(107.30639829077046,199.62716022798787) rotate(67.8273120037284) scale(0.899955064643979)" /><path d="M0.0,-30.0 L28.5,-9.3 L17.6,24.3 L-17.6,24.3 L-28.5,-9.3 Z" fill="none" stroke="black" transform="translate(98.27204580827953,322.62653252371206) rotate(89.15250686387539) scale(0.9102124226574633)" /><path d="M0,0 m-30,0 a30,30 0 1,0 60,0 a30,30 0 1,0 -60,0" fill="none" stroke="black" transform="translate(259.34300719339774,77.42241857109389) rotate(244.8456504123765) scale(0.8341801644905434)" /><g><path d="M0,0 m-30,0 a30,30 0 1,0 60,0 a30,30 0 1,0 -60,0" fill="none" stroke="black" transform="translate(161.3024495341559,62.586111939792325) rotate(71.87804268246191) scale(0.8036846770728034)" /><path d="M0,0 m-30,0 a30,30 0 1,0 60,0 a30,30 0 1,0 -60,0" fill="none" stroke="black" transform="translate(161.3024495341559,62.586111939792325) rotate(71.87804268246191) scale(0.5625792739509624)" /></g><path d="M0,0 m-30,0 a30,30 0 1,0 60,0 a30,30 0 1,0 -60,0" fill="none" stroke="black" transform="translate(333.6006110927781,238.31469143779765) rotate(328.12321268797695) scale(0.8601514940454817)" /><g><path d="M27.7,-11.5 L27.7,11.5 L11.5,27.7 L-11.5,27.7 L-27.7,11.5 L-27.7,-11.5 L-11.5,-27.7 L11.5,-27.7 Z" fill="none" stroke="black" transform="translate(337.029984125071,182.95918178845955) rotate(166.73808267331322) scale(0.8442921501012396)" /><path d="M27.7,-11.5 L27.7,11.5 L11.5,27.7 L-11.5,27.7 L-27.7,11.5 L-27.7,-11.5 L-11.5,-27.7 L11.5,-27.7 Z" fill="none" stroke="black" transform="translate(337.029984125071,182.95918178845955) rotate(166.73808267331322) scale(0.5910045050708677)" /></g><g><path d="M27.7,-11.5 L27.7,11.5 L11.5,27.7 L-11.5,27.7 L-27.7,11.5 L-27.7,-11.5 L-11.5,-27.7 L11.5,-27.7 Z" fill="none" stroke="black" transform="translate(100.23715892472377,63.21038112824411) rotate(233.7375456356291) scale(0.8385055782624536)" /><path d="M27.7,-11.5 L27.7,11.5 L11.5,27.7 L-11.5,27.7 L-27.7,11.5 L-27.7,-11.5 L-11.5,-27.7 L11.5,-27.7 Z" fill="none" stroke="black" transform="translate(100.23715892472377,63.21038112824411) rotate(233.7375456356291) scale(0.5869539047837176)" /><path d="M27.7,-11.5 L27.7,11.5 L11.5,27.7 L-11.5,27.7 L-27.7,11.5 L-27.7,-11.5 L-11.5,-27.7 L11.5,-27.7 Z" fill="none" stroke="black" transform="translate(100.23715892472377,63.21038112824411) rotate(233.7375456356291) scale(0.3354022313049815)" /></g></svg>