<svg baseProfile="full" height="400" version="1.1" width="400" xmlns="http://www.w3.org/2000/svg" xmlns:ev="http://www.w3.org/2001/xml-events" xmlns:xlink="http://www.w3.org/1999/xlink"><defs /><rect fill="white" height="100%" width="100%" x="0" y="0" /><path d="M0,0 m-30,0 a30,30 0 1,0 60,0 a30,30 0 1,0 -60,0" fill="none" stroke="black" transform="translate(199.2183173003064,203.20019058794367) rotate(58.58111819868912) scale(1.0299715088978236)" /><g><path d="M0,0 m-30,0 a30,30 0 1,0 60,0 a30,30 0 1,0 -60,0" fill="none" stroke="black" transform="translate(203.25919026784823,260.9609535757711) rotate(350.4176881831076) scale(1.8809350194035566)" /><path d="M0,0 m-30,0 a30,30 0 1,0 60,0 a30,30 0 1,0 -60,0" fill="none" stroke="black" transform="translate(203.25919026784823,260.9609535757711) rotate(350.4176881831076) scale(1.3166545135824894)" /></g><path d="M0,0 m-30,0 a30,30 0 1,0 60,0 a30,30 0 1,0 -60,0" fill="none" stroke="black" transform="translate(71.48821480018297,136.31695555789946) rotate(315.6255989004846) scale(0.9867153590383724)" /><path d="M0,-30 L30,30 L-30,30 Z" fill="none" stroke="black" transform="translate(288.51066077076086,258.03482814904567) rotate(131.03787703278732) scale(1.3783499749623256)" /><path d="M0,-30 L30,30 L-30,30 Z" fill="none" stroke="black" transform="translate(205.87929661144503,74.74634432725088) rotate(164.7501861287414) scale(0.9097149626916791)" /><g><path d="M0,-30 L30,30 L-30,30 Z" fill="none" stroke="black" transform="translate(289.1390808249311,121.94845099898403) rotate(359.51946125001166) scale(1.5282940439060146)" /><path d="M0,-30 L30,30 L-30,30 Z" fill="none" stroke="black" transform="translate(289.1390808249311,121.94845099898403) rotate(359.51946125001166) scale(1.0698058307342102)" /></g><path d="M0,-30 L30,30 L-30,30 Z" fill="none" stroke="black" transform="translate(119.910136296672,275.03501548317865) rotate(290.54350379716936) scale(1.2373685183825553)" /><path d="M27.7,-11.5 L27.7,11.5 L11.5,27.7 L-11.5,27.7 L-27.7,11.5 L-27.7,-11.5 L-11.5,-27.7 L11.5,-27.7 Z" fill="none" stroke="black" transform="translate(124.49990009999972,170.24050902752487) rotate(275.37160086476325) scale(1.5082370934235145)" /><path d="M27.7,-11.5 L27.7,11.5 L11.5,27.7 L-11.5,27.7 L-27.7,11.5 L-27.7,-11.5 L-11.5,-27.7 L11.5,-27.7 Z" fill="none" stroke="black" transform="translate(169.53351838104214,100.50900263806435) rotate(241.15685897807148) scale(1.1288117627494603)" /><path d="M27.7,-11.5 L27.7,11.5 L11.5,27.7 L-11.5,27.7 L-27.7,11.5 L-27.7,-11.5 L-11.5,-27.7 L11.5,-27.7 Z" fill="none" stroke="black" transform="translate(202.05062653956475,154.05542814436592) rotate(181.7782570749096) scale(1.5168885605826707)" /></svg>