<svg baseProfile="full" height="400" version="1.1" width="400" xmlns="http://www.w3.org/2000/svg" xmlns:ev="http://www.w3.org/2001/xml-events" xmlns:xlink="http://www.w3.org/1999/xlink"><defs /><rect fill="white" height="100%" width="100%" x="0" y="0" /><g><path d="M0,0 m-30,0 a30,30 0 1,0 60,0 a30,30 0 1,0 -60,0" fill="none" stroke="black" transform="translate(330.10318873331306,123.71023481023714) rotate(260.07891495942073) scale(0.8773445002289018)" /><path d="M0,0 m-30,0 a30,30 0 1,0 60,0 a30,30 0 1,0 -60,0" fill="none" stroke="black" transform="translate(330.10318873331306,123.71023481023714) rotate(260.07891495942073) scale(0.6141411501602312)" /><path d="M0,0 m-30,0 a30,30 0 1,0 60,0 a30,30 0 1,0 -60,0" fill="none" stroke="black" transform="translate(330.10318873331306,123.71023481023714) rotate(260.07891495942073) scale(0.3509378000915607)" /></g><path d="M0,0 m-30,0 a30,30 0 1,0 60,0 a30,30 0 1,0 -60,0" fill="none" stroke="black" transform="translate(281.08767449671325,162.19161355207652) rotate(292.066122609554) scale(1.0530023947367333)" /><path d="M0,0 m-30,0 a30,30 0 1,0 60,0 a30,30 0 1,0 -60,0" fill="none" stroke="black" transform="translate(120.29893774363694,117.67804110024278) rotate(103.02065247221859) scale(1.2663586687004287)" /><g><path d="M27.7,-11.5 L27.7,11.5 L11.5,27.7 L-11.5,27.7 L-27.7,11.5 L-27.7,-11.5 L-11.5,-27.7 L11.5,-27.7 Z" fill="none" stroke="black" transform="translate(116.91812378661352,187.4935121139847) rotate(55.096194202866464) scale(1.0380780973597075)" /><path d="M27.7,-11.5 L27.7,11.5 L11.5,27.7 L-11.5,27.7 L-27.7,11.5 L-27.7,-11.5 L-11.5,-27.7 L11.5,-27.7 Z" fill="none" stroke="black" transform="translate(116.91812378661352,187.4935121139847) rotate(55.096194202866464) scale(0.7266546681517951)" /><path d="M27.7,-11.5 L27.7,11.5 L11.5,27.7 L-11.5,27.7 L-27.7,11.5 L-27.7,-11.5 L-11.5,-27.7 L11.5,-27.7 Z" fill="none" stroke="black" transform="translate(116.91812378661352,187.4935121139847) rotate(55.096194202866464) scale(0.41523123894388303)" /></g><path d="M27.7,-11.5 L27.7,11.5 L11.5,27.7 L-11.5,27.7 L-27.7,11.5 L-27.7,-11.5 L-11.5,-27.7 L11.5,-27.7 Z" fill="none" stroke="black" transform="translate(187.94344497101287,217.72763575441604) rotate(46.53142836428856) scale(1.6339531041246103)" /><path d="M0.0,-30.0 L28.5,-9.3 L17.6,24.3 L-17.6,24.3 L-28.5,-9.3 Z" fill="none" stroke="black" transform="translate(233.05307376423752,69.93824612218751) rotate(216.35739442563602) scale(0.9375829240998916)" /><path d="M0.0,-30.0 L28.5,-9.3 L17.6,24.3 L-17.6,24.3 L-28.5,-9.3 Z" fill="none" stroke="black" transform="translate(277.1492768798912,308.07994128846576) rotate(328.2799693122321) scale(1.1894163522241399)" /><path d="M0,-30 L30,30 L-30,30 Z" fill="none" stroke="black" transform="translate(104.51070497197443,325.65539893589346) rotate(298.718469822123) scale(0.8781808945513948)" /><path d="M0,-30 L30,30 L-30,30 Z" fill="none" stroke="black" transform="translate(83.95824897661728,271.62736207138107) rotate(51.97157462816284) scale(0.813726739042347)" /><path d="M0,-30 L30,30 L-30,30 Z" fill="none" stroke="black" transform="translate(277.46232905052364,97.16499283031767) rotate(123.35118923329645) scale(1.3029260992225549)" /><path d="M0,-30 L30,30 L-30,30 Z" fill="none" stroke="black" transform="translate(226.01123949012225,319.5508605407936) rotate(120.37655692690339) scale(0.8132888562585157)" /><g><path d="M0,-30 L30,30 L-30,30 Z" fill="none" stroke="black" transform="translate(209.5337055367932,131.33686343641136) rotate(100.57869696341697) scale(0.8606948470076103)" /><path d="M0,-30 L30,30 L-30,30 Z" fill="none" stroke="black" transform="translate(209.5337055367932,131.33686343641136) rotate(100.57869696341697) scale(0.6024863929053272)" /></g><path d="M-30,-20 h60 v40 h-60 Z" fill="none" stroke="black" transform="translate(244.86323497260983,254.1547333329266) rotate(58.58291782438083) scale(0.9242554999076766)" /><path d="M-30,-20 h60 v40 h-60 Z" fill="none" stroke="black" transform="translate(324.84358874368036,173.46846426565733) rotate(197.24679585639) scale(0.9000031094353733)" /><path d="M-30,-20 h60 v40 h-60 Z" fill="none" stroke="black" transform="translate(293.51364068821135,233.06415944159735) rotate(59.95978307373006) scale(1.2980664479118886)" /></svg>