<svg baseProfile="full" height="400" version="1.1" width="400" xmlns="http://www.w3.org/2000/svg" xmlns:ev="http://www.w3.org/2001/xml-events" xmlns:xlink="http://www.w3.org/1999/xlink"><defs /><rect fill="white" height="100%" width="100%" x="0" y="0" /><path d="M0.0,-30.0 L28.5,-9.3 L17.6,24.3 L-17.6,24.3 L-28.5,-9.3 Z" fill="none" stroke="black" transform="translate(240.597652652833,238.8596603681264) rotate(127.69237624398869) scale(1.5840132620439902)" /><path d="M0,-30 L30,30 L-30,30 Z" fill="none" stroke="black" transform="translate(176.10586094332947,155.9599026130659) rotate(77.23157977000437) scale(1.3563989757043)" /><path d="M0,-30 L30,30 L-30,30 Z" fill="none" stroke="black" transform="translate(184.8271923522518,318.6194348277916) rotate(158.1490820618582) scale(1.0627568519098396)" /><path d="M0,-30 L30,30 L-30,30 Z" fill="none" stroke="black" transform="translate(133.16018277557382,271.1589205248441) rotate(345.95791043949515) scale(1.2942874671429823)" /><path d="M0,-30 L30,30 L-30,30 Z" fill="none" stroke="black" transform="translate(294.9327150882816,171.13127402671864) rotate(224.05178936413742) scale(1.1532649039343603)" /><path d="M0,-30 L30,30 L-30,30 Z" fill="none" stroke="black" transform="translate(250.1629869396179,131.05515923328048) rotate(235.03240355995527) scale(0.8307853443771738)" /><path d="M27.7,-11.5 L27.7,11.5 L11.5,27.7 L-11.5,27.7 L-27.7,11.5 L-27.7,-11.5 L-11.5,-27.7 L11.5,-27.7 Z" fill="none" stroke="black" transform="translate(140.4647504993608,82.27395749345669) rotate(96.10850369242065) scale(0.8569734443580186)" /><path d="M27.7,-11.5 L27.7,11.5 L11.5,27.7 L-11.5,27.7 L-27.7,11.5 L-27.7,-11.5 L-11.5,-27.7 L11.5,-27.7 Z" fill="none" stroke="black" transform="translate(229.72572570388576,83.39982533625334) rotate(253.05918798792408) scale(0.8163981994567682)" /><path d="M27.7,-11.5 L27.7,11.5 L11.5,27.7 L-11.5,27.7 L-27.7,11.5 L-27.7,-11.5 L-11.5,-27.7 L11.5,-27.7 Z" fill="none" stroke="black" transform="translate(71.80580160124326,240.04530087459798) rotate(60.34207926489288) scale(0.8143764986529515)" /><g><path d="M27.7,-11.5 L27.7,11.5 L11.5,27.7 L-11.5,27.7 L-27.7,11.5 L-27.7,-11.5 L-11.5,-27.7 L11.5,-27.7 Z" fill="none" stroke="black" transform="translate(91.4995322344166,137.0914927320043) rotate(288.9085174990757) scale(1.2583371086326063)" /><path d="M27.7,-11.5 L27.7,11.5 L11.5,27.7 L-11.5,27.7 L-27.7,11.5 L-27.7,-11.5 L-11.5,-27.7 L11.5,-27.7 Z" fill="none" stroke="black" transform="translate(91.4995322344166,137.0914927320043) rotate(288.9085174990757) scale(0.8808359760428244)" /><path d="M27.7,-11.5 L27.7,11.5 L11.5,27.7 L-11.5,27.7 L-27.7,11.5 L-27.7,-11.5 L-11.5,-27.7 L11.5,-27.7 Z" fill="none" stroke="black" transform="translate(91.4995322344166,137.0914927320043) rotate(288.9085174990757) scale(0.5033348434530426)" /></g><g><path d="M0.0,-30.0 L8.8,-12.1 L28.5,-9.3 L14.3,4.6 L17.6,24.3 L0.0,15.0 L-17.6,24.3 L-14.3,4.6 L-28.5,-9.3 L-8.8,-12.1 Z" fill="none" stroke="black" transform="translate(74.48091307387968,303.6582834677603) rotate(183.41662262390088) scale(0.9918609354091013)" /><path d="M0.0,-30.0 L8.8,-12.1 L28.5,-9.3 L14.3,4.6 L17.6,24.3 L0.0,15.0 L-17.6,24.3 L-14.3,4.6 L-28.5,-9.3 L-8.8,-12.1 Z" fill="none" stroke="black" transform="translate(74.48091307387968,303.6582834677603) rotate(183.41662262390088) scale(0.6943026547863709)" /><path d="M0.0,-30.0 L8.8,-12.1 L28.5,-9.3 L14.3,4.6 L17.6,24.3 L0.0,15.0 L-17.6,24.3 L-14.3,4.6 L-28.5,-9.3 L-8.8,-12.1 Z" fill="none" stroke="black" transform="translate(74.48091307387968,303.6582834677603) rotate(183.41662262390088) scale(0.3967443741636405)" /></g><path d="M-30,-20 h60 v40 h-60 Z" fill="none" stroke="black" transform="translate(323.1553243117128,74.59618593163287) rotate(315.4623930426759) scale(0.8990640207571476)" /><path d="M30,0 L15,-26 L-15,-26 L-30,0 L-15,26 L15,26 Z" fill="none" stroke="black" transform="translate(182.99662981068465,85.5347548972783) rotate(178.23208160501153) scale(0.9564716957601821)" /><path d="M30,0 L15,-26 L-15,-26 L-30,0 L-15,26 L15,26 Z" fill="none" stroke="black" transform="translate(281.74151358150925,294.8909878007712) rotate(141.31968329828186) scale(0.9852035291453514)" /><path d="M0,0 m-30,0 a30,30 0 1,0 60,0 a30,30 0 1,0 -60,0" fill="none" stroke="black" transform="translate(105.17563417179322,76.9131439653947) rotate(179.7562759408739) scale(0.8408706419783379)" /><path d="M0,0 m-30,0 a30,30 0 1,0 60,0 a30,30 0 1,0 -60,0" fill="none" stroke="black" transform="translate(333.84608968588253,233.2075641721878) rotate(38.278915627075484) scale(0.836471904373798)" /></svg>