<svg baseProfile="full" height="400" version="1.1" width="400" xmlns="http://www.w3.org/2000/svg" xmlns:ev="http://www.w3.org/2001/xml-events" xmlns:xlink="http://www.w3.org/1999/xlink"><defs /><rect fill="white" height="100%" width="100%" x="0" y="0" /><path d="M30,0 L15,-26 L-15,-26 L-30,0 L-15,26 L15,26 Z" fill="none" stroke="black" transform="translate(219.88489107380724,191.21454383418305) rotate(149.19023413434226) scale(1.34616778188368)" /><path d="M30,0 L15,-26 L-15,-26 L-30,0 L-15,26 L15,26 Z" fill="none" stroke="black" transform="translate(123.35853158660349,232.95874401489567) rotate(219.59813117237994) scale(1.3637256226659356)" /><path d="M30,0 L15,-26 L-15,-26 L-30,0 L-15,26 L15,26 Z" fill="none" stroke="black" transform="translate(251.73193024237418,285.4288819574076) rotate(167.28368317747876) scale(1.0879618475019948)" /><g><path d="M30,0 L15,-26 L-15,-26 L-30,0 L-15,26 L15,26 Z" fill="none" stroke="black" transform="translate(311.326085887272,113.14073732527055) rotate(238.30266899552132) scale(0.8956867464804951)" /><path d="M30,0 L15,-26 L-15,-26 L-30,0 L-15,26 L15,26 Z" fill="none" stroke="black" transform="translate(311.326085887272,113.14073732527055) rotate(238.30266899552132) scale(0.6269807225363465)" /></g><g><path d="M0,-30 L30,30 L-30,30 Z" fill="none" stroke="black" transform="translate(158.82708264106682,98.54137672070766) rotate(118.39018758722852) scale(0.8063812828889649)" /><path d="M0,-30 L30,30 L-30,30 Z" fill="none" stroke="black" transform="translate(158.82708264106682,98.54137672070766) rotate(118.39018758722852) scale(0.5644668980222755)" /><path d="M0,-30 L30,30 L-30,30 Z" fill="none" stroke="black" transform="translate(158.82708264106682,98.54137672070766) rotate(118.39018758722852) scale(0.322552513155586)" /></g><g><path d="M0,-30 L30,30 L-30,30 Z" fill="none" stroke="black" transform="translate(71.58728551528209,160.53861168371387) rotate(319.33573767351027) scale(0.9038631192837749)" /><path d="M0,-30 L30,30 L-30,30 Z" fill="none" stroke="black" transform="translate(71.58728551528209,160.53861168371387) rotate(319.33573767351027) scale(0.6327041834986424)" /></g><path d="M0,-30 L30,30 L-30,30 Z" fill="none" stroke="black" transform="translate(322.33862145732763,209.78901663942702) rotate(349.8881346827208) scale(0.8051567663704216)" /><path d="M0,-30 L30,30 L-30,30 Z" fill="none" stroke="black" transform="translate(102.99279166845207,61.10293565454451) rotate(22.506530084249093) scale(0.8101316670013206)" /><g><path d="M0,-30 L30,30 L-30,30 Z" fill="none" stroke="black" transform="translate(125.42421267629217,334.37788745820353) rotate(183.87473946377156) scale(0.8618677649400718)" /><path d="M0,-30 L30,30 L-30,30 Z" fill="none" stroke="black" transform="translate(125.42421267629217,334.37788745820353) rotate(183.87473946377156) scale(0.6033074354580502)" /></g><g><path d="M-30,-20 h60 v40 h-60 Z" fill="none" stroke="black" transform="translate(323.1742996770011,331.57218456941087) rotate(310.40698725837933) scale(0.8755395471705092)" /><path d="M-30,-20 h60 v40 h-60 Z" fill="none" stroke="black" transform="translate(323.1742996770011,331.57218456941087) rotate(310.40698725837933) scale(0.6128776830193564)" /></g><g><path d="M27.7,-11.5 L27.7,11.5 L11.5,27.7 L-11.5,27.7 L-27.7,11.5 L-27.7,-11.5 L-11.5,-27.7 L11.5,-27.7 Z" fill="none" stroke="black" transform="translate(244.58179419787572,75.87039475248369) rotate(68.79669408478455) scale(0.8371139293011526)" /><path d="M27.7,-11.5 L27.7,11.5 L11.5,27.7 L-11.5,27.7 L-27.7,11.5 L-27.7,-11.5 L-11.5,-27.7 L11.5,-27.7 Z" fill="none" stroke="black" transform="translate(244.58179419787572,75.87039475248369) rotate(68.79669408478455) scale(0.5859797505108068)" /></g><path d="M0,0 m-30,0 a30,30 0 1,0 60,0 a30,30 0 1,0 -60,0" fill="none" stroke="black" transform="translate(63.50525465935216,295.8676443925615) rotate(37.534738621560926) scale(0.8372309710420665)" /></svg>