<svg baseProfile="full" height="400" version="1.1" width="400" xmlns="http://www.w3.org/2000/svg" xmlns:ev="http://www.w3.org/2001/xml-events" xmlns:xlink="http://www.w3.org/1999/xlink"><defs /><rect fill="white" height="100%" width="100%" x="0" y="0" /><path d="M0,-30 L30,30 L-30,30 Z" fill="none" stroke="black" transform="translate(156.45066945524414,266.20884468371156) rotate(81.64469041558183) scale(1.1375436572388997)" /><path d="M0,-30 L30,30 L-30,30 Z" fill="none" stroke="black" transform="translate(144.11588040447538,161.16828037935952) rotate(114.7722643237067) scale(1.21092214190221)" /><g><path d="M0,-30 L30,30 L-30,30 Z" fill="none" stroke="black" transform="translate(259.2189065582446,306.00989808041504) rotate(246.74426505538275) scale(0.9846612767928415)" /><path d="M0,-30 L30,30 L-30,30 Z" fill="none" stroke="black" transform="translate(259.2189065582446,306.00989808041504) rotate(246.74426505538275) scale(0.6892628937549891)" /><path d="M0,-30 L30,30 L-30,30 Z" fill="none" stroke="black" transform="translate(259.2189065582446,306.00989808041504) rotate(246.74426505538275) scale(0.39386451071713663)" /></g><path d="M0,-30 L30,30 L-30,30 Z" fill="none" stroke="black" transform="translate(233.58651336597276,191.94405948602167) rotate(37.434091043364084) scale(1.8092600358738156)" /><path d="M30,0 L15,-26 L-15,-26 L-30,0 L-15,26 L15,26 Z" fill="none" stroke="black" transform="translate(283.0100054171227,98.88446416094627) rotate(40.330225023784585) scale(1.2431448288896392)" /><g><path d="M30,0 L15,-26 L-15,-26 L-30,0 L-15,26 L15,26 Z" fill="none" stroke="black" transform="translate(219.01356008451438,97.64689171985992) rotate(310.46380859355) scale(1.1291648791345927)" /><path d="M30,0 L15,-26 L-15,-26 L-30,0 L-15,26 L15,26 Z" fill="none" stroke="black" transform="translate(219.01356008451438,97.64689171985992) rotate(310.46380859355) scale(0.7904154153942149)" /></g><g><path d="M30,0 L15,-26 L-15,-26 L-30,0 L-15,26 L15,26 Z" fill="none" stroke="black" transform="translate(213.88631921966027,295.961073612188) rotate(149.33903849658358) scale(1.1041921726698085)" /><path d="M30,0 L15,-26 L-15,-26 L-30,0 L-15,26 L15,26 Z" fill="none" stroke="black" transform="translate(213.88631921966027,295.961073612188) rotate(149.33903849658358) scale(0.7729345208688659)" /><path d="M30,0 L15,-26 L-15,-26 L-30,0 L-15,26 L15,26 Z" fill="none" stroke="black" transform="translate(213.88631921966027,295.961073612188) rotate(149.33903849658358) scale(0.4416768690679234)" /></g><path d="M30,0 L15,-26 L-15,-26 L-30,0 L-15,26 L15,26 Z" fill="none" stroke="black" transform="translate(74.45617445652829,72.05064262535802) rotate(11.168603291883592) scale(0.9505150470488365)" /><path d="M27.7,-11.5 L27.7,11.5 L11.5,27.7 L-11.5,27.7 L-27.7,11.5 L-27.7,-11.5 L-11.5,-27.7 L11.5,-27.7 Z" fill="none" stroke="black" transform="translate(311.20266484764954,156.80216258850226) rotate(190.45972830818388) scale(1.065844849133075)" /><path d="M27.7,-11.5 L27.7,11.5 L11.5,27.7 L-11.5,27.7 L-27.7,11.5 L-27.7,-11.5 L-11.5,-27.7 L11.5,-27.7 Z" fill="none" stroke="black" transform="translate(328.6689029840298,222.64440206696207) rotate(84.16664614830869) scale(0.894757095066284)" /><g><path d="M27.7,-11.5 L27.7,11.5 L11.5,27.7 L-11.5,27.7 L-27.7,11.5 L-27.7,-11.5 L-11.5,-27.7 L11.5,-27.7 Z" fill="none" stroke="black" transform="translate(303.41722758661837,292.08605784682396) rotate(137.93891578691137) scale(0.9428297450860341)" /><path d="M27.7,-11.5 L27.7,11.5 L11.5,27.7 L-11.5,27.7 L-27.7,11.5 L-27.7,-11.5 L-11.5,-27.7 L11.5,-27.7 Z" fill="none" stroke="black" transform="translate(303.41722758661837,292.08605784682396) rotate(137.93891578691137) scale(0.6599808215602239)" /></g><g><path d="M27.7,-11.5 L27.7,11.5 L11.5,27.7 L-11.5,27.7 L-27.7,11.5 L-27.7,-11.5 L-11.5,-27.7 L11.5,-27.7 Z" fill="none" stroke="black" transform="translate(65.79387755652483,136.32610650576717) rotate(177.0922254833021) scale(0.8756322758068474)" /><path d="M27.7,-11.5 L27.7,11.5 L11.5,27.7 L-11.5,27.7 L-27.7,11.5 L-27.7,-11.5 L-11.5,-27.7 L11.5,-27.7 Z" fill="none" stroke="black" transform="translate(65.79387755652483,136.32610650576717) rotate(177.0922254833021) scale(0.6129425930647932)" /></g><path d="M27.7,-11.5 L27.7,11.5 L11.5,27.7 L-11.5,27.7 L-27.7,11.5 L-27.7,-11.5 L-11.5,-27.7 L11.5,-27.7 Z" fill="none" stroke="black" transform="translate(79.03113508938037,256.57244365727126) rotate(274.3268543870743) scale(0.9542540880471501)" /></svg>