<svg baseProfile="full" height="400" version="1.1" width="400" xmlns="http://www.w3.org/2000/svg" xmlns:ev="http://www.w3.org/2001/xml-events" xmlns:xlink="http://www.w3.org/1999/xlink"><defs /><rect fill="white" height="100%" width="100%" x="0" y="0" /><g><path d="M0.0,-30.0 L28.5,-9.3 L17.6,24.3 L-17.6,24.3 L-28.5,-9.3 Z" fill="none" stroke="black" transform="translate(166.7163667764803,195.71322401708613) rotate(251.23815511742558) scale(0.9981945947087604)" /><path d="M0.0,-30.0 L28.5,-9.3 L17.6,24.3 L-17.6,24.3 L-28.5,-9.3 Z" fill="none" stroke="black" transform="translate(166.7163667764803,195.71322401708613) rotate(251.23815511742558) scale(0.6987362162961323)" /><path d="M0.0,-30.0 L28.5,-9.3 L17.6,24.3 L-17.6,24.3 L-28.5,-9.3 Z" fill="none" stroke="black" transform="translate(166.7163667764803,195.71322401708613) rotate(251.23815511742558) scale(0.3992778378835042)" /></g><path d="M0.0,-30.0 L28.5,-9.3 L17.6,24.3 L-17.6,24.3 L-28.5,-9.3 Z" fill="none" stroke="black" transform="translate(194.8371298835081,222.59038322650318) rotate(86.23816272511924) scale(1.0449180708913288)" /><path d="M30,0 L15,-26 L-15,-26 L-30,0 L-15,26 L15,26 Z" fill="none" stroke="black" transform="translate(159.56478107275797,141.8972417291265) rotate(51.22906110266057) scale(1.1290094142264975)" /><path d="M30,0 L15,-26 L-15,-26 L-30,0 L-15,26 L15,26 Z" fill="none" stroke="black" transform="translate(218.91669555898142,121.7886975839757) rotate(148.6722995065979) scale(0.8876193420446502)" /><g><path d="M30,0 L15,-26 L-15,-26 L-30,0 L-15,26 L15,26 Z" fill="none" stroke="black" transform="translate(113.49388699584242,136.42178400353185) rotate(191.72539370550638) scale(1.2285860913028004)" /><path d="M30,0 L15,-26 L-15,-26 L-30,0 L-15,26 L15,26 Z" fill="none" stroke="black" transform="translate(113.49388699584242,136.42178400353185) rotate(191.72539370550638) scale(0.8600102639119602)" /></g><path d="M-30,-20 h60 v40 h-60 Z" fill="none" stroke="black" transform="translate(254.01796360535045,238.2654660399126) rotate(265.44370565452175) scale(1.4495178012671943)" /></svg>