<svg baseProfile="full" height="400" version="1.1" width="400" xmlns="http://www.w3.org/2000/svg" xmlns:ev="http://www.w3.org/2001/xml-events" xmlns:xlink="http://www.w3.org/1999/xlink"><defs /><rect fill="white" height="100%" width="100%" x="0" y="0" /><g><path d="M0,0 m-30,0 a30,30 0 1,0 60,0 a30,30 0 1,0 -60,0" fill="none" stroke="black" transform="translate(276.3998714639749,111.46292354759734) rotate(47.62500175524488) scale(1.3528923278984852)" /><path d="M0,0 m-30,0 a30,30 0 1,0 60,0 a30,30 0 1,0 -60,0" fill="none" stroke="black" transform="translate(276.3998714639749,111.46292354759734) rotate(47.62500175524488) scale(0.9470246295289396)" /></g><path d="M0,0 m-30,0 a30,30 0 1,0 60,0 a30,30 0 1,0 -60,0" fill="none" stroke="black" transform="translate(74.89788800380427,135.45887952713866) rotate(246.1715445255043) scale(0.9456070605241654)" /><path d="M0.0,-30.0 L28.5,-9.3 L17.6,24.3 L-17.6,24.3 L-28.5,-9.3 Z" fill="none" stroke="black" transform="translate(306.20844090645426,255.63192331136406) rotate(75.29772279419362) scale(1.0239078636712367)" /><g><path d="M0.0,-30.0 L28.5,-9.3 L17.6,24.3 L-17.6,24.3 L-28.5,-9.3 Z" fill="none" stroke="black" transform="translate(236.4861171663423,270.20818430938516) rotate(55.697010220122166) scale(1.6356128470550746)" /><path d="M0.0,-30.0 L28.5,-9.3 L17.6,24.3 L-17.6,24.3 L-28.5,-9.3 Z" fill="none" stroke="black" transform="translate(236.4861171663423,270.20818430938516) rotate(55.697010220122166) scale(1.1449289929385522)" /></g><g><path d="M0.0,-30.0 L28.5,-9.3 L17.6,24.3 L-17.6,24.3 L-28.5,-9.3 Z" fill="none" stroke="black" transform="translate(183.26703414774346,165.26948989458043) rotate(304.0842029024831) scale(1.7352488088549898)" /><path d="M0.0,-30.0 L28.5,-9.3 L17.6,24.3 L-17.6,24.3 L-28.5,-9.3 Z" fill="none" stroke="black" transform="translate(183.26703414774346,165.26948989458043) rotate(304.0842029024831) scale(1.2146741661984928)" /><path d="M0.0,-30.0 L28.5,-9.3 L17.6,24.3 L-17.6,24.3 L-28.5,-9.3 Z" fill="none" stroke="black" transform="translate(183.26703414774346,165.26948989458043) rotate(304.0842029024831) scale(0.694099523541996)" /></g><g><path d="M0.0,-30.0 L28.5,-9.3 L17.6,24.3 L-17.6,24.3 L-28.5,-9.3 Z" fill="none" stroke="black" transform="translate(139.93145354977455,248.91935351246462) rotate(176.50672969271895) scale(1.5118484831485994)" /><path d="M0.0,-30.0 L28.5,-9.3 L17.6,24.3 L-17.6,24.3 L-28.5,-9.3 Z" fill="none" stroke="black" transform="translate(139.93145354977455,248.91935351246462) rotate(176.50672969271895) scale(1.0582939382040195)" /><path d="M0.0,-30.0 L28.5,-9.3 L17.6,24.3 L-17.6,24.3 L-28.5,-9.3 Z" fill="none" stroke="black" transform="translate(139.93145354977455,248.91935351246462) rotate(176.50672969271895) scale(0.6047393932594398)" /></g><path d="M30,0 L15,-26 L-15,-26 L-30,0 L-15,26 L15,26 Z" fill="none" stroke="black" transform="translate(119.11113511173285,320.0399489927367) rotate(193.56530730822033) scale(0.8873728869769131)" /><path d="M30,0 L15,-26 L-15,-26 L-30,0 L-15,26 L15,26 Z" fill="none" stroke="black" transform="translate(229.56159651415265,334.26346771490694) rotate(323.69720182893184) scale(0.9119972446939796)" /></svg>