<svg baseProfile="full" height="400" version="1.1" width="400" xmlns="http://www.w3.org/2000/svg" xmlns:ev="http://www.w3.org/2001/xml-events" xmlns:xlink="http://www.w3.org/1999/xlink"><defs /><rect fill="white" height="100%" width="100%" x="0" y="0" /><path d="M0.0,-30.0 L28.5,-9.3 L17.6,24.3 L-17.6,24.3 L-28.5,-9.3 Z" fill="none" stroke="black" transform="translate(247.98633035545632,258.2515176171415) rotate(312.1062653123503) scale(1.7326093732044165)" /><path d="M0.0,-30.0 L28.5,-9.3 L17.6,24.3 L-17.6,24.3 L-28.5,-9.3 Z" fill="none" stroke="black" transform="translate(101.1405769311108,91.92675045436025) rotate(266.7257828084359) scale(1.1557130333781693)" /><g><path d="M0,0 m-30,0 a30,30 0 1,0 60,0 a30,30 0 1,0 -60,0" fill="none" stroke="black" transform="translate(239.4622587404893,107.90346828194983) rotate(45.17723769097366) scale(1.3425962939040068)" /><path d="M0,0 m-30,0 a30,30 0 1,0 60,0 a30,30 0 1,0 -60,0" fill="none" stroke="black" transform="translate(239.4622587404893,107.90346828194983) rotate(45.17723769097366) scale(0.9398174057328047)" /><path d="M0,0 m-30,0 a30,30 0 1,0 60,0 a30,30 0 1,0 -60,0" fill="none" stroke="black" transform="translate(239.4622587404893,107.90346828194983) rotate(45.17723769097366) scale(0.5370385175616027)" /></g><g><path d="M0,0 m-30,0 a30,30 0 1,0 60,0 a30,30 0 1,0 -60,0" fill="none" stroke="black" transform="translate(140.162655565586,150.4188170057991) rotate(159.74375537254403) scale(1.4973311023331068)" /><path d="M0,0 m-30,0 a30,30 0 1,0 60,0 a30,30 0 1,0 -60,0" fill="none" stroke="black" transform="translate(140.162655565586,150.4188170057991) rotate(159.74375537254403) scale(1.0481317716331748)" /><path d="M0,0 m-30,0 a30,30 0 1,0 60,0 a30,30 0 1,0 -60,0" fill="none" stroke="black" transform="translate(140.162655565586,150.4188170057991) rotate(159.74375537254403) scale(0.5989324409332427)" /></g><path d="M30,0 L15,-26 L-15,-26 L-30,0 L-15,26 L15,26 Z" fill="none" stroke="black" transform="translate(316.3906296409447,113.23480765164174) rotate(186.98074885148083) scale(0.9218592673105175)" /><path d="M30,0 L15,-26 L-15,-26 L-30,0 L-15,26 L15,26 Z" fill="none" stroke="black" transform="translate(134.11382080437662,300.36826804460236) rotate(140.29242077446412) scale(1.191921727673444)" /><g><path d="M30,0 L15,-26 L-15,-26 L-30,0 L-15,26 L15,26 Z" fill="none" stroke="black" transform="translate(211.66020843695148,157.49114920795546) rotate(307.90538623141504) scale(1.103922702265859)" /><path d="M30,0 L15,-26 L-15,-26 L-30,0 L-15,26 L15,26 Z" fill="none" stroke="black" transform="translate(211.66020843695148,157.49114920795546) rotate(307.90538623141504) scale(0.7727458915861013)" /></g></svg>