<svg baseProfile="full" height="400" version="1.1" width="400" xmlns="http://www.w3.org/2000/svg" xmlns:ev="http://www.w3.org/2001/xml-events" xmlns:xlink="http://www.w3.org/1999/xlink"><defs /><rect fill="white" height="100%" width="100%" x="0" y="0" /><path d="M30,0 L15,-26 L-15,-26 L-30,0 L-15,26 L15,26 Z" fill="none" stroke="black" transform="translate(225.73478527882816,219.52084186347133) rotate(291.5991080113841) scale(1.2108303843007975)" /><path d="M30,0 L15,-26 L-15,-26 L-30,0 L-15,26 L15,26 Z" fill="none" stroke="black" transform="translate(187.2240166509976,129.53377392141655) rotate(273.7543970185834) scale(0.9961203750539618)" /><path d="M30,0 L15,-26 L-15,-26 L-30,0 L-15,26 L15,26 Z" fill="none" stroke="black" transform="translate(319.4646122344625,80.14300191539365) rotate(326.25019961527806) scale(0.8915229486676247)" /><g><path d="M30,0 L15,-26 L-15,-26 L-30,0 L-15,26 L15,26 Z" fill="none" stroke="black" transform="translate(101.64373792141383,286.3534311252132) rotate(235.7346500864871) scale(1.3060200699504052)" /><path d="M30,0 L15,-26 L-15,-26 L-30,0 L-15,26 L15,26 Z" fill="none" stroke="black" transform="translate(101.64373792141383,286.3534311252132) rotate(235.7346500864871) scale(0.9142140489652836)" /><path d="M30,0 L15,-26 L-15,-26 L-30,0 L-15,26 L15,26 Z" fill="none" stroke="black" transform="translate(101.64373792141383,286.3534311252132) rotate(235.7346500864871) scale(0.5224080279801621)" /></g><g><path d="M30,0 L15,-26 L-15,-26 L-30,0 L-15,26 L15,26 Z" fill="none" stroke="black" transform="translate(324.5151406458789,244.81267740163355) rotate(319.18484509429385) scale(0.9190400003910931)" /><path d="M30,0 L15,-26 L-15,-26 L-30,0 L-15,26 L15,26 Z" fill="none" stroke="black" transform="translate(324.5151406458789,244.81267740163355) rotate(319.18484509429385) scale(0.6433280002737651)" /></g><g><path d="M30,0 L15,-26 L-15,-26 L-30,0 L-15,26 L15,26 Z" fill="none" stroke="black" transform="translate(278.37315955810084,147.5781945749322) rotate(223.2306436088384) scale(0.8561776601443003)" /><path d="M30,0 L15,-26 L-15,-26 L-30,0 L-15,26 L15,26 Z" fill="none" stroke="black" transform="translate(278.37315955810084,147.5781945749322) rotate(223.2306436088384) scale(0.5993243621010101)" /></g><path d="M30,0 L15,-26 L-15,-26 L-30,0 L-15,26 L15,26 Z" fill="none" stroke="black" transform="translate(270.5977731498556,309.89290149655085) rotate(177.17638005619114) scale(1.0002185520194644)" /><path d="M-30,-20 h60 v40 h-60 Z" fill="none" stroke="black" transform="translate(108.05675808435055,99.77408780457654) rotate(284.7444581964105) scale(1.1058984958695246)" /><g><path d="M-30,-20 h60 v40 h-60 Z" fill="none" stroke="black" transform="translate(74.78312579465917,186.06771928615495) rotate(18.94251042540933) scale(0.9661951336772104)" /><path d="M-30,-20 h60 v40 h-60 Z" fill="none" stroke="black" transform="translate(74.78312579465917,186.06771928615495) rotate(18.94251042540933) scale(0.6763365935740473)" /><path d="M-30,-20 h60 v40 h-60 Z" fill="none" stroke="black" transform="translate(74.78312579465917,186.06771928615495) rotate(18.94251042540933) scale(0.3864780534708842)" /></g><path d="M-30,-20 h60 v40 h-60 Z" fill="none" stroke="black" transform="translate(187.00356514262492,336.88196883009385) rotate(13.361912280260494) scale(0.8689901448139705)" /><g><path d="M27.7,-11.5 L27.7,11.5 L11.5,27.7 L-11.5,27.7 L-27.7,11.5 L-27.7,-11.5 L-11.5,-27.7 L11.5,-27.7 Z" fill="none" stroke="black" transform="translate(148.8329997465603,195.18924187894805) rotate(277.01126625684935) scale(0.8975166624121678)" /><path d="M27.7,-11.5 L27.7,11.5 L11.5,27.7 L-11.5,27.7 L-27.7,11.5 L-27.7,-11.5 L-11.5,-27.7 L11.5,-27.7 Z" fill="none" stroke="black" transform="translate(148.8329997465603,195.18924187894805) rotate(277.01126625684935) scale(0.6282616636885174)" /><path d="M27.7,-11.5 L27.7,11.5 L11.5,27.7 L-11.5,27.7 L-27.7,11.5 L-27.7,-11.5 L-11.5,-27.7 L11.5,-27.7 Z" fill="none" stroke="black" transform="translate(148.8329997465603,195.18924187894805) rotate(277.01126625684935) scale(0.3590066649648671)" /></g></svg>