<svg baseProfile="full" height="400" version="1.1" width="400" xmlns="http://www.w3.org/2000/svg" xmlns:ev="http://www.w3.org/2001/xml-events" xmlns:xlink="http://www.w3.org/1999/xlink"><defs /><rect fill="white" height="100%" width="100%" x="0" y="0" /><path d="M0,-30 L30,30 L-30,30 Z" fill="none" stroke="black" transform="translate(77.63213582653931,84.33560443369316) rotate(52.176713687641) scale(0.9157386054027886)" /><g><path d="M0,-30 L30,30 L-30,30 Z" fill="none" stroke="black" transform="translate(214.57093371827278,208.66378171463964) rotate(203.74206859030267) scale(1.9184459207964548)" /><path d="M0,-30 L30,30 L-30,30 Z" fill="none" stroke="black" transform="translate(214.57093371827278,208.66378171463964) rotate(203.74206859030267) scale(1.3429121445575183)" /></g><path d="M30,0 L15,-26 L-15,-26 L-30,0 L-15,26 L15,26 Z" fill="none" stroke="black" transform="translate(325.07541754722,76.64459469873023) rotate(166.6925991876238) scale(0.8372422099346926)" /><path d="M30,0 L15,-26 L-15,-26 L-30,0 L-15,26 L15,26 Z" fill="none" stroke="black" transform="translate(93.51253586118801,182.33061939310463) rotate(311.6824672239134) scale(1.2791680241632213)" /><path d="M30,0 L15,-26 L-15,-26 L-30,0 L-15,26 L15,26 Z" fill="none" stroke="black" transform="translate(166.165129774332,318.2077782605998) rotate(254.7713867523645) scale(0.9513925293488468)" /><path d="M-30,-20 h60 v40 h-60 Z" fill="none" stroke="black" transform="translate(80.79677482238665,281.8338191986199) rotate(172.2616821514171) scale(0.8790623559594338)" /><path d="M0.0,-30.0 L28.5,-9.3 L17.6,24.3 L-17.6,24.3 L-28.5,-9.3 Z" fill="none" stroke="black" transform="translate(150.9901096467598,113.80637308010509) rotate(315.0860728230431) scale(0.8343480353533834)" /><path d="M0,0 m-30,0 a30,30 0 1,0 60,0 a30,30 0 1,0 -60,0" fill="none" stroke="black" transform="translate(336.88437365550504,227.20045468642712) rotate(151.49502787332943) scale(0.8283956216810883)" /><g><path d="M27.7,-11.5 L27.7,11.5 L11.5,27.7 L-11.5,27.7 L-27.7,11.5 L-27.7,-11.5 L-11.5,-27.7 L11.5,-27.7 Z" fill="none" stroke="black" transform="translate(227.0729610731213,80.83592770280508) rotate(232.977830843903) scale(0.9968953061120748)" /><path d="M27.7,-11.5 L27.7,11.5 L11.5,27.7 L-11.5,27.7 L-27.7,11.5 L-27.7,-11.5 L-11.5,-27.7 L11.5,-27.7 Z" fill="none" stroke="black" transform="translate(227.0729610731213,80.83592770280508) rotate(232.977830843903) scale(0.6978267142784523)" /></g><g><path d="M0.0,-30.0 L8.8,-12.1 L28.5,-9.3 L14.3,4.6 L17.6,24.3 L0.0,15.0 L-17.6,24.3 L-14.3,4.6 L-28.5,-9.3 L-8.8,-12.1 Z" fill="none" stroke="black" transform="translate(298.25939992161517,315.75297401158434) rotate(216.6645116703605) scale(0.9863733459115637)" /><path d="M0.0,-30.0 L8.8,-12.1 L28.5,-9.3 L14.3,4.6 L17.6,24.3 L0.0,15.0 L-17.6,24.3 L-14.3,4.6 L-28.5,-9.3 L-8.8,-12.1 Z" fill="none" stroke="black" transform="translate(298.25939992161517,315.75297401158434) rotate(216.6645116703605) scale(0.6904613421380945)" /></g></svg>