<svg baseProfile="full" height="400" version="1.1" width="400" xmlns="http://www.w3.org/2000/svg" xmlns:ev="http://www.w3.org/2001/xml-events" xmlns:xlink="http://www.w3.org/1999/xlink"><defs /><rect fill="white" height="100%" width="100%" x="0" y="0" /><g><path d="M27.7,-11.5 L27.7,11.5 L11.5,27.7 L-11.5,27.7 L-27.7,11.5 L-27.7,-11.5 L-11.5,-27.7 L11.5,-27.7 Z" fill="none" stroke="black" transform="translate(321.71549671466005,115.5395495824188) rotate(115.16143773572772) scale(0.8301447778902442)" /><path d="M27.7,-11.5 L27.7,11.5 L11.5,27.7 L-11.5,27.7 L-27.7,11.5 L-27.7,-11.5 L-11.5,-27.7 L11.5,-27.7 Z" fill="none" stroke="black" transform="translate(321.71549671466005,115.5395495824188) rotate(115.16143773572772) scale(0.5811013445231709)" /></g><g><path d="M0,-30 L30,30 L-30,30 Z" fill="none" stroke="black" transform="translate(139.7794682380762,84.14422760210027) rotate(298.7840636922263) scale(0.8877467016365923)" /><path d="M0,-30 L30,30 L-30,30 Z" fill="none" stroke="black" transform="translate(139.7794682380762,84.14422760210027) rotate(298.7840636922263) scale(0.6214226911456145)" /></g><path d="M0,-30 L30,30 L-30,30 Z" fill="none" stroke="black" transform="translate(226.63920783968013,192.25187026338926) rotate(289.6190343960373) scale(1.8591244188404334)" /><g><path d="M0,-30 L30,30 L-30,30 Z" fill="none" stroke="black" transform="translate(91.9386337131507,286.635097924131) rotate(199.72412163267808) scale(1.234541729218203)" /><path d="M0,-30 L30,30 L-30,30 Z" fill="none" stroke="black" transform="translate(91.9386337131507,286.635097924131) rotate(199.72412163267808) scale(0.864179210452742)" /></g><g><path d="M0,0 m-30,0 a30,30 0 1,0 60,0 a30,30 0 1,0 -60,0" fill="none" stroke="black" transform="translate(132.21144642016023,242.55593987479853) rotate(286.1649461273801) scale(1.7070188100035302)" /><path d="M0,0 m-30,0 a30,30 0 1,0 60,0 a30,30 0 1,0 -60,0" fill="none" stroke="black" transform="translate(132.21144642016023,242.55593987479853) rotate(286.1649461273801) scale(1.194913167002471)" /></g><path d="M0,0 m-30,0 a30,30 0 1,0 60,0 a30,30 0 1,0 -60,0" fill="none" stroke="black" transform="translate(296.27526991868973,304.9774745624931) rotate(357.90142531632046) scale(1.0473603999822025)" /><path d="M0,0 m-30,0 a30,30 0 1,0 60,0 a30,30 0 1,0 -60,0" fill="none" stroke="black" transform="translate(176.0563692501232,280.41067171881144) rotate(44.695933253409436) scale(0.8911610686095963)" /><path d="M30,0 L15,-26 L-15,-26 L-30,0 L-15,26 L15,26 Z" fill="none" stroke="black" transform="translate(327.4835735623212,249.528192203247) rotate(226.87889566858757) scale(0.975673874749026)" /><path d="M30,0 L15,-26 L-15,-26 L-30,0 L-15,26 L15,26 Z" fill="none" stroke="black" transform="translate(237.49806842797926,258.53348833792717) rotate(239.77787435270315) scale(1.0018369528783593)" /><path d="M30,0 L15,-26 L-15,-26 L-30,0 L-15,26 L15,26 Z" fill="none" stroke="black" transform="translate(217.18265526686102,314.33949048297177) rotate(354.1894405658149) scale(1.101164315349439)" /><g><path d="M-30,-20 h60 v40 h-60 Z" fill="none" stroke="black" transform="translate(307.93447483051204,233.71455027292978) rotate(227.46490609635046) scale(1.1650817536503026)" /><path d="M-30,-20 h60 v40 h-60 Z" fill="none" stroke="black" transform="translate(307.93447483051204,233.71455027292978) rotate(227.46490609635046) scale(0.8155572275552118)" /><path d="M-30,-20 h60 v40 h-60 Z" fill="none" stroke="black" transform="translate(307.93447483051204,233.71455027292978) rotate(227.46490609635046) scale(0.4660327014601211)" /></g><path d="M0.0,-30.0 L8.8,-12.1 L28.5,-9.3 L14.3,4.6 L17.6,24.3 L0.0,15.0 L-17.6,24.3 L-14.3,4.6 L-28.5,-9.3 L-8.8,-12.1 Z" fill="none" stroke="black" transform="translate(135.62357592566642,156.2353530482194) rotate(29.399001796659615) scale(1.7715191314093193)" /><path d="M0.0,-30.0 L28.5,-9.3 L17.6,24.3 L-17.6,24.3 L-28.5,-9.3 Z" fill="none" stroke="black" transform="translate(237.57035585221695,126.34730258850183) rotate(87.48601196700646) scale(1.1495310299837738)" /><g><path d="M0.0,-30.0 L28.5,-9.3 L17.6,24.3 L-17.6,24.3 L-28.5,-9.3 Z" fill="none" stroke="black" transform="translate(175.7554972297919,77.94686253490303) rotate(250.55301754194912) scale(0.8320792234075812)" /><path d="M0.0,-30.0 L28.5,-9.3 L17.6,24.3 L-17.6,24.3 L-28.5,-9.3 Z" fill="none" stroke="black" transform="translate(175.7554972297919,77.94686253490303) rotate(250.55301754194912) scale(0.5824554563853068)" /></g></svg>