<svg baseProfile="full" height="400" version="1.1" width="400" xmlns="http://www.w3.org/2000/svg" xmlns:ev="http://www.w3.org/2001/xml-events" xmlns:xlink="http://www.w3.org/1999/xlink"><defs /><rect fill="white" height="100%" width="100%" x="0" y="0" /><path d="M30,0 L15,-26 L-15,-26 L-30,0 L-15,26 L15,26 Z" fill="none" stroke="black" transform="translate(193.6100259272651,93.1059324871799) rotate(22.009476888859183) scale(1.270974929139944)" /><g><path d="M30,0 L15,-26 L-15,-26 L-30,0 L-15,26 L15,26 Z" fill="none" stroke="black" transform="translate(267.8279706791241,260.03341804583994) rotate(79.52464443995127) scale(1.3618513792756395)" /><path d="M30,0 L15,-26 L-15,-26 L-30,0 L-15,26 L15,26 Z" fill="none" stroke="black" transform="translate(267.8279706791241,260.03341804583994) rotate(79.52464443995127) scale(0.9532959654929476)" /></g><path d="M30,0 L15,-26 L-15,-26 L-30,0 L-15,26 L15,26 Z" fill="none" stroke="black" transform="translate(305.178763937662,180.8456337978343) rotate(104.01847343125431) scale(0.914881699977399)" /><g><path d="M30,0 L15,-26 L-15,-26 L-30,0 L-15,26 L15,26 Z" fill="none" stroke="black" transform="translate(197.1419962282638,198.92237163871192) rotate(209.76348885515606) scale(1.7812407930791765)" /><path d="M30,0 L15,-26 L-15,-26 L-30,0 L-15,26 L15,26 Z" fill="none" stroke="black" transform="translate(197.1419962282638,198.92237163871192) rotate(209.76348885515606) scale(1.2468685551554235)" /></g><g><path d="M30,0 L15,-26 L-15,-26 L-30,0 L-15,26 L15,26 Z" fill="none" stroke="black" transform="translate(145.0828509385854,144.4767635310753) rotate(221.34844436135035) scale(0.9968310578038503)" /><path d="M30,0 L15,-26 L-15,-26 L-30,0 L-15,26 L15,26 Z" fill="none" stroke="black" transform="translate(145.0828509385854,144.4767635310753) rotate(221.34844436135035) scale(0.6977817404626951)" /><path d="M30,0 L15,-26 L-15,-26 L-30,0 L-15,26 L15,26 Z" fill="none" stroke="black" transform="translate(145.0828509385854,144.4767635310753) rotate(221.34844436135035) scale(0.3987324231215401)" /></g><path d="M30,0 L15,-26 L-15,-26 L-30,0 L-15,26 L15,26 Z" fill="none" stroke="black" transform="translate(137.48349855201786,318.71299090879853) rotate(279.81587144310527) scale(1.115201861806905)" /><g><path d="M30,0 L15,-26 L-15,-26 L-30,0 L-15,26 L15,26 Z" fill="none" stroke="black" transform="translate(322.0099145366978,109.73834394001115) rotate(354.1141739469462) scale(0.9602600980438738)" /><path d="M30,0 L15,-26 L-15,-26 L-30,0 L-15,26 L15,26 Z" fill="none" stroke="black" transform="translate(322.0099145366978,109.73834394001115) rotate(354.1141739469462) scale(0.6721820686307116)" /></g><path d="M0.0,-30.0 L8.8,-12.1 L28.5,-9.3 L14.3,4.6 L17.6,24.3 L0.0,15.0 L-17.6,24.3 L-14.3,4.6 L-28.5,-9.3 L-8.8,-12.1 Z" fill="none" stroke="black" transform="translate(117.84129070838136,229.33461329368015) rotate(229.07776510610944) scale(1.3597322511088312)" /><path d="M0.0,-30.0 L8.8,-12.1 L28.5,-9.3 L14.3,4.6 L17.6,24.3 L0.0,15.0 L-17.6,24.3 L-14.3,4.6 L-28.5,-9.3 L-8.8,-12.1 Z" fill="none" stroke="black" transform="translate(71.53053162513926,242.45488982289191) rotate(256.215936742692) scale(0.9655582390305986)" /><path d="M0.0,-30.0 L8.8,-12.1 L28.5,-9.3 L14.3,4.6 L17.6,24.3 L0.0,15.0 L-17.6,24.3 L-14.3,4.6 L-28.5,-9.3 L-8.8,-12.1 Z" fill="none" stroke="black" transform="translate(220.82553095091106,291.18100043688503) rotate(144.6259896947626) scale(0.8873358849730055)" /><g><path d="M0.0,-30.0 L8.8,-12.1 L28.5,-9.3 L14.3,4.6 L17.6,24.3 L0.0,15.0 L-17.6,24.3 L-14.3,4.6 L-28.5,-9.3 L-8.8,-12.1 Z" fill="none" stroke="black" transform="translate(321.5411778965501,283.189774595145) rotate(355.86178450508095) scale(0.9329422689548988)" /><path d="M0.0,-30.0 L8.8,-12.1 L28.5,-9.3 L14.3,4.6 L17.6,24.3 L0.0,15.0 L-17.6,24.3 L-14.3,4.6 L-28.5,-9.3 L-8.8,-12.1 Z" fill="none" stroke="black" transform="translate(321.5411778965501,283.189774595145) rotate(355.86178450508095) scale(0.6530595882684291)" /><path d="M0.0,-30.0 L8.8,-12.1 L28.5,-9.3 L14.3,4.6 L17.6,24.3 L0.0,15.0 L-17.6,24.3 L-14.3,4.6 L-28.5,-9.3 L-8.8,-12.1 Z" fill="none" stroke="black" transform="translate(321.5411778965501,283.189774595145) rotate(355.86178450508095) scale(0.37317690758195954)" /></g><path d="M0.0,-30.0 L8.8,-12.1 L28.5,-9.3 L14.3,4.6 L17.6,24.3 L0.0,15.0 L-17.6,24.3 L-14.3,4.6 L-28.5,-9.3 L-8.8,-12.1 Z" fill="none" stroke="black" transform="translate(293.8769982874602,145.96956497065557) rotate(15.744917752595784) scale(1.3778531248849117)" /><g><path d="M0.0,-30.0 L8.8,-12.1 L28.5,-9.3 L14.3,4.6 L17.6,24.3 L0.0,15.0 L-17.6,24.3 L-14.3,4.6 L-28.5,-9.3 L-8.8,-12.1 Z" fill="none" stroke="black" transform="translate(306.18761629515086,247.2564670535975) rotate(255.86306619860278) scale(1.0910705494827242)" /><path d="M0.0,-30.0 L8.8,-12.1 L28.5,-9.3 L14.3,4.6 L17.6,24.3 L0.0,15.0 L-17.6,24.3 L-14.3,4.6 L-28.5,-9.3 L-8.8,-12.1 Z" fill="none" stroke="black" transform="translate(306.18761629515086,247.2564670535975) rotate(255.86306619860278) scale(0.7637493846379069)" /></g><path d="M27.7,-11.5 L27.7,11.5 L11.5,27.7 L-11.5,27.7 L-27.7,11.5 L-27.7,-11.5 L-11.5,-27.7 L11.5,-27.7 Z" fill="none" stroke="black" transform="translate(260.46272470055857,107.19792763191398) rotate(281.7044125712804) scale(0.976126148449714)" /><g><path d="M27.7,-11.5 L27.7,11.5 L11.5,27.7 L-11.5,27.7 L-27.7,11.5 L-27.7,-11.5 L-11.5,-27.7 L11.5,-27.7 Z" fill="none" stroke="black" transform="translate(283.15472256107967,197.74908255634338) rotate(320.09632781731966) scale(0.8987577370484835)" /><path d="M27.7,-11.5 L27.7,11.5 L11.5,27.7 L-11.5,27.7 L-27.7,11.5 L-27.7,-11.5 L-11.5,-27.7 L11.5,-27.7 Z" fill="none" stroke="black" transform="translate(283.15472256107967,197.74908255634338) rotate(320.09632781731966) scale(0.6291304159339384)" /></g><path d="M27.7,-11.5 L27.7,11.5 L11.5,27.7 L-11.5,27.7 L-27.7,11.5 L-27.7,-11.5 L-11.5,-27.7 L11.5,-27.7 Z" fill="none" stroke="black" transform="translate(93.08901906009913,178.4303369060449) rotate(149.7913269738634) scale(1.1250343143255832)" /><g><path d="M27.7,-11.5 L27.7,11.5 L11.5,27.7 L-11.5,27.7 L-27.7,11.5 L-27.7,-11.5 L-11.5,-27.7 L11.5,-27.7 Z" fill="none" stroke="black" transform="translate(177.1439045454479,262.67837183959756) rotate(107.53836436082914) scale(1.343590765634897)" /><path d="M27.7,-11.5 L27.7,11.5 L11.5,27.7 L-11.5,27.7 L-27.7,11.5 L-27.7,-11.5 L-11.5,-27.7 L11.5,-27.7 Z" fill="none" stroke="black" transform="translate(177.1439045454479,262.67837183959756) rotate(107.53836436082914) scale(0.9405135359444279)" /><path d="M27.7,-11.5 L27.7,11.5 L11.5,27.7 L-11.5,27.7 L-27.7,11.5 L-27.7,-11.5 L-11.5,-27.7 L11.5,-27.7 Z" fill="none" stroke="black" transform="translate(177.1439045454479,262.67837183959756) rotate(107.53836436082914) scale(0.5374363062539589)" /></g><path d="M27.7,-11.5 L27.7,11.5 L11.5,27.7 L-11.5,27.7 L-27.7,11.5 L-27.7,-11.5 L-11.5,-27.7 L11.5,-27.7 Z" fill="none" stroke="black" transform="translate(107.56436581365244,117.55059920598916) rotate(358.35072731674575) scale(1.1953438246503478)" /><g><path d="M27.7,-11.5 L27.7,11.5 L11.5,27.7 L-11.5,27.7 L-27.7,11.5 L-27.7,-11.5 L-11.5,-27.7 L11.5,-27.7 Z" fill="none" stroke="black" transform="translate(114.96724653929653,280.640757446998) rotate(309.95193950026686) scale(0.8485362121845361)" /><path d="M27.7,-11.5 L27.7,11.5 L11.5,27.7 L-11.5,27.7 L-27.7,11.5 L-27.7,-11.5 L-11.5,-27.7 L11.5,-27.7 Z" fill="none" stroke="black" transform="translate(114.96724653929653,280.640757446998) rotate(309.95193950026686) scale(0.5939753485291752)" /></g><g><path d="M27.7,-11.5 L27.7,11.5 L11.5,27.7 L-11.5,27.7 L-27.7,11.5 L-27.7,-11.5 L-11.5,-27.7 L11.5,-27.7 Z" fill="none" stroke="black" transform="translate(187.3552177818314,323.36273221494565) rotate(212.83693880326868) scale(0.8243809785181819)" /><path d="M27.7,-11.5 L27.7,11.5 L11.5,27.7 L-11.5,27.7 L-27.7,11.5 L-27.7,-11.5 L-11.5,-27.7 L11.5,-27.7 Z" fill="none" stroke="black" transform="translate(187.3552177818314,323.36273221494565) rotate(212.83693880326868) scale(0.5770666849627273)" /><path d="M27.7,-11.5 L27.7,11.5 L11.5,27.7 L-11.5,27.7 L-27.7,11.5 L-27.7,-11.5 L-11.5,-27.7 L11.5,-27.7 Z" fill="none" stroke="black" transform="translate(187.3552177818314,323.36273221494565) rotate(212.83693880326868) scale(0.3297523914072728)" /></g><path d="M27.7,-11.5 L27.7,11.5 L11.5,27.7 L-11.5,27.7 L-27.7,11.5 L-27.7,-11.5 L-11.5,-27.7 L11.5,-27.7 Z" fill="none" stroke="black" transform="translate(222.7440588279843,65.03343012012937) rotate(293.2467084423739) scale(0.9009919355749246)" /><g><path d="M0.0,-30.0 L28.5,-9.3 L17.6,24.3 L-17.6,24.3 L-28.5,-9.3 Z" fill="none" stroke="black" transform="translate(221.016922820981,155.96117552035977) rotate(10.854552500689284) scale(0.8997673643359404)" /><path d="M0.0,-30.0 L28.5,-9.3 L17.6,24.3 L-17.6,24.3 L-28.5,-9.3 Z" fill="none" stroke="black" transform="translate(221.016922820981,155.96117552035977) rotate(10.854552500689284) scale(0.6298371550351582)" /></g><g><path d="M0.0,-30.0 L28.5,-9.3 L17.6,24.3 L-17.6,24.3 L-28.5,-9.3 Z" fill="none" stroke="black" transform="translate(186.83275132505162,135.84539115343824) rotate(115.62641667532577) scale(1.1256338370484784)" /><path d="M0.0,-30.0 L28.5,-9.3 L17.6,24.3 L-17.6,24.3 L-28.5,-9.3 Z" fill="none" stroke="black" transform="translate(186.83275132505162,135.84539115343824) rotate(115.62641667532577) scale(0.7879436859339348)" /></g><path d="M0.0,-30.0 L28.5,-9.3 L17.6,24.3 L-17.6,24.3 L-28.5,-9.3 Z" fill="none" stroke="black" transform="translate(281.82451261800213,308.59415628516314) rotate(266.4677874841933) scale(0.9138556165696741)" /><g><path d="M0.0,-30.0 L28.5,-9.3 L17.6,24.3 L-17.6,24.3 L-28.5,-9.3 Z" fill="none" stroke="black" transform="translate(101.51002775382753,297.68859015732323) rotate(130.41729236793057) scale(1.1234407677012404)" /><path d="M0.0,-30.0 L28.5,-9.3 L17.6,24.3 L-17.6,24.3 L-28.5,-9.3 Z" fill="none" stroke="black" transform="translate(101.51002775382753,297.68859015732323) rotate(130.41729236793057) scale(0.7864085373908682)" /></g><g><path d="M0.0,-30.0 L28.5,-9.3 L17.6,24.3 L-17.6,24.3 L-28.5,-9.3 Z" fill="none" stroke="black" transform="translate(85.81989166580472,212.4529568135508) rotate(307.03964128021664) scale(0.8767972836012234)" /><path d="M0.0,-30.0 L28.5,-9.3 L17.6,24.3 L-17.6,24.3 L-28.5,-9.3 Z" fill="none" stroke="black" transform="translate(85.81989166580472,212.4529568135508) rotate(307.03964128021664) scale(0.6137580985208564)" /><path d="M0.0,-30.0 L28.5,-9.3 L17.6,24.3 L-17.6,24.3 L-28.5,-9.3 Z" fill="none" stroke="black" transform="translate(85.81989166580472,212.4529568135508) rotate(307.03964128021664) scale(0.3507189134404894)" /></g><g><path d="M0.0,-30.0 L28.5,-9.3 L17.6,24.3 L-17.6,24.3 L-28.5,-9.3 Z" fill="none" stroke="black" transform="translate(331.0243508089761,327.0665220338508) rotate(76.6264068214779) scale(0.9549898215041202)" /><path d="M0.0,-30.0 L28.5,-9.3 L17.6,24.3 L-17.6,24.3 L-28.5,-9.3 Z" fill="none" stroke="black" transform="translate(331.0243508089761,327.0665220338508) rotate(76.6264068214779) scale(0.668492875052884)" /><path d="M0.0,-30.0 L28.5,-9.3 L17.6,24.3 L-17.6,24.3 L-28.5,-9.3 Z" fill="none" stroke="black" transform="translate(331.0243508089761,327.0665220338508) rotate(76.6264068214779) scale(0.3819959286016481)" /></g><g><path d="M0.0,-30.0 L28.5,-9.3 L17.6,24.3 L-17.6,24.3 L-28.5,-9.3 Z" fill="none" stroke="black" transform="translate(86.53255603071717,88.65068084818861) rotate(170.71051147630004) scale(1.016533497597683)" /><path d="M0.0,-30.0 L28.5,-9.3 L17.6,24.3 L-17.6,24.3 L-28.5,-9.3 Z" fill="none" stroke="black" transform="translate(86.53255603071717,88.65068084818861) rotate(170.71051147630004) scale(0.711573448318378)" /></g><g><path d="M0.0,-30.0 L28.5,-9.3 L17.6,24.3 L-17.6,24.3 L-28.5,-9.3 Z" fill="none" stroke="black" transform="translate(262.20188292683656,188.81661049505882) rotate(164.38271138121215) scale(0.809187019986922)" /><path d="M0.0,-30.0 L28.5,-9.3 L17.6,24.3 L-17.6,24.3 L-28.5,-9.3 Z" fill="none" stroke="black" transform="translate(262.20188292683656,188.81661049505882) rotate(164.38271138121215) scale(0.5664309139908453)" /></g><g><path d="M0,-30 L30,30 L-30,30 Z" fill="none" stroke="black" transform="translate(281.0059513568708,109.69297305411676) rotate(11.656528542094954) scale(0.8420955350688311)" /><path d="M0,-30 L30,30 L-30,30 Z" fill="none" stroke="black" transform="translate(281.0059513568708,109.69297305411676) rotate(11.656528542094954) scale(0.5894668745481817)" /></g><path d="M0,-30 L30,30 L-30,30 Z" fill="none" stroke="black" transform="translate(164.7143828514653,68.54935518670707) rotate(19.621090963289266) scale(0.887935123077387)" /><path d="M0,-30 L30,30 L-30,30 Z" fill="none" stroke="black" transform="translate(153.6165928832337,100.10147020146857) rotate(267.5706831781207) scale(0.915352641751556)" /><path d="M0,-30 L30,30 L-30,30 Z" fill="none" stroke="black" transform="translate(265.989127595165,71.5964099701248) rotate(219.5672811722907) scale(0.9433751029648272)" /><path d="M0,-30 L30,30 L-30,30 Z" fill="none" stroke="black" transform="translate(130.24350904111031,77.90458536627379) rotate(155.53472496978424) scale(0.9061735361243582)" /><g><path d="M0,-30 L30,30 L-30,30 Z" fill="none" stroke="black" transform="translate(256.45798756195165,131.2385977112524) rotate(195.33151486770524) scale(0.9076607773158385)" /><path d="M0,-30 L30,30 L-30,30 Z" fill="none" stroke="black" transform="translate(256.45798756195165,131.2385977112524) rotate(195.33151486770524) scale(0.635362544121087)" /><path d="M0,-30 L30,30 L-30,30 Z" fill="none" stroke="black" transform="translate(256.45798756195165,131.2385977112524) rotate(195.33151486770524) scale(0.3630643109263354)" /></g><g><path d="M0,-30 L30,30 L-30,30 Z" fill="none" stroke="black" transform="translate(208.81431048345004,309.924933111472) rotate(327.09588426497817) scale(0.9584784649604828)" /><path d="M0,-30 L30,30 L-30,30 Z" fill="none" stroke="black" transform="translate(208.81431048345004,309.924933111472) rotate(327.09588426497817) scale(0.6709349254723379)" /></g><g><path d="M0,-30 L30,30 L-30,30 Z" fill="none" stroke="black" transform="translate(303.53519685023514,290.13906976720784) rotate(84.29668032171041) scale(0.8364598305703507)" /><path d="M0,-30 L30,30 L-30,30 Z" fill="none" stroke="black" transform="translate(303.53519685023514,290.13906976720784) rotate(84.29668032171041) scale(0.5855218813992454)" /><path d="M0,-30 L30,30 L-30,30 Z" fill="none" stroke="black" transform="translate(303.53519685023514,290.13906976720784) rotate(84.29668032171041) scale(0.3345839322281403)" /></g><g><path d="M0,-30 L30,30 L-30,30 Z" fill="none" stroke="black" transform="translate(314.7629318017076,207.076485707983) rotate(300.36404265379053) scale(0.8896568193239491)" /><path d="M0,-30 L30,30 L-30,30 Z" fill="none" stroke="black" transform="translate(314.7629318017076,207.076485707983) rotate(300.36404265379053) scale(0.6227597735267644)" /><path d="M0,-30 L30,30 L-30,30 Z" fill="none" stroke="black" transform="translate(314.7629318017076,207.076485707983) rotate(300.36404265379053) scale(0.35586272772957966)" /></g><g><path d="M0,0 m-30,0 a30,30 0 1,0 60,0 a30,30 0 1,0 -60,0" fill="none" stroke="black" transform="translate(328.6729247512843,82.83054769272734) rotate(70.45873984252404) scale(0.9435589472813475)" /><path d="M0,0 m-30,0 a30,30 0 1,0 60,0 a30,30 0 1,0 -60,0" fill="none" stroke="black" transform="translate(328.6729247512843,82.83054769272734) rotate(70.45873984252404) scale(0.6604912630969432)" /><path d="M0,0 m-30,0 a30,30 0 1,0 60,0 a30,30 0 1,0 -60,0" fill="none" stroke="black" transform="translate(328.6729247512843,82.83054769272734) rotate(70.45873984252404) scale(0.377423578912539)" /></g><path d="M0,0 m-30,0 a30,30 0 1,0 60,0 a30,30 0 1,0 -60,0" fill="none" stroke="black" transform="translate(255.575007964508,332.3168364997034) rotate(319.7614776531886) scale(0.8316739921934142)" /><g><path d="M0,0 m-30,0 a30,30 0 1,0 60,0 a30,30 0 1,0 -60,0" fill="none" stroke="black" transform="translate(256.1170783048991,151.6619446863414) rotate(203.31012706386792) scale(0.8592581993225107)" /><path d="M0,0 m-30,0 a30,30 0 1,0 60,0 a30,30 0 1,0 -60,0" fill="none" stroke="black" transform="translate(256.1170783048991,151.6619446863414) rotate(203.31012706386792) scale(0.6014807395257574)" /><path d="M0,0 m-30,0 a30,30 0 1,0 60,0 a30,30 0 1,0 -60,0" fill="none" stroke="black" transform="translate(256.1170783048991,151.6619446863414) rotate(203.31012706386792) scale(0.3437032797290043)" /></g><path d="M0,0 m-30,0 a30,30 0 1,0 60,0 a30,30 0 1,0 -60,0" fill="none" stroke="black" transform="translate(219.06324819193276,118.35916111159786) rotate(11.910434493917492) scale(0.8868387122903454)" /><path d="M0,0 m-30,0 a30,30 0 1,0 60,0 a30,30 0 1,0 -60,0" fill="none" stroke="black" transform="translate(308.3290448612129,314.18740246844374) rotate(170.9069669581575) scale(0.8572422047932762)" /><path d="M0,0 m-30,0 a30,30 0 1,0 60,0 a30,30 0 1,0 -60,0" fill="none" stroke="black" transform="translate(297.91998615656144,111.5602800851116) rotate(104.16660358576372) scale(0.9030496980977477)" /><path d="M-30,-20 h60 v40 h-60 Z" fill="none" stroke="black" transform="translate(69.39774451017409,323.4957689071544) rotate(190.49113563130845) scale(0.8201586052307885)" /><g><path d="M-30,-20 h60 v40 h-60 Z" fill="none" stroke="black" transform="translate(146.56944402936494,173.94456948967) rotate(133.59189842735668) scale(0.8997284239935621)" /><path d="M-30,-20 h60 v40 h-60 Z" fill="none" stroke="black" transform="translate(146.56944402936494,173.94456948967) rotate(133.59189842735668) scale(0.6298098967954935)" /></g><path d="M-30,-20 h60 v40 h-60 Z" fill="none" stroke="black" transform="translate(137.27589866991678,106.50713045021334) rotate(176.2362912428521) scale(0.9311661512491852)" /><path d="M-30,-20 h60 v40 h-60 Z" fill="none" stroke="black" transform="translate(239.72451638157233,167.38359307746066) rotate(95.8565119573726) scale(0.8395258910353908)" /></svg>