<svg baseProfile="full" height="400" version="1.1" width="400" xmlns="http://www.w3.org/2000/svg" xmlns:ev="http://www.w3.org/2001/xml-events" xmlns:xlink="http://www.w3.org/1999/xlink"><defs /><rect fill="white" height="100%" width="100%" x="0" y="0" /><path d="M-30,-20 h60 v40 h-60 Z" fill="none" stroke="black" transform="translate(254.90087581509596,258.64349800763097) rotate(255.9857837450995) scale(1.9552326746162674)" /><g><path d="M-30,-20 h60 v40 h-60 Z" fill="none" stroke="black" transform="translate(215.9591322936095,73.7895150368691) rotate(315.2883420921182) scale(0.8414898483572055)" /><path d="M-30,-20 h60 v40 h-60 Z" fill="none" stroke="black" transform="translate(215.9591322936095,73.7895150368691) rotate(315.2883420921182) scale(0.5890428938500438)" /></g><g><path d="M27.7,-11.5 L27.7,11.5 L11.5,27.7 L-11.5,27.7 L-27.7,11.5 L-27.7,-11.5 L-11.5,-27.7 L11.5,-27.7 Z" fill="none" stroke="black" transform="translate(137.79548867088093,251.82867099814254) rotate(108.57997533428738) scale(1.8585823750160542)" /><path d="M27.7,-11.5 L27.7,11.5 L11.5,27.7 L-11.5,27.7 L-27.7,11.5 L-27.7,-11.5 L-11.5,-27.7 L11.5,-27.7 Z" fill="none" stroke="black" transform="translate(137.79548867088093,251.82867099814254) rotate(108.57997533428738) scale(1.301007662511238)" /></g><path d="M0,-30 L30,30 L-30,30 Z" fill="none" stroke="black" transform="translate(325.46104010891054,138.58536288470827) rotate(260.15969443800867) scale(0.8679652756615959)" /></svg>