<svg baseProfile="full" height="400" version="1.1" width="400" xmlns="http://www.w3.org/2000/svg" xmlns:ev="http://www.w3.org/2001/xml-events" xmlns:xlink="http://www.w3.org/1999/xlink"><defs /><rect fill="white" height="100%" width="100%" x="0" y="0" /><path d="M-30,-20 h60 v40 h-60 Z" fill="none" stroke="black" transform="translate(144.83310751811243,147.08217882949833) rotate(269.0480371655264) scale(1.9075105940316817)" /><path d="M-30,-20 h60 v40 h-60 Z" fill="none" stroke="black" transform="translate(264.705534026478,204.36441933150104) rotate(270.2591573042655) scale(1.4187494185715523)" /><path d="M-30,-20 h60 v40 h-60 Z" fill="none" stroke="black" transform="translate(119.81243691631579,257.18008747535333) rotate(132.66968387508743) scale(0.963043681180801)" /><path d="M0.0,-30.0 L28.5,-9.3 L17.6,24.3 L-17.6,24.3 L-28.5,-9.3 Z" fill="none" stroke="black" transform="translate(322.0523022107267,83.00752944522527) rotate(40.31274550784448) scale(1.0625307150296628)" /><path d="M0.0,-30.0 L28.5,-9.3 L17.6,24.3 L-17.6,24.3 L-28.5,-9.3 Z" fill="none" stroke="black" transform="translate(200.87607666071403,321.5325047014615) rotate(123.04910796502712) scale(1.0366179016287442)" /><g><path d="M0.0,-30.0 L28.5,-9.3 L17.6,24.3 L-17.6,24.3 L-28.5,-9.3 Z" fill="none" stroke="black" transform="translate(244.8131182023087,109.71329362301323) rotate(163.12404883254683) scale(0.8265733323554464)" /><path d="M0.0,-30.0 L28.5,-9.3 L17.6,24.3 L-17.6,24.3 L-28.5,-9.3 Z" fill="none" stroke="black" transform="translate(244.8131182023087,109.71329362301323) rotate(163.12404883254683) scale(0.5786013326488124)" /></g><path d="M27.7,-11.5 L27.7,11.5 L11.5,27.7 L-11.5,27.7 L-27.7,11.5 L-27.7,-11.5 L-11.5,-27.7 L11.5,-27.7 Z" fill="none" stroke="black" transform="translate(309.1070871649317,305.95523105840397) rotate(309.1905499338918) scale(0.8321618955378394)" /></svg>