<svg baseProfile="full" height="400" version="1.1" width="400" xmlns="http://www.w3.org/2000/svg" xmlns:ev="http://www.w3.org/2001/xml-events" xmlns:xlink="http://www.w3.org/1999/xlink"><defs /><rect fill="white" height="100%" width="100%" x="0" y="0" /><path d="M30,0 L15,-26 L-15,-26 L-30,0 L-15,26 L15,26 Z" fill="none" stroke="black" transform="translate(163.44063239152234,197.0019576774675) rotate(147.01604824920534) scale(1.6571293148121327)" /><g><path d="M30,0 L15,-26 L-15,-26 L-30,0 L-15,26 L15,26 Z" fill="none" stroke="black" transform="translate(260.1859719491437,282.2521253047618) rotate(34.70798608526144) scale(1.6040008459831032)" /><path d="M30,0 L15,-26 L-15,-26 L-30,0 L-15,26 L15,26 Z" fill="none" stroke="black" transform="translate(260.1859719491437,282.2521253047618) rotate(34.70798608526144) scale(1.122800592188172)" /></g><path d="M30,0 L15,-26 L-15,-26 L-30,0 L-15,26 L15,26 Z" fill="none" stroke="black" transform="translate(265.4989572591484,97.33365488264694) rotate(236.81494663558195) scale(0.9278840965666716)" /><g><path d="M30,0 L15,-26 L-15,-26 L-30,0 L-15,26 L15,26 Z" fill="none" stroke="black" transform="translate(105.52817983751174,235.15301833617525) rotate(27.61522761500446) scale(1.1460838743865767)" /><path d="M30,0 L15,-26 L-15,-26 L-30,0 L-15,26 L15,26 Z" fill="none" stroke="black" transform="translate(105.52817983751174,235.15301833617525) rotate(27.61522761500446) scale(0.8022587120706036)" /></g><g><path d="M30,0 L15,-26 L-15,-26 L-30,0 L-15,26 L15,26 Z" fill="none" stroke="black" transform="translate(259.3117143473072,173.07937588320775) rotate(304.677281267576) scale(1.7551856914084145)" /><path d="M30,0 L15,-26 L-15,-26 L-30,0 L-15,26 L15,26 Z" fill="none" stroke="black" transform="translate(259.3117143473072,173.07937588320775) rotate(304.677281267576) scale(1.22862998398589)" /><path d="M30,0 L15,-26 L-15,-26 L-30,0 L-15,26 L15,26 Z" fill="none" stroke="black" transform="translate(259.3117143473072,173.07937588320775) rotate(304.677281267576) scale(0.7020742765633659)" /></g><path d="M30,0 L15,-26 L-15,-26 L-30,0 L-15,26 L15,26 Z" fill="none" stroke="black" transform="translate(148.85948078101862,137.19383496748404) rotate(278.67673878405327) scale(0.8300581158471809)" /><g><path d="M30,0 L15,-26 L-15,-26 L-30,0 L-15,26 L15,26 Z" fill="none" stroke="black" transform="translate(195.13956224210796,131.7192764653346) rotate(147.02352144422247) scale(0.8850173159643856)" /><path d="M30,0 L15,-26 L-15,-26 L-30,0 L-15,26 L15,26 Z" fill="none" stroke="black" transform="translate(195.13956224210796,131.7192764653346) rotate(147.02352144422247) scale(0.6195121211750699)" /></g><g><path d="M30,0 L15,-26 L-15,-26 L-30,0 L-15,26 L15,26 Z" fill="none" stroke="black" transform="translate(90.70480089032316,115.17013458028049) rotate(331.35885267770743) scale(0.9421642995105143)" /><path d="M30,0 L15,-26 L-15,-26 L-30,0 L-15,26 L15,26 Z" fill="none" stroke="black" transform="translate(90.70480089032316,115.17013458028049) rotate(331.35885267770743) scale(0.65951500965736)" /></g><path d="M30,0 L15,-26 L-15,-26 L-30,0 L-15,26 L15,26 Z" fill="none" stroke="black" transform="translate(97.30171192367818,336.2254466883845) rotate(208.54631121065293) scale(0.823664115656302)" /><g><path d="M0,0 m-30,0 a30,30 0 1,0 60,0 a30,30 0 1,0 -60,0" fill="none" stroke="black" transform="translate(139.08330012880702,302.24417394396323) rotate(315.75117211153844) scale(1.0404508367761505)" /><path d="M0,0 m-30,0 a30,30 0 1,0 60,0 a30,30 0 1,0 -60,0" fill="none" stroke="black" transform="translate(139.08330012880702,302.24417394396323) rotate(315.75117211153844) scale(0.7283155857433052)" /></g><g><path d="M0,0 m-30,0 a30,30 0 1,0 60,0 a30,30 0 1,0 -60,0" fill="none" stroke="black" transform="translate(137.5200993865028,101.95914344946888) rotate(91.41107853446778) scale(0.8077890617271475)" /><path d="M0,0 m-30,0 a30,30 0 1,0 60,0 a30,30 0 1,0 -60,0" fill="none" stroke="black" transform="translate(137.5200993865028,101.95914344946888) rotate(91.41107853446778) scale(0.5654523432090032)" /><path d="M0,0 m-30,0 a30,30 0 1,0 60,0 a30,30 0 1,0 -60,0" fill="none" stroke="black" transform="translate(137.5200993865028,101.95914344946888) rotate(91.41107853446778) scale(0.323115624690859)" /></g><path d="M0,0 m-30,0 a30,30 0 1,0 60,0 a30,30 0 1,0 -60,0" fill="none" stroke="black" transform="translate(231.3914498568632,65.29865541661937) rotate(20.579962627040842) scale(0.8239748766848842)" /><path d="M0.0,-30.0 L28.5,-9.3 L17.6,24.3 L-17.6,24.3 L-28.5,-9.3 Z" fill="none" stroke="black" transform="translate(245.4049593638669,225.41231614842553) rotate(343.94451696306174) scale(0.8917703037656223)" /><g><path d="M0.0,-30.0 L28.5,-9.3 L17.6,24.3 L-17.6,24.3 L-28.5,-9.3 Z" fill="none" stroke="black" transform="translate(294.879115907427,122.75529387839292) rotate(342.00508876354377) scale(1.0120723000632412)" /><path d="M0.0,-30.0 L28.5,-9.3 L17.6,24.3 L-17.6,24.3 L-28.5,-9.3 Z" fill="none" stroke="black" transform="translate(294.879115907427,122.75529387839292) rotate(342.00508876354377) scale(0.7084506100442688)" /><path d="M0.0,-30.0 L28.5,-9.3 L17.6,24.3 L-17.6,24.3 L-28.5,-9.3 Z" fill="none" stroke="black" transform="translate(294.879115907427,122.75529387839292) rotate(342.00508876354377) scale(0.4048289200252965)" /></g><g><path d="M0.0,-30.0 L28.5,-9.3 L17.6,24.3 L-17.6,24.3 L-28.5,-9.3 Z" fill="none" stroke="black" transform="translate(207.7110489583667,111.9374821326627) rotate(248.71415149026532) scale(0.8959325257436255)" /><path d="M0.0,-30.0 L28.5,-9.3 L17.6,24.3 L-17.6,24.3 L-28.5,-9.3 Z" fill="none" stroke="black" transform="translate(207.7110489583667,111.9374821326627) rotate(248.71415149026532) scale(0.6271527680205378)" /></g><g><path d="M0.0,-30.0 L28.5,-9.3 L17.6,24.3 L-17.6,24.3 L-28.5,-9.3 Z" fill="none" stroke="black" transform="translate(317.7441670535441,248.1402114415259) rotate(257.02519192349405) scale(0.8732130383318849)" /><path d="M0.0,-30.0 L28.5,-9.3 L17.6,24.3 L-17.6,24.3 L-28.5,-9.3 Z" fill="none" stroke="black" transform="translate(317.7441670535441,248.1402114415259) rotate(257.02519192349405) scale(0.6112491268323194)" /></g><path d="M0.0,-30.0 L28.5,-9.3 L17.6,24.3 L-17.6,24.3 L-28.5,-9.3 Z" fill="none" stroke="black" transform="translate(307.0688905048058,314.4554898695366) rotate(135.68409118503416) scale(0.8639762142904596)" /><path d="M0.0,-30.0 L28.5,-9.3 L17.6,24.3 L-17.6,24.3 L-28.5,-9.3 Z" fill="none" stroke="black" transform="translate(61.617605502858346,61.43102877698399) rotate(119.38950531469993) scale(0.8042303221817027)" /><path d="M0.0,-30.0 L28.5,-9.3 L17.6,24.3 L-17.6,24.3 L-28.5,-9.3 Z" fill="none" stroke="black" transform="translate(95.81812168301144,285.53969570184813) rotate(103.9364220668277) scale(0.8559093898365051)" /><path d="M0.0,-30.0 L8.8,-12.1 L28.5,-9.3 L14.3,4.6 L17.6,24.3 L0.0,15.0 L-17.6,24.3 L-14.3,4.6 L-28.5,-9.3 L-8.8,-12.1 Z" fill="none" stroke="black" transform="translate(259.31309957133465,62.3054150547908) rotate(44.991031526523216) scale(0.8000253565300626)" /><g><path d="M0.0,-30.0 L8.8,-12.1 L28.5,-9.3 L14.3,4.6 L17.6,24.3 L0.0,15.0 L-17.6,24.3 L-14.3,4.6 L-28.5,-9.3 L-8.8,-12.1 Z" fill="none" stroke="black" transform="translate(71.5823306516542,329.67307179595133) rotate(55.044771155469654) scale(0.9332448147588419)" /><path d="M0.0,-30.0 L8.8,-12.1 L28.5,-9.3 L14.3,4.6 L17.6,24.3 L0.0,15.0 L-17.6,24.3 L-14.3,4.6 L-28.5,-9.3 L-8.8,-12.1 Z" fill="none" stroke="black" transform="translate(71.5823306516542,329.67307179595133) rotate(55.044771155469654) scale(0.6532713703311893)" /><path d="M0.0,-30.0 L8.8,-12.1 L28.5,-9.3 L14.3,4.6 L17.6,24.3 L0.0,15.0 L-17.6,24.3 L-14.3,4.6 L-28.5,-9.3 L-8.8,-12.1 Z" fill="none" stroke="black" transform="translate(71.5823306516542,329.67307179595133) rotate(55.044771155469654) scale(0.3732979259035368)" /></g><path d="M0.0,-30.0 L8.8,-12.1 L28.5,-9.3 L14.3,4.6 L17.6,24.3 L0.0,15.0 L-17.6,24.3 L-14.3,4.6 L-28.5,-9.3 L-8.8,-12.1 Z" fill="none" stroke="black" transform="translate(123.97748057758285,134.94201437517046) rotate(294.66863696618447) scale(0.8669315142098555)" /><g><path d="M0.0,-30.0 L8.8,-12.1 L28.5,-9.3 L14.3,4.6 L17.6,24.3 L0.0,15.0 L-17.6,24.3 L-14.3,4.6 L-28.5,-9.3 L-8.8,-12.1 Z" fill="none" stroke="black" transform="translate(99.09428852952338,200.1499600762687) rotate(294.79615778246233) scale(0.9832275995557764)" /><path d="M0.0,-30.0 L8.8,-12.1 L28.5,-9.3 L14.3,4.6 L17.6,24.3 L0.0,15.0 L-17.6,24.3 L-14.3,4.6 L-28.5,-9.3 L-8.8,-12.1 Z" fill="none" stroke="black" transform="translate(99.09428852952338,200.1499600762687) rotate(294.79615778246233) scale(0.6882593196890434)" /><path d="M0.0,-30.0 L8.8,-12.1 L28.5,-9.3 L14.3,4.6 L17.6,24.3 L0.0,15.0 L-17.6,24.3 L-14.3,4.6 L-28.5,-9.3 L-8.8,-12.1 Z" fill="none" stroke="black" transform="translate(99.09428852952338,200.1499600762687) rotate(294.79615778246233) scale(0.3932910398223106)" /></g><path d="M0.0,-30.0 L8.8,-12.1 L28.5,-9.3 L14.3,4.6 L17.6,24.3 L0.0,15.0 L-17.6,24.3 L-14.3,4.6 L-28.5,-9.3 L-8.8,-12.1 Z" fill="none" stroke="black" transform="translate(183.36423880751434,338.380326541759) rotate(252.88081242234838) scale(0.8267062280662553)" /><path d="M0.0,-30.0 L8.8,-12.1 L28.5,-9.3 L14.3,4.6 L17.6,24.3 L0.0,15.0 L-17.6,24.3 L-14.3,4.6 L-28.5,-9.3 L-8.8,-12.1 Z" fill="none" stroke="black" transform="translate(64.93364716673067,277.151137448511) rotate(295.0743858367493) scale(0.8799294580160765)" /><path d="M0.0,-30.0 L8.8,-12.1 L28.5,-9.3 L14.3,4.6 L17.6,24.3 L0.0,15.0 L-17.6,24.3 L-14.3,4.6 L-28.5,-9.3 L-8.8,-12.1 Z" fill="none" stroke="black" transform="translate(180.57404995486428,270.6803611108249) rotate(313.47527958493004) scale(1.512139057573743)" /><path d="M-30,-20 h60 v40 h-60 Z" fill="none" stroke="black" transform="translate(324.6440914053311,184.21234003595026) rotate(343.46090971582606) scale(0.9027444056791869)" /><path d="M-30,-20 h60 v40 h-60 Z" fill="none" stroke="black" transform="translate(331.7649740396704,89.11325509608011) rotate(140.46846958349738) scale(0.9468281838688747)" /><g><path d="M-30,-20 h60 v40 h-60 Z" fill="none" stroke="black" transform="translate(112.21989132660222,78.67553530770346) rotate(345.069785264453) scale(1.0397841784701445)" /><path d="M-30,-20 h60 v40 h-60 Z" fill="none" stroke="black" transform="translate(112.21989132660222,78.67553530770346) rotate(345.069785264453) scale(0.7278489249291011)" /></g><g><path d="M-30,-20 h60 v40 h-60 Z" fill="none" stroke="black" transform="translate(271.8554228057749,126.31168819978468) rotate(326.31974924314204) scale(0.8162041428853245)" /><path d="M-30,-20 h60 v40 h-60 Z" fill="none" stroke="black" transform="translate(271.8554228057749,126.31168819978468) rotate(326.31974924314204) scale(0.5713429000197271)" /></g><g><path d="M-30,-20 h60 v40 h-60 Z" fill="none" stroke="black" transform="translate(214.4630261989223,230.69305532552977) rotate(13.187695955827788) scale(1.0032579352003803)" /><path d="M-30,-20 h60 v40 h-60 Z" fill="none" stroke="black" transform="translate(214.4630261989223,230.69305532552977) rotate(13.187695955827788) scale(0.7022805546402662)" /></g><path d="M27.7,-11.5 L27.7,11.5 L11.5,27.7 L-11.5,27.7 L-27.7,11.5 L-27.7,-11.5 L-11.5,-27.7 L11.5,-27.7 Z" fill="none" stroke="black" transform="translate(319.4855753195764,287.51065152988167) rotate(283.5509037863098) scale(0.8031161406408817)" /><path d="M27.7,-11.5 L27.7,11.5 L11.5,27.7 L-11.5,27.7 L-27.7,11.5 L-27.7,-11.5 L-11.5,-27.7 L11.5,-27.7 Z" fill="none" stroke="black" transform="translate(197.61842382041078,81.40467567577495) rotate(155.1482623508729) scale(0.938684779141862)" /><path d="M27.7,-11.5 L27.7,11.5 L11.5,27.7 L-11.5,27.7 L-27.7,11.5 L-27.7,-11.5 L-11.5,-27.7 L11.5,-27.7 Z" fill="none" stroke="black" transform="translate(193.86928170378775,162.24848387374493) rotate(238.0518442753118) scale(0.8193085356273668)" /><path d="M27.7,-11.5 L27.7,11.5 L11.5,27.7 L-11.5,27.7 L-27.7,11.5 L-27.7,-11.5 L-11.5,-27.7 L11.5,-27.7 Z" fill="none" stroke="black" transform="translate(301.5675738212445,228.15923076447558) rotate(163.60083871499074) scale(1.1142529200571238)" /><path d="M27.7,-11.5 L27.7,11.5 L11.5,27.7 L-11.5,27.7 L-27.7,11.5 L-27.7,-11.5 L-11.5,-27.7 L11.5,-27.7 Z" fill="none" stroke="black" transform="translate(272.04438131138636,74.69444873163559) rotate(252.13296662795537) scale(0.8056291750101852)" /><path d="M0,-30 L30,30 L-30,30 Z" fill="none" stroke="black" transform="translate(109.83313735479894,164.5079151605464) rotate(265.842953374872) scale(0.9745331471242281)" /><path d="M0,-30 L30,30 L-30,30 Z" fill="none" stroke="black" transform="translate(289.25495238245736,101.33401941428448) rotate(74.06611076854371) scale(0.8540257040138342)" /><path d="M0,-30 L30,30 L-30,30 Z" fill="none" stroke="black" transform="translate(287.73844015951136,316.78915809574886) rotate(35.609137934792535) scale(0.8095117122619212)" /><path d="M0,-30 L30,30 L-30,30 Z" fill="none" stroke="black" transform="translate(162.0469587443573,96.7500083721292) rotate(7.42138545282959) scale(0.9284626415786069)" /><g><path d="M0,-30 L30,30 L-30,30 Z" fill="none" stroke="black" transform="translate(172.752069086944,132.37927930966399) rotate(262.10946768360475) scale(0.8698096997190276)" /><path d="M0,-30 L30,30 L-30,30 Z" fill="none" stroke="black" transform="translate(172.752069086944,132.37927930966399) rotate(262.10946768360475) scale(0.6088667898033192)" /></g><path d="M0,-30 L30,30 L-30,30 Z" fill="none" stroke="black" transform="translate(335.29110746876444,130.98110474125502) rotate(105.09469004799774) scale(0.8710409964005125)" /><g><path d="M0,-30 L30,30 L-30,30 Z" fill="none" stroke="black" transform="translate(74.20485318434312,80.92250890128383) rotate(19.58567579778366) scale(0.8236265121637265)" /><path d="M0,-30 L30,30 L-30,30 Z" fill="none" stroke="black" transform="translate(74.20485318434312,80.92250890128383) rotate(19.58567579778366) scale(0.5765385585146086)" /></g><path d="M0,-30 L30,30 L-30,30 Z" fill="none" stroke="black" transform="translate(319.7395075203615,152.15832714801974) rotate(87.70614627994975) scale(0.8682659215562268)" /></svg>