<svg baseProfile="full" height="400" version="1.1" width="400" xmlns="http://www.w3.org/2000/svg" xmlns:ev="http://www.w3.org/2001/xml-events" xmlns:xlink="http://www.w3.org/1999/xlink"><defs /><rect fill="white" height="100%" width="100%" x="0" y="0" /><g><path d="M0.0,-30.0 L8.8,-12.1 L28.5,-9.3 L14.3,4.6 L17.6,24.3 L0.0,15.0 L-17.6,24.3 L-14.3,4.6 L-28.5,-9.3 L-8.8,-12.1 Z" fill="none" stroke="black" transform="translate(239.96169423388312,236.93782553638982) rotate(46.14419103006127) scale(1.371932159454508)" /><path d="M0.0,-30.0 L8.8,-12.1 L28.5,-9.3 L14.3,4.6 L17.6,24.3 L0.0,15.0 L-17.6,24.3 L-14.3,4.6 L-28.5,-9.3 L-8.8,-12.1 Z" fill="none" stroke="black" transform="translate(239.96169423388312,236.93782553638982) rotate(46.14419103006127) scale(0.9603525116181555)" /><path d="M0.0,-30.0 L8.8,-12.1 L28.5,-9.3 L14.3,4.6 L17.6,24.3 L0.0,15.0 L-17.6,24.3 L-14.3,4.6 L-28.5,-9.3 L-8.8,-12.1 Z" fill="none" stroke="black" transform="translate(239.96169423388312,236.93782553638982) rotate(46.14419103006127) scale(0.5487728637818032)" /></g><g><path d="M0.0,-30.0 L8.8,-12.1 L28.5,-9.3 L14.3,4.6 L17.6,24.3 L0.0,15.0 L-17.6,24.3 L-14.3,4.6 L-28.5,-9.3 L-8.8,-12.1 Z" fill="none" stroke="black" transform="translate(159.64324780901978,248.6727798890966) rotate(144.50161977433407) scale(1.7241310232986367)" /><path d="M0.0,-30.0 L8.8,-12.1 L28.5,-9.3 L14.3,4.6 L17.6,24.3 L0.0,15.0 L-17.6,24.3 L-14.3,4.6 L-28.5,-9.3 L-8.8,-12.1 Z" fill="none" stroke="black" transform="translate(159.64324780901978,248.6727798890966) rotate(144.50161977433407) scale(1.2068917163090456)" /><path d="M0.0,-30.0 L8.8,-12.1 L28.5,-9.3 L14.3,4.6 L17.6,24.3 L0.0,15.0 L-17.6,24.3 L-14.3,4.6 L-28.5,-9.3 L-8.8,-12.1 Z" fill="none" stroke="black" transform="translate(159.64324780901978,248.6727798890966) rotate(144.50161977433407) scale(0.6896524093194547)" /></g><path d="M0.0,-30.0 L8.8,-12.1 L28.5,-9.3 L14.3,4.6 L17.6,24.3 L0.0,15.0 L-17.6,24.3 L-14.3,4.6 L-28.5,-9.3 L-8.8,-12.1 Z" fill="none" stroke="black" transform="translate(276.4603937400565,121.4597375752133) rotate(163.9865434087101) scale(0.8392009928461028)" /><path d="M0.0,-30.0 L8.8,-12.1 L28.5,-9.3 L14.3,4.6 L17.6,24.3 L0.0,15.0 L-17.6,24.3 L-14.3,4.6 L-28.5,-9.3 L-8.8,-12.1 Z" fill="none" stroke="black" transform="translate(85.62772510364255,201.70605508700766) rotate(280.09987332588065) scale(1.018672578757304)" /><path d="M0.0,-30.0 L8.8,-12.1 L28.5,-9.3 L14.3,4.6 L17.6,24.3 L0.0,15.0 L-17.6,24.3 L-14.3,4.6 L-28.5,-9.3 L-8.8,-12.1 Z" fill="none" stroke="black" transform="translate(104.1352433064375,131.3736736729878) rotate(348.24942772688007) scale(1.1904886459687662)" /><g><path d="M0,0 m-30,0 a30,30 0 1,0 60,0 a30,30 0 1,0 -60,0" fill="none" stroke="black" transform="translate(292.80610291447266,168.09075996654275) rotate(69.00899356218741) scale(1.3479386314885224)" /><path d="M0,0 m-30,0 a30,30 0 1,0 60,0 a30,30 0 1,0 -60,0" fill="none" stroke="black" transform="translate(292.80610291447266,168.09075996654275) rotate(69.00899356218741) scale(0.9435570420419657)" /><path d="M0,0 m-30,0 a30,30 0 1,0 60,0 a30,30 0 1,0 -60,0" fill="none" stroke="black" transform="translate(292.80610291447266,168.09075996654275) rotate(69.00899356218741) scale(0.539175452595409)" /></g><path d="M0,0 m-30,0 a30,30 0 1,0 60,0 a30,30 0 1,0 -60,0" fill="none" stroke="black" transform="translate(255.0801719203292,336.9872860405667) rotate(1.7411209396232108) scale(0.8457158379310745)" /><path d="M0.0,-30.0 L28.5,-9.3 L17.6,24.3 L-17.6,24.3 L-28.5,-9.3 Z" fill="none" stroke="black" transform="translate(134.96849629161312,179.54552872542723) rotate(291.3133830061878) scale(1.0661745933885218)" /><g><path d="M0.0,-30.0 L28.5,-9.3 L17.6,24.3 L-17.6,24.3 L-28.5,-9.3 Z" fill="none" stroke="black" transform="translate(301.67061588901794,244.43156079721751) rotate(142.94765855460582) scale(1.0166065133323583)" /><path d="M0.0,-30.0 L28.5,-9.3 L17.6,24.3 L-17.6,24.3 L-28.5,-9.3 Z" fill="none" stroke="black" transform="translate(301.67061588901794,244.43156079721751) rotate(142.94765855460582) scale(0.7116245593326508)" /><path d="M0.0,-30.0 L28.5,-9.3 L17.6,24.3 L-17.6,24.3 L-28.5,-9.3 Z" fill="none" stroke="black" transform="translate(301.67061588901794,244.43156079721751) rotate(142.94765855460582) scale(0.40664260533294333)" /></g><path d="M0.0,-30.0 L28.5,-9.3 L17.6,24.3 L-17.6,24.3 L-28.5,-9.3 Z" fill="none" stroke="black" transform="translate(212.31699440525767,172.29213852104357) rotate(164.83488561134018) scale(0.8846105736140716)" /><path d="M0.0,-30.0 L28.5,-9.3 L17.6,24.3 L-17.6,24.3 L-28.5,-9.3 Z" fill="none" stroke="black" transform="translate(252.94223356125474,306.06917185608773) rotate(347.6403578418353) scale(0.9376314081572739)" /><g><path d="M0.0,-30.0 L28.5,-9.3 L17.6,24.3 L-17.6,24.3 L-28.5,-9.3 Z" fill="none" stroke="black" transform="translate(85.14229517909645,317.53121224646674) rotate(193.87619994918524) scale(1.0945311724919509)" /><path d="M0.0,-30.0 L28.5,-9.3 L17.6,24.3 L-17.6,24.3 L-28.5,-9.3 Z" fill="none" stroke="black" transform="translate(85.14229517909645,317.53121224646674) rotate(193.87619994918524) scale(0.7661718207443655)" /><path d="M0.0,-30.0 L28.5,-9.3 L17.6,24.3 L-17.6,24.3 L-28.5,-9.3 Z" fill="none" stroke="black" transform="translate(85.14229517909645,317.53121224646674) rotate(193.87619994918524) scale(0.4378124689967804)" /></g><path d="M0.0,-30.0 L28.5,-9.3 L17.6,24.3 L-17.6,24.3 L-28.5,-9.3 Z" fill="none" stroke="black" transform="translate(254.5754950976766,78.81160835628803) rotate(54.628903808314874) scale(1.0889624445279558)" /><g><path d="M30,0 L15,-26 L-15,-26 L-30,0 L-15,26 L15,26 Z" fill="none" stroke="black" transform="translate(174.57155002332712,118.0095825634182) rotate(77.976614991568) scale(1.0081047198569755)" /><path d="M30,0 L15,-26 L-15,-26 L-30,0 L-15,26 L15,26 Z" fill="none" stroke="black" transform="translate(174.57155002332712,118.0095825634182) rotate(77.976614991568) scale(0.7056733038998828)" /></g><path d="M30,0 L15,-26 L-15,-26 L-30,0 L-15,26 L15,26 Z" fill="none" stroke="black" transform="translate(160.14398199457293,322.24016018408554) rotate(198.8705512195148) scale(0.8465941531197695)" /><g><path d="M30,0 L15,-26 L-15,-26 L-30,0 L-15,26 L15,26 Z" fill="none" stroke="black" transform="translate(327.3275957238446,300.18552382228165) rotate(272.3211171587953) scale(0.8546201523954696)" /><path d="M30,0 L15,-26 L-15,-26 L-30,0 L-15,26 L15,26 Z" fill="none" stroke="black" transform="translate(327.3275957238446,300.18552382228165) rotate(272.3211171587953) scale(0.5982341066768287)" /><path d="M30,0 L15,-26 L-15,-26 L-30,0 L-15,26 L15,26 Z" fill="none" stroke="black" transform="translate(327.3275957238446,300.18552382228165) rotate(272.3211171587953) scale(0.34184806095818787)" /></g><path d="M30,0 L15,-26 L-15,-26 L-30,0 L-15,26 L15,26 Z" fill="none" stroke="black" transform="translate(201.66906512169766,116.5203950956788) rotate(350.54426265098334) scale(0.8468321574909216)" /><g><path d="M30,0 L15,-26 L-15,-26 L-30,0 L-15,26 L15,26 Z" fill="none" stroke="black" transform="translate(208.74920026138886,81.64262099315218) rotate(163.09512810112247) scale(1.1072028109235452)" /><path d="M30,0 L15,-26 L-15,-26 L-30,0 L-15,26 L15,26 Z" fill="none" stroke="black" transform="translate(208.74920026138886,81.64262099315218) rotate(163.09512810112247) scale(0.7750419676464816)" /></g><g><path d="M0,-30 L30,30 L-30,30 Z" fill="none" stroke="black" transform="translate(208.2528030349814,298.1985899781947) rotate(226.14719085382535) scale(0.959482167405779)" /><path d="M0,-30 L30,30 L-30,30 Z" fill="none" stroke="black" transform="translate(208.2528030349814,298.1985899781947) rotate(226.14719085382535) scale(0.6716375171840452)" /><path d="M0,-30 L30,30 L-30,30 Z" fill="none" stroke="black" transform="translate(208.2528030349814,298.1985899781947) rotate(226.14719085382535) scale(0.38379286696231163)" /></g><path d="M0,-30 L30,30 L-30,30 Z" fill="none" stroke="black" transform="translate(316.32520564920105,333.147336271309) rotate(105.94385826227874) scale(0.8931233421773109)" /><g><path d="M0,-30 L30,30 L-30,30 Z" fill="none" stroke="black" transform="translate(139.5003747262678,87.8280980148565) rotate(76.47752273587632) scale(1.1452846127035872)" /><path d="M0,-30 L30,30 L-30,30 Z" fill="none" stroke="black" transform="translate(139.5003747262678,87.8280980148565) rotate(76.47752273587632) scale(0.801699228892511)" /><path d="M0,-30 L30,30 L-30,30 Z" fill="none" stroke="black" transform="translate(139.5003747262678,87.8280980148565) rotate(76.47752273587632) scale(0.4581138450814349)" /></g><g><path d="M0,-30 L30,30 L-30,30 Z" fill="none" stroke="black" transform="translate(81.69612956124561,275.74517796851563) rotate(172.17643691205063) scale(0.814629548099558)" /><path d="M0,-30 L30,30 L-30,30 Z" fill="none" stroke="black" transform="translate(81.69612956124561,275.74517796851563) rotate(172.17643691205063) scale(0.5702406836696906)" /><path d="M0,-30 L30,30 L-30,30 Z" fill="none" stroke="black" transform="translate(81.69612956124561,275.74517796851563) rotate(172.17643691205063) scale(0.3258518192398232)" /></g><path d="M0,-30 L30,30 L-30,30 Z" fill="none" stroke="black" transform="translate(312.6512377796062,104.3426407725272) rotate(157.7509818908284) scale(1.004021074374702)" /><path d="M27.7,-11.5 L27.7,11.5 L11.5,27.7 L-11.5,27.7 L-27.7,11.5 L-27.7,-11.5 L-11.5,-27.7 L11.5,-27.7 Z" fill="none" stroke="black" transform="translate(61.10857050705882,68.27713632837695) rotate(343.9902582024315) scale(0.8116193690010187)" /><g><path d="M-30,-20 h60 v40 h-60 Z" fill="none" stroke="black" transform="translate(98.04108286045789,67.49885371543263) rotate(293.0430064074974) scale(0.8714172926856911)" /><path d="M-30,-20 h60 v40 h-60 Z" fill="none" stroke="black" transform="translate(98.04108286045789,67.49885371543263) rotate(293.0430064074974) scale(0.6099921048799838)" /><path d="M-30,-20 h60 v40 h-60 Z" fill="none" stroke="black" transform="translate(98.04108286045789,67.49885371543263) rotate(293.0430064074974) scale(0.34856691707427645)" /></g></svg>