<svg baseProfile="full" height="400" version="1.1" width="400" xmlns="http://www.w3.org/2000/svg" xmlns:ev="http://www.w3.org/2001/xml-events" xmlns:xlink="http://www.w3.org/1999/xlink"><defs /><rect fill="white" height="100%" width="100%" x="0" y="0" /><g><path d="M30,0 L15,-26 L-15,-26 L-30,0 L-15,26 L15,26 Z" fill="none" stroke="black" transform="translate(206.7621350715819,102.43039903709294) rotate(90.86181516583616) scale(0.8464481481224826)" /><path d="M30,0 L15,-26 L-15,-26 L-30,0 L-15,26 L15,26 Z" fill="none" stroke="black" transform="translate(206.7621350715819,102.43039903709294) rotate(90.86181516583616) scale(0.5925137036857377)" /></g><g><path d="M30,0 L15,-26 L-15,-26 L-30,0 L-15,26 L15,26 Z" fill="none" stroke="black" transform="translate(185.4738177872219,212.355675041824) rotate(329.24108809003116) scale(1.2123741909187014)" /><path d="M30,0 L15,-26 L-15,-26 L-30,0 L-15,26 L15,26 Z" fill="none" stroke="black" transform="translate(185.4738177872219,212.355675041824) rotate(329.24108809003116) scale(0.848661933643091)" /></g><path d="M0.0,-30.0 L8.8,-12.1 L28.5,-9.3 L14.3,4.6 L17.6,24.3 L0.0,15.0 L-17.6,24.3 L-14.3,4.6 L-28.5,-9.3 L-8.8,-12.1 Z" fill="none" stroke="black" transform="translate(130.13907957493717,107.78110175982506) rotate(334.08460357280376) scale(1.3640537673049162)" /><path d="M0.0,-30.0 L8.8,-12.1 L28.5,-9.3 L14.3,4.6 L17.6,24.3 L0.0,15.0 L-17.6,24.3 L-14.3,4.6 L-28.5,-9.3 L-8.8,-12.1 Z" fill="none" stroke="black" transform="translate(334.06184911724273,167.0666219667002) rotate(171.8954127180235) scale(0.8576150898783566)" /><path d="M0,-30 L30,30 L-30,30 Z" fill="none" stroke="black" transform="translate(78.4708918660399,256.84724820851244) rotate(327.62868426809484) scale(0.9797155940149662)" /><path d="M0,-30 L30,30 L-30,30 Z" fill="none" stroke="black" transform="translate(153.6208945968704,309.8634984162425) rotate(216.26547859170248) scale(1.0651154086328694)" /></svg>