<svg baseProfile="full" height="400" version="1.1" width="400" xmlns="http://www.w3.org/2000/svg" xmlns:ev="http://www.w3.org/2001/xml-events" xmlns:xlink="http://www.w3.org/1999/xlink"><defs /><rect fill="white" height="100%" width="100%" x="0" y="0" /><g><path d="M-30,-20 h60 v40 h-60 Z" fill="none" stroke="black" transform="translate(133.806621984162,121.86026521168746) rotate(73.81259490973505) scale(1.3061355824698975)" /><path d="M-30,-20 h60 v40 h-60 Z" fill="none" stroke="black" transform="translate(133.806621984162,121.86026521168746) rotate(73.81259490973505) scale(0.9142949077289282)" /><path d="M-30,-20 h60 v40 h-60 Z" fill="none" stroke="black" transform="translate(133.806621984162,121.86026521168746) rotate(73.81259490973505) scale(0.522454232987959)" /></g><path d="M0.0,-30.0 L8.8,-12.1 L28.5,-9.3 L14.3,4.6 L17.6,24.3 L0.0,15.0 L-17.6,24.3 L-14.3,4.6 L-28.5,-9.3 L-8.8,-12.1 Z" fill="none" stroke="black" transform="translate(307.83285728088833,127.56937227877151) rotate(183.21049088601012) scale(1.2521019611424804)" /><g><path d="M0.0,-30.0 L8.8,-12.1 L28.5,-9.3 L14.3,4.6 L17.6,24.3 L0.0,15.0 L-17.6,24.3 L-14.3,4.6 L-28.5,-9.3 L-8.8,-12.1 Z" fill="none" stroke="black" transform="translate(256.67223033603636,78.87092674236419) rotate(299.2262338213664) scale(0.9441671262933701)" /><path d="M0.0,-30.0 L8.8,-12.1 L28.5,-9.3 L14.3,4.6 L17.6,24.3 L0.0,15.0 L-17.6,24.3 L-14.3,4.6 L-28.5,-9.3 L-8.8,-12.1 Z" fill="none" stroke="black" transform="translate(256.67223033603636,78.87092674236419) rotate(299.2262338213664) scale(0.6609169884053591)" /><path d="M0.0,-30.0 L8.8,-12.1 L28.5,-9.3 L14.3,4.6 L17.6,24.3 L0.0,15.0 L-17.6,24.3 L-14.3,4.6 L-28.5,-9.3 L-8.8,-12.1 Z" fill="none" stroke="black" transform="translate(256.67223033603636,78.87092674236419) rotate(299.2262338213664) scale(0.37766685051734805)" /></g><path d="M0.0,-30.0 L8.8,-12.1 L28.5,-9.3 L14.3,4.6 L17.6,24.3 L0.0,15.0 L-17.6,24.3 L-14.3,4.6 L-28.5,-9.3 L-8.8,-12.1 Z" fill="none" stroke="black" transform="translate(200.43490276926264,224.96577701485782) rotate(170.63647508987046) scale(1.4862468970411338)" /><path d="M0.0,-30.0 L8.8,-12.1 L28.5,-9.3 L14.3,4.6 L17.6,24.3 L0.0,15.0 L-17.6,24.3 L-14.3,4.6 L-28.5,-9.3 L-8.8,-12.1 Z" fill="none" stroke="black" transform="translate(137.40019951812556,252.0560016759123) rotate(346.3214817229389) scale(1.1905341214162684)" /><path d="M0.0,-30.0 L8.8,-12.1 L28.5,-9.3 L14.3,4.6 L17.6,24.3 L0.0,15.0 L-17.6,24.3 L-14.3,4.6 L-28.5,-9.3 L-8.8,-12.1 Z" fill="none" stroke="black" transform="translate(255.89587684169294,314.154674977669) rotate(166.50136456017722) scale(0.962607425815746)" /><path d="M0.0,-30.0 L8.8,-12.1 L28.5,-9.3 L14.3,4.6 L17.6,24.3 L0.0,15.0 L-17.6,24.3 L-14.3,4.6 L-28.5,-9.3 L-8.8,-12.1 Z" fill="none" stroke="black" transform="translate(159.4529057114556,327.97652943471957) rotate(275.57998687867934) scale(0.8955415317538157)" /><path d="M0.0,-30.0 L8.8,-12.1 L28.5,-9.3 L14.3,4.6 L17.6,24.3 L0.0,15.0 L-17.6,24.3 L-14.3,4.6 L-28.5,-9.3 L-8.8,-12.1 Z" fill="none" stroke="black" transform="translate(195.2443406319794,92.98900758757) rotate(27.742862686158997) scale(0.9403961025996035)" /><path d="M0.0,-30.0 L8.8,-12.1 L28.5,-9.3 L14.3,4.6 L17.6,24.3 L0.0,15.0 L-17.6,24.3 L-14.3,4.6 L-28.5,-9.3 L-8.8,-12.1 Z" fill="none" stroke="black" transform="translate(329.1964017883308,183.264418877968) rotate(159.7930642190141) scale(0.9145498934708269)" /><path d="M0.0,-30.0 L8.8,-12.1 L28.5,-9.3 L14.3,4.6 L17.6,24.3 L0.0,15.0 L-17.6,24.3 L-14.3,4.6 L-28.5,-9.3 L-8.8,-12.1 Z" fill="none" stroke="black" transform="translate(236.32453669933108,127.8567151448367) rotate(100.0990475463169) scale(0.9969279743316837)" /><path d="M0.0,-30.0 L8.8,-12.1 L28.5,-9.3 L14.3,4.6 L17.6,24.3 L0.0,15.0 L-17.6,24.3 L-14.3,4.6 L-28.5,-9.3 L-8.8,-12.1 Z" fill="none" stroke="black" transform="translate(281.6112685032495,243.14730587226106) rotate(46.512835114742714) scale(1.0522495953817257)" /><path d="M0,-30 L30,30 L-30,30 Z" fill="none" stroke="black" transform="translate(106.93716447684733,305.9117152039615) rotate(23.872937433441468) scale(1.0415882861557975)" /><path d="M0,-30 L30,30 L-30,30 Z" fill="none" stroke="black" transform="translate(64.12186925560215,112.94673457077863) rotate(309.3898438157988) scale(0.8803469119087063)" /><g><path d="M0,-30 L30,30 L-30,30 Z" fill="none" stroke="black" transform="translate(86.73783857204327,172.86587903930214) rotate(141.3025882637522) scale(1.1342544861087172)" /><path d="M0,-30 L30,30 L-30,30 Z" fill="none" stroke="black" transform="translate(86.73783857204327,172.86587903930214) rotate(141.3025882637522) scale(0.7939781402761019)" /><path d="M0,-30 L30,30 L-30,30 Z" fill="none" stroke="black" transform="translate(86.73783857204327,172.86587903930214) rotate(141.3025882637522) scale(0.4537017944434869)" /></g><path d="M0,-30 L30,30 L-30,30 Z" fill="none" stroke="black" transform="translate(84.56184620346076,84.45523296934962) rotate(225.0354971869146) scale(0.8373092886714738)" /></svg>