<svg baseProfile="full" height="400" version="1.1" width="400" xmlns="http://www.w3.org/2000/svg" xmlns:ev="http://www.w3.org/2001/xml-events" xmlns:xlink="http://www.w3.org/1999/xlink"><defs /><rect fill="white" height="100%" width="100%" x="0" y="0" /><g><path d="M0,-30 L30,30 L-30,30 Z" fill="none" stroke="black" transform="translate(235.20684614309408,290.1472284576924) rotate(163.21870423201895) scale(1.3277650021021041)" /><path d="M0,-30 L30,30 L-30,30 Z" fill="none" stroke="black" transform="translate(235.20684614309408,290.1472284576924) rotate(163.21870423201895) scale(0.9294355014714728)" /></g><path d="M0,-30 L30,30 L-30,30 Z" fill="none" stroke="black" transform="translate(287.17232650875087,137.66430206282806) rotate(22.8507013068578) scale(1.3030731676540508)" /><g><path d="M0,-30 L30,30 L-30,30 Z" fill="none" stroke="black" transform="translate(140.4110108647222,144.2020745330357) rotate(263.3032882503326) scale(1.6316747198659276)" /><path d="M0,-30 L30,30 L-30,30 Z" fill="none" stroke="black" transform="translate(140.4110108647222,144.2020745330357) rotate(263.3032882503326) scale(1.1421723039061493)" /></g><g><path d="M30,0 L15,-26 L-15,-26 L-30,0 L-15,26 L15,26 Z" fill="none" stroke="black" transform="translate(134.29293382409503,313.8463773865821) rotate(48.98019478394051) scale(1.1655071225918734)" /><path d="M30,0 L15,-26 L-15,-26 L-30,0 L-15,26 L15,26 Z" fill="none" stroke="black" transform="translate(134.29293382409503,313.8463773865821) rotate(48.98019478394051) scale(0.8158549858143114)" /></g><path d="M27.7,-11.5 L27.7,11.5 L11.5,27.7 L-11.5,27.7 L-27.7,11.5 L-27.7,-11.5 L-11.5,-27.7 L11.5,-27.7 Z" fill="none" stroke="black" transform="translate(324.3446770329821,255.05864802762406) rotate(11.27112245333397) scale(0.9545666687020152)" /></svg>