<svg baseProfile="full" height="400" version="1.1" width="400" xmlns="http://www.w3.org/2000/svg" xmlns:ev="http://www.w3.org/2001/xml-events" xmlns:xlink="http://www.w3.org/1999/xlink"><defs /><rect fill="white" height="100%" width="100%" x="0" y="0" /><g><path d="M0.0,-30.0 L28.5,-9.3 L17.6,24.3 L-17.6,24.3 L-28.5,-9.3 Z" fill="none" stroke="black" transform="translate(128.43057237060574,268.331582503328) rotate(102.62609138502785) scale(1.3882465203944228)" /><path d="M0.0,-30.0 L28.5,-9.3 L17.6,24.3 L-17.6,24.3 L-28.5,-9.3 Z" fill="none" stroke="black" transform="translate(128.43057237060574,268.331582503328) rotate(102.62609138502785) scale(0.9717725642760958)" /><path d="M0.0,-30.0 L28.5,-9.3 L17.6,24.3 L-17.6,24.3 L-28.5,-9.3 Z" fill="none" stroke="black" transform="translate(128.43057237060574,268.331582503328) rotate(102.62609138502785) scale(0.5552986081577691)" /></g><path d="M0.0,-30.0 L28.5,-9.3 L17.6,24.3 L-17.6,24.3 L-28.5,-9.3 Z" fill="none" stroke="black" transform="translate(195.4417194977125,182.34809807373577) rotate(269.7139319097783) scale(1.6990675920539242)" /><g><path d="M0.0,-30.0 L28.5,-9.3 L17.6,24.3 L-17.6,24.3 L-28.5,-9.3 Z" fill="none" stroke="black" transform="translate(273.46221745569073,266.8758756768658) rotate(124.24083528467445) scale(1.5070614299671574)" /><path d="M0.0,-30.0 L28.5,-9.3 L17.6,24.3 L-17.6,24.3 L-28.5,-9.3 Z" fill="none" stroke="black" transform="translate(273.46221745569073,266.8758756768658) rotate(124.24083528467445) scale(1.0549430009770102)" /></g><path d="M30,0 L15,-26 L-15,-26 L-30,0 L-15,26 L15,26 Z" fill="none" stroke="black" transform="translate(188.58788019858713,257.3384668077491) rotate(227.66431612969126) scale(1.2537624379116614)" /><path d="M30,0 L15,-26 L-15,-26 L-30,0 L-15,26 L15,26 Z" fill="none" stroke="black" transform="translate(84.76438287949145,326.41666638787785) rotate(321.90907933077284) scale(0.928736737840749)" /><path d="M30,0 L15,-26 L-15,-26 L-30,0 L-15,26 L15,26 Z" fill="none" stroke="black" transform="translate(141.10098650624576,88.48483582325596) rotate(257.2139810601875) scale(0.8328256745009545)" /><path d="M30,0 L15,-26 L-15,-26 L-30,0 L-15,26 L15,26 Z" fill="none" stroke="black" transform="translate(253.42576617416475,217.64166513059376) rotate(108.00645986115201) scale(0.8518049199053388)" /><path d="M27.7,-11.5 L27.7,11.5 L11.5,27.7 L-11.5,27.7 L-27.7,11.5 L-27.7,-11.5 L-11.5,-27.7 L11.5,-27.7 Z" fill="none" stroke="black" transform="translate(130.8489897300525,130.04979081894243) rotate(284.97350942366313) scale(1.1933754181354446)" /><path d="M27.7,-11.5 L27.7,11.5 L11.5,27.7 L-11.5,27.7 L-27.7,11.5 L-27.7,-11.5 L-11.5,-27.7 L11.5,-27.7 Z" fill="none" stroke="black" transform="translate(256.55662343663903,132.86527161077117) rotate(302.178924714956) scale(0.8411181288760593)" /><path d="M27.7,-11.5 L27.7,11.5 L11.5,27.7 L-11.5,27.7 L-27.7,11.5 L-27.7,-11.5 L-11.5,-27.7 L11.5,-27.7 Z" fill="none" stroke="black" transform="translate(263.0698115971495,310.89228497420356) rotate(249.89370679173055) scale(0.8348973049111903)" /><g><path d="M27.7,-11.5 L27.7,11.5 L11.5,27.7 L-11.5,27.7 L-27.7,11.5 L-27.7,-11.5 L-11.5,-27.7 L11.5,-27.7 Z" fill="none" stroke="black" transform="translate(134.83468230412723,164.444444693563) rotate(13.33096299413635) scale(0.8214141547896616)" /><path d="M27.7,-11.5 L27.7,11.5 L11.5,27.7 L-11.5,27.7 L-27.7,11.5 L-27.7,-11.5 L-11.5,-27.7 L11.5,-27.7 Z" fill="none" stroke="black" transform="translate(134.83468230412723,164.444444693563) rotate(13.33096299413635) scale(0.5749899083527631)" /></g><path d="M27.7,-11.5 L27.7,11.5 L11.5,27.7 L-11.5,27.7 L-27.7,11.5 L-27.7,-11.5 L-11.5,-27.7 L11.5,-27.7 Z" fill="none" stroke="black" transform="translate(143.48703380454995,209.26564420327037) rotate(173.2367838346858) scale(1.1811874853036697)" /><g><path d="M0,0 m-30,0 a30,30 0 1,0 60,0 a30,30 0 1,0 -60,0" fill="none" stroke="black" transform="translate(227.7187116732188,117.79195803213437) rotate(170.6512632107217) scale(0.834127665267816)" /><path d="M0,0 m-30,0 a30,30 0 1,0 60,0 a30,30 0 1,0 -60,0" fill="none" stroke="black" transform="translate(227.7187116732188,117.79195803213437) rotate(170.6512632107217) scale(0.5838893656874712)" /></g><g><path d="M0,0 m-30,0 a30,30 0 1,0 60,0 a30,30 0 1,0 -60,0" fill="none" stroke="black" transform="translate(227.22468976603184,254.77937906011357) rotate(225.8397934182808) scale(0.9283388282487673)" /><path d="M0,0 m-30,0 a30,30 0 1,0 60,0 a30,30 0 1,0 -60,0" fill="none" stroke="black" transform="translate(227.22468976603184,254.77937906011357) rotate(225.8397934182808) scale(0.6498371797741371)" /><path d="M0,0 m-30,0 a30,30 0 1,0 60,0 a30,30 0 1,0 -60,0" fill="none" stroke="black" transform="translate(227.22468976603184,254.77937906011357) rotate(225.8397934182808) scale(0.37133553129950697)" /></g><g><path d="M0,0 m-30,0 a30,30 0 1,0 60,0 a30,30 0 1,0 -60,0" fill="none" stroke="black" transform="translate(260.18020133939984,99.09582498663156) rotate(92.05992735010736) scale(1.2159786377230994)" /><path d="M0,0 m-30,0 a30,30 0 1,0 60,0 a30,30 0 1,0 -60,0" fill="none" stroke="black" transform="translate(260.18020133939984,99.09582498663156) rotate(92.05992735010736) scale(0.8511850464061695)" /><path d="M0,0 m-30,0 a30,30 0 1,0 60,0 a30,30 0 1,0 -60,0" fill="none" stroke="black" transform="translate(260.18020133939984,99.09582498663156) rotate(92.05992735010736) scale(0.4863914550892398)" /></g><path d="M-30,-20 h60 v40 h-60 Z" fill="none" stroke="black" transform="translate(307.2087594303934,200.63437295470885) rotate(353.60058090724294) scale(0.959137522265514)" /><path d="M-30,-20 h60 v40 h-60 Z" fill="none" stroke="black" transform="translate(91.75282732945931,151.32635030192063) rotate(191.57701916086913) scale(0.9336506467150667)" /><g><path d="M0.0,-30.0 L8.8,-12.1 L28.5,-9.3 L14.3,4.6 L17.6,24.3 L0.0,15.0 L-17.6,24.3 L-14.3,4.6 L-28.5,-9.3 L-8.8,-12.1 Z" fill="none" stroke="black" transform="translate(173.08881442821382,101.60589773997795) rotate(252.29297217925472) scale(1.249411127042884)" /><path d="M0.0,-30.0 L8.8,-12.1 L28.5,-9.3 L14.3,4.6 L17.6,24.3 L0.0,15.0 L-17.6,24.3 L-14.3,4.6 L-28.5,-9.3 L-8.8,-12.1 Z" fill="none" stroke="black" transform="translate(173.08881442821382,101.60589773997795) rotate(252.29297217925472) scale(0.8745877889300188)" /><path d="M0.0,-30.0 L8.8,-12.1 L28.5,-9.3 L14.3,4.6 L17.6,24.3 L0.0,15.0 L-17.6,24.3 L-14.3,4.6 L-28.5,-9.3 L-8.8,-12.1 Z" fill="none" stroke="black" transform="translate(173.08881442821382,101.60589773997795) rotate(252.29297217925472) scale(0.49976445081715365)" /></g><path d="M0.0,-30.0 L8.8,-12.1 L28.5,-9.3 L14.3,4.6 L17.6,24.3 L0.0,15.0 L-17.6,24.3 L-14.3,4.6 L-28.5,-9.3 L-8.8,-12.1 Z" fill="none" stroke="black" transform="translate(340.92286760238744,229.6539307375519) rotate(115.16318951024896) scale(0.812940526018523)" /><g><path d="M0.0,-30.0 L8.8,-12.1 L28.5,-9.3 L14.3,4.6 L17.6,24.3 L0.0,15.0 L-17.6,24.3 L-14.3,4.6 L-28.5,-9.3 L-8.8,-12.1 Z" fill="none" stroke="black" transform="translate(276.0922611802274,220.58441113305446) rotate(6.70960166748686) scale(0.8046056846536774)" /><path d="M0.0,-30.0 L8.8,-12.1 L28.5,-9.3 L14.3,4.6 L17.6,24.3 L0.0,15.0 L-17.6,24.3 L-14.3,4.6 L-28.5,-9.3 L-8.8,-12.1 Z" fill="none" stroke="black" transform="translate(276.0922611802274,220.58441113305446) rotate(6.70960166748686) scale(0.5632239792575742)" /><path d="M0.0,-30.0 L8.8,-12.1 L28.5,-9.3 L14.3,4.6 L17.6,24.3 L0.0,15.0 L-17.6,24.3 L-14.3,4.6 L-28.5,-9.3 L-8.8,-12.1 Z" fill="none" stroke="black" transform="translate(276.0922611802274,220.58441113305446) rotate(6.70960166748686) scale(0.321842273861471)" /></g><path d="M0.0,-30.0 L8.8,-12.1 L28.5,-9.3 L14.3,4.6 L17.6,24.3 L0.0,15.0 L-17.6,24.3 L-14.3,4.6 L-28.5,-9.3 L-8.8,-12.1 Z" fill="none" stroke="black" transform="translate(319.61164079799914,94.77720181017243) rotate(352.07393375600606) scale(0.9048290848783935)" /><path d="M0.0,-30.0 L8.8,-12.1 L28.5,-9.3 L14.3,4.6 L17.6,24.3 L0.0,15.0 L-17.6,24.3 L-14.3,4.6 L-28.5,-9.3 L-8.8,-12.1 Z" fill="none" stroke="black" transform="translate(242.1233612297126,161.5275185273752) rotate(264.0871677536394) scale(0.8737827805644209)" /><g><path d="M0,-30 L30,30 L-30,30 Z" fill="none" stroke="black" transform="translate(71.0778635970655,301.7578546917502) rotate(17.373629985209583) scale(0.9294248886482613)" /><path d="M0,-30 L30,30 L-30,30 Z" fill="none" stroke="black" transform="translate(71.0778635970655,301.7578546917502) rotate(17.373629985209583) scale(0.6505974220537829)" /><path d="M0,-30 L30,30 L-30,30 Z" fill="none" stroke="black" transform="translate(71.0778635970655,301.7578546917502) rotate(17.373629985209583) scale(0.3717699554593046)" /></g><path d="M0,-30 L30,30 L-30,30 Z" fill="none" stroke="black" transform="translate(301.39154810527384,164.01811382222365) rotate(47.40896518515714) scale(1.131488627648753)" /><path d="M0,-30 L30,30 L-30,30 Z" fill="none" stroke="black" transform="translate(306.1522847340361,227.0541338593839) rotate(80.2909931803933) scale(0.8453435430823506)" /><path d="M0,-30 L30,30 L-30,30 Z" fill="none" stroke="black" transform="translate(146.85712431423286,73.73841973350986) rotate(174.97706403083478) scale(0.8231020058958027)" /></svg>