<svg baseProfile="full" height="400" version="1.1" width="400" xmlns="http://www.w3.org/2000/svg" xmlns:ev="http://www.w3.org/2001/xml-events" xmlns:xlink="http://www.w3.org/1999/xlink"><defs /><rect fill="white" height="100%" width="100%" x="0" y="0" /><path d="M30,0 L15,-26 L-15,-26 L-30,0 L-15,26 L15,26 Z" fill="none" stroke="black" transform="translate(102.28233783884198,157.33639193002338) rotate(277.233358020906) scale(1.204568413344258)" /><g><path d="M30,0 L15,-26 L-15,-26 L-30,0 L-15,26 L15,26 Z" fill="none" stroke="black" transform="translate(277.23715267423745,183.8707918836817) rotate(213.74989684507224) scale(1.5210727820622854)" /><path d="M30,0 L15,-26 L-15,-26 L-30,0 L-15,26 L15,26 Z" fill="none" stroke="black" transform="translate(277.23715267423745,183.8707918836817) rotate(213.74989684507224) scale(1.0647509474435997)" /><path d="M30,0 L15,-26 L-15,-26 L-30,0 L-15,26 L15,26 Z" fill="none" stroke="black" transform="translate(277.23715267423745,183.8707918836817) rotate(213.74989684507224) scale(0.6084291128249142)" /></g><g><path d="M30,0 L15,-26 L-15,-26 L-30,0 L-15,26 L15,26 Z" fill="none" stroke="black" transform="translate(168.67913533815852,144.3824439661734) rotate(113.96531687469565) scale(1.0035695225531924)" /><path d="M30,0 L15,-26 L-15,-26 L-30,0 L-15,26 L15,26 Z" fill="none" stroke="black" transform="translate(168.67913533815852,144.3824439661734) rotate(113.96531687469565) scale(0.7024986657872346)" /></g><path d="M30,0 L15,-26 L-15,-26 L-30,0 L-15,26 L15,26 Z" fill="none" stroke="black" transform="translate(97.24725571589303,235.86208906524539) rotate(284.30154435952716) scale(0.8253911794576978)" /><path d="M30,0 L15,-26 L-15,-26 L-30,0 L-15,26 L15,26 Z" fill="none" stroke="black" transform="translate(261.94480823920867,333.8116411705877) rotate(114.92414603743428) scale(0.8512525487446543)" /><g><path d="M0,0 m-30,0 a30,30 0 1,0 60,0 a30,30 0 1,0 -60,0" fill="none" stroke="black" transform="translate(133.02444223863546,91.29698781498024) rotate(345.6934111780363) scale(0.8152507801211919)" /><path d="M0,0 m-30,0 a30,30 0 1,0 60,0 a30,30 0 1,0 -60,0" fill="none" stroke="black" transform="translate(133.02444223863546,91.29698781498024) rotate(345.6934111780363) scale(0.5706755460848343)" /><path d="M0,0 m-30,0 a30,30 0 1,0 60,0 a30,30 0 1,0 -60,0" fill="none" stroke="black" transform="translate(133.02444223863546,91.29698781498024) rotate(345.6934111780363) scale(0.3261003120484768)" /></g><path d="M0,0 m-30,0 a30,30 0 1,0 60,0 a30,30 0 1,0 -60,0" fill="none" stroke="black" transform="translate(140.98935164694424,224.2699860730197) rotate(273.16322406290664) scale(1.2378055389061682)" /><path d="M0,0 m-30,0 a30,30 0 1,0 60,0 a30,30 0 1,0 -60,0" fill="none" stroke="black" transform="translate(116.97154445379995,277.63282019531107) rotate(185.66254202892517) scale(1.3696513251106248)" /><path d="M0,0 m-30,0 a30,30 0 1,0 60,0 a30,30 0 1,0 -60,0" fill="none" stroke="black" transform="translate(156.7089594587668,77.74667602236553) rotate(337.14244431878564) scale(0.8979737090786558)" /><path d="M0,0 m-30,0 a30,30 0 1,0 60,0 a30,30 0 1,0 -60,0" fill="none" stroke="black" transform="translate(219.11830198676273,267.3933001684337) rotate(52.23777581125001) scale(1.7087227262411755)" /><g><path d="M0,0 m-30,0 a30,30 0 1,0 60,0 a30,30 0 1,0 -60,0" fill="none" stroke="black" transform="translate(295.01995157672684,257.47235891913857) rotate(130.25359004064597) scale(1.0259583904814176)" /><path d="M0,0 m-30,0 a30,30 0 1,0 60,0 a30,30 0 1,0 -60,0" fill="none" stroke="black" transform="translate(295.01995157672684,257.47235891913857) rotate(130.25359004064597) scale(0.7181708733369923)" /></g><g><path d="M-30,-20 h60 v40 h-60 Z" fill="none" stroke="black" transform="translate(205.20251641257548,107.27394075895043) rotate(31.824102762273544) scale(0.9509054589282424)" /><path d="M-30,-20 h60 v40 h-60 Z" fill="none" stroke="black" transform="translate(205.20251641257548,107.27394075895043) rotate(31.824102762273544) scale(0.6656338212497697)" /></g><path d="M-30,-20 h60 v40 h-60 Z" fill="none" stroke="black" transform="translate(262.0175401130775,102.68890931892292) rotate(232.74619123119763) scale(1.351267398498392)" /><g><path d="M-30,-20 h60 v40 h-60 Z" fill="none" stroke="black" transform="translate(183.91792313825658,309.6198068307957) rotate(335.77381020809503) scale(0.8414326780796503)" /><path d="M-30,-20 h60 v40 h-60 Z" fill="none" stroke="black" transform="translate(183.91792313825658,309.6198068307957) rotate(335.77381020809503) scale(0.5890028746557552)" /></g></svg>