<svg baseProfile="full" height="400" version="1.1" width="400" xmlns="http://www.w3.org/2000/svg" xmlns:ev="http://www.w3.org/2001/xml-events" xmlns:xlink="http://www.w3.org/1999/xlink"><defs /><rect fill="white" height="100%" width="100%" x="0" y="0" /><g><path d="M0,-30 L30,30 L-30,30 Z" fill="none" stroke="black" transform="translate(254.39398770082371,265.0675979296052) rotate(84.37984403236423) scale(1.451148950957007)" /><path d="M0,-30 L30,30 L-30,30 Z" fill="none" stroke="black" transform="translate(254.39398770082371,265.0675979296052) rotate(84.37984403236423) scale(1.015804265669905)" /><path d="M0,-30 L30,30 L-30,30 Z" fill="none" stroke="black" transform="translate(254.39398770082371,265.0675979296052) rotate(84.37984403236423) scale(0.5804595803828029)" /></g><path d="M0,-30 L30,30 L-30,30 Z" fill="none" stroke="black" transform="translate(195.1544699806434,178.18839006328318) rotate(259.79364756371774) scale(1.1281438000530934)" /><g><path d="M0,-30 L30,30 L-30,30 Z" fill="none" stroke="black" transform="translate(126.93653521613139,201.00584339455844) rotate(278.29961193850386) scale(1.433338586785947)" /><path d="M0,-30 L30,30 L-30,30 Z" fill="none" stroke="black" transform="translate(126.93653521613139,201.00584339455844) rotate(278.29961193850386) scale(1.003337010750163)" /><path d="M0,-30 L30,30 L-30,30 Z" fill="none" stroke="black" transform="translate(126.93653521613139,201.00584339455844) rotate(278.29961193850386) scale(0.5733354347143788)" /></g><g><path d="M0,-30 L30,30 L-30,30 Z" fill="none" stroke="black" transform="translate(300.2563819494694,149.26078746605515) rotate(141.08753051088365) scale(1.0078866005180618)" /><path d="M0,-30 L30,30 L-30,30 Z" fill="none" stroke="black" transform="translate(300.2563819494694,149.26078746605515) rotate(141.08753051088365) scale(0.7055206203626432)" /><path d="M0,-30 L30,30 L-30,30 Z" fill="none" stroke="black" transform="translate(300.2563819494694,149.26078746605515) rotate(141.08753051088365) scale(0.40315464020722475)" /></g><g><path d="M0,-30 L30,30 L-30,30 Z" fill="none" stroke="black" transform="translate(142.3387769900222,94.61344849861607) rotate(194.27548560115252) scale(1.1946137720863355)" /><path d="M0,-30 L30,30 L-30,30 Z" fill="none" stroke="black" transform="translate(142.3387769900222,94.61344849861607) rotate(194.27548560115252) scale(0.8362296404604348)" /></g><path d="M0,-30 L30,30 L-30,30 Z" fill="none" stroke="black" transform="translate(313.5466221036239,197.73927668542225) rotate(231.75350529116915) scale(0.8957755718376738)" /><path d="M0,-30 L30,30 L-30,30 Z" fill="none" stroke="black" transform="translate(166.5787712019104,270.64161717052554) rotate(220.08391874474302) scale(1.0500397942447972)" /><path d="M0,0 m-30,0 a30,30 0 1,0 60,0 a30,30 0 1,0 -60,0" fill="none" stroke="black" transform="translate(258.40047587475135,74.61015257761142) rotate(162.48956210393558) scale(0.8494611321768059)" /><path d="M30,0 L15,-26 L-15,-26 L-30,0 L-15,26 L15,26 Z" fill="none" stroke="black" transform="translate(236.76236950777383,329.0148278922111) rotate(245.03097131493945) scale(0.9207223215622035)" /><g><path d="M30,0 L15,-26 L-15,-26 L-30,0 L-15,26 L15,26 Z" fill="none" stroke="black" transform="translate(77.4128915528009,281.42002004711117) rotate(320.18597216502405) scale(1.01051599642995)" /><path d="M30,0 L15,-26 L-15,-26 L-30,0 L-15,26 L15,26 Z" fill="none" stroke="black" transform="translate(77.4128915528009,281.42002004711117) rotate(320.18597216502405) scale(0.7073611975009649)" /></g><g><path d="M30,0 L15,-26 L-15,-26 L-30,0 L-15,26 L15,26 Z" fill="none" stroke="black" transform="translate(251.00357029868513,176.39574496467736) rotate(265.5760061491802) scale(0.8839346395244012)" /><path d="M30,0 L15,-26 L-15,-26 L-30,0 L-15,26 L15,26 Z" fill="none" stroke="black" transform="translate(251.00357029868513,176.39574496467736) rotate(265.5760061491802) scale(0.6187542476670808)" /></g><path d="M30,0 L15,-26 L-15,-26 L-30,0 L-15,26 L15,26 Z" fill="none" stroke="black" transform="translate(314.5410067557449,324.81099758041125) rotate(245.61801135057334) scale(1.0013706214285927)" /><g><path d="M30,0 L15,-26 L-15,-26 L-30,0 L-15,26 L15,26 Z" fill="none" stroke="black" transform="translate(84.11962924752416,71.30197919521808) rotate(317.62751881065464) scale(0.8615304666537433)" /><path d="M30,0 L15,-26 L-15,-26 L-30,0 L-15,26 L15,26 Z" fill="none" stroke="black" transform="translate(84.11962924752416,71.30197919521808) rotate(317.62751881065464) scale(0.6030713266576203)" /><path d="M30,0 L15,-26 L-15,-26 L-30,0 L-15,26 L15,26 Z" fill="none" stroke="black" transform="translate(84.11962924752416,71.30197919521808) rotate(317.62751881065464) scale(0.34461218666149734)" /></g><g><path d="M30,0 L15,-26 L-15,-26 L-30,0 L-15,26 L15,26 Z" fill="none" stroke="black" transform="translate(145.4635194289453,319.4294492114208) rotate(118.0648668819736) scale(1.0854315710826419)" /><path d="M30,0 L15,-26 L-15,-26 L-30,0 L-15,26 L15,26 Z" fill="none" stroke="black" transform="translate(145.4635194289453,319.4294492114208) rotate(118.0648668819736) scale(0.7598020997578493)" /></g></svg>