<svg baseProfile="full" height="400" version="1.1" width="400" xmlns="http://www.w3.org/2000/svg" xmlns:ev="http://www.w3.org/2001/xml-events" xmlns:xlink="http://www.w3.org/1999/xlink"><defs /><rect fill="white" height="100%" width="100%" x="0" y="0" /><path d="M0,-30 L30,30 L-30,30 Z" fill="none" stroke="black" transform="translate(191.8929345653686,223.6882335701388) rotate(268.7714747501752) scale(1.0169567549955099)" /><path d="M0,-30 L30,30 L-30,30 Z" fill="none" stroke="black" transform="translate(264.8644109768813,274.52386076857204) rotate(325.93696634528646) scale(1.700994771679206)" /><g><path d="M0,-30 L30,30 L-30,30 Z" fill="none" stroke="black" transform="translate(122.41815469045969,279.6614607765447) rotate(305.3346274920386) scale(0.9652591541277132)" /><path d="M0,-30 L30,30 L-30,30 Z" fill="none" stroke="black" transform="translate(122.41815469045969,279.6614607765447) rotate(305.3346274920386) scale(0.6756814078893992)" /></g><path d="M0,-30 L30,30 L-30,30 Z" fill="none" stroke="black" transform="translate(147.55876178343453,199.15059456409838) rotate(270.76650429371784) scale(0.820048102195594)" /><g><path d="M0,-30 L30,30 L-30,30 Z" fill="none" stroke="black" transform="translate(258.7917406656638,69.82317978115114) rotate(15.098823655202871) scale(0.8450635413326364)" /><path d="M0,-30 L30,30 L-30,30 Z" fill="none" stroke="black" transform="translate(258.7917406656638,69.82317978115114) rotate(15.098823655202871) scale(0.5915444789328455)" /></g><path d="M27.7,-11.5 L27.7,11.5 L11.5,27.7 L-11.5,27.7 L-27.7,11.5 L-27.7,-11.5 L-11.5,-27.7 L11.5,-27.7 Z" fill="none" stroke="black" transform="translate(325.0355409369827,108.98101168207178) rotate(280.78032295136006) scale(0.9978769760195132)" /><path d="M27.7,-11.5 L27.7,11.5 L11.5,27.7 L-11.5,27.7 L-27.7,11.5 L-27.7,-11.5 L-11.5,-27.7 L11.5,-27.7 Z" fill="none" stroke="black" transform="translate(85.62836899414056,131.63182433191434) rotate(279.24478956459086) scale(1.0247747490080772)" /><path d="M27.7,-11.5 L27.7,11.5 L11.5,27.7 L-11.5,27.7 L-27.7,11.5 L-27.7,-11.5 L-11.5,-27.7 L11.5,-27.7 Z" fill="none" stroke="black" transform="translate(99.37324434531865,107.87223645248525) rotate(195.55266387128535) scale(1.02678187860941)" /><path d="M27.7,-11.5 L27.7,11.5 L11.5,27.7 L-11.5,27.7 L-27.7,11.5 L-27.7,-11.5 L-11.5,-27.7 L11.5,-27.7 Z" fill="none" stroke="black" transform="translate(240.35439700070532,178.18509242866736) rotate(278.69456215436463) scale(1.1193247745335593)" /><path d="M27.7,-11.5 L27.7,11.5 L11.5,27.7 L-11.5,27.7 L-27.7,11.5 L-27.7,-11.5 L-11.5,-27.7 L11.5,-27.7 Z" fill="none" stroke="black" transform="translate(172.6751748454375,98.30335775913254) rotate(99.20755520529858) scale(1.0021011901903416)" /><path d="M0.0,-30.0 L28.5,-9.3 L17.6,24.3 L-17.6,24.3 L-28.5,-9.3 Z" fill="none" stroke="black" transform="translate(93.74144495602995,297.3400159065144) rotate(43.355801519948386) scale(0.9820319396223955)" /><path d="M30,0 L15,-26 L-15,-26 L-30,0 L-15,26 L15,26 Z" fill="none" stroke="black" transform="translate(236.83152175080448,121.70842803804885) rotate(124.12876436807588) scale(1.3686097995740782)" /><path d="M0,0 m-30,0 a30,30 0 1,0 60,0 a30,30 0 1,0 -60,0" fill="none" stroke="black" transform="translate(314.9226616945024,157.3605550395394) rotate(19.49818360783094) scale(0.9592378641121371)" /><path d="M0,0 m-30,0 a30,30 0 1,0 60,0 a30,30 0 1,0 -60,0" fill="none" stroke="black" transform="translate(177.00064628553162,308.67070958876724) rotate(142.61786434562666) scale(1.099797371988408)" /><g><path d="M0,0 m-30,0 a30,30 0 1,0 60,0 a30,30 0 1,0 -60,0" fill="none" stroke="black" transform="translate(150.67626129531595,275.8605484872604) rotate(24.17226174982502) scale(0.8706731498301133)" /><path d="M0,0 m-30,0 a30,30 0 1,0 60,0 a30,30 0 1,0 -60,0" fill="none" stroke="black" transform="translate(150.67626129531595,275.8605484872604) rotate(24.17226174982502) scale(0.6094712048810793)" /><path d="M0,0 m-30,0 a30,30 0 1,0 60,0 a30,30 0 1,0 -60,0" fill="none" stroke="black" transform="translate(150.67626129531595,275.8605484872604) rotate(24.17226174982502) scale(0.3482692599320454)" /></g><path d="M-30,-20 h60 v40 h-60 Z" fill="none" stroke="black" transform="translate(146.41713386548832,145.34197677839163) rotate(312.6960642775089) scale(1.218401968413517)" /><g><path d="M-30,-20 h60 v40 h-60 Z" fill="none" stroke="black" transform="translate(329.95176065271545,271.95433276207063) rotate(164.36491754688683) scale(0.9475573460937003)" /><path d="M-30,-20 h60 v40 h-60 Z" fill="none" stroke="black" transform="translate(329.95176065271545,271.95433276207063) rotate(164.36491754688683) scale(0.6632901422655902)" /></g><path d="M-30,-20 h60 v40 h-60 Z" fill="none" stroke="black" transform="translate(284.94988007900866,104.57122721311967) rotate(189.44171359044012) scale(0.885417945184398)" /><path d="M0.0,-30.0 L8.8,-12.1 L28.5,-9.3 L14.3,4.6 L17.6,24.3 L0.0,15.0 L-17.6,24.3 L-14.3,4.6 L-28.5,-9.3 L-8.8,-12.1 Z" fill="none" stroke="black" transform="translate(79.10838165324564,73.2347650547713) rotate(12.630676654267067) scale(0.8850409948139176)" /><g><path d="M0.0,-30.0 L8.8,-12.1 L28.5,-9.3 L14.3,4.6 L17.6,24.3 L0.0,15.0 L-17.6,24.3 L-14.3,4.6 L-28.5,-9.3 L-8.8,-12.1 Z" fill="none" stroke="black" transform="translate(274.68716486350667,150.81431221298405) rotate(114.52403952787816) scale(1.2085893626804822)" /><path d="M0.0,-30.0 L8.8,-12.1 L28.5,-9.3 L14.3,4.6 L17.6,24.3 L0.0,15.0 L-17.6,24.3 L-14.3,4.6 L-28.5,-9.3 L-8.8,-12.1 Z" fill="none" stroke="black" transform="translate(274.68716486350667,150.81431221298405) rotate(114.52403952787816) scale(0.8460125538763376)" /></g><g><path d="M0.0,-30.0 L8.8,-12.1 L28.5,-9.3 L14.3,4.6 L17.6,24.3 L0.0,15.0 L-17.6,24.3 L-14.3,4.6 L-28.5,-9.3 L-8.8,-12.1 Z" fill="none" stroke="black" transform="translate(182.0734165066626,173.18867605128463) rotate(251.92243488340947) scale(1.0276891354282718)" /><path d="M0.0,-30.0 L8.8,-12.1 L28.5,-9.3 L14.3,4.6 L17.6,24.3 L0.0,15.0 L-17.6,24.3 L-14.3,4.6 L-28.5,-9.3 L-8.8,-12.1 Z" fill="none" stroke="black" transform="translate(182.0734165066626,173.18867605128463) rotate(251.92243488340947) scale(0.7193823947997902)" /></g><path d="M0.0,-30.0 L8.8,-12.1 L28.5,-9.3 L14.3,4.6 L17.6,24.3 L0.0,15.0 L-17.6,24.3 L-14.3,4.6 L-28.5,-9.3 L-8.8,-12.1 Z" fill="none" stroke="black" transform="translate(197.33204514939445,287.6069157402817) rotate(58.6248096430552) scale(1.0342500707591193)" /><path d="M0.0,-30.0 L8.8,-12.1 L28.5,-9.3 L14.3,4.6 L17.6,24.3 L0.0,15.0 L-17.6,24.3 L-14.3,4.6 L-28.5,-9.3 L-8.8,-12.1 Z" fill="none" stroke="black" transform="translate(122.47234170731178,234.82073289828344) rotate(112.07344479605104) scale(1.3646036847515286)" /><path d="M0.0,-30.0 L8.8,-12.1 L28.5,-9.3 L14.3,4.6 L17.6,24.3 L0.0,15.0 L-17.6,24.3 L-14.3,4.6 L-28.5,-9.3 L-8.8,-12.1 Z" fill="none" stroke="black" transform="translate(63.98202552225694,152.0399506732005) rotate(145.99448985716208) scale(0.844426347272916)" /></svg>