<svg baseProfile="full" height="400" version="1.1" width="400" xmlns="http://www.w3.org/2000/svg" xmlns:ev="http://www.w3.org/2001/xml-events" xmlns:xlink="http://www.w3.org/1999/xlink"><defs /><rect fill="white" height="100%" width="100%" x="0" y="0" /><g><path d="M27.7,-11.5 L27.7,11.5 L11.5,27.7 L-11.5,27.7 L-27.7,11.5 L-27.7,-11.5 L-11.5,-27.7 L11.5,-27.7 Z" fill="none" stroke="black" transform="translate(156.31134403469082,138.579531514984) rotate(107.81233946239173) scale(1.8621126524107279)" /><path d="M27.7,-11.5 L27.7,11.5 L11.5,27.7 L-11.5,27.7 L-27.7,11.5 L-27.7,-11.5 L-11.5,-27.7 L11.5,-27.7 Z" fill="none" stroke="black" transform="translate(156.31134403469082,138.579531514984) rotate(107.81233946239173) scale(1.3034788566875095)" /><path d="M27.7,-11.5 L27.7,11.5 L11.5,27.7 L-11.5,27.7 L-27.7,11.5 L-27.7,-11.5 L-11.5,-27.7 L11.5,-27.7 Z" fill="none" stroke="black" transform="translate(156.31134403469082,138.579531514984) rotate(107.81233946239173) scale(0.7448450609642912)" /></g><g><path d="M27.7,-11.5 L27.7,11.5 L11.5,27.7 L-11.5,27.7 L-27.7,11.5 L-27.7,-11.5 L-11.5,-27.7 L11.5,-27.7 Z" fill="none" stroke="black" transform="translate(171.0663337373828,281.1066577316982) rotate(226.2999782660093) scale(1.3096430347199424)" /><path d="M27.7,-11.5 L27.7,11.5 L11.5,27.7 L-11.5,27.7 L-27.7,11.5 L-27.7,-11.5 L-11.5,-27.7 L11.5,-27.7 Z" fill="none" stroke="black" transform="translate(171.0663337373828,281.1066577316982) rotate(226.2999782660093) scale(0.9167501243039596)" /><path d="M27.7,-11.5 L27.7,11.5 L11.5,27.7 L-11.5,27.7 L-27.7,11.5 L-27.7,-11.5 L-11.5,-27.7 L11.5,-27.7 Z" fill="none" stroke="black" transform="translate(171.0663337373828,281.1066577316982) rotate(226.2999782660093) scale(0.523857213887977)" /></g><path d="M0,-30 L30,30 L-30,30 Z" fill="none" stroke="black" transform="translate(118.42309450325976,298.4986960104686) rotate(201.7012149406088) scale(0.854323444727441)" /><path d="M0,-30 L30,30 L-30,30 Z" fill="none" stroke="black" transform="translate(73.0626527623589,275.4304224182866) rotate(82.75125020363329) scale(0.8984270335471356)" /><path d="M0,-30 L30,30 L-30,30 Z" fill="none" stroke="black" transform="translate(97.79568976522792,208.33923680178486) rotate(298.71251926493835) scale(0.947933921913173)" /><path d="M0,0 m-30,0 a30,30 0 1,0 60,0 a30,30 0 1,0 -60,0" fill="none" stroke="black" transform="translate(269.38292963927137,164.02204825498032) rotate(252.53760245131926) scale(1.2888396050697)" /><path d="M0.0,-30.0 L8.8,-12.1 L28.5,-9.3 L14.3,4.6 L17.6,24.3 L0.0,15.0 L-17.6,24.3 L-14.3,4.6 L-28.5,-9.3 L-8.8,-12.1 Z" fill="none" stroke="black" transform="translate(319.8421894359412,148.7087891103957) rotate(271.5695976181662) scale(1.0792125089162758)" /><g><path d="M0.0,-30.0 L28.5,-9.3 L17.6,24.3 L-17.6,24.3 L-28.5,-9.3 Z" fill="none" stroke="black" transform="translate(268.7331771544913,253.93860012287766) rotate(193.8151349942463) scale(1.6728946432387115)" /><path d="M0.0,-30.0 L28.5,-9.3 L17.6,24.3 L-17.6,24.3 L-28.5,-9.3 Z" fill="none" stroke="black" transform="translate(268.7331771544913,253.93860012287766) rotate(193.8151349942463) scale(1.171026250267098)" /></g><path d="M0.0,-30.0 L28.5,-9.3 L17.6,24.3 L-17.6,24.3 L-28.5,-9.3 Z" fill="none" stroke="black" transform="translate(89.361454240303,102.83824379479599) rotate(305.91550824988474) scale(1.095734228110369)" /><g><path d="M0.0,-30.0 L28.5,-9.3 L17.6,24.3 L-17.6,24.3 L-28.5,-9.3 Z" fill="none" stroke="black" transform="translate(201.57325887980875,322.62775431350076) rotate(5.119216025398772) scale(0.8988564888757447)" /><path d="M0.0,-30.0 L28.5,-9.3 L17.6,24.3 L-17.6,24.3 L-28.5,-9.3 Z" fill="none" stroke="black" transform="translate(201.57325887980875,322.62775431350076) rotate(5.119216025398772) scale(0.6291995422130212)" /></g><path d="M-30,-20 h60 v40 h-60 Z" fill="none" stroke="black" transform="translate(136.10538031227568,247.66408816853857) rotate(224.5530934042316) scale(1.0773643179782915)" /><path d="M-30,-20 h60 v40 h-60 Z" fill="none" stroke="black" transform="translate(229.16440205463397,83.70400895277201) rotate(342.50110696032965) scale(1.1615714520901035)" /><path d="M-30,-20 h60 v40 h-60 Z" fill="none" stroke="black" transform="translate(319.0458365995344,69.99926269195564) rotate(42.014240390964275) scale(0.9342393297938323)" /><path d="M30,0 L15,-26 L-15,-26 L-30,0 L-15,26 L15,26 Z" fill="none" stroke="black" transform="translate(257.6893036192748,333.27355602941975) rotate(44.1619189330727) scale(0.8169865121055155)" /><g><path d="M30,0 L15,-26 L-15,-26 L-30,0 L-15,26 L15,26 Z" fill="none" stroke="black" transform="translate(281.3202213830825,98.34773971872542) rotate(307.0276361238861) scale(0.8031780230461361)" /><path d="M30,0 L15,-26 L-15,-26 L-30,0 L-15,26 L15,26 Z" fill="none" stroke="black" transform="translate(281.3202213830825,98.34773971872542) rotate(307.0276361238861) scale(0.5622246161322952)" /></g></svg>