<svg baseProfile="full" height="400" version="1.1" width="400" xmlns="http://www.w3.org/2000/svg" xmlns:ev="http://www.w3.org/2001/xml-events" xmlns:xlink="http://www.w3.org/1999/xlink"><defs /><rect fill="white" height="100%" width="100%" x="0" y="0" /><path d="M0,0 m-30,0 a30,30 0 1,0 60,0 a30,30 0 1,0 -60,0" fill="none" stroke="black" transform="translate(190.512962066795,252.55781736016746) rotate(33.69076435975637) scale(1.4911153944005398)" /><path d="M0,0 m-30,0 a30,30 0 1,0 60,0 a30,30 0 1,0 -60,0" fill="none" stroke="black" transform="translate(103.78679708286106,86.38441756644649) rotate(327.96086188079227) scale(0.9842605608489721)" /><g><path d="M0,0 m-30,0 a30,30 0 1,0 60,0 a30,30 0 1,0 -60,0" fill="none" stroke="black" transform="translate(186.947724680237,124.05430896764655) rotate(177.30048168528938) scale(1.2904568572402462)" /><path d="M0,0 m-30,0 a30,30 0 1,0 60,0 a30,30 0 1,0 -60,0" fill="none" stroke="black" transform="translate(186.947724680237,124.05430896764655) rotate(177.30048168528938) scale(0.9033198000681723)" /><path d="M0,0 m-30,0 a30,30 0 1,0 60,0 a30,30 0 1,0 -60,0" fill="none" stroke="black" transform="translate(186.947724680237,124.05430896764655) rotate(177.30048168528938) scale(0.5161827428960984)" /></g><path d="M0,0 m-30,0 a30,30 0 1,0 60,0 a30,30 0 1,0 -60,0" fill="none" stroke="black" transform="translate(307.72044817527143,117.88596136858638) rotate(175.2627655254047) scale(0.8420431026940551)" /><g><path d="M0,0 m-30,0 a30,30 0 1,0 60,0 a30,30 0 1,0 -60,0" fill="none" stroke="black" transform="translate(114.00394036507859,276.785425500298) rotate(72.58133249721891) scale(1.073092333117035)" /><path d="M0,0 m-30,0 a30,30 0 1,0 60,0 a30,30 0 1,0 -60,0" fill="none" stroke="black" transform="translate(114.00394036507859,276.785425500298) rotate(72.58133249721891) scale(0.7511646331819245)" /></g><g><path d="M0,-30 L30,30 L-30,30 Z" fill="none" stroke="black" transform="translate(322.1110181624185,209.13830849220642) rotate(74.74323907581599) scale(0.9794678213099922)" /><path d="M0,-30 L30,30 L-30,30 Z" fill="none" stroke="black" transform="translate(322.1110181624185,209.13830849220642) rotate(74.74323907581599) scale(0.6856274749169945)" /><path d="M0,-30 L30,30 L-30,30 Z" fill="none" stroke="black" transform="translate(322.1110181624185,209.13830849220642) rotate(74.74323907581599) scale(0.3917871285239969)" /></g><g><path d="M0,-30 L30,30 L-30,30 Z" fill="none" stroke="black" transform="translate(281.65245679026594,261.52065880428415) rotate(298.9746649964672) scale(0.9251290039361489)" /><path d="M0,-30 L30,30 L-30,30 Z" fill="none" stroke="black" transform="translate(281.65245679026594,261.52065880428415) rotate(298.9746649964672) scale(0.6475903027553043)" /><path d="M0,-30 L30,30 L-30,30 Z" fill="none" stroke="black" transform="translate(281.65245679026594,261.52065880428415) rotate(298.9746649964672) scale(0.3700516015744596)" /></g><g><path d="M0,-30 L30,30 L-30,30 Z" fill="none" stroke="black" transform="translate(335.40869118653876,83.7688759455639) rotate(135.68491950071586) scale(0.8539710681906332)" /><path d="M0,-30 L30,30 L-30,30 Z" fill="none" stroke="black" transform="translate(335.40869118653876,83.7688759455639) rotate(135.68491950071586) scale(0.5977797477334432)" /></g><path d="M30,0 L15,-26 L-15,-26 L-30,0 L-15,26 L15,26 Z" fill="none" stroke="black" transform="translate(134.64049802289148,195.03723801943147) rotate(308.3543211436144) scale(1.1054133302663494)" /><path d="M30,0 L15,-26 L-15,-26 L-30,0 L-15,26 L15,26 Z" fill="none" stroke="black" transform="translate(256.28009334351424,311.45530621986825) rotate(215.17429789118646) scale(1.2181956615699234)" /><g><path d="M0.0,-30.0 L28.5,-9.3 L17.6,24.3 L-17.6,24.3 L-28.5,-9.3 Z" fill="none" stroke="black" transform="translate(168.7818561956441,336.2479716983157) rotate(24.796891928879926) scale(0.8135032368732952)" /><path d="M0.0,-30.0 L28.5,-9.3 L17.6,24.3 L-17.6,24.3 L-28.5,-9.3 Z" fill="none" stroke="black" transform="translate(168.7818561956441,336.2479716983157) rotate(24.796891928879926) scale(0.5694522658113066)" /></g><path d="M-30,-20 h60 v40 h-60 Z" fill="none" stroke="black" transform="translate(251.08576517139537,207.70964754013698) rotate(218.8347991508487) scale(1.2152812733608305)" /><path d="M-30,-20 h60 v40 h-60 Z" fill="none" stroke="black" transform="translate(102.19925323024019,156.05129002276348) rotate(307.85395188439793) scale(1.0968819813424793)" /><g><path d="M0.0,-30.0 L8.8,-12.1 L28.5,-9.3 L14.3,4.6 L17.6,24.3 L0.0,15.0 L-17.6,24.3 L-14.3,4.6 L-28.5,-9.3 L-8.8,-12.1 Z" fill="none" stroke="black" transform="translate(319.3281490590988,323.1669207099182) rotate(208.24195342516043) scale(0.8685323915103879)" /><path d="M0.0,-30.0 L8.8,-12.1 L28.5,-9.3 L14.3,4.6 L17.6,24.3 L0.0,15.0 L-17.6,24.3 L-14.3,4.6 L-28.5,-9.3 L-8.8,-12.1 Z" fill="none" stroke="black" transform="translate(319.3281490590988,323.1669207099182) rotate(208.24195342516043) scale(0.6079726740572715)" /></g><path d="M0.0,-30.0 L8.8,-12.1 L28.5,-9.3 L14.3,4.6 L17.6,24.3 L0.0,15.0 L-17.6,24.3 L-14.3,4.6 L-28.5,-9.3 L-8.8,-12.1 Z" fill="none" stroke="black" transform="translate(247.24949043796113,89.74698930499297) rotate(193.06563783806138) scale(1.0722167355159975)" /><path d="M27.7,-11.5 L27.7,11.5 L11.5,27.7 L-11.5,27.7 L-27.7,11.5 L-27.7,-11.5 L-11.5,-27.7 L11.5,-27.7 Z" fill="none" stroke="black" transform="translate(249.51340654947023,146.8847478364932) rotate(80.15432834156319) scale(0.9329404438813744)" /><path d="M27.7,-11.5 L27.7,11.5 L11.5,27.7 L-11.5,27.7 L-27.7,11.5 L-27.7,-11.5 L-11.5,-27.7 L11.5,-27.7 Z" fill="none" stroke="black" transform="translate(331.12941749618017,262.6151430506514) rotate(228.73470779335668) scale(0.903120338512449)" /></svg>