<svg baseProfile="full" height="400" version="1.1" width="400" xmlns="http://www.w3.org/2000/svg" xmlns:ev="http://www.w3.org/2001/xml-events" xmlns:xlink="http://www.w3.org/1999/xlink"><defs /><rect fill="white" height="100%" width="100%" x="0" y="0" /><path d="M0.0,-30.0 L8.8,-12.1 L28.5,-9.3 L14.3,4.6 L17.6,24.3 L0.0,15.0 L-17.6,24.3 L-14.3,4.6 L-28.5,-9.3 L-8.8,-12.1 Z" fill="none" stroke="black" transform="translate(285.14455426013336,163.90941645542216) rotate(140.85336787419172) scale(1.3764033464760712)" /><path d="M0.0,-30.0 L8.8,-12.1 L28.5,-9.3 L14.3,4.6 L17.6,24.3 L0.0,15.0 L-17.6,24.3 L-14.3,4.6 L-28.5,-9.3 L-8.8,-12.1 Z" fill="none" stroke="black" transform="translate(229.43024854332995,256.0509368509685) rotate(16.05590815545338) scale(1.895779202952374)" /><path d="M0,-30 L30,30 L-30,30 Z" fill="none" stroke="black" transform="translate(132.9250473805769,269.2022952734761) rotate(69.70493862253079) scale(1.1509547106610571)" /><path d="M0,-30 L30,30 L-30,30 Z" fill="none" stroke="black" transform="translate(112.10313157240823,163.75301927526513) rotate(336.83426926711707) scale(1.4061540666243537)" /><g><path d="M0,-30 L30,30 L-30,30 Z" fill="none" stroke="black" transform="translate(186.27421120546842,170.48900149496723) rotate(274.3593538507668) scale(0.858750645830268)" /><path d="M0,-30 L30,30 L-30,30 Z" fill="none" stroke="black" transform="translate(186.27421120546842,170.48900149496723) rotate(274.3593538507668) scale(0.6011254520811875)" /><path d="M0,-30 L30,30 L-30,30 Z" fill="none" stroke="black" transform="translate(186.27421120546842,170.48900149496723) rotate(274.3593538507668) scale(0.3435002583321072)" /></g><g><path d="M0,-30 L30,30 L-30,30 Z" fill="none" stroke="black" transform="translate(91.64264870000181,119.9167946253757) rotate(137.89990690369805) scale(0.8428650566770642)" /><path d="M0,-30 L30,30 L-30,30 Z" fill="none" stroke="black" transform="translate(91.64264870000181,119.9167946253757) rotate(137.89990690369805) scale(0.590005539673945)" /></g><path d="M30,0 L15,-26 L-15,-26 L-30,0 L-15,26 L15,26 Z" fill="none" stroke="black" transform="translate(85.35733699827924,222.41701538017674) rotate(40.49291882099597) scale(0.8651824761209934)" /><g><path d="M30,0 L15,-26 L-15,-26 L-30,0 L-15,26 L15,26 Z" fill="none" stroke="black" transform="translate(204.94861382181443,96.1879395231154) rotate(21.98895452535804) scale(1.2756143584831863)" /><path d="M30,0 L15,-26 L-15,-26 L-30,0 L-15,26 L15,26 Z" fill="none" stroke="black" transform="translate(204.94861382181443,96.1879395231154) rotate(21.98895452535804) scale(0.8929300509382303)" /><path d="M30,0 L15,-26 L-15,-26 L-30,0 L-15,26 L15,26 Z" fill="none" stroke="black" transform="translate(204.94861382181443,96.1879395231154) rotate(21.98895452535804) scale(0.5102457433932746)" /></g><path d="M27.7,-11.5 L27.7,11.5 L11.5,27.7 L-11.5,27.7 L-27.7,11.5 L-27.7,-11.5 L-11.5,-27.7 L11.5,-27.7 Z" fill="none" stroke="black" transform="translate(167.3829501155074,206.37354106663105) rotate(214.84967435699886) scale(0.9929526297413331)" /><path d="M27.7,-11.5 L27.7,11.5 L11.5,27.7 L-11.5,27.7 L-27.7,11.5 L-27.7,-11.5 L-11.5,-27.7 L11.5,-27.7 Z" fill="none" stroke="black" transform="translate(138.8826956039501,71.27603254755678) rotate(125.80649202349878) scale(0.923789683719165)" /><g><path d="M27.7,-11.5 L27.7,11.5 L11.5,27.7 L-11.5,27.7 L-27.7,11.5 L-27.7,-11.5 L-11.5,-27.7 L11.5,-27.7 Z" fill="none" stroke="black" transform="translate(68.75998959737208,325.90066607788793) rotate(353.63174398485353) scale(0.8009440269031863)" /><path d="M27.7,-11.5 L27.7,11.5 L11.5,27.7 L-11.5,27.7 L-27.7,11.5 L-27.7,-11.5 L-11.5,-27.7 L11.5,-27.7 Z" fill="none" stroke="black" transform="translate(68.75998959737208,325.90066607788793) rotate(353.63174398485353) scale(0.5606608188322304)" /><path d="M27.7,-11.5 L27.7,11.5 L11.5,27.7 L-11.5,27.7 L-27.7,11.5 L-27.7,-11.5 L-11.5,-27.7 L11.5,-27.7 Z" fill="none" stroke="black" transform="translate(68.75998959737208,325.90066607788793) rotate(353.63174398485353) scale(0.3203776107612746)" /></g><path d="M27.7,-11.5 L27.7,11.5 L11.5,27.7 L-11.5,27.7 L-27.7,11.5 L-27.7,-11.5 L-11.5,-27.7 L11.5,-27.7 Z" fill="none" stroke="black" transform="translate(81.86274057518635,284.6947062028992) rotate(275.6250519250499) scale(0.9769337333376951)" /><path d="M27.7,-11.5 L27.7,11.5 L11.5,27.7 L-11.5,27.7 L-27.7,11.5 L-27.7,-11.5 L-11.5,-27.7 L11.5,-27.7 Z" fill="none" stroke="black" transform="translate(309.165806628147,253.62764380844806) rotate(197.01027580864306) scale(1.0675095209747)" /><path d="M27.7,-11.5 L27.7,11.5 L11.5,27.7 L-11.5,27.7 L-27.7,11.5 L-27.7,-11.5 L-11.5,-27.7 L11.5,-27.7 Z" fill="none" stroke="black" transform="translate(288.6717880167941,82.11260556072672) rotate(39.35760607205287) scale(1.0973869494881032)" /><g><path d="M-30,-20 h60 v40 h-60 Z" fill="none" stroke="black" transform="translate(313.1370419139745,315.96785314540693) rotate(106.31088119773136) scale(1.0083692915052171)" /><path d="M-30,-20 h60 v40 h-60 Z" fill="none" stroke="black" transform="translate(313.1370419139745,315.96785314540693) rotate(106.31088119773136) scale(0.7058585040536519)" /></g><g><path d="M-30,-20 h60 v40 h-60 Z" fill="none" stroke="black" transform="translate(325.97879599560724,71.70793461614733) rotate(45.47024169090805) scale(0.8597561656834714)" /><path d="M-30,-20 h60 v40 h-60 Z" fill="none" stroke="black" transform="translate(325.97879599560724,71.70793461614733) rotate(45.47024169090805) scale(0.6018293159784299)" /><path d="M-30,-20 h60 v40 h-60 Z" fill="none" stroke="black" transform="translate(325.97879599560724,71.70793461614733) rotate(45.47024169090805) scale(0.34390246627338855)" /></g><g><path d="M-30,-20 h60 v40 h-60 Z" fill="none" stroke="black" transform="translate(228.8345754422902,189.25738596776884) rotate(204.08773607391893) scale(0.9208879736240788)" /><path d="M-30,-20 h60 v40 h-60 Z" fill="none" stroke="black" transform="translate(228.8345754422902,189.25738596776884) rotate(204.08773607391893) scale(0.6446215815368551)" /><path d="M-30,-20 h60 v40 h-60 Z" fill="none" stroke="black" transform="translate(228.8345754422902,189.25738596776884) rotate(204.08773607391893) scale(0.3683551894496315)" /></g><path d="M0.0,-30.0 L28.5,-9.3 L17.6,24.3 L-17.6,24.3 L-28.5,-9.3 Z" fill="none" stroke="black" transform="translate(185.34737420837814,130.07568946181703) rotate(119.89791114848136) scale(0.8787820594986494)" /><g><path d="M0.0,-30.0 L28.5,-9.3 L17.6,24.3 L-17.6,24.3 L-28.5,-9.3 Z" fill="none" stroke="black" transform="translate(157.16529674357344,315.98271692648945) rotate(46.7163308385767) scale(1.0026243080952562)" /><path d="M0.0,-30.0 L28.5,-9.3 L17.6,24.3 L-17.6,24.3 L-28.5,-9.3 Z" fill="none" stroke="black" transform="translate(157.16529674357344,315.98271692648945) rotate(46.7163308385767) scale(0.7018370156666792)" /><path d="M0.0,-30.0 L28.5,-9.3 L17.6,24.3 L-17.6,24.3 L-28.5,-9.3 Z" fill="none" stroke="black" transform="translate(157.16529674357344,315.98271692648945) rotate(46.7163308385767) scale(0.4010497232381025)" /></g><path d="M0.0,-30.0 L28.5,-9.3 L17.6,24.3 L-17.6,24.3 L-28.5,-9.3 Z" fill="none" stroke="black" transform="translate(123.87966182197462,324.4133356239637) rotate(243.2151688422048) scale(0.8041004936425685)" /><path d="M0.0,-30.0 L28.5,-9.3 L17.6,24.3 L-17.6,24.3 L-28.5,-9.3 Z" fill="none" stroke="black" transform="translate(76.17808573738328,89.13097920861992) rotate(69.5024994061311) scale(0.960735042746558)" /></svg>