<svg baseProfile="full" height="400" version="1.1" width="400" xmlns="http://www.w3.org/2000/svg" xmlns:ev="http://www.w3.org/2001/xml-events" xmlns:xlink="http://www.w3.org/1999/xlink"><defs /><rect fill="white" height="100%" width="100%" x="0" y="0" /><path d="M0,-30 L30,30 L-30,30 Z" fill="none" stroke="black" transform="translate(217.63134535951124,183.96725572073808) rotate(217.12186775345225) scale(1.4913410727836225)" /><g><path d="M0,-30 L30,30 L-30,30 Z" fill="none" stroke="black" transform="translate(313.77588618295994,255.75607304008696) rotate(128.84074372499552) scale(1.045362569456706)" /><path d="M0,-30 L30,30 L-30,30 Z" fill="none" stroke="black" transform="translate(313.77588618295994,255.75607304008696) rotate(128.84074372499552) scale(0.7317537986196941)" /></g><path d="M27.7,-11.5 L27.7,11.5 L11.5,27.7 L-11.5,27.7 L-27.7,11.5 L-27.7,-11.5 L-11.5,-27.7 L11.5,-27.7 Z" fill="none" stroke="black" transform="translate(222.2371992977584,103.24095923994972) rotate(40.11816116655113) scale(1.1034101008378936)" /><path d="M27.7,-11.5 L27.7,11.5 L11.5,27.7 L-11.5,27.7 L-27.7,11.5 L-27.7,-11.5 L-11.5,-27.7 L11.5,-27.7 Z" fill="none" stroke="black" transform="translate(78.66040075870012,121.12524497005717) rotate(44.43282674744274) scale(1.0733480098890817)" /><path d="M-30,-20 h60 v40 h-60 Z" fill="none" stroke="black" transform="translate(144.59198450744066,87.14978685587609) rotate(335.7222021810522) scale(0.9208622127331001)" /><path d="M0.0,-30.0 L8.8,-12.1 L28.5,-9.3 L14.3,4.6 L17.6,24.3 L0.0,15.0 L-17.6,24.3 L-14.3,4.6 L-28.5,-9.3 L-8.8,-12.1 Z" fill="none" stroke="black" transform="translate(136.61328746494675,275.5854530264043) rotate(68.68968912891273) scale(1.710747531118018)" /><path d="M0.0,-30.0 L8.8,-12.1 L28.5,-9.3 L14.3,4.6 L17.6,24.3 L0.0,15.0 L-17.6,24.3 L-14.3,4.6 L-28.5,-9.3 L-8.8,-12.1 Z" fill="none" stroke="black" transform="translate(310.92896209711995,178.29048287238953) rotate(5.9573797521402305) scale(1.1473045734965635)" /><g><path d="M0.0,-30.0 L8.8,-12.1 L28.5,-9.3 L14.3,4.6 L17.6,24.3 L0.0,15.0 L-17.6,24.3 L-14.3,4.6 L-28.5,-9.3 L-8.8,-12.1 Z" fill="none" stroke="black" transform="translate(123.26435823297749,171.20380220950636) rotate(139.47072745069414) scale(1.0363570606218415)" /><path d="M0.0,-30.0 L8.8,-12.1 L28.5,-9.3 L14.3,4.6 L17.6,24.3 L0.0,15.0 L-17.6,24.3 L-14.3,4.6 L-28.5,-9.3 L-8.8,-12.1 Z" fill="none" stroke="black" transform="translate(123.26435823297749,171.20380220950636) rotate(139.47072745069414) scale(0.725449942435289)" /></g><g><path d="M0,0 m-30,0 a30,30 0 1,0 60,0 a30,30 0 1,0 -60,0" fill="none" stroke="black" transform="translate(74.71083511206157,325.8354026976373) rotate(98.32769470333969) scale(0.9260001309269713)" /><path d="M0,0 m-30,0 a30,30 0 1,0 60,0 a30,30 0 1,0 -60,0" fill="none" stroke="black" transform="translate(74.71083511206157,325.8354026976373) rotate(98.32769470333969) scale(0.6482000916488799)" /><path d="M0,0 m-30,0 a30,30 0 1,0 60,0 a30,30 0 1,0 -60,0" fill="none" stroke="black" transform="translate(74.71083511206157,325.8354026976373) rotate(98.32769470333969) scale(0.37040005237078855)" /></g><path d="M0,0 m-30,0 a30,30 0 1,0 60,0 a30,30 0 1,0 -60,0" fill="none" stroke="black" transform="translate(252.82766659569808,286.5573753576016) rotate(347.76182243499426) scale(0.9754482863548435)" /><path d="M0,0 m-30,0 a30,30 0 1,0 60,0 a30,30 0 1,0 -60,0" fill="none" stroke="black" transform="translate(69.57487021696141,224.144212619117) rotate(136.5935805356027) scale(0.9222530190819355)" /><path d="M0.0,-30.0 L28.5,-9.3 L17.6,24.3 L-17.6,24.3 L-28.5,-9.3 Z" fill="none" stroke="black" transform="translate(316.18219690426224,121.43642713117404) rotate(106.9320317446813) scale(1.0929180612805056)" /><path d="M0.0,-30.0 L28.5,-9.3 L17.6,24.3 L-17.6,24.3 L-28.5,-9.3 Z" fill="none" stroke="black" transform="translate(282.2790096851457,327.43480790706997) rotate(310.71117131717705) scale(0.8399467559067648)" /></svg>