<svg baseProfile="full" height="400" version="1.1" width="400" xmlns="http://www.w3.org/2000/svg" xmlns:ev="http://www.w3.org/2001/xml-events" xmlns:xlink="http://www.w3.org/1999/xlink"><defs /><rect fill="white" height="100%" width="100%" x="0" y="0" /><g><path d="M0.0,-30.0 L8.8,-12.1 L28.5,-9.3 L14.3,4.6 L17.6,24.3 L0.0,15.0 L-17.6,24.3 L-14.3,4.6 L-28.5,-9.3 L-8.8,-12.1 Z" fill="none" stroke="black" transform="translate(124.5367139949907,102.93793120884891) rotate(184.05957556713292) scale(1.0519246955480155)" /><path d="M0.0,-30.0 L8.8,-12.1 L28.5,-9.3 L14.3,4.6 L17.6,24.3 L0.0,15.0 L-17.6,24.3 L-14.3,4.6 L-28.5,-9.3 L-8.8,-12.1 Z" fill="none" stroke="black" transform="translate(124.5367139949907,102.93793120884891) rotate(184.05957556713292) scale(0.7363472868836108)" /></g><g><path d="M0,0 m-30,0 a30,30 0 1,0 60,0 a30,30 0 1,0 -60,0" fill="none" stroke="black" transform="translate(135.89296332821013,244.03334939374162) rotate(248.1918998428739) scale(1.4054247035939624)" /><path d="M0,0 m-30,0 a30,30 0 1,0 60,0 a30,30 0 1,0 -60,0" fill="none" stroke="black" transform="translate(135.89296332821013,244.03334939374162) rotate(248.1918998428739) scale(0.9837972925157736)" /><path d="M0,0 m-30,0 a30,30 0 1,0 60,0 a30,30 0 1,0 -60,0" fill="none" stroke="black" transform="translate(135.89296332821013,244.03334939374162) rotate(248.1918998428739) scale(0.562169881437585)" /></g><path d="M0,-30 L30,30 L-30,30 Z" fill="none" stroke="black" transform="translate(239.8618112747776,240.75659344227424) rotate(161.66373110432704) scale(1.273978055333335)" /><path d="M0,-30 L30,30 L-30,30 Z" fill="none" stroke="black" transform="translate(286.2008200653752,124.38212078553437) rotate(190.7104074789462) scale(1.5790519211576353)" /><path d="M27.7,-11.5 L27.7,11.5 L11.5,27.7 L-11.5,27.7 L-27.7,11.5 L-27.7,-11.5 L-11.5,-27.7 L11.5,-27.7 Z" fill="none" stroke="black" transform="translate(251.4906371830038,332.73713351250206) rotate(88.35774442212836) scale(0.8098588727101872)" /><path d="M-30,-20 h60 v40 h-60 Z" fill="none" stroke="black" transform="translate(330.6205887001985,320.2926253685603) rotate(250.55850927099326) scale(0.9119401086230733)" /><path d="M-30,-20 h60 v40 h-60 Z" fill="none" stroke="black" transform="translate(163.45780274692507,329.3277757820267) rotate(97.53350419929339) scale(0.8298990099477677)" /><g><path d="M30,0 L15,-26 L-15,-26 L-30,0 L-15,26 L15,26 Z" fill="none" stroke="black" transform="translate(334.5043638587129,237.56838450480456) rotate(301.4370692298605) scale(0.8516014756443377)" /><path d="M30,0 L15,-26 L-15,-26 L-30,0 L-15,26 L15,26 Z" fill="none" stroke="black" transform="translate(334.5043638587129,237.56838450480456) rotate(301.4370692298605) scale(0.5961210329510364)" /><path d="M30,0 L15,-26 L-15,-26 L-30,0 L-15,26 L15,26 Z" fill="none" stroke="black" transform="translate(334.5043638587129,237.56838450480456) rotate(301.4370692298605) scale(0.34064059025773513)" /></g></svg>