<svg baseProfile="full" height="400" version="1.1" width="400" xmlns="http://www.w3.org/2000/svg" xmlns:ev="http://www.w3.org/2001/xml-events" xmlns:xlink="http://www.w3.org/1999/xlink"><defs /><rect fill="white" height="100%" width="100%" x="0" y="0" /><g><path d="M0.0,-30.0 L28.5,-9.3 L17.6,24.3 L-17.6,24.3 L-28.5,-9.3 Z" fill="none" stroke="black" transform="translate(117.62659956974655,210.04049716060018) rotate(144.73379700513198) scale(1.2472188853122776)" /><path d="M0.0,-30.0 L28.5,-9.3 L17.6,24.3 L-17.6,24.3 L-28.5,-9.3 Z" fill="none" stroke="black" transform="translate(117.62659956974655,210.04049716060018) rotate(144.73379700513198) scale(0.8730532197185943)" /><path d="M0.0,-30.0 L28.5,-9.3 L17.6,24.3 L-17.6,24.3 L-28.5,-9.3 Z" fill="none" stroke="black" transform="translate(117.62659956974655,210.04049716060018) rotate(144.73379700513198) scale(0.4988875541249111)" /></g><path d="M0.0,-30.0 L28.5,-9.3 L17.6,24.3 L-17.6,24.3 L-28.5,-9.3 Z" fill="none" stroke="black" transform="translate(185.71271477877292,180.7303381814356) rotate(301.92578048636403) scale(1.1679122692139923)" /><path d="M0,-30 L30,30 L-30,30 Z" fill="none" stroke="black" transform="translate(264.84907930873925,110.48212183904707) rotate(61.6841688222829) scale(1.2776155341107736)" /><g><path d="M0,-30 L30,30 L-30,30 Z" fill="none" stroke="black" transform="translate(218.94827577883274,293.4498840457351) rotate(105.27724106720092) scale(1.2928636628195658)" /><path d="M0,-30 L30,30 L-30,30 Z" fill="none" stroke="black" transform="translate(218.94827577883274,293.4498840457351) rotate(105.27724106720092) scale(0.905004563973696)" /></g><path d="M0,-30 L30,30 L-30,30 Z" fill="none" stroke="black" transform="translate(276.7201003320798,243.1261894676653) rotate(67.89036913898525) scale(1.1081467275885204)" /><path d="M0,0 m-30,0 a30,30 0 1,0 60,0 a30,30 0 1,0 -60,0" fill="none" stroke="black" transform="translate(119.32101257368157,116.67103120046372) rotate(111.46884596573413) scale(1.617309023344569)" /><g><path d="M27.7,-11.5 L27.7,11.5 L11.5,27.7 L-11.5,27.7 L-27.7,11.5 L-27.7,-11.5 L-11.5,-27.7 L11.5,-27.7 Z" fill="none" stroke="black" transform="translate(168.51609467619528,255.0579909690693) rotate(253.36373257338926) scale(0.873380784417024)" /><path d="M27.7,-11.5 L27.7,11.5 L11.5,27.7 L-11.5,27.7 L-27.7,11.5 L-27.7,-11.5 L-11.5,-27.7 L11.5,-27.7 Z" fill="none" stroke="black" transform="translate(168.51609467619528,255.0579909690693) rotate(253.36373257338926) scale(0.6113665490919168)" /></g><path d="M27.7,-11.5 L27.7,11.5 L11.5,27.7 L-11.5,27.7 L-27.7,11.5 L-27.7,-11.5 L-11.5,-27.7 L11.5,-27.7 Z" fill="none" stroke="black" transform="translate(320.3562216360706,323.2565437054509) rotate(198.64950365078178) scale(1.0230015909440429)" /><g><path d="M27.7,-11.5 L27.7,11.5 L11.5,27.7 L-11.5,27.7 L-27.7,11.5 L-27.7,-11.5 L-11.5,-27.7 L11.5,-27.7 Z" fill="none" stroke="black" transform="translate(129.14701981832013,313.58509304917243) rotate(4.179432022521916) scale(1.1919856943213543)" /><path d="M27.7,-11.5 L27.7,11.5 L11.5,27.7 L-11.5,27.7 L-27.7,11.5 L-27.7,-11.5 L-11.5,-27.7 L11.5,-27.7 Z" fill="none" stroke="black" transform="translate(129.14701981832013,313.58509304917243) rotate(4.179432022521916) scale(0.834389986024948)" /></g><g><path d="M30,0 L15,-26 L-15,-26 L-30,0 L-15,26 L15,26 Z" fill="none" stroke="black" transform="translate(253.51164261265308,204.82482974393466) rotate(340.8900977557582) scale(0.8868665293414508)" /><path d="M30,0 L15,-26 L-15,-26 L-30,0 L-15,26 L15,26 Z" fill="none" stroke="black" transform="translate(253.51164261265308,204.82482974393466) rotate(340.8900977557582) scale(0.6208065705390156)" /><path d="M30,0 L15,-26 L-15,-26 L-30,0 L-15,26 L15,26 Z" fill="none" stroke="black" transform="translate(253.51164261265308,204.82482974393466) rotate(340.8900977557582) scale(0.35474661173658034)" /></g><path d="M30,0 L15,-26 L-15,-26 L-30,0 L-15,26 L15,26 Z" fill="none" stroke="black" transform="translate(74.49703552906172,281.37346687250454) rotate(63.593552099431676) scale(0.9329879691608852)" /><g><path d="M-30,-20 h60 v40 h-60 Z" fill="none" stroke="black" transform="translate(311.2976314275622,197.2825028313892) rotate(258.21207965249806) scale(0.948808046150269)" /><path d="M-30,-20 h60 v40 h-60 Z" fill="none" stroke="black" transform="translate(311.2976314275622,197.2825028313892) rotate(258.21207965249806) scale(0.6641656323051883)" /></g><path d="M-30,-20 h60 v40 h-60 Z" fill="none" stroke="black" transform="translate(325.55018473482124,85.58721917974728) rotate(14.03144405344269) scale(0.8854798842153625)" /></svg>