<svg baseProfile="full" height="400" version="1.1" width="400" xmlns="http://www.w3.org/2000/svg" xmlns:ev="http://www.w3.org/2001/xml-events" xmlns:xlink="http://www.w3.org/1999/xlink"><defs /><rect fill="white" height="100%" width="100%" x="0" y="0" /><g><path d="M-30,-20 h60 v40 h-60 Z" fill="none" stroke="black" transform="translate(328.46205215487805,198.9422691054233) rotate(16.762623582460847) scale(0.9285324274828416)" /><path d="M-30,-20 h60 v40 h-60 Z" fill="none" stroke="black" transform="translate(328.46205215487805,198.9422691054233) rotate(16.762623582460847) scale(0.6499726992379891)" /></g><path d="M-30,-20 h60 v40 h-60 Z" fill="none" stroke="black" transform="translate(135.597242751446,156.87126500636063) rotate(346.29383718046745) scale(1.7115391028922466)" /><g><path d="M-30,-20 h60 v40 h-60 Z" fill="none" stroke="black" transform="translate(133.17058289710744,263.88638930922394) rotate(120.60998870045451) scale(0.9820711759922482)" /><path d="M-30,-20 h60 v40 h-60 Z" fill="none" stroke="black" transform="translate(133.17058289710744,263.88638930922394) rotate(120.60998870045451) scale(0.6874498231945737)" /></g><path d="M0.0,-30.0 L8.8,-12.1 L28.5,-9.3 L14.3,4.6 L17.6,24.3 L0.0,15.0 L-17.6,24.3 L-14.3,4.6 L-28.5,-9.3 L-8.8,-12.1 Z" fill="none" stroke="black" transform="translate(216.03112832604398,159.21550250302494) rotate(28.74682246592004) scale(0.9581804151417053)" /><path d="M0.0,-30.0 L28.5,-9.3 L17.6,24.3 L-17.6,24.3 L-28.5,-9.3 Z" fill="none" stroke="black" transform="translate(281.5019427812126,292.688966475261) rotate(243.28591236692685) scale(1.1030390670697856)" /><path d="M0.0,-30.0 L28.5,-9.3 L17.6,24.3 L-17.6,24.3 L-28.5,-9.3 Z" fill="none" stroke="black" transform="translate(247.27672394101867,225.9054827106861) rotate(61.843047030020145) scale(1.9993592634845199)" /><g><path d="M0.0,-30.0 L28.5,-9.3 L17.6,24.3 L-17.6,24.3 L-28.5,-9.3 Z" fill="none" stroke="black" transform="translate(167.81486329377958,84.75726827287697) rotate(174.77472863443856) scale(0.985757116865911)" /><path d="M0.0,-30.0 L28.5,-9.3 L17.6,24.3 L-17.6,24.3 L-28.5,-9.3 Z" fill="none" stroke="black" transform="translate(167.81486329377958,84.75726827287697) rotate(174.77472863443856) scale(0.6900299818061377)" /><path d="M0.0,-30.0 L28.5,-9.3 L17.6,24.3 L-17.6,24.3 L-28.5,-9.3 Z" fill="none" stroke="black" transform="translate(167.81486329377958,84.75726827287697) rotate(174.77472863443856) scale(0.39430284674636445)" /></g><path d="M0.0,-30.0 L28.5,-9.3 L17.6,24.3 L-17.6,24.3 L-28.5,-9.3 Z" fill="none" stroke="black" transform="translate(262.8987142563639,110.55247508901004) rotate(22.16661988468683) scale(1.251213853009544)" /><path d="M0.0,-30.0 L28.5,-9.3 L17.6,24.3 L-17.6,24.3 L-28.5,-9.3 Z" fill="none" stroke="black" transform="translate(161.4811105648865,316.3337980022274) rotate(237.81539393321978) scale(0.8553448702321385)" /></svg>