<svg baseProfile="full" height="400" version="1.1" width="400" xmlns="http://www.w3.org/2000/svg" xmlns:ev="http://www.w3.org/2001/xml-events" xmlns:xlink="http://www.w3.org/1999/xlink"><defs /><rect fill="white" height="100%" width="100%" x="0" y="0" /><g><path d="M30,0 L15,-26 L-15,-26 L-30,0 L-15,26 L15,26 Z" fill="none" stroke="black" transform="translate(221.10680678951155,152.8991563509447) rotate(246.60000892369078) scale(1.5610495361283516)" /><path d="M30,0 L15,-26 L-15,-26 L-30,0 L-15,26 L15,26 Z" fill="none" stroke="black" transform="translate(221.10680678951155,152.8991563509447) rotate(246.60000892369078) scale(1.0927346752898461)" /></g><path d="M30,0 L15,-26 L-15,-26 L-30,0 L-15,26 L15,26 Z" fill="none" stroke="black" transform="translate(281.71345566676075,295.88476709615753) rotate(93.05340650127167) scale(0.9012136283665095)" /><path d="M30,0 L15,-26 L-15,-26 L-30,0 L-15,26 L15,26 Z" fill="none" stroke="black" transform="translate(97.40284486721637,224.78609968417936) rotate(71.26461359725448) scale(0.858406568504685)" /><path d="M30,0 L15,-26 L-15,-26 L-30,0 L-15,26 L15,26 Z" fill="none" stroke="black" transform="translate(112.16135301408303,98.65352259060495) rotate(38.42182449324083) scale(1.2563885514158355)" /><path d="M30,0 L15,-26 L-15,-26 L-30,0 L-15,26 L15,26 Z" fill="none" stroke="black" transform="translate(105.15304841697252,297.35757827934174) rotate(317.016687077093) scale(0.87306568101765)" /><g><path d="M30,0 L15,-26 L-15,-26 L-30,0 L-15,26 L15,26 Z" fill="none" stroke="black" transform="translate(290.0309626435143,65.94136086542113) rotate(272.6702166856087) scale(0.858612146270972)" /><path d="M30,0 L15,-26 L-15,-26 L-30,0 L-15,26 L15,26 Z" fill="none" stroke="black" transform="translate(290.0309626435143,65.94136086542113) rotate(272.6702166856087) scale(0.6010285023896804)" /><path d="M30,0 L15,-26 L-15,-26 L-30,0 L-15,26 L15,26 Z" fill="none" stroke="black" transform="translate(290.0309626435143,65.94136086542113) rotate(272.6702166856087) scale(0.34344485850838885)" /></g><path d="M0.0,-30.0 L8.8,-12.1 L28.5,-9.3 L14.3,4.6 L17.6,24.3 L0.0,15.0 L-17.6,24.3 L-14.3,4.6 L-28.5,-9.3 L-8.8,-12.1 Z" fill="none" stroke="black" transform="translate(200.35976457012904,328.94604233778807) rotate(28.8463730229939) scale(0.9406080710003981)" /><path d="M0,-30 L30,30 L-30,30 Z" fill="none" stroke="black" transform="translate(306.79564794979905,211.83718571772502) rotate(37.49068403467994) scale(0.8769531566773068)" /></svg>