<svg baseProfile="full" height="400" version="1.1" width="400" xmlns="http://www.w3.org/2000/svg" xmlns:ev="http://www.w3.org/2001/xml-events" xmlns:xlink="http://www.w3.org/1999/xlink"><defs /><rect fill="white" height="100%" width="100%" x="0" y="0" /><g><path d="M30,0 L15,-26 L-15,-26 L-30,0 L-15,26 L15,26 Z" fill="none" stroke="black" transform="translate(173.64298054199992,224.78159335521406) rotate(88.959589254465) scale(1.809682107573215)" /><path d="M30,0 L15,-26 L-15,-26 L-30,0 L-15,26 L15,26 Z" fill="none" stroke="black" transform="translate(173.64298054199992,224.78159335521406) rotate(88.959589254465) scale(1.2667774753012504)" /></g><path d="M30,0 L15,-26 L-15,-26 L-30,0 L-15,26 L15,26 Z" fill="none" stroke="black" transform="translate(96.34085977460397,143.27886321205253) rotate(96.37785180137269) scale(1.095795914397653)" /><g><path d="M30,0 L15,-26 L-15,-26 L-30,0 L-15,26 L15,26 Z" fill="none" stroke="black" transform="translate(315.9367535264925,130.35112732801088) rotate(152.3078175620888) scale(0.8572545031060035)" /><path d="M30,0 L15,-26 L-15,-26 L-30,0 L-15,26 L15,26 Z" fill="none" stroke="black" transform="translate(315.9367535264925,130.35112732801088) rotate(152.3078175620888) scale(0.6000781521742024)" /><path d="M30,0 L15,-26 L-15,-26 L-30,0 L-15,26 L15,26 Z" fill="none" stroke="black" transform="translate(315.9367535264925,130.35112732801088) rotate(152.3078175620888) scale(0.34290180124240144)" /></g><g><path d="M-30,-20 h60 v40 h-60 Z" fill="none" stroke="black" transform="translate(196.47115491812625,125.00045793228647) rotate(114.27077544490722) scale(1.2928395903312873)" /><path d="M-30,-20 h60 v40 h-60 Z" fill="none" stroke="black" transform="translate(196.47115491812625,125.00045793228647) rotate(114.27077544490722) scale(0.904987713231901)" /><path d="M-30,-20 h60 v40 h-60 Z" fill="none" stroke="black" transform="translate(196.47115491812625,125.00045793228647) rotate(114.27077544490722) scale(0.5171358361325149)" /></g><g><path d="M0,0 m-30,0 a30,30 0 1,0 60,0 a30,30 0 1,0 -60,0" fill="none" stroke="black" transform="translate(304.2100091422332,187.34941192737114) rotate(244.63356531647185) scale(1.119371364465379)" /><path d="M0,0 m-30,0 a30,30 0 1,0 60,0 a30,30 0 1,0 -60,0" fill="none" stroke="black" transform="translate(304.2100091422332,187.34941192737114) rotate(244.63356531647185) scale(0.7835599551257654)" /><path d="M0,0 m-30,0 a30,30 0 1,0 60,0 a30,30 0 1,0 -60,0" fill="none" stroke="black" transform="translate(304.2100091422332,187.34941192737114) rotate(244.63356531647185) scale(0.44774854578615164)" /></g><g><path d="M0,-30 L30,30 L-30,30 Z" fill="none" stroke="black" transform="translate(254.76425619505568,139.49927004118084) rotate(205.3837755618081) scale(1.2105851178845435)" /><path d="M0,-30 L30,30 L-30,30 Z" fill="none" stroke="black" transform="translate(254.76425619505568,139.49927004118084) rotate(205.3837755618081) scale(0.8474095825191804)" /><path d="M0,-30 L30,30 L-30,30 Z" fill="none" stroke="black" transform="translate(254.76425619505568,139.49927004118084) rotate(205.3837755618081) scale(0.4842340471538174)" /></g><g><path d="M0,-30 L30,30 L-30,30 Z" fill="none" stroke="black" transform="translate(262.1328394524095,228.2738136377481) rotate(334.57984196985177) scale(1.0868172416643105)" /><path d="M0,-30 L30,30 L-30,30 Z" fill="none" stroke="black" transform="translate(262.1328394524095,228.2738136377481) rotate(334.57984196985177) scale(0.7607720691650173)" /><path d="M0,-30 L30,30 L-30,30 Z" fill="none" stroke="black" transform="translate(262.1328394524095,228.2738136377481) rotate(334.57984196985177) scale(0.4347268966657242)" /></g><path d="M0,-30 L30,30 L-30,30 Z" fill="none" stroke="black" transform="translate(85.33011634243204,301.4998706172418) rotate(181.84918948907128) scale(0.914540352527238)" /></svg>