<svg baseProfile="full" height="400" version="1.1" width="400" xmlns="http://www.w3.org/2000/svg" xmlns:ev="http://www.w3.org/2001/xml-events" xmlns:xlink="http://www.w3.org/1999/xlink"><defs /><rect fill="white" height="100%" width="100%" x="0" y="0" /><path d="M30,0 L15,-26 L-15,-26 L-30,0 L-15,26 L15,26 Z" fill="none" stroke="black" transform="translate(162.06499982197974,268.7861194251468) rotate(255.44250527414397) scale(1.3782798145989266)" /><g><path d="M30,0 L15,-26 L-15,-26 L-30,0 L-15,26 L15,26 Z" fill="none" stroke="black" transform="translate(149.99496409027148,108.30645748602254) rotate(281.15015535794305) scale(0.890255135059909)" /><path d="M30,0 L15,-26 L-15,-26 L-30,0 L-15,26 L15,26 Z" fill="none" stroke="black" transform="translate(149.99496409027148,108.30645748602254) rotate(281.15015535794305) scale(0.6231785945419362)" /><path d="M30,0 L15,-26 L-15,-26 L-30,0 L-15,26 L15,26 Z" fill="none" stroke="black" transform="translate(149.99496409027148,108.30645748602254) rotate(281.15015535794305) scale(0.35610205402396367)" /></g><path d="M-30,-20 h60 v40 h-60 Z" fill="none" stroke="black" transform="translate(288.7436435953665,289.59195158143604) rotate(82.78281932258409) scale(1.4610195786490467)" /><path d="M-30,-20 h60 v40 h-60 Z" fill="none" stroke="black" transform="translate(229.90000306714813,105.39633063383616) rotate(233.9472465406516) scale(0.9523962390143116)" /><g><path d="M-30,-20 h60 v40 h-60 Z" fill="none" stroke="black" transform="translate(160.0323171984387,190.97702408386255) rotate(168.3007894290988) scale(1.4212807295801246)" /><path d="M-30,-20 h60 v40 h-60 Z" fill="none" stroke="black" transform="translate(160.0323171984387,190.97702408386255) rotate(168.3007894290988) scale(0.9948965107060872)" /><path d="M-30,-20 h60 v40 h-60 Z" fill="none" stroke="black" transform="translate(160.0323171984387,190.97702408386255) rotate(168.3007894290988) scale(0.5685122918320499)" /></g><path d="M0,0 m-30,0 a30,30 0 1,0 60,0 a30,30 0 1,0 -60,0" fill="none" stroke="black" transform="translate(296.0369633677059,188.4379472047689) rotate(249.95357209719722) scale(1.2563420572846646)" /><path d="M0,0 m-30,0 a30,30 0 1,0 60,0 a30,30 0 1,0 -60,0" fill="none" stroke="black" transform="translate(287.085412400373,116.18956082625638) rotate(139.36961603839717) scale(1.0004564284200563)" /><path d="M0.0,-30.0 L8.8,-12.1 L28.5,-9.3 L14.3,4.6 L17.6,24.3 L0.0,15.0 L-17.6,24.3 L-14.3,4.6 L-28.5,-9.3 L-8.8,-12.1 Z" fill="none" stroke="black" transform="translate(76.19679680778121,138.7117643042396) rotate(220.61729474366757) scale(0.8297965430346668)" /><path d="M0.0,-30.0 L8.8,-12.1 L28.5,-9.3 L14.3,4.6 L17.6,24.3 L0.0,15.0 L-17.6,24.3 L-14.3,4.6 L-28.5,-9.3 L-8.8,-12.1 Z" fill="none" stroke="black" transform="translate(237.9233007891171,316.9554903755162) rotate(76.9513451154499) scale(0.8739843680878805)" /><path d="M0.0,-30.0 L28.5,-9.3 L17.6,24.3 L-17.6,24.3 L-28.5,-9.3 Z" fill="none" stroke="black" transform="translate(123.88584873842271,332.9153609811425) rotate(17.325587004014146) scale(0.8115745204542164)" /><path d="M27.7,-11.5 L27.7,11.5 L11.5,27.7 L-11.5,27.7 L-27.7,11.5 L-27.7,-11.5 L-11.5,-27.7 L11.5,-27.7 Z" fill="none" stroke="black" transform="translate(230.77672367103293,170.327182649354) rotate(44.28330587888316) scale(0.8781528474731533)" /><g><path d="M27.7,-11.5 L27.7,11.5 L11.5,27.7 L-11.5,27.7 L-27.7,11.5 L-27.7,-11.5 L-11.5,-27.7 L11.5,-27.7 Z" fill="none" stroke="black" transform="translate(86.45459985123865,320.24589093249983) rotate(188.23090885100007) scale(0.9395985373093951)" /><path d="M27.7,-11.5 L27.7,11.5 L11.5,27.7 L-11.5,27.7 L-27.7,11.5 L-27.7,-11.5 L-11.5,-27.7 L11.5,-27.7 Z" fill="none" stroke="black" transform="translate(86.45459985123865,320.24589093249983) rotate(188.23090885100007) scale(0.6577189761165766)" /></g><path d="M0,-30 L30,30 L-30,30 Z" fill="none" stroke="black" transform="translate(224.5396157036875,217.01363428837158) rotate(356.1817228112957) scale(0.8347559066138571)" /></svg>