<svg baseProfile="full" height="400" version="1.1" width="400" xmlns="http://www.w3.org/2000/svg" xmlns:ev="http://www.w3.org/2001/xml-events" xmlns:xlink="http://www.w3.org/1999/xlink"><defs /><rect fill="white" height="100%" width="100%" x="0" y="0" /><path d="M0.0,-30.0 L8.8,-12.1 L28.5,-9.3 L14.3,4.6 L17.6,24.3 L0.0,15.0 L-17.6,24.3 L-14.3,4.6 L-28.5,-9.3 L-8.8,-12.1 Z" fill="none" stroke="black" transform="translate(324.7415467836687,280.1782703372369) rotate(219.7222378542312) scale(0.910078004545828)" /><g><path d="M0,0 m-30,0 a30,30 0 1,0 60,0 a30,30 0 1,0 -60,0" fill="none" stroke="black" transform="translate(173.0335000833004,211.5716143986706) rotate(277.35886990082963) scale(1.832523917040624)" /><path d="M0,0 m-30,0 a30,30 0 1,0 60,0 a30,30 0 1,0 -60,0" fill="none" stroke="black" transform="translate(173.0335000833004,211.5716143986706) rotate(277.35886990082963) scale(1.2827667419284368)" /></g><g><path d="M0,0 m-30,0 a30,30 0 1,0 60,0 a30,30 0 1,0 -60,0" fill="none" stroke="black" transform="translate(186.57754908721066,331.226089518526) rotate(260.75176377926624) scale(0.8677617126489391)" /><path d="M0,0 m-30,0 a30,30 0 1,0 60,0 a30,30 0 1,0 -60,0" fill="none" stroke="black" transform="translate(186.57754908721066,331.226089518526) rotate(260.75176377926624) scale(0.6074331988542573)" /></g><g><path d="M0,0 m-30,0 a30,30 0 1,0 60,0 a30,30 0 1,0 -60,0" fill="none" stroke="black" transform="translate(172.03590080725687,97.38399421913043) rotate(33.54783806287521) scale(1.1321011854735266)" /><path d="M0,0 m-30,0 a30,30 0 1,0 60,0 a30,30 0 1,0 -60,0" fill="none" stroke="black" transform="translate(172.03590080725687,97.38399421913043) rotate(33.54783806287521) scale(0.7924708298314685)" /></g><g><path d="M0.0,-30.0 L28.5,-9.3 L17.6,24.3 L-17.6,24.3 L-28.5,-9.3 Z" fill="none" stroke="black" transform="translate(283.9399192453087,101.5285482705786) rotate(34.08165695792135) scale(1.3552942028795516)" /><path d="M0.0,-30.0 L28.5,-9.3 L17.6,24.3 L-17.6,24.3 L-28.5,-9.3 Z" fill="none" stroke="black" transform="translate(283.9399192453087,101.5285482705786) rotate(34.08165695792135) scale(0.948705942015686)" /></g><path d="M0.0,-30.0 L28.5,-9.3 L17.6,24.3 L-17.6,24.3 L-28.5,-9.3 Z" fill="none" stroke="black" transform="translate(94.33915898194243,339.3730250682156) rotate(94.4190799253219) scale(0.8249902262436764)" /><g><path d="M27.7,-11.5 L27.7,11.5 L11.5,27.7 L-11.5,27.7 L-27.7,11.5 L-27.7,-11.5 L-11.5,-27.7 L11.5,-27.7 Z" fill="none" stroke="black" transform="translate(78.75683443981856,108.75496882562057) rotate(99.76939280004717) scale(0.8476651366907658)" /><path d="M27.7,-11.5 L27.7,11.5 L11.5,27.7 L-11.5,27.7 L-27.7,11.5 L-27.7,-11.5 L-11.5,-27.7 L11.5,-27.7 Z" fill="none" stroke="black" transform="translate(78.75683443981856,108.75496882562057) rotate(99.76939280004717) scale(0.5933655956835361)" /></g><g><path d="M-30,-20 h60 v40 h-60 Z" fill="none" stroke="black" transform="translate(336.89714486436367,186.86886627755547) rotate(220.40646892424843) scale(0.8467262366790207)" /><path d="M-30,-20 h60 v40 h-60 Z" fill="none" stroke="black" transform="translate(336.89714486436367,186.86886627755547) rotate(220.40646892424843) scale(0.5927083656753145)" /><path d="M-30,-20 h60 v40 h-60 Z" fill="none" stroke="black" transform="translate(336.89714486436367,186.86886627755547) rotate(220.40646892424843) scale(0.3386904946716083)" /></g></svg>