<svg baseProfile="full" height="400" version="1.1" width="400" xmlns="http://www.w3.org/2000/svg" xmlns:ev="http://www.w3.org/2001/xml-events" xmlns:xlink="http://www.w3.org/1999/xlink"><defs /><rect fill="white" height="100%" width="100%" x="0" y="0" /><path d="M0.0,-30.0 L8.8,-12.1 L28.5,-9.3 L14.3,4.6 L17.6,24.3 L0.0,15.0 L-17.6,24.3 L-14.3,4.6 L-28.5,-9.3 L-8.8,-12.1 Z" fill="none" stroke="black" transform="translate(263.5494450413851,164.61513402852452) rotate(143.11815830191227) scale(1.682421935585497)" /><path d="M0.0,-30.0 L8.8,-12.1 L28.5,-9.3 L14.3,4.6 L17.6,24.3 L0.0,15.0 L-17.6,24.3 L-14.3,4.6 L-28.5,-9.3 L-8.8,-12.1 Z" fill="none" stroke="black" transform="translate(239.94017958256225,249.05440295689974) rotate(44.263099800535) scale(0.9247222978772464)" /><g><path d="M0.0,-30.0 L8.8,-12.1 L28.5,-9.3 L14.3,4.6 L17.6,24.3 L0.0,15.0 L-17.6,24.3 L-14.3,4.6 L-28.5,-9.3 L-8.8,-12.1 Z" fill="none" stroke="black" transform="translate(200.36268884341507,220.8427522906157) rotate(38.37978706621795) scale(1.5887558192571634)" /><path d="M0.0,-30.0 L8.8,-12.1 L28.5,-9.3 L14.3,4.6 L17.6,24.3 L0.0,15.0 L-17.6,24.3 L-14.3,4.6 L-28.5,-9.3 L-8.8,-12.1 Z" fill="none" stroke="black" transform="translate(200.36268884341507,220.8427522906157) rotate(38.37978706621795) scale(1.1121290734800142)" /></g><path d="M30,0 L15,-26 L-15,-26 L-30,0 L-15,26 L15,26 Z" fill="none" stroke="black" transform="translate(253.32194185546535,295.95135993295565) rotate(139.25280636993426) scale(1.0082406020969348)" /><path d="M30,0 L15,-26 L-15,-26 L-30,0 L-15,26 L15,26 Z" fill="none" stroke="black" transform="translate(131.255437265935,303.2699384193706) rotate(181.12622977519746) scale(1.2942060849898587)" /><g><path d="M30,0 L15,-26 L-15,-26 L-30,0 L-15,26 L15,26 Z" fill="none" stroke="black" transform="translate(149.91974594750664,134.73213299451476) rotate(126.8973820976079) scale(1.8063063736794633)" /><path d="M30,0 L15,-26 L-15,-26 L-30,0 L-15,26 L15,26 Z" fill="none" stroke="black" transform="translate(149.91974594750664,134.73213299451476) rotate(126.8973820976079) scale(1.2644144615756243)" /><path d="M30,0 L15,-26 L-15,-26 L-30,0 L-15,26 L15,26 Z" fill="none" stroke="black" transform="translate(149.91974594750664,134.73213299451476) rotate(126.8973820976079) scale(0.7225225494717854)" /></g><g><path d="M0.0,-30.0 L28.5,-9.3 L17.6,24.3 L-17.6,24.3 L-28.5,-9.3 Z" fill="none" stroke="black" transform="translate(105.76998480493302,210.46575208545164) rotate(354.9754816417738) scale(1.3561753259997027)" /><path d="M0.0,-30.0 L28.5,-9.3 L17.6,24.3 L-17.6,24.3 L-28.5,-9.3 Z" fill="none" stroke="black" transform="translate(105.76998480493302,210.46575208545164) rotate(354.9754816417738) scale(0.9493227281997918)" /><path d="M0.0,-30.0 L28.5,-9.3 L17.6,24.3 L-17.6,24.3 L-28.5,-9.3 Z" fill="none" stroke="black" transform="translate(105.76998480493302,210.46575208545164) rotate(354.9754816417738) scale(0.5424701303998811)" /></g><g><path d="M0.0,-30.0 L28.5,-9.3 L17.6,24.3 L-17.6,24.3 L-28.5,-9.3 Z" fill="none" stroke="black" transform="translate(175.7588343810928,288.1355808172402) rotate(190.39172646966185) scale(0.9179128714702386)" /><path d="M0.0,-30.0 L28.5,-9.3 L17.6,24.3 L-17.6,24.3 L-28.5,-9.3 Z" fill="none" stroke="black" transform="translate(175.7588343810928,288.1355808172402) rotate(190.39172646966185) scale(0.642539010029167)" /><path d="M0.0,-30.0 L28.5,-9.3 L17.6,24.3 L-17.6,24.3 L-28.5,-9.3 Z" fill="none" stroke="black" transform="translate(175.7588343810928,288.1355808172402) rotate(190.39172646966185) scale(0.36716514858809546)" /></g><path d="M0.0,-30.0 L28.5,-9.3 L17.6,24.3 L-17.6,24.3 L-28.5,-9.3 Z" fill="none" stroke="black" transform="translate(260.691814108645,75.90328943679981) rotate(148.87801672911522) scale(0.9585593109134817)" /><g><path d="M0.0,-30.0 L28.5,-9.3 L17.6,24.3 L-17.6,24.3 L-28.5,-9.3 Z" fill="none" stroke="black" transform="translate(310.2533064541401,265.9106714174268) rotate(21.0910306127754) scale(1.1958112093045743)" /><path d="M0.0,-30.0 L28.5,-9.3 L17.6,24.3 L-17.6,24.3 L-28.5,-9.3 Z" fill="none" stroke="black" transform="translate(310.2533064541401,265.9106714174268) rotate(21.0910306127754) scale(0.837067846513202)" /><path d="M0.0,-30.0 L28.5,-9.3 L17.6,24.3 L-17.6,24.3 L-28.5,-9.3 Z" fill="none" stroke="black" transform="translate(310.2533064541401,265.9106714174268) rotate(21.0910306127754) scale(0.47832448372182973)" /></g><path d="M0.0,-30.0 L28.5,-9.3 L17.6,24.3 L-17.6,24.3 L-28.5,-9.3 Z" fill="none" stroke="black" transform="translate(233.2840751643277,331.8205763620378) rotate(305.0963537180643) scale(0.8380278949066832)" /><path d="M0.0,-30.0 L28.5,-9.3 L17.6,24.3 L-17.6,24.3 L-28.5,-9.3 Z" fill="none" stroke="black" transform="translate(207.91013015208068,99.51883682517254) rotate(242.50772065388378) scale(0.8769604943754374)" /><path d="M0,0 m-30,0 a30,30 0 1,0 60,0 a30,30 0 1,0 -60,0" fill="none" stroke="black" transform="translate(118.73498640507364,71.18333068432511) rotate(272.1423087892635) scale(0.9280451300773369)" /><g><path d="M0,0 m-30,0 a30,30 0 1,0 60,0 a30,30 0 1,0 -60,0" fill="none" stroke="black" transform="translate(328.44895815261356,329.3119723184905) rotate(96.55607046862588) scale(0.8911767418799549)" /><path d="M0,0 m-30,0 a30,30 0 1,0 60,0 a30,30 0 1,0 -60,0" fill="none" stroke="black" transform="translate(328.44895815261356,329.3119723184905) rotate(96.55607046862588) scale(0.6238237193159684)" /><path d="M0,0 m-30,0 a30,30 0 1,0 60,0 a30,30 0 1,0 -60,0" fill="none" stroke="black" transform="translate(328.44895815261356,329.3119723184905) rotate(96.55607046862588) scale(0.35647069675198195)" /></g><path d="M0,0 m-30,0 a30,30 0 1,0 60,0 a30,30 0 1,0 -60,0" fill="none" stroke="black" transform="translate(324.3279769555075,225.02957994080657) rotate(87.73354352346409) scale(0.9333502044713331)" /><path d="M0,0 m-30,0 a30,30 0 1,0 60,0 a30,30 0 1,0 -60,0" fill="none" stroke="black" transform="translate(70.55445181504454,84.32298862150276) rotate(173.11684770544298) scale(0.8657146180857155)" /><path d="M0,0 m-30,0 a30,30 0 1,0 60,0 a30,30 0 1,0 -60,0" fill="none" stroke="black" transform="translate(173.24228307290596,317.016155774594) rotate(191.07754422718622) scale(0.8174840918974924)" /><g><path d="M27.7,-11.5 L27.7,11.5 L11.5,27.7 L-11.5,27.7 L-27.7,11.5 L-27.7,-11.5 L-11.5,-27.7 L11.5,-27.7 Z" fill="none" stroke="black" transform="translate(70.40918922205049,163.82041421301318) rotate(147.0060044460515) scale(0.8190753606618227)" /><path d="M27.7,-11.5 L27.7,11.5 L11.5,27.7 L-11.5,27.7 L-27.7,11.5 L-27.7,-11.5 L-11.5,-27.7 L11.5,-27.7 Z" fill="none" stroke="black" transform="translate(70.40918922205049,163.82041421301318) rotate(147.0060044460515) scale(0.5733527524632759)" /></g><path d="M27.7,-11.5 L27.7,11.5 L11.5,27.7 L-11.5,27.7 L-27.7,11.5 L-27.7,-11.5 L-11.5,-27.7 L11.5,-27.7 Z" fill="none" stroke="black" transform="translate(309.8540079168007,126.82491724590321) rotate(169.8602321514196) scale(0.9096946009789966)" /><path d="M27.7,-11.5 L27.7,11.5 L11.5,27.7 L-11.5,27.7 L-27.7,11.5 L-27.7,-11.5 L-11.5,-27.7 L11.5,-27.7 Z" fill="none" stroke="black" transform="translate(278.7678375045959,235.89487955767578) rotate(130.48181706433004) scale(0.8027228449948549)" /><path d="M27.7,-11.5 L27.7,11.5 L11.5,27.7 L-11.5,27.7 L-27.7,11.5 L-27.7,-11.5 L-11.5,-27.7 L11.5,-27.7 Z" fill="none" stroke="black" transform="translate(78.20450615697611,268.59177998236873) rotate(132.23333124160024) scale(0.8459077800876014)" /><g><path d="M27.7,-11.5 L27.7,11.5 L11.5,27.7 L-11.5,27.7 L-27.7,11.5 L-27.7,-11.5 L-11.5,-27.7 L11.5,-27.7 Z" fill="none" stroke="black" transform="translate(340.74010937313005,131.84613887749083) rotate(344.3263266119006) scale(0.8021516942922067)" /><path d="M27.7,-11.5 L27.7,11.5 L11.5,27.7 L-11.5,27.7 L-27.7,11.5 L-27.7,-11.5 L-11.5,-27.7 L11.5,-27.7 Z" fill="none" stroke="black" transform="translate(340.74010937313005,131.84613887749083) rotate(344.3263266119006) scale(0.5615061860045446)" /><path d="M27.7,-11.5 L27.7,11.5 L11.5,27.7 L-11.5,27.7 L-27.7,11.5 L-27.7,-11.5 L-11.5,-27.7 L11.5,-27.7 Z" fill="none" stroke="black" transform="translate(340.74010937313005,131.84613887749083) rotate(344.3263266119006) scale(0.3208606777168827)" /></g><g><path d="M-30,-20 h60 v40 h-60 Z" fill="none" stroke="black" transform="translate(283.46103196405153,327.1282446420356) rotate(260.26689801605926) scale(0.9155044626171078)" /><path d="M-30,-20 h60 v40 h-60 Z" fill="none" stroke="black" transform="translate(283.46103196405153,327.1282446420356) rotate(260.26689801605926) scale(0.6408531238319755)" /><path d="M-30,-20 h60 v40 h-60 Z" fill="none" stroke="black" transform="translate(283.46103196405153,327.1282446420356) rotate(260.26689801605926) scale(0.36620178504684314)" /></g><path d="M-30,-20 h60 v40 h-60 Z" fill="none" stroke="black" transform="translate(156.8546199507022,259.6643632652168) rotate(264.49428482665854) scale(0.8039801311022386)" /></svg>