<svg baseProfile="full" height="400" version="1.1" width="400" xmlns="http://www.w3.org/2000/svg" xmlns:ev="http://www.w3.org/2001/xml-events" xmlns:xlink="http://www.w3.org/1999/xlink"><defs /><rect fill="white" height="100%" width="100%" x="0" y="0" /><path d="M0.0,-30.0 L8.8,-12.1 L28.5,-9.3 L14.3,4.6 L17.6,24.3 L0.0,15.0 L-17.6,24.3 L-14.3,4.6 L-28.5,-9.3 L-8.8,-12.1 Z" fill="none" stroke="black" transform="translate(201.47869205786498,137.502491537736) rotate(191.75756092635288) scale(1.807211976284561)" /><g><path d="M0.0,-30.0 L8.8,-12.1 L28.5,-9.3 L14.3,4.6 L17.6,24.3 L0.0,15.0 L-17.6,24.3 L-14.3,4.6 L-28.5,-9.3 L-8.8,-12.1 Z" fill="none" stroke="black" transform="translate(136.30405905744124,247.5550761884257) rotate(142.32874063122867) scale(1.6526440792736095)" /><path d="M0.0,-30.0 L8.8,-12.1 L28.5,-9.3 L14.3,4.6 L17.6,24.3 L0.0,15.0 L-17.6,24.3 L-14.3,4.6 L-28.5,-9.3 L-8.8,-12.1 Z" fill="none" stroke="black" transform="translate(136.30405905744124,247.5550761884257) rotate(142.32874063122867) scale(1.1568508554915264)" /></g><path d="M0.0,-30.0 L8.8,-12.1 L28.5,-9.3 L14.3,4.6 L17.6,24.3 L0.0,15.0 L-17.6,24.3 L-14.3,4.6 L-28.5,-9.3 L-8.8,-12.1 Z" fill="none" stroke="black" transform="translate(206.037371491221,273.2904695180379) rotate(130.75032869628964) scale(0.9912778138764534)" /><path d="M0.0,-30.0 L8.8,-12.1 L28.5,-9.3 L14.3,4.6 L17.6,24.3 L0.0,15.0 L-17.6,24.3 L-14.3,4.6 L-28.5,-9.3 L-8.8,-12.1 Z" fill="none" stroke="black" transform="translate(273.8312311672408,259.4426319415245) rotate(294.5249969442221) scale(0.9896014095132435)" /><path d="M0.0,-30.0 L8.8,-12.1 L28.5,-9.3 L14.3,4.6 L17.6,24.3 L0.0,15.0 L-17.6,24.3 L-14.3,4.6 L-28.5,-9.3 L-8.8,-12.1 Z" fill="none" stroke="black" transform="translate(214.85543498709757,215.36087689712107) rotate(101.45786157522664) scale(1.1701916613218992)" /><g><path d="M0.0,-30.0 L8.8,-12.1 L28.5,-9.3 L14.3,4.6 L17.6,24.3 L0.0,15.0 L-17.6,24.3 L-14.3,4.6 L-28.5,-9.3 L-8.8,-12.1 Z" fill="none" stroke="black" transform="translate(82.61901020092284,303.859988337685) rotate(142.29999050490068) scale(0.8888192947334254)" /><path d="M0.0,-30.0 L8.8,-12.1 L28.5,-9.3 L14.3,4.6 L17.6,24.3 L0.0,15.0 L-17.6,24.3 L-14.3,4.6 L-28.5,-9.3 L-8.8,-12.1 Z" fill="none" stroke="black" transform="translate(82.61901020092284,303.859988337685) rotate(142.29999050490068) scale(0.6221735063133977)" /></g><path d="M0.0,-30.0 L8.8,-12.1 L28.5,-9.3 L14.3,4.6 L17.6,24.3 L0.0,15.0 L-17.6,24.3 L-14.3,4.6 L-28.5,-9.3 L-8.8,-12.1 Z" fill="none" stroke="black" transform="translate(313.2913010359821,117.97418065458284) rotate(218.15580212761742) scale(1.0753995208286957)" /><path d="M0,0 m-30,0 a30,30 0 1,0 60,0 a30,30 0 1,0 -60,0" fill="none" stroke="black" transform="translate(309.79941983900505,192.67982022451162) rotate(48.69071052255327) scale(0.9601041228790501)" /><path d="M0,0 m-30,0 a30,30 0 1,0 60,0 a30,30 0 1,0 -60,0" fill="none" stroke="black" transform="translate(104.13202744897518,163.18957167306473) rotate(176.66563773582712) scale(0.9227532871334034)" /><path d="M0,0 m-30,0 a30,30 0 1,0 60,0 a30,30 0 1,0 -60,0" fill="none" stroke="black" transform="translate(214.71198581250928,331.5830257038489) rotate(75.66216932743743) scale(0.8506710676474055)" /><path d="M0,0 m-30,0 a30,30 0 1,0 60,0 a30,30 0 1,0 -60,0" fill="none" stroke="black" transform="translate(132.52905612799321,90.03533774467141) rotate(28.521693911111967) scale(0.9319244205461452)" /><path d="M0,0 m-30,0 a30,30 0 1,0 60,0 a30,30 0 1,0 -60,0" fill="none" stroke="black" transform="translate(136.32257048328268,330.213216423623) rotate(23.906937219924846) scale(0.8065599840829728)" /><g><path d="M0,0 m-30,0 a30,30 0 1,0 60,0 a30,30 0 1,0 -60,0" fill="none" stroke="black" transform="translate(331.6400576112737,283.7875048313296) rotate(207.0431509586578) scale(0.8772713164209791)" /><path d="M0,0 m-30,0 a30,30 0 1,0 60,0 a30,30 0 1,0 -60,0" fill="none" stroke="black" transform="translate(331.6400576112737,283.7875048313296) rotate(207.0431509586578) scale(0.6140899214946853)" /><path d="M0,0 m-30,0 a30,30 0 1,0 60,0 a30,30 0 1,0 -60,0" fill="none" stroke="black" transform="translate(331.6400576112737,283.7875048313296) rotate(207.0431509586578) scale(0.35090852656839167)" /></g><path d="M30,0 L15,-26 L-15,-26 L-30,0 L-15,26 L15,26 Z" fill="none" stroke="black" transform="translate(330.97738167162123,325.55496488370204) rotate(27.5925054149474) scale(0.8027142355619181)" /><path d="M30,0 L15,-26 L-15,-26 L-30,0 L-15,26 L15,26 Z" fill="none" stroke="black" transform="translate(270.3436898677313,307.0268996565221) rotate(13.94787964961699) scale(1.0499599595443776)" /><path d="M30,0 L15,-26 L-15,-26 L-30,0 L-15,26 L15,26 Z" fill="none" stroke="black" transform="translate(84.71291788046837,201.32122632499147) rotate(91.74875346300522) scale(0.8085123685882954)" /><path d="M30,0 L15,-26 L-15,-26 L-30,0 L-15,26 L15,26 Z" fill="none" stroke="black" transform="translate(76.57803684621794,91.34316062548255) rotate(209.89468369605422) scale(1.04719626118024)" /><path d="M0,-30 L30,30 L-30,30 Z" fill="none" stroke="black" transform="translate(274.20304362497484,76.39884277688057) rotate(326.0140966333985) scale(0.835181153378268)" /><path d="M0,-30 L30,30 L-30,30 Z" fill="none" stroke="black" transform="translate(272.5562251091543,169.67363855722357) rotate(334.7310567103563) scale(0.8408942795970178)" /><path d="M27.7,-11.5 L27.7,11.5 L11.5,27.7 L-11.5,27.7 L-27.7,11.5 L-27.7,-11.5 L-11.5,-27.7 L11.5,-27.7 Z" fill="none" stroke="black" transform="translate(263.4500813221498,214.86470650199948) rotate(94.2326551405165) scale(0.8270288618896888)" /><g><path d="M27.7,-11.5 L27.7,11.5 L11.5,27.7 L-11.5,27.7 L-27.7,11.5 L-27.7,-11.5 L-11.5,-27.7 L11.5,-27.7 Z" fill="none" stroke="black" transform="translate(325.9496928990959,233.09209882727401) rotate(248.10463882025738) scale(0.8383668518678418)" /><path d="M27.7,-11.5 L27.7,11.5 L11.5,27.7 L-11.5,27.7 L-27.7,11.5 L-27.7,-11.5 L-11.5,-27.7 L11.5,-27.7 Z" fill="none" stroke="black" transform="translate(325.9496928990959,233.09209882727401) rotate(248.10463882025738) scale(0.5868567963074892)" /></g><path d="M-30,-20 h60 v40 h-60 Z" fill="none" stroke="black" transform="translate(66.77915264194581,135.60324581016118) rotate(211.32013702745604) scale(0.8866561548308153)" /><g><path d="M-30,-20 h60 v40 h-60 Z" fill="none" stroke="black" transform="translate(174.07532404136143,316.63960008420725) rotate(102.68105753556513) scale(0.804771186027207)" /><path d="M-30,-20 h60 v40 h-60 Z" fill="none" stroke="black" transform="translate(174.07532404136143,316.63960008420725) rotate(102.68105753556513) scale(0.5633398302190449)" /></g></svg>