<?xml version="1.0" encoding="UTF-8" standalone="no"?>
<svg width="635" height="330" xmlns="http://www.w3.org/2000/svg">
    <!-- White background -->
    <rect width="635" height="330" fill="white"/>
    <rect x="20" y="0" 
            width="165" height="330" 
            fill="none" stroke="black" stroke-width="3"/>
    <circle cx="45.0" cy="25.0" r="25.0"
                        fill="black" stroke="black" stroke-width="2"/>
    <circle cx="100.0" cy="25.0" r="25.0"
                        fill="white" stroke="black" stroke-width="2"/>
    <circle cx="155.0" cy="25.0" r="25.0"
                        fill="white" stroke="black" stroke-width="2"/>
    <polygon points="45.0,55 20,105 70,105"
                        fill="black" stroke="black" stroke-width="2"/>
    <circle cx="100.0" cy="80.0" r="25.0"
                        fill="black" stroke="black" stroke-width="2"/>
    <polygon points="155.0,55 130,105 180,105"
                        fill="black" stroke="black" stroke-width="2"/>
    <rect x="20" y="110" 
                        width="50" height="50" 
                        fill="white" stroke="black" stroke-width="2"/>
    <circle cx="100.0" cy="135.0" r="25.0"
                        fill="white" stroke="black" stroke-width="2"/>
    <rect x="130" y="110" 
                        width="50" height="50" 
                        fill="black" stroke="black" stroke-width="2"/>
    <polygon points="45.0,165 20,215 70,215"
                        fill="black" stroke="black" stroke-width="2"/>
    <polygon points="100.0,165 75,215 125,215"
                        fill="white" stroke="black" stroke-width="2"/>
    <circle cx="155.0" cy="190.0" r="25.0"
                        fill="black" stroke="black" stroke-width="2"/>
    <circle cx="45.0" cy="245.0" r="25.0"
                        fill="white" stroke="black" stroke-width="2"/>
    <rect x="75" y="220" 
                        width="50" height="50" 
                        fill="white" stroke="black" stroke-width="2"/>
    <rect x="130" y="220" 
                        width="50" height="50" 
                        fill="black" stroke="black" stroke-width="2"/>
    <rect x="20" y="275" 
                        width="50" height="50" 
                        fill="black" stroke="black" stroke-width="2"/>
    <rect x="75" y="275" 
                        width="50" height="50" 
                        fill="black" stroke="black" stroke-width="2"/>
    <rect x="130" y="275" 
                        width="50" height="50" 
                        fill="white" stroke="black" stroke-width="2"/>
    <rect x="235" y="0" 
            width="165" height="330" 
            fill="none" stroke="black" stroke-width="3"/>
    <rect x="235" y="0" 
                        width="50" height="50" 
                        fill="black" stroke="black" stroke-width="2"/>
    <polygon points="315.0,0 290,50 340,50"
                        fill="white" stroke="black" stroke-width="2"/>
    <polygon points="370.0,0 345,50 395,50"
                        fill="white" stroke="black" stroke-width="2"/>
    <rect x="235" y="55" 
                        width="50" height="50" 
                        fill="black" stroke="black" stroke-width="2"/>
    <rect x="290" y="55" 
                        width="50" height="50" 
                        fill="white" stroke="black" stroke-width="2"/>
    <circle cx="370.0" cy="80.0" r="25.0"
                        fill="black" stroke="black" stroke-width="2"/>
    <polygon points="260.0,110 235,160 285,160"
                        fill="black" stroke="black" stroke-width="2"/>
    <rect x="290" y="110" 
                        width="50" height="50" 
                        fill="white" stroke="black" stroke-width="2"/>
    <polygon points="370.0,110 345,160 395,160"
                        fill="black" stroke="black" stroke-width="2"/>
    <rect x="235" y="165" 
                        width="50" height="50" 
                        fill="white" stroke="black" stroke-width="2"/>
    <rect x="290" y="165" 
                        width="50" height="50" 
                        fill="black" stroke="black" stroke-width="2"/>
    <circle cx="370.0" cy="190.0" r="25.0"
                        fill="white" stroke="black" stroke-width="2"/>
    <circle cx="260.0" cy="245.0" r="25.0"
                        fill="white" stroke="black" stroke-width="2"/>
    <circle cx="315.0" cy="245.0" r="25.0"
                        fill="white" stroke="black" stroke-width="2"/>
    <circle cx="370.0" cy="245.0" r="25.0"
                        fill="white" stroke="black" stroke-width="2"/>
    <circle cx="260.0" cy="300.0" r="25.0"
                        fill="white" stroke="black" stroke-width="2"/>
    <rect x="290" y="275" 
                        width="50" height="50" 
                        fill="black" stroke="black" stroke-width="2"/>
    <circle cx="370.0" cy="300.0" r="25.0"
                        fill="white" stroke="black" stroke-width="2"/>
    <rect x="450" y="0" 
            width="165" height="330" 
            fill="none" stroke="black" stroke-width="3"/>
    <polygon points="475.0,0 450,50 500,50"
                        fill="black" stroke="black" stroke-width="2"/>
    <rect x="505" y="0" 
                        width="50" height="50" 
                        fill="black" stroke="black" stroke-width="2"/>
    <rect x="560" y="0" 
                        width="50" height="50" 
                        fill="white" stroke="black" stroke-width="2"/>
    <rect x="450" y="55" 
                        width="50" height="50" 
                        fill="white" stroke="black" stroke-width="2"/>
    <polygon points="530.0,55 505,105 555,105"
                        fill="white" stroke="black" stroke-width="2"/>
    <circle cx="585.0" cy="80.0" r="25.0"
                        fill="white" stroke="black" stroke-width="2"/>
    <circle cx="475.0" cy="135.0" r="25.0"
                        fill="white" stroke="black" stroke-width="2"/>
    <polygon points="530.0,110 505,160 555,160"
                        fill="black" stroke="black" stroke-width="2"/>
    <rect x="560" y="110" 
                        width="50" height="50" 
                        fill="white" stroke="black" stroke-width="2"/>
    <rect x="450" y="165" 
                        width="50" height="50" 
                        fill="white" stroke="black" stroke-width="2"/>
    <circle cx="530.0" cy="190.0" r="25.0"
                        fill="black" stroke="black" stroke-width="2"/>
    <polygon points="585.0,165 560,215 610,215"
                        fill="white" stroke="black" stroke-width="2"/>
    <circle cx="475.0" cy="245.0" r="25.0"
                        fill="white" stroke="black" stroke-width="2"/>
    <polygon points="530.0,220 505,270 555,270"
                        fill="white" stroke="black" stroke-width="2"/>
    <circle cx="585.0" cy="245.0" r="25.0"
                        fill="white" stroke="black" stroke-width="2"/>
    <polygon points="475.0,275 450,325 500,325"
                        fill="white" stroke="black" stroke-width="2"/>
    <polygon points="530.0,275 505,325 555,325"
                        fill="white" stroke="black" stroke-width="2"/>
    <circle cx="585.0" cy="300.0" r="25.0"
                        fill="black" stroke="black" stroke-width="2"/>
</svg>