<?xml version="1.0" encoding="UTF-8" standalone="no"?>
<svg width="635" height="330" xmlns="http://www.w3.org/2000/svg">
    <!-- White background -->
    <rect width="635" height="330" fill="white"/>
    <rect x="20" y="0" 
            width="165" height="330" 
            fill="none" stroke="black" stroke-width="3"/>
    <rect x="20" y="0" 
                        width="50" height="50" 
                        fill="black" stroke="black" stroke-width="2"/>
    <rect x="75" y="0" 
                        width="50" height="50" 
                        fill="white" stroke="black" stroke-width="2"/>
    <circle cx="155.0" cy="25.0" r="25.0"
                        fill="white" stroke="black" stroke-width="2"/>
    <rect x="20" y="55" 
                        width="50" height="50" 
                        fill="black" stroke="black" stroke-width="2"/>
    <rect x="75" y="55" 
                        width="50" height="50" 
                        fill="black" stroke="black" stroke-width="2"/>
    <rect x="130" y="55" 
                        width="50" height="50" 
                        fill="black" stroke="black" stroke-width="2"/>
    <rect x="20" y="110" 
                        width="50" height="50" 
                        fill="white" stroke="black" stroke-width="2"/>
    <polygon points="100.0,110 75,160 125,160"
                        fill="white" stroke="black" stroke-width="2"/>
    <polygon points="155.0,110 130,160 180,160"
                        fill="black" stroke="black" stroke-width="2"/>
    <circle cx="45.0" cy="190.0" r="25.0"
                        fill="white" stroke="black" stroke-width="2"/>
    <rect x="75" y="165" 
                        width="50" height="50" 
                        fill="white" stroke="black" stroke-width="2"/>
    <rect x="130" y="165" 
                        width="50" height="50" 
                        fill="white" stroke="black" stroke-width="2"/>
    <circle cx="45.0" cy="245.0" r="25.0"
                        fill="black" stroke="black" stroke-width="2"/>
    <polygon points="100.0,220 75,270 125,270"
                        fill="white" stroke="black" stroke-width="2"/>
    <circle cx="155.0" cy="245.0" r="25.0"
                        fill="black" stroke="black" stroke-width="2"/>
    <polygon points="45.0,275 20,325 70,325"
                        fill="white" stroke="black" stroke-width="2"/>
    <circle cx="100.0" cy="300.0" r="25.0"
                        fill="white" stroke="black" stroke-width="2"/>
    <rect x="130" y="275" 
                        width="50" height="50" 
                        fill="black" stroke="black" stroke-width="2"/>
    <rect x="235" y="0" 
            width="165" height="330" 
            fill="none" stroke="black" stroke-width="3"/>
    <rect x="235" y="0" 
                        width="50" height="50" 
                        fill="black" stroke="black" stroke-width="2"/>
    <circle cx="315.0" cy="25.0" r="25.0"
                        fill="black" stroke="black" stroke-width="2"/>
    <polygon points="370.0,0 345,50 395,50"
                        fill="white" stroke="black" stroke-width="2"/>
    <polygon points="260.0,55 235,105 285,105"
                        fill="white" stroke="black" stroke-width="2"/>
    <polygon points="315.0,55 290,105 340,105"
                        fill="white" stroke="black" stroke-width="2"/>
    <rect x="345" y="55" 
                        width="50" height="50" 
                        fill="white" stroke="black" stroke-width="2"/>
    <circle cx="260.0" cy="135.0" r="25.0"
                        fill="white" stroke="black" stroke-width="2"/>
    <circle cx="315.0" cy="135.0" r="25.0"
                        fill="white" stroke="black" stroke-width="2"/>
    <polygon points="370.0,110 345,160 395,160"
                        fill="black" stroke="black" stroke-width="2"/>
    <circle cx="260.0" cy="190.0" r="25.0"
                        fill="black" stroke="black" stroke-width="2"/>
    <rect x="290" y="165" 
                        width="50" height="50" 
                        fill="white" stroke="black" stroke-width="2"/>
    <rect x="345" y="165" 
                        width="50" height="50" 
                        fill="black" stroke="black" stroke-width="2"/>
    <circle cx="260.0" cy="245.0" r="25.0"
                        fill="black" stroke="black" stroke-width="2"/>
    <rect x="290" y="220" 
                        width="50" height="50" 
                        fill="black" stroke="black" stroke-width="2"/>
    <polygon points="370.0,220 345,270 395,270"
                        fill="white" stroke="black" stroke-width="2"/>
    <rect x="235" y="275" 
                        width="50" height="50" 
                        fill="black" stroke="black" stroke-width="2"/>
    <rect x="290" y="275" 
                        width="50" height="50" 
                        fill="black" stroke="black" stroke-width="2"/>
    <circle cx="370.0" cy="300.0" r="25.0"
                        fill="black" stroke="black" stroke-width="2"/>
    <rect x="450" y="0" 
            width="165" height="330" 
            fill="none" stroke="black" stroke-width="3"/>
    <circle cx="475.0" cy="25.0" r="25.0"
                        fill="black" stroke="black" stroke-width="2"/>
    <rect x="505" y="0" 
                        width="50" height="50" 
                        fill="white" stroke="black" stroke-width="2"/>
    <rect x="560" y="0" 
                        width="50" height="50" 
                        fill="black" stroke="black" stroke-width="2"/>
    <polygon points="475.0,55 450,105 500,105"
                        fill="white" stroke="black" stroke-width="2"/>
    <polygon points="530.0,55 505,105 555,105"
                        fill="black" stroke="black" stroke-width="2"/>
    <rect x="560" y="55" 
                        width="50" height="50" 
                        fill="black" stroke="black" stroke-width="2"/>
    <rect x="450" y="110" 
                        width="50" height="50" 
                        fill="white" stroke="black" stroke-width="2"/>
    <polygon points="530.0,110 505,160 555,160"
                        fill="white" stroke="black" stroke-width="2"/>
    <polygon points="585.0,110 560,160 610,160"
                        fill="black" stroke="black" stroke-width="2"/>
    <rect x="450" y="165" 
                        width="50" height="50" 
                        fill="black" stroke="black" stroke-width="2"/>
    <circle cx="530.0" cy="190.0" r="25.0"
                        fill="black" stroke="black" stroke-width="2"/>
    <polygon points="585.0,165 560,215 610,215"
                        fill="white" stroke="black" stroke-width="2"/>
    <rect x="450" y="220" 
                        width="50" height="50" 
                        fill="black" stroke="black" stroke-width="2"/>
    <circle cx="530.0" cy="245.0" r="25.0"
                        fill="white" stroke="black" stroke-width="2"/>
    <polygon points="585.0,220 560,270 610,270"
                        fill="white" stroke="black" stroke-width="2"/>
    <rect x="450" y="275" 
                        width="50" height="50" 
                        fill="white" stroke="black" stroke-width="2"/>
    <polygon points="530.0,275 505,325 555,325"
                        fill="white" stroke="black" stroke-width="2"/>
    <polygon points="585.0,275 560,325 610,325"
                        fill="white" stroke="black" stroke-width="2"/>
</svg>