<?xml version="1.0" encoding="UTF-8" standalone="no"?>
<svg width="635" height="165" xmlns="http://www.w3.org/2000/svg">
    <!-- White background -->
    <rect width="635" height="165" fill="white"/>
    <rect x="20" y="0" 
            width="165" height="165" 
            fill="none" stroke="black" stroke-width="3"/>
    <rect x="20" y="0" 
                        width="50" height="50" 
                        fill="white" stroke="black" stroke-width="2"/>
    <polygon points="100.0,0 75,50 125,50"
                        fill="black" stroke="black" stroke-width="2"/>
    <circle cx="155.0" cy="25.0" r="25.0"
                        fill="white" stroke="black" stroke-width="2"/>
    <rect x="20" y="55" 
                        width="50" height="50" 
                        fill="black" stroke="black" stroke-width="2"/>
    <rect x="75" y="55" 
                        width="50" height="50" 
                        fill="black" stroke="black" stroke-width="2"/>
    <rect x="130" y="55" 
                        width="50" height="50" 
                        fill="white" stroke="black" stroke-width="2"/>
    <polygon points="45.0,110 20,160 70,160"
                        fill="white" stroke="black" stroke-width="2"/>
    <circle cx="100.0" cy="135.0" r="25.0"
                        fill="white" stroke="black" stroke-width="2"/>
    <circle cx="155.0" cy="135.0" r="25.0"
                        fill="white" stroke="black" stroke-width="2"/>
    <rect x="235" y="0" 
            width="165" height="165" 
            fill="none" stroke="black" stroke-width="3"/>
    <rect x="235" y="0" 
                        width="50" height="50" 
                        fill="black" stroke="black" stroke-width="2"/>
    <rect x="290" y="0" 
                        width="50" height="50" 
                        fill="white" stroke="black" stroke-width="2"/>
    <circle cx="370.0" cy="25.0" r="25.0"
                        fill="white" stroke="black" stroke-width="2"/>
    <circle cx="260.0" cy="80.0" r="25.0"
                        fill="white" stroke="black" stroke-width="2"/>
    <polygon points="315.0,55 290,105 340,105"
                        fill="white" stroke="black" stroke-width="2"/>
    <rect x="345" y="55" 
                        width="50" height="50" 
                        fill="black" stroke="black" stroke-width="2"/>
    <polygon points="260.0,110 235,160 285,160"
                        fill="black" stroke="black" stroke-width="2"/>
    <polygon points="315.0,110 290,160 340,160"
                        fill="white" stroke="black" stroke-width="2"/>
    <rect x="345" y="110" 
                        width="50" height="50" 
                        fill="black" stroke="black" stroke-width="2"/>
    <rect x="450" y="0" 
            width="165" height="165" 
            fill="none" stroke="black" stroke-width="3"/>
    <circle cx="475.0" cy="25.0" r="25.0"
                        fill="black" stroke="black" stroke-width="2"/>
    <circle cx="530.0" cy="25.0" r="25.0"
                        fill="white" stroke="black" stroke-width="2"/>
    <rect x="560" y="0" 
                        width="50" height="50" 
                        fill="white" stroke="black" stroke-width="2"/>
    <circle cx="475.0" cy="80.0" r="25.0"
                        fill="black" stroke="black" stroke-width="2"/>
    <rect x="505" y="55" 
                        width="50" height="50" 
                        fill="black" stroke="black" stroke-width="2"/>
    <polygon points="585.0,55 560,105 610,105"
                        fill="black" stroke="black" stroke-width="2"/>
    <circle cx="475.0" cy="135.0" r="25.0"
                        fill="white" stroke="black" stroke-width="2"/>
    <polygon points="530.0,110 505,160 555,160"
                        fill="white" stroke="black" stroke-width="2"/>
    <polygon points="585.0,110 560,160 610,160"
                        fill="white" stroke="black" stroke-width="2"/>
</svg>