<?xml version="1.0" encoding="UTF-8" standalone="no"?>
<svg width="1065" height="330" xmlns="http://www.w3.org/2000/svg">
    <!-- White background -->
    <rect width="1065" height="330" fill="white"/>
    <rect x="20" y="0" 
            width="165" height="330" 
            fill="none" stroke="black" stroke-width="3"/>
    <circle cx="45.0" cy="25.0" r="25.0"
                        fill="black" stroke="black" stroke-width="2"/>
    <polygon points="100.0,0 75,50 125,50"
                        fill="black" stroke="black" stroke-width="2"/>
    <circle cx="155.0" cy="25.0" r="25.0"
                        fill="white" stroke="black" stroke-width="2"/>
    <rect x="20" y="55" 
                        width="50" height="50" 
                        fill="white" stroke="black" stroke-width="2"/>
    <polygon points="100.0,55 75,105 125,105"
                        fill="black" stroke="black" stroke-width="2"/>
    <circle cx="155.0" cy="80.0" r="25.0"
                        fill="white" stroke="black" stroke-width="2"/>
    <rect x="20" y="110" 
                        width="50" height="50" 
                        fill="black" stroke="black" stroke-width="2"/>
    <polygon points="100.0,110 75,160 125,160"
                        fill="black" stroke="black" stroke-width="2"/>
    <polygon points="155.0,110 130,160 180,160"
                        fill="white" stroke="black" stroke-width="2"/>
    <polygon points="45.0,165 20,215 70,215"
                        fill="white" stroke="black" stroke-width="2"/>
    <circle cx="100.0" cy="190.0" r="25.0"
                        fill="white" stroke="black" stroke-width="2"/>
    <polygon points="155.0,165 130,215 180,215"
                        fill="black" stroke="black" stroke-width="2"/>
    <polygon points="45.0,220 20,270 70,270"
                        fill="black" stroke="black" stroke-width="2"/>
    <polygon points="100.0,220 75,270 125,270"
                        fill="white" stroke="black" stroke-width="2"/>
    <rect x="130" y="220" 
                        width="50" height="50" 
                        fill="white" stroke="black" stroke-width="2"/>
    <circle cx="45.0" cy="300.0" r="25.0"
                        fill="white" stroke="black" stroke-width="2"/>
    <circle cx="100.0" cy="300.0" r="25.0"
                        fill="white" stroke="black" stroke-width="2"/>
    <rect x="130" y="275" 
                        width="50" height="50" 
                        fill="white" stroke="black" stroke-width="2"/>
    <rect x="235" y="0" 
            width="165" height="330" 
            fill="none" stroke="black" stroke-width="3"/>
    <circle cx="260.0" cy="25.0" r="25.0"
                        fill="black" stroke="black" stroke-width="2"/>
    <circle cx="315.0" cy="25.0" r="25.0"
                        fill="white" stroke="black" stroke-width="2"/>
    <polygon points="370.0,0 345,50 395,50"
                        fill="white" stroke="black" stroke-width="2"/>
    <polygon points="260.0,55 235,105 285,105"
                        fill="black" stroke="black" stroke-width="2"/>
    <circle cx="315.0" cy="80.0" r="25.0"
                        fill="white" stroke="black" stroke-width="2"/>
    <circle cx="370.0" cy="80.0" r="25.0"
                        fill="white" stroke="black" stroke-width="2"/>
    <circle cx="260.0" cy="135.0" r="25.0"
                        fill="black" stroke="black" stroke-width="2"/>
    <rect x="290" y="110" 
                        width="50" height="50" 
                        fill="black" stroke="black" stroke-width="2"/>
    <polygon points="370.0,110 345,160 395,160"
                        fill="white" stroke="black" stroke-width="2"/>
    <polygon points="260.0,165 235,215 285,215"
                        fill="white" stroke="black" stroke-width="2"/>
    <polygon points="315.0,165 290,215 340,215"
                        fill="black" stroke="black" stroke-width="2"/>
    <rect x="345" y="165" 
                        width="50" height="50" 
                        fill="white" stroke="black" stroke-width="2"/>
    <circle cx="260.0" cy="245.0" r="25.0"
                        fill="black" stroke="black" stroke-width="2"/>
    <polygon points="315.0,220 290,270 340,270"
                        fill="white" stroke="black" stroke-width="2"/>
    <polygon points="370.0,220 345,270 395,270"
                        fill="black" stroke="black" stroke-width="2"/>
    <circle cx="260.0" cy="300.0" r="25.0"
                        fill="white" stroke="black" stroke-width="2"/>
    <circle cx="315.0" cy="300.0" r="25.0"
                        fill="black" stroke="black" stroke-width="2"/>
    <polygon points="370.0,275 345,325 395,325"
                        fill="black" stroke="black" stroke-width="2"/>
    <rect x="450" y="0" 
            width="165" height="330" 
            fill="none" stroke="black" stroke-width="3"/>
    <circle cx="475.0" cy="25.0" r="25.0"
                        fill="white" stroke="black" stroke-width="2"/>
    <circle cx="530.0" cy="25.0" r="25.0"
                        fill="black" stroke="black" stroke-width="2"/>
    <polygon points="585.0,0 560,50 610,50"
                        fill="black" stroke="black" stroke-width="2"/>
    <rect x="450" y="55" 
                        width="50" height="50" 
                        fill="black" stroke="black" stroke-width="2"/>
    <polygon points="530.0,55 505,105 555,105"
                        fill="white" stroke="black" stroke-width="2"/>
    <rect x="560" y="55" 
                        width="50" height="50" 
                        fill="white" stroke="black" stroke-width="2"/>
    <circle cx="475.0" cy="135.0" r="25.0"
                        fill="white" stroke="black" stroke-width="2"/>
    <rect x="505" y="110" 
                        width="50" height="50" 
                        fill="black" stroke="black" stroke-width="2"/>
    <polygon points="585.0,110 560,160 610,160"
                        fill="black" stroke="black" stroke-width="2"/>
    <polygon points="475.0,165 450,215 500,215"
                        fill="white" stroke="black" stroke-width="2"/>
    <circle cx="530.0" cy="190.0" r="25.0"
                        fill="white" stroke="black" stroke-width="2"/>
    <rect x="560" y="165" 
                        width="50" height="50" 
                        fill="white" stroke="black" stroke-width="2"/>
    <circle cx="475.0" cy="245.0" r="25.0"
                        fill="black" stroke="black" stroke-width="2"/>
    <polygon points="530.0,220 505,270 555,270"
                        fill="black" stroke="black" stroke-width="2"/>
    <circle cx="585.0" cy="245.0" r="25.0"
                        fill="black" stroke="black" stroke-width="2"/>
    <circle cx="475.0" cy="300.0" r="25.0"
                        fill="white" stroke="black" stroke-width="2"/>
    <circle cx="530.0" cy="300.0" r="25.0"
                        fill="white" stroke="black" stroke-width="2"/>
    <circle cx="585.0" cy="300.0" r="25.0"
                        fill="black" stroke="black" stroke-width="2"/>
    <rect x="665" y="0" 
            width="165" height="330" 
            fill="none" stroke="black" stroke-width="3"/>
    <circle cx="690.0" cy="25.0" r="25.0"
                        fill="white" stroke="black" stroke-width="2"/>
    <circle cx="745.0" cy="25.0" r="25.0"
                        fill="white" stroke="black" stroke-width="2"/>
    <circle cx="800.0" cy="25.0" r="25.0"
                        fill="black" stroke="black" stroke-width="2"/>
    <polygon points="690.0,55 665,105 715,105"
                        fill="white" stroke="black" stroke-width="2"/>
    <circle cx="745.0" cy="80.0" r="25.0"
                        fill="white" stroke="black" stroke-width="2"/>
    <polygon points="800.0,55 775,105 825,105"
                        fill="white" stroke="black" stroke-width="2"/>
    <polygon points="690.0,110 665,160 715,160"
                        fill="black" stroke="black" stroke-width="2"/>
    <circle cx="745.0" cy="135.0" r="25.0"
                        fill="black" stroke="black" stroke-width="2"/>
    <rect x="775" y="110" 
                        width="50" height="50" 
                        fill="black" stroke="black" stroke-width="2"/>
    <rect x="665" y="165" 
                        width="50" height="50" 
                        fill="white" stroke="black" stroke-width="2"/>
    <rect x="720" y="165" 
                        width="50" height="50" 
                        fill="black" stroke="black" stroke-width="2"/>
    <polygon points="800.0,165 775,215 825,215"
                        fill="black" stroke="black" stroke-width="2"/>
    <circle cx="690.0" cy="245.0" r="25.0"
                        fill="black" stroke="black" stroke-width="2"/>
    <polygon points="745.0,220 720,270 770,270"
                        fill="black" stroke="black" stroke-width="2"/>
    <rect x="775" y="220" 
                        width="50" height="50" 
                        fill="white" stroke="black" stroke-width="2"/>
    <rect x="665" y="275" 
                        width="50" height="50" 
                        fill="white" stroke="black" stroke-width="2"/>
    <rect x="720" y="275" 
                        width="50" height="50" 
                        fill="black" stroke="black" stroke-width="2"/>
    <polygon points="800.0,275 775,325 825,325"
                        fill="white" stroke="black" stroke-width="2"/>
    <rect x="880" y="0" 
            width="165" height="330" 
            fill="none" stroke="black" stroke-width="3"/>
    <rect x="880" y="0" 
                        width="50" height="50" 
                        fill="black" stroke="black" stroke-width="2"/>
    <polygon points="960.0,0 935,50 985,50"
                        fill="white" stroke="black" stroke-width="2"/>
    <circle cx="1015.0" cy="25.0" r="25.0"
                        fill="white" stroke="black" stroke-width="2"/>
    <polygon points="905.0,55 880,105 930,105"
                        fill="white" stroke="black" stroke-width="2"/>
    <polygon points="960.0,55 935,105 985,105"
                        fill="white" stroke="black" stroke-width="2"/>
    <circle cx="1015.0" cy="80.0" r="25.0"
                        fill="white" stroke="black" stroke-width="2"/>
    <rect x="880" y="110" 
                        width="50" height="50" 
                        fill="black" stroke="black" stroke-width="2"/>
    <circle cx="960.0" cy="135.0" r="25.0"
                        fill="white" stroke="black" stroke-width="2"/>
    <circle cx="1015.0" cy="135.0" r="25.0"
                        fill="white" stroke="black" stroke-width="2"/>
    <circle cx="905.0" cy="190.0" r="25.0"
                        fill="black" stroke="black" stroke-width="2"/>
    <polygon points="960.0,165 935,215 985,215"
                        fill="white" stroke="black" stroke-width="2"/>
    <polygon points="1015.0,165 990,215 1040,215"
                        fill="white" stroke="black" stroke-width="2"/>
    <rect x="880" y="220" 
                        width="50" height="50" 
                        fill="white" stroke="black" stroke-width="2"/>
    <rect x="935" y="220" 
                        width="50" height="50" 
                        fill="black" stroke="black" stroke-width="2"/>
    <circle cx="1015.0" cy="245.0" r="25.0"
                        fill="white" stroke="black" stroke-width="2"/>
    <circle cx="905.0" cy="300.0" r="25.0"
                        fill="black" stroke="black" stroke-width="2"/>
    <circle cx="960.0" cy="300.0" r="25.0"
                        fill="white" stroke="black" stroke-width="2"/>
    <rect x="990" y="275" 
                        width="50" height="50" 
                        fill="white" stroke="black" stroke-width="2"/>
</svg>