<?xml version="1.0" encoding="UTF-8" standalone="no"?>
<svg width="370" height="330" xmlns="http://www.w3.org/2000/svg">
    <!-- White background -->
    <rect width="370" height="330" fill="white"/>
    <rect x="20" y="0" 
            width="330" height="330" 
            fill="none" stroke="black" stroke-width="3"/>
    <circle cx="45.0" cy="25.0" r="25.0"
                        fill="white" stroke="black" stroke-width="2"/>
    <rect x="75" y="0" 
                        width="50" height="50" 
                        fill="black" stroke="black" stroke-width="2"/>
    <polygon points="155.0,0 130,50 180,50"
                        fill="black" stroke="black" stroke-width="2"/>
    <polygon points="210.0,0 185,50 235,50"
                        fill="white" stroke="black" stroke-width="2"/>
    <rect x="240" y="0" 
                        width="50" height="50" 
                        fill="black" stroke="black" stroke-width="2"/>
    <rect x="295" y="0" 
                        width="50" height="50" 
                        fill="black" stroke="black" stroke-width="2"/>
    <polygon points="45.0,55 20,105 70,105"
                        fill="black" stroke="black" stroke-width="2"/>
    <circle cx="100.0" cy="80.0" r="25.0"
                        fill="black" stroke="black" stroke-width="2"/>
    <polygon points="155.0,55 130,105 180,105"
                        fill="white" stroke="black" stroke-width="2"/>
    <rect x="185" y="55" 
                        width="50" height="50" 
                        fill="white" stroke="black" stroke-width="2"/>
    <circle cx="265.0" cy="80.0" r="25.0"
                        fill="white" stroke="black" stroke-width="2"/>
    <rect x="295" y="55" 
                        width="50" height="50" 
                        fill="black" stroke="black" stroke-width="2"/>
    <polygon points="45.0,110 20,160 70,160"
                        fill="white" stroke="black" stroke-width="2"/>
    <circle cx="100.0" cy="135.0" r="25.0"
                        fill="black" stroke="black" stroke-width="2"/>
    <polygon points="155.0,110 130,160 180,160"
                        fill="black" stroke="black" stroke-width="2"/>
    <rect x="185" y="110" 
                        width="50" height="50" 
                        fill="black" stroke="black" stroke-width="2"/>
    <rect x="240" y="110" 
                        width="50" height="50" 
                        fill="black" stroke="black" stroke-width="2"/>
    <circle cx="320.0" cy="135.0" r="25.0"
                        fill="black" stroke="black" stroke-width="2"/>
    <rect x="20" y="165" 
                        width="50" height="50" 
                        fill="white" stroke="black" stroke-width="2"/>
    <circle cx="100.0" cy="190.0" r="25.0"
                        fill="white" stroke="black" stroke-width="2"/>
    <circle cx="155.0" cy="190.0" r="25.0"
                        fill="white" stroke="black" stroke-width="2"/>
    <polygon points="210.0,165 185,215 235,215"
                        fill="black" stroke="black" stroke-width="2"/>
    <rect x="240" y="165" 
                        width="50" height="50" 
                        fill="white" stroke="black" stroke-width="2"/>
    <polygon points="320.0,165 295,215 345,215"
                        fill="black" stroke="black" stroke-width="2"/>
    <polygon points="45.0,220 20,270 70,270"
                        fill="black" stroke="black" stroke-width="2"/>
    <polygon points="100.0,220 75,270 125,270"
                        fill="black" stroke="black" stroke-width="2"/>
    <circle cx="155.0" cy="245.0" r="25.0"
                        fill="white" stroke="black" stroke-width="2"/>
    <circle cx="210.0" cy="245.0" r="25.0"
                        fill="white" stroke="black" stroke-width="2"/>
    <circle cx="265.0" cy="245.0" r="25.0"
                        fill="black" stroke="black" stroke-width="2"/>
    <polygon points="320.0,220 295,270 345,270"
                        fill="black" stroke="black" stroke-width="2"/>
    <polygon points="45.0,275 20,325 70,325"
                        fill="white" stroke="black" stroke-width="2"/>
    <rect x="75" y="275" 
                        width="50" height="50" 
                        fill="white" stroke="black" stroke-width="2"/>
    <rect x="130" y="275" 
                        width="50" height="50" 
                        fill="white" stroke="black" stroke-width="2"/>
    <circle cx="210.0" cy="300.0" r="25.0"
                        fill="black" stroke="black" stroke-width="2"/>
    <rect x="240" y="275" 
                        width="50" height="50" 
                        fill="white" stroke="black" stroke-width="2"/>
    <rect x="295" y="275" 
                        width="50" height="50" 
                        fill="white" stroke="black" stroke-width="2"/>
</svg>