<?xml version="1.0" encoding="UTF-8" standalone="no"?>
<svg width="1130" height="330" xmlns="http://www.w3.org/2000/svg">
    <!-- White background -->
    <rect width="1130" height="330" fill="white"/>
    <rect x="20" y="0" 
            width="330" height="330" 
            fill="none" stroke="black" stroke-width="3"/>
    <rect x="20" y="0" 
                        width="50" height="50" 
                        fill="white" stroke="black" stroke-width="2"/>
    <circle cx="100.0" cy="25.0" r="25.0"
                        fill="black" stroke="black" stroke-width="2"/>
    <polygon points="155.0,0 130,50 180,50"
                        fill="black" stroke="black" stroke-width="2"/>
    <rect x="185" y="0" 
                        width="50" height="50" 
                        fill="white" stroke="black" stroke-width="2"/>
    <polygon points="265.0,0 240,50 290,50"
                        fill="white" stroke="black" stroke-width="2"/>
    <polygon points="320.0,0 295,50 345,50"
                        fill="black" stroke="black" stroke-width="2"/>
    <polygon points="45.0,55 20,105 70,105"
                        fill="black" stroke="black" stroke-width="2"/>
    <circle cx="100.0" cy="80.0" r="25.0"
                        fill="black" stroke="black" stroke-width="2"/>
    <polygon points="155.0,55 130,105 180,105"
                        fill="white" stroke="black" stroke-width="2"/>
    <circle cx="210.0" cy="80.0" r="25.0"
                        fill="white" stroke="black" stroke-width="2"/>
    <circle cx="265.0" cy="80.0" r="25.0"
                        fill="white" stroke="black" stroke-width="2"/>
    <circle cx="320.0" cy="80.0" r="25.0"
                        fill="black" stroke="black" stroke-width="2"/>
    <rect x="20" y="110" 
                        width="50" height="50" 
                        fill="black" stroke="black" stroke-width="2"/>
    <rect x="75" y="110" 
                        width="50" height="50" 
                        fill="white" stroke="black" stroke-width="2"/>
    <polygon points="155.0,110 130,160 180,160"
                        fill="white" stroke="black" stroke-width="2"/>
    <rect x="185" y="110" 
                        width="50" height="50" 
                        fill="black" stroke="black" stroke-width="2"/>
    <circle cx="265.0" cy="135.0" r="25.0"
                        fill="black" stroke="black" stroke-width="2"/>
    <polygon points="320.0,110 295,160 345,160"
                        fill="white" stroke="black" stroke-width="2"/>
    <circle cx="45.0" cy="190.0" r="25.0"
                        fill="white" stroke="black" stroke-width="2"/>
    <polygon points="100.0,165 75,215 125,215"
                        fill="white" stroke="black" stroke-width="2"/>
    <rect x="130" y="165" 
                        width="50" height="50" 
                        fill="white" stroke="black" stroke-width="2"/>
    <rect x="185" y="165" 
                        width="50" height="50" 
                        fill="white" stroke="black" stroke-width="2"/>
    <polygon points="265.0,165 240,215 290,215"
                        fill="white" stroke="black" stroke-width="2"/>
    <polygon points="320.0,165 295,215 345,215"
                        fill="black" stroke="black" stroke-width="2"/>
    <circle cx="45.0" cy="245.0" r="25.0"
                        fill="black" stroke="black" stroke-width="2"/>
    <polygon points="100.0,220 75,270 125,270"
                        fill="white" stroke="black" stroke-width="2"/>
    <rect x="130" y="220" 
                        width="50" height="50" 
                        fill="white" stroke="black" stroke-width="2"/>
    <polygon points="210.0,220 185,270 235,270"
                        fill="black" stroke="black" stroke-width="2"/>
    <rect x="240" y="220" 
                        width="50" height="50" 
                        fill="black" stroke="black" stroke-width="2"/>
    <circle cx="320.0" cy="245.0" r="25.0"
                        fill="white" stroke="black" stroke-width="2"/>
    <polygon points="45.0,275 20,325 70,325"
                        fill="white" stroke="black" stroke-width="2"/>
    <circle cx="100.0" cy="300.0" r="25.0"
                        fill="white" stroke="black" stroke-width="2"/>
    <polygon points="155.0,275 130,325 180,325"
                        fill="black" stroke="black" stroke-width="2"/>
    <circle cx="210.0" cy="300.0" r="25.0"
                        fill="black" stroke="black" stroke-width="2"/>
    <polygon points="265.0,275 240,325 290,325"
                        fill="black" stroke="black" stroke-width="2"/>
    <polygon points="320.0,275 295,325 345,325"
                        fill="black" stroke="black" stroke-width="2"/>
    <rect x="400" y="0" 
            width="330" height="330" 
            fill="none" stroke="black" stroke-width="3"/>
    <rect x="400" y="0" 
                        width="50" height="50" 
                        fill="black" stroke="black" stroke-width="2"/>
    <polygon points="480.0,0 455,50 505,50"
                        fill="black" stroke="black" stroke-width="2"/>
    <circle cx="535.0" cy="25.0" r="25.0"
                        fill="black" stroke="black" stroke-width="2"/>
    <circle cx="590.0" cy="25.0" r="25.0"
                        fill="black" stroke="black" stroke-width="2"/>
    <rect x="620" y="0" 
                        width="50" height="50" 
                        fill="white" stroke="black" stroke-width="2"/>
    <circle cx="700.0" cy="25.0" r="25.0"
                        fill="white" stroke="black" stroke-width="2"/>
    <circle cx="425.0" cy="80.0" r="25.0"
                        fill="white" stroke="black" stroke-width="2"/>
    <rect x="455" y="55" 
                        width="50" height="50" 
                        fill="white" stroke="black" stroke-width="2"/>
    <circle cx="535.0" cy="80.0" r="25.0"
                        fill="black" stroke="black" stroke-width="2"/>
    <polygon points="590.0,55 565,105 615,105"
                        fill="white" stroke="black" stroke-width="2"/>
    <rect x="620" y="55" 
                        width="50" height="50" 
                        fill="white" stroke="black" stroke-width="2"/>
    <polygon points="700.0,55 675,105 725,105"
                        fill="white" stroke="black" stroke-width="2"/>
    <circle cx="425.0" cy="135.0" r="25.0"
                        fill="white" stroke="black" stroke-width="2"/>
    <polygon points="480.0,110 455,160 505,160"
                        fill="black" stroke="black" stroke-width="2"/>
    <circle cx="535.0" cy="135.0" r="25.0"
                        fill="white" stroke="black" stroke-width="2"/>
    <rect x="565" y="110" 
                        width="50" height="50" 
                        fill="white" stroke="black" stroke-width="2"/>
    <rect x="620" y="110" 
                        width="50" height="50" 
                        fill="black" stroke="black" stroke-width="2"/>
    <rect x="675" y="110" 
                        width="50" height="50" 
                        fill="black" stroke="black" stroke-width="2"/>
    <polygon points="425.0,165 400,215 450,215"
                        fill="white" stroke="black" stroke-width="2"/>
    <circle cx="480.0" cy="190.0" r="25.0"
                        fill="black" stroke="black" stroke-width="2"/>
    <rect x="510" y="165" 
                        width="50" height="50" 
                        fill="black" stroke="black" stroke-width="2"/>
    <circle cx="590.0" cy="190.0" r="25.0"
                        fill="black" stroke="black" stroke-width="2"/>
    <circle cx="645.0" cy="190.0" r="25.0"
                        fill="white" stroke="black" stroke-width="2"/>
    <circle cx="700.0" cy="190.0" r="25.0"
                        fill="white" stroke="black" stroke-width="2"/>
    <circle cx="425.0" cy="245.0" r="25.0"
                        fill="black" stroke="black" stroke-width="2"/>
    <rect x="455" y="220" 
                        width="50" height="50" 
                        fill="black" stroke="black" stroke-width="2"/>
    <rect x="510" y="220" 
                        width="50" height="50" 
                        fill="black" stroke="black" stroke-width="2"/>
    <polygon points="590.0,220 565,270 615,270"
                        fill="black" stroke="black" stroke-width="2"/>
    <circle cx="645.0" cy="245.0" r="25.0"
                        fill="white" stroke="black" stroke-width="2"/>
    <circle cx="700.0" cy="245.0" r="25.0"
                        fill="white" stroke="black" stroke-width="2"/>
    <polygon points="425.0,275 400,325 450,325"
                        fill="black" stroke="black" stroke-width="2"/>
    <polygon points="480.0,275 455,325 505,325"
                        fill="black" stroke="black" stroke-width="2"/>
    <circle cx="535.0" cy="300.0" r="25.0"
                        fill="black" stroke="black" stroke-width="2"/>
    <circle cx="590.0" cy="300.0" r="25.0"
                        fill="white" stroke="black" stroke-width="2"/>
    <rect x="620" y="275" 
                        width="50" height="50" 
                        fill="black" stroke="black" stroke-width="2"/>
    <rect x="675" y="275" 
                        width="50" height="50" 
                        fill="black" stroke="black" stroke-width="2"/>
    <rect x="780" y="0" 
            width="330" height="330" 
            fill="none" stroke="black" stroke-width="3"/>
    <rect x="780" y="0" 
                        width="50" height="50" 
                        fill="white" stroke="black" stroke-width="2"/>
    <circle cx="860.0" cy="25.0" r="25.0"
                        fill="black" stroke="black" stroke-width="2"/>
    <rect x="890" y="0" 
                        width="50" height="50" 
                        fill="white" stroke="black" stroke-width="2"/>
    <rect x="945" y="0" 
                        width="50" height="50" 
                        fill="white" stroke="black" stroke-width="2"/>
    <rect x="1000" y="0" 
                        width="50" height="50" 
                        fill="black" stroke="black" stroke-width="2"/>
    <circle cx="1080.0" cy="25.0" r="25.0"
                        fill="white" stroke="black" stroke-width="2"/>
    <rect x="780" y="55" 
                        width="50" height="50" 
                        fill="black" stroke="black" stroke-width="2"/>
    <polygon points="860.0,55 835,105 885,105"
                        fill="white" stroke="black" stroke-width="2"/>
    <polygon points="915.0,55 890,105 940,105"
                        fill="white" stroke="black" stroke-width="2"/>
    <circle cx="970.0" cy="80.0" r="25.0"
                        fill="black" stroke="black" stroke-width="2"/>
    <circle cx="1025.0" cy="80.0" r="25.0"
                        fill="white" stroke="black" stroke-width="2"/>
    <polygon points="1080.0,55 1055,105 1105,105"
                        fill="white" stroke="black" stroke-width="2"/>
    <circle cx="805.0" cy="135.0" r="25.0"
                        fill="black" stroke="black" stroke-width="2"/>
    <circle cx="860.0" cy="135.0" r="25.0"
                        fill="white" stroke="black" stroke-width="2"/>
    <polygon points="915.0,110 890,160 940,160"
                        fill="black" stroke="black" stroke-width="2"/>
    <circle cx="970.0" cy="135.0" r="25.0"
                        fill="white" stroke="black" stroke-width="2"/>
    <rect x="1000" y="110" 
                        width="50" height="50" 
                        fill="white" stroke="black" stroke-width="2"/>
    <rect x="1055" y="110" 
                        width="50" height="50" 
                        fill="white" stroke="black" stroke-width="2"/>
    <rect x="780" y="165" 
                        width="50" height="50" 
                        fill="white" stroke="black" stroke-width="2"/>
    <circle cx="860.0" cy="190.0" r="25.0"
                        fill="white" stroke="black" stroke-width="2"/>
    <rect x="890" y="165" 
                        width="50" height="50" 
                        fill="white" stroke="black" stroke-width="2"/>
    <rect x="945" y="165" 
                        width="50" height="50" 
                        fill="black" stroke="black" stroke-width="2"/>
    <polygon points="1025.0,165 1000,215 1050,215"
                        fill="black" stroke="black" stroke-width="2"/>
    <rect x="1055" y="165" 
                        width="50" height="50" 
                        fill="white" stroke="black" stroke-width="2"/>
    <rect x="780" y="220" 
                        width="50" height="50" 
                        fill="black" stroke="black" stroke-width="2"/>
    <polygon points="860.0,220 835,270 885,270"
                        fill="white" stroke="black" stroke-width="2"/>
    <polygon points="915.0,220 890,270 940,270"
                        fill="black" stroke="black" stroke-width="2"/>
    <rect x="945" y="220" 
                        width="50" height="50" 
                        fill="white" stroke="black" stroke-width="2"/>
    <circle cx="1025.0" cy="245.0" r="25.0"
                        fill="black" stroke="black" stroke-width="2"/>
    <polygon points="1080.0,220 1055,270 1105,270"
                        fill="white" stroke="black" stroke-width="2"/>
    <circle cx="805.0" cy="300.0" r="25.0"
                        fill="white" stroke="black" stroke-width="2"/>
    <rect x="835" y="275" 
                        width="50" height="50" 
                        fill="white" stroke="black" stroke-width="2"/>
    <polygon points="915.0,275 890,325 940,325"
                        fill="white" stroke="black" stroke-width="2"/>
    <polygon points="970.0,275 945,325 995,325"
                        fill="black" stroke="black" stroke-width="2"/>
    <rect x="1000" y="275" 
                        width="50" height="50" 
                        fill="black" stroke="black" stroke-width="2"/>
    <circle cx="1080.0" cy="300.0" r="25.0"
                        fill="white" stroke="black" stroke-width="2"/>
</svg>