<?xml version="1.0" encoding="UTF-8" standalone="no"?>
<svg width="635" height="165" xmlns="http://www.w3.org/2000/svg">
    <!-- White background -->
    <rect width="635" height="165" fill="white"/>
    <rect x="20" y="0" 
            width="165" height="165" 
            fill="none" stroke="black" stroke-width="3"/>
    <rect x="20" y="0" 
                        width="50" height="50" 
                        fill="black" stroke="black" stroke-width="2"/>
    <circle cx="100.0" cy="25.0" r="25.0"
                        fill="black" stroke="black" stroke-width="2"/>
    <rect x="130" y="0" 
                        width="50" height="50" 
                        fill="white" stroke="black" stroke-width="2"/>
    <polygon points="45.0,55 20,105 70,105"
                        fill="black" stroke="black" stroke-width="2"/>
    <polygon points="100.0,55 75,105 125,105"
                        fill="white" stroke="black" stroke-width="2"/>
    <rect x="130" y="55" 
                        width="50" height="50" 
                        fill="black" stroke="black" stroke-width="2"/>
    <polygon points="45.0,110 20,160 70,160"
                        fill="black" stroke="black" stroke-width="2"/>
    <polygon points="100.0,110 75,160 125,160"
                        fill="white" stroke="black" stroke-width="2"/>
    <circle cx="155.0" cy="135.0" r="25.0"
                        fill="black" stroke="black" stroke-width="2"/>
    <rect x="235" y="0" 
            width="165" height="165" 
            fill="none" stroke="black" stroke-width="3"/>
    <rect x="235" y="0" 
                        width="50" height="50" 
                        fill="black" stroke="black" stroke-width="2"/>
    <circle cx="315.0" cy="25.0" r="25.0"
                        fill="black" stroke="black" stroke-width="2"/>
    <rect x="345" y="0" 
                        width="50" height="50" 
                        fill="white" stroke="black" stroke-width="2"/>
    <polygon points="260.0,55 235,105 285,105"
                        fill="black" stroke="black" stroke-width="2"/>
    <circle cx="315.0" cy="80.0" r="25.0"
                        fill="white" stroke="black" stroke-width="2"/>
    <rect x="345" y="55" 
                        width="50" height="50" 
                        fill="black" stroke="black" stroke-width="2"/>
    <polygon points="260.0,110 235,160 285,160"
                        fill="black" stroke="black" stroke-width="2"/>
    <circle cx="315.0" cy="135.0" r="25.0"
                        fill="black" stroke="black" stroke-width="2"/>
    <rect x="345" y="110" 
                        width="50" height="50" 
                        fill="white" stroke="black" stroke-width="2"/>
    <rect x="450" y="0" 
            width="165" height="165" 
            fill="none" stroke="black" stroke-width="3"/>
    <rect x="450" y="0" 
                        width="50" height="50" 
                        fill="black" stroke="black" stroke-width="2"/>
    <circle cx="530.0" cy="25.0" r="25.0"
                        fill="black" stroke="black" stroke-width="2"/>
    <rect x="560" y="0" 
                        width="50" height="50" 
                        fill="white" stroke="black" stroke-width="2"/>
    <polygon points="475.0,55 450,105 500,105"
                        fill="white" stroke="black" stroke-width="2"/>
    <polygon points="530.0,55 505,105 555,105"
                        fill="black" stroke="black" stroke-width="2"/>
    <circle cx="585.0" cy="80.0" r="25.0"
                        fill="white" stroke="black" stroke-width="2"/>
    <circle cx="475.0" cy="135.0" r="25.0"
                        fill="black" stroke="black" stroke-width="2"/>
    <rect x="505" y="110" 
                        width="50" height="50" 
                        fill="black" stroke="black" stroke-width="2"/>
    <rect x="560" y="110" 
                        width="50" height="50" 
                        fill="white" stroke="black" stroke-width="2"/>
</svg>