<?xml version="1.0" encoding="UTF-8" standalone="no"?>
<svg width="535" height="330" xmlns="http://www.w3.org/2000/svg">
    <!-- White background -->
    <rect width="535" height="330" fill="white"/>
    <rect x="20" y="0" 
            width="495" height="330" 
            fill="none" stroke="black" stroke-width="3"/>
    <polygon points="45.0,0 20,50 70,50"
                        fill="white" stroke="black" stroke-width="2"/>
    <rect x="75" y="0" 
                        width="50" height="50" 
                        fill="white" stroke="black" stroke-width="2"/>
    <polygon points="155.0,0 130,50 180,50"
                        fill="black" stroke="black" stroke-width="2"/>
    <rect x="185" y="0" 
                        width="50" height="50" 
                        fill="white" stroke="black" stroke-width="2"/>
    <circle cx="265.0" cy="25.0" r="25.0"
                        fill="white" stroke="black" stroke-width="2"/>
    <circle cx="320.0" cy="25.0" r="25.0"
                        fill="black" stroke="black" stroke-width="2"/>
    <circle cx="375.0" cy="25.0" r="25.0"
                        fill="white" stroke="black" stroke-width="2"/>
    <polygon points="430.0,0 405,50 455,50"
                        fill="white" stroke="black" stroke-width="2"/>
    <circle cx="485.0" cy="25.0" r="25.0"
                        fill="black" stroke="black" stroke-width="2"/>
    <polygon points="45.0,55 20,105 70,105"
                        fill="white" stroke="black" stroke-width="2"/>
    <circle cx="100.0" cy="80.0" r="25.0"
                        fill="white" stroke="black" stroke-width="2"/>
    <rect x="130" y="55" 
                        width="50" height="50" 
                        fill="white" stroke="black" stroke-width="2"/>
    <circle cx="210.0" cy="80.0" r="25.0"
                        fill="black" stroke="black" stroke-width="2"/>
    <polygon points="265.0,55 240,105 290,105"
                        fill="black" stroke="black" stroke-width="2"/>
    <polygon points="320.0,55 295,105 345,105"
                        fill="black" stroke="black" stroke-width="2"/>
    <circle cx="375.0" cy="80.0" r="25.0"
                        fill="white" stroke="black" stroke-width="2"/>
    <circle cx="430.0" cy="80.0" r="25.0"
                        fill="white" stroke="black" stroke-width="2"/>
    <circle cx="485.0" cy="80.0" r="25.0"
                        fill="black" stroke="black" stroke-width="2"/>
    <polygon points="45.0,110 20,160 70,160"
                        fill="black" stroke="black" stroke-width="2"/>
    <polygon points="100.0,110 75,160 125,160"
                        fill="black" stroke="black" stroke-width="2"/>
    <rect x="130" y="110" 
                        width="50" height="50" 
                        fill="white" stroke="black" stroke-width="2"/>
    <rect x="185" y="110" 
                        width="50" height="50" 
                        fill="white" stroke="black" stroke-width="2"/>
    <rect x="240" y="110" 
                        width="50" height="50" 
                        fill="white" stroke="black" stroke-width="2"/>
    <rect x="295" y="110" 
                        width="50" height="50" 
                        fill="black" stroke="black" stroke-width="2"/>
    <circle cx="375.0" cy="135.0" r="25.0"
                        fill="white" stroke="black" stroke-width="2"/>
    <polygon points="430.0,110 405,160 455,160"
                        fill="white" stroke="black" stroke-width="2"/>
    <rect x="460" y="110" 
                        width="50" height="50" 
                        fill="white" stroke="black" stroke-width="2"/>
    <polygon points="45.0,165 20,215 70,215"
                        fill="white" stroke="black" stroke-width="2"/>
    <rect x="75" y="165" 
                        width="50" height="50" 
                        fill="white" stroke="black" stroke-width="2"/>
    <polygon points="155.0,165 130,215 180,215"
                        fill="white" stroke="black" stroke-width="2"/>
    <circle cx="210.0" cy="190.0" r="25.0"
                        fill="white" stroke="black" stroke-width="2"/>
    <polygon points="265.0,165 240,215 290,215"
                        fill="black" stroke="black" stroke-width="2"/>
    <circle cx="320.0" cy="190.0" r="25.0"
                        fill="black" stroke="black" stroke-width="2"/>
    <polygon points="375.0,165 350,215 400,215"
                        fill="white" stroke="black" stroke-width="2"/>
    <polygon points="430.0,165 405,215 455,215"
                        fill="black" stroke="black" stroke-width="2"/>
    <polygon points="485.0,165 460,215 510,215"
                        fill="black" stroke="black" stroke-width="2"/>
    <circle cx="45.0" cy="245.0" r="25.0"
                        fill="white" stroke="black" stroke-width="2"/>
    <circle cx="100.0" cy="245.0" r="25.0"
                        fill="white" stroke="black" stroke-width="2"/>
    <polygon points="155.0,220 130,270 180,270"
                        fill="black" stroke="black" stroke-width="2"/>
    <circle cx="210.0" cy="245.0" r="25.0"
                        fill="white" stroke="black" stroke-width="2"/>
    <circle cx="265.0" cy="245.0" r="25.0"
                        fill="black" stroke="black" stroke-width="2"/>
    <circle cx="320.0" cy="245.0" r="25.0"
                        fill="black" stroke="black" stroke-width="2"/>
    <polygon points="375.0,220 350,270 400,270"
                        fill="black" stroke="black" stroke-width="2"/>
    <polygon points="430.0,220 405,270 455,270"
                        fill="black" stroke="black" stroke-width="2"/>
    <polygon points="485.0,220 460,270 510,270"
                        fill="black" stroke="black" stroke-width="2"/>
    <polygon points="45.0,275 20,325 70,325"
                        fill="black" stroke="black" stroke-width="2"/>
    <circle cx="100.0" cy="300.0" r="25.0"
                        fill="white" stroke="black" stroke-width="2"/>
    <rect x="130" y="275" 
                        width="50" height="50" 
                        fill="black" stroke="black" stroke-width="2"/>
    <circle cx="210.0" cy="300.0" r="25.0"
                        fill="white" stroke="black" stroke-width="2"/>
    <circle cx="265.0" cy="300.0" r="25.0"
                        fill="black" stroke="black" stroke-width="2"/>
    <polygon points="320.0,275 295,325 345,325"
                        fill="white" stroke="black" stroke-width="2"/>
    <rect x="350" y="275" 
                        width="50" height="50" 
                        fill="black" stroke="black" stroke-width="2"/>
    <circle cx="430.0" cy="300.0" r="25.0"
                        fill="white" stroke="black" stroke-width="2"/>
    <polygon points="485.0,275 460,325 510,325"
                        fill="black" stroke="black" stroke-width="2"/>
</svg>