<?xml version="1.0" encoding="UTF-8" standalone="no"?>
<svg width="535" height="330" xmlns="http://www.w3.org/2000/svg">
    <!-- White background -->
    <rect width="535" height="330" fill="white"/>
    <rect x="20" y="0" 
            width="495" height="330" 
            fill="none" stroke="black" stroke-width="3"/>
    <circle cx="45.0" cy="25.0" r="25.0"
                        fill="white" stroke="black" stroke-width="2"/>
    <rect x="75" y="0" 
                        width="50" height="50" 
                        fill="white" stroke="black" stroke-width="2"/>
    <polygon points="155.0,0 130,50 180,50"
                        fill="white" stroke="black" stroke-width="2"/>
    <rect x="185" y="0" 
                        width="50" height="50" 
                        fill="white" stroke="black" stroke-width="2"/>
    <polygon points="265.0,0 240,50 290,50"
                        fill="black" stroke="black" stroke-width="2"/>
    <rect x="295" y="0" 
                        width="50" height="50" 
                        fill="black" stroke="black" stroke-width="2"/>
    <rect x="350" y="0" 
                        width="50" height="50" 
                        fill="white" stroke="black" stroke-width="2"/>
    <rect x="405" y="0" 
                        width="50" height="50" 
                        fill="black" stroke="black" stroke-width="2"/>
    <rect x="460" y="0" 
                        width="50" height="50" 
                        fill="black" stroke="black" stroke-width="2"/>
    <rect x="20" y="55" 
                        width="50" height="50" 
                        fill="black" stroke="black" stroke-width="2"/>
    <rect x="75" y="55" 
                        width="50" height="50" 
                        fill="white" stroke="black" stroke-width="2"/>
    <circle cx="155.0" cy="80.0" r="25.0"
                        fill="black" stroke="black" stroke-width="2"/>
    <rect x="185" y="55" 
                        width="50" height="50" 
                        fill="white" stroke="black" stroke-width="2"/>
    <rect x="240" y="55" 
                        width="50" height="50" 
                        fill="white" stroke="black" stroke-width="2"/>
    <circle cx="320.0" cy="80.0" r="25.0"
                        fill="white" stroke="black" stroke-width="2"/>
    <circle cx="375.0" cy="80.0" r="25.0"
                        fill="white" stroke="black" stroke-width="2"/>
    <polygon points="430.0,55 405,105 455,105"
                        fill="black" stroke="black" stroke-width="2"/>
    <rect x="460" y="55" 
                        width="50" height="50" 
                        fill="white" stroke="black" stroke-width="2"/>
    <polygon points="45.0,110 20,160 70,160"
                        fill="white" stroke="black" stroke-width="2"/>
    <circle cx="100.0" cy="135.0" r="25.0"
                        fill="black" stroke="black" stroke-width="2"/>
    <polygon points="155.0,110 130,160 180,160"
                        fill="black" stroke="black" stroke-width="2"/>
    <circle cx="210.0" cy="135.0" r="25.0"
                        fill="black" stroke="black" stroke-width="2"/>
    <circle cx="265.0" cy="135.0" r="25.0"
                        fill="black" stroke="black" stroke-width="2"/>
    <polygon points="320.0,110 295,160 345,160"
                        fill="white" stroke="black" stroke-width="2"/>
    <rect x="350" y="110" 
                        width="50" height="50" 
                        fill="white" stroke="black" stroke-width="2"/>
    <rect x="405" y="110" 
                        width="50" height="50" 
                        fill="white" stroke="black" stroke-width="2"/>
    <rect x="460" y="110" 
                        width="50" height="50" 
                        fill="black" stroke="black" stroke-width="2"/>
    <polygon points="45.0,165 20,215 70,215"
                        fill="black" stroke="black" stroke-width="2"/>
    <rect x="75" y="165" 
                        width="50" height="50" 
                        fill="white" stroke="black" stroke-width="2"/>
    <polygon points="155.0,165 130,215 180,215"
                        fill="white" stroke="black" stroke-width="2"/>
    <circle cx="210.0" cy="190.0" r="25.0"
                        fill="white" stroke="black" stroke-width="2"/>
    <polygon points="265.0,165 240,215 290,215"
                        fill="black" stroke="black" stroke-width="2"/>
    <polygon points="320.0,165 295,215 345,215"
                        fill="white" stroke="black" stroke-width="2"/>
    <polygon points="375.0,165 350,215 400,215"
                        fill="black" stroke="black" stroke-width="2"/>
    <rect x="405" y="165" 
                        width="50" height="50" 
                        fill="white" stroke="black" stroke-width="2"/>
    <polygon points="485.0,165 460,215 510,215"
                        fill="black" stroke="black" stroke-width="2"/>
    <rect x="20" y="220" 
                        width="50" height="50" 
                        fill="white" stroke="black" stroke-width="2"/>
    <polygon points="100.0,220 75,270 125,270"
                        fill="white" stroke="black" stroke-width="2"/>
    <rect x="130" y="220" 
                        width="50" height="50" 
                        fill="white" stroke="black" stroke-width="2"/>
    <rect x="185" y="220" 
                        width="50" height="50" 
                        fill="white" stroke="black" stroke-width="2"/>
    <rect x="240" y="220" 
                        width="50" height="50" 
                        fill="white" stroke="black" stroke-width="2"/>
    <rect x="295" y="220" 
                        width="50" height="50" 
                        fill="white" stroke="black" stroke-width="2"/>
    <circle cx="375.0" cy="245.0" r="25.0"
                        fill="white" stroke="black" stroke-width="2"/>
    <polygon points="430.0,220 405,270 455,270"
                        fill="black" stroke="black" stroke-width="2"/>
    <circle cx="485.0" cy="245.0" r="25.0"
                        fill="white" stroke="black" stroke-width="2"/>
    <polygon points="45.0,275 20,325 70,325"
                        fill="black" stroke="black" stroke-width="2"/>
    <rect x="75" y="275" 
                        width="50" height="50" 
                        fill="white" stroke="black" stroke-width="2"/>
    <polygon points="155.0,275 130,325 180,325"
                        fill="black" stroke="black" stroke-width="2"/>
    <polygon points="210.0,275 185,325 235,325"
                        fill="black" stroke="black" stroke-width="2"/>
    <rect x="240" y="275" 
                        width="50" height="50" 
                        fill="black" stroke="black" stroke-width="2"/>
    <circle cx="320.0" cy="300.0" r="25.0"
                        fill="white" stroke="black" stroke-width="2"/>
    <polygon points="375.0,275 350,325 400,325"
                        fill="black" stroke="black" stroke-width="2"/>
    <polygon points="430.0,275 405,325 455,325"
                        fill="black" stroke="black" stroke-width="2"/>
    <rect x="460" y="275" 
                        width="50" height="50" 
                        fill="white" stroke="black" stroke-width="2"/>
</svg>