<?xml version="1.0" encoding="UTF-8" standalone="no"?>
<svg width="2715" height="330" xmlns="http://www.w3.org/2000/svg">
    <!-- White background -->
    <rect width="2715" height="330" fill="white"/>
    <rect x="20" y="0" 
            width="495" height="330" 
            fill="none" stroke="black" stroke-width="3"/>
    <circle cx="45.0" cy="25.0" r="25.0"
                        fill="black" stroke="black" stroke-width="2"/>
    <rect x="75" y="0" 
                        width="50" height="50" 
                        fill="black" stroke="black" stroke-width="2"/>
    <polygon points="155.0,0 130,50 180,50"
                        fill="black" stroke="black" stroke-width="2"/>
    <rect x="185" y="0" 
                        width="50" height="50" 
                        fill="black" stroke="black" stroke-width="2"/>
    <circle cx="265.0" cy="25.0" r="25.0"
                        fill="black" stroke="black" stroke-width="2"/>
    <circle cx="320.0" cy="25.0" r="25.0"
                        fill="black" stroke="black" stroke-width="2"/>
    <polygon points="375.0,0 350,50 400,50"
                        fill="black" stroke="black" stroke-width="2"/>
    <polygon points="430.0,0 405,50 455,50"
                        fill="white" stroke="black" stroke-width="2"/>
    <rect x="460" y="0" 
                        width="50" height="50" 
                        fill="black" stroke="black" stroke-width="2"/>
    <polygon points="45.0,55 20,105 70,105"
                        fill="white" stroke="black" stroke-width="2"/>
    <rect x="75" y="55" 
                        width="50" height="50" 
                        fill="black" stroke="black" stroke-width="2"/>
    <polygon points="155.0,55 130,105 180,105"
                        fill="white" stroke="black" stroke-width="2"/>
    <polygon points="210.0,55 185,105 235,105"
                        fill="white" stroke="black" stroke-width="2"/>
    <rect x="240" y="55" 
                        width="50" height="50" 
                        fill="white" stroke="black" stroke-width="2"/>
    <rect x="295" y="55" 
                        width="50" height="50" 
                        fill="white" stroke="black" stroke-width="2"/>
    <polygon points="375.0,55 350,105 400,105"
                        fill="white" stroke="black" stroke-width="2"/>
    <polygon points="430.0,55 405,105 455,105"
                        fill="white" stroke="black" stroke-width="2"/>
    <polygon points="485.0,55 460,105 510,105"
                        fill="black" stroke="black" stroke-width="2"/>
    <polygon points="45.0,110 20,160 70,160"
                        fill="black" stroke="black" stroke-width="2"/>
    <rect x="75" y="110" 
                        width="50" height="50" 
                        fill="white" stroke="black" stroke-width="2"/>
    <polygon points="155.0,110 130,160 180,160"
                        fill="black" stroke="black" stroke-width="2"/>
    <rect x="185" y="110" 
                        width="50" height="50" 
                        fill="white" stroke="black" stroke-width="2"/>
    <polygon points="265.0,110 240,160 290,160"
                        fill="white" stroke="black" stroke-width="2"/>
    <polygon points="320.0,110 295,160 345,160"
                        fill="white" stroke="black" stroke-width="2"/>
    <polygon points="375.0,110 350,160 400,160"
                        fill="black" stroke="black" stroke-width="2"/>
    <circle cx="430.0" cy="135.0" r="25.0"
                        fill="black" stroke="black" stroke-width="2"/>
    <polygon points="485.0,110 460,160 510,160"
                        fill="black" stroke="black" stroke-width="2"/>
    <polygon points="45.0,165 20,215 70,215"
                        fill="black" stroke="black" stroke-width="2"/>
    <circle cx="100.0" cy="190.0" r="25.0"
                        fill="black" stroke="black" stroke-width="2"/>
    <circle cx="155.0" cy="190.0" r="25.0"
                        fill="black" stroke="black" stroke-width="2"/>
    <circle cx="210.0" cy="190.0" r="25.0"
                        fill="black" stroke="black" stroke-width="2"/>
    <rect x="240" y="165" 
                        width="50" height="50" 
                        fill="black" stroke="black" stroke-width="2"/>
    <circle cx="320.0" cy="190.0" r="25.0"
                        fill="white" stroke="black" stroke-width="2"/>
    <circle cx="375.0" cy="190.0" r="25.0"
                        fill="white" stroke="black" stroke-width="2"/>
    <circle cx="430.0" cy="190.0" r="25.0"
                        fill="black" stroke="black" stroke-width="2"/>
    <polygon points="485.0,165 460,215 510,215"
                        fill="white" stroke="black" stroke-width="2"/>
    <polygon points="45.0,220 20,270 70,270"
                        fill="black" stroke="black" stroke-width="2"/>
    <circle cx="100.0" cy="245.0" r="25.0"
                        fill="black" stroke="black" stroke-width="2"/>
    <polygon points="155.0,220 130,270 180,270"
                        fill="white" stroke="black" stroke-width="2"/>
    <rect x="185" y="220" 
                        width="50" height="50" 
                        fill="white" stroke="black" stroke-width="2"/>
    <circle cx="265.0" cy="245.0" r="25.0"
                        fill="black" stroke="black" stroke-width="2"/>
    <rect x="295" y="220" 
                        width="50" height="50" 
                        fill="white" stroke="black" stroke-width="2"/>
    <circle cx="375.0" cy="245.0" r="25.0"
                        fill="black" stroke="black" stroke-width="2"/>
    <polygon points="430.0,220 405,270 455,270"
                        fill="black" stroke="black" stroke-width="2"/>
    <polygon points="485.0,220 460,270 510,270"
                        fill="white" stroke="black" stroke-width="2"/>
    <rect x="20" y="275" 
                        width="50" height="50" 
                        fill="white" stroke="black" stroke-width="2"/>
    <polygon points="100.0,275 75,325 125,325"
                        fill="white" stroke="black" stroke-width="2"/>
    <rect x="130" y="275" 
                        width="50" height="50" 
                        fill="white" stroke="black" stroke-width="2"/>
    <circle cx="210.0" cy="300.0" r="25.0"
                        fill="black" stroke="black" stroke-width="2"/>
    <polygon points="265.0,275 240,325 290,325"
                        fill="black" stroke="black" stroke-width="2"/>
    <polygon points="320.0,275 295,325 345,325"
                        fill="white" stroke="black" stroke-width="2"/>
    <circle cx="375.0" cy="300.0" r="25.0"
                        fill="black" stroke="black" stroke-width="2"/>
    <rect x="405" y="275" 
                        width="50" height="50" 
                        fill="white" stroke="black" stroke-width="2"/>
    <rect x="460" y="275" 
                        width="50" height="50" 
                        fill="white" stroke="black" stroke-width="2"/>
    <rect x="565" y="0" 
            width="495" height="330" 
            fill="none" stroke="black" stroke-width="3"/>
    <circle cx="590.0" cy="25.0" r="25.0"
                        fill="white" stroke="black" stroke-width="2"/>
    <rect x="620" y="0" 
                        width="50" height="50" 
                        fill="white" stroke="black" stroke-width="2"/>
    <circle cx="700.0" cy="25.0" r="25.0"
                        fill="black" stroke="black" stroke-width="2"/>
    <polygon points="755.0,0 730,50 780,50"
                        fill="black" stroke="black" stroke-width="2"/>
    <rect x="785" y="0" 
                        width="50" height="50" 
                        fill="white" stroke="black" stroke-width="2"/>
    <polygon points="865.0,0 840,50 890,50"
                        fill="black" stroke="black" stroke-width="2"/>
    <polygon points="920.0,0 895,50 945,50"
                        fill="black" stroke="black" stroke-width="2"/>
    <rect x="950" y="0" 
                        width="50" height="50" 
                        fill="white" stroke="black" stroke-width="2"/>
    <circle cx="1030.0" cy="25.0" r="25.0"
                        fill="black" stroke="black" stroke-width="2"/>
    <polygon points="590.0,55 565,105 615,105"
                        fill="black" stroke="black" stroke-width="2"/>
    <rect x="620" y="55" 
                        width="50" height="50" 
                        fill="white" stroke="black" stroke-width="2"/>
    <circle cx="700.0" cy="80.0" r="25.0"
                        fill="white" stroke="black" stroke-width="2"/>
    <rect x="730" y="55" 
                        width="50" height="50" 
                        fill="black" stroke="black" stroke-width="2"/>
    <polygon points="810.0,55 785,105 835,105"
                        fill="black" stroke="black" stroke-width="2"/>
    <circle cx="865.0" cy="80.0" r="25.0"
                        fill="black" stroke="black" stroke-width="2"/>
    <polygon points="920.0,55 895,105 945,105"
                        fill="black" stroke="black" stroke-width="2"/>
    <rect x="950" y="55" 
                        width="50" height="50" 
                        fill="black" stroke="black" stroke-width="2"/>
    <circle cx="1030.0" cy="80.0" r="25.0"
                        fill="white" stroke="black" stroke-width="2"/>
    <rect x="565" y="110" 
                        width="50" height="50" 
                        fill="black" stroke="black" stroke-width="2"/>
    <polygon points="645.0,110 620,160 670,160"
                        fill="black" stroke="black" stroke-width="2"/>
    <rect x="675" y="110" 
                        width="50" height="50" 
                        fill="white" stroke="black" stroke-width="2"/>
    <circle cx="755.0" cy="135.0" r="25.0"
                        fill="white" stroke="black" stroke-width="2"/>
    <circle cx="810.0" cy="135.0" r="25.0"
                        fill="white" stroke="black" stroke-width="2"/>
    <rect x="840" y="110" 
                        width="50" height="50" 
                        fill="white" stroke="black" stroke-width="2"/>
    <rect x="895" y="110" 
                        width="50" height="50" 
                        fill="black" stroke="black" stroke-width="2"/>
    <circle cx="975.0" cy="135.0" r="25.0"
                        fill="white" stroke="black" stroke-width="2"/>
    <circle cx="1030.0" cy="135.0" r="25.0"
                        fill="white" stroke="black" stroke-width="2"/>
    <polygon points="590.0,165 565,215 615,215"
                        fill="black" stroke="black" stroke-width="2"/>
    <circle cx="645.0" cy="190.0" r="25.0"
                        fill="white" stroke="black" stroke-width="2"/>
    <rect x="675" y="165" 
                        width="50" height="50" 
                        fill="white" stroke="black" stroke-width="2"/>
    <rect x="730" y="165" 
                        width="50" height="50" 
                        fill="white" stroke="black" stroke-width="2"/>
    <circle cx="810.0" cy="190.0" r="25.0"
                        fill="black" stroke="black" stroke-width="2"/>
    <circle cx="865.0" cy="190.0" r="25.0"
                        fill="black" stroke="black" stroke-width="2"/>
    <rect x="895" y="165" 
                        width="50" height="50" 
                        fill="white" stroke="black" stroke-width="2"/>
    <rect x="950" y="165" 
                        width="50" height="50" 
                        fill="white" stroke="black" stroke-width="2"/>
    <polygon points="1030.0,165 1005,215 1055,215"
                        fill="white" stroke="black" stroke-width="2"/>
    <rect x="565" y="220" 
                        width="50" height="50" 
                        fill="black" stroke="black" stroke-width="2"/>
    <rect x="620" y="220" 
                        width="50" height="50" 
                        fill="white" stroke="black" stroke-width="2"/>
    <circle cx="700.0" cy="245.0" r="25.0"
                        fill="white" stroke="black" stroke-width="2"/>
    <circle cx="755.0" cy="245.0" r="25.0"
                        fill="black" stroke="black" stroke-width="2"/>
    <polygon points="810.0,220 785,270 835,270"
                        fill="black" stroke="black" stroke-width="2"/>
    <polygon points="865.0,220 840,270 890,270"
                        fill="black" stroke="black" stroke-width="2"/>
    <polygon points="920.0,220 895,270 945,270"
                        fill="black" stroke="black" stroke-width="2"/>
    <polygon points="975.0,220 950,270 1000,270"
                        fill="white" stroke="black" stroke-width="2"/>
    <polygon points="1030.0,220 1005,270 1055,270"
                        fill="white" stroke="black" stroke-width="2"/>
    <circle cx="590.0" cy="300.0" r="25.0"
                        fill="black" stroke="black" stroke-width="2"/>
    <circle cx="645.0" cy="300.0" r="25.0"
                        fill="black" stroke="black" stroke-width="2"/>
    <polygon points="700.0,275 675,325 725,325"
                        fill="white" stroke="black" stroke-width="2"/>
    <circle cx="755.0" cy="300.0" r="25.0"
                        fill="black" stroke="black" stroke-width="2"/>
    <polygon points="810.0,275 785,325 835,325"
                        fill="white" stroke="black" stroke-width="2"/>
    <circle cx="865.0" cy="300.0" r="25.0"
                        fill="black" stroke="black" stroke-width="2"/>
    <circle cx="920.0" cy="300.0" r="25.0"
                        fill="white" stroke="black" stroke-width="2"/>
    <rect x="950" y="275" 
                        width="50" height="50" 
                        fill="white" stroke="black" stroke-width="2"/>
    <rect x="1005" y="275" 
                        width="50" height="50" 
                        fill="white" stroke="black" stroke-width="2"/>
    <rect x="1110" y="0" 
            width="495" height="330" 
            fill="none" stroke="black" stroke-width="3"/>
    <rect x="1110" y="0" 
                        width="50" height="50" 
                        fill="black" stroke="black" stroke-width="2"/>
    <polygon points="1190.0,0 1165,50 1215,50"
                        fill="white" stroke="black" stroke-width="2"/>
    <rect x="1220" y="0" 
                        width="50" height="50" 
                        fill="white" stroke="black" stroke-width="2"/>
    <circle cx="1300.0" cy="25.0" r="25.0"
                        fill="white" stroke="black" stroke-width="2"/>
    <polygon points="1355.0,0 1330,50 1380,50"
                        fill="white" stroke="black" stroke-width="2"/>
    <rect x="1385" y="0" 
                        width="50" height="50" 
                        fill="black" stroke="black" stroke-width="2"/>
    <circle cx="1465.0" cy="25.0" r="25.0"
                        fill="black" stroke="black" stroke-width="2"/>
    <rect x="1495" y="0" 
                        width="50" height="50" 
                        fill="black" stroke="black" stroke-width="2"/>
    <polygon points="1575.0,0 1550,50 1600,50"
                        fill="white" stroke="black" stroke-width="2"/>
    <rect x="1110" y="55" 
                        width="50" height="50" 
                        fill="white" stroke="black" stroke-width="2"/>
    <polygon points="1190.0,55 1165,105 1215,105"
                        fill="white" stroke="black" stroke-width="2"/>
    <polygon points="1245.0,55 1220,105 1270,105"
                        fill="black" stroke="black" stroke-width="2"/>
    <circle cx="1300.0" cy="80.0" r="25.0"
                        fill="black" stroke="black" stroke-width="2"/>
    <circle cx="1355.0" cy="80.0" r="25.0"
                        fill="white" stroke="black" stroke-width="2"/>
    <rect x="1385" y="55" 
                        width="50" height="50" 
                        fill="white" stroke="black" stroke-width="2"/>
    <rect x="1440" y="55" 
                        width="50" height="50" 
                        fill="white" stroke="black" stroke-width="2"/>
    <polygon points="1520.0,55 1495,105 1545,105"
                        fill="black" stroke="black" stroke-width="2"/>
    <rect x="1550" y="55" 
                        width="50" height="50" 
                        fill="white" stroke="black" stroke-width="2"/>
    <rect x="1110" y="110" 
                        width="50" height="50" 
                        fill="black" stroke="black" stroke-width="2"/>
    <circle cx="1190.0" cy="135.0" r="25.0"
                        fill="black" stroke="black" stroke-width="2"/>
    <rect x="1220" y="110" 
                        width="50" height="50" 
                        fill="white" stroke="black" stroke-width="2"/>
    <circle cx="1300.0" cy="135.0" r="25.0"
                        fill="black" stroke="black" stroke-width="2"/>
    <rect x="1330" y="110" 
                        width="50" height="50" 
                        fill="white" stroke="black" stroke-width="2"/>
    <rect x="1385" y="110" 
                        width="50" height="50" 
                        fill="white" stroke="black" stroke-width="2"/>
    <rect x="1440" y="110" 
                        width="50" height="50" 
                        fill="black" stroke="black" stroke-width="2"/>
    <rect x="1495" y="110" 
                        width="50" height="50" 
                        fill="white" stroke="black" stroke-width="2"/>
    <rect x="1550" y="110" 
                        width="50" height="50" 
                        fill="black" stroke="black" stroke-width="2"/>
    <polygon points="1135.0,165 1110,215 1160,215"
                        fill="white" stroke="black" stroke-width="2"/>
    <polygon points="1190.0,165 1165,215 1215,215"
                        fill="white" stroke="black" stroke-width="2"/>
    <polygon points="1245.0,165 1220,215 1270,215"
                        fill="white" stroke="black" stroke-width="2"/>
    <rect x="1275" y="165" 
                        width="50" height="50" 
                        fill="black" stroke="black" stroke-width="2"/>
    <rect x="1330" y="165" 
                        width="50" height="50" 
                        fill="black" stroke="black" stroke-width="2"/>
    <polygon points="1410.0,165 1385,215 1435,215"
                        fill="white" stroke="black" stroke-width="2"/>
    <circle cx="1465.0" cy="190.0" r="25.0"
                        fill="white" stroke="black" stroke-width="2"/>
    <circle cx="1520.0" cy="190.0" r="25.0"
                        fill="black" stroke="black" stroke-width="2"/>
    <polygon points="1575.0,165 1550,215 1600,215"
                        fill="black" stroke="black" stroke-width="2"/>
    <circle cx="1135.0" cy="245.0" r="25.0"
                        fill="white" stroke="black" stroke-width="2"/>
    <polygon points="1190.0,220 1165,270 1215,270"
                        fill="black" stroke="black" stroke-width="2"/>
    <polygon points="1245.0,220 1220,270 1270,270"
                        fill="white" stroke="black" stroke-width="2"/>
    <polygon points="1300.0,220 1275,270 1325,270"
                        fill="white" stroke="black" stroke-width="2"/>
    <polygon points="1355.0,220 1330,270 1380,270"
                        fill="black" stroke="black" stroke-width="2"/>
    <rect x="1385" y="220" 
                        width="50" height="50" 
                        fill="black" stroke="black" stroke-width="2"/>
    <polygon points="1465.0,220 1440,270 1490,270"
                        fill="white" stroke="black" stroke-width="2"/>
    <rect x="1495" y="220" 
                        width="50" height="50" 
                        fill="black" stroke="black" stroke-width="2"/>
    <rect x="1550" y="220" 
                        width="50" height="50" 
                        fill="black" stroke="black" stroke-width="2"/>
    <rect x="1110" y="275" 
                        width="50" height="50" 
                        fill="white" stroke="black" stroke-width="2"/>
    <rect x="1165" y="275" 
                        width="50" height="50" 
                        fill="black" stroke="black" stroke-width="2"/>
    <circle cx="1245.0" cy="300.0" r="25.0"
                        fill="black" stroke="black" stroke-width="2"/>
    <polygon points="1300.0,275 1275,325 1325,325"
                        fill="black" stroke="black" stroke-width="2"/>
    <polygon points="1355.0,275 1330,325 1380,325"
                        fill="black" stroke="black" stroke-width="2"/>
    <rect x="1385" y="275" 
                        width="50" height="50" 
                        fill="white" stroke="black" stroke-width="2"/>
    <rect x="1440" y="275" 
                        width="50" height="50" 
                        fill="black" stroke="black" stroke-width="2"/>
    <polygon points="1520.0,275 1495,325 1545,325"
                        fill="black" stroke="black" stroke-width="2"/>
    <polygon points="1575.0,275 1550,325 1600,325"
                        fill="white" stroke="black" stroke-width="2"/>
    <rect x="1655" y="0" 
            width="495" height="330" 
            fill="none" stroke="black" stroke-width="3"/>
    <circle cx="1680.0" cy="25.0" r="25.0"
                        fill="black" stroke="black" stroke-width="2"/>
    <polygon points="1735.0,0 1710,50 1760,50"
                        fill="white" stroke="black" stroke-width="2"/>
    <polygon points="1790.0,0 1765,50 1815,50"
                        fill="black" stroke="black" stroke-width="2"/>
    <rect x="1820" y="0" 
                        width="50" height="50" 
                        fill="black" stroke="black" stroke-width="2"/>
    <circle cx="1900.0" cy="25.0" r="25.0"
                        fill="white" stroke="black" stroke-width="2"/>
    <circle cx="1955.0" cy="25.0" r="25.0"
                        fill="black" stroke="black" stroke-width="2"/>
    <polygon points="2010.0,0 1985,50 2035,50"
                        fill="white" stroke="black" stroke-width="2"/>
    <polygon points="2065.0,0 2040,50 2090,50"
                        fill="white" stroke="black" stroke-width="2"/>
    <polygon points="2120.0,0 2095,50 2145,50"
                        fill="black" stroke="black" stroke-width="2"/>
    <polygon points="1680.0,55 1655,105 1705,105"
                        fill="black" stroke="black" stroke-width="2"/>
    <circle cx="1735.0" cy="80.0" r="25.0"
                        fill="white" stroke="black" stroke-width="2"/>
    <polygon points="1790.0,55 1765,105 1815,105"
                        fill="black" stroke="black" stroke-width="2"/>
    <polygon points="1845.0,55 1820,105 1870,105"
                        fill="black" stroke="black" stroke-width="2"/>
    <circle cx="1900.0" cy="80.0" r="25.0"
                        fill="white" stroke="black" stroke-width="2"/>
    <rect x="1930" y="55" 
                        width="50" height="50" 
                        fill="white" stroke="black" stroke-width="2"/>
    <polygon points="2010.0,55 1985,105 2035,105"
                        fill="white" stroke="black" stroke-width="2"/>
    <polygon points="2065.0,55 2040,105 2090,105"
                        fill="black" stroke="black" stroke-width="2"/>
    <circle cx="2120.0" cy="80.0" r="25.0"
                        fill="black" stroke="black" stroke-width="2"/>
    <rect x="1655" y="110" 
                        width="50" height="50" 
                        fill="white" stroke="black" stroke-width="2"/>
    <circle cx="1735.0" cy="135.0" r="25.0"
                        fill="black" stroke="black" stroke-width="2"/>
    <polygon points="1790.0,110 1765,160 1815,160"
                        fill="black" stroke="black" stroke-width="2"/>
    <polygon points="1845.0,110 1820,160 1870,160"
                        fill="black" stroke="black" stroke-width="2"/>
    <circle cx="1900.0" cy="135.0" r="25.0"
                        fill="black" stroke="black" stroke-width="2"/>
    <rect x="1930" y="110" 
                        width="50" height="50" 
                        fill="white" stroke="black" stroke-width="2"/>
    <polygon points="2010.0,110 1985,160 2035,160"
                        fill="black" stroke="black" stroke-width="2"/>
    <polygon points="2065.0,110 2040,160 2090,160"
                        fill="black" stroke="black" stroke-width="2"/>
    <polygon points="2120.0,110 2095,160 2145,160"
                        fill="black" stroke="black" stroke-width="2"/>
    <circle cx="1680.0" cy="190.0" r="25.0"
                        fill="black" stroke="black" stroke-width="2"/>
    <polygon points="1735.0,165 1710,215 1760,215"
                        fill="white" stroke="black" stroke-width="2"/>
    <rect x="1765" y="165" 
                        width="50" height="50" 
                        fill="black" stroke="black" stroke-width="2"/>
    <rect x="1820" y="165" 
                        width="50" height="50" 
                        fill="black" stroke="black" stroke-width="2"/>
    <polygon points="1900.0,165 1875,215 1925,215"
                        fill="black" stroke="black" stroke-width="2"/>
    <polygon points="1955.0,165 1930,215 1980,215"
                        fill="black" stroke="black" stroke-width="2"/>
    <rect x="1985" y="165" 
                        width="50" height="50" 
                        fill="white" stroke="black" stroke-width="2"/>
    <rect x="2040" y="165" 
                        width="50" height="50" 
                        fill="white" stroke="black" stroke-width="2"/>
    <rect x="2095" y="165" 
                        width="50" height="50" 
                        fill="black" stroke="black" stroke-width="2"/>
    <polygon points="1680.0,220 1655,270 1705,270"
                        fill="white" stroke="black" stroke-width="2"/>
    <polygon points="1735.0,220 1710,270 1760,270"
                        fill="black" stroke="black" stroke-width="2"/>
    <circle cx="1790.0" cy="245.0" r="25.0"
                        fill="black" stroke="black" stroke-width="2"/>
    <circle cx="1845.0" cy="245.0" r="25.0"
                        fill="white" stroke="black" stroke-width="2"/>
    <circle cx="1900.0" cy="245.0" r="25.0"
                        fill="white" stroke="black" stroke-width="2"/>
    <rect x="1930" y="220" 
                        width="50" height="50" 
                        fill="white" stroke="black" stroke-width="2"/>
    <rect x="1985" y="220" 
                        width="50" height="50" 
                        fill="white" stroke="black" stroke-width="2"/>
    <polygon points="2065.0,220 2040,270 2090,270"
                        fill="black" stroke="black" stroke-width="2"/>
    <rect x="2095" y="220" 
                        width="50" height="50" 
                        fill="white" stroke="black" stroke-width="2"/>
    <rect x="1655" y="275" 
                        width="50" height="50" 
                        fill="white" stroke="black" stroke-width="2"/>
    <rect x="1710" y="275" 
                        width="50" height="50" 
                        fill="white" stroke="black" stroke-width="2"/>
    <polygon points="1790.0,275 1765,325 1815,325"
                        fill="black" stroke="black" stroke-width="2"/>
    <rect x="1820" y="275" 
                        width="50" height="50" 
                        fill="black" stroke="black" stroke-width="2"/>
    <rect x="1875" y="275" 
                        width="50" height="50" 
                        fill="black" stroke="black" stroke-width="2"/>
    <circle cx="1955.0" cy="300.0" r="25.0"
                        fill="white" stroke="black" stroke-width="2"/>
    <rect x="1985" y="275" 
                        width="50" height="50" 
                        fill="white" stroke="black" stroke-width="2"/>
    <rect x="2040" y="275" 
                        width="50" height="50" 
                        fill="white" stroke="black" stroke-width="2"/>
    <circle cx="2120.0" cy="300.0" r="25.0"
                        fill="white" stroke="black" stroke-width="2"/>
    <rect x="2200" y="0" 
            width="495" height="330" 
            fill="none" stroke="black" stroke-width="3"/>
    <polygon points="2225.0,0 2200,50 2250,50"
                        fill="white" stroke="black" stroke-width="2"/>
    <polygon points="2280.0,0 2255,50 2305,50"
                        fill="white" stroke="black" stroke-width="2"/>
    <polygon points="2335.0,0 2310,50 2360,50"
                        fill="white" stroke="black" stroke-width="2"/>
    <circle cx="2390.0" cy="25.0" r="25.0"
                        fill="white" stroke="black" stroke-width="2"/>
    <polygon points="2445.0,0 2420,50 2470,50"
                        fill="white" stroke="black" stroke-width="2"/>
    <rect x="2475" y="0" 
                        width="50" height="50" 
                        fill="white" stroke="black" stroke-width="2"/>
    <circle cx="2555.0" cy="25.0" r="25.0"
                        fill="white" stroke="black" stroke-width="2"/>
    <circle cx="2610.0" cy="25.0" r="25.0"
                        fill="white" stroke="black" stroke-width="2"/>
    <polygon points="2665.0,0 2640,50 2690,50"
                        fill="white" stroke="black" stroke-width="2"/>
    <circle cx="2225.0" cy="80.0" r="25.0"
                        fill="white" stroke="black" stroke-width="2"/>
    <circle cx="2280.0" cy="80.0" r="25.0"
                        fill="black" stroke="black" stroke-width="2"/>
    <circle cx="2335.0" cy="80.0" r="25.0"
                        fill="black" stroke="black" stroke-width="2"/>
    <polygon points="2390.0,55 2365,105 2415,105"
                        fill="white" stroke="black" stroke-width="2"/>
    <polygon points="2445.0,55 2420,105 2470,105"
                        fill="black" stroke="black" stroke-width="2"/>
    <rect x="2475" y="55" 
                        width="50" height="50" 
                        fill="white" stroke="black" stroke-width="2"/>
    <rect x="2530" y="55" 
                        width="50" height="50" 
                        fill="black" stroke="black" stroke-width="2"/>
    <circle cx="2610.0" cy="80.0" r="25.0"
                        fill="black" stroke="black" stroke-width="2"/>
    <rect x="2640" y="55" 
                        width="50" height="50" 
                        fill="black" stroke="black" stroke-width="2"/>
    <rect x="2200" y="110" 
                        width="50" height="50" 
                        fill="black" stroke="black" stroke-width="2"/>
    <circle cx="2280.0" cy="135.0" r="25.0"
                        fill="white" stroke="black" stroke-width="2"/>
    <polygon points="2335.0,110 2310,160 2360,160"
                        fill="white" stroke="black" stroke-width="2"/>
    <polygon points="2390.0,110 2365,160 2415,160"
                        fill="white" stroke="black" stroke-width="2"/>
    <circle cx="2445.0" cy="135.0" r="25.0"
                        fill="black" stroke="black" stroke-width="2"/>
    <polygon points="2500.0,110 2475,160 2525,160"
                        fill="black" stroke="black" stroke-width="2"/>
    <polygon points="2555.0,110 2530,160 2580,160"
                        fill="white" stroke="black" stroke-width="2"/>
    <polygon points="2610.0,110 2585,160 2635,160"
                        fill="black" stroke="black" stroke-width="2"/>
    <circle cx="2665.0" cy="135.0" r="25.0"
                        fill="black" stroke="black" stroke-width="2"/>
    <circle cx="2225.0" cy="190.0" r="25.0"
                        fill="black" stroke="black" stroke-width="2"/>
    <polygon points="2280.0,165 2255,215 2305,215"
                        fill="white" stroke="black" stroke-width="2"/>
    <rect x="2310" y="165" 
                        width="50" height="50" 
                        fill="black" stroke="black" stroke-width="2"/>
    <circle cx="2390.0" cy="190.0" r="25.0"
                        fill="white" stroke="black" stroke-width="2"/>
    <polygon points="2445.0,165 2420,215 2470,215"
                        fill="black" stroke="black" stroke-width="2"/>
    <circle cx="2500.0" cy="190.0" r="25.0"
                        fill="black" stroke="black" stroke-width="2"/>
    <rect x="2530" y="165" 
                        width="50" height="50" 
                        fill="white" stroke="black" stroke-width="2"/>
    <circle cx="2610.0" cy="190.0" r="25.0"
                        fill="white" stroke="black" stroke-width="2"/>
    <circle cx="2665.0" cy="190.0" r="25.0"
                        fill="black" stroke="black" stroke-width="2"/>
    <polygon points="2225.0,220 2200,270 2250,270"
                        fill="black" stroke="black" stroke-width="2"/>
    <circle cx="2280.0" cy="245.0" r="25.0"
                        fill="white" stroke="black" stroke-width="2"/>
    <rect x="2310" y="220" 
                        width="50" height="50" 
                        fill="black" stroke="black" stroke-width="2"/>
    <circle cx="2390.0" cy="245.0" r="25.0"
                        fill="white" stroke="black" stroke-width="2"/>
    <circle cx="2445.0" cy="245.0" r="25.0"
                        fill="white" stroke="black" stroke-width="2"/>
    <rect x="2475" y="220" 
                        width="50" height="50" 
                        fill="white" stroke="black" stroke-width="2"/>
    <polygon points="2555.0,220 2530,270 2580,270"
                        fill="white" stroke="black" stroke-width="2"/>
    <polygon points="2610.0,220 2585,270 2635,270"
                        fill="black" stroke="black" stroke-width="2"/>
    <polygon points="2665.0,220 2640,270 2690,270"
                        fill="white" stroke="black" stroke-width="2"/>
    <polygon points="2225.0,275 2200,325 2250,325"
                        fill="white" stroke="black" stroke-width="2"/>
    <polygon points="2280.0,275 2255,325 2305,325"
                        fill="black" stroke="black" stroke-width="2"/>
    <rect x="2310" y="275" 
                        width="50" height="50" 
                        fill="white" stroke="black" stroke-width="2"/>
    <circle cx="2390.0" cy="300.0" r="25.0"
                        fill="black" stroke="black" stroke-width="2"/>
    <polygon points="2445.0,275 2420,325 2470,325"
                        fill="black" stroke="black" stroke-width="2"/>
    <circle cx="2500.0" cy="300.0" r="25.0"
                        fill="white" stroke="black" stroke-width="2"/>
    <rect x="2530" y="275" 
                        width="50" height="50" 
                        fill="black" stroke="black" stroke-width="2"/>
    <rect x="2585" y="275" 
                        width="50" height="50" 
                        fill="white" stroke="black" stroke-width="2"/>
    <polygon points="2665.0,275 2640,325 2690,325"
                        fill="white" stroke="black" stroke-width="2"/>
</svg>