<?xml version="1.0" encoding="UTF-8" standalone="no"?>
<svg width="2715" height="330" xmlns="http://www.w3.org/2000/svg">
    <!-- White background -->
    <rect width="2715" height="330" fill="white"/>
    <rect x="20" y="0" 
            width="495" height="330" 
            fill="none" stroke="black" stroke-width="3"/>
    <circle cx="45.0" cy="25.0" r="25.0"
                        fill="white" stroke="black" stroke-width="2"/>
    <polygon points="100.0,0 75,50 125,50"
                        fill="white" stroke="black" stroke-width="2"/>
    <rect x="130" y="0" 
                        width="50" height="50" 
                        fill="white" stroke="black" stroke-width="2"/>
    <circle cx="210.0" cy="25.0" r="25.0"
                        fill="white" stroke="black" stroke-width="2"/>
    <polygon points="265.0,0 240,50 290,50"
                        fill="black" stroke="black" stroke-width="2"/>
    <polygon points="320.0,0 295,50 345,50"
                        fill="black" stroke="black" stroke-width="2"/>
    <rect x="350" y="0" 
                        width="50" height="50" 
                        fill="white" stroke="black" stroke-width="2"/>
    <polygon points="430.0,0 405,50 455,50"
                        fill="white" stroke="black" stroke-width="2"/>
    <polygon points="485.0,0 460,50 510,50"
                        fill="black" stroke="black" stroke-width="2"/>
    <polygon points="45.0,55 20,105 70,105"
                        fill="black" stroke="black" stroke-width="2"/>
    <circle cx="100.0" cy="80.0" r="25.0"
                        fill="black" stroke="black" stroke-width="2"/>
    <circle cx="155.0" cy="80.0" r="25.0"
                        fill="black" stroke="black" stroke-width="2"/>
    <polygon points="210.0,55 185,105 235,105"
                        fill="black" stroke="black" stroke-width="2"/>
    <rect x="240" y="55" 
                        width="50" height="50" 
                        fill="black" stroke="black" stroke-width="2"/>
    <circle cx="320.0" cy="80.0" r="25.0"
                        fill="white" stroke="black" stroke-width="2"/>
    <rect x="350" y="55" 
                        width="50" height="50" 
                        fill="black" stroke="black" stroke-width="2"/>
    <polygon points="430.0,55 405,105 455,105"
                        fill="white" stroke="black" stroke-width="2"/>
    <polygon points="485.0,55 460,105 510,105"
                        fill="white" stroke="black" stroke-width="2"/>
    <rect x="20" y="110" 
                        width="50" height="50" 
                        fill="black" stroke="black" stroke-width="2"/>
    <polygon points="100.0,110 75,160 125,160"
                        fill="white" stroke="black" stroke-width="2"/>
    <circle cx="155.0" cy="135.0" r="25.0"
                        fill="black" stroke="black" stroke-width="2"/>
    <circle cx="210.0" cy="135.0" r="25.0"
                        fill="white" stroke="black" stroke-width="2"/>
    <circle cx="265.0" cy="135.0" r="25.0"
                        fill="white" stroke="black" stroke-width="2"/>
    <circle cx="320.0" cy="135.0" r="25.0"
                        fill="black" stroke="black" stroke-width="2"/>
    <circle cx="375.0" cy="135.0" r="25.0"
                        fill="black" stroke="black" stroke-width="2"/>
    <polygon points="430.0,110 405,160 455,160"
                        fill="white" stroke="black" stroke-width="2"/>
    <circle cx="485.0" cy="135.0" r="25.0"
                        fill="black" stroke="black" stroke-width="2"/>
    <rect x="20" y="165" 
                        width="50" height="50" 
                        fill="white" stroke="black" stroke-width="2"/>
    <polygon points="100.0,165 75,215 125,215"
                        fill="black" stroke="black" stroke-width="2"/>
    <rect x="130" y="165" 
                        width="50" height="50" 
                        fill="black" stroke="black" stroke-width="2"/>
    <polygon points="210.0,165 185,215 235,215"
                        fill="white" stroke="black" stroke-width="2"/>
    <circle cx="265.0" cy="190.0" r="25.0"
                        fill="white" stroke="black" stroke-width="2"/>
    <circle cx="320.0" cy="190.0" r="25.0"
                        fill="white" stroke="black" stroke-width="2"/>
    <rect x="350" y="165" 
                        width="50" height="50" 
                        fill="white" stroke="black" stroke-width="2"/>
    <polygon points="430.0,165 405,215 455,215"
                        fill="black" stroke="black" stroke-width="2"/>
    <polygon points="485.0,165 460,215 510,215"
                        fill="white" stroke="black" stroke-width="2"/>
    <polygon points="45.0,220 20,270 70,270"
                        fill="black" stroke="black" stroke-width="2"/>
    <rect x="75" y="220" 
                        width="50" height="50" 
                        fill="white" stroke="black" stroke-width="2"/>
    <circle cx="155.0" cy="245.0" r="25.0"
                        fill="black" stroke="black" stroke-width="2"/>
    <rect x="185" y="220" 
                        width="50" height="50" 
                        fill="white" stroke="black" stroke-width="2"/>
    <rect x="240" y="220" 
                        width="50" height="50" 
                        fill="white" stroke="black" stroke-width="2"/>
    <circle cx="320.0" cy="245.0" r="25.0"
                        fill="white" stroke="black" stroke-width="2"/>
    <rect x="350" y="220" 
                        width="50" height="50" 
                        fill="black" stroke="black" stroke-width="2"/>
    <rect x="405" y="220" 
                        width="50" height="50" 
                        fill="black" stroke="black" stroke-width="2"/>
    <rect x="460" y="220" 
                        width="50" height="50" 
                        fill="black" stroke="black" stroke-width="2"/>
    <polygon points="45.0,275 20,325 70,325"
                        fill="black" stroke="black" stroke-width="2"/>
    <circle cx="100.0" cy="300.0" r="25.0"
                        fill="black" stroke="black" stroke-width="2"/>
    <circle cx="155.0" cy="300.0" r="25.0"
                        fill="white" stroke="black" stroke-width="2"/>
    <rect x="185" y="275" 
                        width="50" height="50" 
                        fill="white" stroke="black" stroke-width="2"/>
    <circle cx="265.0" cy="300.0" r="25.0"
                        fill="white" stroke="black" stroke-width="2"/>
    <polygon points="320.0,275 295,325 345,325"
                        fill="black" stroke="black" stroke-width="2"/>
    <rect x="350" y="275" 
                        width="50" height="50" 
                        fill="black" stroke="black" stroke-width="2"/>
    <circle cx="430.0" cy="300.0" r="25.0"
                        fill="black" stroke="black" stroke-width="2"/>
    <rect x="460" y="275" 
                        width="50" height="50" 
                        fill="black" stroke="black" stroke-width="2"/>
    <rect x="565" y="0" 
            width="495" height="330" 
            fill="none" stroke="black" stroke-width="3"/>
    <rect x="565" y="0" 
                        width="50" height="50" 
                        fill="black" stroke="black" stroke-width="2"/>
    <polygon points="645.0,0 620,50 670,50"
                        fill="black" stroke="black" stroke-width="2"/>
    <circle cx="700.0" cy="25.0" r="25.0"
                        fill="black" stroke="black" stroke-width="2"/>
    <rect x="730" y="0" 
                        width="50" height="50" 
                        fill="white" stroke="black" stroke-width="2"/>
    <rect x="785" y="0" 
                        width="50" height="50" 
                        fill="black" stroke="black" stroke-width="2"/>
    <rect x="840" y="0" 
                        width="50" height="50" 
                        fill="white" stroke="black" stroke-width="2"/>
    <polygon points="920.0,0 895,50 945,50"
                        fill="white" stroke="black" stroke-width="2"/>
    <polygon points="975.0,0 950,50 1000,50"
                        fill="white" stroke="black" stroke-width="2"/>
    <polygon points="1030.0,0 1005,50 1055,50"
                        fill="white" stroke="black" stroke-width="2"/>
    <polygon points="590.0,55 565,105 615,105"
                        fill="black" stroke="black" stroke-width="2"/>
    <polygon points="645.0,55 620,105 670,105"
                        fill="black" stroke="black" stroke-width="2"/>
    <rect x="675" y="55" 
                        width="50" height="50" 
                        fill="black" stroke="black" stroke-width="2"/>
    <rect x="730" y="55" 
                        width="50" height="50" 
                        fill="black" stroke="black" stroke-width="2"/>
    <rect x="785" y="55" 
                        width="50" height="50" 
                        fill="black" stroke="black" stroke-width="2"/>
    <circle cx="865.0" cy="80.0" r="25.0"
                        fill="white" stroke="black" stroke-width="2"/>
    <rect x="895" y="55" 
                        width="50" height="50" 
                        fill="black" stroke="black" stroke-width="2"/>
    <polygon points="975.0,55 950,105 1000,105"
                        fill="white" stroke="black" stroke-width="2"/>
    <rect x="1005" y="55" 
                        width="50" height="50" 
                        fill="black" stroke="black" stroke-width="2"/>
    <rect x="565" y="110" 
                        width="50" height="50" 
                        fill="white" stroke="black" stroke-width="2"/>
    <circle cx="645.0" cy="135.0" r="25.0"
                        fill="white" stroke="black" stroke-width="2"/>
    <rect x="675" y="110" 
                        width="50" height="50" 
                        fill="white" stroke="black" stroke-width="2"/>
    <polygon points="755.0,110 730,160 780,160"
                        fill="black" stroke="black" stroke-width="2"/>
    <circle cx="810.0" cy="135.0" r="25.0"
                        fill="black" stroke="black" stroke-width="2"/>
    <polygon points="865.0,110 840,160 890,160"
                        fill="white" stroke="black" stroke-width="2"/>
    <rect x="895" y="110" 
                        width="50" height="50" 
                        fill="white" stroke="black" stroke-width="2"/>
    <polygon points="975.0,110 950,160 1000,160"
                        fill="white" stroke="black" stroke-width="2"/>
    <rect x="1005" y="110" 
                        width="50" height="50" 
                        fill="white" stroke="black" stroke-width="2"/>
    <circle cx="590.0" cy="190.0" r="25.0"
                        fill="black" stroke="black" stroke-width="2"/>
    <polygon points="645.0,165 620,215 670,215"
                        fill="black" stroke="black" stroke-width="2"/>
    <circle cx="700.0" cy="190.0" r="25.0"
                        fill="white" stroke="black" stroke-width="2"/>
    <polygon points="755.0,165 730,215 780,215"
                        fill="black" stroke="black" stroke-width="2"/>
    <rect x="785" y="165" 
                        width="50" height="50" 
                        fill="white" stroke="black" stroke-width="2"/>
    <polygon points="865.0,165 840,215 890,215"
                        fill="white" stroke="black" stroke-width="2"/>
    <polygon points="920.0,165 895,215 945,215"
                        fill="white" stroke="black" stroke-width="2"/>
    <polygon points="975.0,165 950,215 1000,215"
                        fill="white" stroke="black" stroke-width="2"/>
    <circle cx="1030.0" cy="190.0" r="25.0"
                        fill="white" stroke="black" stroke-width="2"/>
    <polygon points="590.0,220 565,270 615,270"
                        fill="black" stroke="black" stroke-width="2"/>
    <rect x="620" y="220" 
                        width="50" height="50" 
                        fill="black" stroke="black" stroke-width="2"/>
    <polygon points="700.0,220 675,270 725,270"
                        fill="white" stroke="black" stroke-width="2"/>
    <rect x="730" y="220" 
                        width="50" height="50" 
                        fill="white" stroke="black" stroke-width="2"/>
    <polygon points="810.0,220 785,270 835,270"
                        fill="black" stroke="black" stroke-width="2"/>
    <circle cx="865.0" cy="245.0" r="25.0"
                        fill="white" stroke="black" stroke-width="2"/>
    <circle cx="920.0" cy="245.0" r="25.0"
                        fill="white" stroke="black" stroke-width="2"/>
    <polygon points="975.0,220 950,270 1000,270"
                        fill="black" stroke="black" stroke-width="2"/>
    <rect x="1005" y="220" 
                        width="50" height="50" 
                        fill="white" stroke="black" stroke-width="2"/>
    <rect x="565" y="275" 
                        width="50" height="50" 
                        fill="white" stroke="black" stroke-width="2"/>
    <polygon points="645.0,275 620,325 670,325"
                        fill="black" stroke="black" stroke-width="2"/>
    <circle cx="700.0" cy="300.0" r="25.0"
                        fill="black" stroke="black" stroke-width="2"/>
    <circle cx="755.0" cy="300.0" r="25.0"
                        fill="black" stroke="black" stroke-width="2"/>
    <rect x="785" y="275" 
                        width="50" height="50" 
                        fill="black" stroke="black" stroke-width="2"/>
    <circle cx="865.0" cy="300.0" r="25.0"
                        fill="black" stroke="black" stroke-width="2"/>
    <polygon points="920.0,275 895,325 945,325"
                        fill="white" stroke="black" stroke-width="2"/>
    <circle cx="975.0" cy="300.0" r="25.0"
                        fill="black" stroke="black" stroke-width="2"/>
    <polygon points="1030.0,275 1005,325 1055,325"
                        fill="black" stroke="black" stroke-width="2"/>
    <rect x="1110" y="0" 
            width="495" height="330" 
            fill="none" stroke="black" stroke-width="3"/>
    <circle cx="1135.0" cy="25.0" r="25.0"
                        fill="black" stroke="black" stroke-width="2"/>
    <rect x="1165" y="0" 
                        width="50" height="50" 
                        fill="white" stroke="black" stroke-width="2"/>
    <circle cx="1245.0" cy="25.0" r="25.0"
                        fill="white" stroke="black" stroke-width="2"/>
    <rect x="1275" y="0" 
                        width="50" height="50" 
                        fill="black" stroke="black" stroke-width="2"/>
    <polygon points="1355.0,0 1330,50 1380,50"
                        fill="black" stroke="black" stroke-width="2"/>
    <circle cx="1410.0" cy="25.0" r="25.0"
                        fill="black" stroke="black" stroke-width="2"/>
    <circle cx="1465.0" cy="25.0" r="25.0"
                        fill="white" stroke="black" stroke-width="2"/>
    <rect x="1495" y="0" 
                        width="50" height="50" 
                        fill="black" stroke="black" stroke-width="2"/>
    <polygon points="1575.0,0 1550,50 1600,50"
                        fill="black" stroke="black" stroke-width="2"/>
    <polygon points="1135.0,55 1110,105 1160,105"
                        fill="white" stroke="black" stroke-width="2"/>
    <polygon points="1190.0,55 1165,105 1215,105"
                        fill="white" stroke="black" stroke-width="2"/>
    <circle cx="1245.0" cy="80.0" r="25.0"
                        fill="black" stroke="black" stroke-width="2"/>
    <circle cx="1300.0" cy="80.0" r="25.0"
                        fill="black" stroke="black" stroke-width="2"/>
    <rect x="1330" y="55" 
                        width="50" height="50" 
                        fill="white" stroke="black" stroke-width="2"/>
    <polygon points="1410.0,55 1385,105 1435,105"
                        fill="white" stroke="black" stroke-width="2"/>
    <polygon points="1465.0,55 1440,105 1490,105"
                        fill="white" stroke="black" stroke-width="2"/>
    <circle cx="1520.0" cy="80.0" r="25.0"
                        fill="white" stroke="black" stroke-width="2"/>
    <circle cx="1575.0" cy="80.0" r="25.0"
                        fill="black" stroke="black" stroke-width="2"/>
    <polygon points="1135.0,110 1110,160 1160,160"
                        fill="white" stroke="black" stroke-width="2"/>
    <polygon points="1190.0,110 1165,160 1215,160"
                        fill="white" stroke="black" stroke-width="2"/>
    <rect x="1220" y="110" 
                        width="50" height="50" 
                        fill="black" stroke="black" stroke-width="2"/>
    <rect x="1275" y="110" 
                        width="50" height="50" 
                        fill="white" stroke="black" stroke-width="2"/>
    <rect x="1330" y="110" 
                        width="50" height="50" 
                        fill="white" stroke="black" stroke-width="2"/>
    <rect x="1385" y="110" 
                        width="50" height="50" 
                        fill="white" stroke="black" stroke-width="2"/>
    <rect x="1440" y="110" 
                        width="50" height="50" 
                        fill="white" stroke="black" stroke-width="2"/>
    <rect x="1495" y="110" 
                        width="50" height="50" 
                        fill="white" stroke="black" stroke-width="2"/>
    <polygon points="1575.0,110 1550,160 1600,160"
                        fill="black" stroke="black" stroke-width="2"/>
    <circle cx="1135.0" cy="190.0" r="25.0"
                        fill="white" stroke="black" stroke-width="2"/>
    <circle cx="1190.0" cy="190.0" r="25.0"
                        fill="black" stroke="black" stroke-width="2"/>
    <rect x="1220" y="165" 
                        width="50" height="50" 
                        fill="black" stroke="black" stroke-width="2"/>
    <rect x="1275" y="165" 
                        width="50" height="50" 
                        fill="black" stroke="black" stroke-width="2"/>
    <circle cx="1355.0" cy="190.0" r="25.0"
                        fill="black" stroke="black" stroke-width="2"/>
    <polygon points="1410.0,165 1385,215 1435,215"
                        fill="white" stroke="black" stroke-width="2"/>
    <polygon points="1465.0,165 1440,215 1490,215"
                        fill="black" stroke="black" stroke-width="2"/>
    <polygon points="1520.0,165 1495,215 1545,215"
                        fill="white" stroke="black" stroke-width="2"/>
    <rect x="1550" y="165" 
                        width="50" height="50" 
                        fill="black" stroke="black" stroke-width="2"/>
    <circle cx="1135.0" cy="245.0" r="25.0"
                        fill="black" stroke="black" stroke-width="2"/>
    <rect x="1165" y="220" 
                        width="50" height="50" 
                        fill="white" stroke="black" stroke-width="2"/>
    <rect x="1220" y="220" 
                        width="50" height="50" 
                        fill="black" stroke="black" stroke-width="2"/>
    <circle cx="1300.0" cy="245.0" r="25.0"
                        fill="white" stroke="black" stroke-width="2"/>
    <rect x="1330" y="220" 
                        width="50" height="50" 
                        fill="white" stroke="black" stroke-width="2"/>
    <polygon points="1410.0,220 1385,270 1435,270"
                        fill="white" stroke="black" stroke-width="2"/>
    <rect x="1440" y="220" 
                        width="50" height="50" 
                        fill="black" stroke="black" stroke-width="2"/>
    <rect x="1495" y="220" 
                        width="50" height="50" 
                        fill="white" stroke="black" stroke-width="2"/>
    <polygon points="1575.0,220 1550,270 1600,270"
                        fill="white" stroke="black" stroke-width="2"/>
    <polygon points="1135.0,275 1110,325 1160,325"
                        fill="white" stroke="black" stroke-width="2"/>
    <polygon points="1190.0,275 1165,325 1215,325"
                        fill="black" stroke="black" stroke-width="2"/>
    <circle cx="1245.0" cy="300.0" r="25.0"
                        fill="white" stroke="black" stroke-width="2"/>
    <polygon points="1300.0,275 1275,325 1325,325"
                        fill="white" stroke="black" stroke-width="2"/>
    <rect x="1330" y="275" 
                        width="50" height="50" 
                        fill="black" stroke="black" stroke-width="2"/>
    <circle cx="1410.0" cy="300.0" r="25.0"
                        fill="white" stroke="black" stroke-width="2"/>
    <rect x="1440" y="275" 
                        width="50" height="50" 
                        fill="black" stroke="black" stroke-width="2"/>
    <circle cx="1520.0" cy="300.0" r="25.0"
                        fill="white" stroke="black" stroke-width="2"/>
    <circle cx="1575.0" cy="300.0" r="25.0"
                        fill="white" stroke="black" stroke-width="2"/>
    <rect x="1655" y="0" 
            width="495" height="330" 
            fill="none" stroke="black" stroke-width="3"/>
    <circle cx="1680.0" cy="25.0" r="25.0"
                        fill="white" stroke="black" stroke-width="2"/>
    <polygon points="1735.0,0 1710,50 1760,50"
                        fill="white" stroke="black" stroke-width="2"/>
    <circle cx="1790.0" cy="25.0" r="25.0"
                        fill="white" stroke="black" stroke-width="2"/>
    <circle cx="1845.0" cy="25.0" r="25.0"
                        fill="black" stroke="black" stroke-width="2"/>
    <polygon points="1900.0,0 1875,50 1925,50"
                        fill="black" stroke="black" stroke-width="2"/>
    <polygon points="1955.0,0 1930,50 1980,50"
                        fill="black" stroke="black" stroke-width="2"/>
    <rect x="1985" y="0" 
                        width="50" height="50" 
                        fill="black" stroke="black" stroke-width="2"/>
    <rect x="2040" y="0" 
                        width="50" height="50" 
                        fill="black" stroke="black" stroke-width="2"/>
    <circle cx="2120.0" cy="25.0" r="25.0"
                        fill="white" stroke="black" stroke-width="2"/>
    <polygon points="1680.0,55 1655,105 1705,105"
                        fill="white" stroke="black" stroke-width="2"/>
    <rect x="1710" y="55" 
                        width="50" height="50" 
                        fill="black" stroke="black" stroke-width="2"/>
    <polygon points="1790.0,55 1765,105 1815,105"
                        fill="white" stroke="black" stroke-width="2"/>
    <rect x="1820" y="55" 
                        width="50" height="50" 
                        fill="white" stroke="black" stroke-width="2"/>
    <rect x="1875" y="55" 
                        width="50" height="50" 
                        fill="white" stroke="black" stroke-width="2"/>
    <polygon points="1955.0,55 1930,105 1980,105"
                        fill="white" stroke="black" stroke-width="2"/>
    <rect x="1985" y="55" 
                        width="50" height="50" 
                        fill="black" stroke="black" stroke-width="2"/>
    <rect x="2040" y="55" 
                        width="50" height="50" 
                        fill="white" stroke="black" stroke-width="2"/>
    <rect x="2095" y="55" 
                        width="50" height="50" 
                        fill="white" stroke="black" stroke-width="2"/>
    <polygon points="1680.0,110 1655,160 1705,160"
                        fill="black" stroke="black" stroke-width="2"/>
    <circle cx="1735.0" cy="135.0" r="25.0"
                        fill="black" stroke="black" stroke-width="2"/>
    <rect x="1765" y="110" 
                        width="50" height="50" 
                        fill="white" stroke="black" stroke-width="2"/>
    <circle cx="1845.0" cy="135.0" r="25.0"
                        fill="black" stroke="black" stroke-width="2"/>
    <polygon points="1900.0,110 1875,160 1925,160"
                        fill="white" stroke="black" stroke-width="2"/>
    <rect x="1930" y="110" 
                        width="50" height="50" 
                        fill="black" stroke="black" stroke-width="2"/>
    <rect x="1985" y="110" 
                        width="50" height="50" 
                        fill="white" stroke="black" stroke-width="2"/>
    <circle cx="2065.0" cy="135.0" r="25.0"
                        fill="white" stroke="black" stroke-width="2"/>
    <circle cx="2120.0" cy="135.0" r="25.0"
                        fill="black" stroke="black" stroke-width="2"/>
    <rect x="1655" y="165" 
                        width="50" height="50" 
                        fill="white" stroke="black" stroke-width="2"/>
    <circle cx="1735.0" cy="190.0" r="25.0"
                        fill="white" stroke="black" stroke-width="2"/>
    <circle cx="1790.0" cy="190.0" r="25.0"
                        fill="black" stroke="black" stroke-width="2"/>
    <polygon points="1845.0,165 1820,215 1870,215"
                        fill="black" stroke="black" stroke-width="2"/>
    <rect x="1875" y="165" 
                        width="50" height="50" 
                        fill="white" stroke="black" stroke-width="2"/>
    <circle cx="1955.0" cy="190.0" r="25.0"
                        fill="white" stroke="black" stroke-width="2"/>
    <circle cx="2010.0" cy="190.0" r="25.0"
                        fill="white" stroke="black" stroke-width="2"/>
    <circle cx="2065.0" cy="190.0" r="25.0"
                        fill="black" stroke="black" stroke-width="2"/>
    <circle cx="2120.0" cy="190.0" r="25.0"
                        fill="white" stroke="black" stroke-width="2"/>
    <rect x="1655" y="220" 
                        width="50" height="50" 
                        fill="black" stroke="black" stroke-width="2"/>
    <circle cx="1735.0" cy="245.0" r="25.0"
                        fill="black" stroke="black" stroke-width="2"/>
    <circle cx="1790.0" cy="245.0" r="25.0"
                        fill="black" stroke="black" stroke-width="2"/>
    <polygon points="1845.0,220 1820,270 1870,270"
                        fill="black" stroke="black" stroke-width="2"/>
    <polygon points="1900.0,220 1875,270 1925,270"
                        fill="black" stroke="black" stroke-width="2"/>
    <polygon points="1955.0,220 1930,270 1980,270"
                        fill="white" stroke="black" stroke-width="2"/>
    <circle cx="2010.0" cy="245.0" r="25.0"
                        fill="black" stroke="black" stroke-width="2"/>
    <circle cx="2065.0" cy="245.0" r="25.0"
                        fill="black" stroke="black" stroke-width="2"/>
    <circle cx="2120.0" cy="245.0" r="25.0"
                        fill="black" stroke="black" stroke-width="2"/>
    <circle cx="1680.0" cy="300.0" r="25.0"
                        fill="black" stroke="black" stroke-width="2"/>
    <rect x="1710" y="275" 
                        width="50" height="50" 
                        fill="white" stroke="black" stroke-width="2"/>
    <polygon points="1790.0,275 1765,325 1815,325"
                        fill="black" stroke="black" stroke-width="2"/>
    <rect x="1820" y="275" 
                        width="50" height="50" 
                        fill="white" stroke="black" stroke-width="2"/>
    <circle cx="1900.0" cy="300.0" r="25.0"
                        fill="black" stroke="black" stroke-width="2"/>
    <polygon points="1955.0,275 1930,325 1980,325"
                        fill="black" stroke="black" stroke-width="2"/>
    <circle cx="2010.0" cy="300.0" r="25.0"
                        fill="white" stroke="black" stroke-width="2"/>
    <polygon points="2065.0,275 2040,325 2090,325"
                        fill="black" stroke="black" stroke-width="2"/>
    <polygon points="2120.0,275 2095,325 2145,325"
                        fill="white" stroke="black" stroke-width="2"/>
    <rect x="2200" y="0" 
            width="495" height="330" 
            fill="none" stroke="black" stroke-width="3"/>
    <rect x="2200" y="0" 
                        width="50" height="50" 
                        fill="black" stroke="black" stroke-width="2"/>
    <polygon points="2280.0,0 2255,50 2305,50"
                        fill="white" stroke="black" stroke-width="2"/>
    <circle cx="2335.0" cy="25.0" r="25.0"
                        fill="white" stroke="black" stroke-width="2"/>
    <polygon points="2390.0,0 2365,50 2415,50"
                        fill="black" stroke="black" stroke-width="2"/>
    <circle cx="2445.0" cy="25.0" r="25.0"
                        fill="white" stroke="black" stroke-width="2"/>
    <circle cx="2500.0" cy="25.0" r="25.0"
                        fill="white" stroke="black" stroke-width="2"/>
    <polygon points="2555.0,0 2530,50 2580,50"
                        fill="white" stroke="black" stroke-width="2"/>
    <circle cx="2610.0" cy="25.0" r="25.0"
                        fill="white" stroke="black" stroke-width="2"/>
    <polygon points="2665.0,0 2640,50 2690,50"
                        fill="black" stroke="black" stroke-width="2"/>
    <rect x="2200" y="55" 
                        width="50" height="50" 
                        fill="white" stroke="black" stroke-width="2"/>
    <rect x="2255" y="55" 
                        width="50" height="50" 
                        fill="white" stroke="black" stroke-width="2"/>
    <rect x="2310" y="55" 
                        width="50" height="50" 
                        fill="white" stroke="black" stroke-width="2"/>
    <polygon points="2390.0,55 2365,105 2415,105"
                        fill="black" stroke="black" stroke-width="2"/>
    <polygon points="2445.0,55 2420,105 2470,105"
                        fill="black" stroke="black" stroke-width="2"/>
    <polygon points="2500.0,55 2475,105 2525,105"
                        fill="black" stroke="black" stroke-width="2"/>
    <circle cx="2555.0" cy="80.0" r="25.0"
                        fill="black" stroke="black" stroke-width="2"/>
    <polygon points="2610.0,55 2585,105 2635,105"
                        fill="white" stroke="black" stroke-width="2"/>
    <polygon points="2665.0,55 2640,105 2690,105"
                        fill="black" stroke="black" stroke-width="2"/>
    <circle cx="2225.0" cy="135.0" r="25.0"
                        fill="white" stroke="black" stroke-width="2"/>
    <polygon points="2280.0,110 2255,160 2305,160"
                        fill="black" stroke="black" stroke-width="2"/>
    <polygon points="2335.0,110 2310,160 2360,160"
                        fill="white" stroke="black" stroke-width="2"/>
    <polygon points="2390.0,110 2365,160 2415,160"
                        fill="white" stroke="black" stroke-width="2"/>
    <polygon points="2445.0,110 2420,160 2470,160"
                        fill="black" stroke="black" stroke-width="2"/>
    <rect x="2475" y="110" 
                        width="50" height="50" 
                        fill="white" stroke="black" stroke-width="2"/>
    <circle cx="2555.0" cy="135.0" r="25.0"
                        fill="white" stroke="black" stroke-width="2"/>
    <circle cx="2610.0" cy="135.0" r="25.0"
                        fill="white" stroke="black" stroke-width="2"/>
    <rect x="2640" y="110" 
                        width="50" height="50" 
                        fill="black" stroke="black" stroke-width="2"/>
    <polygon points="2225.0,165 2200,215 2250,215"
                        fill="black" stroke="black" stroke-width="2"/>
    <rect x="2255" y="165" 
                        width="50" height="50" 
                        fill="black" stroke="black" stroke-width="2"/>
    <rect x="2310" y="165" 
                        width="50" height="50" 
                        fill="white" stroke="black" stroke-width="2"/>
    <polygon points="2390.0,165 2365,215 2415,215"
                        fill="white" stroke="black" stroke-width="2"/>
    <rect x="2420" y="165" 
                        width="50" height="50" 
                        fill="black" stroke="black" stroke-width="2"/>
    <rect x="2475" y="165" 
                        width="50" height="50" 
                        fill="black" stroke="black" stroke-width="2"/>
    <polygon points="2555.0,165 2530,215 2580,215"
                        fill="white" stroke="black" stroke-width="2"/>
    <circle cx="2610.0" cy="190.0" r="25.0"
                        fill="white" stroke="black" stroke-width="2"/>
    <circle cx="2665.0" cy="190.0" r="25.0"
                        fill="black" stroke="black" stroke-width="2"/>
    <rect x="2200" y="220" 
                        width="50" height="50" 
                        fill="black" stroke="black" stroke-width="2"/>
    <rect x="2255" y="220" 
                        width="50" height="50" 
                        fill="white" stroke="black" stroke-width="2"/>
    <rect x="2310" y="220" 
                        width="50" height="50" 
                        fill="white" stroke="black" stroke-width="2"/>
    <circle cx="2390.0" cy="245.0" r="25.0"
                        fill="white" stroke="black" stroke-width="2"/>
    <polygon points="2445.0,220 2420,270 2470,270"
                        fill="black" stroke="black" stroke-width="2"/>
    <polygon points="2500.0,220 2475,270 2525,270"
                        fill="black" stroke="black" stroke-width="2"/>
    <polygon points="2555.0,220 2530,270 2580,270"
                        fill="black" stroke="black" stroke-width="2"/>
    <circle cx="2610.0" cy="245.0" r="25.0"
                        fill="white" stroke="black" stroke-width="2"/>
    <polygon points="2665.0,220 2640,270 2690,270"
                        fill="black" stroke="black" stroke-width="2"/>
    <polygon points="2225.0,275 2200,325 2250,325"
                        fill="white" stroke="black" stroke-width="2"/>
    <circle cx="2280.0" cy="300.0" r="25.0"
                        fill="white" stroke="black" stroke-width="2"/>
    <rect x="2310" y="275" 
                        width="50" height="50" 
                        fill="black" stroke="black" stroke-width="2"/>
    <circle cx="2390.0" cy="300.0" r="25.0"
                        fill="black" stroke="black" stroke-width="2"/>
    <polygon points="2445.0,275 2420,325 2470,325"
                        fill="white" stroke="black" stroke-width="2"/>
    <polygon points="2500.0,275 2475,325 2525,325"
                        fill="white" stroke="black" stroke-width="2"/>
    <rect x="2530" y="275" 
                        width="50" height="50" 
                        fill="white" stroke="black" stroke-width="2"/>
    <rect x="2585" y="275" 
                        width="50" height="50" 
                        fill="white" stroke="black" stroke-width="2"/>
    <circle cx="2665.0" cy="300.0" r="25.0"
                        fill="black" stroke="black" stroke-width="2"/>
</svg>