<?xml version="1.0" encoding="UTF-8" standalone="no"?>
<svg width="2715" height="330" xmlns="http://www.w3.org/2000/svg">
    <!-- White background -->
    <rect width="2715" height="330" fill="white"/>
    <rect x="20" y="0" 
            width="495" height="330" 
            fill="none" stroke="black" stroke-width="3"/>
    <polygon points="45.0,0 20,50 70,50"
                        fill="white" stroke="black" stroke-width="2"/>
    <rect x="75" y="0" 
                        width="50" height="50" 
                        fill="white" stroke="black" stroke-width="2"/>
    <rect x="130" y="0" 
                        width="50" height="50" 
                        fill="white" stroke="black" stroke-width="2"/>
    <rect x="185" y="0" 
                        width="50" height="50" 
                        fill="white" stroke="black" stroke-width="2"/>
    <rect x="240" y="0" 
                        width="50" height="50" 
                        fill="white" stroke="black" stroke-width="2"/>
    <rect x="295" y="0" 
                        width="50" height="50" 
                        fill="black" stroke="black" stroke-width="2"/>
    <polygon points="375.0,0 350,50 400,50"
                        fill="black" stroke="black" stroke-width="2"/>
    <rect x="405" y="0" 
                        width="50" height="50" 
                        fill="black" stroke="black" stroke-width="2"/>
    <rect x="460" y="0" 
                        width="50" height="50" 
                        fill="black" stroke="black" stroke-width="2"/>
    <circle cx="45.0" cy="80.0" r="25.0"
                        fill="black" stroke="black" stroke-width="2"/>
    <polygon points="100.0,55 75,105 125,105"
                        fill="white" stroke="black" stroke-width="2"/>
    <circle cx="155.0" cy="80.0" r="25.0"
                        fill="black" stroke="black" stroke-width="2"/>
    <rect x="185" y="55" 
                        width="50" height="50" 
                        fill="white" stroke="black" stroke-width="2"/>
    <circle cx="265.0" cy="80.0" r="25.0"
                        fill="black" stroke="black" stroke-width="2"/>
    <polygon points="320.0,55 295,105 345,105"
                        fill="white" stroke="black" stroke-width="2"/>
    <polygon points="375.0,55 350,105 400,105"
                        fill="black" stroke="black" stroke-width="2"/>
    <circle cx="430.0" cy="80.0" r="25.0"
                        fill="black" stroke="black" stroke-width="2"/>
    <rect x="460" y="55" 
                        width="50" height="50" 
                        fill="black" stroke="black" stroke-width="2"/>
    <rect x="20" y="110" 
                        width="50" height="50" 
                        fill="black" stroke="black" stroke-width="2"/>
    <circle cx="100.0" cy="135.0" r="25.0"
                        fill="white" stroke="black" stroke-width="2"/>
    <rect x="130" y="110" 
                        width="50" height="50" 
                        fill="black" stroke="black" stroke-width="2"/>
    <circle cx="210.0" cy="135.0" r="25.0"
                        fill="white" stroke="black" stroke-width="2"/>
    <circle cx="265.0" cy="135.0" r="25.0"
                        fill="black" stroke="black" stroke-width="2"/>
    <rect x="295" y="110" 
                        width="50" height="50" 
                        fill="black" stroke="black" stroke-width="2"/>
    <polygon points="375.0,110 350,160 400,160"
                        fill="black" stroke="black" stroke-width="2"/>
    <rect x="405" y="110" 
                        width="50" height="50" 
                        fill="black" stroke="black" stroke-width="2"/>
    <polygon points="485.0,110 460,160 510,160"
                        fill="black" stroke="black" stroke-width="2"/>
    <rect x="20" y="165" 
                        width="50" height="50" 
                        fill="black" stroke="black" stroke-width="2"/>
    <rect x="75" y="165" 
                        width="50" height="50" 
                        fill="black" stroke="black" stroke-width="2"/>
    <circle cx="155.0" cy="190.0" r="25.0"
                        fill="white" stroke="black" stroke-width="2"/>
    <polygon points="210.0,165 185,215 235,215"
                        fill="black" stroke="black" stroke-width="2"/>
    <circle cx="265.0" cy="190.0" r="25.0"
                        fill="black" stroke="black" stroke-width="2"/>
    <rect x="295" y="165" 
                        width="50" height="50" 
                        fill="white" stroke="black" stroke-width="2"/>
    <rect x="350" y="165" 
                        width="50" height="50" 
                        fill="white" stroke="black" stroke-width="2"/>
    <rect x="405" y="165" 
                        width="50" height="50" 
                        fill="black" stroke="black" stroke-width="2"/>
    <rect x="460" y="165" 
                        width="50" height="50" 
                        fill="black" stroke="black" stroke-width="2"/>
    <circle cx="45.0" cy="245.0" r="25.0"
                        fill="black" stroke="black" stroke-width="2"/>
    <polygon points="100.0,220 75,270 125,270"
                        fill="black" stroke="black" stroke-width="2"/>
    <rect x="130" y="220" 
                        width="50" height="50" 
                        fill="white" stroke="black" stroke-width="2"/>
    <circle cx="210.0" cy="245.0" r="25.0"
                        fill="white" stroke="black" stroke-width="2"/>
    <circle cx="265.0" cy="245.0" r="25.0"
                        fill="white" stroke="black" stroke-width="2"/>
    <polygon points="320.0,220 295,270 345,270"
                        fill="white" stroke="black" stroke-width="2"/>
    <rect x="350" y="220" 
                        width="50" height="50" 
                        fill="black" stroke="black" stroke-width="2"/>
    <rect x="405" y="220" 
                        width="50" height="50" 
                        fill="white" stroke="black" stroke-width="2"/>
    <rect x="460" y="220" 
                        width="50" height="50" 
                        fill="white" stroke="black" stroke-width="2"/>
    <circle cx="45.0" cy="300.0" r="25.0"
                        fill="black" stroke="black" stroke-width="2"/>
    <rect x="75" y="275" 
                        width="50" height="50" 
                        fill="black" stroke="black" stroke-width="2"/>
    <circle cx="155.0" cy="300.0" r="25.0"
                        fill="white" stroke="black" stroke-width="2"/>
    <circle cx="210.0" cy="300.0" r="25.0"
                        fill="white" stroke="black" stroke-width="2"/>
    <rect x="240" y="275" 
                        width="50" height="50" 
                        fill="white" stroke="black" stroke-width="2"/>
    <polygon points="320.0,275 295,325 345,325"
                        fill="black" stroke="black" stroke-width="2"/>
    <rect x="350" y="275" 
                        width="50" height="50" 
                        fill="white" stroke="black" stroke-width="2"/>
    <polygon points="430.0,275 405,325 455,325"
                        fill="white" stroke="black" stroke-width="2"/>
    <polygon points="485.0,275 460,325 510,325"
                        fill="black" stroke="black" stroke-width="2"/>
    <rect x="565" y="0" 
            width="495" height="330" 
            fill="none" stroke="black" stroke-width="3"/>
    <polygon points="590.0,0 565,50 615,50"
                        fill="black" stroke="black" stroke-width="2"/>
    <circle cx="645.0" cy="25.0" r="25.0"
                        fill="black" stroke="black" stroke-width="2"/>
    <polygon points="700.0,0 675,50 725,50"
                        fill="white" stroke="black" stroke-width="2"/>
    <circle cx="755.0" cy="25.0" r="25.0"
                        fill="white" stroke="black" stroke-width="2"/>
    <circle cx="810.0" cy="25.0" r="25.0"
                        fill="white" stroke="black" stroke-width="2"/>
    <rect x="840" y="0" 
                        width="50" height="50" 
                        fill="black" stroke="black" stroke-width="2"/>
    <circle cx="920.0" cy="25.0" r="25.0"
                        fill="black" stroke="black" stroke-width="2"/>
    <circle cx="975.0" cy="25.0" r="25.0"
                        fill="black" stroke="black" stroke-width="2"/>
    <circle cx="1030.0" cy="25.0" r="25.0"
                        fill="black" stroke="black" stroke-width="2"/>
    <rect x="565" y="55" 
                        width="50" height="50" 
                        fill="white" stroke="black" stroke-width="2"/>
    <polygon points="645.0,55 620,105 670,105"
                        fill="white" stroke="black" stroke-width="2"/>
    <rect x="675" y="55" 
                        width="50" height="50" 
                        fill="white" stroke="black" stroke-width="2"/>
    <circle cx="755.0" cy="80.0" r="25.0"
                        fill="black" stroke="black" stroke-width="2"/>
    <polygon points="810.0,55 785,105 835,105"
                        fill="black" stroke="black" stroke-width="2"/>
    <rect x="840" y="55" 
                        width="50" height="50" 
                        fill="white" stroke="black" stroke-width="2"/>
    <rect x="895" y="55" 
                        width="50" height="50" 
                        fill="white" stroke="black" stroke-width="2"/>
    <circle cx="975.0" cy="80.0" r="25.0"
                        fill="black" stroke="black" stroke-width="2"/>
    <rect x="1005" y="55" 
                        width="50" height="50" 
                        fill="white" stroke="black" stroke-width="2"/>
    <circle cx="590.0" cy="135.0" r="25.0"
                        fill="black" stroke="black" stroke-width="2"/>
    <polygon points="645.0,110 620,160 670,160"
                        fill="black" stroke="black" stroke-width="2"/>
    <circle cx="700.0" cy="135.0" r="25.0"
                        fill="white" stroke="black" stroke-width="2"/>
    <rect x="730" y="110" 
                        width="50" height="50" 
                        fill="black" stroke="black" stroke-width="2"/>
    <polygon points="810.0,110 785,160 835,160"
                        fill="white" stroke="black" stroke-width="2"/>
    <polygon points="865.0,110 840,160 890,160"
                        fill="white" stroke="black" stroke-width="2"/>
    <rect x="895" y="110" 
                        width="50" height="50" 
                        fill="black" stroke="black" stroke-width="2"/>
    <polygon points="975.0,110 950,160 1000,160"
                        fill="white" stroke="black" stroke-width="2"/>
    <polygon points="1030.0,110 1005,160 1055,160"
                        fill="white" stroke="black" stroke-width="2"/>
    <polygon points="590.0,165 565,215 615,215"
                        fill="white" stroke="black" stroke-width="2"/>
    <rect x="620" y="165" 
                        width="50" height="50" 
                        fill="black" stroke="black" stroke-width="2"/>
    <circle cx="700.0" cy="190.0" r="25.0"
                        fill="white" stroke="black" stroke-width="2"/>
    <rect x="730" y="165" 
                        width="50" height="50" 
                        fill="white" stroke="black" stroke-width="2"/>
    <circle cx="810.0" cy="190.0" r="25.0"
                        fill="black" stroke="black" stroke-width="2"/>
    <circle cx="865.0" cy="190.0" r="25.0"
                        fill="black" stroke="black" stroke-width="2"/>
    <rect x="895" y="165" 
                        width="50" height="50" 
                        fill="white" stroke="black" stroke-width="2"/>
    <polygon points="975.0,165 950,215 1000,215"
                        fill="black" stroke="black" stroke-width="2"/>
    <rect x="1005" y="165" 
                        width="50" height="50" 
                        fill="white" stroke="black" stroke-width="2"/>
    <circle cx="590.0" cy="245.0" r="25.0"
                        fill="black" stroke="black" stroke-width="2"/>
    <polygon points="645.0,220 620,270 670,270"
                        fill="black" stroke="black" stroke-width="2"/>
    <rect x="675" y="220" 
                        width="50" height="50" 
                        fill="white" stroke="black" stroke-width="2"/>
    <polygon points="755.0,220 730,270 780,270"
                        fill="white" stroke="black" stroke-width="2"/>
    <circle cx="810.0" cy="245.0" r="25.0"
                        fill="white" stroke="black" stroke-width="2"/>
    <polygon points="865.0,220 840,270 890,270"
                        fill="white" stroke="black" stroke-width="2"/>
    <polygon points="920.0,220 895,270 945,270"
                        fill="white" stroke="black" stroke-width="2"/>
    <circle cx="975.0" cy="245.0" r="25.0"
                        fill="white" stroke="black" stroke-width="2"/>
    <rect x="1005" y="220" 
                        width="50" height="50" 
                        fill="white" stroke="black" stroke-width="2"/>
    <rect x="565" y="275" 
                        width="50" height="50" 
                        fill="black" stroke="black" stroke-width="2"/>
    <rect x="620" y="275" 
                        width="50" height="50" 
                        fill="black" stroke="black" stroke-width="2"/>
    <rect x="675" y="275" 
                        width="50" height="50" 
                        fill="white" stroke="black" stroke-width="2"/>
    <polygon points="755.0,275 730,325 780,325"
                        fill="white" stroke="black" stroke-width="2"/>
    <rect x="785" y="275" 
                        width="50" height="50" 
                        fill="white" stroke="black" stroke-width="2"/>
    <rect x="840" y="275" 
                        width="50" height="50" 
                        fill="black" stroke="black" stroke-width="2"/>
    <polygon points="920.0,275 895,325 945,325"
                        fill="black" stroke="black" stroke-width="2"/>
    <rect x="950" y="275" 
                        width="50" height="50" 
                        fill="white" stroke="black" stroke-width="2"/>
    <polygon points="1030.0,275 1005,325 1055,325"
                        fill="black" stroke="black" stroke-width="2"/>
    <rect x="1110" y="0" 
            width="495" height="330" 
            fill="none" stroke="black" stroke-width="3"/>
    <polygon points="1135.0,0 1110,50 1160,50"
                        fill="black" stroke="black" stroke-width="2"/>
    <polygon points="1190.0,0 1165,50 1215,50"
                        fill="white" stroke="black" stroke-width="2"/>
    <polygon points="1245.0,0 1220,50 1270,50"
                        fill="white" stroke="black" stroke-width="2"/>
    <polygon points="1300.0,0 1275,50 1325,50"
                        fill="white" stroke="black" stroke-width="2"/>
    <rect x="1330" y="0" 
                        width="50" height="50" 
                        fill="white" stroke="black" stroke-width="2"/>
    <rect x="1385" y="0" 
                        width="50" height="50" 
                        fill="white" stroke="black" stroke-width="2"/>
    <rect x="1440" y="0" 
                        width="50" height="50" 
                        fill="white" stroke="black" stroke-width="2"/>
    <circle cx="1520.0" cy="25.0" r="25.0"
                        fill="black" stroke="black" stroke-width="2"/>
    <rect x="1550" y="0" 
                        width="50" height="50" 
                        fill="black" stroke="black" stroke-width="2"/>
    <polygon points="1135.0,55 1110,105 1160,105"
                        fill="black" stroke="black" stroke-width="2"/>
    <polygon points="1190.0,55 1165,105 1215,105"
                        fill="white" stroke="black" stroke-width="2"/>
    <polygon points="1245.0,55 1220,105 1270,105"
                        fill="white" stroke="black" stroke-width="2"/>
    <circle cx="1300.0" cy="80.0" r="25.0"
                        fill="black" stroke="black" stroke-width="2"/>
    <rect x="1330" y="55" 
                        width="50" height="50" 
                        fill="black" stroke="black" stroke-width="2"/>
    <polygon points="1410.0,55 1385,105 1435,105"
                        fill="black" stroke="black" stroke-width="2"/>
    <circle cx="1465.0" cy="80.0" r="25.0"
                        fill="black" stroke="black" stroke-width="2"/>
    <circle cx="1520.0" cy="80.0" r="25.0"
                        fill="white" stroke="black" stroke-width="2"/>
    <polygon points="1575.0,55 1550,105 1600,105"
                        fill="white" stroke="black" stroke-width="2"/>
    <rect x="1110" y="110" 
                        width="50" height="50" 
                        fill="black" stroke="black" stroke-width="2"/>
    <rect x="1165" y="110" 
                        width="50" height="50" 
                        fill="black" stroke="black" stroke-width="2"/>
    <polygon points="1245.0,110 1220,160 1270,160"
                        fill="black" stroke="black" stroke-width="2"/>
    <circle cx="1300.0" cy="135.0" r="25.0"
                        fill="white" stroke="black" stroke-width="2"/>
    <polygon points="1355.0,110 1330,160 1380,160"
                        fill="black" stroke="black" stroke-width="2"/>
    <rect x="1385" y="110" 
                        width="50" height="50" 
                        fill="black" stroke="black" stroke-width="2"/>
    <polygon points="1465.0,110 1440,160 1490,160"
                        fill="white" stroke="black" stroke-width="2"/>
    <circle cx="1520.0" cy="135.0" r="25.0"
                        fill="white" stroke="black" stroke-width="2"/>
    <circle cx="1575.0" cy="135.0" r="25.0"
                        fill="white" stroke="black" stroke-width="2"/>
    <polygon points="1135.0,165 1110,215 1160,215"
                        fill="black" stroke="black" stroke-width="2"/>
    <polygon points="1190.0,165 1165,215 1215,215"
                        fill="white" stroke="black" stroke-width="2"/>
    <circle cx="1245.0" cy="190.0" r="25.0"
                        fill="white" stroke="black" stroke-width="2"/>
    <circle cx="1300.0" cy="190.0" r="25.0"
                        fill="black" stroke="black" stroke-width="2"/>
    <rect x="1330" y="165" 
                        width="50" height="50" 
                        fill="black" stroke="black" stroke-width="2"/>
    <circle cx="1410.0" cy="190.0" r="25.0"
                        fill="black" stroke="black" stroke-width="2"/>
    <polygon points="1465.0,165 1440,215 1490,215"
                        fill="white" stroke="black" stroke-width="2"/>
    <rect x="1495" y="165" 
                        width="50" height="50" 
                        fill="white" stroke="black" stroke-width="2"/>
    <rect x="1550" y="165" 
                        width="50" height="50" 
                        fill="black" stroke="black" stroke-width="2"/>
    <circle cx="1135.0" cy="245.0" r="25.0"
                        fill="white" stroke="black" stroke-width="2"/>
    <rect x="1165" y="220" 
                        width="50" height="50" 
                        fill="black" stroke="black" stroke-width="2"/>
    <rect x="1220" y="220" 
                        width="50" height="50" 
                        fill="black" stroke="black" stroke-width="2"/>
    <polygon points="1300.0,220 1275,270 1325,270"
                        fill="white" stroke="black" stroke-width="2"/>
    <rect x="1330" y="220" 
                        width="50" height="50" 
                        fill="white" stroke="black" stroke-width="2"/>
    <rect x="1385" y="220" 
                        width="50" height="50" 
                        fill="white" stroke="black" stroke-width="2"/>
    <polygon points="1465.0,220 1440,270 1490,270"
                        fill="white" stroke="black" stroke-width="2"/>
    <rect x="1495" y="220" 
                        width="50" height="50" 
                        fill="white" stroke="black" stroke-width="2"/>
    <rect x="1550" y="220" 
                        width="50" height="50" 
                        fill="black" stroke="black" stroke-width="2"/>
    <circle cx="1135.0" cy="300.0" r="25.0"
                        fill="black" stroke="black" stroke-width="2"/>
    <circle cx="1190.0" cy="300.0" r="25.0"
                        fill="black" stroke="black" stroke-width="2"/>
    <polygon points="1245.0,275 1220,325 1270,325"
                        fill="black" stroke="black" stroke-width="2"/>
    <rect x="1275" y="275" 
                        width="50" height="50" 
                        fill="white" stroke="black" stroke-width="2"/>
    <circle cx="1355.0" cy="300.0" r="25.0"
                        fill="white" stroke="black" stroke-width="2"/>
    <rect x="1385" y="275" 
                        width="50" height="50" 
                        fill="black" stroke="black" stroke-width="2"/>
    <circle cx="1465.0" cy="300.0" r="25.0"
                        fill="black" stroke="black" stroke-width="2"/>
    <polygon points="1520.0,275 1495,325 1545,325"
                        fill="white" stroke="black" stroke-width="2"/>
    <circle cx="1575.0" cy="300.0" r="25.0"
                        fill="white" stroke="black" stroke-width="2"/>
    <rect x="1655" y="0" 
            width="495" height="330" 
            fill="none" stroke="black" stroke-width="3"/>
    <circle cx="1680.0" cy="25.0" r="25.0"
                        fill="black" stroke="black" stroke-width="2"/>
    <circle cx="1735.0" cy="25.0" r="25.0"
                        fill="black" stroke="black" stroke-width="2"/>
    <circle cx="1790.0" cy="25.0" r="25.0"
                        fill="black" stroke="black" stroke-width="2"/>
    <polygon points="1845.0,0 1820,50 1870,50"
                        fill="black" stroke="black" stroke-width="2"/>
    <polygon points="1900.0,0 1875,50 1925,50"
                        fill="white" stroke="black" stroke-width="2"/>
    <polygon points="1955.0,0 1930,50 1980,50"
                        fill="black" stroke="black" stroke-width="2"/>
    <polygon points="2010.0,0 1985,50 2035,50"
                        fill="white" stroke="black" stroke-width="2"/>
    <polygon points="2065.0,0 2040,50 2090,50"
                        fill="white" stroke="black" stroke-width="2"/>
    <polygon points="2120.0,0 2095,50 2145,50"
                        fill="black" stroke="black" stroke-width="2"/>
    <polygon points="1680.0,55 1655,105 1705,105"
                        fill="white" stroke="black" stroke-width="2"/>
    <polygon points="1735.0,55 1710,105 1760,105"
                        fill="white" stroke="black" stroke-width="2"/>
    <polygon points="1790.0,55 1765,105 1815,105"
                        fill="black" stroke="black" stroke-width="2"/>
    <polygon points="1845.0,55 1820,105 1870,105"
                        fill="white" stroke="black" stroke-width="2"/>
    <polygon points="1900.0,55 1875,105 1925,105"
                        fill="black" stroke="black" stroke-width="2"/>
    <circle cx="1955.0" cy="80.0" r="25.0"
                        fill="white" stroke="black" stroke-width="2"/>
    <polygon points="2010.0,55 1985,105 2035,105"
                        fill="white" stroke="black" stroke-width="2"/>
    <rect x="2040" y="55" 
                        width="50" height="50" 
                        fill="black" stroke="black" stroke-width="2"/>
    <rect x="2095" y="55" 
                        width="50" height="50" 
                        fill="black" stroke="black" stroke-width="2"/>
    <polygon points="1680.0,110 1655,160 1705,160"
                        fill="black" stroke="black" stroke-width="2"/>
    <polygon points="1735.0,110 1710,160 1760,160"
                        fill="white" stroke="black" stroke-width="2"/>
    <polygon points="1790.0,110 1765,160 1815,160"
                        fill="white" stroke="black" stroke-width="2"/>
    <rect x="1820" y="110" 
                        width="50" height="50" 
                        fill="white" stroke="black" stroke-width="2"/>
    <polygon points="1900.0,110 1875,160 1925,160"
                        fill="black" stroke="black" stroke-width="2"/>
    <circle cx="1955.0" cy="135.0" r="25.0"
                        fill="white" stroke="black" stroke-width="2"/>
    <circle cx="2010.0" cy="135.0" r="25.0"
                        fill="white" stroke="black" stroke-width="2"/>
    <rect x="2040" y="110" 
                        width="50" height="50" 
                        fill="white" stroke="black" stroke-width="2"/>
    <rect x="2095" y="110" 
                        width="50" height="50" 
                        fill="white" stroke="black" stroke-width="2"/>
    <circle cx="1680.0" cy="190.0" r="25.0"
                        fill="black" stroke="black" stroke-width="2"/>
    <polygon points="1735.0,165 1710,215 1760,215"
                        fill="white" stroke="black" stroke-width="2"/>
    <circle cx="1790.0" cy="190.0" r="25.0"
                        fill="black" stroke="black" stroke-width="2"/>
    <rect x="1820" y="165" 
                        width="50" height="50" 
                        fill="white" stroke="black" stroke-width="2"/>
    <circle cx="1900.0" cy="190.0" r="25.0"
                        fill="black" stroke="black" stroke-width="2"/>
    <rect x="1930" y="165" 
                        width="50" height="50" 
                        fill="white" stroke="black" stroke-width="2"/>
    <polygon points="2010.0,165 1985,215 2035,215"
                        fill="white" stroke="black" stroke-width="2"/>
    <polygon points="2065.0,165 2040,215 2090,215"
                        fill="black" stroke="black" stroke-width="2"/>
    <rect x="2095" y="165" 
                        width="50" height="50" 
                        fill="black" stroke="black" stroke-width="2"/>
    <circle cx="1680.0" cy="245.0" r="25.0"
                        fill="white" stroke="black" stroke-width="2"/>
    <rect x="1710" y="220" 
                        width="50" height="50" 
                        fill="white" stroke="black" stroke-width="2"/>
    <polygon points="1790.0,220 1765,270 1815,270"
                        fill="black" stroke="black" stroke-width="2"/>
    <circle cx="1845.0" cy="245.0" r="25.0"
                        fill="black" stroke="black" stroke-width="2"/>
    <polygon points="1900.0,220 1875,270 1925,270"
                        fill="black" stroke="black" stroke-width="2"/>
    <rect x="1930" y="220" 
                        width="50" height="50" 
                        fill="white" stroke="black" stroke-width="2"/>
    <polygon points="2010.0,220 1985,270 2035,270"
                        fill="black" stroke="black" stroke-width="2"/>
    <rect x="2040" y="220" 
                        width="50" height="50" 
                        fill="black" stroke="black" stroke-width="2"/>
    <rect x="2095" y="220" 
                        width="50" height="50" 
                        fill="white" stroke="black" stroke-width="2"/>
    <circle cx="1680.0" cy="300.0" r="25.0"
                        fill="black" stroke="black" stroke-width="2"/>
    <rect x="1710" y="275" 
                        width="50" height="50" 
                        fill="black" stroke="black" stroke-width="2"/>
    <polygon points="1790.0,275 1765,325 1815,325"
                        fill="black" stroke="black" stroke-width="2"/>
    <polygon points="1845.0,275 1820,325 1870,325"
                        fill="white" stroke="black" stroke-width="2"/>
    <rect x="1875" y="275" 
                        width="50" height="50" 
                        fill="white" stroke="black" stroke-width="2"/>
    <circle cx="1955.0" cy="300.0" r="25.0"
                        fill="black" stroke="black" stroke-width="2"/>
    <polygon points="2010.0,275 1985,325 2035,325"
                        fill="black" stroke="black" stroke-width="2"/>
    <rect x="2040" y="275" 
                        width="50" height="50" 
                        fill="white" stroke="black" stroke-width="2"/>
    <rect x="2095" y="275" 
                        width="50" height="50" 
                        fill="black" stroke="black" stroke-width="2"/>
    <rect x="2200" y="0" 
            width="495" height="330" 
            fill="none" stroke="black" stroke-width="3"/>
    <polygon points="2225.0,0 2200,50 2250,50"
                        fill="white" stroke="black" stroke-width="2"/>
    <polygon points="2280.0,0 2255,50 2305,50"
                        fill="black" stroke="black" stroke-width="2"/>
    <circle cx="2335.0" cy="25.0" r="25.0"
                        fill="black" stroke="black" stroke-width="2"/>
    <rect x="2365" y="0" 
                        width="50" height="50" 
                        fill="white" stroke="black" stroke-width="2"/>
    <rect x="2420" y="0" 
                        width="50" height="50" 
                        fill="black" stroke="black" stroke-width="2"/>
    <polygon points="2500.0,0 2475,50 2525,50"
                        fill="white" stroke="black" stroke-width="2"/>
    <polygon points="2555.0,0 2530,50 2580,50"
                        fill="white" stroke="black" stroke-width="2"/>
    <circle cx="2610.0" cy="25.0" r="25.0"
                        fill="white" stroke="black" stroke-width="2"/>
    <polygon points="2665.0,0 2640,50 2690,50"
                        fill="black" stroke="black" stroke-width="2"/>
    <polygon points="2225.0,55 2200,105 2250,105"
                        fill="black" stroke="black" stroke-width="2"/>
    <circle cx="2280.0" cy="80.0" r="25.0"
                        fill="white" stroke="black" stroke-width="2"/>
    <circle cx="2335.0" cy="80.0" r="25.0"
                        fill="white" stroke="black" stroke-width="2"/>
    <circle cx="2390.0" cy="80.0" r="25.0"
                        fill="white" stroke="black" stroke-width="2"/>
    <circle cx="2445.0" cy="80.0" r="25.0"
                        fill="black" stroke="black" stroke-width="2"/>
    <polygon points="2500.0,55 2475,105 2525,105"
                        fill="black" stroke="black" stroke-width="2"/>
    <polygon points="2555.0,55 2530,105 2580,105"
                        fill="black" stroke="black" stroke-width="2"/>
    <circle cx="2610.0" cy="80.0" r="25.0"
                        fill="black" stroke="black" stroke-width="2"/>
    <circle cx="2665.0" cy="80.0" r="25.0"
                        fill="white" stroke="black" stroke-width="2"/>
    <circle cx="2225.0" cy="135.0" r="25.0"
                        fill="black" stroke="black" stroke-width="2"/>
    <polygon points="2280.0,110 2255,160 2305,160"
                        fill="white" stroke="black" stroke-width="2"/>
    <circle cx="2335.0" cy="135.0" r="25.0"
                        fill="black" stroke="black" stroke-width="2"/>
    <polygon points="2390.0,110 2365,160 2415,160"
                        fill="black" stroke="black" stroke-width="2"/>
    <circle cx="2445.0" cy="135.0" r="25.0"
                        fill="black" stroke="black" stroke-width="2"/>
    <polygon points="2500.0,110 2475,160 2525,160"
                        fill="white" stroke="black" stroke-width="2"/>
    <rect x="2530" y="110" 
                        width="50" height="50" 
                        fill="white" stroke="black" stroke-width="2"/>
    <polygon points="2610.0,110 2585,160 2635,160"
                        fill="white" stroke="black" stroke-width="2"/>
    <polygon points="2665.0,110 2640,160 2690,160"
                        fill="white" stroke="black" stroke-width="2"/>
    <circle cx="2225.0" cy="190.0" r="25.0"
                        fill="black" stroke="black" stroke-width="2"/>
    <rect x="2255" y="165" 
                        width="50" height="50" 
                        fill="black" stroke="black" stroke-width="2"/>
    <circle cx="2335.0" cy="190.0" r="25.0"
                        fill="black" stroke="black" stroke-width="2"/>
    <circle cx="2390.0" cy="190.0" r="25.0"
                        fill="black" stroke="black" stroke-width="2"/>
    <circle cx="2445.0" cy="190.0" r="25.0"
                        fill="black" stroke="black" stroke-width="2"/>
    <polygon points="2500.0,165 2475,215 2525,215"
                        fill="black" stroke="black" stroke-width="2"/>
    <rect x="2530" y="165" 
                        width="50" height="50" 
                        fill="white" stroke="black" stroke-width="2"/>
    <circle cx="2610.0" cy="190.0" r="25.0"
                        fill="black" stroke="black" stroke-width="2"/>
    <circle cx="2665.0" cy="190.0" r="25.0"
                        fill="black" stroke="black" stroke-width="2"/>
    <circle cx="2225.0" cy="245.0" r="25.0"
                        fill="black" stroke="black" stroke-width="2"/>
    <polygon points="2280.0,220 2255,270 2305,270"
                        fill="black" stroke="black" stroke-width="2"/>
    <circle cx="2335.0" cy="245.0" r="25.0"
                        fill="black" stroke="black" stroke-width="2"/>
    <polygon points="2390.0,220 2365,270 2415,270"
                        fill="white" stroke="black" stroke-width="2"/>
    <polygon points="2445.0,220 2420,270 2470,270"
                        fill="white" stroke="black" stroke-width="2"/>
    <circle cx="2500.0" cy="245.0" r="25.0"
                        fill="white" stroke="black" stroke-width="2"/>
    <polygon points="2555.0,220 2530,270 2580,270"
                        fill="black" stroke="black" stroke-width="2"/>
    <circle cx="2610.0" cy="245.0" r="25.0"
                        fill="black" stroke="black" stroke-width="2"/>
    <rect x="2640" y="220" 
                        width="50" height="50" 
                        fill="white" stroke="black" stroke-width="2"/>
    <rect x="2200" y="275" 
                        width="50" height="50" 
                        fill="black" stroke="black" stroke-width="2"/>
    <circle cx="2280.0" cy="300.0" r="25.0"
                        fill="white" stroke="black" stroke-width="2"/>
    <polygon points="2335.0,275 2310,325 2360,325"
                        fill="black" stroke="black" stroke-width="2"/>
    <rect x="2365" y="275" 
                        width="50" height="50" 
                        fill="black" stroke="black" stroke-width="2"/>
    <polygon points="2445.0,275 2420,325 2470,325"
                        fill="black" stroke="black" stroke-width="2"/>
    <circle cx="2500.0" cy="300.0" r="25.0"
                        fill="white" stroke="black" stroke-width="2"/>
    <polygon points="2555.0,275 2530,325 2580,325"
                        fill="white" stroke="black" stroke-width="2"/>
    <polygon points="2610.0,275 2585,325 2635,325"
                        fill="black" stroke="black" stroke-width="2"/>
    <circle cx="2665.0" cy="300.0" r="25.0"
                        fill="white" stroke="black" stroke-width="2"/>
</svg>