<?xml version="1.0" encoding="UTF-8" standalone="no"?>
<svg width="205" height="495" xmlns="http://www.w3.org/2000/svg">
    <!-- White background -->
    <rect width="205" height="495" fill="white"/>
    <rect x="20" y="0" 
            width="165" height="495" 
            fill="none" stroke="black" stroke-width="3"/>
    <polygon points="45.0,0 20,50 70,50"
                        fill="white" stroke="black" stroke-width="2"/>
    <circle cx="100.0" cy="25.0" r="25.0"
                        fill="white" stroke="black" stroke-width="2"/>
    <polygon points="155.0,0 130,50 180,50"
                        fill="white" stroke="black" stroke-width="2"/>
    <polygon points="45.0,55 20,105 70,105"
                        fill="black" stroke="black" stroke-width="2"/>
    <polygon points="100.0,55 75,105 125,105"
                        fill="black" stroke="black" stroke-width="2"/>
    <polygon points="155.0,55 130,105 180,105"
                        fill="white" stroke="black" stroke-width="2"/>
    <polygon points="45.0,110 20,160 70,160"
                        fill="black" stroke="black" stroke-width="2"/>
    <circle cx="100.0" cy="135.0" r="25.0"
                        fill="white" stroke="black" stroke-width="2"/>
    <circle cx="155.0" cy="135.0" r="25.0"
                        fill="white" stroke="black" stroke-width="2"/>
    <rect x="20" y="165" 
                        width="50" height="50" 
                        fill="black" stroke="black" stroke-width="2"/>
    <polygon points="100.0,165 75,215 125,215"
                        fill="black" stroke="black" stroke-width="2"/>
    <polygon points="155.0,165 130,215 180,215"
                        fill="white" stroke="black" stroke-width="2"/>
    <polygon points="45.0,220 20,270 70,270"
                        fill="black" stroke="black" stroke-width="2"/>
    <rect x="75" y="220" 
                        width="50" height="50" 
                        fill="white" stroke="black" stroke-width="2"/>
    <polygon points="155.0,220 130,270 180,270"
                        fill="white" stroke="black" stroke-width="2"/>
    <circle cx="45.0" cy="300.0" r="25.0"
                        fill="black" stroke="black" stroke-width="2"/>
    <rect x="75" y="275" 
                        width="50" height="50" 
                        fill="white" stroke="black" stroke-width="2"/>
    <polygon points="155.0,275 130,325 180,325"
                        fill="white" stroke="black" stroke-width="2"/>
    <polygon points="45.0,330 20,380 70,380"
                        fill="black" stroke="black" stroke-width="2"/>
    <polygon points="100.0,330 75,380 125,380"
                        fill="white" stroke="black" stroke-width="2"/>
    <rect x="130" y="330" 
                        width="50" height="50" 
                        fill="white" stroke="black" stroke-width="2"/>
    <circle cx="45.0" cy="410.0" r="25.0"
                        fill="black" stroke="black" stroke-width="2"/>
    <polygon points="100.0,385 75,435 125,435"
                        fill="white" stroke="black" stroke-width="2"/>
    <rect x="130" y="385" 
                        width="50" height="50" 
                        fill="white" stroke="black" stroke-width="2"/>
    <rect x="20" y="440" 
                        width="50" height="50" 
                        fill="black" stroke="black" stroke-width="2"/>
    <polygon points="100.0,440 75,490 125,490"
                        fill="white" stroke="black" stroke-width="2"/>
    <circle cx="155.0" cy="465.0" r="25.0"
                        fill="black" stroke="black" stroke-width="2"/>
</svg>