<?xml version="1.0" encoding="UTF-8" standalone="no"?>
<svg width="635" height="495" xmlns="http://www.w3.org/2000/svg">
    <!-- White background -->
    <rect width="635" height="495" fill="white"/>
    <rect x="20" y="0" 
            width="165" height="495" 
            fill="none" stroke="black" stroke-width="3"/>
    <circle cx="45.0" cy="25.0" r="25.0"
                        fill="white" stroke="black" stroke-width="2"/>
    <rect x="75" y="0" 
                        width="50" height="50" 
                        fill="black" stroke="black" stroke-width="2"/>
    <polygon points="155.0,0 130,50 180,50"
                        fill="white" stroke="black" stroke-width="2"/>
    <polygon points="45.0,55 20,105 70,105"
                        fill="black" stroke="black" stroke-width="2"/>
    <polygon points="100.0,55 75,105 125,105"
                        fill="black" stroke="black" stroke-width="2"/>
    <rect x="130" y="55" 
                        width="50" height="50" 
                        fill="black" stroke="black" stroke-width="2"/>
    <polygon points="45.0,110 20,160 70,160"
                        fill="white" stroke="black" stroke-width="2"/>
    <circle cx="100.0" cy="135.0" r="25.0"
                        fill="white" stroke="black" stroke-width="2"/>
    <rect x="130" y="110" 
                        width="50" height="50" 
                        fill="white" stroke="black" stroke-width="2"/>
    <rect x="20" y="165" 
                        width="50" height="50" 
                        fill="white" stroke="black" stroke-width="2"/>
    <circle cx="100.0" cy="190.0" r="25.0"
                        fill="black" stroke="black" stroke-width="2"/>
    <rect x="130" y="165" 
                        width="50" height="50" 
                        fill="white" stroke="black" stroke-width="2"/>
    <polygon points="45.0,220 20,270 70,270"
                        fill="black" stroke="black" stroke-width="2"/>
    <polygon points="100.0,220 75,270 125,270"
                        fill="black" stroke="black" stroke-width="2"/>
    <rect x="130" y="220" 
                        width="50" height="50" 
                        fill="white" stroke="black" stroke-width="2"/>
    <rect x="20" y="275" 
                        width="50" height="50" 
                        fill="black" stroke="black" stroke-width="2"/>
    <polygon points="100.0,275 75,325 125,325"
                        fill="black" stroke="black" stroke-width="2"/>
    <polygon points="155.0,275 130,325 180,325"
                        fill="black" stroke="black" stroke-width="2"/>
    <polygon points="45.0,330 20,380 70,380"
                        fill="black" stroke="black" stroke-width="2"/>
    <polygon points="100.0,330 75,380 125,380"
                        fill="white" stroke="black" stroke-width="2"/>
    <rect x="130" y="330" 
                        width="50" height="50" 
                        fill="black" stroke="black" stroke-width="2"/>
    <polygon points="45.0,385 20,435 70,435"
                        fill="white" stroke="black" stroke-width="2"/>
    <polygon points="100.0,385 75,435 125,435"
                        fill="white" stroke="black" stroke-width="2"/>
    <circle cx="155.0" cy="410.0" r="25.0"
                        fill="black" stroke="black" stroke-width="2"/>
    <polygon points="45.0,440 20,490 70,490"
                        fill="white" stroke="black" stroke-width="2"/>
    <circle cx="100.0" cy="465.0" r="25.0"
                        fill="black" stroke="black" stroke-width="2"/>
    <rect x="130" y="440" 
                        width="50" height="50" 
                        fill="white" stroke="black" stroke-width="2"/>
    <rect x="235" y="0" 
            width="165" height="495" 
            fill="none" stroke="black" stroke-width="3"/>
    <polygon points="260.0,0 235,50 285,50"
                        fill="white" stroke="black" stroke-width="2"/>
    <circle cx="315.0" cy="25.0" r="25.0"
                        fill="black" stroke="black" stroke-width="2"/>
    <circle cx="370.0" cy="25.0" r="25.0"
                        fill="white" stroke="black" stroke-width="2"/>
    <polygon points="260.0,55 235,105 285,105"
                        fill="black" stroke="black" stroke-width="2"/>
    <circle cx="315.0" cy="80.0" r="25.0"
                        fill="white" stroke="black" stroke-width="2"/>
    <circle cx="370.0" cy="80.0" r="25.0"
                        fill="black" stroke="black" stroke-width="2"/>
    <rect x="235" y="110" 
                        width="50" height="50" 
                        fill="white" stroke="black" stroke-width="2"/>
    <rect x="290" y="110" 
                        width="50" height="50" 
                        fill="black" stroke="black" stroke-width="2"/>
    <circle cx="370.0" cy="135.0" r="25.0"
                        fill="black" stroke="black" stroke-width="2"/>
    <circle cx="260.0" cy="190.0" r="25.0"
                        fill="white" stroke="black" stroke-width="2"/>
    <rect x="290" y="165" 
                        width="50" height="50" 
                        fill="black" stroke="black" stroke-width="2"/>
    <polygon points="370.0,165 345,215 395,215"
                        fill="white" stroke="black" stroke-width="2"/>
    <rect x="235" y="220" 
                        width="50" height="50" 
                        fill="white" stroke="black" stroke-width="2"/>
    <polygon points="315.0,220 290,270 340,270"
                        fill="black" stroke="black" stroke-width="2"/>
    <circle cx="370.0" cy="245.0" r="25.0"
                        fill="black" stroke="black" stroke-width="2"/>
    <polygon points="260.0,275 235,325 285,325"
                        fill="white" stroke="black" stroke-width="2"/>
    <polygon points="315.0,275 290,325 340,325"
                        fill="black" stroke="black" stroke-width="2"/>
    <polygon points="370.0,275 345,325 395,325"
                        fill="white" stroke="black" stroke-width="2"/>
    <circle cx="260.0" cy="355.0" r="25.0"
                        fill="black" stroke="black" stroke-width="2"/>
    <polygon points="315.0,330 290,380 340,380"
                        fill="white" stroke="black" stroke-width="2"/>
    <polygon points="370.0,330 345,380 395,380"
                        fill="black" stroke="black" stroke-width="2"/>
    <circle cx="260.0" cy="410.0" r="25.0"
                        fill="white" stroke="black" stroke-width="2"/>
    <rect x="290" y="385" 
                        width="50" height="50" 
                        fill="black" stroke="black" stroke-width="2"/>
    <polygon points="370.0,385 345,435 395,435"
                        fill="black" stroke="black" stroke-width="2"/>
    <rect x="235" y="440" 
                        width="50" height="50" 
                        fill="black" stroke="black" stroke-width="2"/>
    <rect x="290" y="440" 
                        width="50" height="50" 
                        fill="black" stroke="black" stroke-width="2"/>
    <polygon points="370.0,440 345,490 395,490"
                        fill="black" stroke="black" stroke-width="2"/>
    <rect x="450" y="0" 
            width="165" height="495" 
            fill="none" stroke="black" stroke-width="3"/>
    <polygon points="475.0,0 450,50 500,50"
                        fill="white" stroke="black" stroke-width="2"/>
    <rect x="505" y="0" 
                        width="50" height="50" 
                        fill="white" stroke="black" stroke-width="2"/>
    <circle cx="585.0" cy="25.0" r="25.0"
                        fill="white" stroke="black" stroke-width="2"/>
    <polygon points="475.0,55 450,105 500,105"
                        fill="black" stroke="black" stroke-width="2"/>
    <rect x="505" y="55" 
                        width="50" height="50" 
                        fill="white" stroke="black" stroke-width="2"/>
    <circle cx="585.0" cy="80.0" r="25.0"
                        fill="white" stroke="black" stroke-width="2"/>
    <circle cx="475.0" cy="135.0" r="25.0"
                        fill="black" stroke="black" stroke-width="2"/>
    <rect x="505" y="110" 
                        width="50" height="50" 
                        fill="white" stroke="black" stroke-width="2"/>
    <rect x="560" y="110" 
                        width="50" height="50" 
                        fill="white" stroke="black" stroke-width="2"/>
    <circle cx="475.0" cy="190.0" r="25.0"
                        fill="white" stroke="black" stroke-width="2"/>
    <polygon points="530.0,165 505,215 555,215"
                        fill="white" stroke="black" stroke-width="2"/>
    <circle cx="585.0" cy="190.0" r="25.0"
                        fill="white" stroke="black" stroke-width="2"/>
    <circle cx="475.0" cy="245.0" r="25.0"
                        fill="white" stroke="black" stroke-width="2"/>
    <polygon points="530.0,220 505,270 555,270"
                        fill="white" stroke="black" stroke-width="2"/>
    <polygon points="585.0,220 560,270 610,270"
                        fill="black" stroke="black" stroke-width="2"/>
    <circle cx="475.0" cy="300.0" r="25.0"
                        fill="black" stroke="black" stroke-width="2"/>
    <rect x="505" y="275" 
                        width="50" height="50" 
                        fill="black" stroke="black" stroke-width="2"/>
    <circle cx="585.0" cy="300.0" r="25.0"
                        fill="white" stroke="black" stroke-width="2"/>
    <circle cx="475.0" cy="355.0" r="25.0"
                        fill="white" stroke="black" stroke-width="2"/>
    <polygon points="530.0,330 505,380 555,380"
                        fill="black" stroke="black" stroke-width="2"/>
    <rect x="560" y="330" 
                        width="50" height="50" 
                        fill="white" stroke="black" stroke-width="2"/>
    <circle cx="475.0" cy="410.0" r="25.0"
                        fill="white" stroke="black" stroke-width="2"/>
    <circle cx="530.0" cy="410.0" r="25.0"
                        fill="white" stroke="black" stroke-width="2"/>
    <circle cx="585.0" cy="410.0" r="25.0"
                        fill="white" stroke="black" stroke-width="2"/>
    <circle cx="475.0" cy="465.0" r="25.0"
                        fill="black" stroke="black" stroke-width="2"/>
    <polygon points="530.0,440 505,490 555,490"
                        fill="black" stroke="black" stroke-width="2"/>
    <circle cx="585.0" cy="465.0" r="25.0"
                        fill="black" stroke="black" stroke-width="2"/>
</svg>