<?xml version="1.0" encoding="UTF-8" standalone="no"?>
<svg width="1065" height="495" xmlns="http://www.w3.org/2000/svg">
    <!-- White background -->
    <rect width="1065" height="495" fill="white"/>
    <rect x="20" y="0" 
            width="165" height="495" 
            fill="none" stroke="black" stroke-width="3"/>
    <polygon points="45.0,0 20,50 70,50"
                        fill="black" stroke="black" stroke-width="2"/>
    <polygon points="100.0,0 75,50 125,50"
                        fill="black" stroke="black" stroke-width="2"/>
    <rect x="130" y="0" 
                        width="50" height="50" 
                        fill="white" stroke="black" stroke-width="2"/>
    <circle cx="45.0" cy="80.0" r="25.0"
                        fill="black" stroke="black" stroke-width="2"/>
    <polygon points="100.0,55 75,105 125,105"
                        fill="black" stroke="black" stroke-width="2"/>
    <circle cx="155.0" cy="80.0" r="25.0"
                        fill="white" stroke="black" stroke-width="2"/>
    <rect x="20" y="110" 
                        width="50" height="50" 
                        fill="black" stroke="black" stroke-width="2"/>
    <circle cx="100.0" cy="135.0" r="25.0"
                        fill="black" stroke="black" stroke-width="2"/>
    <rect x="130" y="110" 
                        width="50" height="50" 
                        fill="black" stroke="black" stroke-width="2"/>
    <circle cx="45.0" cy="190.0" r="25.0"
                        fill="black" stroke="black" stroke-width="2"/>
    <rect x="75" y="165" 
                        width="50" height="50" 
                        fill="black" stroke="black" stroke-width="2"/>
    <circle cx="155.0" cy="190.0" r="25.0"
                        fill="black" stroke="black" stroke-width="2"/>
    <rect x="20" y="220" 
                        width="50" height="50" 
                        fill="white" stroke="black" stroke-width="2"/>
    <polygon points="100.0,220 75,270 125,270"
                        fill="white" stroke="black" stroke-width="2"/>
    <circle cx="155.0" cy="245.0" r="25.0"
                        fill="black" stroke="black" stroke-width="2"/>
    <rect x="20" y="275" 
                        width="50" height="50" 
                        fill="white" stroke="black" stroke-width="2"/>
    <circle cx="100.0" cy="300.0" r="25.0"
                        fill="black" stroke="black" stroke-width="2"/>
    <circle cx="155.0" cy="300.0" r="25.0"
                        fill="black" stroke="black" stroke-width="2"/>
    <rect x="20" y="330" 
                        width="50" height="50" 
                        fill="black" stroke="black" stroke-width="2"/>
    <circle cx="100.0" cy="355.0" r="25.0"
                        fill="white" stroke="black" stroke-width="2"/>
    <circle cx="155.0" cy="355.0" r="25.0"
                        fill="black" stroke="black" stroke-width="2"/>
    <polygon points="45.0,385 20,435 70,435"
                        fill="white" stroke="black" stroke-width="2"/>
    <circle cx="100.0" cy="410.0" r="25.0"
                        fill="black" stroke="black" stroke-width="2"/>
    <rect x="130" y="385" 
                        width="50" height="50" 
                        fill="black" stroke="black" stroke-width="2"/>
    <rect x="20" y="440" 
                        width="50" height="50" 
                        fill="white" stroke="black" stroke-width="2"/>
    <circle cx="100.0" cy="465.0" r="25.0"
                        fill="black" stroke="black" stroke-width="2"/>
    <polygon points="155.0,440 130,490 180,490"
                        fill="black" stroke="black" stroke-width="2"/>
    <rect x="235" y="0" 
            width="165" height="495" 
            fill="none" stroke="black" stroke-width="3"/>
    <polygon points="260.0,0 235,50 285,50"
                        fill="white" stroke="black" stroke-width="2"/>
    <circle cx="315.0" cy="25.0" r="25.0"
                        fill="black" stroke="black" stroke-width="2"/>
    <rect x="345" y="0" 
                        width="50" height="50" 
                        fill="white" stroke="black" stroke-width="2"/>
    <polygon points="260.0,55 235,105 285,105"
                        fill="black" stroke="black" stroke-width="2"/>
    <circle cx="315.0" cy="80.0" r="25.0"
                        fill="black" stroke="black" stroke-width="2"/>
    <circle cx="370.0" cy="80.0" r="25.0"
                        fill="white" stroke="black" stroke-width="2"/>
    <circle cx="260.0" cy="135.0" r="25.0"
                        fill="white" stroke="black" stroke-width="2"/>
    <rect x="290" y="110" 
                        width="50" height="50" 
                        fill="white" stroke="black" stroke-width="2"/>
    <rect x="345" y="110" 
                        width="50" height="50" 
                        fill="black" stroke="black" stroke-width="2"/>
    <circle cx="260.0" cy="190.0" r="25.0"
                        fill="black" stroke="black" stroke-width="2"/>
    <polygon points="315.0,165 290,215 340,215"
                        fill="black" stroke="black" stroke-width="2"/>
    <rect x="345" y="165" 
                        width="50" height="50" 
                        fill="black" stroke="black" stroke-width="2"/>
    <polygon points="260.0,220 235,270 285,270"
                        fill="black" stroke="black" stroke-width="2"/>
    <rect x="290" y="220" 
                        width="50" height="50" 
                        fill="white" stroke="black" stroke-width="2"/>
    <polygon points="370.0,220 345,270 395,270"
                        fill="white" stroke="black" stroke-width="2"/>
    <circle cx="260.0" cy="300.0" r="25.0"
                        fill="white" stroke="black" stroke-width="2"/>
    <circle cx="315.0" cy="300.0" r="25.0"
                        fill="black" stroke="black" stroke-width="2"/>
    <rect x="345" y="275" 
                        width="50" height="50" 
                        fill="black" stroke="black" stroke-width="2"/>
    <circle cx="260.0" cy="355.0" r="25.0"
                        fill="black" stroke="black" stroke-width="2"/>
    <rect x="290" y="330" 
                        width="50" height="50" 
                        fill="black" stroke="black" stroke-width="2"/>
    <polygon points="370.0,330 345,380 395,380"
                        fill="white" stroke="black" stroke-width="2"/>
    <polygon points="260.0,385 235,435 285,435"
                        fill="white" stroke="black" stroke-width="2"/>
    <rect x="290" y="385" 
                        width="50" height="50" 
                        fill="black" stroke="black" stroke-width="2"/>
    <rect x="345" y="385" 
                        width="50" height="50" 
                        fill="black" stroke="black" stroke-width="2"/>
    <circle cx="260.0" cy="465.0" r="25.0"
                        fill="white" stroke="black" stroke-width="2"/>
    <circle cx="315.0" cy="465.0" r="25.0"
                        fill="white" stroke="black" stroke-width="2"/>
    <circle cx="370.0" cy="465.0" r="25.0"
                        fill="white" stroke="black" stroke-width="2"/>
    <rect x="450" y="0" 
            width="165" height="495" 
            fill="none" stroke="black" stroke-width="3"/>
    <polygon points="475.0,0 450,50 500,50"
                        fill="white" stroke="black" stroke-width="2"/>
    <circle cx="530.0" cy="25.0" r="25.0"
                        fill="black" stroke="black" stroke-width="2"/>
    <rect x="560" y="0" 
                        width="50" height="50" 
                        fill="black" stroke="black" stroke-width="2"/>
    <rect x="450" y="55" 
                        width="50" height="50" 
                        fill="white" stroke="black" stroke-width="2"/>
    <rect x="505" y="55" 
                        width="50" height="50" 
                        fill="black" stroke="black" stroke-width="2"/>
    <rect x="560" y="55" 
                        width="50" height="50" 
                        fill="white" stroke="black" stroke-width="2"/>
    <rect x="450" y="110" 
                        width="50" height="50" 
                        fill="black" stroke="black" stroke-width="2"/>
    <polygon points="530.0,110 505,160 555,160"
                        fill="white" stroke="black" stroke-width="2"/>
    <polygon points="585.0,110 560,160 610,160"
                        fill="black" stroke="black" stroke-width="2"/>
    <polygon points="475.0,165 450,215 500,215"
                        fill="white" stroke="black" stroke-width="2"/>
    <circle cx="530.0" cy="190.0" r="25.0"
                        fill="white" stroke="black" stroke-width="2"/>
    <polygon points="585.0,165 560,215 610,215"
                        fill="white" stroke="black" stroke-width="2"/>
    <circle cx="475.0" cy="245.0" r="25.0"
                        fill="black" stroke="black" stroke-width="2"/>
    <circle cx="530.0" cy="245.0" r="25.0"
                        fill="black" stroke="black" stroke-width="2"/>
    <rect x="560" y="220" 
                        width="50" height="50" 
                        fill="black" stroke="black" stroke-width="2"/>
    <rect x="450" y="275" 
                        width="50" height="50" 
                        fill="white" stroke="black" stroke-width="2"/>
    <polygon points="530.0,275 505,325 555,325"
                        fill="white" stroke="black" stroke-width="2"/>
    <polygon points="585.0,275 560,325 610,325"
                        fill="white" stroke="black" stroke-width="2"/>
    <rect x="450" y="330" 
                        width="50" height="50" 
                        fill="black" stroke="black" stroke-width="2"/>
    <circle cx="530.0" cy="355.0" r="25.0"
                        fill="black" stroke="black" stroke-width="2"/>
    <rect x="560" y="330" 
                        width="50" height="50" 
                        fill="white" stroke="black" stroke-width="2"/>
    <circle cx="475.0" cy="410.0" r="25.0"
                        fill="black" stroke="black" stroke-width="2"/>
    <polygon points="530.0,385 505,435 555,435"
                        fill="white" stroke="black" stroke-width="2"/>
    <rect x="560" y="385" 
                        width="50" height="50" 
                        fill="white" stroke="black" stroke-width="2"/>
    <circle cx="475.0" cy="465.0" r="25.0"
                        fill="white" stroke="black" stroke-width="2"/>
    <polygon points="530.0,440 505,490 555,490"
                        fill="white" stroke="black" stroke-width="2"/>
    <circle cx="585.0" cy="465.0" r="25.0"
                        fill="black" stroke="black" stroke-width="2"/>
    <rect x="665" y="0" 
            width="165" height="495" 
            fill="none" stroke="black" stroke-width="3"/>
    <circle cx="690.0" cy="25.0" r="25.0"
                        fill="white" stroke="black" stroke-width="2"/>
    <circle cx="745.0" cy="25.0" r="25.0"
                        fill="black" stroke="black" stroke-width="2"/>
    <circle cx="800.0" cy="25.0" r="25.0"
                        fill="white" stroke="black" stroke-width="2"/>
    <polygon points="690.0,55 665,105 715,105"
                        fill="white" stroke="black" stroke-width="2"/>
    <rect x="720" y="55" 
                        width="50" height="50" 
                        fill="white" stroke="black" stroke-width="2"/>
    <polygon points="800.0,55 775,105 825,105"
                        fill="black" stroke="black" stroke-width="2"/>
    <rect x="665" y="110" 
                        width="50" height="50" 
                        fill="black" stroke="black" stroke-width="2"/>
    <circle cx="745.0" cy="135.0" r="25.0"
                        fill="white" stroke="black" stroke-width="2"/>
    <polygon points="800.0,110 775,160 825,160"
                        fill="white" stroke="black" stroke-width="2"/>
    <polygon points="690.0,165 665,215 715,215"
                        fill="black" stroke="black" stroke-width="2"/>
    <circle cx="745.0" cy="190.0" r="25.0"
                        fill="black" stroke="black" stroke-width="2"/>
    <circle cx="800.0" cy="190.0" r="25.0"
                        fill="white" stroke="black" stroke-width="2"/>
    <polygon points="690.0,220 665,270 715,270"
                        fill="black" stroke="black" stroke-width="2"/>
    <polygon points="745.0,220 720,270 770,270"
                        fill="black" stroke="black" stroke-width="2"/>
    <circle cx="800.0" cy="245.0" r="25.0"
                        fill="white" stroke="black" stroke-width="2"/>
    <circle cx="690.0" cy="300.0" r="25.0"
                        fill="black" stroke="black" stroke-width="2"/>
    <circle cx="745.0" cy="300.0" r="25.0"
                        fill="white" stroke="black" stroke-width="2"/>
    <polygon points="800.0,275 775,325 825,325"
                        fill="white" stroke="black" stroke-width="2"/>
    <circle cx="690.0" cy="355.0" r="25.0"
                        fill="white" stroke="black" stroke-width="2"/>
    <circle cx="745.0" cy="355.0" r="25.0"
                        fill="black" stroke="black" stroke-width="2"/>
    <polygon points="800.0,330 775,380 825,380"
                        fill="black" stroke="black" stroke-width="2"/>
    <circle cx="690.0" cy="410.0" r="25.0"
                        fill="white" stroke="black" stroke-width="2"/>
    <circle cx="745.0" cy="410.0" r="25.0"
                        fill="white" stroke="black" stroke-width="2"/>
    <circle cx="800.0" cy="410.0" r="25.0"
                        fill="white" stroke="black" stroke-width="2"/>
    <rect x="665" y="440" 
                        width="50" height="50" 
                        fill="white" stroke="black" stroke-width="2"/>
    <circle cx="745.0" cy="465.0" r="25.0"
                        fill="white" stroke="black" stroke-width="2"/>
    <circle cx="800.0" cy="465.0" r="25.0"
                        fill="black" stroke="black" stroke-width="2"/>
    <rect x="880" y="0" 
            width="165" height="495" 
            fill="none" stroke="black" stroke-width="3"/>
    <circle cx="905.0" cy="25.0" r="25.0"
                        fill="black" stroke="black" stroke-width="2"/>
    <polygon points="960.0,0 935,50 985,50"
                        fill="black" stroke="black" stroke-width="2"/>
    <rect x="990" y="0" 
                        width="50" height="50" 
                        fill="white" stroke="black" stroke-width="2"/>
    <rect x="880" y="55" 
                        width="50" height="50" 
                        fill="black" stroke="black" stroke-width="2"/>
    <polygon points="960.0,55 935,105 985,105"
                        fill="white" stroke="black" stroke-width="2"/>
    <circle cx="1015.0" cy="80.0" r="25.0"
                        fill="black" stroke="black" stroke-width="2"/>
    <polygon points="905.0,110 880,160 930,160"
                        fill="white" stroke="black" stroke-width="2"/>
    <circle cx="960.0" cy="135.0" r="25.0"
                        fill="white" stroke="black" stroke-width="2"/>
    <rect x="990" y="110" 
                        width="50" height="50" 
                        fill="white" stroke="black" stroke-width="2"/>
    <rect x="880" y="165" 
                        width="50" height="50" 
                        fill="white" stroke="black" stroke-width="2"/>
    <rect x="935" y="165" 
                        width="50" height="50" 
                        fill="white" stroke="black" stroke-width="2"/>
    <circle cx="1015.0" cy="190.0" r="25.0"
                        fill="black" stroke="black" stroke-width="2"/>
    <polygon points="905.0,220 880,270 930,270"
                        fill="white" stroke="black" stroke-width="2"/>
    <rect x="935" y="220" 
                        width="50" height="50" 
                        fill="white" stroke="black" stroke-width="2"/>
    <circle cx="1015.0" cy="245.0" r="25.0"
                        fill="black" stroke="black" stroke-width="2"/>
    <polygon points="905.0,275 880,325 930,325"
                        fill="white" stroke="black" stroke-width="2"/>
    <polygon points="960.0,275 935,325 985,325"
                        fill="white" stroke="black" stroke-width="2"/>
    <polygon points="1015.0,275 990,325 1040,325"
                        fill="black" stroke="black" stroke-width="2"/>
    <circle cx="905.0" cy="355.0" r="25.0"
                        fill="black" stroke="black" stroke-width="2"/>
    <rect x="935" y="330" 
                        width="50" height="50" 
                        fill="black" stroke="black" stroke-width="2"/>
    <rect x="990" y="330" 
                        width="50" height="50" 
                        fill="black" stroke="black" stroke-width="2"/>
    <polygon points="905.0,385 880,435 930,435"
                        fill="white" stroke="black" stroke-width="2"/>
    <rect x="935" y="385" 
                        width="50" height="50" 
                        fill="black" stroke="black" stroke-width="2"/>
    <circle cx="1015.0" cy="410.0" r="25.0"
                        fill="white" stroke="black" stroke-width="2"/>
    <rect x="880" y="440" 
                        width="50" height="50" 
                        fill="black" stroke="black" stroke-width="2"/>
    <circle cx="960.0" cy="465.0" r="25.0"
                        fill="white" stroke="black" stroke-width="2"/>
    <rect x="990" y="440" 
                        width="50" height="50" 
                        fill="white" stroke="black" stroke-width="2"/>
</svg>