<?xml version="1.0" encoding="UTF-8" standalone="no"?>
<svg width="370" height="495" xmlns="http://www.w3.org/2000/svg">
    <!-- White background -->
    <rect width="370" height="495" fill="white"/>
    <rect x="20" y="0" 
            width="330" height="495" 
            fill="none" stroke="black" stroke-width="3"/>
    <polygon points="45.0,0 20,50 70,50"
                        fill="white" stroke="black" stroke-width="2"/>
    <polygon points="100.0,0 75,50 125,50"
                        fill="white" stroke="black" stroke-width="2"/>
    <circle cx="155.0" cy="25.0" r="25.0"
                        fill="black" stroke="black" stroke-width="2"/>
    <rect x="185" y="0" 
                        width="50" height="50" 
                        fill="black" stroke="black" stroke-width="2"/>
    <rect x="240" y="0" 
                        width="50" height="50" 
                        fill="black" stroke="black" stroke-width="2"/>
    <polygon points="320.0,0 295,50 345,50"
                        fill="black" stroke="black" stroke-width="2"/>
    <polygon points="45.0,55 20,105 70,105"
                        fill="white" stroke="black" stroke-width="2"/>
    <polygon points="100.0,55 75,105 125,105"
                        fill="black" stroke="black" stroke-width="2"/>
    <polygon points="155.0,55 130,105 180,105"
                        fill="white" stroke="black" stroke-width="2"/>
    <rect x="185" y="55" 
                        width="50" height="50" 
                        fill="black" stroke="black" stroke-width="2"/>
    <rect x="240" y="55" 
                        width="50" height="50" 
                        fill="black" stroke="black" stroke-width="2"/>
    <rect x="295" y="55" 
                        width="50" height="50" 
                        fill="black" stroke="black" stroke-width="2"/>
    <polygon points="45.0,110 20,160 70,160"
                        fill="black" stroke="black" stroke-width="2"/>
    <rect x="75" y="110" 
                        width="50" height="50" 
                        fill="white" stroke="black" stroke-width="2"/>
    <circle cx="155.0" cy="135.0" r="25.0"
                        fill="black" stroke="black" stroke-width="2"/>
    <rect x="185" y="110" 
                        width="50" height="50" 
                        fill="black" stroke="black" stroke-width="2"/>
    <circle cx="265.0" cy="135.0" r="25.0"
                        fill="white" stroke="black" stroke-width="2"/>
    <polygon points="320.0,110 295,160 345,160"
                        fill="black" stroke="black" stroke-width="2"/>
    <circle cx="45.0" cy="190.0" r="25.0"
                        fill="white" stroke="black" stroke-width="2"/>
    <rect x="75" y="165" 
                        width="50" height="50" 
                        fill="black" stroke="black" stroke-width="2"/>
    <polygon points="155.0,165 130,215 180,215"
                        fill="white" stroke="black" stroke-width="2"/>
    <rect x="185" y="165" 
                        width="50" height="50" 
                        fill="black" stroke="black" stroke-width="2"/>
    <circle cx="265.0" cy="190.0" r="25.0"
                        fill="black" stroke="black" stroke-width="2"/>
    <polygon points="320.0,165 295,215 345,215"
                        fill="white" stroke="black" stroke-width="2"/>
    <polygon points="45.0,220 20,270 70,270"
                        fill="black" stroke="black" stroke-width="2"/>
    <polygon points="100.0,220 75,270 125,270"
                        fill="black" stroke="black" stroke-width="2"/>
    <polygon points="155.0,220 130,270 180,270"
                        fill="black" stroke="black" stroke-width="2"/>
    <polygon points="210.0,220 185,270 235,270"
                        fill="black" stroke="black" stroke-width="2"/>
    <polygon points="265.0,220 240,270 290,270"
                        fill="white" stroke="black" stroke-width="2"/>
    <polygon points="320.0,220 295,270 345,270"
                        fill="white" stroke="black" stroke-width="2"/>
    <rect x="20" y="275" 
                        width="50" height="50" 
                        fill="black" stroke="black" stroke-width="2"/>
    <rect x="75" y="275" 
                        width="50" height="50" 
                        fill="white" stroke="black" stroke-width="2"/>
    <rect x="130" y="275" 
                        width="50" height="50" 
                        fill="black" stroke="black" stroke-width="2"/>
    <rect x="185" y="275" 
                        width="50" height="50" 
                        fill="black" stroke="black" stroke-width="2"/>
    <polygon points="265.0,275 240,325 290,325"
                        fill="black" stroke="black" stroke-width="2"/>
    <circle cx="320.0" cy="300.0" r="25.0"
                        fill="white" stroke="black" stroke-width="2"/>
    <rect x="20" y="330" 
                        width="50" height="50" 
                        fill="white" stroke="black" stroke-width="2"/>
    <circle cx="100.0" cy="355.0" r="25.0"
                        fill="black" stroke="black" stroke-width="2"/>
    <polygon points="155.0,330 130,380 180,380"
                        fill="white" stroke="black" stroke-width="2"/>
    <circle cx="210.0" cy="355.0" r="25.0"
                        fill="black" stroke="black" stroke-width="2"/>
    <rect x="240" y="330" 
                        width="50" height="50" 
                        fill="black" stroke="black" stroke-width="2"/>
    <polygon points="320.0,330 295,380 345,380"
                        fill="black" stroke="black" stroke-width="2"/>
    <circle cx="45.0" cy="410.0" r="25.0"
                        fill="white" stroke="black" stroke-width="2"/>
    <polygon points="100.0,385 75,435 125,435"
                        fill="black" stroke="black" stroke-width="2"/>
    <polygon points="155.0,385 130,435 180,435"
                        fill="white" stroke="black" stroke-width="2"/>
    <polygon points="210.0,385 185,435 235,435"
                        fill="white" stroke="black" stroke-width="2"/>
    <rect x="240" y="385" 
                        width="50" height="50" 
                        fill="white" stroke="black" stroke-width="2"/>
    <rect x="295" y="385" 
                        width="50" height="50" 
                        fill="white" stroke="black" stroke-width="2"/>
    <circle cx="45.0" cy="465.0" r="25.0"
                        fill="black" stroke="black" stroke-width="2"/>
    <circle cx="100.0" cy="465.0" r="25.0"
                        fill="white" stroke="black" stroke-width="2"/>
    <rect x="130" y="440" 
                        width="50" height="50" 
                        fill="black" stroke="black" stroke-width="2"/>
    <circle cx="210.0" cy="465.0" r="25.0"
                        fill="black" stroke="black" stroke-width="2"/>
    <polygon points="265.0,440 240,490 290,490"
                        fill="black" stroke="black" stroke-width="2"/>
    <polygon points="320.0,440 295,490 345,490"
                        fill="black" stroke="black" stroke-width="2"/>
</svg>