<?xml version="1.0" encoding="UTF-8" standalone="no"?>
<svg width="1130" height="495" xmlns="http://www.w3.org/2000/svg">
    <!-- White background -->
    <rect width="1130" height="495" fill="white"/>
    <rect x="20" y="0" 
            width="330" height="495" 
            fill="none" stroke="black" stroke-width="3"/>
    <circle cx="45.0" cy="25.0" r="25.0"
                        fill="black" stroke="black" stroke-width="2"/>
    <polygon points="100.0,0 75,50 125,50"
                        fill="black" stroke="black" stroke-width="2"/>
    <polygon points="155.0,0 130,50 180,50"
                        fill="black" stroke="black" stroke-width="2"/>
    <rect x="185" y="0" 
                        width="50" height="50" 
                        fill="black" stroke="black" stroke-width="2"/>
    <circle cx="265.0" cy="25.0" r="25.0"
                        fill="black" stroke="black" stroke-width="2"/>
    <circle cx="320.0" cy="25.0" r="25.0"
                        fill="white" stroke="black" stroke-width="2"/>
    <polygon points="45.0,55 20,105 70,105"
                        fill="white" stroke="black" stroke-width="2"/>
    <polygon points="100.0,55 75,105 125,105"
                        fill="black" stroke="black" stroke-width="2"/>
    <circle cx="155.0" cy="80.0" r="25.0"
                        fill="black" stroke="black" stroke-width="2"/>
    <circle cx="210.0" cy="80.0" r="25.0"
                        fill="white" stroke="black" stroke-width="2"/>
    <rect x="240" y="55" 
                        width="50" height="50" 
                        fill="white" stroke="black" stroke-width="2"/>
    <circle cx="320.0" cy="80.0" r="25.0"
                        fill="black" stroke="black" stroke-width="2"/>
    <circle cx="45.0" cy="135.0" r="25.0"
                        fill="black" stroke="black" stroke-width="2"/>
    <circle cx="100.0" cy="135.0" r="25.0"
                        fill="black" stroke="black" stroke-width="2"/>
    <rect x="130" y="110" 
                        width="50" height="50" 
                        fill="white" stroke="black" stroke-width="2"/>
    <circle cx="210.0" cy="135.0" r="25.0"
                        fill="white" stroke="black" stroke-width="2"/>
    <polygon points="265.0,110 240,160 290,160"
                        fill="white" stroke="black" stroke-width="2"/>
    <circle cx="320.0" cy="135.0" r="25.0"
                        fill="white" stroke="black" stroke-width="2"/>
    <circle cx="45.0" cy="190.0" r="25.0"
                        fill="black" stroke="black" stroke-width="2"/>
    <circle cx="100.0" cy="190.0" r="25.0"
                        fill="white" stroke="black" stroke-width="2"/>
    <rect x="130" y="165" 
                        width="50" height="50" 
                        fill="white" stroke="black" stroke-width="2"/>
    <rect x="185" y="165" 
                        width="50" height="50" 
                        fill="white" stroke="black" stroke-width="2"/>
    <rect x="240" y="165" 
                        width="50" height="50" 
                        fill="white" stroke="black" stroke-width="2"/>
    <rect x="295" y="165" 
                        width="50" height="50" 
                        fill="white" stroke="black" stroke-width="2"/>
    <circle cx="45.0" cy="245.0" r="25.0"
                        fill="white" stroke="black" stroke-width="2"/>
    <circle cx="100.0" cy="245.0" r="25.0"
                        fill="black" stroke="black" stroke-width="2"/>
    <circle cx="155.0" cy="245.0" r="25.0"
                        fill="white" stroke="black" stroke-width="2"/>
    <rect x="185" y="220" 
                        width="50" height="50" 
                        fill="white" stroke="black" stroke-width="2"/>
    <polygon points="265.0,220 240,270 290,270"
                        fill="black" stroke="black" stroke-width="2"/>
    <rect x="295" y="220" 
                        width="50" height="50" 
                        fill="white" stroke="black" stroke-width="2"/>
    <rect x="20" y="275" 
                        width="50" height="50" 
                        fill="black" stroke="black" stroke-width="2"/>
    <polygon points="100.0,275 75,325 125,325"
                        fill="white" stroke="black" stroke-width="2"/>
    <polygon points="155.0,275 130,325 180,325"
                        fill="black" stroke="black" stroke-width="2"/>
    <rect x="185" y="275" 
                        width="50" height="50" 
                        fill="black" stroke="black" stroke-width="2"/>
    <polygon points="265.0,275 240,325 290,325"
                        fill="white" stroke="black" stroke-width="2"/>
    <polygon points="320.0,275 295,325 345,325"
                        fill="white" stroke="black" stroke-width="2"/>
    <polygon points="45.0,330 20,380 70,380"
                        fill="black" stroke="black" stroke-width="2"/>
    <polygon points="100.0,330 75,380 125,380"
                        fill="black" stroke="black" stroke-width="2"/>
    <rect x="130" y="330" 
                        width="50" height="50" 
                        fill="white" stroke="black" stroke-width="2"/>
    <polygon points="210.0,330 185,380 235,380"
                        fill="white" stroke="black" stroke-width="2"/>
    <circle cx="265.0" cy="355.0" r="25.0"
                        fill="white" stroke="black" stroke-width="2"/>
    <polygon points="320.0,330 295,380 345,380"
                        fill="white" stroke="black" stroke-width="2"/>
    <circle cx="45.0" cy="410.0" r="25.0"
                        fill="black" stroke="black" stroke-width="2"/>
    <circle cx="100.0" cy="410.0" r="25.0"
                        fill="white" stroke="black" stroke-width="2"/>
    <circle cx="155.0" cy="410.0" r="25.0"
                        fill="white" stroke="black" stroke-width="2"/>
    <rect x="185" y="385" 
                        width="50" height="50" 
                        fill="black" stroke="black" stroke-width="2"/>
    <circle cx="265.0" cy="410.0" r="25.0"
                        fill="black" stroke="black" stroke-width="2"/>
    <polygon points="320.0,385 295,435 345,435"
                        fill="black" stroke="black" stroke-width="2"/>
    <polygon points="45.0,440 20,490 70,490"
                        fill="white" stroke="black" stroke-width="2"/>
    <rect x="75" y="440" 
                        width="50" height="50" 
                        fill="black" stroke="black" stroke-width="2"/>
    <circle cx="155.0" cy="465.0" r="25.0"
                        fill="black" stroke="black" stroke-width="2"/>
    <rect x="185" y="440" 
                        width="50" height="50" 
                        fill="white" stroke="black" stroke-width="2"/>
    <polygon points="265.0,440 240,490 290,490"
                        fill="black" stroke="black" stroke-width="2"/>
    <rect x="295" y="440" 
                        width="50" height="50" 
                        fill="white" stroke="black" stroke-width="2"/>
    <rect x="400" y="0" 
            width="330" height="495" 
            fill="none" stroke="black" stroke-width="3"/>
    <polygon points="425.0,0 400,50 450,50"
                        fill="black" stroke="black" stroke-width="2"/>
    <circle cx="480.0" cy="25.0" r="25.0"
                        fill="black" stroke="black" stroke-width="2"/>
    <polygon points="535.0,0 510,50 560,50"
                        fill="black" stroke="black" stroke-width="2"/>
    <rect x="565" y="0" 
                        width="50" height="50" 
                        fill="black" stroke="black" stroke-width="2"/>
    <polygon points="645.0,0 620,50 670,50"
                        fill="white" stroke="black" stroke-width="2"/>
    <rect x="675" y="0" 
                        width="50" height="50" 
                        fill="black" stroke="black" stroke-width="2"/>
    <circle cx="425.0" cy="80.0" r="25.0"
                        fill="black" stroke="black" stroke-width="2"/>
    <polygon points="480.0,55 455,105 505,105"
                        fill="black" stroke="black" stroke-width="2"/>
    <circle cx="535.0" cy="80.0" r="25.0"
                        fill="black" stroke="black" stroke-width="2"/>
    <polygon points="590.0,55 565,105 615,105"
                        fill="white" stroke="black" stroke-width="2"/>
    <rect x="620" y="55" 
                        width="50" height="50" 
                        fill="black" stroke="black" stroke-width="2"/>
    <circle cx="700.0" cy="80.0" r="25.0"
                        fill="black" stroke="black" stroke-width="2"/>
    <rect x="400" y="110" 
                        width="50" height="50" 
                        fill="white" stroke="black" stroke-width="2"/>
    <circle cx="480.0" cy="135.0" r="25.0"
                        fill="white" stroke="black" stroke-width="2"/>
    <polygon points="535.0,110 510,160 560,160"
                        fill="black" stroke="black" stroke-width="2"/>
    <circle cx="590.0" cy="135.0" r="25.0"
                        fill="white" stroke="black" stroke-width="2"/>
    <circle cx="645.0" cy="135.0" r="25.0"
                        fill="black" stroke="black" stroke-width="2"/>
    <circle cx="700.0" cy="135.0" r="25.0"
                        fill="black" stroke="black" stroke-width="2"/>
    <rect x="400" y="165" 
                        width="50" height="50" 
                        fill="white" stroke="black" stroke-width="2"/>
    <circle cx="480.0" cy="190.0" r="25.0"
                        fill="white" stroke="black" stroke-width="2"/>
    <rect x="510" y="165" 
                        width="50" height="50" 
                        fill="white" stroke="black" stroke-width="2"/>
    <rect x="565" y="165" 
                        width="50" height="50" 
                        fill="black" stroke="black" stroke-width="2"/>
    <polygon points="645.0,165 620,215 670,215"
                        fill="white" stroke="black" stroke-width="2"/>
    <circle cx="700.0" cy="190.0" r="25.0"
                        fill="white" stroke="black" stroke-width="2"/>
    <rect x="400" y="220" 
                        width="50" height="50" 
                        fill="black" stroke="black" stroke-width="2"/>
    <circle cx="480.0" cy="245.0" r="25.0"
                        fill="black" stroke="black" stroke-width="2"/>
    <circle cx="535.0" cy="245.0" r="25.0"
                        fill="black" stroke="black" stroke-width="2"/>
    <rect x="565" y="220" 
                        width="50" height="50" 
                        fill="black" stroke="black" stroke-width="2"/>
    <circle cx="645.0" cy="245.0" r="25.0"
                        fill="black" stroke="black" stroke-width="2"/>
    <circle cx="700.0" cy="245.0" r="25.0"
                        fill="black" stroke="black" stroke-width="2"/>
    <polygon points="425.0,275 400,325 450,325"
                        fill="white" stroke="black" stroke-width="2"/>
    <polygon points="480.0,275 455,325 505,325"
                        fill="black" stroke="black" stroke-width="2"/>
    <polygon points="535.0,275 510,325 560,325"
                        fill="black" stroke="black" stroke-width="2"/>
    <circle cx="590.0" cy="300.0" r="25.0"
                        fill="black" stroke="black" stroke-width="2"/>
    <rect x="620" y="275" 
                        width="50" height="50" 
                        fill="white" stroke="black" stroke-width="2"/>
    <circle cx="700.0" cy="300.0" r="25.0"
                        fill="white" stroke="black" stroke-width="2"/>
    <rect x="400" y="330" 
                        width="50" height="50" 
                        fill="white" stroke="black" stroke-width="2"/>
    <rect x="455" y="330" 
                        width="50" height="50" 
                        fill="white" stroke="black" stroke-width="2"/>
    <rect x="510" y="330" 
                        width="50" height="50" 
                        fill="white" stroke="black" stroke-width="2"/>
    <polygon points="590.0,330 565,380 615,380"
                        fill="black" stroke="black" stroke-width="2"/>
    <rect x="620" y="330" 
                        width="50" height="50" 
                        fill="white" stroke="black" stroke-width="2"/>
    <circle cx="700.0" cy="355.0" r="25.0"
                        fill="black" stroke="black" stroke-width="2"/>
    <rect x="400" y="385" 
                        width="50" height="50" 
                        fill="black" stroke="black" stroke-width="2"/>
    <polygon points="480.0,385 455,435 505,435"
                        fill="white" stroke="black" stroke-width="2"/>
    <polygon points="535.0,385 510,435 560,435"
                        fill="white" stroke="black" stroke-width="2"/>
    <circle cx="590.0" cy="410.0" r="25.0"
                        fill="black" stroke="black" stroke-width="2"/>
    <circle cx="645.0" cy="410.0" r="25.0"
                        fill="white" stroke="black" stroke-width="2"/>
    <polygon points="700.0,385 675,435 725,435"
                        fill="white" stroke="black" stroke-width="2"/>
    <rect x="400" y="440" 
                        width="50" height="50" 
                        fill="white" stroke="black" stroke-width="2"/>
    <rect x="455" y="440" 
                        width="50" height="50" 
                        fill="white" stroke="black" stroke-width="2"/>
    <rect x="510" y="440" 
                        width="50" height="50" 
                        fill="black" stroke="black" stroke-width="2"/>
    <polygon points="590.0,440 565,490 615,490"
                        fill="black" stroke="black" stroke-width="2"/>
    <polygon points="645.0,440 620,490 670,490"
                        fill="black" stroke="black" stroke-width="2"/>
    <rect x="675" y="440" 
                        width="50" height="50" 
                        fill="white" stroke="black" stroke-width="2"/>
    <rect x="780" y="0" 
            width="330" height="495" 
            fill="none" stroke="black" stroke-width="3"/>
    <rect x="780" y="0" 
                        width="50" height="50" 
                        fill="white" stroke="black" stroke-width="2"/>
    <rect x="835" y="0" 
                        width="50" height="50" 
                        fill="white" stroke="black" stroke-width="2"/>
    <circle cx="915.0" cy="25.0" r="25.0"
                        fill="black" stroke="black" stroke-width="2"/>
    <rect x="945" y="0" 
                        width="50" height="50" 
                        fill="black" stroke="black" stroke-width="2"/>
    <rect x="1000" y="0" 
                        width="50" height="50" 
                        fill="black" stroke="black" stroke-width="2"/>
    <rect x="1055" y="0" 
                        width="50" height="50" 
                        fill="white" stroke="black" stroke-width="2"/>
    <polygon points="805.0,55 780,105 830,105"
                        fill="black" stroke="black" stroke-width="2"/>
    <circle cx="860.0" cy="80.0" r="25.0"
                        fill="black" stroke="black" stroke-width="2"/>
    <polygon points="915.0,55 890,105 940,105"
                        fill="white" stroke="black" stroke-width="2"/>
    <circle cx="970.0" cy="80.0" r="25.0"
                        fill="black" stroke="black" stroke-width="2"/>
    <circle cx="1025.0" cy="80.0" r="25.0"
                        fill="white" stroke="black" stroke-width="2"/>
    <circle cx="1080.0" cy="80.0" r="25.0"
                        fill="black" stroke="black" stroke-width="2"/>
    <rect x="780" y="110" 
                        width="50" height="50" 
                        fill="white" stroke="black" stroke-width="2"/>
    <circle cx="860.0" cy="135.0" r="25.0"
                        fill="black" stroke="black" stroke-width="2"/>
    <circle cx="915.0" cy="135.0" r="25.0"
                        fill="black" stroke="black" stroke-width="2"/>
    <rect x="945" y="110" 
                        width="50" height="50" 
                        fill="white" stroke="black" stroke-width="2"/>
    <circle cx="1025.0" cy="135.0" r="25.0"
                        fill="black" stroke="black" stroke-width="2"/>
    <polygon points="1080.0,110 1055,160 1105,160"
                        fill="black" stroke="black" stroke-width="2"/>
    <polygon points="805.0,165 780,215 830,215"
                        fill="white" stroke="black" stroke-width="2"/>
    <polygon points="860.0,165 835,215 885,215"
                        fill="white" stroke="black" stroke-width="2"/>
    <rect x="890" y="165" 
                        width="50" height="50" 
                        fill="white" stroke="black" stroke-width="2"/>
    <circle cx="970.0" cy="190.0" r="25.0"
                        fill="black" stroke="black" stroke-width="2"/>
    <polygon points="1025.0,165 1000,215 1050,215"
                        fill="black" stroke="black" stroke-width="2"/>
    <rect x="1055" y="165" 
                        width="50" height="50" 
                        fill="black" stroke="black" stroke-width="2"/>
    <circle cx="805.0" cy="245.0" r="25.0"
                        fill="black" stroke="black" stroke-width="2"/>
    <circle cx="860.0" cy="245.0" r="25.0"
                        fill="white" stroke="black" stroke-width="2"/>
    <polygon points="915.0,220 890,270 940,270"
                        fill="black" stroke="black" stroke-width="2"/>
    <rect x="945" y="220" 
                        width="50" height="50" 
                        fill="white" stroke="black" stroke-width="2"/>
    <polygon points="1025.0,220 1000,270 1050,270"
                        fill="black" stroke="black" stroke-width="2"/>
    <polygon points="1080.0,220 1055,270 1105,270"
                        fill="white" stroke="black" stroke-width="2"/>
    <polygon points="805.0,275 780,325 830,325"
                        fill="white" stroke="black" stroke-width="2"/>
    <rect x="835" y="275" 
                        width="50" height="50" 
                        fill="black" stroke="black" stroke-width="2"/>
    <polygon points="915.0,275 890,325 940,325"
                        fill="white" stroke="black" stroke-width="2"/>
    <circle cx="970.0" cy="300.0" r="25.0"
                        fill="white" stroke="black" stroke-width="2"/>
    <circle cx="1025.0" cy="300.0" r="25.0"
                        fill="black" stroke="black" stroke-width="2"/>
    <rect x="1055" y="275" 
                        width="50" height="50" 
                        fill="black" stroke="black" stroke-width="2"/>
    <polygon points="805.0,330 780,380 830,380"
                        fill="black" stroke="black" stroke-width="2"/>
    <circle cx="860.0" cy="355.0" r="25.0"
                        fill="black" stroke="black" stroke-width="2"/>
    <circle cx="915.0" cy="355.0" r="25.0"
                        fill="white" stroke="black" stroke-width="2"/>
    <rect x="945" y="330" 
                        width="50" height="50" 
                        fill="white" stroke="black" stroke-width="2"/>
    <polygon points="1025.0,330 1000,380 1050,380"
                        fill="white" stroke="black" stroke-width="2"/>
    <circle cx="1080.0" cy="355.0" r="25.0"
                        fill="white" stroke="black" stroke-width="2"/>
    <polygon points="805.0,385 780,435 830,435"
                        fill="white" stroke="black" stroke-width="2"/>
    <polygon points="860.0,385 835,435 885,435"
                        fill="white" stroke="black" stroke-width="2"/>
    <polygon points="915.0,385 890,435 940,435"
                        fill="white" stroke="black" stroke-width="2"/>
    <polygon points="970.0,385 945,435 995,435"
                        fill="black" stroke="black" stroke-width="2"/>
    <circle cx="1025.0" cy="410.0" r="25.0"
                        fill="black" stroke="black" stroke-width="2"/>
    <polygon points="1080.0,385 1055,435 1105,435"
                        fill="white" stroke="black" stroke-width="2"/>
    <polygon points="805.0,440 780,490 830,490"
                        fill="black" stroke="black" stroke-width="2"/>
    <rect x="835" y="440" 
                        width="50" height="50" 
                        fill="black" stroke="black" stroke-width="2"/>
    <polygon points="915.0,440 890,490 940,490"
                        fill="white" stroke="black" stroke-width="2"/>
    <rect x="945" y="440" 
                        width="50" height="50" 
                        fill="black" stroke="black" stroke-width="2"/>
    <circle cx="1025.0" cy="465.0" r="25.0"
                        fill="white" stroke="black" stroke-width="2"/>
    <rect x="1055" y="440" 
                        width="50" height="50" 
                        fill="white" stroke="black" stroke-width="2"/>
</svg>