<?xml version="1.0" encoding="UTF-8" standalone="no"?>
<svg width="1890" height="495" xmlns="http://www.w3.org/2000/svg">
    <!-- White background -->
    <rect width="1890" height="495" fill="white"/>
    <rect x="20" y="0" 
            width="330" height="495" 
            fill="none" stroke="black" stroke-width="3"/>
    <circle cx="45.0" cy="25.0" r="25.0"
                        fill="white" stroke="black" stroke-width="2"/>
    <circle cx="100.0" cy="25.0" r="25.0"
                        fill="white" stroke="black" stroke-width="2"/>
    <rect x="130" y="0" 
                        width="50" height="50" 
                        fill="black" stroke="black" stroke-width="2"/>
    <rect x="185" y="0" 
                        width="50" height="50" 
                        fill="white" stroke="black" stroke-width="2"/>
    <polygon points="265.0,0 240,50 290,50"
                        fill="white" stroke="black" stroke-width="2"/>
    <circle cx="320.0" cy="25.0" r="25.0"
                        fill="white" stroke="black" stroke-width="2"/>
    <circle cx="45.0" cy="80.0" r="25.0"
                        fill="white" stroke="black" stroke-width="2"/>
    <rect x="75" y="55" 
                        width="50" height="50" 
                        fill="black" stroke="black" stroke-width="2"/>
    <rect x="130" y="55" 
                        width="50" height="50" 
                        fill="white" stroke="black" stroke-width="2"/>
    <rect x="185" y="55" 
                        width="50" height="50" 
                        fill="white" stroke="black" stroke-width="2"/>
    <polygon points="265.0,55 240,105 290,105"
                        fill="black" stroke="black" stroke-width="2"/>
    <rect x="295" y="55" 
                        width="50" height="50" 
                        fill="white" stroke="black" stroke-width="2"/>
    <polygon points="45.0,110 20,160 70,160"
                        fill="white" stroke="black" stroke-width="2"/>
    <rect x="75" y="110" 
                        width="50" height="50" 
                        fill="black" stroke="black" stroke-width="2"/>
    <polygon points="155.0,110 130,160 180,160"
                        fill="black" stroke="black" stroke-width="2"/>
    <polygon points="210.0,110 185,160 235,160"
                        fill="black" stroke="black" stroke-width="2"/>
    <circle cx="265.0" cy="135.0" r="25.0"
                        fill="white" stroke="black" stroke-width="2"/>
    <circle cx="320.0" cy="135.0" r="25.0"
                        fill="white" stroke="black" stroke-width="2"/>
    <rect x="20" y="165" 
                        width="50" height="50" 
                        fill="black" stroke="black" stroke-width="2"/>
    <polygon points="100.0,165 75,215 125,215"
                        fill="black" stroke="black" stroke-width="2"/>
    <rect x="130" y="165" 
                        width="50" height="50" 
                        fill="black" stroke="black" stroke-width="2"/>
    <rect x="185" y="165" 
                        width="50" height="50" 
                        fill="white" stroke="black" stroke-width="2"/>
    <circle cx="265.0" cy="190.0" r="25.0"
                        fill="black" stroke="black" stroke-width="2"/>
    <rect x="295" y="165" 
                        width="50" height="50" 
                        fill="black" stroke="black" stroke-width="2"/>
    <circle cx="45.0" cy="245.0" r="25.0"
                        fill="white" stroke="black" stroke-width="2"/>
    <circle cx="100.0" cy="245.0" r="25.0"
                        fill="white" stroke="black" stroke-width="2"/>
    <circle cx="155.0" cy="245.0" r="25.0"
                        fill="black" stroke="black" stroke-width="2"/>
    <rect x="185" y="220" 
                        width="50" height="50" 
                        fill="white" stroke="black" stroke-width="2"/>
    <circle cx="265.0" cy="245.0" r="25.0"
                        fill="black" stroke="black" stroke-width="2"/>
    <circle cx="320.0" cy="245.0" r="25.0"
                        fill="black" stroke="black" stroke-width="2"/>
    <polygon points="45.0,275 20,325 70,325"
                        fill="black" stroke="black" stroke-width="2"/>
    <rect x="75" y="275" 
                        width="50" height="50" 
                        fill="white" stroke="black" stroke-width="2"/>
    <rect x="130" y="275" 
                        width="50" height="50" 
                        fill="black" stroke="black" stroke-width="2"/>
    <circle cx="210.0" cy="300.0" r="25.0"
                        fill="black" stroke="black" stroke-width="2"/>
    <polygon points="265.0,275 240,325 290,325"
                        fill="white" stroke="black" stroke-width="2"/>
    <polygon points="320.0,275 295,325 345,325"
                        fill="white" stroke="black" stroke-width="2"/>
    <polygon points="45.0,330 20,380 70,380"
                        fill="white" stroke="black" stroke-width="2"/>
    <polygon points="100.0,330 75,380 125,380"
                        fill="black" stroke="black" stroke-width="2"/>
    <rect x="130" y="330" 
                        width="50" height="50" 
                        fill="white" stroke="black" stroke-width="2"/>
    <circle cx="210.0" cy="355.0" r="25.0"
                        fill="black" stroke="black" stroke-width="2"/>
    <circle cx="265.0" cy="355.0" r="25.0"
                        fill="white" stroke="black" stroke-width="2"/>
    <rect x="295" y="330" 
                        width="50" height="50" 
                        fill="white" stroke="black" stroke-width="2"/>
    <rect x="20" y="385" 
                        width="50" height="50" 
                        fill="black" stroke="black" stroke-width="2"/>
    <circle cx="100.0" cy="410.0" r="25.0"
                        fill="black" stroke="black" stroke-width="2"/>
    <polygon points="155.0,385 130,435 180,435"
                        fill="black" stroke="black" stroke-width="2"/>
    <circle cx="210.0" cy="410.0" r="25.0"
                        fill="black" stroke="black" stroke-width="2"/>
    <circle cx="265.0" cy="410.0" r="25.0"
                        fill="black" stroke="black" stroke-width="2"/>
    <circle cx="320.0" cy="410.0" r="25.0"
                        fill="black" stroke="black" stroke-width="2"/>
    <circle cx="45.0" cy="465.0" r="25.0"
                        fill="white" stroke="black" stroke-width="2"/>
    <rect x="75" y="440" 
                        width="50" height="50" 
                        fill="white" stroke="black" stroke-width="2"/>
    <polygon points="155.0,440 130,490 180,490"
                        fill="black" stroke="black" stroke-width="2"/>
    <polygon points="210.0,440 185,490 235,490"
                        fill="white" stroke="black" stroke-width="2"/>
    <circle cx="265.0" cy="465.0" r="25.0"
                        fill="white" stroke="black" stroke-width="2"/>
    <circle cx="320.0" cy="465.0" r="25.0"
                        fill="white" stroke="black" stroke-width="2"/>
    <rect x="400" y="0" 
            width="330" height="495" 
            fill="none" stroke="black" stroke-width="3"/>
    <rect x="400" y="0" 
                        width="50" height="50" 
                        fill="white" stroke="black" stroke-width="2"/>
    <circle cx="480.0" cy="25.0" r="25.0"
                        fill="black" stroke="black" stroke-width="2"/>
    <rect x="510" y="0" 
                        width="50" height="50" 
                        fill="white" stroke="black" stroke-width="2"/>
    <polygon points="590.0,0 565,50 615,50"
                        fill="white" stroke="black" stroke-width="2"/>
    <circle cx="645.0" cy="25.0" r="25.0"
                        fill="white" stroke="black" stroke-width="2"/>
    <polygon points="700.0,0 675,50 725,50"
                        fill="black" stroke="black" stroke-width="2"/>
    <polygon points="425.0,55 400,105 450,105"
                        fill="white" stroke="black" stroke-width="2"/>
    <circle cx="480.0" cy="80.0" r="25.0"
                        fill="black" stroke="black" stroke-width="2"/>
    <rect x="510" y="55" 
                        width="50" height="50" 
                        fill="white" stroke="black" stroke-width="2"/>
    <circle cx="590.0" cy="80.0" r="25.0"
                        fill="black" stroke="black" stroke-width="2"/>
    <polygon points="645.0,55 620,105 670,105"
                        fill="white" stroke="black" stroke-width="2"/>
    <rect x="675" y="55" 
                        width="50" height="50" 
                        fill="white" stroke="black" stroke-width="2"/>
    <circle cx="425.0" cy="135.0" r="25.0"
                        fill="black" stroke="black" stroke-width="2"/>
    <circle cx="480.0" cy="135.0" r="25.0"
                        fill="black" stroke="black" stroke-width="2"/>
    <circle cx="535.0" cy="135.0" r="25.0"
                        fill="white" stroke="black" stroke-width="2"/>
    <polygon points="590.0,110 565,160 615,160"
                        fill="white" stroke="black" stroke-width="2"/>
    <rect x="620" y="110" 
                        width="50" height="50" 
                        fill="black" stroke="black" stroke-width="2"/>
    <rect x="675" y="110" 
                        width="50" height="50" 
                        fill="white" stroke="black" stroke-width="2"/>
    <rect x="400" y="165" 
                        width="50" height="50" 
                        fill="white" stroke="black" stroke-width="2"/>
    <circle cx="480.0" cy="190.0" r="25.0"
                        fill="white" stroke="black" stroke-width="2"/>
    <rect x="510" y="165" 
                        width="50" height="50" 
                        fill="white" stroke="black" stroke-width="2"/>
    <circle cx="590.0" cy="190.0" r="25.0"
                        fill="black" stroke="black" stroke-width="2"/>
    <polygon points="645.0,165 620,215 670,215"
                        fill="white" stroke="black" stroke-width="2"/>
    <polygon points="700.0,165 675,215 725,215"
                        fill="white" stroke="black" stroke-width="2"/>
    <circle cx="425.0" cy="245.0" r="25.0"
                        fill="white" stroke="black" stroke-width="2"/>
    <rect x="455" y="220" 
                        width="50" height="50" 
                        fill="white" stroke="black" stroke-width="2"/>
    <polygon points="535.0,220 510,270 560,270"
                        fill="white" stroke="black" stroke-width="2"/>
    <rect x="565" y="220" 
                        width="50" height="50" 
                        fill="white" stroke="black" stroke-width="2"/>
    <rect x="620" y="220" 
                        width="50" height="50" 
                        fill="white" stroke="black" stroke-width="2"/>
    <polygon points="700.0,220 675,270 725,270"
                        fill="white" stroke="black" stroke-width="2"/>
    <polygon points="425.0,275 400,325 450,325"
                        fill="white" stroke="black" stroke-width="2"/>
    <polygon points="480.0,275 455,325 505,325"
                        fill="white" stroke="black" stroke-width="2"/>
    <polygon points="535.0,275 510,325 560,325"
                        fill="black" stroke="black" stroke-width="2"/>
    <polygon points="590.0,275 565,325 615,325"
                        fill="white" stroke="black" stroke-width="2"/>
    <circle cx="645.0" cy="300.0" r="25.0"
                        fill="black" stroke="black" stroke-width="2"/>
    <circle cx="700.0" cy="300.0" r="25.0"
                        fill="white" stroke="black" stroke-width="2"/>
    <polygon points="425.0,330 400,380 450,380"
                        fill="black" stroke="black" stroke-width="2"/>
    <polygon points="480.0,330 455,380 505,380"
                        fill="white" stroke="black" stroke-width="2"/>
    <polygon points="535.0,330 510,380 560,380"
                        fill="white" stroke="black" stroke-width="2"/>
    <rect x="565" y="330" 
                        width="50" height="50" 
                        fill="white" stroke="black" stroke-width="2"/>
    <rect x="620" y="330" 
                        width="50" height="50" 
                        fill="white" stroke="black" stroke-width="2"/>
    <rect x="675" y="330" 
                        width="50" height="50" 
                        fill="black" stroke="black" stroke-width="2"/>
    <circle cx="425.0" cy="410.0" r="25.0"
                        fill="black" stroke="black" stroke-width="2"/>
    <rect x="455" y="385" 
                        width="50" height="50" 
                        fill="white" stroke="black" stroke-width="2"/>
    <polygon points="535.0,385 510,435 560,435"
                        fill="white" stroke="black" stroke-width="2"/>
    <rect x="565" y="385" 
                        width="50" height="50" 
                        fill="white" stroke="black" stroke-width="2"/>
    <circle cx="645.0" cy="410.0" r="25.0"
                        fill="white" stroke="black" stroke-width="2"/>
    <polygon points="700.0,385 675,435 725,435"
                        fill="black" stroke="black" stroke-width="2"/>
    <rect x="400" y="440" 
                        width="50" height="50" 
                        fill="white" stroke="black" stroke-width="2"/>
    <rect x="455" y="440" 
                        width="50" height="50" 
                        fill="black" stroke="black" stroke-width="2"/>
    <rect x="510" y="440" 
                        width="50" height="50" 
                        fill="white" stroke="black" stroke-width="2"/>
    <rect x="565" y="440" 
                        width="50" height="50" 
                        fill="black" stroke="black" stroke-width="2"/>
    <circle cx="645.0" cy="465.0" r="25.0"
                        fill="white" stroke="black" stroke-width="2"/>
    <rect x="675" y="440" 
                        width="50" height="50" 
                        fill="black" stroke="black" stroke-width="2"/>
    <rect x="780" y="0" 
            width="330" height="495" 
            fill="none" stroke="black" stroke-width="3"/>
    <circle cx="805.0" cy="25.0" r="25.0"
                        fill="black" stroke="black" stroke-width="2"/>
    <circle cx="860.0" cy="25.0" r="25.0"
                        fill="white" stroke="black" stroke-width="2"/>
    <circle cx="915.0" cy="25.0" r="25.0"
                        fill="black" stroke="black" stroke-width="2"/>
    <polygon points="970.0,0 945,50 995,50"
                        fill="black" stroke="black" stroke-width="2"/>
    <circle cx="1025.0" cy="25.0" r="25.0"
                        fill="white" stroke="black" stroke-width="2"/>
    <circle cx="1080.0" cy="25.0" r="25.0"
                        fill="black" stroke="black" stroke-width="2"/>
    <rect x="780" y="55" 
                        width="50" height="50" 
                        fill="black" stroke="black" stroke-width="2"/>
    <polygon points="860.0,55 835,105 885,105"
                        fill="black" stroke="black" stroke-width="2"/>
    <polygon points="915.0,55 890,105 940,105"
                        fill="white" stroke="black" stroke-width="2"/>
    <rect x="945" y="55" 
                        width="50" height="50" 
                        fill="white" stroke="black" stroke-width="2"/>
    <polygon points="1025.0,55 1000,105 1050,105"
                        fill="white" stroke="black" stroke-width="2"/>
    <rect x="1055" y="55" 
                        width="50" height="50" 
                        fill="white" stroke="black" stroke-width="2"/>
    <rect x="780" y="110" 
                        width="50" height="50" 
                        fill="black" stroke="black" stroke-width="2"/>
    <rect x="835" y="110" 
                        width="50" height="50" 
                        fill="white" stroke="black" stroke-width="2"/>
    <polygon points="915.0,110 890,160 940,160"
                        fill="white" stroke="black" stroke-width="2"/>
    <polygon points="970.0,110 945,160 995,160"
                        fill="black" stroke="black" stroke-width="2"/>
    <circle cx="1025.0" cy="135.0" r="25.0"
                        fill="white" stroke="black" stroke-width="2"/>
    <polygon points="1080.0,110 1055,160 1105,160"
                        fill="black" stroke="black" stroke-width="2"/>
    <circle cx="805.0" cy="190.0" r="25.0"
                        fill="white" stroke="black" stroke-width="2"/>
    <polygon points="860.0,165 835,215 885,215"
                        fill="white" stroke="black" stroke-width="2"/>
    <circle cx="915.0" cy="190.0" r="25.0"
                        fill="black" stroke="black" stroke-width="2"/>
    <rect x="945" y="165" 
                        width="50" height="50" 
                        fill="white" stroke="black" stroke-width="2"/>
    <polygon points="1025.0,165 1000,215 1050,215"
                        fill="white" stroke="black" stroke-width="2"/>
    <circle cx="1080.0" cy="190.0" r="25.0"
                        fill="black" stroke="black" stroke-width="2"/>
    <polygon points="805.0,220 780,270 830,270"
                        fill="white" stroke="black" stroke-width="2"/>
    <rect x="835" y="220" 
                        width="50" height="50" 
                        fill="white" stroke="black" stroke-width="2"/>
    <circle cx="915.0" cy="245.0" r="25.0"
                        fill="white" stroke="black" stroke-width="2"/>
    <polygon points="970.0,220 945,270 995,270"
                        fill="white" stroke="black" stroke-width="2"/>
    <circle cx="1025.0" cy="245.0" r="25.0"
                        fill="black" stroke="black" stroke-width="2"/>
    <polygon points="1080.0,220 1055,270 1105,270"
                        fill="white" stroke="black" stroke-width="2"/>
    <circle cx="805.0" cy="300.0" r="25.0"
                        fill="black" stroke="black" stroke-width="2"/>
    <rect x="835" y="275" 
                        width="50" height="50" 
                        fill="white" stroke="black" stroke-width="2"/>
    <polygon points="915.0,275 890,325 940,325"
                        fill="white" stroke="black" stroke-width="2"/>
    <polygon points="970.0,275 945,325 995,325"
                        fill="black" stroke="black" stroke-width="2"/>
    <polygon points="1025.0,275 1000,325 1050,325"
                        fill="black" stroke="black" stroke-width="2"/>
    <rect x="1055" y="275" 
                        width="50" height="50" 
                        fill="white" stroke="black" stroke-width="2"/>
    <rect x="780" y="330" 
                        width="50" height="50" 
                        fill="white" stroke="black" stroke-width="2"/>
    <polygon points="860.0,330 835,380 885,380"
                        fill="white" stroke="black" stroke-width="2"/>
    <rect x="890" y="330" 
                        width="50" height="50" 
                        fill="white" stroke="black" stroke-width="2"/>
    <polygon points="970.0,330 945,380 995,380"
                        fill="white" stroke="black" stroke-width="2"/>
    <circle cx="1025.0" cy="355.0" r="25.0"
                        fill="white" stroke="black" stroke-width="2"/>
    <rect x="1055" y="330" 
                        width="50" height="50" 
                        fill="black" stroke="black" stroke-width="2"/>
    <rect x="780" y="385" 
                        width="50" height="50" 
                        fill="black" stroke="black" stroke-width="2"/>
    <rect x="835" y="385" 
                        width="50" height="50" 
                        fill="white" stroke="black" stroke-width="2"/>
    <rect x="890" y="385" 
                        width="50" height="50" 
                        fill="black" stroke="black" stroke-width="2"/>
    <rect x="945" y="385" 
                        width="50" height="50" 
                        fill="black" stroke="black" stroke-width="2"/>
    <rect x="1000" y="385" 
                        width="50" height="50" 
                        fill="white" stroke="black" stroke-width="2"/>
    <circle cx="1080.0" cy="410.0" r="25.0"
                        fill="black" stroke="black" stroke-width="2"/>
    <polygon points="805.0,440 780,490 830,490"
                        fill="white" stroke="black" stroke-width="2"/>
    <circle cx="860.0" cy="465.0" r="25.0"
                        fill="white" stroke="black" stroke-width="2"/>
    <rect x="890" y="440" 
                        width="50" height="50" 
                        fill="black" stroke="black" stroke-width="2"/>
    <circle cx="970.0" cy="465.0" r="25.0"
                        fill="white" stroke="black" stroke-width="2"/>
    <circle cx="1025.0" cy="465.0" r="25.0"
                        fill="white" stroke="black" stroke-width="2"/>
    <circle cx="1080.0" cy="465.0" r="25.0"
                        fill="white" stroke="black" stroke-width="2"/>
    <rect x="1160" y="0" 
            width="330" height="495" 
            fill="none" stroke="black" stroke-width="3"/>
    <circle cx="1185.0" cy="25.0" r="25.0"
                        fill="black" stroke="black" stroke-width="2"/>
    <polygon points="1240.0,0 1215,50 1265,50"
                        fill="black" stroke="black" stroke-width="2"/>
    <circle cx="1295.0" cy="25.0" r="25.0"
                        fill="black" stroke="black" stroke-width="2"/>
    <polygon points="1350.0,0 1325,50 1375,50"
                        fill="white" stroke="black" stroke-width="2"/>
    <polygon points="1405.0,0 1380,50 1430,50"
                        fill="white" stroke="black" stroke-width="2"/>
    <rect x="1435" y="0" 
                        width="50" height="50" 
                        fill="black" stroke="black" stroke-width="2"/>
    <rect x="1160" y="55" 
                        width="50" height="50" 
                        fill="white" stroke="black" stroke-width="2"/>
    <circle cx="1240.0" cy="80.0" r="25.0"
                        fill="black" stroke="black" stroke-width="2"/>
    <rect x="1270" y="55" 
                        width="50" height="50" 
                        fill="black" stroke="black" stroke-width="2"/>
    <polygon points="1350.0,55 1325,105 1375,105"
                        fill="white" stroke="black" stroke-width="2"/>
    <circle cx="1405.0" cy="80.0" r="25.0"
                        fill="white" stroke="black" stroke-width="2"/>
    <polygon points="1460.0,55 1435,105 1485,105"
                        fill="black" stroke="black" stroke-width="2"/>
    <rect x="1160" y="110" 
                        width="50" height="50" 
                        fill="white" stroke="black" stroke-width="2"/>
    <circle cx="1240.0" cy="135.0" r="25.0"
                        fill="white" stroke="black" stroke-width="2"/>
    <rect x="1270" y="110" 
                        width="50" height="50" 
                        fill="white" stroke="black" stroke-width="2"/>
    <circle cx="1350.0" cy="135.0" r="25.0"
                        fill="black" stroke="black" stroke-width="2"/>
    <polygon points="1405.0,110 1380,160 1430,160"
                        fill="white" stroke="black" stroke-width="2"/>
    <circle cx="1460.0" cy="135.0" r="25.0"
                        fill="white" stroke="black" stroke-width="2"/>
    <circle cx="1185.0" cy="190.0" r="25.0"
                        fill="white" stroke="black" stroke-width="2"/>
    <polygon points="1240.0,165 1215,215 1265,215"
                        fill="black" stroke="black" stroke-width="2"/>
    <rect x="1270" y="165" 
                        width="50" height="50" 
                        fill="black" stroke="black" stroke-width="2"/>
    <circle cx="1350.0" cy="190.0" r="25.0"
                        fill="white" stroke="black" stroke-width="2"/>
    <circle cx="1405.0" cy="190.0" r="25.0"
                        fill="black" stroke="black" stroke-width="2"/>
    <circle cx="1460.0" cy="190.0" r="25.0"
                        fill="black" stroke="black" stroke-width="2"/>
    <rect x="1160" y="220" 
                        width="50" height="50" 
                        fill="white" stroke="black" stroke-width="2"/>
    <rect x="1215" y="220" 
                        width="50" height="50" 
                        fill="black" stroke="black" stroke-width="2"/>
    <rect x="1270" y="220" 
                        width="50" height="50" 
                        fill="white" stroke="black" stroke-width="2"/>
    <polygon points="1350.0,220 1325,270 1375,270"
                        fill="black" stroke="black" stroke-width="2"/>
    <circle cx="1405.0" cy="245.0" r="25.0"
                        fill="white" stroke="black" stroke-width="2"/>
    <polygon points="1460.0,220 1435,270 1485,270"
                        fill="white" stroke="black" stroke-width="2"/>
    <rect x="1160" y="275" 
                        width="50" height="50" 
                        fill="black" stroke="black" stroke-width="2"/>
    <rect x="1215" y="275" 
                        width="50" height="50" 
                        fill="black" stroke="black" stroke-width="2"/>
    <circle cx="1295.0" cy="300.0" r="25.0"
                        fill="black" stroke="black" stroke-width="2"/>
    <polygon points="1350.0,275 1325,325 1375,325"
                        fill="black" stroke="black" stroke-width="2"/>
    <circle cx="1405.0" cy="300.0" r="25.0"
                        fill="white" stroke="black" stroke-width="2"/>
    <rect x="1435" y="275" 
                        width="50" height="50" 
                        fill="white" stroke="black" stroke-width="2"/>
    <rect x="1160" y="330" 
                        width="50" height="50" 
                        fill="black" stroke="black" stroke-width="2"/>
    <rect x="1215" y="330" 
                        width="50" height="50" 
                        fill="black" stroke="black" stroke-width="2"/>
    <circle cx="1295.0" cy="355.0" r="25.0"
                        fill="white" stroke="black" stroke-width="2"/>
    <circle cx="1350.0" cy="355.0" r="25.0"
                        fill="black" stroke="black" stroke-width="2"/>
    <rect x="1380" y="330" 
                        width="50" height="50" 
                        fill="white" stroke="black" stroke-width="2"/>
    <polygon points="1460.0,330 1435,380 1485,380"
                        fill="white" stroke="black" stroke-width="2"/>
    <circle cx="1185.0" cy="410.0" r="25.0"
                        fill="white" stroke="black" stroke-width="2"/>
    <rect x="1215" y="385" 
                        width="50" height="50" 
                        fill="white" stroke="black" stroke-width="2"/>
    <polygon points="1295.0,385 1270,435 1320,435"
                        fill="black" stroke="black" stroke-width="2"/>
    <circle cx="1350.0" cy="410.0" r="25.0"
                        fill="black" stroke="black" stroke-width="2"/>
    <circle cx="1405.0" cy="410.0" r="25.0"
                        fill="white" stroke="black" stroke-width="2"/>
    <polygon points="1460.0,385 1435,435 1485,435"
                        fill="black" stroke="black" stroke-width="2"/>
    <polygon points="1185.0,440 1160,490 1210,490"
                        fill="white" stroke="black" stroke-width="2"/>
    <circle cx="1240.0" cy="465.0" r="25.0"
                        fill="white" stroke="black" stroke-width="2"/>
    <polygon points="1295.0,440 1270,490 1320,490"
                        fill="black" stroke="black" stroke-width="2"/>
    <rect x="1325" y="440" 
                        width="50" height="50" 
                        fill="black" stroke="black" stroke-width="2"/>
    <circle cx="1405.0" cy="465.0" r="25.0"
                        fill="white" stroke="black" stroke-width="2"/>
    <polygon points="1460.0,440 1435,490 1485,490"
                        fill="black" stroke="black" stroke-width="2"/>
    <rect x="1540" y="0" 
            width="330" height="495" 
            fill="none" stroke="black" stroke-width="3"/>
    <polygon points="1565.0,0 1540,50 1590,50"
                        fill="white" stroke="black" stroke-width="2"/>
    <polygon points="1620.0,0 1595,50 1645,50"
                        fill="black" stroke="black" stroke-width="2"/>
    <rect x="1650" y="0" 
                        width="50" height="50" 
                        fill="black" stroke="black" stroke-width="2"/>
    <rect x="1705" y="0" 
                        width="50" height="50" 
                        fill="black" stroke="black" stroke-width="2"/>
    <rect x="1760" y="0" 
                        width="50" height="50" 
                        fill="white" stroke="black" stroke-width="2"/>
    <circle cx="1840.0" cy="25.0" r="25.0"
                        fill="black" stroke="black" stroke-width="2"/>
    <rect x="1540" y="55" 
                        width="50" height="50" 
                        fill="white" stroke="black" stroke-width="2"/>
    <rect x="1595" y="55" 
                        width="50" height="50" 
                        fill="black" stroke="black" stroke-width="2"/>
    <rect x="1650" y="55" 
                        width="50" height="50" 
                        fill="white" stroke="black" stroke-width="2"/>
    <circle cx="1730.0" cy="80.0" r="25.0"
                        fill="black" stroke="black" stroke-width="2"/>
    <rect x="1760" y="55" 
                        width="50" height="50" 
                        fill="white" stroke="black" stroke-width="2"/>
    <rect x="1815" y="55" 
                        width="50" height="50" 
                        fill="white" stroke="black" stroke-width="2"/>
    <rect x="1540" y="110" 
                        width="50" height="50" 
                        fill="white" stroke="black" stroke-width="2"/>
    <rect x="1595" y="110" 
                        width="50" height="50" 
                        fill="white" stroke="black" stroke-width="2"/>
    <rect x="1650" y="110" 
                        width="50" height="50" 
                        fill="black" stroke="black" stroke-width="2"/>
    <circle cx="1730.0" cy="135.0" r="25.0"
                        fill="white" stroke="black" stroke-width="2"/>
    <polygon points="1785.0,110 1760,160 1810,160"
                        fill="white" stroke="black" stroke-width="2"/>
    <rect x="1815" y="110" 
                        width="50" height="50" 
                        fill="white" stroke="black" stroke-width="2"/>
    <rect x="1540" y="165" 
                        width="50" height="50" 
                        fill="white" stroke="black" stroke-width="2"/>
    <polygon points="1620.0,165 1595,215 1645,215"
                        fill="white" stroke="black" stroke-width="2"/>
    <polygon points="1675.0,165 1650,215 1700,215"
                        fill="black" stroke="black" stroke-width="2"/>
    <rect x="1705" y="165" 
                        width="50" height="50" 
                        fill="white" stroke="black" stroke-width="2"/>
    <circle cx="1785.0" cy="190.0" r="25.0"
                        fill="white" stroke="black" stroke-width="2"/>
    <circle cx="1840.0" cy="190.0" r="25.0"
                        fill="black" stroke="black" stroke-width="2"/>
    <circle cx="1565.0" cy="245.0" r="25.0"
                        fill="black" stroke="black" stroke-width="2"/>
    <polygon points="1620.0,220 1595,270 1645,270"
                        fill="black" stroke="black" stroke-width="2"/>
    <circle cx="1675.0" cy="245.0" r="25.0"
                        fill="white" stroke="black" stroke-width="2"/>
    <circle cx="1730.0" cy="245.0" r="25.0"
                        fill="white" stroke="black" stroke-width="2"/>
    <polygon points="1785.0,220 1760,270 1810,270"
                        fill="black" stroke="black" stroke-width="2"/>
    <rect x="1815" y="220" 
                        width="50" height="50" 
                        fill="black" stroke="black" stroke-width="2"/>
    <polygon points="1565.0,275 1540,325 1590,325"
                        fill="white" stroke="black" stroke-width="2"/>
    <rect x="1595" y="275" 
                        width="50" height="50" 
                        fill="white" stroke="black" stroke-width="2"/>
    <polygon points="1675.0,275 1650,325 1700,325"
                        fill="black" stroke="black" stroke-width="2"/>
    <polygon points="1730.0,275 1705,325 1755,325"
                        fill="white" stroke="black" stroke-width="2"/>
    <circle cx="1785.0" cy="300.0" r="25.0"
                        fill="white" stroke="black" stroke-width="2"/>
    <polygon points="1840.0,275 1815,325 1865,325"
                        fill="white" stroke="black" stroke-width="2"/>
    <rect x="1540" y="330" 
                        width="50" height="50" 
                        fill="white" stroke="black" stroke-width="2"/>
    <polygon points="1620.0,330 1595,380 1645,380"
                        fill="white" stroke="black" stroke-width="2"/>
    <circle cx="1675.0" cy="355.0" r="25.0"
                        fill="black" stroke="black" stroke-width="2"/>
    <polygon points="1730.0,330 1705,380 1755,380"
                        fill="white" stroke="black" stroke-width="2"/>
    <rect x="1760" y="330" 
                        width="50" height="50" 
                        fill="black" stroke="black" stroke-width="2"/>
    <rect x="1815" y="330" 
                        width="50" height="50" 
                        fill="black" stroke="black" stroke-width="2"/>
    <circle cx="1565.0" cy="410.0" r="25.0"
                        fill="white" stroke="black" stroke-width="2"/>
    <rect x="1595" y="385" 
                        width="50" height="50" 
                        fill="white" stroke="black" stroke-width="2"/>
    <rect x="1650" y="385" 
                        width="50" height="50" 
                        fill="white" stroke="black" stroke-width="2"/>
    <rect x="1705" y="385" 
                        width="50" height="50" 
                        fill="white" stroke="black" stroke-width="2"/>
    <circle cx="1785.0" cy="410.0" r="25.0"
                        fill="white" stroke="black" stroke-width="2"/>
    <circle cx="1840.0" cy="410.0" r="25.0"
                        fill="white" stroke="black" stroke-width="2"/>
    <circle cx="1565.0" cy="465.0" r="25.0"
                        fill="black" stroke="black" stroke-width="2"/>
    <circle cx="1620.0" cy="465.0" r="25.0"
                        fill="black" stroke="black" stroke-width="2"/>
    <polygon points="1675.0,440 1650,490 1700,490"
                        fill="black" stroke="black" stroke-width="2"/>
    <rect x="1705" y="440" 
                        width="50" height="50" 
                        fill="black" stroke="black" stroke-width="2"/>
    <polygon points="1785.0,440 1760,490 1810,490"
                        fill="black" stroke="black" stroke-width="2"/>
    <rect x="1815" y="440" 
                        width="50" height="50" 
                        fill="black" stroke="black" stroke-width="2"/>
</svg>