<?xml version="1.0" encoding="UTF-8" standalone="no"?>
<svg width="1890" height="495" xmlns="http://www.w3.org/2000/svg">
    <!-- White background -->
    <rect width="1890" height="495" fill="white"/>
    <rect x="20" y="0" 
            width="330" height="495" 
            fill="none" stroke="black" stroke-width="3"/>
    <circle cx="45.0" cy="25.0" r="25.0"
                        fill="white" stroke="black" stroke-width="2"/>
    <rect x="75" y="0" 
                        width="50" height="50" 
                        fill="white" stroke="black" stroke-width="2"/>
    <polygon points="155.0,0 130,50 180,50"
                        fill="black" stroke="black" stroke-width="2"/>
    <circle cx="210.0" cy="25.0" r="25.0"
                        fill="white" stroke="black" stroke-width="2"/>
    <circle cx="265.0" cy="25.0" r="25.0"
                        fill="white" stroke="black" stroke-width="2"/>
    <circle cx="320.0" cy="25.0" r="25.0"
                        fill="white" stroke="black" stroke-width="2"/>
    <rect x="20" y="55" 
                        width="50" height="50" 
                        fill="white" stroke="black" stroke-width="2"/>
    <circle cx="100.0" cy="80.0" r="25.0"
                        fill="black" stroke="black" stroke-width="2"/>
    <rect x="130" y="55" 
                        width="50" height="50" 
                        fill="black" stroke="black" stroke-width="2"/>
    <rect x="185" y="55" 
                        width="50" height="50" 
                        fill="black" stroke="black" stroke-width="2"/>
    <rect x="240" y="55" 
                        width="50" height="50" 
                        fill="black" stroke="black" stroke-width="2"/>
    <circle cx="320.0" cy="80.0" r="25.0"
                        fill="black" stroke="black" stroke-width="2"/>
    <circle cx="45.0" cy="135.0" r="25.0"
                        fill="black" stroke="black" stroke-width="2"/>
    <circle cx="100.0" cy="135.0" r="25.0"
                        fill="black" stroke="black" stroke-width="2"/>
    <circle cx="155.0" cy="135.0" r="25.0"
                        fill="black" stroke="black" stroke-width="2"/>
    <circle cx="210.0" cy="135.0" r="25.0"
                        fill="white" stroke="black" stroke-width="2"/>
    <rect x="240" y="110" 
                        width="50" height="50" 
                        fill="black" stroke="black" stroke-width="2"/>
    <circle cx="320.0" cy="135.0" r="25.0"
                        fill="white" stroke="black" stroke-width="2"/>
    <circle cx="45.0" cy="190.0" r="25.0"
                        fill="black" stroke="black" stroke-width="2"/>
    <rect x="75" y="165" 
                        width="50" height="50" 
                        fill="white" stroke="black" stroke-width="2"/>
    <polygon points="155.0,165 130,215 180,215"
                        fill="white" stroke="black" stroke-width="2"/>
    <rect x="185" y="165" 
                        width="50" height="50" 
                        fill="white" stroke="black" stroke-width="2"/>
    <rect x="240" y="165" 
                        width="50" height="50" 
                        fill="black" stroke="black" stroke-width="2"/>
    <rect x="295" y="165" 
                        width="50" height="50" 
                        fill="white" stroke="black" stroke-width="2"/>
    <polygon points="45.0,220 20,270 70,270"
                        fill="white" stroke="black" stroke-width="2"/>
    <polygon points="100.0,220 75,270 125,270"
                        fill="white" stroke="black" stroke-width="2"/>
    <polygon points="155.0,220 130,270 180,270"
                        fill="black" stroke="black" stroke-width="2"/>
    <polygon points="210.0,220 185,270 235,270"
                        fill="white" stroke="black" stroke-width="2"/>
    <rect x="240" y="220" 
                        width="50" height="50" 
                        fill="white" stroke="black" stroke-width="2"/>
    <polygon points="320.0,220 295,270 345,270"
                        fill="white" stroke="black" stroke-width="2"/>
    <rect x="20" y="275" 
                        width="50" height="50" 
                        fill="black" stroke="black" stroke-width="2"/>
    <polygon points="100.0,275 75,325 125,325"
                        fill="white" stroke="black" stroke-width="2"/>
    <rect x="130" y="275" 
                        width="50" height="50" 
                        fill="black" stroke="black" stroke-width="2"/>
    <circle cx="210.0" cy="300.0" r="25.0"
                        fill="black" stroke="black" stroke-width="2"/>
    <circle cx="265.0" cy="300.0" r="25.0"
                        fill="white" stroke="black" stroke-width="2"/>
    <rect x="295" y="275" 
                        width="50" height="50" 
                        fill="black" stroke="black" stroke-width="2"/>
    <rect x="20" y="330" 
                        width="50" height="50" 
                        fill="white" stroke="black" stroke-width="2"/>
    <rect x="75" y="330" 
                        width="50" height="50" 
                        fill="white" stroke="black" stroke-width="2"/>
    <circle cx="155.0" cy="355.0" r="25.0"
                        fill="black" stroke="black" stroke-width="2"/>
    <polygon points="210.0,330 185,380 235,380"
                        fill="black" stroke="black" stroke-width="2"/>
    <polygon points="265.0,330 240,380 290,380"
                        fill="white" stroke="black" stroke-width="2"/>
    <circle cx="320.0" cy="355.0" r="25.0"
                        fill="white" stroke="black" stroke-width="2"/>
    <polygon points="45.0,385 20,435 70,435"
                        fill="white" stroke="black" stroke-width="2"/>
    <polygon points="100.0,385 75,435 125,435"
                        fill="white" stroke="black" stroke-width="2"/>
    <polygon points="155.0,385 130,435 180,435"
                        fill="black" stroke="black" stroke-width="2"/>
    <rect x="185" y="385" 
                        width="50" height="50" 
                        fill="white" stroke="black" stroke-width="2"/>
    <circle cx="265.0" cy="410.0" r="25.0"
                        fill="white" stroke="black" stroke-width="2"/>
    <polygon points="320.0,385 295,435 345,435"
                        fill="black" stroke="black" stroke-width="2"/>
    <rect x="20" y="440" 
                        width="50" height="50" 
                        fill="black" stroke="black" stroke-width="2"/>
    <polygon points="100.0,440 75,490 125,490"
                        fill="white" stroke="black" stroke-width="2"/>
    <circle cx="155.0" cy="465.0" r="25.0"
                        fill="black" stroke="black" stroke-width="2"/>
    <circle cx="210.0" cy="465.0" r="25.0"
                        fill="white" stroke="black" stroke-width="2"/>
    <polygon points="265.0,440 240,490 290,490"
                        fill="black" stroke="black" stroke-width="2"/>
    <polygon points="320.0,440 295,490 345,490"
                        fill="white" stroke="black" stroke-width="2"/>
    <rect x="400" y="0" 
            width="330" height="495" 
            fill="none" stroke="black" stroke-width="3"/>
    <circle cx="425.0" cy="25.0" r="25.0"
                        fill="white" stroke="black" stroke-width="2"/>
    <circle cx="480.0" cy="25.0" r="25.0"
                        fill="black" stroke="black" stroke-width="2"/>
    <rect x="510" y="0" 
                        width="50" height="50" 
                        fill="black" stroke="black" stroke-width="2"/>
    <polygon points="590.0,0 565,50 615,50"
                        fill="white" stroke="black" stroke-width="2"/>
    <circle cx="645.0" cy="25.0" r="25.0"
                        fill="white" stroke="black" stroke-width="2"/>
    <circle cx="700.0" cy="25.0" r="25.0"
                        fill="white" stroke="black" stroke-width="2"/>
    <rect x="400" y="55" 
                        width="50" height="50" 
                        fill="black" stroke="black" stroke-width="2"/>
    <circle cx="480.0" cy="80.0" r="25.0"
                        fill="black" stroke="black" stroke-width="2"/>
    <rect x="510" y="55" 
                        width="50" height="50" 
                        fill="black" stroke="black" stroke-width="2"/>
    <polygon points="590.0,55 565,105 615,105"
                        fill="black" stroke="black" stroke-width="2"/>
    <rect x="620" y="55" 
                        width="50" height="50" 
                        fill="black" stroke="black" stroke-width="2"/>
    <rect x="675" y="55" 
                        width="50" height="50" 
                        fill="white" stroke="black" stroke-width="2"/>
    <rect x="400" y="110" 
                        width="50" height="50" 
                        fill="black" stroke="black" stroke-width="2"/>
    <circle cx="480.0" cy="135.0" r="25.0"
                        fill="black" stroke="black" stroke-width="2"/>
    <circle cx="535.0" cy="135.0" r="25.0"
                        fill="white" stroke="black" stroke-width="2"/>
    <circle cx="590.0" cy="135.0" r="25.0"
                        fill="white" stroke="black" stroke-width="2"/>
    <rect x="620" y="110" 
                        width="50" height="50" 
                        fill="black" stroke="black" stroke-width="2"/>
    <circle cx="700.0" cy="135.0" r="25.0"
                        fill="white" stroke="black" stroke-width="2"/>
    <rect x="400" y="165" 
                        width="50" height="50" 
                        fill="black" stroke="black" stroke-width="2"/>
    <circle cx="480.0" cy="190.0" r="25.0"
                        fill="white" stroke="black" stroke-width="2"/>
    <rect x="510" y="165" 
                        width="50" height="50" 
                        fill="white" stroke="black" stroke-width="2"/>
    <polygon points="590.0,165 565,215 615,215"
                        fill="white" stroke="black" stroke-width="2"/>
    <polygon points="645.0,165 620,215 670,215"
                        fill="black" stroke="black" stroke-width="2"/>
    <circle cx="700.0" cy="190.0" r="25.0"
                        fill="white" stroke="black" stroke-width="2"/>
    <circle cx="425.0" cy="245.0" r="25.0"
                        fill="white" stroke="black" stroke-width="2"/>
    <polygon points="480.0,220 455,270 505,270"
                        fill="white" stroke="black" stroke-width="2"/>
    <circle cx="535.0" cy="245.0" r="25.0"
                        fill="black" stroke="black" stroke-width="2"/>
    <rect x="565" y="220" 
                        width="50" height="50" 
                        fill="white" stroke="black" stroke-width="2"/>
    <rect x="620" y="220" 
                        width="50" height="50" 
                        fill="white" stroke="black" stroke-width="2"/>
    <polygon points="700.0,220 675,270 725,270"
                        fill="black" stroke="black" stroke-width="2"/>
    <circle cx="425.0" cy="300.0" r="25.0"
                        fill="white" stroke="black" stroke-width="2"/>
    <rect x="455" y="275" 
                        width="50" height="50" 
                        fill="black" stroke="black" stroke-width="2"/>
    <polygon points="535.0,275 510,325 560,325"
                        fill="black" stroke="black" stroke-width="2"/>
    <polygon points="590.0,275 565,325 615,325"
                        fill="black" stroke="black" stroke-width="2"/>
    <circle cx="645.0" cy="300.0" r="25.0"
                        fill="white" stroke="black" stroke-width="2"/>
    <polygon points="700.0,275 675,325 725,325"
                        fill="white" stroke="black" stroke-width="2"/>
    <polygon points="425.0,330 400,380 450,380"
                        fill="black" stroke="black" stroke-width="2"/>
    <polygon points="480.0,330 455,380 505,380"
                        fill="white" stroke="black" stroke-width="2"/>
    <polygon points="535.0,330 510,380 560,380"
                        fill="white" stroke="black" stroke-width="2"/>
    <polygon points="590.0,330 565,380 615,380"
                        fill="white" stroke="black" stroke-width="2"/>
    <circle cx="645.0" cy="355.0" r="25.0"
                        fill="black" stroke="black" stroke-width="2"/>
    <polygon points="700.0,330 675,380 725,380"
                        fill="black" stroke="black" stroke-width="2"/>
    <polygon points="425.0,385 400,435 450,435"
                        fill="black" stroke="black" stroke-width="2"/>
    <polygon points="480.0,385 455,435 505,435"
                        fill="white" stroke="black" stroke-width="2"/>
    <circle cx="535.0" cy="410.0" r="25.0"
                        fill="white" stroke="black" stroke-width="2"/>
    <polygon points="590.0,385 565,435 615,435"
                        fill="white" stroke="black" stroke-width="2"/>
    <polygon points="645.0,385 620,435 670,435"
                        fill="black" stroke="black" stroke-width="2"/>
    <circle cx="700.0" cy="410.0" r="25.0"
                        fill="black" stroke="black" stroke-width="2"/>
    <circle cx="425.0" cy="465.0" r="25.0"
                        fill="black" stroke="black" stroke-width="2"/>
    <rect x="455" y="440" 
                        width="50" height="50" 
                        fill="black" stroke="black" stroke-width="2"/>
    <polygon points="535.0,440 510,490 560,490"
                        fill="black" stroke="black" stroke-width="2"/>
    <rect x="565" y="440" 
                        width="50" height="50" 
                        fill="white" stroke="black" stroke-width="2"/>
    <circle cx="645.0" cy="465.0" r="25.0"
                        fill="black" stroke="black" stroke-width="2"/>
    <rect x="675" y="440" 
                        width="50" height="50" 
                        fill="black" stroke="black" stroke-width="2"/>
    <rect x="780" y="0" 
            width="330" height="495" 
            fill="none" stroke="black" stroke-width="3"/>
    <polygon points="805.0,0 780,50 830,50"
                        fill="black" stroke="black" stroke-width="2"/>
    <circle cx="860.0" cy="25.0" r="25.0"
                        fill="black" stroke="black" stroke-width="2"/>
    <polygon points="915.0,0 890,50 940,50"
                        fill="black" stroke="black" stroke-width="2"/>
    <rect x="945" y="0" 
                        width="50" height="50" 
                        fill="white" stroke="black" stroke-width="2"/>
    <polygon points="1025.0,0 1000,50 1050,50"
                        fill="white" stroke="black" stroke-width="2"/>
    <circle cx="1080.0" cy="25.0" r="25.0"
                        fill="white" stroke="black" stroke-width="2"/>
    <polygon points="805.0,55 780,105 830,105"
                        fill="black" stroke="black" stroke-width="2"/>
    <circle cx="860.0" cy="80.0" r="25.0"
                        fill="white" stroke="black" stroke-width="2"/>
    <rect x="890" y="55" 
                        width="50" height="50" 
                        fill="black" stroke="black" stroke-width="2"/>
    <polygon points="970.0,55 945,105 995,105"
                        fill="black" stroke="black" stroke-width="2"/>
    <circle cx="1025.0" cy="80.0" r="25.0"
                        fill="black" stroke="black" stroke-width="2"/>
    <circle cx="1080.0" cy="80.0" r="25.0"
                        fill="white" stroke="black" stroke-width="2"/>
    <circle cx="805.0" cy="135.0" r="25.0"
                        fill="black" stroke="black" stroke-width="2"/>
    <circle cx="860.0" cy="135.0" r="25.0"
                        fill="white" stroke="black" stroke-width="2"/>
    <polygon points="915.0,110 890,160 940,160"
                        fill="white" stroke="black" stroke-width="2"/>
    <rect x="945" y="110" 
                        width="50" height="50" 
                        fill="black" stroke="black" stroke-width="2"/>
    <polygon points="1025.0,110 1000,160 1050,160"
                        fill="black" stroke="black" stroke-width="2"/>
    <polygon points="1080.0,110 1055,160 1105,160"
                        fill="white" stroke="black" stroke-width="2"/>
    <rect x="780" y="165" 
                        width="50" height="50" 
                        fill="white" stroke="black" stroke-width="2"/>
    <polygon points="860.0,165 835,215 885,215"
                        fill="black" stroke="black" stroke-width="2"/>
    <rect x="890" y="165" 
                        width="50" height="50" 
                        fill="white" stroke="black" stroke-width="2"/>
    <circle cx="970.0" cy="190.0" r="25.0"
                        fill="black" stroke="black" stroke-width="2"/>
    <rect x="1000" y="165" 
                        width="50" height="50" 
                        fill="black" stroke="black" stroke-width="2"/>
    <circle cx="1080.0" cy="190.0" r="25.0"
                        fill="black" stroke="black" stroke-width="2"/>
    <circle cx="805.0" cy="245.0" r="25.0"
                        fill="black" stroke="black" stroke-width="2"/>
    <circle cx="860.0" cy="245.0" r="25.0"
                        fill="black" stroke="black" stroke-width="2"/>
    <circle cx="915.0" cy="245.0" r="25.0"
                        fill="white" stroke="black" stroke-width="2"/>
    <rect x="945" y="220" 
                        width="50" height="50" 
                        fill="white" stroke="black" stroke-width="2"/>
    <rect x="1000" y="220" 
                        width="50" height="50" 
                        fill="black" stroke="black" stroke-width="2"/>
    <polygon points="1080.0,220 1055,270 1105,270"
                        fill="white" stroke="black" stroke-width="2"/>
    <circle cx="805.0" cy="300.0" r="25.0"
                        fill="white" stroke="black" stroke-width="2"/>
    <polygon points="860.0,275 835,325 885,325"
                        fill="white" stroke="black" stroke-width="2"/>
    <polygon points="915.0,275 890,325 940,325"
                        fill="white" stroke="black" stroke-width="2"/>
    <circle cx="970.0" cy="300.0" r="25.0"
                        fill="black" stroke="black" stroke-width="2"/>
    <polygon points="1025.0,275 1000,325 1050,325"
                        fill="white" stroke="black" stroke-width="2"/>
    <circle cx="1080.0" cy="300.0" r="25.0"
                        fill="white" stroke="black" stroke-width="2"/>
    <polygon points="805.0,330 780,380 830,380"
                        fill="black" stroke="black" stroke-width="2"/>
    <polygon points="860.0,330 835,380 885,380"
                        fill="black" stroke="black" stroke-width="2"/>
    <rect x="890" y="330" 
                        width="50" height="50" 
                        fill="black" stroke="black" stroke-width="2"/>
    <circle cx="970.0" cy="355.0" r="25.0"
                        fill="black" stroke="black" stroke-width="2"/>
    <polygon points="1025.0,330 1000,380 1050,380"
                        fill="white" stroke="black" stroke-width="2"/>
    <circle cx="1080.0" cy="355.0" r="25.0"
                        fill="black" stroke="black" stroke-width="2"/>
    <polygon points="805.0,385 780,435 830,435"
                        fill="white" stroke="black" stroke-width="2"/>
    <circle cx="860.0" cy="410.0" r="25.0"
                        fill="white" stroke="black" stroke-width="2"/>
    <polygon points="915.0,385 890,435 940,435"
                        fill="white" stroke="black" stroke-width="2"/>
    <circle cx="970.0" cy="410.0" r="25.0"
                        fill="white" stroke="black" stroke-width="2"/>
    <rect x="1000" y="385" 
                        width="50" height="50" 
                        fill="black" stroke="black" stroke-width="2"/>
    <rect x="1055" y="385" 
                        width="50" height="50" 
                        fill="white" stroke="black" stroke-width="2"/>
    <rect x="780" y="440" 
                        width="50" height="50" 
                        fill="white" stroke="black" stroke-width="2"/>
    <polygon points="860.0,440 835,490 885,490"
                        fill="black" stroke="black" stroke-width="2"/>
    <circle cx="915.0" cy="465.0" r="25.0"
                        fill="white" stroke="black" stroke-width="2"/>
    <circle cx="970.0" cy="465.0" r="25.0"
                        fill="white" stroke="black" stroke-width="2"/>
    <circle cx="1025.0" cy="465.0" r="25.0"
                        fill="white" stroke="black" stroke-width="2"/>
    <polygon points="1080.0,440 1055,490 1105,490"
                        fill="black" stroke="black" stroke-width="2"/>
    <rect x="1160" y="0" 
            width="330" height="495" 
            fill="none" stroke="black" stroke-width="3"/>
    <rect x="1160" y="0" 
                        width="50" height="50" 
                        fill="black" stroke="black" stroke-width="2"/>
    <polygon points="1240.0,0 1215,50 1265,50"
                        fill="black" stroke="black" stroke-width="2"/>
    <circle cx="1295.0" cy="25.0" r="25.0"
                        fill="black" stroke="black" stroke-width="2"/>
    <rect x="1325" y="0" 
                        width="50" height="50" 
                        fill="black" stroke="black" stroke-width="2"/>
    <circle cx="1405.0" cy="25.0" r="25.0"
                        fill="white" stroke="black" stroke-width="2"/>
    <polygon points="1460.0,0 1435,50 1485,50"
                        fill="white" stroke="black" stroke-width="2"/>
    <rect x="1160" y="55" 
                        width="50" height="50" 
                        fill="white" stroke="black" stroke-width="2"/>
    <circle cx="1240.0" cy="80.0" r="25.0"
                        fill="white" stroke="black" stroke-width="2"/>
    <polygon points="1295.0,55 1270,105 1320,105"
                        fill="black" stroke="black" stroke-width="2"/>
    <polygon points="1350.0,55 1325,105 1375,105"
                        fill="black" stroke="black" stroke-width="2"/>
    <rect x="1380" y="55" 
                        width="50" height="50" 
                        fill="black" stroke="black" stroke-width="2"/>
    <polygon points="1460.0,55 1435,105 1485,105"
                        fill="black" stroke="black" stroke-width="2"/>
    <rect x="1160" y="110" 
                        width="50" height="50" 
                        fill="black" stroke="black" stroke-width="2"/>
    <polygon points="1240.0,110 1215,160 1265,160"
                        fill="white" stroke="black" stroke-width="2"/>
    <polygon points="1295.0,110 1270,160 1320,160"
                        fill="black" stroke="black" stroke-width="2"/>
    <circle cx="1350.0" cy="135.0" r="25.0"
                        fill="white" stroke="black" stroke-width="2"/>
    <rect x="1380" y="110" 
                        width="50" height="50" 
                        fill="white" stroke="black" stroke-width="2"/>
    <circle cx="1460.0" cy="135.0" r="25.0"
                        fill="black" stroke="black" stroke-width="2"/>
    <circle cx="1185.0" cy="190.0" r="25.0"
                        fill="white" stroke="black" stroke-width="2"/>
    <rect x="1215" y="165" 
                        width="50" height="50" 
                        fill="black" stroke="black" stroke-width="2"/>
    <polygon points="1295.0,165 1270,215 1320,215"
                        fill="black" stroke="black" stroke-width="2"/>
    <rect x="1325" y="165" 
                        width="50" height="50" 
                        fill="white" stroke="black" stroke-width="2"/>
    <rect x="1380" y="165" 
                        width="50" height="50" 
                        fill="black" stroke="black" stroke-width="2"/>
    <rect x="1435" y="165" 
                        width="50" height="50" 
                        fill="black" stroke="black" stroke-width="2"/>
    <polygon points="1185.0,220 1160,270 1210,270"
                        fill="white" stroke="black" stroke-width="2"/>
    <rect x="1215" y="220" 
                        width="50" height="50" 
                        fill="white" stroke="black" stroke-width="2"/>
    <rect x="1270" y="220" 
                        width="50" height="50" 
                        fill="white" stroke="black" stroke-width="2"/>
    <polygon points="1350.0,220 1325,270 1375,270"
                        fill="black" stroke="black" stroke-width="2"/>
    <polygon points="1405.0,220 1380,270 1430,270"
                        fill="black" stroke="black" stroke-width="2"/>
    <circle cx="1460.0" cy="245.0" r="25.0"
                        fill="black" stroke="black" stroke-width="2"/>
    <circle cx="1185.0" cy="300.0" r="25.0"
                        fill="black" stroke="black" stroke-width="2"/>
    <circle cx="1240.0" cy="300.0" r="25.0"
                        fill="black" stroke="black" stroke-width="2"/>
    <rect x="1270" y="275" 
                        width="50" height="50" 
                        fill="white" stroke="black" stroke-width="2"/>
    <circle cx="1350.0" cy="300.0" r="25.0"
                        fill="white" stroke="black" stroke-width="2"/>
    <circle cx="1405.0" cy="300.0" r="25.0"
                        fill="black" stroke="black" stroke-width="2"/>
    <circle cx="1460.0" cy="300.0" r="25.0"
                        fill="white" stroke="black" stroke-width="2"/>
    <rect x="1160" y="330" 
                        width="50" height="50" 
                        fill="white" stroke="black" stroke-width="2"/>
    <rect x="1215" y="330" 
                        width="50" height="50" 
                        fill="white" stroke="black" stroke-width="2"/>
    <circle cx="1295.0" cy="355.0" r="25.0"
                        fill="white" stroke="black" stroke-width="2"/>
    <rect x="1325" y="330" 
                        width="50" height="50" 
                        fill="black" stroke="black" stroke-width="2"/>
    <polygon points="1405.0,330 1380,380 1430,380"
                        fill="white" stroke="black" stroke-width="2"/>
    <polygon points="1460.0,330 1435,380 1485,380"
                        fill="black" stroke="black" stroke-width="2"/>
    <polygon points="1185.0,385 1160,435 1210,435"
                        fill="white" stroke="black" stroke-width="2"/>
    <circle cx="1240.0" cy="410.0" r="25.0"
                        fill="white" stroke="black" stroke-width="2"/>
    <polygon points="1295.0,385 1270,435 1320,435"
                        fill="black" stroke="black" stroke-width="2"/>
    <circle cx="1350.0" cy="410.0" r="25.0"
                        fill="white" stroke="black" stroke-width="2"/>
    <circle cx="1405.0" cy="410.0" r="25.0"
                        fill="black" stroke="black" stroke-width="2"/>
    <rect x="1435" y="385" 
                        width="50" height="50" 
                        fill="black" stroke="black" stroke-width="2"/>
    <polygon points="1185.0,440 1160,490 1210,490"
                        fill="black" stroke="black" stroke-width="2"/>
    <rect x="1215" y="440" 
                        width="50" height="50" 
                        fill="black" stroke="black" stroke-width="2"/>
    <circle cx="1295.0" cy="465.0" r="25.0"
                        fill="white" stroke="black" stroke-width="2"/>
    <circle cx="1350.0" cy="465.0" r="25.0"
                        fill="black" stroke="black" stroke-width="2"/>
    <rect x="1380" y="440" 
                        width="50" height="50" 
                        fill="white" stroke="black" stroke-width="2"/>
    <rect x="1435" y="440" 
                        width="50" height="50" 
                        fill="black" stroke="black" stroke-width="2"/>
    <rect x="1540" y="0" 
            width="330" height="495" 
            fill="none" stroke="black" stroke-width="3"/>
    <rect x="1540" y="0" 
                        width="50" height="50" 
                        fill="white" stroke="black" stroke-width="2"/>
    <circle cx="1620.0" cy="25.0" r="25.0"
                        fill="white" stroke="black" stroke-width="2"/>
    <circle cx="1675.0" cy="25.0" r="25.0"
                        fill="white" stroke="black" stroke-width="2"/>
    <polygon points="1730.0,0 1705,50 1755,50"
                        fill="black" stroke="black" stroke-width="2"/>
    <polygon points="1785.0,0 1760,50 1810,50"
                        fill="black" stroke="black" stroke-width="2"/>
    <circle cx="1840.0" cy="25.0" r="25.0"
                        fill="black" stroke="black" stroke-width="2"/>
    <circle cx="1565.0" cy="80.0" r="25.0"
                        fill="white" stroke="black" stroke-width="2"/>
    <polygon points="1620.0,55 1595,105 1645,105"
                        fill="white" stroke="black" stroke-width="2"/>
    <polygon points="1675.0,55 1650,105 1700,105"
                        fill="white" stroke="black" stroke-width="2"/>
    <rect x="1705" y="55" 
                        width="50" height="50" 
                        fill="white" stroke="black" stroke-width="2"/>
    <circle cx="1785.0" cy="80.0" r="25.0"
                        fill="black" stroke="black" stroke-width="2"/>
    <rect x="1815" y="55" 
                        width="50" height="50" 
                        fill="black" stroke="black" stroke-width="2"/>
    <circle cx="1565.0" cy="135.0" r="25.0"
                        fill="white" stroke="black" stroke-width="2"/>
    <circle cx="1620.0" cy="135.0" r="25.0"
                        fill="white" stroke="black" stroke-width="2"/>
    <circle cx="1675.0" cy="135.0" r="25.0"
                        fill="black" stroke="black" stroke-width="2"/>
    <rect x="1705" y="110" 
                        width="50" height="50" 
                        fill="black" stroke="black" stroke-width="2"/>
    <circle cx="1785.0" cy="135.0" r="25.0"
                        fill="black" stroke="black" stroke-width="2"/>
    <rect x="1815" y="110" 
                        width="50" height="50" 
                        fill="white" stroke="black" stroke-width="2"/>
    <rect x="1540" y="165" 
                        width="50" height="50" 
                        fill="black" stroke="black" stroke-width="2"/>
    <circle cx="1620.0" cy="190.0" r="25.0"
                        fill="white" stroke="black" stroke-width="2"/>
    <polygon points="1675.0,165 1650,215 1700,215"
                        fill="black" stroke="black" stroke-width="2"/>
    <circle cx="1730.0" cy="190.0" r="25.0"
                        fill="black" stroke="black" stroke-width="2"/>
    <polygon points="1785.0,165 1760,215 1810,215"
                        fill="black" stroke="black" stroke-width="2"/>
    <circle cx="1840.0" cy="190.0" r="25.0"
                        fill="black" stroke="black" stroke-width="2"/>
    <polygon points="1565.0,220 1540,270 1590,270"
                        fill="black" stroke="black" stroke-width="2"/>
    <circle cx="1620.0" cy="245.0" r="25.0"
                        fill="white" stroke="black" stroke-width="2"/>
    <polygon points="1675.0,220 1650,270 1700,270"
                        fill="black" stroke="black" stroke-width="2"/>
    <rect x="1705" y="220" 
                        width="50" height="50" 
                        fill="black" stroke="black" stroke-width="2"/>
    <polygon points="1785.0,220 1760,270 1810,270"
                        fill="white" stroke="black" stroke-width="2"/>
    <circle cx="1840.0" cy="245.0" r="25.0"
                        fill="black" stroke="black" stroke-width="2"/>
    <polygon points="1565.0,275 1540,325 1590,325"
                        fill="black" stroke="black" stroke-width="2"/>
    <polygon points="1620.0,275 1595,325 1645,325"
                        fill="white" stroke="black" stroke-width="2"/>
    <rect x="1650" y="275" 
                        width="50" height="50" 
                        fill="white" stroke="black" stroke-width="2"/>
    <polygon points="1730.0,275 1705,325 1755,325"
                        fill="white" stroke="black" stroke-width="2"/>
    <circle cx="1785.0" cy="300.0" r="25.0"
                        fill="black" stroke="black" stroke-width="2"/>
    <polygon points="1840.0,275 1815,325 1865,325"
                        fill="black" stroke="black" stroke-width="2"/>
    <circle cx="1565.0" cy="355.0" r="25.0"
                        fill="black" stroke="black" stroke-width="2"/>
    <polygon points="1620.0,330 1595,380 1645,380"
                        fill="black" stroke="black" stroke-width="2"/>
    <circle cx="1675.0" cy="355.0" r="25.0"
                        fill="white" stroke="black" stroke-width="2"/>
    <circle cx="1730.0" cy="355.0" r="25.0"
                        fill="white" stroke="black" stroke-width="2"/>
    <rect x="1760" y="330" 
                        width="50" height="50" 
                        fill="white" stroke="black" stroke-width="2"/>
    <polygon points="1840.0,330 1815,380 1865,380"
                        fill="black" stroke="black" stroke-width="2"/>
    <circle cx="1565.0" cy="410.0" r="25.0"
                        fill="black" stroke="black" stroke-width="2"/>
    <rect x="1595" y="385" 
                        width="50" height="50" 
                        fill="white" stroke="black" stroke-width="2"/>
    <rect x="1650" y="385" 
                        width="50" height="50" 
                        fill="white" stroke="black" stroke-width="2"/>
    <rect x="1705" y="385" 
                        width="50" height="50" 
                        fill="white" stroke="black" stroke-width="2"/>
    <rect x="1760" y="385" 
                        width="50" height="50" 
                        fill="white" stroke="black" stroke-width="2"/>
    <circle cx="1840.0" cy="410.0" r="25.0"
                        fill="white" stroke="black" stroke-width="2"/>
    <polygon points="1565.0,440 1540,490 1590,490"
                        fill="black" stroke="black" stroke-width="2"/>
    <rect x="1595" y="440" 
                        width="50" height="50" 
                        fill="white" stroke="black" stroke-width="2"/>
    <rect x="1650" y="440" 
                        width="50" height="50" 
                        fill="white" stroke="black" stroke-width="2"/>
    <polygon points="1730.0,440 1705,490 1755,490"
                        fill="black" stroke="black" stroke-width="2"/>
    <rect x="1760" y="440" 
                        width="50" height="50" 
                        fill="white" stroke="black" stroke-width="2"/>
    <circle cx="1840.0" cy="465.0" r="25.0"
                        fill="black" stroke="black" stroke-width="2"/>
</svg>