<?xml version="1.0" encoding="UTF-8" standalone="no"?>
<svg width="535" height="495" xmlns="http://www.w3.org/2000/svg">
    <!-- White background -->
    <rect width="535" height="495" fill="white"/>
    <rect x="20" y="0" 
            width="495" height="495" 
            fill="none" stroke="black" stroke-width="3"/>
    <rect x="20" y="0" 
                        width="50" height="50" 
                        fill="white" stroke="black" stroke-width="2"/>
    <polygon points="100.0,0 75,50 125,50"
                        fill="black" stroke="black" stroke-width="2"/>
    <circle cx="155.0" cy="25.0" r="25.0"
                        fill="white" stroke="black" stroke-width="2"/>
    <polygon points="210.0,0 185,50 235,50"
                        fill="white" stroke="black" stroke-width="2"/>
    <rect x="240" y="0" 
                        width="50" height="50" 
                        fill="white" stroke="black" stroke-width="2"/>
    <circle cx="320.0" cy="25.0" r="25.0"
                        fill="black" stroke="black" stroke-width="2"/>
    <circle cx="375.0" cy="25.0" r="25.0"
                        fill="black" stroke="black" stroke-width="2"/>
    <rect x="405" y="0" 
                        width="50" height="50" 
                        fill="white" stroke="black" stroke-width="2"/>
    <rect x="460" y="0" 
                        width="50" height="50" 
                        fill="white" stroke="black" stroke-width="2"/>
    <rect x="20" y="55" 
                        width="50" height="50" 
                        fill="white" stroke="black" stroke-width="2"/>
    <circle cx="100.0" cy="80.0" r="25.0"
                        fill="black" stroke="black" stroke-width="2"/>
    <rect x="130" y="55" 
                        width="50" height="50" 
                        fill="white" stroke="black" stroke-width="2"/>
    <circle cx="210.0" cy="80.0" r="25.0"
                        fill="black" stroke="black" stroke-width="2"/>
    <circle cx="265.0" cy="80.0" r="25.0"
                        fill="white" stroke="black" stroke-width="2"/>
    <rect x="295" y="55" 
                        width="50" height="50" 
                        fill="black" stroke="black" stroke-width="2"/>
    <rect x="350" y="55" 
                        width="50" height="50" 
                        fill="white" stroke="black" stroke-width="2"/>
    <polygon points="430.0,55 405,105 455,105"
                        fill="white" stroke="black" stroke-width="2"/>
    <rect x="460" y="55" 
                        width="50" height="50" 
                        fill="black" stroke="black" stroke-width="2"/>
    <polygon points="45.0,110 20,160 70,160"
                        fill="black" stroke="black" stroke-width="2"/>
    <rect x="75" y="110" 
                        width="50" height="50" 
                        fill="black" stroke="black" stroke-width="2"/>
    <rect x="130" y="110" 
                        width="50" height="50" 
                        fill="white" stroke="black" stroke-width="2"/>
    <circle cx="210.0" cy="135.0" r="25.0"
                        fill="black" stroke="black" stroke-width="2"/>
    <rect x="240" y="110" 
                        width="50" height="50" 
                        fill="black" stroke="black" stroke-width="2"/>
    <polygon points="320.0,110 295,160 345,160"
                        fill="white" stroke="black" stroke-width="2"/>
    <circle cx="375.0" cy="135.0" r="25.0"
                        fill="white" stroke="black" stroke-width="2"/>
    <polygon points="430.0,110 405,160 455,160"
                        fill="white" stroke="black" stroke-width="2"/>
    <polygon points="485.0,110 460,160 510,160"
                        fill="black" stroke="black" stroke-width="2"/>
    <polygon points="45.0,165 20,215 70,215"
                        fill="black" stroke="black" stroke-width="2"/>
    <circle cx="100.0" cy="190.0" r="25.0"
                        fill="black" stroke="black" stroke-width="2"/>
    <rect x="130" y="165" 
                        width="50" height="50" 
                        fill="black" stroke="black" stroke-width="2"/>
    <polygon points="210.0,165 185,215 235,215"
                        fill="white" stroke="black" stroke-width="2"/>
    <polygon points="265.0,165 240,215 290,215"
                        fill="black" stroke="black" stroke-width="2"/>
    <circle cx="320.0" cy="190.0" r="25.0"
                        fill="black" stroke="black" stroke-width="2"/>
    <polygon points="375.0,165 350,215 400,215"
                        fill="white" stroke="black" stroke-width="2"/>
    <rect x="405" y="165" 
                        width="50" height="50" 
                        fill="white" stroke="black" stroke-width="2"/>
    <polygon points="485.0,165 460,215 510,215"
                        fill="white" stroke="black" stroke-width="2"/>
    <circle cx="45.0" cy="245.0" r="25.0"
                        fill="black" stroke="black" stroke-width="2"/>
    <rect x="75" y="220" 
                        width="50" height="50" 
                        fill="black" stroke="black" stroke-width="2"/>
    <rect x="130" y="220" 
                        width="50" height="50" 
                        fill="white" stroke="black" stroke-width="2"/>
    <polygon points="210.0,220 185,270 235,270"
                        fill="black" stroke="black" stroke-width="2"/>
    <circle cx="265.0" cy="245.0" r="25.0"
                        fill="white" stroke="black" stroke-width="2"/>
    <circle cx="320.0" cy="245.0" r="25.0"
                        fill="white" stroke="black" stroke-width="2"/>
    <polygon points="375.0,220 350,270 400,270"
                        fill="black" stroke="black" stroke-width="2"/>
    <circle cx="430.0" cy="245.0" r="25.0"
                        fill="white" stroke="black" stroke-width="2"/>
    <circle cx="485.0" cy="245.0" r="25.0"
                        fill="white" stroke="black" stroke-width="2"/>
    <circle cx="45.0" cy="300.0" r="25.0"
                        fill="white" stroke="black" stroke-width="2"/>
    <polygon points="100.0,275 75,325 125,325"
                        fill="black" stroke="black" stroke-width="2"/>
    <rect x="130" y="275" 
                        width="50" height="50" 
                        fill="black" stroke="black" stroke-width="2"/>
    <polygon points="210.0,275 185,325 235,325"
                        fill="black" stroke="black" stroke-width="2"/>
    <circle cx="265.0" cy="300.0" r="25.0"
                        fill="white" stroke="black" stroke-width="2"/>
    <circle cx="320.0" cy="300.0" r="25.0"
                        fill="white" stroke="black" stroke-width="2"/>
    <circle cx="375.0" cy="300.0" r="25.0"
                        fill="white" stroke="black" stroke-width="2"/>
    <polygon points="430.0,275 405,325 455,325"
                        fill="black" stroke="black" stroke-width="2"/>
    <polygon points="485.0,275 460,325 510,325"
                        fill="black" stroke="black" stroke-width="2"/>
    <circle cx="45.0" cy="355.0" r="25.0"
                        fill="white" stroke="black" stroke-width="2"/>
    <rect x="75" y="330" 
                        width="50" height="50" 
                        fill="white" stroke="black" stroke-width="2"/>
    <polygon points="155.0,330 130,380 180,380"
                        fill="black" stroke="black" stroke-width="2"/>
    <circle cx="210.0" cy="355.0" r="25.0"
                        fill="white" stroke="black" stroke-width="2"/>
    <rect x="240" y="330" 
                        width="50" height="50" 
                        fill="black" stroke="black" stroke-width="2"/>
    <polygon points="320.0,330 295,380 345,380"
                        fill="black" stroke="black" stroke-width="2"/>
    <rect x="350" y="330" 
                        width="50" height="50" 
                        fill="white" stroke="black" stroke-width="2"/>
    <rect x="405" y="330" 
                        width="50" height="50" 
                        fill="white" stroke="black" stroke-width="2"/>
    <rect x="460" y="330" 
                        width="50" height="50" 
                        fill="black" stroke="black" stroke-width="2"/>
    <polygon points="45.0,385 20,435 70,435"
                        fill="white" stroke="black" stroke-width="2"/>
    <polygon points="100.0,385 75,435 125,435"
                        fill="black" stroke="black" stroke-width="2"/>
    <polygon points="155.0,385 130,435 180,435"
                        fill="black" stroke="black" stroke-width="2"/>
    <rect x="185" y="385" 
                        width="50" height="50" 
                        fill="white" stroke="black" stroke-width="2"/>
    <polygon points="265.0,385 240,435 290,435"
                        fill="white" stroke="black" stroke-width="2"/>
    <rect x="295" y="385" 
                        width="50" height="50" 
                        fill="black" stroke="black" stroke-width="2"/>
    <circle cx="375.0" cy="410.0" r="25.0"
                        fill="white" stroke="black" stroke-width="2"/>
    <rect x="405" y="385" 
                        width="50" height="50" 
                        fill="white" stroke="black" stroke-width="2"/>
    <circle cx="485.0" cy="410.0" r="25.0"
                        fill="black" stroke="black" stroke-width="2"/>
    <circle cx="45.0" cy="465.0" r="25.0"
                        fill="black" stroke="black" stroke-width="2"/>
    <circle cx="100.0" cy="465.0" r="25.0"
                        fill="white" stroke="black" stroke-width="2"/>
    <rect x="130" y="440" 
                        width="50" height="50" 
                        fill="white" stroke="black" stroke-width="2"/>
    <circle cx="210.0" cy="465.0" r="25.0"
                        fill="black" stroke="black" stroke-width="2"/>
    <circle cx="265.0" cy="465.0" r="25.0"
                        fill="white" stroke="black" stroke-width="2"/>
    <circle cx="320.0" cy="465.0" r="25.0"
                        fill="white" stroke="black" stroke-width="2"/>
    <rect x="350" y="440" 
                        width="50" height="50" 
                        fill="white" stroke="black" stroke-width="2"/>
    <rect x="405" y="440" 
                        width="50" height="50" 
                        fill="white" stroke="black" stroke-width="2"/>
    <polygon points="485.0,440 460,490 510,490"
                        fill="black" stroke="black" stroke-width="2"/>
</svg>