<?xml version="1.0" encoding="UTF-8" standalone="no"?>
<svg width="1625" height="495" xmlns="http://www.w3.org/2000/svg">
    <!-- White background -->
    <rect width="1625" height="495" fill="white"/>
    <rect x="20" y="0" 
            width="495" height="495" 
            fill="none" stroke="black" stroke-width="3"/>
    <polygon points="45.0,0 20,50 70,50"
                        fill="black" stroke="black" stroke-width="2"/>
    <polygon points="100.0,0 75,50 125,50"
                        fill="white" stroke="black" stroke-width="2"/>
    <rect x="130" y="0" 
                        width="50" height="50" 
                        fill="black" stroke="black" stroke-width="2"/>
    <polygon points="210.0,0 185,50 235,50"
                        fill="black" stroke="black" stroke-width="2"/>
    <circle cx="265.0" cy="25.0" r="25.0"
                        fill="white" stroke="black" stroke-width="2"/>
    <circle cx="320.0" cy="25.0" r="25.0"
                        fill="white" stroke="black" stroke-width="2"/>
    <circle cx="375.0" cy="25.0" r="25.0"
                        fill="black" stroke="black" stroke-width="2"/>
    <polygon points="430.0,0 405,50 455,50"
                        fill="black" stroke="black" stroke-width="2"/>
    <polygon points="485.0,0 460,50 510,50"
                        fill="black" stroke="black" stroke-width="2"/>
    <polygon points="45.0,55 20,105 70,105"
                        fill="black" stroke="black" stroke-width="2"/>
    <rect x="75" y="55" 
                        width="50" height="50" 
                        fill="white" stroke="black" stroke-width="2"/>
    <circle cx="155.0" cy="80.0" r="25.0"
                        fill="black" stroke="black" stroke-width="2"/>
    <rect x="185" y="55" 
                        width="50" height="50" 
                        fill="white" stroke="black" stroke-width="2"/>
    <rect x="240" y="55" 
                        width="50" height="50" 
                        fill="white" stroke="black" stroke-width="2"/>
    <circle cx="320.0" cy="80.0" r="25.0"
                        fill="white" stroke="black" stroke-width="2"/>
    <polygon points="375.0,55 350,105 400,105"
                        fill="black" stroke="black" stroke-width="2"/>
    <circle cx="430.0" cy="80.0" r="25.0"
                        fill="black" stroke="black" stroke-width="2"/>
    <polygon points="485.0,55 460,105 510,105"
                        fill="white" stroke="black" stroke-width="2"/>
    <circle cx="45.0" cy="135.0" r="25.0"
                        fill="white" stroke="black" stroke-width="2"/>
    <polygon points="100.0,110 75,160 125,160"
                        fill="white" stroke="black" stroke-width="2"/>
    <polygon points="155.0,110 130,160 180,160"
                        fill="black" stroke="black" stroke-width="2"/>
    <polygon points="210.0,110 185,160 235,160"
                        fill="white" stroke="black" stroke-width="2"/>
    <polygon points="265.0,110 240,160 290,160"
                        fill="black" stroke="black" stroke-width="2"/>
    <circle cx="320.0" cy="135.0" r="25.0"
                        fill="white" stroke="black" stroke-width="2"/>
    <rect x="350" y="110" 
                        width="50" height="50" 
                        fill="white" stroke="black" stroke-width="2"/>
    <polygon points="430.0,110 405,160 455,160"
                        fill="black" stroke="black" stroke-width="2"/>
    <circle cx="485.0" cy="135.0" r="25.0"
                        fill="white" stroke="black" stroke-width="2"/>
    <circle cx="45.0" cy="190.0" r="25.0"
                        fill="white" stroke="black" stroke-width="2"/>
    <polygon points="100.0,165 75,215 125,215"
                        fill="black" stroke="black" stroke-width="2"/>
    <rect x="130" y="165" 
                        width="50" height="50" 
                        fill="white" stroke="black" stroke-width="2"/>
    <polygon points="210.0,165 185,215 235,215"
                        fill="black" stroke="black" stroke-width="2"/>
    <rect x="240" y="165" 
                        width="50" height="50" 
                        fill="white" stroke="black" stroke-width="2"/>
    <polygon points="320.0,165 295,215 345,215"
                        fill="white" stroke="black" stroke-width="2"/>
    <polygon points="375.0,165 350,215 400,215"
                        fill="white" stroke="black" stroke-width="2"/>
    <rect x="405" y="165" 
                        width="50" height="50" 
                        fill="black" stroke="black" stroke-width="2"/>
    <circle cx="485.0" cy="190.0" r="25.0"
                        fill="black" stroke="black" stroke-width="2"/>
    <polygon points="45.0,220 20,270 70,270"
                        fill="white" stroke="black" stroke-width="2"/>
    <circle cx="100.0" cy="245.0" r="25.0"
                        fill="white" stroke="black" stroke-width="2"/>
    <polygon points="155.0,220 130,270 180,270"
                        fill="white" stroke="black" stroke-width="2"/>
    <circle cx="210.0" cy="245.0" r="25.0"
                        fill="white" stroke="black" stroke-width="2"/>
    <rect x="240" y="220" 
                        width="50" height="50" 
                        fill="black" stroke="black" stroke-width="2"/>
    <polygon points="320.0,220 295,270 345,270"
                        fill="white" stroke="black" stroke-width="2"/>
    <polygon points="375.0,220 350,270 400,270"
                        fill="white" stroke="black" stroke-width="2"/>
    <polygon points="430.0,220 405,270 455,270"
                        fill="white" stroke="black" stroke-width="2"/>
    <circle cx="485.0" cy="245.0" r="25.0"
                        fill="black" stroke="black" stroke-width="2"/>
    <polygon points="45.0,275 20,325 70,325"
                        fill="white" stroke="black" stroke-width="2"/>
    <circle cx="100.0" cy="300.0" r="25.0"
                        fill="white" stroke="black" stroke-width="2"/>
    <circle cx="155.0" cy="300.0" r="25.0"
                        fill="black" stroke="black" stroke-width="2"/>
    <circle cx="210.0" cy="300.0" r="25.0"
                        fill="black" stroke="black" stroke-width="2"/>
    <polygon points="265.0,275 240,325 290,325"
                        fill="black" stroke="black" stroke-width="2"/>
    <circle cx="320.0" cy="300.0" r="25.0"
                        fill="black" stroke="black" stroke-width="2"/>
    <circle cx="375.0" cy="300.0" r="25.0"
                        fill="black" stroke="black" stroke-width="2"/>
    <rect x="405" y="275" 
                        width="50" height="50" 
                        fill="black" stroke="black" stroke-width="2"/>
    <polygon points="485.0,275 460,325 510,325"
                        fill="white" stroke="black" stroke-width="2"/>
    <circle cx="45.0" cy="355.0" r="25.0"
                        fill="white" stroke="black" stroke-width="2"/>
    <polygon points="100.0,330 75,380 125,380"
                        fill="black" stroke="black" stroke-width="2"/>
    <rect x="130" y="330" 
                        width="50" height="50" 
                        fill="white" stroke="black" stroke-width="2"/>
    <circle cx="210.0" cy="355.0" r="25.0"
                        fill="white" stroke="black" stroke-width="2"/>
    <circle cx="265.0" cy="355.0" r="25.0"
                        fill="black" stroke="black" stroke-width="2"/>
    <circle cx="320.0" cy="355.0" r="25.0"
                        fill="black" stroke="black" stroke-width="2"/>
    <polygon points="375.0,330 350,380 400,380"
                        fill="white" stroke="black" stroke-width="2"/>
    <circle cx="430.0" cy="355.0" r="25.0"
                        fill="white" stroke="black" stroke-width="2"/>
    <rect x="460" y="330" 
                        width="50" height="50" 
                        fill="white" stroke="black" stroke-width="2"/>
    <rect x="20" y="385" 
                        width="50" height="50" 
                        fill="white" stroke="black" stroke-width="2"/>
    <rect x="75" y="385" 
                        width="50" height="50" 
                        fill="black" stroke="black" stroke-width="2"/>
    <polygon points="155.0,385 130,435 180,435"
                        fill="white" stroke="black" stroke-width="2"/>
    <circle cx="210.0" cy="410.0" r="25.0"
                        fill="black" stroke="black" stroke-width="2"/>
    <rect x="240" y="385" 
                        width="50" height="50" 
                        fill="black" stroke="black" stroke-width="2"/>
    <circle cx="320.0" cy="410.0" r="25.0"
                        fill="white" stroke="black" stroke-width="2"/>
    <polygon points="375.0,385 350,435 400,435"
                        fill="white" stroke="black" stroke-width="2"/>
    <circle cx="430.0" cy="410.0" r="25.0"
                        fill="white" stroke="black" stroke-width="2"/>
    <polygon points="485.0,385 460,435 510,435"
                        fill="white" stroke="black" stroke-width="2"/>
    <polygon points="45.0,440 20,490 70,490"
                        fill="white" stroke="black" stroke-width="2"/>
    <circle cx="100.0" cy="465.0" r="25.0"
                        fill="black" stroke="black" stroke-width="2"/>
    <polygon points="155.0,440 130,490 180,490"
                        fill="white" stroke="black" stroke-width="2"/>
    <polygon points="210.0,440 185,490 235,490"
                        fill="black" stroke="black" stroke-width="2"/>
    <rect x="240" y="440" 
                        width="50" height="50" 
                        fill="white" stroke="black" stroke-width="2"/>
    <rect x="295" y="440" 
                        width="50" height="50" 
                        fill="black" stroke="black" stroke-width="2"/>
    <circle cx="375.0" cy="465.0" r="25.0"
                        fill="white" stroke="black" stroke-width="2"/>
    <circle cx="430.0" cy="465.0" r="25.0"
                        fill="black" stroke="black" stroke-width="2"/>
    <circle cx="485.0" cy="465.0" r="25.0"
                        fill="black" stroke="black" stroke-width="2"/>
    <rect x="565" y="0" 
            width="495" height="495" 
            fill="none" stroke="black" stroke-width="3"/>
    <circle cx="590.0" cy="25.0" r="25.0"
                        fill="black" stroke="black" stroke-width="2"/>
    <polygon points="645.0,0 620,50 670,50"
                        fill="white" stroke="black" stroke-width="2"/>
    <circle cx="700.0" cy="25.0" r="25.0"
                        fill="white" stroke="black" stroke-width="2"/>
    <polygon points="755.0,0 730,50 780,50"
                        fill="white" stroke="black" stroke-width="2"/>
    <circle cx="810.0" cy="25.0" r="25.0"
                        fill="white" stroke="black" stroke-width="2"/>
    <rect x="840" y="0" 
                        width="50" height="50" 
                        fill="black" stroke="black" stroke-width="2"/>
    <rect x="895" y="0" 
                        width="50" height="50" 
                        fill="black" stroke="black" stroke-width="2"/>
    <circle cx="975.0" cy="25.0" r="25.0"
                        fill="white" stroke="black" stroke-width="2"/>
    <polygon points="1030.0,0 1005,50 1055,50"
                        fill="black" stroke="black" stroke-width="2"/>
    <polygon points="590.0,55 565,105 615,105"
                        fill="white" stroke="black" stroke-width="2"/>
    <circle cx="645.0" cy="80.0" r="25.0"
                        fill="white" stroke="black" stroke-width="2"/>
    <rect x="675" y="55" 
                        width="50" height="50" 
                        fill="black" stroke="black" stroke-width="2"/>
    <polygon points="755.0,55 730,105 780,105"
                        fill="white" stroke="black" stroke-width="2"/>
    <circle cx="810.0" cy="80.0" r="25.0"
                        fill="black" stroke="black" stroke-width="2"/>
    <circle cx="865.0" cy="80.0" r="25.0"
                        fill="white" stroke="black" stroke-width="2"/>
    <polygon points="920.0,55 895,105 945,105"
                        fill="black" stroke="black" stroke-width="2"/>
    <rect x="950" y="55" 
                        width="50" height="50" 
                        fill="white" stroke="black" stroke-width="2"/>
    <polygon points="1030.0,55 1005,105 1055,105"
                        fill="white" stroke="black" stroke-width="2"/>
    <polygon points="590.0,110 565,160 615,160"
                        fill="black" stroke="black" stroke-width="2"/>
    <circle cx="645.0" cy="135.0" r="25.0"
                        fill="white" stroke="black" stroke-width="2"/>
    <polygon points="700.0,110 675,160 725,160"
                        fill="black" stroke="black" stroke-width="2"/>
    <circle cx="755.0" cy="135.0" r="25.0"
                        fill="white" stroke="black" stroke-width="2"/>
    <circle cx="810.0" cy="135.0" r="25.0"
                        fill="white" stroke="black" stroke-width="2"/>
    <rect x="840" y="110" 
                        width="50" height="50" 
                        fill="black" stroke="black" stroke-width="2"/>
    <rect x="895" y="110" 
                        width="50" height="50" 
                        fill="black" stroke="black" stroke-width="2"/>
    <rect x="950" y="110" 
                        width="50" height="50" 
                        fill="black" stroke="black" stroke-width="2"/>
    <circle cx="1030.0" cy="135.0" r="25.0"
                        fill="white" stroke="black" stroke-width="2"/>
    <rect x="565" y="165" 
                        width="50" height="50" 
                        fill="black" stroke="black" stroke-width="2"/>
    <rect x="620" y="165" 
                        width="50" height="50" 
                        fill="black" stroke="black" stroke-width="2"/>
    <circle cx="700.0" cy="190.0" r="25.0"
                        fill="white" stroke="black" stroke-width="2"/>
    <circle cx="755.0" cy="190.0" r="25.0"
                        fill="white" stroke="black" stroke-width="2"/>
    <rect x="785" y="165" 
                        width="50" height="50" 
                        fill="white" stroke="black" stroke-width="2"/>
    <rect x="840" y="165" 
                        width="50" height="50" 
                        fill="white" stroke="black" stroke-width="2"/>
    <rect x="895" y="165" 
                        width="50" height="50" 
                        fill="black" stroke="black" stroke-width="2"/>
    <polygon points="975.0,165 950,215 1000,215"
                        fill="white" stroke="black" stroke-width="2"/>
    <circle cx="1030.0" cy="190.0" r="25.0"
                        fill="white" stroke="black" stroke-width="2"/>
    <polygon points="590.0,220 565,270 615,270"
                        fill="white" stroke="black" stroke-width="2"/>
    <rect x="620" y="220" 
                        width="50" height="50" 
                        fill="white" stroke="black" stroke-width="2"/>
    <rect x="675" y="220" 
                        width="50" height="50" 
                        fill="white" stroke="black" stroke-width="2"/>
    <circle cx="755.0" cy="245.0" r="25.0"
                        fill="white" stroke="black" stroke-width="2"/>
    <polygon points="810.0,220 785,270 835,270"
                        fill="black" stroke="black" stroke-width="2"/>
    <polygon points="865.0,220 840,270 890,270"
                        fill="black" stroke="black" stroke-width="2"/>
    <rect x="895" y="220" 
                        width="50" height="50" 
                        fill="black" stroke="black" stroke-width="2"/>
    <circle cx="975.0" cy="245.0" r="25.0"
                        fill="black" stroke="black" stroke-width="2"/>
    <rect x="1005" y="220" 
                        width="50" height="50" 
                        fill="black" stroke="black" stroke-width="2"/>
    <polygon points="590.0,275 565,325 615,325"
                        fill="black" stroke="black" stroke-width="2"/>
    <polygon points="645.0,275 620,325 670,325"
                        fill="white" stroke="black" stroke-width="2"/>
    <polygon points="700.0,275 675,325 725,325"
                        fill="black" stroke="black" stroke-width="2"/>
    <polygon points="755.0,275 730,325 780,325"
                        fill="white" stroke="black" stroke-width="2"/>
    <polygon points="810.0,275 785,325 835,325"
                        fill="black" stroke="black" stroke-width="2"/>
    <rect x="840" y="275" 
                        width="50" height="50" 
                        fill="white" stroke="black" stroke-width="2"/>
    <polygon points="920.0,275 895,325 945,325"
                        fill="black" stroke="black" stroke-width="2"/>
    <circle cx="975.0" cy="300.0" r="25.0"
                        fill="black" stroke="black" stroke-width="2"/>
    <rect x="1005" y="275" 
                        width="50" height="50" 
                        fill="black" stroke="black" stroke-width="2"/>
    <polygon points="590.0,330 565,380 615,380"
                        fill="white" stroke="black" stroke-width="2"/>
    <circle cx="645.0" cy="355.0" r="25.0"
                        fill="black" stroke="black" stroke-width="2"/>
    <rect x="675" y="330" 
                        width="50" height="50" 
                        fill="black" stroke="black" stroke-width="2"/>
    <rect x="730" y="330" 
                        width="50" height="50" 
                        fill="white" stroke="black" stroke-width="2"/>
    <rect x="785" y="330" 
                        width="50" height="50" 
                        fill="white" stroke="black" stroke-width="2"/>
    <circle cx="865.0" cy="355.0" r="25.0"
                        fill="white" stroke="black" stroke-width="2"/>
    <polygon points="920.0,330 895,380 945,380"
                        fill="black" stroke="black" stroke-width="2"/>
    <circle cx="975.0" cy="355.0" r="25.0"
                        fill="black" stroke="black" stroke-width="2"/>
    <circle cx="1030.0" cy="355.0" r="25.0"
                        fill="black" stroke="black" stroke-width="2"/>
    <circle cx="590.0" cy="410.0" r="25.0"
                        fill="black" stroke="black" stroke-width="2"/>
    <circle cx="645.0" cy="410.0" r="25.0"
                        fill="white" stroke="black" stroke-width="2"/>
    <circle cx="700.0" cy="410.0" r="25.0"
                        fill="white" stroke="black" stroke-width="2"/>
    <circle cx="755.0" cy="410.0" r="25.0"
                        fill="black" stroke="black" stroke-width="2"/>
    <polygon points="810.0,385 785,435 835,435"
                        fill="white" stroke="black" stroke-width="2"/>
    <circle cx="865.0" cy="410.0" r="25.0"
                        fill="white" stroke="black" stroke-width="2"/>
    <circle cx="920.0" cy="410.0" r="25.0"
                        fill="black" stroke="black" stroke-width="2"/>
    <rect x="950" y="385" 
                        width="50" height="50" 
                        fill="white" stroke="black" stroke-width="2"/>
    <rect x="1005" y="385" 
                        width="50" height="50" 
                        fill="white" stroke="black" stroke-width="2"/>
    <polygon points="590.0,440 565,490 615,490"
                        fill="black" stroke="black" stroke-width="2"/>
    <rect x="620" y="440" 
                        width="50" height="50" 
                        fill="black" stroke="black" stroke-width="2"/>
    <circle cx="700.0" cy="465.0" r="25.0"
                        fill="black" stroke="black" stroke-width="2"/>
    <rect x="730" y="440" 
                        width="50" height="50" 
                        fill="black" stroke="black" stroke-width="2"/>
    <polygon points="810.0,440 785,490 835,490"
                        fill="black" stroke="black" stroke-width="2"/>
    <circle cx="865.0" cy="465.0" r="25.0"
                        fill="black" stroke="black" stroke-width="2"/>
    <rect x="895" y="440" 
                        width="50" height="50" 
                        fill="white" stroke="black" stroke-width="2"/>
    <rect x="950" y="440" 
                        width="50" height="50" 
                        fill="black" stroke="black" stroke-width="2"/>
    <circle cx="1030.0" cy="465.0" r="25.0"
                        fill="white" stroke="black" stroke-width="2"/>
    <rect x="1110" y="0" 
            width="495" height="495" 
            fill="none" stroke="black" stroke-width="3"/>
    <circle cx="1135.0" cy="25.0" r="25.0"
                        fill="white" stroke="black" stroke-width="2"/>
    <polygon points="1190.0,0 1165,50 1215,50"
                        fill="white" stroke="black" stroke-width="2"/>
    <circle cx="1245.0" cy="25.0" r="25.0"
                        fill="white" stroke="black" stroke-width="2"/>
    <polygon points="1300.0,0 1275,50 1325,50"
                        fill="black" stroke="black" stroke-width="2"/>
    <rect x="1330" y="0" 
                        width="50" height="50" 
                        fill="white" stroke="black" stroke-width="2"/>
    <rect x="1385" y="0" 
                        width="50" height="50" 
                        fill="black" stroke="black" stroke-width="2"/>
    <polygon points="1465.0,0 1440,50 1490,50"
                        fill="black" stroke="black" stroke-width="2"/>
    <rect x="1495" y="0" 
                        width="50" height="50" 
                        fill="white" stroke="black" stroke-width="2"/>
    <polygon points="1575.0,0 1550,50 1600,50"
                        fill="white" stroke="black" stroke-width="2"/>
    <circle cx="1135.0" cy="80.0" r="25.0"
                        fill="black" stroke="black" stroke-width="2"/>
    <rect x="1165" y="55" 
                        width="50" height="50" 
                        fill="white" stroke="black" stroke-width="2"/>
    <polygon points="1245.0,55 1220,105 1270,105"
                        fill="black" stroke="black" stroke-width="2"/>
    <rect x="1275" y="55" 
                        width="50" height="50" 
                        fill="white" stroke="black" stroke-width="2"/>
    <rect x="1330" y="55" 
                        width="50" height="50" 
                        fill="black" stroke="black" stroke-width="2"/>
    <circle cx="1410.0" cy="80.0" r="25.0"
                        fill="black" stroke="black" stroke-width="2"/>
    <rect x="1440" y="55" 
                        width="50" height="50" 
                        fill="white" stroke="black" stroke-width="2"/>
    <circle cx="1520.0" cy="80.0" r="25.0"
                        fill="black" stroke="black" stroke-width="2"/>
    <polygon points="1575.0,55 1550,105 1600,105"
                        fill="black" stroke="black" stroke-width="2"/>
    <rect x="1110" y="110" 
                        width="50" height="50" 
                        fill="black" stroke="black" stroke-width="2"/>
    <rect x="1165" y="110" 
                        width="50" height="50" 
                        fill="white" stroke="black" stroke-width="2"/>
    <polygon points="1245.0,110 1220,160 1270,160"
                        fill="black" stroke="black" stroke-width="2"/>
    <circle cx="1300.0" cy="135.0" r="25.0"
                        fill="white" stroke="black" stroke-width="2"/>
    <circle cx="1355.0" cy="135.0" r="25.0"
                        fill="black" stroke="black" stroke-width="2"/>
    <circle cx="1410.0" cy="135.0" r="25.0"
                        fill="white" stroke="black" stroke-width="2"/>
    <rect x="1440" y="110" 
                        width="50" height="50" 
                        fill="black" stroke="black" stroke-width="2"/>
    <rect x="1495" y="110" 
                        width="50" height="50" 
                        fill="black" stroke="black" stroke-width="2"/>
    <polygon points="1575.0,110 1550,160 1600,160"
                        fill="white" stroke="black" stroke-width="2"/>
    <circle cx="1135.0" cy="190.0" r="25.0"
                        fill="white" stroke="black" stroke-width="2"/>
    <circle cx="1190.0" cy="190.0" r="25.0"
                        fill="white" stroke="black" stroke-width="2"/>
    <polygon points="1245.0,165 1220,215 1270,215"
                        fill="black" stroke="black" stroke-width="2"/>
    <rect x="1275" y="165" 
                        width="50" height="50" 
                        fill="white" stroke="black" stroke-width="2"/>
    <rect x="1330" y="165" 
                        width="50" height="50" 
                        fill="white" stroke="black" stroke-width="2"/>
    <polygon points="1410.0,165 1385,215 1435,215"
                        fill="white" stroke="black" stroke-width="2"/>
    <polygon points="1465.0,165 1440,215 1490,215"
                        fill="black" stroke="black" stroke-width="2"/>
    <polygon points="1520.0,165 1495,215 1545,215"
                        fill="black" stroke="black" stroke-width="2"/>
    <polygon points="1575.0,165 1550,215 1600,215"
                        fill="white" stroke="black" stroke-width="2"/>
    <circle cx="1135.0" cy="245.0" r="25.0"
                        fill="white" stroke="black" stroke-width="2"/>
    <circle cx="1190.0" cy="245.0" r="25.0"
                        fill="white" stroke="black" stroke-width="2"/>
    <polygon points="1245.0,220 1220,270 1270,270"
                        fill="white" stroke="black" stroke-width="2"/>
    <rect x="1275" y="220" 
                        width="50" height="50" 
                        fill="white" stroke="black" stroke-width="2"/>
    <circle cx="1355.0" cy="245.0" r="25.0"
                        fill="black" stroke="black" stroke-width="2"/>
    <polygon points="1410.0,220 1385,270 1435,270"
                        fill="white" stroke="black" stroke-width="2"/>
    <rect x="1440" y="220" 
                        width="50" height="50" 
                        fill="black" stroke="black" stroke-width="2"/>
    <circle cx="1520.0" cy="245.0" r="25.0"
                        fill="black" stroke="black" stroke-width="2"/>
    <polygon points="1575.0,220 1550,270 1600,270"
                        fill="white" stroke="black" stroke-width="2"/>
    <rect x="1110" y="275" 
                        width="50" height="50" 
                        fill="white" stroke="black" stroke-width="2"/>
    <rect x="1165" y="275" 
                        width="50" height="50" 
                        fill="black" stroke="black" stroke-width="2"/>
    <polygon points="1245.0,275 1220,325 1270,325"
                        fill="black" stroke="black" stroke-width="2"/>
    <circle cx="1300.0" cy="300.0" r="25.0"
                        fill="black" stroke="black" stroke-width="2"/>
    <circle cx="1355.0" cy="300.0" r="25.0"
                        fill="black" stroke="black" stroke-width="2"/>
    <polygon points="1410.0,275 1385,325 1435,325"
                        fill="black" stroke="black" stroke-width="2"/>
    <rect x="1440" y="275" 
                        width="50" height="50" 
                        fill="black" stroke="black" stroke-width="2"/>
    <circle cx="1520.0" cy="300.0" r="25.0"
                        fill="white" stroke="black" stroke-width="2"/>
    <polygon points="1575.0,275 1550,325 1600,325"
                        fill="white" stroke="black" stroke-width="2"/>
    <circle cx="1135.0" cy="355.0" r="25.0"
                        fill="black" stroke="black" stroke-width="2"/>
    <circle cx="1190.0" cy="355.0" r="25.0"
                        fill="white" stroke="black" stroke-width="2"/>
    <circle cx="1245.0" cy="355.0" r="25.0"
                        fill="white" stroke="black" stroke-width="2"/>
    <rect x="1275" y="330" 
                        width="50" height="50" 
                        fill="white" stroke="black" stroke-width="2"/>
    <circle cx="1355.0" cy="355.0" r="25.0"
                        fill="white" stroke="black" stroke-width="2"/>
    <rect x="1385" y="330" 
                        width="50" height="50" 
                        fill="white" stroke="black" stroke-width="2"/>
    <rect x="1440" y="330" 
                        width="50" height="50" 
                        fill="white" stroke="black" stroke-width="2"/>
    <rect x="1495" y="330" 
                        width="50" height="50" 
                        fill="black" stroke="black" stroke-width="2"/>
    <polygon points="1575.0,330 1550,380 1600,380"
                        fill="white" stroke="black" stroke-width="2"/>
    <rect x="1110" y="385" 
                        width="50" height="50" 
                        fill="white" stroke="black" stroke-width="2"/>
    <circle cx="1190.0" cy="410.0" r="25.0"
                        fill="white" stroke="black" stroke-width="2"/>
    <circle cx="1245.0" cy="410.0" r="25.0"
                        fill="white" stroke="black" stroke-width="2"/>
    <circle cx="1300.0" cy="410.0" r="25.0"
                        fill="white" stroke="black" stroke-width="2"/>
    <rect x="1330" y="385" 
                        width="50" height="50" 
                        fill="black" stroke="black" stroke-width="2"/>
    <polygon points="1410.0,385 1385,435 1435,435"
                        fill="white" stroke="black" stroke-width="2"/>
    <polygon points="1465.0,385 1440,435 1490,435"
                        fill="white" stroke="black" stroke-width="2"/>
    <circle cx="1520.0" cy="410.0" r="25.0"
                        fill="white" stroke="black" stroke-width="2"/>
    <circle cx="1575.0" cy="410.0" r="25.0"
                        fill="white" stroke="black" stroke-width="2"/>
    <circle cx="1135.0" cy="465.0" r="25.0"
                        fill="black" stroke="black" stroke-width="2"/>
    <circle cx="1190.0" cy="465.0" r="25.0"
                        fill="white" stroke="black" stroke-width="2"/>
    <circle cx="1245.0" cy="465.0" r="25.0"
                        fill="black" stroke="black" stroke-width="2"/>
    <circle cx="1300.0" cy="465.0" r="25.0"
                        fill="white" stroke="black" stroke-width="2"/>
    <circle cx="1355.0" cy="465.0" r="25.0"
                        fill="black" stroke="black" stroke-width="2"/>
    <circle cx="1410.0" cy="465.0" r="25.0"
                        fill="white" stroke="black" stroke-width="2"/>
    <circle cx="1465.0" cy="465.0" r="25.0"
                        fill="white" stroke="black" stroke-width="2"/>
    <polygon points="1520.0,440 1495,490 1545,490"
                        fill="white" stroke="black" stroke-width="2"/>
    <polygon points="1575.0,440 1550,490 1600,490"
                        fill="white" stroke="black" stroke-width="2"/>
</svg>