<?xml version="1.0" encoding="UTF-8" standalone="no"?>
<svg width="1130" height="165" xmlns="http://www.w3.org/2000/svg">
    <!-- White background -->
    <rect width="1130" height="165" fill="white"/>
    <rect x="20" y="0" 
            width="330" height="165" 
            fill="none" stroke="black" stroke-width="3"/>
    <rect x="20" y="0" 
                        width="50" height="50" 
                        fill="black" stroke="black" stroke-width="2"/>
    <polygon points="100.0,0 75,50 125,50"
                        fill="white" stroke="black" stroke-width="2"/>
    <rect x="130" y="0" 
                        width="50" height="50" 
                        fill="black" stroke="black" stroke-width="2"/>
    <polygon points="210.0,0 185,50 235,50"
                        fill="black" stroke="black" stroke-width="2"/>
    <polygon points="265.0,0 240,50 290,50"
                        fill="white" stroke="black" stroke-width="2"/>
    <circle cx="320.0" cy="25.0" r="25.0"
                        fill="black" stroke="black" stroke-width="2"/>
    <polygon points="45.0,55 20,105 70,105"
                        fill="black" stroke="black" stroke-width="2"/>
    <polygon points="100.0,55 75,105 125,105"
                        fill="white" stroke="black" stroke-width="2"/>
    <polygon points="155.0,55 130,105 180,105"
                        fill="black" stroke="black" stroke-width="2"/>
    <rect x="185" y="55" 
                        width="50" height="50" 
                        fill="white" stroke="black" stroke-width="2"/>
    <polygon points="265.0,55 240,105 290,105"
                        fill="black" stroke="black" stroke-width="2"/>
    <rect x="295" y="55" 
                        width="50" height="50" 
                        fill="white" stroke="black" stroke-width="2"/>
    <circle cx="45.0" cy="135.0" r="25.0"
                        fill="white" stroke="black" stroke-width="2"/>
    <circle cx="100.0" cy="135.0" r="25.0"
                        fill="black" stroke="black" stroke-width="2"/>
    <rect x="130" y="110" 
                        width="50" height="50" 
                        fill="black" stroke="black" stroke-width="2"/>
    <circle cx="210.0" cy="135.0" r="25.0"
                        fill="white" stroke="black" stroke-width="2"/>
    <circle cx="265.0" cy="135.0" r="25.0"
                        fill="black" stroke="black" stroke-width="2"/>
    <rect x="295" y="110" 
                        width="50" height="50" 
                        fill="white" stroke="black" stroke-width="2"/>
    <rect x="400" y="0" 
            width="330" height="165" 
            fill="none" stroke="black" stroke-width="3"/>
    <circle cx="425.0" cy="25.0" r="25.0"
                        fill="white" stroke="black" stroke-width="2"/>
    <circle cx="480.0" cy="25.0" r="25.0"
                        fill="white" stroke="black" stroke-width="2"/>
    <rect x="510" y="0" 
                        width="50" height="50" 
                        fill="white" stroke="black" stroke-width="2"/>
    <rect x="565" y="0" 
                        width="50" height="50" 
                        fill="black" stroke="black" stroke-width="2"/>
    <circle cx="645.0" cy="25.0" r="25.0"
                        fill="white" stroke="black" stroke-width="2"/>
    <circle cx="700.0" cy="25.0" r="25.0"
                        fill="black" stroke="black" stroke-width="2"/>
    <rect x="400" y="55" 
                        width="50" height="50" 
                        fill="black" stroke="black" stroke-width="2"/>
    <polygon points="480.0,55 455,105 505,105"
                        fill="white" stroke="black" stroke-width="2"/>
    <rect x="510" y="55" 
                        width="50" height="50" 
                        fill="black" stroke="black" stroke-width="2"/>
    <polygon points="590.0,55 565,105 615,105"
                        fill="black" stroke="black" stroke-width="2"/>
    <rect x="620" y="55" 
                        width="50" height="50" 
                        fill="white" stroke="black" stroke-width="2"/>
    <rect x="675" y="55" 
                        width="50" height="50" 
                        fill="black" stroke="black" stroke-width="2"/>
    <polygon points="425.0,110 400,160 450,160"
                        fill="white" stroke="black" stroke-width="2"/>
    <polygon points="480.0,110 455,160 505,160"
                        fill="white" stroke="black" stroke-width="2"/>
    <polygon points="535.0,110 510,160 560,160"
                        fill="white" stroke="black" stroke-width="2"/>
    <circle cx="590.0" cy="135.0" r="25.0"
                        fill="white" stroke="black" stroke-width="2"/>
    <polygon points="645.0,110 620,160 670,160"
                        fill="white" stroke="black" stroke-width="2"/>
    <circle cx="700.0" cy="135.0" r="25.0"
                        fill="black" stroke="black" stroke-width="2"/>
    <rect x="780" y="0" 
            width="330" height="165" 
            fill="none" stroke="black" stroke-width="3"/>
    <circle cx="805.0" cy="25.0" r="25.0"
                        fill="white" stroke="black" stroke-width="2"/>
    <circle cx="860.0" cy="25.0" r="25.0"
                        fill="white" stroke="black" stroke-width="2"/>
    <rect x="890" y="0" 
                        width="50" height="50" 
                        fill="black" stroke="black" stroke-width="2"/>
    <polygon points="970.0,0 945,50 995,50"
                        fill="black" stroke="black" stroke-width="2"/>
    <circle cx="1025.0" cy="25.0" r="25.0"
                        fill="black" stroke="black" stroke-width="2"/>
    <rect x="1055" y="0" 
                        width="50" height="50" 
                        fill="white" stroke="black" stroke-width="2"/>
    <circle cx="805.0" cy="80.0" r="25.0"
                        fill="white" stroke="black" stroke-width="2"/>
    <circle cx="860.0" cy="80.0" r="25.0"
                        fill="black" stroke="black" stroke-width="2"/>
    <circle cx="915.0" cy="80.0" r="25.0"
                        fill="white" stroke="black" stroke-width="2"/>
    <circle cx="970.0" cy="80.0" r="25.0"
                        fill="black" stroke="black" stroke-width="2"/>
    <rect x="1000" y="55" 
                        width="50" height="50" 
                        fill="white" stroke="black" stroke-width="2"/>
    <circle cx="1080.0" cy="80.0" r="25.0"
                        fill="black" stroke="black" stroke-width="2"/>
    <rect x="780" y="110" 
                        width="50" height="50" 
                        fill="white" stroke="black" stroke-width="2"/>
    <rect x="835" y="110" 
                        width="50" height="50" 
                        fill="white" stroke="black" stroke-width="2"/>
    <circle cx="915.0" cy="135.0" r="25.0"
                        fill="black" stroke="black" stroke-width="2"/>
    <circle cx="970.0" cy="135.0" r="25.0"
                        fill="white" stroke="black" stroke-width="2"/>
    <circle cx="1025.0" cy="135.0" r="25.0"
                        fill="black" stroke="black" stroke-width="2"/>
    <circle cx="1080.0" cy="135.0" r="25.0"
                        fill="white" stroke="black" stroke-width="2"/>
</svg>