<?xml version="1.0" encoding="UTF-8" standalone="no"?>
<svg width="1890" height="165" xmlns="http://www.w3.org/2000/svg">
    <!-- White background -->
    <rect width="1890" height="165" fill="white"/>
    <rect x="20" y="0" 
            width="330" height="165" 
            fill="none" stroke="black" stroke-width="3"/>
    <rect x="20" y="0" 
                        width="50" height="50" 
                        fill="white" stroke="black" stroke-width="2"/>
    <circle cx="100.0" cy="25.0" r="25.0"
                        fill="white" stroke="black" stroke-width="2"/>
    <rect x="130" y="0" 
                        width="50" height="50" 
                        fill="white" stroke="black" stroke-width="2"/>
    <circle cx="210.0" cy="25.0" r="25.0"
                        fill="black" stroke="black" stroke-width="2"/>
    <circle cx="265.0" cy="25.0" r="25.0"
                        fill="black" stroke="black" stroke-width="2"/>
    <rect x="295" y="0" 
                        width="50" height="50" 
                        fill="black" stroke="black" stroke-width="2"/>
    <rect x="20" y="55" 
                        width="50" height="50" 
                        fill="black" stroke="black" stroke-width="2"/>
    <polygon points="100.0,55 75,105 125,105"
                        fill="white" stroke="black" stroke-width="2"/>
    <polygon points="155.0,55 130,105 180,105"
                        fill="black" stroke="black" stroke-width="2"/>
    <circle cx="210.0" cy="80.0" r="25.0"
                        fill="black" stroke="black" stroke-width="2"/>
    <polygon points="265.0,55 240,105 290,105"
                        fill="black" stroke="black" stroke-width="2"/>
    <rect x="295" y="55" 
                        width="50" height="50" 
                        fill="black" stroke="black" stroke-width="2"/>
    <polygon points="45.0,110 20,160 70,160"
                        fill="black" stroke="black" stroke-width="2"/>
    <circle cx="100.0" cy="135.0" r="25.0"
                        fill="white" stroke="black" stroke-width="2"/>
    <circle cx="155.0" cy="135.0" r="25.0"
                        fill="black" stroke="black" stroke-width="2"/>
    <rect x="185" y="110" 
                        width="50" height="50" 
                        fill="white" stroke="black" stroke-width="2"/>
    <rect x="240" y="110" 
                        width="50" height="50" 
                        fill="white" stroke="black" stroke-width="2"/>
    <rect x="295" y="110" 
                        width="50" height="50" 
                        fill="black" stroke="black" stroke-width="2"/>
    <rect x="400" y="0" 
            width="330" height="165" 
            fill="none" stroke="black" stroke-width="3"/>
    <polygon points="425.0,0 400,50 450,50"
                        fill="white" stroke="black" stroke-width="2"/>
    <polygon points="480.0,0 455,50 505,50"
                        fill="white" stroke="black" stroke-width="2"/>
    <circle cx="535.0" cy="25.0" r="25.0"
                        fill="black" stroke="black" stroke-width="2"/>
    <polygon points="590.0,0 565,50 615,50"
                        fill="black" stroke="black" stroke-width="2"/>
    <circle cx="645.0" cy="25.0" r="25.0"
                        fill="white" stroke="black" stroke-width="2"/>
    <polygon points="700.0,0 675,50 725,50"
                        fill="black" stroke="black" stroke-width="2"/>
    <rect x="400" y="55" 
                        width="50" height="50" 
                        fill="black" stroke="black" stroke-width="2"/>
    <rect x="455" y="55" 
                        width="50" height="50" 
                        fill="white" stroke="black" stroke-width="2"/>
    <polygon points="535.0,55 510,105 560,105"
                        fill="white" stroke="black" stroke-width="2"/>
    <rect x="565" y="55" 
                        width="50" height="50" 
                        fill="white" stroke="black" stroke-width="2"/>
    <rect x="620" y="55" 
                        width="50" height="50" 
                        fill="black" stroke="black" stroke-width="2"/>
    <polygon points="700.0,55 675,105 725,105"
                        fill="white" stroke="black" stroke-width="2"/>
    <rect x="400" y="110" 
                        width="50" height="50" 
                        fill="black" stroke="black" stroke-width="2"/>
    <circle cx="480.0" cy="135.0" r="25.0"
                        fill="white" stroke="black" stroke-width="2"/>
    <rect x="510" y="110" 
                        width="50" height="50" 
                        fill="white" stroke="black" stroke-width="2"/>
    <rect x="565" y="110" 
                        width="50" height="50" 
                        fill="black" stroke="black" stroke-width="2"/>
    <polygon points="645.0,110 620,160 670,160"
                        fill="black" stroke="black" stroke-width="2"/>
    <circle cx="700.0" cy="135.0" r="25.0"
                        fill="black" stroke="black" stroke-width="2"/>
    <rect x="780" y="0" 
            width="330" height="165" 
            fill="none" stroke="black" stroke-width="3"/>
    <circle cx="805.0" cy="25.0" r="25.0"
                        fill="white" stroke="black" stroke-width="2"/>
    <rect x="835" y="0" 
                        width="50" height="50" 
                        fill="white" stroke="black" stroke-width="2"/>
    <rect x="890" y="0" 
                        width="50" height="50" 
                        fill="black" stroke="black" stroke-width="2"/>
    <rect x="945" y="0" 
                        width="50" height="50" 
                        fill="white" stroke="black" stroke-width="2"/>
    <polygon points="1025.0,0 1000,50 1050,50"
                        fill="black" stroke="black" stroke-width="2"/>
    <polygon points="1080.0,0 1055,50 1105,50"
                        fill="black" stroke="black" stroke-width="2"/>
    <circle cx="805.0" cy="80.0" r="25.0"
                        fill="black" stroke="black" stroke-width="2"/>
    <circle cx="860.0" cy="80.0" r="25.0"
                        fill="black" stroke="black" stroke-width="2"/>
    <polygon points="915.0,55 890,105 940,105"
                        fill="black" stroke="black" stroke-width="2"/>
    <polygon points="970.0,55 945,105 995,105"
                        fill="black" stroke="black" stroke-width="2"/>
    <circle cx="1025.0" cy="80.0" r="25.0"
                        fill="white" stroke="black" stroke-width="2"/>
    <circle cx="1080.0" cy="80.0" r="25.0"
                        fill="black" stroke="black" stroke-width="2"/>
    <polygon points="805.0,110 780,160 830,160"
                        fill="white" stroke="black" stroke-width="2"/>
    <polygon points="860.0,110 835,160 885,160"
                        fill="white" stroke="black" stroke-width="2"/>
    <polygon points="915.0,110 890,160 940,160"
                        fill="white" stroke="black" stroke-width="2"/>
    <polygon points="970.0,110 945,160 995,160"
                        fill="black" stroke="black" stroke-width="2"/>
    <rect x="1000" y="110" 
                        width="50" height="50" 
                        fill="white" stroke="black" stroke-width="2"/>
    <circle cx="1080.0" cy="135.0" r="25.0"
                        fill="black" stroke="black" stroke-width="2"/>
    <rect x="1160" y="0" 
            width="330" height="165" 
            fill="none" stroke="black" stroke-width="3"/>
    <polygon points="1185.0,0 1160,50 1210,50"
                        fill="black" stroke="black" stroke-width="2"/>
    <polygon points="1240.0,0 1215,50 1265,50"
                        fill="white" stroke="black" stroke-width="2"/>
    <circle cx="1295.0" cy="25.0" r="25.0"
                        fill="black" stroke="black" stroke-width="2"/>
    <rect x="1325" y="0" 
                        width="50" height="50" 
                        fill="black" stroke="black" stroke-width="2"/>
    <polygon points="1405.0,0 1380,50 1430,50"
                        fill="white" stroke="black" stroke-width="2"/>
    <rect x="1435" y="0" 
                        width="50" height="50" 
                        fill="black" stroke="black" stroke-width="2"/>
    <rect x="1160" y="55" 
                        width="50" height="50" 
                        fill="white" stroke="black" stroke-width="2"/>
    <polygon points="1240.0,55 1215,105 1265,105"
                        fill="black" stroke="black" stroke-width="2"/>
    <polygon points="1295.0,55 1270,105 1320,105"
                        fill="white" stroke="black" stroke-width="2"/>
    <polygon points="1350.0,55 1325,105 1375,105"
                        fill="white" stroke="black" stroke-width="2"/>
    <circle cx="1405.0" cy="80.0" r="25.0"
                        fill="white" stroke="black" stroke-width="2"/>
    <rect x="1435" y="55" 
                        width="50" height="50" 
                        fill="white" stroke="black" stroke-width="2"/>
    <polygon points="1185.0,110 1160,160 1210,160"
                        fill="black" stroke="black" stroke-width="2"/>
    <rect x="1215" y="110" 
                        width="50" height="50" 
                        fill="white" stroke="black" stroke-width="2"/>
    <rect x="1270" y="110" 
                        width="50" height="50" 
                        fill="white" stroke="black" stroke-width="2"/>
    <circle cx="1350.0" cy="135.0" r="25.0"
                        fill="black" stroke="black" stroke-width="2"/>
    <polygon points="1405.0,110 1380,160 1430,160"
                        fill="white" stroke="black" stroke-width="2"/>
    <polygon points="1460.0,110 1435,160 1485,160"
                        fill="white" stroke="black" stroke-width="2"/>
    <rect x="1540" y="0" 
            width="330" height="165" 
            fill="none" stroke="black" stroke-width="3"/>
    <polygon points="1565.0,0 1540,50 1590,50"
                        fill="black" stroke="black" stroke-width="2"/>
    <polygon points="1620.0,0 1595,50 1645,50"
                        fill="black" stroke="black" stroke-width="2"/>
    <polygon points="1675.0,0 1650,50 1700,50"
                        fill="white" stroke="black" stroke-width="2"/>
    <polygon points="1730.0,0 1705,50 1755,50"
                        fill="white" stroke="black" stroke-width="2"/>
    <rect x="1760" y="0" 
                        width="50" height="50" 
                        fill="white" stroke="black" stroke-width="2"/>
    <rect x="1815" y="0" 
                        width="50" height="50" 
                        fill="black" stroke="black" stroke-width="2"/>
    <circle cx="1565.0" cy="80.0" r="25.0"
                        fill="white" stroke="black" stroke-width="2"/>
    <rect x="1595" y="55" 
                        width="50" height="50" 
                        fill="black" stroke="black" stroke-width="2"/>
    <circle cx="1675.0" cy="80.0" r="25.0"
                        fill="black" stroke="black" stroke-width="2"/>
    <circle cx="1730.0" cy="80.0" r="25.0"
                        fill="black" stroke="black" stroke-width="2"/>
    <rect x="1760" y="55" 
                        width="50" height="50" 
                        fill="white" stroke="black" stroke-width="2"/>
    <rect x="1815" y="55" 
                        width="50" height="50" 
                        fill="white" stroke="black" stroke-width="2"/>
    <circle cx="1565.0" cy="135.0" r="25.0"
                        fill="white" stroke="black" stroke-width="2"/>
    <rect x="1595" y="110" 
                        width="50" height="50" 
                        fill="white" stroke="black" stroke-width="2"/>
    <rect x="1650" y="110" 
                        width="50" height="50" 
                        fill="black" stroke="black" stroke-width="2"/>
    <rect x="1705" y="110" 
                        width="50" height="50" 
                        fill="black" stroke="black" stroke-width="2"/>
    <polygon points="1785.0,110 1760,160 1810,160"
                        fill="black" stroke="black" stroke-width="2"/>
    <circle cx="1840.0" cy="135.0" r="25.0"
                        fill="black" stroke="black" stroke-width="2"/>
</svg>