<?xml version="1.0" encoding="UTF-8" standalone="no"?>
<svg width="1890" height="165" xmlns="http://www.w3.org/2000/svg">
    <!-- White background -->
    <rect width="1890" height="165" fill="white"/>
    <rect x="20" y="0" 
            width="330" height="165" 
            fill="none" stroke="black" stroke-width="3"/>
    <rect x="20" y="0" 
                        width="50" height="50" 
                        fill="black" stroke="black" stroke-width="2"/>
    <rect x="75" y="0" 
                        width="50" height="50" 
                        fill="black" stroke="black" stroke-width="2"/>
    <circle cx="155.0" cy="25.0" r="25.0"
                        fill="white" stroke="black" stroke-width="2"/>
    <polygon points="210.0,0 185,50 235,50"
                        fill="black" stroke="black" stroke-width="2"/>
    <polygon points="265.0,0 240,50 290,50"
                        fill="black" stroke="black" stroke-width="2"/>
    <circle cx="320.0" cy="25.0" r="25.0"
                        fill="white" stroke="black" stroke-width="2"/>
    <polygon points="45.0,55 20,105 70,105"
                        fill="white" stroke="black" stroke-width="2"/>
    <polygon points="100.0,55 75,105 125,105"
                        fill="black" stroke="black" stroke-width="2"/>
    <rect x="130" y="55" 
                        width="50" height="50" 
                        fill="black" stroke="black" stroke-width="2"/>
    <rect x="185" y="55" 
                        width="50" height="50" 
                        fill="black" stroke="black" stroke-width="2"/>
    <circle cx="265.0" cy="80.0" r="25.0"
                        fill="black" stroke="black" stroke-width="2"/>
    <circle cx="320.0" cy="80.0" r="25.0"
                        fill="black" stroke="black" stroke-width="2"/>
    <circle cx="45.0" cy="135.0" r="25.0"
                        fill="white" stroke="black" stroke-width="2"/>
    <polygon points="100.0,110 75,160 125,160"
                        fill="black" stroke="black" stroke-width="2"/>
    <rect x="130" y="110" 
                        width="50" height="50" 
                        fill="white" stroke="black" stroke-width="2"/>
    <circle cx="210.0" cy="135.0" r="25.0"
                        fill="white" stroke="black" stroke-width="2"/>
    <polygon points="265.0,110 240,160 290,160"
                        fill="black" stroke="black" stroke-width="2"/>
    <circle cx="320.0" cy="135.0" r="25.0"
                        fill="white" stroke="black" stroke-width="2"/>
    <rect x="400" y="0" 
            width="330" height="165" 
            fill="none" stroke="black" stroke-width="3"/>
    <polygon points="425.0,0 400,50 450,50"
                        fill="white" stroke="black" stroke-width="2"/>
    <polygon points="480.0,0 455,50 505,50"
                        fill="white" stroke="black" stroke-width="2"/>
    <circle cx="535.0" cy="25.0" r="25.0"
                        fill="black" stroke="black" stroke-width="2"/>
    <rect x="565" y="0" 
                        width="50" height="50" 
                        fill="black" stroke="black" stroke-width="2"/>
    <circle cx="645.0" cy="25.0" r="25.0"
                        fill="black" stroke="black" stroke-width="2"/>
    <circle cx="700.0" cy="25.0" r="25.0"
                        fill="black" stroke="black" stroke-width="2"/>
    <circle cx="425.0" cy="80.0" r="25.0"
                        fill="white" stroke="black" stroke-width="2"/>
    <polygon points="480.0,55 455,105 505,105"
                        fill="black" stroke="black" stroke-width="2"/>
    <rect x="510" y="55" 
                        width="50" height="50" 
                        fill="white" stroke="black" stroke-width="2"/>
    <circle cx="590.0" cy="80.0" r="25.0"
                        fill="white" stroke="black" stroke-width="2"/>
    <polygon points="645.0,55 620,105 670,105"
                        fill="white" stroke="black" stroke-width="2"/>
    <rect x="675" y="55" 
                        width="50" height="50" 
                        fill="white" stroke="black" stroke-width="2"/>
    <rect x="400" y="110" 
                        width="50" height="50" 
                        fill="white" stroke="black" stroke-width="2"/>
    <polygon points="480.0,110 455,160 505,160"
                        fill="black" stroke="black" stroke-width="2"/>
    <circle cx="535.0" cy="135.0" r="25.0"
                        fill="black" stroke="black" stroke-width="2"/>
    <rect x="565" y="110" 
                        width="50" height="50" 
                        fill="white" stroke="black" stroke-width="2"/>
    <circle cx="645.0" cy="135.0" r="25.0"
                        fill="white" stroke="black" stroke-width="2"/>
    <rect x="675" y="110" 
                        width="50" height="50" 
                        fill="black" stroke="black" stroke-width="2"/>
    <rect x="780" y="0" 
            width="330" height="165" 
            fill="none" stroke="black" stroke-width="3"/>
    <circle cx="805.0" cy="25.0" r="25.0"
                        fill="black" stroke="black" stroke-width="2"/>
    <rect x="835" y="0" 
                        width="50" height="50" 
                        fill="black" stroke="black" stroke-width="2"/>
    <circle cx="915.0" cy="25.0" r="25.0"
                        fill="black" stroke="black" stroke-width="2"/>
    <circle cx="970.0" cy="25.0" r="25.0"
                        fill="black" stroke="black" stroke-width="2"/>
    <rect x="1000" y="0" 
                        width="50" height="50" 
                        fill="black" stroke="black" stroke-width="2"/>
    <rect x="1055" y="0" 
                        width="50" height="50" 
                        fill="white" stroke="black" stroke-width="2"/>
    <circle cx="805.0" cy="80.0" r="25.0"
                        fill="black" stroke="black" stroke-width="2"/>
    <rect x="835" y="55" 
                        width="50" height="50" 
                        fill="black" stroke="black" stroke-width="2"/>
    <polygon points="915.0,55 890,105 940,105"
                        fill="black" stroke="black" stroke-width="2"/>
    <circle cx="970.0" cy="80.0" r="25.0"
                        fill="black" stroke="black" stroke-width="2"/>
    <rect x="1000" y="55" 
                        width="50" height="50" 
                        fill="black" stroke="black" stroke-width="2"/>
    <rect x="1055" y="55" 
                        width="50" height="50" 
                        fill="white" stroke="black" stroke-width="2"/>
    <circle cx="805.0" cy="135.0" r="25.0"
                        fill="black" stroke="black" stroke-width="2"/>
    <circle cx="860.0" cy="135.0" r="25.0"
                        fill="white" stroke="black" stroke-width="2"/>
    <polygon points="915.0,110 890,160 940,160"
                        fill="white" stroke="black" stroke-width="2"/>
    <rect x="945" y="110" 
                        width="50" height="50" 
                        fill="black" stroke="black" stroke-width="2"/>
    <polygon points="1025.0,110 1000,160 1050,160"
                        fill="black" stroke="black" stroke-width="2"/>
    <circle cx="1080.0" cy="135.0" r="25.0"
                        fill="black" stroke="black" stroke-width="2"/>
    <rect x="1160" y="0" 
            width="330" height="165" 
            fill="none" stroke="black" stroke-width="3"/>
    <polygon points="1185.0,0 1160,50 1210,50"
                        fill="white" stroke="black" stroke-width="2"/>
    <polygon points="1240.0,0 1215,50 1265,50"
                        fill="black" stroke="black" stroke-width="2"/>
    <polygon points="1295.0,0 1270,50 1320,50"
                        fill="black" stroke="black" stroke-width="2"/>
    <rect x="1325" y="0" 
                        width="50" height="50" 
                        fill="white" stroke="black" stroke-width="2"/>
    <rect x="1380" y="0" 
                        width="50" height="50" 
                        fill="white" stroke="black" stroke-width="2"/>
    <polygon points="1460.0,0 1435,50 1485,50"
                        fill="black" stroke="black" stroke-width="2"/>
    <circle cx="1185.0" cy="80.0" r="25.0"
                        fill="white" stroke="black" stroke-width="2"/>
    <rect x="1215" y="55" 
                        width="50" height="50" 
                        fill="black" stroke="black" stroke-width="2"/>
    <rect x="1270" y="55" 
                        width="50" height="50" 
                        fill="black" stroke="black" stroke-width="2"/>
    <rect x="1325" y="55" 
                        width="50" height="50" 
                        fill="white" stroke="black" stroke-width="2"/>
    <polygon points="1405.0,55 1380,105 1430,105"
                        fill="white" stroke="black" stroke-width="2"/>
    <circle cx="1460.0" cy="80.0" r="25.0"
                        fill="white" stroke="black" stroke-width="2"/>
    <polygon points="1185.0,110 1160,160 1210,160"
                        fill="black" stroke="black" stroke-width="2"/>
    <rect x="1215" y="110" 
                        width="50" height="50" 
                        fill="black" stroke="black" stroke-width="2"/>
    <circle cx="1295.0" cy="135.0" r="25.0"
                        fill="black" stroke="black" stroke-width="2"/>
    <polygon points="1350.0,110 1325,160 1375,160"
                        fill="black" stroke="black" stroke-width="2"/>
    <polygon points="1405.0,110 1380,160 1430,160"
                        fill="black" stroke="black" stroke-width="2"/>
    <circle cx="1460.0" cy="135.0" r="25.0"
                        fill="white" stroke="black" stroke-width="2"/>
    <rect x="1540" y="0" 
            width="330" height="165" 
            fill="none" stroke="black" stroke-width="3"/>
    <rect x="1540" y="0" 
                        width="50" height="50" 
                        fill="black" stroke="black" stroke-width="2"/>
    <rect x="1595" y="0" 
                        width="50" height="50" 
                        fill="white" stroke="black" stroke-width="2"/>
    <polygon points="1675.0,0 1650,50 1700,50"
                        fill="white" stroke="black" stroke-width="2"/>
    <circle cx="1730.0" cy="25.0" r="25.0"
                        fill="black" stroke="black" stroke-width="2"/>
    <polygon points="1785.0,0 1760,50 1810,50"
                        fill="black" stroke="black" stroke-width="2"/>
    <polygon points="1840.0,0 1815,50 1865,50"
                        fill="black" stroke="black" stroke-width="2"/>
    <polygon points="1565.0,55 1540,105 1590,105"
                        fill="black" stroke="black" stroke-width="2"/>
    <polygon points="1620.0,55 1595,105 1645,105"
                        fill="white" stroke="black" stroke-width="2"/>
    <rect x="1650" y="55" 
                        width="50" height="50" 
                        fill="black" stroke="black" stroke-width="2"/>
    <rect x="1705" y="55" 
                        width="50" height="50" 
                        fill="white" stroke="black" stroke-width="2"/>
    <polygon points="1785.0,55 1760,105 1810,105"
                        fill="black" stroke="black" stroke-width="2"/>
    <rect x="1815" y="55" 
                        width="50" height="50" 
                        fill="black" stroke="black" stroke-width="2"/>
    <polygon points="1565.0,110 1540,160 1590,160"
                        fill="white" stroke="black" stroke-width="2"/>
    <circle cx="1620.0" cy="135.0" r="25.0"
                        fill="white" stroke="black" stroke-width="2"/>
    <circle cx="1675.0" cy="135.0" r="25.0"
                        fill="black" stroke="black" stroke-width="2"/>
    <polygon points="1730.0,110 1705,160 1755,160"
                        fill="white" stroke="black" stroke-width="2"/>
    <rect x="1760" y="110" 
                        width="50" height="50" 
                        fill="black" stroke="black" stroke-width="2"/>
    <circle cx="1840.0" cy="135.0" r="25.0"
                        fill="white" stroke="black" stroke-width="2"/>
</svg>