<?xml version="1.0" encoding="UTF-8" standalone="no"?>
<svg width="1890" height="165" xmlns="http://www.w3.org/2000/svg">
    <!-- White background -->
    <rect width="1890" height="165" fill="white"/>
    <rect x="20" y="0" 
            width="330" height="165" 
            fill="none" stroke="black" stroke-width="3"/>
    <rect x="20" y="0" 
                        width="50" height="50" 
                        fill="white" stroke="black" stroke-width="2"/>
    <rect x="75" y="0" 
                        width="50" height="50" 
                        fill="black" stroke="black" stroke-width="2"/>
    <circle cx="155.0" cy="25.0" r="25.0"
                        fill="black" stroke="black" stroke-width="2"/>
    <polygon points="210.0,0 185,50 235,50"
                        fill="white" stroke="black" stroke-width="2"/>
    <circle cx="265.0" cy="25.0" r="25.0"
                        fill="white" stroke="black" stroke-width="2"/>
    <polygon points="320.0,0 295,50 345,50"
                        fill="white" stroke="black" stroke-width="2"/>
    <circle cx="45.0" cy="80.0" r="25.0"
                        fill="white" stroke="black" stroke-width="2"/>
    <rect x="75" y="55" 
                        width="50" height="50" 
                        fill="black" stroke="black" stroke-width="2"/>
    <polygon points="155.0,55 130,105 180,105"
                        fill="white" stroke="black" stroke-width="2"/>
    <polygon points="210.0,55 185,105 235,105"
                        fill="white" stroke="black" stroke-width="2"/>
    <polygon points="265.0,55 240,105 290,105"
                        fill="white" stroke="black" stroke-width="2"/>
    <polygon points="320.0,55 295,105 345,105"
                        fill="black" stroke="black" stroke-width="2"/>
    <polygon points="45.0,110 20,160 70,160"
                        fill="white" stroke="black" stroke-width="2"/>
    <rect x="75" y="110" 
                        width="50" height="50" 
                        fill="black" stroke="black" stroke-width="2"/>
    <circle cx="155.0" cy="135.0" r="25.0"
                        fill="black" stroke="black" stroke-width="2"/>
    <rect x="185" y="110" 
                        width="50" height="50" 
                        fill="white" stroke="black" stroke-width="2"/>
    <polygon points="265.0,110 240,160 290,160"
                        fill="black" stroke="black" stroke-width="2"/>
    <circle cx="320.0" cy="135.0" r="25.0"
                        fill="white" stroke="black" stroke-width="2"/>
    <rect x="400" y="0" 
            width="330" height="165" 
            fill="none" stroke="black" stroke-width="3"/>
    <circle cx="425.0" cy="25.0" r="25.0"
                        fill="white" stroke="black" stroke-width="2"/>
    <circle cx="480.0" cy="25.0" r="25.0"
                        fill="white" stroke="black" stroke-width="2"/>
    <circle cx="535.0" cy="25.0" r="25.0"
                        fill="black" stroke="black" stroke-width="2"/>
    <circle cx="590.0" cy="25.0" r="25.0"
                        fill="white" stroke="black" stroke-width="2"/>
    <polygon points="645.0,0 620,50 670,50"
                        fill="white" stroke="black" stroke-width="2"/>
    <circle cx="700.0" cy="25.0" r="25.0"
                        fill="white" stroke="black" stroke-width="2"/>
    <circle cx="425.0" cy="80.0" r="25.0"
                        fill="black" stroke="black" stroke-width="2"/>
    <circle cx="480.0" cy="80.0" r="25.0"
                        fill="white" stroke="black" stroke-width="2"/>
    <polygon points="535.0,55 510,105 560,105"
                        fill="black" stroke="black" stroke-width="2"/>
    <rect x="565" y="55" 
                        width="50" height="50" 
                        fill="white" stroke="black" stroke-width="2"/>
    <circle cx="645.0" cy="80.0" r="25.0"
                        fill="black" stroke="black" stroke-width="2"/>
    <rect x="675" y="55" 
                        width="50" height="50" 
                        fill="black" stroke="black" stroke-width="2"/>
    <rect x="400" y="110" 
                        width="50" height="50" 
                        fill="white" stroke="black" stroke-width="2"/>
    <circle cx="480.0" cy="135.0" r="25.0"
                        fill="black" stroke="black" stroke-width="2"/>
    <rect x="510" y="110" 
                        width="50" height="50" 
                        fill="white" stroke="black" stroke-width="2"/>
    <polygon points="590.0,110 565,160 615,160"
                        fill="black" stroke="black" stroke-width="2"/>
    <rect x="620" y="110" 
                        width="50" height="50" 
                        fill="white" stroke="black" stroke-width="2"/>
    <rect x="675" y="110" 
                        width="50" height="50" 
                        fill="white" stroke="black" stroke-width="2"/>
    <rect x="780" y="0" 
            width="330" height="165" 
            fill="none" stroke="black" stroke-width="3"/>
    <circle cx="805.0" cy="25.0" r="25.0"
                        fill="black" stroke="black" stroke-width="2"/>
    <rect x="835" y="0" 
                        width="50" height="50" 
                        fill="white" stroke="black" stroke-width="2"/>
    <polygon points="915.0,0 890,50 940,50"
                        fill="white" stroke="black" stroke-width="2"/>
    <circle cx="970.0" cy="25.0" r="25.0"
                        fill="white" stroke="black" stroke-width="2"/>
    <rect x="1000" y="0" 
                        width="50" height="50" 
                        fill="white" stroke="black" stroke-width="2"/>
    <polygon points="1080.0,0 1055,50 1105,50"
                        fill="black" stroke="black" stroke-width="2"/>
    <rect x="780" y="55" 
                        width="50" height="50" 
                        fill="black" stroke="black" stroke-width="2"/>
    <circle cx="860.0" cy="80.0" r="25.0"
                        fill="black" stroke="black" stroke-width="2"/>
    <circle cx="915.0" cy="80.0" r="25.0"
                        fill="white" stroke="black" stroke-width="2"/>
    <rect x="945" y="55" 
                        width="50" height="50" 
                        fill="black" stroke="black" stroke-width="2"/>
    <polygon points="1025.0,55 1000,105 1050,105"
                        fill="black" stroke="black" stroke-width="2"/>
    <rect x="1055" y="55" 
                        width="50" height="50" 
                        fill="white" stroke="black" stroke-width="2"/>
    <polygon points="805.0,110 780,160 830,160"
                        fill="white" stroke="black" stroke-width="2"/>
    <circle cx="860.0" cy="135.0" r="25.0"
                        fill="white" stroke="black" stroke-width="2"/>
    <polygon points="915.0,110 890,160 940,160"
                        fill="black" stroke="black" stroke-width="2"/>
    <rect x="945" y="110" 
                        width="50" height="50" 
                        fill="black" stroke="black" stroke-width="2"/>
    <polygon points="1025.0,110 1000,160 1050,160"
                        fill="white" stroke="black" stroke-width="2"/>
    <rect x="1055" y="110" 
                        width="50" height="50" 
                        fill="white" stroke="black" stroke-width="2"/>
    <rect x="1160" y="0" 
            width="330" height="165" 
            fill="none" stroke="black" stroke-width="3"/>
    <polygon points="1185.0,0 1160,50 1210,50"
                        fill="white" stroke="black" stroke-width="2"/>
    <rect x="1215" y="0" 
                        width="50" height="50" 
                        fill="white" stroke="black" stroke-width="2"/>
    <rect x="1270" y="0" 
                        width="50" height="50" 
                        fill="black" stroke="black" stroke-width="2"/>
    <circle cx="1350.0" cy="25.0" r="25.0"
                        fill="white" stroke="black" stroke-width="2"/>
    <polygon points="1405.0,0 1380,50 1430,50"
                        fill="white" stroke="black" stroke-width="2"/>
    <rect x="1435" y="0" 
                        width="50" height="50" 
                        fill="black" stroke="black" stroke-width="2"/>
    <circle cx="1185.0" cy="80.0" r="25.0"
                        fill="white" stroke="black" stroke-width="2"/>
    <polygon points="1240.0,55 1215,105 1265,105"
                        fill="black" stroke="black" stroke-width="2"/>
    <polygon points="1295.0,55 1270,105 1320,105"
                        fill="black" stroke="black" stroke-width="2"/>
    <circle cx="1350.0" cy="80.0" r="25.0"
                        fill="white" stroke="black" stroke-width="2"/>
    <circle cx="1405.0" cy="80.0" r="25.0"
                        fill="black" stroke="black" stroke-width="2"/>
    <circle cx="1460.0" cy="80.0" r="25.0"
                        fill="black" stroke="black" stroke-width="2"/>
    <rect x="1160" y="110" 
                        width="50" height="50" 
                        fill="black" stroke="black" stroke-width="2"/>
    <polygon points="1240.0,110 1215,160 1265,160"
                        fill="white" stroke="black" stroke-width="2"/>
    <polygon points="1295.0,110 1270,160 1320,160"
                        fill="white" stroke="black" stroke-width="2"/>
    <circle cx="1350.0" cy="135.0" r="25.0"
                        fill="white" stroke="black" stroke-width="2"/>
    <circle cx="1405.0" cy="135.0" r="25.0"
                        fill="white" stroke="black" stroke-width="2"/>
    <circle cx="1460.0" cy="135.0" r="25.0"
                        fill="black" stroke="black" stroke-width="2"/>
    <rect x="1540" y="0" 
            width="330" height="165" 
            fill="none" stroke="black" stroke-width="3"/>
    <polygon points="1565.0,0 1540,50 1590,50"
                        fill="white" stroke="black" stroke-width="2"/>
    <polygon points="1620.0,0 1595,50 1645,50"
                        fill="white" stroke="black" stroke-width="2"/>
    <circle cx="1675.0" cy="25.0" r="25.0"
                        fill="black" stroke="black" stroke-width="2"/>
    <rect x="1705" y="0" 
                        width="50" height="50" 
                        fill="white" stroke="black" stroke-width="2"/>
    <circle cx="1785.0" cy="25.0" r="25.0"
                        fill="black" stroke="black" stroke-width="2"/>
    <polygon points="1840.0,0 1815,50 1865,50"
                        fill="black" stroke="black" stroke-width="2"/>
    <circle cx="1565.0" cy="80.0" r="25.0"
                        fill="white" stroke="black" stroke-width="2"/>
    <circle cx="1620.0" cy="80.0" r="25.0"
                        fill="black" stroke="black" stroke-width="2"/>
    <circle cx="1675.0" cy="80.0" r="25.0"
                        fill="black" stroke="black" stroke-width="2"/>
    <polygon points="1730.0,55 1705,105 1755,105"
                        fill="white" stroke="black" stroke-width="2"/>
    <rect x="1760" y="55" 
                        width="50" height="50" 
                        fill="white" stroke="black" stroke-width="2"/>
    <polygon points="1840.0,55 1815,105 1865,105"
                        fill="white" stroke="black" stroke-width="2"/>
    <circle cx="1565.0" cy="135.0" r="25.0"
                        fill="black" stroke="black" stroke-width="2"/>
    <rect x="1595" y="110" 
                        width="50" height="50" 
                        fill="white" stroke="black" stroke-width="2"/>
    <rect x="1650" y="110" 
                        width="50" height="50" 
                        fill="white" stroke="black" stroke-width="2"/>
    <polygon points="1730.0,110 1705,160 1755,160"
                        fill="white" stroke="black" stroke-width="2"/>
    <polygon points="1785.0,110 1760,160 1810,160"
                        fill="black" stroke="black" stroke-width="2"/>
    <rect x="1815" y="110" 
                        width="50" height="50" 
                        fill="black" stroke="black" stroke-width="2"/>
</svg>