<?xml version="1.0" encoding="UTF-8" standalone="no"?>
<svg width="1625" height="165" xmlns="http://www.w3.org/2000/svg">
    <!-- White background -->
    <rect width="1625" height="165" fill="white"/>
    <rect x="20" y="0" 
            width="495" height="165" 
            fill="none" stroke="black" stroke-width="3"/>
    <circle cx="45.0" cy="25.0" r="25.0"
                        fill="white" stroke="black" stroke-width="2"/>
    <polygon points="100.0,0 75,50 125,50"
                        fill="white" stroke="black" stroke-width="2"/>
    <circle cx="155.0" cy="25.0" r="25.0"
                        fill="black" stroke="black" stroke-width="2"/>
    <rect x="185" y="0" 
                        width="50" height="50" 
                        fill="white" stroke="black" stroke-width="2"/>
    <polygon points="265.0,0 240,50 290,50"
                        fill="white" stroke="black" stroke-width="2"/>
    <circle cx="320.0" cy="25.0" r="25.0"
                        fill="white" stroke="black" stroke-width="2"/>
    <polygon points="375.0,0 350,50 400,50"
                        fill="white" stroke="black" stroke-width="2"/>
    <circle cx="430.0" cy="25.0" r="25.0"
                        fill="black" stroke="black" stroke-width="2"/>
    <polygon points="485.0,0 460,50 510,50"
                        fill="black" stroke="black" stroke-width="2"/>
    <circle cx="45.0" cy="80.0" r="25.0"
                        fill="black" stroke="black" stroke-width="2"/>
    <polygon points="100.0,55 75,105 125,105"
                        fill="white" stroke="black" stroke-width="2"/>
    <rect x="130" y="55" 
                        width="50" height="50" 
                        fill="white" stroke="black" stroke-width="2"/>
    <rect x="185" y="55" 
                        width="50" height="50" 
                        fill="white" stroke="black" stroke-width="2"/>
    <circle cx="265.0" cy="80.0" r="25.0"
                        fill="black" stroke="black" stroke-width="2"/>
    <circle cx="320.0" cy="80.0" r="25.0"
                        fill="white" stroke="black" stroke-width="2"/>
    <circle cx="375.0" cy="80.0" r="25.0"
                        fill="black" stroke="black" stroke-width="2"/>
    <rect x="405" y="55" 
                        width="50" height="50" 
                        fill="white" stroke="black" stroke-width="2"/>
    <polygon points="485.0,55 460,105 510,105"
                        fill="white" stroke="black" stroke-width="2"/>
    <rect x="20" y="110" 
                        width="50" height="50" 
                        fill="black" stroke="black" stroke-width="2"/>
    <circle cx="100.0" cy="135.0" r="25.0"
                        fill="white" stroke="black" stroke-width="2"/>
    <circle cx="155.0" cy="135.0" r="25.0"
                        fill="white" stroke="black" stroke-width="2"/>
    <circle cx="210.0" cy="135.0" r="25.0"
                        fill="white" stroke="black" stroke-width="2"/>
    <rect x="240" y="110" 
                        width="50" height="50" 
                        fill="white" stroke="black" stroke-width="2"/>
    <circle cx="320.0" cy="135.0" r="25.0"
                        fill="white" stroke="black" stroke-width="2"/>
    <polygon points="375.0,110 350,160 400,160"
                        fill="white" stroke="black" stroke-width="2"/>
    <polygon points="430.0,110 405,160 455,160"
                        fill="black" stroke="black" stroke-width="2"/>
    <polygon points="485.0,110 460,160 510,160"
                        fill="white" stroke="black" stroke-width="2"/>
    <rect x="565" y="0" 
            width="495" height="165" 
            fill="none" stroke="black" stroke-width="3"/>
    <rect x="565" y="0" 
                        width="50" height="50" 
                        fill="white" stroke="black" stroke-width="2"/>
    <rect x="620" y="0" 
                        width="50" height="50" 
                        fill="white" stroke="black" stroke-width="2"/>
    <circle cx="700.0" cy="25.0" r="25.0"
                        fill="black" stroke="black" stroke-width="2"/>
    <rect x="730" y="0" 
                        width="50" height="50" 
                        fill="white" stroke="black" stroke-width="2"/>
    <rect x="785" y="0" 
                        width="50" height="50" 
                        fill="white" stroke="black" stroke-width="2"/>
    <rect x="840" y="0" 
                        width="50" height="50" 
                        fill="black" stroke="black" stroke-width="2"/>
    <polygon points="920.0,0 895,50 945,50"
                        fill="white" stroke="black" stroke-width="2"/>
    <rect x="950" y="0" 
                        width="50" height="50" 
                        fill="black" stroke="black" stroke-width="2"/>
    <circle cx="1030.0" cy="25.0" r="25.0"
                        fill="black" stroke="black" stroke-width="2"/>
    <circle cx="590.0" cy="80.0" r="25.0"
                        fill="white" stroke="black" stroke-width="2"/>
    <circle cx="645.0" cy="80.0" r="25.0"
                        fill="white" stroke="black" stroke-width="2"/>
    <circle cx="700.0" cy="80.0" r="25.0"
                        fill="black" stroke="black" stroke-width="2"/>
    <polygon points="755.0,55 730,105 780,105"
                        fill="white" stroke="black" stroke-width="2"/>
    <circle cx="810.0" cy="80.0" r="25.0"
                        fill="white" stroke="black" stroke-width="2"/>
    <rect x="840" y="55" 
                        width="50" height="50" 
                        fill="white" stroke="black" stroke-width="2"/>
    <polygon points="920.0,55 895,105 945,105"
                        fill="white" stroke="black" stroke-width="2"/>
    <rect x="950" y="55" 
                        width="50" height="50" 
                        fill="black" stroke="black" stroke-width="2"/>
    <rect x="1005" y="55" 
                        width="50" height="50" 
                        fill="white" stroke="black" stroke-width="2"/>
    <polygon points="590.0,110 565,160 615,160"
                        fill="white" stroke="black" stroke-width="2"/>
    <polygon points="645.0,110 620,160 670,160"
                        fill="black" stroke="black" stroke-width="2"/>
    <rect x="675" y="110" 
                        width="50" height="50" 
                        fill="white" stroke="black" stroke-width="2"/>
    <rect x="730" y="110" 
                        width="50" height="50" 
                        fill="white" stroke="black" stroke-width="2"/>
    <rect x="785" y="110" 
                        width="50" height="50" 
                        fill="white" stroke="black" stroke-width="2"/>
    <rect x="840" y="110" 
                        width="50" height="50" 
                        fill="black" stroke="black" stroke-width="2"/>
    <rect x="895" y="110" 
                        width="50" height="50" 
                        fill="black" stroke="black" stroke-width="2"/>
    <circle cx="975.0" cy="135.0" r="25.0"
                        fill="black" stroke="black" stroke-width="2"/>
    <rect x="1005" y="110" 
                        width="50" height="50" 
                        fill="white" stroke="black" stroke-width="2"/>
    <rect x="1110" y="0" 
            width="495" height="165" 
            fill="none" stroke="black" stroke-width="3"/>
    <polygon points="1135.0,0 1110,50 1160,50"
                        fill="black" stroke="black" stroke-width="2"/>
    <circle cx="1190.0" cy="25.0" r="25.0"
                        fill="black" stroke="black" stroke-width="2"/>
    <polygon points="1245.0,0 1220,50 1270,50"
                        fill="white" stroke="black" stroke-width="2"/>
    <circle cx="1300.0" cy="25.0" r="25.0"
                        fill="black" stroke="black" stroke-width="2"/>
    <polygon points="1355.0,0 1330,50 1380,50"
                        fill="black" stroke="black" stroke-width="2"/>
    <polygon points="1410.0,0 1385,50 1435,50"
                        fill="white" stroke="black" stroke-width="2"/>
    <rect x="1440" y="0" 
                        width="50" height="50" 
                        fill="white" stroke="black" stroke-width="2"/>
    <rect x="1495" y="0" 
                        width="50" height="50" 
                        fill="white" stroke="black" stroke-width="2"/>
    <circle cx="1575.0" cy="25.0" r="25.0"
                        fill="white" stroke="black" stroke-width="2"/>
    <rect x="1110" y="55" 
                        width="50" height="50" 
                        fill="black" stroke="black" stroke-width="2"/>
    <rect x="1165" y="55" 
                        width="50" height="50" 
                        fill="black" stroke="black" stroke-width="2"/>
    <polygon points="1245.0,55 1220,105 1270,105"
                        fill="white" stroke="black" stroke-width="2"/>
    <circle cx="1300.0" cy="80.0" r="25.0"
                        fill="white" stroke="black" stroke-width="2"/>
    <polygon points="1355.0,55 1330,105 1380,105"
                        fill="black" stroke="black" stroke-width="2"/>
    <rect x="1385" y="55" 
                        width="50" height="50" 
                        fill="black" stroke="black" stroke-width="2"/>
    <polygon points="1465.0,55 1440,105 1490,105"
                        fill="white" stroke="black" stroke-width="2"/>
    <rect x="1495" y="55" 
                        width="50" height="50" 
                        fill="black" stroke="black" stroke-width="2"/>
    <circle cx="1575.0" cy="80.0" r="25.0"
                        fill="white" stroke="black" stroke-width="2"/>
    <polygon points="1135.0,110 1110,160 1160,160"
                        fill="white" stroke="black" stroke-width="2"/>
    <polygon points="1190.0,110 1165,160 1215,160"
                        fill="white" stroke="black" stroke-width="2"/>
    <circle cx="1245.0" cy="135.0" r="25.0"
                        fill="white" stroke="black" stroke-width="2"/>
    <polygon points="1300.0,110 1275,160 1325,160"
                        fill="white" stroke="black" stroke-width="2"/>
    <rect x="1330" y="110" 
                        width="50" height="50" 
                        fill="black" stroke="black" stroke-width="2"/>
    <polygon points="1410.0,110 1385,160 1435,160"
                        fill="black" stroke="black" stroke-width="2"/>
    <rect x="1440" y="110" 
                        width="50" height="50" 
                        fill="white" stroke="black" stroke-width="2"/>
    <circle cx="1520.0" cy="135.0" r="25.0"
                        fill="white" stroke="black" stroke-width="2"/>
    <rect x="1550" y="110" 
                        width="50" height="50" 
                        fill="white" stroke="black" stroke-width="2"/>
</svg>