<?xml version="1.0" encoding="UTF-8" standalone="no"?>
<svg width="2715" height="165" xmlns="http://www.w3.org/2000/svg">
    <!-- White background -->
    <rect width="2715" height="165" fill="white"/>
    <rect x="20" y="0" 
            width="495" height="165" 
            fill="none" stroke="black" stroke-width="3"/>
    <polygon points="45.0,0 20,50 70,50"
                        fill="white" stroke="black" stroke-width="2"/>
    <circle cx="100.0" cy="25.0" r="25.0"
                        fill="white" stroke="black" stroke-width="2"/>
    <polygon points="155.0,0 130,50 180,50"
                        fill="white" stroke="black" stroke-width="2"/>
    <rect x="185" y="0" 
                        width="50" height="50" 
                        fill="black" stroke="black" stroke-width="2"/>
    <circle cx="265.0" cy="25.0" r="25.0"
                        fill="white" stroke="black" stroke-width="2"/>
    <rect x="295" y="0" 
                        width="50" height="50" 
                        fill="white" stroke="black" stroke-width="2"/>
    <polygon points="375.0,0 350,50 400,50"
                        fill="white" stroke="black" stroke-width="2"/>
    <rect x="405" y="0" 
                        width="50" height="50" 
                        fill="white" stroke="black" stroke-width="2"/>
    <rect x="460" y="0" 
                        width="50" height="50" 
                        fill="white" stroke="black" stroke-width="2"/>
    <polygon points="45.0,55 20,105 70,105"
                        fill="white" stroke="black" stroke-width="2"/>
    <circle cx="100.0" cy="80.0" r="25.0"
                        fill="white" stroke="black" stroke-width="2"/>
    <polygon points="155.0,55 130,105 180,105"
                        fill="white" stroke="black" stroke-width="2"/>
    <circle cx="210.0" cy="80.0" r="25.0"
                        fill="black" stroke="black" stroke-width="2"/>
    <circle cx="265.0" cy="80.0" r="25.0"
                        fill="white" stroke="black" stroke-width="2"/>
    <circle cx="320.0" cy="80.0" r="25.0"
                        fill="black" stroke="black" stroke-width="2"/>
    <polygon points="375.0,55 350,105 400,105"
                        fill="white" stroke="black" stroke-width="2"/>
    <circle cx="430.0" cy="80.0" r="25.0"
                        fill="black" stroke="black" stroke-width="2"/>
    <rect x="460" y="55" 
                        width="50" height="50" 
                        fill="white" stroke="black" stroke-width="2"/>
    <rect x="20" y="110" 
                        width="50" height="50" 
                        fill="white" stroke="black" stroke-width="2"/>
    <rect x="75" y="110" 
                        width="50" height="50" 
                        fill="black" stroke="black" stroke-width="2"/>
    <circle cx="155.0" cy="135.0" r="25.0"
                        fill="black" stroke="black" stroke-width="2"/>
    <rect x="185" y="110" 
                        width="50" height="50" 
                        fill="white" stroke="black" stroke-width="2"/>
    <circle cx="265.0" cy="135.0" r="25.0"
                        fill="white" stroke="black" stroke-width="2"/>
    <rect x="295" y="110" 
                        width="50" height="50" 
                        fill="white" stroke="black" stroke-width="2"/>
    <circle cx="375.0" cy="135.0" r="25.0"
                        fill="white" stroke="black" stroke-width="2"/>
    <rect x="405" y="110" 
                        width="50" height="50" 
                        fill="white" stroke="black" stroke-width="2"/>
    <polygon points="485.0,110 460,160 510,160"
                        fill="white" stroke="black" stroke-width="2"/>
    <rect x="565" y="0" 
            width="495" height="165" 
            fill="none" stroke="black" stroke-width="3"/>
    <polygon points="590.0,0 565,50 615,50"
                        fill="black" stroke="black" stroke-width="2"/>
    <rect x="620" y="0" 
                        width="50" height="50" 
                        fill="white" stroke="black" stroke-width="2"/>
    <rect x="675" y="0" 
                        width="50" height="50" 
                        fill="black" stroke="black" stroke-width="2"/>
    <polygon points="755.0,0 730,50 780,50"
                        fill="white" stroke="black" stroke-width="2"/>
    <rect x="785" y="0" 
                        width="50" height="50" 
                        fill="white" stroke="black" stroke-width="2"/>
    <polygon points="865.0,0 840,50 890,50"
                        fill="black" stroke="black" stroke-width="2"/>
    <polygon points="920.0,0 895,50 945,50"
                        fill="black" stroke="black" stroke-width="2"/>
    <rect x="950" y="0" 
                        width="50" height="50" 
                        fill="white" stroke="black" stroke-width="2"/>
    <circle cx="1030.0" cy="25.0" r="25.0"
                        fill="white" stroke="black" stroke-width="2"/>
    <rect x="565" y="55" 
                        width="50" height="50" 
                        fill="white" stroke="black" stroke-width="2"/>
    <polygon points="645.0,55 620,105 670,105"
                        fill="black" stroke="black" stroke-width="2"/>
    <polygon points="700.0,55 675,105 725,105"
                        fill="white" stroke="black" stroke-width="2"/>
    <circle cx="755.0" cy="80.0" r="25.0"
                        fill="white" stroke="black" stroke-width="2"/>
    <rect x="785" y="55" 
                        width="50" height="50" 
                        fill="black" stroke="black" stroke-width="2"/>
    <circle cx="865.0" cy="80.0" r="25.0"
                        fill="black" stroke="black" stroke-width="2"/>
    <rect x="895" y="55" 
                        width="50" height="50" 
                        fill="black" stroke="black" stroke-width="2"/>
    <polygon points="975.0,55 950,105 1000,105"
                        fill="black" stroke="black" stroke-width="2"/>
    <polygon points="1030.0,55 1005,105 1055,105"
                        fill="black" stroke="black" stroke-width="2"/>
    <rect x="565" y="110" 
                        width="50" height="50" 
                        fill="black" stroke="black" stroke-width="2"/>
    <rect x="620" y="110" 
                        width="50" height="50" 
                        fill="white" stroke="black" stroke-width="2"/>
    <polygon points="700.0,110 675,160 725,160"
                        fill="white" stroke="black" stroke-width="2"/>
    <circle cx="755.0" cy="135.0" r="25.0"
                        fill="white" stroke="black" stroke-width="2"/>
    <rect x="785" y="110" 
                        width="50" height="50" 
                        fill="black" stroke="black" stroke-width="2"/>
    <circle cx="865.0" cy="135.0" r="25.0"
                        fill="black" stroke="black" stroke-width="2"/>
    <polygon points="920.0,110 895,160 945,160"
                        fill="white" stroke="black" stroke-width="2"/>
    <polygon points="975.0,110 950,160 1000,160"
                        fill="black" stroke="black" stroke-width="2"/>
    <polygon points="1030.0,110 1005,160 1055,160"
                        fill="white" stroke="black" stroke-width="2"/>
    <rect x="1110" y="0" 
            width="495" height="165" 
            fill="none" stroke="black" stroke-width="3"/>
    <rect x="1110" y="0" 
                        width="50" height="50" 
                        fill="black" stroke="black" stroke-width="2"/>
    <rect x="1165" y="0" 
                        width="50" height="50" 
                        fill="black" stroke="black" stroke-width="2"/>
    <rect x="1220" y="0" 
                        width="50" height="50" 
                        fill="white" stroke="black" stroke-width="2"/>
    <circle cx="1300.0" cy="25.0" r="25.0"
                        fill="white" stroke="black" stroke-width="2"/>
    <polygon points="1355.0,0 1330,50 1380,50"
                        fill="black" stroke="black" stroke-width="2"/>
    <rect x="1385" y="0" 
                        width="50" height="50" 
                        fill="white" stroke="black" stroke-width="2"/>
    <polygon points="1465.0,0 1440,50 1490,50"
                        fill="black" stroke="black" stroke-width="2"/>
    <polygon points="1520.0,0 1495,50 1545,50"
                        fill="black" stroke="black" stroke-width="2"/>
    <rect x="1550" y="0" 
                        width="50" height="50" 
                        fill="black" stroke="black" stroke-width="2"/>
    <polygon points="1135.0,55 1110,105 1160,105"
                        fill="black" stroke="black" stroke-width="2"/>
    <rect x="1165" y="55" 
                        width="50" height="50" 
                        fill="black" stroke="black" stroke-width="2"/>
    <rect x="1220" y="55" 
                        width="50" height="50" 
                        fill="white" stroke="black" stroke-width="2"/>
    <circle cx="1300.0" cy="80.0" r="25.0"
                        fill="white" stroke="black" stroke-width="2"/>
    <circle cx="1355.0" cy="80.0" r="25.0"
                        fill="black" stroke="black" stroke-width="2"/>
    <rect x="1385" y="55" 
                        width="50" height="50" 
                        fill="black" stroke="black" stroke-width="2"/>
    <circle cx="1465.0" cy="80.0" r="25.0"
                        fill="black" stroke="black" stroke-width="2"/>
    <circle cx="1520.0" cy="80.0" r="25.0"
                        fill="white" stroke="black" stroke-width="2"/>
    <polygon points="1575.0,55 1550,105 1600,105"
                        fill="white" stroke="black" stroke-width="2"/>
    <rect x="1110" y="110" 
                        width="50" height="50" 
                        fill="black" stroke="black" stroke-width="2"/>
    <rect x="1165" y="110" 
                        width="50" height="50" 
                        fill="black" stroke="black" stroke-width="2"/>
    <polygon points="1245.0,110 1220,160 1270,160"
                        fill="white" stroke="black" stroke-width="2"/>
    <polygon points="1300.0,110 1275,160 1325,160"
                        fill="black" stroke="black" stroke-width="2"/>
    <rect x="1330" y="110" 
                        width="50" height="50" 
                        fill="black" stroke="black" stroke-width="2"/>
    <polygon points="1410.0,110 1385,160 1435,160"
                        fill="white" stroke="black" stroke-width="2"/>
    <polygon points="1465.0,110 1440,160 1490,160"
                        fill="white" stroke="black" stroke-width="2"/>
    <polygon points="1520.0,110 1495,160 1545,160"
                        fill="black" stroke="black" stroke-width="2"/>
    <rect x="1550" y="110" 
                        width="50" height="50" 
                        fill="white" stroke="black" stroke-width="2"/>
    <rect x="1655" y="0" 
            width="495" height="165" 
            fill="none" stroke="black" stroke-width="3"/>
    <circle cx="1680.0" cy="25.0" r="25.0"
                        fill="black" stroke="black" stroke-width="2"/>
    <rect x="1710" y="0" 
                        width="50" height="50" 
                        fill="black" stroke="black" stroke-width="2"/>
    <polygon points="1790.0,0 1765,50 1815,50"
                        fill="black" stroke="black" stroke-width="2"/>
    <rect x="1820" y="0" 
                        width="50" height="50" 
                        fill="white" stroke="black" stroke-width="2"/>
    <rect x="1875" y="0" 
                        width="50" height="50" 
                        fill="black" stroke="black" stroke-width="2"/>
    <polygon points="1955.0,0 1930,50 1980,50"
                        fill="black" stroke="black" stroke-width="2"/>
    <polygon points="2010.0,0 1985,50 2035,50"
                        fill="white" stroke="black" stroke-width="2"/>
    <rect x="2040" y="0" 
                        width="50" height="50" 
                        fill="white" stroke="black" stroke-width="2"/>
    <circle cx="2120.0" cy="25.0" r="25.0"
                        fill="black" stroke="black" stroke-width="2"/>
    <polygon points="1680.0,55 1655,105 1705,105"
                        fill="white" stroke="black" stroke-width="2"/>
    <polygon points="1735.0,55 1710,105 1760,105"
                        fill="white" stroke="black" stroke-width="2"/>
    <rect x="1765" y="55" 
                        width="50" height="50" 
                        fill="white" stroke="black" stroke-width="2"/>
    <polygon points="1845.0,55 1820,105 1870,105"
                        fill="black" stroke="black" stroke-width="2"/>
    <polygon points="1900.0,55 1875,105 1925,105"
                        fill="black" stroke="black" stroke-width="2"/>
    <rect x="1930" y="55" 
                        width="50" height="50" 
                        fill="white" stroke="black" stroke-width="2"/>
    <polygon points="2010.0,55 1985,105 2035,105"
                        fill="black" stroke="black" stroke-width="2"/>
    <rect x="2040" y="55" 
                        width="50" height="50" 
                        fill="black" stroke="black" stroke-width="2"/>
    <rect x="2095" y="55" 
                        width="50" height="50" 
                        fill="white" stroke="black" stroke-width="2"/>
    <polygon points="1680.0,110 1655,160 1705,160"
                        fill="white" stroke="black" stroke-width="2"/>
    <rect x="1710" y="110" 
                        width="50" height="50" 
                        fill="white" stroke="black" stroke-width="2"/>
    <rect x="1765" y="110" 
                        width="50" height="50" 
                        fill="white" stroke="black" stroke-width="2"/>
    <polygon points="1845.0,110 1820,160 1870,160"
                        fill="white" stroke="black" stroke-width="2"/>
    <polygon points="1900.0,110 1875,160 1925,160"
                        fill="white" stroke="black" stroke-width="2"/>
    <rect x="1930" y="110" 
                        width="50" height="50" 
                        fill="black" stroke="black" stroke-width="2"/>
    <rect x="1985" y="110" 
                        width="50" height="50" 
                        fill="black" stroke="black" stroke-width="2"/>
    <rect x="2040" y="110" 
                        width="50" height="50" 
                        fill="white" stroke="black" stroke-width="2"/>
    <circle cx="2120.0" cy="135.0" r="25.0"
                        fill="white" stroke="black" stroke-width="2"/>
    <rect x="2200" y="0" 
            width="495" height="165" 
            fill="none" stroke="black" stroke-width="3"/>
    <rect x="2200" y="0" 
                        width="50" height="50" 
                        fill="white" stroke="black" stroke-width="2"/>
    <polygon points="2280.0,0 2255,50 2305,50"
                        fill="black" stroke="black" stroke-width="2"/>
    <rect x="2310" y="0" 
                        width="50" height="50" 
                        fill="black" stroke="black" stroke-width="2"/>
    <circle cx="2390.0" cy="25.0" r="25.0"
                        fill="white" stroke="black" stroke-width="2"/>
    <rect x="2420" y="0" 
                        width="50" height="50" 
                        fill="white" stroke="black" stroke-width="2"/>
    <circle cx="2500.0" cy="25.0" r="25.0"
                        fill="black" stroke="black" stroke-width="2"/>
    <polygon points="2555.0,0 2530,50 2580,50"
                        fill="white" stroke="black" stroke-width="2"/>
    <circle cx="2610.0" cy="25.0" r="25.0"
                        fill="white" stroke="black" stroke-width="2"/>
    <rect x="2640" y="0" 
                        width="50" height="50" 
                        fill="white" stroke="black" stroke-width="2"/>
    <circle cx="2225.0" cy="80.0" r="25.0"
                        fill="white" stroke="black" stroke-width="2"/>
    <circle cx="2280.0" cy="80.0" r="25.0"
                        fill="black" stroke="black" stroke-width="2"/>
    <polygon points="2335.0,55 2310,105 2360,105"
                        fill="white" stroke="black" stroke-width="2"/>
    <rect x="2365" y="55" 
                        width="50" height="50" 
                        fill="white" stroke="black" stroke-width="2"/>
    <polygon points="2445.0,55 2420,105 2470,105"
                        fill="black" stroke="black" stroke-width="2"/>
    <polygon points="2500.0,55 2475,105 2525,105"
                        fill="white" stroke="black" stroke-width="2"/>
    <polygon points="2555.0,55 2530,105 2580,105"
                        fill="black" stroke="black" stroke-width="2"/>
    <circle cx="2610.0" cy="80.0" r="25.0"
                        fill="black" stroke="black" stroke-width="2"/>
    <rect x="2640" y="55" 
                        width="50" height="50" 
                        fill="black" stroke="black" stroke-width="2"/>
    <circle cx="2225.0" cy="135.0" r="25.0"
                        fill="black" stroke="black" stroke-width="2"/>
    <circle cx="2280.0" cy="135.0" r="25.0"
                        fill="black" stroke="black" stroke-width="2"/>
    <rect x="2310" y="110" 
                        width="50" height="50" 
                        fill="black" stroke="black" stroke-width="2"/>
    <rect x="2365" y="110" 
                        width="50" height="50" 
                        fill="black" stroke="black" stroke-width="2"/>
    <rect x="2420" y="110" 
                        width="50" height="50" 
                        fill="white" stroke="black" stroke-width="2"/>
    <polygon points="2500.0,110 2475,160 2525,160"
                        fill="black" stroke="black" stroke-width="2"/>
    <polygon points="2555.0,110 2530,160 2580,160"
                        fill="black" stroke="black" stroke-width="2"/>
    <circle cx="2610.0" cy="135.0" r="25.0"
                        fill="black" stroke="black" stroke-width="2"/>
    <circle cx="2665.0" cy="135.0" r="25.0"
                        fill="black" stroke="black" stroke-width="2"/>
</svg>