<?xml version="1.0" encoding="UTF-8" standalone="no"?>
<svg width="2715" height="165" xmlns="http://www.w3.org/2000/svg">
    <!-- White background -->
    <rect width="2715" height="165" fill="white"/>
    <rect x="20" y="0" 
            width="495" height="165" 
            fill="none" stroke="black" stroke-width="3"/>
    <circle cx="45.0" cy="25.0" r="25.0"
                        fill="black" stroke="black" stroke-width="2"/>
    <circle cx="100.0" cy="25.0" r="25.0"
                        fill="white" stroke="black" stroke-width="2"/>
    <polygon points="155.0,0 130,50 180,50"
                        fill="white" stroke="black" stroke-width="2"/>
    <rect x="185" y="0" 
                        width="50" height="50" 
                        fill="black" stroke="black" stroke-width="2"/>
    <rect x="240" y="0" 
                        width="50" height="50" 
                        fill="white" stroke="black" stroke-width="2"/>
    <rect x="295" y="0" 
                        width="50" height="50" 
                        fill="white" stroke="black" stroke-width="2"/>
    <polygon points="375.0,0 350,50 400,50"
                        fill="black" stroke="black" stroke-width="2"/>
    <rect x="405" y="0" 
                        width="50" height="50" 
                        fill="white" stroke="black" stroke-width="2"/>
    <circle cx="485.0" cy="25.0" r="25.0"
                        fill="black" stroke="black" stroke-width="2"/>
    <polygon points="45.0,55 20,105 70,105"
                        fill="black" stroke="black" stroke-width="2"/>
    <polygon points="100.0,55 75,105 125,105"
                        fill="white" stroke="black" stroke-width="2"/>
    <circle cx="155.0" cy="80.0" r="25.0"
                        fill="black" stroke="black" stroke-width="2"/>
    <circle cx="210.0" cy="80.0" r="25.0"
                        fill="black" stroke="black" stroke-width="2"/>
    <polygon points="265.0,55 240,105 290,105"
                        fill="white" stroke="black" stroke-width="2"/>
    <rect x="295" y="55" 
                        width="50" height="50" 
                        fill="black" stroke="black" stroke-width="2"/>
    <circle cx="375.0" cy="80.0" r="25.0"
                        fill="black" stroke="black" stroke-width="2"/>
    <polygon points="430.0,55 405,105 455,105"
                        fill="black" stroke="black" stroke-width="2"/>
    <circle cx="485.0" cy="80.0" r="25.0"
                        fill="black" stroke="black" stroke-width="2"/>
    <circle cx="45.0" cy="135.0" r="25.0"
                        fill="black" stroke="black" stroke-width="2"/>
    <polygon points="100.0,110 75,160 125,160"
                        fill="black" stroke="black" stroke-width="2"/>
    <polygon points="155.0,110 130,160 180,160"
                        fill="white" stroke="black" stroke-width="2"/>
    <rect x="185" y="110" 
                        width="50" height="50" 
                        fill="black" stroke="black" stroke-width="2"/>
    <polygon points="265.0,110 240,160 290,160"
                        fill="white" stroke="black" stroke-width="2"/>
    <polygon points="320.0,110 295,160 345,160"
                        fill="black" stroke="black" stroke-width="2"/>
    <rect x="350" y="110" 
                        width="50" height="50" 
                        fill="black" stroke="black" stroke-width="2"/>
    <polygon points="430.0,110 405,160 455,160"
                        fill="white" stroke="black" stroke-width="2"/>
    <rect x="460" y="110" 
                        width="50" height="50" 
                        fill="black" stroke="black" stroke-width="2"/>
    <rect x="565" y="0" 
            width="495" height="165" 
            fill="none" stroke="black" stroke-width="3"/>
    <circle cx="590.0" cy="25.0" r="25.0"
                        fill="black" stroke="black" stroke-width="2"/>
    <rect x="620" y="0" 
                        width="50" height="50" 
                        fill="white" stroke="black" stroke-width="2"/>
    <circle cx="700.0" cy="25.0" r="25.0"
                        fill="white" stroke="black" stroke-width="2"/>
    <circle cx="755.0" cy="25.0" r="25.0"
                        fill="white" stroke="black" stroke-width="2"/>
    <rect x="785" y="0" 
                        width="50" height="50" 
                        fill="white" stroke="black" stroke-width="2"/>
    <circle cx="865.0" cy="25.0" r="25.0"
                        fill="black" stroke="black" stroke-width="2"/>
    <polygon points="920.0,0 895,50 945,50"
                        fill="black" stroke="black" stroke-width="2"/>
    <polygon points="975.0,0 950,50 1000,50"
                        fill="white" stroke="black" stroke-width="2"/>
    <rect x="1005" y="0" 
                        width="50" height="50" 
                        fill="black" stroke="black" stroke-width="2"/>
    <polygon points="590.0,55 565,105 615,105"
                        fill="white" stroke="black" stroke-width="2"/>
    <polygon points="645.0,55 620,105 670,105"
                        fill="black" stroke="black" stroke-width="2"/>
    <polygon points="700.0,55 675,105 725,105"
                        fill="white" stroke="black" stroke-width="2"/>
    <rect x="730" y="55" 
                        width="50" height="50" 
                        fill="white" stroke="black" stroke-width="2"/>
    <rect x="785" y="55" 
                        width="50" height="50" 
                        fill="black" stroke="black" stroke-width="2"/>
    <polygon points="865.0,55 840,105 890,105"
                        fill="white" stroke="black" stroke-width="2"/>
    <polygon points="920.0,55 895,105 945,105"
                        fill="white" stroke="black" stroke-width="2"/>
    <circle cx="975.0" cy="80.0" r="25.0"
                        fill="black" stroke="black" stroke-width="2"/>
    <rect x="1005" y="55" 
                        width="50" height="50" 
                        fill="black" stroke="black" stroke-width="2"/>
    <circle cx="590.0" cy="135.0" r="25.0"
                        fill="black" stroke="black" stroke-width="2"/>
    <circle cx="645.0" cy="135.0" r="25.0"
                        fill="white" stroke="black" stroke-width="2"/>
    <rect x="675" y="110" 
                        width="50" height="50" 
                        fill="black" stroke="black" stroke-width="2"/>
    <rect x="730" y="110" 
                        width="50" height="50" 
                        fill="white" stroke="black" stroke-width="2"/>
    <rect x="785" y="110" 
                        width="50" height="50" 
                        fill="white" stroke="black" stroke-width="2"/>
    <polygon points="865.0,110 840,160 890,160"
                        fill="white" stroke="black" stroke-width="2"/>
    <rect x="895" y="110" 
                        width="50" height="50" 
                        fill="white" stroke="black" stroke-width="2"/>
    <circle cx="975.0" cy="135.0" r="25.0"
                        fill="white" stroke="black" stroke-width="2"/>
    <circle cx="1030.0" cy="135.0" r="25.0"
                        fill="white" stroke="black" stroke-width="2"/>
    <rect x="1110" y="0" 
            width="495" height="165" 
            fill="none" stroke="black" stroke-width="3"/>
    <polygon points="1135.0,0 1110,50 1160,50"
                        fill="white" stroke="black" stroke-width="2"/>
    <circle cx="1190.0" cy="25.0" r="25.0"
                        fill="black" stroke="black" stroke-width="2"/>
    <circle cx="1245.0" cy="25.0" r="25.0"
                        fill="black" stroke="black" stroke-width="2"/>
    <polygon points="1300.0,0 1275,50 1325,50"
                        fill="white" stroke="black" stroke-width="2"/>
    <circle cx="1355.0" cy="25.0" r="25.0"
                        fill="black" stroke="black" stroke-width="2"/>
    <rect x="1385" y="0" 
                        width="50" height="50" 
                        fill="black" stroke="black" stroke-width="2"/>
    <rect x="1440" y="0" 
                        width="50" height="50" 
                        fill="white" stroke="black" stroke-width="2"/>
    <polygon points="1520.0,0 1495,50 1545,50"
                        fill="white" stroke="black" stroke-width="2"/>
    <rect x="1550" y="0" 
                        width="50" height="50" 
                        fill="white" stroke="black" stroke-width="2"/>
    <polygon points="1135.0,55 1110,105 1160,105"
                        fill="white" stroke="black" stroke-width="2"/>
    <polygon points="1190.0,55 1165,105 1215,105"
                        fill="black" stroke="black" stroke-width="2"/>
    <polygon points="1245.0,55 1220,105 1270,105"
                        fill="white" stroke="black" stroke-width="2"/>
    <circle cx="1300.0" cy="80.0" r="25.0"
                        fill="black" stroke="black" stroke-width="2"/>
    <rect x="1330" y="55" 
                        width="50" height="50" 
                        fill="black" stroke="black" stroke-width="2"/>
    <circle cx="1410.0" cy="80.0" r="25.0"
                        fill="black" stroke="black" stroke-width="2"/>
    <polygon points="1465.0,55 1440,105 1490,105"
                        fill="white" stroke="black" stroke-width="2"/>
    <circle cx="1520.0" cy="80.0" r="25.0"
                        fill="white" stroke="black" stroke-width="2"/>
    <polygon points="1575.0,55 1550,105 1600,105"
                        fill="black" stroke="black" stroke-width="2"/>
    <circle cx="1135.0" cy="135.0" r="25.0"
                        fill="white" stroke="black" stroke-width="2"/>
    <circle cx="1190.0" cy="135.0" r="25.0"
                        fill="black" stroke="black" stroke-width="2"/>
    <polygon points="1245.0,110 1220,160 1270,160"
                        fill="white" stroke="black" stroke-width="2"/>
    <polygon points="1300.0,110 1275,160 1325,160"
                        fill="black" stroke="black" stroke-width="2"/>
    <polygon points="1355.0,110 1330,160 1380,160"
                        fill="black" stroke="black" stroke-width="2"/>
    <polygon points="1410.0,110 1385,160 1435,160"
                        fill="white" stroke="black" stroke-width="2"/>
    <rect x="1440" y="110" 
                        width="50" height="50" 
                        fill="black" stroke="black" stroke-width="2"/>
    <rect x="1495" y="110" 
                        width="50" height="50" 
                        fill="black" stroke="black" stroke-width="2"/>
    <rect x="1550" y="110" 
                        width="50" height="50" 
                        fill="black" stroke="black" stroke-width="2"/>
    <rect x="1655" y="0" 
            width="495" height="165" 
            fill="none" stroke="black" stroke-width="3"/>
    <circle cx="1680.0" cy="25.0" r="25.0"
                        fill="black" stroke="black" stroke-width="2"/>
    <polygon points="1735.0,0 1710,50 1760,50"
                        fill="black" stroke="black" stroke-width="2"/>
    <rect x="1765" y="0" 
                        width="50" height="50" 
                        fill="white" stroke="black" stroke-width="2"/>
    <rect x="1820" y="0" 
                        width="50" height="50" 
                        fill="black" stroke="black" stroke-width="2"/>
    <polygon points="1900.0,0 1875,50 1925,50"
                        fill="black" stroke="black" stroke-width="2"/>
    <polygon points="1955.0,0 1930,50 1980,50"
                        fill="black" stroke="black" stroke-width="2"/>
    <polygon points="2010.0,0 1985,50 2035,50"
                        fill="white" stroke="black" stroke-width="2"/>
    <circle cx="2065.0" cy="25.0" r="25.0"
                        fill="black" stroke="black" stroke-width="2"/>
    <circle cx="2120.0" cy="25.0" r="25.0"
                        fill="white" stroke="black" stroke-width="2"/>
    <circle cx="1680.0" cy="80.0" r="25.0"
                        fill="black" stroke="black" stroke-width="2"/>
    <polygon points="1735.0,55 1710,105 1760,105"
                        fill="white" stroke="black" stroke-width="2"/>
    <rect x="1765" y="55" 
                        width="50" height="50" 
                        fill="black" stroke="black" stroke-width="2"/>
    <rect x="1820" y="55" 
                        width="50" height="50" 
                        fill="black" stroke="black" stroke-width="2"/>
    <circle cx="1900.0" cy="80.0" r="25.0"
                        fill="black" stroke="black" stroke-width="2"/>
    <circle cx="1955.0" cy="80.0" r="25.0"
                        fill="white" stroke="black" stroke-width="2"/>
    <rect x="1985" y="55" 
                        width="50" height="50" 
                        fill="black" stroke="black" stroke-width="2"/>
    <polygon points="2065.0,55 2040,105 2090,105"
                        fill="white" stroke="black" stroke-width="2"/>
    <polygon points="2120.0,55 2095,105 2145,105"
                        fill="white" stroke="black" stroke-width="2"/>
    <polygon points="1680.0,110 1655,160 1705,160"
                        fill="white" stroke="black" stroke-width="2"/>
    <rect x="1710" y="110" 
                        width="50" height="50" 
                        fill="white" stroke="black" stroke-width="2"/>
    <circle cx="1790.0" cy="135.0" r="25.0"
                        fill="black" stroke="black" stroke-width="2"/>
    <circle cx="1845.0" cy="135.0" r="25.0"
                        fill="black" stroke="black" stroke-width="2"/>
    <polygon points="1900.0,110 1875,160 1925,160"
                        fill="white" stroke="black" stroke-width="2"/>
    <polygon points="1955.0,110 1930,160 1980,160"
                        fill="black" stroke="black" stroke-width="2"/>
    <circle cx="2010.0" cy="135.0" r="25.0"
                        fill="black" stroke="black" stroke-width="2"/>
    <rect x="2040" y="110" 
                        width="50" height="50" 
                        fill="black" stroke="black" stroke-width="2"/>
    <rect x="2095" y="110" 
                        width="50" height="50" 
                        fill="white" stroke="black" stroke-width="2"/>
    <rect x="2200" y="0" 
            width="495" height="165" 
            fill="none" stroke="black" stroke-width="3"/>
    <circle cx="2225.0" cy="25.0" r="25.0"
                        fill="black" stroke="black" stroke-width="2"/>
    <circle cx="2280.0" cy="25.0" r="25.0"
                        fill="white" stroke="black" stroke-width="2"/>
    <circle cx="2335.0" cy="25.0" r="25.0"
                        fill="black" stroke="black" stroke-width="2"/>
    <polygon points="2390.0,0 2365,50 2415,50"
                        fill="white" stroke="black" stroke-width="2"/>
    <rect x="2420" y="0" 
                        width="50" height="50" 
                        fill="black" stroke="black" stroke-width="2"/>
    <circle cx="2500.0" cy="25.0" r="25.0"
                        fill="white" stroke="black" stroke-width="2"/>
    <polygon points="2555.0,0 2530,50 2580,50"
                        fill="white" stroke="black" stroke-width="2"/>
    <polygon points="2610.0,0 2585,50 2635,50"
                        fill="black" stroke="black" stroke-width="2"/>
    <circle cx="2665.0" cy="25.0" r="25.0"
                        fill="white" stroke="black" stroke-width="2"/>
    <polygon points="2225.0,55 2200,105 2250,105"
                        fill="white" stroke="black" stroke-width="2"/>
    <polygon points="2280.0,55 2255,105 2305,105"
                        fill="white" stroke="black" stroke-width="2"/>
    <rect x="2310" y="55" 
                        width="50" height="50" 
                        fill="white" stroke="black" stroke-width="2"/>
    <rect x="2365" y="55" 
                        width="50" height="50" 
                        fill="black" stroke="black" stroke-width="2"/>
    <polygon points="2445.0,55 2420,105 2470,105"
                        fill="white" stroke="black" stroke-width="2"/>
    <rect x="2475" y="55" 
                        width="50" height="50" 
                        fill="black" stroke="black" stroke-width="2"/>
    <polygon points="2555.0,55 2530,105 2580,105"
                        fill="white" stroke="black" stroke-width="2"/>
    <rect x="2585" y="55" 
                        width="50" height="50" 
                        fill="black" stroke="black" stroke-width="2"/>
    <circle cx="2665.0" cy="80.0" r="25.0"
                        fill="black" stroke="black" stroke-width="2"/>
    <rect x="2200" y="110" 
                        width="50" height="50" 
                        fill="white" stroke="black" stroke-width="2"/>
    <polygon points="2280.0,110 2255,160 2305,160"
                        fill="black" stroke="black" stroke-width="2"/>
    <circle cx="2335.0" cy="135.0" r="25.0"
                        fill="white" stroke="black" stroke-width="2"/>
    <polygon points="2390.0,110 2365,160 2415,160"
                        fill="white" stroke="black" stroke-width="2"/>
    <rect x="2420" y="110" 
                        width="50" height="50" 
                        fill="black" stroke="black" stroke-width="2"/>
    <circle cx="2500.0" cy="135.0" r="25.0"
                        fill="black" stroke="black" stroke-width="2"/>
    <rect x="2530" y="110" 
                        width="50" height="50" 
                        fill="white" stroke="black" stroke-width="2"/>
    <polygon points="2610.0,110 2585,160 2635,160"
                        fill="black" stroke="black" stroke-width="2"/>
    <rect x="2640" y="110" 
                        width="50" height="50" 
                        fill="white" stroke="black" stroke-width="2"/>
</svg>