<?xml version="1.0" encoding="UTF-8" standalone="no"?>
<svg width="205" height="330" xmlns="http://www.w3.org/2000/svg">
    <!-- White background -->
    <rect width="205" height="330" fill="white"/>
    <rect x="20" y="0" 
            width="165" height="330" 
            fill="none" stroke="black" stroke-width="3"/>
    <rect x="20" y="0" 
                        width="50" height="50" 
                        fill="white" stroke="black" stroke-width="2"/>
    <circle cx="100.0" cy="25.0" r="25.0"
                        fill="white" stroke="black" stroke-width="2"/>
    <polygon points="155.0,0 130,50 180,50"
                        fill="white" stroke="black" stroke-width="2"/>
    <circle cx="45.0" cy="80.0" r="25.0"
                        fill="white" stroke="black" stroke-width="2"/>
    <polygon points="100.0,55 75,105 125,105"
                        fill="white" stroke="black" stroke-width="2"/>
    <polygon points="155.0,55 130,105 180,105"
                        fill="white" stroke="black" stroke-width="2"/>
    <circle cx="45.0" cy="135.0" r="25.0"
                        fill="black" stroke="black" stroke-width="2"/>
    <rect x="75" y="110" 
                        width="50" height="50" 
                        fill="white" stroke="black" stroke-width="2"/>
    <circle cx="155.0" cy="135.0" r="25.0"
                        fill="black" stroke="black" stroke-width="2"/>
    <circle cx="45.0" cy="190.0" r="25.0"
                        fill="black" stroke="black" stroke-width="2"/>
    <circle cx="100.0" cy="190.0" r="25.0"
                        fill="black" stroke="black" stroke-width="2"/>
    <polygon points="155.0,165 130,215 180,215"
                        fill="white" stroke="black" stroke-width="2"/>
    <circle cx="45.0" cy="245.0" r="25.0"
                        fill="white" stroke="black" stroke-width="2"/>
    <polygon points="100.0,220 75,270 125,270"
                        fill="white" stroke="black" stroke-width="2"/>
    <rect x="130" y="220" 
                        width="50" height="50" 
                        fill="black" stroke="black" stroke-width="2"/>
    <circle cx="45.0" cy="300.0" r="25.0"
                        fill="black" stroke="black" stroke-width="2"/>
    <circle cx="100.0" cy="300.0" r="25.0"
                        fill="black" stroke="black" stroke-width="2"/>
    <circle cx="155.0" cy="300.0" r="25.0"
                        fill="white" stroke="black" stroke-width="2"/>
</svg>